<svg width="297" height="220" viewBox="0 0 297 220" fill="none" xmlns="http://www.w3.org/2000/svg">
<circle cx="201" cy="21" r="3" fill="#067389"/>
<circle cx="231" cy="21" r="3" fill="#067389"/>
<circle cx="261" cy="21" r="3" fill="#067389"/>
<circle cx="288" cy="21" r="3" fill="#067389"/>
<circle cx="201" cy="49" r="3" fill="#067389"/>
<circle cx="231" cy="49" r="3" fill="#067389"/>
<circle cx="261" cy="49" r="3" fill="#067389"/>
<circle cx="288" cy="49" r="3" fill="#067389"/>
<circle cx="201" cy="77" r="3" fill="#067389"/>
<circle cx="231" cy="77" r="3" fill="#067389"/>
<circle cx="261" cy="77" r="3" fill="#067389"/>
<circle cx="288" cy="77" r="3" fill="#067389"/>
<circle cx="201" cy="105" r="3" fill="#067389"/>
<circle cx="231" cy="105" r="3" fill="#067389"/>
<circle cx="261" cy="105" r="3" fill="#067389"/>
<circle cx="288" cy="105" r="3" fill="#067389"/>
<circle cx="201" cy="133" r="3" fill="#067389"/>
<circle cx="231" cy="133" r="3" fill="#067389"/>
<circle cx="261" cy="133" r="3" fill="#067389"/>
<circle cx="288" cy="133" r="3" fill="#067389"/>
<circle cx="201" cy="161" r="3" fill="#067389"/>
<circle cx="231" cy="161" r="3" fill="#067389"/>
<circle cx="261" cy="161" r="3" fill="#067389"/>
<circle cx="288" cy="161" r="3" fill="#067389"/>
<circle cx="201" cy="189" r="3" fill="#067389"/>
<circle cx="231" cy="189" r="3" fill="#067389"/>
<circle cx="261" cy="189" r="3" fill="#067389"/>
<circle cx="288" cy="189" r="3" fill="#067389"/>
<circle cx="201" cy="217" r="3" fill="#067389"/>
<circle cx="231" cy="217" r="3" fill="#067389"/>
<circle cx="261" cy="217" r="3" fill="#067389"/>
<circle cx="288" cy="217" r="3" fill="#067389"/>
<circle cx="3" cy="21" r="3" fill="#067389"/>
<circle cx="33" cy="21" r="3" fill="#067389"/>
<circle cx="63" cy="21" r="3" fill="#067389"/>
<circle cx="90" cy="21" r="3" fill="#067389"/>
<circle cx="120" cy="21" r="3" fill="#067389"/>
<circle cx="147" cy="21" r="3" fill="#067389"/>
<circle cx="174" cy="21" r="3" fill="#067389"/>
<circle cx="3" cy="49" r="3" fill="#067389"/>
<circle cx="33" cy="49" r="3" fill="#067389"/>
<circle cx="63" cy="49" r="3" fill="#067389"/>
<circle cx="90" cy="49" r="3" fill="#067389"/>
<circle cx="120" cy="49" r="3" fill="#067389"/>
<circle cx="147" cy="49" r="3" fill="#067389"/>
<circle cx="174" cy="49" r="3" fill="#067389"/>
<circle cx="3" cy="77" r="3" fill="#067389"/>
<circle cx="33" cy="77" r="3" fill="#067389"/>
<circle cx="63" cy="77" r="3" fill="#067389"/>
<circle cx="90" cy="77" r="3" fill="#067389"/>
<circle cx="120" cy="77" r="3" fill="#067389"/>
<circle cx="147" cy="77" r="3" fill="#067389"/>
<circle cx="174" cy="77" r="3" fill="#067389"/>
<circle cx="3" cy="105" r="3" fill="#067389"/>
<circle cx="33" cy="105" r="3" fill="#067389"/>
<circle cx="63" cy="105" r="3" fill="#067389"/>
<circle cx="90" cy="105" r="3" fill="#067389"/>
<circle cx="120" cy="105" r="3" fill="#067389"/>
<circle cx="147" cy="105" r="3" fill="#067389"/>
<circle cx="174" cy="105" r="3" fill="#067389"/>
<circle cx="3" cy="133" r="3" fill="#067389"/>
<circle cx="33" cy="133" r="3" fill="#067389"/>
<circle cx="63" cy="133" r="3" fill="#067389"/>
<circle cx="90" cy="133" r="3" fill="#067389"/>
<circle cx="120" cy="133" r="3" fill="#067389"/>
<circle cx="147" cy="133" r="3" fill="#067389"/>
<circle cx="174" cy="133" r="3" fill="#067389"/>
<circle cx="3" cy="161" r="3" fill="#067389"/>
<circle cx="33" cy="161" r="3" fill="#067389"/>
<circle cx="63" cy="161" r="3" fill="#067389"/>
<circle cx="90" cy="161" r="3" fill="#067389"/>
<circle cx="120" cy="161" r="3" fill="#067389"/>
<circle cx="147" cy="161" r="3" fill="#067389"/>
<circle cx="174" cy="161" r="3" fill="#067389"/>
<circle cx="3" cy="189" r="3" fill="#067389"/>
<circle cx="33" cy="189" r="3" fill="#067389"/>
<circle cx="63" cy="189" r="3" fill="#067389"/>
<circle cx="90" cy="189" r="3" fill="#067389"/>
<circle cx="120" cy="189" r="3" fill="#067389"/>
<circle cx="147" cy="189" r="3" fill="#067389"/>
<circle cx="174" cy="189" r="3" fill="#067389"/>
<circle cx="3" cy="217" r="3" fill="#067389"/>
<circle cx="33" cy="217" r="3" fill="#067389"/>
<circle cx="63" cy="217" r="3" fill="#067389"/>
<circle cx="90" cy="217" r="3" fill="#067389"/>
<circle cx="120" cy="217" r="3" fill="#067389"/>
<circle cx="147" cy="217" r="3" fill="#067389"/>
<circle cx="174" cy="217" r="3" fill="#067389"/>
</svg>
