<?xml version="1.0" encoding="UTF-8"?>
<svg id="Layer_2" xmlns="http://www.w3.org/2000/svg" version="1.1" viewBox="0 0 210 100.1">
  <!-- Generator: Adobe Illustrator 29.4.0, SVG Export Plug-In . SVG Version: 2.1.0 Build 152)  -->
  <defs>
    <style>
      .st0 {
        fill: none;
      }

      .st1 {
        fill: #ffcf00;
      }

      .st2 {
        fill: #212121;
      }

      .st3 {
        fill: #3d3d3d;
      }

      .st4 {
        fill: #00cf00;
      }

      .st5 {
        fill: red;
      }

      .st6 {
        fill: #173dff;
      }
    </style>
  </defs>
  <g id="Layer_1-2">
    <rect class="st0" y="22.6" width="210" height="94.9"/>
    <g>
      <polygon class="st2" points="5.2 58 5.2 54 3.6 57 3.1 57 1.4 54 1.4 58 .6 58 .6 52.5 1.5 52.5 3.3 55.8 5.2 52.5 6.1 52.5 6.1 58 5.2 58"/>
      <rect class="st2" x="8.9" y="52.5" width=".9" height="5.5"/>
      <polygon class="st2" points="13.5 54.1 13.5 58 12.6 58 12.6 52.5 13.3 52.5 16.5 56.5 16.5 52.5 17.3 52.5 17.3 58 16.6 58 13.5 54.1"/>
      <rect class="st2" x="20.2" y="52.5" width=".9" height="5.5"/>
      <path class="st2" d="M27.1,53.8c-.1,0-.3-.3-.6-.4-.3,0-.6-.2-.9-.2s-.6,0-.8.2-.3.3-.3.6,0,0,0,.2v.2c0,.1,0,0,.1,0,0,0,.1,0,.2,0h1c.2,0,.5,0,.6.2s.3,0,.5.2c.2,0,.3.2.4.3s.2.2.2.4v.5c0,.2,0,.4-.1.6,0,.2-.2.3-.3.5-.1,0-.3.2-.4.3-.2,0-.4,0-.6.2h-.6c-.4,0-.8,0-1.2-.2-.4,0-.7-.3-1.1-.6l.4-.7c.2.2.4.3.8.5s.7.2,1.1.2.6,0,.8-.2c.2,0,.3-.3.3-.5v-.2s0,0-.2-.2c0,0-.1,0-.2-.2,0,0-.2,0-.3,0-.1,0-.3,0-.4,0-.1,0-.3,0-.5,0-.3,0-.5-.2-.7-.2s-.4-.2-.5-.3-.2-.3-.3-.4c0-.2-.1-.3-.1-.6s0-.5.2-.7.2-.4.4-.5.4-.2.6-.3c.2,0,.5,0,.8,0,.7,0,1.3.2,1.9.6l-.4.7h0l.2.2Z"/>
      <polygon class="st2" points="34.3 53.2 32.4 53.2 32.4 58 31.5 58 31.5 53.2 29.7 53.2 29.7 52.5 34.3 52.5 34.3 53.2"/>
      <path class="st2" d="M38.8,51.9l-.6-.2.4-.9h.8l-.7,1h0ZM40.4,57.2v.8h-3.8v-5.5h3.7v.8h-2.9v1.6h2.5v.7h-2.5v1.7h3Z"/>
      <path class="st2" d="M43.7,55.3h1.5c.2,0,.4,0,.6-.3.2-.2.2-.4.2-.7s0-.5-.3-.7-.4-.3-.6-.3h-1.5v2.1h0ZM42.8,58v-5.5h2.4c.2,0,.5,0,.7.2.2,0,.4.2.6.4.2.2.3.4.4.6s0,.4,0,.7,0,.7-.3,1-.5.5-.8.6l1.3,2.1h-1l-1.2-1.9h-1.3v1.9h-.9Z"/>
      <rect class="st2" x="49.6" y="52.5" width=".9" height="5.5"/>
      <path class="st2" d="M55.6,57.2c.3,0,.5,0,.7-.2.2,0,.4-.3.6-.5,0-.2.3-.4.3-.6s0-.5,0-.7,0-.5,0-.8-.2-.5-.4-.6c-.2-.2-.3-.3-.6-.4-.2,0-.5-.2-.7-.2s-.5,0-.7.2-.4.3-.6.5c0,.2-.3.4-.3.6s0,.5,0,.7c0,.4,0,.7.2,1s.4.6.6.7.6.3.9.3M52.9,55.2c0-.4,0-.7.2-1.1s.3-.6.6-.9.5-.5.8-.6c.3-.2.7-.2,1.1-.2s.7,0,1.1.2.6.4.8.6c.2.3.4.6.5.9,0,.3.2.7.2,1s0,.7-.2,1.1-.3.6-.6.9-.5.5-.8.6-.7.2-1.1.2-.6,0-.9-.2c-.3,0-.5-.2-.7-.4l-.6-.6c-.2-.2-.3-.5-.4-.8s0-.6,0-.8"/>
      <path class="st2" d="M66.1,53.2h-1.1v4h1.1c.4,0,.7,0,1-.3.3-.2.5-.4.6-.7s.2-.6.2-1c0-.6-.2-1.1-.5-1.4-.3-.4-.8-.6-1.3-.6M64.2,58v-5.5h2c.4,0,.8,0,1.2.2.4,0,.6.3.9.6.2.3.4.5.5.9,0,.3.2.7.2,1.1,0,.8-.2,1.5-.7,2s-1.1.8-2,.8h-2.1Z"/>
      <path class="st2" d="M74,55.8l-.9-2.4-.9,2.4h1.8ZM72.7,52.5h.8l2.2,5.5h-.9l-.6-1.5h-2.1l-.6,1.5h-.9l2.2-5.5h0Z"/>
      <path class="st2" d="M47.4,65.2h0s0,0-.2,0c0,0-.2,0-.3-.2s-.2,0-.4,0-.3,0-.4,0c-.3,0-.4,0-.4.3s0,0,0,0h1c.2,0,.4,0,.6.2s.3.2.5.2.3.2.4.3c0,0,.2.2.2.4v.5c0,0,0,.5,0,.7,0,.2-.2.4-.3.5s-.3.2-.5.3c-.2,0-.4,0-.6.2h-.6c-.4,0-.8,0-1.3-.2s-.8-.3-1.2-.5l.7-1.3h0q0,0,.3,0c0,0,.3,0,.4.2,0,0,.3,0,.5.2h.5c.3,0,.4,0,.4-.2v-.2c0-.1,0,0-.2,0s-.2,0-.3,0c0,0-.2,0-.4,0s-.3,0-.4,0c-.5-.2-.9-.4-1.1-.6s-.3-.6-.3-1,0-.6.2-.8c0-.2.3-.4.5-.6s.4-.3.7-.4c.2,0,.5,0,.8,0,.6,0,1.3.2,2.1.6l-.7,1.3h0l-.2.5Z"/>
      <path class="st2" d="M52.9,66.9l-.5-2-.5,2h1ZM51.5,63.4h1.7l1.8,5.5h-1.5l-.3-1.1h-1.5l-.3,1.1h-1.6l1.8-5.5h-.1Z"/>
      <path class="st2" d="M59.7,63.2l-.9-.2.4-1.1h1.3l-.8,1.4h0ZM59.3,69c-.4,0-.7,0-.9,0-.3,0-.5-.2-.7-.4s-.4-.4-.5-.6c0-.2-.2-.5-.3-.7v-3.8h1.5v3.4c0,.2,0,.3.2.4,0,0,.2.2.3.3,0,0,.3,0,.4,0s.3,0,.5,0c0,0,.2-.2.3-.3,0,0,0-.3.2-.4v-3.4h1.5v2.9c0,.4,0,.8-.2,1.1,0,.3-.3.6-.5.9-.2.2-.5.4-.8.6-.3,0-.7.2-1.1.2"/>
      <path class="st2" d="M66.3,64.7h-.6v2.9h.6c.4,0,.7,0,.9-.4.2-.3.3-.6.3-1.1s0-.8-.3-1-.5-.4-.9-.4M64.2,69v-5.5h2.1c.4,0,.9,0,1.2.2s.7.3.9.6.4.6.5.9c0,.3.2.7.2,1.1,0,.8-.3,1.5-.8,2s-1.2.8-2,.8h-2.1,0Z"/>
      <polygon class="st2" points="75.3 67.6 75.3 69 71.4 69 71.4 63.4 75.2 63.4 75.2 64.7 72.9 64.7 72.9 65.5 74.9 65.5 74.9 66.8 72.9 66.8 72.9 67.6 75.3 67.6"/>
      <path d="M108.4,86.2c-.3,0-.5,0-.7,0s-.4-.2-.5-.3-.2-.3-.3-.5-.2-.4-.2-.6v-2.7h.6v2.5c0,0,0,.3,0,.4,0,0,0,.2.2.3,0,0,.2.2.3.2h.8c0,0,.2,0,.3-.2,0,0,.2-.2.2-.3s0-.3,0-.4v-2.5h.7v2.1c0,.3,0,.6,0,.8s-.2.5-.3.6c0,.2-.3.3-.6.4-.2,0-.5.2-.8.2"/>
      <polygon points="112.8 83.3 112.8 86.1 112.2 86.1 112.2 82 112.7 82 115 85 115 82 115.7 82 115.7 86.1 115.1 86.1 112.8 83.3"/>
      <rect x="117.8" y="82" width=".7" height="4.1"/>
      <path d="M122.7,84.5l-.7-1.8-.7,1.8h1.4ZM121.6,81.3h-.6v-.3q0-.1,0-.2s0,0,.2,0h.5s.2,0,.2,0h.7v.3s0,0,0,.2c0,0,0,0-.2.2h-.6s-.2,0-.2,0-.2,0-.2,0M121.7,82h.6l1.6,4.1h-.7l-.4-1.1h-1.6l-.4,1.1h-.7l1.6-4.1h0Z"/>
      <path d="M127.1,85.6c.2,0,.4,0,.6,0,.2,0,.3-.2.4-.3.1,0,.2-.3.2-.5v-1.1c0-.2-.2-.3-.3-.5,0,0-.2-.2-.4-.3-.2,0-.3,0-.5,0s-.4,0-.6,0c-.2,0-.3.2-.4.3s-.2.3-.3.5v.5c0,.3,0,.5.2.7,0,.2.3.4.5.6s.4.2.7.2M125.1,84.1c0-.3,0-.5.2-.8,0-.3.2-.5.4-.7s.4-.3.6-.5c.2,0,.5-.2.8-.2s.6,0,.8.2c.2,0,.5.3.6.5.2.2.3.4.4.7,0,.2.1.5.1.8s0,.5-.2.8-.2.5-.4.7-.4.3-.6.5c-.2,0-.5.2-.8.2s-.4,0-.7,0-.4-.2-.5-.3c-.2,0-.3-.3-.4-.5s-.2-.4-.3-.6v-.6"/>
      <polygon points="136.3 85.6 136.3 86.1 133.5 86.1 133.5 82 136.2 82 136.2 82.6 134.1 82.6 134.1 83.8 136 83.8 136 84.3 134.1 84.3 134.1 85.6 136.3 85.6"/>
      <path d="M141.3,84.1h1.1c.2,0,.3,0,.4-.2.1-.2.2-.3.2-.5s0-.4-.2-.5c-.1,0-.3-.2-.5-.2h-1.1v1.5h.1ZM140.7,86.1v-4.1h1.8c.2,0,.4,0,.5,0,.2,0,.3.2.4.3s.2.3.3.4v.5c0,.3,0,.5-.2.8-.1.2-.3.4-.6.5l1,1.6h-.7l-.9-1.4h-1v1.4h-.6Z"/>
      <polygon points="148.5 85.6 148.5 86.1 145.7 86.1 145.7 82 148.4 82 148.4 82.6 146.3 82.6 146.3 83.8 148.1 83.8 148.1 84.3 146.3 84.3 146.3 85.6 148.5 85.6"/>
      <path d="M151.9,82c.4,0,.7,0,.9.2s.5.4.6.7l-.5.3c0,0-.1-.2-.2-.3,0,0-.2-.2-.3-.2,0,0-.2,0-.3,0h-.8c-.1,0-.3,0-.4.2-.1,0-.2.2-.3.3,0,0-.1.3-.2.4v.4c0,.3,0,.5.2.7s.3.4.5.6c.2,0,.4.2.7.2h.4c.1,0,.3,0,.4-.2.1,0,.2-.2.3-.4l.5.3c0,.2-.2.4-.4.5-.2.2-.4.3-.6.3s-.4,0-.7,0-.5,0-.8-.2c-.2,0-.5-.3-.6-.5-.2-.2-.3-.4-.4-.7,0-.2-.1-.5-.1-.8v-.6c0-.2.1-.4.3-.6.1-.2.2-.3.4-.5.2,0,.3-.2.6-.3.2,0,.4,0,.7,0"/>
      <path d="M157,85.6c.2,0,.4,0,.6,0,.2,0,.3-.2.4-.3.1,0,.2-.3.2-.5v-1.1c0-.2-.2-.3-.3-.5-.1,0-.2-.2-.4-.3-.2,0-.3,0-.5,0s-.4,0-.6,0c-.2,0-.3.2-.4.3s-.2.3-.3.5v.5c0,.3,0,.5.2.7s.3.4.5.6c.2,0,.4.2.7.2M155,84.1c0-.3,0-.5.2-.8,0-.3.2-.5.4-.7s.4-.3.6-.5c.2,0,.5-.2.8-.2s.6,0,.8.2c.2,0,.5.3.6.5.2.2.3.4.4.7,0,.2.1.5.1.8s0,.5-.2.8-.2.5-.4.7-.4.3-.6.5c-.2,0-.5.2-.8.2s-.4,0-.7,0-.4-.2-.5-.3-.3-.3-.4-.5c-.1-.2-.2-.4-.3-.6v-.6"/>
      <polygon points="161.4 83.3 161.4 86.1 160.8 86.1 160.8 82 161.3 82 163.6 85 163.6 82 164.3 82 164.3 86.1 163.7 86.1 161.4 83.3"/>
      <path d="M168.8,83s-.2-.2-.5-.3c-.2,0-.4,0-.7,0s-.5,0-.6.2c-.1,0-.2.2-.2.4v.2h0c0,.2,0,0,.1.2h.8c.2,0,.3,0,.5,0,.1,0,.2,0,.4.2.1,0,.2,0,.3.2s.1.2.2.3v.8c0,0-.1.2-.2.3,0,0-.2.2-.3.2s-.3,0-.4,0h-.5c-.3,0-.6,0-.9,0-.3,0-.6-.2-.8-.4l.3-.6c.1,0,.3.2.6.4s.5.2.8.2.5,0,.6,0c.1,0,.2-.2.2-.4s0,0,0-.2c0,0,0,0-.1,0,0,0-.1,0-.2,0h-.8c-.2,0-.4,0-.5-.2-.1,0-.3,0-.4-.2-.1,0-.2-.2-.2-.3v-.4c0-.2,0-.4.1-.5,0-.2.2-.3.3-.4s.3-.2.5-.2h.6c.5,0,1,.2,1.4.5l-.3.5h0v-.2Z"/>
      <polygon points="174 82.6 172.7 82.6 172.7 86.1 172 86.1 172 82.6 170.7 82.6 170.7 82 174 82 174 82.6"/>
      <path d="M176.4,84.1h1.1c.2,0,.3,0,.4-.2.1-.2.2-.3.2-.5s0-.4-.2-.5c-.1,0-.3-.2-.5-.2h-1.1v1.5h.1ZM175.7,86.1v-4.1h1.8c.2,0,.4,0,.5,0,.2,0,.3.2.4.3s.2.3.3.4v.5c0,.3,0,.5-.2.8-.1.2-.3.4-.6.5l1,1.6h-.7l-.9-1.4h-1v1.4h-.6Z"/>
      <path d="M182.4,86.2c-.3,0-.5,0-.7,0s-.4-.2-.5-.3-.2-.3-.3-.5c0-.2-.2-.4-.2-.6v-2.7h.7v2.5c0,0,0,.3.1.4,0,0,.1.2.2.3s.2.2.3.2h.8c0,0,.2,0,.3-.2,0,0,.2-.2.2-.3s0-.3.1-.4v-2.5h.7v2.1c0,.3,0,.6-.1.8s-.2.5-.3.6c-.1.2-.3.3-.6.4s-.5.2-.8.2"/>
      <path d="M189.6,85.2c-.1.2-.3.5-.5.6-.3.2-.5.3-.8.3.2.2.3.4.3.6s0,.3-.2.4-.3,0-.5,0-.5,0-.7-.2l.2-.3c.1,0,.3,0,.4,0h.3v-.2c0-.2-.1-.3-.3-.4-.3,0-.5,0-.7-.2-.2,0-.4-.3-.6-.5-.2-.2-.3-.4-.4-.7,0-.2-.1-.5-.1-.7v-.6c0-.2.1-.4.3-.6.1-.2.2-.3.4-.5.2,0,.3-.2.6-.3.2,0,.4,0,.7,0s.7,0,.9.2.5.4.6.7l-.5.3c0,0-.1-.2-.2-.3,0,0-.2-.2-.3-.2s-.2,0-.3,0h-.8c-.1,0-.3,0-.4.2,0,0-.2.2-.3.3,0,0-.1.3-.2.4v.4c0,.3,0,.5.2.7s.3.4.5.6c.2,0,.4.2.7.2h.4c.1,0,.3,0,.4-.2.1,0,.2-.2.3-.4l.5.3h.1Z"/>
      <path d="M193.4,84.5l-.7-1.8-.7,1.8h1.4ZM192.4,81.3h-.6v-.3s0,0,.1-.2c0,0,.1,0,.2,0h.5s.2,0,.2,0h.7v.3s0,0-.1.2c0,0-.1,0-.2.2h-.6c-.1,0-.2,0-.2,0s-.2,0-.2,0M192.4,82h.6l1.6,4.1h-.7l-.4-1.1h-1.6l-.4,1.1h-.7l1.6-4.1h0Z"/>
      <path d="M197.9,85.6c.2,0,.4,0,.6,0,.2,0,.3-.2.4-.3.1,0,.2-.3.2-.5v-1.1c0-.2-.2-.3-.3-.5-.1,0-.2-.2-.4-.3-.2,0-.3,0-.5,0s-.4,0-.6,0c-.2,0-.3.2-.4.3s-.2.3-.3.5v.5c0,.3,0,.5.2.7s.3.4.5.6c.2,0,.4.2.7.2M195.9,84.1c0-.3,0-.5.2-.8.1-.3.2-.5.4-.7s.4-.3.6-.5c.2,0,.5-.2.8-.2s.6,0,.8.2c.2,0,.5.3.6.5.2.2.3.4.4.7,0,.2.1.5.1.8s0,.5-.2.8c0,.2-.2.5-.4.7s-.4.3-.6.5c-.2,0-.5.2-.8.2s-.4,0-.7,0-.4-.2-.6-.3-.3-.3-.4-.5c-.1-.2-.2-.4-.3-.6v-.6"/>
      <polygon class="st4" points="128.6 64.8 117.8 64.8 117.8 75.7 135.7 75.7 128.6 64.8"/>
      <polygon class="st1" points="146.8 48.2 130.5 75.7 163.2 75.7 146.8 48.2"/>
      <rect class="st1" x="190.4" y="48.2" width="9.5" height="18.3"/>
      <rect class="st6" x="199.9" y="66.5" width="9.5" height="9.2"/>
      <rect class="st3" x="190.4" y="66.5" width="9.5" height="9.2"/>
      <rect class="st5" x="158.4" y="60.4" width="9" height="15.3"/>
      <polygon class="st3" points="130.5 75.7 135.7 75.7 133 71.5 130.5 75.7"/>
      <polygon class="st3" points="158.4 67.7 158.4 75.7 163.2 75.7 158.4 67.7"/>
      <rect class="st4" x="179.3" y="48.2" width="9.5" height="27.5"/>
      <path class="st6" d="M125.7,64.8h2.9c4.6,0,8.3-3.7,8.3-8.3s-3.7-8.3-8.3-8.3h-10.8v16.6s7.9,0,7.9,0Z"/>
      <rect class="st6" x="167.4" y="48.2" width="10.3" height="10"/>
      <path class="st1" d="M170.6,58.2h-3.1v17.5h3.1c4.8,0,8.8-3.9,8.8-8.7s-3.9-8.7-8.8-8.7"/>
      <path class="st4" d="M164.5,48.2c-3.4,0-6.1,2.7-6.1,6.1s2.7,6.1,6.1,6.1h2.9v-12.2s-2.9,0-2.9,0Z"/>
      <path class="st5" d="M105.5,75.7h4c4.6,0,8.2-3.7,8.2-8.2s-3.7-8.2-8.2-8.2h-12.6v16.5h8.6Z"/>
      <path class="st6" d="M96.9,59.2h11.7c3.1,0,5.5-2.5,5.5-5.5s-2.5-5.5-5.5-5.5h-11.7v11Z"/>
      <rect class="st4" x="96.9" y="48.2" width="9.5" height="11"/>
      <rect class="st1" x="96.9" y="59.2" width="9.5" height="16.5"/>
      <polygon class="st1" points="128.6 64.8 117.8 48.2 117.8 64.8 128.6 64.8"/>
      <path class="st6" d="M156.9,75.7c0-5.5-4.5-10-10-10s-10,4.5-10,10h20.1-.1Z"/>
      <path d="M111.8,39.6v.4c0,1.6-1.1,2.7-2.5,2.7s-2.7-1.2-2.7-2.7,1.2-2.7,2.7-2.7,1.8.5,2.3,1.3l-1.2.7c-.2-.4-.7-.7-1.1-.7-.8,0-1.3.6-1.3,1.4s.6,1.3,1.3,1.3.9-.3,1-.6h-1.4v-1.1h2.9,0Z"/>
      <path d="M117.7,39.9c0-.7-.5-1.3-1.2-1.3s-1.2.6-1.2,1.3.5,1.3,1.2,1.3,1.2-.6,1.2-1.3M113.8,39.9c0-1.5,1.2-2.7,2.7-2.7s2.7,1.2,2.7,2.7-1.2,2.7-2.7,2.7-2.7-1.2-2.7-2.7"/>
      <polygon points="126 37.3 124 42.5 122.6 42.5 120.6 37.3 122.1 37.3 123.3 40.5 124.5 37.3 126 37.3"/>
      <polygon points="129.3 38.6 129.3 39.4 130.8 39.4 130.8 40.5 129.3 40.5 129.3 41.3 131.6 41.3 131.6 42.5 127.9 42.5 127.9 37.3 131.6 37.3 131.6 38.6 129.3 38.6"/>
      <path d="M135.2,39.6h1c.3,0,.5-.2.5-.5s-.2-.5-.5-.5h-1v1ZM135.8,40.7h-.6v1.8h-1.4v-5.2h2.5c1,0,1.8.7,1.8,1.7s-.4,1.2-.9,1.5l1.2,2h-1.6l-1-1.8h0Z"/>
      <polygon points="145 37.3 145 42.5 143.8 42.5 141.7 39.8 141.7 42.5 140.3 42.5 140.3 37.3 141.5 37.3 143.6 40.1 143.6 37.3 145 37.3"/>
      <path d="M151,39.9c0-.7-.5-1.3-1.2-1.3s-1.2.6-1.2,1.3.5,1.3,1.2,1.3,1.2-.6,1.2-1.3M147,39.9c0-1.5,1.2-2.7,2.7-2.7s2.7,1.2,2.7,2.7-1.2,2.7-2.7,2.7-2.7-1.2-2.7-2.7"/>
      <polygon points="159.4 38.6 159.4 39.5 160.9 39.5 160.9 40.6 159.4 40.6 159.4 42.5 158 42.5 158 37.3 161.7 37.3 161.7 38.6 159.4 38.6"/>
      <polygon points="165.2 38.6 165.2 39.4 166.8 39.4 166.8 40.5 165.2 40.5 165.2 41.3 167.6 41.3 167.6 42.5 163.8 42.5 163.8 37.3 167.6 37.3 167.6 38.6 165.2 38.6"/>
      <path d="M173.2,39.9c0-.8-.6-1.3-1.4-1.3h-.6v2.5h.6c.8,0,1.4-.5,1.4-1.3M174.6,39.9c0,1.5-1.2,2.6-2.8,2.6h-2.1v-5.2h2.1c1.6,0,2.8,1.1,2.8,2.6"/>
      <polygon points="178.1 38.6 178.1 39.4 179.6 39.4 179.6 40.5 178.1 40.5 178.1 41.3 180.4 41.3 180.4 42.5 176.7 42.5 176.7 37.3 180.4 37.3 180.4 38.6 178.1 38.6"/>
      <path d="M184,39.6h1c.3,0,.5-.2.5-.5s-.2-.5-.5-.5h-1v1ZM184.6,40.7h-.6v1.8h-1.4v-5.2h2.5c1,0,1.8.7,1.8,1.7s-.4,1.2-.9,1.5l1.2,2h-1.6l-1-1.8h0Z"/>
      <path d="M192.1,40.4l-.5-1.3-.5,1.3h1ZM192.6,41.7h-2.1l-.4.9h-1.5l2.2-5.2h1.3l2.2,5.2h-1.5l-.4-.9h.2Z"/>
      <polygon points="199.9 41.2 199.9 42.5 196.3 42.5 196.3 37.3 197.7 37.3 197.7 41.2 199.9 41.2"/>
      <path d="M111.8,39.6v.4c0,1.6-1.1,2.7-2.5,2.7s-2.7-1.2-2.7-2.7,1.2-2.7,2.7-2.7,1.8.5,2.3,1.3l-1.2.7c-.2-.4-.7-.7-1.1-.7-.8,0-1.3.6-1.3,1.4s.6,1.3,1.3,1.3.9-.3,1-.6h-1.4v-1.1h2.9,0Z"/>
      <path d="M117.7,39.9c0-.7-.5-1.3-1.2-1.3s-1.2.6-1.2,1.3.5,1.3,1.2,1.3,1.2-.6,1.2-1.3M113.8,39.9c0-1.5,1.2-2.7,2.7-2.7s2.7,1.2,2.7,2.7-1.2,2.7-2.7,2.7-2.7-1.2-2.7-2.7"/>
      <polygon points="126 37.3 124 42.5 122.6 42.5 120.6 37.3 122.1 37.3 123.3 40.5 124.5 37.3 126 37.3"/>
      <polygon points="129.3 38.6 129.3 39.4 130.8 39.4 130.8 40.5 129.3 40.5 129.3 41.3 131.6 41.3 131.6 42.5 127.9 42.5 127.9 37.3 131.6 37.3 131.6 38.6 129.3 38.6"/>
      <path d="M135.2,39.6h1c.3,0,.5-.2.5-.5s-.2-.5-.5-.5h-1v1ZM135.8,40.7h-.6v1.8h-1.4v-5.2h2.5c1,0,1.8.7,1.8,1.7s-.4,1.2-.9,1.5l1.2,2h-1.6l-1-1.8h0Z"/>
      <polygon points="145 37.3 145 42.5 143.8 42.5 141.7 39.8 141.7 42.5 140.3 42.5 140.3 37.3 141.5 37.3 143.6 40.1 143.6 37.3 145 37.3"/>
      <path d="M151,39.9c0-.7-.5-1.3-1.2-1.3s-1.2.6-1.2,1.3.5,1.3,1.2,1.3,1.2-.6,1.2-1.3M147,39.9c0-1.5,1.2-2.7,2.7-2.7s2.7,1.2,2.7,2.7-1.2,2.7-2.7,2.7-2.7-1.2-2.7-2.7"/>
      <polygon points="159.4 38.6 159.4 39.5 160.9 39.5 160.9 40.6 159.4 40.6 159.4 42.5 158 42.5 158 37.3 161.7 37.3 161.7 38.6 159.4 38.6"/>
      <polygon points="165.2 38.6 165.2 39.4 166.8 39.4 166.8 40.5 165.2 40.5 165.2 41.3 167.6 41.3 167.6 42.5 163.8 42.5 163.8 37.3 167.6 37.3 167.6 38.6 165.2 38.6"/>
      <path d="M173.2,39.9c0-.8-.6-1.3-1.4-1.3h-.6v2.5h.6c.8,0,1.4-.5,1.4-1.3M174.6,39.9c0,1.5-1.2,2.6-2.8,2.6h-2.1v-5.2h2.1c1.6,0,2.8,1.1,2.8,2.6"/>
      <polygon points="178.1 38.6 178.1 39.4 179.6 39.4 179.6 40.5 178.1 40.5 178.1 41.3 180.4 41.3 180.4 42.5 176.7 42.5 176.7 37.3 180.4 37.3 180.4 38.6 178.1 38.6"/>
      <path d="M184,39.6h1c.3,0,.5-.2.5-.5s-.2-.5-.5-.5h-1v1ZM184.6,40.7h-.6v1.8h-1.4v-5.2h2.5c1,0,1.8.7,1.8,1.7s-.4,1.2-.9,1.5l1.2,2h-1.6l-1-1.8h0Z"/>
      <path d="M192.1,40.4l-.5-1.3-.5,1.3h1ZM192.6,41.7h-2.1l-.4.9h-1.5l2.2-5.2h1.3l2.2,5.2h-1.5l-.4-.9h.2Z"/>
      <polygon points="199.9 41.2 199.9 42.5 196.3 42.5 196.3 37.3 197.7 37.3 197.7 41.2 199.9 41.2"/>
    </g>
  </g>
</svg>