<?xml version="1.0" encoding="UTF-8"?>
<svg id="Layer_2" data-name="Layer 2" xmlns="http://www.w3.org/2000/svg" viewBox="0 0 53.74 100.05">
  <defs>
    <style>
      .cls-1 {
        fill: none;
      }

      .cls-2 {
        fill: #1e3361;
      }

      .cls-3 {
        fill: #069a4b;
      }

      .cls-4 {
        fill: #ffca26;
      }
    </style>
  </defs>
  <g id="Layer_1-2" data-name="Layer 1">
    <rect class="cls-1" width="53.74" height="100.05"/>
    <g>
      <path class="cls-3" d="M10.54,24.88c3.61-2.76,7.94-4.65,12.65-5.31l3.67-3.66c-13.2.01-24.11,9.82-25.84,22.55,1.68-5.47,5.06-10.2,9.51-13.58Z"/>
      <path class="cls-2" d="M26.97,61.47l.04-1.67-1.61-1.54-2.17-.41,4.36-2.91-.68-1.4.29-1.01-.85-.02-.25-1.37-1.9-.53.68-2.5-2.05-2.92.56-.4,2.24,3.18-.59,2.15,1.66.47.22,1.23,1.19.02-.47,1.62.83,1.71-3.45,2.3.7.13,1.98,1.89v.3s3.52-3.42,3.52-3.42l.17-2.09,4.31-1.8,1.72.59,2.03-2-.16-.99,1.74-2.02-.17-2.02,4.57-3.18.19-2.55-1.03-.06-2.53-3.15-2.14-.05-.9-.74-.73.52-2.18-2.26-.38.03-1.19,1.07-2.25-.91,1.66-1.08h.75s.01-.06.01-.06l-1.06-.09-1.99.98,1.95-2.51-.58-2.14-.96,1.22-1.6.21-.85-.39-3.12.84-1.1-1.63.53-1.33-.37-.54-2.55.94-1.2-.63.18.67,1.98.86-3.27,1.15-1.53-.35-.12-.75-1.62.26.71,1.31-1.26-.28.28,1.12-.99,2.36-3.23,1.39-.5,1.07.79,2.48-.65.21-.88-2.74.72-1.56,3.21-1.38.8-1.9-.5-1.98.88.19-.46-.84,3.27-.53.15.97.88.2,1.42-.5-.67-.29-.67-2.51,2.33,1.23,2.75-1.02.9,1.27-.53,1.34.62.92,2.88-.78.89.41,1.13-.14,1.63-2.09,1.03,3.81-.54.7,1.68.14-.15,1.02.09-.08.94-.07,1.99,2.06.68-.48,1.13.93,2.22.05,2.54,3.17,1.43.09-.27,3.57-4.51,3.14.16,1.91-1.72,1.99.16,1.03-2.58,2.56-1.88-.64-3.68,1.54-.16,1.93-4.93,4.77ZM33.79,34.63l.62.25.54-.49h-.79s-.37.23-.37.23Z"/>
      <path class="cls-4" d="M43.2,59.13c-3.61,2.77-7.94,4.65-12.65,5.3l-3.67,3.66c13.2-.01,24.1-9.82,25.83-22.55-1.68,5.48-5.06,10.21-9.51,13.59Z"/>
      <g>
        <path class="cls-2" d="M7.59,45.55v-7.04h3.49v1.71h-1.52v1.02h1.34v1.66h-1.34v2.66h-1.96Z"/>
        <path class="cls-2" d="M11.55,43.04v-4.53h1.96v4.72c0,.2.03.35.11.46.07.1.19.14.34.14s.27-.05.35-.14c.07-.1.11-.26.11-.46v-4.72h1.97v4.53c0,.92-.2,1.59-.59,2.02-.39.42-1.01.64-1.84.64s-1.44-.21-1.83-.64c-.39-.43-.58-1.1-.58-2.02Z"/>
        <path class="cls-2" d="M17.15,45.55v-7.04h1.96l1.08,3.71v-3.71h1.79v7.04h-1.94l-1.09-3.53v3.53h-1.8Z"/>
        <path class="cls-2" d="M22.29,45.55l1.54-7.04h2.22l1.53,7.04h-1.91l-.15-1.04h-1.16l-.15,1.04h-1.92ZM24.55,43.09h.78l-.39-2.6-.39,2.6Z"/>
        <path class="cls-2" d="M27.65,43.21c.28.23.54.39.77.51.24.11.44.17.62.17.16,0,.29-.05.39-.14.1-.09.15-.21.15-.35,0-.17-.18-.41-.51-.73,0,0-.01-.01-.02-.02-.59-.54-.97-.96-1.13-1.26-.17-.3-.25-.62-.25-.97,0-.6.2-1.08.6-1.47.4-.38.92-.58,1.55-.58.25,0,.5.04.77.11.27.07.54.17.82.3v1.83c-.23-.19-.46-.33-.66-.42-.2-.1-.39-.14-.56-.14-.15,0-.27.04-.36.11-.09.08-.14.18-.14.31,0,.18.17.41.51.67.02.02.04.05.06.06.59.46.97.84,1.14,1.15.18.3.26.66.26,1.07,0,.69-.22,1.25-.65,1.66-.44.41-1.01.62-1.72.62-.28,0-.55-.05-.81-.13-.27-.08-.54-.22-.82-.4v-1.95Z"/>
        <path class="cls-2" d="M31.67,45.55l1.54-7.04h2.21l1.54,7.04h-1.91l-.15-1.04h-1.16l-.15,1.04h-1.92ZM33.93,43.09h.78l-.4-2.6-.38,2.6Z"/>
      </g>
    </g>
  </g>
</svg>