<?xml version="1.0" encoding="UTF-8"?>
<svg id="Layer_2" data-name="Layer 2" xmlns="http://www.w3.org/2000/svg" viewBox="0 0 301.81 100.05">
  <defs>
    <style>
      .cls-1 {
        fill: none;
      }

      .cls-2 {
        fill: #ec1c2a;
      }

      .cls-2, .cls-3 {
        fill-rule: evenodd;
      }

      .cls-3 {
        fill: #fff;
      }

      .cls-4 {
        fill: #00506e;
      }

      .cls-5 {
        fill: #404041;
      }

      .cls-6 {
        fill: #282223;
      }
    </style>
  </defs>
  <g id="Layer_1-2" data-name="Layer 1">
    <rect class="cls-1" width="301.81" height="100.05"/>
    <g>
      <g>
        <g>
          <path class="cls-5" d="M268.97,42.71c1.39-.94,2.06-2.22,2.06-3.89v-.05c0-1.33-.44-2.41-1.34-3.31-1.11-1.11-2.83-1.7-4.98-1.7h-8.77v18.84h8.98c4.53,0,7.12-1.93,7.12-5.3v-.05c0-2.17-.95-3.58-3.08-4.54ZM264.93,48.5h-4.49v-3.44h4.36c1.78,0,2.69.57,2.69,1.7v.05c0,1.13-.86,1.7-2.56,1.7ZM260.44,41.14v-3.29h3.68c1.07,0,2.35.28,2.35,1.59v.05c0,1.09-.88,1.65-2.61,1.65h-3.42Z"/>
          <path class="cls-5" d="M287.14,33.75h-7.41v18.84s7.41,0,7.41,0c2.82,0,5.38-.97,7.21-2.72,1.8-1.73,2.79-4.11,2.79-6.7v-.05c0-5.43-4.2-9.37-10-9.37ZM292.36,43.18v.05c0,3.09-2.1,5.17-5.22,5.17h-2.82v-10.44h2.82c3.12,0,5.22,2.1,5.22,5.22Z"/>
          <path class="cls-5" d="M275.61,33.72c1.27,0,2.3,1.03,2.3,2.3v16.58h-4.59v-18.88h2.3Z"/>
        </g>
        <path class="cls-4" d="M236.76,46.03c-2.42,3.92,5.36,3.98,1.76,11.31-.11.02-.21.04-.32.05-8.39,1.23-16.18-4.58-17.41-12.97-.58-3.98.42-7.82,2.53-10.9-.39,8.85,15.71,8.84,13.45,12.5M240.2,56.96c.83-1.54,2.63-3.79,6.49-8.32,5.77-6.78-11.33-4.5-14.26-9.63-2.41-4.23,6.57-7.27,12-9.62,3.53,2.33,6.09,6.09,6.75,10.6,1.13,7.71-3.68,14.91-10.98,16.98ZM235.13,37.6c-.58.3.45,1.64,3.09,1.71,2.64.07-.76-2.93-3.09-1.71ZM240.95,39.03c-1.98-.64-.68.94.26,1.05.94.1,1.14-.59-.26-1.05ZM243.01,40.57c-.66-.03-.77.37.21.58,1.39.29.44-.55-.21-.58Z"/>
      </g>
      <g>
        <g>
          <path class="cls-2" d="M28.35,4.1s-4.41-1.91-11.79-1.92h-.07c-7.38,0-11.79,1.92-11.79,1.92,0,0-.03.75-.04,1.93v.59c.01,2.89.22,7.64,1.32,10.79,2.63,7.51,8.91,10.22,10.27,10.73h.53c1.36-.51,7.64-3.22,10.27-10.73,1.68-4.81,1.28-13.31,1.28-13.31Z"/>
          <polygon class="cls-3" points="24.39 11.43 24.39 16.12 18.88 16.12 18.88 21.58 14.16 21.58 14.16 16.12 8.65 16.12 8.65 11.43 14.16 11.43 14.16 5.97 18.88 5.97 18.88 11.43 24.39 11.43"/>
        </g>
        <g>
          <path class="cls-6" d="M38.13,10.36l.07-.58c.17.11.36.19.58.25.21.06.45.09.7.09.38,0,.69-.09.92-.28.25-.21.38-.51.38-.9,0-.3-.23-.6-.69-.89-.43-.25-.85-.5-1.28-.76-.46-.34-.69-.72-.69-1.15,0-.45.17-.82.52-1.1.35-.28.79-.41,1.31-.41.24,0,.45.02.63.05.18.03.35.08.51.14l-.09.52c-.12-.07-.27-.12-.47-.16-.19-.04-.39-.06-.59-.06-.34,0-.63.07-.85.22-.27.18-.41.44-.41.78,0,.31.23.6.69.88.43.25.85.5,1.28.75.46.34.69.76.69,1.24,0,.54-.21.95-.62,1.25-.35.25-.78.38-1.29.38-.27,0-.51-.02-.73-.07-.22-.04-.42-.11-.59-.18Z"/>
          <path class="cls-6" d="M45.93,6.34l-.04.5c-.16-.07-.31-.13-.46-.16-.15-.04-.3-.05-.44-.05-.5,0-.89.16-1.17.49-.28.33-.42.75-.42,1.28,0,.5.14.92.42,1.26.28.34.65.51,1.12.51.29,0,.61-.06.96-.18l.05.48c-.15.06-.32.09-.51.12-.19.02-.38.03-.58.03-.65,0-1.16-.22-1.52-.66-.34-.41-.51-.93-.51-1.55s.19-1.18.58-1.6c.39-.41.89-.62,1.52-.62.24,0,.45.02.65.06.08.02.21.05.37.11Z"/>
          <path class="cls-6" d="M47.49,10.51v-6.23h.52v2.71c.13-.24.31-.44.54-.59.23-.15.5-.22.8-.22.53,0,.91.17,1.15.51.2.29.3.73.3,1.3v2.53h-.52v-2.53c0-.43-.06-.75-.17-.96-.16-.27-.43-.41-.83-.41-.43,0-.75.18-.97.53-.19.3-.28.66-.28,1.09v2.27h-.52Z"/>
          <path class="cls-6" d="M58.53,6.27l-1.4,4.24h-.63l-1.15-3.66-1.17,3.66h-.63s-1.36-4.24-1.36-4.24h.58s1.11,3.65,1.11,3.65l1.2-3.65h.63s1.12,3.66,1.12,3.66l1.19-3.66h.52Z"/>
          <path class="cls-6" d="M62.75,9.85v.53c-.18.07-.38.13-.59.17-.21.04-.43.06-.64.06-.67,0-1.16-.21-1.49-.63-.29-.38-.44-.91-.44-1.58s.16-1.18.49-1.6c.33-.41.76-.62,1.29-.62.57,0,.99.21,1.29.62.27.37.4.86.4,1.48v.27h-2.9c0,.47.12.85.36,1.16.24.3.59.45,1.03.45.18,0,.4-.03.64-.1.24-.06.43-.13.55-.21ZM60.17,8.09h2.33c0-.42-.08-.75-.24-1.01-.19-.3-.47-.46-.84-.46s-.67.16-.91.47c-.22.29-.33.62-.33,1Z"/>
          <path class="cls-6" d="M65.26,4.45v.7h-.52v-.7h.52ZM64.74,10.51v-4.24h.52v4.24h-.52Z"/>
          <path class="cls-6" d="M66.86,10.51v-.44l2.55-3.35h-2.45v-.45h3.06v.45s-2.55,3.34-2.55,3.34h2.55v.45h-3.16Z"/>
          <path class="cls-6" d="M74.45,9.85v.53c-.18.07-.38.13-.59.17-.21.04-.43.06-.64.06-.67,0-1.16-.21-1.49-.63-.29-.38-.44-.91-.44-1.58s.16-1.18.49-1.6c.33-.41.76-.62,1.29-.62.57,0,.99.21,1.29.62.27.37.4.86.4,1.48v.27h-2.9c0,.47.12.85.36,1.16s.59.45,1.03.45c.18,0,.4-.03.64-.1.24-.06.43-.13.55-.21ZM71.86,8.09h2.33c0-.42-.08-.75-.24-1.01-.19-.3-.47-.46-.84-.46s-.67.16-.91.47c-.22.29-.33.62-.33,1Z"/>
          <path class="cls-6" d="M76.43,10.51v-3.68c0-.19-.01-.37-.03-.56h.52v.81c.12-.27.26-.48.42-.63.2-.19.43-.28.68-.28.06,0,.12,0,.2.02.07.01.13.02.17.03v.55c-.11-.03-.24-.05-.38-.05-.38,0-.66.19-.84.56-.14.29-.22.67-.22,1.14v2.09h-.52Z"/>
          <path class="cls-6" d="M80.39,4.45v.7h-.52v-.7h.52ZM79.87,10.51v-4.24h.52v4.24h-.52Z"/>
          <path class="cls-6" d="M82,10.41l.06-.51c.17.08.34.14.53.19.18.05.38.07.58.07.27,0,.49-.07.67-.2.18-.13.27-.32.27-.56,0-.27-.17-.51-.52-.71-.33-.17-.65-.33-.98-.51-.35-.23-.53-.52-.53-.86,0-.39.14-.69.42-.89.25-.18.57-.27.96-.27.13,0,.3.02.49.05.19.03.38.08.56.15l-.05.46c-.14-.07-.3-.12-.45-.15-.16-.03-.32-.05-.49-.05-.29,0-.51.05-.67.16-.16.11-.24.29-.24.54,0,.2.18.4.54.58.63.32.97.49,1.01.51.36.26.54.59.54.98s-.17.72-.5.94c-.27.18-.6.27-.98.27-.22,0-.43-.02-.62-.05-.19-.03-.38-.08-.57-.15Z"/>
          <path class="cls-6" d="M89.08,6.34l-.04.5c-.16-.07-.31-.13-.46-.16-.15-.04-.3-.05-.44-.05-.5,0-.89.16-1.17.49-.28.33-.42.75-.42,1.28,0,.5.14.92.42,1.26.28.34.65.51,1.12.51.29,0,.61-.06.96-.18l.05.48c-.15.06-.32.09-.51.12-.19.02-.38.03-.58.03-.65,0-1.16-.22-1.52-.66-.34-.41-.51-.93-.51-1.55s.19-1.18.58-1.6c.39-.41.89-.62,1.52-.62.24,0,.45.02.65.06.08.02.21.05.37.11Z"/>
          <path class="cls-6" d="M90.64,10.51v-6.23h.52v2.71c.13-.24.31-.44.54-.59.23-.15.5-.22.8-.22.53,0,.91.17,1.15.51.2.29.3.73.3,1.3v2.53h-.52v-2.53c0-.43-.06-.75-.17-.96-.16-.27-.43-.41-.83-.41-.43,0-.75.18-.97.53-.19.3-.28.66-.28,1.09v2.27h-.52Z"/>
          <path class="cls-6" d="M98.77,9.85v.53c-.18.07-.38.13-.59.17-.21.04-.43.06-.64.06-.67,0-1.16-.21-1.49-.63-.29-.38-.44-.91-.44-1.58s.16-1.18.49-1.6c.33-.41.76-.62,1.29-.62.57,0,.99.21,1.29.62.27.37.4.86.4,1.48v.27h-2.9c0,.47.12.85.36,1.16s.59.45,1.03.45c.18,0,.4-.03.64-.1.24-.06.43-.13.55-.21ZM96.18,8.09h2.33c0-.42-.08-.75-.24-1.01-.19-.3-.47-.46-.84-.46s-.67.16-.91.47c-.22.29-.33.62-.33,1Z"/>
          <path class="cls-6" d="M103.12,10.51v-5.8h2.84v.5h-2.27v2.08h2.15v.5h-2.15v2.23h2.37v.5h-2.94Z"/>
          <path class="cls-6" d="M108.41,4.45v.7h-.52v-.7h.52ZM107.88,10.51v-4.24h.52v4.24h-.52Z"/>
          <path class="cls-6" d="M113.75,4.28v6.23h-.52v-.67c-.15.27-.33.46-.54.58-.21.12-.48.18-.79.18-.56,0-.99-.21-1.29-.62-.3-.41-.45-.94-.45-1.6,0-.69.13-1.22.4-1.59.29-.41.74-.62,1.35-.62.36,0,.67.11.94.32.19.16.32.32.38.49l.02-2.71h.52ZM110.72,8.39c0,.5.08.9.25,1.19.21.38.55.57,1.01.57.42,0,.75-.2.97-.59.19-.33.28-.72.28-1.18s-.09-.85-.27-1.17c-.23-.4-.55-.6-.98-.6-.45,0-.78.19-1,.57-.17.3-.26.7-.26,1.19Z"/>
          <path class="cls-6" d="M119.04,6.27v3.89c0,.64-.15,1.15-.44,1.51-.34.42-.85.63-1.55.63-.24,0-.5-.03-.76-.08-.12-.02-.29-.07-.52-.14l.04-.52c.16.08.35.15.58.21.23.06.45.09.66.09.61,0,1.02-.21,1.23-.64.15-.3.22-.81.22-1.54-.14.3-.32.51-.54.64-.22.13-.47.19-.76.19-.61,0-1.08-.24-1.39-.71-.26-.39-.39-.86-.39-1.41,0-.69.13-1.22.4-1.6.29-.42.74-.62,1.35-.62.31,0,.56.04.76.11.19.07.38.23.57.47l.02-.48h.52ZM116.01,8.39c0,.47.09.85.27,1.15.22.35.53.52.95.52.44,0,.77-.18,1-.54.19-.3.29-.68.29-1.13,0-.56-.09-.98-.27-1.27-.21-.33-.53-.5-.99-.5s-.78.19-1,.57c-.17.3-.26.7-.26,1.2Z"/>
          <path class="cls-6" d="M123.82,9.85v.53c-.18.07-.38.13-.59.17-.21.04-.43.06-.64.06-.67,0-1.16-.21-1.49-.63-.29-.38-.44-.91-.44-1.58s.16-1.18.49-1.6c.33-.41.76-.62,1.29-.62.57,0,.99.21,1.29.62.27.37.4.86.4,1.48v.27h-2.9c0,.47.12.85.36,1.16.24.3.59.45,1.03.45.18,0,.4-.03.64-.1.24-.06.43-.13.55-.21ZM121.23,8.09h2.33c0-.42-.08-.75-.24-1.01-.19-.3-.47-.46-.84-.46s-.67.16-.91.47c-.22.29-.33.62-.33,1Z"/>
          <path class="cls-6" d="M125.8,10.51v-3.57c0-.24-.01-.47-.03-.66h.51v.76c.13-.25.27-.45.43-.57.24-.19.56-.28.96-.28.49,0,.86.16,1.11.47.22.28.33.66.33,1.16v2.71h-.52v-2.58c0-.43-.07-.75-.22-.96-.17-.24-.43-.36-.78-.36-.43,0-.76.17-.98.51-.18.28-.27.63-.27,1.04v2.34h-.52Z"/>
          <path class="cls-6" d="M130.76,8.39c0-.62.16-1.14.47-1.54.35-.45.86-.67,1.5-.67s1.15.22,1.5.67c.32.4.47.91.47,1.54s-.16,1.14-.47,1.54c-.35.45-.86.67-1.5.67s-1.15-.22-1.5-.67c-.32-.4-.47-.91-.47-1.54ZM131.34,8.39c0,.51.12.94.37,1.27.25.33.59.5,1.03.5s.79-.17,1.05-.51c.24-.32.36-.74.36-1.25s-.12-.93-.36-1.25c-.25-.34-.6-.51-1.05-.51s-.79.17-1.03.5c-.25.33-.37.75-.37,1.27Z"/>
          <path class="cls-6" d="M136,10.41l.06-.51c.17.08.34.14.53.19.18.05.38.07.58.07.27,0,.49-.07.67-.2s.27-.32.27-.56c0-.27-.17-.51-.52-.71-.33-.17-.65-.33-.98-.51-.35-.23-.53-.52-.53-.86,0-.39.14-.69.42-.89.25-.18.57-.27.96-.27.13,0,.3.02.49.05.19.03.38.08.56.15l-.05.46c-.14-.07-.3-.12-.45-.15-.16-.03-.32-.05-.49-.05-.29,0-.51.05-.67.16-.16.11-.24.29-.24.54,0,.2.18.4.54.58.63.32.97.49,1.01.51.36.26.54.59.54.98s-.17.72-.5.94c-.27.18-.6.27-.98.27-.22,0-.43-.02-.62-.05-.19-.03-.38-.08-.57-.15Z"/>
          <path class="cls-6" d="M139.9,10.41l.06-.51c.17.08.34.14.53.19.19.05.38.07.58.07.26,0,.49-.07.67-.2.18-.13.27-.32.27-.56,0-.27-.17-.51-.52-.71-.33-.17-.65-.33-.98-.51-.35-.23-.53-.52-.53-.86,0-.39.14-.69.42-.89.25-.18.57-.27.96-.27.13,0,.3.02.49.05.19.03.38.08.56.15l-.05.46c-.14-.07-.3-.12-.45-.15s-.32-.05-.49-.05c-.29,0-.51.05-.67.16-.16.11-.24.29-.24.54,0,.2.18.4.54.58.63.32.97.49,1.01.51.36.26.54.59.54.98s-.17.72-.5.94c-.27.18-.6.27-.98.27-.22,0-.43-.02-.62-.05-.19-.03-.38-.08-.57-.15Z"/>
          <path class="cls-6" d="M147.02,9.85v.53c-.18.07-.38.13-.59.17-.21.04-.43.06-.64.06-.67,0-1.16-.21-1.49-.63-.29-.38-.44-.91-.44-1.58s.16-1.18.49-1.6c.33-.41.76-.62,1.29-.62.57,0,.99.21,1.29.62.27.37.4.86.4,1.48v.27h-2.9c0,.47.12.85.36,1.16.24.3.59.45,1.03.45.18,0,.4-.03.64-.1.24-.06.43-.13.55-.21ZM144.44,8.09h2.33c0-.42-.08-.75-.24-1.01-.19-.3-.47-.46-.84-.46s-.67.16-.91.47c-.22.29-.33.62-.33,1Z"/>
          <path class="cls-6" d="M149,10.51v-3.57c0-.24-.01-.47-.03-.66h.51v.76c.13-.25.27-.45.43-.57.24-.19.56-.28.96-.28.49,0,.86.16,1.11.47.22.28.33.66.33,1.16v2.71h-.52v-2.58c0-.43-.07-.75-.22-.96-.17-.24-.43-.36-.78-.36-.43,0-.76.17-.98.51-.18.28-.27.63-.27,1.04v2.34h-.52Z"/>
          <path class="cls-6" d="M153.92,10.41l.06-.51c.17.08.34.14.53.19.18.05.38.07.58.07.26,0,.49-.07.67-.2.18-.13.27-.32.27-.56,0-.27-.17-.51-.52-.71-.33-.17-.65-.33-.98-.51-.35-.23-.53-.52-.53-.86,0-.39.14-.69.42-.89.25-.18.57-.27.96-.27.13,0,.3.02.49.05.19.03.38.08.56.15l-.05.46c-.14-.07-.3-.12-.45-.15s-.32-.05-.49-.05c-.29,0-.51.05-.67.16-.16.11-.24.29-.24.54,0,.2.18.4.54.58.63.32.97.49,1.01.51.36.26.54.59.54.98s-.17.72-.5.94c-.27.18-.6.27-.98.27-.22,0-.43-.02-.62-.05-.19-.03-.38-.08-.57-.15Z"/>
          <path class="cls-6" d="M160.99,6.34l-.04.5c-.16-.07-.31-.13-.46-.16-.15-.04-.3-.05-.44-.05-.5,0-.89.16-1.17.49-.28.33-.42.75-.42,1.28,0,.5.14.92.42,1.26.28.34.65.51,1.12.51.29,0,.61-.06.96-.18l.05.48c-.15.06-.32.09-.51.12-.19.02-.38.03-.58.03-.65,0-1.16-.22-1.52-.66-.34-.41-.51-.93-.51-1.55s.19-1.18.58-1.6c.39-.41.89-.62,1.52-.62.24,0,.45.02.65.06.08.02.21.05.37.11Z"/>
          <path class="cls-6" d="M162.55,10.51v-6.23h.52v2.71c.13-.24.31-.44.54-.59.23-.15.5-.22.8-.22.53,0,.91.17,1.15.51.2.29.3.73.3,1.3v2.53h-.52v-2.53c0-.43-.06-.75-.17-.96-.16-.27-.43-.41-.83-.41-.43,0-.75.18-.97.53-.19.3-.28.66-.28,1.09v2.27h-.52Z"/>
          <path class="cls-6" d="M170.27,10.51v-.69c-.12.24-.31.44-.56.57-.25.14-.52.21-.8.21-.53,0-.91-.15-1.15-.45-.17-.21-.25-.46-.25-.75,0-.62.3-1.05.89-1.27.38-.14.96-.22,1.72-.22h.1v-.22c0-.37-.07-.65-.22-.82-.15-.18-.4-.27-.74-.27-.47,0-.88.12-1.25.35v-.51c.17-.08.37-.15.6-.21.23-.06.44-.08.64-.08.53,0,.91.12,1.14.37.23.25.35.65.35,1.21v1.87c0,.16,0,.3,0,.43,0,.13.02.29.04.46h-.52ZM170.22,8.63v-.26h-.15c-.77,0-1.3.09-1.6.28-.26.17-.39.41-.39.74,0,.26.09.46.26.59.15.12.36.17.62.17.41,0,.72-.12.93-.36.21-.24.32-.63.32-1.16Z"/>
          <path class="cls-6" d="M173.02,10.51v-3.79h-.86v-.45h.86v-.31c0-.59.05-1,.15-1.23.16-.37.48-.56.97-.56.1,0,.19,0,.28.02.09.01.16.03.21.07l-.03.46c-.11-.06-.25-.09-.42-.09-.27,0-.45.11-.55.34-.06.15-.09.39-.09.71v.6h.96v.45h-.96v3.79h-.52Z"/>
          <path class="cls-6" d="M177.93,6.27v.45h-.96v2.74c0,.22.04.39.13.51.09.12.23.19.44.19.1,0,.18,0,.25-.02s.14-.04.24-.07l.03.42c-.07.03-.16.05-.28.08-.12.02-.24.04-.36.04-.42,0-.7-.14-.83-.41-.09-.18-.13-.51-.13-1v-2.47h-.83v-.45h.83v-1.02l.52-.18v1.21h.96Z"/>
        </g>
        <g>
          <path class="cls-6" d="M42.38,16.34l-.03.53c-.16-.08-.36-.15-.6-.19-.25-.04-.48-.06-.69-.06-.74,0-1.31.23-1.73.69-.42.46-.62,1.06-.62,1.8s.2,1.34.6,1.79c.42.47,1.01.71,1.75.71.23,0,.47-.02.71-.06s.44-.1.59-.18l.03.49c-.13.08-.34.15-.61.19-.27.04-.51.06-.72.06-.9,0-1.62-.27-2.14-.82-.52-.55-.79-1.27-.79-2.18s.27-1.61.8-2.17c.53-.55,1.24-.83,2.13-.83.24,0,.49.02.74.05.25.03.44.09.59.17Z"/>
          <path class="cls-6" d="M44.19,19.9c0-.62.16-1.14.47-1.54.35-.45.86-.67,1.5-.67s1.15.22,1.5.67c.32.4.47.91.47,1.54s-.16,1.14-.47,1.54c-.35.45-.86.67-1.5.67s-1.15-.22-1.5-.67c-.32-.4-.47-.91-.47-1.54ZM44.77,19.9c0,.51.12.94.37,1.27.25.33.59.5,1.03.5s.79-.17,1.05-.51c.24-.32.36-.74.36-1.25s-.12-.93-.36-1.25c-.26-.34-.6-.51-1.05-.51s-.79.17-1.03.5c-.25.33-.37.75-.37,1.27Z"/>
          <path class="cls-6" d="M49.81,22.03v-3.57c0-.24-.01-.47-.03-.66h.51v.76c.13-.25.27-.45.43-.57.24-.19.56-.28.96-.28.49,0,.86.16,1.11.47.22.28.33.66.33,1.16v2.71h-.52v-2.58c0-.43-.07-.75-.22-.96-.17-.24-.43-.36-.78-.36-.43,0-.76.17-.98.51-.18.28-.27.63-.27,1.04v2.34h-.52Z"/>
          <path class="cls-6" d="M55.45,22.03v-3.79h-.86v-.45h.86v-.31c0-.59.05-1,.15-1.23.16-.37.48-.56.97-.56.1,0,.19,0,.28.02.09.01.16.03.21.07l-.03.46c-.11-.06-.25-.09-.42-.09-.27,0-.45.11-.55.34-.06.15-.09.39-.09.71v.6h.96v.45h-.96v3.79h-.52Z"/>
          <path class="cls-6" d="M61.37,21.36v.53c-.18.07-.38.13-.59.17-.21.04-.43.06-.64.06-.67,0-1.16-.21-1.49-.63-.29-.38-.44-.91-.44-1.58s.16-1.18.49-1.6c.33-.41.76-.62,1.29-.62.57,0,.99.21,1.29.62.27.37.4.86.4,1.48v.27h-2.9c0,.47.12.85.36,1.16.24.3.59.45,1.03.45.18,0,.4-.03.64-.1.24-.06.43-.13.55-.21ZM58.79,19.61h2.33c0-.42-.08-.75-.24-1.01-.19-.3-.47-.46-.84-.46s-.67.16-.91.47c-.22.29-.33.62-.33,1ZM59.47,17.35l.77-1.2h.66l-1.05,1.2h-.38Z"/>
          <path class="cls-6" d="M66.71,15.79v6.23h-.52v-.67c-.15.27-.33.46-.54.58-.21.12-.48.18-.79.18-.56,0-.99-.21-1.29-.62-.3-.41-.45-.94-.45-1.6,0-.69.13-1.22.4-1.59.29-.41.74-.62,1.35-.62.36,0,.67.11.94.32.19.16.32.32.38.49l.02-2.71h.52ZM63.68,19.9c0,.5.08.9.25,1.19.21.38.55.57,1.01.57.42,0,.75-.2.97-.59.19-.33.28-.72.28-1.18s-.09-.85-.27-1.17c-.23-.4-.55-.6-.98-.6-.45,0-.78.19-1,.57-.17.3-.26.7-.26,1.19Z"/>
          <path class="cls-6" d="M71.49,21.36v.53c-.18.07-.38.13-.59.17-.21.04-.43.06-.64.06-.67,0-1.16-.21-1.49-.63-.29-.38-.44-.91-.44-1.58s.16-1.18.49-1.6c.33-.41.76-.62,1.29-.62.57,0,.99.21,1.29.62.27.37.4.86.4,1.48v.27h-2.9c0,.47.12.85.36,1.16.24.3.59.45,1.03.45.18,0,.4-.03.64-.1.24-.06.43-.13.55-.21ZM68.9,19.61h2.33c0-.42-.08-.75-.24-1.01-.19-.3-.47-.46-.84-.46s-.67.16-.91.47c-.22.29-.33.62-.33,1ZM69.58,17.35l.77-1.2h.66l-1.05,1.2h-.38Z"/>
          <path class="cls-6" d="M73.47,22.03v-3.68c0-.19-.01-.37-.03-.56h.52v.81c.12-.27.26-.48.42-.63.2-.19.43-.28.68-.28.06,0,.12,0,.2.02.07.01.13.02.17.03v.55c-.11-.03-.24-.05-.38-.05-.38,0-.66.19-.84.56-.14.29-.22.67-.22,1.14v2.09h-.52Z"/>
          <path class="cls-6" d="M79.34,22.03v-.69c-.12.24-.31.44-.56.57-.25.14-.52.21-.8.21-.53,0-.91-.15-1.15-.45-.17-.21-.25-.46-.25-.75,0-.62.3-1.05.89-1.27.38-.14.96-.22,1.72-.22h.1v-.22c0-.37-.07-.65-.22-.82-.15-.18-.4-.27-.74-.27-.47,0-.88.12-1.25.35v-.51c.17-.08.37-.15.6-.21.23-.06.44-.08.64-.08.53,0,.91.12,1.14.37.23.25.35.65.35,1.21v1.87c0,.16,0,.3,0,.43,0,.13.02.29.04.46h-.52ZM79.29,20.15v-.26h-.15c-.77,0-1.3.09-1.6.28-.26.17-.39.41-.39.74,0,.26.09.46.26.59.15.12.36.17.62.17.41,0,.72-.12.94-.36.21-.24.32-.63.32-1.16Z"/>
          <path class="cls-6" d="M83.56,17.79v.45h-.96v2.74c0,.22.04.39.13.51.09.12.23.19.44.19.1,0,.18,0,.25-.02s.14-.04.24-.07l.03.42c-.07.03-.16.05-.28.08-.12.02-.24.04-.36.04-.42,0-.7-.14-.83-.41-.09-.18-.13-.51-.13-1v-2.47h-.83v-.45h.83v-1.02l.52-.18v1.21h.96Z"/>
          <path class="cls-6" d="M85.69,15.96v.7h-.52v-.7h.52ZM85.16,22.03v-4.24h.52v4.24h-.52Z"/>
          <path class="cls-6" d="M87.35,19.9c0-.62.16-1.14.47-1.54.35-.45.86-.67,1.5-.67s1.15.22,1.5.67c.32.4.47.91.47,1.54s-.16,1.14-.47,1.54c-.35.45-.86.67-1.5.67s-1.15-.22-1.5-.67c-.32-.4-.47-.91-.47-1.54ZM87.92,19.9c0,.51.12.94.37,1.27.25.33.59.5,1.03.5s.79-.17,1.05-.51c.24-.32.36-.74.36-1.25s-.12-.93-.36-1.25c-.25-.34-.6-.51-1.05-.51s-.79.17-1.03.5c-.25.33-.37.75-.37,1.27Z"/>
          <path class="cls-6" d="M92.96,22.03v-3.57c0-.24-.01-.47-.03-.66h.51v.76c.13-.25.27-.45.43-.57.24-.19.56-.28.96-.28.49,0,.86.16,1.11.47.22.28.33.66.33,1.16v2.71h-.52v-2.58c0-.43-.07-.75-.22-.96-.17-.24-.43-.36-.78-.36-.43,0-.76.17-.98.51-.18.28-.27.63-.27,1.04v2.34h-.52Z"/>
          <path class="cls-6" d="M100.19,21.92l.06-.51c.17.08.34.14.53.19.19.05.38.07.58.07.27,0,.49-.07.67-.2s.27-.32.27-.56c0-.27-.17-.51-.52-.71-.33-.17-.65-.33-.98-.51-.35-.23-.53-.52-.53-.86,0-.39.14-.69.42-.89.25-.18.57-.27.96-.27.13,0,.3.02.49.05.19.03.38.08.56.15l-.05.46c-.14-.07-.3-.12-.45-.15-.16-.03-.32-.05-.49-.05-.29,0-.51.05-.67.16-.16.11-.24.29-.24.54,0,.2.18.4.54.58.63.32.97.49,1.01.51.36.26.54.59.54.98s-.17.72-.5.94c-.27.18-.6.27-.98.27-.22,0-.43-.02-.62-.05-.19-.03-.38-.08-.57-.15Z"/>
          <path class="cls-6" d="M107.77,17.79v3.24c0,.17,0,.33,0,.48,0,.16.01.33.03.52h-.51v-.76c-.13.25-.27.44-.43.57-.24.19-.56.28-.96.28-.49,0-.86-.15-1.11-.46-.22-.28-.33-.66-.33-1.16v-2.7h.52v2.57c0,.43.08.75.24.97.16.22.41.34.77.34.43,0,.76-.17.98-.51.18-.28.27-.63.27-1.04v-2.34h.52Z"/>
          <path class="cls-6" d="M110.28,15.96v.7h-.52v-.7h.52ZM109.75,22.03v-4.24h.52v4.24h-.52Z"/>
          <path class="cls-6" d="M111.89,21.92l.06-.51c.17.08.34.14.53.19.19.05.38.07.58.07.26,0,.49-.07.67-.2.18-.13.27-.32.27-.56,0-.27-.17-.51-.52-.71-.33-.17-.65-.33-.98-.51-.35-.23-.53-.52-.53-.86,0-.39.14-.69.42-.89.25-.18.57-.27.96-.27.13,0,.3.02.49.05.19.03.38.08.56.15l-.05.46c-.14-.07-.3-.12-.45-.15s-.32-.05-.49-.05c-.29,0-.51.05-.67.16-.16.11-.24.29-.24.54,0,.2.18.4.54.58.63.32.97.49,1.01.51.36.26.54.59.54.98s-.17.72-.5.94c-.27.18-.6.27-.98.27-.22,0-.43-.02-.62-.05-.19-.03-.38-.08-.57-.15Z"/>
          <path class="cls-6" d="M115.79,21.92l.06-.51c.17.08.34.14.53.19.19.05.38.07.58.07.27,0,.49-.07.67-.2s.27-.32.27-.56c0-.27-.17-.51-.52-.71-.33-.17-.65-.33-.98-.51-.35-.23-.53-.52-.53-.86,0-.39.14-.69.42-.89.25-.18.57-.27.96-.27.13,0,.3.02.49.05.19.03.38.08.56.15l-.05.46c-.14-.07-.3-.12-.45-.15-.16-.03-.32-.05-.49-.05-.29,0-.51.05-.67.16-.16.11-.24.29-.24.54,0,.2.18.4.54.58.63.32.97.49,1.01.51.36.26.54.59.54.98s-.17.72-.5.94c-.27.18-.6.27-.98.27-.22,0-.43-.02-.62-.05-.19-.03-.38-.08-.57-.15Z"/>
          <path class="cls-6" d="M122.91,21.36v.53c-.18.07-.38.13-.59.17-.21.04-.43.06-.64.06-.67,0-1.16-.21-1.49-.63-.29-.38-.44-.91-.44-1.58s.16-1.18.49-1.6c.33-.41.76-.62,1.29-.62.57,0,.99.21,1.29.62.27.37.4.86.4,1.48v.27h-2.9c0,.47.12.85.36,1.16.24.3.59.45,1.03.45.18,0,.4-.03.64-.1.24-.06.43-.13.55-.21ZM120.33,19.61h2.33c0-.42-.08-.75-.24-1.01-.19-.3-.47-.46-.84-.46s-.67.16-.91.47c-.22.29-.33.62-.33,1Z"/>
        </g>
        <g>
          <path class="cls-6" d="M42.38,27.86l-.03.53c-.16-.08-.36-.15-.6-.19-.25-.04-.48-.06-.69-.06-.74,0-1.31.23-1.73.69-.42.46-.62,1.06-.62,1.8s.2,1.34.6,1.79c.42.47,1.01.71,1.75.71.23,0,.47-.02.71-.06.24-.04.44-.1.59-.18l.03.49c-.13.08-.34.15-.61.19-.27.04-.51.06-.72.06-.9,0-1.62-.27-2.14-.82-.52-.55-.79-1.27-.79-2.18s.27-1.61.8-2.17c.53-.55,1.24-.83,2.13-.83.24,0,.49.02.74.05.25.03.44.09.59.17Z"/>
          <path class="cls-6" d="M44.19,31.42c0-.62.16-1.14.47-1.54.35-.45.86-.67,1.5-.67s1.15.22,1.5.67c.32.4.47.91.47,1.54s-.16,1.14-.47,1.54c-.35.45-.86.67-1.5.67s-1.15-.22-1.5-.67c-.32-.4-.47-.91-.47-1.54ZM44.77,31.42c0,.51.12.94.37,1.27.25.33.59.5,1.03.5s.79-.17,1.05-.51c.24-.32.36-.74.36-1.25s-.12-.93-.36-1.25c-.26-.34-.6-.51-1.05-.51s-.79.17-1.03.5c-.25.33-.37.75-.37,1.27Z"/>
          <path class="cls-6" d="M49.81,33.54v-3.57c0-.24-.01-.47-.03-.66h.51v.76c.13-.25.27-.45.43-.57.24-.19.56-.28.96-.28.49,0,.86.16,1.11.47.22.28.33.66.33,1.16v2.71h-.52v-2.58c0-.43-.07-.75-.22-.96-.17-.24-.43-.36-.78-.36-.43,0-.76.17-.98.51-.18.28-.27.63-.27,1.04v2.34h-.52Z"/>
          <path class="cls-6" d="M55.45,33.54v-3.79h-.86v-.45h.86v-.31c0-.59.05-1,.15-1.23.16-.37.48-.56.97-.56.1,0,.19,0,.28.02.09.01.16.03.21.07l-.03.46c-.11-.06-.25-.09-.42-.09-.27,0-.45.11-.55.34-.06.15-.09.39-.09.71v.6h.96v.45h-.96v3.79h-.52Z"/>
          <path class="cls-6" d="M61.37,32.88v.53c-.18.07-.38.13-.59.17-.21.04-.43.06-.64.06-.67,0-1.16-.21-1.49-.63-.29-.38-.44-.91-.44-1.58s.16-1.18.49-1.6c.33-.41.76-.62,1.29-.62.57,0,.99.21,1.29.62.27.37.4.86.4,1.48v.27h-2.9c0,.47.12.85.36,1.16.24.3.59.45,1.03.45.18,0,.4-.03.64-.1.24-.06.43-.13.55-.21ZM58.79,31.12h2.33c0-.42-.08-.75-.24-1.01-.19-.3-.47-.46-.84-.46s-.67.16-.91.47c-.22.29-.33.62-.33,1Z"/>
          <path class="cls-6" d="M66.71,27.31v6.23h-.52v-.67c-.15.27-.33.46-.54.58-.21.12-.48.18-.79.18-.56,0-.99-.21-1.29-.62-.3-.41-.45-.94-.45-1.6,0-.69.13-1.22.4-1.59.29-.41.74-.62,1.35-.62.36,0,.67.11.94.32.19.16.32.32.38.49l.02-2.71h.52ZM63.68,31.42c0,.5.08.9.25,1.19.21.38.55.57,1.01.57.42,0,.75-.2.97-.59.19-.33.28-.72.28-1.18s-.09-.85-.27-1.17c-.23-.4-.55-.6-.98-.6-.45,0-.78.19-1,.57-.17.3-.26.7-.26,1.19Z"/>
          <path class="cls-6" d="M71.49,32.88v.53c-.18.07-.38.13-.59.17-.21.04-.43.06-.64.06-.67,0-1.16-.21-1.49-.63-.29-.38-.44-.91-.44-1.58s.16-1.18.49-1.6c.33-.41.76-.62,1.29-.62.57,0,.99.21,1.29.62.27.37.4.86.4,1.48v.27h-2.9c0,.47.12.85.36,1.16.24.3.59.45,1.03.45.18,0,.4-.03.64-.1.24-.06.43-.13.55-.21ZM68.9,31.12h2.33c0-.42-.08-.75-.24-1.01-.19-.3-.47-.46-.84-.46s-.67.16-.91.47c-.22.29-.33.62-.33,1Z"/>
          <path class="cls-6" d="M73.47,33.54v-3.68c0-.19-.01-.37-.03-.56h.52v.81c.12-.27.26-.48.42-.63.2-.19.43-.28.68-.28.06,0,.12,0,.2.02.07.01.13.02.17.03v.55c-.11-.03-.24-.05-.38-.05-.38,0-.66.19-.84.56-.14.29-.22.67-.22,1.14v2.09h-.52Z"/>
          <path class="cls-6" d="M79.34,33.54v-.69c-.12.24-.31.44-.56.57-.25.14-.52.21-.8.21-.53,0-.91-.15-1.15-.45-.17-.21-.25-.46-.25-.75,0-.62.3-1.05.89-1.27.38-.14.96-.22,1.72-.22h.1v-.22c0-.37-.07-.65-.22-.82-.15-.18-.4-.27-.74-.27-.47,0-.88.12-1.25.35v-.51c.17-.08.37-.15.6-.21.23-.06.44-.08.64-.08.53,0,.91.12,1.14.37.23.25.35.65.35,1.21v1.87c0,.16,0,.3,0,.43,0,.13.02.29.04.46h-.52ZM79.29,31.66v-.26h-.15c-.77,0-1.3.09-1.6.28-.26.17-.39.41-.39.74,0,.26.09.46.26.59.15.12.36.17.62.17.41,0,.72-.12.94-.36.21-.24.32-.63.32-1.16Z"/>
          <path class="cls-6" d="M81.34,33.54v-.44l2.55-3.35h-2.45v-.45h3.06v.45s-2.55,3.34-2.55,3.34h2.55v.45h-3.16Z"/>
          <path class="cls-6" d="M86.61,27.48v.7h-.52v-.7h.52ZM86.09,33.54v-4.24h.52v4.24h-.52Z"/>
          <path class="cls-6" d="M88.27,31.42c0-.62.16-1.14.47-1.54.35-.45.86-.67,1.5-.67s1.15.22,1.5.67c.32.4.47.91.47,1.54s-.16,1.14-.47,1.54c-.35.45-.86.67-1.5.67s-1.15-.22-1.5-.67c-.32-.4-.47-.91-.47-1.54ZM88.85,31.42c0,.51.12.94.37,1.27.25.33.59.5,1.03.5s.79-.17,1.05-.51c.24-.32.36-.74.36-1.25s-.12-.93-.36-1.25c-.25-.34-.6-.51-1.05-.51s-.79.17-1.03.5c-.25.33-.37.75-.37,1.27Z"/>
          <path class="cls-6" d="M93.89,33.54v-3.57c0-.24-.01-.47-.03-.66h.51v.76c.13-.25.27-.45.43-.57.24-.19.56-.28.96-.28.49,0,.86.16,1.11.47.22.28.33.66.33,1.16v2.71h-.52v-2.58c0-.43-.07-.75-.22-.96-.17-.24-.43-.36-.78-.36-.43,0-.76.17-.98.51-.18.28-.27.63-.27,1.04v2.34h-.52Z"/>
          <path class="cls-6" d="M102.02,32.88v.53c-.18.07-.38.13-.59.17-.21.04-.43.06-.64.06-.67,0-1.16-.21-1.49-.63-.29-.38-.44-.91-.44-1.58s.16-1.18.49-1.6c.33-.41.76-.62,1.29-.62.57,0,.99.21,1.29.62.27.37.4.86.4,1.48v.27h-2.9c0,.47.12.85.36,1.16s.59.45,1.03.45c.18,0,.4-.03.64-.1.24-.06.43-.13.55-.21ZM99.43,31.12h2.33c0-.42-.08-.75-.24-1.01-.19-.3-.47-.46-.84-.46s-.67.16-.91.47c-.22.29-.33.62-.33,1Z"/>
          <path class="cls-6" d="M106.14,33.39l.07-.58c.17.11.36.19.58.25.21.06.45.09.7.09.38,0,.69-.09.92-.28.25-.21.38-.51.38-.9,0-.3-.23-.6-.69-.89-.43-.25-.85-.5-1.28-.76-.46-.34-.69-.72-.69-1.15,0-.45.17-.82.52-1.1.35-.28.79-.41,1.31-.41.24,0,.45.02.63.05.18.03.35.08.51.14l-.09.52c-.12-.07-.27-.12-.47-.16-.19-.04-.39-.06-.59-.06-.34,0-.63.07-.85.22-.27.18-.41.44-.41.78,0,.31.23.6.69.88.43.25.85.5,1.28.75.46.34.69.76.69,1.24,0,.54-.21.95-.62,1.25-.35.25-.78.38-1.29.38-.27,0-.51-.02-.73-.07s-.42-.11-.59-.18Z"/>
          <path class="cls-6" d="M114.09,29.3l-1.49,4.24h-.62l-1.44-4.24h.57s1.17,3.66,1.17,3.66l1.25-3.66h.55Z"/>
          <path class="cls-6" d="M116.02,27.48v.7h-.52v-.7h.52ZM115.49,33.54v-4.24h.52v4.24h-.52Z"/>
          <path class="cls-6" d="M117.61,33.54v-.44l2.55-3.35h-2.45v-.45h3.06v.45s-2.55,3.34-2.55,3.34h2.55v.45h-3.16Z"/>
          <path class="cls-6" d="M121.97,33.54v-.44l2.55-3.35h-2.45v-.45h3.06v.45s-2.55,3.34-2.55,3.34h2.55v.45h-3.16Z"/>
          <path class="cls-6" d="M129.56,32.88v.53c-.18.07-.38.13-.59.17-.21.04-.43.06-.64.06-.67,0-1.16-.21-1.49-.63-.29-.38-.44-.91-.44-1.58s.16-1.18.49-1.6c.33-.41.76-.62,1.29-.62.57,0,.99.21,1.29.62.27.37.4.86.4,1.48v.27h-2.9c0,.47.12.85.36,1.16.24.3.59.45,1.03.45.18,0,.4-.03.64-.1.24-.06.43-.13.55-.21ZM126.98,31.12h2.33c0-.42-.08-.75-.24-1.01-.19-.3-.47-.46-.84-.46s-.67.16-.91.47c-.22.29-.33.62-.33,1Z"/>
          <path class="cls-6" d="M131.54,33.54v-3.68c0-.19-.01-.37-.03-.56h.52v.81c.12-.27.26-.48.42-.63.2-.19.43-.28.68-.28.06,0,.12,0,.2.02.07.01.13.02.17.03v.55c-.11-.03-.24-.05-.38-.05-.38,0-.66.19-.84.56-.14.29-.22.67-.22,1.14v2.09h-.52Z"/>
          <path class="cls-6" d="M137.41,33.54v-.69c-.12.24-.31.44-.56.57-.25.14-.52.21-.8.21-.53,0-.91-.15-1.15-.45-.17-.21-.25-.46-.25-.75,0-.62.3-1.05.89-1.27.38-.14.96-.22,1.72-.22h.1v-.22c0-.37-.07-.65-.22-.82-.15-.18-.4-.27-.74-.27-.47,0-.88.12-1.25.35v-.51c.17-.08.37-.15.6-.21.23-.06.44-.08.64-.08.53,0,.91.12,1.14.37.23.25.35.65.35,1.21v1.87c0,.16,0,.3,0,.43,0,.13.02.29.04.46h-.52ZM137.36,31.66v-.26h-.15c-.77,0-1.3.09-1.6.28-.26.17-.39.41-.39.74,0,.26.09.46.26.59.15.12.36.17.62.17.41,0,.72-.12.93-.36.21-.24.32-.63.32-1.16Z"/>
        </g>
        <g>
          <path class="cls-6" d="M42.38,39.37l-.03.53c-.16-.08-.36-.15-.6-.19-.25-.04-.48-.06-.69-.06-.74,0-1.31.23-1.73.69-.42.46-.62,1.06-.62,1.8s.2,1.34.6,1.79c.42.47,1.01.71,1.75.71.23,0,.47-.02.71-.06.24-.04.44-.1.59-.18l.03.49c-.13.08-.34.15-.61.19-.27.04-.51.06-.72.06-.9,0-1.62-.27-2.14-.82-.52-.55-.79-1.27-.79-2.18s.27-1.61.8-2.17c.53-.55,1.24-.83,2.13-.83.24,0,.49.02.74.05.25.03.44.09.59.17Z"/>
          <path class="cls-6" d="M44.19,42.93c0-.62.16-1.14.47-1.54.35-.45.86-.67,1.5-.67s1.15.22,1.5.67c.32.4.47.91.47,1.54s-.16,1.14-.47,1.54c-.35.45-.86.67-1.5.67s-1.15-.22-1.5-.67c-.32-.4-.47-.91-.47-1.54ZM44.77,42.93c0,.51.12.94.37,1.27.25.33.59.5,1.03.5s.79-.17,1.05-.51c.24-.32.36-.74.36-1.25s-.12-.93-.36-1.25c-.26-.34-.6-.51-1.05-.51s-.79.17-1.03.5c-.25.33-.37.75-.37,1.27Z"/>
          <path class="cls-6" d="M49.81,45.06v-3.57c0-.24-.01-.47-.03-.66h.51v.76c.13-.25.27-.45.43-.57.24-.19.56-.28.96-.28.49,0,.86.16,1.11.47.22.28.33.66.33,1.16v2.71h-.52v-2.58c0-.43-.07-.75-.22-.96-.17-.24-.43-.36-.78-.36-.43,0-.76.17-.98.51-.18.28-.27.63-.27,1.04v2.34h-.52Z"/>
          <path class="cls-6" d="M55.45,45.06v-3.79h-.86v-.45h.86v-.31c0-.59.05-1,.15-1.23.16-.37.48-.56.97-.56.1,0,.19,0,.28.02.09.01.16.03.21.07l-.03.46c-.11-.06-.25-.09-.42-.09-.27,0-.45.11-.55.34-.06.15-.09.39-.09.71v.6h.96v.45h-.96v3.79h-.52Z"/>
          <path class="cls-6" d="M61.37,44.39v.53c-.18.07-.38.13-.59.17-.21.04-.43.06-.64.06-.67,0-1.16-.21-1.49-.63-.29-.38-.44-.91-.44-1.58s.16-1.18.49-1.6c.33-.41.76-.62,1.29-.62.57,0,.99.21,1.29.62.27.37.4.86.4,1.48v.27h-2.9c0,.47.12.85.36,1.16.24.3.59.45,1.03.45.18,0,.4-.03.64-.1.24-.06.43-.13.55-.21ZM58.79,42.64h2.33c0-.42-.08-.75-.24-1.01-.19-.3-.47-.46-.84-.46s-.67.16-.91.47c-.22.29-.33.62-.33,1Z"/>
          <path class="cls-6" d="M66.71,38.82v6.23h-.52v-.67c-.15.27-.33.46-.54.58-.21.12-.48.18-.79.18-.56,0-.99-.21-1.29-.62-.3-.41-.45-.94-.45-1.6,0-.69.13-1.22.4-1.59.29-.41.74-.62,1.35-.62.36,0,.67.11.94.32.19.16.32.32.38.49l.02-2.71h.52ZM63.68,42.93c0,.5.08.9.25,1.19.21.38.55.57,1.01.57.42,0,.75-.2.97-.59.19-.33.28-.72.28-1.18s-.09-.85-.27-1.17c-.23-.4-.55-.6-.98-.6-.45,0-.78.19-1,.57-.17.3-.26.7-.26,1.19Z"/>
          <path class="cls-6" d="M71.49,44.39v.53c-.18.07-.38.13-.59.17-.21.04-.43.06-.64.06-.67,0-1.16-.21-1.49-.63-.29-.38-.44-.91-.44-1.58s.16-1.18.49-1.6c.33-.41.76-.62,1.29-.62.57,0,.99.21,1.29.62.27.37.4.86.4,1.48v.27h-2.9c0,.47.12.85.36,1.16.24.3.59.45,1.03.45.18,0,.4-.03.64-.1.24-.06.43-.13.55-.21ZM68.9,42.64h2.33c0-.42-.08-.75-.24-1.01-.19-.3-.47-.46-.84-.46s-.67.16-.91.47c-.22.29-.33.62-.33,1Z"/>
          <path class="cls-6" d="M73.47,45.06v-3.68c0-.19-.01-.37-.03-.56h.52v.81c.12-.27.26-.48.42-.63.2-.19.43-.28.68-.28.06,0,.12,0,.2.02.07.01.13.02.17.03v.55c-.11-.03-.24-.05-.38-.05-.38,0-.66.19-.84.56-.14.29-.22.67-.22,1.14v2.09h-.52Z"/>
          <path class="cls-6" d="M79.34,45.06v-.69c-.12.24-.31.44-.56.57-.25.14-.52.21-.8.21-.53,0-.91-.15-1.15-.45-.17-.21-.25-.46-.25-.75,0-.62.3-1.05.89-1.27.38-.14.96-.22,1.72-.22h.1v-.22c0-.37-.07-.65-.22-.82-.15-.18-.4-.27-.74-.27-.47,0-.88.12-1.25.35v-.51c.17-.08.37-.15.6-.21.23-.06.44-.08.64-.08.53,0,.91.12,1.14.37.23.25.35.65.35,1.21v1.87c0,.16,0,.3,0,.43,0,.13.02.29.04.46h-.52ZM79.29,43.18v-.26h-.15c-.77,0-1.3.09-1.6.28-.26.17-.39.41-.39.74,0,.26.09.46.26.59.15.12.36.17.62.17.41,0,.72-.12.94-.36.21-.24.32-.63.32-1.16Z"/>
          <path class="cls-6" d="M81.34,45.06v-.44l2.55-3.35h-2.45v-.45h3.06v.45s-2.55,3.34-2.55,3.34h2.55v.45h-3.16Z"/>
          <path class="cls-6" d="M86.61,38.99v.7h-.52v-.7h.52ZM86.09,45.06v-4.24h.52v4.24h-.52Z"/>
          <path class="cls-6" d="M91.91,40.82v3.24c0,.17,0,.33,0,.48,0,.16.01.33.03.52h-.51v-.76c-.13.25-.27.44-.43.57-.24.19-.56.28-.96.28-.49,0-.86-.15-1.11-.46-.22-.28-.33-.66-.33-1.16v-2.7h.52v2.57c0,.43.08.75.24.97s.41.34.77.34c.43,0,.76-.17.98-.51.18-.28.27-.63.27-1.04v-2.34h.52Z"/>
          <path class="cls-6" d="M93.89,45.06v-3.57c0-.24-.01-.47-.03-.66h.51v.76c.13-.25.27-.45.43-.57.24-.19.56-.28.96-.28.49,0,.86.16,1.11.47.22.28.33.66.33,1.16v2.71h-.52v-2.58c0-.43-.07-.75-.22-.96-.17-.24-.43-.36-.78-.36-.43,0-.76.17-.98.51-.18.28-.27.63-.27,1.04v2.34h-.52Z"/>
          <path class="cls-6" d="M101.11,44.95l.06-.51c.17.08.34.14.53.19.18.05.38.07.58.07.27,0,.49-.07.67-.2s.27-.32.27-.56c0-.27-.17-.51-.52-.7-.33-.17-.65-.33-.98-.51-.35-.23-.53-.52-.53-.86,0-.39.14-.69.42-.89.25-.18.57-.27.96-.27.13,0,.3.02.49.05.19.03.38.08.56.15l-.05.46c-.14-.07-.3-.12-.45-.15-.16-.03-.32-.05-.49-.05-.29,0-.51.05-.67.16-.16.11-.24.29-.24.54,0,.2.18.4.54.58.63.32.97.49,1.01.51.36.26.54.59.54.98s-.17.72-.5.94c-.27.18-.6.27-.98.27-.22,0-.43-.02-.62-.05-.19-.03-.38-.08-.57-.15Z"/>
          <path class="cls-6" d="M108.35,40.82l-1.49,4.24h-.62l-1.44-4.24h.57s1.17,3.66,1.17,3.66l1.25-3.66h.55Z"/>
          <path class="cls-6" d="M110.27,38.99v.7h-.52v-.7h.52ZM109.75,45.06v-4.24h.52v4.24h-.52Z"/>
          <path class="cls-6" d="M111.87,45.06v-.44l2.55-3.35h-2.45v-.45h3.06v.45s-2.55,3.34-2.55,3.34h2.55v.45h-3.16Z"/>
          <path class="cls-6" d="M116.62,45.06v-3.68c0-.19-.01-.37-.03-.56h.52v.81c.12-.27.26-.48.42-.63.2-.19.43-.28.68-.28.06,0,.12,0,.2.02.07.01.13.02.17.03v.55c-.11-.03-.24-.05-.38-.05-.38,0-.66.19-.84.56-.14.29-.22.67-.22,1.14v2.09h-.52Z"/>
          <path class="cls-6" d="M122.49,45.06v-.69c-.12.24-.31.44-.56.57-.25.14-.52.21-.8.21-.53,0-.91-.15-1.15-.45-.17-.21-.25-.46-.25-.75,0-.62.3-1.05.89-1.27.38-.14.96-.22,1.72-.22h.1v-.22c0-.37-.07-.65-.22-.82-.15-.18-.4-.27-.74-.27-.47,0-.88.12-1.25.35v-.51c.17-.08.37-.15.6-.21.23-.06.44-.08.64-.08.53,0,.91.12,1.14.37.23.25.35.65.35,1.21v1.87c0,.16,0,.3,0,.43,0,.13.02.29.04.46h-.52ZM122.44,43.18v-.26h-.15c-.77,0-1.3.09-1.6.28-.26.17-.39.41-.39.74,0,.26.09.46.26.59.15.12.36.17.62.17.41,0,.72-.12.94-.36.21-.24.32-.63.32-1.16Z"/>
        </g>
        <g>
          <path d="M42.2,66.71v1h-3.67v-6.14h3.64v1.01h-2.4v1.48h2.19v1h-2.19v1.64h2.43Z"/>
          <path d="M44.45,63.15l.03.69c.15-.24.35-.43.6-.56.25-.13.52-.2.81-.2.32,0,.58.07.79.2.21.13.38.34.5.61.15-.26.36-.46.61-.6.25-.14.53-.21.84-.21.57,0,.95.18,1.15.54.2.36.3.84.3,1.45v2.64h-1.18v-2.39c0-.37-.04-.67-.13-.91-.09-.24-.27-.36-.56-.36-.6,0-.89.52-.89,1.55v2.11h-1.18v-2.66c0-.26-.05-.5-.15-.69s-.28-.3-.53-.3c-.33,0-.56.14-.7.42-.14.28-.21.6-.21.96v2.28h-1.18v-3.44c0-.42-.01-.79-.04-1.11h1.12Z"/>
          <path d="M52.32,67.71h-1.11v-6.63h1.18v2.03c0,.33-.01.61-.05.85.16-.3.36-.52.6-.67s.54-.22.89-.22c.32,0,.59.06.82.18.23.12.42.29.57.5.15.21.26.45.33.72.07.27.11.56.11.86,0,.32-.03.63-.1.92-.07.29-.17.55-.31.77-.14.23-.34.41-.58.55-.25.14-.54.21-.88.21-.67,0-1.15-.27-1.43-.8l-.03.72ZM54.43,65.43c0-.36-.08-.69-.24-.96-.16-.28-.4-.42-.74-.42-.35,0-.62.14-.8.43-.18.29-.27.62-.27.98s.09.69.26.97c.17.28.43.42.78.42.23,0,.42-.07.56-.22.15-.15.26-.33.33-.55.07-.22.1-.44.1-.65Z"/>
          <path d="M60.41,67.71h-1.05l-.02-.68c-.14.24-.34.43-.59.56-.25.13-.53.2-.82.2s-.57-.05-.81-.16c-.24-.1-.43-.26-.56-.48-.14-.21-.21-.47-.21-.78,0-.57.22-.96.67-1.17.45-.21.99-.31,1.63-.31.09,0,.15,0,.18,0,.03,0,.09,0,.18,0,.09,0,.19,0,.28.02,0-.34-.08-.59-.25-.76-.16-.16-.42-.25-.76-.25-.52,0-.99.17-1.41.5l-.04-1.03c.49-.21,1.02-.31,1.59-.31.21,0,.42.02.63.06s.4.11.58.21c.18.1.33.23.45.39.12.16.2.35.23.56.04.21.06.46.06.74s0,.6,0,.89c0,.3,0,.57,0,.82,0,.25.02.57.03.96ZM59.3,65.64s-.08,0-.14,0h-.14c-.26,0-.49.01-.71.04-.21.03-.4.1-.56.22-.16.12-.24.28-.24.51,0,.18.07.32.21.43.14.11.31.16.5.16.36,0,.63-.13.81-.4.18-.26.27-.58.27-.95Z"/>
          <path d="M62.8,63.15v4.83c0,.32-.05.61-.15.85-.1.25-.25.44-.47.57-.22.14-.49.2-.82.2-.18,0-.36-.02-.54-.05l.05-.86s.07,0,.13,0c.2,0,.35-.07.45-.21.1-.14.15-.31.15-.52v-4.83h1.19ZM62.82,62.33h-1.22v-1.12h1.22v1.12Z"/>
          <path d="M67.79,67.71h-1.05l-.02-.68c-.14.24-.34.43-.59.56-.25.13-.53.2-.82.2s-.57-.05-.81-.16c-.24-.1-.43-.26-.56-.48-.14-.21-.21-.47-.21-.78,0-.57.22-.96.67-1.17.45-.21.99-.31,1.63-.31.09,0,.15,0,.18,0,.03,0,.09,0,.18,0,.09,0,.19,0,.28.02,0-.34-.08-.59-.25-.76-.16-.16-.42-.25-.76-.25-.52,0-.99.17-1.41.5l-.04-1.03c.49-.21,1.02-.31,1.59-.31.21,0,.42.02.63.06s.4.11.58.21.33.23.45.39c.12.16.2.35.23.56.04.21.06.46.06.74s0,.6,0,.89c0,.3,0,.57,0,.82,0,.25.02.57.03.96ZM66.69,65.64s-.08,0-.14,0h-.14c-.26,0-.49.01-.71.04-.21.03-.4.1-.56.22-.16.12-.24.28-.24.51,0,.18.07.32.21.43.14.11.31.16.5.16.36,0,.63-.13.81-.4.18-.26.27-.58.27-.95Z"/>
          <path d="M73.15,67.71h-1.11l-.02-.78c-.13.27-.33.48-.58.63-.25.15-.53.22-.85.22s-.62-.07-.87-.2c-.25-.13-.45-.31-.6-.53-.15-.22-.27-.47-.34-.76-.07-.28-.11-.58-.11-.89,0-.41.07-.79.2-1.15.13-.36.34-.65.63-.87.28-.22.64-.33,1.06-.33.32,0,.59.07.83.21.24.14.43.35.58.63-.03-.22-.04-.49-.04-.81v-2.02h1.18v5.3c0,.29.01.55.02.77,0,.22.01.41.02.55ZM71.96,65.46c0-.24-.04-.46-.11-.67-.07-.21-.19-.39-.35-.53-.16-.14-.36-.21-.6-.21-.35,0-.61.14-.76.41-.15.27-.23.6-.23.98,0,.36.09.68.26.97.17.29.42.44.76.44.22,0,.42-.07.58-.2.16-.14.28-.31.35-.52.07-.21.11-.43.11-.67Z"/>
          <path d="M78.15,67.71h-1.05l-.02-.68c-.14.24-.34.43-.59.56-.25.13-.53.2-.82.2s-.57-.05-.81-.16c-.24-.1-.43-.26-.56-.48-.14-.21-.21-.47-.21-.78,0-.57.22-.96.67-1.17.45-.21.99-.31,1.63-.31.09,0,.15,0,.18,0,.03,0,.09,0,.18,0,.09,0,.19,0,.28.02,0-.34-.08-.59-.25-.76-.16-.16-.42-.25-.76-.25-.52,0-.99.17-1.41.5l-.04-1.03c.49-.21,1.02-.31,1.59-.31.21,0,.42.02.63.06s.4.11.58.21c.18.1.33.23.45.39.12.16.2.35.23.56.04.21.06.46.06.74s0,.6,0,.89c0,.3,0,.57,0,.82,0,.25.02.57.03.96ZM77.05,65.64s-.08,0-.14,0h-.14c-.26,0-.49.01-.71.04-.21.03-.4.1-.56.22-.16.12-.24.28-.24.51,0,.18.07.32.21.43.14.11.31.16.5.16.36,0,.63-.13.81-.4.18-.26.27-.58.27-.95Z"/>
          <path d="M86.07,67.71h-1.11l-.02-.78c-.13.27-.33.48-.58.63-.25.15-.53.22-.85.22s-.62-.07-.87-.2c-.25-.13-.45-.31-.6-.53-.15-.22-.27-.47-.34-.76-.07-.28-.11-.58-.11-.89,0-.41.07-.79.2-1.15.13-.36.34-.65.63-.87.28-.22.64-.33,1.06-.33.32,0,.59.07.83.21.24.14.43.35.58.63-.03-.22-.04-.49-.04-.81v-2.02h1.18v5.3c0,.29.01.55.02.77,0,.22.01.41.02.55ZM84.87,65.46c0-.24-.04-.46-.11-.67-.07-.21-.19-.39-.35-.53-.16-.14-.36-.21-.6-.21-.35,0-.61.14-.76.41-.15.27-.23.6-.23.98,0,.36.09.68.26.97.17.29.42.44.76.44.22,0,.42-.07.58-.2.16-.14.28-.31.35-.52.07-.21.11-.43.11-.67Z"/>
          <path d="M90.93,66.5l.02,1.02c-.48.21-1,.31-1.56.31-.37,0-.71-.05-1-.16-.29-.11-.54-.26-.75-.47-.21-.21-.36-.46-.47-.76-.11-.3-.16-.63-.16-1.01,0-.35.05-.67.15-.96.1-.29.25-.55.43-.76.19-.21.42-.38.7-.5.28-.12.59-.18.94-.18s.64.06.9.18c.26.12.47.29.64.51.16.22.29.47.37.75.08.28.12.59.12.93,0,.06,0,.1,0,.14,0,.03,0,.07,0,.11,0,.05,0,.1-.01.16h-3.07c.03.36.17.64.42.84.25.2.56.3.93.3.42,0,.89-.15,1.42-.46ZM90.13,64.99c0-.2-.04-.39-.11-.56-.07-.17-.17-.31-.31-.41-.14-.11-.31-.16-.52-.16s-.39.05-.55.16c-.15.1-.27.24-.35.41-.08.17-.13.36-.15.57h1.99Z"/>
          <path d="M94.79,67.57l.11-1.1c.49.26.95.4,1.39.4.29,0,.53-.07.75-.21.21-.14.32-.35.32-.62s-.09-.47-.27-.59c-.18-.12-.51-.28-.99-.48-.48-.21-.84-.43-1.07-.69-.24-.25-.36-.62-.36-1.09,0-.39.1-.72.3-.98.2-.26.46-.46.79-.58.33-.12.69-.19,1.07-.19.52,0,1.01.08,1.47.24l-.1,1.01c-.45-.2-.87-.31-1.27-.31-.26,0-.49.06-.69.18-.2.12-.29.3-.29.56s.07.41.22.5c.15.09.48.25,1,.48.52.23.9.47,1.15.73.25.26.37.62.37,1.09,0,.33-.06.62-.18.86-.12.24-.29.44-.51.6-.22.16-.47.27-.75.35-.28.07-.58.11-.89.11-.5,0-1.02-.09-1.56-.28Z"/>
          <path d="M103.82,63.15v2.78c0,.13.01.33.02.6,0,.27.01.49.02.65,0,.16.02.34.03.53h-1.11l-.04-.7c-.11.16-.23.3-.38.42-.15.11-.32.2-.5.26-.19.06-.37.09-.56.09-.42,0-.75-.09-.99-.26-.24-.17-.4-.41-.49-.71-.09-.3-.13-.66-.13-1.08v-2.57h1.18v2.19c0,.28.01.53.04.72.03.2.1.37.23.51s.31.22.56.22c.36,0,.6-.15.74-.45.14-.3.21-.65.21-1.06v-2.14h1.18Z"/>
          <path d="M106.27,62.32h-1.21v-1.11h1.21v1.11ZM106.25,67.71h-1.18v-4.56h1.18v4.56Z"/>
          <path d="M110.95,66.81v.9h-3.8v-.9l1.89-2.27c.09-.11.27-.29.52-.53-.05,0-.12,0-.21,0-.09,0-.21,0-.38,0h-1.71v-.87h3.61v.91l-1.92,2.3c-.14.16-.3.33-.49.5.28-.04.64-.06,1.07-.06h1.42Z"/>
          <path d="M115.69,67.71h-1.05l-.02-.68c-.14.24-.34.43-.59.56-.25.13-.53.2-.83.2s-.57-.05-.81-.16c-.24-.1-.43-.26-.56-.48-.14-.21-.21-.47-.21-.78,0-.57.22-.96.67-1.17.45-.21.99-.31,1.63-.31.09,0,.15,0,.18,0,.03,0,.09,0,.18,0,.09,0,.19,0,.28.02,0-.34-.08-.59-.25-.76-.16-.16-.42-.25-.76-.25-.52,0-.99.17-1.41.5l-.04-1.03c.49-.21,1.02-.31,1.59-.31.21,0,.42.02.63.06.21.04.4.11.58.21s.33.23.44.39c.12.16.2.35.23.56.04.21.06.46.06.74s0,.6,0,.89c0,.3,0,.57,0,.82,0,.25.02.57.03.96ZM114.58,65.64s-.08,0-.14,0h-.14c-.26,0-.49.01-.71.04-.21.03-.4.1-.56.22-.16.12-.24.28-.24.51,0,.18.07.32.21.43.14.11.31.16.5.16.36,0,.63-.13.81-.4.18-.26.27-.58.27-.95Z"/>
          <path d="M123.06,66.5l.02,1.02c-.48.21-1,.31-1.56.31-.37,0-.71-.05-1-.16s-.54-.26-.75-.47c-.21-.21-.36-.46-.47-.76-.11-.3-.16-.63-.16-1.01,0-.35.05-.67.15-.96.1-.29.25-.55.43-.76.19-.21.42-.38.7-.5.28-.12.59-.18.94-.18s.64.06.9.18c.26.12.47.29.64.51.16.22.29.47.37.75.08.28.12.59.12.93,0,.06,0,.1,0,.14,0,.03,0,.07,0,.11,0,.05,0,.1-.01.16h-3.07c.03.36.17.64.42.84.25.2.56.3.93.3.42,0,.89-.15,1.42-.46ZM122.26,64.99c0-.2-.04-.39-.11-.56-.07-.17-.17-.31-.31-.41-.14-.11-.31-.16-.52-.16s-.39.05-.55.16c-.15.1-.27.24-.35.41-.08.17-.13.36-.15.57h1.99Z"/>
          <path d="M125.44,63.15l.03.73c.37-.53.88-.8,1.54-.8.61,0,1.02.18,1.24.54.21.36.32.87.32,1.52v2.57h-1.18v-2.29c0-.4-.05-.73-.16-.98-.1-.25-.33-.38-.67-.38-.37,0-.63.15-.78.44-.15.3-.23.65-.23,1.05v2.16h-1.19v-2.9c0-.64-.01-1.2-.04-1.66h1.12Z"/>
          <path d="M135.93,66.5l.02,1.02c-.48.21-1,.31-1.56.31-.37,0-.71-.05-1-.16s-.54-.26-.75-.47c-.21-.21-.36-.46-.47-.76-.11-.3-.16-.63-.16-1.01,0-.35.05-.67.15-.96.1-.29.25-.55.43-.76.19-.21.42-.38.7-.5.28-.12.59-.18.94-.18s.64.06.9.18c.26.12.47.29.64.51.16.22.29.47.37.75.08.28.12.59.12.93,0,.06,0,.1,0,.14,0,.03,0,.07,0,.11,0,.05,0,.1-.01.16h-3.07c.03.36.17.64.42.84.25.2.56.3.93.3.42,0,.89-.15,1.42-.46ZM135.13,64.99c0-.2-.04-.39-.11-.56-.07-.17-.17-.31-.31-.41-.14-.11-.31-.16-.52-.16s-.39.05-.55.16c-.15.1-.27.24-.35.41-.08.17-.13.36-.15.57h1.99Z"/>
          <path d="M138.36,67.71h-1.18v-6.63h1.18v6.63Z"/>
          <path d="M143.5,65.38v2.33h-1.24v-6.14h1.69c.35,0,.66.03.94.08.28.05.53.16.76.31.23.16.41.38.54.64.13.26.2.54.2.84,0,.34-.06.64-.18.89-.12.25-.29.46-.5.61-.21.16-.46.27-.75.35s-.59.11-.92.11c-.12,0-.3,0-.53-.02ZM143.5,64.43c.22,0,.41,0,.59-.03.18-.02.34-.06.48-.12.14-.06.26-.16.35-.29.09-.14.14-.31.14-.53,0-.3-.07-.51-.22-.65-.15-.14-.33-.22-.54-.25-.21-.03-.48-.05-.8-.06v1.92Z"/>
          <path d="M150.83,66.5l.02,1.02c-.48.21-1,.31-1.56.31-.37,0-.71-.05-1-.16s-.54-.26-.75-.47c-.21-.21-.36-.46-.47-.76-.11-.3-.16-.63-.16-1.01,0-.35.05-.67.15-.96.1-.29.25-.55.43-.76.19-.21.42-.38.7-.5.28-.12.59-.18.94-.18s.64.06.9.18c.26.12.47.29.64.51.16.22.29.47.37.75.08.28.12.59.12.93,0,.06,0,.1,0,.14,0,.03,0,.07,0,.11,0,.05,0,.1-.01.16h-3.07c.03.36.17.64.42.84.25.2.56.3.93.3.42,0,.89-.15,1.42-.46ZM150.03,64.99c0-.2-.04-.39-.11-.56-.07-.17-.17-.31-.31-.41-.14-.11-.31-.16-.52-.16s-.39.05-.55.16c-.15.1-.27.24-.35.41-.08.17-.13.36-.15.57h1.99Z"/>
          <path d="M153.31,67.71h-1.18v-3.19c-.02-.76-.03-1.22-.04-1.37h1.07l.03,1.15c.1-.36.26-.65.47-.86.21-.22.48-.32.82-.32.1,0,.22.02.35.05v1.11c-.16-.04-.29-.06-.41-.06-.28,0-.5.07-.67.22-.16.15-.28.34-.34.56-.06.23-.09.48-.09.75v1.97Z"/>
          <path d="M159.64,63.15v2.78c0,.13.01.33.02.6,0,.27.01.49.02.65,0,.16.01.34.03.53h-1.11l-.04-.7c-.1.16-.23.3-.38.42-.15.11-.32.2-.5.26-.19.06-.37.09-.56.09-.42,0-.75-.09-.99-.26-.24-.17-.4-.41-.49-.71-.09-.3-.13-.66-.13-1.08v-2.57h1.18v2.19c0,.28.01.53.04.72.03.2.1.37.23.51s.31.22.56.22c.36,0,.6-.15.74-.45.14-.3.21-.65.21-1.06v-2.14h1.18ZM157.78,62.45h-.7l.74-1.29h1.21l-1.25,1.29Z"/>
        </g>
        <g>
          <path d="M43.45,98.11h-1.24v-2.64h-2.45v2.64h-1.24v-6.14h1.24v2.49h2.45v-2.49h1.24v6.14Z"/>
          <path d="M48.88,93.55v2.78c0,.13.01.33.02.6,0,.27.01.49.02.65,0,.16.01.34.03.53h-1.11l-.04-.7c-.11.16-.23.3-.38.42-.15.11-.32.2-.5.26-.19.06-.37.09-.56.09-.42,0-.75-.09-.99-.26-.24-.17-.4-.41-.49-.71-.09-.3-.13-.66-.13-1.08v-2.57h1.18v2.19c0,.28.01.53.04.72.03.2.1.37.23.51s.31.22.56.22c.36,0,.6-.15.74-.45.14-.3.21-.65.21-1.06v-2.14h1.18Z"/>
          <path d="M51.23,98.11h-1.11v-6.63h1.18v2.03c0,.33-.01.61-.05.85.16-.3.36-.52.6-.67s.54-.22.89-.22c.32,0,.59.06.82.18.23.12.42.29.57.5.15.21.26.45.33.72.07.27.11.56.11.86,0,.32-.03.63-.1.92-.07.29-.17.55-.31.77-.14.23-.34.41-.58.55-.25.14-.54.21-.88.21-.67,0-1.15-.27-1.43-.8l-.03.72ZM53.35,95.83c0-.36-.08-.69-.24-.96-.16-.28-.4-.42-.74-.42-.35,0-.62.14-.8.43-.18.29-.27.62-.27.98s.09.69.26.97c.17.28.43.42.78.42.23,0,.42-.07.56-.22.15-.15.26-.33.33-.55.07-.22.1-.44.1-.65Z"/>
          <path d="M59.46,98.11h-1.25v-6.14h2.02c.4,0,.77.04,1.1.13.33.09.6.25.8.49.2.24.31.57.31,1,0,.39-.11.72-.33.97-.22.26-.53.41-.91.47.2.07.35.18.45.33.1.14.2.34.31.6l.89,2.14h-1.38l-.67-1.74c-.09-.25-.19-.43-.29-.54-.1-.11-.23-.18-.38-.22-.15-.03-.37-.05-.65-.05v2.55ZM59.46,94.61h.55c.32,0,.59-.07.79-.2.21-.13.31-.35.31-.65,0-.56-.33-.84-1-.84h-.66v1.69Z"/>
          <path d="M67.23,96.89l.02,1.02c-.48.21-1,.31-1.56.31-.37,0-.71-.05-1-.16-.29-.11-.54-.26-.75-.47-.21-.21-.36-.46-.47-.76-.11-.3-.16-.63-.16-1.01,0-.35.05-.67.15-.96.1-.29.25-.55.43-.76.19-.21.42-.38.7-.5.28-.12.59-.18.94-.18s.64.06.9.18c.26.12.47.29.64.51.16.22.29.47.37.75.08.28.12.59.12.93,0,.06,0,.1,0,.14,0,.03,0,.07,0,.11,0,.05,0,.1-.01.16h-3.07c.03.36.17.64.42.84.25.2.56.3.93.3.42,0,.89-.15,1.42-.46ZM66.43,95.39c0-.2-.04-.39-.11-.56-.07-.17-.17-.31-.31-.41-.14-.11-.31-.16-.52-.16s-.39.05-.55.16c-.15.1-.27.24-.35.41-.08.17-.13.36-.15.57h1.99Z"/>
          <path d="M71.55,93.56h1.12v4c0,.82-.19,1.45-.57,1.87-.38.42-.98.63-1.8.63-.53,0-1.07-.11-1.6-.32l.09-1.02c.24.12.48.21.7.28.23.07.45.1.69.1.26,0,.5-.06.72-.17.22-.11.39-.27.49-.49.07-.14.11-.3.13-.48.02-.17.03-.43.04-.76-.15.28-.36.5-.63.67-.27.16-.56.25-.88.25-.41,0-.75-.11-1.03-.33-.28-.22-.48-.5-.61-.86-.13-.35-.19-.73-.19-1.13s.07-.79.2-1.14c.13-.35.33-.64.61-.85s.63-.32,1.05-.32c.33,0,.62.07.87.2.25.13.44.34.58.62l.02-.73ZM71.5,95.78c0-.15-.02-.31-.07-.48-.05-.16-.11-.31-.2-.43-.09-.12-.2-.23-.33-.31-.14-.08-.29-.12-.45-.12-.34,0-.59.13-.75.4-.17.26-.25.57-.25.93s.08.67.25.96c.17.28.42.42.75.42.23,0,.43-.07.58-.2.16-.13.27-.31.35-.52.08-.21.12-.43.12-.65Z"/>
          <path d="M75.02,92.72h-1.21v-1.11h1.21v1.11ZM75,98.11h-1.18v-4.56h1.18v4.56Z"/>
          <path d="M80.66,95.87c0,.35-.06.67-.17.96-.11.29-.28.54-.48.75-.21.21-.46.36-.75.48-.29.11-.61.17-.97.17-.47,0-.88-.1-1.24-.31-.36-.2-.63-.49-.83-.86-.19-.37-.29-.79-.29-1.25s.1-.88.3-1.24.48-.64.83-.84c.36-.2.77-.3,1.23-.3.36,0,.69.06.98.18.29.12.54.29.75.51.21.22.36.48.47.78.11.3.16.62.16.97ZM79.44,95.84c0-.25-.04-.49-.12-.72-.08-.24-.21-.43-.38-.58-.17-.15-.39-.23-.64-.23s-.45.07-.63.22c-.18.15-.3.34-.39.57-.08.23-.13.47-.13.7,0,.25.04.5.12.74.08.24.21.43.38.58.17.15.39.23.66.23.19,0,.36-.05.5-.14.14-.09.26-.21.35-.35.09-.14.16-.3.2-.48.05-.18.07-.36.07-.54Z"/>
          <path d="M82.72,93.55l.03.73c.37-.53.88-.8,1.54-.8.61,0,1.02.18,1.24.54.21.36.32.87.32,1.52v2.57h-1.18v-2.29c0-.4-.05-.73-.16-.98-.1-.25-.33-.38-.67-.38-.37,0-.63.15-.78.44-.15.3-.22.65-.22,1.05v2.16h-1.19v-2.9c0-.64-.02-1.2-.05-1.66h1.12Z"/>
          <path d="M90.79,98.11h-1.05l-.02-.68c-.14.24-.34.43-.59.56-.25.13-.53.2-.82.2s-.57-.05-.81-.16c-.24-.1-.43-.26-.56-.48-.14-.21-.21-.47-.21-.78,0-.57.22-.96.67-1.17.45-.21.99-.31,1.63-.31.09,0,.15,0,.18,0,.03,0,.09,0,.18,0,.09,0,.19,0,.28.02,0-.34-.08-.59-.25-.76-.16-.16-.42-.25-.76-.25-.52,0-.99.17-1.41.5l-.04-1.03c.49-.21,1.02-.31,1.59-.31.21,0,.42.02.63.06s.4.11.58.21c.18.1.33.23.45.39.12.16.2.35.23.56.04.21.06.46.06.74s0,.6,0,.89c0,.3,0,.57,0,.82,0,.25.02.57.03.96ZM89.68,96.03s-.08,0-.14,0h-.14c-.26,0-.49.01-.71.04-.21.03-.4.1-.56.22-.16.12-.24.28-.24.51,0,.18.07.32.21.43.14.11.31.16.5.16.36,0,.63-.13.81-.4.18-.26.27-.58.27-.95Z"/>
          <path d="M93.11,98.11h-1.18v-6.63h1.18v6.63Z"/>
          <path d="M100.64,97.1v1h-3.64v-6.14h1.24v5.14h2.4Z"/>
          <path d="M102.59,92.72h-1.21v-1.11h1.21v1.11ZM102.57,98.11h-1.18v-4.56h1.18v4.56Z"/>
          <path d="M104.89,93.55l.03.69c.15-.24.35-.43.6-.56.25-.13.52-.2.81-.2.32,0,.58.07.79.2.21.13.38.34.5.61.15-.26.36-.46.61-.6.25-.14.53-.21.84-.21.57,0,.95.18,1.15.54.2.36.3.84.3,1.45v2.64h-1.18v-2.39c0-.37-.04-.67-.13-.91-.09-.24-.27-.36-.56-.36-.6,0-.9.52-.9,1.55v2.11h-1.18v-2.66c0-.26-.05-.5-.15-.69s-.28-.3-.53-.3c-.33,0-.56.14-.7.42-.14.28-.21.6-.21.96v2.28h-1.18v-3.44c0-.42-.01-.79-.04-1.11h1.12Z"/>
          <path d="M115.46,98.11h-1.05l-.02-.68c-.14.24-.34.43-.59.56-.25.13-.53.2-.83.2s-.57-.05-.81-.16c-.24-.1-.43-.26-.56-.48-.14-.21-.21-.47-.21-.78,0-.57.22-.96.67-1.17.45-.21.99-.31,1.63-.31.09,0,.15,0,.18,0,.03,0,.09,0,.18,0,.09,0,.19,0,.28.02,0-.34-.08-.59-.25-.76-.16-.16-.42-.25-.76-.25-.52,0-.99.17-1.41.5l-.04-1.03c.49-.21,1.02-.31,1.59-.31.21,0,.42.02.63.06.21.04.4.11.58.21s.33.23.44.39c.12.16.2.35.23.56.04.21.06.46.06.74s0,.6,0,.89c0,.3,0,.57,0,.82,0,.25.02.57.03.96ZM114.36,96.03s-.08,0-.14,0h-.14c-.26,0-.49.01-.71.04-.21.03-.4.1-.56.22-.16.12-.24.28-.24.51,0,.18.07.32.21.43.14.11.31.16.5.16.36,0,.63-.13.81-.4.18-.26.27-.58.27-.95Z"/>
        </g>
        <g>
          <path d="M42.96,86.34l.05,1.08c-.51.13-.98.2-1.4.2-.48,0-.92-.06-1.33-.19-.41-.13-.77-.32-1.08-.58-.31-.26-.55-.58-.71-.96-.17-.38-.25-.83-.25-1.33s.07-.95.22-1.34c.15-.4.37-.73.65-1,.29-.27.63-.48,1.03-.62.4-.14.85-.21,1.35-.21.44,0,.94.09,1.48.26l-.1,1.05c-.4-.22-.84-.33-1.32-.33-.4,0-.76.09-1.06.26-.31.17-.54.41-.7.72-.16.31-.24.66-.24,1.07s.09.79.26,1.12c.17.33.42.59.74.77.32.18.69.27,1.11.27s.84-.09,1.3-.26Z"/>
          <path d="M48.27,85.34c0,.35-.06.67-.17.96-.11.29-.28.54-.48.75-.21.21-.46.36-.75.48-.29.11-.61.17-.97.17-.47,0-.88-.1-1.24-.31-.36-.2-.63-.49-.83-.86-.19-.37-.29-.79-.29-1.25s.1-.88.3-1.24c.2-.36.48-.64.83-.84.36-.2.77-.3,1.23-.3.36,0,.69.06.98.18.29.12.54.29.75.51.21.22.36.48.47.78.11.3.16.62.16.97ZM47.05,85.32c0-.25-.04-.49-.12-.72-.08-.24-.21-.43-.38-.58-.17-.15-.39-.23-.64-.23s-.45.07-.63.22c-.18.15-.3.34-.39.57-.08.23-.13.47-.13.7,0,.25.04.5.12.74.08.24.21.43.38.58.17.15.39.23.66.23.19,0,.36-.05.5-.14.14-.09.26-.21.35-.35.09-.14.16-.3.2-.48.05-.18.07-.36.07-.54Z"/>
          <path d="M53.67,85.34c0,.35-.06.67-.17.96-.11.29-.27.54-.48.75-.21.21-.46.36-.75.48-.29.11-.61.17-.97.17-.47,0-.88-.1-1.24-.31-.36-.2-.63-.49-.83-.86-.19-.37-.29-.79-.29-1.25s.1-.88.3-1.24c.2-.36.48-.64.83-.84.36-.2.77-.3,1.23-.3.36,0,.69.06.98.18.29.12.54.29.75.51.21.22.36.48.47.78.11.3.16.62.16.97ZM52.45,85.32c0-.25-.04-.49-.12-.72-.08-.24-.21-.43-.38-.58-.17-.15-.39-.23-.64-.23s-.45.07-.63.22-.3.34-.39.57c-.08.23-.13.47-.13.7,0,.25.04.5.12.74.08.24.21.43.38.58.17.15.39.23.66.23.19,0,.36-.05.5-.14.14-.09.26-.21.35-.35.09-.14.16-.3.2-.48s.07-.36.07-.54Z"/>
          <path d="M55.84,89.45h-1.19v-5.1c0-.52-.02-.97-.04-1.34h1.14l.02.72c.35-.53.85-.79,1.49-.79.31,0,.58.06.82.19.23.13.42.3.58.51.15.22.26.46.34.74.07.28.11.56.11.86,0,.43-.06.83-.19,1.2-.13.36-.33.66-.62.88-.28.22-.65.33-1.08.33-.28,0-.55-.06-.8-.18-.25-.12-.44-.3-.58-.53.01.15.02.39.02.7v1.82ZM57.87,85.32c0-.24-.03-.47-.09-.67-.06-.21-.16-.38-.31-.51-.15-.13-.34-.2-.58-.2s-.43.07-.59.2-.27.31-.35.53c-.07.21-.11.44-.11.67,0,.38.08.7.24.98.16.27.42.41.78.41.23,0,.42-.07.57-.21.15-.14.26-.32.33-.53s.11-.44.11-.65Z"/>
          <path d="M63.7,86.37l.02,1.02c-.48.21-1,.31-1.56.31-.37,0-.71-.05-1-.16-.29-.11-.54-.26-.75-.47-.21-.21-.36-.46-.47-.76-.11-.3-.16-.63-.16-1.01,0-.35.05-.67.15-.96.1-.29.24-.55.43-.76.19-.21.42-.38.7-.5.28-.12.59-.18.94-.18s.64.06.9.18c.26.12.47.29.64.51.16.22.29.47.37.75.08.28.12.59.12.93,0,.06,0,.1,0,.14,0,.03,0,.07,0,.11,0,.04,0,.1-.01.16h-3.07c.03.36.17.64.42.84.25.2.56.3.93.3.42,0,.89-.15,1.42-.46ZM62.9,84.87c0-.2-.04-.39-.11-.56-.07-.17-.17-.31-.31-.41-.14-.11-.31-.16-.52-.16s-.39.05-.55.16c-.15.1-.27.24-.35.41-.08.17-.13.36-.15.57h1.99Z"/>
          <path d="M66.18,87.58h-1.18v-3.19c-.01-.76-.03-1.22-.04-1.37h1.07l.03,1.15c.1-.36.26-.65.47-.86.21-.22.48-.32.82-.32.1,0,.22.02.35.05v1.11c-.16-.04-.29-.06-.41-.06-.28,0-.5.07-.67.22-.16.15-.28.34-.34.56-.06.23-.09.48-.09.75v1.97Z"/>
          <path d="M72.22,87.58h-1.05l-.02-.68c-.14.24-.34.43-.59.56-.25.13-.53.2-.82.2s-.57-.05-.81-.16c-.24-.1-.43-.26-.56-.48-.14-.21-.21-.47-.21-.78,0-.57.22-.96.67-1.17.45-.21.99-.31,1.63-.31.09,0,.15,0,.18,0,.03,0,.09,0,.18,0,.09,0,.19,0,.28.02,0-.34-.08-.59-.25-.76-.16-.16-.42-.25-.76-.25-.52,0-.99.17-1.41.5l-.04-1.03c.49-.21,1.02-.31,1.59-.31.21,0,.42.02.63.06s.4.11.58.21c.18.1.33.23.45.39.12.16.2.35.23.55.04.21.06.46.06.74s0,.6,0,.89c0,.3,0,.57,0,.82,0,.25.02.57.03.96ZM71.11,85.51s-.08,0-.14,0h-.14c-.26,0-.49.01-.71.04-.21.03-.4.1-.56.22-.16.12-.24.28-.24.51,0,.18.07.32.21.43.14.11.31.16.5.16.36,0,.63-.13.81-.4.18-.26.27-.58.27-.95Z"/>
          <path d="M76.45,86.45l.07.99c-.4.12-.75.18-1.06.18-.35,0-.67-.05-.96-.16-.29-.11-.54-.26-.75-.46-.21-.2-.37-.45-.48-.74-.11-.29-.16-.61-.16-.97,0-.45.1-.85.29-1.2.19-.35.47-.62.82-.81.35-.19.75-.29,1.19-.29.33,0,.66.05,1,.15l-.09.95c-.27-.11-.51-.16-.73-.16-.25,0-.47.06-.66.18-.19.12-.34.28-.45.49-.1.2-.16.43-.16.68,0,.41.12.74.36.99.24.25.56.37.97.37.26,0,.52-.06.79-.18Z"/>
          <path d="M78.53,82.2h-1.21v-1.11h1.21v1.11ZM78.52,87.58h-1.18v-4.56h1.18v4.56Z"/>
          <path d="M84.18,85.34c0,.35-.06.67-.17.96-.11.29-.28.54-.48.75-.21.21-.46.36-.75.48-.29.11-.61.17-.97.17-.47,0-.88-.1-1.24-.31-.36-.2-.63-.49-.83-.86-.19-.37-.29-.79-.29-1.25s.1-.88.3-1.24c.2-.36.48-.64.83-.84.36-.2.77-.3,1.23-.3.36,0,.69.06.98.18.29.12.54.29.75.51.21.22.36.48.47.78.11.3.16.62.16.97ZM82.95,85.32c0-.25-.04-.49-.12-.72-.08-.24-.21-.43-.38-.58-.17-.15-.39-.23-.64-.23s-.45.07-.63.22-.3.34-.39.57c-.08.23-.13.47-.13.7,0,.25.04.5.12.74.08.24.21.43.38.58.17.15.39.23.66.23.19,0,.36-.05.5-.14.14-.09.26-.21.35-.35.09-.14.16-.3.2-.48s.07-.36.07-.54ZM81.97,82.32h-.7l.74-1.29h1.21l-1.25,1.29Z"/>
          <path d="M86.23,83.02l.03.73c.37-.53.88-.8,1.54-.8.61,0,1.02.18,1.24.54.21.36.32.87.32,1.52v2.57h-1.18v-2.29c0-.4-.05-.73-.16-.98-.1-.25-.33-.38-.67-.38-.37,0-.63.15-.78.44-.15.3-.22.65-.22,1.05v2.16h-1.19v-2.9c0-.64-.02-1.2-.05-1.66h1.12Z"/>
          <path d="M94.5,87.58h-1.24v-6.14h1.24v6.14Z"/>
          <path d="M97.01,83.02l.03.73c.37-.53.88-.8,1.54-.8.61,0,1.02.18,1.24.54.21.36.32.87.32,1.52v2.57h-1.18v-2.29c0-.4-.05-.73-.16-.98-.1-.25-.33-.38-.67-.38-.37,0-.63.15-.78.44-.15.3-.22.65-.22,1.05v2.16h-1.19v-2.9c0-.64-.02-1.2-.04-1.66h1.12Z"/>
          <path d="M103.83,86.61l.04.92c-.3.06-.56.09-.8.09-.39,0-.69-.07-.92-.21-.22-.14-.38-.34-.47-.61-.09-.26-.14-.58-.14-.96v-1.91h-.86v-.88h.88v-.93l1.18-.39v1.31h1.04v.88h-1.04v1.66c0,.35.04.62.12.81.08.18.26.28.56.28.11,0,.25-.02.4-.06Z"/>
          <path d="M108.34,86.37l.02,1.02c-.48.21-1,.31-1.56.31-.37,0-.71-.05-1-.16s-.54-.26-.75-.47c-.21-.21-.36-.46-.47-.76-.11-.3-.16-.63-.16-1.01,0-.35.05-.67.15-.96.1-.29.24-.55.43-.76.19-.21.42-.38.7-.5.28-.12.59-.18.94-.18s.64.06.9.18c.26.12.47.29.64.51.16.22.29.47.37.75.08.28.12.59.12.93,0,.06,0,.1,0,.14,0,.03,0,.07,0,.11,0,.04,0,.1-.01.16h-3.07c.03.36.17.64.42.84.25.2.56.3.93.3.42,0,.89-.15,1.42-.46ZM107.54,84.87c0-.2-.04-.39-.11-.56s-.17-.31-.31-.41c-.14-.11-.31-.16-.52-.16s-.39.05-.55.16c-.15.1-.27.24-.35.41-.08.17-.13.36-.15.57h1.99Z"/>
          <path d="M110.82,87.58h-1.18v-3.19c-.02-.76-.03-1.22-.04-1.37h1.07l.03,1.15c.1-.36.26-.65.47-.86.21-.22.48-.32.82-.32.1,0,.22.02.35.05v1.11c-.16-.04-.29-.06-.41-.06-.28,0-.5.07-.67.22-.16.15-.28.34-.34.56-.06.23-.09.48-.09.75v1.97Z"/>
          <path d="M114.18,83.02l.03.73c.37-.53.88-.8,1.54-.8.61,0,1.02.18,1.24.54s.32.87.32,1.52v2.57h-1.18v-2.29c0-.4-.05-.73-.16-.98-.1-.25-.33-.38-.67-.38-.37,0-.63.15-.78.44-.15.3-.23.65-.23,1.05v2.16h-1.19v-2.9c0-.64-.01-1.2-.04-1.66h1.12Z"/>
          <path d="M122.25,87.58h-1.05l-.02-.68c-.14.24-.34.43-.59.56-.25.13-.53.2-.83.2s-.57-.05-.81-.16c-.24-.1-.43-.26-.56-.48-.14-.21-.21-.47-.21-.78,0-.57.22-.96.67-1.17.45-.21.99-.31,1.63-.31.09,0,.15,0,.18,0,.03,0,.09,0,.18,0,.09,0,.19,0,.28.02,0-.34-.08-.59-.25-.76-.16-.16-.42-.25-.76-.25-.52,0-.99.17-1.41.5l-.04-1.03c.49-.21,1.02-.31,1.59-.31.21,0,.42.02.63.06.21.04.4.11.58.21s.33.23.44.39c.12.16.2.35.23.55.04.21.06.46.06.74s0,.6,0,.89c0,.3,0,.57,0,.82,0,.25.02.57.03.96ZM121.14,85.51s-.08,0-.14,0h-.14c-.26,0-.49.01-.71.04-.21.03-.4.1-.56.22-.16.12-.24.28-.24.51,0,.18.07.32.21.43.14.11.31.16.5.16.36,0,.63-.13.81-.4.18-.26.27-.58.27-.95Z"/>
          <path d="M126.48,86.45l.07.99c-.4.12-.75.18-1.06.18-.35,0-.67-.05-.96-.16-.29-.11-.54-.26-.75-.46-.21-.2-.37-.45-.48-.74-.11-.29-.16-.61-.16-.97,0-.45.1-.85.29-1.2.19-.35.47-.62.82-.81.35-.19.75-.29,1.19-.29.33,0,.66.05,1,.15l-.09.95c-.27-.11-.51-.16-.73-.16-.25,0-.47.06-.66.18-.19.12-.34.28-.45.49-.1.2-.16.43-.16.68,0,.41.12.74.36.99.24.25.56.37.97.37.26,0,.52-.06.79-.18Z"/>
          <path d="M128.57,82.2h-1.21v-1.11h1.21v1.11ZM128.55,87.58h-1.18v-4.56h1.18v4.56Z"/>
          <path d="M134.21,85.34c0,.35-.06.67-.17.96-.11.29-.27.54-.48.75-.21.21-.46.36-.75.48-.29.11-.61.17-.97.17-.47,0-.88-.1-1.24-.31-.36-.2-.63-.49-.83-.86-.19-.37-.29-.79-.29-1.25s.1-.88.3-1.24c.2-.36.48-.64.83-.84s.77-.3,1.23-.3c.36,0,.69.06.98.18.29.12.54.29.75.51.21.22.36.48.47.78.11.3.16.62.16.97ZM132.99,85.32c0-.25-.04-.49-.12-.72-.08-.24-.21-.43-.38-.58s-.39-.23-.64-.23-.45.07-.63.22-.3.34-.39.57c-.08.23-.13.47-.13.7,0,.25.04.5.12.74.08.24.21.43.38.58.17.15.39.23.66.23.19,0,.36-.05.5-.14.14-.09.26-.21.35-.35.09-.14.16-.3.2-.48s.07-.36.07-.54Z"/>
          <path d="M136.26,83.02l.03.73c.37-.53.88-.8,1.54-.8.61,0,1.02.18,1.24.54s.32.87.32,1.52v2.57h-1.18v-2.29c0-.4-.05-.73-.16-.98-.1-.25-.33-.38-.67-.38-.37,0-.63.15-.78.44-.15.3-.23.65-.23,1.05v2.16h-1.19v-2.9c0-.64-.01-1.2-.04-1.66h1.12Z"/>
          <path d="M144.34,87.58h-1.05l-.02-.68c-.14.24-.34.43-.59.56-.25.13-.53.2-.83.2s-.57-.05-.81-.16c-.24-.1-.43-.26-.56-.48-.14-.21-.21-.47-.21-.78,0-.57.22-.96.67-1.17.45-.21.99-.31,1.63-.31.09,0,.15,0,.18,0,.03,0,.09,0,.18,0,.09,0,.19,0,.28.02,0-.34-.08-.59-.25-.76s-.42-.25-.76-.25c-.52,0-.99.17-1.41.5l-.04-1.03c.49-.21,1.02-.31,1.59-.31.21,0,.42.02.63.06.21.04.4.11.58.21s.33.23.44.39c.12.16.2.35.23.55.04.21.06.46.06.74s0,.6,0,.89c0,.3,0,.57,0,.82,0,.25.02.57.03.96ZM143.23,85.51s-.08,0-.14,0h-.14c-.26,0-.49.01-.71.04-.21.03-.4.1-.56.22-.16.12-.24.28-.24.51,0,.18.07.32.21.43.14.11.31.16.5.16.36,0,.63-.13.81-.4.18-.26.27-.58.27-.95Z"/>
          <path d="M146.66,87.58h-1.18v-6.63h1.18v6.63Z"/>
          <path d="M152.06,85.77h-2.25v-.99h2.25v.99Z"/>
          <path d="M159.79,86.34l.05,1.08c-.51.13-.98.2-1.4.2-.48,0-.92-.06-1.33-.19-.41-.13-.77-.32-1.08-.58-.31-.26-.55-.58-.72-.96-.17-.38-.25-.83-.25-1.33s.07-.95.22-1.34c.15-.4.37-.73.65-1,.29-.27.63-.48,1.03-.62.4-.14.85-.21,1.35-.21.44,0,.94.09,1.48.26l-.1,1.05c-.4-.22-.84-.33-1.32-.33-.4,0-.76.09-1.06.26-.31.17-.54.41-.7.72-.16.31-.25.66-.25,1.07s.09.79.26,1.12c.17.33.42.59.74.77.32.18.69.27,1.11.27s.84-.09,1.3-.26Z"/>
          <path d="M166.49,84.55c0,.61-.12,1.16-.36,1.64-.24.48-.58.86-1.04,1.13-.45.27-.99.4-1.6.4s-1.18-.14-1.63-.4c-.46-.27-.8-.65-1.03-1.13-.23-.49-.35-1.05-.35-1.67s.12-1.19.35-1.67c.23-.48.58-.86,1.03-1.13s1-.4,1.63-.4c.48,0,.91.08,1.29.24.38.16.69.38.94.67.25.29.44.63.57,1.02.13.39.19.83.19,1.3ZM165.17,84.53c0-.27-.03-.53-.1-.8-.07-.27-.17-.51-.31-.73-.14-.22-.32-.4-.53-.53s-.46-.2-.75-.2c-.38,0-.69.11-.95.34-.25.22-.44.51-.56.86-.12.35-.18.71-.18,1.07s.06.72.18,1.06c.12.35.31.63.56.85.26.22.57.33.95.33.28,0,.53-.07.74-.2.21-.13.39-.31.53-.53.14-.22.24-.46.31-.73.07-.26.1-.53.1-.79Z"/>
          <path d="M167.57,87.44l.11-1.1c.49.26.95.4,1.39.4.29,0,.53-.07.75-.21.21-.14.32-.35.32-.62s-.09-.47-.27-.59c-.18-.12-.51-.28-.99-.48-.48-.21-.83-.43-1.07-.69-.24-.25-.36-.62-.36-1.09,0-.39.1-.72.3-.98s.46-.46.79-.58c.33-.12.69-.19,1.07-.19.52,0,1.01.08,1.47.24l-.1,1.01c-.45-.2-.87-.31-1.27-.31-.26,0-.49.06-.69.18-.2.12-.29.3-.29.56s.07.41.22.5c.15.09.48.25,1,.48.52.23.9.47,1.15.73.25.26.37.62.37,1.09,0,.33-.06.62-.18.86-.12.24-.29.44-.51.6-.22.16-.47.27-.75.35s-.58.11-.89.11c-.5,0-1.02-.09-1.56-.28Z"/>
          <path d="M176.47,81.45h1.2v3.72c0,.56-.09,1.03-.26,1.41-.17.38-.44.66-.81.86-.37.19-.83.29-1.41.29s-1.05-.09-1.43-.28c-.38-.18-.66-.47-.84-.85-.18-.38-.27-.86-.27-1.44v-3.71h1.24v3.6c0,.51.1.92.29,1.23.19.31.54.46,1.02.46.34,0,.6-.08.78-.24.19-.16.31-.37.38-.63.07-.26.1-.55.1-.87v-3.55Z"/>
          <path d="M179.14,87.58v-6.14h1.4c.38,0,.72.01,1.02.04.3.02.6.08.9.17.3.09.57.22.81.39.2.14.38.3.52.49.14.19.26.39.34.59.08.21.14.43.18.67.04.24.06.49.06.74,0,.52-.09.99-.27,1.43-.18.43-.46.79-.85,1.07-.2.15-.43.27-.69.35-.26.08-.52.14-.8.17-.27.03-.56.04-.86.04h-1.78ZM180.38,86.63c.07,0,.13,0,.17,0,.04,0,.09,0,.14,0,.36,0,.69-.04.98-.13.29-.09.53-.22.74-.4.21-.18.36-.4.47-.67s.17-.59.17-.96-.08-.71-.24-1.03c-.16-.32-.39-.57-.68-.74-.12-.07-.25-.13-.39-.17-.14-.04-.28-.07-.43-.09-.15-.02-.32-.03-.5-.04-.18,0-.33,0-.42,0v4.23Z"/>
          <path d="M189.22,86.58v1h-3.67v-6.14h3.64v1.01h-2.4v1.48h2.19v1h-2.19v1.64h2.43Z"/>
        </g>
      </g>
    </g>
  </g>
</svg>