<?xml version="1.0" encoding="UTF-8"?>
<svg id="Layer_2" xmlns="http://www.w3.org/2000/svg" version="1.1" viewBox="0 0 149.6 100.1">
  <!-- Generator: Adobe Illustrator 29.4.0, SVG Export Plug-In . SVG Version: 2.1.0 Build 152)  -->
  <defs>
    <style>
      .st0 {
        fill: none;
      }

      .st1 {
        fill: #ffcf00;
      }

      .st2 {
        fill: #212121;
      }

      .st3 {
        fill: #3d3d3d;
      }

      .st4 {
        fill: #00cf00;
      }

      .st5 {
        fill: red;
      }

      .st6 {
        fill: #173dff;
      }
    </style>
  </defs>
  <g id="Layer_1-2">
    <rect class="st0" y="14.1" width="150" height="67.8"/>
    <g>
      <polygon class="st2" points="3.7 39.4 3.7 36.6 2.6 38.8 2.2 38.8 1 36.6 1 39.4 .4 39.4 .4 35.5 1.1 35.5 2.4 37.9 3.7 35.5 4.4 35.5 4.4 39.4 3.7 39.4"/>
      <rect class="st2" x="6.4" y="35.5" width=".6" height="4"/>
      <polygon class="st2" points="9.6 36.6 9.6 39.4 9 39.4 9 35.5 9.5 35.5 11.8 38.3 11.8 35.5 12.4 35.5 12.4 39.4 11.8 39.4 9.6 36.6"/>
      <rect class="st2" x="14.4" y="35.5" width=".6" height="4"/>
      <path class="st2" d="M19.4,36.4c0,0-.2-.2-.4-.3-.2,0-.4-.1-.6-.1s-.4,0-.6.1-.2.2-.2.4,0,.1,0,.1c0,0,0,0,0,.1s0,0,.1,0c0,0,0,0,.1,0,0,0,.1,0,.2,0,0,0,.1,0,.2,0,0,0,.2,0,.3,0,.2,0,.3,0,.4.1s.2,0,.4.2c.1,0,.2.1.3.2s.1.2.2.3,0,.2,0,.4,0,.3,0,.4c0,.1-.1.2-.2.3,0,0-.2.2-.3.2-.1,0-.3.1-.4.1-.1,0-.3,0-.5,0-.3,0-.6,0-.9-.1-.3,0-.5-.2-.8-.4l.3-.5c.1.1.3.2.6.3.3.1.5.2.8.2s.4,0,.6-.1c.1,0,.2-.2.2-.4s0-.1,0-.2c0,0,0-.1-.1-.1,0,0-.1,0-.1-.1,0,0-.1,0-.2,0,0,0-.2,0-.3,0,0,0-.2,0-.3,0-.2,0-.4-.1-.5-.2s-.3-.1-.4-.2c-.1,0-.2-.2-.2-.3,0-.1,0-.2,0-.4s0-.4.1-.5.2-.3.3-.4.3-.2.5-.2c.2,0,.4,0,.6,0,.5,0,.9.1,1.3.4l-.3.5h0Z"/>
      <polygon class="st2" points="24.5 36 23.2 36 23.2 39.4 22.5 39.4 22.5 36 21.2 36 21.2 35.5 24.5 35.5 24.5 36"/>
      <path class="st2" d="M27.7,35.1h-.4c0-.1.3-.7.3-.7h.6l-.5.7ZM28.8,38.9v.6h-2.7v-4h2.7v.6h-2v1.1h1.8v.5h-1.8v1.2h2.1Z"/>
      <path class="st2" d="M31.2,37.5h1.1c.2,0,.3,0,.4-.2.1-.1.2-.3.2-.5s0-.4-.2-.5-.3-.2-.4-.2h-1.1v1.5h0ZM30.6,39.4v-4h1.7c.2,0,.3,0,.5.1.2,0,.3.2.4.3.1.1.2.3.3.4s0,.3,0,.5c0,.3,0,.5-.2.7-.1.2-.3.4-.6.4l.9,1.5h-.7l-.9-1.4h-.9v1.4h-.6,0Z"/>
      <rect class="st2" x="35.4" y="35.5" width=".6" height="4"/>
      <path class="st2" d="M39.7,38.9c.2,0,.4,0,.5-.1.2,0,.3-.2.4-.3.1-.1.2-.3.2-.5s0-.3,0-.5,0-.4,0-.5-.1-.3-.3-.5c-.1-.1-.2-.2-.4-.3-.2,0-.3-.1-.5-.1s-.4,0-.5.1-.3.2-.4.3c-.1.1-.2.3-.2.5,0,.2,0,.3,0,.5,0,.3,0,.5.1.7s.3.4.4.5.4.2.7.2M37.8,37.5c0-.3,0-.5.1-.8s.2-.5.4-.6.4-.3.6-.4c.2-.1.5-.2.8-.2s.5,0,.8.2.4.3.6.5c.2.2.3.4.4.7,0,.2.1.5.1.7s0,.5-.1.8-.2.5-.4.6-.4.3-.6.4-.5.2-.8.2-.4,0-.6-.1c-.2,0-.4-.2-.5-.3-.1-.1-.3-.3-.4-.4-.1-.2-.2-.4-.3-.5s0-.4,0-.6"/>
      <path class="st2" d="M47.2,36h-.8v2.9h.8c.3,0,.5,0,.7-.2.2-.1.3-.3.4-.5,0-.2.1-.5.1-.7,0-.4-.1-.8-.3-1-.2-.3-.5-.4-1-.4M45.8,39.4v-4h1.4c.3,0,.6,0,.8.2.3.1.5.2.6.4.2.2.3.4.4.6,0,.2.1.5.1.8,0,.6-.2,1.1-.5,1.4-.3.4-.8.5-1.4.5h-1.4Z"/>
      <path class="st2" d="M52.9,37.9l-.6-1.7-.7,1.7h1.3ZM52,35.5h.6l1.5,4h-.7l-.4-1.1h-1.5l-.4,1.1h-.7l1.6-4h0Z"/>
      <path class="st2" d="M33.9,44.6s0,0,0,0c0,0,0,0-.2,0,0,0-.2,0-.2-.1s-.2,0-.3,0-.2,0-.3,0c-.2,0-.3,0-.3.2s0,0,0,0c0,0,0,0,0,0,0,0,0,0,0,0,0,0,0,0,.1,0s0,0,.1,0c0,0,0,0,.2,0,0,0,.1,0,.2,0,.2,0,.3,0,.4.1s.2.1.3.2c.1,0,.2.1.3.2,0,0,.1.2.1.3,0,.1,0,.3,0,.4s0,.4,0,.5c0,.1-.1.3-.2.4,0,0-.2.2-.3.2-.1,0-.3.1-.4.1-.1,0-.3,0-.4,0-.3,0-.6,0-.9-.1s-.6-.2-.8-.3l.5-1s0,0,0,0,.1,0,.2.1c.1,0,.2,0,.3.1,0,0,.2,0,.3.1.1,0,.3,0,.4,0,.2,0,.3,0,.3-.2s0,0,0-.1,0,0-.1,0-.1,0-.2,0c0,0-.1,0-.3,0s-.2,0-.3,0c-.4-.1-.6-.3-.8-.4-.2-.2-.2-.4-.2-.7s0-.4.1-.6c0-.2.2-.3.3-.4s.3-.2.5-.3c.2,0,.4,0,.6,0,.4,0,.9.1,1.5.4l-.5.9h0Z"/>
      <path class="st2" d="M37.8,45.8l-.4-1.4-.4,1.4h.7ZM36.8,43.3h1.2l1.3,4h-1.1l-.2-.8h-1.1l-.2.8h-1.1l1.3-4h0Z"/>
      <path class="st2" d="M42.7,43.1l-.7-.2.3-.8h.9s-.5,1-.5,1ZM42.3,47.3c-.3,0-.5,0-.7-.1-.2,0-.4-.2-.5-.3-.1-.1-.3-.3-.3-.4,0-.2-.2-.3-.2-.5,0-.2,0-.4,0-.6v-2h1.1v2c0,.1,0,.3,0,.4,0,.1,0,.2.1.3,0,0,.1.2.2.2,0,0,.2,0,.3,0s.2,0,.3,0c0,0,.2-.1.2-.2,0,0,0-.2.1-.3,0-.1,0-.2,0-.4v-2h1.1v2c0,.3,0,.5-.1.8,0,.2-.2.4-.3.6-.1.2-.3.3-.6.4-.2.1-.5.1-.8.1"/>
      <path class="st2" d="M47.4,44.3h-.4v2.1h.4c.3,0,.5-.1.7-.3.2-.2.2-.4.2-.8s0-.6-.2-.7-.4-.3-.7-.3M45.9,47.3v-4h1.5c.3,0,.6,0,.9.1s.5.2.6.4.3.4.4.6c0,.2.1.5.1.8,0,.6-.2,1.1-.5,1.4s-.8.5-1.5.5h-1.5,0Z"/>
      <polygon class="st2" points="53.8 46.3 53.8 47.3 51 47.3 51 43.3 53.7 43.3 53.7 44.3 52.1 44.3 52.1 44.8 53.5 44.8 53.5 45.7 52.1 45.7 52.1 46.3 53.8 46.3"/>
      <path d="M77.4,59.6c-.2,0-.3,0-.5,0s-.3-.1-.4-.2-.2-.2-.2-.3-.1-.3-.1-.4c0-.1,0-.3,0-.4v-1.5h.5v1.5c0,.1,0,.2,0,.3,0,.1,0,.2,0,.3,0,0,0,.2.1.2,0,0,.1.1.2.2,0,0,.2,0,.3,0s.2,0,.3,0,.2,0,.2-.2c0,0,.1-.1.1-.2s0-.2,0-.3c0-.1,0-.2,0-.3v-1.5h.5v1.5c0,.2,0,.4,0,.6s-.1.3-.2.5c-.1.1-.2.2-.4.3-.2,0-.4.1-.6.1"/>
      <polygon points="80.6 57.5 80.6 59.5 80.1 59.5 80.1 56.6 80.5 56.6 82.2 58.7 82.2 56.6 82.6 56.6 82.6 59.5 82.2 59.5 80.6 57.5"/>
      <rect x="84.1" y="56.6" width=".5" height="2.9"/>
      <path d="M87.6,58.4l-.5-1.3-.5,1.3h1ZM86.9,56.1s0,0-.1,0c0,0,0,0,0,0,0,0,0,0,0,0h0s-.3,0-.3,0c0,0,0,0,0,0s0,0,0-.1,0,0,0-.1c0,0,0,0,.1-.1,0,0,.1,0,.2,0s.1,0,.2,0c0,0,.1,0,.2,0,0,0,.1,0,.2,0s0,0,.1,0c0,0,0,0,0,0,0,0,0,0,0,0,0,0,0,0,0,0h0s.3,0,.3,0c0,0,0,0,0,0,0,0,0,0,0,.1,0,0,0,0,0,.1,0,0,0,0-.1.1,0,0-.1,0-.2,0s-.1,0-.2,0c0,0-.1,0-.2,0s-.1,0-.2,0M86.9,56.6h.4l1.1,2.9h-.5l-.3-.8h-1.1l-.3.8h-.5l1.2-2.9h0Z"/>
      <path d="M90.8,59.1c.1,0,.3,0,.4,0,.1,0,.2-.1.3-.2,0-.1.1-.2.2-.3s0-.3,0-.4,0-.3,0-.4c0-.1-.1-.2-.2-.3,0-.1-.2-.2-.3-.2-.1,0-.2,0-.4,0s-.3,0-.4,0c-.1,0-.2.1-.3.2,0,.1-.1.2-.2.3,0,.1,0,.3,0,.4,0,.2,0,.4.1.5,0,.2.2.3.3.4s.3.2.5.2M89.4,58.1c0-.2,0-.4.1-.6,0-.2.2-.3.3-.5s.3-.2.4-.3c.2,0,.4-.1.6-.1s.4,0,.6.1c.2,0,.3.2.4.3.1.1.2.3.3.5,0,.2.1.4.1.5s0,.4-.1.6-.2.3-.3.5-.3.2-.4.3c-.2,0-.4.1-.6.1s-.3,0-.5,0-.3-.1-.4-.2c-.1,0-.2-.2-.3-.3,0-.1-.1-.3-.2-.4,0-.1,0-.3,0-.4"/>
      <polygon points="97.3 59.1 97.3 59.5 95.3 59.5 95.3 56.6 97.3 56.6 97.3 57 95.8 57 95.8 57.9 97.1 57.9 97.1 58.2 95.8 58.2 95.8 59.1 97.3 59.1"/>
      <path d="M100.9,58.1h.8c.1,0,.2,0,.3-.2,0-.1.1-.2.1-.4s0-.3-.1-.4c0-.1-.2-.2-.3-.2h-.8v1.1h0ZM100.5,59.5v-2.9h1.3c.1,0,.3,0,.4,0,.1,0,.2.1.3.2s.1.2.2.3c0,.1,0,.2,0,.3,0,.2,0,.4-.2.5-.1.2-.2.3-.4.3l.7,1.1h-.5l-.6-1h-.7v1h-.5Z"/>
      <polygon points="106 59.1 106 59.5 104 59.5 104 56.6 106 56.6 106 57 104.5 57 104.5 57.9 105.8 57.9 105.8 58.2 104.5 58.2 104.5 59.1 106 59.1"/>
      <path d="M108.5,56.6c.3,0,.5,0,.7.2s.3.3.4.5l-.4.2c0,0,0-.2-.1-.2,0,0-.1-.1-.2-.1,0,0-.1,0-.2,0,0,0-.1,0-.2,0-.1,0-.2,0-.3,0-.1,0-.2,0-.3.2,0,0-.1.1-.2.2,0,0,0,.2-.1.3,0,.1,0,.2,0,.3,0,.2,0,.4.1.5s.2.3.3.4c.1.1.3.1.5.1s.2,0,.3,0c0,0,.2,0,.3-.2,0,0,.2-.2.2-.3l.4.2c0,.1-.1.3-.3.4-.1.1-.3.2-.4.2-.2,0-.3,0-.5,0s-.4,0-.6-.1c-.2,0-.3-.2-.4-.3-.1-.1-.2-.3-.3-.5,0-.2-.1-.4-.1-.5s0-.3,0-.4c0-.1.1-.3.2-.4,0-.1.2-.2.3-.3.1,0,.2-.2.4-.2.1,0,.3,0,.5,0"/>
      <path d="M112.1,59.1c.1,0,.3,0,.4,0,.1,0,.2-.1.3-.2,0-.1.1-.2.2-.3,0-.1,0-.3,0-.4s0-.3,0-.4c0-.1-.1-.2-.2-.3,0-.1-.2-.2-.3-.2-.1,0-.2,0-.4,0s-.3,0-.4,0c-.1,0-.2.1-.3.2s-.1.2-.2.3c0,.1,0,.3,0,.4,0,.2,0,.4.1.5s.2.3.3.4c.1.1.3.2.5.2M110.7,58.1c0-.2,0-.4.1-.6,0-.2.2-.3.3-.5s.3-.2.4-.3c.2,0,.4-.1.6-.1s.4,0,.6.1c.2,0,.3.2.4.3.1.1.2.3.3.5,0,.2.1.4.1.5s0,.4-.1.6-.2.3-.3.5-.3.2-.4.3c-.2,0-.4.1-.6.1s-.3,0-.5,0-.3-.1-.4-.2-.2-.2-.3-.3c0-.1-.1-.3-.2-.4,0-.1,0-.3,0-.4"/>
      <polygon points="115.3 57.5 115.3 59.5 114.8 59.5 114.8 56.6 115.2 56.6 116.9 58.7 116.9 56.6 117.3 56.6 117.3 59.5 116.9 59.5 115.3 57.5"/>
      <path d="M120.6,57.3c0,0-.2-.1-.3-.2-.1,0-.3,0-.5,0s-.3,0-.4.1c0,0-.1.2-.1.3s0,0,0,.1c0,0,0,0,0,0s0,0,0,0c0,0,0,0,.1,0,0,0,0,0,.1,0s.1,0,.2,0c0,0,.1,0,.2,0,.1,0,.2,0,.3,0,0,0,.2,0,.3.1,0,0,.2.1.2.2s0,.1.1.2c0,0,0,.2,0,.3s0,.2,0,.3c0,0,0,.2-.2.2,0,0-.1.1-.2.2,0,0-.2,0-.3,0-.1,0-.2,0-.3,0-.2,0-.4,0-.6-.1-.2,0-.4-.2-.6-.3l.2-.4c0,0,.2.2.4.3s.4.1.6.1.3,0,.4,0c.1,0,.1-.2.1-.3s0,0,0-.1c0,0,0,0,0-.1,0,0,0,0-.1,0,0,0,0,0-.2,0,0,0-.1,0-.2,0,0,0-.1,0-.2,0-.2,0-.3,0-.4-.1-.1,0-.2,0-.3-.1,0,0-.1-.1-.2-.2s0-.2,0-.3,0-.3,0-.4c0-.1.1-.2.2-.3s.2-.1.3-.2.3,0,.4,0c.4,0,.7.1,1,.3l-.2.4h0Z"/>
      <polygon points="124.3 57 123.3 57 123.3 59.5 122.9 59.5 122.9 57 121.9 57 121.9 56.6 124.3 56.6 124.3 57"/>
      <path d="M126,58.1h.8c.1,0,.2,0,.3-.2,0-.1.1-.2.1-.4s0-.3-.1-.4c0-.1-.2-.2-.3-.2h-.8v1.1h0ZM125.5,59.5v-2.9h1.3c.1,0,.3,0,.4,0,.1,0,.2.1.3.2s.1.2.2.3c0,.1,0,.2,0,.3,0,.2,0,.4-.2.5-.1.2-.2.3-.4.3l.7,1.1h-.5l-.6-1h-.7v1h-.5Z"/>
      <path d="M130.3,59.6c-.2,0-.3,0-.5,0s-.3-.1-.4-.2-.2-.2-.2-.3c0-.1-.1-.3-.1-.4s0-.3,0-.4v-1.5h.5v1.5c0,.1,0,.2,0,.3,0,.1,0,.2,0,.3,0,0,0,.2.1.2s.1.1.2.2c0,0,.2,0,.3,0s.2,0,.3,0,.2,0,.2-.2c0,0,.1-.1.1-.2s0-.2,0-.3c0-.1,0-.2,0-.3v-1.5h.5v1.5c0,.2,0,.4,0,.6s-.1.3-.2.5c-.1.1-.2.2-.4.3s-.4.1-.6.1"/>
      <path d="M135.4,58.9c0,.2-.2.3-.4.4-.2.1-.4.2-.6.2.1.1.2.3.2.4s0,.2-.1.3-.2.1-.3.1-.3,0-.5-.1v-.2c.2,0,.3,0,.4,0s.1,0,.2,0c0,0,0,0,0-.1,0-.1,0-.2-.2-.3-.2,0-.4,0-.5-.2-.2,0-.3-.2-.4-.4-.1-.1-.2-.3-.3-.5,0-.2,0-.3,0-.5s0-.3,0-.4c0-.1.1-.3.2-.4,0-.1.2-.2.3-.3.1,0,.2-.2.4-.2.2,0,.3,0,.5,0,.3,0,.5,0,.7.2s.3.3.4.5l-.4.2c0,0,0-.2-.1-.2,0,0-.1-.1-.2-.1,0,0-.1,0-.2,0,0,0-.1,0-.2,0-.1,0-.2,0-.3,0-.1,0-.2,0-.3.2,0,0-.1.1-.2.2,0,0,0,.2-.1.3,0,.1,0,.2,0,.3,0,.2,0,.4.1.5s.2.3.3.4c.1.1.3.1.5.1s.2,0,.3,0c0,0,.2,0,.3-.2,0,0,.2-.2.2-.3l.4.2h0Z"/>
      <path d="M138.1,58.4l-.5-1.3-.5,1.3h1ZM137.4,56.1s0,0-.1,0c0,0,0,0,0,0,0,0,0,0,0,0h0s-.3,0-.3,0c0,0,0,0,0,0,0,0,0,0,0-.1,0,0,0,0,0-.1,0,0,0,0,.1-.1s.1,0,.2,0,.1,0,.2,0c0,0,.1,0,.2,0,0,0,.1,0,.2,0s0,0,.1,0c0,0,0,0,0,0,0,0,0,0,0,0,0,0,0,0,0,0h0s.3,0,.3,0c0,0,0,0,0,0,0,0,0,0,0,.1,0,0,0,0,0,.1,0,0,0,0-.1.1,0,0-.1,0-.2,0s-.1,0-.2,0-.1,0-.2,0-.1,0-.2,0M137.5,56.6h.4l1.1,2.9h-.5l-.3-.8h-1.1l-.3.8h-.5l1.1-2.9h0Z"/>
      <path d="M141.3,59.1c.1,0,.3,0,.4,0,.1,0,.2-.1.3-.2,0-.1.1-.2.2-.3s0-.3,0-.4,0-.3,0-.4c0-.1-.1-.2-.2-.3,0-.1-.2-.2-.3-.2-.1,0-.2,0-.4,0s-.3,0-.4,0c-.1,0-.2.1-.3.2s-.1.2-.2.3c0,.1,0,.3,0,.4,0,.2,0,.4.1.5s.2.3.3.4c.1.1.3.2.5.2M139.9,58.1c0-.2,0-.4.1-.6,0-.2.2-.3.3-.5s.3-.2.4-.3c.2,0,.4-.1.6-.1s.4,0,.6.1c.2,0,.3.2.4.3.1.1.2.3.3.5,0,.2.1.4.1.5s0,.4-.1.6c0,.2-.2.3-.3.5s-.3.2-.4.3c-.2,0-.4.1-.6.1s-.3,0-.5,0-.3-.1-.4-.2c-.1,0-.2-.2-.3-.3,0-.1-.1-.3-.2-.4,0-.1,0-.3,0-.4"/>
      <polygon class="st4" points="91.9 44.3 84.1 44.3 84.1 52.1 96.9 52.1 91.9 44.3"/>
      <polygon class="st1" points="104.9 32.4 93.2 52.1 116.6 52.1 104.9 32.4"/>
      <rect class="st1" x="136" y="32.4" width="6.8" height="13"/>
      <rect class="st6" x="142.8" y="45.5" width="6.8" height="6.6"/>
      <rect class="st3" x="136" y="45.5" width="6.8" height="6.6"/>
      <rect class="st5" x="113.2" y="41.2" width="6.4" height="10.9"/>
      <polygon class="st3" points="93.2 52.1 96.9 52.1 95 49.1 93.2 52.1"/>
      <polygon class="st3" points="113.2 46.4 113.2 52.1 116.6 52.1 113.2 46.4"/>
      <rect class="st4" x="128.1" y="32.4" width="6.8" height="19.6"/>
      <path class="st6" d="M89.8,44.3h2.1c3.3,0,5.9-2.7,5.9-5.9s-2.7-5.9-5.9-5.9h-7.7v11.9h5.6Z"/>
      <rect class="st6" x="119.6" y="32.4" width="7.3" height="7.1"/>
      <path class="st1" d="M121.8,39.6h-2.2v12.5h2.2c3.5,0,6.3-2.8,6.3-6.2s-2.8-6.2-6.3-6.2"/>
      <path class="st4" d="M117.5,32.4c-2.4,0-4.4,2-4.4,4.4s2,4.4,4.4,4.4h2.1v-8.7s-2.1,0-2.1,0Z"/>
      <path class="st5" d="M75.4,52.1h2.9c3.3,0,5.9-2.6,5.9-5.9s-2.6-5.9-5.9-5.9h-9v11.8h6.2Z"/>
      <path class="st6" d="M69.2,40.3h8.4c2.2,0,3.9-1.8,3.9-3.9s-1.8-3.9-3.9-3.9h-8.4v7.9Z"/>
      <rect class="st4" x="69.2" y="32.4" width="6.8" height="7.9"/>
      <rect class="st1" x="69.2" y="40.3" width="6.8" height="11.8"/>
      <polygon class="st1" points="91.9 44.3 84.1 32.4 84.1 44.3 91.9 44.3"/>
      <path class="st6" d="M112,52.1c0-4-3.2-7.2-7.2-7.2s-7.2,3.2-7.2,7.2h14.3Z"/>
      <path d="M79.9,26.3v.3c0,1.2-.8,1.9-1.8,1.9s-2-.9-2-1.9.9-2,2-2,1.3.4,1.7.9l-.9.5c-.2-.3-.5-.5-.8-.5-.5,0-.9.4-.9,1s.4,1,1,1,.7-.2.7-.4h-1v-.8h2.1,0Z"/>
      <path d="M84.1,26.5c0-.5-.4-.9-.9-.9s-.9.4-.9.9.4.9.9.9.9-.4.9-.9M81.3,26.5c0-1.1.9-2,2-2s2,.9,2,2-.9,2-2,2-2-.9-2-2"/>
      <polygon points="90 24.7 88.6 28.4 87.6 28.4 86.1 24.7 87.2 24.7 88.1 27 88.9 24.7 90 24.7"/>
      <polygon points="92.3 25.6 92.3 26.1 93.4 26.1 93.4 26.9 92.3 26.9 92.3 27.5 94 27.5 94 28.4 91.3 28.4 91.3 24.7 94 24.7 94 25.6 92.3 25.6"/>
      <path d="M96.6,26.3h.7c.2,0,.4-.2.4-.3s-.1-.4-.4-.4h-.7v.7ZM97,27.1h-.4v1.3h-1v-3.7h1.8c.7,0,1.3.5,1.3,1.2s-.3.9-.7,1.1l.8,1.4h-1.1l-.7-1.3h0Z"/>
      <polygon points="103.6 24.7 103.6 28.4 102.7 28.4 101.2 26.4 101.2 28.4 100.2 28.4 100.2 24.7 101 24.7 102.6 26.6 102.6 24.7 103.6 24.7"/>
      <path d="M107.8,26.5c0-.5-.4-.9-.9-.9s-.9.4-.9.9.4.9.9.9.9-.4.9-.9M105,26.5c0-1.1.9-2,2-2s2,.9,2,2-.9,2-2,2-2-.9-2-2"/>
      <polygon points="113.8 25.6 113.8 26.2 114.9 26.2 114.9 27 113.8 27 113.8 28.4 112.8 28.4 112.8 24.7 115.5 24.7 115.5 25.6 113.8 25.6"/>
      <polygon points="118 25.6 118 26.1 119.1 26.1 119.1 26.9 118 26.9 118 27.5 119.7 27.5 119.7 28.4 117 28.4 117 24.7 119.7 24.7 119.7 25.6 118 25.6"/>
      <path d="M123.7,26.5c0-.5-.4-.9-1-.9h-.5v1.8h.5c.6,0,1-.4,1-.9M124.7,26.5c0,1.1-.9,1.9-2,1.9h-1.5v-3.7h1.5c1.1,0,2,.8,2,1.9"/>
      <polygon points="127.2 25.6 127.2 26.1 128.3 26.1 128.3 26.9 127.2 26.9 127.2 27.5 128.9 27.5 128.9 28.4 126.2 28.4 126.2 24.7 128.9 24.7 128.9 25.6 127.2 25.6"/>
      <path d="M131.4,26.3h.7c.2,0,.4-.2.4-.3s-.1-.4-.4-.4h-.7v.7ZM131.8,27.1h-.4v1.3h-1v-3.7h1.8c.7,0,1.3.5,1.3,1.2s-.3.9-.7,1.1l.8,1.4h-1.1l-.7-1.3h0Z"/>
      <path d="M137.2,26.9l-.4-.9-.4.9h.7ZM137.6,27.8h-1.5l-.3.6h-1l1.6-3.7h1l1.6,3.7h-1l-.3-.6h0Z"/>
      <polygon points="142.8 27.4 142.8 28.4 140.2 28.4 140.2 24.7 141.2 24.7 141.2 27.4 142.8 27.4"/>
      <path d="M79.9,26.3v.3c0,1.2-.8,1.9-1.8,1.9s-2-.9-2-1.9.9-2,2-2,1.3.4,1.7.9l-.9.5c-.2-.3-.5-.5-.8-.5-.5,0-.9.4-.9,1s.4,1,1,1,.7-.2.7-.4h-1v-.8h2.1,0Z"/>
      <path d="M84.1,26.5c0-.5-.4-.9-.9-.9s-.9.4-.9.9.4.9.9.9.9-.4.9-.9M81.3,26.5c0-1.1.9-2,2-2s2,.9,2,2-.9,2-2,2-2-.9-2-2"/>
      <polygon points="90 24.7 88.6 28.4 87.6 28.4 86.1 24.7 87.2 24.7 88.1 27 88.9 24.7 90 24.7"/>
      <polygon points="92.3 25.6 92.3 26.1 93.4 26.1 93.4 26.9 92.3 26.9 92.3 27.5 94 27.5 94 28.4 91.3 28.4 91.3 24.7 94 24.7 94 25.6 92.3 25.6"/>
      <path d="M96.6,26.3h.7c.2,0,.4-.2.4-.3s-.1-.4-.4-.4h-.7v.7ZM97,27.1h-.4v1.3h-1v-3.7h1.8c.7,0,1.3.5,1.3,1.2s-.3.9-.7,1.1l.8,1.4h-1.1l-.7-1.3h0Z"/>
      <polygon points="103.6 24.7 103.6 28.4 102.7 28.4 101.2 26.4 101.2 28.4 100.2 28.4 100.2 24.7 101 24.7 102.6 26.6 102.6 24.7 103.6 24.7"/>
      <path d="M107.8,26.5c0-.5-.4-.9-.9-.9s-.9.4-.9.9.4.9.9.9.9-.4.9-.9M105,26.5c0-1.1.9-2,2-2s2,.9,2,2-.9,2-2,2-2-.9-2-2"/>
      <polygon points="113.8 25.6 113.8 26.2 114.9 26.2 114.9 27 113.8 27 113.8 28.4 112.8 28.4 112.8 24.7 115.5 24.7 115.5 25.6 113.8 25.6"/>
      <polygon points="118 25.6 118 26.1 119.1 26.1 119.1 26.9 118 26.9 118 27.5 119.7 27.5 119.7 28.4 117 28.4 117 24.7 119.7 24.7 119.7 25.6 118 25.6"/>
      <path d="M123.7,26.5c0-.5-.4-.9-1-.9h-.5v1.8h.5c.6,0,1-.4,1-.9M124.7,26.5c0,1.1-.9,1.9-2,1.9h-1.5v-3.7h1.5c1.1,0,2,.8,2,1.9"/>
      <polygon points="127.2 25.6 127.2 26.1 128.3 26.1 128.3 26.9 127.2 26.9 127.2 27.5 128.9 27.5 128.9 28.4 126.2 28.4 126.2 24.7 128.9 24.7 128.9 25.6 127.2 25.6"/>
      <path d="M131.4,26.3h.7c.2,0,.4-.2.4-.3s-.1-.4-.4-.4h-.7v.7ZM131.8,27.1h-.4v1.3h-1v-3.7h1.8c.7,0,1.3.5,1.3,1.2s-.3.9-.7,1.1l.8,1.4h-1.1l-.7-1.3h0Z"/>
      <path d="M137.2,26.9l-.4-.9-.4.9h.7ZM137.6,27.8h-1.5l-.3.6h-1l1.6-3.7h1l1.6,3.7h-1l-.3-.6h0Z"/>
      <polygon points="142.8 27.4 142.8 28.4 140.2 28.4 140.2 24.7 141.2 24.7 141.2 27.4 142.8 27.4"/>
    </g>
  </g>
</svg>