<?xml version="1.0" encoding="UTF-8"?>
<svg id="Layer_2" xmlns="http://www.w3.org/2000/svg" version="1.1" viewBox="0 0 223.3 100.1">
  <!-- Generator: Adobe Illustrator 30.0.0, SVG Export Plug-In . SVG Version: 2.1.1 Build 123)  -->
  <defs>
    <style>
      .st0 {
        fill: #ffcf00;
      }

      .st1 {
        fill: #1d1c1a;
      }

      .st2 {
        fill: #3d3d3d;
      }

      .st3 {
        fill: #00cf00;
      }

      .st4 {
        fill: #173dff;
      }

      .st5 {
        fill: #ec2024;
      }
    </style>
  </defs>
  <g>
    <path class="st1" d="M108.7,84.2c.6,0,1.1.2,1.5.6s.6.9.6,1.5-.2,1.1-.6,1.5c-.4.4-.9.6-1.5.6h-1.7v-4.2h1.7ZM108.7,87.7c.4,0,.7,0,1-.4s.4-.6.4-1.1,0-.8-.4-1.1c-.3-.3-.6-.4-1-.4h-1v2.9h1Z"/>
    <path class="st1" d="M115.7,87.8c-.4.4-1,.7-1.6.7s-1.2-.2-1.6-.7c-.4-.4-.7-1-.7-1.6s.2-1.2.7-1.6c.4-.4,1-.7,1.6-.7s1.2.2,1.6.7c.4.4.7,1,.7,1.6s-.2,1.2-.7,1.6M113,87.4c.3.3.7.4,1.1.4s.8,0,1.1-.4.4-.7.4-1.1,0-.8-.4-1.1c-.3-.3-.7-.4-1.1-.4s-.8,0-1.1.4-.4.7-.4,1.1,0,.8.4,1.1"/>
  </g>
  <g>
    <polygon class="st1" points="120.8 87.7 122.5 87.7 122.5 88.4 120.1 88.4 120.1 84.2 120.8 84.2 120.8 87.7"/>
    <path class="st1" d="M126.7,88.4l-.3-.9h-1.8l-.3.9h-.8l1.6-4.2h.9l1.6,4.2h-.9ZM124.8,86.9h1.4l-.7-1.9-.7,1.9Z"/>
    <path class="st1" d="M130.3,84.2c.6,0,1.1.2,1.5.6s.6.9.6,1.5-.2,1.1-.6,1.5c-.4.4-.9.6-1.5.6h-1.7v-4.2h1.7ZM130.3,87.7c.4,0,.7,0,1-.4s.4-.6.4-1.1,0-.8-.4-1.1c-.3-.3-.6-.4-1-.4h-1v2.9h1Z"/>
    <path class="st1" d="M137.3,87.8c-.4.4-1,.7-1.6.7s-1.2-.2-1.6-.7c-.4-.4-.7-1-.7-1.6s.2-1.2.7-1.6c.4-.4,1-.7,1.6-.7s1.2.2,1.6.7c.4.4.7,1,.7,1.6s-.2,1.2-.7,1.6M134.7,87.4c.3.3.7.4,1.1.4s.8,0,1.1-.4.4-.7.4-1.1,0-.8-.4-1.1c-.3-.3-.7-.4-1.1-.4s-.8,0-1.1.4-.4.7-.4,1.1,0,.8.4,1.1"/>
  </g>
  <g>
    <path class="st1" d="M143.4,84.2c.6,0,1.1.2,1.5.6s.6.9.6,1.5-.2,1.1-.6,1.5c-.4.4-.9.6-1.5.6h-1.7v-4.2h1.7ZM143.4,87.7c.4,0,.7,0,1-.4s.4-.6.4-1.1,0-.8-.4-1.1c-.3-.3-.6-.4-1-.4h-1v2.9h1Z"/>
    <path class="st1" d="M150.3,87.8c-.4.4-1,.7-1.6.7s-1.2-.2-1.6-.7c-.4-.4-.7-1-.7-1.6s.2-1.2.7-1.6c.4-.4,1-.7,1.6-.7s1.2.2,1.6.7c.4.4.7,1,.7,1.6s-.2,1.2-.7,1.6M147.7,87.4c.3.3.7.4,1.1.4s.8,0,1.1-.4.4-.7.4-1.1,0-.8-.4-1.1c-.3-.3-.7-.4-1.1-.4s-.8,0-1.1.4-.4.7-.4,1.1,0,.8.4,1.1"/>
  </g>
  <g>
    <path class="st1" d="M156.3,84.2c.4,0,.7,0,1,.4s.4.6.4,1,0,.7-.4,1-.6.4-1,.4h-.9v1.5h-.7v-4.2h1.6,0ZM156.3,86.3c.2,0,.4,0,.5-.2,0,0,.2-.3.2-.5s0-.4-.2-.5c0,0-.3-.2-.5-.2h-.9v1.5h.9Z"/>
    <path class="st1" d="M162.6,87.8c-.4.4-1,.7-1.6.7s-1.2-.2-1.6-.7c-.4-.4-.7-1-.7-1.6s.2-1.2.7-1.6c.4-.4,1-.7,1.6-.7s1.2.2,1.6.7c.4.4.7,1,.7,1.6s-.2,1.2-.7,1.6M160,87.4c.3.3.7.4,1.1.4s.8,0,1.1-.4.4-.7.4-1.1,0-.8-.4-1.1c-.3-.3-.7-.4-1.1-.4s-.8,0-1.1.4-.4.7-.4,1.1,0,.8.4,1.1"/>
    <polygon class="st1" points="165.6 88.4 164.1 84.2 164.9 84.2 165.9 87.5 167.1 84.2 167.8 84.2 166.3 88.4 165.6 88.4"/>
    <path class="st1" d="M172.4,87.8c-.4.4-1,.7-1.6.7s-1.2-.2-1.6-.7c-.4-.4-.7-1-.7-1.6s.2-1.2.7-1.6c.4-.4,1-.7,1.6-.7s1.2.2,1.6.7c.4.4.7,1,.7,1.6s-.2,1.2-.7,1.6M169.9,87.4c.3.3.7.4,1.1.4s.8,0,1.1-.4.4-.7.4-1.1,0-.8-.4-1.1c-.3-.3-.7-.4-1.1-.4s-.8,0-1.1.4-.4.7-.4,1.1,0,.8.4,1.1"/>
  </g>
  <g>
    <path class="st1" d="M179.3,86.2c.2,0,.3.2.4.4,0,.2.2.4.2.6,0,.4,0,.6-.4.9-.3.2-.6.4-.9.4h-1.9v-4.2h1.7c.4,0,.7,0,.9.3.2.2.4.5.4.9s0,.7-.4.9M178.5,84.9h-1v1.1h1c.2,0,.3,0,.4-.2,0,0,.2-.2.2-.4s0-.3-.2-.4c0,0-.2-.2-.4-.2M178.6,87.7c.2,0,.3,0,.4-.2,0,0,.2-.3.2-.4s0-.3-.2-.4c0,0-.3-.2-.4-.2h-1.1v1.2h1.1Z"/>
    <path class="st1" d="M183.7,88.4l-.9-1.6h-.8v1.6h-.7v-4.2h1.7c.4,0,.7,0,1,.4s.4.6.4,1,0,.5-.2.8c-.2.2-.4.4-.6.5l1,1.7h-.9ZM181.9,84.9v1.4h1c.2,0,.3,0,.5-.2s.2-.3.2-.5,0-.4-.2-.5c0,0-.3-.2-.5-.2,0,0-1,0-1,0Z"/>
    <path class="st1" d="M188.5,88.4l-.3-.9h-1.8l-.3.9h-.8l1.6-4.2h.9l1.6,4.2h-.9ZM186.7,86.9h1.4l-.7-1.9-.7,1.9h0Z"/>
    <path class="st1" d="M191.9,88.5c-.4,0-.8,0-1.1-.3-.3-.2-.5-.4-.6-.8l.6-.4c.2.5.5.7,1.1.7s.5,0,.6-.2c0,0,.2-.2.2-.4s0-.3-.2-.4c0,0-.4-.2-.8-.3-.2,0-.4,0-.5-.2,0,0-.3,0-.4-.2,0,0-.2-.2-.3-.4,0,0,0-.3,0-.5,0-.4,0-.7.4-.9.3-.2.6-.3,1-.3s.6,0,.9.3c.3.2.5.4.6.7l-.6.3c-.2-.4-.5-.6-.9-.6s-.4,0-.5,0c0,0-.2.2-.2.4s0,.3.2.4c0,0,.4.2.7.3.2,0,.3,0,.4,0,0,0,.2,0,.3,0s.2,0,.3.2l.2.2s0,.2.2.3v.4c0,.4,0,.7-.4.9-.3.2-.7.3-1.1.3"/>
    <rect class="st1" x="194.7" y="84.2" width=".7" height="4.2"/>
    <polygon class="st1" points="197.8 87.7 199.4 87.7 199.4 88.4 197.1 88.4 197.1 84.2 197.8 84.2 197.8 87.7"/>
    <polygon class="st1" points="201.5 87.7 203.3 87.7 203.3 88.4 200.8 88.4 200.8 84.2 203.3 84.2 203.3 84.9 201.5 84.9 201.5 85.9 203.2 85.9 203.2 86.6 201.5 86.6 201.5 87.7"/>
    <rect class="st1" x="204.7" y="84.2" width=".7" height="4.2"/>
    <path class="st1" d="M209.5,88.4l-.9-1.6h-.8v1.6h-.7v-4.2h1.7c.4,0,.7,0,1,.4s.4.6.4,1,0,.5-.2.8c-.2.2-.4.4-.6.5l1,1.7h-.9ZM207.8,84.9v1.4h1c.2,0,.3,0,.5-.2s.2-.3.2-.5,0-.4-.2-.5c0,0-.3-.2-.5-.2,0,0-1,0-1,0Z"/>
    <path class="st1" d="M215.1,87.8c-.4.4-1,.7-1.6.7s-1.2-.2-1.6-.7c-.4-.4-.7-1-.7-1.6s.2-1.2.7-1.6c.4-.4,1-.7,1.6-.7s1.2.2,1.6.7c.4.4.7,1,.7,1.6s-.2,1.2-.7,1.6M212.5,87.4c.3.3.7.4,1.1.4s.8,0,1.1-.4c.3-.3.4-.7.4-1.1s0-.8-.4-1.1c-.3-.3-.7-.4-1.1-.4s-.8,0-1.1.4c-.3.3-.4.7-.4,1.1s0,.8.4,1.1"/>
  </g>
  <g>
    <path class="st1" d="M132.9,38.6v.4c0,1.8-1.2,2.8-2.7,2.8s-2.9-1.3-2.9-2.9,1.3-2.9,2.9-2.9,2,.5,2.5,1.4l-1.3.8c-.3-.5-.7-.7-1.2-.7-.8,0-1.4.6-1.4,1.5s.6,1.5,1.5,1.5,1-.3,1.1-.7h-1.5v-1.2h3.1,0Z"/>
    <path class="st1" d="M134.7,39c0-1.7,1.3-2.9,2.9-2.9s2.9,1.3,2.9,2.9-1.3,2.9-2.9,2.9-2.9-1.3-2.9-2.9M139,39c0-.8-.6-1.4-1.3-1.4s-1.4.6-1.4,1.4.6,1.4,1.4,1.4,1.3-.6,1.3-1.4"/>
    <polygon class="st1" points="147.7 36.2 145.5 41.9 144.1 41.9 141.9 36.2 143.5 36.2 144.7 39.7 146.1 36.2 147.7 36.2"/>
    <polygon class="st1" points="151 37.5 151 38.4 152.6 38.4 152.6 39.6 151 39.6 151 40.5 153.5 40.5 153.5 41.9 149.5 41.9 149.5 36.2 153.5 36.2 153.5 37.5 151 37.5"/>
    <path class="st1" d="M157.7,39.9h-.6v2h-1.5v-5.6h2.7c1.1,0,2,.8,2,1.9s-.4,1.3-1,1.7l1.3,2.2h-1.7l-1.1-2h-.2ZM157.1,38.6h1.1c.4,0,.6-.3.6-.5s-.2-.5-.6-.5h-1.1v1.1h0Z"/>
    <polygon class="st1" points="167.4 36.2 167.4 41.9 166.1 41.9 163.9 38.9 163.9 41.9 162.4 41.9 162.4 36.2 163.7 36.2 165.9 39.2 165.9 36.2 167.4 36.2"/>
    <path class="st1" d="M169.4,39c0-1.7,1.3-2.9,2.9-2.9s2.9,1.3,2.9,2.9-1.3,2.9-2.9,2.9-2.9-1.3-2.9-2.9M173.6,39c0-.8-.6-1.4-1.3-1.4s-1.4.6-1.4,1.4.6,1.4,1.4,1.4,1.3-.6,1.3-1.4"/>
  </g>
  <g>
    <path class="st1" d="M187.6,39c0,1.6-1.3,2.8-2.9,2.8h-2.3v-5.6h2.3c1.7,0,2.9,1.2,2.9,2.8M186.1,39c0-.8-.6-1.4-1.5-1.4h-.7v2.7h.7c.9,0,1.5-.5,1.5-1.4"/>
    <path class="st1" d="M189,39c0-1.7,1.3-2.9,2.9-2.9s2.9,1.3,2.9,2.9-1.3,2.9-2.9,2.9-2.9-1.3-2.9-2.9M193.3,39c0-.8-.6-1.4-1.3-1.4s-1.4.6-1.4,1.4.6,1.4,1.4,1.4,1.3-.6,1.3-1.4"/>
  </g>
  <g>
    <path class="st4" d="M165.3,77.6c0-6-4.8-10.8-10.8-10.8s-10.8,4.8-10.8,10.8h21.6Z"/>
    <polygon class="st0" points="134.9 65.9 123.3 48 123.3 65.9 134.9 65.9"/>
    <rect class="st0" x="101" y="59.9" width="10.2" height="17.7"/>
    <rect class="st0" x="201.2" y="48" width="10.2" height="19.6"/>
    <rect class="st4" x="211.4" y="67.7" width="10.2" height="9.9"/>
    <polygon class="st3" points="136.9 77.6 139.6 73.1 134.9 65.9 123.3 65.9 123.3 77.6 136.9 77.6"/>
    <rect class="st3" x="189.3" y="48" width="10.2" height="29.5"/>
    <path class="st4" d="M113.5,48h-2.4v11.9h2.4c3.2,0,5.9-2.7,5.9-5.9s-2.7-5.9-5.9-5.9"/>
    <rect class="st4" x="176.5" y="48" width="11" height="10.7"/>
    <path class="st0" d="M179.9,58.8h-3.3v18.8h3.3c5.2,0,9.4-4.2,9.4-9.4s-4.2-9.4-9.4-9.4"/>
    <path class="st3" d="M173.5,48c-3.6,0-6.6,2.9-6.6,6.6s2.9,6.6,6.6,6.6h3v-13.2h-3Z"/>
    <path class="st5" d="M114.5,59.9h-3.3v17.7h3.3c4.9,0,8.8-3.9,8.8-8.8s-3.9-8.8-8.8-8.8"/>
    <path class="st4" d="M134.9,48h-11.6l11.6,17.8c4.9,0,8.9-4,8.9-8.9s-4-8.9-8.9-8.9"/>
    <rect class="st3" x="101" y="48" width="10.2" height="11.9"/>
    <polygon class="st5" points="166.9 61.2 166.9 69 172 77.6 176.5 77.6 176.5 61.2 166.9 61.2"/>
    <polygon class="st2" points="166.9 69 166.9 77.6 172 77.6 166.9 69"/>
    <rect class="st2" x="201.2" y="67.7" width="10.2" height="9.9"/>
    <polygon class="st2" points="136.9 77.6 142.5 77.6 139.6 73.1 136.9 77.6"/>
    <path class="st0" d="M166.9,77.6v-8.5l-12.5-20.9-14.9,25,2.9,4.5h1.2c0-6,4.8-10.8,10.8-10.8s10.8,4.8,10.8,10.8h1.7Z"/>
  </g>
  <g>
    <polygon class="st1" points="6.4 59.4 6.4 55.2 4.7 58.3 4.2 58.3 2.4 55.2 2.4 59.4 1.5 59.4 1.5 53.4 2.5 53.4 4.5 57.1 6.4 53.4 7.4 53.4 7.4 59.4 6.4 59.4"/>
    <rect class="st1" x="10.4" y="53.4" width="1" height="5.9"/>
    <polygon class="st1" points="15.3 55.2 15.3 59.4 14.4 59.4 14.4 53.4 15.1 53.4 18.5 57.8 18.5 53.5 19.4 53.5 19.4 59.4 18.6 59.4 15.3 55.2"/>
    <rect class="st1" x="22.4" y="53.4" width="1" height="5.9"/>
    <path class="st1" d="M29.9,54.9c0,0-.4-.3-.7-.4-.3,0-.6-.2-1-.2s-.7,0-.9.2c-.2,0-.3.3-.3.6s0,.2,0,.2v.2s0,0,.2,0,0,0,.2,0c0,0,.2,0,.3,0s.2,0,.3,0,.2,0,.4,0c.3,0,.5,0,.7.2.2,0,.4,0,.5.2.2,0,.3.2.4.3s.2.3.3.4v.6c0,.2,0,.5,0,.6,0,.2-.2.4-.3.5,0,0-.3.2-.5.3-.2,0-.4.2-.6.2h-.7c-.5,0-.9,0-1.3-.2-.4,0-.8-.3-1.2-.6l.4-.8c.2.2.5.4.9.5.4.2.8.3,1.2.3s.7,0,.9-.2c.2,0,.3-.3.3-.6v-.3s0-.2-.2-.2c0,0-.2,0-.2-.2,0,0-.2,0-.3,0,0,0-.3,0-.4,0,0,0-.3,0-.5,0-.3,0-.6-.2-.8-.3-.2,0-.4-.2-.5-.3-.2,0-.3-.3-.3-.4,0-.2,0-.4,0-.6s0-.6.2-.8c0-.2.3-.4.5-.6.2,0,.4-.3.7-.3s.6,0,.9,0c.7,0,1.4.2,2,.7l-.4.8v.2Z"/>
    <polygon class="st1" points="37.4 54.3 35.5 54.3 35.5 59.4 34.5 59.4 34.5 54.3 32.5 54.3 32.5 53.5 37.4 53.5 37.4 54.3"/>
    <path class="st1" d="M43.9,58.5v.8h-4v-5.9h4v.8h-3v1.7h2.7v.8h-2.7v1.8h3.1,0ZM42.3,52.8l-.6-.2.5-.9h.9s-.8,1.1-.8,1.1Z"/>
    <path class="st1" d="M46.6,59.4v-5.9h2.6c.3,0,.5,0,.7.2.2,0,.4.3.6.5s.3.4.4.6c0,.2,0,.5,0,.7,0,.4,0,.8-.3,1.1-.2.3-.5.6-.9.7l1.4,2.3h-1.1l-1.3-2.1h-1.4v2.1h-1,.2ZM47.5,56.5h1.7c.3,0,.5,0,.6-.3.2-.2.3-.5.3-.8s0-.6-.3-.8c-.2-.2-.4-.3-.7-.3h-1.6v2.3h0Z"/>
    <rect class="st1" x="53.7" y="53.4" width="1" height="5.9"/>
    <path class="st1" d="M57.4,56.5c0-.4,0-.8.2-1.2,0-.4.3-.7.6-1s.6-.5.9-.7c.4-.2.7-.3,1.2-.3s.8,0,1.2.3c.4.2.7.4.9.7s.4.6.6,1c0,.4.2.7.2,1.1s0,.8-.2,1.2c0,.4-.3.7-.6,1s-.6.5-.9.7c-.4.2-.7.3-1.2.3s-.7,0-1-.2c-.3,0-.6-.3-.8-.5s-.4-.4-.6-.7c-.2-.3-.3-.5-.4-.8,0-.3,0-.6,0-.9M60.2,58.6c.3,0,.6,0,.8-.2.3,0,.5-.3.6-.5.2-.2.3-.4.4-.7,0-.3,0-.5,0-.8s0-.6,0-.8c0-.3-.2-.5-.4-.7s-.4-.4-.6-.5c-.2,0-.5-.2-.8-.2s-.6,0-.8.2c-.2,0-.5.3-.6.5-.2.2-.3.4-.4.7,0,.3,0,.5,0,.8s0,.7.2,1.1c.2.3.4.6.7.8s.6.3,1,.3"/>
    <path class="st1" d="M69.3,59.4v-5.9h2.1c.5,0,.9,0,1.3.2.4.2.7.4.9.6.2.3.4.6.5,1s.2.8.2,1.2c0,.9-.3,1.6-.8,2.2-.5.6-1.2.8-2.1.8h-2.1,0ZM71.5,54.3h-1.2v4.2h1.2c.4,0,.8,0,1.1-.3.3-.2.5-.5.7-.8s.2-.7.2-1.1c0-.6-.2-1.2-.5-1.6-.4-.4-.8-.6-1.4-.6"/>
    <path class="st1" d="M78.5,53.4h.9l2.3,5.9h-1l-.6-1.6h-2.3l-.6,1.6h-1l2.4-5.9h0ZM79.9,57.1l-1-2.6-1,2.6h2Z"/>
    <path class="st1" d="M51.5,67.1h0s0,0-.3,0c0,0-.3,0-.4-.2,0,0-.3,0-.4,0h-.4c-.3,0-.5,0-.5.3s0,0,0,0h1.1c.2,0,.5,0,.6.2.2,0,.3.2.5.3s.3.2.4.3c0,0,.2.3.2.5v.6c0,.2,0,.5,0,.8,0,.2-.2.4-.4.5,0,0-.3.3-.5.4-.2,0-.4.2-.6.2h-.7c-.4,0-.9,0-1.4-.2-.5,0-.9-.3-1.3-.5l.7-1.5h0s0,0,.3.2c0,0,.3,0,.4.2,0,0,.3,0,.5.2h.6c.3,0,.5,0,.5-.3s0,0,0-.2c0,0,0,0-.2,0,0,0-.2,0-.3,0,0,0-.2,0-.4,0-.2,0-.3,0-.4,0-.5-.2-.9-.4-1.2-.7-.2-.3-.4-.6-.4-1s0-.6.2-.9c0-.3.3-.5.5-.6.2-.2.4-.3.7-.4.3,0,.6,0,.9,0,.6,0,1.4.2,2.3.7l-.7,1.4v.3Z"/>
    <path class="st1" d="M55.9,65.2h1.9l1.9,5.9h-1.7l-.4-1.2h-1.6l-.4,1.2h-1.7l1.9-5.9h0ZM57.4,68.9l-.5-2.1-.6,2.1h1.1Z"/>
    <path class="st1" d="M64.1,71.2c-.4,0-.7,0-1-.2-.3,0-.6-.3-.8-.4-.2-.2-.4-.4-.5-.7s-.2-.5-.3-.8v-3.9h1.7v3.6c0,.2,0,.3.2.5,0,0,.2.3.3.3s.3,0,.5,0,.4,0,.5,0c0,0,.3-.2.3-.3s0-.3.2-.5v-3.6h1.7v3c0,.4,0,.8-.2,1.2,0,.4-.3.7-.5.9-.2.3-.5.5-.9.6-.4.2-.8.2-1.2.2M64.6,64.9l-1-.3.4-1.2h1.4l-.8,1.5h0Z"/>
    <path class="st1" d="M69.4,71.1v-5.9h2.3c.5,0,.9,0,1.3.2.4.2.7.4,1,.6.2.3.4.6.6,1,0,.4.2.8.2,1.2,0,.9-.3,1.6-.8,2.2-.6.6-1.3.8-2.2.8h-2.4ZM71.7,66.6h-.7v3h.7c.4,0,.8,0,1-.4.2-.3.4-.7.4-1.1s0-.8-.4-1.1c-.2-.3-.6-.4-1-.4"/>
    <polygon class="st1" points="81.2 69.7 81.2 71.1 77 71.1 77 65.2 81.2 65.2 81.2 66.6 78.7 66.6 78.7 67.5 80.8 67.5 80.8 68.8 78.7 68.8 78.7 69.7 81.2 69.7"/>
  </g>
</svg>