<?xml version="1.0" encoding="UTF-8"?>
<svg id="Layer_2" xmlns="http://www.w3.org/2000/svg" version="1.1" viewBox="0 0 218.7 100.1">
  <!-- Generator: Adobe Illustrator 29.4.0, SVG Export Plug-In . SVG Version: 2.1.0 Build 152)  -->
  <defs>
    <style>
      .st0 {
        fill: #58595b;
      }

      .st1 {
        fill: #ffcf00;
      }

      .st2 {
        fill: #005baa;
      }

      .st3 {
        fill: #98241e;
      }

      .st4 {
        fill: #00cf00;
      }

      .st5 {
        fill: red;
      }

      .st6 {
        fill: #173dff;
      }
    </style>
  </defs>
  <g>
    <path class="st2" d="M193.2,58.8v-1.5l-1.3-1.2-1.9-.3,3.6-2.5-.6-1.1.2-.8h-.7l-.2-1.1-1.6-.4.4-2.2v-1.8h-1.4l-.3-1.9-3-1.3-1-1.6.5-.3.8,1.4,3.2,1.3.3,1.8h1.3l.2,2.6-.3,1.7,1.4.4.2,1h1l-.4,1.4.7,1.4-2.8,1.9h.5l1.7,1.7h0l2.8-2.6v-1.7c.1,0,3.7-1.6,3.7-1.6l1.4.5,1.6-1.6v-.8c-.1,0,1.3-1.7,1.3-1.7l-.2-1.7,3.8-2.7v-2c.1,0-.7,0-.7,0l-2.1-2.6h-1.8l-.7-.6-.6.4-1.8-1.9h-.3l-1,.9-2-.8,1.5-1h-.3l-1.8.9,1.7-2.3-.5-1.6-.7.9-1.4.2-.7-.3-2.6.7-1-1.4.4-1.1-.3-.4-2.1.8-.9-.5v.4c.1,0,1.9.7,1.9.7l-2.8,1-1.3-.3v-.6l-1.3.2.6,1.1-1.1-.2.2.9-.8,2-2.6,1.2-.3,1.5,1.3,1.7-.6.6-1.4-2.1.4-2.2,2.7-1.2.6-1.5-.5-1.7h.7l-.4-.5,2.8-.5v.8h.8l1-.4-.5-.2-.6-2.2,2,1,2.3-.9.8,1.1-.4,1.1.5.7,2.3-.7.8.3h.9c0,0,1.4-2,1.4-2l.9,3.3-.4.5h1.4v.9c-.1,0,.7,0,.7,0l1.6,1.6.5-.4,1,.8h1.8l2.1,2.6h1.2l-.2,3.1-3.7,2.6.2,1.6-1.4,1.7v.9c.1,0-2,2.2-2,2.2l-1.6-.5-3,1.3v1.6c-.1,0-4.3,4.1-4.3,4.1h.6ZM198.7,36.3l.4.2.3-.3h-.7Z"/>
    <g>
      <polygon class="st3" points="142.1 51.4 142.1 37.6 149 37.6 149 40.9 146 40.9 146 42.9 148.6 42.9 148.6 46.2 146 46.2 146 51.4 142.1 51.4"/>
      <path class="st3" d="M149.9,46.4v-8.9h3.8v9.2c0,.4,0,.7.2.9.1.2.4.3.7.3s.5,0,.7-.3c.1-.2.2-.5.2-.9v-9.2h3.9v8.9c0,1.8-.4,3.1-1.1,4-.8.8-2,1.3-3.6,1.3s-2.8-.4-3.6-1.3c-.8-.8-1.1-2.2-1.1-4"/>
      <polygon class="st3" points="160.9 51.4 160.9 37.6 164.7 37.6 166.8 44.8 166.8 37.6 170.3 37.6 170.3 51.4 166.5 51.4 164.4 44.5 164.4 51.4 160.9 51.4"/>
      <path class="st3" d="M170.9,51.4l3-13.8h4.3l3,13.8h-3.7l-.3-2h-2.3l-.3,2h-3.8.1ZM175.3,46.5h1.5l-.8-5.1-.8,5.1h.1Z"/>
      <path class="st3" d="M181.4,46.8c.5.4,1.1.8,1.5,1,.5.2.9.3,1.2.3s.6,0,.8-.3c.2-.2.3-.4.3-.7s-.3-.8-1-1.4h0c-1.2-1.1-1.9-1.9-2.2-2.5s-.5-1.2-.5-1.9c0-1.2.4-2.1,1.2-2.9.8-.8,1.8-1.1,3-1.1s1,0,1.5.2c.5,0,1.1.3,1.6.6v3.6c-.5-.4-.9-.6-1.3-.8-.4-.2-.8-.3-1.1-.3s-.5,0-.7.2-.3.4-.3.6c0,.4.3.8,1,1.3h.1c1.1.9,1.9,1.7,2.2,2.3s.5,1.3.5,2.1c0,1.3-.4,2.4-1.3,3.2-.8.8-2,1.2-3.4,1.2s-1.1,0-1.6-.3c-.5-.2-1.1-.4-1.6-.8v-3.8.2h.1Z"/>
      <path class="st3" d="M189.3,51.4l3-13.8h4.3l3,13.8h-3.7l-.3-2h-2.3l-.3,2h-3.8.1ZM193.7,46.5h1.5l-.8-5.1-.8,5.1h.1Z"/>
    </g>
  </g>
  <g id="Layer_1-2">
    <g>
      <g>
        <path class="st4" d="M42.1,47.9v-8.7h2.1c.3,0,.5-.2.5-.5h-5.9c0,.3.2.5.5.5h2v8.4c0,.3-.2.4-.5.4-.8,0-1.8.2-2.6.3-.8,0-1.6.3-2.5.3v-5.3h.3c.5.3,1,.2,1.3-.3.3-.3.3-.8-.3-1.2-.6-.4-1.3-.8-1.9-1.3-.2,0-.3-.3-.3-.5v-1.4c0-.6-.8-.8-1.4-.5-.3.2-.3.5-.6.8-.5-.3-1.2-.8-1.8-1.2s-.9-.4-1.6,0c-1.9,1.3-3.8,2.5-5.7,3.8-.2,0-.3.2-.3.3-.3.3-.3.7,0,1,.3.3.7.4,1.1.3,0,0,.3,0,.3-.2v2c-4.2-1.4-7-2.5-13.8-2v3.5c4-.6,2.8-.5,6.9-.5s9.2,1.4,12.9,2.9l-.3-.3c-1.3-.8-2.5-1.8-3.8-2.6-.2,0-.3-.3-.3-.4v-3.3s0-.3.2-.3c1.2-.8,2.5-1.6,3.7-2.5,1.2.8,2.4,1.6,3.6,2.4.3.2.3.3.3.6v6.4c-7.9,1.6-15.4,3.2-22.3,7h.2c.4,0,.8-.3,1.3-.3,5.3-1.4,10.6-2.3,16.1-3.2,3.7-.6,7.6-1.1,11.4-1.2h5.3v-3.6c-1.4,0-2.7,0-4.1.2"/>
        <path class="st4" d="M46.1,52.6c-3.7,0-7,0-10.6.2-4.7.3-12.1,1.7-16.5,2.3-3.5.5-4.3.8-7.3,1.4-.5,0-1,.3-1.5.4h36.1v-4.3h0Z"/>
        <path class="st4" d="M14.3,48.3c.4.3.8.6,1,1,0,.3.2.6,0,.9,0,.4,0,.8-.2,1.2,0,.4-.2.8-.2,1.4s.3.9.6,1.3h0c-.3,0-.3-.2-.5-.3-.8-.5-1.3-1.2-1.4-2.1,0-.6,0-1.1-.3-1.7,0-.2,0-.3-.2-.5v2c0,.4.2.8.4,1.2v.2h-.2c-.3-.2-.7-.5-.9-.8-.3-.3-.4-.6-.5-.9-.2-.7,0-1.4,0-2s.2-.8,0-1.3v-.3h.3c.4.2.8.3,1.3.4,0,0,.2,0,.2.2"/>
        <path class="st4" d="M17.7,48.5c-.2.3-.3.7-.7.9-.3.2-.5.3-.8.3.4-.4.8-.9.9-1.5-.2.3-.4.7-.7.9-.2.2-.3.3-.4.3h0c-.2-.5-.2-1,0-1.5v-.3c.3-.3.6-.7,1.1-.7h1.1q.3,0,.2.3c-.2.3-.3.8-.4,1.1l-.2.2"/>
        <path class="st4" d="M18.8,50.1c-.3.7-.5,1.4-.8,2.1-.4.7-.9,1.2-1.9,1.3.6-.5,1.1-1.2,1.2-2-.3.3-.4.7-.7,1-.3.3-.4.5-.7.7h0c-.3-.9-.2-1.8.6-2.5.6-.6,1.4-.8,2.2-.7h.3"/>
        <path class="st4" d="M38,35.9v.3c0,.2.2.3.3.5v.8c.3.3.3.8.3,1.1s.2.4.4.5h5.1c.3,0,.4-.2.4-.5v-.8c.3-.3.3-.7.3-1.1v-.4c.5-.3.3-.8.3-1.2,0-.2,0-.3.2-.4,0,0,0-.3.2-.3,0,0-.3-.2-.3-.2-1.7,0-3.4-.6-5.1-.2h0c-.8,0-1.5,0-2.3.2-.3,0-.5.2-.3.3.4.3.3.8.3,1.3M40.7,36.4c.3-.5.7-1,1-1.6.3.7.8,1.3,1,2,.3.6,0,1-.5,1.4s-1,.2-1.4-.3-.3-.9,0-1.4"/>
      </g>
      <g>
        <g>
          <path class="st5" d="M53.1,51.7c0,.3-.3.3-.8.3h-3.9c-.3,0-.3-.3-.3-.4v-1.4c0-3,.2-12.1.3-14.9,0-.8.5-1.3,1.4-1.3h4.3c4,.2,5.6,1,6.6,1.8,1.4,1,2.3,2.7,2.3,4.7s-.8,3.7-2.5,5c-1.8,1.4-3.8,1.5-5.5,1.5h-1.7v4.8h-.2ZM54.3,43.6c2.7,0,3.8-1.5,3.8-3.3,0-3.1-3.3-3.1-3.8-3.1h-.8v3.1c0,2.2-.2,2.5-.2,3.1h1v.2Z"/>
          <path class="st1" d="M81.6,34.1c.8,0,.9.2.9.8,0,3-.3,7.7-.4,10.7l-.2,5.3c0,1,0,1.3-1.3,1.3h-2.6q-.5,0-1.9-2.1c-.5-.7-6.4-8.1-7.3-9.4,0,.2,0,10.7-.2,11.2,0,.3-.3.3-1.9.3s-2.1,0-2.3-.2,0-.6,0-.8c0-.8,0-5.5.2-6.8,0-1.7.3-9.1.3-9.8,0-.4.2-.5.8-.6h1.4c2,0,2.4,0,2.6.2.6.3,5.9,7.1,5.9,7.3,1.6,2.3,1.8,2.5,2.2,3,0-1.5.3-9.3.3-9.7,0-.6.3-.7,1.5-.7h1.9,0Z"/>
          <path class="st6" d="M95.6,34.6c0,.3,0,1-.2,1.9,0,.7-.2.9-.6.9s-.8-.2-1.8-.2c-1.6,0-3.1.5-3.1,1.5s.3.9,2.1,2.5c2.6,2.3,3.9,3.3,3.9,5.6s-2.9,5.8-7.6,5.8-2.4,0-3.7-.3c-.8,0-.8-.3-.8-.9s.2-2,.3-2.4c0-.3.3-.3.5-.3.4,0,2.1.4,3.5.4s2.6-.5,2.6-1.8-.3-1-2.5-3.1c-2.6-2.5-3.3-3.5-3.3-5.1s1.9-5.3,7.9-5.3,3,0,3,.7Z"/>
          <path class="st4" d="M113.1,49.9c.5.5.8.9.8,1.1,0,.3-.3.4-1.6.8-.4.2-2.5.8-2.7.8s-.8-.6-.9-.8c-.7-1-2.9-3.8-4.2-5.3h-1.4c0,.7,0,4.9-.3,5.2s-2.4.3-3,.3c-1.6,0-1.8,0-1.8-1.3v-6.5c0-3.9,0-5,.3-8.5,0-1.4,0-1.8.8-1.9h3.7c3.6,0,5.4.3,7.2,1.4,1.2.8,2.3,2.3,2.3,4.4s-1.4,4.3-3.7,5.6c.3.3,4,4,4.5,4.5h0v.2h0ZM103.1,40.3v3.1c3.1,0,4.4-2,4.4-3.5s-.4-2.6-2.9-2.6-.9,0-1.3.2v2.8h-.3Z"/>
        </g>
        <g>
          <path class="st0" d="M50.2,54.3h0v.2h0l-.2.2s-.2,0-.3.2c0,0-.2,0-.3.2,0,0-.2,0-.3.2,0,0-.2,0-.3.2h-.3v.2h0v.4h0v.2h-.2c-.2,0-.3-.3-.3-.8v-1.4h-.3v-.2h0c0-.2,0,0,.2,0h1.9v.3h0l.3.3ZM49.3,54.1h-.5v.2h0v.2h.6l.2-.2c0,0,0,0,0-.2v-.2c0-.2,0,0,0,0h-.5v.3h.3Z"/>
          <path class="st0" d="M51.9,54.8h-.2c-.2,0-.3,0-.4.2h0s0,0,0,.2v.7h-.2v-.3h0v-.2h0v-.8h.2c.2,0,0,0,0,0h0v.6h0v.2-.3s0-.2.2-.2l.2-.2h.7l-.3.3-.2-.2Z"/>
          <path class="st0" d="M54.1,54.8h-.8v.4c0,.2,0,0-.2.2l-.2.2h-.8v-.8s0-.2.2-.3c0,0,0-.2.2-.2h0l.2-.2h.3c0,0,0,0,0,0h1.1v.7h0ZM52.8,55.2h0v-.2h0v.2h0v.3h.3l-.3-.3h0Z"/>
          <path class="st0" d="M54.7,55v1.8h-.8v-.2h0l.2.2h.7c0,0,0,0,0,0v-.3h0v-.4h-.7c0,0,0,0,0,0h0v-.8s0-.2.2-.2l.2-.2h.3c.2,0,0,0,0,0h.2v.3h0v.2h0l-.2-.3ZM54.4,55.3h0v-.2h0v-.3h0l-.2.2s0,.2-.2.3h0v.2h.4v-.3.2Z"/>
          <path class="st0" d="M56.5,54.8h-.2c-.2,0-.3,0-.4.2h0v.8h-.2v-.3h0v-.2h0v-.8h0v.6h0v.2-.3s0-.2.2-.2l.2-.2h.3c0,0,0,0,0,0h.3l-.2.3v-.2Z"/>
          <path class="st0" d="M58.6,54.9h0s0,.2-.2.3l-.2.2h0s0,0,0,0h-.3v-.2h0v.2h-.3v-1l.2-.2s.2-.2.3-.2h.3v.2h0v.3h0v.3h0s.2,0,.2,0c0,0,.2,0,.2-.2s0,0,0,0h0l.2.4h-.2ZM57.4,54.7h-.2l-.2.2c0,0,0,.2-.2.3h0v.2h0v.3c0,0,0,0,0,0h0l.2-.2v-.5h0v-.2c0,0,.3,0,.3,0Z"/>
          <path class="st0" d="M61.8,55h0s0,0,0,.2h0s0,0,0,.2h0v.2h-.3c0,0,0,0,0,0h0v-.5h0v-.2h0v.8h0s0,0,0,0h0v-.8h0c0,.3,0,0-.2.3,0,0,0,.2-.2.3h0v.2h-.2v-.3h0v-.3h0v-.6h0v-.2h0v.9h0v-.2h0s0-.2.2-.2h.3c0,0,0,0,0,.2h0v.3h0v.2h0v-.2h0v-.4h0v.8h.3s0,0,0-.2h0s0,0,0-.2h0l.5-.3h-.5Z"/>
          <path class="st0" d="M63.1,55.6h0v.2h-.5q0,0,0,0c0,0,0,0,0-.2v-.2l-.2.2-.2.2c0,0,0,0-.2,0h-.2c0,0,0,0,0,0h0v-.2h0v-.6s0-.2.2-.3,0-.2.2-.2l.2-.2h.2v.2h0v.5h0c0,.2,0,0,0,0h.2q0,0,0,0h0l.6.5h-.3ZM62.2,54.9v-.2h0v.7h0v.2h.2v-.2c0-.2,0,0,0,0h0v-.3h0l-.3-.2h0Z"/>
          <path class="st0" d="M64.4,55.6v-1.4h0v-.2h.2v.3c0,0,0,.2,0,.2,0,0,0,.2.2.3.2,0,0,.2.2.3s0,.2.2.3c0,0,0,.2.2.3v-.8h0v-.8h0s0,0,0,0h0v.3h0v.2h0v1.7h0v.2h0v-.3c0-.2-.3-.3-.3-.5,0-.2-.3-.3-.3-.6v1.1h0v.2h0v-.3h0v-.2h0-.3Z"/>
          <path class="st0" d="M69.3,55.1h0s0,.2-.2.3l-.2.2h-.5c0,0,0,0,0,0h-.2v-.2h0s0,0,0,.2h0v.2h-.6v-.3h0v-.9l.2-.2.2-.2h.5v.5c0,0,0,0,0,0h.3c.2,0,0,0,.2-.2l.2-.2h0l.3.8h-.2ZM67.8,54.9h-.2l-.2.2v.2l-.2.2v.3h.3c.2,0,0,0,.2-.2v-.7h0Z"/>
          <path class="st0" d="M71,54.8h0s0,.3-.2.3-.2.2-.2.3c0,0-.2.2-.3.2,0,0-.2,0-.3.2h-1.1v-.8c0-.2.2-.3.3-.4h0v-.2h.3v.2h0v.3h0v.2h0v.3h.7s.2,0,.2-.2c0,0,.2,0,.2-.2l.2-.2v-.2h0v.3h.2Z"/>
          <path class="st0" d="M72.1,55.1h0v.3c0,.2,0,0-.2.2l-.2.2s-.2,0-.2.2h-.8v-.7h0v-.4c0,0,0,0,0,0v-.2h.2v.8c0,0,0,0,0,0h.2s.2,0,.3-.2h0l.2-.2h0s0,0,0-.2h.5ZM71.2,53.8h0v.2h-.2v-.2h.2Z"/>
          <path class="st0" d="M73.9,54.8h-.6v.2h0v.2h0l-.2.2h-.6v-.4h0v-.6l.2-.2h1.2v.7ZM72.1,55.8h.3l.2-.2c.2-.2,0-.2,0-.3v-.3c0,0,0,0,0,0h0v.6h0c0,.2,0,0,0,0h-.5,0Z"/>
          <path class="st0" d="M76.2,55h0v.3l-.2.2h-.8v-.7h0c0,.2,0,.3-.2.3h0v.2h0c-.2,0-.2-.2-.2-.3v-.9h0v.2h0v.2h0v.2h0s0,0,0,0h0v-.2h0v-.2h.4v.5h0v.2h0c0,.2,0,0,0,0h.3c.2,0,0,0,.2-.2,0,0,.2,0,.2-.2s0,0,0,0h0l.5.4h-.3Z"/>
          <path class="st0" d="M77.9,54.8h0v.5s0,.2-.2.3l-.2.2h-.5v-.3l-.2.2-.2.2h-.5v-1c0-.2,0,0,0,0h.7v.2h0v.5h.2v-.4h0v-.2h.8ZM76.6,54.9h0v.8h0v-.8h-.2.2Z"/>
          <path class="st0" d="M78.8,55.5h0l-.2.2h-.8l-.2-.2v-2.2h0v2c0,0,0,0,.2,0h.8v.3Z"/>
          <path class="st0" d="M82.2,55.5l-.2.2-.2.2c-.2.2-.2,0-.3,0h-.4l-.2-.2v-.5h0v.2h0c-.2.2-.3.3-.4.3h-.5v-.6c0,0,0-.2.2-.3,0,0,0-.2.2-.2l.2-.2.2-.2h.2c.2,0,0,0,0,0h0v-.9h.3v.2h0v1.3h0v.3h0v.2h.8l.2.3h0ZM80.9,54.8h-.2c-.2,0,0,0-.2.2,0,0,0,.2-.2.3v.4h0l.2-.2.2-.2.2-.2c.2-.2,0,0,0-.2h0l-.2-.3h.2Z"/>
          <path class="st0" d="M83.5,55.4v.3l-.2.2h-1.2v-1.1h0v-.2h.6v.4s0,.2-.2.2c0,0-.2,0-.3.2,0,0-.2,0-.3.2h.6l.2-.2h.7ZM82.7,54.8h0v.5l.2-.2c.2-.2,0,0,.2,0h0v-.2h-.3v-.2Z"/>
          <path class="st0" d="M86.2,54.2h-.3v-.2h-.6v.2h.2c.3,0,.4.2.5.3s.2.2.2.3,0,0,0,0h0v.2h-1.4.9-.3s-.3,0-.4-.2h-.2l-.2-.2s-.2-.3-.2-.4v-.2l.2-.2.2-.2h1.3v.2h0l.3.3h-.2Z"/>
          <path class="st0" d="M88.6,54.9h0s0,.2-.2.3-.2.2-.2.2h0c0,.2,0,0,0,0h-.3v-.2h0v.2h0l-.2.2h-.4v-1l.2-.2s.2-.2.3-.2h.3c0,0,0,0,0,0h0v.3h0v.3h0s.2,0,.2,0c0,0,.2,0,.2-.2h0l.3.5h0ZM87.3,54.7h-.2c-.1,0-.2,0-.2.2s0,.2-.2.3h0v.2h0v.3c0,0,0,0,0,0h0l.2-.2c.2-.2,0,0,0-.2v-.3h0v-.2h.3Z"/>
          <path class="st0" d="M90.8,55.3h0v.2h-1.2v-.7h0v.6l-.2.2h-.3v-.9h0v-.2h0v.8h0v-.2h0c0-.2,0-.3.2-.3,0,0,0-.2.2-.2h.3v.6h1.4-.3Z"/>
          <path class="st0" d="M92.4,55h0s0,.3-.2.3c0,0-.2.2-.3.3,0,0-.2.2-.3.2,0,0-.2,0-.3.2h-.5c-.2,0-.3,0-.4-.2,0,0-.2-.3-.2-.4v-.8s0-.2.2-.3h.5v.6s-.2.2-.3.3h-.2l-.2.2h.8s.2,0,.3-.2l.2-.2h0q0-.2.2-.2c.2,0,0,0,0,0h.6ZM91.2,54.8h0v.4h.3v-.3h-.3Z"/>
          <path class="st0" d="M94.2,54.9h0s0,.2-.2.3-.2.2-.2.2h0c0,.2,0,0,0,0h-.3v-.2h0v.2h0l-.2.2c-.2.2,0,0,0,0h-.3v-1l.2-.2s.2-.2.3-.2h.3c0,0,0,0,0,0h0v.3h0v.3h.2c0,0,.2,0,.2-.3h0l.3.5h-.2ZM92.9,54.7h-.2c-.1,0-.2,0-.2.2s0,.2-.2.3h0v.2h0v.3c0,0,0,0,0,0h0l.2-.2c.2-.2,0,0,0-.2v-.3h0v-.2h.3Z"/>
          <path class="st0" d="M97.2,55.4h0s-.2,0-.3.2h-.5c-.2,0,0,0,0,0v-.4h0s0,.3-.2.4v.3h0v-.7h0v.2h0v.2h0v-.3h0v-1h0c0-.2,0,0,0,0q.2,0,.2.3c0,.3,0,0,0,0h0v.6h0s0,0,.2-.2,0,0,.2-.2,0,0,.2,0h.3v.4c0,0,0,0,0,0h0v.3h0v-.2h0v-.4h.3v.8h.5l-.3-.2h-.6Z"/>
          <path class="st0" d="M98.9,54.9h0s0,.2-.2.3c0,0,0,.2-.2.3,0,0-.2.2-.3.3s-.2.2-.3.2-.2,0-.3.2h-.7v-1.2s0-.2.2-.3l.2-.2h.2v.7l-.2.2c-.2.2,0,0,0,0h-.2s0,0,0,0h.7s0-.2.2-.3,0,0,0,0h0s0-.2.2-.2,0,0,0,0h0l.4.3.2-.2ZM97.7,54.8h0s0,0,0,0v.5h0v-.2h0s0-.3,0-.3Z"/>
          <path class="st0" d="M101.2,55h0v.3l-.2.2h-.8v-.7h0c0,.1,0,.2-.2.3h0v.2h0c-.2,0-.2-.2-.2-.3v-.9h0v.2h0v.2h0v.2h0s0,0,0,0h0v-.2h0v-.2h.4v.5h0v.2h0c0,.2,0,0,0,0h.3l.2-.2s.2,0,.2-.2,0,0,0,0h0l.4.4h-.3Z"/>
          <path class="st0" d="M102.4,54.8h-.9v.5h0v.2h0v-.7h0v-.2h-.3c0-.2,0,0,0,0h.3v-.2h0v-.4h0s0,0,0,0h0v.8h.9v.2-.3Z"/>
          <path class="st0" d="M103.1,55.1h0v.2h0v.2c0,.1,0,.2-.2.2-.2,0,0,0-.2.2s0,0-.2,0h-.7c-.2,0,0,0,0-.2v-.8l.2-.2c.2-.2,0,0,.2,0h.8c.2,0,0,0,0,.2v.2h0v.2ZM102.9,55.1v-.3h-.3c-.2,0,0,0,0,0h-.2v.2h0v.4h0s0,0,0,0h.3c.2,0,0,0,.2-.2v-.3h0l-.2.2h0Z"/>
          <path class="st0" d="M107.1,56h-.5c-.2-.2,0-.2-.2-.3h0l-.2-.2s-.2,0-.2-.2h-.3v-.2c0-.2,0,0,0,0h.4v-.2h-.7v.3h0v.8c0,0,0,0,0,0h0v.2h0v.2h-.2v-.2h0v-.5h0v-.9h-.2c0-.1,0-.2.2-.3h1.7s.2.3.2.4v.3s-.2.2-.3.3c0,0-.2,0-.3.2h1l-.5-.2-.2.3Z"/>
          <path class="st0" d="M109.9,54.8h0s0,.2-.2.3c0,0,0,.2-.2.3,0,0,0,.2-.2.3,0,0-.2,0-.2.2s-.2,0-.2,0h-.3v-.4h0v.2h0v.2h-.7v-.3h0v-.7h0v.8h.3v-.3h0v-.2h0v.9h.3v-.5l.2-.2h0l.8-.3h.3Z"/>
          <path class="st0" d="M110.8,54.8h0c-.2,0-.3,0-.4.2h0s0,0,0,.2v.7h-.2v-.3h0v-.2h0v-.8h.2c.2,0,0,0,0,0h0v.6h0v.2-.3c0,0,0-.2.2-.2s0,0,.2-.2h.7l-.3.3-.3-.2Z"/>
          <path class="st0" d="M113,54.8h0v.5s0,.2-.2.3l-.2.2h-.6v-.2l-.2.2-.2.2h-.5v-1c0-.2,0,0,0,0h.7v.2h0v.2h0v.5h0s0,0,0,0h.2c0-.1,0-.2.2-.3.2,0,0,0,0-.2h0v-.2h0l.5-.2.3-.2ZM111.6,54.9h0v.8h0v-.8h-.2.2Z"/>
          <path class="st0" d="M113.9,55.5h0l-.2.2h-.8l-.2-.2v-2.2h0v2c0,0,0,0,.2,0h.8v.3Z"/>
        </g>
      </g>
    </g>
  </g>
</svg>