<?xml version="1.0" encoding="UTF-8"?>
<svg id="Layer_2" xmlns="http://www.w3.org/2000/svg" version="1.1" viewBox="0 0 134.7 27.8">
  <!-- Generator: Adobe Illustrator 29.2.1, SVG Export Plug-In . SVG Version: 2.1.0 Build 116)  -->
  <defs>
    <style>
      .st0 {
        fill: none;
      }

      .st1 {
        fill: #58595b;
      }

      .st2 {
        fill: #ffcf00;
      }

      .st3 {
        fill: #00cf00;
      }

      .st4 {
        fill: red;
      }

      .st5 {
        fill: #173dff;
      }
    </style>
  </defs>
  <g id="Layer_1-2">
    <rect class="st0" y="-27.8" width="134.7" height="100.1"/>
    <g>
      <g>
        <path class="st3" d="M41.2,17.3V6.3c.9,0,1.8,0,2.7,0,.5,0,.6-.2.7-.6h-5.9c-.2,0-.4,0-.5,0-.3,0-.7,0-1,0,0,.5.2.6.7.6.8,0,1.6,0,2.4,0,0,3.3,0,8.6,0,10.6,0,.4-.2.5-.6.6-1.1,0-2.2.2-3.3.4-1,.1-2,.3-3.1.4v-6.8c.1,0,.2.1.3.2.6.3,1.2.2,1.6-.3.4-.5.3-1-.3-1.5-.8-.6-1.6-1-2.4-1.6-.2-.1-.3-.4-.4-.6,0-.5,0-1.1,0-1.7-.1-.7-1.1-1.1-1.8-.6-.3.2-.5.6-.7,1-.7-.5-1.5-1-2.2-1.5-.8-.5-1.2-.5-2,0-2.4,1.6-4.8,3.2-7.2,4.8-.2.1-.3.2-.5.4-.4.4-.4.9-.1,1.3.3.4.9.5,1.4.4.1,0,.3-.1.5-.2v2.4c-5.3-1.8-8.8-3.2-17.5-2.5v4.4c5.1-.8,3.6-.7,8.7-.6,5.1,0,11.6,1.8,16.3,3.6,0-.1-.2-.2-.3-.3-1.6-1.1-3.2-2.2-4.8-3.3-.2-.1-.4-.3-.4-.5,0-2.6,0-1.7,0-4.2,0-.2,0-.4.2-.5,1.5-1.1,3.1-2.1,4.7-3.1,1.5,1,3,2,4.5,3,.3.2.4.4.4.8,0,3.7,0,3.8,0,7.5v.5c-10,2-19.4,4.1-28.2,8.9.2,0,.2,0,.2,0,.5-.2,1.1-.3,1.6-.4,6.7-1.8,13.4-2.9,20.3-4,4.8-.8,9.6-1.3,14.4-1.5,2.3,0,4.5,0,6.8,0v-4.5c-1.7,0-3.4,0-5.1.2"/>
        <path class="st3" d="M46.3,23.2c-4.7,0-8.8,0-13.4.2-5.9.3-15.3,2.1-20.9,2.9-4.3.6-5.5.9-9.2,1.7-.7.2-1.3.4-2,.6,0,0,0,0,0,0h45.5v-5.5h0Z"/>
        <path class="st3" d="M6.2,17.9c.6.3,1.1.7,1.3,1.3.1.4.2.8.2,1.2,0,.5-.1,1-.2,1.5-.1.6-.2,1.1-.2,1.7,0,.7.3,1.2.8,1.6,0,0,0,0,.1,0-.3,0-.5-.2-.7-.3-1-.7-1.6-1.5-1.8-2.7,0-.7-.1-1.4-.3-2.1,0-.2-.1-.4-.2-.6,0,.9,0,1.7,0,2.6,0,.5.2,1,.5,1.5,0,0,0,.1,0,.2,0,0-.1,0-.2,0-.5-.2-.9-.6-1.2-1-.3-.3-.5-.8-.7-1.2-.3-.9,0-1.7.2-2.5.1-.5.2-1.1.1-1.6,0-.1,0-.2,0-.3h0c.1,0,.3,0,.4,0,.5.2,1.1.3,1.6.5,0,0,.2,0,.2.2"/>
        <path class="st3" d="M10.4,18c-.2.5-.5.9-.9,1.2-.3.2-.7.3-1.1.4.6-.5,1-1.1,1.1-1.9-.3.4-.5.8-.9,1.2-.2.2-.4.3-.6.5,0,0-.1,0-.1,0-.2-.7-.2-1.3.1-1.9,0-.1,0-.2,0-.3.3-.5.8-.8,1.4-.9,0,0,0,0,0,0,.2,0,.5,0,.7-.1.2,0,.4,0,.6,0,.3,0,.4.1.2.4-.2.5-.3,1-.5,1.4,0,0,0,.2-.2.2"/>
        <path class="st3" d="M11.7,20.1c-.5.9-.7,1.8-1.1,2.7-.5.9-1.2,1.5-2.3,1.6.8-.7,1.4-1.5,1.5-2.5-.3.5-.6.9-.9,1.3-.3.3-.6.6-.9.8,0,0-.1,0-.2,0-.4-1.2-.2-2.3.7-3.2.8-.8,1.8-1,2.8-.8.1,0,.2,0,.3,0,0,0,0,0,0,0"/>
        <path class="st3" d="M36.1,2.2c0,.1,0,.3.2.5,0,.2.2.4.3.6,0,.4,0,.9.1,1.1.4.4.3.9.4,1.4,0,.4.2.6.5.6h6.4c.4,0,.5-.2.5-.6s0-.8.1-1c.5-.4.3-.9.4-1.4,0-.2,0-.5,0-.5.6-.4.3-1,.4-1.5,0-.2.1-.4.2-.5,0-.1.2-.3.2-.4-.1,0-.3-.2-.5-.2-2.1,0-4.2-.8-6.4-.2,0,0-.1,0-.2,0-1,0-1.9.1-2.9.2-.3,0-.6.2-.4.5.6.5.4,1,.5,1.6M39.5,2.9c.4-.7.8-1.3,1.3-2,.5.9.9,1.6,1.3,2.4.3.7,0,1.3-.7,1.7s-1.3.3-1.8-.3c-.5-.5-.4-1.2-.1-1.8"/>
      </g>
      <g>
        <g>
          <path class="st4" d="M55.1,22.2c0,.3-.5.3-1.1.4-.7,0-2,0-2.2,0-.4,0-2.4,0-2.6,0-.3,0-.3-.4-.4-.6,0-.5,0-.8,0-1.7,0-3.7.2-15.4.4-18.8,0-1.6,0-1.7,1.8-1.7s4.7,0,5.4,0c5,.2,7.1,1.2,8.4,2.2,1.7,1.2,2.9,3.4,2.9,5.9s-1,4.7-3.2,6.3c-2.3,1.7-4.8,1.9-7,1.9s-1.6,0-2.2,0c0,.8,0,5.5-.1,6h0ZM56.7,12c3.5,0,4.9-2,4.9-4.2,0-3.9-4.2-3.9-4.8-3.9s-.7,0-1.1,0c0,1.2,0,2.7,0,4-.1,2.8-.2,3.1-.2,3.9.5,0,.8.1,1.3.1h0Z"/>
          <path class="st2" d="M91.1-.2c.9,0,1.2.2,1.2,1.1,0,3.8-.4,9.8-.6,13.5l-.2,6.7c0,1.2,0,1.6-1.6,1.6s-3,0-3.3,0c-.6,0-.7-.1-2.4-2.7-.6-.9-8-10.3-9.2-11.9,0,.2,0,13.5-.2,14.2,0,.3-.3.4-2.3.4s-2.7,0-2.8-.2c-.1-.1-.1-.8-.1-1,0-1,.1-6.9.2-8.5,0-2.1.3-11.4.4-12.4,0-.5.2-.7,1.1-.7.2,0,1.4,0,1.7,0,2.5,0,2.9,0,3.3.2.7.4,7.4,9,7.6,9.2,2.1,2.8,2.3,3.2,2.8,3.8,0-1.9.3-11.8.4-12.2,0-.8.4-.9,1.9-.9h2.3s0,0,0,0Z"/>
          <path class="st5" d="M108.7.6c0,.5,0,1.3-.2,2.3,0,.8-.2,1.2-.8,1.2s-1-.2-2.3-.2c-2,0-3.9.6-3.9,1.9s.4,1.2,2.6,3.1c3.3,2.8,4.9,4.2,4.9,7s-3.7,7.3-9.7,7.3-3-.1-4.7-.3c-1,0-1.1-.4-1.1-1.2s.2-2.6.3-3c0-.3.3-.3.7-.3.5,0,2.6.5,4.4.5s3.3-.7,3.3-2.2-.3-1.2-3.2-4c-3.3-3.2-4.2-4.4-4.2-6.5s2.3-6.6,10-6.6,3.7,0,3.7.9Z"/>
          <path class="st3" d="M130.8,19.9c.6.7,1,1.2,1,1.4,0,.4-.5.6-2.1,1.1-.5.2-3.1,1-3.4,1s-.9-.7-1.2-1c-.8-1.2-3.7-4.8-5.3-6.7-1.2,0-1.2,0-1.8,0,0,.8-.1,6.3-.4,6.6-.3.3-3,.3-3.8.3-2.1,0-2.2,0-2.2-1.6s.1-7.1.1-8.2c0-4.9.1-6.3.3-10.7,0-1.8,0-2.3,1.1-2.4,1,0,4.6-.1,4.7-.1,4.5,0,6.9.4,9.1,1.9,1.5,1,2.9,2.9,2.9,5.6s-1.8,5.5-4.7,7.1c.3.3,5.1,5,5.6,5.7h0ZM118.2,7.6c0,3,0,3.4-.1,4,3.8,0,5.5-2.4,5.5-4.4s-.5-3.3-3.7-3.3-1.2.1-1.7.2c0,0,0,3.5,0,3.5Z"/>
        </g>
        <g>
          <path class="st1" d="M51.5,25.3s0,0,0,0c0,0,0,0,0,.1,0,0,0,0,0,.1,0,0,0,0,0,0,0,0-.1.1-.2.2,0,0-.2.1-.3.2,0,0-.2.1-.3.2-.1,0-.2.1-.3.2-.1,0-.2.1-.4.2-.1,0-.3.1-.4.2h0v.2h0c0,.2,0,.2,0,.3v.3h0c0,.2,0,.2,0,.3,0,0,0,0-.2,0-.2,0-.3-.3-.3-1v-.2c0,0,0-.1,0-.2,0,0,0-.1,0-.2,0,0,0-.2,0-.3,0,0,0-.2,0-.2,0,0,0-.1,0-.2v-.2c0,0,.1-.1.1-.2,0,0,0,0-.1,0,0,0,0,0-.1,0,0,0,0,0,0,0h0s0,0-.1,0c0,0,0,0,0-.1s0,0,0-.1c0,0,0,0,.1-.1s.1,0,.2,0c0,0,.2,0,.3,0,0,0,.1,0,.2,0,0,0,.2,0,.2,0s.2,0,.2,0h.6c0,0,.1,0,.2,0,0,0,.1,0,.2,0,.2,0,.3,0,.3.2.1,0,.2.2.2.3h0ZM50.3,25.1c0,0-.2,0-.3,0-.1,0-.2,0-.4,0,0,0,0,0,0,.2,0,0,0,0,0,0,0,0,0,0,0,.1s0,0,0,.1c0,0,0,0,0,0,0,0,0,0,0,0,0,0,0,0,0,0,0,0,0,0,0,0,0,0,0,0,0,0,0,0,0,0,0,.1,0,0,0,0,0,0h0c0,.1,0,0,.2,0s.1,0,.2,0c0,0,.1,0,.2,0,0,0,0,0,.1,0,0,0,0,0,0,0,0,0,0,0,0,0s0,0,0,0,0,0,0,0c0,0,.1,0,.2-.1,0,0,.1-.1.2-.2s0-.1.1-.2,0-.1,0-.2,0,0,0,0c0,0-.2,0-.3,0,0,0-.2,0-.3,0h0Z"/>
          <path class="st1" d="M53.6,26.1h0c0,0,0,0,0,.1,0,0,0,0,0,0s0,0,0,0h-.2c-.2,0-.4,0-.6.2,0,0,0,0-.1.1,0,0,0,0-.1.2,0,0,0,.1-.1.2,0,0,0,.1,0,.2,0,0,0,.1,0,.2,0,0,0,.1,0,.2,0,0,0,0,0,0,0,0,0,0,0,0,0,0,0,0,0,0,0,0,0,0,0,0,0,0,0,0,0,0h0c0,0-.1,0-.2-.1,0,0,0-.2,0-.3h0v-.2h0v-.2c0,0,0-.1,0-.2,0,0,0-.2,0-.3,0,0,0-.2,0-.3,0,0,0-.2,0-.2,0,0,0-.1,0-.2,0,0,0,0,.2,0s0,0,0,0c0,0,0,0,0,0,0,0,0,0,0,0,0,0,0,0,0,0h0v.2s0,0,0,.2c0,0,0,.1,0,.2,0,0,0,.1,0,.2,0,0,0,0,0,.1,0,0,0,0,0,.1,0,0,0-.2.2-.3,0,0,.1-.2.2-.2,0,0,.1-.2.2-.2,0,0,.2-.1.2-.2,0,0,.1,0,.2,0,0,0,0,0,.1,0s0,0,.2,0c0,0,0,0,.2,0,0,0,0,0,.1,0,0,0,0,0,0,0h0Z"/>
          <path class="st1" d="M56.3,26.1s0,0,0,0c0,0,0,0,0,0,0,0,0,0,0,0s0,0,0,0c0,0-.1,0-.2,0s-.2,0-.3,0h-.1s0,0-.1,0c0,0,0,0-.1,0s0,0-.1,0c0,0,0,0,0,0,0,0,0,0,0,0h0c0,.2,0,.3,0,.4s0,.2-.1.2-.1.2-.2.2c0,0-.1.1-.2.2,0,0-.1,0-.2,0,0,0-.1,0-.2,0s-.1,0-.2,0c0,0-.2,0-.2,0s-.1,0-.2,0c0,0-.1,0-.2-.1s0,0,0-.2c0,0,0-.1,0-.2,0-.1,0-.2,0-.3,0,0,0-.2.1-.3,0,0,0-.2.2-.3,0,0,.1-.2.2-.3,0,0,0,0,.1-.2,0,0,.1,0,.2-.1,0,0,.1,0,.2,0s.1,0,.2,0,0,0,.1,0,0,0,0,0c0,0,0,0,0,0,0,0,0,0,0,0h0s0,0,0,0,0,0,.2,0,.1,0,.2,0c0,0,.1,0,.2,0h.2s.1,0,.2,0c0,0,.1,0,.2,0,0,0,.1,0,.2,0,0,0,0,0,0,0h0s0,0,0,0ZM54.8,26.5h0c0-.1,0-.2,0-.2,0,0,0,0,0,0,0,0,0,0,0,0,0,0,0,0-.1,0,0,0,0,0,0,0,0,0,0,0,0,0h0s0,0,0,0c0,0,0,0,0,0s0,0,0,0,0,0,0,0c0,0,0,0,0,0,0,0,0,0,0,0,0,0,0,0,0,.1s0,0,0,.1c0,0,0,0,0,.2,0,0,0,.1,0,.2h0c0,0,0,.1,0,.1,0,0,0,0,0,0,0,0,0,0,0,0h.2s0,0,.1,0c0,0,0,0,.1,0,0,0,0,0,.1,0,0,0,0,0,0,0s0,0,0,0c0,0,0,0,0,0s0,0,0,0c0,0,0,0,0,0,0,0,0,0,0,0h0c0-.1,0-.2,0-.2Z"/>
          <path class="st1" d="M57.1,26.3v.2c0,0,0,.2,0,.3,0,0,0,.2,0,.3s0,.2,0,.3v.3c0,.1-.1.2-.1.3,0,0,0,.2-.1.2,0,0,0,.1-.2.2,0,0-.1,0-.2.1,0,0-.2,0-.2,0s-.2,0-.2,0-.2,0-.2,0c0,0-.1,0-.2-.1,0,0-.1,0-.2-.1s0,0-.1-.2c0,0,0,0,0-.1,0,0,0-.1.1-.1s0,0,0,0c0,0,0,0,0,0,0,0,0,0,0,0h0c0,0,.1.1.2.2,0,0,.1,0,.2,0,0,0,.1,0,.2,0,0,0,.1,0,.2,0s.1,0,.2,0,0,0,.1-.2,0-.1,0-.2c0,0,0-.2,0-.2h0c0,0,0-.2,0-.3,0,0,0-.2,0-.3,0,0-.1.1-.2.2,0,0-.2,0-.2.1,0,0-.2,0-.2,0s-.2,0-.2,0,0,0,0,0c0,0,0,0-.1,0,0,0,0,0,0,0,0,0,0,0,0,0,0,0,0-.2,0-.3,0,0,0-.2,0-.3,0,0,0-.2.1-.3s0-.2.1-.2c0,0,.1-.2.2-.2,0,0,.2-.1.2-.2,0,0,.2,0,.2-.1s.1,0,.2,0,0,0,.2,0c0,0,0,0,.1,0s0,0,.1,0c0,0,0,0,0,.1h0v.2s0,0,0,.1h0c0,.1,0,.1,0,.1ZM56.7,26.6s0,0,0-.1c0,0,0,0,0-.1,0,0,0,0,0-.2v-.2s0,0,0,0c0,0,0,0,0,0s0,0-.1,0,0,0-.2.2-.1.1-.2.2c0,0-.1.2-.2.3,0,0,0,0,0,0,0,0,0,0,0,.1,0,0,0,0,0,.1,0,0,0,0,0,.1,0,0,.2,0,.2,0,0,0,.2,0,.2,0,0,0,0,0,.1,0,0,0,0,0,0,0s0,0,0,0,0,0,0,0h0Z"/>
          <path class="st1" d="M59.4,26.1h0c0,0,0,0,0,.1,0,0,0,0,0,0s0,0,0,0h-.2c-.2,0-.4,0-.6.2,0,0,0,0-.1.1,0,0,0,0-.1.2,0,0,0,.1-.1.2,0,0,0,.1,0,.2,0,0,0,.1,0,.2,0,0,0,.1,0,.2,0,0,0,0,0,0,0,0,0,0,0,0,0,0,0,0,0,0,0,0,0,0,0,0,0,0,0,0,0,0h0c0,0-.1,0-.2-.1,0,0,0-.2,0-.3h0v-.2h0v-.2c0,0,0-.1,0-.2,0,0,0-.2,0-.3,0,0,0-.2,0-.3,0,0,0-.2,0-.2,0,0,0-.1,0-.2,0,0,0,0,.2,0s0,0,0,0c0,0,0,0,0,0,0,0,0,0,0,0,0,0,0,0,0,0h0v.2s0,0,0,.2c0,0,0,.1,0,.2,0,0,0,.1,0,.2,0,0,0,0,0,.1,0,0,0,0,0,.1,0,0,0-.2.2-.3,0,0,.1-.2.2-.2,0,0,.1-.2.2-.2,0,0,.1-.1.2-.2,0,0,.1,0,.2,0s0,0,.1,0,0,0,.2,0c0,0,0,0,.2,0,0,0,0,0,.1,0,0,0,0,0,0,0h0Z"/>
          <path class="st1" d="M62.1,26.2s0,0,0,0c0,0,0,0,0,0,0,0,0,0,0,0,0,0,0,0,0,0,0,0-.2.2-.2.3l-.3.3s0,0-.2.1c0,0,0,0-.2,0,0,0,0,0-.2,0,0,0,0,0-.1,0s0,0-.1,0c0,0,0,0-.1-.1,0,0,0,0,0-.2,0,0,0-.1,0-.2,0,0,0,0,0,0s0,0,0,.1c0,0,0,0,0,.1,0,0,0,0,0,0,0,0,0,0-.2.1s-.1,0-.2.1-.1,0-.2,0,0,0-.1,0c0,0-.1,0-.2,0,0,0,0,0-.1,0s0,0,0-.1c0,0,0-.1,0-.2s0-.1,0-.2c0,0,0-.2,0-.2,0,0,0-.2.1-.3,0,0,0-.2.1-.2s.1-.2.2-.2c0,0,.1-.1.2-.2.1,0,.2-.2.3-.2.1,0,.2,0,.4,0s0,0,0,0,0,0,0,0,0,0,0,0c0,0,0,0,0,0,0,0,0,0,0,0h0c0,0,0,0,0,.1,0,0,0,0,0,0,0,0,0,0,0,0,0,0,0,0,0,.1,0,0,0,0,0,.1s0,.1,0,.2h0c0,.2,0,.2,0,.3,0,0,0,0,0,.1,0,0,0,0,0,0h0s0,0,0,0c0,0,0,0,0,0s0,0,0,0c0,0,.2-.1.2-.2,0,0,.2-.2.2-.2s0,0,0,0h0c0-.1,0-.1,0-.1,0,0,0,0,0,0s0,0,0,0h0ZM60.5,25.9h0s0,0-.2,0c0,0-.1,0-.2.1,0,0-.1.1-.2.2s-.1.2-.2.3c0,0,0,0,0,.1,0,0,0,0,0,.1,0,0,0,0,0,.2,0,0,0,.1,0,.2s0,0,0,0c0,0,0,0,0,0,0,0,0,0,.1,0s0,0,.2-.1c0,0,.1-.1.2-.2,0,0,.1-.2.2-.2,0,0,0-.2.1-.2,0,0,0-.2,0-.2,0,0,0,0,0,0,0,0,0,0,0,0h0c0-.1,0-.1,0-.1Z"/>
          <path class="st1" d="M66,26.3s0,0,0,0c0,0,0,0,0,0,0,0,0,0,0,0,0,0,0,0,0,0,0,0,0,0,0,.1,0,0,0,0-.1.1s0,0-.1.1c0,0,0,0-.2.1,0,0,0,0-.1.1,0,0-.1,0-.2.1,0,0-.1,0-.2,0s-.1,0-.2,0,0,0-.2,0,0,0-.1-.1c0,0,0-.1-.1-.2,0,0,0-.2,0-.4h0v-.2h0c0-.1,0-.1,0,0,0,0,0,0,0,.1,0,0,0,.1-.1.2s0,.1-.1.2c0,0,0,.2-.2.2,0,0,0,.1-.1.2,0,0,0,0-.1.1,0,0,0,0-.1,0,0,0-.1,0-.2,0,0,0,0,0,0-.1s0-.1,0-.2c0,0,0-.2,0-.3,0-.2,0-.3,0-.4,0,0,0-.2,0-.2,0,0,0,0,0,0s0,0-.1.2-.1.2-.2.2c0,0-.1.2-.2.3,0,0,0,0,0,0,0,0,0,0,0,.1,0,0,0,0,0,.1,0,0,0,0,0,0s0,0,0,0c0,0,0,0-.1,0s0,0-.1,0c0,0,0,0,0,0s0,0,0-.1,0-.1,0-.2v-.2s0,0,0-.1c0,0,0,0,0-.1,0,0,0-.1,0-.2,0,0,0-.1,0-.2,0,0,0-.1,0-.2,0,0,0-.1,0-.2s0,0,0-.1c0,0,0,0,0,0,0,0,0,0,0,0,0,0,0,0,0,0,0,0,0,0,.1,0s0,0,0,0h0c0,0,0,.1,0,.2h0c0,.1,0,.2,0,.2,0,0,0,.1,0,.2,0,0,0,.1,0,.2,0,0,0,.1,0,.2,0,0,0,.1,0,.2,0,0,0,0,0,.1,0,0,0,0,0,0,0,0,0,0,0,0,0,0,0,0,0,0,0,0,0,0,0,0s0,0,0,0,0,0,0,0c0,0,0,0,0-.1,0,0,0,0,0-.2,0,0,0,0,0-.2,0,0,0,0,0-.1,0,0,.1-.1.2-.2,0,0,.1,0,.2,0s.2,0,.2,0,0,.1.1.2c0,0,0,0,0,.1v.5h0v.2s0,0,0,0,0,0,0-.1c0,0,0-.1,0-.2,0,0,0-.1,0-.2,0,0,0-.2.2-.2,0,0,0-.1.2-.2,0,0,0,0,.2-.1,0,0,0,0,.1,0h0s0,0,0,0c0,0,0,0,0,0,0,0,0,0,0,0,0,0,0,0,0,.1,0,0,0,0,0,.1s0,.1,0,.2c0,0,0,.1,0,.2,0,.1,0,.2,0,.3,0,0,0,.1.1.1s0,0,0,0c0,0,0,0,.1,0s0,0,.1,0c0,0,0,0,.1,0,0,0,0,0,.1-.1,0,0,0,0,.1-.1s0,0,.1-.1c0,0,0,0,.1-.1,0,0,0,0,0,0s0,0,0,0h0Z"/>
          <path class="st1" d="M67.8,27.1s0,0,0,0c0,0,0,0,0,0,0,0,0,0,0,.1s0,0-.1.1c0,0-.1,0-.2,0s-.1,0-.2,0-.1,0-.2,0-.1,0-.2-.1c0,0,0-.1-.1-.2s0-.2,0-.2c0,0-.1.2-.2.2s-.2.1-.2.2-.2,0-.2.1c0,0-.2,0-.2,0s0,0-.2,0c0,0,0,0-.1,0,0,0,0,0,0-.1,0,0,0-.1,0-.2s0,0,0-.2c0,0,0-.1,0-.2,0,0,0-.1,0-.2,0,0,0-.2.1-.2,0,0,.1-.2.2-.3s.2-.2.2-.2c0,0,.2-.1.2-.2,0,0,.1,0,.2,0h0s0,0,0,0c0,0,0,0,0,0h0s0,0,0,0c0,0,0,0,0,0h0s0,0,0,0c0,0,0,0,0,0s0,0,0,0c0,0,0,0,0,0h0c0,0,0,0,0,0s0,0,0,0,0,0,0,0c0,0,0,0,0,.1,0,0,0,.1,0,.2,0,0,0,.1,0,.2,0,.1,0,.2,0,.3,0,0,0,.2,0,.2,0,0,0,0,0,.1s0,0,0,0c0,0,.2,0,.2,0s.1,0,.2-.1c0,0,0,0,0,0,0,0,0,0,0,0,0,0,0,0,0,0h0s0,0,0,0,0,0,0,0h0ZM66.6,26.2c0,0,0-.1,0-.2,0,0,0,0,0,0s0,0,0,0c0,0,0,0,0,0,0,0,0,0,0,0s0,0,0,0c0,0,0,0,0,.1s0,0,0,.2,0,.1,0,.2c0,0,0,.1,0,.2,0,0,0,.1,0,.2,0,0,0,0,0,.1s0,0,0,.1c0,0,0,0,0,0s0,0,0,0c0,0,0,0,.1,0,0,0,0,0,.1-.1s0,0,.1-.1,0,0,0-.2c0,0,0-.1,0-.2,0,0,0-.1,0-.2,0,0,0-.1,0-.2h0Z"/>
          <path class="st1" d="M69.3,27.1c0,0,0-.1,0-.2,0,0,0-.2,0-.3,0-.1,0-.2,0-.3s0-.2,0-.3,0-.2,0-.3c0,0,0-.2,0-.2h0c0-.1,0-.2,0-.2,0,0,0,0,0,0,0,0,0,0,0,0,0,0,0,0,.2,0s0,0,.1,0c0,0,0,0,0,0,0,0,0,0,0,.1,0,0,0,0,0,.2,0,0,0,.1,0,.2s0,.2.1.3c0,0,.1.2.2.3s.1.2.2.3.1.2.2.3c0,.1.2.2.2.3,0,0,0-.2,0-.2,0,0,0-.2,0-.2,0,0,0-.2,0-.2s0-.2,0-.2c0,0,0-.1,0-.2,0,0,0,0,0-.1,0-.1,0-.2,0-.3,0,0,0-.2,0-.2,0,0,0-.1,0-.2v-.2h0c0,0,0-.1,0-.1,0,0,0,0,0,0s0,0,0,0c0,0,0,0,0,0,0,0,0,0,0,0,0,0,0,0,0,0h0c0,0,0,0,.1,0,0,0,0,0,0,0,0,0,0,0,0,.1h0v.2s0,0,0,.1c0,0,0,0,0,.1,0,0,0,0,0,.1,0,.2,0,.4-.1.6s0,.4-.1.5c0,.2,0,.3,0,.5,0,.1,0,.3,0,.4h0v.2h0c0,.2,0,.2,0,.2s0,0,0,0c0,0,0,0,0,0h0c0,0,0,0-.1,0,0,0,0,0,0,0,0,0,0,0,0-.2s0-.1-.1-.2c-.2-.2-.3-.4-.4-.7-.2-.2-.3-.5-.5-.8,0,.1,0,.2,0,.4,0,.1,0,.3,0,.4,0,.1,0,.2,0,.4,0,.1,0,.2,0,.3h0c0,.2,0,.2,0,.2,0,0,0,0,0,0,0,0,0,0,0,0s0,0,0,0c0,0,0,0,0,0,0,0,0,0,0,0,0,0,0,0,0,0,0,0,0,0-.1,0,0,0,0,0,0,0,0,0,0,0,0,0,0,0,0,0,0-.1h0c0-.1,0-.2,0-.2,0,0,0,0,0-.1,0,0,0,0,0-.1h0Z"/>
          <path class="st1" d="M75.4,26.4h0c0,0,0,0,0,.1,0,0,0,0,0,0s0,0,0,0c0,0,0,0,0,0s0,0,0,0c0,0,0,0,0,0,0,0,0,0,0,0,0,0-.2.1-.2.2,0,0-.2.1-.2.2,0,0-.2,0-.3.1,0,0-.2,0-.3,0s0,0-.1,0c0,0,0,0-.1,0,0,0,0,0-.1-.1,0,0,0,0,0-.2,0,0,0,0,0,.1,0,0,0,0-.1.1,0,0,0,0-.1.1s0,0-.1.1c0,0,0,0-.1,0s0,0-.1,0c0,0,0,0-.1,0,0,0,0,0-.1,0,0,0-.1,0-.2,0,0,0,0,0-.1-.1,0,0,0-.1,0-.2,0,0,0-.1,0-.2,0,0,0-.2,0-.3s0-.2,0-.3,0-.2.1-.2c0,0,0-.2.2-.2,0,0,.1-.1.2-.2,0,0,.2-.1.2-.2,0,0,.2,0,.2-.1s.1,0,.2,0h.2s0,0,0,0c0,0,0,0,0,0,0,0,0,0,0,0,0,0,0,0,0,0,0,0,0,0,0,0s0,0,0,0c0,0,0,0,0,.1,0,0,0,.1,0,.2,0,0,0,.1,0,.2,0,0,0,.1,0,.2s0,0,0,.1c0,0,0,0,0,0,0,0,0,0,0,0s0,0,0,0c0,0,.2,0,.2,0,0,0,.2,0,.2-.1s.2-.1.2-.2.2-.2.2-.2c0,0,0,0,0,0,0,0,0,0,0,0,0,0,0,0,0,0s0,0,0,0c0,0,0,0,0,0s0,0,0,0h0ZM73.6,26.2h0c0,0,0,0,0,0,0,0,0,0,0,0,0,0,0,0,0,0,0,0-.2,0-.2,0s-.2.1-.2.2c0,0,0,0-.1.2s0,.2-.1.2c0,0,0,.2-.1.2s0,.2,0,.2h0c0,0,0,0,0,0,0,0,0,0,0,0,0,0,0,0,0,0,0,0,.1,0,.2,0s.1,0,.2-.1c0,0,.1-.1.2-.2,0,0,.1-.1.2-.2,0,0,0-.2.1-.3,0,0,0-.2,0-.3h0Z"/>
          <path class="st1" d="M77.6,26.1h0c0,0,0,0,0,.1,0,0,0,0,0,0,0,0,0,0,0,0,0,0-.1.2-.2.3s-.2.2-.3.3c0,0-.2.2-.3.3,0,0-.2.2-.3.2,0,0-.1,0-.2,0s-.1,0-.2,0c0,0-.2,0-.2,0,0,0-.2,0-.2,0,0,0-.2,0-.3,0,0,0-.1,0-.2-.2,0,0,0-.1-.1-.2,0,0,0-.2,0-.3,0-.2,0-.3.1-.5,0-.2.2-.3.3-.5,0,0,0,0,0-.1,0,0,0,0,.1-.1,0,0,0,0,.2,0s.1,0,.2,0,0,0,.2,0c0,0,0,0,.1.1s0,0,0,.2c0,0,0,.1,0,.2h0c0,.1,0,.2,0,.2,0,0,0,0,0,0,0,0,0,0,0,0,0,0-.1,0-.1,0s0,0,0-.2c0,0,0,0,0,0,0,0,0,0,0,0,0,0,0,0,0,0h0s0,0,0,0c0,0,0,0,0,0,0,0,0,0,0,.1,0,0,0,0,0,.1,0,0,0,0,0,.1s0,0,0,.2,0,.1,0,.2c0,0,0,.1,0,.2s0,0,0,0c0,0,0,0,0,0,0,0,0,0,0,0,0,0,0,0,0,0,0,0,.2,0,.2,0s.1,0,.2,0,.1,0,.2,0c0,0,.1,0,.2-.1,0,0,.2-.1.3-.2,0,0,.2-.2.2-.2,0,0,.1-.1.2-.2,0,0,.1-.1.2-.2,0,0,0,0,0,0,0,0,0,0,0,0s0,0,0,0h0s0,0,0,0c0,0,0,0,0,0h0Z"/>
          <path class="st1" d="M79.2,26.4s0,0,0,.1,0,0,0,.2,0,.1-.1.2c0,0-.1.1-.2.2,0,0-.1.2-.2.2,0,0-.2.1-.3.2,0,0-.2.1-.3.2,0,0-.2,0-.2,0s-.2,0-.2,0c0,0-.1,0-.2-.1,0,0,0-.1-.1-.2,0,0,0-.1,0-.2,0,0,0-.2,0-.2,0,0,0-.2,0-.2h0c0-.2,0-.2,0-.3,0,0,0-.1,0-.2s0,0,0-.1c0,0,0-.1.1-.2,0,0,.1,0,.2,0s.1,0,.1.2,0,0,0,.2c0,0,0,.1,0,.2,0,0,0,.2,0,.3v.2c0,0,0,.1,0,.2,0,0,0,.1,0,.2s0,0,0,.1c0,0,0,0,0,0s0,0,.1,0c0,0,0,0,.2,0,.1,0,.2-.2.4-.2,0,0,0,0,.2-.1,0,0,.1,0,.2-.2,0,0,.1-.1.2-.2s0,0,.1-.1c0,0,0,0,0,0,0,0,0,0,0,0s0,0,0,0c0,0,0,0,0,0h0s0,0,0,0,0,0,0,0h0ZM77.9,24.8s0,0,0,.1c0,0,0,0,0,.1,0,0-.1.1-.2.1h-.1s0,0,0,0,0,0,0,0c0,0,0,0,0,0,0,0,0,0,0-.1,0,0,0,0,0-.1s0,0,.1,0,0,0,.1,0h.1s0,0,0,0c0,0,0,0,0,0,0,0,0,0,0,0h0Z"/>
          <path class="st1" d="M81.4,26s0,0,0,0c0,0,0,0,0,0,0,0,0,0,0,0s0,0,0,0,0,0,0,0c0,0,0,0,0,0,0,0,0,0-.1,0,0,0-.1,0-.2,0,0,0-.1,0-.2,0h-.2s0,0,0,0c0,0,0,0,0,0,0,0,0,0,0,0h0v.2s0,0,0,.1c0,0,0,0,0,0,0,0,0,0,0,0,0,0,0,.1-.1.2s0,0-.1.1c0,0,0,0-.2.1,0,0-.1,0-.2.1,0,0-.2,0-.2,0s-.2,0-.2,0-.1,0-.2,0c0,0,0,0-.1-.1,0,0,0-.1,0-.2,0,0,0-.2,0-.2h0c0,0,0-.1,0-.2,0,0,0,0,0,0,0,0,0,0,0,0,0,0,0-.1,0-.2,0,0,0-.2.1-.2,0,0,0-.2.2-.2,0,0,.1-.1.2-.2,0,0,.1,0,.2-.1,0,0,.1,0,.2,0h0s0,0,0,0c0,0,0,0,0,0s0,0,0,0h0s0,0,.1,0c0,0,0,0,.1,0,0,0,0,0,0,0,0,0,0,0,0,0,0,0,0,0,0,0,0,0,0,0,0,0h.4s0,0,.1,0c0,0,0,0,0,0,0,0,0,0,.1,0,0,0,0,0,.1,0,0,0,0,0,.1,0,0,0,0,0,.1,0,0,0,0,0,0,0h0s0,0,0,0h0ZM79.1,27.3c.1,0,.2,0,.3,0,0,0,.2-.1.2-.2s0-.2.1-.3,0-.2,0-.4,0,0,0,0c0,0,0,0,0,0s0,0,0,0c0,0,0,0,0,0s0,0,0,0c0,0,0,0,0,0,0,0,0,0,0,0,0,0,0,0,0,.1s0,.1,0,.2c0,0,0,.1,0,.2,0,0,0,.1,0,.2,0,0,0,0,0,.1s0,0,0,0c0,0,0,0,0,0,0,0,0,0,0,0,0,0,0,0,0,0h0Z"/>
          <path class="st1" d="M84.3,26.3s0,0,0,0c0,0,0,0,0,0,0,0,0,0,0,0,0,0,0,0,0,0,0,0,0,.1-.1.2,0,0-.1.1-.2.2,0,0-.1.1-.2.2,0,0-.1,0-.2.1,0,0,0,0-.1,0s0,0-.1,0c0,0,0,0-.1,0s-.1,0-.2,0c0,0-.2,0-.2,0s-.1,0-.2-.2,0-.1,0-.2c0,0,0-.2,0-.3,0-.1,0-.2,0-.3s0-.1,0-.1,0,0,0,0c0,0,0,0,0,0,0,0,0,0-.1.2,0,0-.1.2-.2.3,0,0,0,0-.1.2,0,0,0,.1-.1.2s0,0-.2.1c0,0,0,0-.1,0-.2,0-.2-.2-.2-.5s0-.2,0-.3c0,0,0-.1,0-.2,0,0,0-.1,0-.2,0,0,0-.1,0-.2,0,0,0-.1,0-.2,0,0,0,0,0,0,0,0,0,0,0,0,0,0,0,0,0,0h0s0,0,0,0c0,0,0,0,0,0,0,0,0,0,0,0,0,0,0,0,0,0h0c0,.1,0,.2,0,.2,0,0,0,0,0,0s0,0,0,.1c0,0,0,0,0,.1s0,0,0,.1c0,0,0,0,0,.1,0,0,0,0,0,.1,0,0,0,0,0-.1,0,0,0,0,0-.1s0,0,0-.2c0,0,0,0,.1-.1,0,0,0-.1.1-.2,0,0,0,0,.1-.1,0,0,0,0,.2,0,0,0,.1,0,.2,0s.2,0,.2,0c0,0,0,0,.1.2,0,0,0,.1,0,.2,0,0,0,.2,0,.3,0,0,0,0,0,.2,0,0,0,0,0,.2,0,0,0,0,0,.1s0,0,0,0c0,0,.1,0,.2,0s.2,0,.2-.1c0,0,.2-.1.2-.2,0,0,.2-.2.2-.2s0,0,0,0c0,0,0,0,0,0s0,0,0,0c0,0,0,0,0,0h0s0,0,0,0c0,0,0,0,0,0h0s0,0,0,0Z"/>
          <path class="st1" d="M86.4,26.1s0,0,0,0,0,.1,0,.2c0,0,0,.2-.1.2,0,0,0,.2-.2.3,0,0-.2.2-.2.3,0,0-.2.2-.2.2,0,0-.1,0-.2.1,0,0-.1,0-.2,0,0,0-.1,0-.2,0,0,0,0,0-.1,0,0,0,0,0,0-.1,0,0,0-.1,0-.2,0,0-.1.2-.2.2,0,0-.1.1-.2.2,0,0-.1.1-.2.1,0,0-.1,0-.2,0s0,0-.1,0c0,0,0,0-.1,0s0,0,0-.1c0,0,0-.1,0-.2s0-.1,0-.2c0,0,0-.2,0-.2,0,0,0-.2,0-.2s0-.2,0-.2c0,0,0-.1.1-.2s0-.1.1-.2,0,0,.1-.1c0,0,.1,0,.2-.1,0,0,.1,0,.2,0s.2,0,.2,0,.2,0,.2,0c0,0,0,.1,0,.2,0,0,0,0,0,0s0,0,0,0c0,0,0,0,0,0,0,0,0,0,0,0s0,0,0,0c0,0,0,0,0,0,0,0,0,0,0,.1,0,0,0,0,0,.1v.2c0,0,0,.1,0,.2,0,0,0,0,0,.1,0,0,0,0,0,0s0,0,.1,0c0,0,0,0,.1,0,0,0,0,0,.2-.2,0,0,.1-.1.2-.2,0,0,0-.1.1-.2,0,0,0-.1,0-.2s0,0,0-.2c0,0,0,0,0-.1,0,0,0,0,0,0,0,0,0,0,0,0s0,0,0,0c0,0,0,0,0,0h0s0,0,0,0ZM84.8,26.1h0s0,0,0,0c0,0,0,0,0,0h0s0,0,0,0c0,0,0,0,0,0,0,0,0,0,0,0s0,0,0,0c0,0,0,.1-.1.2,0,0,0,.2-.1.3,0,0,0,.2,0,.3,0,0,0,.2,0,.2s0,0,0,0c0,0,0,0,0,0s0,0,0,0c0,0,0,0,.1-.1s0,0,.1-.2c0,0,0-.1.1-.2,0-.1.1-.2.2-.3s0-.2,0-.4h0Z"/>
          <path class="st1" d="M87.6,26.9s0,0,0,0c0,0,0,0,0,0,0,0,0,0,0,0s0,0,0,0c0,0-.1.1-.2.2,0,0-.1.1-.2.2,0,0-.2,0-.2.1,0,0-.2,0-.2,0-.1,0-.2,0-.3,0,0,0-.2,0-.2-.2,0,0,0-.2-.1-.3,0-.1,0-.3,0-.4s0-.2,0-.3c0-.1,0-.2,0-.3,0-.1,0-.2,0-.4s0-.2,0-.3c0-.1,0-.2,0-.3s0-.2,0-.2,0-.1,0-.2c0,0,0,0,0,0s0,0,0,0c0,0,0,0,0,0s0,0,0,0c0,0,0,0,0,0,0,0,0,.1,0,.2s0,.2,0,.3,0,.2,0,.3c0,0,0,.2,0,.3,0,0,0,.1,0,.2s0,.1,0,.2c0,0,0,.1,0,.2v.2c0,.2,0,.4,0,.5s.1.2.2.2.1,0,.2,0c0,0,.1,0,.2,0s.1,0,.2-.1c0,0,0,0,.1-.1,0,0,0,0,0,0,0,0,0,0,0,0,0,0,0,0,0,0,0,0,0,0,0,0h0Z"/>
          <path class="st1" d="M91.8,27c0,0-.1.1-.2.2s-.2.1-.2.2-.2,0-.3.1c0,0-.2,0-.3,0s-.2,0-.2,0c0,0-.1,0-.2-.2,0,0,0-.2-.1-.3,0-.1,0-.2,0-.4,0,0,0,0,0,.1s0,0,0,.1c0,0,0,0,0,0s0,0,0,0c-.2.2-.4.3-.5.4-.2,0-.3.2-.5.2s-.1,0-.2,0c0,0,0,0-.1,0s0,0,0,0c0,0,0,0,0-.1,0,0,0-.2,0-.3,0-.1,0-.2.1-.3s.1-.2.2-.3c0,0,.1-.2.2-.3,0,0,.1-.2.2-.2,0,0,.1-.1.2-.2,0,0,.1,0,.2-.1s.1,0,.2,0,0,0,0,0c0,0,0,0,0,0,0,0,0,0,0,0,0,0,0,0,0,0,0,0,0,0,0,0,0,0,0,0,0,0,0,0,0-.2,0-.3,0,0,0-.2,0-.3,0,0,0-.2,0-.3,0,0,0-.2,0-.2,0,0,0-.2,0-.2,0,0,.1,0,.2,0s0,0,.1,0,0,.1,0,.2h0c0,.1,0,.2,0,.3s0,.2,0,.2c0,0,0,.2,0,.3s0,.2,0,.3,0,.2,0,.3c0,0,0,.2,0,.2,0,0,0,0,0,.1h0c0,.2,0,.2,0,.3,0,0,0,0,0,.2,0,0,0,0,0,.1,0,0,0,0,0,0,0,0,0,0,.1,0s.1,0,.2,0,.1,0,.2,0c0,0,.1,0,.2-.1s.2,0,.2-.2h0s0,0,0,0,0,0,0,0,0,0,0,0,0,0,0,0c0,0,0,0,0,0s0,0,0,0,0,0,0,0h0ZM90.1,26.1s0,0,0,0c0,0,0,0,0,0,0,0,0,0,0,0s0,0-.1,0h0s0,0,0,0,0,0,0,0c0,0,0,0,0,0,0,0-.1,0-.2.1s-.1.1-.2.2c0,0-.1.2-.2.3,0,0,0,.2-.1.3,0,0,0,.2,0,.2,0,0,0,.1,0,.1s0,0,0,0c0,0,0,0,0,0,0,0,0,0,.1,0h.1c0,0,0-.1.1-.1,0,0,0,0,0,0,0,0,.1-.1.2-.2s.1-.1.2-.2c0,0,.1-.2.2-.2s0-.2.1-.2h0Z"/>
          <path class="st1" d="M93.4,26.7s0,0,0,.2c0,0,0,.1-.2.2,0,0-.2.1-.2.2,0,0-.2.1-.3.2,0,0-.2,0-.3.1,0,0-.2,0-.3,0s-.2,0-.3,0c0,0-.2,0-.2-.2,0,0-.1-.2-.1-.2,0,0,0-.2,0-.3s0-.2,0-.2c0,0,0-.2,0-.2,0,0,0-.2.1-.2,0,0,0-.2.2-.2,0,0,0,0,.1-.1,0,0,0,0,.2-.1h.2c0-.1.1-.1.2-.1s.1,0,.2,0c0,0,0,0,.1,0,0,0,0,0,0,.1,0,0,0,0,0,.1,0,0,0,.2,0,.3,0,0-.1.2-.2.3,0,0-.2.2-.3.2-.1,0-.2.2-.4.2,0,0,0,0,0,0,0,0,0,0,0,0,0,0,0,0,0,0,0,0,0,0,0,0,0,0,0,0,0,0s0,0,.1,0c0,0,.2,0,.2,0s.2,0,.2,0c0,0,.2,0,.2-.2,0,0,.2-.1.2-.2,0,0,0,0,0,0,0,0,0,0,0,0s0,0,0,0c0,0,0,0,0,0h0ZM92.5,26s0,0,0,0c0,0,0,0,0,0,0,0,0,0,0,0h0c0,0-.1,0-.2,0,0,0,0,0-.1.2,0,0,0,.2,0,.2s0,.2,0,.2c0,0,.2-.1.2-.2s.1,0,.2-.2c0,0,0,0,.1-.2,0,0,0,0,0-.2h0Z"/>
          <path class="st1" d="M96.9,25.2h0c0,0,0,.1,0,.2,0,0,0,0,0,0s0,0,0,0h0s-.1,0-.3,0v-.2s0,0,0,0c0,0,0,0,0,0,0,0,0,0,0,0,0,0,0,0,0,0h-.2c0,0-.1,0-.2,0,0,0-.1,0-.2,0s-.1,0-.2,0c0,0,0,0-.1,0,0,0,0,0-.1,0,0,0,0,0,0,0,0,0,0,0,0,.1h0s0,0,0,0c0,0,0,0,0,.1,0,0,0,0,.1,0,0,0,0,0,.2,0,0,0,0,0,0,0,0,0,0,0,0,0,0,0,0,0,0,0,0,0,0,0,0,0,0,0,0,0,0,0,0,0,0,0,0,0,.3,0,.5.2.7.3s.2.2.2.4,0,0,0,.2c0,0,0,0,0,.2,0,0,0,0-.1.1s0,0-.1,0h0s0,0-.1,0c0,0,0,0-.2,0,0,0-.1,0-.2,0,0,0-.1,0-.2,0s-.1,0-.2,0c0,0-.1,0-.2,0,0,0-.1,0-.2,0h-.2s0,0-.1,0c0,0,0,0-.1,0,0,0,0,0-.1,0s0,0,0,0c0,0,0,0,0,0s0,0,0,0c0,0,0,0,0,0,0,0,0,0,0,0,0,0,0,0,0,0s0,0,0,0c0,0,0,0,0,0,0,0,0,0,.1,0,0,0,.1,0,.2,0s.2,0,.2,0c0,0,.2,0,.2,0,0,0,.2,0,.2,0,0,0,.1,0,.2,0,0,0,0,0,0,0s0,0,0,0c0,0,0,0,0,0,0,0,0,0,0,0s0,0,0,0h0c0,0-.1,0-.2,0,0,0-.1,0-.2,0-.2,0-.3,0-.5-.2h0c0,0-.2,0-.3-.1,0,0-.2-.1-.2-.2-.1-.2-.2-.3-.2-.5s0-.2,0-.2c0,0,0-.1.2-.2s.2-.1.2-.2c0,0,.2,0,.3-.1s.2,0,.3,0,.2,0,.3,0h.1c0,0,0,0,.2,0,0,0,0,0,.2,0s0,0,.1,0h0c0,0,.1,0,.2.1,0,0,0,.1,0,.2h0Z"/>
          <path class="st1" d="M99.9,26.2s0,0,0,0c0,0,0,0,0,0,0,0,0,0,0,0,0,0,0,0,0,0,0,0-.2.2-.2.3s-.2.2-.3.3c0,0,0,0-.2.1s0,0-.2,0c0,0,0,0-.2,0,0,0,0,0-.1,0s0,0-.2,0,0,0-.1-.1c0,0,0,0,0-.2,0,0,0-.1,0-.2,0,0,0,0,0,0s0,0,0,.1c0,0,0,0,0,.1,0,0,0,0,0,0,0,0,0,0-.2.1,0,0-.1,0-.2.1,0,0-.1,0-.2,0,0,0,0,0-.1,0,0,0-.1,0-.2,0,0,0,0,0-.1,0s0,0,0-.1c0,0,0-.1,0-.2s0-.1,0-.2c0,0,0-.2,0-.2,0,0,0-.2.1-.3s0-.2.1-.2.1-.2.2-.2c0,0,.1-.1.2-.2.1,0,.2-.2.3-.2.1,0,.2,0,.4,0s0,0,0,0c0,0,0,0,0,0s0,0,0,0,0,0,0,0c0,0,0,0,0,0s0,0,0,0c0,0,0,0,0,0s0,0,0,0c0,0,0,0,0,0,0,0,0,0,0,.1,0,0,0,0,0,.1,0,0,0,.1,0,.2h0c0,.2,0,.2,0,.3,0,0,0,0,0,.1,0,0,0,0,0,0h0s0,0,0,0c0,0,0,0,0,0s0,0,0,0c0,0,.2-.1.2-.2,0,0,.2-.2.2-.2,0,0,0,0,0,0,0,0,0,0,0,0,0,0,0,0,0,0s0,0,0,0,0,0,0,0h0ZM98.3,25.9h0s0,0-.1,0-.1,0-.2.1-.1.1-.2.2-.1.2-.2.3c0,0,0,0,0,.1,0,0,0,0,0,.1,0,0,0,0,0,.2,0,0,0,.1,0,.2s0,0,0,0c0,0,0,0,0,0,0,0,0,0,.1,0s0,0,.2-.1c0,0,.1-.1.2-.2s.1-.2.2-.2c0,0,0-.2.1-.2,0,0,0-.2,0-.2,0,0,0,0,0,0,0,0,0,0,0,0,0,0,0,0,0,0h0s0,0,0,0Z"/>
          <path class="st1" d="M102.7,26.6h0s0,0,0,0c0,0,0,0,0,.2,0,0,0,.1-.1.2s-.1,0-.2.2c0,0-.2,0-.2.1,0,0-.2,0-.3,0s-.2,0-.3,0-.2,0-.3,0c0,0-.1,0-.2-.1,0,0,0,0-.1-.2,0,0,0-.1,0-.2,0,0,0-.1,0-.2,0,0,0-.1,0-.2h0s0,0,0,0c0,0,0,0,0,0,0,0,0,0,0,0,0,0,0,0,0,.1s0,0,0,.2c0,0,0,.2-.1.3,0,0,0,.2-.2.2,0,0-.1.1-.2.2,0,0-.1,0-.2,0s-.1,0-.2,0c0,0,0,0,0-.2s0-.2,0-.2v-.8s0,0,0-.1,0,0,0-.1c0,0,0,0,0,0s0,0,0,0h0s0,0,0,0c0,0,0,0,0,0,0,0,0,0,0,.1s0,.1,0,.2,0,.1,0,.2,0,.2,0,.2c0,0,0,.2,0,.3,0,0,0,0,0,0s0,0,0-.1,0,0,0-.2c0,0,0-.1,0-.2,0-.1.1-.2.2-.3,0,0,.1-.2.2-.2s.1-.1.2-.1.2,0,.2,0,0,0,0,0c0,0,0,0,0,0,0,0,0,0,0,0s0,0,0,0c0,.2,0,.3,0,.4s0,.2,0,.3c0,0,0,.1.2.2,0,0,.2,0,.3,0s0,0,.1,0c0,0,0,0,.2,0,0,0,.1,0,.2,0s.1,0,.2,0c0,0,0,0,0,0,0,0,0,0,0,0,0,0,0,0,0,0,0,0,0,0,0,0h0Z"/>
          <path class="st1" d="M104.8,26.3s0,0,0,.1c0,0-.1.2-.2.3,0,0-.2.2-.3.3,0,0-.2.2-.3.2,0,0-.2.1-.3.2-.1,0-.2,0-.3.1-.1,0-.2,0-.3,0-.2,0-.4,0-.5-.2-.1-.1-.2-.3-.2-.6s0-.2,0-.3c0,0,0-.2,0-.3s0-.2.1-.3c0,0,.1-.2.2-.3,0,0,0,0,0,0s0,0,.1,0c0,0,0,0,.1,0,0,0,0,0,.2,0s.1,0,.2,0c0,0,0,0,.1.1,0,0,0,0,0,.2,0,0,0,.1,0,.2,0,.1,0,.2-.1.4,0,.1-.2.3-.4.4,0,0-.1,0-.2.1,0,0-.1.1-.2.2,0,0,0,0,0,0s0,0,0,0,0,0,0,0,0,0,.1,0c0,0,.1,0,.2,0,0,0,.2,0,.2,0s.1,0,.2,0c0,0,.1,0,.2-.1,0,0,.2-.2.3-.2,0,0,.2-.2.3-.2h0c0-.2.1-.2.2-.2s0,0,0,0c0,0,0,0,0,0h0ZM103.2,26s0,0,0,0c0,0,0,0,0,0,0,0,0,0-.1,0s0,0-.2.2c0,0,0,.2-.1.3,0,0,0,.2,0,.3,0,0,.1,0,.2-.1,0,0,.1-.1.2-.2,0,0,0-.1.1-.2,0,0,0-.1,0-.2h0Z"/>
          <path class="st1" d="M107,26.2s0,0,0,0c0,0,0,0,0,0,0,0,0,0,0,0,0,0,0,0,0,0,0,0-.2.2-.2.3s-.2.2-.3.3c0,0,0,0-.2.1s0,0-.2,0c0,0,0,0-.1,0,0,0,0,0-.1,0s0,0-.2,0,0,0-.1-.1c0,0,0,0,0-.2,0,0,0-.1,0-.2,0,0,0,0,0,0s0,0,0,.1c0,0,0,0,0,.1s0,0,0,0c0,0,0,0-.2.1,0,0-.1,0-.2.1s-.1,0-.2,0c0,0,0,0-.1,0,0,0-.1,0-.2,0,0,0,0,0-.1,0s0,0,0-.1,0-.1,0-.2,0-.1,0-.2c0,0,0-.2,0-.2,0,0,0-.2.1-.3s0-.2.1-.2,0-.2.2-.2c0,0,.1-.1.2-.2.1,0,.2-.2.3-.2.1,0,.2,0,.4,0s0,0,0,0c0,0,0,0,0,0s0,0,0,0c0,0,0,0,0,0,0,0,0,0,0,0,0,0,0,0,0,0,0,0,0,0,0,0s0,0,0,0c0,0,0,0,0,0,0,0,0,0,0,.1s0,0,0,.1,0,.1,0,.2h0c0,.2,0,.2,0,.3,0,0,0,0,0,.1,0,0,0,0,0,0h0s0,0,0,0c0,0,0,0,0,0s0,0,0,0c0,0,.2-.1.2-.2,0,0,.2-.2.2-.2,0,0,0,0,0,0,0,0,0,0,0,0,0,0,0,0,0,0s0,0,0,0c0,0,0,0,0,0h0ZM105.4,25.9h0s0,0-.1,0-.1,0-.2.1-.1.1-.2.2-.1.2-.2.3c0,0,0,0,0,.1,0,0,0,0,0,.1,0,0,0,0,0,.2,0,0,0,.1,0,.2s0,0,0,0c0,0,0,0,0,0,0,0,0,0,.1,0s0,0,.2-.1c0,0,.1-.1.2-.2s.1-.2.2-.2c0,0,0-.2.1-.2,0,0,0-.2,0-.2,0,0,0,0,0,0,0,0,0,0,0,0s0,0,0,0h0s0,0,0,0Z"/>
          <path class="st1" d="M110.8,26.9s0,0,0,0c0,0,0,0,0,0,0,0,0,0,0,0,0,0,0,0,0,0-.1,0-.2.1-.4.2-.1,0-.2,0-.4,0s-.2,0-.2,0-.1,0-.2-.2c0,0,0-.2-.1-.2,0,0,0-.2,0-.3,0,0,0,0,0,0,0,0,0,0,0,0,0,0,0,0,0,0h0s0,0-.1.1c0,0-.1.2-.2.4,0,0,0,.2-.2.2s0,.1-.1.2c0,0,0,0-.1.1,0,0,0,0-.1,0,0,0-.1,0-.2,0s0,0,0,0,0-.1,0-.2c0,0,0-.2,0-.3s0-.2,0-.3c0,0,0-.1,0-.1,0,0,0,0,0,0,0,0,0,0,0,0,0,0,0,0-.1.1,0,0,0,0-.1.2,0,0,0,0,0,.2,0,0,0,0,0,.1,0,0,0,0,0,0,0,0,0,0,0,.1,0,0,0,0,0,.1,0,0,0,0,0,0s0,0,0,0c0,0,0,0-.1,0,0,0-.1,0-.2,0,0,0,0,0,0-.1,0,0,0,0,0-.2s0-.1,0-.2v-.2c0,0,0-.1,0-.2,0,0,0-.1,0-.2s0-.1,0-.2c0-.1,0-.2,0-.3s0-.2,0-.2,0,0,0-.1,0,0,.1,0c.2,0,.3.1.3.3s0,0,0,.1c0,0,0,0,0,.2,0,0,0,.1,0,.2,0,0,0,.1,0,.2,0,0,0,.1,0,.2,0,0,0,0,0,.1,0,0,0,0,0,0,0,0,0,0,0,0,0,0,0,0,0,0,0,0,0,0,0,0,0,0,0,0,0,0s0,0,0,0c0-.1.1-.2.2-.3s.1-.2.2-.2.1-.1.2-.2c0,0,.1,0,.2,0s.1,0,.2,0,0,0,0,.2,0,.1,0,.2c0,0,0,.1,0,.2s0,0,0,.1c0,0,0,0,0,.1h0v.2h0s0,0,0,0c0,0,0,0,0,0s0,0,0,0c0,0,0,0,0-.1,0,0,0,0,0-.1s0,0,0-.1c0,0,0,0,0,0,0,0,0-.1,0-.2,0,0,0-.1.1-.2,0,0,0,0,.2-.1,0,0,.1,0,.2,0s.1,0,.2,0c0,0,0,0,0,.1,0,0,0,.1,0,.2,0,0,0,.2,0,.3,0,.2,0,.3.1.4s0,.1.1.1c0,0,.2,0,.3,0,0,0,.2,0,.3-.1,0,0,0,0,0,0,0,0,0,0,0,0,0,0,0,0,0,0h0s0,0,0,0c0,0,0,0,0,0s0,0,0,0h0Z"/>
          <path class="st1" d="M112.9,26.2s0,0,0,0c0,0,0,0,0,0,0,0-.1.2-.2.3,0,0-.2.2-.3.3,0,0-.2.2-.3.3s-.2.2-.3.2c-.1,0-.2.1-.3.2-.1,0-.2,0-.3,0s-.2,0-.3,0c0,0-.2,0-.2-.2,0,0-.1-.2-.1-.2,0,0,0-.2,0-.3s0-.2,0-.3c0,0,0-.2,0-.3,0-.1,0-.2.2-.3,0-.1.2-.2.2-.3,0,0,.2-.1.2-.2,0,0,.2,0,.2,0h0s0,0,0,0c0,0,0,0,0,0,0,0,0,0,0,0,0,0,0,.1,0,.2,0,0,0,0,0,.2,0,0,0,.2,0,.3,0,0,0,.2-.1.2s0,.1-.2.2c0,0-.1.1-.2.2s0,0-.2.1c0,0-.1,0-.2.2,0,0,0,0,0,.1,0,0,0,0,0,0,0,0,0,0,0,0,0,0,0,0,.1,0s.1,0,.2,0,.1,0,.2,0c0,0,.1,0,.2-.1s.1,0,.2-.1c0,0,0,0,.2-.1,0,0,.1-.1.2-.2s0,0,.1-.1c0,0,0,0,.1-.1h.1c0-.2.1-.2.2-.2s0,0,0,0c0,0,0,0,0,0h0ZM111.3,26c0,0,0,0,0-.1,0,0,0,0,0,0s0,0,0,0c0,0,0,0,0,0,0,0,0,0,0,.1s0,.1,0,.2c0,0,0,.1,0,.2s0,.1,0,.2c0,0,0,0,.1,0s0,0,0,0c0,0,0,0,0,0,0,0,0,0,0-.1,0,0,0,0,0-.1,0,0,0,0,0-.1h0Z"/>
          <path class="st1" d="M115.8,26.3s0,0,0,0c0,0,0,0,0,0s0,0,0,0c0,0,0,0,0,0,0,0,0,.1-.1.2,0,0-.1.1-.2.2,0,0-.1.1-.2.2,0,0-.1,0-.2.1,0,0,0,0-.1,0,0,0,0,0-.1,0,0,0,0,0-.2,0,0,0-.1,0-.2,0,0,0-.2,0-.2,0,0,0-.1,0-.2-.2s0-.1,0-.2c0,0,0-.2,0-.3,0-.1,0-.2,0-.3s0-.1,0-.1,0,0,0,0c0,0,0,0,0,0s0,0-.1.2-.1.2-.2.3c0,0,0,0-.1.2,0,0,0,.1-.1.2s0,0-.2.1c0,0,0,0-.1,0-.2,0-.2-.2-.2-.5s0-.2,0-.3c0,0,0-.1,0-.2,0,0,0-.1,0-.2,0,0,0-.1,0-.2,0,0,0-.1,0-.2,0,0,0,0,0,0,0,0,0,0,0,0,0,0,0,0,0,0h0s0,0,0,0c0,0,0,0,0,0,0,0,0,0,0,0s0,0,0,0h0c0,.1,0,.2,0,.2,0,0,0,0,0,0s0,0,0,.1c0,0,0,0,0,.1s0,0,0,.1c0,0,0,0,0,.1,0,0,0,0,0,.1,0,0,0,0,0-.1,0,0,0,0,0-.1s0,0,.1-.2c0,0,0,0,.1-.1,0,0,0-.1.1-.2,0,0,0,0,.1-.1,0,0,0,0,.2,0,0,0,.1,0,.2,0s.2,0,.2,0c0,0,0,0,.1.2,0,0,0,.1,0,.2,0,0,0,.2,0,.3,0,0,0,0,0,.2,0,0,0,0,0,.2,0,0,0,0,0,.1s0,0,0,0c0,0,.1,0,.2,0,0,0,.2,0,.2-.1,0,0,.2-.1.2-.2,0,0,.2-.2.2-.2s0,0,0,0c0,0,0,0,0,0s0,0,0,0c0,0,0,0,0,0h0s0,0,0,0c0,0,0,0,0,0h0s0,0,0,0Z"/>
          <path class="st1" d="M117.3,26s0,0,0,0c0,0,0,0,0,0,0,0,0,0,0,0s0,0,0,0c0,0-.1,0-.2,0s-.1,0-.2,0c0,0-.1,0-.2,0,0,0-.1,0-.2,0s0,0-.1,0c0,0,0,0-.1,0,0,0,0,0-.1,0,0,0,0,0,0,0,0,.1,0,.2,0,.3,0,0,0,.2,0,.3,0,0,0,0,0,0,0,0,0,0,0,0,0,0,0,0,0,0,0,0,0,0,0,0h0v.2s0,0,0,0c0,0,0,0,0,0,0,0,0,0,0,0s0,0,0,0,0,0,0,0c0,0,0,0,0,0s0,0,0,0c0,0,0,0,0,0,0,0,0,0-.1,0s0,0,0,0,0,0,0-.1c0,0,0,0,0-.2,0,0,0-.2,0-.3,0,0,0-.2,0-.3,0,0,0,0,0-.2,0,0,0-.1,0-.2s0,0,0-.1c0,0,0,0,0,0,0,0,0,0-.1,0,0,0-.1,0-.2,0s-.1,0-.2,0c0,0,0,0,0,0s0,0,0,0c0,0,0,0,0-.1s0,0,0,0c0,0,0,0,0,0,0,0,0,0,0,0h.5s0,0,0,0c0,0,0,0,0,0,0,0,0,0,0-.1s0,0,0-.1,0,0,0-.1c0,0,0,0,0,0,0,0,0-.1,0-.2,0,0,0-.1,0-.2,0,0,0-.1,0-.2,0,0,0,0,.2,0s.1,0,.2,0c0,0,0,0,0,.2h0c0,.2,0,.2,0,.2,0,0,0,.2,0,.3,0,0,0,.2,0,.2s0,.1,0,.2h.5c0,0,.1,0,.2,0,0,0,.1,0,.2,0,0,0,0,0,.1,0,0,0,0,0,.1,0h.1s0,0,0,0c0,0,0,0,0,0h0Z"/>
          <path class="st1" d="M118.3,26.4h0c0,.1,0,.2,0,.2,0,0,0,0,0,0s0,0,0,.1c0,0,0,0-.1.2s-.1.1-.2.2c0,0-.1.1-.2.2s-.2.1-.2.2c0,0-.2,0-.2.1s-.2,0-.2,0-.2,0-.3,0c0,0-.1,0-.2-.1s0-.1-.1-.2c0,0,0-.1,0-.2s0-.1,0-.2c0,0,0-.2,0-.2,0,0,0-.2.1-.2,0,0,0-.1.1-.2,0,0,0-.1.2-.2s.1,0,.2-.2c0,0,.2,0,.3,0,0,0,.2,0,.3,0s.2,0,.2,0c0,0,.1,0,.2.2s.1.1.1.2c0,0,0,.2,0,.3h0ZM117.9,26.5c0-.1,0-.2,0-.3,0,0-.2,0-.3,0s0,0-.1,0c0,0,0,0-.1,0,0,0,0,0-.1.1,0,0,0,0,0,.1s0,0,0,.1,0,.1,0,.2c0,0,0,.1,0,.2,0,0,0,.1,0,.2s0,0,0,0c0,0,0,0,0,0,0,0,0,0,0,0,0,0,0,0,0,0s0,0,.1,0c0,0,.1,0,.2,0,0,0,.1,0,.2-.1s.1-.1.2-.2c0,0,0-.1.1-.2s0-.1,0-.2h0Z"/>
          <path class="st1" d="M123.2,27.6s0,0,0,0c0,0,0,0,0,0,0,0,0,0,0,0s0,0,0,0c0,0-.2,0-.2,0,0,0-.2,0-.2-.1,0,0,0,0-.2-.1s-.2-.1-.2-.2c0,0,0,0-.1,0,0,0-.1-.1-.2-.2,0,0-.2-.1-.2-.2,0,0,0,0,0,0s0,0,0,0h-.3c0,0-.1-.1-.1-.2s0,0,0-.1,0,0,0,0h.1s0,0,.1,0c0,0,0,0,0,0,0,0,0,0,0,0,0,0,0,0,0,0,0,0,0,0,.1,0,0,0,0,0,.1,0,0,0,0,0,.1,0s0,0,.1-.1,0,0,0,0c0,0,0,0,0,0,0,0,0,0,0-.1s0,0-.1-.1c0,0,0,0-.2,0,0,0,0,0-.2,0,0,0-.2,0-.3,0h0s0,0-.1,0c0,0,0,0-.1,0s0,0-.1,0h0s0,0,0,0c0,0,0,0,0,0,0,0,0,0,0,0,0,0,0,0,0,.1h0v.2h0c0,.2,0,.2,0,.3,0,0,0,.2,0,.3,0,0,0,.2,0,.2s0,.1,0,.2,0,0,0,.2h0v.3s0,0,0,.1c0,0,0,0,0,0,0,0,0,0,0,.1,0,0,0,0,0,0,0,0,0,0,0,0,0,0,0,0,0,0,0,0,0,0,0,0-.1,0-.2,0-.2,0s0-.1,0-.2c0,0,0,0,0-.1h0c0-.2,0-.3,0-.3,0,0,0-.1,0-.2,0,0,0-.1,0-.2,0,0,0,0,0,0s0,0,0,0,0,0,0,0c0,0,0,0,0,0,0-.1,0-.2,0-.3,0,0,0-.2,0-.3v-.2c0,0,0-.1,0-.2,0,0,0,0-.1,0,0,0,0,0,0,0,0,0-.1,0-.1,0s0,0,0-.1,0-.1.2-.2c0,0,0,0,.1,0s0,0,.1,0,.1,0,.2,0c0,0,.2,0,.2,0,0,0,.2,0,.2,0,0,0,.1,0,.2,0,.2,0,.4,0,.6,0,0,0,.2,0,.3,0s.2,0,.2.2c.1.1.2.3.2.5s0,.3-.2.4c0,.1-.2.2-.3.3-.1,0-.2.2-.4.2,0,0,0,0,.1,0,0,0,0,0,.1,0,0,0,.1,0,.2.1,0,0,.1,0,.2.1,0,0,.1,0,.2.1,0,0,.1,0,.2.2,0,0,.2,0,.2.1,0,0,.1,0,.2,0h0s0,.1,0,.1Z"/>
          <path class="st1" d="M126.8,26h0s0,0,0,0c0,0,0,.2-.2.3,0,0-.1.2-.2.3,0,0-.2.2-.2.3,0,0-.2.2-.2.2s-.2.1-.2.2-.2,0-.2,0-.1,0-.2,0c0,0-.1,0-.2-.1s0-.1-.1-.2c0,0,0-.2,0-.3,0,0,0,0,0,.1,0,0,0,0,0,.1,0,0,0,0-.1.1s0,0-.1.1c0,0,0,0-.1,0,0,0,0,0-.2.1,0,0-.1,0-.2,0,0,0-.2,0-.2,0-.1,0-.2,0-.3,0,0,0-.1,0-.1-.2s0-.1,0-.2c0,0,0-.1,0-.2h0c0,0,0-.1,0-.2,0,0,0,0,0-.2,0,0,0-.1,0-.2,0,0,0-.1,0-.2,0,0,0-.1,0-.2,0,0,0,0,0,0,0,0,0,0,0,0,0,0,0,0,0,0s0,0,0,0,0,0,0,0c0,0,0,0,0,0,0,0,0,0,0,0h0c0,.1,0,.1,0,.2,0,0,0,.1,0,.2,0,0,0,.2,0,.2,0,0,0,.2,0,.3s0,0,0,.1c0,0,0,0,0,0s0,0,.1,0c0,0,0,0,.1,0s0,0,.1,0c0,0,0,0,.1,0,0,0,0,0,.1-.1,0,0,0-.1.1-.2,0,0,0-.1.1-.2,0,0,0,0,0-.1,0,0,0,0,0,0,0,0,0,0,0-.1,0,0,0,0,0-.1,0,0,0,0,0,0h0c0,0,0,0,0,0s0,0,0,0c0,0,0,0,0,0,0,0,0,0,0,0,0,0,0,0,0,0h0s0,0,0,0c0,0,0,0,.1,0,0,0,0,0,0,.1s0,0,0,.1c0,0,0,.1,0,.2,0,0,0,.2,0,.2s0,.2,0,.2c0,.1,0,.2,0,.3,0,0,0,0,.1,0s0,0,.1,0c0,0,0,0,.2,0,0,0,.1,0,.2-.1s.1-.1.2-.2c0,0,0-.1.2-.2s0-.1.1-.2c0,0,.1-.1.2-.2,0,0,0,0,.1,0h0s0,0,0,0c0,0,0,0,0,0,0,0,0,0,0,0h0Z"/>
          <path class="st1" d="M128,26.1h0c0,0,0,0,0,.1,0,0,0,0,0,0h0s0,0,0,0h-.2c-.2,0-.4,0-.6.2,0,0,0,0-.1.1,0,0,0,0-.1.2,0,0,0,.1-.1.2,0,0,0,.1,0,.2,0,0,0,.1,0,.2,0,0,0,.1,0,.2,0,0,0,0,0,0,0,0,0,0,0,0,0,0,0,0,0,0,0,0,0,0,0,0s0,0,0,0h0c0,0-.1,0-.2-.1,0,0,0-.2,0-.3h0v-.2h0v-.2c0,0,0-.1,0-.2,0,0,0-.2,0-.3s0-.2,0-.3c0,0,0-.2,0-.2,0,0,0-.1,0-.2,0,0,0,0,.2,0s0,0,0,0c0,0,0,0,0,0,0,0,0,0,0,0s0,0,0,0h0v.2s0,0,0,.2c0,0,0,.1,0,.2,0,0,0,.1,0,.2,0,0,0,0,0,.1,0,0,0,0,0,.1,0,0,0-.2.2-.3s.1-.2.2-.2.1-.2.2-.2c0,0,.1-.1.2-.2,0,0,.1,0,.2,0,0,0,0,0,.1,0s0,0,.2,0c0,0,0,0,.2,0,0,0,0,0,.1,0,0,0,0,0,0,0h0Z"/>
          <path class="st1" d="M130.7,26.1s0,0,0,0,0,.1,0,.2c0,0,0,.2-.1.2s-.1.2-.2.3c0,0-.1.2-.2.3,0,0-.2.2-.2.2,0,0-.1,0-.2.1,0,0-.1,0-.2,0s-.1,0-.2,0c0,0,0,0-.1,0s0,0,0-.1c0,0,0-.1,0-.2,0,0-.1.2-.2.2,0,0-.1.1-.2.2,0,0-.1.1-.2.1,0,0-.1,0-.2,0s0,0-.1,0c0,0,0,0-.1,0s0,0,0-.1c0,0,0-.1,0-.2s0-.1,0-.2c0,0,0-.2,0-.2,0,0,0-.2,0-.2,0,0,0-.2,0-.2,0,0,0-.1.1-.2s0-.1.1-.2,0,0,.1-.1.1,0,.2-.1c0,0,.1,0,.2,0s.2,0,.2,0,.1,0,.2,0,0,.1,0,.2c0,0,0,0,0,0,0,0,0,0,0,0,0,0,0,0,0,0h0c0,.1,0,.2,0,.2,0,0,0,0,0,.1,0,0,0,0,0,.1v.2c0,0,0,.1,0,.2,0,0,0,0,0,.1,0,0,0,0,0,0s0,0,.1,0c0,0,0,0,.1,0,0,0,.1,0,.2-.2s.1-.1.2-.2c0,0,0-.1.1-.2,0,0,0-.1.1-.2s0,0,0-.2c0,0,0,0,0-.1,0,0,0,0,0,0,0,0,0,0,0,0s0,0,0,0,0,0,0,0h0s0,0,0,0ZM129,26.1h0s0,0,0,0h0s0,0,0,0c0,0,0,0,0,0,0,0,0,0,0,0,0,0,0,0,0,0s0,0,0,0c0,0,0,.1-.1.2,0,0,0,.2-.1.3,0,0,0,.2-.1.3,0,0,0,.2,0,.2s0,0,0,0c0,0,0,0,0,0s0,0,0,0c0,0,0,0,.1-.1s0,0,.1-.2c0,0,0-.1.1-.2,0-.1.1-.2.2-.3,0-.1,0-.2,0-.4h0Z"/>
          <path class="st1" d="M131.9,26.9s0,0,0,0c0,0,0,0,0,0,0,0,0,0,0,0s0,0,0,0c0,0-.1.1-.2.2,0,0-.1.1-.2.2,0,0-.1,0-.2.1,0,0-.1,0-.2,0-.1,0-.2,0-.3,0,0,0-.1,0-.2-.2,0,0-.1-.2-.1-.3,0-.1,0-.3,0-.4s0-.2,0-.3c0-.1,0-.2,0-.3,0-.1,0-.2,0-.4,0-.1,0-.2,0-.3,0-.1,0-.2,0-.3,0,0,0-.2,0-.2s0-.1,0-.2c0,0,0,0,.1,0s0,0,0,0c0,0,0,0,0,0s0,0,0,0,0,0,0,0c0,0,0,.1,0,.2,0,0,0,.2,0,.3,0,0,0,.2,0,.3,0,0,0,.2,0,.3,0,0,0,.1,0,.2,0,0,0,.1,0,.2,0,0,0,.1,0,.2v.2c0,.2,0,.4,0,.5s.1.2.2.2.1,0,.2,0c0,0,.1,0,.2,0s.1,0,.2-.1c0,0,0,0,.1-.1,0,0,0,0,0,0,0,0,0,0,0,0,0,0,0,0,0,0,0,0,0,0,0,0h0Z"/>
        </g>
      </g>
    </g>
  </g>
</svg>