<?xml version="1.0" encoding="UTF-8"?>
<svg id="Layer_2" xmlns="http://www.w3.org/2000/svg" version="1.1" viewBox="0 0 70 100.1">
  <!-- Generator: Adobe Illustrator 29.4.0, SVG Export Plug-In . SVG Version: 2.1.0 Build 152)  -->
  <defs>
    <style>
      .st0 {
        fill: none;
      }

      .st1 {
        fill: #ffcf00;
      }

      .st2 {
        fill: #3c3c3c;
      }

      .st3, .st4 {
        fill: red;
      }

      .st3, .st5 {
        fill-rule: evenodd;
      }

      .st6 {
        fill: #183eff;
      }

      .st5 {
        fill: #00cf00;
      }
    </style>
  </defs>
  <g id="Layer_1-2">
    <rect class="st0" y="28.3" width="70" height="63.4"/>
    <g>
      <g>
        <path class="st6" d="M5.5,46.8c0,0,.2.3.2.6s0,.6-.4.8-.8.3-1.3.3H1.7v-4.1h2.2c.6,0,1,0,1.3.3.3.2.4.5.4.8s0,.3,0,.5-.2.3-.4.4c.3,0,.4.2.6.4h-.2ZM3,45.4v.6h.6c.3,0,.5,0,.5-.3s0-.3-.5-.3h-.6ZM4.3,47.3c0-.2,0-.4-.5-.4h-.8v.6h.8c.3,0,.5,0,.5-.3h0Z"/>
        <path class="st6" d="M8.7,47.5h-.3v1.1h-1.4v-4.1h2c.3,0,.7,0,1,.2.3,0,.5.3.6.6s.2.5.2.8,0,.6-.2.8c-.1.2-.3.4-.6.6l.8,1.3h-1.5l-.7-1h0v-.3ZM9.2,45.6s-.2,0-.4,0h-.5v1h.5c.2,0,.3,0,.4,0,0,0,.1-.2.1-.3s0-.3-.1-.3h0v-.2Z"/>
        <path class="st6" d="M14.8,47.8h-1.5l-.3.7h-1.4l1.8-4.1h1.4l1.8,4.1h-1.5l-.3-.7h0ZM14.4,46.8l-.4-1.1-.4,1.1s.8,0,.8,0Z"/>
        <path class="st6" d="M17.9,48.5c-.3,0-.6-.2-.8-.3l.4-1.1c.2,0,.4.2.7.3h1.1s.1,0,.1,0,0,0-.1-.2-.3,0-.6,0c-.3,0-.6,0-.8-.2s-.4-.2-.6-.3-.2-.4-.2-.7,0-.5.2-.7.3-.3.6-.5.6-.2,1-.2h.8c.3,0,.5,0,.7.3l-.4,1c-.4-.2-.8-.3-1.1-.3s-.6,0-.6.3,0,0,.1.2c.1,0,.3,0,.6,0,.3,0,.6,0,.8.2.2,0,.4.2.6.4s.2.4.2.7,0,.5-.2.7c-.1.2-.3.3-.6.5s-.6.2-1,.2-.7,0-1,0h0Z"/>
        <path class="st6" d="M21.9,44.4h1.4v4.1h-1.4v-4.1Z"/>
        <path class="st6" d="M24.6,44.4h1.4v3.1h1.9v1h-3.3v-4.1h0Z"/>
        <path class="st6" d="M35.3,46.8c0,0,.2.3.2.6s0,.6-.4.8c-.3.2-.8.3-1.3.3h-2.3v-4.1h2.2c.6,0,1,0,1.3.3s.4.5.4.8,0,.3,0,.5c0,0-.2.3-.4.4.3,0,.4.2.6.4h-.2ZM32.8,45.4v.6h.6c.3,0,.5,0,.5-.3s0-.3-.5-.3h-.6ZM34.1,47.3c0-.2,0-.4-.5-.4h-.8v.6h.8c.3,0,.5,0,.5-.3h0Z"/>
        <path class="st6" d="M40,47.5v1.1h-3.4v-4.1h3.4v1h-2v.5h1.8v1h-1.8v.6h2.1,0Z"/>
        <path class="st6" d="M44.9,48.5v-1.9l-.9,1.5h-.6l-.9-1.5v1.8h-1.3v-4.1h1.1l1.3,2.2,1.3-2.2h1.1v4.1h-1.3.2Z"/>
      </g>
      <g>
        <path class="st2" d="M4.1,66v-1.2l-.6,1h0l-.6-1v1.2h-.2v-1.7h.2l.7,1.2.7-1.2h.2v1.7h-.3Z"/>
        <path class="st2" d="M6.4,65.6h-.9l-.2.4h-.3l.8-1.7h.2l.8,1.7h-.3l-.2-.4h0ZM6.2,65.4l-.3-.8-.3.8h.7,0Z"/>
        <path class="st2" d="M7.5,64.3h.2v1.7h-.2v-1.7Z"/>
        <path class="st2" d="M8.8,66c-.1,0-.2,0-.3,0v-.2c.1,0,.2,0,.3,0h.6v-.2h0c0-.2,0,0-.1-.2h-.5s-.1,0-.2,0v-.5s.1,0,.2,0h.6s.2,0,.3,0v.2h-.8c-.1,0,0,0,0,.2h0c0,.2,0,0,.1.2h.5s.1,0,.2,0v.5s-.1,0-.2,0h-.8,0Z"/>
        <path class="st2" d="M12,66c-.1,0-.2,0-.3,0v-.2c.1,0,.2,0,.3,0s.2,0,.3,0h.3v-.2h0c0-.2,0,0-.1-.2h-.5s-.1,0-.2,0v-.5s.1,0,.2,0h.6s.2,0,.3,0v.2h-.8c-.1,0,0,0,0,.2h0c0,.2,0,0,.1.2h.5s.1,0,.2,0v.5s-.1,0-.2,0h-.8,0Z"/>
        <path class="st2" d="M14.8,65.6h-.9l-.2.4h-.3l.8-1.7h.2l.8,1.7h-.3l-.2-.4s.1,0,0,0ZM14.8,65.4l-.4-.8-.3.8h.7Z"/>
        <path class="st2" d="M16.2,65.9c-.1,0-.2-.3-.2-.6v-1h.2v.9c0,.4.1.6.5.6s.3,0,.3,0,.1-.2.1-.4v-.9h.2v1c0,.2,0,.4-.2.6s-.3.2-.5.2-.4,0-.5-.2h.1ZM16.9,63.9h.3l-.4.3h-.2l.3-.3h0Z"/>
        <path class="st2" d="M18.4,64.3h.7c.2,0,.3,0,.5,0,.1,0,.3,0,.3.3s.1.3.1.4,0,.3-.1.4c0,0-.2.2-.3.3s-.3,0-.5,0h-.7v-1.7h0ZM19.1,65.8h.3s.2,0,.2-.2v-.7c0-.2-.1,0-.2-.2h-.8v1.3h.5v-.2Z"/>
        <path class="st2" d="M22.1,65.8v.2h-1.2v-1.7h1.2v.2h-.9v.5h.8v.2h-.8v.6h1-.1Z"/>
        <path class="st2" d="M25.3,64.5c.1,0,.2.3.2.4s0,.4-.2.4-.3,0-.5,0h-.4v.5h-.2v-1.7h.6c.2,0,.4,0,.5,0h0v.2ZM25.1,65.2s.1,0,.1-.3,0-.2-.1-.3-.2,0-.3,0h-.4v.8h.7v-.2Z"/>
        <path class="st2" d="M27.4,65.6h-.9l-.2.4h-.3l.8-1.7h.2l.8,1.7h-.3l-.2-.4h.1ZM27.3,65.4l-.4-.8-.3.8s.7,0,.7,0Z"/>
        <path class="st2" d="M29.7,66l-.4-.5h-.5v.5h-.2v-1.7h.6c.2,0,.4,0,.5,0,.1,0,.2.3.2.4v.3s-.1,0-.3.2l.4.6h-.3ZM29.5,65.2s.1,0,.1-.3,0-.2-.1-.3-.2,0-.3,0h-.4v.8h.7v-.2Z"/>
        <path class="st2" d="M31.8,65.6h-.9l-.2.4h-.3l.8-1.7h.2l.8,1.7h-.3l-.2-.4s.1,0,0,0ZM31.7,65.4l-.3-.8-.4.8s.7,0,.7,0Z"/>
        <path class="st2" d="M35.8,66.2s0,0-.2,0h-.5s-.2,0-.3-.3c0,0-.3,0-.4,0,0,0-.2-.2-.3-.3s0-.3,0-.4,0-.3,0-.4c0,0,.2-.2.3-.3,0,0,.3,0,.5,0s.3,0,.5,0c0,0,.2.2.3.3s0,.3,0,.4v.3s0,.2-.2.3c0,0-.2,0-.4,0,0,0,0,0,0,0h0c0,0,.2,0,.3,0h0c0,0,0,.3,0,.3h.1ZM34.3,65.5s0,.2.2.2h.7s.2,0,.2-.2v-.7s0-.2-.2-.2h-.7c-.2,0-.2,0-.2.2v.7Z"/>
        <path class="st2" d="M36.8,65.9c0,0-.2-.3-.2-.6v-1h.2v.9c0,.4,0,.6.5.6s.3,0,.4,0,0-.2,0-.4v-.9h.2v1c0,.2,0,.4-.2.6s-.3.2-.6.2-.4,0-.5-.2h0Z"/>
        <path class="st2" d="M40.2,65.8v.2h-1.2v-1.7h1.2v.2h-.9v.5h.8v.2h-.8v.6h1,0Z"/>
        <path class="st2" d="M42.6,66v-1.2l-.6,1h0l-.6-1v1.2h-.2v-1.7h.2l.7,1.2.7-1.2h.2v1.7h-.3Z"/>
        <path class="st2" d="M46.6,66v-1.2l-.6,1h0l-.6-1v1.2h-.2v-1.7h.2l.7,1.2.7-1.2h.2v1.7h-.3Z"/>
        <path class="st2" d="M48.8,65.6h-.9l-.2.4h-.3l.8-1.7h.2l.8,1.7h-.3l-.2-.4h.1ZM48.7,65.4l-.4-.8-.4.8h.8Z"/>
        <path class="st2" d="M50,64.3h.2v1.7h-.2v-1.7Z"/>
        <path class="st2" d="M51.3,66c0,0-.2,0-.3,0v-.2c0,0,.2,0,.4,0h.6v-.2h0c0-.2,0,0,0-.2h-.5s0,0-.2,0v-.5s0,0,.2,0h.6s.2,0,.3,0v.2h-.8c0,0,0,0,0,.2h0c0,.2,0,0,0,.2h.5s0,0,.2,0v.5s0,0-.2,0h-.8Z"/>
        <path class="st2" d="M55.4,64.5c0,0,.2.3.2.4s0,.4-.2.4-.3,0-.5,0h-.4v.5h-.2v-1.7h.6c.2,0,.4,0,.5,0h0v.2ZM55.3,65.2s0,0,0-.3,0-.2,0-.3-.2,0-.4,0h-.4v.8h.8v-.2Z"/>
        <path class="st2" d="M57.6,66l-.4-.5h-.5v.5h-.2v-1.7h.6c.2,0,.4,0,.5,0,0,0,.2.3.2.4v.3c0,0,0,0-.3.2l.4.6h-.3ZM57.5,65.2s0,0,0-.3,0-.2,0-.3-.2,0-.4,0h-.4v.8h.8v-.2Z"/>
        <path class="st2" d="M60,65.8v.2h-1.2v-1.7h1.2v.2h-.9v.5h.8v.2h-.8v.6h1,0Z"/>
        <path class="st2" d="M61.1,65.9c0,0-.2-.2-.4-.3,0,0,0-.3,0-.4s0-.3,0-.4.2-.2.4-.3c0,0,.3,0,.5,0h.3s.2,0,.3.2h-.9s-.2,0-.2.2v.8s0,.2.2.2h.3c.2,0,.4,0,.5-.2h0c0,.2,0,.3-.3.3h-.3c0,0-.4,0-.5,0h0Z"/>
        <path class="st2" d="M63.1,64.3h.2v1.7h-.2v-1.7Z"/>
        <path class="st2" d="M64.4,66c0,0-.2,0-.3,0v-.2c0,0,.2,0,.4,0h.6v-.2h0c0-.2,0,0,0-.2h-.5s0,0-.2,0v-.5s0,0,.2,0h.6s.2,0,.3,0v.2h-.8c-.1,0,0,0,0,.2h0c0,.2,0,0,0,.2h.5s0,0,.2,0v.5s0,0-.2,0h-.8,0Z"/>
        <path class="st2" d="M67.3,65.6h-.9l-.2.4h-.3l.8-1.7h.2l.8,1.7h-.3l-.2-.4h0ZM67.2,65.4l-.3-.8-.4.8h.7Z"/>
      </g>
      <g>
        <polygon class="st1" points="57.3 63.3 70 55.3 57.3 47.4 57.3 47.4 57.2 47.4 57.2 47.4 57.2 47.4 44.4 55.3 57.2 63.3 57.2 63.3 57.2 63.3 57.3 63.3 57.3 63.3"/>
        <path class="st6" d="M62.6,55.3c0-2.9-2.4-5.4-5.4-5.4h0c-2.9,0-5.4,2.4-5.4,5.4s2.4,5.4,5.4,5.4h0c2.9,0,5.4-2.4,5.4-5.4"/>
      </g>
      <g>
        <path class="st6" d="M45.9,60.3c2.8,0,4.8-2.2,4.8-5s-2.2-5-5-5"/>
        <rect class="st1" x="42.6" y="50.3" width="3.4" height="10.1"/>
      </g>
      <g>
        <path class="st6" d="M28,60.3c2.8,0,4.8-2.2,4.8-5s-2.2-5-5-5"/>
        <rect class="st1" x="24.6" y="50.3" width="3.4" height="10.1"/>
      </g>
      <rect class="st4" x="20.4" y="50.3" width="3.4" height="10.1"/>
      <g>
        <polygon class="st3" points="36.9 49.9 39.3 55.2 41.7 60.3 36.9 60.3 32 60.3 34.4 55.2 36.9 49.9"/>
        <polygon class="st5" points="36.9 49.9 39.3 55.2 39.6 55.9 34.1 55.9 34.4 55.2 36.9 49.9"/>
      </g>
      <g>
        <polygon class="st5" points="11.6 50.3 15.5 50.3 15.5 55.3 11.6 55.3 11.6 50.3"/>
        <path class="st3" d="M15.5,60.3c-2.2,0-4.1-1.8-4.1-4.1v-1h4.1v5h0Z"/>
        <polygon class="st5" points="19.6 50.3 15.5 50.3 15.5 55.3 19.6 55.3 19.6 50.3"/>
        <path class="st3" d="M15.5,60.3c2.2,0,4.1-1.8,4.1-4.1v-1h-4.1v5h0Z"/>
      </g>
      <g>
        <path class="st1" d="M2.2,51.4c-2.2,2.2-2.2,5.7,0,7.9s5.7,2.2,7.9,0c.1,0,.3-.4.4-.5l-3.8-3.8-.2-.2-3.9-3.8c-.2,0-.3.3-.5.4h.1Z"/>
        <path class="st6" d="M10.1,51.4c-2.2-2.2-5.7-2.2-7.9,0C0,53.6,0,57.1,2.2,59.3c0,0,.3.3.5.4l3.9-3.8.2-.2,3.8-3.8c-.1-.2-.3-.3-.4-.5h-.1Z"/>
      </g>
    </g>
  </g>
</svg>