<?xml version="1.0" encoding="UTF-8"?>
<svg id="Layer_2" xmlns="http://www.w3.org/2000/svg" version="1.1" viewBox="0 0 110.6 100.1">
  <!-- Generator: Adobe Illustrator 29.4.0, SVG Export Plug-In . SVG Version: 2.1.0 Build 152)  -->
  <defs>
    <style>
      .st0 {
        fill: #58595b;
      }

      .st1 {
        fill: #ffcf00;
      }

      .st2 {
        fill: #00cf00;
      }

      .st3 {
        fill: red;
      }

      .st4 {
        fill: #173dff;
      }
    </style>
  </defs>
  <g id="Layer_1-2">
    <g>
      <g>
        <path class="st2" d="M33.9,47.6v-9.2h2.3c.4,0,.5-.2.5-.5h-6.3c0,.4.2.5.5.5h2v8.8c0,.4-.2.5-.5.5-.9,0-1.9.2-2.8.4-.8,0-1.7.3-2.5.4v-5.7c0,0,.2,0,.3,0,.5.3,1,.2,1.4-.3.3-.4.3-.9-.2-1.2-.6-.5-1.4-.9-2-1.4-.2,0-.3-.4-.3-.5v-1.5c0-.6-.9-.9-1.5-.5-.3.2-.4.5-.6.8-.5-.4-1.2-.8-1.9-1.3-.6-.5-1-.5-1.6,0-2,1.4-4,2.7-6.1,4-.2,0-.3.2-.4.3-.3.3-.4.7,0,1.1.3.4.7.5,1.2.3,0,0,.3,0,.4-.2v2.1c-4.5-1.5-7.4-2.7-14.6-2.1v3.7c4.3-.6,3-.5,7.3-.5s9.7,1.5,13.7,3c0,0-.2-.2-.3-.3-1.4-.9-2.7-1.8-4-2.8-.2,0-.4-.3-.4-.5v-3.5c0,0,0-.4.2-.4,1.3-.9,2.6-1.7,3.9-2.6,1.3.8,2.5,1.7,3.8,2.5.3.2.4.4.4.6v6.7c-8.4,1.7-16.3,3.5-23.6,7.5h.2c.5,0,.9-.3,1.4-.4,5.6-1.5,11.3-2.5,17-3.4,4-.6,8-1.1,12.1-1.3h5.7v-3.8c-1.5,0-2.8,0-4.3.2"/>
        <path class="st2" d="M38.2,52.5c-3.9,0-7.4,0-11.3.2-5,.3-12.9,1.7-17.5,2.5-3.6.5-4.6.8-7.7,1.5-.5,0-1.1.4-1.6.5h38.2v-4.6h0Z"/>
        <path class="st2" d="M4.5,48.1c.5.3.9.5,1.1,1.1,0,.4.2.6,0,1,0,.5,0,.9-.2,1.3,0,.5-.2.9-.2,1.5s.3,1,.6,1.4h0c-.2,0-.4-.2-.5-.3-.8-.5-1.4-1.3-1.5-2.3,0-.5,0-1.2-.3-1.7,0-.2,0-.4-.2-.5v2.2c0,.5.2.9.5,1.3v.2h-.2c-.4-.2-.7-.5-1-.8-.3-.3-.5-.6-.5-1-.2-.7,0-1.5,0-2.2,0-.5.2-.9,0-1.4v-.3h.4c.5.2.9.3,1.4.5,0,0,.2,0,.2.2"/>
        <path class="st2" d="M8.2,48.3c-.2.4-.4.7-.7,1-.3.2-.5.3-.9.4.5-.5.9-.9.9-1.6-.2.4-.5.7-.7,1-.2.2-.3.3-.5.4h0c-.2-.5-.2-1.1,0-1.6v-.3c.3-.4.6-.7,1.2-.7h0c.2,0,.4,0,.6,0h.5c.2,0,.3,0,.2.4-.2.4-.3.8-.5,1.2,0,0,0,0-.2.2"/>
        <path class="st2" d="M9.3,49.9c-.4.7-.5,1.5-.9,2.3-.5.7-1,1.2-2,1.4.6-.5,1.1-1.2,1.3-2.1-.3.4-.5.7-.7,1.1-.2.3-.5.5-.7.7h0c-.3-1-.2-1.9.6-2.6.6-.6,1.5-.8,2.4-.6h.3"/>
        <path class="st2" d="M29.6,34.9c0,0,0,.3,0,.4,0,.2.2.4.2.5,0,.3,0,.7,0,.9.4.4.3.8.3,1.2s.2.5.5.5h5.4c.3,0,.5-.2.5-.5s0-.7,0-.8c.4-.4.3-.7.4-1.2v-.5c.5-.4.3-.8.4-1.3,0-.2,0-.3.2-.5,0,0,0-.3.2-.4,0,0-.3-.2-.4-.2-1.8,0-3.5-.6-5.4-.2h0c-.8,0-1.6,0-2.5.2-.3,0-.5.2-.3.4.5.4.3.9.4,1.4M32.5,35.5c.3-.5.7-1.1,1.1-1.7.4.7.8,1.4,1.1,2s0,1.1-.5,1.5-1.1.2-1.5-.3-.4-1,0-1.5"/>
      </g>
      <g>
        <g>
          <path class="st3" d="M45.6,51.6c0,.2-.4.3-.9.3h-4.1c-.2,0-.3-.4-.3-.5v-1.5c0-3.1.2-12.9.3-15.7,0-1.3,0-1.4,1.5-1.4h4.5c4.2.2,5.9,1.1,7.1,1.9,1.5,1.1,2.5,2.9,2.5,5s-.8,4-2.6,5.3c-1.9,1.5-4,1.6-5.8,1.6h-1.8c0,.6,0,4.6,0,5.1h0l-.2-.2ZM46.9,43.1c2.9,0,4.1-1.6,4.1-3.5,0-3.3-3.5-3.3-4.1-3.3h-.9v3.4c0,2.4-.2,2.5-.2,3.3.5,0,.6,0,1.1,0h0Z"/>
          <path class="st1" d="M75.7,32.9c.8,0,1,.2,1,.9,0,3.2-.4,8.2-.5,11.4l-.2,5.6c0,1.1,0,1.4-1.4,1.4h-2.7c-.5,0-.5,0-2-2.3-.5-.7-6.7-8.6-7.7-9.9,0,.2,0,11.4-.2,11.9,0,.3-.3.3-2,.3s-2.3,0-2.4-.2c0,0,0-.6,0-.8,0-.9,0-5.8.2-7.2,0-1.7.3-9.6.4-10.4,0-.5.2-.5.9-.6h1.5c2.1,0,2.5,0,2.7.2.6.3,6.2,7.5,6.4,7.7,1.7,2.4,1.9,2.6,2.4,3.2,0-1.6.3-9.8.3-10.3s.3-.7,1.6-.7h1.9v-.2Z"/>
          <path class="st4" d="M90.6,33.5c0,.4,0,1.1-.2,2,0,.6-.2,1-.6,1s-.8-.2-1.9-.2c-1.6,0-3.3.5-3.3,1.6s.4,1,2.2,2.5c2.8,2.4,4.2,3.5,4.2,5.9s-3.1,6.1-8.1,6.1-2.5,0-3.9-.3c-.8,0-.9-.4-.9-1s.2-2.2.3-2.5c0-.2.3-.3.5-.3.5,0,2.2.5,3.7.5s2.8-.5,2.8-1.8-.3-1.1-2.7-3.4c-2.8-2.6-3.5-3.7-3.5-5.5s2-5.5,8.4-5.5,3.1,0,3.1.7Z"/>
          <path class="st2" d="M109.2,49.8c.5.5.8,1,.8,1.2,0,.4-.4.5-1.7.9-.5.2-2.5.8-2.9.8s-.8-.6-1-.8c-.7-1.1-3.1-4-4.5-5.6h-1.5c0,.6,0,5.3-.4,5.5s-2.5.3-3.2.3c-1.7,0-1.9,0-1.9-1.3s0-5.9,0-6.9c0-4.1,0-5.3.3-8.9,0-1.5,0-1.9.9-2h4c3.8,0,5.7.3,7.6,1.5,1.3.8,2.5,2.5,2.5,4.6s-1.5,4.5-3.9,5.9c.2.3,4.3,4.2,4.7,4.7h0ZM98.5,39.5c0,2.5,0,2.8,0,3.4,3.2,0,4.6-2.1,4.6-3.7s-.5-2.7-3.1-2.7-1,0-1.4.2v2.9h0Z"/>
        </g>
        <g>
          <path class="st0" d="M42.5,54.3h0v.2h0l-.2.2s-.2,0-.3.2c0,0-.2,0-.3.2,0,0-.2,0-.3.2,0,0-.2,0-.4.2,0,0-.2,0-.4,0h0v.2h0v.5h0v.2h0q0,0-.2,0c-.2,0-.3-.3-.3-.8v-1.3s0,0,0-.2h-.3v-.2h0c0-.2,0,0,.2,0h1.6c0,0,.2,0,.3,0,0,0,0,.2,0,.3h0ZM41.6,54.2h-.5v.2h0v.2h0c0,0,0,0,0,0h.5s0,0,.2,0l.2-.2c0,0,0,0,0-.2s0,0,0-.2,0,0,0,0h-.5v.3Z"/>
          <path class="st0" d="M44.4,55h0c0,0-.2,0-.2,0-.2,0-.4,0-.5.2h0q0,0,0,.2s0,0,0,.2v.5h0s0,0-.2,0v-.3h0v-.2h0v-.9h0q0,0,.2,0c.2,0,0,0,0,0h0v.6h0v.2s0-.2,0-.3c0,0,0-.2.2-.2l.2-.2s0,0,.2,0h.5l-.3.3Z"/>
          <path class="st0" d="M46.6,55h-.8v.3s0,0,0,.2,0,0-.2.2l-.2.2h-.9s0,0,0,0h0v-.5s0-.2,0-.3c0,0,0-.2.2-.2,0,0,0-.2.2-.2h0c0,0,0,0,.2-.2h.4c0,0,0,0,0,0s0,0,0,0h1.2v.6ZM45.3,55.4h0v-.2h0v.2h0v.3h0c0,0,0,0,0,0h.3c0,0-.3-.4-.3-.4Z"/>
          <path class="st0" d="M47.3,55.2v1.3c0,0,0,.2,0,.3,0,0,0,0,0,.2,0,0,0,0,0,.2,0,0,0,0-.2,0h-.5s0,0-.2,0c0,0,0,0,0,0s0,0,0,0h0c0,0,0-.2,0-.2s0,0,0,0h0l.2.2h.7c0,0,0,0,0,0s0,0,0-.2v-.2h0v-.4s0,0-.2,0c0,0,0,0-.2,0h-.4c0,0,0,0,0,0h0v-.5s0-.2,0-.3,0-.2,0-.2c0,0,0-.2.2-.2l.2-.2s0,0,.2,0,0,0,.2,0,0,0,0,0h.2v.3h0v.2-.2ZM46.9,55.4h0v-.2h0v-.3h0c0,0,0,0,0,0l-.2.2s0,.2-.2.3h0v.2h0c0,0,0,0,.2,0h.3v-.4Z"/>
          <path class="st0" d="M49.2,55h0c0,0-.2,0-.2,0-.2,0-.4,0-.5.2h0q0,0,0,.2s0,0,0,.2v.5h0s0,0-.2,0v-.3h0v-.2h0v-.9h0q0,0,0,0c0,0,0,0,0,0h0v.6h0v.2s0-.2,0-.3c0,0,0-.2.2-.2l.2-.2s0,0,.2,0h.2c0,0,0,0,0,0h.3l-.2.3Z"/>
          <path class="st0" d="M51.5,55h0s0,.2-.2.3l-.2.2h0q0,0,0,0h-.4v-.2h0q0,0,0,0h0q0,0,0,.2c0,0,0,0,0,0s0,0,0,0h-.4c0,0,0,0,0,0v-.5s0-.2,0-.2c0,0,0-.2,0-.2s0,0,0-.2l.2-.2c0,0,.2-.2.3-.2h.3c0,0,0,0,0,0h0v.2h0v.3h0v.3h0c0,0,.2,0,.2,0,0,0,.2,0,.2-.2s0,0,0,0h0c0,0,.2.5.2.5ZM50.1,54.8h0s0,0-.2,0l-.2.2c0,0,0,.2-.2.3h0v.2h0v.3c0,0,0,0,0,0h0c0,0,0,0,0,0l.2-.2s0,0,0-.2c0,0,0,0,0-.2v-.2h0c0,0,0-.2,0-.2Z"/>
          <path class="st0" d="M54.7,55.2h0q0,0,0,.2h0q0,0,0,.2h0c0,0,0,0,0,.2h-.4c0,0,0,0,0,0s0,0,0,0c0,0,0,0,0-.2v-.4h0v-.2h0q0,0,0,0h0c0,0,0,.2,0,.3s0,0,0,.2c0,0,0,.2,0,.2,0,0,0,0,0,.2h0q0,0,0,0h0v-.8h0q0,0,0,0c0,.2,0,0-.2.2,0,0,0,.2-.2.3h0v.2h-.2v-.3h0v-.3h0v-.6h0v-.2h0c0,0,0,0,0,0h0v1h0q0,0,0,0h0v-.2h0c0,0,0-.2.2-.2h.4c0,0,0,0,0,.2h0v.4h0v.2h0v-.2h0c0,0,0-.2,0-.3,0,0,0,0,0-.2h0q0,0,0,0h0v.8s0,0,0,0,0,0,0,0h.4q0,0,0-.2h0q0,0,0-.2h0l.5-.4Z"/>
          <path class="st0" d="M56.3,55.8h0c0,.2,0,0,0,.2h-.5q0,0,0,0s0,0,0-.2,0,0,0-.2l-.2.2-.2.2c0,0,0,0-.2,0h-.2c0,0,0,0,0,0h0v-.2h0v-.5s0,0,0-.2c0,0,0-.2.2-.3s0-.2.2-.2l.2-.2h.2v.2h0v.5h0c0,.2,0,0,0,0h.2q0,0,0,0h0l.6.5ZM55.3,55.1v-.2h0v.7h0v.2h.2c0-.2,0,0,0-.2s0,0,0,0h0v-.3h0c0,0-.3-.2-.3-.2Z"/>
          <path class="st0" d="M57.5,55.8v-1.5h0v-.2h.2v.4c0,0,0,.2,0,.2,0,0,0,.2.2.3s0,.2.2.3,0,.2.2.3c0,0,0,.2.2.3v-.9h0v-.9h0q0,0,0,0h0v.3h0v.2h0c0,.3,0,.5,0,.6s0,.3,0,.5v.7h0v.2h0q0,0,0,0h0q0-.2,0-.3c0-.2-.3-.4-.4-.5,0-.2-.3-.4-.4-.6v1.2h0v.2h0v-.3h0v-.2h0Z"/>
          <path class="st0" d="M62.6,55.2h0c0,0,0,.2-.2.3,0,0,0,0-.2.2,0,0-.2,0-.2,0h-.3c0,0,0,0,0,0h-.2v-.2h0q0,0,0,.2h0c0,.2,0,0,0,.2h-.6v-.3h0v-.5s0-.2,0-.2c0,0,0,0,0-.2,0,0,0,0,.2-.2,0,0,0,0,.2-.2,0,0,0,0,.2,0s0,0,.2,0h.2v.5c0,0,0,0,0,0h.2s0,0,.2,0,0,0,.2-.2,0,0,.2-.2h0l.2.6ZM61.2,55.1h-.2s0,0-.2.2v.2c-.2.2,0,0-.2.2,0,0,0,.2,0,.2s0,0,0,.2h.2q0,0,.2,0s0,0,.2-.2c0,0,0,0,0-.2,0,0,0-.2,0-.2v-.3h0Z"/>
          <path class="st0" d="M64.5,55h0c0,0,0,.3-.2.3s-.2.2-.2.2c0,0-.2.2-.3.2,0,0-.2,0-.3.2h-.9s0,0-.2,0c0,0,0,0,0-.2v-.2c0-.2,0-.3,0-.5,0-.2.2-.3.3-.5h0q0,0,0-.2h.4c0,.2,0,0,0,.2h0v.3h0q0,0,0,0h0v.2h0v.3h0c0,0,0,0,.2,0h.4s0,0,.2,0c0,0,.2,0,.2-.2,0,0,.2,0,.2-.2,0,0,0,0,.2-.2,0,0,0,0,0-.2h0v.5Z"/>
          <path class="st0" d="M65.8,55.3h0v.2q0,0,0,.2s0,0-.2.2c0,0,0,0-.2.2,0,0-.2,0-.2.2h-.2c0,0-.2,0-.2,0h-.2s0,0-.2,0c0,0,0,0,0-.2v-.5h0v-.5c0,0,0,0,0,0,0,0,0,0,0-.2h.2q0,0,0,0h0v.9c0,0,0,0,0,0h.2c0,0,.2,0,.3-.2h0c0,0,0,0,.2-.2h0q0,0,0-.2h.2ZM64.7,53.9h0v.2s0,0-.2,0h0v-.2c0,0,0,0,0,0h.2Z"/>
          <path class="st0" d="M67.6,54.9h-.6v.2h0c0,0,0,.2,0,.2s0,0,0,0h0c0,0,0,0-.2.2h-.6v-.5h0v-.3s0,0,0-.2c0,0,0,0,0-.2,0,0,0,0,.2-.2,0,0,0,0,.2,0h1.1v.7ZM65.7,56h.3s0,0,.2-.2,0-.2,0-.3,0-.2,0-.3,0,0,0,0h0v.6h0c0,.2,0,0,0,0h-.5Z"/>
          <path class="st0" d="M70.1,55.2h0s0,0,0,.2c0,0,0,0,0,.2,0,0,0,0-.2.2,0,0,0,0-.2,0h-.6s0,0,0,0v-.6h0q0,0,0,0s0,.2-.2.3h0c0,0,0,.2,0,.2s0,0,0,0h0c-.2,0-.2-.2-.2-.4v-1h0v.2h0v.2h0v.2h0q0,0,0,0h0v-.2h0c0,0,0-.2,0-.2h0q0,0,0,0h.5v.5h0v.2h0c0,.2,0,0,0,0h.2q0,0,.2,0s0,0,.2-.2c0,0,.2,0,.2-.2s0,0,0,0h0l.5.4Z"/>
          <path class="st0" d="M71.9,55h0v.2s0,0,0,.2c0,0,0,.2,0,.2,0,0,0,.2-.2.3,0,0,0,0-.2.2,0,0,0,0-.2,0h-.4v-.3s0,0-.2.2c0,0,0,0-.2.2,0,0,0,0-.2,0h-.4c0,0,0,0,0,0v-.9s0,0,0-.2,0,0,0,0,0,0,0,0c0,0,0,0,.2,0h.5v.2h0v.5h0q0,0,0,0h.2c0,0,0-.2,0-.3,0,0,0,0,0-.2h0v-.2h0c0,0,.5,0,.5,0ZM70.5,55h0s0,0,0,.2c0,0,0,.2,0,.2v.5h0c0-.2,0,0,0-.2,0,0,0,0,0-.2,0,0,0-.2,0-.3v-.3h-.2Z"/>
          <path class="st0" d="M72.9,55.7h0s0,0-.2.2c0,0,0,0-.2,0,0,0,0,0-.2,0h-.5s0,0-.2-.2c0,0,0-.2,0-.3v-2.1h0v2.1c0,0,0,0,.2,0h.4q0,0,0,0h0c0,0,.5,0,.5,0Z"/>
          <path class="st0" d="M76.4,55.7s0,0-.2.2,0,0-.2.2-.2,0-.3,0h-.5s0,0-.2-.2c0,0,0,0,0-.2v-.3h0v.2h0c-.2.2-.3.3-.5.4,0,0-.3,0-.4,0h-.2c0,0,0,0,0,0h0v-.4c0,0,0-.2,0-.3s0-.2.2-.3c0,0,0-.2.2-.2,0,0,0,0,.2-.2,0,0,0,0,.2-.2,0,0,0,0,.2,0s0,0,0,0h0v-1h.3c0,0,0,0,0,.2h0v1.2h0v.3h0v.2h.5s0,0,.2,0,0,0,.2,0h0l.2.5ZM75,55h0s0,0-.2,0,0,0-.2.2c0,0,0,.2-.2.2,0,0,0,.2,0,.2v.2h0q0,0,0,0h0s0,0,0,0h0s0,0,.2-.2,0,0,.2-.2c0,0,0,0,.2-.2s0,0,0-.2h-.2Z"/>
          <path class="st0" d="M77.7,55.5v.2s0,0,0,.2c0,0,0,0-.2.2h-.2c0,0-.2,0-.3.2h-.5s0,0-.2,0c0,0,0,0,0-.2v-.6s0,0,0-.2c0,0,0,0,0-.2h0q0,0,0-.2h.2c0,0,0,0,.2,0h.3v.5s0,.2-.2.2c0,0-.2,0-.3.2,0,0-.2,0-.3.2h.5s0,0,.2,0c0,0,0,0,.2-.2h.5ZM77,54.9h0v.2c0,0,0,0,0,.2v.2s0,0,.2-.2,0,0,.2,0h0v-.2h-.3Z"/>
          <path class="st0" d="M80.6,54.3h0c0,0,0,0-.3,0h0v-.2h-.6v.2h.2c.3,0,.5.2.5.3s.2.2.2.4,0,0,0,0h0q0,0,0,.2c0,0,0,0,0,0h-1.5c0,0,0,0,0,0h1-.4c0,0-.3,0-.5-.2h0s-.2,0-.2,0c0,0,0,0-.2-.2,0,0-.2-.3-.2-.5v-.2s0,0,.2-.2,0,0,.2-.2c0,0,.2,0,.3,0s.2,0,.3,0h.6s0,0,.2,0v.2h0l.4.3Z"/>
          <path class="st0" d="M83.2,55h0s0,.2-.2.3-.2.2-.2.2h0c0,.2,0,0,0,0h-.3c0,0,0,0,0,0h0v-.2h0v.2h0c0,0,0,0-.2.2h-.5c0,0,0,0,0,0v-.5s0-.2,0-.2,0-.2,0-.2,0,0,0-.2c0,0,0,0,.2-.2,0,0,.2-.2.3-.2h.3c0,0,0,0,0,0h0v.4h0v.3h0c0,0,.2,0,.2,0,0,0,.2,0,.2-.2h0l.3.5ZM81.8,54.8h0q0,0-.2,0t-.2.2c0,0,0,.2-.2.3h0v.2h0v.3c0,0,0,0,0,0h0c0,0,0,0,0,0,0,0,0,0,.2-.2s0,0,0-.2c0,0,0,0,0-.2v-.2h0v-.2Z"/>
          <path class="st0" d="M85.5,55.4h0c0,0,0,.2,0,.2s0,0-.2,0c0,0,0,0-.2,0h-.5s0,0-.2,0v-.2c0,0,0,0,0-.2v-.4h0v.2s0,.2,0,.3c0,0,0,.2,0,.2,0,0,0,0-.2.2h-.4v-1h0v-.2h0v.9h0v-.2h0c0-.2,0-.3.2-.4,0,0,0-.2.2-.2s0,0,.2,0h.2c0,0,0,0,0,0h0v.5s0,0,.2,0h1.1Z"/>
          <path class="st0" d="M87.3,55.2h0c0,0,0,.3-.2.4,0,0-.2.2-.2.3,0,0-.2.2-.3.2,0,0-.2,0-.3.2,0,0-.2,0-.3,0h-.3c-.2,0-.4,0-.5-.2,0,0-.2-.3-.2-.5v-.5c0,0,0-.2,0-.3,0,0,0-.2.2-.2h.5v.4c0,0,0,.2,0,.3,0,0-.2.2-.3.4,0,0,0,0-.2,0,0,0,0,0-.2.2h.6s0,0,.2,0c0,0,.2,0,.3-.2l.2-.2h0c0-.2,0-.2.2-.2s0,0,0,0h.5ZM86,54.9h0c0,0,0,0,0,0,0,0,0,0,0,.2v.3s0,0,.2,0c0,0,0,0,.2,0,0,0,0,0,0-.2v-.2h-.2Z"/>
          <path class="st0" d="M89.2,55h0s0,.2-.2.3-.2.2-.2.2h0c0,.2,0,0,0,0h-.3c0,0,0,0,0,0h0v-.2h0v.2c0,0,0,0,0,0h0c0,0,0,0-.2.2s0,0,0,0h-.4c0,0,0,0,0,0v-.5s0-.2,0-.2,0-.2,0-.2,0,0,0-.2c0,0,0,0,.2-.2,0,0,.2-.2.3-.2h.3c0,0,0,0,0,0h0v.4h0v.3h0c0,0,0,0,.2,0,0,0,.2,0,.2-.2h0l.3.5ZM87.8,54.8h0q0,0-.2,0t-.2.2c0,0,0,.2-.2.3h0v.2h0v.3c0,0,0,0,0,0h0c0,0,0,0,0,0,0,0,0,0,.2-.2s0,0,0-.2c0,0,0,0,0-.2v-.2h0v-.2Z"/>
          <path class="st0" d="M92.3,55.6h0c0,0-.2,0-.3.2h-.4c-.2,0,0,0-.2,0s0,0,0,0c0,0,0,0,0-.2v-.3h0c0,0,0,.3-.2.5,0,0,0,.2,0,.2s0,0,0,.2h0q0,0,0,0h0v-.7h0q0,0,0,0h0v.2h0v.2h0q0,0,0,0h0v-.4h0v-1.1h0c0-.2,0,0,0,0,.2,0,.2,0,.2.3s0,0,0,0h0v.6h0s0,0,.2-.2,0,0,.2-.2,0,0,.2,0h.3v.5c0,0,0,0,0,0h0v.3h0v-.2h0v-.3s0,0,0-.2h0c0,0,0,0,.2,0h.2v.5c0,0,0,.2,0,.3s0,0,0,0h.3s.2,0,.3,0h0l-.3-.2Z"/>
          <path class="st0" d="M94.1,55.1h0s0,.2-.2.2c0,0,0,.2-.2.3,0,0-.2.2-.3.3s-.2.2-.3.2-.2,0-.3.2h-.5s-.2,0-.2,0c0,0,0,0,0-.2v-.8c0,0,0-.2,0-.3,0,0,0-.2.2-.3,0,0,0,0,.2-.2h.2v.4s0,0,0,.2,0,0,0,.2c0,0,0,0-.2.2s0,0,0,0c0,0,0,0-.2,0h0q0,0,0,0h.4s0,0,.2,0,0,0,.2,0h0c0,0,0-.2.2-.3s0,0,0,0h0c0,0,0,0,0,0,0,0,0-.2.2-.2s0,0,0,0h0l.5.4ZM92.8,54.9h0q0,0,0,0v.5h0c0,0,0,0,0,0h0v-.2h0c0,0,0-.4,0-.4Z"/>
          <path class="st0" d="M96.5,55.2h0s0,0,0,.2c0,0,0,0,0,.2,0,0,0,0-.2.2,0,0,0,0-.2,0h-.6s0,0,0,0v-.6h0q0,0,0,0t-.2.3h0c0,0,0,.2,0,.2s0,0,0,0h0c-.2,0-.2-.2-.2-.4v-1h0v.2h0v.2h0v.2h0q0,0,0,0h0c0-.2,0,0,0-.2h0c0,0,0-.2,0-.2h0q0,0,0,0h.5v.5h0v.2h0c0,.2,0,0,0,0h.2s0,0,.2,0c0,0,0,0,.2-.2,0,0,.2,0,.2-.2s0,0,0,0h0l.5.4Z"/>
          <path class="st0" d="M97.8,54.9h-1v.5h0v.2h0c0,0,0,0,0,0h0v-.7h0v-.2h0q0,0,0,0h-.3c0-.2,0,0,0,0h.4v-.2h0v-.5h0q0,0,0,0h0v.9h1v.2Z"/>
          <path class="st0" d="M98.6,55.3h0v.2h0q0,0,0,.2t-.2.2s0,0-.2.2,0,0-.2,0c0,0-.2,0-.2,0s0,0-.2,0h-.2s0,0-.2,0,0,0,0-.2v-.5s0-.2,0-.2c0,0,0,0,0-.2,0,0,0,0,.2-.2s0,0,.2,0h.6s0,0,.2,0,0,0,0,.2v.2h0ZM98.3,55.3v-.2h-.5v.2h0v.5h0q0,0,0,0h.2s0,0,.2,0,0,0,.2-.2c0,0,0,0,0-.2s0,0,0-.2h-.3Z"/>
          <path class="st0" d="M102.7,56.3h-.2s0,0-.2,0h-.2c-.2-.2,0-.2-.2-.3h0s0,0-.2-.2c0,0-.2,0-.2-.2h-.2s0,0,0-.2,0,0,0,0,0,0,0,0h.5c0,0,0,0,0,0s0,0,0,0h0c0-.2,0,0,0-.2h-.6v.3h0v.8c0,0,0,0,0,0h0v.2h0v.2h-.2v-.2h0v-.5h0v-1h-.2q0-.2.2-.3h1.5s0,0,.2,0,.2.3.2.5,0,.2,0,.4c0,0-.2.2-.3.3,0,0-.2,0-.3.2h.2s0,0,.2,0c0,0,0,0,.2,0,0,0,0,0,.2,0,0,0,0,0,.2,0,0,0,0,0,.2,0h0c0,0-.6,0-.6,0Z"/>
          <path class="st0" d="M105.7,54.8h0s0,.2-.2.3c0,0,0,.2-.2.3,0,0,0,.2-.2.3,0,0-.2,0-.2.2s-.2,0-.2,0h-.4s0,0,0,0,0,0,0-.2v-.3h0v.2h0c0,.2,0,0,0,.2h-.2c0,0,0,0-.2,0h-.4s0,0,0,0v-.4h0v-.7h0v.8h0q0,0,0,0h.4c0,0,0-.2,0-.2,0,0,0,0,0-.2h0v-.2h0q0,0,0,0h0v.9h.3s0,0,0,0,0,0,0-.2c0,0,0,0,0-.2s0,0,0-.2c0,0,0,0,.2-.2h0l.8-.2Z"/>
          <path class="st0" d="M106.8,55h0c0,0,0,0,0,0-.2,0-.4,0-.5.2h0q0,0,0,.2s0,0,0,.2v.5h0s0,0-.2,0v-.3h0v-.2h0v-.9h0q0,0,.2,0c.2,0,0,0,0,0h0v.6h0v.2s0-.2,0-.3,0-.2.2-.2,0,0,.2-.2c0,0,0,0,.2,0h.5l-.4.3Z"/>
          <path class="st0" d="M109,55h0v.2s0,0,0,.2,0,.2,0,.2c0,0,0,.2-.2.3,0,0,0,0-.2.2,0,0,0,0-.2,0h-.5c0,0,0,0,0,0v-.2s0,0-.2.2c0,0,0,0-.2.2,0,0,0,0-.2,0h-.4c0,0,0,0,0,0v-.9s0,0,0-.2,0,0,0,0,0,0,0,0,0,0,.2,0h.5c0,0,0,0,0,.2h0v.2h0v.5h0q0,0,0,0h.2q0-.2.2-.3s0,0,0-.2h0v-.2h0c0,0,.5-.2.5-.2ZM107.6,55h0s0,0,0,.2c0,0,0,.2,0,.2v.5h0c0-.2,0,0,0-.2,0,0,0,0,0-.2,0,0,0-.2,0-.3v-.3h-.2Z"/>
          <path class="st0" d="M110,55.7h0s0,0-.2.2c0,0,0,0-.2,0,0,0,0,0-.2,0h-.5s0,0-.2-.2c0,0,0-.2,0-.3v-2.1h0v2.1c0,0,0,0,.2,0h.4q0,0,0,0h0c0,0,.5,0,.5,0Z"/>
        </g>
      </g>
    </g>
  </g>
</svg>