<?xml version="1.0" encoding="UTF-8"?>
<svg id="Layer_2" xmlns="http://www.w3.org/2000/svg" version="1.1" viewBox="0 0 35 100.1">
  <!-- Generator: Adobe Illustrator 29.4.0, SVG Export Plug-In . SVG Version: 2.1.0 Build 152)  -->
  <defs>
    <style>
      .st0 {
        fill: none;
      }

      .st1 {
        fill: #010101;
      }

      .st2 {
        fill: #f7f7f7;
      }
    </style>
  </defs>
  <g id="Layer_1-2">
    <rect class="st0" x=".4" y="21.7" width="34.5" height="56.6"/>
    <g>
      <g>
        <g>
          <path d="M1,50.8H.3v.4h.6s0,0,.1,0,0,0,0,0,0,0,0,0,0,0-.1,0H.3v.4h.7s0,0,.1,0c0,0,0,0,0,0s0,0,0,0,0,0-.1,0H.2c0,0-.1,0-.1,0,0,0,0,0,0-.1v-1.1s0,0,0-.1c0,0,0,0,0,0,0,0,0,0,.1,0h.8c0,0,0,0,.1,0s0,0,0,0,0,0,0,0,0,0-.1,0h0Z"/>
          <path d="M2.5,51.6c0,0,0,.2,0,.2s-.1.1-.2.2c0,0-.2,0-.3,0s-.3,0-.4,0c0,0-.1,0-.2-.2s0-.1,0-.2,0,0,0,0,0,0,0,0,0,0,0,0,0,0,0,0c0,0,0,0,0,.1s0,0,0,0c0,0,0,0,.2,0s.2,0,.2,0c0,0,0,0,0-.2s0,0,0-.1,0,0-.1,0c0,0-.1,0-.2,0-.1,0-.2,0-.3,0,0,0-.1,0-.2-.1s0-.1,0-.2,0-.2,0-.2.1-.1.2-.1c0,0,.2,0,.3,0s.2,0,.2,0c0,0,.1,0,.2,0s0,0,0,.1,0,0,0,.1,0,0,0,0,0,0,0,0,0,0,0,0,0,0,0,0c0,0,0-.1,0-.1,0,0-.1,0-.2,0s-.1,0-.2,0,0,0,0,.1,0,0,0,0,0,0,0,0,0,0,0,0c0,0,0,0,.1,0,0,0,.2,0,.2,0s.1,0,.2,0,0,0,.1.1,0,.1,0,.2h0Z"/>
          <path d="M4.1,51.6s0,.1,0,.2c0,0,0,.1-.1.2,0,0-.1,0-.2.1,0,0-.2,0-.3,0s-.2,0-.2,0-.1,0-.2,0c0,0-.1,0-.1-.1,0,0,0-.1-.1-.2,0,0,0-.1,0-.2s0-.1,0-.2c0-.1,0-.2,0-.3s0-.2.2-.2.1-.1.2-.2.2,0,.3,0,.2,0,.3,0c0,0,.2.1.2.2,0,0,0,.1,0,.2s0,0,0,0,0,0,0,0,0,0,0,0,0,0,0,0c0,0,0-.1-.1-.2,0,0-.1,0-.2,0-.1,0-.2,0-.3.1s-.1.2-.1.4,0,.2,0,.3c0,0,0,.1.1.2s.1,0,.2,0,.2,0,.2,0c0,0,.1-.1.1-.2,0,0,0,0,0,0s0,0,0,0,0,0,0,0,0,0,0,0h0Z"/>
          <path d="M5,50.5c.2,0,.3,0,.4,0,.1,0,.2.2.3.3,0,.1,0,.3,0,.4s0,.2,0,.3c0,0,0,.2-.1.2,0,0-.1.1-.2.2,0,0-.2,0-.3,0s-.2,0-.3,0c0,0-.2,0-.2-.2s-.1-.2-.1-.2,0-.2,0-.3,0-.2,0-.3c0,0,0-.2.1-.2,0,0,.1-.1.2-.2s.2,0,.3,0h0ZM5.4,51.3c0-.1,0-.2,0-.3s0-.1-.2-.2c0,0-.1,0-.2,0s-.1,0-.2,0,0,0-.1.1,0,.1,0,.2,0,.1,0,.2,0,.2,0,.2,0,.1,0,.2,0,0,.1.1.1,0,.2,0,.1,0,.2,0,.1,0,.2-.2c0,0,0-.2,0-.3h0Z"/>
          <path d="M6.3,50.7v1.1h.6c0,0,0,0,.1,0s0,0,0,0,0,0,0,0,0,0-.1,0h-.7c0,0-.1,0-.1,0,0,0,0,0,0-.1v-1.2c0,0,0-.1,0-.1,0,0,0,0,.1,0s0,0,.1,0c0,0,0,0,0,.1h0Z"/>
          <path d="M8.2,51.9v-.2h-.7v.2c-.1,0-.1.1-.1.2s0,0,0,0,0,0-.1,0,0,0,0,0,0,0,0,0c0,0,0,0,0,0l.4-1s0,0,0-.1,0,0,0,0,0,0,0,0,0,0,.1,0,0,0,.1,0c0,0,0,0,0,0,0,0,0,0,0,0,0,0,0,0,0,.1l.4,1c0,0,0,.1,0,.2s0,0,0,0,0,0-.1,0,0,0,0,0,0,0,0,0c0,0,0,0,0,0,0,0,0,0,0,0h0ZM7.6,51.5h.4l-.2-.6-.2.6Z"/>
        </g>
        <g>
          <path d="M9.9,51.5h-.3v.4c0,0,0,.1,0,.1s0,0-.1,0,0,0-.1,0c0,0,0,0,0-.1v-1.2c0,0,0-.1,0-.1s0,0,.1,0h.4c.1,0,.2,0,.3,0,0,0,.1,0,.2,0s0,0,.1.1,0,.1,0,.2c0,.2,0,.3-.1.3s-.2.1-.4.1ZM9.8,50.8h-.2v.5h.2c0,0,.1,0,.2,0,0,0,0,0,.1,0s0,0,0-.1,0-.1,0-.2c0,0-.1,0-.3,0h0Z"/>
          <path d="M11.3,50.5c.2,0,.3,0,.4,0,.1,0,.2.2.3.3s0,.3,0,.4,0,.2,0,.3c0,0,0,.2-.1.2,0,0-.1.1-.2.2,0,0-.2,0-.3,0s-.2,0-.3,0c0,0-.2,0-.2-.2s-.1-.2-.1-.2,0-.2,0-.3,0-.2,0-.3c0,0,0-.2.1-.2s.1-.1.2-.2.2,0,.3,0h0ZM11.8,51.3c0-.1,0-.2,0-.3s0-.1-.2-.2-.1,0-.2,0-.1,0-.2,0,0,0-.1.1,0,.1,0,.2,0,.1,0,.2,0,.2,0,.2,0,.1,0,.2,0,0,.1.1.1,0,.2,0,.1,0,.2,0c0,0,.1,0,.2-.2,0,0,0-.2,0-.3h0Z"/>
          <path d="M12.6,50.7v1.1h.6c0,0,0,0,.1,0s0,0,0,0,0,0,0,0,0,0-.1,0h-.7c0,0-.1,0-.1,0,0,0,0,0,0-.1v-1.2c0,0,0-.1,0-.1,0,0,0,0,.1,0s0,0,.1,0c0,0,0,0,0,.1h0Z"/>
          <path d="M13.6,51.9v-1.2c0,0,0-.1,0-.1,0,0,0,0,.1,0s0,0,.1,0c0,0,0,0,0,.1v1.2c0,0,0,.1,0,.1s0,0-.1,0,0,0-.1,0c0,0,0,0,0-.1h0Z"/>
          <path d="M15.2,50.8h-.3v1.1c0,0,0,.1,0,.1,0,0,0,0-.1,0s0,0-.1,0c0,0,0,0,0-.1v-1.1h-.3c0,0,0,0-.1,0s0,0,0,0,0,0,0,0,0,0,.1,0h1c0,0,0,0,.1,0s0,0,0,0,0,0,0,0,0,0-.1,0Z"/>
          <path d="M16.5,50.8h-.7v.4h.6s0,0,.1,0,0,0,0,0,0,0,0,0,0,0-.1,0h-.6v.4h.7s0,0,.1,0,0,0,0,0,0,0,0,0c0,0,0,0-.1,0h-.8c0,0-.1,0-.1,0,0,0,0,0,0-.1v-1.1s0,0,0-.1,0,0,0,0c0,0,0,0,.1,0h.8c0,0,0,0,.1,0s0,0,0,0,0,0,0,0,0,0-.1,0h0ZM16.2,50.2h.1s0,0,0,0c0,0,0,0,0,0s0,0-.1.1c0,0,0,0,0,0,0,0,0,0-.1,0s0,0,0,0,0,0,0,0h0c0-.1,0-.2,0-.2,0,0,0,0,0,0h0Z"/>
          <path d="M18.2,51.6s0,.1,0,.2c0,0,0,.1-.1.2,0,0-.1,0-.2.1s-.2,0-.3,0-.2,0-.2,0-.1,0-.2,0c0,0-.1,0-.1-.1,0,0,0-.1-.1-.2,0,0,0-.1,0-.2s0-.1,0-.2c0-.1,0-.2,0-.3s0-.2.2-.2.1-.1.2-.2.2,0,.3,0,.2,0,.3,0c0,0,.2.1.2.2s0,.1,0,.2,0,0,0,0,0,0,0,0,0,0,0,0c0,0,0,0,0,0,0,0,0-.1-.1-.2,0,0-.1,0-.2,0-.1,0-.2,0-.3.1,0,0-.1.2-.1.4s0,.2,0,.3c0,0,0,.1.1.2s.1,0,.2,0,.2,0,.2,0c0,0,.1-.1.1-.2,0,0,0,0,0,0s0,0,0,0,0,0,0,0,0,0,0,0h0Z"/>
          <path d="M18.9,50.7l.6.9v-.9c0,0,0-.1,0-.1s0,0,.1,0,0,0,.1,0c0,0,0,0,0,.1v1.2c0,.1,0,.2-.2.2s0,0,0,0c0,0,0,0,0,0s0,0,0,0c0,0,0,0,0,0l-.6-.9v.9c0,0,0,.1,0,.1s0,0-.1,0,0,0-.1,0c0,0,0,0,0-.1v-1.2c0,0,0,0,0-.1,0,0,0,0,0,0,0,0,0,0,0,0s0,0,0,0,0,0,0,0c0,0,0,0,0,0s0,0,0,0h0Z"/>
          <path d="M20.1,51.9v-1.2c0,0,0-.1,0-.1,0,0,0,0,.1,0s0,0,.1,0c0,0,0,0,0,.1v1.2c0,0,0,.1,0,.1s0,0-.1,0,0,0-.1,0c0,0,0,0,0-.1h0Z"/>
          <path d="M22,51.6s0,.1,0,.2c0,0,0,.1-.1.2,0,0-.1,0-.2.1s-.2,0-.3,0-.2,0-.2,0-.1,0-.2,0c0,0-.1,0-.1-.1,0,0,0-.1-.1-.2s0-.1,0-.2,0-.1,0-.2c0-.1,0-.2,0-.3s0-.2.2-.2.1-.1.2-.2.2,0,.3,0,.2,0,.3,0c0,0,.2.1.2.2s0,.1,0,.2,0,0,0,0,0,0,0,0,0,0,0,0c0,0,0,0,0,0,0,0,0-.1-.1-.2,0,0-.1,0-.2,0-.1,0-.2,0-.3.1,0,0-.1.2-.1.4s0,.2,0,.3c0,0,0,.1.1.2s.1,0,.2,0,.2,0,.2,0c0,0,.1-.1.1-.2,0,0,0,0,0,0s0,0,0,0,0,0,0,0,0,0,0,0h0Z"/>
          <path d="M23.3,51.9v-.2h-.7v.2c-.1,0-.1.1-.1.2s0,0,0,0,0,0-.1,0,0,0,0,0,0,0,0,0c0,0,0,0,0,0l.4-1s0,0,0-.1,0,0,0,0,0,0,0,0,0,0,.1,0,0,0,.1,0c0,0,0,0,0,0,0,0,0,0,0,0s0,0,0,.1l.4,1c0,0,0,.1,0,.2s0,0,0,0c0,0,0,0-.1,0s0,0,0,0,0,0,0,0c0,0,0,0,0,0,0,0,0,0,0,0h0ZM22.7,51.5h.4l-.2-.6-.2.6Z"/>
          <path d="M24.5,50.5h.4c.1,0,.2,0,.3,0s.1,0,.2.1c.2.1.2.3.2.6s0,.2,0,.2c0,0,0,.1,0,.2s0,.1-.1.2c0,0,0,0-.1,0,0,0-.1,0-.2,0,0,0-.1,0-.2,0h-.4c0,0,0,0-.1,0,0,0,0,0,0,0,0,0,0,0,0-.1v-1.1c0,0,0-.1,0-.1,0,0,0,0,.1,0h0ZM24.6,50.8v1h.4s0,0,0,0c0,0,0,0,0,0,.1,0,.2-.2.2-.4s0-.3,0-.3c0,0-.1-.1-.2-.1,0,0-.1,0-.2,0h-.2Z"/>
          <path d="M26.9,50.8h-.7v.4h.6s0,0,.1,0,0,0,0,0,0,0,0,0,0,0-.1,0h-.6v.4h.7s0,0,.1,0c0,0,0,0,0,0s0,0,0,0,0,0-.1,0h-.8c0,0-.1,0-.1,0,0,0,0,0,0-.1v-1.1s0,0,0-.1,0,0,0,0c0,0,0,0,.1,0h.8c0,0,0,0,.1,0s0,0,0,0,0,0,0,0,0,0-.1,0h0Z"/>
          <path d="M28.9,51.6c0,0,0,.2,0,.2,0,0-.1.1-.2.2s-.2,0-.3,0-.3,0-.4,0c0,0-.1,0-.2-.2s0-.1,0-.2,0,0,0,0,0,0,0,0,0,0,0,0,0,0,0,0c0,0,0,0,0,.1s0,0,0,0c0,0,0,0,.2,0s.2,0,.2,0,0,0,0-.2,0,0,0-.1c0,0,0,0-.1,0,0,0-.1,0-.2,0-.1,0-.2,0-.3,0s-.1,0-.2-.1,0-.1,0-.2,0-.2,0-.2.1-.1.2-.1c0,0,.2,0,.3,0s.2,0,.2,0,.1,0,.2,0,0,0,0,.1,0,0,0,.1,0,0,0,0,0,0,0,0,0,0,0,0,0,0,0,0c0,0,0-.1,0-.1,0,0-.1,0-.2,0s-.1,0-.2,0,0,0,0,.1,0,0,0,0,0,0,0,0,0,0,0,0c0,0,0,0,.1,0,0,0,.2,0,.2,0s.1,0,.2,0,0,0,.1.1,0,.1,0,.2h0Z"/>
          <path d="M30.2,51.9v-.2h-.7v.2c-.1,0-.1.1-.1.2s0,0,0,0,0,0-.1,0,0,0,0,0,0,0,0,0c0,0,0,0,0,0l.4-1s0,0,0-.1,0,0,0,0,0,0,0,0,0,0,.1,0,0,0,.1,0c0,0,0,0,0,0,0,0,0,0,0,0s0,0,0,.1l.4,1c0,0,0,.1,0,.2s0,0,0,0c0,0,0,0-.1,0s0,0,0,0,0,0,0,0c0,0,0,0,0,0,0,0,0,0,0,0h0ZM29.6,51.5h.4l-.2-.6-.2.6Z"/>
          <path d="M30.7,51.4v-.7c0,0,0-.1,0-.1,0,0,0,0,.1,0s0,0,.1,0c0,0,0,0,0,.1v.7c0,0,0,.2,0,.2s0,.1.1.1.1,0,.2,0,.2,0,.3,0,0-.2,0-.3v-.7c0,0,0-.1,0-.1,0,0,0,0,.1,0s0,0,.1,0c0,0,0,0,0,.1v.7c0,.1,0,.2,0,.3s0,.1-.1.2c0,0-.1,0-.2.1,0,0-.2,0-.3,0s-.2,0-.3,0c0,0-.2,0-.2-.1s0-.1-.1-.2,0-.2,0-.3h0ZM31.4,50.2h.1s0,0,0,0c0,0,0,0,0,0s0,0-.1.1c0,0,0,0,0,0,0,0,0,0-.1,0s0,0,0,0,0,0,0,0h0c0-.1,0-.2,0-.2,0,0,0,0,0,0h0Z"/>
          <path d="M32.5,50.5h.4c.1,0,.2,0,.3,0s.1,0,.2.1c.2.1.2.3.2.6s0,.2,0,.2c0,0,0,.1,0,.2s0,.1-.1.2c0,0,0,0-.1,0,0,0-.1,0-.2,0,0,0-.1,0-.2,0h-.4c0,0,0,0-.1,0,0,0,0,0,0,0,0,0,0,0,0-.1v-1.1c0,0,0-.1,0-.1,0,0,0,0,.1,0h0ZM32.6,50.8v1h.4s0,0,0,0c0,0,0,0,0,0,.1,0,.2-.2.2-.4s0-.3,0-.3c0,0-.1-.1-.2-.1,0,0-.1,0-.2,0h-.2Z"/>
          <path d="M34.8,50.8h-.7v.4h.6s0,0,.1,0,0,0,0,0,0,0,0,0,0,0-.1,0h-.6v.4h.7s0,0,.1,0c0,0,0,0,0,0s0,0,0,0,0,0-.1,0h-.8c0,0-.1,0-.1,0,0,0,0,0,0-.1v-1.1s0,0,0-.1,0,0,0,0c0,0,0,0,.1,0h.8c0,0,0,0,.1,0s0,0,0,0,0,0,0,0,0,0-.1,0h0Z"/>
        </g>
        <g>
          <path d="M7.6,53.1v.8c0,0,0,.1,0,.2,0,0,0,0,0,.1,0,0,0,.1-.2.2s-.2,0-.3,0-.2,0-.3,0-.1,0-.2-.2c0,0,0,0,0-.1,0,0,0,0,0-.1s0,0,0-.1c0,0,0,0,.1,0s0,0,0,0,0,0,0,.1c0,0,0,0,0,.1,0,0,0,0,0,0s0,0,.1,0c.1,0,.2,0,.2-.3v-.8c0,0,0-.1,0-.1,0,0,0,0,.1,0s0,0,.1,0c0,0,0,0,0,.1h0Z"/>
          <path d="M8.5,53c.2,0,.3,0,.4,0,.1,0,.2.2.3.3s0,.3,0,.4,0,.2,0,.3c0,0,0,.2-.1.2,0,0-.1.1-.2.2,0,0-.2,0-.3,0s-.2,0-.3,0c0,0-.2,0-.2-.2s-.1-.2-.1-.2,0-.2,0-.3,0-.2,0-.3c0,0,0-.2.1-.2s.1-.1.2-.2.2,0,.3,0h0ZM9,53.7c0-.1,0-.2,0-.3s0-.1-.2-.2c0,0-.1,0-.2,0s-.1,0-.2,0,0,0-.1.1,0,.1,0,.2,0,.1,0,.2,0,.2,0,.2,0,.1,0,.2,0,0,.1.1.1,0,.2,0,.1,0,.2,0,.1,0,.2-.2c0,0,0-.2,0-.3h0Z"/>
          <path d="M10.4,54.3v-.2h-.7v.2c-.1,0-.1.1-.1.2,0,0,0,0,0,0s0,0-.1,0c0,0,0,0,0,0s0,0,0,0c0,0,0,0,0,0l.4-1s0,0,0-.1c0,0,0,0,0,0s0,0,0,0,0,0,.1,0,0,0,.1,0c0,0,0,0,0,0,0,0,0,0,0,0s0,0,0,.1l.4,1c0,0,0,.1,0,.2s0,0,0,0,0,0-.1,0,0,0,0,0,0,0,0,0c0,0,0,0,0,0,0,0,0,0,0,0h0ZM9.8,53.9h.4l-.2-.6s-.2.6-.2.6Z"/>
          <path d="M12.2,54.3s0,0,.1,0c0,0,0,0,.1,0s0,0,0,0,0,0,0,0,0,0,0,0,0,0,0,0c0,0,0,0-.1,0s0,0-.1-.1c0,0-.2,0-.4,0s-.2,0-.3,0-.2,0-.2-.2-.1-.2-.1-.2,0-.2,0-.3,0-.2,0-.3c0,0,0-.2.1-.2s.1-.1.2-.2.2,0,.3,0,.3,0,.4,0c.1,0,.2.2.3.3s0,.3,0,.4c0,.2,0,.4-.2.6h0ZM11.9,54.1c0,0,0-.1,0-.2s0-.1,0-.2,0-.2,0-.3,0-.1-.2-.2-.1,0-.2,0-.1,0-.2,0,0,0-.1.1,0,.1,0,.2,0,.1,0,.2c0,.2,0,.3.1.4s.2.1.3.1.1,0,.2,0c0,0,0,0-.1,0,0,0,0,0,0,0,0,0,0,0,0,0s0,0,0,0c0,0,0,0,0,0,0,0,.2,0,.3.2h0Z"/>
          <path d="M12.6,53.9v-.7c0,0,0-.1,0-.1,0,0,0,0,.1,0s0,0,.1,0c0,0,0,0,0,.1v.7c0,0,0,.2,0,.2,0,0,0,.1.1.1s.1,0,.2,0,.2,0,.3,0,0-.2,0-.3v-.7c0,0,0-.1,0-.1,0,0,0,0,.1,0s0,0,.1,0c0,0,0,0,0,.1v.7c0,.1,0,.2,0,.3,0,0,0,.1-.1.2,0,0-.1,0-.2.1,0,0-.2,0-.3,0s-.2,0-.3,0c0,0-.2,0-.2-.1s0-.1-.1-.2,0-.2,0-.3h0Z"/>
          <path d="M14.2,54.3v-1.2c0,0,0-.1,0-.1,0,0,0,0,.1,0s0,0,.1,0c0,0,0,0,0,.1v1.2c0,0,0,.1,0,.1s0,0-.1,0,0,0-.1,0c0,0,0,0,0-.1h0Z"/>
          <path d="M15.4,54.3l-.2-1v1c0,0,0,.1,0,.1s0,0-.1,0,0,0-.1,0c0,0,0,0,0-.1v-1.2c0,0,0-.1,0-.1s0,0,.1,0h0c0,0,0,0,.1,0,0,0,0,0,0,0s0,0,0,.1l.2.8.2-.8c0,0,0-.1,0-.1s0,0,0,0c0,0,0,0,.1,0h0c0,0,.1,0,.1,0s0,0,0,.1v1.2c0,0,0,.1,0,.1s0,0-.1,0,0,0-.1,0c0,0,0,0,0-.1v-1l-.2,1c0,0,0,.1,0,.1,0,0,0,0,0,0,0,0,0,0-.1,0s0,0,0,0,0,0,0,0c0,0,0,0,0,0,0,0,0,0,0,0h0Z"/>
        </g>
        <g>
          <path d="M17.4,53.2l.3,1,.3-1c0,0,0,0,0-.1s0,0,0,0,0,0,0,0,0,0,0,0,0,0,0,0,0,0,0,0,0,0,0,0c0,0,0,0,0,0s0,0,0,0l-.4,1s0,0,0,.1c0,0,0,0,0,0s0,0,0,0c0,0,0,0-.1,0s0,0-.1,0,0,0,0,0c0,0,0,0,0,0s0,0,0-.1l-.4-1s0,0,0,0,0,0,0,0c0,0,0,0,0,0,0,0,0,0,0,0s0,0,.1,0,0,0,.1,0c0,0,0,0,0,.2h0Z"/>
          <path d="M19.6,53.2h-.7v.4h.6s0,0,.1,0,0,0,0,0,0,0,0,0,0,0-.1,0h-.6v.4h.7s0,0,.1,0c0,0,0,0,0,0s0,0,0,0,0,0-.1,0h-.8c0,0-.1,0-.1,0,0,0,0,0,0-.1v-1.1s0,0,0-.1,0,0,0,0c0,0,0,0,.1,0h.8c0,0,0,0,.1,0s0,0,0,0,0,0,0,0,0,0-.1,0h0Z"/>
          <path d="M20.4,53.1l.6.9v-.9c0,0,0-.1,0-.1s0,0,.1,0,0,0,.1,0c0,0,0,0,0,.1v1.2c0,.1,0,.2-.2.2s0,0,0,0c0,0,0,0,0,0s0,0,0,0c0,0,0,0,0,0l-.6-.9v.9c0,0,0,.1,0,.1s0,0-.1,0,0,0-.1,0c0,0,0,0,0-.1v-1.2c0,0,0,0,0-.1,0,0,0,0,0,0,0,0,0,0,0,0s0,0,0,0,0,0,0,0c0,0,0,0,0,0s0,0,0,0h0Z"/>
          <path d="M22.5,54.3v-.2h-.7v.2c-.1,0-.1.1-.1.2s0,0,0,0,0,0-.1,0,0,0,0,0,0,0,0,0c0,0,0,0,0,0l.4-1s0,0,0-.1,0,0,0,0,0,0,0,0,0,0,.1,0,0,0,.1,0c0,0,0,0,0,0,0,0,0,0,0,0s0,0,0,.1l.4,1c0,0,0,.1,0,.2s0,0,0,0c0,0,0,0-.1,0s0,0,0,0,0,0,0,0c0,0,0,0,0,0,0,0,0,0,0,0h0ZM22.2,52.8h-.1c0-.1-.1,0-.1,0,0,0,0,0,0,0,0,0,0,0,0,0h0s0,0,0,0,0,0,0,0h.1c0-.1,0-.2,0-.2s0,0,0,0c0,0,0,0,0,0h.1s0,0,0,0c0,0,0,0,0,0h.1c0,.1,0,.2,0,.2,0,0,0,0,0,0h0s0,0,0,0c0,0,0,0,0,0s0,0,0,0h0ZM21.9,53.9h.4l-.2-.6-.2.6Z"/>
          <path d="M23.5,53.1l.6.9v-.9c0,0,0-.1,0-.1s0,0,.1,0,0,0,.1,0c0,0,0,0,0,.1v1.2c0,.1,0,.2-.2.2s0,0,0,0c0,0,0,0,0,0s0,0,0,0c0,0,0,0,0,0l-.6-.9v.9c0,0,0,.1,0,.1s0,0-.1,0,0,0-.1,0c0,0,0,0,0-.1v-1.2c0,0,0,0,0-.1,0,0,0,0,0,0,0,0,0,0,0,0s0,0,0,0,0,0,0,0c0,0,0,0,0,0s0,0,0,0h0Z"/>
          <path d="M25.9,54s0,.1,0,.2c0,0,0,.1-.1.2,0,0-.1,0-.2.1s-.2,0-.3,0-.2,0-.2,0-.1,0-.2,0c0,0-.1,0-.1-.1,0,0,0-.1-.1-.2s0-.1,0-.2,0-.1,0-.2c0-.1,0-.2,0-.3s0-.2.2-.2.1-.1.2-.2.2,0,.3,0,.2,0,.3,0c0,0,.2.1.2.2s0,.1,0,.2,0,0,0,0,0,0,0,0,0,0,0,0c0,0,0,0,0,0,0,0,0-.1-.1-.2,0,0-.1,0-.2,0-.1,0-.2,0-.3.1,0,0-.1.2-.1.4s0,.2,0,.3c0,0,0,.1.1.2s.1,0,.2,0,.2,0,.2,0c0,0,.1-.1.1-.2,0,0,0,0,0,0s0,0,0,0,0,0,0,0,0,0,0,0h0Z"/>
          <path d="M26.2,54.3v-1.2c0,0,0-.1,0-.1,0,0,0,0,.1,0s0,0,.1,0c0,0,0,0,0,.1v1.2c0,0,0,.1,0,.1s0,0-.1,0,0,0-.1,0c0,0,0,0,0-.1h0Z"/>
          <path d="M27.5,53c.2,0,.3,0,.4,0,.1,0,.2.2.3.3,0,.1,0,.3,0,.4s0,.2,0,.3c0,0,0,.2-.1.2,0,0-.1.1-.2.2,0,0-.2,0-.3,0s-.2,0-.3,0c0,0-.2,0-.2-.2s-.1-.2-.1-.2,0-.2,0-.3,0-.2,0-.3c0,0,0-.2.1-.2s.1-.1.2-.2.2,0,.3,0h0ZM28,53.7c0-.1,0-.2,0-.3s0-.1-.2-.2-.1,0-.2,0-.1,0-.2,0,0,0-.1.1c0,0,0,.1,0,.2s0,.1,0,.2,0,.2,0,.2,0,.1,0,.2,0,0,.1.1.1,0,.2,0,.1,0,.2,0c0,0,.1,0,.2-.2,0,0,0-.2,0-.3h0Z"/>
        </g>
      </g>
      <g>
        <path d="M14.9,44.4c.6.4.8.7,1.2,1.2,0,0,.1.2.2,0-.5-1.2-1-2.3-1.4-3.5-.8-2.2-2.7-7.9.8-8.7,1.5-.4,4.2,1,4.9,2.4s0,3-1.1,3.9c-1.3,1-2.9-.5-3.5-1.7-.7-1.6.1-2.8,1.9-2.6,1.6.2,1.1,2.2.4,3.1-.9,1.1-1.7-.9-.8-1.7.6-.5.8,0,.8.6-.2,0-.1,0-.1-.2,0-.2,0-.5-.3-.4-.8.2-.4,3.2.6,1,.7-1.4,0-2.3-1.5-2-2.1.5,0,3.7,1.3,3.9,1.5.2,2.4-1.8,2.2-3.1-.3-1.9-4.6-4-5.7-2-1,1.7-.4,4.2.2,5.9.5,1.5,1.1,3.3,1.6,4.8.1.3.6,1.6.9,1.5,0,0,.8-1.2.9-1.4,2.7-3.6,6.2-1.5,9.9-1.4.6,0,1.6-.2,2.2-.3.8-.1,1.6-.3,2.4-.5v.2c-1.1.3-2.6.8-3.9.9-3.6.3-8.5-2.1-10.8,1.9,0,0,0,0,.1,0,1.8-1.6,4.5-1.7,6.8-1.7,3,0,5.9.4,8.9.5v.3l-10.1-.2c-1.3.2-2.8.3-4.1.8s-1.2,1.8-2.7,1.7c-.6,0-.9-.6-1.3-.9-1.2-1-5.1-1.6-6.8-1.6-2.4,0-4.8.2-7.2.3-.2,0-1.1,0-1.1,0-.2-.2.3-.3.4-.3.9-.2,2-.3,3-.4,3.8-.4,8-.5,11.6,1.1,0-.1,0-.2-.1-.2-.2-.2-.6-.5-.8-.6-.1-.2-.2-.6.1-.5h0Z"/>
        <path class="st1" d="M14.9,44.4v.2c.1,0,0,.1-.1.3-1.2-.9-2.2-1.2-3.7-1.1-1.8,0-3.5.5-5.2.4-1.3,0-2.6-.7-3.9-.9-.2-.1-.1-.3.2-.3,1,0,2.2.6,3.3.7,2,.2,3.9-.2,5.8-.3,1.7,0,2.3,0,3.6,1.1h0Z"/>
        <path class="st2" d="M17.4,36.6c.1.2-.3.2-.3,0,0,0,.3-.1.3,0Z"/>
      </g>
    </g>
  </g>
</svg>