<?xml version="1.0" encoding="UTF-8"?>
<svg id="Layer_2" xmlns="http://www.w3.org/2000/svg" version="1.1" viewBox="0 0 89.7 100.1">
  <!-- Generator: Adobe Illustrator 29.4.0, SVG Export Plug-In . SVG Version: 2.1.0 Build 152)  -->
  <defs>
    <style>
      .st0 {
        fill: none;
      }
    </style>
  </defs>
  <g id="Layer_1-2">
    <rect class="st0" y="9.2" width="90" height="85.7"/>
    <g>
      <path d="M35.5,40.7h-7.8c-.2,0-.3.1-.3.3v14.6c0,.2.1.3.3.3h1.1c.2,0,.3-.1.3-.3v-6.7h4.3c.2,0,.3-.1.3-.3v-.9c0-.2-.1-.3-.3-.3h-4.3v-5.3h6.4c.2,0,.3-.1.3-.3v-.9c0-.2-.1-.3-.3-.3"/>
      <path d="M37.8,40.7h-1.1c-.2,0-.3.1-.3.3v14.6c0,.2.1.3.3.3h1.1c.2,0,.3-.1.3-.3v-14.6c0-.2-.1-.3-.3-.3"/>
      <path d="M47.3,45.1v6.6c0,.9-.3,1.6-.8,2.1s-1.5.8-2.3.8-1.6-.3-2.1-.8c-.5-.5-.8-1.2-.8-2.1v-6.6c0-.9.3-1.6.8-2.1.5-.5,1.3-.8,2.1-.8s1.8.3,2.3.8.8,1.2.8,2.1M46.8,41.2c-.7-.4-1.7-.6-2.6-.6s-1.8.2-2.5.6c-.7.4-1.2.9-1.6,1.6-.4.7-.6,1.4-.6,2.3v6.5c0,.9.2,1.6.6,2.3.4.7.9,1.2,1.6,1.6.7.4,1.6.6,2.5.6s1.9-.2,2.6-.6,1.2-.9,1.6-1.6c.4-.7.6-1.4.6-2.3v-6.5c0-.9-.2-1.6-.6-2.3-.4-.7-.9-1.2-1.6-1.6"/>
      <path d="M54.8,40.7c-1.3,0-2.5.4-3.3,1.2s-1.2,1.8-1.2,3.1v6.8c0,1.3.4,2.3,1.2,3.1.8.8,2.3,1.2,3.6,1.2s2.4-.4,3.2-1.2c.8-.8,1.2-1.8,1.2-3.1h0c0-.3-.1-.4-.3-.4h-1.1c-.2,0-.3,0-.3.2v.3c0,.8-.3,1.5-.8,1.9-.5.5-1.2.7-2,.7s-1.9-.2-2.4-.7-.7-1.1-.7-2v-6.9c0-.8.2-1.5.7-2,.5-.5,1.3-.7,2.1-.7s1.7.2,2.2.7c.5.5.8,1.1.8,1.9v.3c0,.2.1.3.3.3h1.1c.2,0,.3-.1.3-.3v-.2c0-1.3-.4-2.3-1.2-3.1-.8-.8-2.1-1.1-3.5-1.1"/>
      <path d="M68.6,44.9c0,.8-.2,1.6-.7,2.1-.4.5-1,.7-1.7.7h-3.5v-5.5h3.5c.7,0,1.3.2,1.7.7.4.5.7,1.2.7,2M67.6,49h0c.8-.2,1.5-.7,2-1.4.5-.7.7-1.7.7-2.7s-.2-1.6-.5-2.2-.8-1.1-1.4-1.5-1.3-.5-2-.5h-5.1c-.2,0-.3.1-.3.3v14.6c0,.2.1.3.3.3h1.1c.2,0,.3-.1.3-.3v-6.5h3.3s2.7,6.6,2.7,6.6c0,.1.2.2.3.2h1.1c.2,0,.3,0,.3-.2h0c0-.1-2.7-6.7-2.7-6.7h0Z"/>
      <path d="M80.6,40.7h-1.1c-.2,0-.3.1-.3.3v10.5c0,.9-.3,1.6-.8,2.1-.5.5-1.4.8-2.2.8s-1.7-.3-2.2-.8c-.5-.5-.8-1.3-.8-2.1v-10.5c0-.2-.1-.3-.3-.3h-1.1c-.2,0-.3.1-.3.3v10.4c0,.9.2,1.7.6,2.4.4.7.9,1.2,1.6,1.6.7.4,1.7.6,2.5.6s1.9-.2,2.5-.6,1.2-.9,1.6-1.6c.4-.7.6-1.5.6-2.4v-10.4c0-.2-.1-.3-.3-.3"/>
      <path d="M90,42v-1c0-.2-.1-.3-.3-.3h-7.8c-.2,0-.3.1-.3.3v.9c0,.2.1.3.3.3h6.3l-6.5,12c0,.1,0,.3,0,.4v1c0,.2.1.3.3.3h7.8c.2,0,.3-.1.3-.3v-.9c0-.2-.1-.3-.3-.3h-6.3l6.5-12.1c0-.1,0-.2,0-.3"/>
      <path d="M22.5,54.8h-4.3l-.9-.9H6.3l-.9.9H1.3v-.4l.5-.6v-11.2l-.4-.3v-.6h1.1v-4.5l.4-.4v-.9s0,0-.1-.1c0,0-.2-.2-.2-.3-.1-.2-.2-.4-.2-.7,0-.8.7-1.4,1.4-1.4s1.4.7,1.4,1.4-.1.6-.3.9c0,0,0,0,0,0,0,0,0,0,0,0,0,0,0,0,0,0,0,0,0,0-.1.1v.9l.3.4v3.8h2.6l.7-.7v-2.9h2.3v-.7h2.3v.8h2.3v2.8l.7.7h2.6v-3.8l.4-.4v-.9c0,0-.1,0-.2-.1,0,0-.1-.2-.2-.3-.1-.2-.2-.5-.2-.7,0-.8.7-1.4,1.4-1.4s1.4.7,1.4,1.4-.1.6-.3.8c0,0,0,0,0,0h0s0,0,0,0c0,0,0,0-.1.1v.9l.3.3v4.5h1.1v.6l-.4.4v11.1l.7.7v.2h0ZM23.6,54h0c0,0,0-.1,0-.1l-.5-.5v-10.5l.4-.4v-1.3c0-.1,0-.2,0-.3,0-.1-.2-.2-.3-.2h-.7v-4.1c0-.1,0-.3-.2-.4h0s0,0,0,0c.3-.4.4-.9.4-1.4,0-1.1-.8-2.2-1.8-2.5h0l-.2-1.2c0-.3-.3-.5-.6-.5-.2,0-.5.2-.6.5l-.2,1.2h0c-1.1.4-1.9,1.4-1.9,2.5s.1,1,.4,1.4h0c0,0,0,0,0,0-.1,0-.2.2-.2.4v3.2h-.9v-2.1l.3-.3v-1.1c0-.2-.2-.4-.4-.4h-1.2c0,0-.2,0-.3,0l-.2.3h-.4v-.3c.1-.1.1-.3,0-.4,0-.1-.2-.2-.3-.2h-4.3c-.1,0-.3,0-.4.2,0,.1-.1.2,0,.4v.3c0,0-.3,0-.3,0l-.2-.3c0,0-.2,0-.3,0h-1.2c-.2,0-.4.2-.4.4v1.1l.3.3v2.1h-.9v-3.2c0-.1,0-.3-.2-.4h0s0,0,0,0c.3-.4.4-.9.4-1.4,0-1.1-.8-2.2-1.8-2.5h0l-.2-1.2c0-.3-.3-.5-.6-.5s-.5.2-.6.5l-.2,1.2h0c-1.1.4-1.9,1.4-1.9,2.5s.1,1,.4,1.4h0c0,0,0,0,0,0-.1,0-.2.2-.2.4v4.1h-.6c-.1,0-.3,0-.3.2,0,0,0,.2,0,.3v1.3l.4.3v10.5l-.4.5c0,0-.1.2-.1.3v1.4c0,.2.2.4.4.4h5.4l.9-.9h10l.9.9h5.5c.2,0,.4-.2.4-.4v-1.3c0,0,0-.2,0-.3"/>
    </g>
  </g>
</svg>