<?xml version="1.0" encoding="UTF-8"?>
<svg id="Layer_2" xmlns="http://www.w3.org/2000/svg" version="1.1" viewBox="0 0 54.2 100.1">
  <!-- Generator: Adobe Illustrator 29.4.0, SVG Export Plug-In . SVG Version: 2.1.0 Build 152)  -->
  <defs>
    <style>
      .st0 {
        fill: none;
      }

      .st1 {
        fill: #ffb000;
      }

      .st1, .st2, .st3, .st4 {
        fill-rule: evenodd;
      }

      .st2 {
        fill: #1a69f9;
      }

      .st3 {
        fill: #f06;
      }

      .st4 {
        fill: #609;
      }
    </style>
  </defs>
  <g id="Layer_1-2">
    <rect class="st0" y="11.1" width="55" height="81.9"/>
    <g id="Camada_1">
      <g>
        <g>
          <path class="st4" d="M6.8,37l2.9,2.8c.8.8,1.9,1.3,3.1,1.3s2.2-.4,3.1-1.3l2.8-2.8-1.7-1.7-2.8,2.8c-.4.4-.8.5-1.3.5s-1-.2-1.3-.5l-2.8-2.8-1.7,1.7h0Z"/>
          <path class="st1" d="M19.7,38.4l-2.8,2.8c-.8.8-1.3,1.9-1.3,3.1s.4,2.2,1.3,3.1l2.8,2.8,1.7-1.7-2.8-2.8c-.4-.4-.5-.8-.5-1.3s.2-1,.5-1.3l2.9-2.9-1.7-1.7h0Z"/>
          <path class="st2" d="M18.7,51.9l-2.9-2.9c-.8-.8-1.9-1.3-3.1-1.3s-2.2.4-3.1,1.3l-2.8,2.8,1.7,1.7,2.8-2.8c.4-.4.8-.5,1.3-.5s1,.2,1.3.5l2.8,2.8,1.7-1.7h0Z"/>
          <path class="st3" d="M5.4,50.2l2.8-2.8c.8-.8,1.3-1.9,1.3-3.1s-.4-2.2-1.3-3.1l-2.8-2.8-1.7,1.7,2.8,2.8c.4.4.5.8.5,1.3s-.2,1-.5,1.3l-2.9,2.9,1.7,1.7h0Z"/>
          <path class="st3" d="M2.8,46.3c1.1,0,2-.9,2-2s-.9-2-2-2-2,.9-2,2,.9,2,2,2"/>
          <path class="st4" d="M10.7,34.3c0,1.1.9,2,2,2s2-.9,2-2-.9-2-2.1-2-2,.9-2,2"/>
          <path class="st1" d="M22.7,42.2c-1.1,0-2,.9-2,2s.9,2,2,2,2-.9,2-2-.9-2-2-2"/>
          <path class="st2" d="M14.8,54.1c0-1.1-.9-2-2-2s-2,.9-2,2,.9,2,2,2,2-.9,2-2"/>
        </g>
        <g>
          <g>
            <path d="M29.9,40.1c-.3,0-.6,0-.8-.2s-.5-.3-.7-.5-.3-.5-.5-.8-.2-.6-.2-1,0-.7.2-1,.3-.6.5-.8.4-.4.7-.5c.3-.1.5-.2.8-.2s.3,0,.5,0c.1,0,.3,0,.4,0,.1,0,.2,0,.3,0,0,0,.1,0,.2,0v.4c-.3,0-.4-.1-.6-.2s-.4,0-.6,0-.5,0-.8.1c-.2,0-.4.2-.5.4-.1.2-.3.4-.3.6,0,.2-.1.5-.1.8s0,.6.1.8.2.5.3.6.3.3.5.4.5.1.7.1.5,0,.7,0c.2,0,.4-.1.5-.2v.4c.1,0,0,0,0,0s-.2,0-.3,0c-.1,0-.3,0-.4,0-.2,0-.3,0-.5,0h0Z"/>
            <path d="M35.3,40c0-.2-.2-.5-.2-.7,0-.2-.1-.4-.2-.6h-2.3c0,.2-.2.4-.2.6,0,.2-.2.4-.2.7h-.5c.2-.5.3-.9.5-1.4s.3-.8.5-1.2c.1-.4.3-.7.5-1.1s.3-.7.5-1h.4c.2.3.3.7.5,1,.1.3.3.7.5,1.1.2.4.3.8.5,1.2.2.4.3.9.5,1.4h-.5ZM33.7,35.9c-.2.4-.3.8-.5,1.2-.2.4-.3.8-.5,1.3h2c-.2-.5-.3-.9-.5-1.3-.2-.4-.3-.8-.5-1.2h0Z"/>
            <path d="M38.6,39.4c0-.1-.1-.3-.2-.4,0-.2-.2-.4-.3-.6-.1-.2-.2-.4-.3-.7s-.2-.5-.3-.6c0-.2-.2-.4-.3-.5,0-.2-.1-.3-.2-.3,0,.6-.1,1.2-.1,1.8,0,.7,0,1.3,0,2.1h-.5c0-.8,0-1.7.1-2.4,0-.8.1-1.5.2-2.2h.4c.1.2.3.5.4.8.2.3.3.6.5.9.1.3.3.6.4.9s.3.6.4.8c.1-.2.2-.5.4-.8.1-.3.3-.6.4-.9.1-.3.3-.6.5-.9.2-.3.3-.6.4-.8h.4c0,.7.1,1.4.2,2.2s0,1.6.1,2.4h-.5c0-.7,0-1.4,0-2.1s0-1.3-.1-1.8c0,0,0,.2-.2.3,0,.2-.2.3-.3.5s-.2.4-.3.6-.2.5-.3.7-.2.4-.3.6c0,.2-.1.3-.2.4h-.4,0Z"/>
            <path d="M43.5,35.3c.7,0,1.1.1,1.5.4s.5.6.5,1.1,0,.5-.1.7c0,.2-.2.3-.4.5s-.4.2-.6.2c-.3,0-.5,0-.9,0h-.6v1.8h-.5v-4.6c.2,0,.4,0,.6,0,.2,0,.4,0,.6,0h0ZM43.5,35.7c-.2,0-.3,0-.4,0-.1,0-.2,0-.3,0v2.1h.6c.2,0,.5,0,.7,0s.4,0,.5-.2.3-.2.3-.3c0-.1.1-.3.1-.5s0-.4-.1-.5-.2-.2-.3-.3c-.1,0-.3-.1-.5-.2-.2,0-.4,0-.5,0h0Z"/>
            <path d="M47.9,40.1c-.3,0-.6,0-.8-.1s-.4-.2-.5-.4c-.1-.2-.2-.4-.3-.6s0-.5,0-.7v-2.9h.5v2.9c0,.3,0,.5,0,.7,0,.2.1.3.3.5s.2.2.4.3c.2,0,.3,0,.5,0s.4,0,.5,0,.3-.1.4-.3.2-.3.3-.5,0-.4,0-.7v-2.9h.5v2.9c0,.3,0,.5,0,.7,0,.2-.2.4-.3.6-.1.2-.3.3-.5.4s-.5.1-.8.1h0Z"/>
            <path d="M51.8,39.7c.4,0,.6,0,.8-.2.2-.1.3-.3.3-.6s0-.3,0-.4-.2-.2-.3-.3c-.1,0-.2-.1-.4-.2s-.3-.1-.4-.2c-.2,0-.4-.2-.5-.2s-.3-.2-.4-.3c-.1,0-.2-.2-.2-.3s0-.3,0-.5c0-.4.1-.7.4-.9.3-.2.6-.3,1.1-.3s.2,0,.4,0c.1,0,.2,0,.3,0,.1,0,.2,0,.3,0s.2,0,.2.1l-.2.4c-.1,0-.3-.2-.5-.2-.2,0-.4,0-.6,0s-.3,0-.4,0-.2,0-.3.1c0,0-.2.1-.2.2,0,0,0,.2,0,.4s0,.3,0,.4.1.2.2.3.2.1.3.2c.1,0,.3.1.4.2.2,0,.4.2.5.2.2,0,.3.2.4.3.1.1.2.2.3.4,0,.1.1.3.1.5,0,.4-.1.7-.4.9s-.7.3-1.2.3-.3,0-.5,0c-.1,0-.3,0-.4,0-.1,0-.2,0-.3-.1,0,0-.1,0-.2,0v-.4c.2,0,.3,0,.3,0s.2,0,.3.1c.1,0,.2,0,.4,0,.1,0,.3,0,.5,0h0Z"/>
          </g>
          <g>
            <path d="M28.2,41.8c.1.4.3.8.4,1.1s.3.7.4,1c.1.3.2.7.4,1s.3.6.4,1c.1-.3.3-.6.4-1,.1-.3.3-.6.4-1,.1-.3.2-.7.4-1s.3-.7.4-1.1h.5c-.2.6-.4,1.1-.6,1.5s-.3.8-.5,1.2c-.1.4-.3.7-.4,1s-.3.6-.4.9h-.4c-.1-.3-.3-.6-.4-.9s-.3-.6-.4-1-.3-.8-.5-1.2-.4-1-.6-1.5h.5s0,0,0,0Z"/>
            <path d="M32.5,41.8h.5v4.7h-.5v-4.7Z"/>
            <path d="M37.2,43.2c0,.4,0,.6-.3.8s-.4.3-.7.4c0,0,.2.2.3.4.1.2.2.3.4.5s.2.4.4.6c.1.2.2.4.3.6h-.5c0-.2-.2-.4-.3-.5-.1-.2-.2-.4-.3-.5s-.2-.3-.3-.5-.2-.3-.3-.4c-.1,0-.3,0-.4,0h-.8v1.9h-.5v-4.6c.2,0,.4,0,.6,0,.2,0,.4,0,.6,0,.6,0,1.1.1,1.4.4s.5.6.5,1.1h0ZM35.4,42.2c-.2,0-.3,0-.5,0-.1,0-.2,0-.3,0v2h.6c.2,0,.4,0,.6,0s.4,0,.5-.1.2-.2.3-.3c0-.1.1-.3.1-.5s0-.4-.1-.5c0-.1-.2-.2-.3-.3-.1,0-.3-.1-.5-.2s-.3,0-.5,0h0Z"/>
            <path d="M41.2,41.8v.4h-1.5v4.3h-.5v-4.3h-1.5v-.4h3.4Z"/>
            <path d="M43.6,46.6c-.3,0-.6,0-.8-.1-.2,0-.4-.2-.5-.4-.1-.2-.2-.4-.3-.6s0-.5,0-.7v-2.9h.5v2.9c0,.3,0,.5,0,.7s.1.3.3.5.2.2.4.3c.2,0,.3,0,.5,0s.4,0,.5,0c.2,0,.3-.1.4-.3s.2-.3.3-.5,0-.4,0-.7v-2.9h.5v2.9c0,.3,0,.5,0,.7,0,.2-.2.4-.3.6-.1.2-.3.3-.5.4s-.5.1-.8.1h0Z"/>
            <path d="M49.7,46.5c0-.2-.2-.5-.2-.7s-.1-.4-.2-.6h-2.3c0,.2-.2.4-.2.6,0,.2-.2.4-.2.7h-.5c.2-.5.3-.9.5-1.4s.3-.8.5-1.2c.2-.4.3-.7.5-1.1.1-.3.3-.7.5-1h.4c.2.3.3.7.5,1,.1.3.3.7.5,1.1s.3.8.5,1.2.3.9.5,1.4h-.5ZM48.1,42.3c-.2.4-.3.8-.5,1.2-.2.4-.3.8-.5,1.3h2c-.2-.5-.3-.9-.5-1.3-.2-.4-.3-.8-.5-1.2h0Z"/>
            <path d="M53.5,46.1v.4h-2.7v-4.7h.5v4.3h2.2Z"/>
          </g>
          <path d="M27.7,48.6v4.5h.7v-2h2v-.7h-2v-1.2h2.3v-.6h-3ZM31.4,48.6v4.5h.7v-4.4h-.7ZM35.1,48.5c-1.3,0-2.1.9-2.1,2.3s.8,2.3,2.1,2.3,2.1-.9,2.1-2.3-.8-2.3-2.1-2.3ZM35.1,49.1c.9,0,1.4.6,1.4,1.7s-.5,1.7-1.4,1.7-1.4-.6-1.4-1.7.5-1.7,1.4-1.7ZM41.7,50c0-.9-.8-1.5-1.8-1.5s-2.1.9-2.1,2.3.8,2.3,2,2.3,1.9-.7,1.9-1.7h-.7c0,.6-.5,1.1-1.2,1.1h0c-.8,0-1.3-.6-1.3-1.7s.5-1.7,1.3-1.7,1,.3,1.1.8h.7s0,0,0,0ZM42.4,48.6v4.4h.7v-1.8h1.1c.6,0,.7.2.7.7v.5c0,.2,0,.4.1.6h.8c-.2-.2-.2-.4-.2-.6v-.6c0-.5-.1-.8-.6-.9.4-.2.7-.6.6-1,0-.6-.4-1.2-1.1-1.2h-2.4,0ZM43.2,49.2h1.1c.6,0,.9.2.9.7s-.3.7-.9.7h-1.1v-1.4h0s0,0,0,0ZM46.7,48.6v2.8c0,1.2.6,1.8,1.8,1.8s1.8-.6,1.8-1.8v-2.8h-.7v2.8c0,.8-.3,1.1-1,1.1s-1-.4-1-1.1v-2.8h-.7ZM50.9,48.6v.6h2.4l-2.6,3.2v.6h3.5v-.7h-2.5l2.6-3.2v-.6h-3.3s0,0,0,0Z"/>
        </g>
      </g>
    </g>
  </g>
</svg>