<?xml version="1.0" encoding="UTF-8"?>
<svg id="Layer_2" xmlns="http://www.w3.org/2000/svg" version="1.1" viewBox="0 0 61.9 37.4">
  <!-- Generator: Adobe Illustrator 29.2.1, SVG Export Plug-In . SVG Version: 2.1.0 Build 116)  -->
  <defs>
    <style>
      .st0 {
        fill: none;
      }

      .st1 {
        fill: #010101;
      }

      .st2 {
        fill: #f7f7f7;
      }
    </style>
  </defs>
  <g id="Layer_1-2">
    <rect class="st0" x=".7" y="-20.6" width="61" height="100.1"/>
    <g>
      <g>
        <g>
          <path d="M1.8,30.8H.5v.7h1.1c0,0,.1,0,.2,0s0,0,0,.2,0,.1,0,.2-.1,0-.2,0H.5v.8h1.2c0,0,.1,0,.2,0,0,0,0,0,0,.2s0,.1,0,.2-.1,0-.2,0H.3c-.1,0-.2,0-.2,0C0,32.9,0,32.8,0,32.7v-2C0,30.6,0,30.6,0,30.5c0,0,0,0,.1-.1,0,0,.1,0,.2,0h1.4c0,0,.1,0,.2,0s0,0,0,.2,0,.1,0,.2-.1,0-.2,0h0Z"/>
          <path d="M4.5,32.2c0,.2,0,.3-.1.4s-.2.2-.4.3c-.2,0-.3.1-.6.1s-.5,0-.6-.2c-.1,0-.2-.2-.3-.3s-.1-.2-.1-.3,0-.1,0-.2,0,0,.2,0,0,0,.1,0,0,0,0,.2c0,0,0,.2.1.2s0,0,.2.1c0,0,.2,0,.3,0s.3,0,.4-.1c0,0,.2-.2.2-.3s0-.2,0-.2-.1,0-.2-.1c0,0-.2,0-.3,0-.2,0-.3,0-.5-.2-.1,0-.2-.1-.3-.2s-.1-.2-.1-.4,0-.3.1-.4.2-.2.3-.3c.2,0,.3,0,.5,0s.3,0,.4,0c.1,0,.2,0,.3.2s.1.1.2.2,0,.2,0,.2,0,.1,0,.2,0,0-.2,0-.1,0-.1,0,0,0,0-.2c0,0-.1-.2-.2-.2,0,0-.2,0-.3,0s-.2,0-.3,0-.1.1-.1.2,0,0,0,.1,0,0,.1,0,0,0,.2,0c0,0,.1,0,.3,0,.2,0,.3,0,.4.1s.2,0,.3.2.2.1.2.2,0,.2,0,.3h0Z"/>
          <path d="M7.2,32.2c0,0,0,.2,0,.3,0,0-.1.2-.2.3,0,0-.2.2-.3.2-.1,0-.3,0-.5,0s-.3,0-.4,0-.2,0-.3-.1c0,0-.2-.1-.3-.2,0,0-.1-.2-.2-.3,0,0,0-.2-.1-.3s0-.2,0-.4c0-.2,0-.4,0-.6s.2-.3.3-.4.2-.2.4-.3.3,0,.5,0,.4,0,.6.1c.2,0,.3.2.4.3,0,.1.1.2.1.4s0,.1,0,.2,0,0-.2,0-.1,0-.2,0,0,0-.1-.2c0-.1-.2-.2-.2-.3,0,0-.2,0-.3,0-.2,0-.4,0-.5.2s-.2.4-.2.7,0,.4,0,.5c0,.1.1.2.2.3s.2,0,.4,0,.3,0,.4-.1c.1,0,.2-.2.2-.3,0,0,0-.1,0-.2s0,0,.2,0,.1,0,.2,0,0,0,0,.2h0Z"/>
          <path d="M8.9,30.3c.3,0,.5,0,.7.2.2.1.4.3.4.5.1.2.1.5.1.7s0,.4,0,.6c0,.2-.1.3-.2.4-.1.1-.2.2-.4.3-.2,0-.4,0-.6,0s-.4,0-.6,0c-.2,0-.3-.2-.4-.3s-.2-.3-.2-.4,0-.4,0-.6,0-.4,0-.6c0-.2.1-.3.2-.4.1-.1.2-.2.4-.3s.3,0,.5,0h0ZM9.6,31.7c0-.2,0-.4,0-.5s-.1-.2-.3-.3c-.1,0-.2-.1-.4-.1s-.2,0-.3,0-.2,0-.2.2-.1.2-.2.3,0,.2,0,.4,0,.3,0,.4,0,.2.2.3.1.1.2.2.2,0,.3,0,.3,0,.4,0,.2-.2.3-.3c0-.1.1-.3.1-.5h0Z"/>
          <path d="M11.1,30.6v1.9h1.1c0,0,.1,0,.2,0s0,0,0,.2,0,.1,0,.2-.1,0-.2,0h-1.3c-.1,0-.2,0-.2,0,0,0,0-.1,0-.2v-2c0-.1,0-.2,0-.2,0,0,.1,0,.2,0s.1,0,.2,0c0,0,0,.1,0,.2h0Z"/>
          <path d="M14.5,32.7v-.3h-1.2v.3c-.2.1-.2.2-.3.3s0,0-.2,0-.1,0-.2,0,0-.1,0-.2,0,0,0-.1c0,0,0,0,0-.2l.7-1.7s0-.1,0-.2,0-.1,0-.2,0,0,.1-.1.1,0,.2,0,.1,0,.2,0c0,0,0,0,.1.1,0,0,0,0,0,.1,0,0,0,.1,0,.2l.7,1.7c0,.1,0,.2,0,.3s0,.1,0,.2-.1,0-.2,0,0,0-.1,0,0,0,0,0c0,0,0,0,0-.1,0,0,0,0,0-.1h0ZM13.4,32h.8l-.4-1.1-.4,1.1Z"/>
        </g>
        <g>
          <path d="M17.4,32h-.5v.8c0,.1,0,.2,0,.2s-.1,0-.2,0-.1,0-.2,0c0,0,0-.1,0-.2v-2c0-.1,0-.2,0-.2s.1,0,.3,0h.7c.2,0,.4,0,.5,0,.1,0,.2,0,.3.2s.1.2.2.3,0,.2,0,.3c0,.3,0,.5-.2.6s-.4.2-.7.2ZM17.3,30.8h-.4v.8h.4c.1,0,.2,0,.3,0,0,0,.1,0,.2-.1s0-.1,0-.2,0-.2-.1-.3c0,0-.2-.1-.5-.1h0Z"/>
          <path d="M20,30.3c.3,0,.5,0,.7.2.2.1.4.3.5.5s.1.5.1.7,0,.4,0,.6c0,.2-.1.3-.2.4-.1.1-.2.2-.4.3-.2,0-.4,0-.6,0s-.4,0-.6,0c-.2,0-.3-.2-.4-.3s-.2-.3-.2-.4,0-.4,0-.6,0-.4,0-.6c0-.2.1-.3.2-.4s.2-.2.4-.3.3,0,.5,0h0ZM20.8,31.7c0-.2,0-.4,0-.5s-.1-.2-.3-.3-.2-.1-.4-.1-.2,0-.3,0-.2,0-.2.2-.1.2-.2.3,0,.2,0,.4,0,.3,0,.4,0,.2.2.3.1.1.2.2.2,0,.3,0,.3,0,.4,0c.1,0,.2-.2.3-.3,0-.1.1-.3.1-.5h0Z"/>
          <path d="M22.3,30.6v1.9h1.1c0,0,.1,0,.2,0s0,0,0,.2,0,.1,0,.2-.1,0-.2,0h-1.3c-.1,0-.2,0-.2,0,0,0,0-.1,0-.2v-2c0-.1,0-.2,0-.2,0,0,.1,0,.2,0s.1,0,.2,0c0,0,0,.1,0,.2h0Z"/>
          <path d="M24.1,32.7v-2.1c0-.1,0-.2,0-.2,0,0,.1,0,.2,0s.1,0,.2,0c0,0,0,.1,0,.2v2.1c0,.1,0,.2,0,.2s-.1,0-.2,0-.1,0-.2,0c0,0,0-.1,0-.2h0Z"/>
          <path d="M26.9,30.8h-.6v1.9c0,.1,0,.2,0,.2,0,0-.1,0-.2,0s-.1,0-.2,0c0,0,0-.1,0-.2v-1.9h-.6c0,0-.2,0-.2,0s0,0,0-.2,0-.1,0-.2.1,0,.2,0h1.7c0,0,.2,0,.2,0s0,0,0,.2,0,.1,0,.2-.1,0-.2,0Z"/>
          <path d="M29.3,30.8h-1.2v.7h1.1c0,0,.1,0,.2,0s0,0,0,.2,0,.1,0,.2-.1,0-.2,0h-1.1v.8h1.2c0,0,.1,0,.2,0s0,0,0,.2,0,.1,0,.2c0,0-.1,0-.2,0h-1.5c-.1,0-.2,0-.2,0,0,0,0-.1,0-.2v-2c0,0,0-.1,0-.2s0,0,.1-.1c0,0,.1,0,.2,0h1.4c0,0,.1,0,.2,0s0,0,0,.2,0,.1,0,.2-.1,0-.2,0h0ZM28.6,29.7h.2c0,0,0,0,0,0,0,0,0,0-.1.1s-.1.1-.2.2c0,0-.1,0-.1.1,0,0-.1,0-.2,0s0,0,0,0,0,0,0-.1v-.2c.1,0,.2-.1.2-.2,0,0,0,0,.2,0h0Z"/>
          <path d="M32.2,32.2c0,0,0,.2,0,.3,0,0-.1.2-.2.3,0,0-.2.2-.3.2s-.3,0-.5,0-.3,0-.4,0-.2,0-.3-.1c0,0-.2-.1-.3-.2,0,0-.1-.2-.2-.3,0,0,0-.2-.1-.3s0-.2,0-.4c0-.2,0-.4,0-.6s.1-.3.3-.4.2-.2.4-.3.3,0,.5,0,.4,0,.6.1c.2,0,.3.2.4.3s.1.2.1.4,0,.1,0,.2,0,0-.2,0-.1,0-.1,0c0,0,0,0-.1-.2,0-.1-.1-.2-.2-.3,0,0-.2,0-.4,0-.2,0-.4,0-.5.2-.1.2-.2.4-.2.7s0,.4,0,.5c0,.1.1.2.2.3s.2,0,.4,0,.3,0,.4-.1c.1,0,.2-.2.2-.3,0,0,0-.1,0-.2s0,0,.2,0,.1,0,.2,0,0,0,0,.2h0Z"/>
          <path d="M33.4,30.6l1,1.6v-1.6c0,0,0-.2,0-.2s0,0,.2,0,.1,0,.2,0c0,0,0,.1,0,.2v2.1c0,.2,0,.3-.3.3s0,0-.1,0c0,0,0,0-.1,0s0,0,0-.1c0,0,0,0,0-.1l-1-1.5v1.5c0,0,0,.2,0,.2s-.1,0-.2,0-.1,0-.2,0c0,0,0-.1,0-.2v-2c0,0,0-.2,0-.2,0,0,0,0,.1-.1,0,0,.1,0,.2,0s0,0,.1,0,0,0,0,0c0,0,0,0,0,0s0,0,0,.1h0Z"/>
          <path d="M35.6,32.7v-2.1c0-.1,0-.2,0-.2,0,0,.1,0,.2,0s.2,0,.2,0c0,0,0,.1,0,.2v2.1c0,.1,0,.2,0,.2s-.1,0-.2,0-.1,0-.2,0c0,0,0-.1,0-.2h0Z"/>
          <path d="M39,32.2c0,0,0,.2,0,.3,0,0-.1.2-.2.3,0,0-.2.2-.3.2s-.3,0-.5,0-.3,0-.4,0-.2,0-.3-.1c0,0-.2-.1-.3-.2,0,0-.1-.2-.2-.3s0-.2-.1-.3,0-.2,0-.4c0-.2,0-.4,0-.6s.2-.3.3-.4.2-.2.4-.3.3,0,.5,0,.4,0,.6.1c.2,0,.3.2.4.3s.1.2.1.4,0,.1,0,.2,0,0-.2,0-.1,0-.2,0c0,0,0,0-.1-.2,0-.1-.2-.2-.2-.3,0,0-.2,0-.3,0-.2,0-.4,0-.5.2-.1.2-.2.4-.2.7s0,.4,0,.5c0,.1.1.2.2.3s.2,0,.4,0,.3,0,.4-.1c.1,0,.2-.2.2-.3,0,0,0-.1,0-.2s0,0,.2,0,.1,0,.2,0,0,0,0,.2h0Z"/>
          <path d="M41.1,32.7v-.3h-1.2v.3c-.2.1-.2.2-.3.3s0,0-.2,0-.1,0-.2,0,0-.1,0-.2,0,0,0-.1c0,0,0,0,0-.2l.7-1.7s0-.1,0-.2,0-.1,0-.2,0,0,.1-.1.1,0,.2,0,.1,0,.2,0c0,0,0,0,.1.1,0,0,0,0,0,.1s0,.1,0,.2l.7,1.7c0,.1,0,.2,0,.3s0,.1,0,.2c0,0-.1,0-.2,0s0,0-.1,0,0,0,0,0c0,0,0,0,0-.1,0,0,0,0,0-.1h0ZM40.1,32h.8l-.4-1.1-.4,1.1Z"/>
          <path d="M43.4,30.4h.7c.2,0,.3,0,.5,0s.2,0,.3.2c.3.2.4.6.4,1.1s0,.3,0,.4c0,.1,0,.2-.1.4s-.1.2-.2.3c0,0-.2.1-.2.2,0,0-.2,0-.3,0,0,0-.2,0-.3,0h-.7c0,0-.2,0-.2,0,0,0,0,0,0-.1,0,0,0-.1,0-.2v-1.9c0-.1,0-.2,0-.2,0,0,.1,0,.2,0h0ZM43.6,30.8v1.8h.6s0,0,.2,0c0,0,0,0,.1,0,.2-.2.3-.4.3-.8s0-.5-.1-.6c0-.1-.2-.2-.3-.2-.1,0-.3,0-.4,0h-.4Z"/>
          <path d="M47.5,30.8h-1.2v.7h1.1c0,0,.1,0,.2,0s0,0,0,.2,0,.1,0,.2,0,0-.2,0h-1.1v.8h1.2c0,0,.2,0,.2,0,0,0,0,0,0,.2s0,.1,0,.2-.1,0-.2,0h-1.5c-.1,0-.2,0-.2,0,0,0,0-.1,0-.2v-2c0,0,0-.1,0-.2s0,0,.1-.1c0,0,.1,0,.2,0h1.4c0,0,.2,0,.2,0s0,0,0,.2,0,.1,0,.2-.1,0-.2,0h0Z"/>
          <path d="M51.2,32.2c0,.2,0,.3-.1.4,0,.1-.2.2-.4.3s-.3.1-.6.1-.5,0-.7-.2c-.1,0-.2-.2-.3-.3s-.1-.2-.1-.3,0-.1,0-.2,0,0,.2,0,0,0,.1,0,0,0,0,.2c0,0,0,.2.1.2s0,0,.2.1c0,0,.2,0,.3,0s.3,0,.4-.1.2-.2.2-.3,0-.2,0-.2c0,0-.1,0-.2-.1,0,0-.2,0-.3,0-.2,0-.3,0-.5-.2s-.2-.1-.3-.2-.1-.2-.1-.4,0-.3.1-.4.2-.2.3-.3c.2,0,.3,0,.5,0s.3,0,.4,0,.2,0,.3.2.1.1.2.2,0,.2,0,.2,0,.1,0,.2,0,0-.2,0-.1,0-.1,0,0,0,0-.2c0,0-.1-.2-.2-.2,0,0-.2,0-.3,0s-.2,0-.3,0-.1.1-.1.2,0,0,0,.1,0,0,.1,0,0,0,.2,0c0,0,.1,0,.3,0,.2,0,.3,0,.4.1s.2,0,.3.2.2.1.2.2,0,.2,0,.3h0Z"/>
          <path d="M53.3,32.7v-.3h-1.2v.3c-.2.1-.2.2-.3.3s0,0-.2,0-.1,0-.2,0,0-.1,0-.2,0,0,0-.1c0,0,0,0,0-.2l.7-1.7s0-.1,0-.2,0-.1,0-.2,0,0,.1-.1.1,0,.2,0,.1,0,.2,0c0,0,0,0,.1.1,0,0,0,0,0,.1s0,.1,0,.2l.7,1.7c0,.1,0,.2,0,.3s0,.1,0,.2c0,0-.1,0-.2,0s0,0-.1,0,0,0,0,0c0,0,0,0,0-.1,0,0,0,0,0-.1h0ZM52.3,32h.8l-.4-1.1-.4,1.1Z"/>
          <path d="M54.3,31.9v-1.3c0-.1,0-.2,0-.2,0,0,.1,0,.2,0s.2,0,.2,0c0,0,0,.1,0,.2v1.3c0,.2,0,.3,0,.4s0,.2.2.2.2,0,.3,0,.4,0,.5-.2.1-.3.1-.5v-1.3c0-.1,0-.2,0-.2,0,0,.1,0,.2,0s.2,0,.2,0c0,0,0,.1,0,.2v1.3c0,.2,0,.4,0,.5s-.1.3-.2.4c0,0-.2.2-.3.2-.1,0-.3,0-.5,0s-.4,0-.5,0c-.2,0-.3-.1-.4-.2s-.2-.2-.2-.3,0-.3,0-.5h0ZM55.5,29.7h.2c0,0,0,0,0,0,0,0,0,0,0,.1s-.1.1-.2.2c0,0-.1,0-.1.1,0,0-.1,0-.2,0s0,0,0,0,0,0,0-.1v-.2c.1,0,.2-.1.2-.2,0,0,0,0,.2,0h0Z"/>
          <path d="M57.5,30.4h.7c.2,0,.3,0,.5,0s.2,0,.3.2c.3.2.4.6.4,1.1s0,.3,0,.4c0,.1,0,.2-.1.4s-.1.2-.2.3c0,0-.2.1-.2.2,0,0-.2,0-.3,0,0,0-.2,0-.3,0h-.7c0,0-.2,0-.2,0,0,0,0,0,0-.1,0,0,0-.1,0-.2v-1.9c0-.1,0-.2,0-.2,0,0,.1,0,.2,0h0ZM57.7,30.8v1.8h.6s0,0,.2,0c0,0,0,0,.1,0,.2-.2.3-.4.3-.8s0-.5-.1-.6c0-.1-.2-.2-.3-.2-.1,0-.3,0-.4,0h-.4Z"/>
          <path d="M61.6,30.8h-1.2v.7h1.1c0,0,.1,0,.2,0s0,0,0,.2,0,.1,0,.2,0,0-.2,0h-1.1v.8h1.2c0,0,.2,0,.2,0,0,0,0,0,0,.2s0,.1,0,.2-.1,0-.2,0h-1.5c-.1,0-.2,0-.2,0,0,0,0-.1,0-.2v-2c0,0,0-.1,0-.2s0,0,.1-.1c0,0,.1,0,.2,0h1.4c0,0,.2,0,.2,0s0,0,0,.2,0,.1,0,.2-.1,0-.2,0h0Z"/>
        </g>
        <g>
          <path d="M13.4,35v1.4c0,.1,0,.2,0,.3,0,0,0,.2,0,.3,0,.2-.2.3-.3.3s-.3.1-.5.1-.3,0-.4,0-.2-.2-.3-.3c0,0,0-.2,0-.2,0,0,0-.2,0-.2s0-.2,0-.2c0,0,.1,0,.2,0s.1,0,.2,0,0,0,0,.2c0,0,0,.2,0,.2,0,0,0,0,.1.1s.1,0,.2,0c.2,0,.4-.2.4-.5v-1.5c0-.1,0-.2,0-.2,0,0,.1,0,.2,0s.1,0,.2,0c0,0,0,.1,0,.2h0Z"/>
          <path d="M15.1,34.6c.3,0,.5,0,.7.2.2.1.4.3.5.5s.1.5.1.7,0,.4,0,.6c0,.2-.1.3-.2.4-.1.1-.2.2-.4.3-.2,0-.4,0-.6,0s-.4,0-.6,0c-.2,0-.3-.2-.4-.3s-.2-.3-.2-.4,0-.4,0-.6,0-.4,0-.6c0-.2.1-.3.2-.4s.2-.2.4-.3.3,0,.5,0h0ZM15.9,36c0-.2,0-.4,0-.5s-.1-.2-.3-.3c-.1,0-.2-.1-.4-.1s-.2,0-.3,0-.2,0-.2.2-.1.2-.2.3,0,.2,0,.4,0,.3,0,.4,0,.2.2.3.1.1.2.2.2,0,.3,0,.3,0,.4,0,.2-.2.3-.3c0-.1.1-.3.1-.5h0Z"/>
          <path d="M18.4,37v-.3h-1.2v.3c-.2.1-.2.2-.3.3,0,0,0,0-.2,0s-.1,0-.2,0c0,0,0-.1,0-.2s0,0,0-.1c0,0,0,0,0-.2l.7-1.7s0-.1,0-.2c0,0,0-.1,0-.2s0,0,.1-.1.1,0,.2,0,.1,0,.2,0c0,0,0,0,.1.1,0,0,0,0,0,.1s0,.1,0,.2l.7,1.7c0,.1,0,.2,0,.3s0,.1,0,.2-.1,0-.2,0,0,0-.1,0,0,0,0,0c0,0,0,0,0-.1,0,0,0,0,0-.1h0ZM17.4,36.3h.8l-.4-1.1s-.4,1.1-.4,1.1Z"/>
          <path d="M21.5,37c0,0,.2,0,.3.2,0,0,.1,0,.2.1s0,0,0,.1,0,0,0,.1,0,0-.1,0,0,0-.1,0c0,0-.1,0-.2-.1s-.2-.1-.3-.2c-.2,0-.4.1-.6.1s-.4,0-.5,0-.3-.2-.4-.3-.2-.3-.2-.4,0-.4,0-.6,0-.4,0-.6c0-.2.1-.3.2-.4s.2-.2.4-.3.3,0,.5,0,.5,0,.7.2c.2.1.4.3.5.5s.1.5.1.7c0,.4-.1.8-.3,1h0ZM21.1,36.7c0,0,.1-.2.2-.3s0-.2,0-.4,0-.4,0-.5-.1-.2-.3-.3-.2-.1-.4-.1-.2,0-.3,0-.2,0-.2.2-.1.2-.2.3,0,.2,0,.4c0,.3,0,.5.2.7s.3.2.5.2.2,0,.3,0c0,0-.1,0-.2-.1,0,0-.1,0-.2,0,0,0,0,0,0,0s0,0,0,0c0,0,0,0,.1,0,.1,0,.3,0,.5.3h0Z"/>
          <path d="M22.3,36.2v-1.3c0-.1,0-.2,0-.2,0,0,.1,0,.2,0s.1,0,.2,0c0,0,0,.1,0,.2v1.3c0,.2,0,.3,0,.4,0,0,0,.2.2.2s.2,0,.4,0,.4,0,.5-.2.1-.3.1-.5v-1.3c0-.1,0-.2,0-.2,0,0,.1,0,.2,0s.1,0,.2,0c0,0,0,.1,0,.2v1.3c0,.2,0,.4,0,.5,0,.1-.1.3-.2.4-.1,0-.2.2-.3.2-.1,0-.3,0-.5,0s-.4,0-.5,0c-.1,0-.3-.1-.4-.2s-.2-.2-.2-.3,0-.3,0-.5h0Z"/>
          <path d="M25.1,37v-2.1c0-.1,0-.2,0-.2,0,0,.1,0,.2,0s.1,0,.2,0c0,0,0,.1,0,.2v2.1c0,.1,0,.2,0,.2s-.1,0-.2,0-.1,0-.2,0c0,0,0-.1,0-.2h0Z"/>
          <path d="M27.2,36.9l-.4-1.7v1.8c0,0,0,.2,0,.2s-.1,0-.2,0-.1,0-.2,0c0,0,0-.1,0-.2v-2.1c0-.1,0-.2,0-.2s.1,0,.2,0h.2c.1,0,.2,0,.2,0,0,0,0,0,.1,0s0,.1,0,.2l.4,1.5.4-1.5c0-.1,0-.2,0-.2s0,0,.1,0c0,0,.1,0,.2,0h.2c.1,0,.2,0,.2,0s0,.1,0,.2v2.1c0,0,0,.2,0,.2s-.1,0-.2,0-.1,0-.2,0c0,0,0-.1,0-.2v-1.8l-.4,1.7c0,.1,0,.2,0,.2,0,0,0,0-.1.1,0,0-.1,0-.2,0s-.1,0-.2,0,0,0-.1,0c0,0,0,0,0-.1,0,0,0,0,0-.2h0Z"/>
        </g>
        <g>
          <path d="M30.7,35l.6,1.8.6-1.8c0,0,0-.2,0-.2s0,0,0,0,0,0,.2,0,0,0,.1,0,0,0,0,0,0,0,0,.1,0,0,0,0c0,0,0,0,0,0s0,0,0,0l-.6,1.7c0,0,0,.1,0,.2,0,0,0,.1,0,.2s0,0-.1.1c0,0-.1,0-.2,0s-.1,0-.2,0,0,0-.1-.1c0,0,0,0,0-.2s0-.1,0-.2l-.6-1.7s0,0,0,0,0,0,0,0c0,0,0,0,0,0,0,0,0-.1,0-.2s.1,0,.2,0,.2,0,.2,0c0,0,0,.2.1.3h0Z"/>
          <path d="M34.6,35.1h-1.2v.7h1.1c0,0,.1,0,.2,0s0,0,0,.2,0,.1,0,.2,0,0-.2,0h-1.1v.8h1.2c0,0,.2,0,.2,0,0,0,0,0,0,.2s0,.1,0,.2-.1,0-.2,0h-1.5c-.1,0-.2,0-.2,0,0,0,0-.1,0-.2v-2c0,0,0-.1,0-.2s0,0,.1-.1c0,0,.1,0,.2,0h1.4c0,0,.2,0,.2,0s0,0,0,.2,0,.1,0,.2-.1,0-.2,0h0Z"/>
          <path d="M36,35l1,1.6v-1.6c0,0,0-.2,0-.2s0,0,.2,0,.1,0,.2,0c0,0,0,.1,0,.2v2.1c0,.2,0,.3-.3.3s0,0-.1,0c0,0,0,0-.1,0s0,0,0-.1c0,0,0,0,0-.1l-1-1.5v1.5c0,0,0,.2,0,.2s-.1,0-.2,0-.1,0-.2,0c0,0,0-.1,0-.2v-2c0,0,0-.2,0-.2,0,0,0,0,.1-.1,0,0,.1,0,.2,0s0,0,.1,0,0,0,0,0c0,0,0,0,0,0s0,0,0,.1h0Z"/>
          <path d="M39.8,37v-.3h-1.2v.3c-.2.1-.2.2-.3.3s0,0-.2,0-.1,0-.2,0,0-.1,0-.2,0,0,0-.1c0,0,0,0,0-.2l.7-1.7s0-.1,0-.2,0-.1,0-.2,0,0,.1-.1.1,0,.2,0,.1,0,.2,0c0,0,0,0,.1.1,0,0,0,0,0,.1s0,.1,0,.2l.7,1.7c0,.1,0,.2,0,.3s0,.1,0,.2c0,0-.1,0-.2,0s0,0-.1,0,0,0,0,0c0,0,0,0,0-.1,0,0,0,0,0-.1h0ZM39.3,34.4l-.2-.2-.2.2c0,0,0,0,0,.1,0,0,0,0,0,0h-.1s0,0,0,0,0,0,0,0l.2-.2s0,0,0,0,0,0,0,0c0,0,0,0,0,0h.2c0,0,.1,0,.2,0,0,0,0,0,.1.1l.2.2s0,0,0,0c0,0,0,0,0,0h-.1s0,0,0,0c0,0,0,0,0,0s0,0,0,0h0ZM38.8,36.3h.8l-.4-1.1-.4,1.1Z"/>
          <path d="M41.5,35l1,1.6v-1.6c0,0,0-.2,0-.2s0,0,.2,0,.1,0,.2,0c0,0,0,.1,0,.2v2.1c0,.2,0,.3-.3.3s0,0-.1,0c0,0,0,0-.1,0s0,0,0-.1c0,0,0,0,0-.1l-1-1.5v1.5c0,0,0,.2,0,.2s-.1,0-.2,0-.1,0-.2,0c0,0,0-.1,0-.2v-2c0,0,0-.2,0-.2,0,0,0,0,.1-.1,0,0,.1,0,.2,0s0,0,.1,0,0,0,0,0c0,0,0,0,0,0s0,0,0,.1h0Z"/>
          <path d="M45.9,36.5c0,0,0,.2,0,.3,0,0-.1.2-.2.3,0,0-.2.2-.3.2s-.3,0-.5,0-.3,0-.4,0-.2,0-.3-.1c0,0-.2-.1-.3-.2,0,0-.1-.2-.2-.3s0-.2-.1-.3,0-.2,0-.4c0-.2,0-.4,0-.6s.2-.3.3-.4.2-.2.4-.3.3,0,.5,0,.4,0,.6.1c.2,0,.3.2.4.3s.1.2.1.4,0,.1,0,.2,0,0-.2,0-.1,0-.2,0c0,0,0,0-.1-.2,0-.1-.2-.2-.2-.3,0,0-.2,0-.3,0-.2,0-.4,0-.5.2-.1.2-.2.4-.2.7s0,.4,0,.5c0,.1.1.2.2.3s.2,0,.4,0,.3,0,.4-.1c.1,0,.2-.2.2-.3,0,0,0-.1,0-.2s0,0,.2,0,.1,0,.2,0,0,0,0,.2h0Z"/>
          <path d="M46.4,37v-2.1c0-.1,0-.2,0-.2,0,0,.1,0,.2,0s.2,0,.2,0c0,0,0,.1,0,.2v2.1c0,.1,0,.2,0,.2s-.1,0-.2,0-.1,0-.2,0c0,0,0-.1,0-.2h0Z"/>
          <path d="M48.7,34.6c.3,0,.5,0,.7.2.2.1.3.3.5.5,0,.2.2.5.2.7s0,.4,0,.6c0,.2-.1.3-.2.4-.1.1-.2.2-.4.3-.2,0-.3,0-.6,0s-.4,0-.6,0c-.2,0-.3-.2-.4-.3s-.2-.3-.2-.4,0-.4,0-.6,0-.4,0-.6c0-.2.1-.3.2-.4s.2-.2.4-.3.3,0,.5,0h0ZM49.5,36c0-.2,0-.4,0-.5s-.2-.2-.3-.3-.2-.1-.4-.1-.2,0-.3,0-.2,0-.2.2c0,0-.1.2-.2.3s0,.2,0,.4,0,.3,0,.4,0,.2.2.3.2.1.2.2.2,0,.3,0,.3,0,.4,0c.1,0,.2-.2.3-.3,0-.1,0-.3,0-.5h0Z"/>
        </g>
      </g>
      <g>
        <path d="M26.3,19.6c1,.8,1.4,1.2,2.2,2,0,0,.2.3.4.1-.8-2.1-1.7-4.2-2.4-6.3-1.4-4-4.8-13.9,1.4-15.4,2.7-.6,7.4,1.9,8.6,4.3s0,5.3-2,6.9c-2.2,1.8-5.2-.8-6.1-2.9-1.2-2.8.3-4.9,3.3-4.6,2.8.3,2,3.9.6,5.4-1.7,1.9-3-1.6-1.3-3.1,1-.9,1.5,0,1.3,1-.4,0-.2,0-.2-.3,0-.3,0-.9-.5-.8-1.4.4-.8,5.7,1.1,1.7,1.2-2.5.2-4.1-2.6-3.5-3.7.9,0,6.6,2.3,6.9,2.7.4,4.3-3.2,4-5.5-.5-3.3-8.1-7-10.2-3.6-1.8,3-.7,7.4.3,10.5.8,2.7,1.9,5.8,2.9,8.4.2.5,1,2.8,1.6,2.6.1,0,1.4-2.2,1.6-2.5,4.8-6.3,11-2.6,17.5-2.6,1.1,0,2.8-.3,3.9-.5,1.4-.2,2.8-.6,4.2-.9l.2.4c-2.2.5-4.8,1.5-7,1.7-6.3.5-15.1-3.7-19.1,3.4,0,0,.1.1.2.1,3.2-2.8,8-3.1,12-3,5.2,0,10.5.6,15.7.8v.6l-17.8-.3c-2.4.3-5,.5-7.2,1.5s-2.1,3.2-4.9,2.9c-1.1,0-1.5-1.1-2.3-1.7-2.2-1.8-9.1-2.8-12-2.9-4.3-.2-8.5.3-12.8.5-.3,0-2,0-2,0-.3-.3.5-.5.7-.5,1.7-.3,3.6-.5,5.3-.7,6.8-.7,14.1-.9,20.5,2,0-.2-.1-.3-.2-.4-.3-.3-1-.8-1.4-1.1-.2-.3-.3-1,.2-.8h0Z"/>
        <path class="st1" d="M26.3,19.6l-.2.3c.4.1.2.2,0,.5-2.2-1.6-3.8-2.1-6.6-2-3.1.2-6.1.9-9.3.7-2.3-.2-4.6-1.2-6.8-1.7-.4-.2-.2-.6.3-.5,1.8.1,3.9,1.1,5.8,1.3,3.4.3,6.9-.3,10.3-.5,2.9,0,4.1.2,6.4,1.9h0Z"/>
        <path class="st2" d="M30.9,5.6c.2.3-.5.4-.5.2,0,0,.5-.2.5-.2Z"/>
      </g>
    </g>
  </g>
</svg>