<?xml version="1.0" encoding="UTF-8"?>
<svg id="Layer_2" xmlns="http://www.w3.org/2000/svg" version="1.1" viewBox="0 0 56.8 29">
  <!-- Generator: Adobe Illustrator 29.2.1, SVG Export Plug-In . SVG Version: 2.1.0 Build 116)  -->
  <defs>
    <style>
      .st0 {
        fill: none;
      }

      .st1 {
        fill: #19559f;
      }
    </style>
  </defs>
  <g id="Layer_1-2">
    <rect class="st0" y="-26.3" width="56.8" height="100.1"/>
    <g>
      <path class="st1" d="M20.9,16.1l-1.8-.5c-1.2-.4-2-1.5-2-2.7s1.3-2.9,2.9-2.9h3.6v1.3h-2.5c-.5,0-.9.4-.9.9s.2.7.6.8l1.8.6c1.2.4,1.9,1.6,1.9,3s-1.4,3.2-3.2,3.2h-3.8v-1.4h3.2c.5,0,1-.5,1-1.1s-.3-.9-.8-1.1M4.2,16.1l-1.8-.5c-1.1-.4-1.9-1.5-1.9-2.7s1.3-2.9,2.9-2.9h3.6v1.3h-2.5c-.5,0-.9.4-.9.9s.2.7.6.8l1.8.6c1.2.4,1.8,1.6,1.8,3s-1.4,3.2-3.2,3.2H.8v-1.4h3.2c.5,0,1-.5,1-1.1s-.3-.9-.8-1.1M12.5,20c-2.2,0-3.9-1.5-3.9-3.5v-6.5h2.9v6.8c0,.9.8,1.5,1.7,1.5s1.7-.7,1.7-1.5v-6.8h1.4v6.5c0,1.9-1.7,3.5-3.8,3.5"/>
      <path class="st1" d="M45.6,20.6s-5,.3-9.4,0c0,5.2.7,7.9.8,8.5h9.4c-.5-2.8-.8-7.2-.9-8.4M29.7,9.7c.6,0,6.2.5,6.5.5l8.8,8.9h11.3v-9.4h-26.6ZM37,9.2h9.5V0h-9.5v9.2ZM37,11.8h0l-1.2-1.2c-1.6,0-6.9-.5-8.6-.8v9.4c8.5.8,12.9,1,17.9.9h0l-8.1-8.2h0ZM45.6,19.6h1.2v7.3c-.1-.8-.6-5.2-.5-6.7-.2-.2-.6-.7-.6-.7"/>
    </g>
  </g>
</svg>