<?xml version="1.0" encoding="UTF-8"?>
<svg id="Layer_2" xmlns="http://www.w3.org/2000/svg" version="1.1" viewBox="0 0 221.4 53">
  <!-- Generator: Adobe Illustrator 29.2.1, SVG Export Plug-In . SVG Version: 2.1.0 Build 116)  -->
  <defs>
    <style>
      .st0 {
        fill: none;
      }

      .st1 {
        fill: #ffcf00;
      }

      .st2 {
        fill: #212121;
      }

      .st3 {
        fill: #3d3d3d;
      }

      .st4 {
        fill: #00cf00;
      }

      .st5 {
        fill: red;
      }

      .st6 {
        fill: #173dff;
      }
    </style>
  </defs>
  <g id="Layer_1-2">
    <rect class="st0" y="-15.4" width="221.4" height="100.1"/>
    <g>
      <polygon class="st2" points="5.5 21.9 5.5 17.8 3.8 20.9 3.2 20.9 1.5 17.8 1.5 21.9 .6 21.9 .6 16.1 1.6 16.1 3.5 19.7 5.4 16.1 6.4 16.1 6.4 21.9 5.5 21.9"/>
      <rect class="st2" x="9.4" y="16.1" width=".9" height="5.8"/>
      <polygon class="st2" points="14.2 17.8 14.2 21.9 13.3 21.9 13.3 16.1 14.1 16.1 17.4 20.3 17.4 16.1 18.3 16.1 18.3 21.9 17.5 21.9 14.2 17.8"/>
      <rect class="st2" x="21.3" y="16.1" width=".9" height="5.8"/>
      <path class="st2" d="M28.6,17.4c-.1-.1-.3-.3-.6-.4-.3-.1-.6-.2-.9-.2s-.7,0-.9.2-.3.3-.3.6,0,.2,0,.2c0,0,0,.1,0,.2s0,0,.1.1c0,0,.1,0,.2.1,0,0,.1,0,.3,0,.1,0,.2,0,.3,0,.1,0,.2,0,.4,0,.3,0,.5.1.7.2s.4.1.5.2c.2,0,.3.2.4.3s.2.2.2.4,0,.3,0,.6,0,.4-.1.6c0,.2-.2.3-.3.5-.1.1-.3.2-.5.3-.2,0-.4.2-.6.2-.2,0-.4,0-.7,0-.4,0-.9,0-1.3-.2-.4-.1-.8-.3-1.1-.6l.4-.8c.2.2.4.3.8.5.4.2.8.2,1.2.2s.6,0,.8-.2c.2-.1.3-.3.3-.5s0-.2,0-.3c0,0,0-.2-.2-.2,0,0-.1-.1-.2-.2,0,0-.2,0-.3-.1-.1,0-.3,0-.4-.1-.1,0-.3,0-.5-.1-.3,0-.6-.2-.8-.2s-.4-.2-.5-.3c-.1-.1-.3-.3-.3-.4,0-.2-.1-.4-.1-.6s0-.5.2-.8.3-.4.5-.6.4-.3.7-.3c.3,0,.5-.1.8-.1.7,0,1.4.2,2,.7l-.4.8h0Z"/>
      <polygon class="st2" points="36.1 16.9 34.2 16.9 34.2 21.9 33.2 21.9 33.2 16.9 31.3 16.9 31.3 16.1 36.1 16.1 36.1 16.9"/>
      <path class="st2" d="M40.9,15.5l-.6-.2.5-.9h.9l-.7,1.1ZM42.6,21.1v.8h-4v-5.9h3.9v.8h-3v1.7h2.6v.8h-2.6v1.8h3.1Z"/>
      <path class="st2" d="M46.1,19.1h1.6c.3,0,.5-.1.6-.3.2-.2.2-.5.2-.8s0-.5-.3-.8-.4-.3-.7-.3h-1.6v2.2h0ZM45.2,21.9v-5.9h2.5c.2,0,.5,0,.7.2.2.1.4.2.6.4.2.2.3.4.4.6s.1.5.1.7c0,.4-.1.8-.3,1.1-.2.3-.5.5-.8.7l1.4,2.2h-1l-1.3-2h-1.4v2h-.9,0Z"/>
      <rect class="st2" x="52.3" y="16.1" width=".9" height="5.8"/>
      <path class="st2" d="M58.6,21.1c.3,0,.5,0,.8-.2.2-.1.4-.3.6-.5.2-.2.3-.4.4-.7s.1-.5.1-.8,0-.5-.1-.8-.2-.5-.4-.7c-.2-.2-.4-.3-.6-.5-.2-.1-.5-.2-.8-.2s-.5,0-.8.2-.4.3-.6.5c-.2.2-.3.4-.4.7,0,.2-.1.5-.1.8,0,.4,0,.7.2,1s.4.6.7.8.6.3,1,.3M55.8,19c0-.4,0-.8.2-1.1s.3-.7.6-1,.5-.5.9-.6c.3-.2.7-.2,1.1-.2s.8,0,1.1.3.7.4.9.7c.2.3.4.6.6,1,.1.3.2.7.2,1.1s0,.8-.2,1.1-.3.7-.6,1-.5.5-.9.7-.7.2-1.1.2-.6,0-.9-.2c-.3-.1-.5-.3-.8-.5-.2-.2-.4-.4-.6-.7-.2-.2-.3-.5-.4-.8s-.1-.6-.1-.9"/>
      <path class="st2" d="M69.8,16.9h-1.2v4.2h1.2c.4,0,.8,0,1-.3.3-.2.5-.4.7-.8.1-.3.2-.7.2-1.1,0-.6-.2-1.1-.5-1.5-.3-.4-.8-.6-1.4-.6M67.7,21.9v-5.9h2.1c.5,0,.9,0,1.2.2.4.1.7.4.9.6.2.3.4.6.5.9.1.3.2.7.2,1.1,0,.9-.3,1.6-.8,2.1-.5.5-1.2.8-2.1.8h-2.1Z"/>
      <path class="st2" d="M78.1,19.7l-.9-2.6-1,2.6h1.9ZM76.7,16.1h.9l2.3,5.8h-1l-.6-1.6h-2.2l-.6,1.6h-1l2.3-5.9h0Z"/>
      <path class="st2" d="M50,29.6s0,0,0,0c0,0-.1,0-.2-.1-.1,0-.2-.1-.4-.2s-.3,0-.4-.1-.3,0-.4,0c-.3,0-.5,0-.5.3s0,0,0,.1c0,0,0,0,0,0,0,0,0,0,.1,0,0,0,0,0,.2,0s.1,0,.2,0c0,0,.1,0,.2,0,.1,0,.2,0,.3,0,.2,0,.4.1.6.2s.3.2.5.3c.2,0,.3.2.4.3,0,.1.2.3.2.4,0,.2,0,.4,0,.6s0,.5-.1.7c0,.2-.2.4-.3.5-.1.1-.3.2-.5.3-.2,0-.4.2-.6.2-.2,0-.4,0-.7,0-.4,0-.9,0-1.3-.2s-.9-.3-1.2-.5l.7-1.4s0,0,.1,0,.2,0,.3.2c.2,0,.3.1.4.2.1,0,.3.1.5.2.2,0,.4,0,.5,0,.3,0,.5,0,.5-.3s0-.1,0-.2-.1,0-.2-.1-.2,0-.3,0c0,0-.2,0-.4-.1s-.3,0-.4-.1c-.5-.2-.9-.4-1.1-.6-.2-.2-.3-.6-.3-1s0-.6.2-.8c.1-.3.3-.5.5-.6s.4-.3.7-.4c.3,0,.5-.1.8-.1.6,0,1.4.2,2.2.6l-.7,1.3h0Z"/>
      <path class="st2" d="M55.8,31.3l-.5-2.1-.5,2.1h1.1ZM54.3,27.6h1.8l1.9,5.8h-1.6l-.3-1.2h-1.6l-.3,1.2h-1.6l1.9-5.8h0Z"/>
      <path class="st2" d="M63,27.4l-1-.3.4-1.2h1.4s-.8,1.4-.8,1.4ZM62.5,33.5c-.4,0-.7,0-1-.2-.3,0-.5-.2-.8-.4-.2-.2-.4-.4-.5-.6-.1-.2-.2-.5-.3-.8,0-.3,0-.6,0-.9v-3h1.6v3c0,.2,0,.4,0,.6,0,.2,0,.3.2.5,0,.1.2.2.3.3.1,0,.3.1.5.1s.3,0,.5-.1c.1,0,.2-.2.3-.3,0-.1.1-.3.2-.5,0-.2,0-.3,0-.5v-3h1.6v3c0,.4,0,.8-.2,1.2,0,.3-.3.7-.5.9-.2.3-.5.5-.8.6-.3.2-.7.2-1.2.2"/>
      <path class="st2" d="M69.9,29h-.6v3h.6c.4,0,.7-.2,1-.4.2-.3.4-.7.4-1.1s-.1-.8-.4-1.1-.6-.4-1-.4M67.7,33.5v-5.8h2.2c.5,0,.9,0,1.3.2s.7.4.9.6.4.6.6.9c.1.3.2.7.2,1.1,0,.9-.3,1.6-.8,2.1s-1.2.8-2.2.8h-2.2,0Z"/>
      <polygon class="st2" points="79.4 32.1 79.4 33.5 75.2 33.5 75.2 27.6 79.3 27.6 79.3 29 76.8 29 76.8 29.9 79 29.9 79 31.2 76.8 31.2 76.8 32.1 79.4 32.1"/>
      <path d="M114.3,51.6c-.3,0-.5,0-.7-.1s-.4-.2-.5-.3-.3-.3-.3-.5-.2-.4-.2-.6c0-.2,0-.4,0-.7v-2.2h.7v2.2c0,.2,0,.3,0,.5,0,.2,0,.3.1.4,0,.1.1.2.2.3,0,0,.2.2.3.2.1,0,.3,0,.5,0s.3,0,.5,0,.2-.1.3-.2c0,0,.2-.2.2-.3s0-.3.1-.4c0-.2,0-.3,0-.5v-2.2h.7v2.2c0,.3,0,.6-.1.8s-.2.5-.3.7c-.2.2-.3.4-.6.5-.2.1-.5.2-.8.2"/>
      <polygon points="119 48.6 119 51.6 118.3 51.6 118.3 47.3 118.9 47.3 121.3 50.4 121.3 47.3 122 47.3 122 51.6 121.4 51.6 119 48.6"/>
      <rect x="124.2" y="47.3" width=".7" height="4.3"/>
      <path d="M129.3,49.9l-.7-1.9-.7,1.9h1.4ZM128.2,46.5c0,0-.1,0-.2,0,0,0,0,0,0,0,0,0,0,0,0,0h0c0,0-.4,0-.4,0,0,0,0,0,0-.1s0-.1,0-.2,0-.1.1-.2c0,0,.1-.1.2-.2,0,0,.2,0,.3,0s.2,0,.3,0c0,0,.2,0,.3.1,0,0,.2,0,.2,0s.1,0,.1,0c0,0,0,0,.1,0,0,0,0,0,0,0,0,0,0,0,0,0h0s.4,0,.4,0c0,0,0,0,0,.1,0,0,0,.1,0,.2,0,0,0,.1-.1.2,0,0-.1.1-.2.2,0,0-.2,0-.3,0s-.2,0-.3,0c-.1,0-.2,0-.3-.1s-.2,0-.2,0M128.3,47.3h.6l1.7,4.3h-.7l-.5-1.2h-1.7l-.4,1.2h-.7l1.7-4.3h0Z"/>
      <path d="M134,51c.2,0,.4,0,.6-.1.2,0,.3-.2.4-.4.1-.2.2-.3.3-.5s.1-.4.1-.6,0-.4-.1-.6c0-.2-.2-.4-.3-.5-.1-.2-.3-.3-.4-.3-.2,0-.4-.1-.6-.1s-.4,0-.6.1c-.2,0-.3.2-.4.4-.1.2-.2.3-.3.5,0,.2,0,.4,0,.6,0,.3,0,.5.2.8.1.2.3.4.5.6s.5.2.7.2M131.9,49.4c0-.3,0-.6.2-.8.1-.3.2-.5.4-.7s.4-.4.7-.5c.3-.1.5-.2.8-.2s.6,0,.8.2c.3.1.5.3.7.5.2.2.3.4.4.7.1.3.1.5.1.8s0,.6-.2.8-.2.5-.4.7-.4.4-.7.5c-.3.1-.5.2-.8.2s-.5,0-.7-.1-.4-.2-.6-.3c-.2-.1-.3-.3-.4-.5-.1-.2-.2-.4-.3-.6,0-.2,0-.4,0-.7"/>
      <polygon points="143.7 51 143.7 51.6 140.7 51.6 140.7 47.3 143.6 47.3 143.6 47.9 141.4 47.9 141.4 49.1 143.4 49.1 143.4 49.7 141.4 49.7 141.4 51 143.7 51"/>
      <path d="M149,49.5h1.2c.2,0,.4,0,.5-.2.1-.2.2-.3.2-.6s0-.4-.2-.6c-.1-.2-.3-.2-.5-.2h-1.2v1.6h0ZM148.3,51.6v-4.3h1.9c.2,0,.4,0,.5.1.2,0,.3.2.4.3s.2.3.3.5c0,.2.1.3.1.5,0,.3,0,.6-.2.8-.1.2-.4.4-.6.5l1,1.6h-.8l-.9-1.5h-1v1.5h-.7Z"/>
      <polygon points="156.6 51 156.6 51.6 153.6 51.6 153.6 47.3 156.5 47.3 156.5 47.9 154.3 47.9 154.3 49.1 156.2 49.1 156.2 49.7 154.3 49.7 154.3 51 156.6 51"/>
      <path d="M160.2,47.2c.4,0,.7,0,1,.3s.5.4.6.7l-.5.4c0-.1-.1-.2-.2-.3,0,0-.2-.2-.3-.2-.1,0-.2,0-.3-.1-.1,0-.2,0-.3,0-.2,0-.3,0-.5,0-.1,0-.3.1-.4.2-.1,0-.2.2-.3.3,0,.1-.1.3-.2.4,0,.2,0,.3,0,.4,0,.3,0,.5.2.8s.3.4.5.6c.2.2.5.2.7.2s.3,0,.4,0c.1,0,.3-.1.4-.2.1-.1.2-.2.3-.4l.6.3c0,.2-.2.4-.4.5-.2.2-.4.3-.6.3-.2,0-.5.1-.7.1s-.6,0-.8-.2c-.3-.1-.5-.3-.7-.5-.2-.2-.3-.4-.4-.7-.1-.3-.1-.5-.1-.8s0-.4,0-.6c0-.2.1-.4.3-.6.1-.2.3-.3.4-.5.2-.1.4-.2.6-.3.2,0,.5-.1.7-.1"/>
      <path d="M165.5,51c.2,0,.4,0,.6-.1.2,0,.3-.2.4-.4.1-.2.2-.3.3-.5,0-.2.1-.4.1-.6s0-.4-.1-.6c0-.2-.2-.4-.3-.5-.1-.2-.3-.3-.4-.3-.2,0-.4-.1-.6-.1s-.4,0-.6.1c-.2,0-.3.2-.4.4s-.2.3-.3.5c0,.2,0,.4,0,.6,0,.3,0,.5.2.8s.3.4.5.6c.2.2.5.2.7.2M163.4,49.4c0-.3,0-.6.2-.8.1-.3.2-.5.4-.7s.4-.4.7-.5c.3-.1.5-.2.8-.2s.6,0,.8.2c.3.1.5.3.6.5.2.2.3.4.4.7.1.3.1.5.1.8s0,.6-.2.8-.2.5-.4.7-.4.4-.7.5c-.3.1-.5.2-.8.2s-.5,0-.7-.1-.4-.2-.6-.3-.3-.3-.4-.5c-.1-.2-.2-.4-.3-.6,0-.2-.1-.4-.1-.7"/>
      <polygon points="170.2 48.6 170.2 51.6 169.5 51.6 169.5 47.3 170.1 47.3 172.5 50.4 172.5 47.3 173.2 47.3 173.2 51.6 172.6 51.6 170.2 48.6"/>
      <path d="M178,48.3c-.1,0-.2-.2-.5-.3-.2,0-.4-.1-.7-.1s-.5,0-.6.2c-.1,0-.2.2-.2.4s0,.1,0,.2c0,0,0,0,0,.1s0,0,.1.1c0,0,.1,0,.1,0,0,0,.1,0,.2,0s.2,0,.2,0c0,0,.2,0,.3,0,.2,0,.4,0,.5.1.1,0,.3,0,.4.2.1,0,.2.2.3.2s.1.2.2.3c0,.1,0,.3,0,.4s0,.3,0,.5c0,.1-.1.3-.2.3,0,0-.2.2-.3.2-.1,0-.3.1-.4.1-.2,0-.3,0-.5,0-.3,0-.6,0-.9-.2-.3,0-.6-.2-.8-.4l.3-.6c.1.1.3.2.6.4s.6.2.9.2.5,0,.6-.1c.1,0,.2-.2.2-.4s0-.1,0-.2c0,0,0-.1-.1-.2,0,0-.1,0-.2-.1,0,0-.1,0-.2,0-.1,0-.2,0-.3,0,0,0-.2,0-.4,0-.2,0-.4-.1-.6-.2-.1,0-.3-.1-.4-.2-.1,0-.2-.2-.2-.3s0-.3,0-.4,0-.4.1-.6c0-.2.2-.3.3-.4s.3-.2.5-.2.4,0,.6,0c.5,0,1,.2,1.5.5l-.3.6h0Z"/>
      <polygon points="183.5 47.9 182.1 47.9 182.1 51.6 181.4 51.6 181.4 47.9 179.9 47.9 179.9 47.3 183.5 47.3 183.5 47.9"/>
      <path d="M186,49.5h1.2c.2,0,.3,0,.5-.2.1-.2.2-.3.2-.6s0-.4-.2-.6c-.1-.2-.3-.2-.5-.2h-1.2v1.6h0ZM185.3,51.6v-4.3h1.9c.2,0,.4,0,.5.1.2,0,.3.2.4.3s.2.3.3.5c0,.2.1.3.1.5,0,.3,0,.6-.2.8-.1.2-.4.4-.6.5l1,1.6h-.8l-.9-1.5h-1v1.5h-.7Z"/>
      <path d="M192.4,51.6c-.3,0-.5,0-.7-.1s-.4-.2-.5-.3-.3-.3-.4-.5c0-.2-.2-.4-.2-.6s0-.4,0-.7v-2.2h.7v2.2c0,.2,0,.3,0,.5,0,.2,0,.3.1.4,0,.1.1.2.2.3s.2.2.3.2c.1,0,.3,0,.5,0s.3,0,.5,0,.2-.1.3-.2c0,0,.2-.2.2-.3s.1-.3.1-.4c0-.2,0-.3,0-.5v-2.2h.7v2.2c0,.3,0,.6-.1.8s-.2.5-.3.7c-.1.2-.3.4-.6.5s-.5.2-.9.2"/>
      <path d="M199.9,50.6c-.1.3-.3.5-.6.7-.3.2-.6.3-.9.3.2.2.3.4.3.6s0,.3-.2.4-.3.2-.5.2-.5,0-.7-.2l.2-.4c.1,0,.3.1.4.1s.2,0,.3,0c0,0,.1-.1.1-.2,0-.2-.1-.3-.3-.4-.3,0-.5,0-.8-.2-.2-.1-.4-.3-.6-.5-.2-.2-.3-.4-.4-.7-.1-.3-.1-.5-.1-.8s0-.4,0-.6c0-.2.1-.4.3-.6.1-.2.3-.3.4-.5.2-.1.4-.2.6-.3.2,0,.5-.1.7-.1.4,0,.7,0,1,.3s.5.4.6.7l-.5.4c0-.1-.1-.2-.2-.3,0,0-.2-.2-.3-.2-.1,0-.2,0-.3-.1-.1,0-.2,0-.3,0-.2,0-.3,0-.5,0-.1,0-.3.1-.4.2-.1,0-.2.2-.3.3,0,.1-.1.3-.2.4,0,.2,0,.3,0,.4,0,.3,0,.5.2.8s.3.4.5.6c.2.2.5.2.7.2s.3,0,.4,0c.1,0,.3-.1.4-.2.1-.1.2-.2.3-.4l.6.3h0Z"/>
      <path d="M203.9,49.9l-.7-1.9-.7,1.9h1.4ZM202.8,46.5c0,0-.1,0-.2,0,0,0,0,0,0,0,0,0,0,0,0,0h0c0,0-.4,0-.4,0,0,0,0,0,0-.1,0,0,0-.1,0-.2,0,0,0-.1.1-.2,0,0,.1-.1.2-.2s.2,0,.3,0,.2,0,.3,0c0,0,.2,0,.3.1,0,0,.2,0,.2,0s.1,0,.1,0c0,0,0,0,.1,0,0,0,0,0,0,0,0,0,0,0,0,0h0s.4,0,.4,0c0,0,0,0,0,.1,0,0,0,.1,0,.2,0,0,0,.1-.1.2,0,0-.1.1-.2.2,0,0-.2,0-.3,0s-.2,0-.3,0-.2,0-.3-.1-.2,0-.2,0M202.9,47.3h.6l1.7,4.3h-.7l-.5-1.2h-1.7l-.4,1.2h-.7l1.7-4.3h0Z"/>
      <path d="M208.6,51c.2,0,.4,0,.6-.1.2,0,.3-.2.4-.4.1-.2.2-.3.3-.5s0-.4,0-.6,0-.4-.1-.6c0-.2-.2-.4-.3-.5-.1-.2-.3-.3-.4-.3-.2,0-.4-.1-.6-.1s-.4,0-.6.1c-.2,0-.3.2-.4.4s-.2.3-.3.5c0,.2-.1.4-.1.6,0,.3,0,.5.2.8s.3.4.5.6c.2.2.5.2.7.2M206.6,49.4c0-.3,0-.6.2-.8.1-.3.2-.5.4-.7s.4-.4.7-.5c.3-.1.5-.2.8-.2s.6,0,.8.2c.3.1.5.3.6.5.2.2.3.4.4.7.1.3.1.5.1.8s0,.6-.2.8c-.1.3-.2.5-.4.7s-.4.4-.7.5c-.3.1-.5.2-.8.2s-.5,0-.7-.1-.4-.2-.6-.3c-.2-.1-.3-.3-.4-.5-.1-.2-.2-.4-.3-.6,0-.2-.1-.4-.1-.7"/>
      <polygon class="st4" points="135.6 29.1 124.2 29.1 124.2 40.6 143.1 40.6 135.6 29.1"/>
      <polygon class="st1" points="154.8 11.6 137.6 40.6 172.1 40.6 154.8 11.6"/>
      <rect class="st1" x="200.8" y="11.6" width="10" height="19.2"/>
      <rect class="st6" x="210.8" y="30.9" width="10" height="9.7"/>
      <rect class="st3" x="200.8" y="30.9" width="10" height="9.7"/>
      <rect class="st5" x="167" y="24.5" width="9.5" height="16.1"/>
      <polygon class="st3" points="137.6 40.6 143.1 40.6 140.2 36.2 137.6 40.6"/>
      <polygon class="st3" points="167 32.2 167 40.6 172.1 40.6 167 32.2"/>
      <rect class="st4" x="189.1" y="11.6" width="10" height="29"/>
      <path class="st6" d="M132.6,29.1h3c4.8,0,8.8-3.9,8.8-8.8s-3.9-8.8-8.8-8.8h-11.4v17.5h8.3Z"/>
      <rect class="st6" x="176.5" y="11.6" width="10.9" height="10.5"/>
      <path class="st1" d="M179.8,22.1h-3.3v18.5h3.3c5.1,0,9.2-4.1,9.2-9.2s-4.1-9.2-9.2-9.2"/>
      <path class="st4" d="M173.5,11.6c-3.6,0-6.4,2.9-6.4,6.4s2.9,6.4,6.4,6.4h3v-12.9s-3,0-3,0Z"/>
      <path class="st5" d="M111.3,40.6h4.2c4.8,0,8.7-3.9,8.7-8.7s-3.9-8.7-8.7-8.7h-13.3v17.4h9.1Z"/>
      <path class="st6" d="M102.2,23.2h12.3c3.2,0,5.8-2.6,5.8-5.8s-2.6-5.8-5.8-5.8h-12.3v11.6Z"/>
      <rect class="st4" x="102.2" y="11.6" width="10" height="11.6"/>
      <rect class="st1" x="102.2" y="23.2" width="10" height="17.4"/>
      <polygon class="st1" points="135.6 29.1 124.2 11.6 124.2 29.1 135.6 29.1"/>
      <path class="st6" d="M165.4,40.6c0-5.8-4.7-10.6-10.6-10.6s-10.6,4.7-10.6,10.6h21.2Z"/>
      <path d="M117.9,2.5v.4c0,1.7-1.2,2.8-2.7,2.8s-2.9-1.3-2.9-2.9S113.6,0,115.2,0s1.9.5,2.5,1.4l-1.3.8c-.2-.4-.7-.7-1.2-.7-.8,0-1.4.6-1.4,1.5s.6,1.4,1.4,1.4,1-.3,1.1-.6h-1.5v-1.2h3.1,0Z"/>
      <path d="M124.1,2.9c0-.8-.6-1.4-1.3-1.4s-1.3.6-1.3,1.4.6,1.4,1.3,1.4,1.3-.6,1.3-1.4M119.9,2.9c0-1.6,1.3-2.9,2.9-2.9s2.9,1.3,2.9,2.9-1.3,2.9-2.9,2.9-2.9-1.3-2.9-2.9"/>
      <polygon points="132.9 .1 130.7 5.6 129.2 5.6 127.1 .1 128.7 .1 130 3.5 131.3 .1 132.9 .1"/>
      <polygon points="136.3 1.5 136.3 2.3 137.9 2.3 137.9 3.5 136.3 3.5 136.3 4.3 138.8 4.3 138.8 5.6 134.8 5.6 134.8 .1 138.8 .1 138.8 1.5 136.3 1.5"/>
      <path d="M142.5,2.5h1c.4,0,.6-.2.6-.5s-.2-.5-.6-.5h-1v1ZM143.1,3.7h-.6v1.9h-1.5V.1h2.7c1.1,0,1.9.8,1.9,1.8s-.4,1.3-1,1.6l1.2,2.1h-1.6l-1.1-1.9h0Z"/>
      <polygon points="152.9 .1 152.9 5.6 151.6 5.6 149.4 2.7 149.4 5.6 147.9 5.6 147.9 .1 149.2 .1 151.4 3 151.4 .1 152.9 .1"/>
      <path d="M159.2,2.9c0-.8-.6-1.4-1.3-1.4s-1.3.6-1.3,1.4.6,1.4,1.3,1.4,1.3-.6,1.3-1.4M155,2.9c0-1.6,1.3-2.9,2.9-2.9s2.9,1.3,2.9,2.9-1.3,2.9-2.9,2.9-2.9-1.3-2.9-2.9"/>
      <polygon points="168 1.5 168 2.4 169.7 2.4 169.7 3.6 168 3.6 168 5.6 166.6 5.6 166.6 .1 170.5 .1 170.5 1.5 168 1.5"/>
      <polygon points="174.2 1.5 174.2 2.3 175.8 2.3 175.8 3.5 174.2 3.5 174.2 4.3 176.7 4.3 176.7 5.6 172.7 5.6 172.7 .1 176.7 .1 176.7 1.5 174.2 1.5"/>
      <path d="M182.6,2.9c0-.8-.6-1.3-1.5-1.3h-.7v2.6h.7c.9,0,1.5-.5,1.5-1.3M184.1,2.9c0,1.6-1.3,2.8-2.9,2.8h-2.2V.1h2.2c1.7,0,2.9,1.2,2.9,2.8"/>
      <polygon points="187.8 1.5 187.8 2.3 189.4 2.3 189.4 3.5 187.8 3.5 187.8 4.3 190.2 4.3 190.2 5.6 186.3 5.6 186.3 .1 190.2 .1 190.2 1.5 187.8 1.5"/>
      <path d="M194,2.5h1c.4,0,.6-.2.6-.5s-.2-.5-.6-.5h-1v1ZM194.6,3.7h-.6v1.9h-1.5V.1h2.7c1.1,0,1.9.8,1.9,1.8s-.4,1.3-1,1.6l1.2,2.1h-1.6l-1.1-1.9h0Z"/>
      <path d="M202.5,3.4l-.6-1.4-.6,1.4h1.1ZM203.1,4.7h-2.2l-.4,1h-1.5l2.3-5.5h1.4l2.3,5.5h-1.5l-.4-1h0Z"/>
      <polygon points="210.8 4.2 210.8 5.6 206.9 5.6 206.9 .1 208.5 .1 208.5 4.2 210.8 4.2"/>
      <path d="M117.9,2.5v.4c0,1.7-1.2,2.8-2.7,2.8s-2.9-1.3-2.9-2.9S113.6,0,115.2,0s1.9.5,2.5,1.4l-1.3.8c-.2-.4-.7-.7-1.2-.7-.8,0-1.4.6-1.4,1.5s.6,1.4,1.4,1.4,1-.3,1.1-.6h-1.5v-1.2h3.1,0Z"/>
      <path d="M124.1,2.9c0-.8-.6-1.4-1.3-1.4s-1.3.6-1.3,1.4.6,1.4,1.3,1.4,1.3-.6,1.3-1.4M119.9,2.9c0-1.6,1.3-2.9,2.9-2.9s2.9,1.3,2.9,2.9-1.3,2.9-2.9,2.9-2.9-1.3-2.9-2.9"/>
      <polygon points="132.9 .1 130.7 5.6 129.2 5.6 127.1 .1 128.7 .1 130 3.5 131.3 .1 132.9 .1"/>
      <polygon points="136.3 1.5 136.3 2.3 137.9 2.3 137.9 3.5 136.3 3.5 136.3 4.3 138.8 4.3 138.8 5.6 134.8 5.6 134.8 .1 138.8 .1 138.8 1.5 136.3 1.5"/>
      <path d="M142.5,2.5h1c.4,0,.6-.2.6-.5s-.2-.5-.6-.5h-1v1ZM143.1,3.7h-.6v1.9h-1.5V.1h2.7c1.1,0,1.9.8,1.9,1.8s-.4,1.3-1,1.6l1.2,2.1h-1.6l-1.1-1.9h0Z"/>
      <polygon points="152.9 .1 152.9 5.6 151.6 5.6 149.4 2.7 149.4 5.6 147.9 5.6 147.9 .1 149.2 .1 151.4 3 151.4 .1 152.9 .1"/>
      <path d="M159.2,2.9c0-.8-.6-1.4-1.3-1.4s-1.3.6-1.3,1.4.6,1.4,1.3,1.4,1.3-.6,1.3-1.4M155,2.9c0-1.6,1.3-2.9,2.9-2.9s2.9,1.3,2.9,2.9-1.3,2.9-2.9,2.9-2.9-1.3-2.9-2.9"/>
      <polygon points="168 1.5 168 2.4 169.7 2.4 169.7 3.6 168 3.6 168 5.6 166.6 5.6 166.6 .1 170.5 .1 170.5 1.5 168 1.5"/>
      <polygon points="174.2 1.5 174.2 2.3 175.8 2.3 175.8 3.5 174.2 3.5 174.2 4.3 176.7 4.3 176.7 5.6 172.7 5.6 172.7 .1 176.7 .1 176.7 1.5 174.2 1.5"/>
      <path d="M182.6,2.9c0-.8-.6-1.3-1.5-1.3h-.7v2.6h.7c.9,0,1.5-.5,1.5-1.3M184.1,2.9c0,1.6-1.3,2.8-2.9,2.8h-2.2V.1h2.2c1.7,0,2.9,1.2,2.9,2.8"/>
      <polygon points="187.8 1.5 187.8 2.3 189.4 2.3 189.4 3.5 187.8 3.5 187.8 4.3 190.2 4.3 190.2 5.6 186.3 5.6 186.3 .1 190.2 .1 190.2 1.5 187.8 1.5"/>
      <path d="M194,2.5h1c.4,0,.6-.2.6-.5s-.2-.5-.6-.5h-1v1ZM194.6,3.7h-.6v1.9h-1.5V.1h2.7c1.1,0,1.9.8,1.9,1.8s-.4,1.3-1,1.6l1.2,2.1h-1.6l-1.1-1.9h0Z"/>
      <path d="M202.5,3.4l-.6-1.4-.6,1.4h1.1ZM203.1,4.7h-2.2l-.4,1h-1.5l2.3-5.5h1.4l2.3,5.5h-1.5l-.4-1h0Z"/>
      <polygon points="210.8 4.2 210.8 5.6 206.9 5.6 206.9 .1 208.5 .1 208.5 4.2 210.8 4.2"/>
    </g>
  </g>
</svg>