<?xml version="1.0" encoding="UTF-8"?>
<svg id="Layer_2" xmlns="http://www.w3.org/2000/svg" version="1.1" viewBox="0 0 67.2 29.3">
  <!-- Generator: Adobe Illustrator 29.2.1, SVG Export Plug-In . SVG Version: 2.1.0 Build 116)  -->
  <defs>
    <style>
      .st0 {
        fill: none;
      }

      .st1 {
        fill: #ffb000;
      }

      .st1, .st2, .st3, .st4 {
        fill-rule: evenodd;
      }

      .st2 {
        fill: #1a69f9;
      }

      .st3 {
        fill: #f06;
      }

      .st4 {
        fill: #609;
      }
    </style>
  </defs>
  <g id="Layer_1-2">
    <rect class="st0" y="-25.9" width="67.2" height="100.1"/>
    <g id="Camada_1">
      <g>
        <g>
          <path class="st4" d="M8.4,5.8l3.5,3.5c1,1,2.4,1.5,3.7,1.5s2.7-.5,3.7-1.5l3.5-3.5-2.1-2.1-3.5,3.5c-.4.4-1,.7-1.6.7s-1.2-.2-1.6-.7l-3.5-3.5-2.1,2.1h0Z"/>
          <path class="st1" d="M24.1,7.5l-3.5,3.5c-1,1-1.5,2.4-1.5,3.7s.5,2.7,1.5,3.7l3.5,3.5,2.1-2.1-3.5-3.5c-.4-.4-.7-1-.7-1.6s.2-1.2.7-1.6l3.5-3.5-2.1-2.1h0Z"/>
          <path class="st2" d="M22.8,24l-3.5-3.5c-1-1-2.4-1.5-3.7-1.5s-2.7.5-3.7,1.5l-3.5,3.5,2.1,2.1,3.5-3.5c.4-.4,1-.7,1.6-.7s1.2.2,1.6.7l3.5,3.5,2.1-2.1h0Z"/>
          <path class="st3" d="M6.7,21.9l3.5-3.5c1-1,1.5-2.4,1.5-3.7s-.5-2.7-1.5-3.7l-3.5-3.5-2.1,2.1,3.5,3.5c.4.4.7,1,.7,1.6s-.2,1.2-.7,1.6l-3.5,3.5,2.1,2.1h0Z"/>
          <path class="st3" d="M3.5,17.1c1.4,0,2.5-1.1,2.5-2.5s-1.1-2.5-2.5-2.5-2.5,1.1-2.5,2.5,1.1,2.5,2.5,2.5"/>
          <path class="st4" d="M13.1,2.5c0,1.4,1.1,2.5,2.5,2.5s2.5-1.1,2.5-2.5-1.1-2.5-2.5-2.5-2.5,1.1-2.5,2.5"/>
          <path class="st1" d="M27.7,12.1c-1.4,0-2.5,1.1-2.5,2.5s1.1,2.5,2.5,2.5,2.5-1.1,2.5-2.5-1.1-2.5-2.5-2.5"/>
          <path class="st2" d="M18.1,26.8c0-1.4-1.1-2.5-2.5-2.5s-2.5,1.1-2.5,2.5,1.1,2.5,2.5,2.5,2.5-1.1,2.5-2.5"/>
        </g>
        <g>
          <g>
            <path d="M36.5,9.6c-.4,0-.7,0-1-.2s-.6-.3-.8-.6-.4-.6-.5-.9-.2-.8-.2-1.3,0-.9.2-1.3.3-.7.6-.9.5-.4.8-.6c.3-.1.7-.2,1-.2s.4,0,.6,0c.2,0,.3,0,.5.1.1,0,.2,0,.3.1,0,0,.2,0,.2.1l-.2.5c-.1,0-.3-.2-.5-.2s-.5-.1-.8-.1-.7,0-.9.2c-.3.1-.5.3-.7.5-.2.2-.3.5-.4.8,0,.3-.1.6-.1,1s0,.7.1,1,.2.6.4.8.4.4.6.5.5.2.9.2.7,0,.9,0c.2,0,.4-.1.6-.2l.2.5s0,0-.2,0-.2,0-.3.1c-.2,0-.3,0-.5,0-.2,0-.4,0-.6,0h0Z"/>
            <path d="M43.1,9.5c-.1-.3-.2-.5-.3-.8,0-.3-.2-.5-.3-.8h-2.8c0,.2-.2.5-.3.8,0,.3-.2.5-.3.8h-.6c.2-.6.4-1.1.6-1.7s.4-1,.6-1.5c.2-.5.4-.9.5-1.3s.4-.8.6-1.3h.5c.2.4.4.8.6,1.3.2.4.4.9.5,1.3.2.5.4.9.6,1.5.2.5.4,1.1.6,1.7h-.7ZM41.2,4.5c-.2.5-.4,1-.6,1.4-.2.5-.4,1-.6,1.6h2.4c-.2-.6-.4-1.1-.6-1.6-.2-.5-.4-1-.6-1.4h0Z"/>
            <path d="M47.1,8.7c0-.1-.1-.3-.2-.5,0-.2-.2-.5-.3-.7-.1-.3-.3-.5-.4-.8s-.3-.5-.4-.8c-.1-.2-.2-.5-.3-.6,0-.2-.2-.3-.2-.4,0,.7-.1,1.4-.2,2.2,0,.8,0,1.6-.1,2.5h-.5c0-1,0-2,.2-3,0-.9.1-1.9.2-2.7h.5c.2.3.3.6.5.9.2.4.4.7.6,1.1.2.4.4.8.5,1.1s.3.7.5,1c.1-.3.3-.6.5-1,.2-.4.3-.8.5-1.1.2-.4.4-.8.6-1.1.2-.4.4-.7.5-.9h.5c0,.9.2,1.8.2,2.7s.1,1.9.2,3h-.6c0-.9,0-1.7-.1-2.5s0-1.5-.2-2.2c0,0-.1.2-.2.4,0,.2-.2.4-.3.6s-.2.5-.4.8-.3.6-.4.8-.2.5-.3.7c0,.2-.2.4-.2.5h-.5,0Z"/>
            <path d="M53.1,3.8c.8,0,1.4.1,1.8.5s.6.7.6,1.3,0,.6-.2.8c-.1.2-.3.4-.5.5s-.5.2-.8.3c-.3,0-.7,0-1,0h-.8v2.2h-.6V3.9c.2,0,.4-.1.7-.1.3,0,.5,0,.7,0h0ZM53.1,4.3c-.2,0-.4,0-.5,0-.2,0-.3,0-.4,0v2.5h.7c.3,0,.6,0,.8,0s.5,0,.6-.2.3-.2.4-.4c0-.2.1-.4.1-.6s0-.5-.2-.6-.2-.3-.4-.4c-.2-.1-.4-.2-.6-.2-.2,0-.4,0-.7,0h0Z"/>
            <path d="M58.6,9.6c-.4,0-.7,0-1-.2s-.5-.3-.6-.5c-.2-.2-.3-.4-.4-.7s-.1-.6-.1-.9v-3.6h.6v3.5c0,.3,0,.6.1.8,0,.2.2.4.3.6s.3.3.5.3c.2,0,.4,0,.6,0s.4,0,.6,0,.3-.2.5-.3.2-.3.3-.6.1-.5.1-.8v-3.5h.6v3.6c0,.3,0,.6-.1.9,0,.3-.2.5-.4.7-.2.2-.4.4-.6.5s-.6.2-1,.2h0Z"/>
            <path d="M63.3,9.2c.5,0,.8,0,1-.2.2-.2.4-.4.4-.8s0-.4-.1-.5-.2-.3-.3-.3c-.1,0-.3-.2-.5-.2s-.3-.1-.5-.2c-.2,0-.5-.2-.6-.3s-.3-.2-.5-.3c-.1-.1-.2-.3-.3-.4s0-.3,0-.6c0-.5.2-.9.5-1.1.3-.2.8-.4,1.3-.4s.3,0,.5,0c.2,0,.3,0,.4,0,.1,0,.2,0,.3.1s.2.1.3.1l-.2.5c-.2-.1-.3-.2-.6-.3-.2,0-.5-.1-.7-.1s-.3,0-.5,0-.3.1-.4.2c-.1,0-.2.2-.3.3,0,.1,0,.3,0,.4s0,.3,0,.5.2.2.3.3.3.2.4.2c.2,0,.3.2.5.2.2,0,.4.2.6.3.2,0,.4.2.5.3.2.1.3.3.3.5,0,.2.1.4.1.7,0,.5-.2.9-.5,1.2s-.8.4-1.5.4-.4,0-.6,0c-.2,0-.3,0-.5,0-.2,0-.3,0-.4-.1,0,0-.2,0-.2-.1l.2-.5s.1,0,.2.1.2,0,.3.1c.1,0,.3,0,.4,0,.2,0,.3,0,.5,0h0Z"/>
          </g>
          <g>
            <path d="M34.5,11.7c.2.5.3.9.5,1.4s.3.9.5,1.3c.2.4.3.8.5,1.2s.3.8.5,1.2c.2-.4.3-.8.5-1.2.2-.4.3-.8.5-1.2.2-.4.3-.8.5-1.3s.3-.9.5-1.4h.6c-.2.7-.5,1.3-.7,1.9s-.4,1-.6,1.5c-.2.4-.3.8-.5,1.2s-.3.7-.5,1.1h-.5c-.2-.4-.3-.8-.5-1.1s-.3-.8-.5-1.2-.4-.9-.6-1.5-.4-1.2-.7-1.9h.6s0,0,0,0Z"/>
            <path d="M39.7,11.7h.6v5.7h-.6v-5.7Z"/>
            <path d="M45.5,13.4c0,.4-.1.8-.3,1s-.5.4-.9.5c0,.1.2.3.3.5.1.2.3.4.4.6s.3.5.4.7c.2.2.3.5.4.7h-.6c-.1-.2-.2-.4-.4-.7-.1-.2-.3-.4-.4-.6s-.3-.4-.4-.6-.2-.3-.3-.5c-.2,0-.3,0-.5,0h-.9v2.3h-.6v-5.6c.2,0,.4,0,.7-.1.3,0,.5,0,.7,0,.8,0,1.4.2,1.8.5s.6.7.6,1.3h0ZM43.2,12.1c-.2,0-.4,0-.5,0-.2,0-.3,0-.4,0v2.4h.8c.3,0,.5,0,.7,0s.4,0,.6-.2.3-.2.4-.4c0-.2.2-.4.2-.7s0-.5-.2-.6c0-.2-.2-.3-.4-.4-.2,0-.3-.2-.5-.2s-.4,0-.6,0h0Z"/>
            <path d="M50.4,11.7v.5h-1.8v5.2h-.6v-5.2h-1.8v-.5h4.2Z"/>
            <path d="M53.3,17.5c-.4,0-.7,0-1-.2-.3-.1-.5-.3-.6-.5-.2-.2-.3-.4-.4-.7s-.1-.6-.1-.9v-3.6h.6v3.5c0,.3,0,.6.1.8s.2.4.3.6.3.3.5.3c.2,0,.4,0,.6,0s.4,0,.6,0c.2,0,.3-.2.5-.3s.2-.3.3-.6.1-.5.1-.8v-3.5h.6v3.6c0,.3,0,.6-.1.9,0,.3-.2.5-.4.7-.2.2-.4.4-.6.5s-.6.2-1,.2h0Z"/>
            <path d="M60.7,17.4c-.1-.3-.2-.5-.3-.8s-.2-.5-.3-.8h-2.8c0,.2-.2.5-.3.8,0,.3-.2.5-.3.8h-.6c.2-.6.4-1.1.6-1.7s.4-1,.6-1.5c.2-.5.4-.9.5-1.3.2-.4.4-.8.6-1.3h.5c.2.4.4.8.6,1.3.2.4.4.9.5,1.3s.4.9.6,1.5.4,1.1.6,1.7h-.7ZM58.7,12.3c-.2.5-.4,1-.6,1.4-.2.5-.4,1-.6,1.6h2.4c-.2-.6-.4-1.1-.6-1.6-.2-.5-.4-1-.6-1.4h0Z"/>
            <path d="M65.4,16.9v.5h-3.2v-5.7h.6v5.2h2.7Z"/>
          </g>
          <path d="M33.9,19.9v5.4h.9v-2.4h2.5v-.8h-2.5v-1.5h2.8v-.8h-3.7ZM38.4,19.9v5.4h.9v-5.4h-.9ZM42.8,19.8c-1.6,0-2.6,1.1-2.6,2.9s1,2.9,2.6,2.9,2.6-1.1,2.6-2.9-1-2.9-2.6-2.9ZM42.8,20.6c1,0,1.7.8,1.7,2.1s-.7,2.1-1.7,2.1-1.7-.8-1.7-2.1.7-2.1,1.7-2.1ZM51,21.7c0-1.1-.9-1.8-2.2-1.8s-2.6,1.1-2.6,2.9,1,2.9,2.5,2.9,2.3-.9,2.3-2.1h-.9c0,.8-.7,1.3-1.4,1.3h0c-1,0-1.6-.8-1.6-2.1s.6-2,1.6-2,1.3.4,1.4,1h.9s0,0,0,0ZM51.9,20v5.4h.9v-2.2h1.4c.7,0,.8.3.9.9v.7c0,.2,0,.5.2.7h1v-.2c-.2-.1-.2-.3-.2-.6v-.8c0-.6-.2-.9-.7-1.1.5-.2.8-.7.8-1.3,0-.8-.5-1.5-1.3-1.5h-2.9,0ZM52.8,20.7h1.3c.7,0,1,.2,1,.8s-.3.8-1.1.8h-1.3v-1.7h0s0,0,0,0ZM57,20v3.4c0,1.4.7,2.2,2.2,2.2s2.2-.8,2.2-2.2v-3.4h-.9v3.4c0,.9-.4,1.4-1.2,1.4s-1.2-.5-1.2-1.4v-3.4h-.9ZM62.2,20v.8h3l-3.2,3.9v.8h4.2v-.8h-3.1l3.1-3.8v-.8h-4s0,0,0,0Z"/>
        </g>
      </g>
    </g>
  </g>
</svg>