<?xml version="1.0" encoding="UTF-8"?>
<svg id="Layer_2" xmlns="http://www.w3.org/2000/svg" version="1.1" viewBox="0 0 301.8 100.1">
  <!-- Generator: Adobe Illustrator 29.5.1, SVG Export Plug-In . SVG Version: 2.1.0 Build 141)  -->
  <defs>
    <style>
      .st0 {
        fill: none;
      }

      .st1 {
        fill: #fff;
      }

      .st1, .st2 {
        fill-rule: evenodd;
      }

      .st3 {
        fill: #231f20;
      }

      .st2 {
        fill: #e10000;
      }

      .st4 {
        fill: #00506e;
      }

      .st5 {
        fill: #404041;
      }
    </style>
  </defs>
  <g id="Layer_1-2">
    <rect class="st0" width="301.8" height="100.1"/>
    <g>
      <g>
        <g>
          <path class="st5" d="M269,42.7c1.4-.9,2.1-2.2,2.1-3.9h0c0-1.4-.4-2.5-1.3-3.4-1.1-1.1-2.8-1.7-5-1.7h-8.8v18.8h9c4.5,0,7.1-1.9,7.1-5.3h0c0-2.2-1-3.6-3.1-4.6h0ZM264.9,48.5h-4.5v-3.4h4.4c1.8,0,2.7.6,2.7,1.7h0c0,1.2-.9,1.8-2.6,1.8h0ZM260.4,41.1v-3.3h3.7c1.1,0,2.4.3,2.4,1.6h0c0,1.1-.9,1.7-2.6,1.7h-3.4Z"/>
          <path class="st5" d="M287.1,33.8h-7.4v18.8h7.4c2.8,0,5.4-1,7.2-2.7,1.8-1.7,2.8-4.1,2.8-6.7h0c0-5.5-4.2-9.4-10-9.4ZM292.4,43.2h0c0,3.1-2.1,5.2-5.2,5.2h-2.8v-10.4h2.8c3.1,0,5.2,2.1,5.2,5.2Z"/>
          <path class="st5" d="M275.6,33.7c1.3,0,2.3,1,2.3,2.3v16.6h-4.6v-18.9h2.3,0Z"/>
        </g>
        <path class="st4" d="M236.8,46c-2.4,3.9,5.4,4,1.8,11.3-.1,0-.2,0-.3,0-8.4,1.2-16.2-4.6-17.4-13-.6-4,.4-7.8,2.5-10.9-.4,8.8,15.7,8.8,13.4,12.5M240.2,57c.8-1.5,2.6-3.8,6.5-8.3,5.8-6.8-11.3-4.5-14.3-9.6-2.4-4.2,6.6-7.3,12-9.6,3.5,2.3,6.1,6.1,6.8,10.6,1.1,7.7-3.7,14.9-11,17h0ZM235.1,37.6c-.6.3.4,1.6,3.1,1.7s-.8-2.9-3.1-1.7ZM240.9,39c-2-.6-.7.9.3,1,.9,0,1.1-.6-.3-1ZM243,40.6c-.7,0-.8.4.2.6,1.4.3.4-.5-.2-.6Z"/>
      </g>
      <g>
        <g>
          <path class="st2" d="M28.3,3.7s-4.4-1.9-11.8-1.9h0c-7.4,0-11.8,1.9-11.8,1.9,0,0,0,.7,0,1.9v.6c0,2.9.2,7.6,1.3,10.8,2.6,7.5,8.9,10.2,10.3,10.7h.5c1.4-.5,7.6-3.2,10.3-10.7,1.7-4.8,1.3-13.3,1.3-13.3Z"/>
          <polygon class="st1" points="24.3 11 24.3 15.7 18.8 15.7 18.8 21.2 14.1 21.2 14.1 15.7 8.5 15.7 8.5 11 14.1 11 14.1 5.6 18.8 5.6 18.8 11 24.3 11"/>
        </g>
        <g>
          <path class="st3" d="M38,10v-.6c.2.1.4.2.7.2s.4,0,.7,0c.4,0,.7,0,.9-.3.3-.2.4-.5.4-.9s-.2-.6-.7-.9c-.4-.2-.9-.5-1.3-.8-.5-.3-.7-.7-.7-1.2s.2-.8.5-1.1c.3-.3.8-.4,1.3-.4s.5,0,.6,0c.2,0,.3,0,.5.1v.5c-.2,0-.4-.1-.6-.2-.2,0-.4,0-.6,0-.3,0-.6,0-.8.2-.3.2-.4.4-.4.8s.2.6.7.9c.4.2.9.5,1.3.7.5.3.7.8.7,1.2s-.2,1-.6,1.3c-.4.3-.8.4-1.3.4s-.5,0-.7,0c-.2,0-.4-.1-.6-.2Z"/>
          <path class="st3" d="M45.8,5.9v.5c-.2,0-.4-.1-.5-.2-.1,0-.3,0-.4,0-.5,0-.9.2-1.2.5-.3.3-.4.8-.4,1.3s.1.9.4,1.3c.3.3.7.5,1.1.5s.6,0,1-.2v.5c0,0-.3,0-.5.1-.2,0-.4,0-.6,0-.6,0-1.2-.2-1.5-.7-.3-.4-.5-.9-.5-1.6s.2-1.2.6-1.6.9-.6,1.5-.6.5,0,.6,0c0,0,.2,0,.4.1Z"/>
          <path class="st3" d="M47.4,10.1V3.9h.5v2.7c.1-.2.3-.4.5-.6.2-.1.5-.2.8-.2.5,0,.9.2,1.1.5.2.3.3.7.3,1.3v2.5h-.5v-2.5c0-.4,0-.8-.2-1-.2-.3-.4-.4-.8-.4s-.8.2-1,.5c-.2.3-.3.7-.3,1.1v2.3h-.5Z"/>
          <path class="st3" d="M58.5,5.9l-1.4,4.2h-.6l-1.2-3.7-1.2,3.7h-.6s-1.4-4.2-1.4-4.2h.6s1.1,3.7,1.1,3.7l1.2-3.7h.6s1.1,3.7,1.1,3.7l1.2-3.7h.5Z"/>
          <path class="st3" d="M62.7,9.5v.5c-.2,0-.4.1-.6.2-.2,0-.4,0-.6,0-.7,0-1.2-.2-1.5-.6-.3-.4-.4-.9-.4-1.6s.2-1.2.5-1.6c.3-.4.8-.6,1.3-.6s1,.2,1.3.6c.3.4.4.9.4,1.5v.3h-2.9c0,.5.1.9.4,1.2s.6.5,1,.5.4,0,.6,0c.2,0,.4-.1.5-.2ZM60.1,7.7h2.3c0-.4,0-.8-.2-1-.2-.3-.5-.5-.8-.5s-.7.2-.9.5c-.2.3-.3.6-.3,1Z"/>
          <path class="st3" d="M65.2,4.1v.7h-.5v-.7h.5ZM64.7,10.1v-4.2h.5v4.2h-.5Z"/>
          <path class="st3" d="M66.8,10.1v-.4l2.6-3.4h-2.5v-.4h3.1v.4s-2.5,3.3-2.5,3.3h2.5v.4h-3.2Z"/>
          <path class="st3" d="M74.4,9.5v.5c-.2,0-.4.1-.6.2-.2,0-.4,0-.6,0-.7,0-1.2-.2-1.5-.6-.3-.4-.4-.9-.4-1.6s.2-1.2.5-1.6c.3-.4.8-.6,1.3-.6s1,.2,1.3.6c.3.4.4.9.4,1.5v.3h-2.9c0,.5.1.9.4,1.2s.6.5,1,.5.4,0,.6,0c.2,0,.4-.1.5-.2ZM71.8,7.7h2.3c0-.4,0-.8-.2-1-.2-.3-.5-.5-.8-.5s-.7.2-.9.5c-.2.3-.3.6-.3,1Z"/>
          <path class="st3" d="M76.4,10.1v-3.6h0c0-.3,0-.5,0-.6h.5v.8c.1-.3.3-.5.4-.6.2-.2.4-.3.7-.3s.1,0,.2,0c0,0,.1,0,.2,0v.5c-.1,0-.2,0-.4,0-.4,0-.7.2-.8.6-.1.3-.2.7-.2,1.1v2.1h-.5Z"/>
          <path class="st3" d="M80.3,4.1v.7h-.5v-.7h.5ZM79.8,10.1v-4.2h.5v4.2h-.5Z"/>
          <path class="st3" d="M81.9,10v-.5c.2,0,.4.1.6.2.2,0,.4,0,.6,0s.5,0,.7-.2c.2-.1.3-.3.3-.6s-.2-.5-.5-.7c-.3-.2-.7-.3-1-.5-.4-.2-.5-.5-.5-.9s.1-.7.4-.9c.2-.2.6-.3,1-.3s.3,0,.5,0c.2,0,.4,0,.6.1v.5c-.2,0-.3-.1-.5-.1-.2,0-.3,0-.5,0-.3,0-.5,0-.7.2-.2.1-.2.3-.2.5s.2.4.5.6c.6.3,1,.5,1,.5.4.3.5.6.5,1s-.2.7-.5.9c-.3.2-.6.3-1,.3s-.4,0-.6,0c-.2,0-.4,0-.6-.2Z"/>
          <path class="st3" d="M89,5.9v.5c-.2,0-.4-.1-.5-.2-.1,0-.3,0-.4,0-.5,0-.9.2-1.2.5-.3.3-.4.8-.4,1.3s.1.9.4,1.3c.3.3.7.5,1.1.5s.6,0,1-.2v.5c0,0-.3,0-.5.1-.2,0-.4,0-.6,0-.6,0-1.2-.2-1.5-.7-.3-.4-.5-.9-.5-1.6s.2-1.2.6-1.6.9-.6,1.5-.6.5,0,.6,0c0,0,.2,0,.4.1Z"/>
          <path class="st3" d="M90.6,10.1V3.9h.5v2.7c.1-.2.3-.4.5-.6.2-.1.5-.2.8-.2.5,0,.9.2,1.1.5.2.3.3.7.3,1.3v2.5h-.5v-2.5c0-.4,0-.8-.2-1-.2-.3-.4-.4-.8-.4s-.8.2-1,.5c-.2.3-.3.7-.3,1.1v2.3h-.5Z"/>
          <path class="st3" d="M98.7,9.5v.5c-.2,0-.4.1-.6.2-.2,0-.4,0-.6,0-.7,0-1.2-.2-1.5-.6-.3-.4-.4-.9-.4-1.6s.2-1.2.5-1.6c.3-.4.8-.6,1.3-.6s1,.2,1.3.6c.3.4.4.9.4,1.5v.3h-2.9c0,.5.1.9.4,1.2s.6.5,1,.5.4,0,.6,0c.2,0,.4-.1.5-.2ZM96.1,7.7h2.3c0-.4,0-.8-.2-1-.2-.3-.5-.5-.8-.5s-.7.2-.9.5c-.2.3-.3.6-.3,1Z"/>
          <path class="st3" d="M103.1,10.1v-5.8h2.8v.5h-2.3v2.1h2.2v.5h-2.2v2.2h2.4v.5h-2.9Z"/>
          <path class="st3" d="M108.4,4.1v.7h-.5v-.7h.5ZM107.8,10.1v-4.2h.5v4.2h-.5Z"/>
          <path class="st3" d="M113.7,3.9v6.2h-.5v-.7c-.1.3-.3.5-.5.6-.2.1-.5.2-.8.2-.6,0-1-.2-1.3-.6-.3-.4-.5-.9-.5-1.6s.1-1.2.4-1.6c.3-.4.7-.6,1.3-.6s.7.1.9.3c.2.2.3.3.4.5v-2.7h.5ZM110.7,8c0,.5,0,.9.2,1.2.2.4.5.6,1,.6s.7-.2,1-.6c.2-.3.3-.7.3-1.2s0-.8-.3-1.2c-.2-.4-.6-.6-1-.6s-.8.2-1,.6c-.2.3-.3.7-.3,1.2Z"/>
          <path class="st3" d="M119,5.9v3.9c0,.6-.1,1.1-.4,1.5-.3.4-.9.6-1.5.6s-.5,0-.8,0c-.1,0-.3,0-.5-.1v-.5c.2,0,.4.2.6.2.2,0,.4,0,.7,0,.6,0,1-.2,1.2-.6.1-.3.2-.8.2-1.5-.1.3-.3.5-.5.6s-.5.2-.8.2c-.6,0-1.1-.2-1.4-.7-.3-.4-.4-.9-.4-1.4s.1-1.2.4-1.6c.3-.4.7-.6,1.3-.6s.6,0,.8.1c.2,0,.4.2.6.5v-.5h.5ZM116,8c0,.5,0,.8.3,1.1.2.3.5.5.9.5s.8-.2,1-.5c.2-.3.3-.7.3-1.1s0-1-.3-1.3c-.2-.3-.5-.5-1-.5s-.8.2-1,.6c-.2.3-.3.7-.3,1.2Z"/>
          <path class="st3" d="M123.8,9.5v.5c-.2,0-.4.1-.6.2-.2,0-.4,0-.6,0-.7,0-1.2-.2-1.5-.6-.3-.4-.4-.9-.4-1.6s.2-1.2.5-1.6c.3-.4.8-.6,1.3-.6s1,.2,1.3.6c.3.4.4.9.4,1.5v.3h-2.9c0,.5.1.9.4,1.2.2.3.6.5,1,.5s.4,0,.6,0c.2,0,.4-.1.5-.2ZM121.2,7.7h2.3c0-.4,0-.8-.2-1-.2-.3-.5-.5-.8-.5s-.7.2-.9.5c-.2.3-.3.6-.3,1Z"/>
          <path class="st3" d="M125.8,10.1v-3.5h0c0-.3,0-.6,0-.8h.5v.8c.1-.3.3-.4.4-.6.2-.2.6-.3,1-.3s.9.2,1.1.5c.2.3.3.7.3,1.2v2.7h-.5v-2.6c0-.4,0-.7-.2-1-.2-.2-.4-.4-.8-.4s-.8.2-1,.5c-.2.3-.3.6-.3,1v2.3h-.5Z"/>
          <path class="st3" d="M130.7,8c0-.6.2-1.1.5-1.5.4-.4.9-.7,1.5-.7s1.2.2,1.5.7c.3.4.5.9.5,1.5s-.2,1.1-.5,1.5c-.4.4-.9.7-1.5.7s-1.2-.2-1.5-.7c-.3-.4-.5-.9-.5-1.5ZM131.3,8c0,.5.1.9.4,1.3.2.3.6.5,1,.5s.8-.2,1-.5c.2-.3.4-.7.4-1.3s-.1-.9-.4-1.3c-.3-.3-.6-.5-1-.5s-.8.2-1,.5c-.2.3-.4.8-.4,1.3Z"/>
          <path class="st3" d="M136,10v-.5c.2,0,.4.1.6.2.2,0,.4,0,.6,0s.5,0,.7-.2.3-.3.3-.6-.2-.5-.5-.7c-.3-.2-.7-.3-1-.5-.4-.2-.5-.5-.5-.9s.1-.7.4-.9c.2-.2.6-.3,1-.3s.3,0,.5,0c.2,0,.4,0,.6.1v.5c-.2,0-.3-.1-.5-.1-.2,0-.3,0-.5,0-.3,0-.5,0-.7.2-.2.1-.2.3-.2.5s.2.4.5.6c.6.3,1,.5,1,.5.4.3.5.6.5,1s-.2.7-.5.9c-.3.2-.6.3-1,.3s-.4,0-.6,0c-.2,0-.4,0-.6-.2Z"/>
          <path class="st3" d="M139.9,10v-.5c.2,0,.4.1.6.2.2,0,.4,0,.6,0s.5,0,.7-.2c.2-.1.3-.3.3-.6s-.2-.5-.5-.7c-.3-.2-.7-.3-1-.5-.4-.2-.5-.5-.5-.9s.1-.7.4-.9c.2-.2.6-.3,1-.3s.3,0,.5,0c.2,0,.4,0,.6.1v.5c-.2,0-.3-.1-.5-.1s-.3,0-.5,0c-.3,0-.5,0-.7.2-.2.1-.2.3-.2.5s.2.4.5.6c.6.3,1,.5,1,.5.4.3.5.6.5,1s-.2.7-.5.9c-.3.2-.6.3-1,.3s-.4,0-.6,0c-.2,0-.4,0-.6-.2Z"/>
          <path class="st3" d="M147,9.5v.5c-.2,0-.4.1-.6.2-.2,0-.4,0-.6,0-.7,0-1.2-.2-1.5-.6-.3-.4-.4-.9-.4-1.6s.2-1.2.5-1.6c.3-.4.8-.6,1.3-.6s1,.2,1.3.6c.3.4.4.9.4,1.5v.3h-2.9c0,.5.1.9.4,1.2.2.3.6.5,1,.5s.4,0,.6,0c.2,0,.4-.1.5-.2ZM144.4,7.7h2.3c0-.4,0-.8-.2-1-.2-.3-.5-.5-.8-.5s-.7.2-.9.5c-.2.3-.3.6-.3,1Z"/>
          <path class="st3" d="M149,10.1v-3.5h0c0-.3,0-.6,0-.8h.5v.8c.1-.3.3-.4.4-.6.2-.2.6-.3,1-.3s.9.2,1.1.5c.2.3.3.7.3,1.2v2.7h-.5v-2.6c0-.4,0-.7-.2-1-.2-.2-.4-.4-.8-.4s-.8.2-1,.5c-.2.3-.3.6-.3,1v2.3h-.5Z"/>
          <path class="st3" d="M153.9,10v-.5c.2,0,.4.1.6.2.2,0,.4,0,.6,0s.5,0,.7-.2c.2-.1.3-.3.3-.6s-.2-.5-.5-.7c-.3-.2-.7-.3-1-.5-.4-.2-.5-.5-.5-.9s.1-.7.4-.9c.2-.2.6-.3,1-.3s.3,0,.5,0c.2,0,.4,0,.6.1v.5c-.2,0-.3-.1-.5-.1s-.3,0-.5,0c-.3,0-.5,0-.7.2-.2.1-.2.3-.2.5s.2.4.5.6c.6.3,1,.5,1,.5.4.3.5.6.5,1s-.2.7-.5.9c-.3.2-.6.3-1,.3s-.4,0-.6,0c-.2,0-.4,0-.6-.2Z"/>
          <path class="st3" d="M161,5.9v.5c-.2,0-.4-.1-.5-.2s-.3,0-.4,0c-.5,0-.9.2-1.2.5-.3.3-.4.8-.4,1.3s.1.9.4,1.3c.3.3.7.5,1.1.5s.6,0,1-.2v.5c0,0-.3,0-.5.1-.2,0-.4,0-.6,0-.6,0-1.2-.2-1.5-.7-.3-.4-.5-.9-.5-1.6s.2-1.2.6-1.6.9-.6,1.5-.6.5,0,.6,0c0,0,.2,0,.4.1Z"/>
          <path class="st3" d="M162.5,10.1V3.9h.5v2.7c.1-.2.3-.4.5-.6s.5-.2.8-.2c.5,0,.9.2,1.1.5.2.3.3.7.3,1.3v2.5h-.5v-2.5c0-.4,0-.8-.2-1-.2-.3-.4-.4-.8-.4s-.8.2-1,.5c-.2.3-.3.7-.3,1.1v2.3h-.5Z"/>
          <path class="st3" d="M170.3,10.1v-.7c-.1.2-.3.4-.6.6-.3.1-.5.2-.8.2-.5,0-.9-.1-1.1-.4-.2-.2-.2-.5-.2-.7,0-.6.3-1,.9-1.3.4-.1,1-.2,1.7-.2h0v-.2c0-.4,0-.6-.2-.8-.1-.2-.4-.3-.7-.3s-.9.1-1.2.3v-.5c.2,0,.4-.2.6-.2.2,0,.4,0,.6,0,.5,0,.9.1,1.1.4.2.2.3.7.3,1.2v1.9c0,.2,0,.3,0,.4,0,.1,0,.3,0,.5h-.5ZM170.2,8.2v-.3h-.1c-.8,0-1.3,0-1.6.3-.3.2-.4.4-.4.7s0,.5.3.6c.1.1.4.2.6.2.4,0,.7-.1.9-.4.2-.2.3-.6.3-1.2Z"/>
          <path class="st3" d="M173,10.1v-3.8h-.9v-.4h.9v-.3c0-.6,0-1,.1-1.2.2-.4.5-.6,1-.6s.2,0,.3,0c0,0,.2,0,.2,0v.5c-.1,0-.3,0-.4,0-.3,0-.5.1-.5.3,0,.1,0,.4,0,.7v.6h1v.4h-1v3.8h-.5Z"/>
          <path class="st3" d="M177.9,5.9v.4h-1v2.7c0,.2,0,.4.1.5,0,.1.2.2.4.2s.2,0,.2,0,.1,0,.2,0v.4s-.1,0-.2,0-.2,0-.4,0c-.4,0-.7-.1-.8-.4,0-.2-.1-.5-.1-1v-2.5h-.8v-.4h.8v-1l.5-.2v1.2h1Z"/>
        </g>
        <g>
          <path class="st3" d="M42.3,16v.5c-.2,0-.4-.1-.6-.2-.2,0-.5,0-.7,0-.7,0-1.3.2-1.7.7-.4.5-.6,1.1-.6,1.8s.2,1.3.6,1.8c.4.5,1,.7,1.8.7s.5,0,.7,0,.4,0,.6-.2v.5c0,0-.3.1-.6.2-.3,0-.5,0-.7,0-.9,0-1.6-.3-2.1-.8-.5-.5-.8-1.3-.8-2.2s.3-1.6.8-2.2c.5-.6,1.2-.8,2.1-.8s.5,0,.7,0c.2,0,.4,0,.6.2Z"/>
          <path class="st3" d="M44.1,19.5c0-.6.2-1.1.5-1.5.4-.4.9-.7,1.5-.7s1.2.2,1.5.7c.3.4.5.9.5,1.5s-.2,1.1-.5,1.5c-.4.4-.9.7-1.5.7s-1.2-.2-1.5-.7c-.3-.4-.5-.9-.5-1.5ZM44.7,19.5c0,.5.1.9.4,1.3.2.3.6.5,1,.5s.8-.2,1-.5c.2-.3.4-.7.4-1.3s-.1-.9-.4-1.3c-.3-.3-.6-.5-1-.5s-.8.2-1,.5c-.2.3-.4.8-.4,1.3Z"/>
          <path class="st3" d="M49.7,21.6v-3.5h0c0-.3,0-.6,0-.8h.5v.8c.1-.3.3-.4.4-.6.2-.2.6-.3,1-.3s.9.2,1.1.5c.2.3.3.7.3,1.2v2.7h-.5v-2.6c0-.4,0-.7-.2-1-.2-.2-.4-.4-.8-.4s-.8.2-1,.5c-.2.3-.3.6-.3,1v2.3h-.5Z"/>
          <path class="st3" d="M55.4,21.6v-3.8h-.9v-.4h.9v-.3c0-.6,0-1,.1-1.2.2-.4.5-.6,1-.6s.2,0,.3,0c0,0,.2,0,.2,0v.5c-.1,0-.3,0-.4,0-.3,0-.5.1-.5.3,0,.1,0,.4,0,.7v.6h1v.4h-1v3.8h-.5Z"/>
          <path class="st3" d="M61.3,21v.5c-.2,0-.4.1-.6.2-.2,0-.4,0-.6,0-.7,0-1.2-.2-1.5-.6-.3-.4-.4-.9-.4-1.6s.2-1.2.5-1.6c.3-.4.8-.6,1.3-.6s1,.2,1.3.6c.3.4.4.9.4,1.5v.3h-2.9c0,.5.1.9.4,1.2s.6.5,1,.5.4,0,.6,0c.2,0,.4-.1.5-.2ZM58.7,19.2h2.3c0-.4,0-.8-.2-1-.2-.3-.5-.5-.8-.5s-.7.2-.9.5c-.2.3-.3.6-.3,1ZM59.4,17l.8-1.2h.7l-1,1.2h-.4Z"/>
          <path class="st3" d="M66.6,15.4v6.2h-.5v-.7c-.1.3-.3.5-.5.6-.2.1-.5.2-.8.2-.6,0-1-.2-1.3-.6-.3-.4-.5-.9-.5-1.6s.1-1.2.4-1.6c.3-.4.7-.6,1.3-.6s.7.1.9.3c.2.2.3.3.4.5v-2.7h.5ZM63.6,19.5c0,.5,0,.9.2,1.2.2.4.5.6,1,.6s.7-.2,1-.6c.2-.3.3-.7.3-1.2s0-.8-.3-1.2c-.2-.4-.6-.6-1-.6s-.8.2-1,.6c-.2.3-.3.7-.3,1.2Z"/>
          <path class="st3" d="M71.4,21v.5c-.2,0-.4.1-.6.2-.2,0-.4,0-.6,0-.7,0-1.2-.2-1.5-.6-.3-.4-.4-.9-.4-1.6s.2-1.2.5-1.6c.3-.4.8-.6,1.3-.6s1,.2,1.3.6c.3.4.4.9.4,1.5v.3h-2.9c0,.5.1.9.4,1.2s.6.5,1,.5.4,0,.6,0c.2,0,.4-.1.5-.2ZM68.8,19.2h2.3c0-.4,0-.8-.2-1-.2-.3-.5-.5-.8-.5s-.7.2-.9.5c-.2.3-.3.6-.3,1ZM69.5,17l.8-1.2h.7l-1,1.2h-.4Z"/>
          <path class="st3" d="M73.4,21.6v-3.6h0c0-.3,0-.5,0-.6h.5v.8c.1-.3.3-.5.4-.6.2-.2.4-.3.7-.3s.1,0,.2,0c0,0,.1,0,.2,0v.5c-.1,0-.2,0-.4,0-.4,0-.7.2-.8.6-.1.3-.2.7-.2,1.1v2.1h-.5Z"/>
          <path class="st3" d="M79.3,21.6v-.7c-.1.2-.3.4-.6.6-.3.1-.5.2-.8.2-.5,0-.9-.1-1.1-.4-.2-.2-.2-.5-.2-.7,0-.6.3-1,.9-1.3.4-.1,1-.2,1.7-.2h0v-.2c0-.4,0-.6-.2-.8-.1-.2-.4-.3-.7-.3s-.9.1-1.2.3v-.5c.2,0,.4-.2.6-.2.2,0,.4,0,.6,0,.5,0,.9.1,1.1.4.2.2.3.7.3,1.2v1.9c0,.2,0,.3,0,.4,0,.1,0,.3,0,.5h-.5ZM79.2,19.8v-.3h-.1c-.8,0-1.3,0-1.6.3-.3.2-.4.4-.4.7s0,.5.3.6c.1.1.4.2.6.2.4,0,.7-.1.9-.4.2-.2.3-.6.3-1.2Z"/>
          <path class="st3" d="M83.5,17.4v.4h-1v2.7c0,.2,0,.4.1.5,0,.1.2.2.4.2s.2,0,.2,0,.1,0,.2,0v.4s-.1,0-.2,0-.2,0-.4,0c-.4,0-.7-.1-.8-.4,0-.2-.1-.5-.1-1v-2.5h-.8v-.4h.8v-1l.5-.2v1.2h1Z"/>
          <path class="st3" d="M85.6,15.6v.7h-.5v-.7h.5ZM85.1,21.6v-4.2h.5v4.2h-.5Z"/>
          <path class="st3" d="M87.3,19.5c0-.6.2-1.1.5-1.5.4-.4.9-.7,1.5-.7s1.2.2,1.5.7c.3.4.5.9.5,1.5s-.2,1.1-.5,1.5c-.4.4-.9.7-1.5.7s-1.2-.2-1.5-.7c-.3-.4-.5-.9-.5-1.5ZM87.9,19.5c0,.5.1.9.4,1.3.2.3.6.5,1,.5s.8-.2,1-.5c.2-.3.4-.7.4-1.3s-.1-.9-.4-1.3c-.3-.3-.6-.5-1-.5s-.8.2-1,.5c-.2.3-.4.8-.4,1.3Z"/>
          <path class="st3" d="M92.9,21.6v-3.5h0c0-.3,0-.6,0-.8h.5v.8c.1-.3.3-.4.4-.6.2-.2.6-.3,1-.3s.9.2,1.1.5c.2.3.3.7.3,1.2v2.7h-.5v-2.6c0-.4,0-.7-.2-1-.2-.2-.4-.4-.8-.4s-.8.2-1,.5c-.2.3-.3.6-.3,1v2.3h-.5Z"/>
          <path class="st3" d="M100.1,21.5v-.5c.2,0,.4.1.6.2.2,0,.4,0,.6,0s.5,0,.7-.2.3-.3.3-.6-.2-.5-.5-.7c-.3-.2-.7-.3-1-.5-.4-.2-.5-.5-.5-.9s.1-.7.4-.9c.2-.2.6-.3,1-.3s.3,0,.5,0c.2,0,.4,0,.6.1v.5c-.2,0-.3-.1-.5-.1-.2,0-.3,0-.5,0-.3,0-.5,0-.7.2-.2.1-.2.3-.2.5s.2.4.5.6c.6.3,1,.5,1,.5.4.3.5.6.5,1s-.2.7-.5.9c-.3.2-.6.3-1,.3s-.4,0-.6,0c-.2,0-.4,0-.6-.2Z"/>
          <path class="st3" d="M107.7,17.4v3.2c0,.2,0,.3,0,.5,0,.2,0,.3,0,.5h-.5v-.8c-.1.3-.3.4-.4.6-.2.2-.6.3-1,.3s-.9-.2-1.1-.5c-.2-.3-.3-.7-.3-1.2v-2.7h.5v2.6c0,.4,0,.8.2,1,.2.2.4.3.8.3s.8-.2,1-.5c.2-.3.3-.6.3-1v-2.3h.5Z"/>
          <path class="st3" d="M110.2,15.6v.7h-.5v-.7h.5ZM109.7,21.6v-4.2h.5v4.2h-.5Z"/>
          <path class="st3" d="M111.8,21.5v-.5c.2,0,.4.1.6.2.2,0,.4,0,.6,0s.5,0,.7-.2c.2-.1.3-.3.3-.6s-.2-.5-.5-.7c-.3-.2-.7-.3-1-.5-.4-.2-.5-.5-.5-.9s.1-.7.4-.9c.2-.2.6-.3,1-.3s.3,0,.5,0c.2,0,.4,0,.6.1v.5c-.2,0-.3-.1-.5-.1s-.3,0-.5,0c-.3,0-.5,0-.7.2-.2.1-.2.3-.2.5s.2.4.5.6c.6.3,1,.5,1,.5.4.3.5.6.5,1s-.2.7-.5.9c-.3.2-.6.3-1,.3s-.4,0-.6,0c-.2,0-.4,0-.6-.2Z"/>
          <path class="st3" d="M115.7,21.5v-.5c.2,0,.4.1.6.2.2,0,.4,0,.6,0s.5,0,.7-.2.3-.3.3-.6-.2-.5-.5-.7c-.3-.2-.7-.3-1-.5-.4-.2-.5-.5-.5-.9s.1-.7.4-.9c.2-.2.6-.3,1-.3s.3,0,.5,0c.2,0,.4,0,.6.1v.5c-.2,0-.3-.1-.5-.1-.2,0-.3,0-.5,0-.3,0-.5,0-.7.2-.2.1-.2.3-.2.5s.2.4.5.6c.6.3,1,.5,1,.5.4.3.5.6.5,1s-.2.7-.5.9c-.3.2-.6.3-1,.3s-.4,0-.6,0c-.2,0-.4,0-.6-.2Z"/>
          <path class="st3" d="M122.9,21v.5c-.2,0-.4.1-.6.2-.2,0-.4,0-.6,0-.7,0-1.2-.2-1.5-.6-.3-.4-.4-.9-.4-1.6s.2-1.2.5-1.6c.3-.4.8-.6,1.3-.6s1,.2,1.3.6c.3.4.4.9.4,1.5v.3h-2.9c0,.5.1.9.4,1.2.2.3.6.5,1,.5s.4,0,.6,0c.2,0,.4-.1.5-.2ZM120.3,19.2h2.3c0-.4,0-.8-.2-1-.2-.3-.5-.5-.8-.5s-.7.2-.9.5c-.2.3-.3.6-.3,1Z"/>
        </g>
        <g>
          <path class="st3" d="M42.3,27.5v.5c-.2,0-.4-.1-.6-.2-.2,0-.5,0-.7,0-.7,0-1.3.2-1.7.7-.4.5-.6,1.1-.6,1.8s.2,1.3.6,1.8c.4.5,1,.7,1.8.7s.5,0,.7,0,.4,0,.6-.2v.5c0,0-.3.1-.6.2-.3,0-.5,0-.7,0-.9,0-1.6-.3-2.1-.8-.5-.5-.8-1.3-.8-2.2s.3-1.6.8-2.2c.5-.6,1.2-.8,2.1-.8s.5,0,.7,0c.2,0,.4,0,.6.2Z"/>
          <path class="st3" d="M44.1,31c0-.6.2-1.1.5-1.5.4-.4.9-.7,1.5-.7s1.2.2,1.5.7c.3.4.5.9.5,1.5s-.2,1.1-.5,1.5c-.4.4-.9.7-1.5.7s-1.2-.2-1.5-.7c-.3-.4-.5-.9-.5-1.5ZM44.7,31c0,.5.1.9.4,1.3.2.3.6.5,1,.5s.8-.2,1-.5c.2-.3.4-.7.4-1.3s-.1-.9-.4-1.3c-.3-.3-.6-.5-1-.5s-.8.2-1,.5c-.2.3-.4.8-.4,1.3Z"/>
          <path class="st3" d="M49.7,33.2v-3.5h0c0-.3,0-.6,0-.8h.5v.8c.1-.3.3-.4.4-.6.2-.2.6-.3,1-.3s.9.2,1.1.5c.2.3.3.7.3,1.2v2.7h-.5v-2.6c0-.4,0-.7-.2-1-.2-.2-.4-.4-.8-.4s-.8.2-1,.5c-.2.3-.3.6-.3,1v2.3h-.5Z"/>
          <path class="st3" d="M55.4,33.2v-3.8h-.9v-.4h.9v-.3c0-.6,0-1,.1-1.2.2-.4.5-.6,1-.6s.2,0,.3,0c0,0,.2,0,.2,0v.5c-.1,0-.3,0-.4,0-.3,0-.5.1-.5.3,0,.1,0,.4,0,.7v.6h1v.4h-1v3.8h-.5Z"/>
          <path class="st3" d="M61.3,32.5v.5c-.2,0-.4.1-.6.2-.2,0-.4,0-.6,0-.7,0-1.2-.2-1.5-.6-.3-.4-.4-.9-.4-1.6s.2-1.2.5-1.6c.3-.4.8-.6,1.3-.6s1,.2,1.3.6c.3.4.4.9.4,1.5v.3h-2.9c0,.5.1.9.4,1.2s.6.5,1,.5.4,0,.6,0c.2,0,.4-.1.5-.2ZM58.7,30.7h2.3c0-.4,0-.8-.2-1-.2-.3-.5-.5-.8-.5s-.7.2-.9.5c-.2.3-.3.6-.3,1Z"/>
          <path class="st3" d="M66.6,26.9v6.2h-.5v-.7c-.1.3-.3.5-.5.6-.2.1-.5.2-.8.2-.6,0-1-.2-1.3-.6-.3-.4-.5-.9-.5-1.6s.1-1.2.4-1.6c.3-.4.7-.6,1.3-.6s.7.1.9.3c.2.2.3.3.4.5v-2.7h.5ZM63.6,31c0,.5,0,.9.2,1.2.2.4.5.6,1,.6s.7-.2,1-.6c.2-.3.3-.7.3-1.2s0-.8-.3-1.2c-.2-.4-.6-.6-1-.6s-.8.2-1,.6c-.2.3-.3.7-.3,1.2Z"/>
          <path class="st3" d="M71.4,32.5v.5c-.2,0-.4.1-.6.2-.2,0-.4,0-.6,0-.7,0-1.2-.2-1.5-.6-.3-.4-.4-.9-.4-1.6s.2-1.2.5-1.6c.3-.4.8-.6,1.3-.6s1,.2,1.3.6c.3.4.4.9.4,1.5v.3h-2.9c0,.5.1.9.4,1.2s.6.5,1,.5.4,0,.6,0c.2,0,.4-.1.5-.2ZM68.8,30.7h2.3c0-.4,0-.8-.2-1-.2-.3-.5-.5-.8-.5s-.7.2-.9.5c-.2.3-.3.6-.3,1Z"/>
          <path class="st3" d="M73.4,33.2v-3.6h0c0-.3,0-.5,0-.6h.5v.8c.1-.3.3-.5.4-.6.2-.2.4-.3.7-.3s.1,0,.2,0c0,0,.1,0,.2,0v.5c-.1,0-.2,0-.4,0-.4,0-.7.2-.8.6-.1.3-.2.7-.2,1.1v2.1h-.5Z"/>
          <path class="st3" d="M79.3,33.2v-.7c-.1.2-.3.4-.6.6-.3.1-.5.2-.8.2-.5,0-.9-.1-1.1-.4-.2-.2-.2-.5-.2-.7,0-.6.3-1,.9-1.3.4-.1,1-.2,1.7-.2h0v-.2c0-.4,0-.6-.2-.8-.1-.2-.4-.3-.7-.3s-.9.1-1.2.3v-.5c.2,0,.4-.2.6-.2.2,0,.4,0,.6,0,.5,0,.9.1,1.1.4.2.2.3.7.3,1.2v1.9c0,.2,0,.3,0,.4,0,.1,0,.3,0,.5h-.5ZM79.2,31.3v-.3h-.1c-.8,0-1.3,0-1.6.3-.3.2-.4.4-.4.7s0,.5.3.6c.1.1.4.2.6.2.4,0,.7-.1.9-.4.2-.2.3-.6.3-1.2Z"/>
          <path class="st3" d="M81.3,33.2v-.4l2.6-3.4h-2.5v-.4h3.1v.4s-2.5,3.3-2.5,3.3h2.5v.4h-3.2Z"/>
          <path class="st3" d="M86.5,27.1v.7h-.5v-.7h.5ZM86,33.2v-4.2h.5v4.2h-.5Z"/>
          <path class="st3" d="M88.2,31c0-.6.2-1.1.5-1.5.4-.4.9-.7,1.5-.7s1.2.2,1.5.7c.3.4.5.9.5,1.5s-.2,1.1-.5,1.5c-.4.4-.9.7-1.5.7s-1.2-.2-1.5-.7c-.3-.4-.5-.9-.5-1.5ZM88.8,31c0,.5.1.9.4,1.3.2.3.6.5,1,.5s.8-.2,1-.5c.2-.3.4-.7.4-1.3s-.1-.9-.4-1.3c-.3-.3-.6-.5-1-.5s-.8.2-1,.5c-.2.3-.4.8-.4,1.3Z"/>
          <path class="st3" d="M93.8,33.2v-3.5h0c0-.3,0-.6,0-.8h.5v.8c.1-.3.3-.4.4-.6.2-.2.6-.3,1-.3s.9.2,1.1.5c.2.3.3.7.3,1.2v2.7h-.5v-2.6c0-.4,0-.7-.2-1-.2-.2-.4-.4-.8-.4s-.8.2-1,.5c-.2.3-.3.6-.3,1v2.3h-.5Z"/>
          <path class="st3" d="M102,32.5v.5c-.2,0-.4.1-.6.2-.2,0-.4,0-.6,0-.7,0-1.2-.2-1.5-.6-.3-.4-.4-.9-.4-1.6s.2-1.2.5-1.6c.3-.4.8-.6,1.3-.6s1,.2,1.3.6c.3.4.4.9.4,1.5v.3h-2.9c0,.5.1.9.4,1.2s.6.5,1,.5.4,0,.6,0c.2,0,.4-.1.5-.2ZM99.4,30.7h2.3c0-.4,0-.8-.2-1-.2-.3-.5-.5-.8-.5s-.7.2-.9.5c-.2.3-.3.6-.3,1Z"/>
          <path class="st3" d="M106.1,33v-.6c.2.1.4.2.7.2s.4,0,.7,0c.4,0,.7,0,.9-.3.3-.2.4-.5.4-.9s-.2-.6-.7-.9c-.4-.2-.9-.5-1.3-.8-.5-.3-.7-.7-.7-1.2s.2-.8.5-1.1c.3-.3.8-.4,1.3-.4s.5,0,.6,0,.3,0,.5.1v.5c-.2,0-.4-.1-.6-.2-.2,0-.4,0-.6,0-.3,0-.6,0-.8.2-.3.2-.4.4-.4.8s.2.6.7.9c.4.2.9.5,1.3.7.5.3.7.8.7,1.2s-.2,1-.6,1.3c-.4.3-.8.4-1.3.4s-.5,0-.7,0-.4-.1-.6-.2Z"/>
          <path class="st3" d="M114,28.9l-1.5,4.2h-.6l-1.4-4.2h.6s1.2,3.7,1.2,3.7l1.3-3.7h.5Z"/>
          <path class="st3" d="M116,27.1v.7h-.5v-.7h.5ZM115.4,33.2v-4.2h.5v4.2h-.5Z"/>
          <path class="st3" d="M117.6,33.2v-.4l2.6-3.4h-2.5v-.4h3.1v.4s-2.5,3.3-2.5,3.3h2.5v.4h-3.2Z"/>
          <path class="st3" d="M121.9,33.2v-.4l2.6-3.4h-2.5v-.4h3.1v.4s-2.5,3.3-2.5,3.3h2.5v.4h-3.2Z"/>
          <path class="st3" d="M129.5,32.5v.5c-.2,0-.4.1-.6.2-.2,0-.4,0-.6,0-.7,0-1.2-.2-1.5-.6-.3-.4-.4-.9-.4-1.6s.2-1.2.5-1.6c.3-.4.8-.6,1.3-.6s1,.2,1.3.6c.3.4.4.9.4,1.5v.3h-2.9c0,.5.1.9.4,1.2.2.3.6.5,1,.5s.4,0,.6,0c.2,0,.4-.1.5-.2ZM126.9,30.7h2.3c0-.4,0-.8-.2-1-.2-.3-.5-.5-.8-.5s-.7.2-.9.5c-.2.3-.3.6-.3,1Z"/>
          <path class="st3" d="M131.5,33.2v-3.6h0c0-.3,0-.5,0-.6h.5v.8c.1-.3.3-.5.4-.6.2-.2.4-.3.7-.3s.1,0,.2,0c0,0,.1,0,.2,0v.5c-.1,0-.2,0-.4,0-.4,0-.7.2-.8.6-.1.3-.2.7-.2,1.1v2.1h-.5Z"/>
          <path class="st3" d="M137.4,33.2v-.7c-.1.2-.3.4-.6.6-.3.1-.5.2-.8.2-.5,0-.9-.1-1.1-.4-.2-.2-.2-.5-.2-.7,0-.6.3-1,.9-1.3.4-.1,1-.2,1.7-.2h0v-.2c0-.4,0-.6-.2-.8-.1-.2-.4-.3-.7-.3s-.9.1-1.2.3v-.5c.2,0,.4-.2.6-.2.2,0,.4,0,.6,0,.5,0,.9.1,1.1.4.2.2.3.7.3,1.2v1.9c0,.2,0,.3,0,.4,0,.1,0,.3,0,.5h-.5ZM137.3,31.3v-.3h-.1c-.8,0-1.3,0-1.6.3-.3.2-.4.4-.4.7s0,.5.3.6c.1.1.4.2.6.2.4,0,.7-.1.9-.4.2-.2.3-.6.3-1.2Z"/>
        </g>
        <g>
          <path class="st3" d="M42.3,39v.5c-.2,0-.4-.1-.6-.2-.2,0-.5,0-.7,0-.7,0-1.3.2-1.7.7-.4.5-.6,1.1-.6,1.8s.2,1.3.6,1.8c.4.5,1,.7,1.8.7s.5,0,.7,0,.4,0,.6-.2v.5c0,0-.3.1-.6.2-.3,0-.5,0-.7,0-.9,0-1.6-.3-2.1-.8-.5-.5-.8-1.3-.8-2.2s.3-1.6.8-2.2c.5-.6,1.2-.8,2.1-.8s.5,0,.7,0c.2,0,.4,0,.6.2Z"/>
          <path class="st3" d="M44.1,42.6c0-.6.2-1.1.5-1.5.4-.4.9-.7,1.5-.7s1.2.2,1.5.7c.3.4.5.9.5,1.5s-.2,1.1-.5,1.5c-.4.4-.9.7-1.5.7s-1.2-.2-1.5-.7c-.3-.4-.5-.9-.5-1.5ZM44.7,42.6c0,.5.1.9.4,1.3.2.3.6.5,1,.5s.8-.2,1-.5c.2-.3.4-.7.4-1.3s-.1-.9-.4-1.3c-.3-.3-.6-.5-1-.5s-.8.2-1,.5c-.2.3-.4.8-.4,1.3Z"/>
          <path class="st3" d="M49.7,44.7v-3.5h0c0-.3,0-.6,0-.8h.5v.8c.1-.3.3-.4.4-.6.2-.2.6-.3,1-.3s.9.2,1.1.5c.2.3.3.7.3,1.2v2.7h-.5v-2.6c0-.4,0-.7-.2-1-.2-.2-.4-.4-.8-.4s-.8.2-1,.5c-.2.3-.3.6-.3,1v2.3h-.5Z"/>
          <path class="st3" d="M55.4,44.7v-3.8h-.9v-.4h.9v-.3c0-.6,0-1,.1-1.2.2-.4.5-.6,1-.6s.2,0,.3,0c0,0,.2,0,.2,0v.5c-.1,0-.3,0-.4,0-.3,0-.5.1-.5.3,0,.1,0,.4,0,.7v.6h1v.4h-1v3.8h-.5Z"/>
          <path class="st3" d="M61.3,44v.5c-.2,0-.4.1-.6.2-.2,0-.4,0-.6,0-.7,0-1.2-.2-1.5-.6-.3-.4-.4-.9-.4-1.6s.2-1.2.5-1.6c.3-.4.8-.6,1.3-.6s1,.2,1.3.6c.3.4.4.9.4,1.5v.3h-2.9c0,.5.1.9.4,1.2s.6.5,1,.5.4,0,.6,0c.2,0,.4-.1.5-.2ZM58.7,42.3h2.3c0-.4,0-.8-.2-1-.2-.3-.5-.5-.8-.5s-.7.2-.9.5c-.2.3-.3.6-.3,1Z"/>
          <path class="st3" d="M66.6,38.5v6.2h-.5v-.7c-.1.3-.3.5-.5.6-.2.1-.5.2-.8.2-.6,0-1-.2-1.3-.6-.3-.4-.5-.9-.5-1.6s.1-1.2.4-1.6c.3-.4.7-.6,1.3-.6s.7.1.9.3c.2.2.3.3.4.5v-2.7h.5ZM63.6,42.6c0,.5,0,.9.2,1.2.2.4.5.6,1,.6s.7-.2,1-.6c.2-.3.3-.7.3-1.2s0-.8-.3-1.2c-.2-.4-.6-.6-1-.6s-.8.2-1,.6c-.2.3-.3.7-.3,1.2Z"/>
          <path class="st3" d="M71.4,44v.5c-.2,0-.4.1-.6.2-.2,0-.4,0-.6,0-.7,0-1.2-.2-1.5-.6-.3-.4-.4-.9-.4-1.6s.2-1.2.5-1.6c.3-.4.8-.6,1.3-.6s1,.2,1.3.6c.3.4.4.9.4,1.5v.3h-2.9c0,.5.1.9.4,1.2s.6.5,1,.5.4,0,.6,0c.2,0,.4-.1.5-.2ZM68.8,42.3h2.3c0-.4,0-.8-.2-1-.2-.3-.5-.5-.8-.5s-.7.2-.9.5c-.2.3-.3.6-.3,1Z"/>
          <path class="st3" d="M73.4,44.7v-3.6h0c0-.3,0-.5,0-.6h.5v.8c.1-.3.3-.5.4-.6.2-.2.4-.3.7-.3s.1,0,.2,0c0,0,.1,0,.2,0v.5c-.1,0-.2,0-.4,0-.4,0-.7.2-.8.6-.1.3-.2.7-.2,1.1v2.1h-.5Z"/>
          <path class="st3" d="M79.3,44.7v-.7c-.1.2-.3.4-.6.6-.3.1-.5.2-.8.2-.5,0-.9-.1-1.1-.4-.2-.2-.2-.5-.2-.7,0-.6.3-1,.9-1.3.4-.1,1-.2,1.7-.2h0v-.2c0-.4,0-.6-.2-.8-.1-.2-.4-.3-.7-.3s-.9.1-1.2.3v-.5c.2,0,.4-.2.6-.2.2,0,.4,0,.6,0,.5,0,.9.1,1.1.4.2.2.3.7.3,1.2v1.9c0,.2,0,.3,0,.4,0,.1,0,.3,0,.5h-.5ZM79.2,42.8v-.3h-.1c-.8,0-1.3,0-1.6.3-.3.2-.4.4-.4.7s0,.5.3.6c.1.1.4.2.6.2.4,0,.7-.1.9-.4.2-.2.3-.6.3-1.2Z"/>
          <path class="st3" d="M81.3,44.7v-.4l2.6-3.4h-2.5v-.4h3.1v.4s-2.5,3.3-2.5,3.3h2.5v.4h-3.2Z"/>
          <path class="st3" d="M86.5,38.6v.7h-.5v-.7h.5ZM86,44.7v-4.2h.5v4.2h-.5Z"/>
          <path class="st3" d="M91.8,40.4v3.2c0,.2,0,.3,0,.5,0,.2,0,.3,0,.5h-.5v-.8c-.1.3-.3.4-.4.6-.2.2-.6.3-1,.3s-.9-.2-1.1-.5c-.2-.3-.3-.7-.3-1.2v-2.7h.5v2.6c0,.4,0,.8.2,1s.4.3.8.3.8-.2,1-.5c.2-.3.3-.6.3-1v-2.3h.5Z"/>
          <path class="st3" d="M93.8,44.7v-3.5h0c0-.3,0-.6,0-.8h.5v.8c.1-.3.3-.4.4-.6.2-.2.6-.3,1-.3s.9.2,1.1.5c.2.3.3.7.3,1.2v2.7h-.5v-2.6c0-.4,0-.7-.2-1-.2-.2-.4-.4-.8-.4s-.8.2-1,.5c-.2.3-.3.6-.3,1v2.3h-.5Z"/>
          <path class="st3" d="M101.1,44.6v-.5c.2,0,.4.1.6.2.2,0,.4,0,.6,0s.5,0,.7-.2.3-.3.3-.6-.2-.5-.5-.7c-.3-.2-.7-.3-1-.5-.4-.2-.5-.5-.5-.9s.1-.7.4-.9c.2-.2.6-.3,1-.3s.3,0,.5,0c.2,0,.4,0,.6.1v.5c-.2,0-.3-.1-.5-.1-.2,0-.3,0-.5,0-.3,0-.5,0-.7.2-.2.1-.2.3-.2.5s.2.4.5.6c.6.3,1,.5,1,.5.4.3.5.6.5,1s-.2.7-.5.9c-.3.2-.6.3-1,.3s-.4,0-.6,0c-.2,0-.4,0-.6-.2Z"/>
          <path class="st3" d="M108.3,40.4l-1.5,4.2h-.6l-1.4-4.2h.6s1.2,3.7,1.2,3.7l1.3-3.7h.5Z"/>
          <path class="st3" d="M110.2,38.6v.7h-.5v-.7h.5ZM109.7,44.7v-4.2h.5v4.2h-.5Z"/>
          <path class="st3" d="M111.8,44.7v-.4l2.6-3.4h-2.5v-.4h3.1v.4s-2.5,3.3-2.5,3.3h2.5v.4h-3.2Z"/>
          <path class="st3" d="M116.6,44.7v-3.6h0c0-.3,0-.5,0-.6h.5v.8c.1-.3.3-.5.4-.6.2-.2.4-.3.7-.3s.1,0,.2,0c0,0,.1,0,.2,0v.5c-.1,0-.2,0-.4,0-.4,0-.7.2-.8.6-.1.3-.2.7-.2,1.1v2.1h-.5Z"/>
          <path class="st3" d="M122.4,44.7v-.7c-.1.2-.3.4-.6.6-.3.1-.5.2-.8.2-.5,0-.9-.1-1.1-.4-.2-.2-.2-.5-.2-.7,0-.6.3-1,.9-1.3.4-.1,1-.2,1.7-.2h0v-.2c0-.4,0-.6-.2-.8-.1-.2-.4-.3-.7-.3s-.9.1-1.2.3v-.5c.2,0,.4-.2.6-.2s.4,0,.6,0c.5,0,.9.1,1.1.4.2.2.3.7.3,1.2v1.9c0,.2,0,.3,0,.4,0,.1,0,.3,0,.5h-.5ZM122.4,42.8v-.3h-.1c-.8,0-1.3,0-1.6.3-.3.2-.4.4-.4.7s0,.5.3.6c.1.1.4.2.6.2.4,0,.7-.1.9-.4.2-.2.3-.6.3-1.2Z"/>
        </g>
        <g>
          <path d="M42.1,66.3v1h-3.7v-6.1h3.6v1h-2.4v1.5h2.2v1h-2.2v1.6h2.4Z"/>
          <path d="M44.4,62.8v.7c.2-.2.4-.4.6-.6.3-.1.5-.2.8-.2s.6,0,.8.2c.2.1.4.3.5.6.2-.3.4-.5.6-.6.3-.1.5-.2.8-.2.6,0,.9.2,1.1.5.2.4.3.8.3,1.5v2.6h-1.2v-2.4c0-.4,0-.7-.1-.9s-.3-.4-.6-.4c-.6,0-.9.5-.9,1.5v2.1h-1.2v-2.7c0-.3,0-.5-.2-.7s-.3-.3-.5-.3-.6.1-.7.4c-.1.3-.2.6-.2,1v2.3h-1.2v-3.4c0-.4,0-.8,0-1.1h1.1Z"/>
          <path d="M52.2,67.4h-1.1v-6.6h1.2v2c0,.3,0,.6,0,.8.2-.3.4-.5.6-.7s.5-.2.9-.2.6,0,.8.2.4.3.6.5c.1.2.3.5.3.7s.1.6.1.9,0,.6,0,.9c0,.3-.2.5-.3.8-.1.2-.3.4-.6.5-.2.1-.5.2-.9.2-.7,0-1.2-.3-1.4-.8v.7ZM54.4,65.1c0-.4,0-.7-.2-1-.2-.3-.4-.4-.7-.4s-.6.1-.8.4c-.2.3-.3.6-.3,1s0,.7.3,1c.2.3.4.4.8.4s.4,0,.6-.2c.1-.1.3-.3.3-.5,0-.2.1-.4.1-.6Z"/>
          <path d="M60.3,67.4h-1.1v-.7c-.2.2-.4.4-.6.6-.3.1-.5.2-.8.2s-.6,0-.8-.2c-.2-.1-.4-.3-.6-.5-.1-.2-.2-.5-.2-.8,0-.6.2-1,.7-1.2.4-.2,1-.3,1.6-.3s.2,0,.2,0c0,0,0,0,.2,0,0,0,.2,0,.3,0,0-.3,0-.6-.2-.8-.2-.2-.4-.2-.8-.2-.5,0-1,.2-1.4.5v-1c.5-.2,1-.3,1.6-.3s.4,0,.6,0,.4.1.6.2.3.2.4.4c.1.2.2.3.2.6,0,.2,0,.5,0,.7s0,.6,0,.9c0,.3,0,.6,0,.8,0,.2,0,.6,0,1ZM59.2,65.3s0,0-.1,0h-.1c-.3,0-.5,0-.7,0-.2,0-.4.1-.6.2-.2.1-.2.3-.2.5s0,.3.2.4c.1.1.3.2.5.2.4,0,.6-.1.8-.4.2-.3.3-.6.3-.9Z"/>
          <path d="M62.7,62.8v4.8c0,.3,0,.6-.1.9,0,.2-.3.4-.5.6-.2.1-.5.2-.8.2s-.4,0-.5,0v-.9c0,0,.1,0,.2,0,.2,0,.4,0,.4-.2,0-.1.1-.3.1-.5v-4.8h1.2ZM62.7,62h-1.2v-1.1h1.2v1.1Z"/>
          <path d="M67.7,67.4h-1.1v-.7c-.2.2-.4.4-.6.6-.3.1-.5.2-.8.2s-.6,0-.8-.2c-.2-.1-.4-.3-.6-.5-.1-.2-.2-.5-.2-.8,0-.6.2-1,.7-1.2.4-.2,1-.3,1.6-.3s.2,0,.2,0c0,0,0,0,.2,0,0,0,.2,0,.3,0,0-.3,0-.6-.2-.8-.2-.2-.4-.2-.8-.2-.5,0-1,.2-1.4.5v-1c.5-.2,1-.3,1.6-.3s.4,0,.6,0,.4.1.6.2.3.2.4.4c.1.2.2.3.2.6,0,.2,0,.5,0,.7s0,.6,0,.9c0,.3,0,.6,0,.8,0,.2,0,.6,0,1ZM66.6,65.3s0,0-.1,0h-.1c-.3,0-.5,0-.7,0-.2,0-.4.1-.6.2-.2.1-.2.3-.2.5s0,.3.2.4c.1.1.3.2.5.2.4,0,.6-.1.8-.4.2-.3.3-.6.3-.9Z"/>
          <path d="M73.1,67.4h-1.1v-.8c-.2.3-.3.5-.6.6-.3.1-.5.2-.8.2s-.6,0-.9-.2c-.2-.1-.4-.3-.6-.5-.2-.2-.3-.5-.3-.8,0-.3-.1-.6-.1-.9s0-.8.2-1.1c.1-.4.3-.6.6-.9.3-.2.6-.3,1.1-.3s.6,0,.8.2.4.3.6.6c0-.2,0-.5,0-.8v-2h1.2v5.3c0,.3,0,.6,0,.8,0,.2,0,.4,0,.6ZM71.9,65.1c0-.2,0-.5-.1-.7,0-.2-.2-.4-.4-.5-.2-.1-.4-.2-.6-.2-.4,0-.6.1-.8.4-.2.3-.2.6-.2,1s0,.7.3,1,.4.4.8.4.4,0,.6-.2c.2-.1.3-.3.4-.5s.1-.4.1-.7Z"/>
          <path d="M78.1,67.4h-1.1v-.7c-.2.2-.4.4-.6.6-.3.1-.5.2-.8.2s-.6,0-.8-.2c-.2-.1-.4-.3-.6-.5-.1-.2-.2-.5-.2-.8,0-.6.2-1,.7-1.2.4-.2,1-.3,1.6-.3s.2,0,.2,0c0,0,0,0,.2,0,0,0,.2,0,.3,0,0-.3,0-.6-.2-.8-.2-.2-.4-.2-.8-.2-.5,0-1,.2-1.4.5v-1c.5-.2,1-.3,1.6-.3s.4,0,.6,0,.4.1.6.2.3.2.4.4c.1.2.2.3.2.6,0,.2,0,.5,0,.7s0,.6,0,.9c0,.3,0,.6,0,.8,0,.2,0,.6,0,1ZM77,65.3s0,0-.1,0h-.1c-.3,0-.5,0-.7,0-.2,0-.4.1-.6.2-.2.1-.2.3-.2.5s0,.3.2.4c.1.1.3.2.5.2.4,0,.6-.1.8-.4.2-.3.3-.6.3-.9Z"/>
          <path d="M86,67.4h-1.1v-.8c-.2.3-.3.5-.6.6-.3.1-.5.2-.8.2s-.6,0-.9-.2c-.2-.1-.4-.3-.6-.5-.2-.2-.3-.5-.3-.8,0-.3-.1-.6-.1-.9s0-.8.2-1.1c.1-.4.3-.6.6-.9.3-.2.6-.3,1.1-.3s.6,0,.8.2.4.3.6.6c0-.2,0-.5,0-.8v-2h1.2v5.3c0,.3,0,.6,0,.8,0,.2,0,.4,0,.6ZM84.8,65.1c0-.2,0-.5-.1-.7,0-.2-.2-.4-.4-.5-.2-.1-.4-.2-.6-.2-.4,0-.6.1-.8.4-.2.3-.2.6-.2,1s0,.7.3,1,.4.4.8.4.4,0,.6-.2c.2-.1.3-.3.4-.5s.1-.4.1-.7Z"/>
          <path d="M90.9,66.1v1c-.5.2-1,.3-1.5.3s-.7,0-1-.2-.5-.3-.7-.5c-.2-.2-.4-.5-.5-.8s-.2-.6-.2-1,0-.7.2-1c.1-.3.2-.5.4-.8.2-.2.4-.4.7-.5.3-.1.6-.2.9-.2s.6,0,.9.2c.3.1.5.3.6.5.2.2.3.5.4.7,0,.3.1.6.1.9s0,.1,0,.1c0,0,0,0,0,.1,0,0,0,0,0,.2h-3.1c0,.4.2.6.4.8.3.2.6.3.9.3s.9-.2,1.4-.5ZM90.1,64.6c0-.2,0-.4-.1-.6,0-.2-.2-.3-.3-.4-.1-.1-.3-.2-.5-.2s-.4,0-.5.2c-.2.1-.3.2-.4.4,0,.2-.1.4-.2.6h2Z"/>
          <path d="M94.7,67.2v-1.1c.6.3,1.1.4,1.5.4s.5,0,.7-.2c.2-.1.3-.3.3-.6s0-.5-.3-.6c-.2-.1-.5-.3-1-.5-.5-.2-.8-.4-1.1-.7-.2-.3-.4-.6-.4-1.1s0-.7.3-1c.2-.3.5-.5.8-.6.3-.1.7-.2,1.1-.2s1,0,1.5.2v1c-.6-.2-1-.3-1.4-.3s-.5,0-.7.2c-.2.1-.3.3-.3.6s0,.4.2.5c.1,0,.5.2,1,.5.5.2.9.5,1.1.7.2.3.4.6.4,1.1s0,.6-.2.9-.3.4-.5.6c-.2.2-.5.3-.7.3s-.6.1-.9.1c-.5,0-1,0-1.6-.3Z"/>
          <path d="M103.8,62.8v2.8c0,.1,0,.3,0,.6s0,.5,0,.6,0,.3,0,.5h-1.1v-.7c-.1.2-.3.3-.4.4-.1.1-.3.2-.5.3-.2,0-.4,0-.6,0-.4,0-.8,0-1-.3-.2-.2-.4-.4-.5-.7,0-.3-.1-.7-.1-1.1v-2.6h1.2v2.2c0,.3,0,.5,0,.7s.1.4.2.5.3.2.6.2c.4,0,.6-.2.7-.5.1-.3.2-.7.2-1.1v-2.1h1.2Z"/>
          <path d="M106.2,62h-1.2v-1.1h1.2v1.1ZM106.2,67.4h-1.2v-4.6h1.2v4.6Z"/>
          <path d="M110.9,66.4v.9h-3.8v-.9l1.9-2.3c0-.1.3-.3.5-.5,0,0-.1,0-.2,0,0,0-.2,0-.4,0h-1.7v-.9h3.6v.9l-1.9,2.3c-.1.2-.3.3-.5.5.3,0,.6,0,1.1,0h1.4Z"/>
          <path d="M115.6,67.4h-1.1v-.7c-.2.2-.4.4-.6.6-.3.1-.5.2-.8.2s-.6,0-.8-.2c-.2-.1-.4-.3-.6-.5-.1-.2-.2-.5-.2-.8,0-.6.2-1,.7-1.2.4-.2,1-.3,1.6-.3s.2,0,.2,0,0,0,.2,0c0,0,.2,0,.3,0,0-.3,0-.6-.2-.8s-.4-.2-.8-.2c-.5,0-1,.2-1.4.5v-1c.5-.2,1-.3,1.6-.3s.4,0,.6,0c.2,0,.4.1.6.2s.3.2.4.4c.1.2.2.3.2.6,0,.2,0,.5,0,.7s0,.6,0,.9c0,.3,0,.6,0,.8,0,.2,0,.6,0,1ZM114.5,65.3s0,0-.1,0h-.1c-.3,0-.5,0-.7,0-.2,0-.4.1-.6.2-.2.1-.2.3-.2.5s0,.3.2.4.3.2.5.2c.4,0,.6-.1.8-.4.2-.3.3-.6.3-.9Z"/>
          <path d="M123,66.1v1c-.5.2-1,.3-1.5.3s-.7,0-1-.2-.5-.3-.7-.5c-.2-.2-.4-.5-.5-.8-.1-.3-.2-.6-.2-1s0-.7.2-1c.1-.3.2-.5.4-.8.2-.2.4-.4.7-.5.3-.1.6-.2.9-.2s.6,0,.9.2c.3.1.5.3.6.5.2.2.3.5.4.7,0,.3.1.6.1.9s0,.1,0,.1c0,0,0,0,0,.1s0,0,0,.2h-3.1c0,.4.2.6.4.8.3.2.6.3.9.3s.9-.2,1.4-.5ZM122.2,64.6c0-.2,0-.4-.1-.6s-.2-.3-.3-.4c-.1-.1-.3-.2-.5-.2s-.4,0-.5.2-.3.2-.4.4c0,.2-.1.4-.2.6h2Z"/>
          <path d="M125.4,62.8v.7c.4-.5.9-.8,1.6-.8s1,.2,1.2.5.3.9.3,1.5v2.6h-1.2v-2.3c0-.4,0-.7-.2-1-.1-.3-.3-.4-.7-.4s-.6.1-.8.4c-.2.3-.2.6-.2,1.1v2.2h-1.2v-2.9c0-.6,0-1.2,0-1.7h1.1Z"/>
          <path d="M132.4,67.4v-6.1h2c.6,0,1.1.1,1.5.3s.6.6.6,1.2-.1.7-.3.9c-.2.2-.5.4-.9.5.2,0,.4,0,.6.2.2,0,.3.2.5.3.1.1.2.3.3.5,0,.2.1.4.1.6s0,.4,0,.5c0,.2-.1.3-.3.5s-.3.3-.4.4c-.2.1-.5.2-.7.3-.3,0-.6,0-1,0h-1.9ZM133.6,63.7h.6c.3,0,.6,0,.8-.2s.3-.3.3-.6,0-.5-.3-.6c-.2-.1-.4-.2-.7-.2h-.6v1.5ZM133.6,66.4h.6c.4,0,.7,0,.9-.2.2-.1.4-.4.4-.7s-.1-.5-.3-.7c-.2-.1-.5-.2-.8-.2h-.7v1.8Z"/>
          <path d="M139,67.4h-1.2v-3.2c0-.8,0-1.2,0-1.4h1.1v1.2c.1-.4.3-.6.5-.9.2-.2.5-.3.8-.3s.2,0,.3,0v1.1c-.2,0-.3,0-.4,0-.3,0-.5,0-.7.2-.2.1-.3.3-.3.6,0,.2,0,.5,0,.8h0v2Z"/>
          <path d="M145,67.4h-1.1v-.7c-.2.2-.4.4-.6.6-.3.1-.5.2-.8.2s-.6,0-.8-.2c-.2-.1-.4-.3-.6-.5-.1-.2-.2-.5-.2-.8,0-.6.2-1,.7-1.2.4-.2,1-.3,1.6-.3s.2,0,.2,0,0,0,.2,0c0,0,.2,0,.3,0,0-.3,0-.6-.2-.8s-.4-.2-.8-.2c-.5,0-1,.2-1.4.5v-1c.5-.2,1-.3,1.6-.3s.4,0,.6,0c.2,0,.4.1.6.2s.3.2.4.4c.1.2.2.3.2.6,0,.2,0,.5,0,.7s0,.6,0,.9c0,.3,0,.6,0,.8,0,.2,0,.6,0,1ZM143.9,65.3s0,0-.1,0h-.1c-.3,0-.5,0-.7,0-.2,0-.4.1-.6.2-.2.1-.2.3-.2.5s0,.3.2.4.3.2.5.2c.4,0,.6-.1.8-.4.2-.3.3-.6.3-.9Z"/>
          <path d="M146,67.2v-1c.5.2.9.3,1.2.3s.4,0,.6-.1c.2,0,.3-.2.3-.4s-.1-.3-.4-.4c-.2-.1-.5-.2-.7-.3-.3-.1-.5-.3-.6-.4-.2-.2-.3-.5-.3-.8s0-.6.3-.8c.2-.2.4-.4.7-.5.3,0,.6-.1.9-.1s.7,0,1.1.2v.9c-.5-.1-.8-.2-1.1-.2s-.4,0-.6.1c-.2,0-.3.2-.3.4s.1.3.4.4.5.2.8.3.5.2.7.4c.2.2.3.5.3.8s0,.6-.3.8c-.2.2-.4.4-.7.5s-.6.2-.9.2-.8,0-1.3-.2Z"/>
          <path d="M151.3,62h-1.2v-1.1h1.2v1.1ZM151.3,67.4h-1.2v-4.6h1.2v4.6Z"/>
          <path d="M153.7,67.4h-1.2v-6.6h1.2v6.6Z"/>
        </g>
        <g>
          <path d="M43.4,97.8h-1.2v-2.6h-2.4v2.6h-1.2v-6.1h1.2v2.5h2.4v-2.5h1.2v6.1Z"/>
          <path d="M48.8,93.2v2.8c0,.1,0,.3,0,.6,0,.3,0,.5,0,.6,0,.2,0,.3,0,.5h-1.1v-.7c-.1.2-.3.3-.4.4-.1.1-.3.2-.5.3-.2,0-.4,0-.6,0-.4,0-.8,0-1-.3-.2-.2-.4-.4-.5-.7,0-.3-.1-.7-.1-1.1v-2.6h1.2v2.2c0,.3,0,.5,0,.7,0,.2.1.4.2.5s.3.2.6.2c.4,0,.6-.2.7-.5.1-.3.2-.7.2-1.1v-2.1h1.2Z"/>
          <path d="M51.1,97.8h-1.1v-6.6h1.2v2c0,.3,0,.6,0,.8.2-.3.4-.5.6-.7s.5-.2.9-.2.6,0,.8.2.4.3.6.5c.1.2.3.5.3.7s.1.6.1.9,0,.6,0,.9c0,.3-.2.5-.3.8-.1.2-.3.4-.6.5-.2.1-.5.2-.9.2-.7,0-1.2-.3-1.4-.8v.7ZM53.3,95.5c0-.4,0-.7-.2-1-.2-.3-.4-.4-.7-.4s-.6.1-.8.4c-.2.3-.3.6-.3,1s0,.7.3,1c.2.3.4.4.8.4s.4,0,.6-.2c.1-.1.3-.3.3-.5,0-.2.1-.4.1-.6Z"/>
          <path d="M59.4,97.8h-1.3v-6.1h2c.4,0,.8,0,1.1.1.3,0,.6.3.8.5.2.2.3.6.3,1s-.1.7-.3,1c-.2.3-.5.4-.9.5.2,0,.4.2.4.3,0,.1.2.3.3.6l.9,2.1h-1.4l-.7-1.7c0-.3-.2-.4-.3-.5-.1-.1-.2-.2-.4-.2-.2,0-.4,0-.6,0v2.6ZM59.4,94.3h.6c.3,0,.6,0,.8-.2.2-.1.3-.4.3-.6,0-.6-.3-.8-1-.8h-.7v1.7Z"/>
          <path d="M67.2,96.6v1c-.5.2-1,.3-1.5.3s-.7,0-1-.2-.5-.3-.7-.5c-.2-.2-.4-.5-.5-.8s-.2-.6-.2-1,0-.7.2-1c.1-.3.2-.5.4-.8.2-.2.4-.4.7-.5.3-.1.6-.2.9-.2s.6,0,.9.2c.3.1.5.3.6.5.2.2.3.5.4.7,0,.3.1.6.1.9s0,.1,0,.1c0,0,0,0,0,.1,0,0,0,0,0,.2h-3.1c0,.4.2.6.4.8.3.2.6.3.9.3s.9-.2,1.4-.5ZM66.4,95c0-.2,0-.4-.1-.6,0-.2-.2-.3-.3-.4-.1-.1-.3-.2-.5-.2s-.4,0-.5.2c-.2.1-.3.2-.4.4,0,.2-.1.4-.2.6h2Z"/>
          <path d="M71.5,93.2h1.1v4c0,.8-.2,1.4-.6,1.9-.4.4-1,.6-1.8.6s-1.1-.1-1.6-.3v-1c.3.1.6.2.8.3.2,0,.5,0,.7,0s.5,0,.7-.2c.2-.1.4-.3.5-.5,0-.1.1-.3.1-.5s0-.4,0-.8c-.1.3-.4.5-.6.7-.3.2-.6.2-.9.2s-.8-.1-1-.3c-.3-.2-.5-.5-.6-.9-.1-.4-.2-.7-.2-1.1s0-.8.2-1.1c.1-.4.3-.6.6-.9s.6-.3,1-.3.6,0,.9.2c.2.1.4.3.6.6v-.7ZM71.4,95.4c0-.2,0-.3,0-.5,0-.2-.1-.3-.2-.4,0-.1-.2-.2-.3-.3-.1,0-.3-.1-.5-.1-.3,0-.6.1-.8.4s-.2.6-.2.9,0,.7.3,1c.2.3.4.4.7.4s.4,0,.6-.2c.2-.1.3-.3.4-.5,0-.2.1-.4.1-.6Z"/>
          <path d="M75,92.4h-1.2v-1.1h1.2v1.1ZM74.9,97.8h-1.2v-4.6h1.2v4.6Z"/>
          <path d="M80.6,95.5c0,.4,0,.7-.2,1-.1.3-.3.5-.5.7-.2.2-.5.4-.7.5s-.6.2-1,.2-.9-.1-1.2-.3c-.4-.2-.6-.5-.8-.9-.2-.4-.3-.8-.3-1.3s0-.9.3-1.2.5-.6.8-.8c.4-.2.8-.3,1.2-.3s.7,0,1,.2c.3.1.5.3.7.5.2.2.4.5.5.8.1.3.2.6.2,1ZM79.4,95.5c0-.2,0-.5-.1-.7,0-.2-.2-.4-.4-.6-.2-.2-.4-.2-.6-.2s-.5,0-.6.2-.3.3-.4.6-.1.5-.1.7,0,.5.1.7c0,.2.2.4.4.6.2.2.4.2.7.2s.4,0,.5-.1c.1,0,.3-.2.4-.4,0-.1.2-.3.2-.5s0-.4,0-.5Z"/>
          <path d="M82.7,93.2v.7c.4-.5.9-.8,1.6-.8s1,.2,1.2.5c.2.4.3.9.3,1.5v2.6h-1.2v-2.3c0-.4,0-.7-.2-1-.1-.3-.3-.4-.7-.4s-.6.1-.8.4c-.1.3-.2.6-.2,1.1v2.2h-1.2v-2.9c0-.6,0-1.2,0-1.7h1.1Z"/>
          <path d="M90.7,97.8h-1.1v-.7c-.2.2-.4.4-.6.6-.3.1-.5.2-.8.2s-.6,0-.8-.2c-.2-.1-.4-.3-.6-.5-.1-.2-.2-.5-.2-.8,0-.6.2-1,.7-1.2.4-.2,1-.3,1.6-.3s.2,0,.2,0c0,0,0,0,.2,0,0,0,.2,0,.3,0,0-.3,0-.6-.2-.8-.2-.2-.4-.2-.8-.2-.5,0-1,.2-1.4.5v-1c.5-.2,1-.3,1.6-.3s.4,0,.6,0,.4.1.6.2.3.2.4.4c.1.2.2.3.2.6,0,.2,0,.5,0,.7s0,.6,0,.9c0,.3,0,.6,0,.8,0,.2,0,.6,0,1ZM89.6,95.7s0,0-.1,0h-.1c-.3,0-.5,0-.7,0-.2,0-.4.1-.6.2-.2.1-.2.3-.2.5s0,.3.2.4c.1.1.3.2.5.2.4,0,.6-.1.8-.4.2-.3.3-.6.3-.9Z"/>
          <path d="M93.1,97.8h-1.2v-6.6h1.2v6.6Z"/>
          <path d="M100.6,96.8v1h-3.6v-6.1h1.2v5.1h2.4Z"/>
          <path d="M102.5,92.4h-1.2v-1.1h1.2v1.1ZM102.5,97.8h-1.2v-4.6h1.2v4.6Z"/>
          <path d="M104.8,93.2v.7c.2-.2.4-.4.6-.6.3-.1.5-.2.8-.2s.6,0,.8.2c.2.1.4.3.5.6.2-.3.4-.5.6-.6.3-.1.5-.2.8-.2.6,0,.9.2,1.1.5.2.4.3.8.3,1.5v2.6h-1.2v-2.4c0-.4,0-.7-.1-.9,0-.2-.3-.4-.6-.4-.6,0-.9.5-.9,1.5v2.1h-1.2v-2.7c0-.3,0-.5-.2-.7s-.3-.3-.5-.3-.6.1-.7.4c-.1.3-.2.6-.2,1v2.3h-1.2v-3.4c0-.4,0-.8,0-1.1h1.1Z"/>
          <path d="M115.4,97.8h-1.1v-.7c-.2.2-.4.4-.6.6-.3.1-.5.2-.8.2s-.6,0-.8-.2c-.2-.1-.4-.3-.6-.5-.1-.2-.2-.5-.2-.8,0-.6.2-1,.7-1.2.4-.2,1-.3,1.6-.3s.2,0,.2,0,0,0,.2,0c0,0,.2,0,.3,0,0-.3,0-.6-.2-.8s-.4-.2-.8-.2c-.5,0-1,.2-1.4.5v-1c.5-.2,1-.3,1.6-.3s.4,0,.6,0c.2,0,.4.1.6.2s.3.2.4.4c.1.2.2.3.2.6,0,.2,0,.5,0,.7s0,.6,0,.9c0,.3,0,.6,0,.8,0,.2,0,.6,0,1ZM114.3,95.7s0,0-.1,0h-.1c-.3,0-.5,0-.7,0-.2,0-.4.1-.6.2-.2.1-.2.3-.2.5s0,.3.2.4.3.2.5.2c.4,0,.6-.1.8-.4.2-.3.3-.6.3-.9Z"/>
        </g>
        <g>
          <path d="M42.9,86v1.1c-.5.1-.9.2-1.4.2s-.9,0-1.3-.2c-.4-.1-.8-.3-1.1-.6-.3-.3-.5-.6-.7-1-.2-.4-.2-.8-.2-1.3s0-.9.2-1.3c.1-.4.4-.7.7-1,.3-.3.6-.5,1-.6s.9-.2,1.3-.2.9,0,1.5.3v1.1c-.5-.2-.9-.3-1.4-.3s-.8,0-1.1.3c-.3.2-.5.4-.7.7-.2.3-.2.7-.2,1.1s0,.8.3,1.1.4.6.7.8c.3.2.7.3,1.1.3s.8,0,1.3-.3Z"/>
          <path d="M48.2,85c0,.4,0,.7-.2,1-.1.3-.3.5-.5.7-.2.2-.5.4-.7.5s-.6.2-1,.2-.9-.1-1.2-.3c-.4-.2-.6-.5-.8-.9-.2-.4-.3-.8-.3-1.3s0-.9.3-1.2.5-.6.8-.8c.4-.2.8-.3,1.2-.3s.7,0,1,.2c.3.1.5.3.7.5.2.2.4.5.5.8.1.3.2.6.2,1ZM47,85c0-.2,0-.5-.1-.7,0-.2-.2-.4-.4-.6-.2-.2-.4-.2-.6-.2s-.5,0-.6.2-.3.3-.4.6-.1.5-.1.7,0,.5.1.7c0,.2.2.4.4.6.2.2.4.2.7.2s.4,0,.5-.1c.1,0,.3-.2.4-.4,0-.1.2-.3.2-.5s0-.4,0-.5Z"/>
          <path d="M53.6,85c0,.4,0,.7-.2,1-.1.3-.3.5-.5.7-.2.2-.5.4-.7.5s-.6.2-1,.2-.9-.1-1.2-.3c-.4-.2-.6-.5-.8-.9-.2-.4-.3-.8-.3-1.3s0-.9.3-1.2.5-.6.8-.8c.4-.2.8-.3,1.2-.3s.7,0,1,.2c.3.1.5.3.7.5.2.2.4.5.5.8.1.3.2.6.2,1ZM52.4,85c0-.2,0-.5-.1-.7,0-.2-.2-.4-.4-.6-.2-.2-.4-.2-.6-.2s-.5,0-.6.2-.3.3-.4.6-.1.5-.1.7,0,.5.1.7c0,.2.2.4.4.6.2.2.4.2.7.2s.4,0,.5-.1c.1,0,.3-.2.4-.4,0-.1.2-.3.2-.5s0-.4,0-.5Z"/>
          <path d="M55.8,89.1h-1.2v-5.1c0-.5,0-1,0-1.3h1.1v.7c.4-.5.9-.8,1.5-.8s.6,0,.8.2c.2.1.4.3.6.5.2.2.3.5.3.7,0,.3.1.6.1.9,0,.4,0,.8-.2,1.2-.1.4-.3.7-.6.9-.3.2-.6.3-1.1.3s-.6,0-.8-.2c-.2-.1-.4-.3-.6-.5,0,.2,0,.4,0,.7v1.8ZM57.8,85c0-.2,0-.5,0-.7,0-.2-.2-.4-.3-.5-.1-.1-.3-.2-.6-.2s-.4,0-.6.2-.3.3-.3.5-.1.4-.1.7c0,.4,0,.7.2,1,.2.3.4.4.8.4s.4,0,.6-.2c.2-.1.3-.3.3-.5s.1-.4.1-.7Z"/>
          <path d="M63.6,86v1c-.5.2-1,.3-1.5.3s-.7,0-1-.2-.5-.3-.7-.5c-.2-.2-.4-.5-.5-.8s-.2-.6-.2-1,0-.7.2-1c.1-.3.2-.5.4-.8.2-.2.4-.4.7-.5.3-.1.6-.2.9-.2s.6,0,.9.2c.3.1.5.3.6.5.2.2.3.5.4.7,0,.3.1.6.1.9s0,.1,0,.1c0,0,0,0,0,.1,0,0,0,0,0,.2h-3.1c0,.4.2.6.4.8.3.2.6.3.9.3s.9-.2,1.4-.5ZM62.8,84.5c0-.2,0-.4-.1-.6,0-.2-.2-.3-.3-.4-.1-.1-.3-.2-.5-.2s-.4,0-.5.2c-.2.1-.3.2-.4.4,0,.2-.1.4-.2.6h2Z"/>
          <path d="M66.1,87.2h-1.2v-3.2c0-.8,0-1.2,0-1.4h1.1v1.2c.1-.4.3-.6.5-.9.2-.2.5-.3.8-.3s.2,0,.3,0v1.1c-.2,0-.3,0-.4,0-.3,0-.5,0-.7.2-.2.1-.3.3-.3.6,0,.2,0,.5,0,.8h0v2Z"/>
          <path d="M72.1,87.2h-1.1v-.7c-.2.2-.4.4-.6.6-.3.1-.5.2-.8.2s-.6,0-.8-.2c-.2-.1-.4-.3-.6-.5-.1-.2-.2-.5-.2-.8,0-.6.2-1,.7-1.2.4-.2,1-.3,1.6-.3s.2,0,.2,0c0,0,0,0,.2,0,0,0,.2,0,.3,0,0-.3,0-.6-.2-.8-.2-.2-.4-.2-.8-.2-.5,0-1,.2-1.4.5v-1c.5-.2,1-.3,1.6-.3s.4,0,.6,0,.4.1.6.2.3.2.4.4c.1.2.2.3.2.6,0,.2,0,.5,0,.7s0,.6,0,.9c0,.3,0,.6,0,.8,0,.2,0,.6,0,1ZM71,85.2s0,0-.1,0h-.1c-.3,0-.5,0-.7,0-.2,0-.4.1-.6.2-.2.1-.2.3-.2.5s0,.3.2.4c.1.1.3.2.5.2.4,0,.6-.1.8-.4.2-.3.3-.6.3-.9Z"/>
          <path d="M76.4,86.1v1c-.3.1-.7.2-1,.2s-.7,0-1-.2c-.3-.1-.5-.3-.7-.5-.2-.2-.4-.5-.5-.7-.1-.3-.2-.6-.2-1s0-.8.3-1.2c.2-.3.5-.6.8-.8.4-.2.8-.3,1.2-.3s.7,0,1,.1v.9c-.4-.1-.6-.2-.8-.2s-.5,0-.7.2-.3.3-.4.5c-.1.2-.2.4-.2.7,0,.4.1.7.4,1,.2.2.6.4,1,.4s.5,0,.8-.2Z"/>
          <path d="M78.5,81.8h-1.2v-1.1h1.2v1.1ZM78.5,87.2h-1.2v-4.6h1.2v4.6Z"/>
          <path d="M84.1,85c0,.4,0,.7-.2,1-.1.3-.3.5-.5.7-.2.2-.5.4-.7.5s-.6.2-1,.2-.9-.1-1.2-.3c-.4-.2-.6-.5-.8-.9-.2-.4-.3-.8-.3-1.3s0-.9.3-1.2.5-.6.8-.8c.4-.2.8-.3,1.2-.3s.7,0,1,.2c.3.1.5.3.7.5.2.2.4.5.5.8.1.3.2.6.2,1ZM82.9,85c0-.2,0-.5-.1-.7,0-.2-.2-.4-.4-.6-.2-.2-.4-.2-.6-.2s-.5,0-.6.2-.3.3-.4.6-.1.5-.1.7,0,.5.1.7c0,.2.2.4.4.6.2.2.4.2.7.2s.4,0,.5-.1c.1,0,.3-.2.4-.4,0-.1.2-.3.2-.5s0-.4,0-.5ZM81.9,82h-.7l.7-1.3h1.2l-1.3,1.3Z"/>
          <path d="M86.2,82.7v.7c.4-.5.9-.8,1.6-.8s1,.2,1.2.5c.2.4.3.9.3,1.5v2.6h-1.2v-2.3c0-.4,0-.7-.2-1-.1-.3-.3-.4-.7-.4s-.6.1-.8.4c-.1.3-.2.6-.2,1.1v2.2h-1.2v-2.9c0-.6,0-1.2,0-1.7h1.1Z"/>
          <path d="M94.4,87.2h-1.2v-6.1h1.2v6.1Z"/>
          <path d="M97,82.7v.7c.4-.5.9-.8,1.6-.8s1,.2,1.2.5c.2.4.3.9.3,1.5v2.6h-1.2v-2.3c0-.4,0-.7-.2-1-.1-.3-.3-.4-.7-.4s-.6.1-.8.4c-.1.3-.2.6-.2,1.1v2.2h-1.2v-2.9c0-.6,0-1.2,0-1.7h1.1Z"/>
          <path d="M103.8,86.3v.9c-.3,0-.5,0-.8,0-.4,0-.7,0-.9-.2-.2-.1-.4-.3-.5-.6s-.1-.6-.1-1v-1.9h-.9v-.9h.9v-.9l1.2-.4v1.3h1v.9h-1v1.7c0,.4,0,.6.1.8,0,.2.3.3.6.3s.2,0,.4,0Z"/>
          <path d="M108.3,86v1c-.5.2-1,.3-1.5.3s-.7,0-1-.2-.5-.3-.7-.5c-.2-.2-.4-.5-.5-.8-.1-.3-.2-.6-.2-1s0-.7.2-1c.1-.3.2-.5.4-.8.2-.2.4-.4.7-.5.3-.1.6-.2.9-.2s.6,0,.9.2c.3.1.5.3.6.5.2.2.3.5.4.7,0,.3.1.6.1.9s0,.1,0,.1c0,0,0,0,0,.1s0,0,0,.2h-3.1c0,.4.2.6.4.8.3.2.6.3.9.3s.9-.2,1.4-.5ZM107.5,84.5c0-.2,0-.4-.1-.6s-.2-.3-.3-.4c-.1-.1-.3-.2-.5-.2s-.4,0-.5.2c-.2.1-.3.2-.4.4,0,.2-.1.4-.2.6h2Z"/>
          <path d="M110.8,87.2h-1.2v-3.2c0-.8,0-1.2,0-1.4h1.1v1.2c.1-.4.3-.6.5-.9.2-.2.5-.3.8-.3s.2,0,.3,0v1.1c-.2,0-.3,0-.4,0-.3,0-.5,0-.7.2-.2.1-.3.3-.3.6,0,.2,0,.5,0,.8h0v2Z"/>
          <path d="M114.1,82.7v.7c.4-.5.9-.8,1.6-.8s1,.2,1.2.5.3.9.3,1.5v2.6h-1.2v-2.3c0-.4,0-.7-.2-1-.1-.3-.3-.4-.7-.4s-.6.1-.8.4c-.2.3-.2.6-.2,1.1v2.2h-1.2v-2.9c0-.6,0-1.2,0-1.7h1.1Z"/>
          <path d="M122.2,87.2h-1.1v-.7c-.2.2-.4.4-.6.6-.3.1-.5.2-.8.2s-.6,0-.8-.2c-.2-.1-.4-.3-.6-.5-.1-.2-.2-.5-.2-.8,0-.6.2-1,.7-1.2.4-.2,1-.3,1.6-.3s.2,0,.2,0,0,0,.2,0c0,0,.2,0,.3,0,0-.3,0-.6-.2-.8s-.4-.2-.8-.2c-.5,0-1,.2-1.4.5v-1c.5-.2,1-.3,1.6-.3s.4,0,.6,0c.2,0,.4.1.6.2s.3.2.4.4c.1.2.2.3.2.6,0,.2,0,.5,0,.7s0,.6,0,.9c0,.3,0,.6,0,.8,0,.2,0,.6,0,1ZM121.1,85.2s0,0-.1,0h-.1c-.3,0-.5,0-.7,0-.2,0-.4.1-.6.2-.2.1-.2.3-.2.5s0,.3.2.4.3.2.5.2c.4,0,.6-.1.8-.4.2-.3.3-.6.3-.9Z"/>
          <path d="M126.4,86.1v1c-.3.1-.7.2-1,.2s-.7,0-1-.2c-.3-.1-.5-.3-.7-.5-.2-.2-.4-.5-.5-.7-.1-.3-.2-.6-.2-1s0-.8.3-1.2c.2-.3.5-.6.8-.8.4-.2.8-.3,1.2-.3s.7,0,1,.1v.9c-.4-.1-.6-.2-.8-.2s-.5,0-.7.2-.3.3-.4.5c-.1.2-.2.4-.2.7,0,.4.1.7.4,1,.2.2.6.4,1,.4s.5,0,.8-.2Z"/>
          <path d="M128.5,81.8h-1.2v-1.1h1.2v1.1ZM128.5,87.2h-1.2v-4.6h1.2v4.6Z"/>
          <path d="M134.2,85c0,.4,0,.7-.2,1s-.3.5-.5.7c-.2.2-.5.4-.7.5s-.6.2-1,.2-.9-.1-1.2-.3c-.4-.2-.6-.5-.8-.9-.2-.4-.3-.8-.3-1.3s0-.9.3-1.2.5-.6.8-.8.8-.3,1.2-.3.7,0,1,.2.5.3.7.5c.2.2.4.5.5.8.1.3.2.6.2,1ZM132.9,85c0-.2,0-.5-.1-.7s-.2-.4-.4-.6-.4-.2-.6-.2-.5,0-.6.2-.3.3-.4.6c0,.2-.1.5-.1.7s0,.5.1.7c0,.2.2.4.4.6s.4.2.7.2.4,0,.5-.1c.1,0,.3-.2.4-.4,0-.1.2-.3.2-.5s0-.4,0-.5Z"/>
          <path d="M136.2,82.7v.7c.4-.5.9-.8,1.6-.8s1,.2,1.2.5.3.9.3,1.5v2.6h-1.2v-2.3c0-.4,0-.7-.2-1-.1-.3-.3-.4-.7-.4s-.6.1-.8.4c-.2.3-.2.6-.2,1.1v2.2h-1.2v-2.9c0-.6,0-1.2,0-1.7h1.1Z"/>
          <path d="M144.3,87.2h-1.1v-.7c-.2.2-.4.4-.6.6-.3.1-.5.2-.8.2s-.6,0-.8-.2c-.2-.1-.4-.3-.6-.5-.1-.2-.2-.5-.2-.8,0-.6.2-1,.7-1.2.4-.2,1-.3,1.6-.3s.2,0,.2,0,0,0,.2,0c0,0,.2,0,.3,0,0-.3,0-.6-.2-.8s-.4-.2-.8-.2c-.5,0-1,.2-1.4.5v-1c.5-.2,1-.3,1.6-.3s.4,0,.6,0c.2,0,.4.1.6.2s.3.2.4.4c.1.2.2.3.2.6,0,.2,0,.5,0,.7s0,.6,0,.9c0,.3,0,.6,0,.8,0,.2,0,.6,0,1ZM143.2,85.2s0,0-.1,0h-.1c-.3,0-.5,0-.7,0-.2,0-.4.1-.6.2-.2.1-.2.3-.2.5s0,.3.2.4.3.2.5.2c.4,0,.6-.1.8-.4.2-.3.3-.6.3-.9Z"/>
          <path d="M146.6,87.2h-1.2v-6.6h1.2v6.6Z"/>
          <path d="M152,85.4h-2.2v-1h2.2v1Z"/>
          <path d="M159.8,86v1.1c-.5.1-.9.2-1.4.2s-.9,0-1.3-.2-.8-.3-1.1-.6c-.3-.3-.5-.6-.7-1-.2-.4-.2-.8-.2-1.3s0-.9.2-1.3.4-.7.7-1,.6-.5,1-.6c.4-.1.9-.2,1.3-.2s.9,0,1.5.3v1.1c-.5-.2-.9-.3-1.4-.3s-.8,0-1.1.3c-.3.2-.5.4-.7.7-.2.3-.2.7-.2,1.1s0,.8.3,1.1.4.6.7.8c.3.2.7.3,1.1.3s.8,0,1.3-.3Z"/>
          <path d="M166.5,84.2c0,.6-.1,1.2-.4,1.6s-.6.9-1,1.1c-.5.3-1,.4-1.6.4s-1.2-.1-1.6-.4-.8-.6-1-1.1-.3-1-.3-1.7.1-1.2.4-1.7c.2-.5.6-.9,1-1.1s1-.4,1.6-.4.9,0,1.3.2c.4.2.7.4.9.7.3.3.4.6.6,1,.1.4.2.8.2,1.3ZM165.2,84.2c0-.3,0-.5,0-.8,0-.3-.2-.5-.3-.7-.1-.2-.3-.4-.5-.5s-.5-.2-.8-.2-.7.1-.9.3c-.3.2-.4.5-.6.9-.1.3-.2.7-.2,1.1s0,.7.2,1.1.3.6.6.9c.3.2.6.3,1,.3s.5,0,.7-.2c.2-.1.4-.3.5-.5.1-.2.2-.5.3-.7,0-.3.1-.5.1-.8Z"/>
          <path d="M167.6,87.1v-1.1c.6.3,1.1.4,1.5.4s.5,0,.8-.2c.2-.1.3-.3.3-.6s0-.5-.3-.6c-.2-.1-.5-.3-1-.5-.5-.2-.8-.4-1.1-.7-.2-.3-.4-.6-.4-1.1s0-.7.3-1,.5-.5.8-.6c.3-.1.7-.2,1.1-.2s1,0,1.5.2v1c-.6-.2-1-.3-1.4-.3s-.5,0-.7.2-.3.3-.3.6,0,.4.2.5c.1,0,.5.2,1,.5.5.2.9.5,1.1.7s.4.6.4,1.1,0,.6-.2.9-.3.4-.5.6c-.2.2-.5.3-.7.3s-.6.1-.9.1c-.5,0-1,0-1.6-.3Z"/>
          <path d="M176.5,81.1h1.2v3.7c0,.6,0,1-.3,1.4-.2.4-.4.7-.8.9-.4.2-.8.3-1.4.3s-1.1,0-1.4-.3c-.4-.2-.7-.5-.8-.8-.2-.4-.3-.9-.3-1.4v-3.7h1.2v3.6c0,.5,0,.9.3,1.2.2.3.5.5,1,.5s.6,0,.8-.2c.2-.2.3-.4.4-.6,0-.3.1-.5.1-.9v-3.5Z"/>
          <path d="M179.1,87.2v-6.1h1.4c.4,0,.7,0,1,0,.3,0,.6,0,.9.2.3,0,.6.2.8.4.2.1.4.3.5.5s.3.4.3.6c0,.2.1.4.2.7,0,.2,0,.5,0,.7,0,.5,0,1-.3,1.4s-.5.8-.8,1.1c-.2.1-.4.3-.7.4-.3,0-.5.1-.8.2s-.6,0-.9,0h-1.8ZM180.4,86.3c0,0,.1,0,.2,0,0,0,0,0,.1,0,.4,0,.7,0,1-.1.3,0,.5-.2.7-.4.2-.2.4-.4.5-.7s.2-.6.2-1,0-.7-.2-1c-.2-.3-.4-.6-.7-.7-.1,0-.3-.1-.4-.2-.1,0-.3,0-.4,0-.2,0-.3,0-.5,0-.2,0-.3,0-.4,0v4.2Z"/>
          <path d="M189.2,86.2v1h-3.7v-6.1h3.6v1h-2.4v1.5h2.2v1h-2.2v1.6h2.4Z"/>
        </g>
      </g>
    </g>
  </g>
</svg>