<?xml version="1.0" encoding="UTF-8"?>
<svg id="Layer_2" data-name="Layer 2" xmlns="http://www.w3.org/2000/svg" viewBox="0 0 56.76 100.05">
  <defs>
    <style>
      .cls-1 {
        fill: none;
      }

      .cls-2 {
        fill: #19559f;
      }
    </style>
  </defs>
  <g id="Layer_1-2" data-name="Layer 1">
    <rect class="cls-1" width="56.76" height="100.05"/>
    <g>
      <path class="cls-2" d="M20.86,42.41l-1.82-.53c-1.17-.37-1.97-1.49-1.97-2.71,0-1.6,1.27-2.87,2.88-2.87h3.57v1.26h-2.51c-.48,0-.9.37-.9.91,0,.32.21.69.59.79l1.75.59c1.23.38,1.87,1.6,1.87,2.98,0,1.76-1.44,3.2-3.21,3.2h-3.78v-1.44h3.25c.48,0,1.02-.48,1.02-1.11,0-.49-.27-.91-.75-1.07M4.23,42.41l-1.81-.53c-1.12-.37-1.92-1.49-1.92-2.71,0-1.6,1.28-2.87,2.88-2.87h3.57v1.26h-2.51c-.48,0-.9.37-.9.91,0,.32.21.69.58.79l1.75.59c1.18.38,1.81,1.6,1.81,2.98,0,1.76-1.38,3.2-3.15,3.2H.77v-1.44h3.25c.48,0,1.01-.48,1.01-1.11,0-.49-.32-.91-.8-1.07M12.49,46.36c-2.18,0-3.89-1.55-3.89-3.47v-6.54h2.93v6.81c0,.86.75,1.54,1.71,1.54.9,0,1.71-.68,1.71-1.54v-6.81h1.38v6.54c0,1.92-1.71,3.47-3.84,3.47"/>
      <path class="cls-2" d="M45.63,46.91s-5.05.34-9.35-.05c.09,5.23.72,7.91.82,8.48h9.39c-.45-2.75-.8-7.18-.86-8.43M29.7,36.06c.63.05,6.16.53,6.54.53l8.77,8.91h11.26v-9.44h-26.57ZM37.04,35.51h9.46v-9.16h-9.46v9.16ZM36.97,38.14h0l-1.23-1.25c-1.64.02-6.92-.54-8.61-.83v9.44c8.47.83,12.91,1.05,17.87.89h.08l-8.12-8.25ZM45.58,45.99h1.15v7.35c-.14-.77-.57-5.23-.52-6.67-.15-.15-.63-.68-.63-.68"/>
    </g>
  </g>
</svg>