<?xml version="1.0" encoding="UTF-8"?>
<svg id="Layer_2" data-name="Layer 2" xmlns="http://www.w3.org/2000/svg" viewBox="0 0 110.38 100.05">
  <defs>
    <style>
      .cls-1 {
        fill: none;
      }

      .cls-2 {
        fill: #ffcf00;
      }

      .cls-3 {
        fill: #3c3c3c;
      }

      .cls-4, .cls-5 {
        fill: red;
      }

      .cls-4, .cls-6 {
        fill-rule: evenodd;
      }

      .cls-7 {
        fill: #183eff;
      }

      .cls-6 {
        fill: #00cf00;
      }
    </style>
  </defs>
  <g id="Layer_1-2" data-name="Layer 1">
    <rect class="cls-1" width="110.38" height="100.05"/>
    <g>
      <g>
        <path class="cls-7" d="M8.74,29.12c.21.27.32.6.32.99,0,.57-.24,1.02-.71,1.33-.47.31-1.16.47-2.06.47h-3.68v-6.54h3.49c.87,0,1.53.16,1.98.47.45.31.67.73.67,1.24,0,.31-.08.58-.23.82-.15.24-.38.44-.68.59.39.14.69.35.9.63ZM4.78,26.92v.97h1.03c.48,0,.72-.16.72-.49s-.24-.49-.72-.49h-1.03ZM6.84,29.86c0-.34-.24-.51-.73-.51h-1.33v1.03h1.33c.49,0,.73-.17.73-.51Z"/>
        <path class="cls-7" d="M13.67,30.27h-.6v1.64h-2.2v-6.54h3.15c.6,0,1.13.1,1.58.3.45.2.79.49,1.04.86s.36.81.36,1.31c0,.47-.11.88-.32,1.22-.21.35-.52.63-.92.83l1.37,2.02h-2.35l-1.11-1.64ZM14.55,27.28c-.15-.13-.37-.2-.67-.2h-.8v1.53h.8c.3,0,.52-.07.67-.2.15-.13.22-.32.22-.57s-.07-.43-.22-.57Z"/>
        <path class="cls-7" d="M23.31,30.78h-2.48l-.44,1.14h-2.24l2.86-6.54h2.17l2.86,6.54h-2.28l-.44-1.14ZM22.7,29.19l-.64-1.64-.64,1.64h1.27Z"/>
        <path class="cls-7" d="M28.26,31.88c-.51-.12-.94-.28-1.27-.49l.71-1.61c.31.18.66.33,1.05.43.39.11.76.16,1.11.16.31,0,.52-.03.65-.09.13-.06.2-.15.2-.27,0-.14-.09-.24-.26-.31-.17-.07-.45-.14-.85-.22-.5-.11-.92-.22-1.26-.34-.34-.12-.63-.32-.88-.6-.25-.28-.37-.65-.37-1.13,0-.41.12-.78.35-1.12.23-.34.57-.6,1.03-.79.46-.19,1.01-.29,1.67-.29.45,0,.89.05,1.32.14.43.1.81.24,1.14.43l-.66,1.6c-.64-.32-1.25-.49-1.82-.49s-.85.14-.85.41c0,.13.08.23.25.29.17.07.45.14.83.21.5.09.92.2,1.26.32.34.12.64.32.89.59.25.27.38.65.38,1.12,0,.41-.12.78-.35,1.12-.23.33-.57.6-1.03.79-.46.2-1.01.29-1.67.29-.54,0-1.07-.06-1.58-.18Z"/>
        <path class="cls-7" d="M34.57,25.38h2.2v6.54h-2.2v-6.54Z"/>
        <path class="cls-7" d="M38.87,25.38h2.2v4.83h2.95v1.71h-5.16v-6.54Z"/>
        <path class="cls-7" d="M55.62,29.12c.21.27.32.6.32.99,0,.57-.24,1.02-.71,1.33-.47.31-1.16.47-2.06.47h-3.68v-6.54h3.49c.87,0,1.53.16,1.98.47.45.31.67.73.67,1.24,0,.31-.08.58-.23.82-.15.24-.38.44-.68.59.39.14.68.35.9.63ZM51.66,26.92v.97h1.03c.48,0,.72-.16.72-.49s-.24-.49-.72-.49h-1.03ZM53.71,29.86c0-.34-.24-.51-.73-.51h-1.33v1.03h1.33c.49,0,.73-.17.73-.51Z"/>
        <path class="cls-7" d="M63.18,30.25v1.66h-5.44v-6.54h5.32v1.66h-3.15v.77h2.77v1.59h-2.77v.86h3.27Z"/>
        <path class="cls-7" d="M70.89,31.91l-.02-2.98-1.42,2.39h-.97l-1.42-2.29v2.88h-2.01v-6.54h1.81l2.13,3.48,2.07-3.48h1.81l.02,6.54h-2.01Z"/>
      </g>
      <g>
        <path class="cls-3" d="M6.39,59.51v-1.93s-.96,1.61-.96,1.61h-.17l-.96-1.6v1.92h-.36v-2.65h.31l1.1,1.86,1.09-1.86h.31v2.65s-.36,0-.36,0Z"/>
        <path class="cls-3" d="M9.99,58.84h-1.41l-.29.66h-.39l1.2-2.65h.37l1.2,2.65h-.4l-.29-.66ZM9.86,58.54l-.57-1.3-.57,1.3h1.14Z"/>
        <path class="cls-3" d="M11.83,56.86h.38v2.65h-.38v-2.65Z"/>
        <path class="cls-3" d="M13.95,59.44c-.19-.06-.33-.14-.44-.24l.14-.3c.1.09.23.16.39.22.16.06.32.09.49.09.22,0,.38-.04.49-.11.11-.07.16-.17.16-.3,0-.09-.03-.16-.09-.22s-.13-.1-.22-.13c-.09-.03-.21-.06-.37-.1-.2-.05-.36-.1-.48-.14-.12-.05-.23-.12-.31-.22-.09-.1-.13-.23-.13-.4,0-.14.04-.27.11-.38.07-.11.19-.2.34-.27.15-.07.34-.1.56-.1.16,0,.31.02.46.06s.28.1.39.17l-.12.3c-.11-.07-.23-.12-.36-.16-.13-.04-.25-.05-.37-.05-.21,0-.38.04-.48.12s-.16.18-.16.3c0,.09.03.16.09.22.06.06.14.1.23.13.09.03.21.07.37.1.2.05.36.1.48.14.12.05.23.12.31.22.09.1.13.23.13.4,0,.14-.04.27-.11.38s-.19.21-.34.27c-.15.07-.34.1-.57.1-.2,0-.39-.03-.58-.09Z"/>
        <path class="cls-3" d="M18.83,59.44c-.19-.06-.33-.14-.44-.24l.14-.3c.1.09.23.16.39.22.16.06.32.09.49.09.22,0,.38-.04.49-.11.11-.07.16-.17.16-.3,0-.09-.03-.16-.09-.22s-.13-.1-.22-.13c-.09-.03-.21-.06-.37-.1-.2-.05-.36-.1-.48-.14-.12-.05-.23-.12-.31-.22-.09-.1-.13-.23-.13-.4,0-.14.04-.27.11-.38.07-.11.19-.2.34-.27.15-.07.34-.1.56-.1.16,0,.31.02.46.06s.28.1.39.17l-.12.3c-.11-.07-.23-.12-.36-.16-.13-.04-.25-.05-.37-.05-.21,0-.38.04-.48.12s-.16.18-.16.3c0,.09.03.16.09.22.06.06.14.1.23.13.09.03.21.07.37.1.2.05.36.1.48.14.12.05.23.12.31.22.09.1.13.23.13.4,0,.14-.04.27-.11.38s-.19.21-.34.27c-.15.07-.34.1-.57.1-.2,0-.39-.03-.58-.09Z"/>
        <path class="cls-3" d="M23.43,58.84h-1.41l-.29.66h-.39l1.2-2.65h.37l1.2,2.65h-.4l-.29-.66ZM23.3,58.54l-.57-1.3-.57,1.3h1.14Z"/>
        <path class="cls-3" d="M25.55,59.23c-.2-.2-.3-.49-.3-.87v-1.51h.38v1.49c0,.57.25.85.75.85.24,0,.43-.07.56-.21.13-.14.19-.35.19-.64v-1.49h.37v1.51c0,.38-.1.67-.3.87-.2.2-.47.3-.82.3s-.63-.1-.82-.3ZM26.6,56.15h.46l-.64.49h-.34l.51-.49Z"/>
        <path class="cls-3" d="M29.02,56.86h1.12c.28,0,.53.06.75.17.22.11.39.27.51.47.12.2.18.43.18.69s-.06.49-.18.69c-.12.2-.29.36-.51.47-.22.11-.47.17-.75.17h-1.12v-2.65ZM30.12,59.18c.21,0,.4-.04.57-.12s.29-.2.38-.35c.09-.15.13-.32.13-.52s-.04-.37-.13-.52-.21-.27-.38-.35c-.16-.08-.35-.12-.57-.12h-.72v1.99h.72Z"/>
        <path class="cls-3" d="M34.83,59.18v.33h-1.92v-2.65h1.87v.33h-1.49v.81h1.33v.32h-1.33v.86h1.54Z"/>
        <path class="cls-3" d="M39.82,57.1c.2.16.3.39.3.68s-.1.51-.3.68c-.2.16-.47.25-.81.25h-.65v.8h-.38v-2.65h1.03c.34,0,.61.08.81.25ZM39.54,58.22c.13-.1.19-.25.19-.44s-.06-.34-.19-.44-.31-.15-.55-.15h-.64v1.19h.64c.24,0,.42-.05.55-.15Z"/>
        <path class="cls-3" d="M43.15,58.84h-1.41l-.29.66h-.39l1.2-2.65h.37l1.2,2.65h-.4l-.29-.66ZM43.02,58.54l-.57-1.3-.57,1.3h1.14Z"/>
        <path class="cls-3" d="M46.76,59.51l-.57-.81c-.07,0-.13,0-.17,0h-.65v.81h-.38v-2.65h1.03c.34,0,.61.08.81.25.2.16.3.39.3.68,0,.2-.05.38-.15.52-.1.14-.24.25-.43.31l.63.89h-.41ZM46.56,58.22c.13-.1.19-.25.19-.44s-.06-.34-.19-.44-.31-.15-.55-.15h-.64v1.19h.64c.24,0,.42-.05.55-.16Z"/>
        <path class="cls-3" d="M50.18,58.84h-1.41l-.29.66h-.39l1.2-2.65h.37l1.2,2.65h-.4l-.29-.66ZM50.05,58.54l-.57-1.3-.57,1.3h1.14Z"/>
        <path class="cls-3" d="M56.53,59.75c-.09.1-.19.18-.3.23-.11.05-.24.08-.37.08-.17,0-.32-.04-.47-.12-.15-.08-.31-.22-.5-.41-.25-.01-.47-.08-.68-.2-.2-.12-.36-.28-.47-.48-.11-.2-.17-.42-.17-.67s.06-.49.18-.69c.12-.21.29-.37.51-.49.21-.12.46-.18.72-.18s.5.06.72.18c.21.12.38.28.5.48s.18.44.18.69c0,.22-.04.42-.13.6-.09.18-.21.33-.37.46-.16.12-.34.21-.54.26.09.09.17.16.26.2.08.04.17.06.25.06.19,0,.35-.08.48-.23l.18.22ZM54.09,58.7c.09.16.21.28.37.37s.33.13.53.13.37-.04.52-.13c.16-.09.28-.21.37-.37.09-.16.13-.33.13-.52s-.04-.37-.13-.52c-.09-.16-.21-.28-.37-.37-.16-.09-.33-.13-.52-.13s-.37.04-.53.13c-.16.09-.28.21-.37.37-.09.16-.13.33-.13.52s.04.37.13.52Z"/>
        <path class="cls-3" d="M58.01,59.23c-.2-.2-.3-.49-.3-.87v-1.51h.38v1.49c0,.57.25.85.75.85.24,0,.43-.07.56-.21.13-.14.19-.35.19-.64v-1.49h.37v1.51c0,.38-.1.67-.3.87-.2.2-.47.3-.83.3s-.63-.1-.82-.3Z"/>
        <path class="cls-3" d="M63.41,59.18v.33h-1.92v-2.65h1.87v.33h-1.49v.81h1.33v.32h-1.33v.86h1.54Z"/>
        <path class="cls-3" d="M67.23,59.51v-1.93s-.96,1.61-.96,1.61h-.17l-.96-1.6v1.92h-.36v-2.65h.31l1.1,1.86,1.09-1.86h.31v2.65s-.36,0-.36,0Z"/>
        <path class="cls-3" d="M73.38,59.51v-1.93s-.96,1.61-.96,1.61h-.17l-.96-1.6v1.92h-.36v-2.65h.31l1.1,1.86,1.09-1.86h.31v2.65s-.36,0-.36,0Z"/>
        <path class="cls-3" d="M76.98,58.84h-1.41l-.29.66h-.39l1.2-2.65h.37l1.2,2.65h-.4l-.29-.66ZM76.85,58.54l-.57-1.3-.57,1.3h1.14Z"/>
        <path class="cls-3" d="M78.82,56.86h.38v2.65h-.38v-2.65Z"/>
        <path class="cls-3" d="M80.94,59.44c-.19-.06-.33-.14-.44-.24l.14-.3c.1.09.23.16.39.22.16.06.32.09.49.09.22,0,.38-.04.49-.11.11-.07.16-.17.16-.3,0-.09-.03-.16-.09-.22-.06-.06-.13-.1-.22-.13-.09-.03-.21-.06-.37-.1-.2-.05-.36-.1-.48-.14-.12-.05-.23-.12-.31-.22-.09-.1-.13-.23-.13-.4,0-.14.04-.27.11-.38.07-.11.19-.2.34-.27.15-.07.34-.1.56-.1.16,0,.31.02.46.06s.28.1.39.17l-.12.3c-.11-.07-.23-.12-.36-.16-.13-.04-.25-.05-.37-.05-.21,0-.38.04-.48.12s-.16.18-.16.3c0,.09.03.16.09.22.06.06.14.1.23.13.09.03.21.07.37.1.2.05.36.1.48.14.12.05.23.12.31.22.09.1.13.23.13.4,0,.14-.04.27-.11.38-.08.11-.19.21-.34.27-.15.07-.34.1-.57.1-.2,0-.39-.03-.58-.09Z"/>
        <path class="cls-3" d="M87.47,57.1c.2.16.3.39.3.68s-.1.51-.3.68c-.2.16-.47.25-.81.25h-.65v.8h-.38v-2.65h1.03c.34,0,.61.08.81.25ZM87.2,58.22c.13-.1.19-.25.19-.44s-.06-.34-.19-.44-.31-.15-.55-.15h-.64v1.19h.64c.24,0,.42-.05.55-.15Z"/>
        <path class="cls-3" d="M90.89,59.51l-.57-.81c-.07,0-.13,0-.17,0h-.65v.81h-.38v-2.65h1.03c.34,0,.61.08.81.25.2.16.3.39.3.68,0,.2-.05.38-.15.52-.1.14-.24.25-.43.31l.63.89h-.41ZM90.69,58.22c.13-.1.19-.25.19-.44s-.06-.34-.19-.44-.31-.15-.55-.15h-.64v1.19h.64c.24,0,.42-.05.55-.16Z"/>
        <path class="cls-3" d="M94.55,59.18v.33h-1.92v-2.65h1.87v.33h-1.49v.81h1.33v.32h-1.33v.86h1.54Z"/>
        <path class="cls-3" d="M96.39,59.36c-.21-.12-.38-.28-.5-.48-.12-.21-.18-.44-.18-.69s.06-.49.18-.69.29-.37.5-.48c.21-.12.45-.18.72-.18.21,0,.4.03.57.1s.32.17.44.31l-.25.24c-.2-.21-.45-.31-.75-.31-.2,0-.37.04-.53.13-.16.09-.28.21-.37.37-.09.16-.13.33-.13.52s.04.37.13.52c.09.16.21.28.37.37.16.09.34.13.53.13.3,0,.54-.11.75-.32l.25.24c-.12.14-.27.24-.44.31-.17.07-.36.11-.57.11-.26,0-.5-.06-.72-.18Z"/>
        <path class="cls-3" d="M99.41,56.86h.38v2.65h-.38v-2.65Z"/>
        <path class="cls-3" d="M101.54,59.44c-.19-.06-.33-.14-.44-.24l.14-.3c.1.09.23.16.39.22.16.06.32.09.49.09.22,0,.38-.04.49-.11.11-.07.16-.17.16-.3,0-.09-.03-.16-.09-.22-.06-.06-.13-.1-.22-.13-.09-.03-.21-.06-.37-.1-.2-.05-.36-.1-.48-.14-.12-.05-.23-.12-.31-.22-.09-.1-.13-.23-.13-.4,0-.14.04-.27.11-.38.07-.11.19-.2.34-.27.15-.07.34-.1.56-.1.16,0,.31.02.46.06s.28.1.39.17l-.12.3c-.11-.07-.23-.12-.36-.16-.13-.04-.25-.05-.37-.05-.21,0-.38.04-.48.12s-.16.18-.16.3c0,.09.03.16.09.22.06.06.14.1.23.13.09.03.21.07.37.1.2.05.36.1.48.14.12.05.23.12.31.22.09.1.13.23.13.4,0,.14-.04.27-.11.38-.08.11-.19.21-.34.27-.15.07-.34.1-.57.1-.2,0-.39-.03-.58-.09Z"/>
        <path class="cls-3" d="M106.13,58.84h-1.41l-.29.66h-.39l1.2-2.65h.37l1.2,2.65h-.4l-.29-.66ZM106,58.54l-.57-1.3-.57,1.3h1.14Z"/>
      </g>
      <g>
        <polygon class="cls-2" points="90.27 55.14 110.38 42.64 90.27 30.15 90.25 30.1 90.23 30.12 90.2 30.1 90.2 30.13 70.08 42.64 90.2 55.15 90.2 55.18 90.23 55.17 90.25 55.18 90.27 55.14"/>
        <path class="cls-7" d="M98.72,42.64c0-4.69-3.79-8.49-8.47-8.51h0s-.01,0-.02,0-.01,0-.02,0h0c-4.68.03-8.47,3.83-8.47,8.52s3.79,8.49,8.47,8.51h0s.01,0,.02,0,.01,0,.02,0h0c4.68-.03,8.47-3.83,8.47-8.52"/>
      </g>
      <g>
        <path class="cls-7" d="M72.36,50.57c4.38,0,7.52-3.55,7.52-7.92s-3.55-7.92-7.92-7.92"/>
        <rect class="cls-2" x="67.08" y="34.72" width="5.28" height="15.85"/>
      </g>
      <g>
        <path class="cls-7" d="M44.18,50.57c4.38,0,7.52-3.55,7.52-7.92s-3.55-7.92-7.92-7.92"/>
        <rect class="cls-2" x="38.9" y="34.72" width="5.28" height="15.85"/>
      </g>
      <rect class="cls-5" x="32.13" y="34.72" width="5.28" height="15.85"/>
      <g>
        <polygon class="cls-4" points="58.12 34.07 61.96 42.33 65.81 50.59 58.12 50.59 50.43 50.59 54.28 42.33 58.12 34.07"/>
        <polygon class="cls-6" points="58.12 34.07 61.96 42.33 62.5 43.48 53.74 43.48 54.28 42.33 58.12 34.07"/>
      </g>
      <g>
        <polygon class="cls-6" points="18.19 34.72 24.54 34.72 24.54 42.64 18.19 42.64 18.19 34.72"/>
        <path class="cls-4" d="M24.54,50.57c-3.49,0-6.35-2.86-6.35-6.35v-1.58h6.35v7.92Z"/>
        <polygon class="cls-6" points="30.89 34.72 24.54 34.72 24.54 42.64 30.89 42.64 30.89 34.72"/>
        <path class="cls-4" d="M24.54,50.57c3.49,0,6.35-2.86,6.35-6.35v-1.58h-6.35v7.92Z"/>
      </g>
      <g>
        <path class="cls-2" d="M3.4,36.41c-3.43,3.43-3.45,9,0,12.45,3.43,3.43,9,3.45,12.45,0,.26-.26.49-.53.7-.81l-6.03-6.03-.29-.29-6.03-6.03c-.28.22-.55.45-.8.7Z"/>
        <path class="cls-7" d="M15.85,36.42c-3.43-3.43-9-3.45-12.45,0-3.43,3.43-3.45,9,0,12.45.26.26.53.49.81.7l6.03-6.03.29-.29,6.03-6.03c-.22-.28-.45-.55-.7-.8Z"/>
      </g>
    </g>
  </g>
</svg>