<?xml version="1.0" encoding="UTF-8"?>
<svg id="Layer_2" xmlns="http://www.w3.org/2000/svg" version="1.1" viewBox="0 0 223.3 100.1">
  <!-- Generator: Adobe Illustrator 29.4.0, SVG Export Plug-In . SVG Version: 2.1.0 Build 152)  -->
  <defs>
    <style>
      .st0 {
        fill: none;
      }

      .st1 {
        fill: #ffcf00;
      }

      .st2 {
        fill: #212121;
      }

      .st3 {
        fill: #3d3d3d;
      }

      .st4 {
        fill: #00cf00;
      }

      .st5 {
        fill: red;
      }

      .st6 {
        fill: #173dff;
      }
    </style>
  </defs>
  <g id="Layer_1-2">
    <rect class="st0" x=".9" y="22.6" width="210" height="94.9"/>
    <g>
      <polygon class="st2" points="6.1 58 6.1 54 4.5 57 4 57 2.3 54 2.3 58 1.5 58 1.5 52.5 2.4 52.5 4.2 55.8 6.1 52.5 7 52.5 7 58 6.1 58"/>
      <rect class="st2" x="9.8" y="52.5" width=".9" height="5.5"/>
      <polygon class="st2" points="14.4 54.1 14.4 58 13.5 58 13.5 52.5 14.2 52.5 17.4 56.5 17.4 52.5 18.2 52.5 18.2 58 17.5 58 14.4 54.1"/>
      <rect class="st2" x="21.1" y="52.5" width=".9" height="5.5"/>
      <path class="st2" d="M28,53.8c-.1,0-.3-.3-.6-.4-.3,0-.6-.2-.9-.2s-.6,0-.8.2-.3.3-.3.6,0,0,0,.2v.2c0,0,0,0,.1,0h1.2c.2,0,.5,0,.6.2s.3,0,.5.2c.2,0,.3.2.4.3s.2.2.2.4v.5c0,.2,0,.4-.1.6,0,.2-.2.3-.3.5-.1,0-.3.2-.4.3-.2,0-.4,0-.6.2h-.6c-.4,0-.8,0-1.2-.2-.4,0-.7-.3-1.1-.6l.4-.7c.2.2.4.3.8.5s.7.2,1.1.2.6,0,.8-.2c.2,0,.3-.3.3-.5v-.2l-.2-.2s-.1,0-.2-.2h-1.2c-.3,0-.5-.2-.7-.2s-.4-.2-.5-.3-.2-.3-.3-.4c0-.2-.1-.3-.1-.6s0-.5.2-.7.2-.4.4-.5.4-.2.6-.3h.8c.7,0,1.3.2,1.9.6l-.4.7h0l.2.2v-.2Z"/>
      <polygon class="st2" points="35.2 53.2 33.3 53.2 33.3 58 32.4 58 32.4 53.2 30.6 53.2 30.6 52.5 35.2 52.5 35.2 53.2"/>
      <path class="st2" d="M39.7,51.9l-.6-.2.4-.9h.8l-.7,1h0ZM41.3,57.2v.8h-3.8v-5.5h3.7v.8h-2.9v1.6h2.5v.7h-2.5v1.7h3Z"/>
      <path class="st2" d="M44.6,55.3h1.5c.2,0,.4,0,.6-.3.2-.2.2-.4.2-.7s0-.5-.3-.7-.4-.3-.6-.3h-1.5v2.1h0ZM43.7,58v-5.5h2.4c.2,0,.5,0,.7.2.2,0,.4.2.6.4.2.2.3.4.4.6s0,.4,0,.7,0,.7-.3,1-.5.5-.8.6l1.3,2.1h-1l-1.2-1.9h-1.3v1.9h-.9,0Z"/>
      <rect class="st2" x="50.5" y="52.5" width=".9" height="5.5"/>
      <path class="st2" d="M56.5,57.2c.3,0,.5,0,.7-.2.2,0,.4-.3.6-.5,0-.2.3-.4.3-.6v-1.5c0-.3-.2-.5-.4-.6-.2-.2-.3-.3-.6-.4-.2,0-.5-.2-.7-.2s-.5,0-.7.2-.4.3-.6.5c0,.2-.3.4-.3.6v.7c0,.4,0,.7.2,1s.4.6.6.7.6.3.9.3M53.8,55.2c0-.4,0-.7.2-1.1s.3-.6.6-.9.5-.5.8-.6c.3-.2.7-.2,1.1-.2s.7,0,1.1.2.6.4.8.6c.2.3.4.6.5.9,0,.3.2.7.2,1s0,.7-.2,1.1-.3.6-.6.9-.5.5-.8.6-.7.2-1.1.2-.6,0-.9-.2c-.3,0-.5-.2-.7-.4l-.6-.6c-.2-.2-.3-.5-.4-.8s0-.6,0-.8"/>
      <path class="st2" d="M67,53.2h-1.1v4h1.1c.4,0,.7,0,1-.3.3-.2.5-.4.6-.7s.2-.6.2-1c0-.6-.2-1.1-.5-1.4-.3-.4-.8-.6-1.3-.6M65.1,58v-5.5h2c.4,0,.8,0,1.2.2.4,0,.6.3.9.6.2.3.4.5.5.9,0,.3.2.7.2,1.1,0,.8-.2,1.5-.7,2s-1.1.8-2,.8h-2.1Z"/>
      <path class="st2" d="M74.9,55.8l-.9-2.4-.9,2.4h1.8ZM73.6,52.5h.8l2.2,5.5h-.9l-.6-1.5h-2.1l-.6,1.5h-.9l2.2-5.5h0Z"/>
      <path class="st2" d="M48.3,65.2h-.2s-.2,0-.3-.2-.2,0-.4,0h-.4c-.3,0-.4,0-.4.3s0,0,0,0h1c.2,0,.4,0,.6.2s.3.2.5.2.3.2.4.3c0,0,.2.2.2.4v1.2c0,.2-.2.4-.3.5s-.3.2-.5.3c-.2,0-.4,0-.6.2h-.6c-.4,0-.8,0-1.3-.2s-.8-.3-1.2-.5l.7-1.3h.3s.3,0,.4.2c0,0,.3,0,.5.2h.5c.3,0,.4,0,.4-.2v-.2c0,0,0,0-.2,0h-1.1c-.5-.2-.9-.4-1.1-.6s-.3-.6-.3-1,0-.6.2-.8c0-.2.3-.4.5-.6s.4-.3.7-.4h.8c.6,0,1.3.2,2.1.6l-.7,1.3h0l-.2.5v-.4Z"/>
      <path class="st2" d="M53.8,66.9l-.5-2-.5,2h1ZM52.4,63.4h1.7l1.8,5.5h-1.5l-.3-1.1h-1.5l-.3,1.1h-1.6l1.8-5.5h-.1Z"/>
      <path class="st2" d="M60.6,63.2l-.9-.2.4-1.1h1.3l-.8,1.4h0ZM60.2,69h-.9c-.3,0-.5-.2-.7-.4s-.4-.4-.5-.6c0-.2-.2-.5-.3-.7v-3.8h1.5v3.4c0,.2,0,.3.2.4,0,0,.2.2.3.3h.9s.2-.2.3-.3c0,0,0-.3.2-.4v-3.4h1.5v2.9c0,.4,0,.8-.2,1.1,0,.3-.3.6-.5.9-.2.2-.5.4-.8.6-.3,0-.7.2-1.1.2"/>
      <path class="st2" d="M67.2,64.7h-.6v2.9h.6c.4,0,.7,0,.9-.4.2-.3.3-.6.3-1.1s0-.8-.3-1-.5-.4-.9-.4M65.1,69v-5.5h2.1c.4,0,.9,0,1.2.2s.7.3.9.6.4.6.5.9c0,.3.2.7.2,1.1,0,.8-.3,1.5-.8,2s-1.2.8-2,.8h-2.1,0Z"/>
      <polygon class="st2" points="76.2 67.6 76.2 69 72.3 69 72.3 63.4 76.1 63.4 76.1 64.7 73.8 64.7 73.8 65.5 75.8 65.5 75.8 66.8 73.8 66.8 73.8 67.6 76.2 67.6"/>
      <path d="M121.3,86.2h-.7c-.2,0-.4-.2-.5-.3s-.2-.3-.3-.5-.2-.4-.2-.6v-2.7h.6v2.9s0,.2.2.3c0,0,.2.2.3.2h.8s.2,0,.3-.2c0,0,.2-.2.2-.3v-2.9h.7v2.9c0,.2-.2.5-.3.6,0,.2-.3.3-.6.4-.2,0-.5.2-.8.2"/>
      <polygon points="125.7 83.3 125.7 86.1 125.1 86.1 125.1 82 125.6 82 127.9 85 127.9 82 128.6 82 128.6 86.1 128 86.1 125.7 83.3"/>
      <rect x="130.7" y="82" width=".7" height="4.1"/>
      <path d="M135.6,84.5l-.7-1.8-.7,1.8s1.4,0,1.4,0ZM134.5,81.3h-.6v-.5c0,0,0,0,.2,0h1.4v.5l-.2.2h-1M134.6,82h.6l1.6,4.1h-.7l-.4-1.1h-1.6l-.4,1.1h-.7l1.6-4.1h0Z"/>
      <path d="M140,85.6h.6c.2,0,.3-.2.4-.3.1,0,.2-.3.2-.5v-1.1c0-.2-.2-.3-.3-.5,0,0-.2-.2-.4-.3h-1.1c-.2,0-.3.2-.4.3s-.2.3-.3.5v.5c0,.3,0,.5.2.7,0,.2.3.4.5.6s.4.2.7.2M138,84.1c0-.3,0-.5.2-.8,0-.3.2-.5.4-.7s.4-.3.6-.5c.2,0,.5-.2.8-.2s.6,0,.8.2c.2,0,.5.3.6.5.2.2.3.4.4.7,0,.2.1.5.1.8s0,.5-.2.8-.2.5-.4.7-.4.3-.6.5c-.2,0-.5.2-.8.2h-.7c-.3,0-.4-.2-.5-.3-.2,0-.3-.3-.4-.5s-.2-.4-.3-.6v-.6"/>
      <polygon points="149.2 85.6 149.2 86.1 146.4 86.1 146.4 82 149.1 82 149.1 82.6 147 82.6 147 83.8 148.9 83.8 148.9 84.3 147 84.3 147 85.6 149.2 85.6"/>
      <path d="M154.2,84.1h1.1c.2,0,.3,0,.4-.2.1-.2.2-.3.2-.5s0-.4-.2-.5c-.1,0-.3-.2-.5-.2h-1.1v1.5h.1ZM153.6,86.1v-4.1h2.3c.2,0,.3.2.4.3s.2.3.3.4v.5c0,.3,0,.5-.2.8-.1.2-.3.4-.6.5l1,1.6h-.7l-.9-1.4h-1v1.4s-.6,0-.6,0Z"/>
      <polygon points="161.4 85.6 161.4 86.1 158.6 86.1 158.6 82 161.3 82 161.3 82.6 159.2 82.6 159.2 83.8 161 83.8 161 84.3 159.2 84.3 159.2 85.6 161.4 85.6"/>
      <path d="M164.8,82c.4,0,.7,0,.9.2s.5.4.6.7l-.5.3s-.1-.2-.2-.3c0,0-.2-.2-.3-.2h-1.1c-.1,0-.3,0-.4.2-.1,0-.2.2-.3.3,0,0-.1.3-.2.4v.4c0,.3,0,.5.2.7s.3.4.5.6c.2,0,.4.2.7.2h.4c.1,0,.3,0,.4-.2.1,0,.2-.2.3-.4l.5.3c0,.2-.2.4-.4.5-.2.2-.4.3-.6.3h-.7c-.3,0-.5,0-.8-.2-.2,0-.5-.3-.6-.5-.2-.2-.3-.4-.4-.7,0-.2-.1-.5-.1-.8v-.6c0-.2.1-.4.3-.6.1-.2.2-.3.4-.5.2,0,.3-.2.6-.3h.7"/>
      <path d="M169.9,85.6h.6c.2,0,.3-.2.4-.3.1,0,.2-.3.2-.5v-1.1c0-.2-.2-.3-.3-.5-.1,0-.2-.2-.4-.3h-1.1c-.2,0-.3.2-.4.3s-.2.3-.3.5v.5c0,.3,0,.5.2.7s.3.4.5.6c.2,0,.4.2.7.2M167.9,84.1c0-.3,0-.5.2-.8,0-.3.2-.5.4-.7s.4-.3.6-.5c.2,0,.5-.2.8-.2s.6,0,.8.2c.2,0,.5.3.6.5.2.2.3.4.4.7,0,.2.1.5.1.8s0,.5-.2.8-.2.5-.4.7-.4.3-.6.5c-.2,0-.5.2-.8.2h-.7c-.3,0-.4-.2-.5-.3s-.3-.3-.4-.5c-.1-.2-.2-.4-.3-.6v-.6"/>
      <polygon points="174.3 83.3 174.3 86.1 173.7 86.1 173.7 82 174.2 82 176.5 85 176.5 82 177.2 82 177.2 86.1 176.6 86.1 174.3 83.3"/>
      <path d="M181.7,83s-.2-.2-.5-.3h-.7c-.3,0-.5,0-.6.2-.1,0-.2.2-.2.4v.2h0c0,.2,0,0,.1.2h1.3c.1,0,.2,0,.4.2.1,0,.2,0,.3.2s.1.2.2.3v.8s-.1.2-.2.3c0,0-.2.2-.3.2h-1.8c-.3,0-.6-.2-.8-.4l.3-.6c.1,0,.3.2.6.4s.5.2.8.2h.6c.1,0,.2-.2.2-.4s0,0,0-.2h-1.1c-.2,0-.4,0-.5-.2-.1,0-.3,0-.4-.2-.1,0-.2-.2-.2-.3v-.4c0-.2,0-.4.1-.5,0-.2.2-.3.3-.4s.3-.2.5-.2h.6c.5,0,1,.2,1.4.5l-.3.5h0v-.5Z"/>
      <polygon points="186.9 82.6 185.6 82.6 185.6 86.1 184.9 86.1 184.9 82.6 183.6 82.6 183.6 82 186.9 82 186.9 82.6"/>
      <path d="M189.3,84.1h1.1c.2,0,.3,0,.4-.2.1-.2.2-.3.2-.5s0-.4-.2-.5c-.1,0-.3-.2-.5-.2h-1.1v1.5h.1ZM188.6,86.1v-4.1h2.3c.2,0,.3.2.4.3s.2.3.3.4v.5c0,.3,0,.5-.2.8-.1.2-.3.4-.6.5l1,1.6h-.7l-.9-1.4h-1v1.4s-.6,0-.6,0Z"/>
      <path d="M195.3,86.2h-.7c-.2,0-.4-.2-.5-.3s-.2-.3-.3-.5c0-.2-.2-.4-.2-.6v-2.7h.7v2.5s0,.3.1.4c0,0,.1.2.2.3s.2.2.3.2h.8s.2,0,.3-.2c0,0,.2-.2.2-.3s0-.3.1-.4v-2.5h.7v2.1c0,.3,0,.6-.1.8s-.2.5-.3.6c-.1.2-.3.3-.6.4s-.5.2-.8.2"/>
      <path d="M202.5,85.2c-.1.2-.3.5-.5.6-.3.2-.5.3-.8.3.2.2.3.4.3.6s0,.3-.2.4-.3,0-.5,0-.5,0-.7-.2l.2-.3h.7v-.2c0-.2-.1-.3-.3-.4-.3,0-.5,0-.7-.2-.2,0-.4-.3-.6-.5-.2-.2-.3-.4-.4-.7,0-.2-.1-.5-.1-.7v-.6c0-.2.1-.4.3-.6.1-.2.2-.3.4-.5.2,0,.3-.2.6-.3h.7c.3,0,.7,0,.9.2s.5.4.6.7l-.5.3s-.1-.2-.2-.3c0,0-.2-.2-.3-.2h-1.1c-.1,0-.3,0-.4.2l-.3.3s-.1.3-.2.4v.4c0,.3,0,.5.2.7s.3.4.5.6c.2,0,.4.2.7.2h.4c.1,0,.3,0,.4-.2.1,0,.2-.2.3-.4l.5.3h.1Z"/>
      <path d="M206.3,84.5l-.7-1.8-.7,1.8h1.4ZM205.3,81.3h-.6v-.5h1.7v.5c-.1,0-.2,0-.3.2h-1M205.3,82h.6l1.6,4.1h-.7l-.4-1.1h-1.6l-.4,1.1h-.7l1.6-4.1h0Z"/>
      <path d="M210.8,85.6h.6c.2,0,.3-.2.4-.3.1,0,.2-.3.2-.5v-1.1c0-.2-.2-.3-.3-.5-.1,0-.2-.2-.4-.3h-1.1c-.2,0-.3.2-.4.3s-.2.3-.3.5v.5c0,.3,0,.5.2.7s.3.4.5.6c.2,0,.4.2.7.2M208.8,84.1c0-.3,0-.5.2-.8.1-.3.2-.5.4-.7s.4-.3.6-.5c.2,0,.5-.2.8-.2s.6,0,.8.2c.2,0,.5.3.6.5.2.2.3.4.4.7,0,.2.1.5.1.8s0,.5-.2.8c0,.2-.2.5-.4.7s-.4.3-.6.5c-.2,0-.5.2-.8.2h-.7c-.3,0-.4-.2-.6-.3s-.3-.3-.4-.5c-.1-.2-.2-.4-.3-.6v-.6"/>
      <polygon class="st4" points="141.5 64.8 130.7 64.8 130.7 75.7 148.6 75.7 141.5 64.8"/>
      <polygon class="st1" points="159.7 48.2 143.4 75.7 176.1 75.7 159.7 48.2"/>
      <rect class="st1" x="203.3" y="48.2" width="9.5" height="18.3"/>
      <rect class="st6" x="212.8" y="66.5" width="9.5" height="9.2"/>
      <rect class="st3" x="203.3" y="66.5" width="9.5" height="9.2"/>
      <rect class="st5" x="171.3" y="60.4" width="9" height="15.3"/>
      <polygon class="st3" points="143.4 75.7 148.6 75.7 145.9 71.5 143.4 75.7"/>
      <polygon class="st3" points="171.3 67.7 171.3 75.7 176.1 75.7 171.3 67.7"/>
      <rect class="st4" x="192.2" y="48.2" width="9.5" height="27.5"/>
      <path class="st6" d="M138.6,64.8h2.9c4.6,0,8.3-3.7,8.3-8.3s-3.7-8.3-8.3-8.3h-10.8v16.6h7.9Z"/>
      <rect class="st6" x="180.3" y="48.2" width="10.3" height="10"/>
      <path class="st1" d="M183.5,58.2h-3.1v17.5h3.1c4.8,0,8.8-3.9,8.8-8.7s-3.9-8.7-8.8-8.7"/>
      <path class="st4" d="M177.4,48.2c-3.4,0-6.1,2.7-6.1,6.1s2.7,6.1,6.1,6.1h2.9v-12.2s-2.9,0-2.9,0Z"/>
      <path class="st5" d="M118.4,75.7h4c4.6,0,8.2-3.7,8.2-8.2s-3.7-8.2-8.2-8.2h-12.6v16.5h8.6Z"/>
      <path class="st6" d="M109.8,59.2h11.7c3.1,0,5.5-2.5,5.5-5.5s-2.5-5.5-5.5-5.5h-11.7v11Z"/>
      <rect class="st4" x="109.8" y="48.2" width="9.5" height="11"/>
      <rect class="st1" x="109.8" y="59.2" width="9.5" height="16.5"/>
      <polygon class="st1" points="141.5 64.8 130.7 48.2 130.7 64.8 141.5 64.8"/>
      <path class="st6" d="M169.8,75.7c0-5.5-4.5-10-10-10s-10,4.5-10,10h20.1-.1Z"/>
      <path d="M124.7,39.6v.4c0,1.6-1.1,2.7-2.5,2.7s-2.7-1.2-2.7-2.7,1.2-2.7,2.7-2.7,1.8.5,2.3,1.3l-1.2.7c-.2-.4-.7-.7-1.1-.7-.8,0-1.3.6-1.3,1.4s.6,1.3,1.3,1.3.9-.3,1-.6h-1.4v-1.1h2.9,0Z"/>
      <path d="M130.6,39.9c0-.7-.5-1.3-1.2-1.3s-1.2.6-1.2,1.3.5,1.3,1.2,1.3,1.2-.6,1.2-1.3M126.7,39.9c0-1.5,1.2-2.7,2.7-2.7s2.7,1.2,2.7,2.7-1.2,2.7-2.7,2.7-2.7-1.2-2.7-2.7"/>
      <polygon points="138.9 37.3 136.9 42.5 135.5 42.5 133.5 37.3 135 37.3 136.2 40.5 137.4 37.3 138.9 37.3"/>
      <polygon points="142.2 38.6 142.2 39.4 143.7 39.4 143.7 40.5 142.2 40.5 142.2 41.3 144.5 41.3 144.5 42.5 140.8 42.5 140.8 37.3 144.5 37.3 144.5 38.6 142.2 38.6"/>
      <path d="M148.1,39.6h1c.3,0,.5-.2.5-.5s-.2-.5-.5-.5h-1v1ZM148.7,40.7h-.6v1.8h-1.4v-5.2h2.5c1,0,1.8.7,1.8,1.7s-.4,1.2-.9,1.5l1.2,2h-1.6l-1-1.8h0Z"/>
      <polygon points="157.9 37.3 157.9 42.5 156.7 42.5 154.6 39.8 154.6 42.5 153.2 42.5 153.2 37.3 154.4 37.3 156.5 40.1 156.5 37.3 157.9 37.3"/>
      <path d="M163.9,39.9c0-.7-.5-1.3-1.2-1.3s-1.2.6-1.2,1.3.5,1.3,1.2,1.3,1.2-.6,1.2-1.3M159.9,39.9c0-1.5,1.2-2.7,2.7-2.7s2.7,1.2,2.7,2.7-1.2,2.7-2.7,2.7-2.7-1.2-2.7-2.7"/>
      <polygon points="172.3 38.6 172.3 39.5 173.8 39.5 173.8 40.6 172.3 40.6 172.3 42.5 170.9 42.5 170.9 37.3 174.6 37.3 174.6 38.6 172.3 38.6"/>
      <polygon points="178.1 38.6 178.1 39.4 179.7 39.4 179.7 40.5 178.1 40.5 178.1 41.3 180.5 41.3 180.5 42.5 176.7 42.5 176.7 37.3 180.5 37.3 180.5 38.6 178.1 38.6"/>
      <path d="M186.1,39.9c0-.8-.6-1.3-1.4-1.3h-.6v2.5h.6c.8,0,1.4-.5,1.4-1.3M187.5,39.9c0,1.5-1.2,2.6-2.8,2.6h-2.1v-5.2h2.1c1.6,0,2.8,1.1,2.8,2.6"/>
      <polygon points="191 38.6 191 39.4 192.5 39.4 192.5 40.5 191 40.5 191 41.3 193.3 41.3 193.3 42.5 189.6 42.5 189.6 37.3 193.3 37.3 193.3 38.6 191 38.6"/>
      <path d="M196.9,39.6h1c.3,0,.5-.2.5-.5s-.2-.5-.5-.5h-1v1ZM197.5,40.7h-.6v1.8h-1.4v-5.2h2.5c1,0,1.8.7,1.8,1.7s-.4,1.2-.9,1.5l1.2,2h-1.6l-1-1.8h0Z"/>
      <path d="M205,40.4l-.5-1.3-.5,1.3h1ZM205.5,41.7h-2.1l-.4.9h-1.5l2.2-5.2h1.3l2.2,5.2h-1.5l-.4-.9h.2Z"/>
      <polygon points="212.8 41.2 212.8 42.5 209.2 42.5 209.2 37.3 210.6 37.3 210.6 41.2 212.8 41.2"/>
      <path d="M124.7,39.6v.4c0,1.6-1.1,2.7-2.5,2.7s-2.7-1.2-2.7-2.7,1.2-2.7,2.7-2.7,1.8.5,2.3,1.3l-1.2.7c-.2-.4-.7-.7-1.1-.7-.8,0-1.3.6-1.3,1.4s.6,1.3,1.3,1.3.9-.3,1-.6h-1.4v-1.1h2.9,0Z"/>
      <path d="M130.6,39.9c0-.7-.5-1.3-1.2-1.3s-1.2.6-1.2,1.3.5,1.3,1.2,1.3,1.2-.6,1.2-1.3M126.7,39.9c0-1.5,1.2-2.7,2.7-2.7s2.7,1.2,2.7,2.7-1.2,2.7-2.7,2.7-2.7-1.2-2.7-2.7"/>
      <polygon points="138.9 37.3 136.9 42.5 135.5 42.5 133.5 37.3 135 37.3 136.2 40.5 137.4 37.3 138.9 37.3"/>
      <polygon points="142.2 38.6 142.2 39.4 143.7 39.4 143.7 40.5 142.2 40.5 142.2 41.3 144.5 41.3 144.5 42.5 140.8 42.5 140.8 37.3 144.5 37.3 144.5 38.6 142.2 38.6"/>
      <path d="M148.1,39.6h1c.3,0,.5-.2.5-.5s-.2-.5-.5-.5h-1v1ZM148.7,40.7h-.6v1.8h-1.4v-5.2h2.5c1,0,1.8.7,1.8,1.7s-.4,1.2-.9,1.5l1.2,2h-1.6l-1-1.8h0Z"/>
      <polygon points="157.9 37.3 157.9 42.5 156.7 42.5 154.6 39.8 154.6 42.5 153.2 42.5 153.2 37.3 154.4 37.3 156.5 40.1 156.5 37.3 157.9 37.3"/>
      <path d="M163.9,39.9c0-.7-.5-1.3-1.2-1.3s-1.2.6-1.2,1.3.5,1.3,1.2,1.3,1.2-.6,1.2-1.3M159.9,39.9c0-1.5,1.2-2.7,2.7-2.7s2.7,1.2,2.7,2.7-1.2,2.7-2.7,2.7-2.7-1.2-2.7-2.7"/>
      <polygon points="172.3 38.6 172.3 39.5 173.8 39.5 173.8 40.6 172.3 40.6 172.3 42.5 170.9 42.5 170.9 37.3 174.6 37.3 174.6 38.6 172.3 38.6"/>
      <polygon points="178.1 38.6 178.1 39.4 179.7 39.4 179.7 40.5 178.1 40.5 178.1 41.3 180.5 41.3 180.5 42.5 176.7 42.5 176.7 37.3 180.5 37.3 180.5 38.6 178.1 38.6"/>
      <path d="M186.1,39.9c0-.8-.6-1.3-1.4-1.3h-.6v2.5h.6c.8,0,1.4-.5,1.4-1.3M187.5,39.9c0,1.5-1.2,2.6-2.8,2.6h-2.1v-5.2h2.1c1.6,0,2.8,1.1,2.8,2.6"/>
      <polygon points="191 38.6 191 39.4 192.5 39.4 192.5 40.5 191 40.5 191 41.3 193.3 41.3 193.3 42.5 189.6 42.5 189.6 37.3 193.3 37.3 193.3 38.6 191 38.6"/>
      <path d="M196.9,39.6h1c.3,0,.5-.2.5-.5s-.2-.5-.5-.5h-1v1ZM197.5,40.7h-.6v1.8h-1.4v-5.2h2.5c1,0,1.8.7,1.8,1.7s-.4,1.2-.9,1.5l1.2,2h-1.6l-1-1.8h0Z"/>
      <path d="M205,40.4l-.5-1.3-.5,1.3h1ZM205.5,41.7h-2.1l-.4.9h-1.5l2.2-5.2h1.3l2.2,5.2h-1.5l-.4-.9h.2Z"/>
      <polygon points="212.8 41.2 212.8 42.5 209.2 42.5 209.2 37.3 210.6 37.3 210.6 41.2 212.8 41.2"/>
    </g>
  </g>
</svg>