<?xml version="1.0" encoding="UTF-8"?>
<svg id="Layer_2" xmlns="http://www.w3.org/2000/svg" version="1.1" viewBox="0 0 56.8 100.1">
  <!-- Generator: Adobe Illustrator 30.0.0, SVG Export Plug-In . SVG Version: 2.1.1 Build 123)  -->
  <defs>
    <style>
      .st0, .st1 {
        fill: #055ca8;
      }

      .st2 {
        fill: #45b549;
      }

      .st1 {
        fill-rule: evenodd;
      }

      .st3 {
        fill: #ffd008;
      }
    </style>
  </defs>
  <path class="st2" d="M4.2,60.6c-.3,0-.7-.2-.7-.2,0,0,.4-.3.5-.3.3-.2.6-.5.8-.7h-1.6c-.4.4-.8.7-1.2,1v1c.6,0,1.8,0,1.7,1,0,.6-.5.9-1.1,1-.6,0-1.3-.4-1.7-.8l-.3,1.4h0c1,.8,2.7.9,3.7.2h0c.6-.4.9-1.1.9-1.8s0-.8-.4-1.1c-.2-.3-.5-.4-.7-.5"/>
  <path class="st2" d="M4.9,59.2c.3-.4.3-.8.3-1.2H1.1v.3l-.3,1h4"/>
  <path class="st1" d="M12,55.8c-2.1,0-3.7-1.5-3.7-3.3v-6.2h2.8v6.5c0,.8.7,1.5,1.6,1.5s1.6-.7,1.6-1.5v-6.5h1.3v6.2c0,1.8-1.6,3.3-3.7,3.3M4.1,52l-1.7-.5c-1.1-.4-1.8-1.4-1.8-2.6s1.2-2.7,2.7-2.7h3.4v1.2h-2.4c-.5,0-.9.4-.9.9s.2.7.6.8l1.7.6c1.1.4,1.7,1.5,1.7,2.8s-1.3,3.1-3,3.1H.9v-1.4h3.1c.5,0,1-.5,1-1.1s-.3-.9-.8-1M20,52l-1.7-.5c-1.1-.4-1.9-1.4-1.9-2.6s1.2-2.7,2.7-2.7h3.4v1.2h-2.4c-.5,0-.9.4-.9.9s.2.7.6.8l1.7.6c1.2.4,1.8,1.5,1.8,2.8s-1.4,3.1-3.1,3.1h-3.6v-1.4h3.1c.5,0,1-.5,1-1.1s-.3-.9-.7-1"/>
  <path class="st1" d="M45.5,56.5h1.2v7.6c0-.8-.6-5.4-.5-6.9l-.7-.7M36.6,48.4h0l-1.3-1.3c-1.7,0-7.1-.6-8.9-.9v9.8c8.7.9,13.3,1.1,18.4.9h0l-8.4-8.5h.2ZM36.7,45.6h9.8v-9.5h-9.8v9.5ZM29.1,46.2c.6,0,6.4.6,6.7.6l9,9.2h11.6v-9.8h-27.4.1ZM45.5,57.4s-5.2.4-9.7,0c0,5.4.7,8.2.8,8.8h9.7c-.5-2.8-.8-7.4-.9-8.7"/>
  <path class="st3" d="M9.3,61.4c-.5-.9-1.5-1.1-2.3-1.6l-1.1-.6h3.4l.3-1.3h-3.6l-.5,2.7,2.6,1.4c.3.2.5.6.5.9s0,.7-.2,1c.4-.2.8-.5,1-.9.2-.5.2-1.2-.1-1.6"/>
  <path class="st3" d="M8,62.2l-2.5,1.2v.2c.2.3.4.6.6.9h.3c.6,0,1.5-.2,1.8-.9.2-.5,0-1.2-.3-1.5"/>
  <path class="st0" d="M20.7,61v-3h1.3v5.9h-.9c-.3,0-.4-.3-.6-.5s-.3-.4-.5-.6c-.3-.4-.6-.8-1-1.2-.2-.2-.4-.5-.6-.7h-.1v2.9h0c-.1,0-1.2,0-1.3,0h0v-5.9h0c.5,0,.9,0,1.2.3.9.8,1.7,2,2.4,2.8h.1"/>
  <path class="st0" d="M29.2,61c0,1.8-1.4,3.2-3.2,3.2s-3.2-1.4-3.2-3.2,1.4-3.2,3.2-3.2,3.2,1.4,3.2,3.2M25.8,59.2c-.8,0-1.1.7-1.2,1.4,0,1.2.3,2.3,1.7,2.1,1.1,0,1.1-1.5,1.1-2.3s-.7-1.4-1.6-1.3"/>
  <path class="st0" d="M16.5,64h-1.7c0-.2-.3-.9-.4-1h-2.4l-.4,1h-1.6l2.3-5.8c.2-.3.7-.3,1-.3s.6,0,.7.4l2.3,5.7h.2ZM13.9,61.7l-.7-1.9-.8,1.9h1.5Z"/>
  <path class="st0" d="M33.6,59.6c-.6-.2-1.2-.4-1.8-.4s-.8.6-.2.9c1,.5,2.2.4,2.3,1.9.2,2.5-3,2.8-4.3,1.3v-1.3h.3c0,0,.2.2.3.2.6.3,1.2.5,1.9.4.4,0,.3-.5,0-.7-.8-.6-2.3-.6-2.5-2-.3-2.3,2.4-2.7,3.9-1.7v1.4Z"/>
</svg>