<?xml version="1.0" encoding="UTF-8"?>
<svg id="Layer_2" xmlns="http://www.w3.org/2000/svg" version="1.1" viewBox="0 0 230 161.6">
  <!-- Generator: Adobe Illustrator 30.0.0, SVG Export Plug-In . SVG Version: 2.1.1 Build 123)  -->
  <defs>
    <style>
      .st0 {
        fill: none;
      }

      .st1 {
        fill: #010101;
      }

      .st2 {
        fill: #ffcf00;
      }

      .st3, .st4 {
        fill: #055ca8;
      }

      .st5 {
        fill: #005baa;
      }

      .st6 {
        fill: #1d1c1a;
      }

      .st7 {
        fill: #ffb000;
      }

      .st7, .st8, .st9, .st10, .st4 {
        fill-rule: evenodd;
      }

      .st11 {
        fill: #45b549;
      }

      .st12 {
        fill: #3d3d3d;
      }

      .st8 {
        fill: #1a69f9;
      }

      .st9 {
        fill: #f06;
      }

      .st10 {
        fill: #609;
      }

      .st13 {
        fill: #98241e;
      }

      .st14 {
        fill: #00cf00;
      }

      .st15 {
        fill: #f7f7f7;
      }

      .st16 {
        fill: #173dff;
      }

      .st17 {
        fill: #ffd008;
      }

      .st18 {
        fill: #ec2024;
      }
    </style>
  </defs>
  <g>
    <g id="Layer_1-2">
      <rect class="st0" x="133.6" y="-27.1" width="78.1" height="128.2"/>
      <g>
        <g>
          <g>
            <path d="M135,38.7h-1.6v.8h1.7c.1,0,0,0,0,0h-1.8v.9h1.8v.3c0,.3,0,0,0,0h-2.4v-3h2.5c.1,0,0,0,0,0h-.3v.5h0v.5Z"/>
            <path d="M138.4,40.5c0,.3,0,.4-.1.5s-.3.3-.4.4h-1.6c-.1,0-.3-.3-.4-.4s-.1-.3-.1-.4v-.3h.3c.3,0,0,0,.1,0s0,0,0,.3v.3c.2.3.1,0,.4,0h.9s.1-.3.1-.4v-.3h-.7c-.3,0-.4,0-.7-.3-.1,0-.3,0-.4-.3s-.1-.3-.1-.5,0-.4.1-.5.3-.3.4-.4h1.2c.1,0,.3,0,.4.3s.1,0,.3.3,0,0,0,.3v.3h-.3c-.3,0-.1,0-.1,0h0s-.1-.4-.3-.4h-.8q-.1,0-.1.3c0,.3,0,0,0,0h1.5q.1,0,.3.3c.2.3,0,.3,0,.4h0v.4h0Z"/>
            <path d="M141.9,40.5v.4s-.1.3-.3.4c0,0-.3.3-.4.3h-1.6s-.3,0-.4-.3c0,0-.1-.3-.3-.4,0,0,0-.3-.1-.4s0-.3,0-.5v-.8c0-.3.1-.4.4-.5s.3-.3.5-.4.4,0,.7,0h.8c.3,0,.4.3.5.4,0,0,.1.3.1.4v.3h-.3c-.3,0-.1,0-.1,0v-.3c-.1,0-.3-.3-.4-.4h-.4c-.3,0-.5,0-.7.3s-.3.5-.3.9v.7s.1.3.3.4.3,0,.5,0h.5c.1,0,.3-.3.3-.4v-.3h.6c.1,0,0,0,0,.3h.1Z"/>
            <path d="M144,38.1c.4,0,.7,0,.9.3.3,0,.4.4.5.7,0,.3.1.5.1.9v.7c0,.3-.1.4-.3.5-.1,0-.3.3-.5.4h-1.3c-.3,0-.4-.3-.5-.4s-.3-.4-.3-.5v-1.3c0-.3.1-.4.3-.5.1,0,.3-.3.5-.4s.4,0,.7,0h0v-.3h-.1ZM145.1,39.9v-.7c0-.3-.1-.3-.4-.4h-.9c-.1,0-.3,0-.3.3s-.1.3-.3.4,0,.3,0,.5v.5s0,.3.3.4.1,0,.3.3.3,0,.4,0h.5c.1,0,.3-.3.4-.4v-.7h0v-.2Z"/>
            <path d="M147,38.5v2.5h1.7c.1,0,0,0,0,.3v.3h-2.3v-3.2h.5v.3h0v-.2h0Z"/>
            <path d="M151.3,41.2v-.4h-1.6v.4c-.3,0-.3.3-.4.4s0,0-.3,0h-.3c-.1,0,0,0,0-.3s0,0,0,0v-.3l.9-2.2v-.5h.8v.5l.9,2.2v.7h-.3v-.3h.4v-.2ZM149.9,40.3h1.1l-.5-1.5-.5,1.5h-.1Z"/>
          </g>
          <g>
            <path d="M155,40.3h-.7v1.2h-.5v-3.2h2.4c.1,0,0,.3.3.4s0,.3,0,.4c0,.4,0,.7-.3.8s-.5.3-.9.3h-.3ZM154.8,38.7h-.4v1.1h1.1c.3,0,0,0,0-.3v-.4h-.7v-.4Z"/>
            <path d="M158.4,38.1c.4,0,.7,0,.9.3.3,0,.4.4.5.7s0,.5,0,.9v.7c0,.3,0,.4-.3.5,0,0-.3.3-.5.4h-1.3c-.3,0-.4-.3-.5-.4s-.3-.4-.3-.5v-1.3c0-.3,0-.4.3-.5s.3-.3.5-.4.4,0,.7,0h0v-.3h0,0ZM159.3,39.9v-.7q0-.3-.4-.4c-.4-.1-.3,0-.5,0h-.4s-.3,0-.3.3,0,.3-.3.4,0,.3,0,.5v.5s0,.3.3.4,0,0,.3.3.3,0,.4,0h.5l.4-.4v-.7h0v-.2Z"/>
            <path d="M161.3,38.5v2.5h1.7v.6h-2.3v-3.2h.5v.3h0v-.2h0Z"/>
            <path d="M163.6,41.2v-2.9h.5v3.2h-.5v-.3h0Z"/>
            <path d="M167.1,38.7h-.8v2.8h-.5v-2.8h-1.1v-.5h2.8v.5h-.4Z"/>
            <path d="M170.2,38.7h-1.6v.8h1.7-1.8v.9h1.8v.3c0,.3,0,0,0,0h-2.4v-3h2.4-.3v.5h0l.2.5ZM169.4,37.3h.3q0,.3-.3.4h-.3v-.5h.3Z"/>
            <path d="M174,40.5v.4s0,.3-.3.4c0,0-.3.3-.4.3h-1.6s-.3,0-.4-.3c0,0,0-.3-.3-.4v-1.7c0-.3,0-.4.4-.5s.3-.3.5-.4.4,0,.7,0h.8c.3,0,.4.3.5.4s0,.3,0,.4v.3h-.3c-.3,0,0,0,0,0v-.3l-.4-.4h-.4c-.3,0-.5,0-.7.3s-.3.5-.3.9v.7s0,.3.3.4.3,0,.5,0h.5s.3-.3.3-.4v-.3h.6v.3h0,0Z"/>
            <path d="M175.6,38.5l1.3,2v-2.2h.5v2.9c0,.3,0,.4-.4.4s0,0,0,0h0l-1.3-2.1v2.2h-.5v-3.2h.3c.3,0,0,0,0,0h0v.3h0v-.3Z"/>
            <path d="M178.2,41.2v-2.9h.5v3.2h-.5v-.3h0Z"/>
            <path d="M182.6,40.5v.4s0,.3-.3.4c0,0-.3.3-.4.3h-1.6s-.3,0-.4-.3c0,0,0-.3-.3-.4s0-.3,0-.4v-1.3c0-.3,0-.4.4-.5s.3-.3.5-.4.4,0,.7,0h.8c.3,0,.4.3.5.4s0,.3,0,.4v.3h-.3c-.3,0,0,0,0,0v-.3l-.4-.4h-.4c-.3,0-.5,0-.7.3s-.3.5-.3.9v.7s0,.3.3.4.3,0,.5,0h.5s.3-.3.3-.4v-.3h.6v.3h0,0Z"/>
            <path d="M185.4,41.2v-.4h-1.6v.4c-.3,0-.3.3-.4.4s0,0-.3,0h-.3v-.3c0-.3,0,0,0,0v-.3l.9-2.2v-.5h.7v.5l.9,2.2v.7h-.4v-.3h.4v-.2ZM184,40.3h1.1l-.5-1.5-.5,1.5h0Z"/>
            <path d="M188.3,38.1h1.6c.2,0,.3,0,.4.3.4.3.5.8.5,1.3v.9c0,.1,0,.3-.3.4h-2.3v-3.2h.3v.2h-.2ZM188.5,38.7v2.2h1.2c.3,0,.4-.5.4-1.1v-.8s-.3-.3-.4-.3h-1.2Z"/>
            <path d="M193.5,38.7h-1.6v.8h1.7-1.8v.9h1.8v.3c0,.3,0,0,0,0h-2.4v-3h2.4-.3v.5h0v.5Z"/>
            <path d="M198.3,40.5v.5s-.3.3-.4.4-.4,0-.8,0h-.8s-.3-.3-.4-.4,0-.3,0-.4v-.3h.3c.3,0,0,0,0,0v.6c0,.3,0,0,.3,0h.9c0,0,0-.3,0-.4v-.3h-.7c-.3,0-.4,0-.7-.3s-.3,0-.4-.3,0-.3,0-.5v-.5c0,0,.3-.3.4-.4h1.2s.3,0,.4.3,0,0,.3.3,0,0,0,.3v.3h-.3c-.3,0,0,0,0,0h0s0-.4-.3-.4h-.8v.3c0,.3,0,0,0,0h1.4l.3.3v.4h0v.4h.1Z"/>
            <path d="M201.1,41.2v-.4h-1.6v.4c-.3,0-.3.3-.4.4s0,0-.3,0h-.3v-.3c0-.3,0,0,0,0v-.3l.9-2.2v-.5h.7v.5l.9,2.2v.7h-.4v-.3h.4v-.2ZM199.6,40.3h1.1l-.5-1.5-.5,1.5h0Z"/>
            <path d="M202.3,40.1v-1.8h.5v2.5s0,.3.3.3h.4s.4,0,.5-.3,0-.4,0-.7v-2h.5v2.5s0,.4-.3.5c0,0-.3,0-.4.3h-1.2s-.4,0-.4-.3-.3-.3-.3-.4v-.7h.4ZM203.9,37.3h.3q0,.3-.3.4h-.3v-.5h.3Z"/>
            <path d="M206.2,38.1h1.6c.2,0,.3,0,.4.3.4.3.5.8.5,1.3v.9c0,.1,0,.3-.3.4h-2.3v-3.2h.3v.2h-.2ZM206.5,38.7v2.2h1.2c.3,0,.4-.5.4-1.1v-.8s-.3-.3-.4-.3h-1.2Z"/>
            <path d="M211.6,38.7h-1.6v.8h1.7-1.8v.9h1.8v.3c0,.3,0,0,0,0h-2.4v-3h2.4-.3v.5h0v.5Z"/>
          </g>
          <g>
            <path d="M149.8,44.1v2.5s-.3.4-.4.4h-1.2c-.1,0-.3,0-.4-.4v-.8h.5c.1,0,0,0,0,.3v.3h0c0,.3.1,0,.3,0,.3,0,.4-.3.4-.7v-2.1h.5v.3h.3v.2Z"/>
            <path d="M152.1,43.7c.4,0,.7,0,.9.3.3,0,.4.4.5.7s0,.5,0,.9v.7c0,.3,0,.4-.3.5,0,0-.3.3-.5.4h-1.3c-.3,0-.4-.3-.5-.4s-.3-.4-.3-.5v-1.3c0-.3,0-.4.3-.5s.3-.3.5-.4.4,0,.7,0h0v-.3h0,0ZM153,45.4v-.7q0-.3-.4-.4h-.9s-.3,0-.3.3,0,.3-.3.4,0,.3,0,.5v.5s0,.3.3.4,0,0,.3.3.3,0,.4,0h.5l.4-.4v-.7h0v-.2Z"/>
            <path d="M156.3,46.7v-.4h-1.6v.4c-.3,0-.3.3-.4.4h-.5v-.3h0v-.4l.9-2.2v-.5h.7v.5l.9,2.2v.7h-.3v-.3h.3,0ZM155,45.8h1.1l-.5-1.5-.5,1.5h0Z"/>
            <path d="M160.2,46.7h.7c.3,0,0,0,0,0h0c0,.3,0,0,0,0h-.3q-.3,0-.4-.3h-1.5s-.4-.3-.5-.4-.3-.4-.3-.5v-1.3c0-.3,0-.4.3-.5s.3-.3.5-.4.4,0,.7,0,.7,0,.9.3c.3,0,.4.4.5.7s0,.5,0,.9,0,.9-.4,1.3h0v-.3h0v.5ZM159.7,46.3s0-.3.3-.4,0-.3,0-.5v-.7q0-.3-.4-.4c-.4-.1-.3,0-.5,0h-.4s-.3,0-.3.3,0,.3-.3.4,0,.3,0,.5c0,.4,0,.7.3.9s.4.3.7.3h.4-.6s.4,0,.7.4h0v-.5h0v-.3Z"/>
            <path d="M161.3,45.7v-1.8h.5v2.5s0,.3.3.3h.4s.4,0,.5-.3,0-.4,0-.7v-2h.5v2.5s0,.4-.3.5c0,0-.3,0-.4.3h-1.2s-.4,0-.4-.3-.3-.3-.3-.4v-.7h.4Z"/>
            <path d="M164.9,46.7v-2.9h.5v3.2h-.5v-.3h0Z"/>
            <path d="M167.5,46.6l-.5-2.1v2.6h-.5v-3.2h.8v.3l.5,1.8.5-1.8v-.3h.8v3.2h-.5v-2.6l-.5,2.1v.3h-.6v-.4h0Z"/>
          </g>
          <g>
            <path d="M172,44.1l.8,2.2.8-2.2v-.3h.3c0,.3,0,0,0,0h0l-.8,2.2v.5h-.5v-.5l-.8-2.2h0v-.3h.6v.4h-.3v.2Z"/>
            <path d="M177,44.2h-1.6v.8h1.7-1.8v.9h1.8v.3c0,.3,0,0,0,0h-2.4v-3h2.4-.3v.5h0l.2.5Z"/>
            <path d="M178.9,44.1l1.3,2v-2.2h.5v2.9c0,.3,0,.4-.4.4s0,0,0,0h0l-1.3-2.1v2.2h-.5v-3.2h.3c.3,0,0,0,0,0h0v.3h0v-.3Z"/>
            <path d="M183.8,46.7v-.4h-1.6v.4c-.3,0-.3.3-.4.4s0,0-.3,0h-.3v-.3c0-.3,0,0,0,0v-.3l.9-2.2v-.5h.7v.5l.9,2.2v.7h-.4v-.3h.4v-.2ZM183,43.3l-.3-.3-.3.3h0l.3-.3h.7l.3.4h0l-.4-.3h0l-.2.2ZM182.3,45.8h1.1l-.5-1.5-.5,1.5h0Z"/>
            <path d="M185.9,44.1l1.3,2v-2.2h.5v2.9c0,.3,0,.4-.4.4s0,0,0,0h0l-1.3-2.1v2.2h-.5v-3.2h.3c.3,0,0,0,0,0h0v.3h0v-.3Z"/>
            <path d="M191.4,46.1v.4s0,.3-.3.4c0,0-.3.3-.4.3h-1.6s-.3,0-.4-.3c0,0,0-.3-.3-.4s0-.3,0-.4v-1.3c0-.3,0-.4.4-.5s.3-.3.5-.4.4,0,.7,0h.8c.3,0,.4.3.5.4s0,.3,0,.4v.3h-.3c-.3,0,0,0,0,0v-.3s-.3-.3-.4-.4h-.4c-.3,0-.5,0-.7.3s-.3.5-.3.9v.7s0,.3.3.4.3,0,.5,0h.5s.3-.3.3-.4v-.3h.6v.3h0Z"/>
            <path d="M192.1,46.7v-2.9h.5v3.2h-.5v-.3h0Z"/>
            <path d="M195,43.7c.4,0,.7,0,.9.3.3,0,.4.4.5.7v1.6c0,.3,0,.4-.3.5s-.3.3-.5.4h-1.3c-.3,0-.4-.3-.5-.4s-.3-.4-.3-.5v-1.3c0-.3,0-.4.3-.5s.3-.3.5-.4.4,0,.7,0h0v-.3h0ZM196.1,45.4v-.7q0-.3-.4-.4c-.4-.1-.3,0-.5,0h-.4s-.3,0-.3.3c0,0,0,.3-.3.4s0,.3,0,.5v.5s0,.3.3.4,0,0,.3.3.3,0,.4,0h.5s.3-.3.4-.4v-.7h0v-.2Z"/>
          </g>
        </g>
        <g>
          <path d="M166.5,24.4c1.3.9,1.7,1.6,2.8,2.6,0,0,.3.4.4.1-1.1-2.6-2.1-5.3-3.2-8.1-1.7-5-6.1-17.8,1.7-19.7,3.4-.8,9.5,2.4,11.1,5.5s0,6.7-2.5,8.9c-2.9,2.2-6.6-1.1-7.8-3.7-1.6-3.6.4-6.3,4.2-5.8,3.7.4,2.5,5,.8,6.9-2.1,2.4-3.8-2.1-1.7-4,1.2-1.2,1.8,0,1.7,1.3-.4,0-.3,0-.3-.4s0-1.1-.7-.9c-1.8.5-1.1,7.3,1.5,2.2,1.6-3.2.3-5.3-3.4-4.5-4.8,1.2,0,8.5,2.9,8.9,3.4.5,5.4-4.1,5-7-.5-4.2-10.3-9-12.9-4.6-2.4,3.8-.8,9.4.4,13.3,1.1,3.4,2.4,7.4,3.7,10.8.3.7,1.3,3.6,2.1,3.3,0,0,1.7-2.8,2.1-3.3,6.2-8.1,14.1-3.3,22.5-3.3s3.6-.4,5-.7c1.8-.3,3.6-.8,5.4-1.1l.3.5c-2.8.5-6.2,2-9,2.1-8.1.7-19.3-4.8-24.4,4.4,0,0,0,.1.3.1,4.1-3.6,10.3-4,15.3-3.8,6.7,0,13.5.8,20.1,1.1v.8l-22.9-.4c-3,.4-6.5.7-9.2,1.8s-2.6,4.1-6.2,3.7c-1.3,0-2-1.3-2.9-2.1-2.8-2.4-11.6-3.6-15.3-3.7-5.5-.3-10.8.4-16.4.7h-2.6c-.4-.4.7-.7.8-.7,2.1-.4,4.6-.7,6.7-.9,8.7-.9,18.1-1.2,26.2,2.5,0-.3,0-.4-.3-.5-.4-.4-1.2-1.1-1.7-1.5-.3-.4-.4-1.3.3-1.1h.3s-.2.3-.2.3Z"/>
          <path class="st1" d="M166.5,24.4l-.3.4c.5.1.3.3,0,.7-2.8-2-4.9-2.8-8.3-2.5-4,.3-7.8,1.2-11.9.9-2.9-.3-5.8-1.6-8.7-2.1-.5-.3-.3-.8.4-.7,2.4.1,5,1.5,7.4,1.6,4.4.4,8.9-.4,13.2-.7,3.7,0,5.3.3,8.2,2.4h0Z"/>
          <path class="st15" d="M172.3,6.6c.3.4-.5.5-.5.3l.5-.3Z"/>
        </g>
      </g>
    </g>
    <g id="Layer_1-21">
      <rect class="st0" x="130.6" y="37.2" width="76.6" height="114.1"/>
      <g id="Camada_1">
        <g>
          <g>
            <path class="st10" d="M140.2,73.3l4,4c1.1,1.1,2.7,1.7,4.2,1.7s3.1-.6,4.2-1.7l4-4-2.4-2.4-4,4c-.5.5-1.1.8-1.8.8s-1.4-.2-1.8-.8l-4-4-2.4,2.4h0Z"/>
            <path class="st7" d="M158.1,75.2l-4,4c-1.1,1.1-1.7,2.7-1.7,4.2s.6,3.1,1.7,4.2l4,4,2.4-2.4-4-4c-.5-.5-.8-1.1-.8-1.8s.2-1.4.8-1.8l4-4-2.4-2.4h0Z"/>
            <path class="st8" d="M156.6,94l-4-4c-1.1-1.1-2.7-1.7-4.2-1.7s-3.1.6-4.2,1.7l-4,4,2.4,2.4,4-4c.5-.5,1.1-.8,1.8-.8s1.4.2,1.8.8l4,4,2.4-2.4h0Z"/>
            <path class="st9" d="M138.3,91.7l4-4c1.1-1.1,1.7-2.7,1.7-4.2s-.6-3.1-1.7-4.2l-4-4-2.4,2.4,4,4c.5.5.8,1.1.8,1.8s-.2,1.4-.8,1.8l-4,4,2.4,2.4h0Z"/>
            <path class="st9" d="M134.6,86.2c1.6,0,2.8-1.3,2.8-2.8s-1.3-2.8-2.8-2.8-2.8,1.3-2.8,2.8,1.3,2.8,2.8,2.8"/>
            <path class="st10" d="M145.6,69.5c0,1.6,1.3,2.8,2.8,2.8s2.8-1.3,2.8-2.8-1.3-2.8-2.8-2.8-2.8,1.3-2.8,2.8"/>
            <path class="st7" d="M162.2,80.5c-1.6,0-2.8,1.3-2.8,2.8s1.3,2.8,2.8,2.8,2.8-1.3,2.8-2.8-1.3-2.8-2.8-2.8"/>
            <path class="st8" d="M151.3,97.2c0-1.6-1.3-2.8-2.8-2.8s-2.8,1.3-2.8,2.8,1.3,2.8,2.8,2.8,2.8-1.3,2.8-2.8"/>
          </g>
          <g>
            <g>
              <path d="M172.2,77.6c-.5,0-.8,0-1.1-.2s-.7-.3-.9-.7-.5-.7-.6-1-.2-.9-.2-1.5,0-1,.2-1.5.3-.8.7-1,.6-.5.9-.7c.3-.1.8-.2,1.1-.2h.7c.2,0,.3,0,.6.1.1,0,.2,0,.3.1,0,0,.2,0,.2.1l-.2.6c-.1,0-.3-.2-.6-.2s-.6-.1-.9-.1-.8,0-1,.2c-.3.1-.6.3-.8.6-.2.3-.3.6-.5.9,0,.3-.1.7-.1,1.1s0,.8.1,1.1.2.7.5.9.5.5.7.6.6.2,1,.2h1c.2,0,.5-.1.7-.2l.2.6h-.2c-.1,0-.2,0-.3.1h-1.5,0Z"/>
              <path d="M179.8,77.5c-.1-.3-.2-.6-.3-.9,0-.3-.2-.6-.3-.9h-3.2c0,.2-.2.6-.3.9,0,.3-.2.6-.3.9h-.7c.2-.7.5-1.3.7-1.9s.5-1.1.7-1.7.5-1,.6-1.5.5-.9.7-1.5h.6c.2.5.5.9.7,1.5.2.5.5,1,.6,1.5.2.6.5,1,.7,1.7.2.6.5,1.3.7,1.9h-.8.2-.3,0ZM177.6,71.8c-.2.6-.5,1.1-.7,1.6-.2.6-.5,1.1-.7,1.8h2.7c-.2-.7-.5-1.3-.7-1.8-.2-.6-.5-1.1-.7-1.6h0Z"/>
              <path d="M184.3,76.6c0-.1-.1-.3-.2-.6,0-.2-.2-.6-.3-.8-.1-.3-.3-.6-.5-.9s-.3-.6-.5-.9c-.1-.2-.2-.6-.3-.7,0-.2-.2-.3-.2-.5,0,.8-.1,1.6-.2,2.5,0,.9,0,1.8-.1,2.8h-.6c0-1.1,0-2.3.2-3.4,0-1,.1-2.2.2-3.1h.6c.2.3.3.7.6,1,.2.5.5.8.7,1.3s.5.9.6,1.3.3.8.6,1.1c.1-.3.3-.7.6-1.1s.3-.9.6-1.3c.2-.5.5-.9.7-1.3.2-.5.5-.8.6-1h.6c0,1,.2,2.1.2,3.1s.1,2.2.2,3.4h-.7c0-1,0-1.9-.1-2.8s0-1.7-.2-2.5c0,0-.1.2-.2.5,0,.2-.2.5-.3.7s-.2.6-.5.9-.3.7-.5.9-.2.6-.3.8c0,.2-.2.5-.2.6h-1.1Z"/>
              <path d="M191.2,71c.9,0,1.6.1,2.1.6s.7.8.7,1.5,0,.7-.2.9c-.1.2-.3.5-.6.6s-.6.2-.9.3h-2.1v2.5h-.7v-6.3c.2,0,.5-.1.8-.1,0,0,.9,0,.9,0ZM191.2,71.6h-1v2.8h1.7c.2,0,.6,0,.7-.2s.3-.2.5-.5c0-.2.1-.5.1-.7s0-.6-.2-.7-.2-.3-.5-.5-.5-.2-.7-.2h-.8s.2,0,.2,0Z"/>
              <path d="M197.4,77.6c-.5,0-.8,0-1.1-.2s-.6-.3-.7-.6c-.2-.2-.3-.5-.5-.8s-.1-.7-.1-1v-4.1h.7v4c0,.3,0,.7.1.9,0,.2.2.5.3.7s.3.3.6.3h1.4c.2,0,.3-.2.6-.3s.2-.3.3-.7.1-.6.1-.9v-4h.7v4.1c0,.3,0,.7-.1,1,0,.3-.2.6-.5.8s-.5.5-.7.6-.7.2-1.1.2h0Z"/>
              <path d="M202.8,77.2c.6,0,.9,0,1.1-.2.2-.2.5-.5.5-.9s0-.5-.1-.6-.2-.3-.3-.3-.3-.2-.6-.2-.3-.1-.6-.2c-.2,0-.6-.2-.7-.3s-.3-.2-.6-.3c-.1-.1-.2-.3-.3-.5s0-.3,0-.7c0-.6.2-1,.6-1.3s.9-.5,1.5-.5h1c.1,0,.2,0,.3.1s.2.1.3.1l-.2.6c-.2-.1-.3-.2-.7-.3-.2,0-.6-.1-.8-.1h-.6c-.2,0-.3.1-.5.2-.1,0-.2.2-.3.3v1c0,.2.2.2.3.3s.3.2.5.2.3.2.6.2.5.2.7.3c.2,0,.5.2.6.3.2.1.3.3.3.6s.1.5.1.8c0,.6-.2,1-.6,1.4s-.9.5-1.7.5-.5,0-.7,0h-.6c-.2,0-.3,0-.5-.1,0,0-.2,0-.2-.1l.2-.6s.1,0,.2.1.2,0,.3.1h1.5Z"/>
            </g>
            <g>
              <path d="M170,80c.2.6.3,1,.6,1.6s.3,1,.6,1.5c.2.5.3.9.6,1.4s.3.9.6,1.4c.2-.5.3-.9.6-1.4s.3-.9.6-1.4.3-.9.6-1.5.3-1,.6-1.6h.7c-.2.8-.6,1.5-.8,2.2s-.5,1.1-.7,1.7c-.2.5-.3.9-.6,1.4s-.3.8-.6,1.3h-.6c-.2-.5-.3-.9-.6-1.3s-.3-.9-.6-1.4-.5-1-.7-1.7-.5-1.4-.8-2.2h.7-.2Z"/>
              <path d="M175.9,80h.7v6.5h-.7v-6.5Z"/>
              <path d="M182.5,82c0,.5-.1.9-.3,1.1s-.6.5-1,.6c0,.1.2.3.3.6s.3.5.5.7.3.6.5.8c.2.2.3.6.5.8h-.7c-.1-.2-.2-.5-.5-.8-.1-.2-.3-.5-.5-.7s-.3-.5-.5-.7-.2-.3-.3-.6h-1.6v2.6h-.7v-6.4c.2,0,.5,0,.8-.1h.8c.9,0,1.6.2,2.1.6s.7.8.7,1.5h-.1ZM179.9,80.5h-1v2.7h1.7c.2,0,.5,0,.7-.2s.3-.2.5-.5c0-.2.2-.5.2-.8s0-.6-.2-.7c0-.2-.2-.3-.5-.5-.2,0-.3-.2-.6-.2h-.8v.2h0Z"/>
              <path d="M188.1,80v.6h-2.1v5.9h-.7v-5.9h-2.1v-.6h4.9Z"/>
              <path d="M191.4,86.6c-.5,0-.8,0-1.1-.2-.3-.1-.6-.3-.7-.6-.2-.2-.3-.5-.5-.8s-.1-.7-.1-1v-4.1h.7v4c0,.3,0,.7.1.9s.2.5.3.7.3.3.6.3h1.4c.2,0,.3-.2.6-.3s.2-.3.3-.7.1-.6.1-.9v-4h.7v4.1c0,.3,0,.7-.1,1,0,.3-.2.6-.5.8s-.5.5-.7.6-.7.2-1.1.2h0Z"/>
              <path d="M199.8,86.5c-.1-.3-.2-.6-.3-.9s-.2-.6-.3-.9h-3.2c0,.2-.2.6-.3.9,0,.3-.2.6-.3.9h-.7c.2-.7.5-1.3.7-1.9s.5-1.1.7-1.7.5-1,.6-1.5c.2-.5.5-.9.7-1.5h.6c.2.5.5.9.7,1.5.2.5.5,1,.6,1.5s.5,1,.7,1.7.5,1.3.7,1.9h-.8.2-.3,0ZM197.5,80.7c-.2.6-.5,1.1-.7,1.6-.2.6-.5,1.1-.7,1.8h2.7c-.2-.7-.5-1.3-.7-1.8-.2-.6-.5-1.1-.7-1.6h0Z"/>
              <path d="M205.2,86v.6h-3.6v-6.5h.7v5.9h3.1-.2Z"/>
            </g>
            <path d="M169.3,89.4v6.2h1v-2.7h2.8v-.9h-2.8v-1.7h3.2v-.9s-4.2,0-4.2,0ZM174.4,89.4v6.2h1v-6.2h-1ZM179.4,89.3c-1.8,0-3,1.3-3,3.3s1.1,3.3,3,3.3,3-1.3,3-3.3-1.1-3.3-3-3.3ZM179.4,90.2c1.1,0,1.9.9,1.9,2.4s-.8,2.4-1.9,2.4-1.9-.9-1.9-2.4.8-2.4,1.9-2.4ZM188.8,91.4c0-1.3-1-2.1-2.5-2.1s-3,1.3-3,3.3,1.1,3.3,2.8,3.3,2.6-1,2.6-2.4h-1c0,.9-.8,1.5-1.6,1.5h0c-1.1,0-1.8-.9-1.8-2.4s.7-2.3,1.8-2.3,1.5.5,1.6,1.1h1.1,0ZM189.8,89.5v6.2h1v-2.5h1.6c.8,0,.9.3,1,1v.8c0,.2,0,.6.2.8h1.1v-.2c-.2,0-.2-.3-.2-.7v-.9c0-.7-.2-1-.8-1.3.6-.2.9-.8.9-1.5s-.6-1.7-1.5-1.7h-3.4,0ZM190.8,90.3h1.5c.8,0,1.1.2,1.1.9s-.3.9-1.3.9h-1.5v-1.9h.2ZM195.6,89.5v3.9c0,1.6.8,2.5,2.5,2.5s2.5-.9,2.5-2.5v-3.9h-1v3.9c0,1-.5,1.6-1.4,1.6s-1.4-.6-1.4-1.6v-3.9h-1.3,0ZM201.5,89.5v.9h3.4l-3.6,4.4v.9h4.8v-.9h-3.5l3.5-4.3v-.9h-4.6,0Z"/>
          </g>
        </g>
      </g>
    </g>
  </g>
  <g id="Layer_1-22">
    <rect class="st0" x="14.7" y="54.7" width="72.9" height="69.4"/>
    <g>
      <path d="M43.4,80.3h-6.3c-.2,0-.3,0-.3.3v11.8c0,.2,0,.3.3.3h.9c.2,0,.3,0,.3-.3v-5.4h3.5c.2,0,.3,0,.3-.3v-.7c0-.2,0-.3-.3-.3h-3.5v-4.3h5.2c.2,0,.3,0,.3-.3v-.7c0-.2,0-.3-.3-.3"/>
      <path d="M45.3,80.3h-.9c-.2,0-.3,0-.3.3v11.8c0,.2,0,.3.3.3h.9c.2,0,.3,0,.3-.3v-11.8c0-.2,0-.3-.3-.3"/>
      <path d="M53,83.8v5.3c0,.7-.2,1.3-.6,1.6s-1.2.6-1.8.6-1.4-.2-1.7-.6-.6-1-.6-1.6v-5.3c0-.7.2-1.3.6-1.7.4-.5,1.1-.6,1.7-.6s1.5.2,1.8.6.6,1,.6,1.7M52.6,80.7c-.5-.3-1.4-.5-2.1-.5s-1.5.2-2,.5-1,.7-1.3,1.3c-.3.5-.5,1.2-.5,1.9v5.2c0,.7.2,1.4.5,1.8.3.5.7,1,1.3,1.3.5.3,1.3.5,2,.5s1.5-.2,2.1-.5,1-.7,1.3-1.3c.3-.5.5-1.2.5-1.8v-5.2c0-.7-.2-1.4-.5-1.9s-.7-1-1.3-1.3"/>
      <path d="M59.1,80.3c-1.1,0-2,.4-2.6.9s-1,1.5-1,2.5v5.5c0,1,.4,1.9,1,2.6.6.6,1.8.9,2.9.9s1.9-.4,2.6-.9c.6-.6,1-1.5,1-2.5h0c0-.3,0-.4-.3-.4h-.9c-.2,0-.3,0-.3.2v.3c0,.6-.2,1.2-.6,1.5-.4.4-.9.6-1.6.6s-1.5-.2-1.9-.6-.6-.9-.6-1.5v-5.6c0-.6.2-1.2.6-1.5.4-.4,1-.6,1.7-.6s1.5.2,1.8.6c.4.4.6.9.6,1.5v.3c0,0,0,.2.3.2h.9c.2,0,.3,0,.3-.3v-.2c0-1-.4-1.8-1-2.5-.6-.6-1.7-.9-2.8-.9"/>
      <path d="M70.2,83.7c0,.6-.2,1.3-.5,1.7-.4.4-.8.6-1.4.6h-2.8v-4.5h2.8c.5,0,1,.2,1.4.6s.5.9.5,1.6M69.4,87h0c.6-.2,1.2-.5,1.5-1.1.4-.5.5-1.4.5-2.2s0-1.3-.4-1.7-.6-.9-1.1-1.2-1-.5-1.6-.5h-4.1c-.2,0-.3,0-.3.3v11.8c0,.2,0,.3.3.3h.9c.2,0,.3,0,.3-.3v-5.3h2.6l2.2,5.4s0,.2.3.2h.9c0,0,.2,0,.2-.2h0l-2.2-5.5h0Z"/>
      <path d="M79.9,80.3h-.9c-.2,0-.3,0-.3.3v8.6c0,.7-.2,1.3-.6,1.7-.4.5-1.1.6-1.8.6s-1.4-.2-1.8-.6c-.4-.5-.6-1-.6-1.7v-8.6c0-.2,0-.3-.3-.3h-.9c-.2,0-.3,0-.3.3v8.5c0,.7.2,1.4.5,1.9s.7,1,1.3,1.3c.5.3,1.4.5,2,.5s1.5-.2,2-.5,1-.7,1.3-1.3c.3-.5.5-1.2.5-1.9v-8.5c0-.2,0-.3-.3-.3"/>
      <path d="M87.6,81.3v-.8c0-.2,0-.3-.3-.3h-6.4c-.2,0-.3,0-.3.3v.7c0,.2,0,.3.3.3h5.1l-5.3,9.7v1.2c0,.2,0,.3.3.3h6.4c.2,0,.3,0,.3-.3v-.7c0-.2,0-.3-.3-.3h-5.1l5.3-9.8v-.3"/>
      <path d="M32.9,91.7h-3.5l-.7-.7h-8.9l-.7.7h-3.4v-.3l.5-.5v-9l-.3-.3v-.5h.8v-3.6l.3-.3v-.7h0s-.2-.3-.2-.4c0-.2-.2-.4-.2-.5,0-.6.5-1.2,1.2-1.2s1.2.5,1.2,1.2,0,.5-.3.7h0v.7l.3.3v3.1h2.1l.5-.5v-2.4h1.9v-.6h1.9v.6h1.9v2.3l.5.5h2.1v-3.1l.3-.3v-.7h0s0-.3-.2-.3c0-.2-.2-.4-.2-.5,0-.6.5-1.2,1.2-1.2s1.2.5,1.2,1.2,0,.5-.2.7h0v.7l.3.3v3.6h.9v.5l-.3.3v9l.5.5v.2h0l-.3.3-.2.2h0ZM33.7,91h0l-.4-.5v-8.5l.3-.3v-1.3s-.2-.2-.3-.2h-.5v-3.3s0-.2-.2-.3h0c.2-.4.4-.7.4-1.1,0-.9-.6-1.7-1.5-2h0l-.2-1c0-.3-.3-.4-.5-.4s-.4,0-.5.4l-.2,1h0c-.9.3-1.5,1.1-1.5,2.1s0,.8.3,1.1h0s-.2.2-.2.3v2.6h-.7v-1.6l.3-.3v-.8c0-.2-.2-.4-.4-.4h-1.2l-.2.3h-.3v-.6s-.2-.2-.3-.2h-3.8v.7h-.3l-.2-.3h-1.2c-.2,0-.4.2-.4.4v.8l.3.3v1.6h-.7v-2.6s0-.2-.2-.3h0c.2-.4.4-.7.4-1.1,0-.9-.6-1.7-1.5-2h0l-.2-1c0-.3-.3-.4-.5-.4s-.5.2-.5.4l-.2,1h0c-.9.3-1.5,1.1-1.5,2.1s0,.8.3,1.1h0s-.2.2-.2.3v3.3h-.5s-.2,0-.3.2v1.3l.3.3v8.5l-.4.4v1.5c0,.2.2.4.4.4h4.4l.7-.7h8.1l.7.7h4.4c.2,0,.4-.2.4-.4v-1.4"/>
    </g>
  </g>
  <g>
    <g>
      <g>
        <path class="st6" d="M156,149.5c.3,0,.6.1.8.3s.3.5.3.8-.1.6-.3.8c-.2.2-.5.3-.8.3h-1v-2.4h1ZM156,151.5c.2,0,.4,0,.6-.2s.2-.3.2-.6,0-.5-.2-.6c-.2-.2-.3-.2-.6-.2h-.6v1.7h.6Z"/>
        <path class="st6" d="M160,151.6c-.2.2-.6.4-.9.4s-.7-.1-.9-.4c-.2-.2-.4-.6-.4-.9s.1-.7.4-.9c.2-.2.6-.4.9-.4s.7.1.9.4c.2.2.4.6.4.9s-.1.7-.4.9M158.5,151.4c.2.2.4.2.6.2s.5,0,.6-.2.2-.4.2-.6,0-.5-.2-.6c-.2-.2-.4-.2-.6-.2s-.5,0-.6.2-.2.4-.2.6,0,.5.2.6"/>
      </g>
      <g>
        <polygon class="st6" points="162.9 151.5 163.9 151.5 163.9 151.9 162.5 151.9 162.5 149.5 162.9 149.5 162.9 151.5"/>
        <path class="st6" d="M166.3,151.9l-.2-.5h-1l-.2.5h-.5l.9-2.4h.5l.9,2.4h-.5ZM165.2,151.1h.8l-.4-1.1-.4,1.1Z"/>
        <path class="st6" d="M168.4,149.5c.3,0,.6.1.8.3s.3.5.3.8-.1.6-.3.8c-.2.2-.5.3-.8.3h-1v-2.4h1ZM168.4,151.5c.2,0,.4,0,.6-.2s.2-.3.2-.6,0-.5-.2-.6c-.2-.2-.3-.2-.6-.2h-.6v1.7h.6Z"/>
        <path class="st6" d="M172.4,151.6c-.2.2-.6.4-.9.4s-.7-.1-.9-.4c-.2-.2-.4-.6-.4-.9s.1-.7.4-.9c.2-.2.6-.4.9-.4s.7.1.9.4c.2.2.4.6.4.9s-.1.7-.4.9M170.9,151.4c.2.2.4.2.6.2s.5,0,.6-.2.2-.4.2-.6,0-.5-.2-.6c-.2-.2-.4-.2-.6-.2s-.5,0-.6.2-.2.4-.2.6,0,.5.2.6"/>
      </g>
      <g>
        <path class="st6" d="M175.9,149.5c.3,0,.6.1.8.3s.3.5.3.8-.1.6-.3.8c-.2.2-.5.3-.8.3h-1v-2.4h1ZM175.9,151.5c.2,0,.4,0,.6-.2s.2-.3.2-.6,0-.5-.2-.6c-.2-.2-.3-.2-.6-.2h-.6v1.7h.6Z"/>
        <path class="st6" d="M179.9,151.6c-.2.2-.6.4-.9.4s-.7-.1-.9-.4c-.2-.2-.4-.6-.4-.9s.1-.7.4-.9c.2-.2.6-.4.9-.4s.7.1.9.4c.2.2.4.6.4.9s-.1.7-.4.9M178.4,151.4c.2.2.4.2.6.2s.5,0,.6-.2.2-.4.2-.6,0-.5-.2-.6c-.2-.2-.4-.2-.6-.2s-.5,0-.6.2-.2.4-.2.6,0,.5.2.6"/>
      </g>
      <g>
        <path class="st6" d="M183.3,149.5c.2,0,.4,0,.6.2s.2.3.2.6,0,.4-.2.6-.3.2-.6.2h-.5v.8h-.4v-2.4h.9,0ZM183.3,150.8c.1,0,.2,0,.3-.1,0,0,.1-.2.1-.3s0-.2-.1-.3c0,0-.2-.1-.3-.1h-.5v.8h.5Z"/>
        <path class="st6" d="M186.9,151.6c-.2.2-.6.4-.9.4s-.7-.1-.9-.4c-.2-.2-.4-.6-.4-.9s.1-.7.4-.9c.2-.2.6-.4.9-.4s.7.1.9.4c.2.2.4.6.4.9s-.1.7-.4.9M185.4,151.4c.2.2.4.2.6.2s.5,0,.6-.2.2-.4.2-.6,0-.5-.2-.6c-.2-.2-.4-.2-.6-.2s-.5,0-.6.2-.2.4-.2.6,0,.5.2.6"/>
        <polygon class="st6" points="188.6 151.9 187.8 149.5 188.2 149.5 188.9 151.4 189.5 149.5 189.9 149.5 189.1 151.9 188.6 151.9"/>
        <path class="st6" d="M192.6,151.6c-.2.2-.6.4-.9.4s-.7-.1-.9-.4c-.2-.2-.4-.6-.4-.9s.1-.7.4-.9c.2-.2.6-.4.9-.4s.7.1.9.4c.2.2.4.6.4.9s-.1.7-.4.9M191.1,151.4c.2.2.4.2.6.2s.5,0,.6-.2.2-.4.2-.6,0-.5-.2-.6c-.2-.2-.4-.2-.6-.2s-.5,0-.6.2-.2.4-.2.6,0,.5.2.6"/>
      </g>
      <g>
        <path class="st6" d="M196.5,150.7c.1,0,.2.1.2.2,0,.1.1.2.1.3,0,.2,0,.3-.2.5-.2.1-.3.2-.5.2h-1.1v-2.4h1c.2,0,.4,0,.5.2.1.1.2.3.2.5s0,.4-.2.5M196.1,149.9h-.6v.6h.6c.1,0,.2,0,.2-.1,0,0,.1-.1.1-.2s0-.2-.1-.2c0,0-.1-.1-.2-.1M196.1,151.5c.1,0,.2,0,.2-.1,0,0,.1-.2.1-.2s0-.2-.1-.2c0,0-.2-.1-.2-.1h-.6v.7h.6Z"/>
        <path class="st6" d="M199.1,151.9l-.5-.9h-.5v.9h-.4v-2.4h1c.2,0,.4,0,.6.2s.2.3.2.6,0,.3-.1.5c-.1.1-.2.2-.3.3l.6,1h-.5ZM198,149.9v.8h.6c.1,0,.2,0,.3-.1s.1-.2.1-.3,0-.2-.1-.3c0,0-.2-.1-.3-.1,0,0-.6,0-.6,0Z"/>
        <path class="st6" d="M201.8,151.9l-.2-.5h-1l-.2.5h-.5l.9-2.4h.5l.9,2.4h-.5ZM200.7,151.1h.8l-.4-1.1-.4,1.1h0Z"/>
        <path class="st6" d="M203.7,152c-.2,0-.5,0-.6-.2-.2-.1-.3-.2-.3-.5l.3-.2c.1.3.3.4.6.4s.3,0,.3-.1c0,0,.1-.1.1-.2s0-.2-.1-.2c0,0-.2-.1-.5-.2-.1,0-.2,0-.3-.1,0,0-.2,0-.2-.1,0,0-.1-.1-.2-.2,0,0,0-.2,0-.3,0-.2,0-.4.2-.5.2-.1.3-.2.6-.2s.3,0,.5.2c.2.1.3.2.3.4l-.3.2c-.1-.2-.3-.3-.5-.3s-.2,0-.3,0c0,0-.1.1-.1.2s0,.2.1.2c0,0,.2.1.4.2.1,0,.2,0,.2,0,0,0,.1,0,.2,0s.1,0,.2.1h.1c0,.1,0,.2.1.3v.2c0,.2,0,.4-.2.5-.2.1-.4.2-.6.2"/>
        <rect class="st6" x="205.4" y="149.5" width=".4" height="2.4"/>
        <polygon class="st6" points="207.1 151.5 208.1 151.5 208.1 151.9 206.7 151.9 206.7 149.5 207.1 149.5 207.1 151.5"/>
        <polygon class="st6" points="209.3 151.5 210.3 151.5 210.3 151.9 208.9 151.9 208.9 149.5 210.3 149.5 210.3 149.9 209.3 149.9 209.3 150.5 210.2 150.5 210.2 150.9 209.3 150.9 209.3 151.5"/>
        <rect class="st6" x="211.1" y="149.5" width=".4" height="2.4"/>
        <path class="st6" d="M213.9,151.9l-.5-.9h-.5v.9h-.4v-2.4h1c.2,0,.4,0,.6.2s.2.3.2.6,0,.3-.1.5c-.1.1-.2.2-.3.3l.6,1h-.5ZM212.9,149.9v.8h.6c.1,0,.2,0,.3-.1s.1-.2.1-.3,0-.2-.1-.3c0,0-.2-.1-.3-.1,0,0-.6,0-.6,0Z"/>
        <path class="st6" d="M217.1,151.6c-.2.2-.6.4-.9.4s-.7-.1-.9-.4c-.2-.2-.4-.6-.4-.9s.1-.7.4-.9c.2-.2.6-.4.9-.4s.7.1.9.4c.2.2.4.6.4.9s-.1.7-.4.9M215.6,151.4c.2.2.4.2.6.2s.5,0,.6-.2c.2-.2.2-.4.2-.6s0-.5-.2-.6c-.2-.2-.4-.2-.6-.2s-.5,0-.6.2c-.2.2-.2.4-.2.6s0,.5.2.6"/>
      </g>
      <g>
        <path class="st6" d="M169.9,123.4v.2c0,1-.7,1.6-1.6,1.6s-1.7-.7-1.7-1.7.7-1.7,1.7-1.7,1.1.3,1.4.8l-.7.5c-.2-.3-.4-.4-.7-.4-.5,0-.8.3-.8.8s.3.8.8.8.6-.2.6-.4h-.8v-.7h1.8,0Z"/>
        <path class="st6" d="M170.9,123.6c0-1,.7-1.7,1.7-1.7s1.7.7,1.7,1.7-.7,1.7-1.7,1.7-1.7-.7-1.7-1.7M173.4,123.6c0-.5-.3-.8-.7-.8s-.8.3-.8.8.3.8.8.8.7-.3.7-.8"/>
        <polygon class="st6" points="178.4 122 177.1 125.2 176.3 125.2 175.1 122 176 122 176.7 124 177.5 122 178.4 122"/>
        <polygon class="st6" points="180.3 122.8 180.3 123.3 181.2 123.3 181.2 123.9 180.3 123.9 180.3 124.4 181.7 124.4 181.7 125.2 179.4 125.2 179.4 122 181.7 122 181.7 122.8 180.3 122.8"/>
        <path class="st6" d="M184.1,124.1h-.3v1.1h-.8v-3.2h1.6c.6,0,1.1.5,1.1,1.1s-.2.7-.6,1l.7,1.2h-1l-.6-1.1h-.1ZM183.8,123.4h.6c.2,0,.3-.2.3-.3s-.1-.3-.3-.3h-.6v.6h0Z"/>
        <polygon class="st6" points="189.7 122 189.7 125.2 189 125.2 187.7 123.5 187.7 125.2 186.8 125.2 186.8 122 187.6 122 188.9 123.7 188.9 122 189.7 122"/>
        <path class="st6" d="M190.8,123.6c0-1,.7-1.7,1.7-1.7s1.7.7,1.7,1.7-.7,1.7-1.7,1.7-1.7-.7-1.7-1.7M193.3,123.6c0-.5-.3-.8-.7-.8s-.8.3-.8.8.3.8.8.8.7-.3.7-.8"/>
      </g>
      <g>
        <path class="st6" d="M201.3,123.6c0,.9-.7,1.6-1.7,1.6h-1.3v-3.2h1.3c1,0,1.7.7,1.7,1.6M200.4,123.6c0-.5-.3-.8-.8-.8h-.4v1.5h.4c.5,0,.8-.3.8-.8"/>
        <path class="st6" d="M202.1,123.6c0-1,.7-1.7,1.7-1.7s1.7.7,1.7,1.7-.7,1.7-1.7,1.7-1.7-.7-1.7-1.7M204.6,123.6c0-.5-.3-.8-.7-.8s-.8.3-.8.8.3.8.8.8.7-.3.7-.8"/>
      </g>
      <g>
        <path class="st16" d="M188.5,145.7c0-3.4-2.8-6.2-6.2-6.2s-6.2,2.8-6.2,6.2h12.4Z"/>
        <polygon class="st2" points="171.1 139 164.4 128.8 164.4 139 171.1 139"/>
        <rect class="st2" x="151.6" y="135.6" width="5.9" height="10.1"/>
        <rect class="st2" x="209.1" y="128.8" width="5.9" height="11.3"/>
        <rect class="st16" x="214.9" y="140.1" width="5.9" height="5.7"/>
        <polygon class="st14" points="172.2 145.7 173.8 143.2 171.1 139 164.4 139 164.4 145.7 172.2 145.7"/>
        <rect class="st14" x="202.3" y="128.8" width="5.9" height="16.9"/>
        <path class="st16" d="M158.8,128.8h-1.4v6.8h1.4c1.9,0,3.4-1.5,3.4-3.4s-1.5-3.4-3.4-3.4"/>
        <rect class="st16" x="194.9" y="128.8" width="6.3" height="6.1"/>
        <path class="st2" d="M196.9,135h-1.9v10.8h1.9c3,0,5.4-2.4,5.4-5.4s-2.4-5.4-5.4-5.4"/>
        <path class="st14" d="M193.2,128.8c-2.1,0-3.8,1.7-3.8,3.8s1.7,3.8,3.8,3.8h1.7v-7.6h-1.7Z"/>
        <path class="st18" d="M159.3,135.6h-1.9v10.1h1.9c2.8,0,5.1-2.3,5.1-5.1s-2.3-5.1-5.1-5.1"/>
        <path class="st16" d="M171.1,128.8h-6.6l6.6,10.2c2.8,0,5.1-2.3,5.1-5.1s-2.3-5.1-5.1-5.1"/>
        <rect class="st14" x="151.6" y="128.8" width="5.9" height="6.8"/>
        <polygon class="st18" points="189.4 136.3 189.4 140.8 192.4 145.7 194.9 145.7 194.9 136.3 189.4 136.3"/>
        <polygon class="st12" points="189.4 140.8 189.4 145.7 192.4 145.7 189.4 140.8"/>
        <rect class="st12" x="209.1" y="140.1" width="5.9" height="5.7"/>
        <polygon class="st12" points="172.2 145.7 175.4 145.7 173.8 143.2 172.2 145.7"/>
        <path class="st2" d="M189.4,145.7v-4.9l-7.2-12-8.6,14.4,1.7,2.6h.7c0-3.4,2.8-6.2,6.2-6.2s6.2,2.8,6.2,6.2h1Z"/>
      </g>
      <g>
        <polygon class="st6" points="97.3 135.3 97.3 132.9 96.3 134.7 96 134.7 95 132.9 95 135.3 94.5 135.3 94.5 131.9 95 131.9 96.2 134 97.3 131.9 97.9 131.9 97.9 135.3 97.3 135.3"/>
        <rect class="st6" x="99.6" y="131.9" width=".6" height="3.4"/>
        <polygon class="st6" points="102.4 132.9 102.4 135.3 101.9 135.3 101.9 131.9 102.3 131.9 104.2 134.4 104.2 131.9 104.7 131.9 104.7 135.3 104.3 135.3 102.4 132.9"/>
        <rect class="st6" x="106.5" y="131.9" width=".6" height="3.4"/>
        <path class="st6" d="M110.8,132.7c0,0-.2-.2-.4-.2-.2,0-.3-.1-.6-.1s-.4,0-.5.1c-.1,0-.2.2-.2.3s0,.1,0,.1h0c0,.1,0,.2.1.2s0,0,.1,0c0,0,.1,0,.2,0s.1,0,.2,0,.1,0,.2,0c.2,0,.3,0,.4.1.1,0,.2,0,.3.1.1,0,.2.1.2.2s.1.2.2.2v.3c0,.1,0,.3,0,.3,0,.1-.1.2-.2.3,0,0-.2.1-.3.2-.1,0-.2.1-.3.1h-.4c-.3,0-.5,0-.7-.1-.2,0-.5-.2-.7-.3l.2-.5c.1.1.3.2.5.3.2.1.5.2.7.2s.4,0,.5-.1c.1,0,.2-.2.2-.3v-.2s0-.1-.1-.1c0,0-.1,0-.1-.1,0,0-.1,0-.2,0,0,0-.2,0-.2,0,0,0-.2,0-.3,0-.2,0-.3-.1-.5-.2-.1,0-.2-.1-.3-.2-.1,0-.2-.2-.2-.2,0-.1,0-.2,0-.3s0-.3.1-.5c0-.1.2-.2.3-.3.1,0,.2-.2.4-.2s.3,0,.5,0c.4,0,.8.1,1.1.4l-.2.5h0Z"/>
        <polygon class="st6" points="115.1 132.4 114 132.4 114 135.3 113.4 135.3 113.4 132.4 112.3 132.4 112.3 131.9 115.1 131.9 115.1 132.4"/>
        <path class="st6" d="M118.8,134.8v.5h-2.3v-3.4h2.3v.5h-1.7v1h1.5v.5h-1.5v1h1.8,0ZM117.9,131.5h-.3c0-.1.3-.6.3-.6h.5s-.5.6-.5.6Z"/>
        <path class="st6" d="M120.3,135.3v-3.4h1.5c.2,0,.3,0,.4.1.1,0,.2.2.3.3s.2.2.2.3c0,.1,0,.3,0,.4,0,.2,0,.5-.2.6-.1.2-.3.3-.5.4l.8,1.3h-.6l-.7-1.2h-.8v1.2h-.6.1ZM120.9,133.6h1c.2,0,.3,0,.3-.2.1-.1.2-.3.2-.5s0-.3-.2-.5c-.1-.1-.2-.2-.4-.2h-.9v1.3h0Z"/>
        <rect class="st6" x="124.5" y="131.9" width=".6" height="3.4"/>
        <path class="st6" d="M126.5,133.6c0-.2,0-.5.1-.7,0-.2.2-.4.3-.6s.3-.3.5-.4c.2-.1.4-.2.7-.2s.5,0,.7.2c.2.1.4.2.5.4s.2.3.3.6c0,.2.1.4.1.6s0,.5-.1.7c0,.2-.2.4-.3.6s-.3.3-.5.4c-.2.1-.4.2-.7.2s-.4,0-.6-.1c-.2,0-.3-.2-.5-.3s-.2-.2-.3-.4c-.1-.2-.2-.3-.2-.5,0-.2,0-.3,0-.5M128.2,134.9c.2,0,.3,0,.5-.1.2,0,.3-.2.3-.3.1-.1.2-.2.2-.4,0-.2,0-.3,0-.5s0-.3,0-.5c0-.2-.1-.3-.2-.4s-.2-.2-.3-.3c-.1,0-.3-.1-.5-.1s-.3,0-.5.1c-.1,0-.3.2-.3.3-.1.1-.2.2-.2.4,0,.2,0,.3,0,.5s0,.4.1.6c.1.2.2.3.4.5s.3.2.6.2"/>
        <path class="st6" d="M133.4,135.3v-3.4h1.2c.3,0,.5,0,.7.1.2.1.4.2.5.3.1.2.2.3.3.6s.1.5.1.7c0,.5-.2.9-.5,1.2-.3.3-.7.5-1.2.5h-1.2,0ZM134.7,132.4h-.7v2.4h.7c.2,0,.5,0,.6-.2.2-.1.3-.3.4-.5s.1-.4.1-.6c0-.3-.1-.7-.3-.9-.2-.2-.5-.3-.8-.3"/>
        <path class="st6" d="M138.7,131.9h.5l1.3,3.4h-.6l-.3-.9h-1.3l-.3.9h-.6l1.4-3.4h0ZM139.5,134l-.6-1.5-.6,1.5h1.1Z"/>
        <path class="st6" d="M123.2,139.7h0s0,0-.2,0c0,0-.2,0-.2-.1,0,0-.2,0-.2,0h-.2c-.2,0-.3,0-.3.2s0,0,0,0h.6c.1,0,.3,0,.3.1.1,0,.2.1.3.2s.2.1.2.2c0,0,.1.2.1.3v.3c0,.1,0,.3,0,.5,0,.1-.1.2-.2.3,0,0-.2.2-.3.2-.1,0-.2.1-.3.1h-.4c-.2,0-.5,0-.8-.1-.3,0-.5-.2-.7-.3l.4-.8h0s0,0,.2.1c0,0,.2,0,.2.1,0,0,.2,0,.3.1h.3c.2,0,.3,0,.3-.2s0,0,0-.1c0,0,0,0-.1,0,0,0-.1,0-.2,0,0,0-.1,0-.2,0-.1,0-.2,0-.2,0-.3-.1-.5-.2-.7-.4-.1-.2-.2-.3-.2-.6s0-.3.1-.5c0-.2.2-.3.3-.3.1-.1.2-.2.4-.2.2,0,.3,0,.5,0,.3,0,.8.1,1.3.4l-.4.8v.2Z"/>
        <path class="st6" d="M125.7,138.6h1.1l1.1,3.4h-1l-.2-.7h-.9l-.2.7h-1l1.1-3.4h0ZM126.5,140.7l-.3-1.2-.3,1.2h.6Z"/>
        <path class="st6" d="M130.4,142.1c-.2,0-.4,0-.6-.1-.2,0-.3-.2-.5-.2-.1-.1-.2-.2-.3-.4s-.1-.3-.2-.5v-2.3h1v2.1c0,.1,0,.2.1.3,0,0,.1.2.2.2s.2,0,.3,0,.2,0,.3,0c0,0,.2-.1.2-.2s0-.2.1-.3v-2.1h1v1.7c0,.2,0,.5-.1.7,0,.2-.2.4-.3.5-.1.2-.3.3-.5.3-.2.1-.5.1-.7.1M130.7,138.5l-.6-.2.2-.7h.8l-.5.8h0Z"/>
        <path class="st6" d="M133.5,142v-3.4h1.3c.3,0,.5,0,.7.1.2.1.4.2.6.3.1.2.2.3.3.6,0,.2.1.5.1.7,0,.5-.2.9-.5,1.2-.3.3-.7.5-1.2.5h-1.4ZM134.8,139.4h-.4v1.7h.4c.2,0,.5,0,.6-.2.1-.2.2-.4.2-.6s0-.5-.2-.6c-.1-.2-.3-.2-.6-.2"/>
        <polygon class="st6" points="140.2 141.2 140.2 142 137.8 142 137.8 138.6 140.2 138.6 140.2 139.4 138.8 139.4 138.8 139.9 140 139.9 140 140.7 138.8 140.7 138.8 141.2 140.2 141.2"/>
      </g>
    </g>
    <g>
      <path class="st11" d="M12.9,143.6c-.3,0-.7-.2-.7-.2,0,0,.4-.3.5-.3.3-.2.6-.5.8-.7h-1.6c-.4.4-.8.7-1.2,1v1c.6,0,1.8,0,1.7,1,0,.6-.5.9-1.1,1-.6,0-1.3-.4-1.7-.8l-.3,1.4h0c1,.8,2.7.9,3.7.2h0c.6-.4.9-1.1.9-1.8s0-.8-.4-1.1c-.2-.3-.5-.4-.7-.5"/>
      <path class="st11" d="M13.6,142.2c.3-.4.3-.8.3-1.2h-4.1v.3l-.3,1h4"/>
      <path class="st4" d="M20.7,138.8c-2.1,0-3.7-1.5-3.7-3.3v-6.2h2.8v6.5c0,.8.7,1.5,1.6,1.5s1.6-.7,1.6-1.5v-6.5h1.3v6.2c0,1.8-1.6,3.3-3.7,3.3M12.8,135l-1.7-.5c-1.1-.4-1.8-1.4-1.8-2.6s1.2-2.7,2.7-2.7h3.4v1.2h-2.4c-.5,0-.9.4-.9.9s.2.7.6.8l1.7.6c1.1.4,1.7,1.5,1.7,2.8s-1.3,3.1-3,3.1h-3.5v-1.4h3.1c.5,0,1-.5,1-1.1s-.3-.9-.8-1M28.7,135l-1.7-.5c-1.1-.4-1.9-1.4-1.9-2.6s1.2-2.7,2.7-2.7h3.4v1.2h-2.4c-.5,0-.9.4-.9.9s.2.7.6.8l1.7.6c1.2.4,1.8,1.5,1.8,2.8s-1.4,3.1-3.1,3.1h-3.6v-1.4h3.1c.5,0,1-.5,1-1.1s-.3-.9-.7-1"/>
      <path class="st4" d="M54.2,139.5h1.2v7.6c0-.8-.6-5.4-.5-6.9l-.7-.7M45.3,131.4h0l-1.3-1.3c-1.7,0-7.1-.6-8.9-.9v9.8c8.7.9,13.3,1.1,18.4.9h0l-8.4-8.5h.2ZM45.4,128.6h9.8v-9.5h-9.8v9.5ZM37.8,129.2c.6,0,6.4.6,6.7.6l9,9.2h11.6v-9.8h-27.4.1ZM54.2,140.4s-5.2.4-9.7,0c0,5.4.7,8.2.8,8.8h9.7c-.5-2.8-.8-7.4-.9-8.7"/>
      <path class="st17" d="M18,144.4c-.5-.9-1.5-1.1-2.3-1.6l-1.1-.6h3.4l.3-1.3h-3.6l-.5,2.7,2.6,1.4c.3.2.5.6.5.9s0,.7-.2,1c.4-.2.8-.5,1-.9.2-.5.2-1.2-.1-1.6"/>
      <path class="st17" d="M16.7,145.2l-2.5,1.2v.2c.2.3.4.6.6.9h.3c.6,0,1.5-.2,1.8-.9.2-.5,0-1.2-.3-1.5"/>
      <path class="st3" d="M29.4,144v-3h1.3v5.9h-.9c-.3,0-.4-.3-.6-.5s-.3-.4-.5-.6c-.3-.4-.6-.8-1-1.2-.2-.2-.4-.5-.6-.7h-.1v2.9h0c-.1,0-1.2,0-1.3,0h0v-5.9h0c.5,0,.9,0,1.2.3.9.8,1.7,2,2.4,2.8h.1"/>
      <path class="st3" d="M37.9,144c0,1.8-1.4,3.2-3.2,3.2s-3.2-1.4-3.2-3.2,1.4-3.2,3.2-3.2,3.2,1.4,3.2,3.2M34.5,142.2c-.8,0-1.1.7-1.2,1.4,0,1.2.3,2.3,1.7,2.1,1.1,0,1.1-1.5,1.1-2.3s-.7-1.4-1.6-1.3"/>
      <path class="st3" d="M25.2,147h-1.7c0-.2-.3-.9-.4-1h-2.4l-.4,1h-1.6l2.3-5.8c.2-.3.7-.3,1-.3s.6,0,.7.4l2.3,5.7h.2ZM22.6,144.7l-.7-1.9-.8,1.9h1.5Z"/>
      <path class="st3" d="M42.3,142.6c-.6-.2-1.2-.4-1.8-.4s-.8.6-.2.9c1,.5,2.2.4,2.3,1.9.2,2.5-3,2.8-4.3,1.3v-1.3h.3c0,0,.2.2.3.2.6.3,1.2.5,1.9.4.4,0,.3-.5,0-.7-.8-.6-2.3-.6-2.5-2-.3-2.3,2.4-2.7,3.9-1.7v1.4Z"/>
    </g>
  </g>
  <path class="st5" d="M74.6,41.2v-1.7l-1.4-1.4-2.1-.4,4.2-2.9-.7-1.3.3-.9h-.8l-.3-1.3-1.8-.5.4-2.5v-2.1h-1.6l-.3-2.1-3.4-1.4-1-1.8.7-.4.9,1.6,3.6,1.4.3,2.1h1.4l.3,2.9-.3,2,1.6.4.3,1.2h1.2l-.4,1.6.8,1.6-3.1,2.1h.5l2,1.8h0l3.1-3v-2l4.2-1.8,1.6.5,1.8-1.8v-.9l1.4-2v-2l4-3v-2.3h-.8l-2.3-2.9h-2l-.8-.7-.7.5-2.1-2.1h-.3l-1.2,1-2.2-.9,1.7-1h-.4l-2.1,1,2-2.6-.5-1.8-.8,1-1.6.3-.8-.4-2.9.8-1-1.6.5-1.3-.3-.4-2.3.9-1-.5v.5l2.1.8-3.3,1.2-1.6-.4v-.7l-1.4.3.7,1.3-1.2-.3.3,1-.9,2.2-3,1.3-.3,1.7,1.4,2-.8.7-1.6-2.3.4-2.5,3-1.3.7-1.7-.5-2h.8l-.4-.5,3.3-.5v.9h.9l1.2-.4-.5-.3-.7-2.5,2.3,1.2,2.6-1,.9,1.3-.5,1.3.5.8,2.6-.8.8.4h1l1.6-2.2,1,3.8-.4.7h1.6v1h.9l1.8,1.8.7-.5,1,.9h2.1l2.3,3h1.4l-.3,3.5-4.2,3v1.8l-1.4,2v.9l-2.2,2.5-1.8-.5-3.4,1.4v1.8l-4.8,4.7-.4-.4h0ZM80.9,15.8h.8-.5s-.3,0-.3,0Z"/>
  <g>
    <polygon class="st13" points="17.2 32.9 17.2 17.3 24.8 17.3 24.8 21 21.5 21 21.5 23.4 24.5 23.4 24.5 27 21.5 27 21.5 32.9 17.2 32.9"/>
    <path class="st13" d="M25.9,27.3v-10h4.3v10.4c0,.4,0,.8.3,1,.1.3.4.4.8.4s.7,0,.8-.4c.1-.3.3-.5.3-1v-10.4h4.3v10c0,2.1-.4,3.5-1.3,4.4s-2.2,1.4-4,1.4-3.3-.5-4-1.4c-.9-.9-1.3-2.5-1.3-4.4"/>
    <polygon class="st13" points="38.2 32.9 38.2 17.3 42.5 17.3 45 25.5 45 17.3 48.9 17.3 48.9 32.9 44.6 32.9 42.3 25.1 42.3 32.9 38.2 32.9"/>
    <path class="st13" d="M49.5,32.9l3.4-15.5h4.8l3.4,15.5h-4.2l-.4-2.3h-2.6l-.4,2.3h-4.3s.3,0,.3,0ZM54.5,27.4h1.7l-.9-5.7-.9,5.7h.1Z"/>
    <path class="st13" d="M61.4,27.7c.7.5,1.2.9,1.7,1.2.5.3.9.4,1.3.4s.7,0,.9-.3.4-.5.4-.8-.4-.9-1.2-1.6h0c-1.3-1.2-2.1-2.1-2.5-2.7-.4-.7-.5-1.4-.5-2.1,0-1.3.4-2.3,1.3-3.3s2.1-1.3,3.4-1.3,1.2,0,1.7.3c.5,0,1.2.4,1.8.7v4c-.5-.4-1-.8-1.4-.9-.4-.3-.9-.3-1.3-.3s-.7,0-.8.3c-.3,0-.3.4-.3.7,0,.4.4.9,1.2,1.4h0c1.3,1,2.1,2,2.5,2.6.4.7.5,1.4.5,2.3,0,1.6-.5,2.7-1.4,3.6-.9.9-2.2,1.4-3.8,1.4s-1.2,0-1.8-.3c-.7,0-1.2-.5-1.8-.9v-4.6s.1,0,.1,0Z"/>
    <path class="st13" d="M70.2,32.9l3.4-15.5h4.8l3.4,15.5h-4.2l-.4-2.3h-2.6l-.4,2.3h-4.3.3ZM75.2,27.4h1.7l-.9-5.7-.9,5.7h.1Z"/>
  </g>
</svg>