<?xml version="1.0" encoding="UTF-8"?>
<svg id="Layer_2" xmlns="http://www.w3.org/2000/svg" version="1.1" viewBox="0 0 230 161.6">
  <!-- Generator: Adobe Illustrator 29.4.0, SVG Export Plug-In . SVG Version: 2.1.0 Build 152)  -->
  <defs>
    <style>
      .st0 {
        fill: none;
      }

      .st1 {
        fill: #010101;
      }

      .st2 {
        fill: #ffcf00;
      }

      .st3 {
        fill: #3c3c3c;
      }

      .st4 {
        fill: #ffb000;
      }

      .st4, .st5, .st6, .st7, .st8, .st9 {
        fill-rule: evenodd;
      }

      .st10 {
        fill: #212121;
      }

      .st11 {
        fill: #19559f;
      }

      .st12 {
        fill: #3d3d3d;
      }

      .st5 {
        fill: #1a69f9;
      }

      .st6 {
        fill: #f06;
      }

      .st7 {
        fill: #609;
      }

      .st8, .st13 {
        fill: red;
      }

      .st14 {
        fill: #183eff;
      }

      .st15, .st9 {
        fill: #00cf00;
      }

      .st16 {
        fill: #f7f7f7;
      }

      .st17 {
        fill: #173dff;
      }
    </style>
  </defs>
  <g>
    <g id="Layer_1-2">
      <rect class="st0" x="14.8" y="-27.1" width="78.1" height="128.2"/>
      <g>
        <g>
          <g>
            <path d="M16.2,38.7h-1.6v.8h1.7c.1,0,0,0,0,0h0c0,0,0,0-.3,0h-1.5v.9h1.8v.3c0,.3,0,0,0,0h-2.4v-3h.1c0,0,.1,0,.3,0h2.1c.1,0,0,0,0,0h0c0,0-.1,0-.3,0h0v.5h0Z"/>
            <path d="M19.6,40.5c0,.3,0,.4-.1.5s-.3.3-.4.4c-.3,0-.4,0-.8,0s-.7,0-.8,0c-.1,0-.3-.3-.4-.4s-.1-.3-.1-.4v-.3c0,0,0,0,.3,0s0,0,.1,0,0,0,0,.3c0,0,0,0,.1.3s0,0,.3,0h.4c.1,0,.4,0,.5,0,0,0,.1-.3.1-.4v-.3s-.1,0-.3,0h-.4c-.3,0-.4,0-.7-.3-.1,0-.3,0-.4-.3s-.1-.3-.1-.5,0-.4.1-.5.3-.3.4-.4h1.2c.1,0,.3,0,.4.3s.1,0,.3.3,0,0,0,.3v.3c0,0,0,0-.3,0s-.1,0-.1,0h0c0,0-.1-.4-.3-.4h-.8c-.1,0-.1,0-.1.3s0,0,0,0,0,0,.1,0h.5c.1,0,.4,0,.5,0s.3,0,.4,0,.1,0,.3.3,0,.3,0,.4h0v.4h0Z"/>
            <path d="M23.1,40.5v.4s-.1.3-.3.4c0,0-.3.3-.4.3h-1.2c-.1,0-.3,0-.4,0,0,0-.3,0-.4-.3,0,0-.1-.3-.3-.4,0,0,0-.3-.1-.4s0-.3,0-.5v-.8c0-.3.1-.4.4-.5s.3-.3.5-.4.4,0,.7,0,.5,0,.8,0c.3,0,.4.3.5.4,0,0,.1.3.1.4v.3c0,0,0,0-.3,0s-.1,0-.1,0v-.3c-.1,0-.3-.3-.4-.4h-.4c-.3,0-.5,0-.7.3s-.3.5-.3.9v.7c0,0,.1.3.3.4s.3,0,.5,0,.4,0,.5,0c.1,0,.3-.3.3-.4v-.3c0,0,0,0,.3,0h.3c.1,0,0,0,0,.3h.1Z"/>
            <path d="M25.2,38.1c.4,0,.7,0,.9.3.3,0,.4.4.5.7,0,.3.1.5.1.9v.7c0,.3-.1.4-.3.5-.1,0-.3.3-.5.4h-1.3c-.3,0-.4-.3-.5-.4s-.3-.4-.3-.5v-1.3c0-.3.1-.4.3-.5.1,0,.3-.3.5-.4s.4,0,.7,0h0v-.3h-.1ZM26.3,39.9v-.7c0-.3-.1-.3-.4-.4-.1,0-.3,0-.5,0h-.4c-.1,0-.3,0-.3.3s-.1.3-.3.4,0,.3,0,.5v.5c0,0,0,.3.3.4s.1,0,.3.3.3,0,.4,0h.5c.1,0,.3-.3.4-.4v-.7h0Z"/>
            <path d="M28.2,38.5v2.5h1.7c.1,0,0,0,0,.3v.3c0,0-.1,0-.3,0h-2v-3.2h.5v.3h0v-.2Z"/>
            <path d="M32.5,41.2v-.4h-1.6v.4c-.3,0-.3.3-.4.4s0,0-.3,0h-.3c-.1,0,0,0,0-.3s0,0,0,0v-.3l.9-2.2v-.5c0,0,0,0,.1,0s.1,0,.3,0h.4v.5l.9,2.2v.7c0,0,0,0-.3,0h0c0,0,0,0,0,0h0v-.3h.4ZM31.1,40.3h1.1l-.5-1.5-.5,1.5h-.1Z"/>
          </g>
          <g>
            <path d="M36.2,40.3h-.7v1.2h-.5v-3.2h2c0,0,.3,0,.4,0s0,.3.3.4,0,.3,0,.4c0,.4,0,.7-.3.8s-.5.3-.9.3h-.3ZM36,38.7h-.4v1.1h.8s0,0,.3,0,0,0,0-.3v-.4s-.3,0-.7,0h0v-.2Z"/>
            <path d="M39.6,38.1c.4,0,.7,0,.9.3.3,0,.4.4.5.7s0,.5,0,.9v.7c0,.3,0,.4-.3.5,0,0-.3.3-.5.4h-1.3c-.3,0-.4-.3-.5-.4s-.3-.4-.3-.5v-1.3c0-.3,0-.4.3-.5s.3-.3.5-.4.4,0,.7,0h0v-.3h-.1ZM40.5,39.9v-.7c0-.3,0-.3-.4-.4s-.3,0-.5,0h-.4c0,0-.3,0-.3.3s0,.3-.3.4,0,.3,0,.5v.5c0,0,0,.3.3.4s0,0,.3.3.3,0,.4,0h.5c0,0,.3-.3.4-.4v-.7h0Z"/>
            <path d="M42.5,38.5v2.5h1.7c0,0,0,0,0,.3v.3c0,0,0,0-.3,0h-2v-3.2h.5v.3h0v-.2Z"/>
            <path d="M44.8,41.2v-2.9h.5v3.2h-.5v-.3h0Z"/>
            <path d="M48.3,38.7h-.8v2.8h-.5v-2.8h-1.1v-.5c0,0,0,0,.3,0h2.5v.5c0,0,0,0-.3,0h-.1Z"/>
            <path d="M51.4,38.7h-1.6v.8h1.7c0,0,0,0,0,0h0c0,0,0,0-.3,0h-1.5v.9h1.8c0,0,0,0,0,.3s0,0,0,0h-2.4v-3c0,0,0,0,0,0h2.4c0,0,0,0,0,0h0c0,0,0,0-.3,0h0v.5h0ZM50.6,37.3h.3c0,.3,0,.3-.3.4,0,0,0,0,0,0h-.3c0,0,0,0,0,0h0c0-.4,0-.5,0-.5h.3Z"/>
            <path d="M55.2,40.5v.4s0,.3-.3.4c0,0-.3.3-.4.3h-1.2c0,0-.3,0-.4,0,0,0-.3,0-.4-.3,0,0,0-.3-.3-.4,0,0,0-.3,0-.4s0-.3,0-.5v-.8c0-.3,0-.4.4-.5s.3-.3.5-.4.4,0,.7,0,.5,0,.8,0c.3,0,.4.3.5.4s0,.3,0,.4v.3c0,0,0,0-.3,0s0,0,0,0v-.3l-.4-.4h-.4c-.3,0-.5,0-.7.3s-.3.5-.3.9v.7c0,0,0,.3.3.4s.3,0,.5,0,.4,0,.5,0c0,0,.3-.3.3-.4v-.3c0,0,0,0,.3,0h.3c0,0,0,0,0,.3h.1Z"/>
            <path d="M56.8,38.5l1.3,2v-2.2h.5v2.9c0,.3,0,.4-.4.4s0,0,0,0h0c0,0,0,0,0,0h0c0,0-1.3-2.1-1.3-2.1v2.2h-.5v-3.2h0c0,0,0,0,.3,0s0,0,0,0,0,0,0,0h0c0,0,0,.3,0,.3h0Z"/>
            <path d="M59.4,41.2v-2.9h.5v3.2h-.5v-.3h0Z"/>
            <path d="M63.8,40.5v.4s0,.3-.3.4c0,0-.3.3-.4.3h-1.2c0,0-.3,0-.4,0,0,0-.3,0-.4-.3,0,0,0-.3-.3-.4s0-.3,0-.4,0-.3,0-.5v-.8c0-.3,0-.4.4-.5s.3-.3.5-.4.4,0,.7,0,.5,0,.8,0c.3,0,.4.3.5.4s0,.3,0,.4v.3c0,0,0,0-.3,0s0,0,0,0v-.3l-.4-.4h-.4c-.3,0-.5,0-.7.3s-.3.5-.3.9v.7c0,0,0,.3.3.4s.3,0,.5,0,.4,0,.5,0c0,0,.3-.3.3-.4v-.3c0,0,0,0,.3,0h.3c0,0,0,0,0,.3h.1Z"/>
            <path d="M66.6,41.2v-.4h-1.6v.4c-.3,0-.3.3-.4.4s0,0-.3,0h-.3c0,0,0,0,0-.3s0,0,0,0v-.3l.9-2.2v-.5c0,0,0,0,0,0s0,0,.3,0h.4v.5l.9,2.2v.7h-.4c0,0,0,0,0,0h0v-.3h.4ZM65.2,40.3h1.1l-.5-1.5-.5,1.5h0Z"/>
            <path d="M69.5,38.1h1.6c.2,0,.3,0,.4.3.4.3.5.8.5,1.3v.5c0,0,0,.3,0,.4s0,.3-.3.4c0,0,0,0-.3,0h-2v-3.2h.3,0v.2ZM69.7,38.7v2.2h1.2c.3,0,.4-.5.4-1.1s0-.5,0-.8c0,0-.3-.3-.4-.3,0,0-1.1,0-1.1,0Z"/>
            <path d="M74.7,38.7h-1.6v.8h1.7c0,0,0,0,0,0h0c0,0-.1,0-.3,0h-1.5v.9h1.8v.3c0,.3,0,0,0,0h-2.4v-3c0,0,0,0,0,0h2.4c0,0,0,0,0,0h0c0,0,0,0-.3,0h0v.5h.1Z"/>
            <path d="M79.5,40.5c0,.3,0,.4,0,.5,0,0-.3.3-.4.4s-.4,0-.8,0-.7,0-.8,0c0,0-.3-.3-.4-.4s0-.3,0-.4v-.3c0,0,0,0,.3,0s0,0,0,0,0,0,0,.3c0,0,0,0,0,.3s0,0,.3,0h.4c0,0,.4,0,.5,0s0-.3,0-.4v-.3s0,0-.3,0h-.4c-.3,0-.4,0-.7-.3s-.3,0-.4-.3,0-.3,0-.5,0-.4,0-.5.3-.3.4-.4h1.2c0,0,.3,0,.4.3s0,0,.3.3,0,0,0,.3v.3c0,0,0,0-.3,0s0,0,0,0h0c0,0,0-.4-.3-.4h-.8c0,0,0,0,0,.3s0,0,0,0,0,0,0,0h.5c0,0,.4,0,.5,0s.3,0,.4,0l.3.3c0,0,0,.3,0,.4h0v.4h.1Z"/>
            <path d="M82.3,41.2v-.4h-1.6v.4c-.3,0-.3.3-.4.4s0,0-.3,0h-.3c0,0,0,0,0-.3s0,0,0,0v-.3l.9-2.2v-.5c0,0,0,0,0,0s0,0,.3,0h.4v.5l.9,2.2v.7h-.4c0,0,0,0,0,0h0v-.3h.4ZM80.8,40.3h1.1l-.5-1.5-.5,1.5h0Z"/>
            <path d="M83.5,40.1v-1.8h.5v2.5c0,0,0,.3.3.3h.4c0,0,.4,0,.5-.3s0-.4,0-.7v-2h.5v2.5c0,0,0,.4-.3.5,0,0-.3,0-.4.3h-1.2c0,0-.4,0-.4-.3s-.3-.3-.3-.4v-.7h.3ZM85.1,37.3h.3c0,.3,0,.3-.3.4,0,0,0,0,0,0h-.3c0,0,0,0,0,0h0c0-.4,0-.5,0-.5h.3Z"/>
            <path d="M87.4,38.1h1.6c.2,0,.3,0,.4.3.4.3.5.8.5,1.3v.5c0,0,0,.3,0,.4s0,.3-.3.4c0,0,0,0-.3,0h-2v-3.2h.3,0v.2ZM87.7,38.7v2.2h1.2c.3,0,.4-.5.4-1.1s0-.5,0-.8c0,0-.3-.3-.4-.3,0,0-1.1,0-1.1,0Z"/>
            <path d="M92.8,38.7h-1.6v.8h1.7c0,0,0,0,0,0h0c0,0-.1,0-.3,0h-1.5v.9h1.8v.3c0,.3,0,0,0,0h-2.4v-3c0,0,0,0,0,0h2.4c0,0,0,0,0,0h0c0,0,0,0-.3,0h0v.5h.1Z"/>
          </g>
          <g>
            <path d="M31,44.1v2.5c0,0-.3.4-.4.4s-.4,0-.7,0h-.5c-.1,0-.3,0-.4-.4v-.8h.5c.1,0,0,0,0,.3v.3h0c0,.3.1,0,.3,0,.3,0,.4-.3.4-.7v-2.1h.5v.3s.3,0,.3,0Z"/>
            <path d="M33.3,43.7c.4,0,.7,0,.9.3.3,0,.4.4.5.7s0,.5,0,.9v.7c0,.3,0,.4-.3.5,0,0-.3.3-.5.4h-1.3c-.3,0-.4-.3-.5-.4s-.3-.4-.3-.5v-1.3c0-.3,0-.4.3-.5s.3-.3.5-.4.4,0,.7,0h0v-.3h-.1ZM34.2,45.4v-.7c0-.3,0-.3-.4-.4,0,0-.3,0-.5,0h-.4c0,0-.3,0-.3.3s0,.3-.3.4,0,.3,0,.5v.5c0,0,0,.3.3.4s0,0,.3.3.3,0,.4,0h.5c0,0,.3-.3.4-.4v-.7h0Z"/>
            <path d="M37.5,46.7v-.4h-1.6v.4c-.3,0-.3.3-.4.4h-.5v-.3h0v-.4l.9-2.2v-.5c0,0,0,0,0,0s0,0,.3,0h.4v.5l.9,2.2v.7c0,0,0,0-.3,0h0c0,0,0,0,0,0h0v-.3s.3,0,.3,0ZM36.2,45.8h1.1l-.5-1.5-.5,1.5h0Z"/>
            <path d="M41.4,46.7s.3,0,.4,0c0,0,0,0,.3,0s0,0,0,0h0c0,.3,0,0,0,0h0s0,0-.3,0-.3,0-.4-.3c-.3,0-.5,0-.8,0h-.7c0,0-.4-.3-.5-.4s-.3-.4-.3-.5v-1.3c0-.3,0-.4.3-.5s.3-.3.5-.4.4,0,.7,0,.7,0,.9.3c.3,0,.4.4.5.7s0,.5,0,.9,0,.9-.4,1.3h0v-.3h-.1ZM40.9,46.3s0-.3.3-.4,0-.3,0-.5v-.7c0-.3,0-.3-.4-.4s-.3,0-.5,0h-.4c0,0-.3,0-.3.3s0,.3-.3.4,0,.3,0,.5c0,.4,0,.7.3.9s.4.3.7.3h.4s0,0-.3,0h-.3c0,0,.4,0,.7.4h0v-.5h0Z"/>
            <path d="M42.5,45.7v-1.8h.5v2.5s0,.3.3.3h.4c0,0,.4,0,.5-.3s0-.4,0-.7v-2h.5v2.5c0,0,0,.4-.3.5,0,0-.3,0-.4.3h-1.2c0,0-.4,0-.4-.3s-.3-.3-.3-.4v-.7h.3Z"/>
            <path d="M46.1,46.7v-2.9h.5v3.2h-.5v-.3h0Z"/>
            <path d="M48.7,46.6l-.5-2.1v2.6h-.5v-3.2h.8v.3l.5,1.8.5-1.8v-.3h.8v3.2h-.5v-2.6l-.5,2.1v.3h0c0,0,0,0-.3,0h-.3c0,0,0,0,0,0h0v-.4h0Z"/>
          </g>
          <g>
            <path d="M53.2,44.1l.8,2.2.8-2.2v-.3h.3c0,0,0,0,0,0h0c0,.3,0,0,0,0h0l-.8,2.2v.5c0,0,0,0,0,0h-.5c0,0,0,0,0,0v-.5l-.8-2.2h0v-.3c0,0,0,0,.3,0h.3s0,0,0,.4h-.3Z"/>
            <path d="M58.2,44.2h-1.6v.8h1.7c0,0,0,0,0,0h0c0,0-.1,0-.3,0h-1.5v.9h1.8v.3c0,.3,0,0,0,0h-2.4v-3c0,0,0,0,0,0h2.4c0,0,0,0,0,0h0c0,0,0,0-.3,0h0v.5h0Z"/>
            <path d="M60.1,44.1l1.3,2v-2.2h.5v2.9c0,.3,0,.4-.4.4s0,0,0,0h0c0,0,0,0,0,0h0c0,0-1.3-2.1-1.3-2.1v2.2h-.5v-3.2h0c0,0,0,0,.3,0s0,0,0,0,0,0,0,0h0c0,0,0,.3,0,.3h0Z"/>
            <path d="M65,46.7v-.4h-1.6v.4c-.3,0-.3.3-.4.4s0,0-.3,0h-.3c0,0,0,0,0-.3s0,0,0,0v-.3l.9-2.2v-.5c0,0,0,0,0,0s0,0,.3,0h.4v.5l.9,2.2v.7h-.4c0,0,0,0,0,0h0v-.3h.4ZM64.2,43.3l-.3-.3-.3.3h0c0,0,0,0,0,0h0l.3-.3h.7c0,0,.3.4.3.4h0l-.4-.3h-.1ZM63.5,45.8h1.1l-.5-1.5-.5,1.5h0Z"/>
            <path d="M67.1,44.1l1.3,2v-2.2h.5v2.9c0,.3,0,.4-.4.4s0,0,0,0h0c0,0,0,0,0,0h0c0,0-1.3-2.1-1.3-2.1v2.2h-.5v-3.2h0c0,0,0,0,.3,0s0,0,0,0,0,0,0,0h0c0,0,0,.3,0,.3h0Z"/>
            <path d="M72.6,46.1v.4s0,.3-.3.4c0,0-.3.3-.4.3h-1.2c0,0-.3,0-.4,0,0,0-.3,0-.4-.3,0,0,0-.3-.3-.4s0-.3,0-.4,0-.3,0-.5v-.8c0-.3,0-.4.4-.5s.3-.3.5-.4.4,0,.7,0,.5,0,.8,0c.3,0,.4.3.5.4s0,.3,0,.4v.3c0,0,0,0-.3,0s0,0,0,0v-.3c0,0-.3-.3-.4-.4h-.4c-.3,0-.5,0-.7.3s-.3.5-.3.9v.7c0,0,0,.3.3.4s.3,0,.5,0,.4,0,.5,0c0,0,.3-.3.3-.4v-.3c0,0,0,0,.3,0h.3c0,0,0,0,0,.3h0Z"/>
            <path d="M73.3,46.7v-2.9h.5v3.2h-.5v-.3h0Z"/>
            <path d="M76.2,43.7c.4,0,.7,0,.9.3.3,0,.4.4.5.7,0,.3,0,.5,0,.9v.7c0,.3,0,.4-.3.5s-.3.3-.5.4h-1.3c-.3,0-.4-.3-.5-.4s-.3-.4-.3-.5v-1.3c0-.3,0-.4.3-.5s.3-.3.5-.4.4,0,.7,0h0v-.3h0ZM77.3,45.4v-.7c0-.3,0-.3-.4-.4s-.3,0-.5,0h-.4c0,0-.3,0-.3.3,0,0,0,.3-.3.4s0,.3,0,.5v.5c0,0,0,.3.3.4s0,0,.3.3.3,0,.4,0h.5c0,0,.3-.3.4-.4v-.7h0Z"/>
          </g>
        </g>
        <g>
          <path d="M47.7,24.4c1.3.9,1.7,1.6,2.8,2.6,0,0,.3.4.4.1-1.1-2.6-2.1-5.3-3.2-8.1-1.7-5-6.1-17.8,1.7-19.7,3.4-.8,9.5,2.4,11.1,5.5s0,6.7-2.5,8.9c-2.9,2.2-6.6-1.1-7.8-3.7-1.6-3.6.4-6.3,4.2-5.8,3.7.4,2.5,5,.8,6.9-2.1,2.4-3.8-2.1-1.7-4,1.2-1.2,1.8,0,1.7,1.3-.4,0-.3,0-.3-.4s0-1.1-.7-.9c-1.8.5-1.1,7.3,1.5,2.2,1.6-3.2.3-5.3-3.4-4.5-4.8,1.2,0,8.5,2.9,8.9,3.4.5,5.4-4.1,5-7-.5-4.2-10.3-9-12.9-4.6-2.4,3.8-.8,9.4.4,13.3,1.1,3.4,2.4,7.4,3.7,10.8.3.7,1.3,3.6,2.1,3.3,0,0,1.7-2.8,2.1-3.3,6.2-8.1,14.1-3.3,22.5-3.3s3.6-.4,5-.7c1.8-.3,3.6-.8,5.4-1.1l.3.5c-2.8.5-6.2,2-9,2.1-8.1.7-19.3-4.8-24.4,4.4,0,0,0,.1.3.1,4.1-3.6,10.3-4,15.3-3.8,6.7,0,13.5.8,20.1,1.1v.8l-22.9-.4c-3,.4-6.5.7-9.2,1.8s-2.6,4.1-6.2,3.7c-1.3,0-2-1.3-2.9-2.1-2.8-2.4-11.6-3.6-15.3-3.7-5.5-.3-10.8.4-16.4.7h-2.6c-.4-.4.7-.7.8-.7,2.1-.4,4.6-.7,6.7-.9,8.7-.9,18.1-1.2,26.2,2.5,0-.3,0-.4-.3-.5-.4-.4-1.2-1.1-1.7-1.5-.3-.4-.4-1.3.3-1.1h.3l-.2.3Z"/>
          <path class="st1" d="M47.7,24.4l-.3.4c.5.1.3.3,0,.7-2.8-2-4.9-2.8-8.3-2.5-4,.3-7.8,1.2-11.9.9-2.9-.3-5.8-1.6-8.7-2.1-.5-.3-.3-.8.4-.7,2.4.1,5,1.5,7.4,1.6,4.4.4,8.9-.4,13.2-.7,3.7,0,5.3.3,8.2,2.4h0Z"/>
          <path class="st16" d="M53.5,6.6c.3.4-.5.5-.5.3l.5-.3Z"/>
        </g>
      </g>
    </g>
    <g id="Layer_1-21">
      <rect class="st0" x="130.6" y="-19.3" width="76.6" height="114.1"/>
      <g id="Camada_1">
        <g>
          <g>
            <path class="st7" d="M140.2,16.8l4,4c1.1,1.1,2.7,1.7,4.2,1.7s3.1-.6,4.2-1.7l4-4-2.4-2.4-4,4c-.5.5-1.1.8-1.8.8s-1.4-.2-1.8-.8l-4-4-2.4,2.4h0Z"/>
            <path class="st4" d="M158.1,18.7l-4,4c-1.1,1.1-1.7,2.7-1.7,4.2s.6,3.1,1.7,4.2l4,4,2.4-2.4-4-4c-.5-.5-.8-1.1-.8-1.8s.2-1.4.8-1.8l4-4-2.4-2.4h0Z"/>
            <path class="st5" d="M156.6,37.5l-4-4c-1.1-1.1-2.7-1.7-4.2-1.7s-3.1.6-4.2,1.7l-4,4,2.4,2.4,4-4c.5-.5,1.1-.8,1.8-.8s1.4.2,1.8.8l4,4,2.4-2.4h0Z"/>
            <path class="st6" d="M138.3,35.2l4-4c1.1-1.1,1.7-2.7,1.7-4.2s-.6-3.1-1.7-4.2l-4-4-2.4,2.4,4,4c.5.5.8,1.1.8,1.8s-.2,1.4-.8,1.8l-4,4,2.4,2.4h0Z"/>
            <path class="st6" d="M134.6,29.7c1.6,0,2.8-1.3,2.8-2.8s-1.3-2.8-2.8-2.8-2.8,1.3-2.8,2.8,1.3,2.8,2.8,2.8"/>
            <path class="st7" d="M145.6,13c0,1.6,1.3,2.8,2.8,2.8s2.8-1.3,2.8-2.8-1.3-2.8-2.8-2.8-2.8,1.3-2.8,2.8"/>
            <path class="st4" d="M162.2,24c-1.6,0-2.8,1.3-2.8,2.8s1.3,2.8,2.8,2.8,2.8-1.3,2.8-2.8-1.3-2.8-2.8-2.8"/>
            <path class="st5" d="M151.3,40.7c0-1.6-1.3-2.8-2.8-2.8s-2.8,1.3-2.8,2.8,1.3,2.8,2.8,2.8,2.8-1.3,2.8-2.8"/>
          </g>
          <g>
            <g>
              <path d="M172.2,21.1c-.5,0-.8,0-1.1-.2s-.7-.3-.9-.7-.5-.7-.6-1-.2-.9-.2-1.5,0-1,.2-1.5.3-.8.7-1,.6-.5.9-.7c.3-.1.8-.2,1.1-.2h.7c.2,0,.3,0,.6.1.1,0,.2,0,.3.1,0,0,.2,0,.2.1l-.2.6c-.1,0-.3-.2-.6-.2s-.6-.1-.9-.1-.8,0-1,.2c-.3.1-.6.3-.8.6-.2.3-.3.6-.5.9,0,.3-.1.7-.1,1.1s0,.8.1,1.1.2.7.5.9.5.5.7.6.6.2,1,.2h1c.2,0,.5-.1.7-.2l.2.6h-.2c-.1,0-.2,0-.3.1h-1.5,0Z"/>
              <path d="M179.8,21c-.1-.3-.2-.6-.3-.9,0-.3-.2-.6-.3-.9h-3.2c0,.2-.2.6-.3.9,0,.3-.2.6-.3.9h-.7c.2-.7.5-1.3.7-1.9s.5-1.1.7-1.7.5-1,.6-1.5.5-.9.7-1.5h.6c.2.5.5.9.7,1.5.2.5.5,1,.6,1.5.2.6.5,1,.7,1.7.2.6.5,1.3.7,1.9h-.8.2-.3ZM177.6,15.3c-.2.6-.5,1.1-.7,1.6-.2.6-.5,1.1-.7,1.8h2.7c-.2-.7-.5-1.3-.7-1.8-.2-.6-.5-1.1-.7-1.6h0Z"/>
              <path d="M184.3,20.1c0-.1-.1-.3-.2-.6,0-.2-.2-.6-.3-.8-.1-.3-.3-.6-.5-.9s-.3-.6-.5-.9c-.1-.2-.2-.6-.3-.7,0-.2-.2-.3-.2-.5,0,.8-.1,1.6-.2,2.5,0,.9,0,1.8-.1,2.8h-.6c0-1.1,0-2.3.2-3.4,0-1,.1-2.2.2-3.1h.6c.2.3.3.7.6,1,.2.5.5.8.7,1.3s.5.9.6,1.3.3.8.6,1.1c.1-.3.3-.7.6-1.1s.3-.9.6-1.3c.2-.5.5-.9.7-1.3.2-.5.5-.8.6-1h.6c0,1,.2,2.1.2,3.1s.1,2.2.2,3.4h-.7c0-1,0-1.9-.1-2.8s0-1.7-.2-2.5c0,0-.1.2-.2.5,0,.2-.2.5-.3.7s-.2.6-.5.9-.3.7-.5.9-.2.6-.3.8c0,.2-.2.5-.2.6h-1.1Z"/>
              <path d="M191.2,14.5c.9,0,1.6.1,2.1.6s.7.8.7,1.5,0,.7-.2.9c-.1.2-.3.5-.6.6s-.6.2-.9.3h-2.1v2.5h-.7v-6.3c.2,0,.5-.1.8-.1,0,0,.9,0,.9,0ZM191.2,15.1h-1v2.8h1.7c.2,0,.6,0,.7-.2s.3-.2.5-.5c0-.2.1-.5.1-.7s0-.6-.2-.7-.2-.3-.5-.5-.5-.2-.7-.2h-.8s.2,0,.2,0Z"/>
              <path d="M197.4,21.1c-.5,0-.8,0-1.1-.2s-.6-.3-.7-.6c-.2-.2-.3-.5-.5-.8s-.1-.7-.1-1v-4.1h.7v4c0,.3,0,.7.1.9,0,.2.2.5.3.7s.3.3.6.3h1.4c.2,0,.3-.2.6-.3s.2-.3.3-.7.1-.6.1-.9v-4h.7v4.1c0,.3,0,.7-.1,1,0,.3-.2.6-.5.8s-.5.5-.7.6-.7.2-1.1.2h0Z"/>
              <path d="M202.8,20.7c.6,0,.9,0,1.1-.2.2-.2.5-.5.5-.9s0-.5-.1-.6-.2-.3-.3-.3-.3-.2-.6-.2-.3-.1-.6-.2c-.2,0-.6-.2-.7-.3s-.3-.2-.6-.3c-.1-.1-.2-.3-.3-.5s0-.3,0-.7c0-.6.2-1,.6-1.3s.9-.5,1.5-.5h1c.1,0,.2,0,.3.1s.2.1.3.1l-.2.6c-.2-.1-.3-.2-.7-.3-.2,0-.6-.1-.8-.1h-.6c-.2,0-.3.1-.5.2-.1,0-.2.2-.3.3v1c0,.2.2.2.3.3s.3.2.5.2.3.2.6.2.5.2.7.3c.2,0,.5.2.6.3.2.1.3.3.3.6s.1.5.1.8c0,.6-.2,1-.6,1.4s-.9.5-1.7.5-.5,0-.7,0h-.6c-.2,0-.3,0-.5-.1,0,0-.2,0-.2-.1l.2-.6s.1,0,.2.1.2,0,.3.1h1.5Z"/>
            </g>
            <g>
              <path d="M170,23.5c.2.6.3,1,.6,1.6s.3,1,.6,1.5c.2.5.3.9.6,1.4s.3.9.6,1.4c.2-.5.3-.9.6-1.4s.3-.9.6-1.4.3-.9.6-1.5.3-1,.6-1.6h.7c-.2.8-.6,1.5-.8,2.2s-.5,1.1-.7,1.7c-.2.5-.3.9-.6,1.4s-.3.8-.6,1.3h-.6c-.2-.5-.3-.9-.6-1.3s-.3-.9-.6-1.4-.5-1-.7-1.7-.5-1.4-.8-2.2h.7-.2Z"/>
              <path d="M175.9,23.5h.7v6.5h-.7v-6.5Z"/>
              <path d="M182.5,25.5c0,.5-.1.9-.3,1.1s-.6.5-1,.6c0,.1.2.3.3.6s.3.5.5.7.3.6.5.8c.2.2.3.6.5.8h-.7c-.1-.2-.2-.5-.5-.8-.1-.2-.3-.5-.5-.7s-.3-.5-.5-.7-.2-.3-.3-.6h-1.6v2.6h-.7v-6.4c.2,0,.5,0,.8-.1h.8c.9,0,1.6.2,2.1.6s.7.8.7,1.5h-.1ZM179.9,24h-1v2.7h1.7c.2,0,.5,0,.7-.2s.3-.2.5-.5c0-.2.2-.5.2-.8s0-.6-.2-.7c0-.2-.2-.3-.5-.5-.2,0-.3-.2-.6-.2h-.8v.2Z"/>
              <path d="M188.1,23.5v.6h-2.1v5.9h-.7v-5.9h-2.1v-.6h4.9Z"/>
              <path d="M191.4,30.1c-.5,0-.8,0-1.1-.2-.3-.1-.6-.3-.7-.6-.2-.2-.3-.5-.5-.8s-.1-.7-.1-1v-4.1h.7v4c0,.3,0,.7.1.9s.2.5.3.7.3.3.6.3h1.4c.2,0,.3-.2.6-.3s.2-.3.3-.7.1-.6.1-.9v-4h.7v4.1c0,.3,0,.7-.1,1,0,.3-.2.6-.5.8s-.5.5-.7.6-.7.2-1.1.2h0Z"/>
              <path d="M199.8,30c-.1-.3-.2-.6-.3-.9s-.2-.6-.3-.9h-3.2c0,.2-.2.6-.3.9,0,.3-.2.6-.3.9h-.7c.2-.7.5-1.3.7-1.9s.5-1.1.7-1.7.5-1,.6-1.5c.2-.5.5-.9.7-1.5h.6c.2.5.5.9.7,1.5.2.5.5,1,.6,1.5s.5,1,.7,1.7.5,1.3.7,1.9h-.8.2-.3ZM197.5,24.2c-.2.6-.5,1.1-.7,1.6-.2.6-.5,1.1-.7,1.8h2.7c-.2-.7-.5-1.3-.7-1.8-.2-.6-.5-1.1-.7-1.6h0Z"/>
              <path d="M205.2,29.5v.6h-3.6v-6.5h.7v5.9h3.1-.2Z"/>
            </g>
            <path d="M169.3,32.9v6.2h1v-2.7h2.8v-.9h-2.8v-1.7h3.2v-.9s-4.2,0-4.2,0ZM174.4,32.9v6.2h1v-6.2h-1ZM179.4,32.8c-1.8,0-3,1.3-3,3.3s1.1,3.3,3,3.3,3-1.3,3-3.3-1.1-3.3-3-3.3ZM179.4,33.7c1.1,0,1.9.9,1.9,2.4s-.8,2.4-1.9,2.4-1.9-.9-1.9-2.4.8-2.4,1.9-2.4ZM188.8,34.9c0-1.3-1-2.1-2.5-2.1s-3,1.3-3,3.3,1.1,3.3,2.8,3.3,2.6-1,2.6-2.4h-1c0,.9-.8,1.5-1.6,1.5h0c-1.1,0-1.8-.9-1.8-2.4s.7-2.3,1.8-2.3,1.5.5,1.6,1.1h1.1ZM189.8,33v6.2h1v-2.5h1.6c.8,0,.9.3,1,1v.8c0,.2,0,.6.2.8h1.1v-.2c-.2,0-.2-.3-.2-.7v-.9c0-.7-.2-1-.8-1.3.6-.2.9-.8.9-1.5s-.6-1.7-1.5-1.7h-3.4,0ZM190.8,33.8h1.5c.8,0,1.1.2,1.1.9s-.3.9-1.3.9h-1.5v-1.9h.2ZM195.6,33v3.9c0,1.6.8,2.5,2.5,2.5s2.5-.9,2.5-2.5v-3.9h-1v3.9c0,1-.5,1.6-1.4,1.6s-1.4-.6-1.4-1.6v-3.9h-1.3,0ZM201.5,33v.9h3.4l-3.6,4.4v.9h4.8v-.9h-3.5l3.5-4.3v-.9h-4.6,0Z"/>
          </g>
        </g>
      </g>
    </g>
  </g>
  <g>
    <g id="Layer_1-22">
      <rect class="st0" x="14.7" y="54.7" width="72.9" height="69.4"/>
      <g>
        <path d="M43.4,80.3h-6.3c-.2,0-.3,0-.3.3v11.8c0,.2,0,.3.3.3h.9c.2,0,.3,0,.3-.3v-5.4h3.5c.2,0,.3,0,.3-.3v-.7c0-.2,0-.3-.3-.3h-3.5v-4.3h5.2c.2,0,.3,0,.3-.3v-.7c0-.2,0-.3-.3-.3"/>
        <path d="M45.3,80.3h-.9c-.2,0-.3,0-.3.3v11.8c0,.2,0,.3.3.3h.9c.2,0,.3,0,.3-.3v-11.8c0-.2,0-.3-.3-.3"/>
        <path d="M53,83.8v5.3c0,.7-.2,1.3-.6,1.6s-1.2.6-1.8.6-1.4-.2-1.7-.6-.6-1-.6-1.6v-5.3c0-.7.2-1.3.6-1.7.4-.5,1.1-.6,1.7-.6s1.5.2,1.8.6.6,1,.6,1.7M52.6,80.7c-.5-.3-1.4-.5-2.1-.5s-1.5.2-2,.5-1,.7-1.3,1.3c-.3.5-.5,1.2-.5,1.9v5.2c0,.7.2,1.4.5,1.8.3.5.7,1,1.3,1.3.5.3,1.3.5,2,.5s1.5-.2,2.1-.5,1-.7,1.3-1.3c.3-.5.5-1.2.5-1.8v-5.2c0-.7-.2-1.4-.5-1.9s-.7-1-1.3-1.3"/>
        <path d="M59.1,80.3c-1.1,0-2,.4-2.6.9s-1,1.5-1,2.5v5.5c0,1,.4,1.9,1,2.6.6.6,1.8.9,2.9.9s1.9-.4,2.6-.9c.6-.6,1-1.5,1-2.5h0c0-.3,0-.4-.3-.4h-.9c-.2,0-.3,0-.3.2v.3c0,.6-.2,1.2-.6,1.5-.4.4-.9.6-1.6.6s-1.5-.2-1.9-.6-.6-.9-.6-1.5v-5.6c0-.6.2-1.2.6-1.5.4-.4,1-.6,1.7-.6s1.5.2,1.8.6c.4.4.6.9.6,1.5v.3c0,.1.1.2.3.2h.9c.2,0,.3,0,.3-.3v-.2c0-1-.4-1.8-1-2.5-.6-.6-1.7-.9-2.8-.9"/>
        <path d="M70.2,83.7c0,.6-.2,1.3-.5,1.7-.4.4-.8.6-1.4.6h-2.8v-4.5h2.8c.5,0,1,.2,1.4.6s.5.9.5,1.6M69.4,87h0c.6-.2,1.2-.5,1.5-1.1.4-.5.5-1.4.5-2.2s0-1.3-.4-1.7-.6-.9-1.1-1.2-1-.5-1.6-.5h-4.1c-.2,0-.3,0-.3.3v11.8c0,.2,0,.3.3.3h.9c.2,0,.3,0,.3-.3v-5.3h2.6l2.2,5.4s0,.2.3.2h.9c.1,0,.2,0,.2-.2h0l-2.2-5.5h0Z"/>
        <path d="M79.9,80.3h-.9c-.2,0-.3,0-.3.3v8.6c0,.7-.2,1.3-.6,1.7-.4.5-1.1.6-1.8.6s-1.4-.2-1.8-.6c-.4-.5-.6-1-.6-1.7v-8.6c0-.2,0-.3-.3-.3h-.9c-.2,0-.3,0-.3.3v8.5c0,.7.2,1.4.5,1.9s.7,1,1.3,1.3c.5.3,1.4.5,2,.5s1.5-.2,2-.5,1-.7,1.3-1.3c.3-.5.5-1.2.5-1.9v-8.5c0-.2,0-.3-.3-.3"/>
        <path d="M87.6,81.3v-.8c0-.2,0-.3-.3-.3h-6.4c-.2,0-.3,0-.3.3v.7c0,.2,0,.3.3.3h5.1l-5.3,9.7v1.2c0,.2,0,.3.3.3h6.4c.2,0,.3,0,.3-.3v-.7c0-.2,0-.3-.3-.3h-5.1l5.3-9.8v-.3"/>
        <path d="M32.9,91.7h-3.5l-.7-.7h-8.9l-.7.7h-3.4v-.3l.5-.5v-9l-.3-.3v-.5h.8v-3.6l.3-.3v-.7h0s-.2-.3-.2-.4c0-.2-.2-.4-.2-.5,0-.6.5-1.2,1.2-1.2s1.2.5,1.2,1.2,0,.5-.3.7h0v.7l.3.3v3.1h2.1l.5-.5v-2.4h1.9v-.6h1.9v.6h1.9v2.3l.5.5h2.1v-3.1l.3-.3v-.7h0s0-.3-.2-.3c0-.2-.2-.4-.2-.5,0-.6.5-1.2,1.2-1.2s1.2.5,1.2,1.2,0,.5-.2.7h0v.7l.3.3v3.6h.9v.5l-.3.3v9l.5.5v.2h0l-.3.3-.2.2ZM33.7,91h0l-.4-.5v-8.5l.3-.3v-1.3s-.2-.2-.3-.2h-.5v-3.3s0-.2-.2-.3h0c.2-.4.4-.7.4-1.1,0-.9-.6-1.7-1.5-2h0l-.2-1c0-.3-.3-.4-.5-.4s-.4,0-.5.4l-.2,1h0c-.9.3-1.5,1.1-1.5,2.1s0,.8.3,1.1h0s-.2.2-.2.3v2.6h-.7v-1.6l.3-.3v-.8c0-.2-.2-.4-.4-.4h-1.2l-.2.3h-.3v-.6s-.2-.2-.3-.2h-3.8v.7h-.3l-.2-.3h-1.2c-.2,0-.4.2-.4.4v.8l.3.3v1.6h-.7v-2.6s0-.2-.2-.3h0c.2-.4.4-.7.4-1.1,0-.9-.6-1.7-1.5-2h0l-.2-1c0-.3-.3-.4-.5-.4s-.5.2-.5.4l-.2,1h0c-.9.3-1.5,1.1-1.5,2.1s0,.8.3,1.1h0s-.2.2-.2.3v3.3h-.5s-.2,0-.3.2v1.3l.3.3v8.5l-.4.4v1.5c0,.2.2.4.4.4h4.4l.7-.7h8.1l.7.7h4.4c.2,0,.4-.2.4-.4v-1.4"/>
      </g>
    </g>
    <g id="Layer_1-23">
      <rect class="st0" x="122.7" y="52.6" width="81.3" height="73.7"/>
      <g>
        <g>
          <path class="st14" d="M129.1,74.1c.2.2.2.4.2.7s-.2.8-.5,1-.9.3-1.5.3h-2.7v-4.8h2.6c.6,0,1.1,0,1.5.3.3.2.5.5.5.9s0,.4-.2.6-.3.3-.5.4c.3,0,.5.3.7.5h-.1ZM126.2,72.4v.7h.8c.4,0,.5,0,.5-.4s-.2-.4-.5-.4h-.8ZM127.7,74.6c0-.3-.2-.4-.5-.4h-1v.8h1c.4,0,.5,0,.5-.4h0Z"/>
          <path class="st14" d="M132.7,74.9h-.4v1.2h-1.6v-4.8h2.3c.4,0,.8,0,1.2.2.3,0,.6.4.8.6s.3.6.3,1,0,.6-.2.9-.4.5-.7.6l1,1.5h-1.7l-.8-1.2h-.2ZM133.4,72.7c-.1,0-.3,0-.5,0h-.6v1.1h.6c.2,0,.4,0,.5,0,.1,0,.2-.2.2-.4s0-.3-.2-.4h0Z"/>
          <path class="st14" d="M139.8,75.3h-1.8l-.3.8h-1.7l2.1-4.8h1.6l2.1,4.8h-1.7l-.3-.8h0ZM139.4,74.1l-.5-1.2-.5,1.2h1Z"/>
          <path class="st14" d="M143.5,76.1c-.4,0-.7-.2-.9-.4l.5-1.2c.2,0,.5.2.8.3.3,0,.6,0,.8,0h.5c.1,0,.1,0,.1-.2s0-.2-.2-.2-.3,0-.6-.2c-.4,0-.7-.2-.9-.3s-.5-.2-.6-.4-.3-.5-.3-.8,0-.6.3-.8.4-.4.8-.6c.3,0,.7-.2,1.2-.2s.7,0,1,0c.3,0,.6.2.8.3l-.5,1.2c-.5-.2-.9-.4-1.3-.4s-.6,0-.6.3,0,.2.2.2.3,0,.6.2c.4,0,.7,0,.9.2.3,0,.5.2.7.4s.3.5.3.8,0,.6-.3.8c-.2.2-.4.4-.8.6-.3,0-.7.2-1.2.2s-.8,0-1.2,0h-.1Z"/>
          <path class="st14" d="M148.1,71.3h1.6v4.8h-1.6v-4.8Z"/>
          <path class="st14" d="M151.3,71.3h1.6v3.6h2.2v1.3h-3.8v-4.8h0Z"/>
          <path class="st14" d="M163.7,74.1c.2.2.2.4.2.7s-.2.8-.5,1-.9.3-1.5.3h-2.7v-4.8h2.6c.6,0,1.1,0,1.5.3s.5.5.5.9,0,.4-.2.6c-.1.2-.3.3-.5.4.3,0,.5.3.7.5h-.1ZM160.7,72.4v.7h.8c.4,0,.5,0,.5-.4s-.2-.4-.5-.4h-.8ZM162.2,74.6c0-.3-.2-.4-.5-.4h-1v.8h1c.4,0,.5,0,.5-.4h0Z"/>
          <path class="st14" d="M169.2,74.9v1.2h-4v-4.8h3.9v1.2h-2.3v.6h2v1.2h-2v.6h2.4Z"/>
          <path class="st14" d="M174.9,76.1v-2.2l-1.1,1.8h-.7l-1-1.7v2.1h-1.5v-4.8h1.3l1.6,2.6,1.5-2.6h1.3v4.8h-1.5,0Z"/>
        </g>
        <g>
          <path class="st3" d="M127.4,96.4v-1.4l-.7,1.2h0l-.7-1.2v1.4h-.3v-2h.2l.8,1.4.8-1.4h.2v2h-.3,0Z"/>
          <path class="st3" d="M130,96h-1l-.2.5h-.3l.9-2h.3l.9,2h-.3l-.2-.5h0ZM129.9,95.7l-.4-1-.4,1h.8,0Z"/>
          <path class="st3" d="M131.4,94.5h.3v2h-.3v-2Z"/>
          <path class="st3" d="M132.9,96.4c-.1,0-.2,0-.3-.2v-.2c.2,0,.3,0,.4.2h.8c0,0,.1,0,.1-.2v-.2c0,0,0,0-.2,0h-.3c-.1,0-.3,0-.4,0,0,0-.2,0-.2-.2v-.6c0-.1.1,0,.3-.2h.7c.1,0,.2,0,.3,0v.2c-.2,0-.3,0-.4,0s-.2,0-.3,0h-.4c0,0-.1,0-.1.2v.2c0,0,.1,0,.2,0h.3c.1,0,.3,0,.4,0,0,0,.2,0,.2.2v.6c0,.1-.1.2-.3.2h-.8Z"/>
          <path class="st3" d="M136.5,96.4c-.1,0-.2,0-.3-.2v-.2c.2,0,.3,0,.4.2s.2,0,.4,0h.4c0,0,.1,0,.1-.2v-.2c0,0,0,0-.2,0h-.3c-.1,0-.3,0-.4,0,0,0-.2,0-.2-.2v-.6c0-.1.1,0,.3-.2s.3,0,.4,0h.3c.1,0,.2,0,.3,0v.2c-.2,0-.3,0-.4,0h-.7c0,0-.1,0-.1.2v.2c0,0,.1,0,.2,0h.3c.1,0,.3,0,.4,0,0,0,.2,0,.2.2v.6c0,.1-.1.2-.3.2h-.8Z"/>
          <path class="st3" d="M139.9,96h-1l-.2.5h-.3l.9-2h.3l.9,2h-.3l-.2-.5h0ZM139.8,95.7l-.4-1-.4,1h.8,0Z"/>
          <path class="st3" d="M141.5,96.2c-.1,0-.2-.4-.2-.6v-1.1h.3v1.1c0,.4.2.6.6.6s.3,0,.4-.2.1-.3.1-.5v-1.1h.3v1.1c0,.3,0,.5-.2.6-.1,0-.3.2-.6.2s-.5,0-.6-.2h-.1ZM142.3,94h.3l-.5.4h-.3l.4-.4h.1Z"/>
          <path class="st3" d="M144.1,94.5h.8c.2,0,.4,0,.6,0,.2,0,.3.2.4.3s.1.3.1.5,0,.4-.1.5c0,0-.2.3-.4.3s-.3,0-.6,0h-.8v-2h0v.2ZM144.9,96.2h.4c0,0,.2,0,.3-.3v-.8c0,0-.2-.2-.3-.3h-.9v1.5h.5Z"/>
          <path class="st3" d="M148.3,96.2v.2h-1.4v-2h1.4v.2h-1.1v.6h1v.2h-1v.6h1.1v.2Z"/>
          <path class="st3" d="M152,94.7c.1,0,.2.3.2.5s0,.4-.2.5c-.1,0-.3.2-.6.2h-.5v.6h-.3v-2h.8c.3,0,.4,0,.6.2h0ZM151.8,95.5s.1-.2.1-.3,0-.3-.1-.3-.2,0-.4,0h-.5v.9h.5c.2,0,.3,0,.4,0h0Z"/>
          <path class="st3" d="M154.5,96h-1l-.2.5h-.3l.9-2h.3l.9,2h-.3l-.2-.5h0ZM154.4,95.7l-.4-1-.4,1h.8,0Z"/>
          <path class="st3" d="M157.1,96.4l-.4-.6h-.6v.6h-.3v-2h.8c.3,0,.4,0,.6.2s.2.3.2.5,0,.3-.1.4c0,0-.2.2-.3.2l.5.7h-.4ZM157,95.5s.1-.2.1-.3,0-.3-.1-.3-.2,0-.4,0h-.5v.9h.5c.2,0,.3,0,.4,0h0Z"/>
          <path class="st3" d="M159.6,96h-1l-.2.5h-.3l.9-2h.3l.9,2h-.3l-.2-.5h0ZM159.5,95.7l-.4-1-.4,1h.8,0Z"/>
          <path class="st3" d="M164.3,96.6s-.1,0-.2.2-.2,0-.3,0h-.3c-.1,0-.2-.2-.4-.3-.2,0-.3,0-.5,0-.1,0-.3-.2-.3-.4s-.1-.3-.1-.5,0-.4.1-.5c0-.2.2-.3.4-.4.2,0,.3,0,.5,0s.4,0,.5,0c.2,0,.3.2.4.4s.1.3.1.5v.4c0,0-.2.2-.3.3-.1,0-.3.2-.4.2,0,0,.1,0,.2,0h.2c.1,0,.3,0,.4-.2v.2h.1,0ZM162.5,95.8c0,0,.2.2.3.3s.2,0,.4,0h.4c.1,0,.2-.2.3-.3s0-.2,0-.4v-.4c0,0-.2-.2-.3-.3s-.2,0-.4,0h-.4c0,0-.2.2-.3.3s0,.2,0,.4v.4Z"/>
          <path class="st3" d="M165.4,96.2c-.1,0-.2-.4-.2-.6v-1.1h.3v1.1c0,.4.2.6.6.6s.3,0,.4-.2.1-.3.1-.5v-1.1h.3v1.1c0,.3,0,.5-.2.6s-.3.2-.6.2-.5,0-.6-.2h-.1Z"/>
          <path class="st3" d="M169.4,96.2v.2h-1.4v-2h1.4v.2h-1.1v.6h1v.2h-1v.6h1.1v.2Z"/>
          <path class="st3" d="M172.2,96.4v-1.4l-.7,1.2h-.1l-.7-1.2v1.4h-.3v-2h.2l.8,1.4.8-1.4h.2v2h-.3.1Z"/>
          <path class="st3" d="M176.7,96.4v-1.4l-.7,1.2h-.1l-.7-1.2v1.4h-.3v-2h.2l.8,1.4.8-1.4h.2v2h-.3.1Z"/>
          <path class="st3" d="M179.4,96h-1l-.2.5h-.3l.9-2h.3l.9,2h-.3l-.2-.5h0ZM179.3,95.7l-.4-1-.4,1h.8,0Z"/>
          <path class="st3" d="M180.7,94.5h.3v2h-.3v-2Z"/>
          <path class="st3" d="M182.3,96.4c-.1,0-.2,0-.3-.2v-.2c.2,0,.3,0,.4.2h.8c0,0,.1,0,.1-.2v-.2c0,0,0,0-.2,0h-.3c-.1,0-.3,0-.4,0,0,0-.2,0-.2-.2v-.6c0-.1.1,0,.3-.2h.7c.1,0,.2,0,.3,0v.2c-.2,0-.3,0-.4,0s-.2,0-.3,0h-.4c0,0-.1,0-.1.2v.2c0,0,.1,0,.2,0h.3c.1,0,.3,0,.4,0,0,0,.2,0,.2.2v.6s-.1.2-.3.2h-.8Z"/>
          <path class="st3" d="M187.1,94.7c.1,0,.2.3.2.5s0,.4-.2.5c-.1,0-.3.2-.6.2h-.5v.6h-.3v-2h.8c.3,0,.4,0,.6.2h0ZM186.9,95.5s.1-.2.1-.3,0-.3-.1-.3-.2,0-.4,0h-.5v.9h.5c.2,0,.3,0,.4,0h0Z"/>
          <path class="st3" d="M189.6,96.4l-.4-.6h-.6v.6h-.3v-2h.8c.3,0,.4,0,.6.2s.2.3.2.5,0,.3-.1.4-.2.2-.3.2l.5.7h-.4ZM189.5,95.5s.1-.2.1-.3,0-.3-.1-.3-.2,0-.4,0h-.5v.9h.5c.2,0,.3,0,.4,0h0Z"/>
          <path class="st3" d="M192.3,96.2v.2h-1.4v-2h1.4v.2h-1.1v.6h1v.2h-1v.6h1.1v.2Z"/>
          <path class="st3" d="M193.7,96.3c-.2,0-.3-.2-.4-.4,0-.2-.1-.3-.1-.5s0-.4.1-.5.2-.3.4-.4c.2,0,.3,0,.5,0h.4c0,0,.2,0,.3.2l-.2.2c-.1-.2-.3-.2-.6-.2h-.4c-.1,0-.2.2-.3.3v.8c0,0,.2.2.3.3s.3,0,.4,0c.2,0,.4,0,.6-.2l.2.2c0,0-.2.2-.3.2h-.4c0,0-.4,0-.5,0h0v.2Z"/>
          <path class="st3" d="M195.9,94.5h.3v2h-.3v-2Z"/>
          <path class="st3" d="M197.5,96.4c-.1,0-.2,0-.3-.2v-.2c.2,0,.3,0,.4.2h.8c0,0,.1,0,.1-.2v-.2c0,0,0,0-.2,0h-.3c-.1,0-.3,0-.4,0,0,0-.2,0-.2-.2v-.6c0-.1.1,0,.3-.2h.7c.1,0,.2,0,.3,0v.2c-.2,0-.3,0-.4,0s-.2,0-.3,0h-.4c0,0-.1,0-.1.2v.2c0,0,.1,0,.2,0h.3c.1,0,.3,0,.4,0,0,0,.2,0,.2.2v.6s-.1.2-.3.2h-.8Z"/>
          <path class="st3" d="M200.9,96h-1l-.2.5h-.3l.9-2h.3l.9,2h-.3l-.2-.5h0ZM200.8,95.7l-.4-1-.4,1h.8,0Z"/>
        </g>
        <g>
          <polygon class="st2" points="189.2 93.2 204 84 189.2 74.8 189.2 74.8 189.2 74.8 189.1 74.8 189.1 74.8 174.3 84 189.1 93.2 189.1 93.3 189.2 93.2 189.2 93.3 189.2 93.2"/>
          <path class="st14" d="M195.4,84c0-3.5-2.8-6.3-6.2-6.3h0c-3.4,0-6.2,2.8-6.2,6.3s2.8,6.3,6.2,6.3h0c3.4,0,6.2-2.8,6.2-6.3"/>
        </g>
        <g>
          <path class="st14" d="M176,89.9c3.2,0,5.5-2.6,5.5-5.8s-2.6-5.8-5.8-5.8"/>
          <rect class="st2" x="172.1" y="78.2" width="3.9" height="11.7"/>
        </g>
        <g>
          <path class="st14" d="M155.2,89.9c3.2,0,5.5-2.6,5.5-5.8s-2.6-5.8-5.8-5.8"/>
          <rect class="st2" x="151.3" y="78.2" width="3.9" height="11.7"/>
        </g>
        <rect class="st13" x="146.3" y="78.2" width="3.9" height="11.7"/>
        <g>
          <polygon class="st8" points="165.5 77.7 168.3 83.8 171.2 89.9 165.5 89.9 159.8 89.9 162.7 83.8 165.5 77.7"/>
          <polygon class="st9" points="165.5 77.7 168.3 83.8 168.7 84.6 162.3 84.6 162.7 83.8 165.5 77.7"/>
        </g>
        <g>
          <polygon class="st9" points="136.1 78.2 140.8 78.2 140.8 84 136.1 84 136.1 78.2"/>
          <path class="st8" d="M140.8,89.9c-2.6,0-4.7-2.1-4.7-4.7v-1.2h4.7v5.8h0Z"/>
          <polygon class="st9" points="145.4 78.2 140.8 78.2 140.8 84 145.4 84 145.4 78.2"/>
          <path class="st8" d="M140.8,89.9c2.6,0,4.7-2.1,4.7-4.7v-1.2h-4.7v5.8h0Z"/>
        </g>
        <g>
          <path class="st2" d="M125.2,79.4c-2.5,2.5-2.5,6.6,0,9.2,2.5,2.5,6.6,2.5,9.2,0,.2-.2.4-.4.5-.6l-4.4-4.4-.2-.2-4.4-4.4c-.2.2-.4.3-.6.5h-.1Z"/>
          <path class="st14" d="M134.3,79.4c-2.5-2.5-6.6-2.5-9.2,0-2.5,2.5-2.5,6.6,0,9.2.2.2.4.4.6.5l4.4-4.4.2-.2,4.4-4.4c-.2-.2-.3-.4-.5-.6h.1Z"/>
        </g>
      </g>
    </g>
  </g>
  <g>
    <g id="Layer_1-24">
      <rect class="st0" x="8.9" y="93.3" width="56.8" height="100.1"/>
      <g>
        <path class="st11" d="M29.8,135.7l-1.8-.5c-1.2-.4-2-1.5-2-2.7s1.3-2.9,2.9-2.9h3.6v1.3h-2.5c-.5,0-.9.4-.9.9s.2.7.6.8l1.8.6c1.2.4,1.9,1.6,1.9,3s-1.4,3.2-3.2,3.2h-3.8v-1.4h3.2c.5,0,1-.5,1-1.1s-.3-.9-.8-1.1M13.1,135.7l-1.8-.5c-1.1-.4-1.9-1.5-1.9-2.7s1.3-2.9,2.9-2.9h3.6v1.3h-2.5c-.5,0-.9.4-.9.9s.2.7.6.8l1.8.6c1.2.4,1.8,1.6,1.8,3s-1.4,3.2-3.2,3.2h-3.8v-1.4h3.2c.5,0,1-.5,1-1.1s-.3-.9-.8-1.1M21.4,139.7c-2.2,0-3.9-1.5-3.9-3.5v-6.5h2.9v6.8c0,.9.8,1.5,1.7,1.5s1.7-.7,1.7-1.5v-6.8h1.4v6.5c0,1.9-1.7,3.5-3.8,3.5"/>
        <path class="st11" d="M54.5,140.2s-5,.3-9.4,0c0,5.2.7,7.9.8,8.5h9.4c-.5-2.8-.8-7.2-.9-8.4M38.6,129.4c.6,0,6.2.5,6.5.5l8.8,8.9h11.3v-9.4h-26.6ZM45.9,128.8h9.5v-9.2h-9.5v9.2ZM45.9,131.4h0l-1.2-1.2c-1.6,0-6.9-.5-8.6-.8v9.4c8.5.8,12.9,1,17.9.9h0l-8.1-8.2h0ZM54.5,139.3h1.2v7.3c0-.8-.6-5.2-.5-6.7-.2-.2-.6-.7-.6-.7"/>
      </g>
    </g>
    <g id="Layer_1-25">
      <rect class="st0" x="94.4" y="117.3" width="115.4" height="52.2"/>
      <g>
        <polygon class="st10" points="97.3 136.8 97.3 134.6 96.4 136.2 96.1 136.2 95.2 134.6 95.2 136.8 94.7 136.8 94.7 133.7 95.2 133.7 96.2 135.5 97.3 133.7 97.8 133.7 97.8 136.8 97.3 136.8"/>
        <rect class="st10" x="99.3" y="133.7" width=".5" height="3"/>
        <polygon class="st10" points="101.8 134.6 101.8 136.8 101.3 136.8 101.3 133.7 101.7 133.7 103.5 135.9 103.5 133.7 103.9 133.7 103.9 136.8 103.5 136.8 101.8 134.6"/>
        <rect class="st10" x="105.5" y="133.7" width=".5" height="3"/>
        <path class="st10" d="M109.3,134.4s-.2-.2-.3-.2c-.2,0-.3-.1-.5-.1s-.3,0-.4.1-.2.2-.2.3h0v.3h.6c0,0,.3,0,.3.1s.2,0,.3.1c0,0,.2.1.2.2s0,.1,0,.2v.6c0,.1,0,.2-.2.3,0,0-.2.1-.2.2,0,0-.2,0-.3.1h-.3c-.2,0-.4,0-.7-.1-.2,0-.4-.2-.6-.3l.2-.4c0,.1.2.2.4.3s.4.1.6.1.3,0,.4-.1c0,0,.2-.2.2-.3h0c0-.1,0-.2,0-.2h0c0-.1,0-.1-.2-.1h-.5c-.2,0-.3-.1-.4-.1s-.2-.1-.3-.2,0-.2-.2-.2v-.3c0-.1,0-.3,0-.4s0-.2.2-.3.2-.1.3-.2h.4c.4,0,.7.1,1,.3l-.2.4h.4Z"/>
        <polygon class="st10" points="113.3 134.1 112.2 134.1 112.2 136.8 111.7 136.8 111.7 134.1 110.7 134.1 110.7 133.7 113.3 133.7 113.3 134.1"/>
        <path class="st10" d="M115.7,133.4h-.3c0-.1.2-.6.2-.6h.4l-.4.5h.1ZM116.6,136.3v.4h-2.1v-3h2v.4h-1.6v.9h1.4v.4h-1.4v.9h1.7Z"/>
        <path class="st10" d="M118.4,135.3h.8c0,0,.2,0,.3-.2,0-.1,0-.2,0-.4s0-.3-.2-.4-.2-.2-.3-.2h-.8v1.2h0ZM117.9,136.8v-3h1.3c0,0,.3,0,.4.1,0,0,.2.1.3.2,0,.1.2.2.2.3v.4c0,.2,0,.4-.2.5s-.3.3-.4.3l.7,1.2h-.5l-.7-1h-.7v1h-.5,0Z"/>
        <rect class="st10" x="121.7" y="133.7" width=".5" height="3"/>
        <path class="st10" d="M125,136.3c.2,0,.3,0,.4-.1,0,0,.2-.2.3-.3,0-.1.2-.2.2-.3v-.8c0,0,0-.3-.2-.3,0-.1-.2-.2-.3-.2s-.3-.1-.4-.1-.3,0-.4.1-.2.2-.3.3c0,.1-.2.2-.2.3v.4c0,.2,0,.4,0,.5s.2.3.3.4.3.2.5.2M123.5,135.2c0-.2,0-.4,0-.6s.2-.3.3-.5.3-.3.4-.3c.2-.1.4-.1.6-.1s.4,0,.6.1.3.2.4.3c0,.2.2.3.3.5,0,.2,0,.4,0,.5s0,.4,0,.6-.2.3-.3.5-.3.3-.4.3-.4.1-.6.1-.3,0-.5-.1c-.2,0-.3-.1-.4-.2l-.3-.3c0-.1-.2-.3-.2-.4v-.4"/>
        <path class="st10" d="M130.7,134.1h-.6v2.2h.6c.2,0,.4,0,.5-.2.2-.1.3-.2.3-.4s.1-.3.1-.5c0-.3-.1-.6-.3-.8s-.4-.3-.7-.3M129.7,136.8v-3h1.1c.2,0,.4,0,.7.1.2,0,.3.2.5.3.1.2.2.3.3.5,0,.2.1.4.1.6,0,.4-.1.8-.4,1.1s-.6.4-1.1.4h-1.2Z"/>
        <path class="st10" d="M135.1,135.5l-.5-1.3-.5,1.3h1ZM134.4,133.7h.4l1.2,3h-.5l-.3-.8h-1.2l-.3.8h-.5l1.2-3h0Z"/>
        <path class="st10" d="M120.5,140.7h0s0,0-.2-.1,0,0-.2,0h-.2q-.2,0-.2.2c0,.2,0,0,0,0h.5c0,0,.2,0,.3.1s.2.1.3.1.2.1.2.2c0,0,0,.1,0,.2v.7c0,.1,0,.2-.2.3s-.2.1-.3.2c0,0-.2,0-.3.1h-.3c-.2,0-.4,0-.7-.1s-.4-.2-.7-.3l.4-.7h.2s.2,0,.2.1c0,0,.2,0,.3.1h.3q.2,0,.2-.1h0c0-.2,0-.1,0-.2s0,0-.2,0h-.4c-.3-.1-.5-.2-.6-.3s-.2-.3-.2-.5,0-.3,0-.4c0-.1.2-.2.3-.3s.2-.2.4-.2h.4c.3,0,.7.1,1.2.3l-.4.7h0v.3-.4Z"/>
        <path class="st10" d="M123.5,141.7l-.3-1.1-.3,1.1h.6ZM122.7,139.7h.9l1,3h-.8l-.2-.6h-.8l-.2.6h-.9l1-3h0Z"/>
        <path class="st10" d="M127.2,139.6h-.5c0-.1.2-.7.2-.7h.7l-.4.8h0ZM127,142.8h-.5c-.2,0-.3-.1-.4-.2s-.2-.2-.3-.3c0-.1,0-.3-.2-.4v-2.1h.8v1.9c0,.1,0,.2,0,.2,0,0,0,.1.2.2h.5s0-.1.2-.2c0,0,0-.2,0-.2v-1.9h.8v1.6c0,.2,0,.4-.1.6,0,.2-.2.3-.3.5,0,.1-.3.2-.4.3-.2,0-.4.1-.6.1"/>
        <path class="st10" d="M130.8,140.4h-.3v1.6h.3c.2,0,.4,0,.5-.2s.2-.3.2-.6,0-.4-.2-.5-.3-.2-.5-.2M129.7,142.8v-3h1.2c.2,0,.5,0,.7.1s.4.2.5.3.2.3.3.5c0,.2.1.4.1.6,0,.4-.2.8-.4,1.1s-.7.4-1.1.4h-1.3Z"/>
        <polygon class="st10" points="135.8 142 135.8 142.8 133.6 142.8 133.6 139.7 135.7 139.7 135.7 140.4 134.5 140.4 134.5 140.9 135.6 140.9 135.6 141.6 134.5 141.6 134.5 142 135.8 142"/>
        <path d="M173.5,152.3h-.4c0,0-.2-.1-.3-.2s-.1-.2-.2-.3-.1-.2-.1-.3v-1.5h.3v1.6s0,.1.1.2c0,0,.1.1.2.1h.4s.1,0,.2-.1c0,0,.1-.1.1-.2v-1.6h.4v1.6c0,0-.1.3-.2.3,0,.1-.2.2-.3.2s-.3.1-.4.1"/>
        <polygon points="175.9 150.7 175.9 152.2 175.6 152.2 175.6 149.9 175.8 149.9 177.1 151.6 177.1 149.9 177.5 149.9 177.5 152.2 177.2 152.2 175.9 150.7"/>
        <rect x="178.7" y="149.9" width=".4" height="2.3"/>
        <path d="M181.3,151.3l-.4-1-.4,1h.8,0ZM180.7,149.6h-.3v-.2h0c0-.2,0-.1.1-.1h.8v.2h0q0,.1-.1.2h-.5M180.8,149.9h.3l.9,2.3h-.4l-.2-.6h-.9l-.2.6h-.4l.9-2.3h0Z"/>
        <path d="M183.8,151.9h.3c.1,0,.2-.1.2-.2,0,0,.1-.2.1-.3v-.6c0-.1-.1-.2-.2-.3l-.2-.2h-.6c-.1,0-.2.1-.2.2s-.1.2-.2.3v.3c0,.2,0,.3.1.4,0,.1.2.2.3.3s.2.1.4.1M182.7,151.1c0-.2,0-.3.1-.4,0-.2.1-.3.2-.4l.3-.3c.1,0,.3-.1.4-.1s.3,0,.4.1c.1,0,.3.2.3.3.1.1.2.2.2.4v.4c0,0,0,.3-.1.4s-.1.3-.2.4l-.3.3c-.1,0-.3.1-.4.1h-.4c-.2,0-.2-.1-.3-.2-.1,0-.2-.2-.2-.3s-.1-.2-.2-.3v-.3"/>
        <polygon points="188.8 151.9 188.8 152.2 187.3 152.2 187.3 149.9 188.8 149.9 188.8 150.3 187.6 150.3 187.6 150.9 188.7 150.9 188.7 151.2 187.6 151.2 187.6 151.9 188.8 151.9"/>
        <path d="M191.6,151.1h.6c.1,0,.2,0,.2-.1s.1-.2.1-.3,0-.2-.1-.3c0,0-.2-.1-.3-.1h-.6v.8h.1ZM191.2,152.2v-2.3h1.3c.1,0,.2.1.2.2s.1.2.2.2v.3c0,.2,0,.3-.1.4,0,.1-.2.2-.3.3l.5.9h-.4l-.5-.8h-.5v.8h-.4Z"/>
        <polygon points="195.5 151.9 195.5 152.2 194 152.2 194 149.9 195.5 149.9 195.5 150.3 194.3 150.3 194.3 150.9 195.3 150.9 195.3 151.2 194.3 151.2 194.3 151.9 195.5 151.9"/>
        <path d="M197.4,149.9c.2,0,.4,0,.5.1s.3.2.3.4l-.3.2s0-.1-.1-.2c0,0-.1-.1-.2-.1h-.6s-.2,0-.2.1l-.2.2s0,.2-.1.2v.2c0,.2,0,.3.1.4s.2.2.3.3c.1,0,.2.1.4.1h.2s.2,0,.2-.1l.2-.2.3.2c0,.1-.1.2-.2.3-.1.1-.2.2-.3.2h-.4c-.2,0-.3,0-.4-.1-.1,0-.3-.2-.3-.3-.1-.1-.2-.2-.2-.4v-.7c0-.1,0-.2.2-.3,0-.1.1-.2.2-.3.1,0,.2-.1.3-.2h.4"/>
        <path d="M200.2,151.9h.3c.1,0,.2-.1.2-.2,0,0,.1-.2.1-.3v-.6c0-.1-.1-.2-.2-.3l-.2-.2h-.6c-.1,0-.2.1-.2.2s-.1.2-.2.3v.3c0,.2,0,.3.1.4s.2.2.3.3c.1,0,.2.1.4.1M199.1,151.1c0-.2,0-.3.1-.4,0-.2.1-.3.2-.4l.3-.3c.1,0,.3-.1.4-.1s.3,0,.4.1c.1,0,.3.2.3.3.1.1.2.2.2.4v.4c0,0,0,.3-.1.4s-.1.3-.2.4l-.3.3c-.1,0-.3.1-.4.1h-.4c-.2,0-.2-.1-.3-.2s-.2-.2-.2-.3-.1-.2-.2-.3v-.3"/>
        <polygon points="202.6 150.7 202.6 152.2 202.3 152.2 202.3 149.9 202.6 149.9 203.8 151.6 203.8 149.9 204.2 149.9 204.2 152.2 203.9 152.2 202.6 150.7"/>
        <path d="M206.7,150.5s-.1-.1-.3-.2h-.4c-.2,0-.3,0-.3.1,0,0-.1.1-.1.2h0v.2h.7s.1,0,.2.1c0,0,.1,0,.2.1s0,.1.1.2v.4s0,.1-.1.2c0,0-.1.1-.2.1h-1c-.2,0-.3-.1-.4-.2l.2-.3s.2.1.3.2.3.1.4.1h.3s.1-.1.1-.2h0q0-.1-.1-.1h-.4c-.1,0-.2,0-.3-.1,0,0-.2,0-.2-.1,0,0-.1-.1-.1-.2v-.5c0-.1.1-.2.2-.2s.2-.1.3-.1h.3c.3,0,.5.1.8.3l-.2.3h0v-.3Z"/>
        <polygon points="209.5 150.3 208.8 150.3 208.8 152.2 208.4 152.2 208.4 150.3 207.7 150.3 207.7 149.9 209.5 149.9 209.5 150.3"/>
        <path d="M210.9,151.1h.6c.1,0,.2,0,.2-.1s.1-.2.1-.3,0-.2-.1-.3c0,0-.2-.1-.3-.1h-.6v.8h.1ZM210.5,152.2v-2.3h1.3c.1,0,.2.1.2.2s.1.2.2.2v.3c0,.2,0,.3-.1.4,0,.1-.2.2-.3.3l.5.9h-.4l-.5-.8h-.5v.8h-.4Z"/>
        <path d="M214.2,152.3h-.4c0,0-.2-.1-.3-.2s-.1-.2-.2-.3c0-.1-.1-.2-.1-.3v-1.5h.4v1.6s0,.1.1.2.1.1.2.1h.4s.1,0,.2-.1c0,0,.1-.1.1-.2v-1.6h.4v1.6c0,0-.1.3-.2.3,0,.1-.2.2-.3.2s-.3.1-.4.1"/>
        <path d="M218.1,151.7c0,.1-.2.3-.3.3-.2.1-.3.2-.4.2.1.1.2.2.2.3s0,.2-.1.2h-.3c-.1,0-.3,0-.4-.1v-.2h.5c0-.2,0-.3-.2-.3s-.3,0-.4-.1c-.1,0-.2-.2-.3-.3s-.2-.2-.2-.4v-.7c0-.1,0-.2.2-.3,0-.1.1-.2.2-.3.1,0,.2-.1.3-.2h.4c.2,0,.4,0,.5.1s.3.2.3.4l-.3.2s0-.1-.1-.2c0,0-.1-.1-.2-.1h-.6s-.2,0-.2.1l-.2.2s0,.2-.1.2v.2c0,.2,0,.3.1.4s.2.2.3.3c.1,0,.2.1.4.1h.2s.2,0,.2-.1l.2-.2.3.2h0Z"/>
        <path d="M220.2,151.3l-.4-1-.4,1h.8,0ZM219.7,149.6h-.3v-.2h0q0-.1.1-.1h.8v.2h0q0,.1-.1.2h-.5M219.7,149.9h.3l.9,2.3h-.4l-.2-.6h-.9l-.2.6h-.4l.9-2.3h0Z"/>
        <path d="M222.7,151.9h.3c.1,0,.2-.1.2-.2,0,0,.1-.2.1-.3v-.6c0-.1-.1-.2-.2-.3l-.2-.2h-.6c-.1,0-.2.1-.2.2s-.1.2-.2.3v.3c0,.2,0,.3.1.4s.2.2.3.3c.1,0,.2.1.4.1M221.6,151.1c0-.2,0-.3.1-.4,0-.2.1-.3.2-.4l.3-.3c.1,0,.3-.1.4-.1s.3,0,.4.1c.1,0,.3.2.3.3.1.1.2.2.2.4v.4c0,0,0,.3-.1.4,0,.1-.1.3-.2.4l-.3.3c-.1,0-.3.1-.4.1h-.4c-.2,0-.2-.1-.3-.2s-.2-.2-.2-.3-.1-.2-.2-.3v-.3"/>
        <polygon class="st15" points="184.6 140.5 178.7 140.5 178.7 146.5 188.5 146.5 184.6 140.5"/>
        <polygon class="st2" points="194.6 131.4 185.6 146.5 203.6 146.5 194.6 131.4"/>
        <rect class="st2" x="218.6" y="131.4" width="5.2" height="10.1"/>
        <rect class="st17" x="223.8" y="141.4" width="5.2" height="5.1"/>
        <rect class="st12" x="218.6" y="141.4" width="5.2" height="5.1"/>
        <rect class="st13" x="201" y="138.1" width="4.9" height="8.4"/>
        <polygon class="st12" points="185.6 146.5 188.5 146.5 187 144.2 185.6 146.5"/>
        <polygon class="st12" points="201 142.1 201 146.5 203.6 146.5 201 142.1"/>
        <rect class="st15" x="212.5" y="131.4" width="5.2" height="15.1"/>
        <path class="st17" d="M183,140.5h1.6c2.5,0,4.6-2,4.6-4.6s-2-4.6-4.6-4.6h-5.9v9.1h4.3,0Z"/>
        <rect class="st17" x="205.9" y="131.4" width="5.7" height="5.5"/>
        <path class="st2" d="M207.7,136.9h-1.7v9.6h1.7c2.6,0,4.8-2.1,4.8-4.8s-2.1-4.8-4.8-4.8"/>
        <path class="st15" d="M204.3,131.4c-1.9,0-3.4,1.5-3.4,3.4s1.5,3.4,3.4,3.4h1.6v-6.7h-1.6Z"/>
        <path class="st13" d="M171.9,146.5h2.2c2.5,0,4.5-2,4.5-4.5s-2-4.5-4.5-4.5h-6.9v9.1h4.7Z"/>
        <path class="st17" d="M167.2,137.4h6.4c1.7,0,3-1.4,3-3s-1.4-3-3-3h-6.4v6Z"/>
        <rect class="st15" x="167.2" y="131.4" width="5.2" height="6"/>
        <rect class="st2" x="167.2" y="137.4" width="5.2" height="9.1"/>
        <polygon class="st2" points="184.6 140.5 178.7 131.4 178.7 140.5 184.6 140.5"/>
        <path class="st17" d="M200.1,146.5c0-3-2.5-5.5-5.5-5.5s-5.5,2.5-5.5,5.5h11Z"/>
        <path d="M175.4,126.6v.2c0,.9-.6,1.5-1.4,1.5s-1.5-.7-1.5-1.5.7-1.5,1.5-1.5,1,.3,1.3.7l-.7.4c-.1-.2-.4-.4-.6-.4-.4,0-.7.3-.7.8s.3.7.7.7.5-.2.5-.3h-.8v-.6h1.7Z"/>
        <path d="M178.6,126.8c0-.4-.3-.7-.7-.7s-.7.3-.7.7.3.7.7.7.7-.3.7-.7M176.5,126.8c0-.8.7-1.5,1.5-1.5s1.5.7,1.5,1.5-.7,1.5-1.5,1.5-1.5-.7-1.5-1.5"/>
        <polygon points="183.2 125.4 182.1 128.2 181.3 128.2 180.2 125.4 181 125.4 181.7 127.1 182.3 125.4 183.2 125.4"/>
        <polygon points="185 126.1 185 126.5 185.8 126.5 185.8 127.1 185 127.1 185 127.6 186.2 127.6 186.2 128.2 184.2 128.2 184.2 125.4 186.2 125.4 186.2 126.1 185 126.1"/>
        <path d="M188.2,126.6h.5c.2,0,.3,0,.3-.3s-.1-.3-.3-.3h-.5v.5h0ZM188.5,127.2h-.3v1h-.8v-2.9h1.4c.5,0,1,.4,1,.9s-.2.7-.5.8l.7,1.1h-.9l-.5-1h0Z"/>
        <polygon points="193.6 125.4 193.6 128.2 192.9 128.2 191.8 126.8 191.8 128.2 191 128.2 191 125.4 191.7 125.4 192.8 126.9 192.8 125.4 193.6 125.4"/>
        <path d="M196.9,126.8c0-.4-.3-.7-.7-.7s-.7.3-.7.7.3.7.7.7.7-.3.7-.7M194.7,126.8c0-.8.7-1.5,1.5-1.5s1.5.7,1.5,1.5-.7,1.5-1.5,1.5-1.5-.7-1.5-1.5"/>
        <polygon points="201.5 126.1 201.5 126.6 202.3 126.6 202.3 127.2 201.5 127.2 201.5 128.2 200.7 128.2 200.7 125.4 202.8 125.4 202.8 126.1 201.5 126.1"/>
        <polygon points="204.7 126.1 204.7 126.5 205.6 126.5 205.6 127.1 204.7 127.1 204.7 127.6 206 127.6 206 128.2 203.9 128.2 203.9 125.4 206 125.4 206 126.1 204.7 126.1"/>
        <path d="M209.1,126.8c0-.4-.3-.7-.8-.7h-.3v1.4h.3c.4,0,.8-.3.8-.7M209.9,126.8c0,.8-.7,1.4-1.5,1.4h-1.2v-2.9h1.2c.9,0,1.5.6,1.5,1.4"/>
        <polygon points="211.8 126.1 211.8 126.5 212.6 126.5 212.6 127.1 211.8 127.1 211.8 127.6 213.1 127.6 213.1 128.2 211 128.2 211 125.4 213.1 125.4 213.1 126.1 211.8 126.1"/>
        <path d="M215,126.6h.5c.2,0,.3,0,.3-.3s-.1-.3-.3-.3h-.5v.5h0ZM215.4,127.2h-.3v1h-.8v-2.9h1.4c.5,0,1,.4,1,.9s-.2.7-.5.8l.7,1.1h-.9l-.5-1h0Z"/>
        <path d="M219.5,127.1l-.3-.7-.3.7h.6ZM219.8,127.8h-1.2l-.2.5h-.8l1.2-2.9h.7l1.2,2.9h-.8l-.2-.5h.1Z"/>
        <polygon points="223.8 127.5 223.8 128.2 221.8 128.2 221.8 125.4 222.6 125.4 222.6 127.5 223.8 127.5"/>
        <path d="M175.4,126.6v.2c0,.9-.6,1.5-1.4,1.5s-1.5-.7-1.5-1.5.7-1.5,1.5-1.5,1,.3,1.3.7l-.7.4c-.1-.2-.4-.4-.6-.4-.4,0-.7.3-.7.8s.3.7.7.7.5-.2.5-.3h-.8v-.6h1.7Z"/>
        <path d="M178.6,126.8c0-.4-.3-.7-.7-.7s-.7.3-.7.7.3.7.7.7.7-.3.7-.7M176.5,126.8c0-.8.7-1.5,1.5-1.5s1.5.7,1.5,1.5-.7,1.5-1.5,1.5-1.5-.7-1.5-1.5"/>
        <polygon points="183.2 125.4 182.1 128.2 181.3 128.2 180.2 125.4 181 125.4 181.7 127.1 182.3 125.4 183.2 125.4"/>
        <polygon points="185 126.1 185 126.5 185.8 126.5 185.8 127.1 185 127.1 185 127.6 186.2 127.6 186.2 128.2 184.2 128.2 184.2 125.4 186.2 125.4 186.2 126.1 185 126.1"/>
        <path d="M188.2,126.6h.5c.2,0,.3,0,.3-.3s-.1-.3-.3-.3h-.5v.5h0ZM188.5,127.2h-.3v1h-.8v-2.9h1.4c.5,0,1,.4,1,.9s-.2.7-.5.8l.7,1.1h-.9l-.5-1h0Z"/>
        <polygon points="193.6 125.4 193.6 128.2 192.9 128.2 191.8 126.8 191.8 128.2 191 128.2 191 125.4 191.7 125.4 192.8 126.9 192.8 125.4 193.6 125.4"/>
        <path d="M196.9,126.8c0-.4-.3-.7-.7-.7s-.7.3-.7.7.3.7.7.7.7-.3.7-.7M194.7,126.8c0-.8.7-1.5,1.5-1.5s1.5.7,1.5,1.5-.7,1.5-1.5,1.5-1.5-.7-1.5-1.5"/>
        <polygon points="201.5 126.1 201.5 126.6 202.3 126.6 202.3 127.2 201.5 127.2 201.5 128.2 200.7 128.2 200.7 125.4 202.8 125.4 202.8 126.1 201.5 126.1"/>
        <polygon points="204.7 126.1 204.7 126.5 205.6 126.5 205.6 127.1 204.7 127.1 204.7 127.6 206 127.6 206 128.2 203.9 128.2 203.9 125.4 206 125.4 206 126.1 204.7 126.1"/>
        <path d="M209.1,126.8c0-.4-.3-.7-.8-.7h-.3v1.4h.3c.4,0,.8-.3.8-.7M209.9,126.8c0,.8-.7,1.4-1.5,1.4h-1.2v-2.9h1.2c.9,0,1.5.6,1.5,1.4"/>
        <polygon points="211.8 126.1 211.8 126.5 212.6 126.5 212.6 127.1 211.8 127.1 211.8 127.6 213.1 127.6 213.1 128.2 211 128.2 211 125.4 213.1 125.4 213.1 126.1 211.8 126.1"/>
        <path d="M215,126.6h.5c.2,0,.3,0,.3-.3s-.1-.3-.3-.3h-.5v.5h0ZM215.4,127.2h-.3v1h-.8v-2.9h1.4c.5,0,1,.4,1,.9s-.2.7-.5.8l.7,1.1h-.9l-.5-1h0Z"/>
        <path d="M219.5,127.1l-.3-.7-.3.7h.6ZM219.8,127.8h-1.2l-.2.5h-.8l1.2-2.9h.7l1.2,2.9h-.8l-.2-.5h.1Z"/>
        <polygon points="223.8 127.5 223.8 128.2 221.8 128.2 221.8 125.4 222.6 125.4 222.6 127.5 223.8 127.5"/>
      </g>
    </g>
  </g>
</svg>