<?xml version="1.0" encoding="UTF-8"?>
<svg id="Layer_2" data-name="Layer 2" xmlns="http://www.w3.org/2000/svg" viewBox="0 0 61.91 100.05">
  <defs>
    <style>
      .cls-1 {
        fill: none;
      }

      .cls-2 {
        fill: #010101;
      }

      .cls-3 {
        fill: #f7f7f7;
      }
    </style>
  </defs>
  <g id="Layer_1-2" data-name="Layer 1">
    <rect class="cls-1" x=".66" width="60.96" height="100.05"/>
    <g>
      <g>
        <g>
          <path d="M1.75,51.37H.54v.65h1.11c.08,0,.14.02.18.06s.06.09.06.15-.02.11-.06.15-.1.06-.18.06H.54v.75h1.25c.08,0,.15.02.19.06.04.04.06.09.06.16s-.02.11-.06.15c-.04.04-.11.06-.19.06H.33c-.12,0-.2-.03-.25-.08-.05-.05-.08-.14-.08-.25v-1.99c0-.08.01-.14.03-.19.02-.05.06-.08.11-.11.05-.02.11-.03.19-.03h1.42c.09,0,.15.02.19.06s.06.09.06.15-.02.11-.06.15-.11.06-.19.06Z"/>
          <path d="M4.49,52.81c0,.16-.04.3-.12.43-.08.13-.2.23-.36.3-.16.07-.35.11-.57.11-.26,0-.48-.05-.65-.15-.12-.07-.22-.17-.29-.28s-.11-.23-.11-.35c0-.07.02-.12.07-.17s.1-.07.17-.07c.06,0,.1.02.14.05s.07.09.1.16c.03.08.07.15.11.21s.09.1.17.14c.07.04.16.06.28.06.16,0,.29-.04.39-.11.1-.07.15-.17.15-.28,0-.09-.03-.16-.08-.21-.05-.05-.12-.1-.21-.13-.09-.03-.2-.06-.34-.09-.19-.04-.35-.1-.48-.16-.13-.06-.23-.14-.31-.24s-.11-.23-.11-.38.04-.28.12-.39.19-.2.35-.26c.15-.06.33-.09.53-.09.16,0,.3.02.42.06.12.04.22.09.3.16s.14.14.17.21.05.15.05.22c0,.06-.02.12-.07.17s-.1.08-.17.08c-.06,0-.11-.02-.14-.05s-.07-.08-.1-.15c-.05-.1-.11-.18-.17-.23-.07-.06-.18-.08-.33-.08-.14,0-.25.03-.34.09-.09.06-.13.13-.13.22,0,.05.01.1.04.14s.07.07.12.1c.05.03.1.05.15.07.05.02.14.04.26.07.15.03.28.07.41.12s.22.09.31.15c.09.06.15.14.2.23s.07.21.07.34Z"/>
          <path d="M7.2,52.77c0,.08-.02.18-.06.27-.04.1-.11.19-.2.29-.09.09-.2.17-.34.23-.14.06-.3.09-.48.09-.14,0-.27-.01-.38-.04s-.22-.07-.31-.12c-.09-.06-.18-.13-.26-.22-.07-.08-.13-.18-.18-.28-.05-.1-.09-.21-.11-.33s-.04-.24-.04-.37c0-.21.03-.4.09-.57.06-.17.15-.31.27-.43.12-.12.25-.21.41-.27.16-.06.32-.09.5-.09.21,0,.41.04.57.13.17.09.3.19.39.32.09.13.13.25.13.36,0,.06-.02.12-.07.16s-.1.07-.16.07c-.07,0-.12-.02-.15-.05-.03-.03-.07-.09-.11-.17-.07-.13-.15-.23-.25-.29-.09-.07-.21-.1-.35-.1-.22,0-.4.08-.53.25-.13.17-.2.41-.2.71,0,.21.03.38.09.51.06.14.14.24.25.31.11.07.23.1.37.1.15,0,.28-.04.39-.11.11-.08.19-.19.24-.34.02-.07.05-.13.09-.17s.09-.07.16-.07c.06,0,.12.02.16.07s.07.1.07.17Z"/>
          <path d="M8.85,50.91c.27,0,.51.06.71.17.2.11.35.27.45.48.1.21.15.45.15.72,0,.21-.03.39-.08.56-.06.17-.14.31-.25.44-.11.12-.25.22-.41.28-.16.07-.35.1-.56.1s-.39-.03-.56-.1c-.16-.07-.3-.16-.41-.28s-.19-.27-.25-.44c-.06-.17-.08-.36-.08-.56s.03-.39.09-.56c.06-.17.14-.31.25-.43s.25-.21.41-.27c.16-.06.34-.09.54-.09ZM9.61,52.27c0-.19-.03-.36-.09-.5-.06-.14-.15-.25-.27-.32-.12-.07-.25-.11-.4-.11-.11,0-.21.02-.3.06-.09.04-.17.1-.24.18-.07.08-.12.18-.16.3s-.06.25-.06.4.02.29.06.41.09.22.16.3.15.14.24.18.19.06.3.06c.14,0,.26-.03.38-.1.12-.07.21-.17.27-.32.07-.14.1-.32.1-.53Z"/>
          <path d="M11.15,51.23v1.93h1.09c.09,0,.15.02.2.06s.07.1.07.16-.02.12-.07.16-.11.06-.2.06h-1.3c-.12,0-.2-.03-.25-.08-.05-.05-.08-.14-.08-.25v-2.04c0-.11.02-.19.07-.24.05-.05.11-.08.19-.08s.15.03.2.08c.05.05.08.14.08.25Z"/>
          <path d="M14.5,53.3l-.13-.33h-1.08l-.13.34c-.05.13-.09.22-.13.27-.04.05-.09.07-.17.07-.07,0-.13-.02-.18-.07-.05-.05-.08-.11-.08-.17,0-.04,0-.07.02-.11.01-.04.03-.09.06-.16l.68-1.72s.04-.11.07-.18c.03-.07.06-.13.09-.17s.07-.08.12-.11.11-.04.19-.04.14.01.19.04c.05.03.09.06.12.11.03.04.06.09.08.14.02.05.05.12.08.21l.69,1.71c.05.13.08.22.08.28s-.03.12-.08.17c-.05.05-.11.08-.19.08-.04,0-.08,0-.11-.02-.03-.02-.06-.04-.08-.06-.02-.03-.04-.07-.07-.12-.02-.05-.04-.1-.06-.14ZM13.44,52.57h.79l-.4-1.09-.39,1.09Z"/>
        </g>
        <g>
          <path d="M17.43,52.57h-.49v.75c0,.11-.03.19-.08.24s-.11.08-.19.08-.15-.03-.2-.08c-.05-.05-.07-.14-.07-.24v-2.04c0-.12.03-.2.08-.25.05-.05.14-.08.26-.08h.69c.2,0,.36.02.47.05.11.03.2.08.28.15s.14.16.18.26c.04.1.06.22.06.34,0,.27-.08.47-.25.61-.17.14-.41.21-.74.21ZM17.3,51.35h-.36v.81h.36c.13,0,.23-.01.32-.04.08-.03.15-.07.19-.13.04-.06.07-.14.07-.24,0-.12-.03-.21-.1-.29-.08-.08-.24-.12-.48-.12Z"/>
          <path d="M20.04,50.91c.27,0,.51.06.71.17.2.11.35.27.45.48.1.21.15.45.15.72,0,.21-.03.39-.08.56-.06.17-.14.31-.25.44-.11.12-.25.22-.41.28-.16.07-.35.1-.56.1s-.39-.03-.56-.1c-.16-.07-.3-.16-.41-.28s-.19-.27-.25-.44c-.06-.17-.08-.36-.08-.56s.03-.39.09-.56c.06-.17.14-.31.25-.43s.25-.21.41-.27c.16-.06.34-.09.54-.09ZM20.8,52.27c0-.19-.03-.36-.09-.5-.06-.14-.15-.25-.27-.32-.12-.07-.25-.11-.4-.11-.11,0-.21.02-.3.06-.09.04-.17.1-.24.18-.07.08-.12.18-.16.3s-.06.25-.06.4.02.29.06.41.09.22.16.3.15.14.24.18.19.06.3.06c.14,0,.26-.03.38-.1.12-.07.21-.17.27-.32.07-.14.1-.32.1-.53Z"/>
          <path d="M22.33,51.23v1.93h1.09c.09,0,.15.02.2.06s.07.1.07.16-.02.12-.07.16-.11.06-.2.06h-1.3c-.12,0-.2-.03-.25-.08-.05-.05-.08-.14-.08-.25v-2.04c0-.11.02-.19.07-.24.05-.05.11-.08.19-.08s.15.03.2.08c.05.05.08.14.08.25Z"/>
          <path d="M24.06,53.32v-2.09c0-.11.02-.19.07-.24.05-.05.11-.08.19-.08s.15.03.2.08c.05.05.08.14.08.25v2.09c0,.11-.02.19-.08.25s-.12.08-.2.08-.14-.03-.19-.08c-.05-.05-.08-.14-.08-.25Z"/>
          <path d="M26.92,51.39h-.59v1.93c0,.11-.02.19-.07.25-.05.05-.11.08-.19.08s-.14-.03-.19-.08c-.05-.05-.08-.14-.08-.25v-1.93h-.59c-.09,0-.16-.02-.2-.06s-.07-.09-.07-.16.02-.12.07-.16.11-.06.2-.06h1.71c.09,0,.16.02.21.06.05.04.07.09.07.16s-.02.12-.07.16c-.05.04-.11.06-.21.06Z"/>
          <path d="M29.26,51.37h-1.21v.65h1.11c.08,0,.14.02.18.06s.06.09.06.15-.02.11-.06.15-.1.06-.18.06h-1.11v.75h1.25c.08,0,.15.02.19.06.04.04.06.09.06.16s-.02.11-.06.15c-.04.04-.11.06-.19.06h-1.46c-.12,0-.2-.03-.25-.08-.05-.05-.08-.14-.08-.25v-1.99c0-.08.01-.14.03-.19.02-.05.06-.08.11-.11.05-.02.11-.03.19-.03h1.42c.09,0,.15.02.19.06s.06.09.06.15-.02.11-.06.15-.11.06-.19.06ZM28.61,50.26h.24c.06,0,.09,0,.09.03,0,0-.03.05-.1.12-.07.07-.14.13-.2.2-.07.06-.12.1-.14.11-.07.03-.14.05-.22.05-.05,0-.08-.02-.08-.05,0-.02.02-.06.05-.11l.08-.15c.05-.09.09-.14.12-.17.03-.02.09-.04.16-.04Z"/>
          <path d="M32.25,52.77c0,.08-.02.18-.06.27-.04.1-.11.19-.2.29-.09.09-.2.17-.34.23-.14.06-.3.09-.48.09-.14,0-.27-.01-.38-.04s-.22-.07-.31-.12c-.09-.06-.18-.13-.26-.22-.07-.08-.13-.18-.18-.28-.05-.1-.09-.21-.11-.33s-.04-.24-.04-.37c0-.21.03-.4.09-.57.06-.17.15-.31.27-.43.12-.12.25-.21.41-.27.16-.06.32-.09.5-.09.21,0,.41.04.57.13.17.09.3.19.39.32.09.13.13.25.13.36,0,.06-.02.12-.07.16s-.1.07-.16.07c-.07,0-.12-.02-.15-.05-.03-.03-.07-.09-.11-.17-.07-.13-.15-.23-.25-.29-.09-.07-.21-.1-.35-.1-.22,0-.4.08-.53.25-.13.17-.2.41-.2.71,0,.21.03.38.09.51.06.14.14.24.25.31.11.07.23.1.37.1.15,0,.28-.04.39-.11.11-.08.19-.19.24-.34.02-.07.05-.13.09-.17s.09-.07.16-.07c.06,0,.12.02.16.07s.07.1.07.17Z"/>
          <path d="M33.43,51.23l1.03,1.56v-1.58c0-.1.02-.18.07-.23s.1-.08.18-.08.14.03.18.08c.04.05.07.13.07.23v2.09c0,.23-.1.35-.29.35-.05,0-.09,0-.13-.02-.04-.01-.07-.04-.11-.07s-.07-.07-.09-.11c-.03-.04-.06-.08-.09-.12l-1.01-1.54v1.55c0,.1-.02.18-.07.23-.05.05-.11.08-.18.08s-.14-.03-.18-.08c-.05-.05-.07-.13-.07-.23v-2.05c0-.09,0-.15.03-.2.02-.05.06-.1.11-.13.05-.03.11-.05.17-.05.05,0,.09,0,.12.02.03.02.06.04.09.06.03.03.05.06.08.1s.06.09.08.13Z"/>
          <path d="M35.57,53.32v-2.09c0-.11.02-.19.07-.24.05-.05.11-.08.19-.08s.15.03.2.08c.05.05.08.14.08.25v2.09c0,.11-.02.19-.08.25s-.12.08-.2.08-.14-.03-.19-.08c-.05-.05-.08-.14-.08-.25Z"/>
          <path d="M38.96,52.77c0,.08-.02.18-.06.27-.04.1-.11.19-.2.29-.09.09-.2.17-.34.23-.14.06-.3.09-.48.09-.14,0-.27-.01-.38-.04s-.22-.07-.31-.12c-.09-.06-.18-.13-.26-.22-.07-.08-.13-.18-.18-.28-.05-.1-.09-.21-.11-.33s-.04-.24-.04-.37c0-.21.03-.4.09-.57.06-.17.15-.31.27-.43.12-.12.25-.21.41-.27.16-.06.32-.09.5-.09.21,0,.41.04.57.13.17.09.3.19.39.32.09.13.13.25.13.36,0,.06-.02.12-.07.16s-.1.07-.16.07c-.07,0-.12-.02-.15-.05-.03-.03-.07-.09-.11-.17-.07-.13-.15-.23-.25-.29-.09-.07-.21-.1-.35-.1-.22,0-.4.08-.53.25-.13.17-.2.41-.2.71,0,.21.03.38.09.51.06.14.14.24.25.31.11.07.23.1.37.1.15,0,.28-.04.39-.11.11-.08.19-.19.24-.34.02-.07.05-.13.09-.17s.09-.07.16-.07c.06,0,.12.02.16.07s.07.1.07.17Z"/>
          <path d="M41.14,53.3l-.13-.33h-1.08l-.13.34c-.05.13-.09.22-.13.27-.04.05-.09.07-.17.07-.07,0-.13-.02-.18-.07-.05-.05-.08-.11-.08-.17,0-.04,0-.07.02-.11.01-.04.03-.09.06-.16l.68-1.72s.04-.11.07-.18c.03-.07.06-.13.09-.17s.07-.08.12-.11.11-.04.19-.04.14.01.19.04c.05.03.09.06.12.11.03.04.06.09.08.14.02.05.05.12.08.21l.69,1.71c.05.13.08.22.08.28s-.03.12-.08.17c-.05.05-.11.08-.19.08-.04,0-.08,0-.11-.02-.03-.02-.06-.04-.08-.06-.02-.03-.04-.07-.07-.12-.02-.05-.04-.1-.06-.14ZM40.08,52.57h.79l-.4-1.09-.39,1.09Z"/>
          <path d="M43.37,50.95h.7c.18,0,.34.02.47.05.13.03.25.1.35.19.28.24.41.6.41,1.08,0,.16-.01.3-.04.44-.03.13-.07.25-.13.36-.06.11-.13.2-.22.28-.07.06-.15.12-.23.15-.08.04-.18.07-.27.08-.1.02-.21.02-.33.02h-.7c-.1,0-.17-.01-.22-.04-.05-.03-.08-.07-.1-.12-.02-.05-.02-.12-.02-.21v-1.94c0-.12.03-.2.08-.25.05-.05.14-.08.25-.08ZM43.58,51.38v1.8h.41c.09,0,.16,0,.21,0s.1-.02.16-.04c.05-.02.1-.05.14-.08.18-.15.27-.41.27-.79,0-.26-.04-.46-.12-.59-.08-.13-.18-.21-.29-.25-.12-.04-.26-.05-.42-.05h-.35Z"/>
          <path d="M47.53,51.37h-1.21v.65h1.11c.08,0,.14.02.18.06s.06.09.06.15-.02.11-.06.15-.1.06-.18.06h-1.11v.75h1.25c.08,0,.15.02.19.06.04.04.06.09.06.16s-.02.11-.06.15c-.04.04-.11.06-.19.06h-1.46c-.12,0-.2-.03-.25-.08-.05-.05-.08-.14-.08-.25v-1.99c0-.08.01-.14.03-.19.02-.05.06-.08.11-.11.05-.02.11-.03.19-.03h1.42c.09,0,.15.02.19.06s.06.09.06.15-.02.11-.06.15-.11.06-.19.06Z"/>
          <path d="M51.19,52.81c0,.16-.04.3-.12.43-.08.13-.2.23-.36.3-.16.07-.35.11-.57.11-.26,0-.48-.05-.65-.15-.12-.07-.22-.17-.29-.28s-.11-.23-.11-.35c0-.07.02-.12.07-.17s.1-.07.17-.07c.06,0,.1.02.14.05s.07.09.1.16c.03.08.07.15.11.21s.09.1.17.14c.07.04.16.06.28.06.16,0,.29-.04.39-.11.1-.07.15-.17.15-.28,0-.09-.03-.16-.08-.21-.05-.05-.12-.1-.21-.13-.09-.03-.2-.06-.34-.09-.19-.04-.35-.1-.48-.16-.13-.06-.23-.14-.31-.24s-.11-.23-.11-.38.04-.28.12-.39.19-.2.35-.26c.15-.06.33-.09.53-.09.16,0,.3.02.42.06.12.04.22.09.3.16s.14.14.17.21.05.15.05.22c0,.06-.02.12-.07.17s-.1.08-.17.08c-.06,0-.11-.02-.14-.05s-.07-.08-.1-.15c-.05-.1-.11-.18-.17-.23-.07-.06-.18-.08-.33-.08-.14,0-.25.03-.34.09-.09.06-.13.13-.13.22,0,.05.01.1.04.14s.07.07.12.1c.05.03.1.05.15.07.05.02.14.04.26.07.15.03.28.07.41.12s.22.09.31.15c.09.06.15.14.2.23s.07.21.07.34Z"/>
          <path d="M53.35,53.3l-.13-.33h-1.08l-.13.34c-.05.13-.09.22-.13.27-.04.05-.09.07-.17.07-.07,0-.13-.02-.18-.07-.05-.05-.08-.11-.08-.17,0-.04,0-.07.02-.11.01-.04.03-.09.06-.16l.68-1.72s.04-.11.07-.18c.03-.07.06-.13.09-.17s.07-.08.12-.11.11-.04.19-.04.14.01.19.04c.05.03.09.06.12.11.03.04.06.09.08.14.02.05.05.12.08.21l.69,1.71c.05.13.08.22.08.28s-.03.12-.08.17c-.05.05-.11.08-.19.08-.04,0-.08,0-.11-.02-.03-.02-.06-.04-.08-.06-.02-.03-.04-.07-.07-.12-.02-.05-.04-.1-.06-.14ZM52.28,52.57h.79l-.4-1.09-.39,1.09Z"/>
          <path d="M54.32,52.51v-1.28c0-.11.02-.19.07-.24.05-.05.11-.08.19-.08s.15.03.2.08c.05.05.07.14.07.24v1.3c0,.15.02.27.05.37.03.1.09.18.18.23s.2.08.35.08c.21,0,.36-.06.45-.17s.13-.28.13-.51v-1.32c0-.11.02-.19.07-.25.05-.05.11-.08.19-.08s.15.03.2.08c.05.05.08.14.08.25v1.28c0,.21-.02.38-.06.52-.04.14-.12.26-.23.37-.1.09-.21.15-.34.2-.13.04-.28.06-.45.06-.2,0-.38-.02-.53-.07-.15-.04-.27-.11-.36-.2-.09-.09-.16-.21-.2-.35s-.07-.32-.07-.52ZM55.51,50.26h.24c.06,0,.09,0,.09.03,0,0-.03.05-.1.12-.07.07-.14.13-.2.2-.07.06-.12.1-.14.11-.07.03-.14.05-.22.05-.05,0-.08-.02-.08-.05,0-.02.02-.06.05-.11l.08-.15c.05-.09.09-.14.12-.17.03-.02.09-.04.16-.04Z"/>
          <path d="M57.46,50.95h.7c.18,0,.34.02.47.05.13.03.25.1.35.19.28.24.41.6.41,1.08,0,.16-.01.3-.04.44-.03.13-.07.25-.13.36-.06.11-.13.2-.22.28-.07.06-.15.12-.23.15-.08.04-.18.07-.27.08-.1.02-.21.02-.33.02h-.7c-.1,0-.17-.01-.22-.04-.05-.03-.08-.07-.1-.12-.02-.05-.02-.12-.02-.21v-1.94c0-.12.03-.2.08-.25.05-.05.14-.08.25-.08ZM57.67,51.38v1.8h.41c.09,0,.16,0,.21,0s.1-.02.16-.04c.05-.02.1-.05.14-.08.18-.15.27-.41.27-.79,0-.26-.04-.46-.12-.59-.08-.13-.18-.21-.29-.25-.12-.04-.26-.05-.42-.05h-.35Z"/>
          <path d="M61.62,51.37h-1.21v.65h1.11c.08,0,.14.02.18.06s.06.09.06.15-.02.11-.06.15-.1.06-.18.06h-1.11v.75h1.25c.08,0,.15.02.19.06.04.04.06.09.06.16s-.02.11-.06.15c-.04.04-.11.06-.19.06h-1.46c-.12,0-.2-.03-.25-.08-.05-.05-.08-.14-.08-.25v-1.99c0-.08.01-.14.03-.19.02-.05.06-.08.11-.11.05-.02.11-.03.19-.03h1.42c.09,0,.15.02.19.06s.06.09.06.15-.02.11-.06.15-.11.06-.19.06Z"/>
        </g>
        <g>
          <path d="M13.37,55.55v1.39c0,.12,0,.22-.02.31-.01.08-.03.17-.07.26-.06.15-.16.26-.3.34s-.31.12-.51.12c-.18,0-.33-.03-.45-.09s-.22-.15-.29-.27c-.04-.07-.07-.15-.09-.23-.02-.09-.04-.17-.04-.25,0-.08.02-.15.07-.19.05-.04.11-.07.18-.07s.12.02.16.06c.04.04.06.1.08.19.02.09.04.17.06.22.02.06.05.1.1.14s.12.06.21.06c.24,0,.36-.17.36-.52v-1.47c0-.11.02-.19.07-.24.05-.05.11-.08.19-.08s.15.03.2.08c.05.05.07.14.07.24Z"/>
          <path d="M15.12,55.23c.27,0,.51.06.71.17.2.11.35.27.45.48.1.21.15.45.15.72,0,.21-.03.39-.08.56-.06.17-.14.31-.25.44-.11.12-.25.22-.41.28-.16.07-.35.1-.56.1s-.39-.03-.56-.1c-.16-.07-.3-.16-.41-.28s-.19-.27-.25-.44c-.06-.17-.08-.36-.08-.56s.03-.39.09-.56c.06-.17.14-.31.25-.43s.25-.21.41-.27c.16-.06.34-.09.54-.09ZM15.88,56.59c0-.19-.03-.36-.09-.5-.06-.14-.15-.25-.27-.32-.12-.07-.25-.11-.4-.11-.11,0-.21.02-.3.06-.09.04-.17.1-.24.18-.07.08-.12.18-.16.3s-.06.25-.06.4.02.29.06.41.09.22.16.3.15.14.24.18.19.06.3.06c.14,0,.26-.03.38-.1.12-.07.21-.17.27-.32.07-.14.1-.32.1-.53Z"/>
          <path d="M18.44,57.63l-.13-.33h-1.08l-.13.34c-.05.13-.09.22-.13.27-.04.05-.09.07-.17.07-.07,0-.13-.02-.18-.07-.05-.05-.08-.11-.08-.17,0-.04,0-.07.02-.11.01-.04.03-.09.06-.16l.68-1.72s.04-.11.07-.18c.03-.07.06-.13.09-.17s.07-.08.12-.11.11-.04.19-.04.14.01.19.04c.05.03.09.06.12.11.03.04.06.09.08.14.02.05.05.12.08.21l.69,1.71c.05.13.08.22.08.28s-.03.12-.08.17c-.05.05-.11.08-.19.08-.04,0-.08,0-.11-.02-.03-.02-.06-.04-.08-.06-.02-.03-.04-.07-.07-.12-.02-.05-.04-.1-.06-.14ZM17.38,56.89h.79l-.4-1.09-.39,1.09Z"/>
          <path d="M21.5,57.6c.08.05.16.1.26.15.09.05.15.09.18.12.03.03.05.07.05.13,0,.04-.02.08-.05.12s-.08.06-.13.06c-.04,0-.09-.01-.15-.04-.06-.03-.13-.07-.21-.12-.08-.05-.17-.11-.26-.18-.17.09-.39.13-.64.13-.21,0-.39-.03-.55-.1-.16-.07-.3-.16-.41-.28s-.19-.27-.25-.44c-.06-.17-.08-.36-.08-.56s.03-.39.09-.56c.06-.17.14-.31.25-.43s.25-.21.41-.27c.16-.06.34-.09.54-.09.27,0,.51.06.71.17.2.11.35.27.45.48.1.21.15.45.15.72,0,.42-.11.75-.34,1ZM21.07,57.3c.07-.09.13-.19.17-.3s.05-.25.05-.41c0-.19-.03-.36-.09-.5-.06-.14-.15-.25-.27-.32-.12-.07-.25-.11-.4-.11-.11,0-.21.02-.3.06-.09.04-.17.1-.24.18-.07.08-.12.18-.16.3s-.06.25-.06.4c0,.31.07.54.21.7.14.16.32.25.54.25.09,0,.18-.02.27-.06-.06-.04-.13-.08-.21-.13-.09-.04-.14-.07-.17-.1-.03-.02-.05-.06-.05-.1,0-.04.02-.07.05-.1.03-.03.06-.04.1-.04.11,0,.29.09.55.27Z"/>
          <path d="M22.3,56.83v-1.28c0-.11.02-.19.07-.24.05-.05.11-.08.19-.08s.15.03.2.08c.05.05.07.14.07.24v1.3c0,.15.02.27.05.37.03.1.09.18.18.23s.2.08.35.08c.21,0,.36-.06.45-.17s.13-.28.13-.51v-1.32c0-.11.02-.19.07-.25.05-.05.11-.08.19-.08s.15.03.2.08c.05.05.08.14.08.25v1.28c0,.21-.02.38-.06.52-.04.14-.12.26-.23.37-.1.09-.21.15-.34.2-.13.04-.28.06-.45.06-.2,0-.38-.02-.53-.07-.15-.04-.27-.11-.36-.2-.09-.09-.16-.21-.2-.35s-.07-.32-.07-.52Z"/>
          <path d="M25.13,57.64v-2.09c0-.11.02-.19.07-.24.05-.05.11-.08.19-.08s.15.03.2.08c.05.05.08.14.08.25v2.09c0,.11-.02.19-.08.25s-.12.08-.2.08-.14-.03-.19-.08c-.05-.05-.08-.14-.08-.25Z"/>
          <path d="M27.17,57.53l-.43-1.69v1.83c0,.1-.02.18-.07.23-.05.05-.11.08-.18.08s-.13-.03-.18-.08c-.05-.05-.07-.13-.07-.23v-2.1c0-.12.03-.19.09-.23.06-.04.14-.06.24-.06h.17c.1,0,.17,0,.22.03.05.02.08.05.1.1.02.05.05.12.07.23l.39,1.45.39-1.45c.03-.11.05-.18.07-.23.02-.05.06-.08.1-.1.05-.02.12-.03.22-.03h.17c.1,0,.18.02.24.06.06.04.09.12.09.23v2.1c0,.1-.02.18-.07.23-.05.05-.11.08-.18.08-.07,0-.13-.03-.18-.08-.05-.05-.07-.13-.07-.23v-1.83l-.43,1.69c-.03.11-.05.19-.07.24-.02.05-.05.1-.1.14-.05.04-.11.06-.2.06-.06,0-.12-.01-.16-.04s-.08-.06-.1-.1c-.02-.04-.04-.09-.06-.14-.01-.05-.03-.1-.04-.16Z"/>
        </g>
        <g>
          <path d="M30.69,55.58l.6,1.78.6-1.79c.03-.09.05-.16.07-.2s.04-.07.08-.1c.04-.03.09-.04.15-.04.05,0,.09.01.13.03s.07.05.09.09c.02.04.03.08.03.11,0,.03,0,.06-.01.09,0,.03-.02.06-.03.09-.01.03-.02.06-.03.09l-.64,1.73c-.02.07-.05.13-.07.19-.02.06-.05.11-.08.16s-.07.08-.12.11c-.05.03-.11.04-.18.04s-.13-.01-.18-.04-.09-.07-.12-.11c-.03-.05-.06-.1-.08-.16-.02-.06-.05-.12-.07-.19l-.63-1.72s-.02-.06-.03-.09-.02-.06-.03-.1c0-.03-.01-.06-.01-.09,0-.06.02-.12.07-.17.05-.05.11-.08.19-.08.09,0,.16.03.19.08.04.06.08.15.12.27Z"/>
          <path d="M34.6,55.69h-1.21v.65h1.11c.08,0,.14.02.18.06s.06.09.06.15-.02.11-.06.15-.1.06-.18.06h-1.11v.75h1.25c.08,0,.15.02.19.06.04.04.06.09.06.16s-.02.11-.06.15c-.04.04-.11.06-.19.06h-1.46c-.12,0-.2-.03-.25-.08-.05-.05-.08-.14-.08-.25v-1.99c0-.08.01-.14.03-.19.02-.05.06-.08.11-.11.05-.02.11-.03.19-.03h1.42c.09,0,.15.02.19.06s.06.09.06.15-.02.11-.06.15-.11.06-.19.06Z"/>
          <path d="M36.02,55.55l1.03,1.56v-1.58c0-.1.02-.18.07-.23s.1-.08.18-.08.14.03.18.08c.04.05.07.13.07.23v2.09c0,.23-.1.35-.29.35-.05,0-.09,0-.13-.02-.04-.01-.07-.04-.11-.07s-.07-.07-.09-.11c-.03-.04-.06-.08-.09-.12l-1.01-1.54v1.55c0,.1-.02.18-.07.23-.05.05-.11.08-.18.08s-.14-.03-.18-.08c-.05-.05-.07-.13-.07-.23v-2.05c0-.09,0-.15.03-.2.02-.05.06-.1.11-.13.05-.03.11-.05.17-.05.05,0,.09,0,.12.02.03.02.06.04.09.06.03.03.05.06.08.1s.06.09.08.13Z"/>
          <path d="M39.83,57.63l-.13-.33h-1.08l-.13.34c-.05.13-.09.22-.13.27-.04.05-.09.07-.17.07-.07,0-.13-.02-.18-.07-.05-.05-.08-.11-.08-.17,0-.04,0-.07.02-.11.01-.04.03-.09.06-.16l.68-1.72s.04-.11.07-.18c.03-.07.06-.13.09-.17s.07-.08.12-.11.11-.04.19-.04.14.01.19.04c.05.03.09.06.12.11.03.04.06.09.08.14.02.05.05.12.08.21l.69,1.71c.05.13.08.22.08.28s-.03.12-.08.17c-.05.05-.11.08-.19.08-.04,0-.08,0-.11-.02-.03-.02-.06-.04-.08-.06-.02-.03-.04-.07-.07-.12-.02-.05-.04-.1-.06-.14ZM39.26,54.95l-.18-.21-.18.21c-.05.06-.09.1-.1.11-.02.01-.05.02-.1.02h-.14s-.07,0-.07-.03c0-.01.02-.04.06-.09l.2-.24s.04-.04.06-.07c.02-.03.04-.05.06-.06.02-.01.04-.02.07-.03.03,0,.07,0,.11,0h.1c.08,0,.13,0,.16.03.03.02.07.07.13.14l.21.24s.05.07.05.08c0,.02-.03.03-.08.03h-.14s-.06,0-.09-.02c-.02-.01-.04-.03-.06-.05-.02-.02-.04-.04-.06-.07ZM38.77,56.89h.79l-.4-1.09-.39,1.09Z"/>
          <path d="M41.5,55.55l1.03,1.56v-1.58c0-.1.02-.18.07-.23s.1-.08.18-.08.14.03.18.08c.04.05.07.13.07.23v2.09c0,.23-.1.35-.29.35-.05,0-.09,0-.13-.02-.04-.01-.07-.04-.11-.07s-.07-.07-.09-.11c-.03-.04-.06-.08-.09-.12l-1.01-1.54v1.55c0,.1-.02.18-.07.23-.05.05-.11.08-.18.08s-.14-.03-.18-.08c-.05-.05-.07-.13-.07-.23v-2.05c0-.09,0-.15.03-.2.02-.05.06-.1.11-.13.05-.03.11-.05.17-.05.05,0,.09,0,.12.02.03.02.06.04.09.06.03.03.05.06.08.1s.06.09.08.13Z"/>
          <path d="M45.87,57.09c0,.08-.02.18-.06.27-.04.1-.11.19-.2.29-.09.09-.2.17-.34.23-.14.06-.3.09-.48.09-.14,0-.27-.01-.38-.04s-.22-.07-.31-.12c-.09-.06-.18-.13-.26-.22-.07-.08-.13-.18-.18-.28-.05-.1-.09-.21-.11-.33s-.04-.24-.04-.37c0-.21.03-.4.09-.57.06-.17.15-.31.27-.43.12-.12.25-.21.41-.27.16-.06.32-.09.5-.09.21,0,.41.04.57.13.17.09.3.19.39.32.09.13.13.25.13.36,0,.06-.02.12-.07.16s-.1.07-.16.07c-.07,0-.12-.02-.15-.05-.03-.03-.07-.09-.11-.17-.07-.13-.15-.23-.25-.29-.09-.07-.21-.1-.35-.1-.22,0-.4.08-.53.25-.13.17-.2.41-.2.71,0,.21.03.38.09.51.06.14.14.24.25.31.11.07.23.1.37.1.15,0,.28-.04.39-.11.11-.08.19-.19.24-.34.02-.07.05-.13.09-.17s.09-.07.16-.07c.06,0,.12.02.16.07s.07.1.07.17Z"/>
          <path d="M46.38,57.64v-2.09c0-.11.02-.19.07-.24.05-.05.11-.08.19-.08s.15.03.2.08c.05.05.08.14.08.25v2.09c0,.11-.02.19-.08.25s-.12.08-.2.08-.14-.03-.19-.08c-.05-.05-.08-.14-.08-.25Z"/>
          <path d="M48.68,55.23c.27,0,.51.06.71.17.2.11.35.27.45.48.1.21.15.45.15.72,0,.21-.03.39-.08.56-.06.17-.14.31-.25.44-.11.12-.25.22-.41.28-.16.07-.35.1-.56.1s-.39-.03-.56-.1c-.16-.07-.3-.16-.41-.28s-.19-.27-.25-.44c-.06-.17-.08-.36-.08-.56s.03-.39.09-.56c.06-.17.14-.31.25-.43s.25-.21.41-.27c.16-.06.34-.09.54-.09ZM49.45,56.59c0-.19-.03-.36-.09-.5-.06-.14-.15-.25-.27-.32-.12-.07-.25-.11-.4-.11-.11,0-.21.02-.3.06-.09.04-.17.1-.24.18-.07.08-.12.18-.16.3s-.06.25-.06.4.02.29.06.41.09.22.16.3.15.14.24.18.19.06.3.06c.14,0,.26-.03.38-.1.12-.07.21-.17.27-.32.07-.14.1-.32.1-.53Z"/>
        </g>
      </g>
      <g>
        <path d="M26.33,40.16c1.04.75,1.35,1.21,2.2,2.04.09.09.25.29.35.11-.82-2.08-1.7-4.15-2.44-6.27-1.37-3.95-4.79-13.94,1.37-15.35,2.68-.62,7.38,1.85,8.63,4.3s-.03,5.31-1.99,6.87c-2.22,1.77-5.21-.83-6.13-2.92-1.22-2.75.26-4.92,3.29-4.57,2.84.32,1.98,3.89.64,5.4-1.68,1.9-2.96-1.61-1.34-3.08.98-.89,1.49.03,1.34,1.05-.35.06-.18-.09-.23-.28-.07-.28-.06-.86-.5-.75-1.4.38-.79,5.69,1.14,1.73,1.22-2.5.17-4.13-2.64-3.46-3.72.9-.07,6.6,2.3,6.93,2.65.37,4.28-3.21,3.96-5.47-.46-3.28-8.07-7.02-10.16-3.61-1.81,2.96-.66,7.36.29,10.46.82,2.68,1.86,5.8,2.85,8.41.18.48,1.02,2.82,1.64,2.63.15-.04,1.36-2.16,1.65-2.54,4.85-6.31,11.03-2.57,17.51-2.56,1.09,0,2.8-.32,3.92-.5,1.41-.23,2.81-.61,4.22-.87l.17.38c-2.2.46-4.81,1.5-7.02,1.68-6.31.52-15.1-3.72-19.09,3.37.05.09.13.13.23.12,3.18-2.76,8.01-3.07,12-3.01,5.25.07,10.48.64,15.73.81v.58s-17.82-.35-17.82-.35c-2.37.28-5.02.48-7.21,1.49s-2.09,3.16-4.86,2.93c-1.07-.09-1.54-1.07-2.26-1.68-2.18-1.85-9.09-2.75-12-2.86-4.33-.17-8.49.34-12.76.47-.28,0-1.96.07-2.03,0-.31-.31.47-.51.67-.55,1.66-.3,3.62-.55,5.31-.73,6.8-.73,14.14-.89,20.48,1.97.05-.23-.12-.27-.24-.39-.34-.34-.98-.83-1.38-1.11-.21-.31-.27-1.01.23-.81Z"/>
        <path class="cls-2" d="M26.33,40.16l-.23.29c.43.12.18.25,0,.52-2.19-1.56-3.83-2.12-6.55-1.97-3.1.17-6.11.93-9.28.69-2.28-.17-4.58-1.22-6.82-1.65-.43-.22-.2-.58.31-.55,1.83.12,3.95,1.13,5.82,1.27,3.45.27,6.9-.35,10.33-.47,2.93-.1,4.09.17,6.44,1.86Z"/>
        <path class="cls-3" d="M30.85,26.22c.18.27-.45.43-.46.17,0-.09.45-.19.46-.17Z"/>
      </g>
    </g>
  </g>
</svg>