<?xml version="1.0" encoding="UTF-8"?>
<svg id="Layer_2" xmlns="http://www.w3.org/2000/svg" version="1.1" viewBox="0 0 53.7 100.1">
  <!-- Generator: Adobe Illustrator 29.2.1, SVG Export Plug-In . SVG Version: 2.1.0 Build 116)  -->
  <defs>
    <style>
      .st0 {
        fill: none;
      }

      .st1 {
        fill: #1e3361;
      }

      .st2 {
        fill: #069a4b;
      }

      .st3 {
        fill: #ffca26;
      }
    </style>
  </defs>
  <g id="Layer_1-2">
    <rect class="st0" x="-1" width="55.7" height="103.6"/>
    <g>
      <path class="st2" d="M9.9,25.8c3.7-2.9,8.2-4.8,13.1-5.5l3.8-3.8c-13.7,0-25,10.2-26.8,23.4,1.7-5.7,5.2-10.6,9.9-14.1h0Z"/>
      <path class="st1" d="M27,63.7v-1.7s-1.6-1.6-1.6-1.6l-2.2-.4,4.5-3-.7-1.5.3-1h-.9s-.3-1.4-.3-1.4l-2-.5.7-2.6-2.1-3,.6-.4,2.3,3.3-.6,2.2,1.7.5.2,1.3h1.2s-.5,1.7-.5,1.7l.9,1.8-3.6,2.4h.7c0,.1,2.1,2.1,2.1,2.1v.3l3.6-3.5.2-2.2,4.5-1.9,1.8.6,2.1-2.1-.2-1,1.8-2.1-.2-2.1,4.7-3.3.2-2.6h-1.1c0,0-2.6-3.3-2.6-3.3h-2.2c0,0-.9-.8-.9-.8l-.8.5-2.3-2.3h-.4s-1.2,1.1-1.2,1.1l-2.3-.9,1.7-1.1h.8c0,0-1.1-.2-1.1-.2l-2.1,1,2-2.6-.6-2.2-1,1.3-1.7.2-.9-.4-3.2.9-1.1-1.7.5-1.4-.4-.6-2.6,1-1.2-.7.2.7,2.1.9-3.4,1.2-1.6-.4v-.8c-.1,0-1.8.3-1.8.3l.7,1.4-1.3-.3.3,1.2-1,2.4-3.3,1.4-.5,1.1.8,2.6-.7.2-.9-2.8.7-1.6,3.3-1.4.8-2-.5-2.1.9.2-.5-.9,3.4-.5.2,1,.9.2,1.5-.5-.7-.3-.7-2.6,2.4,1.3,2.8-1.1.9,1.3-.5,1.4.6,1,3-.8.9.4h1.2c0-.1,1.7-2.3,1.7-2.3l1.1,3.9-.6.7h1.7c0,.1-.2,1.2-.2,1.2h0c0,0,1-.2,1-.2l2.1,2.1.7-.5,1.2,1h2.3c0,0,2.6,3.3,2.6,3.3h1.5c0,0-.3,3.8-.3,3.8l-4.7,3.3.2,2-1.8,2.1.2,1.1-2.7,2.7-1.9-.7-3.8,1.6-.2,2-5.1,4.9h0ZM34,35.9l.6.3.6-.5h-.8l-.4.2h0Z"/>
      <path class="st3" d="M43.8,61.3c-3.7,2.9-8.2,4.8-13.1,5.5l-3.8,3.8c13.7,0,25-10.2,26.8-23.4-1.7,5.7-5.2,10.6-9.9,14.1Z"/>
      <g>
        <path class="st1" d="M6.9,47.2v-7.3h3.6v1.8h-1.6v1.1h1.4v1.7h-1.4v2.8h-2Z"/>
        <path class="st1" d="M11,44.6v-4.7h2v4.9c0,.2,0,.4.1.5,0,.1.2.1.4.1s.3,0,.4-.1c0-.1.1-.3.1-.5v-4.9h2v4.7c0,1-.2,1.6-.6,2.1-.4.4-1,.7-1.9.7s-1.5-.2-1.9-.7c-.4-.4-.6-1.1-.6-2.1Z"/>
        <path class="st1" d="M16.8,47.2v-7.3h2l1.1,3.8v-3.8h1.9v7.3h-2l-1.1-3.7v3.7h-1.9Z"/>
        <path class="st1" d="M22.1,47.2l1.6-7.3h2.3l1.6,7.3h-2l-.2-1.1h-1.2l-.2,1.1h-2ZM24.5,44.6h.8l-.4-2.7s-.4,2.7-.4,2.7Z"/>
        <path class="st1" d="M27.7,44.8c.3.2.6.4.8.5.2.1.5.2.6.2s.3,0,.4-.1c.1,0,.2-.2.2-.4s-.2-.4-.5-.8c0,0,0,0,0,0-.6-.6-1-1-1.2-1.3-.2-.3-.3-.6-.3-1,0-.6.2-1.1.6-1.5.4-.4,1-.6,1.6-.6s.5,0,.8.1.6.2.8.3v1.9c-.2-.2-.5-.3-.7-.4-.2-.1-.4-.1-.6-.1s-.3,0-.4.1c0,0-.1.2-.1.3s.2.4.5.7c0,0,0,0,0,0,.6.5,1,.9,1.2,1.2.2.3.3.7.3,1.1,0,.7-.2,1.3-.7,1.7-.5.4-1,.6-1.8.6s-.6,0-.8-.1c-.3,0-.6-.2-.8-.4v-2h0Z"/>
        <path class="st1" d="M31.8,47.2l1.6-7.3h2.3l1.6,7.3h-2l-.2-1.1h-1.2l-.2,1.1s-2,0-2,0ZM34.2,44.6h.8l-.4-2.7s-.4,2.7-.4,2.7Z"/>
      </g>
    </g>
  </g>
</svg>