<?xml version="1.0" encoding="UTF-8"?>
<svg id="Layer_2" xmlns="http://www.w3.org/2000/svg" version="1.1" viewBox="0 0 297.2 100.1">
  <!-- Generator: Adobe Illustrator 29.4.0, SVG Export Plug-In . SVG Version: 2.1.0 Build 152)  -->
  <defs>
    <style>
      .st0 {
        fill: none;
      }

      .st1 {
        fill: #ec1c2a;
      }

      .st1, .st2 {
        fill-rule: evenodd;
      }

      .st2 {
        fill: #fff;
      }

      .st3 {
        fill: #00506e;
      }

      .st4 {
        fill: #404041;
      }

      .st5 {
        fill: #282223;
      }
    </style>
  </defs>
  <g id="Layer_1-212">
    <rect class="st0" width="297.2" height="100.1"/>
    <g>
      <g>
        <g>
          <path class="st4" d="M269,42.7c1.4-.9,2.1-2.2,2.1-3.9h0c0-1.4-.4-2.5-1.3-3.4s-2.8-1.7-5-1.7h-8.8v18.8h9c4.5,0,7.1-1.9,7.1-5.3h0c0-2.2-1-3.6-3.1-4.6h0ZM264.9,48.5h-4.5v-3.4h4.4c1.8,0,2.7.6,2.7,1.7h0c0,1.2-.9,1.8-2.6,1.8h0ZM260.5,41.1v-3.3h3.7c1.1,0,2.4.3,2.4,1.6h0c0,1.1-.9,1.7-2.6,1.7h-3.5Z"/>
          <path class="st4" d="M287.2,33.7h-7.4v18.8h7.4c2.8,0,5.4-1,7.2-2.7,1.8-1.7,2.8-4.1,2.8-6.7h0c0-5.5-4.2-9.4-10-9.4ZM292.4,43.2h0c0,3.1-2.1,5.2-5.2,5.2h-2.8v-10.4h2.8c3.1,0,5.2,2.1,5.2,5.2Z"/>
          <path class="st4" d="M275.6,33.7c1.3,0,2.3,1,2.3,2.3v16.6h-4.6v-18.9h2.3Z"/>
        </g>
        <path class="st3" d="M236.8,46c-2.4,3.9,5.4,4,1.8,11.3h-.3c-8.4,1.2-16.2-4.6-17.4-13-.6-4,.4-7.8,2.5-10.9-.4,8.8,15.7,8.8,13.4,12.5M240.2,57c.8-1.5,2.6-3.8,6.5-8.3,5.8-6.8-11.3-4.5-14.3-9.6-2.4-4.2,6.6-7.3,12-9.6,3.5,2.3,6.1,6.1,6.8,10.6,1.1,7.7-3.7,14.9-11,17h0ZM235.1,37.6c-.6.3.4,1.6,3.1,1.7s-.8-2.9-3.1-1.7ZM241,39c-2-.6-.7.9.3,1,.9,0,1.1-.6-.3-1ZM243,40.6c-.7,0-.8.4.2.6,1.4.3.4-.5-.2-.6Z"/>
      </g>
      <g>
        <g>
          <path class="st1" d="M28.4,4.1s-4.4-1.9-11.8-1.9h0c-7.4,0-11.8,1.9-11.8,1.9v2.5c0,2.9.2,7.6,1.3,10.8,2.6,7.5,8.9,10.2,10.3,10.7h.5c1.4-.5,7.6-3.2,10.3-10.7,1.7-4.8,1.3-13.3,1.3-13.3h0Z"/>
          <polygon class="st2" points="24.4 11.4 24.4 16.1 18.9 16.1 18.9 21.6 14.2 21.6 14.2 16.1 8.7 16.1 8.7 11.4 14.2 11.4 14.2 6 18.9 6 18.9 11.4 24.4 11.4"/>
        </g>
        <g>
          <path class="st5" d="M38.1,10.4v-.6c.2.1.4.2.7.2h.7c.4,0,.7,0,.9-.3.2-.2.4-.5.4-.9s-.2-.6-.7-.9c-.4-.2-.8-.5-1.3-.8s-.7-.7-.7-1.2.2-.8.5-1.1c.3-.3.8-.4,1.3-.4h1.1v.5c-.2,0-.4,0-.6-.2h-.6c-.3,0-.6,0-.8.2-.3.2-.4.4-.4.8s.2.6.7.9c.4.2.8.5,1.3.8s.7.8.7,1.2-.2.9-.6,1.2c-.3.2-.8.4-1.3.4h-.7c-.2,0-.4-.1-.6-.2h0v.3h0Z"/>
          <path class="st5" d="M45.9,6.3v.5c-.2,0-.4,0-.5-.2h-.4c-.5,0-.9.2-1.2.5s-.4.8-.4,1.3,0,.9.4,1.3.7.5,1.1.5.6,0,1-.2v.5c0,0-.3,0-.5.1h-.6c-.7,0-1.2-.2-1.5-.7-.3-.4-.5-.9-.5-1.6s.2-1.2.6-1.6.9-.6,1.5-.6h1.1,0v.2Z"/>
          <path class="st5" d="M47.5,10.5v-6.2h.5v2.7c0-.2.3-.4.5-.6s.5-.2.8-.2c.5,0,.9.2,1.2.5.2.3.3.7.3,1.3v2.5h-.5v-2.5c0-.4,0-.8-.2-1-.2-.3-.4-.4-.8-.4s-.8.2-1,.5-.3.7-.3,1.1v2.3h-.5Z"/>
          <path class="st5" d="M58.5,6.3l-1.4,4.2h-.6l-1.2-3.7-1.2,3.7h-.6l-1.4-4.2h.6l1.1,3.6,1.2-3.7h.6l1.1,3.7,1.2-3.7h.6Z"/>
          <path class="st5" d="M62.8,9.8v.5c-.2,0-.4.1-.6.2s-.4,0-.6,0c-.7,0-1.2-.2-1.5-.6-.3-.4-.4-.9-.4-1.6s.2-1.2.5-1.6.8-.6,1.3-.6,1,.2,1.3.6.4.9.4,1.5v.3h-2.9c0,.5,0,.9.4,1.2.2.3.6.4,1,.4s.4,0,.6-.1c.2,0,.4-.1.5-.2h0ZM60.2,8.1h2.3c0-.4,0-.8-.2-1-.2-.3-.5-.5-.8-.5s-.7.2-.9.5-.3.6-.3,1h0Z"/>
          <path class="st5" d="M65.3,4.4v.7h-.5v-.7h.5ZM64.8,10.5v-4.2h.5v4.2h-.5Z"/>
          <path class="st5" d="M66.9,10.5v-.4l2.6-3.3h-2.4v-.4h3.1v.4l-2.6,3.3h2.6v.4s-3.3,0-3.3,0Z"/>
          <path class="st5" d="M74.5,9.8v.5c-.2,0-.4.1-.6.2s-.4,0-.6,0c-.7,0-1.2-.2-1.5-.6-.3-.4-.4-.9-.4-1.6s.2-1.2.5-1.6.8-.6,1.3-.6,1,.2,1.3.6.4.9.4,1.5v.3h-2.9c0,.5,0,.9.4,1.2s.6.4,1,.4.4,0,.6-.1c.2,0,.4-.1.6-.2h-.1ZM71.9,8.1h2.3c0-.4,0-.8-.2-1-.2-.3-.5-.5-.8-.5s-.7.2-.9.5c-.2.3-.3.6-.3,1h0Z"/>
          <path class="st5" d="M76.4,10.5v-4.3h.5v.8c0-.3.3-.5.4-.6.2-.2.4-.3.7-.3s0,0,.2,0h.2v.6h-.4c-.4,0-.7.2-.8.6,0,.3-.2.7-.2,1.1v2.1s-.6,0-.6,0Z"/>
          <path class="st5" d="M80.4,4.4v.7h-.5v-.7h.5ZM79.9,10.5v-4.2h.5v4.2h-.5Z"/>
          <path class="st5" d="M82,10.4v-.5c.2,0,.4.1.6.2h.6c.2,0,.5,0,.7-.2s.3-.3.3-.6-.2-.5-.5-.7-.7-.3-1-.5-.5-.5-.5-.9,0-.7.4-.9c.2-.2.6-.3,1-.3h.5c.2,0,.4,0,.6.2v.5c-.2,0-.4,0-.5-.2h-.5c-.3,0-.5,0-.7.2-.2,0-.2.3-.2.5s.2.4.5.6c.6.3,1,.5,1,.5.4.3.5.6.5,1s-.2.7-.5.9-.6.3-1,.3h-.6c-.2,0-.4,0-.6-.1h-.1Z"/>
          <path class="st5" d="M89.1,6.3v.5c-.2,0-.3,0-.5-.2h-.4c-.5,0-.9.2-1.2.5s-.4.8-.4,1.3,0,.9.4,1.3.7.5,1.1.5.6,0,1-.2v.5s-.3,0-.5.1h-.6c-.7,0-1.2-.2-1.5-.7-.3-.4-.5-.9-.5-1.6s.2-1.2.6-1.6.9-.6,1.5-.6h1.1,0v.2Z"/>
          <path class="st5" d="M90.7,10.5v-6.2h.5v2.7c0-.2.3-.4.5-.6s.5-.2.8-.2c.5,0,.9.2,1.2.5.2.3.3.7.3,1.3v2.5h-.5v-2.5c0-.4,0-.8-.2-1-.2-.3-.4-.4-.8-.4s-.8.2-1,.5-.3.7-.3,1.1v2.3h-.5Z"/>
          <path class="st5" d="M98.8,9.8v.5c-.2,0-.4.1-.6.2s-.4,0-.6,0c-.7,0-1.2-.2-1.5-.6-.3-.4-.4-.9-.4-1.6s.2-1.2.5-1.6.8-.6,1.3-.6,1,.2,1.3.6.4.9.4,1.5v.3h-2.9c0,.5,0,.9.4,1.2s.6.4,1,.4.4,0,.6-.1c.2,0,.4-.1.6-.2h-.1ZM96.2,8.1h2.3c0-.4,0-.8-.2-1-.2-.3-.5-.5-.8-.5s-.7.2-.9.5c-.2.3-.3.6-.3,1h0Z"/>
          <path class="st5" d="M103.1,10.5v-5.8h2.8v.5h-2.3v2.1h2.2v.5h-2.2v2.2h2.4v.5h-2.9Z"/>
          <path class="st5" d="M108.4,4.4v.7h-.5v-.7h.5ZM107.9,10.5v-4.2h.5v4.2h-.5Z"/>
          <path class="st5" d="M113.8,4.3v6.2h-.5v-.7c-.2.3-.3.5-.5.6s-.5.2-.8.2c-.6,0-1-.2-1.3-.6s-.4-.9-.4-1.6,0-1.2.4-1.6.7-.6,1.3-.6.7,0,.9.3c.2.2.3.3.4.5v-2.7h.5ZM110.7,8.4c0,.5,0,.9.2,1.2.2.4.6.6,1,.6s.8-.2,1-.6c.2-.3.3-.7.3-1.2s0-.8-.3-1.2c-.2-.4-.6-.6-1-.6s-.8.2-1,.6c-.2.3-.3.7-.3,1.2h.1Z"/>
          <path class="st5" d="M119.1,6.3v3.9c0,.6-.2,1.1-.4,1.5-.3.4-.8.6-1.6.6h-.8c0,0-.3,0-.5-.1v-.5c.2,0,.4.1.6.2s.4,0,.7,0c.6,0,1-.2,1.2-.6.2-.3.2-.8.2-1.5,0,.3-.3.5-.5.6s-.5.2-.8.2c-.6,0-1.1-.2-1.4-.7-.3-.4-.4-.9-.4-1.4s0-1.2.4-1.6.7-.6,1.3-.6h.8c.2,0,.4.2.6.5v-.5h.6ZM116,8.4c0,.5,0,.9.3,1.1.2.4.5.5.9.5s.8-.2,1-.5.3-.7.3-1.1,0-1-.3-1.3c-.2-.3-.5-.5-1-.5s-.8.2-1,.6c-.2.3-.3.7-.3,1.2h0Z"/>
          <path class="st5" d="M123.8,9.8v.5c-.2,0-.4.1-.6.2s-.4,0-.6,0c-.7,0-1.2-.2-1.5-.6-.3-.4-.4-.9-.4-1.6s.2-1.2.5-1.6.8-.6,1.3-.6,1,.2,1.3.6.4.9.4,1.5v.3h-2.9c0,.5,0,.9.4,1.2.2.3.6.4,1,.4s.4,0,.6-.1c.2,0,.4-.1.6-.2,0,0,0,0-.1,0ZM121.2,8.1h2.3c0-.4,0-.8-.2-1-.2-.3-.5-.5-.8-.5s-.7.2-.9.5-.3.6-.3,1h0Z"/>
          <path class="st5" d="M125.8,10.5v-4.3h.5v.8c0-.2.3-.4.4-.6.2-.2.6-.3,1-.3s.9.2,1.1.5.3.7.3,1.2v2.7h-.5v-2.6c0-.4,0-.8-.2-1s-.4-.4-.8-.4-.8.2-1,.5-.3.6-.3,1v2.3h-.5v.2Z"/>
          <path class="st5" d="M130.8,8.4c0-.6.2-1.1.5-1.5.4-.4.9-.7,1.5-.7s1.1.2,1.5.7c.3.4.5.9.5,1.5s-.2,1.1-.5,1.5c-.4.4-.9.7-1.5.7s-1.1-.2-1.5-.7c-.3-.4-.5-.9-.5-1.5ZM131.4,8.4c0,.5.1.9.4,1.3s.6.5,1,.5.8-.2,1.1-.5c.2-.3.4-.7.4-1.2s-.1-.9-.4-1.2c-.2-.3-.6-.5-1.1-.5s-.8.2-1,.5-.4.8-.4,1.3h0v-.2Z"/>
          <path class="st5" d="M136,10.4v-.5c.2,0,.4.1.6.2h.6c.2,0,.5,0,.7-.2s.3-.3.3-.6-.2-.5-.5-.7-.6-.3-1-.5-.5-.5-.5-.9.1-.7.4-.9c.2-.2.6-.3,1-.3h.5c.2,0,.4,0,.6.2v.5c-.2,0-.4,0-.5-.2h-.5c-.3,0-.5,0-.7.2-.2,0-.2.3-.2.5s.2.4.5.6c.6.3,1,.5,1,.5.4.3.5.6.5,1s-.2.7-.5.9-.6.3-1,.3h-.6c-.2,0-.4,0-.6-.1,0,0-.1,0-.1,0Z"/>
          <path class="st5" d="M139.9,10.4v-.5c.2,0,.4.1.6.2h.6c.2,0,.5,0,.7-.2s.3-.3.3-.6-.2-.5-.5-.7-.6-.3-1-.5-.5-.5-.5-.9.1-.7.4-.9c.2-.2.6-.3,1-.3h.5c.2,0,.4,0,.6.2v.5c-.2,0-.4,0-.5-.2s-.3,0-.5,0c-.3,0-.5,0-.7.2-.2,0-.2.3-.2.5s.2.4.5.6c.6.3,1,.5,1,.5.4.3.5.6.5,1s-.2.7-.5.9-.6.3-1,.3h-.6c-.2,0-.4,0-.6-.1,0,0-.1,0-.1,0Z"/>
          <path class="st5" d="M147,9.8v.5c-.2,0-.4.1-.6.2h-.6c-.7,0-1.2-.2-1.5-.6-.3-.4-.4-.9-.4-1.6s.2-1.2.5-1.6.8-.6,1.3-.6,1,.2,1.3.6.4.9.4,1.5v.3h-2.9c0,.5.1.9.4,1.2.2.3.6.4,1,.4s.4,0,.6-.1c.2,0,.4-.1.6-.2,0,0-.1,0-.1,0ZM144.5,8.1h2.3c0-.4,0-.8-.2-1-.2-.3-.5-.5-.8-.5s-.7.2-.9.5-.3.6-.3,1h-.1Z"/>
          <path class="st5" d="M149,10.5v-4.3h.5v.8c.1-.2.3-.4.4-.6.2-.2.6-.3,1-.3s.9.2,1.1.5c.2.3.3.7.3,1.2v2.7h-.5v-2.6c0-.4,0-.8-.2-1s-.4-.4-.8-.4-.8.2-1,.5-.3.6-.3,1v2.3h-.5v.2Z"/>
          <path class="st5" d="M153.9,10.4v-.5c.2,0,.4.1.6.2h.6c.2,0,.5,0,.7-.2s.3-.3.3-.6-.2-.5-.5-.7-.6-.3-1-.5-.5-.5-.5-.9.1-.7.4-.9c.2-.2.6-.3,1-.3h.5c.2,0,.4,0,.6.2v.5c-.2,0-.4,0-.5-.2s-.3,0-.5,0c-.3,0-.5,0-.7.2-.2,0-.2.3-.2.5s.2.4.5.6c.6.3,1,.5,1,.5.4.3.5.6.5,1s-.2.7-.5.9-.6.3-1,.3h-.6c-.2,0-.4,0-.6-.1,0,0-.1,0-.1,0Z"/>
          <path class="st5" d="M161,6.3v.5c-.2,0-.3,0-.5-.2h-.4c-.5,0-.9.2-1.2.5s-.4.8-.4,1.3.1.9.4,1.3.6.5,1.1.5.6,0,1-.2v.5s-.3,0-.5.1h-.6c-.6,0-1.2-.2-1.5-.7-.3-.4-.5-.9-.5-1.6s.2-1.2.6-1.6c.4-.4.9-.6,1.5-.6h1v.2Z"/>
          <path class="st5" d="M162.6,10.5v-6.2h.5v2.7c.1-.2.3-.4.5-.6s.5-.2.8-.2c.5,0,.9.2,1.1.5.2.3.3.7.3,1.3v2.5h-.5v-2.5c0-.4,0-.8-.2-1-.2-.3-.4-.4-.8-.4s-.8.2-1,.5-.3.7-.3,1.1v2.3h-.5,0Z"/>
          <path class="st5" d="M170.3,10.5v-.7c-.1.2-.3.4-.6.6-.2.1-.5.2-.8.2-.5,0-.9-.1-1.1-.4-.2-.2-.2-.5-.2-.8,0-.6.3-1.1.9-1.3.4-.1,1-.2,1.7-.2h.1v-.2c0-.4,0-.7-.2-.8-.1-.2-.4-.3-.7-.3s-.9,0-1.2.3v-.5c.2,0,.4-.2.6-.2h.6c.5,0,.9,0,1.1.4s.4.7.4,1.2v2.8h-.6ZM170.2,8.6v-.3h-.1c-.8,0-1.3,0-1.6.3-.3.2-.4.4-.4.7s0,.5.3.6c.1.1.4.2.6.2.4,0,.7-.1.9-.4.2-.2.3-.6.3-1.2h0Z"/>
          <path class="st5" d="M173,10.5v-3.8h-.9v-.4h.9v-.3c0-.6,0-1,.1-1.2.2-.4.5-.6,1-.6s.2,0,.3,0h.2v.5h-.4c-.3,0-.4,0-.6.3v1.3h1v.4h-1v3.8s-.6,0-.6,0Z"/>
          <path class="st5" d="M177.9,6.3v.4h-1v2.7c0,.2,0,.4.1.5,0,.1.2.2.4.2h.4v.4h-.6c-.4,0-.7-.1-.8-.4,0-.2-.1-.5-.1-1v-2.5h-.8v-.4h.8v-1l.5-.2v1.2h1.1Z"/>
        </g>
        <g>
          <path class="st5" d="M42.4,16.3v.5c-.2,0-.4-.1-.6-.2h-.7c-.7,0-1.3.2-1.7.7s-.6,1.1-.6,1.8.2,1.3.6,1.8,1,.7,1.8.7.5,0,.7,0,.4-.1.6-.2v.5c0,0-.3.1-.6.2s-.5,0-.7,0c-.9,0-1.6-.3-2.1-.8s-.8-1.3-.8-2.2.3-1.6.8-2.2c.5-.5,1.2-.8,2.1-.8s.5,0,.7,0,.4,0,.6.2h0Z"/>
          <path class="st5" d="M44.2,19.9c0-.6.2-1.1.5-1.5.3-.5.9-.7,1.5-.7s1.2.2,1.5.7c.3.4.5.9.5,1.5s-.2,1.1-.5,1.5c-.3.5-.9.7-1.5.7s-1.2-.2-1.5-.7c-.3-.4-.5-.9-.5-1.5ZM44.8,19.9c0,.5,0,.9.4,1.3s.6.5,1,.5.8-.2,1-.5.4-.7.4-1.2,0-.9-.4-1.2c-.3-.3-.6-.5-1-.5s-.8.2-1,.5-.4.8-.4,1.3h0s0-.2,0-.2Z"/>
          <path class="st5" d="M49.8,22v-4.3h.5v.8c0-.2.3-.5.4-.6.2-.2.6-.3,1-.3s.9.2,1.1.5.3.7.3,1.2v2.7h-.5v-2.6c0-.4,0-.8-.2-1s-.4-.4-.8-.4-.8.2-1,.5-.3.6-.3,1v2.3h-.5s0,.2,0,.2Z"/>
          <path class="st5" d="M55.5,22v-3.8h-.9v-.5h.9v-.3c0-.6,0-1,.2-1.2.2-.4.5-.6,1-.6s.2,0,.3,0h.2v.5h-.4c-.3,0-.5.1-.5.3v1.3h1v.5h-1v3.8s-.8,0-.8,0Z"/>
          <path class="st5" d="M61.4,21.4v.5c-.2,0-.4.1-.6.2s-.4,0-.6,0c-.7,0-1.2-.2-1.5-.6s-.4-.9-.4-1.6.2-1.2.5-1.6.8-.6,1.3-.6,1,.2,1.3.6.4.9.4,1.5v.3h-2.9c0,.5,0,.9.4,1.2.2.3.6.5,1,.5s.4,0,.6-.1c.2,0,.4-.1.5-.2h0ZM58.8,19.6h2.3c0-.4,0-.8-.2-1-.2-.3-.5-.5-.8-.5s-.7.2-.9.5-.3.6-.3,1h0ZM59.5,17.3l.8-1.2h.7l-1,1.2h-.5Z"/>
          <path class="st5" d="M66.7,15.8v6.2h-.5v-.7c-.2.3-.3.5-.5.6s-.5.2-.8.2c-.6,0-1-.2-1.3-.6s-.5-.9-.5-1.6,0-1.2.4-1.6.7-.6,1.4-.6.7.1.9.3c.2.2.3.3.4.5v-2.7s.5,0,.5,0ZM63.7,19.9c0,.5,0,.9.2,1.2.2.4.6.6,1,.6s.8-.2,1-.6c.2-.3.3-.7.3-1.2s0-.9-.3-1.2c-.2-.4-.6-.6-1-.6s-.8.2-1,.6c-.2.3-.3.7-.3,1.2h0Z"/>
          <path class="st5" d="M71.5,21.4v.5c-.2,0-.4.1-.6.2s-.4,0-.6,0c-.7,0-1.2-.2-1.5-.6s-.4-.9-.4-1.6.2-1.2.5-1.6.8-.6,1.3-.6,1,.2,1.3.6.4.9.4,1.5v.3h-2.9c0,.5,0,.9.4,1.2.2.3.6.5,1,.5s.4,0,.6-.1c.2,0,.4-.1.6-.2h-.1ZM68.9,19.6h2.3c0-.4,0-.8-.2-1-.2-.3-.5-.5-.8-.5s-.7.2-.9.5c-.2.3-.3.6-.3,1h0ZM69.6,17.3l.8-1.2h.7l-1.1,1.2h-.4Z"/>
          <path class="st5" d="M73.5,22v-4.3h.5v.8c0-.3.3-.5.4-.6.2-.2.4-.3.7-.3s0,0,.2,0h.2v.5h-.4c-.4,0-.7.2-.8.6,0,.3-.2.7-.2,1.1v2.1h-.6,0Z"/>
          <path class="st5" d="M79.4,22v-.7c0,.2-.3.4-.6.6-.2.1-.5.2-.8.2-.5,0-.9-.1-1.2-.5-.2-.2-.2-.5-.2-.8,0-.6.3-1,.9-1.3.4-.1,1-.2,1.7-.2h0v-.2c0-.4,0-.6-.2-.8-.2-.2-.4-.3-.7-.3s-.9.1-1.2.4v-.5c.2,0,.4-.1.6-.2h.6c.5,0,.9.1,1.1.4.2.2.3.6.3,1.2v2.8h-.5.2,0ZM79.3,20.1v-.3h-.2c-.8,0-1.3,0-1.6.3-.3.2-.4.4-.4.7s0,.5.3.6c.2.1.4.2.6.2.4,0,.7-.1.9-.4.2-.2.3-.6.3-1.2h0,0Z"/>
          <path class="st5" d="M83.6,17.8v.5h-1v2.7c0,.2,0,.4,0,.5s.2.2.4.2h.4v.4h-.6c-.4,0-.7-.1-.8-.4,0-.2,0-.5,0-1v-2.5h-.8v-.5h.8v-1l.5-.2v1.2h1.1Z"/>
          <path class="st5" d="M85.7,16v.7h-.5v-.7h.5ZM85.2,22v-4.2h.5v4.2h-.5Z"/>
          <path class="st5" d="M87.4,19.9c0-.6.2-1.1.5-1.5.3-.5.9-.7,1.5-.7s1.2.2,1.5.7c.3.4.5.9.5,1.5s-.2,1.1-.5,1.5c-.3.5-.9.7-1.5.7s-1.2-.2-1.5-.7c-.3-.4-.5-.9-.5-1.5ZM87.9,19.9c0,.5,0,.9.4,1.3s.6.5,1,.5.8-.2,1.1-.5c.2-.3.4-.7.4-1.2s0-.9-.4-1.2c-.2-.3-.6-.5-1.1-.5s-.8.2-1,.5-.4.8-.4,1.3h0s0-.2,0-.2Z"/>
          <path class="st5" d="M93,22v-4.3h.5v.8c0-.2.3-.5.4-.6.2-.2.6-.3,1-.3s.9.2,1.1.5.3.7.3,1.2v2.7h-.5v-2.6c0-.4,0-.8-.2-1s-.4-.4-.8-.4-.8.2-1,.5-.3.6-.3,1v2.3h-.5s0,.2,0,.2Z"/>
          <path class="st5" d="M100.2,21.9v-.5c.2,0,.4.1.6.2h.6c.2,0,.5,0,.7-.2s.3-.3.3-.6-.2-.5-.5-.7-.7-.3-1-.5-.5-.5-.5-.9,0-.7.4-.9c.2-.2.6-.3,1-.3h.5c.2,0,.4,0,.6.1v.5c-.2,0-.4-.1-.5-.1h-.5c-.3,0-.5,0-.7.2-.2.1-.2.3-.2.5s.2.4.5.6l1,.5c.4.3.5.6.5,1s-.2.7-.5.9c-.3.2-.6.3-1,.3h-.6c-.2,0-.4,0-.6-.1h-.1Z"/>
          <path class="st5" d="M107.8,17.8v4.2h-.5v-.8c0,.2-.3.4-.4.6-.2.2-.6.3-1,.3s-.9-.1-1.1-.5c-.2-.3-.3-.7-.3-1.2v-2.7h.5v2.6c0,.4,0,.8.2,1s.4.3.8.3.8-.2,1-.5.3-.6.3-1v-2.3h.5Z"/>
          <path class="st5" d="M110.3,16v.7h-.5v-.7h.5ZM109.8,22v-4.2h.5v4.2h-.5Z"/>
          <path class="st5" d="M111.9,21.9v-.5c.2,0,.4.1.6.2h.6c.2,0,.5,0,.7-.2.2-.1.3-.3.3-.6s-.2-.5-.5-.7-.7-.3-1-.5-.5-.5-.5-.9,0-.7.4-.9c.2-.2.6-.3,1-.3h.5c.2,0,.4,0,.6.1v.5c-.2,0-.4-.1-.5-.1h-.5c-.3,0-.5,0-.7.2-.2.1-.2.3-.2.5s.2.4.5.6l1,.5c.4.3.5.6.5,1s-.2.7-.5.9c-.3.2-.6.3-1,.3h-.6c-.2,0-.4,0-.6-.1h-.1Z"/>
          <path class="st5" d="M115.8,21.9v-.5c.2,0,.4.1.6.2h.6c.2,0,.5,0,.7-.2s.3-.3.3-.6-.2-.5-.5-.7-.7-.3-1-.5-.5-.5-.5-.9,0-.7.4-.9c.2-.2.6-.3,1-.3h.5c.2,0,.4,0,.6.1v.5c-.2,0-.4-.1-.5-.1h-.5c-.3,0-.5,0-.7.2-.2.1-.2.3-.2.5s.2.4.5.6l1,.5c.4.3.5.6.5,1s-.2.7-.5.9c-.3.2-.6.3-1,.3h-.6c-.2,0-.4,0-.6-.1h-.1Z"/>
          <path class="st5" d="M122.9,21.4v.5c-.2,0-.4.1-.6.2s-.4,0-.6,0c-.7,0-1.2-.2-1.5-.6s-.4-.9-.4-1.6.2-1.2.5-1.6.8-.6,1.3-.6,1,.2,1.3.6.4.9.4,1.5v.3h-2.9c0,.5,0,.9.4,1.2.2.3.6.5,1,.5s.4,0,.6-.1c.2,0,.4-.1.6-.2h-.1ZM120.3,19.6h2.3c0-.4,0-.8-.2-1-.2-.3-.5-.5-.8-.5s-.7.2-.9.5-.3.6-.3,1h0Z"/>
        </g>
        <g>
          <path class="st5" d="M42.4,27.9v.5c-.2,0-.4-.1-.6-.2h-.7c-.7,0-1.3.2-1.7.7s-.6,1.1-.6,1.8.2,1.3.6,1.8c.4.5,1,.7,1.8.7s.5,0,.7,0,.4,0,.6-.2v.5c0,0-.3.2-.6.2h-.7c-.9,0-1.6-.3-2.1-.8s-.8-1.3-.8-2.2.3-1.6.8-2.2c.5-.5,1.2-.8,2.1-.8s.5,0,.7,0,.4,0,.6.2h0Z"/>
          <path class="st5" d="M44.2,31.4c0-.6.2-1.1.5-1.5.3-.5.9-.7,1.5-.7s1.2.2,1.5.7c.3.4.5.9.5,1.5s-.2,1.1-.5,1.5c-.3.5-.9.7-1.5.7s-1.2-.2-1.5-.7c-.3-.4-.5-.9-.5-1.5ZM44.8,31.4c0,.5,0,.9.4,1.3.2.3.6.5,1,.5s.8-.2,1-.5.4-.7.4-1.2,0-.9-.4-1.2c-.3-.3-.6-.5-1-.5s-.8.2-1,.5-.4.8-.4,1.3h0s0-.2,0-.2Z"/>
          <path class="st5" d="M49.8,33.5v-4.3h.5v.8c0-.2.3-.5.4-.6.2-.2.6-.3,1-.3s.9.2,1.1.5.3.7.3,1.2v2.7h-.5v-2.6c0-.4,0-.8-.2-1s-.4-.4-.8-.4-.8.2-1,.5-.3.6-.3,1v2.3h-.5v.2Z"/>
          <path class="st5" d="M55.5,33.5v-3.8h-.9v-.5h.9v-.3c0-.6,0-1,.2-1.2.2-.4.5-.6,1-.6s.2,0,.3,0h.2v.5h-.4c-.3,0-.5.1-.5.3v1.3h1v.5h-1v3.8h-.8Z"/>
          <path class="st5" d="M61.4,32.9v.5c-.2,0-.4,0-.6.2h-.6c-.7,0-1.2-.2-1.5-.6-.3-.4-.4-.9-.4-1.6s.2-1.2.5-1.6.8-.6,1.3-.6,1,.2,1.3.6.4.9.4,1.5v.3h-2.9c0,.5,0,.8.4,1.2.2.3.6.5,1,.5h.6c.2,0,.4,0,.5-.2h0v-.2ZM58.8,31.1h2.3c0-.4,0-.8-.2-1-.2-.3-.5-.5-.8-.5s-.7.2-.9.5-.3.6-.3,1h0Z"/>
          <path class="st5" d="M66.7,27.3v6.2h-.5v-.7c-.2.3-.3.5-.5.6s-.5.2-.8.2c-.6,0-1-.2-1.3-.6s-.5-.9-.5-1.6,0-1.2.4-1.6.7-.6,1.4-.6.7.1.9.3c.2.2.3.3.4.5v-2.7s.5,0,.5,0ZM63.7,31.4c0,.5,0,.9.2,1.2.2.4.6.6,1,.6s.8-.2,1-.6c.2-.3.3-.7.3-1.2s0-.9-.3-1.2c-.2-.4-.6-.6-1-.6s-.8.2-1,.6c-.2.3-.3.7-.3,1.2h0Z"/>
          <path class="st5" d="M71.5,32.9v.5c-.2,0-.4,0-.6.2h-.6c-.7,0-1.2-.2-1.5-.6-.3-.4-.4-.9-.4-1.6s.2-1.2.5-1.6.8-.6,1.3-.6,1,.2,1.3.6.4.9.4,1.5v.3h-2.9c0,.5,0,.8.4,1.2.2.3.6.5,1,.5h.6c.2,0,.4,0,.6-.2h0v-.2h-.1ZM68.9,31.1h2.3c0-.4,0-.8-.2-1-.2-.3-.5-.5-.8-.5s-.7.2-.9.5c-.2.3-.3.6-.3,1h0Z"/>
          <path class="st5" d="M73.5,33.5v-4.3h.5v.8c0-.3.3-.5.4-.6.2-.2.4-.3.7-.3s0,0,.2,0h.2v.5h-.4c-.4,0-.7.2-.8.6,0,.3-.2.7-.2,1.1v2.1h-.6,0Z"/>
          <path class="st5" d="M79.4,33.5v-.7c0,.2-.3.4-.6.6-.2,0-.5.2-.8.2-.5,0-.9-.2-1.2-.5-.2-.2-.2-.5-.2-.8,0-.6.3-1,.9-1.3.4-.1,1-.2,1.7-.2h0v-.2c0-.4,0-.6-.2-.8-.2-.2-.4-.3-.7-.3s-.9.1-1.2.4v-.5c.2,0,.4-.1.6-.2h.6c.5,0,.9.1,1.1.4.2.2.3.6.3,1.2v2.8h-.5.2,0ZM79.3,31.7v-.3h-.2c-.8,0-1.3,0-1.6.3-.3.2-.4.4-.4.7s0,.5.3.6c.2,0,.4.2.6.2.4,0,.7,0,.9-.4.2-.2.3-.6.3-1.2h0,0Z"/>
          <path class="st5" d="M81.4,33.5v-.4l2.6-3.4h-2.4v-.5h3.1v.5l-2.6,3.3h2.6v.5s-3.3,0-3.3,0Z"/>
          <path class="st5" d="M86.6,27.5v.7h-.5v-.7h.5ZM86.1,33.5v-4.2h.5v4.2h-.5Z"/>
          <path class="st5" d="M88.3,31.4c0-.6.2-1.1.5-1.5.3-.5.9-.7,1.5-.7s1.2.2,1.5.7c.3.4.5.9.5,1.5s-.2,1.1-.5,1.5c-.3.5-.9.7-1.5.7s-1.2-.2-1.5-.7c-.3-.4-.5-.9-.5-1.5ZM88.9,31.4c0,.5,0,.9.4,1.3.2.3.6.5,1,.5s.8-.2,1.1-.5c.2-.3.4-.7.4-1.2s0-.9-.4-1.2c-.2-.3-.6-.5-1.1-.5s-.8.2-1,.5-.4.8-.4,1.3h0s0-.2,0-.2Z"/>
          <path class="st5" d="M93.9,33.5v-4.3h.5v.8c0-.2.3-.5.4-.6.2-.2.6-.3,1-.3s.9.2,1.1.5.3.7.3,1.2v2.7h-.5v-2.6c0-.4,0-.8-.2-1s-.4-.4-.8-.4-.8.2-1,.5-.3.6-.3,1v2.3h-.5v.2Z"/>
          <path class="st5" d="M102,32.9v.5c-.2,0-.4,0-.6.2h-.6c-.7,0-1.2-.2-1.5-.6-.3-.4-.4-.9-.4-1.6s.2-1.2.5-1.6.8-.6,1.3-.6,1,.2,1.3.6.4.9.4,1.5v.3h-2.9c0,.5,0,.8.4,1.2s.6.5,1,.5h.6c.2,0,.4,0,.6-.2h0v-.2h-.1ZM99.4,31.1h2.3c0-.4,0-.8-.2-1-.2-.3-.5-.5-.8-.5s-.7.2-.9.5c-.2.3-.3.6-.3,1h0Z"/>
          <path class="st5" d="M106.2,33.4v-.6c.2,0,.4.2.7.2h.7c.4,0,.7,0,.9-.3.2-.2.4-.5.4-.9s-.2-.6-.7-.9c-.4-.2-.8-.5-1.3-.8s-.7-.7-.7-1.1.2-.8.5-1.1.8-.4,1.3-.4h.6c.2,0,.3,0,.5.1v.5c-.2,0-.4-.1-.6-.2h-.6c-.3,0-.6,0-.8.2-.3.2-.4.4-.4.8s.2.6.7.9c.4.2.8.5,1.3.8s.7.8.7,1.2-.2,1-.6,1.2c-.3.2-.8.4-1.3.4h-.7c-.2,0-.4,0-.6-.2h0s0,.2,0,.2Z"/>
          <path class="st5" d="M114.1,29.3l-1.5,4.2h-.6l-1.4-4.2h.6l1.2,3.7,1.2-3.7h.6s0,0,0,0Z"/>
          <path class="st5" d="M116,27.5v.7h-.5v-.7h.5ZM115.5,33.5v-4.2h.5v4.2h-.5Z"/>
          <path class="st5" d="M117.6,33.5v-.4l2.6-3.4h-2.4v-.5h3.1v.5l-2.6,3.3h2.6v.5s-3.3,0-3.3,0Z"/>
          <path class="st5" d="M122,33.5v-.4l2.6-3.4h-2.4v-.5h3.1v.5l-2.6,3.3h2.6v.5s-3.3,0-3.3,0Z"/>
          <path class="st5" d="M129.6,32.9v.5c-.2,0-.4,0-.6.2h-.6c-.7,0-1.2-.2-1.5-.6-.3-.4-.4-.9-.4-1.6s.2-1.2.5-1.6.8-.6,1.3-.6,1,.2,1.3.6.4.9.4,1.5v.3h-2.9c0,.5,0,.8.4,1.2.2.3.6.5,1,.5h.6c.2,0,.4,0,.6-.2h0v-.2h0ZM127,31.1h2.3c0-.4,0-.8-.2-1-.2-.3-.5-.5-.8-.5s-.7.2-.9.5-.3.6-.3,1h0Z"/>
          <path class="st5" d="M131.6,33.5v-4.3h.5v.8c.1-.3.3-.5.4-.6.2-.2.4-.3.7-.3s.1,0,.2,0h.2v.5h-.4c-.4,0-.7.2-.8.6-.1.3-.2.7-.2,1.1v2.1h-.6,0Z"/>
          <path class="st5" d="M137.4,33.5v-.7c-.1.2-.3.4-.6.6-.2,0-.5.2-.8.2-.5,0-.9-.2-1.1-.5-.2-.2-.2-.5-.2-.8,0-.6.3-1,.9-1.3.4-.1,1-.2,1.7-.2h.1v-.2c0-.4,0-.6-.2-.8-.1-.2-.4-.3-.7-.3s-.9.1-1.2.4v-.5c.2,0,.4-.1.6-.2h.6c.5,0,.9.1,1.1.4s.4.6.4,1.2v2.8h-.6ZM137.4,31.7v-.3h-.1c-.8,0-1.3,0-1.6.3-.3.2-.4.4-.4.7s0,.5.3.6c.1,0,.4.2.6.2.4,0,.7,0,.9-.4.2-.2.3-.6.3-1.2h0Z"/>
        </g>
        <g>
          <path class="st5" d="M42.4,39.4v.5c-.2,0-.4-.2-.6-.2h-.7c-.7,0-1.3.2-1.7.7s-.6,1.1-.6,1.8.2,1.3.6,1.8,1,.7,1.8.7.5,0,.7,0,.4,0,.6-.2v.5c0,0-.3.2-.6.2h-.7c-.9,0-1.6-.3-2.1-.8s-.8-1.3-.8-2.2.3-1.6.8-2.2c.5-.5,1.2-.8,2.1-.8s.5,0,.7,0,.4,0,.6.2h0Z"/>
          <path class="st5" d="M44.2,42.9c0-.6.2-1.1.5-1.5.3-.5.9-.7,1.5-.7s1.2.2,1.5.7c.3.4.5.9.5,1.5s-.2,1.1-.5,1.5c-.3.5-.9.7-1.5.7s-1.2-.2-1.5-.7c-.3-.4-.5-.9-.5-1.5ZM44.8,42.9c0,.5,0,.9.4,1.3s.6.5,1,.5.8-.2,1-.5.4-.7.4-1.2,0-.9-.4-1.2-.6-.5-1-.5-.8.2-1,.5-.4.8-.4,1.3h0s0-.2,0-.2Z"/>
          <path class="st5" d="M49.8,45.1v-4.3h.5v.8c0-.2.3-.5.4-.6.2-.2.6-.3,1-.3s.9.2,1.1.5.3.7.3,1.2v2.7h-.5v-2.6c0-.4,0-.8-.2-1s-.4-.4-.8-.4-.8.2-1,.5-.3.6-.3,1v2.3h-.5s0,.2,0,.2Z"/>
          <path class="st5" d="M55.5,45.1v-3.8h-.9v-.5h.9v-.3c0-.6,0-1,.2-1.2.2-.4.5-.6,1-.6s.2,0,.3,0h.2v.5h-.4c-.3,0-.5,0-.5.3v1.3h1v.5h-1v3.8h-.8Z"/>
          <path class="st5" d="M61.4,44.4v.5c-.2,0-.4,0-.6.2h-.6c-.7,0-1.2-.2-1.5-.6-.3-.4-.4-.9-.4-1.6s.2-1.2.5-1.6c.3-.4.8-.6,1.3-.6s1,.2,1.3.6c.3.4.4.9.4,1.5v.3h-2.9c0,.5,0,.8.4,1.2.2.3.6.5,1,.5h.6c.2,0,.4,0,.5-.2h0v-.2ZM58.8,42.6h2.3c0-.4,0-.8-.2-1-.2-.3-.5-.5-.8-.5s-.7.2-.9.5-.3.6-.3,1h0Z"/>
          <path class="st5" d="M66.7,38.8v6.2h-.5v-.7c-.2.3-.3.5-.5.6s-.5.2-.8.2c-.6,0-1-.2-1.3-.6s-.5-.9-.5-1.6,0-1.2.4-1.6c.3-.4.7-.6,1.4-.6s.7,0,.9.3c.2.2.3.3.4.5v-2.7s.5,0,.5,0ZM63.7,42.9c0,.5,0,.9.2,1.2.2.4.6.6,1,.6s.8-.2,1-.6c.2-.3.3-.7.3-1.2s0-.8-.3-1.2c-.2-.4-.6-.6-1-.6s-.8.2-1,.6c-.2.3-.3.7-.3,1.2h0Z"/>
          <path class="st5" d="M71.5,44.4v.5c-.2,0-.4,0-.6.2h-.6c-.7,0-1.2-.2-1.5-.6-.3-.4-.4-.9-.4-1.6s.2-1.2.5-1.6c.3-.4.8-.6,1.3-.6s1,.2,1.3.6c.3.4.4.9.4,1.5v.3h-2.9c0,.5,0,.8.4,1.2.2.3.6.5,1,.5h.6c.2,0,.4,0,.6-.2h0v-.2h-.1ZM68.9,42.6h2.3c0-.4,0-.8-.2-1-.2-.3-.5-.5-.8-.5s-.7.2-.9.5c-.2.3-.3.6-.3,1h0Z"/>
          <path class="st5" d="M73.5,45.1v-4.3h.5v.8c0-.3.3-.5.4-.6.2-.2.4-.3.7-.3s0,0,.2,0h.2v.5h-.4c-.4,0-.7.2-.8.6,0,.3-.2.7-.2,1.1v2.1h-.6,0Z"/>
          <path class="st5" d="M79.4,45.1v-.7c0,.2-.3.4-.6.6-.2,0-.5.2-.8.2-.5,0-.9-.2-1.2-.5-.2-.2-.2-.5-.2-.8,0-.6.3-1,.9-1.3.4,0,1-.2,1.7-.2h0v-.2c0-.4,0-.7-.2-.8-.2-.2-.4-.3-.7-.3s-.9,0-1.2.3v-.5c.2,0,.4-.2.6-.2h.6c.5,0,.9,0,1.1.4.2.2.3.7.3,1.2v2.8h-.5s.2,0,.2,0ZM79.3,43.2v-.3h-.2c-.8,0-1.3,0-1.6.3-.3.2-.4.4-.4.7s0,.5.3.6c.2,0,.4.2.6.2.4,0,.7,0,.9-.4.2-.2.3-.6.3-1.2h0,0Z"/>
          <path class="st5" d="M81.4,45.1v-.4l2.6-3.3h-2.4v-.5h3.1v.5l-2.6,3.3h2.6v.5h-3.3,0Z"/>
          <path class="st5" d="M86.6,39v.7h-.5v-.7h.5ZM86.1,45.1v-4.2h.5v4.2h-.5Z"/>
          <path class="st5" d="M91.9,40.8v4.2h-.5v-.8c0,.2-.3.4-.4.6-.2.2-.6.3-1,.3s-.9-.2-1.1-.5-.3-.7-.3-1.2v-2.7h.5v2.6c0,.4,0,.8.2,1s.4.3.8.3.8-.2,1-.5.3-.6.3-1v-2.3s.5,0,.5,0Z"/>
          <path class="st5" d="M93.9,45.1v-4.3h.5v.8c0-.2.3-.5.4-.6.2-.2.6-.3,1-.3s.9.2,1.1.5.3.7.3,1.2v2.7h-.5v-2.6c0-.4,0-.8-.2-1s-.4-.4-.8-.4-.8.2-1,.5-.3.6-.3,1v2.3h-.5s0,.2,0,.2Z"/>
          <path class="st5" d="M101.1,44.9v-.5c.2,0,.4,0,.6.2h.6c.2,0,.5,0,.7-.2s.3-.3.3-.6-.2-.5-.5-.7-.7-.3-1-.5-.5-.5-.5-.9,0-.7.4-.9c.2-.2.6-.3,1-.3h.5c.2,0,.4,0,.6.2v.5c-.2,0-.4,0-.5-.2h-.5c-.3,0-.5,0-.7.2-.2,0-.2.3-.2.5s.2.4.5.6l1,.5c.4.3.5.6.5,1s-.2.7-.5.9-.6.3-1,.3h-.6c-.2,0-.4,0-.6-.2h-.1Z"/>
          <path class="st5" d="M108.4,40.8l-1.5,4.2h-.6l-1.4-4.2h.6l1.2,3.7,1.2-3.7h.6s0,0,0,0Z"/>
          <path class="st5" d="M110.3,39v.7h-.5v-.7h.5ZM109.8,45.1v-4.2h.5v4.2h-.5Z"/>
          <path class="st5" d="M111.9,45.1v-.4l2.6-3.3h-2.4v-.5h3.1v.5l-2.6,3.3h2.6v.5h-3.3,0Z"/>
          <path class="st5" d="M116.6,45.1v-4.3h.5v.8c0-.3.3-.5.4-.6.2-.2.4-.3.7-.3s0,0,.2,0h.2v.5h-.4c-.4,0-.7.2-.8.6,0,.3-.2.7-.2,1.1v2.1h-.6,0Z"/>
          <path class="st5" d="M122.5,45.1v-.7c0,.2-.3.4-.6.6-.2,0-.5.2-.8.2-.5,0-.9-.2-1.2-.5-.2-.2-.2-.5-.2-.8,0-.6.3-1,.9-1.3.4,0,1-.2,1.7-.2h0v-.2c0-.4,0-.7-.2-.8-.2-.2-.4-.3-.7-.3s-.9,0-1.2.3v-.5c.2,0,.4-.2.6-.2h.6c.5,0,.9,0,1.1.4.2.2.3.7.3,1.2v2.8h-.5s.2,0,.2,0ZM122.5,43.2v-.3h-.2c-.8,0-1.3,0-1.6.3-.3.2-.4.4-.4.7s0,.5.3.6c.2,0,.4.2.6.2.4,0,.7,0,.9-.4.2-.2.3-.6.3-1.2h0Z"/>
        </g>
        <g>
          <path d="M42.2,66.7v1h-3.7v-6.1h3.6v1h-2.4v1.5h2.2v1h-2.2v1.6h2.5Z"/>
          <path d="M44.5,63.1v.7l.6-.6c.2-.2.5-.2.8-.2s.6,0,.8.2.4.3.5.6c.2-.3.4-.5.6-.6s.5-.2.8-.2c.6,0,1,.2,1.2.5s.3.8.3,1.4v2.6h-1.2v-2.4c0-.4,0-.7,0-.9,0-.2-.3-.4-.6-.4-.6,0-.9.5-.9,1.6v2.1h-1.2v-2.7c0-.3,0-.5-.2-.7s-.3-.3-.5-.3-.6,0-.7.4c0,.3-.2.6-.2,1v2.3h-1.2v-4.5h1.2Z"/>
          <path d="M52.3,67.7h-1.1v-6.6h1.2v2.8c.2-.3.4-.5.6-.7s.5-.2.9-.2.6,0,.8.2.4.3.6.5.3.5.3.7c0,.3,0,.6,0,.9v.9c0,.3-.2.6-.3.8,0,.2-.3.4-.6.6-.2,0-.5.2-.9.2-.7,0-1.2-.3-1.4-.8v.7s-.2,0-.2,0ZM54.4,65.4c0-.4,0-.7-.2-1s-.4-.4-.7-.4-.6,0-.8.4-.3.6-.3,1,0,.7.3,1,.4.4.8.4.4,0,.6-.2.3-.3.3-.6v-.7h0Z"/>
          <path d="M60.4,67.7h-1v-.7c-.2.2-.4.4-.6.6s-.5.2-.8.2-.6,0-.8-.2c-.2,0-.4-.3-.6-.5,0-.2-.2-.5-.2-.8,0-.6.2-1,.7-1.2s1-.3,1.6-.3h.7c0-.3,0-.6-.2-.8s-.4-.2-.8-.2-1,.2-1.4.5v-1c.5-.2,1-.3,1.5-.3h.6c.2,0,.4,0,.6.2s.3.2.5.4.2.3.2.6v3.4h0ZM59.3,65.6h-1c-.2,0-.4,0-.6.2s-.2.3-.2.5,0,.3.2.4.3.2.5.2c.4,0,.6,0,.8-.4.2-.3.3-.6.3-.9h0Z"/>
          <path d="M62.8,63.1v4.8c0,.3,0,.6-.2.8,0,.2-.2.4-.5.6-.2,0-.5.2-.8.2h-.5v-.9h.2c.2,0,.3,0,.5-.2,0,0,.2-.3.2-.5v-4.8h1.2s0,0-.1,0ZM62.8,62.3h-1.2v-1.1h1.2v1.1Z"/>
          <path d="M67.8,67.7h-1.1v-.7l-.6.6c-.2.2-.5.2-.8.2s-.6,0-.8-.2c-.2,0-.4-.3-.6-.5,0-.2-.2-.5-.2-.8,0-.6.2-1,.7-1.2.4-.2,1-.3,1.6-.3h.7c0-.3,0-.6-.2-.8s-.4-.2-.8-.2-1,.2-1.4.5v-1c.4-.2,1-.3,1.5-.3h.6c.2,0,.4,0,.6.2s.3.2.4.4.2.3.2.6v3.4h.2ZM66.7,65.6h-1c-.2,0-.4,0-.6.2-.2,0-.2.3-.2.5s0,.3.2.4.3.2.5.2c.4,0,.6,0,.8-.4.2-.3.3-.6.3-.9h0Z"/>
          <path d="M73.2,67.7h-1.1v-.8c0,.3-.3.5-.6.6-.2.2-.5.2-.8.2s-.6,0-.9-.2-.4-.3-.6-.5-.3-.5-.3-.8,0-.6,0-.9,0-.8.2-1.2.3-.7.6-.9c.3-.2.6-.3,1.1-.3s.6,0,.8.2c.2,0,.4.3.6.6v-2.8h1.2v6.7h0,0ZM72,65.5c0-.2,0-.5,0-.7s-.2-.4-.3-.5c-.2,0-.4-.2-.6-.2-.3,0-.6,0-.8.4-.2.3-.2.6-.2,1s0,.7.3,1c.2.3.4.4.8.4s.4,0,.6-.2c.2,0,.3-.3.3-.5s0-.4,0-.7h-.1Z"/>
          <path d="M78.2,67.7h-1.1v-.7l-.6.6c-.2.2-.5.2-.8.2s-.6,0-.8-.2c-.2,0-.4-.3-.6-.5,0-.2-.2-.5-.2-.8,0-.6.2-1,.7-1.2s1-.3,1.6-.3h.7c0-.3,0-.6-.2-.8s-.4-.2-.8-.2-1,.2-1.4.5v-1c.4-.2,1-.3,1.5-.3h.6c.2,0,.4,0,.6.2s.3.2.4.4.2.3.2.6v3.4h.2ZM77.1,65.6h-1c-.2,0-.4,0-.6.2-.2,0-.2.3-.2.5s0,.3.2.4.3.2.5.2c.4,0,.6,0,.8-.4.2-.3.3-.6.3-.9h0Z"/>
          <path d="M86.1,67.7h-1.1v-.8c0,.3-.3.5-.6.6-.2.2-.5.2-.8.2s-.6,0-.9-.2-.4-.3-.6-.5-.3-.5-.3-.8,0-.6,0-.9,0-.8.2-1.2.3-.7.6-.9c.3-.2.6-.3,1.1-.3s.6,0,.8.2c.2,0,.4.3.6.6v-2.8h1.2v6.7h0,0ZM84.9,65.5c0-.2,0-.5,0-.7s-.2-.4-.3-.5c-.2,0-.4-.2-.6-.2-.3,0-.6,0-.8.4-.2.3-.2.6-.2,1s0,.7.3,1c.2.3.4.4.8.4s.4,0,.6-.2c.2,0,.3-.3.3-.5s0-.4,0-.7h-.1Z"/>
          <path d="M90.9,66.5v1c-.5.2-1,.3-1.5.3s-.7,0-1-.2-.5-.3-.8-.5-.4-.5-.5-.8-.2-.6-.2-1,0-.7.2-1,.2-.5.4-.8c.2-.2.4-.4.7-.5s.6-.2.9-.2.6,0,.9.2.5.3.6.5c.2.2.3.5.4.8s0,.6,0,.9h0v.4h-3.1c0,.4.2.6.4.8s.6.3.9.3.9-.2,1.4-.5h0l.2.3h0ZM90.1,65c0-.2,0-.4,0-.6s-.2-.3-.3-.4c0,0-.3-.2-.5-.2s-.4,0-.6.2c-.2,0-.3.2-.3.4s0,.4-.2.6h2Z"/>
          <path d="M94.8,67.6v-1.1c.6.3,1.1.4,1.5.4s.5,0,.8-.2c.2,0,.3-.3.3-.6s0-.5-.3-.6c-.2,0-.5-.3-1-.5s-.8-.4-1.1-.7-.4-.6-.4-1.1,0-.7.3-1c.2-.3.5-.5.8-.6s.7-.2,1.1-.2,1,0,1.5.2v1c-.5-.2-1-.3-1.4-.3s-.5,0-.7.2c-.2,0-.3.3-.3.6s0,.4.2.5.5.2,1,.5c.5.2.9.5,1.2.7s.4.6.4,1.1,0,.6-.2.9-.3.4-.5.6-.5.3-.8.3h-.9c-.5,0-1,0-1.6-.3h0v.2Z"/>
          <path d="M103.8,63.1v4.6h-1.1v-.7l-.4.4c-.2,0-.3.2-.5.3h-.6c-.4,0-.8,0-1-.3-.2-.2-.4-.4-.5-.7,0-.3,0-.7,0-1.1v-2.6h1.2v2.9c0,.2,0,.4.2.5s.3.2.6.2.6-.2.7-.4c0-.3.2-.7.2-1.1v-2.1h1.3Z"/>
          <path d="M106.3,62.3h-1.2v-1.1h1.2v1.1ZM106.3,67.7h-1.2v-4.6h1.2v4.6Z"/>
          <path d="M111,66.8v.9h-3.8v-.9l1.9-2.3.5-.5h-2.3v-.9h3.6v.9l-1.9,2.3c0,.2-.3.3-.5.5h2.5Z"/>
          <path d="M115.7,67.7h-1.1v-.7l-.6.6c-.2.2-.5.2-.8.2s-.6,0-.8-.2c-.2,0-.4-.3-.6-.5,0-.2-.2-.5-.2-.8,0-.6.2-1,.7-1.2s1-.3,1.6-.3h.7c0-.3,0-.6-.2-.8s-.4-.2-.8-.2-1,.2-1.4.5v-1c.4-.2,1-.3,1.5-.3h.6c.2,0,.4,0,.6.2s.3.2.4.4.2.3.2.6v3.4h.2ZM114.6,65.6h-1c-.2,0-.4,0-.6.2-.2,0-.2.3-.2.5s0,.3.2.4.3.2.5.2c.4,0,.6,0,.8-.4s.3-.6.3-.9h0Z"/>
          <path d="M123.1,66.5v1c-.5.2-1,.3-1.5.3s-.7,0-1-.2-.5-.3-.8-.5-.4-.5-.5-.8-.2-.6-.2-1,0-.7.2-1,.2-.5.4-.8c.2-.2.4-.4.7-.5s.6-.2.9-.2.6,0,.9.2.5.3.6.5c.2.2.3.5.4.8s0,.6,0,.9h0v.4h-3.1c0,.4.2.6.4.8s.6.3.9.3.9-.2,1.4-.5h0l.2.3h0ZM122.3,65c0-.2,0-.4,0-.6s-.2-.3-.3-.4-.3-.2-.5-.2-.4,0-.6.2c-.2,0-.3.2-.3.4s0,.4-.2.6h2Z"/>
          <path d="M125.5,63.1v.7c.4-.5.9-.8,1.6-.8s1,.2,1.2.5c.2.4.3.9.3,1.5v2.6h-1.2v-2.3c0-.4,0-.7-.2-1,0-.2-.3-.4-.7-.4s-.6.2-.8.4c-.2.3-.2.7-.2,1.1v2.2h-1.2v-4.6h1.2,0Z"/>
          <path d="M135.9,66.5v1c-.5.2-1,.3-1.5.3s-.7,0-1-.2-.5-.3-.8-.5-.4-.5-.5-.8-.2-.6-.2-1,0-.7.1-1,.2-.5.4-.8c.2-.2.4-.4.7-.5s.6-.2.9-.2.6,0,.9.2.5.3.6.5c.2.2.3.5.4.8s.1.6.1.9h0v.4h-3.1c0,.4.2.6.4.8s.6.3.9.3.9-.2,1.4-.5h0l.3.3h0ZM135.1,65c0-.2,0-.4-.1-.6s-.2-.3-.3-.4-.3-.2-.5-.2-.4,0-.6.2c-.1,0-.3.2-.4.4,0,.2-.1.4-.1.6h2Z"/>
          <path d="M138.4,67.7h-1.2v-6.6h1.2v6.6Z"/>
          <path d="M143.5,65.4v2.3h-1.2v-6.1h2.6c.3,0,.5.2.8.3.2.2.4.4.5.6.1.3.2.5.2.8s0,.6-.2.9-.3.5-.5.6c-.2.2-.5.3-.8.3h-1.4v.2h0ZM143.5,64.4h1.1c.1,0,.3-.2.4-.3,0,0,.1-.3.1-.5s0-.5-.2-.7c-.1,0-.3-.2-.5-.2h-.8v1.9h-.1v-.2Z"/>
          <path d="M150.8,66.5v1c-.5.2-1,.3-1.5.3s-.7,0-1-.2-.5-.3-.8-.5-.4-.5-.5-.8-.2-.6-.2-1,0-.7.1-1,.2-.5.4-.8c.2-.2.4-.4.7-.5s.6-.2.9-.2.6,0,.9.2.5.3.6.5c.2.2.3.5.4.8s.1.6.1.9h0v.4h-3.1c0,.4.2.6.4.8s.6.3.9.3.9-.2,1.4-.5h0l.3.3h0ZM150,65c0-.2,0-.4-.1-.6s-.2-.3-.3-.4-.3-.2-.5-.2-.4,0-.6.2c-.1,0-.3.2-.4.4,0,.2-.1.4-.1.6h2Z"/>
          <path d="M153.3,67.7h-1.2v-4.6h1.1v1.1c.1-.4.3-.7.5-.9s.5-.3.8-.3h.4v1.1h-.4c-.3,0-.5,0-.7.2s-.3.3-.3.6v2.8h-.2Z"/>
          <path d="M159.7,63.1v4.6h-1.1v-.7c-.1.2-.3.3-.4.4-.1,0-.3.2-.5.3h-.6c-.4,0-.8,0-1-.3-.2-.2-.4-.4-.5-.7,0-.3-.1-.7-.1-1.1v-2.6h1.2v2.9c0,.2.1.4.2.5s.3.2.6.2.6-.2.7-.4c.1-.3.2-.7.2-1.1v-2.1h1.3ZM157.8,62.4h-.7l.7-1.3h1.2l-1.2,1.3h0Z"/>
        </g>
        <g>
          <path d="M43.5,98.1h-1.2v-2.6h-2.5v2.6h-1.2v-6.1h1.2v2.5h2.5v-2.5h1.2v6.1Z"/>
          <path d="M48.9,93.5v4.6h-1.1v-.7c-.2.2-.3.3-.4.4-.2,0-.3.2-.5.3h-.6c-.4,0-.8,0-1-.3-.2-.2-.4-.4-.5-.7,0-.3,0-.7,0-1.1v-2.6h1.2v2.9c0,.2,0,.4.2.5s.3.2.6.2.6-.2.7-.4c0-.3.2-.7.2-1.1v-2.1h1.3,0Z"/>
          <path d="M51.2,98.1h-1.1v-6.6h1.2v2.8c.2-.3.4-.5.6-.7s.5-.2.9-.2.6,0,.8.2.4.3.6.5.3.4.3.7,0,.6,0,.9v.9c0,.3-.2.6-.3.8,0,.2-.3.4-.6.6-.2,0-.5.2-.9.2-.7,0-1.2-.3-1.4-.8v.7s-.2,0-.2,0ZM53.4,95.8c0-.4,0-.7-.2-1s-.4-.4-.7-.4-.6,0-.8.4-.3.6-.3,1,0,.7.3,1,.4.4.8.4.4,0,.6-.2.3-.3.3-.6v-.7h0Z"/>
          <path d="M59.5,98.1h-1.2v-6.1h3.1c.3,0,.6.2.8.5s.3.6.3,1,0,.7-.3,1-.5.4-.9.5c.2,0,.3.2.5.3,0,0,.2.3.3.6l.9,2.1h-1.4l-.7-1.7c0-.2-.2-.4-.3-.5,0,0-.2-.2-.4-.2h-.7v2.6h0v-.2h0ZM59.5,94.6h.5c.3,0,.6,0,.8-.2.2,0,.3-.3.3-.7,0-.6-.3-.8-1-.8h-.7v1.7h.1Z"/>
          <path d="M67.2,96.9v1c-.5.2-1,.3-1.5.3s-.7,0-1-.2-.5-.3-.8-.5-.4-.5-.5-.8-.2-.6-.2-1,0-.7.2-1c0-.3.2-.6.4-.8.2-.2.4-.4.7-.5s.6-.2.9-.2.6,0,.9.2.5.3.6.5c.2.2.3.5.4.8s0,.6,0,.9h0v.4h-3.1c0,.4.2.6.4.8s.6.3.9.3.9-.2,1.4-.5h0l.2.3h0ZM66.4,95.4c0-.2,0-.4,0-.6s-.2-.3-.3-.4c0,0-.3-.2-.5-.2s-.4,0-.6.2c-.2,0-.3.2-.3.4s0,.4-.2.6h2Z"/>
          <path d="M71.6,93.6h1.1v4c0,.8-.2,1.4-.6,1.9-.4.4-1,.6-1.8.6s-1.1,0-1.6-.3v-1c.3,0,.6.2.8.3h.7c.3,0,.5,0,.7-.2s.4-.3.5-.5c0,0,0-.3,0-.5v-.8c-.2.3-.4.5-.6.7-.3.2-.6.2-.9.2s-.8,0-1-.3-.5-.5-.6-.9c0-.3-.2-.7-.2-1.1s0-.8.2-1.1.3-.6.6-.8.6-.3,1.1-.3.6,0,.9.2.4.3.6.6v-.7h0ZM71.5,95.8v-.5c0-.2,0-.3-.2-.4l-.3-.3h-.4c-.3,0-.6,0-.8.4-.2.3-.2.6-.2.9s0,.7.2,1,.4.4.8.4.4,0,.6-.2c.2,0,.3-.3.3-.5s0-.4,0-.7h0Z"/>
          <path d="M75,92.7h-1.2v-1.1h1.2v1.1ZM75,98.1h-1.2v-4.6h1.2v4.6Z"/>
          <path d="M80.7,95.9c0,.3,0,.7-.2,1s-.3.5-.5.8c-.2.2-.5.4-.8.5s-.6.2-1,.2-.9,0-1.2-.3c-.4-.2-.6-.5-.8-.9-.2-.4-.3-.8-.3-1.2s0-.9.3-1.2.5-.6.8-.8c.4-.2.8-.3,1.2-.3s.7,0,1,.2.5.3.8.5.4.5.5.8.2.6.2,1h0s0-.3,0-.3ZM79.5,95.8c0-.2,0-.5,0-.7,0-.2-.2-.4-.4-.6s-.4-.2-.6-.2-.4,0-.6.2-.3.3-.4.6c0,.2,0,.5,0,.7s0,.5,0,.7.2.4.4.6.4.2.7.2h.5c0,0,.3-.2.3-.3s.2-.3.2-.5v-.5h0v-.2Z"/>
          <path d="M82.7,93.5v.7c.4-.5.9-.8,1.6-.8s1,.2,1.2.5c.2.4.3.9.3,1.5v2.6h-1.2v-2.3c0-.4,0-.7-.2-1,0-.2-.3-.4-.7-.4s-.6.2-.8.4c-.2.3-.2.7-.2,1.1v2.2h-1.2v-4.6h1.2,0Z"/>
          <path d="M90.8,98.1h-1.1v-.7l-.6.6c-.2.2-.5.2-.8.2s-.6,0-.8-.2c-.2,0-.4-.3-.6-.5,0-.2-.2-.5-.2-.8,0-.6.2-1,.7-1.2s1-.3,1.6-.3h.7c0-.3,0-.6-.2-.8-.2-.2-.4-.2-.8-.2s-1,.2-1.4.5v-1c.4-.2,1-.3,1.5-.3h.6c.2,0,.4,0,.6.2s.3.2.4.4c0,.2.2.3.2.6v3.4h.2ZM89.7,96h-1c-.2,0-.4,0-.6.2-.2,0-.2.3-.2.5s0,.3.2.4.3.2.5.2c.4,0,.6,0,.8-.4.2-.3.3-.6.3-.9h0Z"/>
          <path d="M93.1,98.1h-1.2v-6.6h1.2v6.6Z"/>
          <path d="M100.7,97.1v1h-3.6v-6.1h1.2v5.1h2.4Z"/>
          <path d="M102.6,92.7h-1.2v-1.1h1.2v1.1ZM102.6,98.1h-1.2v-4.6h1.2v4.6Z"/>
          <path d="M104.9,93.5v.7l.6-.6c.2-.2.5-.2.8-.2s.6,0,.8.2.4.3.5.6c.2-.3.4-.5.6-.6s.5-.2.8-.2c.6,0,.9.2,1.2.5.2.4.3.8.3,1.4v2.6h-1.2v-2.4c0-.4,0-.7,0-.9,0-.2-.3-.4-.6-.4-.6,0-.9.5-.9,1.6v2.1h-1.2v-2.7c0-.3,0-.5-.2-.7s-.3-.3-.5-.3-.6,0-.7.4-.2.6-.2,1v2.3h-1.2v-4.5h1.2,0Z"/>
          <path d="M115.5,98.1h-1.1v-.7l-.6.6c-.2.2-.5.2-.8.2s-.6,0-.8-.2c-.2,0-.4-.3-.6-.5,0-.2-.2-.5-.2-.8,0-.6.2-1,.7-1.2s1-.3,1.6-.3h.7c0-.3,0-.6-.2-.8-.2-.2-.4-.2-.8-.2s-1,.2-1.4.5v-1c.4-.2,1-.3,1.5-.3h.6c.2,0,.4,0,.6.2s.3.2.4.4c0,.2.2.3.2.6v3.4h.2ZM114.4,96h-1c-.2,0-.4,0-.6.2-.2,0-.2.3-.2.5s0,.3.2.4.3.2.5.2c.4,0,.6,0,.8-.4s.3-.6.3-.9h0Z"/>
        </g>
        <g>
          <path d="M43,86.3v1.1c-.5,0-.9.2-1.4.2s-.9,0-1.3-.2c-.4,0-.8-.3-1.1-.6s-.5-.6-.7-1-.2-.8-.2-1.3,0-.9.2-1.3.4-.7.7-1,.6-.5,1-.6.8-.2,1.3-.2.9,0,1.5.3v1.1c-.5-.2-.9-.3-1.4-.3s-.8,0-1.1.3c-.3.2-.5.4-.7.7s-.2.7-.2,1.1,0,.8.3,1.1.4.6.7.8c.3.2.7.3,1.1.3s.8,0,1.3-.3h0s0-.2,0-.2Z"/>
          <path d="M48.3,85.3c0,.3,0,.7-.2,1,0,.3-.3.5-.5.8-.2.2-.5.4-.8.5s-.6.2-1,.2-.9,0-1.2-.3c-.4-.2-.6-.5-.8-.9s-.3-.8-.3-1.2,0-.9.3-1.2.5-.6.8-.8c.4-.2.8-.3,1.2-.3s.7,0,1,.2.5.3.8.5.4.5.5.8.2.6.2,1h0s0-.3,0-.3ZM47.1,85.3c0-.2,0-.5,0-.7,0-.2-.2-.4-.4-.6s-.4-.2-.6-.2-.5,0-.6.2-.3.3-.4.6c0,.2,0,.5,0,.7s0,.5,0,.7c0,.2.2.4.4.6s.4.2.7.2h.5c0,0,.3-.2.3-.3s.2-.3.2-.5v-.5h0v-.2Z"/>
          <path d="M53.7,85.3c0,.3,0,.7-.2,1,0,.3-.3.5-.5.8s-.5.4-.8.5-.6.2-1,.2-.9,0-1.2-.3c-.4-.2-.6-.5-.8-.9s-.3-.8-.3-1.2,0-.9.3-1.2.5-.6.8-.8c.4-.2.8-.3,1.2-.3s.7,0,1,.2.5.3.8.5.4.5.5.8.2.6.2,1h0s0-.3,0-.3ZM52.5,85.3c0-.2,0-.5,0-.7,0-.2-.2-.4-.4-.6s-.4-.2-.6-.2-.5,0-.6.2-.3.3-.4.6c0,.2,0,.5,0,.7s0,.5,0,.7c0,.2.2.4.4.6s.4.2.7.2h.5c0,0,.3-.2.3-.3s.2-.3.2-.5v-.5h0v-.2Z"/>
          <path d="M55.9,89.4h-1.2v-6.4h1.1v.7c.4-.5.9-.8,1.5-.8s.6,0,.8.2c.2,0,.4.3.6.5s.3.5.3.7c0,.3,0,.6,0,.9s0,.8-.2,1.2c0,.4-.3.7-.6.9-.3.2-.7.3-1.1.3s-.5,0-.8-.2-.4-.3-.6-.5v2.5s0,0,.1,0ZM57.9,85.3v-.7c0-.2-.2-.4-.3-.5-.2,0-.3-.2-.6-.2s-.4,0-.6.2-.3.3-.3.5,0,.4,0,.7,0,.7.2,1,.4.4.8.4.4,0,.6-.2.3-.3.3-.5,0-.4,0-.7c0,0,0,0-.1,0Z"/>
          <path d="M63.7,86.4v1c-.5.2-1,.3-1.5.3s-.7,0-1-.2-.5-.3-.8-.5-.4-.5-.5-.8-.2-.6-.2-1,0-.7.2-1c0-.3.2-.6.4-.8s.4-.4.7-.5c.3,0,.6-.2.9-.2s.6,0,.9.2c.3,0,.5.3.6.5.2.2.3.5.4.8,0,.3,0,.6,0,.9h0v.4h-3.1c0,.4.2.6.4.8s.6.3.9.3.9-.2,1.4-.5h0l.2.3h0ZM62.9,84.9c0-.2,0-.4,0-.6s-.2-.3-.3-.4c0,0-.3-.2-.5-.2s-.4,0-.5.2c-.2,0-.3.2-.3.4s0,.4-.2.6h2-.1Z"/>
          <path d="M66.2,87.6h-1.2v-4.6h1.1v1.2c0-.4.3-.7.5-.9.2-.2.5-.3.8-.3h.3v1.1h-.4c-.3,0-.5,0-.7.2s-.3.3-.3.6v2.8h-.1Z"/>
          <path d="M72.2,87.6h-1.1v-.7l-.6.6c-.2.2-.5.2-.8.2s-.6,0-.8-.2c-.2,0-.4-.3-.6-.5,0-.2-.2-.5-.2-.8,0-.6.2-1,.7-1.2s1-.3,1.6-.3h.7c0-.3,0-.6-.2-.8-.2-.2-.4-.2-.8-.2s-1,.2-1.4.5v-1c.4-.2,1-.3,1.5-.3h.6c.2,0,.4,0,.6.2s.3.2.4.4c0,.2.2.3.2.6v3.4h.2ZM71.1,85.5h-1c-.2,0-.4,0-.6.2-.2,0-.2.3-.2.5s0,.3.2.4.3.2.5.2c.4,0,.6,0,.8-.4.2-.3.3-.6.3-.9h0Z"/>
          <path d="M76.5,86.4v1c-.3,0-.7.2-1,.2s-.7,0-1-.2-.5-.3-.8-.5-.4-.4-.5-.7-.2-.6-.2-1,0-.8.3-1.2.5-.6.8-.8c.3-.2.8-.3,1.2-.3s.7,0,1,.2v.9c-.4,0-.6-.2-.8-.2s-.5,0-.7.2-.3.3-.4.5c0,.2-.2.4-.2.7s0,.7.4,1,.6.4,1,.4.5,0,.8-.2c0,0,0,0,0,0Z"/>
          <path d="M78.5,82.2h-1.2v-1.1h1.2v1.1ZM78.5,87.6h-1.2v-4.6h1.2v4.6Z"/>
          <path d="M84.2,85.3c0,.3,0,.7-.2,1s-.3.5-.5.8c-.2.2-.5.4-.8.5s-.6.2-1,.2-.9,0-1.2-.3c-.4-.2-.6-.5-.8-.9-.2-.4-.3-.8-.3-1.2s0-.9.3-1.2c.2-.4.5-.6.8-.8.4-.2.8-.3,1.2-.3s.7,0,1,.2.5.3.8.5.4.5.5.8.2.6.2,1h0s0-.3,0-.3ZM83,85.3c0-.2,0-.5,0-.7,0-.2-.2-.4-.4-.6s-.4-.2-.6-.2-.4,0-.6.2-.3.3-.4.6c0,.2,0,.5,0,.7s0,.5,0,.7.2.4.4.6.4.2.7.2h.5c0,0,.3-.2.3-.3s.2-.3.2-.5v-.5h0v-.2ZM82,82.3h-.7l.7-1.3h1.2l-1.2,1.3Z"/>
          <path d="M86.2,83v.7c.4-.5.9-.8,1.6-.8s1,.2,1.2.5c.2.4.3.9.3,1.5v2.6h-1.2v-2.3c0-.4,0-.7-.2-1,0-.2-.3-.4-.7-.4s-.6.2-.8.4c-.2.3-.2.7-.2,1.1v2.2h-1.2v-4.6h1.2,0Z"/>
          <path d="M94.5,87.6h-1.2v-6.1h1.2v6.1Z"/>
          <path d="M97,83v.7c.4-.5.9-.8,1.6-.8s1,.2,1.2.5c.2.4.3.9.3,1.5v2.6h-1.2v-2.3c0-.4,0-.7-.2-1,0-.2-.3-.4-.7-.4s-.6.2-.8.4c-.2.3-.2.7-.2,1.1v2.2h-1.2v-4.6h1.2,0Z"/>
          <path d="M103.8,86.6v.9h-.8c-.4,0-.7,0-.9-.2-.2,0-.4-.3-.5-.6,0-.3,0-.6,0-1v-1.9h-.9v-.9h.9v-.9l1.2-.4v1.3h1v.9h-1v1.7c0,.3,0,.6,0,.8,0,.2.3.3.6.3h.4Z"/>
          <path d="M108.4,86.4v1c-.5.2-1,.3-1.5.3s-.7,0-1-.2-.5-.3-.8-.5-.4-.5-.5-.8-.2-.6-.2-1,0-.7.2-1,.2-.6.4-.8.4-.4.7-.5.6-.2.9-.2.6,0,.9.2.5.3.6.5c.2.2.3.5.4.8s0,.6,0,.9h0v.4h-3.1c0,.4.2.6.4.8s.6.3.9.3.9-.2,1.4-.5h0l.2.3h0ZM107.6,84.9c0-.2,0-.4,0-.6s-.2-.3-.3-.4c0,0-.3-.2-.5-.2s-.4,0-.6.2c-.2,0-.3.2-.3.4s0,.4-.2.6h2Z"/>
          <path d="M110.8,87.6h-1.2v-4.6h1.1v1.2c0-.4.3-.7.5-.9.2-.2.5-.3.8-.3h.3v1.1h-.4c-.3,0-.5,0-.7.2s-.3.3-.3.6v2.8h-.1Z"/>
          <path d="M114.2,83v.7c.4-.5.9-.8,1.6-.8s1,.2,1.2.5.3.9.3,1.5v2.6h-1.2v-2.3c0-.4,0-.7-.2-1,0-.2-.3-.4-.7-.4s-.6.2-.8.4c-.2.3-.2.7-.2,1.1v2.2h-1.2v-4.6h1.2,0Z"/>
          <path d="M122.3,87.6h-1.1v-.7l-.6.6c-.2.2-.5.2-.8.2s-.6,0-.8-.2c-.2,0-.4-.3-.6-.5,0-.2-.2-.5-.2-.8,0-.6.2-1,.7-1.2s1-.3,1.6-.3h.7c0-.3,0-.6-.2-.8-.2-.2-.4-.2-.8-.2s-1,.2-1.4.5v-1c.4-.2,1-.3,1.5-.3h.6c.2,0,.4,0,.6.2s.3.2.4.4c0,.2.2.3.2.6v3.4h.2ZM121.2,85.5h-1c-.2,0-.4,0-.6.2-.2,0-.2.3-.2.5s0,.3.2.4.3.2.5.2c.4,0,.6,0,.8-.4s.3-.6.3-.9h0Z"/>
          <path d="M126.5,86.4v1c-.3,0-.7.2-1,.2s-.7,0-1-.2-.5-.3-.8-.5-.4-.4-.5-.7-.2-.6-.2-1,0-.8.3-1.2.5-.6.8-.8c.3-.2.8-.3,1.2-.3s.7,0,1,.2v.9c-.4,0-.6-.2-.8-.2s-.5,0-.7.2-.3.3-.4.5c0,.2-.2.4-.2.7s0,.7.4,1,.6.4,1,.4.5,0,.8-.2h0Z"/>
          <path d="M128.6,82.2h-1.2v-1.1h1.2v1.1ZM128.6,87.6h-1.2v-4.6h1.2v4.6Z"/>
          <path d="M134.2,85.3c0,.3,0,.7-.2,1s-.3.5-.5.8c-.2.2-.5.4-.8.5s-.6.2-1,.2-.9,0-1.2-.3c-.4-.2-.6-.5-.8-.9s-.3-.8-.3-1.2.1-.9.3-1.2.5-.6.8-.8.8-.3,1.2-.3.7,0,1,.2.5.3.8.5.4.5.5.8.2.6.2,1h0s0-.3,0-.3ZM133,85.3c0-.2,0-.5-.1-.7,0-.2-.2-.4-.4-.6s-.4-.2-.6-.2-.4,0-.6.2-.3.3-.4.6c0,.2-.1.5-.1.7s0,.5.1.7.2.4.4.6.4.2.7.2h.5c.1,0,.3-.2.4-.3,0,0,.2-.3.2-.5v-.5h0v-.2Z"/>
          <path d="M136.3,83v.7c.4-.5.9-.8,1.6-.8s1,.2,1.2.5.3.9.3,1.5v2.6h-1.2v-2.3c0-.4,0-.7-.2-1-.1-.2-.3-.4-.7-.4s-.6.2-.8.4c-.1.3-.2.7-.2,1.1v2.2h-1.2v-4.6h1.2,0Z"/>
          <path d="M144.4,87.6h-1.1v-.7c-.2.2-.4.4-.6.6s-.5.2-.8.2-.6,0-.8-.2c-.2,0-.4-.3-.6-.5-.1-.2-.2-.5-.2-.8,0-.6.2-1,.7-1.2s1-.3,1.6-.3h.7c0-.3,0-.6-.2-.8s-.4-.2-.8-.2-1,.2-1.4.5v-1c.5-.2,1-.3,1.6-.3h.6c.2,0,.4,0,.6.2s.3.2.4.4c.1.2.2.3.2.6v3.4h.1ZM143.2,85.5h-1c-.2,0-.4,0-.6.2s-.2.3-.2.5,0,.3.2.4.3.2.5.2c.4,0,.6,0,.8-.4s.3-.6.3-.9h0Z"/>
          <path d="M146.7,87.6h-1.2v-6.6h1.2v6.6Z"/>
          <path d="M152.1,85.8h-2.2v-1h2.2v1Z"/>
          <path d="M159.8,86.3v1.1c-.5,0-.9.2-1.3.2s-.9,0-1.3-.2c-.4,0-.8-.3-1.1-.6s-.6-.6-.7-1-.2-.8-.2-1.3,0-.9.2-1.3c.1-.4.4-.7.6-1,.3-.3.6-.5,1-.6s.9-.2,1.4-.2.9,0,1.5.3v1.1c-.5-.2-.9-.3-1.4-.3s-.8,0-1.1.3c-.3.2-.5.4-.7.7s-.2.7-.2,1.1,0,.8.3,1.1.4.6.7.8.7.3,1.1.3.8,0,1.3-.3h0v-.2h-.1Z"/>
          <path d="M166.5,84.5c0,.6-.1,1.2-.4,1.6-.2.5-.6.9-1,1.1-.4.3-1,.4-1.6.4s-1.2,0-1.6-.4c-.5-.3-.8-.7-1-1.1-.2-.5-.4-1.1-.4-1.7s.1-1.2.4-1.7c.2-.5.6-.9,1-1.1s1-.4,1.6-.4.9,0,1.3.2c.4.2.7.4.9.7s.4.6.6,1,.2.8.2,1.3h0ZM165.2,84.5c0-.3,0-.5-.1-.8,0-.3-.2-.5-.3-.7s-.3-.4-.5-.5-.5-.2-.8-.2-.7,0-.9.3c-.2.2-.4.5-.6.9s-.2.7-.2,1.1,0,.7.2,1.1c.1.3.3.6.6.8.3.2.6.3.9.3s.5,0,.7-.2.4-.3.5-.5.2-.5.3-.7c0-.3.1-.5.1-.8h.1Z"/>
          <path d="M167.6,87.4v-1.1c.6.3,1.1.4,1.5.4s.5,0,.8-.2c.2,0,.3-.3.3-.6s0-.5-.3-.6c-.2,0-.5-.3-1-.5s-.8-.4-1.1-.7c-.2-.2-.4-.6-.4-1.1s.1-.7.3-1,.5-.5.8-.6.7-.2,1.1-.2,1,0,1.5.2v1c-.6-.2-1-.3-1.4-.3s-.5,0-.7.2-.3.3-.3.6,0,.4.2.5.5.2,1,.5.9.5,1.1.7.4.6.4,1.1,0,.6-.2.9-.3.4-.5.6-.5.3-.8.3h-.9c-.5,0-1,0-1.6-.3h.2v.2Z"/>
          <path d="M176.5,81.4h1.2v3.7c0,.6,0,1-.3,1.4-.2.4-.4.7-.8.9s-.8.3-1.4.3-1.1,0-1.4-.3c-.4-.2-.7-.5-.8-.8s-.3-.9-.3-1.4v-3.7h1.2v3.6c0,.5.1.9.3,1.2.2.3.5.5,1,.5s.6,0,.8-.2.3-.4.4-.6c0-.3.1-.6.1-.9v-3.6h0Z"/>
          <path d="M179.2,87.6v-6.1h2.4c.3,0,.6,0,.9.2.3,0,.6.2.8.4.2,0,.4.3.5.5s.3.4.3.6.1.4.2.7,0,.5,0,.7c0,.5,0,1-.3,1.4-.2.4-.5.8-.9,1.1-.2.2-.4.3-.7.3s-.5,0-.8.2h-2.7s.3,0,.3,0ZM180.4,86.6h1.3c.3,0,.5-.2.7-.4s.4-.4.5-.7.2-.6.2-1,0-.7-.2-1-.4-.6-.7-.7c-.1,0-.2,0-.4-.2s-.3,0-.4,0h-.9v4.2h-.1v-.2Z"/>
          <path d="M189.2,86.6v1h-3.7v-6.1h3.6v1h-2.4v1.5h2.2v1h-2.2v1.6h2.5,0Z"/>
        </g>
      </g>
    </g>
  </g>
</svg>