<?xml version="1.0" encoding="UTF-8"?>
<svg id="Layer_2" data-name="Layer 2" xmlns="http://www.w3.org/2000/svg" viewBox="0 0 134.73 100.05">
  <defs>
    <style>
      .cls-1 {
        fill: none;
      }

      .cls-2 {
        fill: #58595b;
      }

      .cls-3 {
        fill: #ffcf00;
      }

      .cls-4 {
        fill: #00cf00;
      }

      .cls-5 {
        fill: red;
      }

      .cls-6 {
        fill: #173dff;
      }
    </style>
  </defs>
  <g id="Layer_1-2" data-name="Layer 1">
    <rect class="cls-1" width="134.73" height="100.05"/>
    <g>
      <g>
        <path class="cls-4" d="M41.16,45.14v-10.97c.89,0,1.77-.01,2.66,0,.45.01.64-.17.65-.6h-5.9c-.18,0-.36,0-.53-.04-.35.05-.7.07-1.04.05.04.45.24.6.69.59.81-.02,1.62-.01,2.43,0,0,3.26,0,8.56.01,10.56,0,.44-.19.53-.63.57-1.12.1-2.23.24-3.34.38-1.02.13-2.03.29-3.06.44v-6.79c.14.07.22.11.3.15.62.28,1.24.17,1.58-.28.36-.47.28-1.05-.27-1.45-.78-.56-1.6-1.05-2.36-1.61-.19-.13-.33-.4-.35-.61-.06-.55,0-1.12-.08-1.68-.11-.74-1.11-1.11-1.75-.64-.32.23-.47.64-.72,1.02-.69-.46-1.46-.98-2.23-1.49-.79-.53-1.22-.53-2-.01-2.41,1.6-4.82,3.21-7.23,4.82-.17.11-.33.23-.47.37-.36.36-.4.88-.1,1.27.31.4.89.55,1.42.36.15-.05.3-.12.46-.18v2.44c-5.33-1.85-8.8-3.24-17.49-2.51v4.41c5.07-.78,3.57-.69,8.69-.61,5.07.07,11.6,1.84,16.31,3.59-.07-.14-.18-.21-.28-.28-1.61-1.11-3.22-2.22-4.82-3.34-.18-.12-.38-.35-.38-.54-.03-2.56-.02-1.65-.01-4.2,0-.16.09-.39.22-.48,1.54-1.06,3.1-2.08,4.68-3.14,1.51,1.01,3,2.01,4.51,2.99.31.21.41.43.41.76-.01,3.67-.01,3.85-.01,7.52v.49c-9.99,2.04-19.41,4.09-28.21,8.87.17.03.21.05.24.04.55-.15,1.09-.29,1.64-.44,6.7-1.85,13.41-2.88,20.31-4.05,4.76-.8,9.56-1.35,14.41-1.49,2.27-.06,4.53-.03,6.79.1v-4.52c-1.7.02-3.41.08-5.12.18"/>
        <path class="cls-4" d="M46.28,51.03c-4.69,0-8.77-.02-13.42.24-5.92.32-15.34,2.11-20.9,2.94-4.35.64-5.51.93-9.25,1.71-.69.15-1.31.38-1.97.57.02.01.04.03.06.04h45.49v-5.5Z"/>
        <path class="cls-4" d="M6.17,45.71c.58.3,1.07.7,1.31,1.33.14.38.19.78.16,1.18-.03.52-.14,1.04-.24,1.55-.11.56-.22,1.12-.19,1.7.03.65.29,1.18.8,1.59.02.02.05.05.11.1-.27-.07-.46-.19-.65-.32-.99-.65-1.64-1.53-1.81-2.73-.1-.7-.14-1.41-.29-2.11-.04-.21-.11-.42-.2-.62.02.87-.09,1.74.01,2.61.06.53.2,1.04.51,1.49.03.05.1.12.03.18-.05.06-.13,0-.18-.03-.47-.25-.86-.59-1.21-1-.3-.35-.5-.75-.67-1.17-.26-.87-.07-1.71.15-2.55.14-.53.24-1.08.14-1.63-.02-.11-.06-.22-.09-.33.01,0,.02,0,.04,0,.14.02.28.04.42.05.54.17,1.1.28,1.62.53.1.04.21.06.23.19"/>
        <path class="cls-4" d="M10.44,45.88c-.22.45-.46.88-.89,1.18-.32.23-.69.34-1.09.39.57-.53,1.03-1.13,1.13-1.93-.26.42-.53.83-.88,1.19-.17.17-.35.33-.55.48-.08.06-.11.06-.15-.05-.2-.65-.18-1.28.11-1.9-.06-.12,0-.22.08-.31.34-.47.77-.82,1.37-.89.01,0,.02,0,.04-.02.23-.04.47-.08.71-.12.2,0,.39-.02.59-.01.27.01.35.14.24.38-.21.45-.34.95-.54,1.41-.04.09-.09.16-.18.21"/>
        <path class="cls-4" d="M11.74,47.9c-.47.86-.66,1.84-1.12,2.7-.49.91-1.23,1.45-2.33,1.6.78-.69,1.35-1.45,1.49-2.46-.28.45-.56.89-.91,1.29-.27.31-.57.59-.91.84-.1.07-.13.04-.16-.06-.36-1.2-.19-2.29.74-3.18.79-.76,1.76-.96,2.82-.81.11.02.21.03.31.05.02,0,.04.02.07.03"/>
        <path class="cls-4" d="M36.06,30.01c.03.15.1.3.16.45.09.21.23.42.27.64.06.36-.07.85.12,1.06.41.44.34.93.37,1.41.02.4.19.57.54.6h6.42c.37-.03.54-.21.54-.63,0-.34-.07-.83.12-1.01.45-.41.31-.9.38-1.36.03-.18-.04-.47.06-.53.59-.4.31-1,.41-1.5.04-.18.12-.35.19-.52.06-.15.15-.29.22-.43-.14-.08-.3-.2-.45-.21-2.13-.02-4.24-.77-6.4-.23-.05.01-.11,0-.16.01-.97.07-1.93.13-2.9.21-.29.02-.63.25-.37.45.58.46.36,1.05.46,1.59M39.46,30.72c.37-.68.83-1.3,1.3-2.04.46.86.94,1.62,1.29,2.43.31.72,0,1.3-.67,1.69-.67.39-1.3.26-1.81-.29-.5-.54-.43-1.19-.11-1.79"/>
      </g>
      <g>
        <g>
          <path class="cls-5" d="M55.13,49.99c-.1.27-.47.34-1.08.37-.74.03-2,.03-2.23.03-.41,0-2.44,0-2.64-.07-.27-.07-.34-.41-.37-.57-.07-.47-.07-.78-.07-1.73,0-3.72.24-15.37.37-18.76.07-1.56.1-1.66,1.76-1.66.27,0,4.74,0,5.42.04,5.01.24,7.08,1.25,8.4,2.23,1.69,1.25,2.88,3.45,2.88,5.93,0,2.27-1.02,4.74-3.15,6.33-2.27,1.73-4.81,1.93-6.97,1.93-1.05,0-1.56-.03-2.17-.1,0,.81.03,5.55-.14,6.03ZM56.65,39.8c3.45,0,4.87-1.96,4.87-4.2,0-3.93-4.16-3.93-4.84-3.93-.44,0-.74.03-1.12.07,0,1.15,0,2.74-.07,4-.14,2.78-.17,3.08-.17,3.92.54.1.81.14,1.32.14Z"/>
          <path class="cls-3" d="M91.05,27.64c.95,0,1.19.24,1.19,1.08,0,3.76-.44,9.75-.58,13.51l-.17,6.7c-.04,1.25-.04,1.59-1.63,1.59-.34,0-2.98-.03-3.28-.07-.64-.1-.68-.14-2.4-2.71-.61-.91-8.02-10.33-9.24-11.85,0,.17-.07,13.51-.24,14.15-.1.34-.3.37-2.34.37-2.27,0-2.67,0-2.84-.2-.13-.14-.13-.75-.13-.95,0-1.05.13-6.94.17-8.53.03-2.1.3-11.44.4-12.39.07-.51.24-.68,1.12-.71.17-.04,1.39-.04,1.73-.04,2.54,0,2.95.04,3.28.17.71.37,7.42,9.04,7.55,9.21,2.07,2.84,2.3,3.15,2.81,3.79.07-1.93.31-11.75.37-12.22.1-.78.37-.88,1.93-.88l2.3-.03Z"/>
          <path class="cls-6" d="M108.73,28.42c0,.47-.07,1.29-.17,2.34-.1.81-.21,1.18-.78,1.18-.44,0-.98-.17-2.3-.17-2,0-3.93.64-3.93,1.93,0,.81.41,1.15,2.64,3.08,3.32,2.84,4.94,4.23,4.94,7.04,0,3.86-3.66,7.31-9.65,7.31-1.42,0-3.01-.13-4.71-.34-1.01-.1-1.08-.41-1.08-1.18,0-.51.2-2.61.34-2.98.1-.27.34-.34.68-.34.51,0,2.64.51,4.44.51,1.53,0,3.32-.68,3.32-2.2,0-.95-.3-1.25-3.22-3.96-3.35-3.15-4.2-4.44-4.2-6.47,0-2.84,2.34-6.63,9.96-6.63,3.05,0,3.72.03,3.72.88Z"/>
          <path class="cls-4" d="M130.84,47.75c.61.68,1.02,1.15,1.02,1.42,0,.41-.47.58-2.06,1.08-.51.17-3.08.98-3.42.98-.47,0-.95-.71-1.19-.95-.85-1.25-3.65-4.77-5.35-6.74-1.15.1-1.25.1-1.83.1-.04.81-.14,6.26-.44,6.57-.3.34-2.98.34-3.79.34-2.06,0-2.23,0-2.23-1.56,0-1.32.14-7.08.14-8.23.07-4.91.14-6.3.34-10.67.07-1.83.1-2.3,1.08-2.4,1.02-.07,4.57-.1,4.74-.1,4.5,0,6.87.37,9.11,1.86,1.49.98,2.91,2.91,2.91,5.55,0,3.22-1.76,5.45-4.67,7.08.27.3,5.08,5.01,5.65,5.65ZM118.24,35.46c-.1,3.05-.1,3.39-.14,4,3.83-.03,5.52-2.44,5.52-4.44,0-1.05-.51-3.28-3.69-3.28-.78,0-1.19.1-1.66.2l-.03,3.52Z"/>
        </g>
        <g>
          <path class="cls-2" d="M51.48,53.13s0,.05-.02.09c-.01.04-.02.08-.04.12-.02.04-.03.09-.06.13-.02.04-.04.07-.06.1-.05.06-.11.13-.19.2-.08.07-.17.14-.28.22-.1.07-.2.13-.31.2-.11.06-.21.12-.32.17-.12.07-.25.13-.38.18-.13.06-.26.11-.39.15v.09s0,.04,0,.08c0,.04,0,.08,0,.13,0,.05,0,.1.01.16,0,.05,0,.11,0,.17,0,.05,0,.1,0,.15,0,.05,0,.09,0,.11,0,.07-.02.12-.07.16-.04.04-.1.06-.17.06-.19,0-.29-.32-.29-.97,0-.05,0-.11,0-.17,0-.06,0-.12.02-.19,0-.07.02-.14.03-.22,0-.08.02-.16.04-.26.01-.08.03-.16.04-.23.01-.07.03-.14.04-.21.02-.07.04-.14.06-.21.02-.07.05-.13.08-.2-.04.01-.09.03-.13.04-.04.02-.09.03-.14.05-.01,0-.03.01-.04.02-.01,0-.03,0-.05,0-.05,0-.09-.02-.12-.04-.03-.03-.05-.06-.05-.11,0-.05.01-.1.04-.14.02-.04.06-.08.11-.11.05-.03.11-.06.19-.09.08-.02.17-.05.28-.07.06-.01.13-.03.21-.04.08-.01.15-.03.22-.03.08,0,.15-.02.22-.03.07,0,.14,0,.2,0,.07,0,.14,0,.2,0,.07,0,.13,0,.19,0,.06,0,.13.01.19.02.06,0,.13.02.19.04.15.04.26.09.35.16.11.08.16.19.16.31ZM50.34,52.98c-.1,0-.22,0-.34.02-.12.01-.25.03-.37.05.04.04.06.09.06.16,0,0,0,.03-.01.06,0,.03-.02.07-.03.11-.01.04-.02.08-.04.11-.01.03-.02.06-.02.06,0,.02-.01.04-.02.06,0,.03-.01.06-.02.09,0,.03-.01.06-.02.1,0,.03,0,.06-.02.09,0,.04-.01.08-.02.11,0,.03,0,.06-.01.08,0,.02,0,.05,0,.07,0,.02,0,.05,0,.07.04-.02.09-.04.15-.06.06-.02.11-.05.17-.07.06-.03.11-.05.17-.07.05-.02.1-.05.14-.07.02-.01.05-.03.08-.04.03-.02.06-.03.09-.05.03-.02.06-.03.09-.05.03-.02.06-.03.08-.05.06-.04.13-.08.2-.14.07-.05.13-.11.19-.17.06-.06.1-.12.14-.18.04-.06.05-.12.05-.17,0-.03-.03-.05-.1-.07-.1-.03-.2-.04-.3-.05-.1,0-.2-.01-.28-.01Z"/>
          <path class="cls-2" d="M53.58,53.97s0,.03,0,.05c0,.02-.01.04-.02.06,0,.02-.02.04-.04.05-.02.01-.04.02-.06.03,0,0-.02,0-.03,0-.02,0-.04,0-.06,0-.02,0-.04,0-.06,0-.02,0-.03,0-.04,0-.22.01-.41.09-.57.24-.04.03-.08.07-.11.12-.04.04-.08.09-.12.15-.04.05-.07.11-.11.17-.04.06-.07.13-.09.19-.02.05-.04.11-.07.17-.02.06-.04.12-.06.18-.01.03-.02.07-.02.09,0,.03-.01.06-.02.09,0,.02-.02.04-.03.06-.02.01-.04.03-.06.04-.02.01-.04.02-.07.02-.02,0-.05,0-.07,0-.08,0-.14-.04-.18-.11-.03-.08-.05-.19-.05-.34,0-.03,0-.07,0-.1,0-.03,0-.06,0-.09,0-.03,0-.07,0-.1,0-.03,0-.07,0-.11,0-.06.01-.14.02-.22,0-.09.02-.17.03-.26,0-.09.02-.17.03-.26.01-.08.02-.15.04-.21.01-.07.04-.13.08-.16.04-.04.09-.06.17-.06.02,0,.04,0,.06.02.02.01.04.03.06.04.02.02.03.03.04.05.01.02.02.04.02.05v.03s0,.08,0,.13c0,.05-.01.1-.03.16-.01.06-.02.11-.04.17-.01.06-.02.11-.04.17-.01.05-.02.1-.03.14-.01.05-.02.08-.02.11.05-.1.1-.19.15-.28.05-.09.11-.17.17-.25.06-.08.13-.15.2-.21.07-.06.15-.11.23-.15.07-.03.12-.05.18-.07.05-.02.1-.02.14-.02.05,0,.1,0,.16.02.05.01.1.03.15.05.04.02.08.05.11.07.03.03.04.06.04.1Z"/>
          <path class="cls-2" d="M56.3,53.9s0,.05-.01.08c-.01.03-.02.05-.04.08-.02.02-.04.05-.06.07-.02.02-.04.04-.07.05-.05.03-.12.06-.21.08-.09.02-.2.03-.33.03-.04,0-.08,0-.12,0-.04,0-.09-.01-.13-.02-.04,0-.09-.02-.13-.03-.04-.01-.08-.03-.12-.05,0,.01.01.03.02.05,0,.02,0,.04.01.06,0,.02,0,.04,0,.07,0,.02,0,.04,0,.05,0,.08-.02.17-.05.25s-.07.16-.12.24c-.05.08-.11.15-.17.21-.06.07-.13.12-.19.17-.05.04-.11.07-.17.1-.06.03-.13.05-.2.07-.07.02-.14.03-.22.04-.07.01-.15.01-.22.01-.06,0-.12-.01-.18-.05-.06-.03-.11-.07-.15-.12-.04-.05-.08-.1-.1-.16-.03-.06-.04-.12-.04-.18,0-.11.01-.21.04-.31.03-.1.07-.19.11-.28.05-.09.1-.18.17-.27.06-.09.13-.17.2-.26.04-.05.09-.1.14-.15.05-.05.11-.09.17-.13.06-.04.12-.07.18-.09.06-.02.12-.03.18-.03.04,0,.09,0,.12.01.03.01.06.03.09.04.03.02.06.04.09.07.02.03.05.06.08.09l.04.04s.04.03.09.05c.05.02.1.04.17.06.07.02.13.04.21.05.07.02.14.02.2.02s.12,0,.17,0c.05,0,.11,0,.16-.02.05,0,.11-.02.17-.04.06-.02.13-.04.2-.07,0,.01.01.03.01.04,0,.02,0,.03,0,.04ZM54.75,54.35s0-.07,0-.1c0-.04-.01-.07-.02-.1-.01-.03-.03-.06-.04-.08-.02-.02-.04-.04-.07-.05-.05-.01-.08-.03-.11-.04-.03-.01-.05-.03-.07-.04-.02-.01-.03-.02-.04-.03,0,0-.01-.01-.01-.01-.01,0-.02,0-.04.03-.02.02-.04.04-.06.07-.02.03-.05.06-.07.09-.02.03-.05.06-.07.09-.03.04-.05.07-.08.1-.02.03-.05.07-.07.1-.02.04-.05.07-.07.11-.02.04-.05.08-.07.13-.02.04-.04.09-.05.16-.01.06-.02.12-.02.18,0,.02,0,.04,0,.07,0,.02.01.04.02.06.01.02.03.03.04.05.02.01.04.02.06.02.06,0,.11,0,.15,0,.04,0,.08-.02.12-.03.04-.01.07-.04.11-.06.04-.03.08-.06.13-.1.02-.02.05-.04.07-.06.02-.02.05-.05.07-.08.02-.03.05-.06.07-.09.02-.03.04-.06.06-.09,0-.02.02-.04.03-.06,0-.03.01-.05.02-.08,0-.03,0-.05,0-.07,0-.02,0-.04,0-.05h0Z"/>
          <path class="cls-2" d="M57.14,54.12c0,.07,0,.15,0,.25,0,.1-.01.21-.02.34,0,.08-.02.18-.03.29-.01.11-.03.22-.04.33-.02.11-.04.22-.06.33-.02.11-.05.2-.08.28-.03.08-.06.15-.11.22-.04.07-.1.13-.16.19-.06.05-.13.1-.21.13-.08.03-.16.05-.25.05-.08,0-.16-.01-.24-.03-.08-.02-.15-.05-.23-.09-.07-.03-.14-.08-.2-.12-.06-.04-.11-.09-.16-.14-.05-.05-.08-.1-.11-.15-.03-.05-.04-.09-.04-.14,0-.08.04-.12.12-.12.02,0,.04,0,.05.01.01,0,.03.02.04.03.01,0,.02.02.03.03.01.01.02.02.03.03.06.05.11.1.17.14.06.03.11.06.17.09.06.02.12.04.17.05.06,0,.12.01.18.01.08,0,.14-.02.19-.06.05-.04.09-.09.12-.15.03-.06.05-.13.07-.21.02-.08.03-.15.04-.23h0c.02-.09.03-.19.04-.27.01-.09.02-.18.03-.26-.05.05-.11.11-.18.15-.07.05-.15.09-.23.12-.08.03-.16.06-.24.08-.08.02-.15.03-.22.03-.03,0-.06,0-.09-.01-.04,0-.07-.02-.11-.03-.03-.02-.06-.04-.09-.06-.03-.03-.04-.06-.04-.1,0-.08.01-.16.04-.26.03-.1.06-.2.1-.3.04-.1.08-.2.13-.29.05-.09.1-.17.14-.24.06-.09.13-.17.21-.24.08-.07.15-.13.23-.19.08-.05.15-.09.22-.12.07-.03.14-.04.19-.04.04,0,.09,0,.15.01.05,0,.1.02.14.04.04.02.08.05.11.08.03.03.05.08.05.13,0,.03,0,.05,0,.09,0,.03,0,.07,0,.1,0,.04,0,.07-.01.11,0,.04,0,.07,0,.11ZM56.69,54.43s.01-.07.02-.11c0-.04,0-.09.02-.14,0-.05,0-.1.01-.16,0-.05,0-.11,0-.17,0-.02,0-.03-.02-.04-.02-.01-.03-.02-.05-.02-.02,0-.06.02-.11.06-.05.04-.1.09-.16.16-.06.07-.12.14-.19.23-.06.09-.12.18-.18.28-.01.03-.03.06-.04.09-.01.04-.02.08-.03.12-.01.04-.02.08-.03.12,0,.04-.01.08-.02.11.07-.01.15-.04.23-.07.08-.03.16-.06.22-.1.04-.02.07-.05.11-.08.04-.03.07-.06.1-.09.03-.03.06-.07.08-.1.02-.03.03-.07.04-.1Z"/>
          <path class="cls-2" d="M59.39,53.97s0,.03,0,.05c0,.02-.01.04-.03.06,0,.02-.02.04-.04.05-.02.01-.04.02-.06.03,0,0-.02,0-.03,0-.02,0-.04,0-.05,0-.02,0-.04,0-.06,0-.02,0-.03,0-.04,0-.22.01-.41.09-.57.24-.04.03-.07.07-.11.12-.04.04-.08.09-.12.15-.04.05-.07.11-.11.17-.03.06-.06.13-.09.19-.02.05-.05.11-.07.17-.02.06-.04.12-.06.18,0,.03-.02.07-.02.09,0,.03-.01.06-.02.09,0,.02-.02.04-.03.06-.02.01-.04.03-.05.04-.02.01-.04.02-.07.02-.02,0-.05,0-.07,0-.08,0-.14-.04-.18-.11-.03-.08-.05-.19-.05-.34v-.1s0-.06,0-.09c0-.03,0-.07,0-.1,0-.03,0-.07,0-.11,0-.06.01-.14.02-.22.01-.09.02-.17.03-.26,0-.09.02-.17.03-.26.01-.08.02-.15.04-.21.02-.07.04-.13.08-.16.04-.04.09-.06.16-.06.02,0,.04,0,.07.02.02.01.04.03.06.04.02.02.03.03.04.05.01.02.02.04.02.05v.03s0,.08,0,.13c0,.05-.02.1-.03.16,0,.06-.02.11-.03.17-.01.06-.03.11-.04.17-.01.05-.02.1-.03.14-.01.05-.02.08-.02.11.05-.1.1-.19.15-.28.05-.09.11-.17.17-.25.06-.08.13-.15.2-.21.07-.06.14-.11.23-.15.06-.03.12-.05.17-.07.05-.02.1-.02.14-.02.05,0,.1,0,.16.02.06.01.1.03.15.05.05.02.08.05.11.07.03.03.04.06.04.1Z"/>
          <path class="cls-2" d="M62.1,53.99s0,.05-.01.07c0,.03-.02.05-.03.08-.01.03-.03.05-.04.08-.02.02-.03.05-.05.07-.08.1-.16.2-.25.29-.09.09-.18.18-.26.26-.05.04-.1.08-.15.11-.05.03-.1.07-.15.09-.05.03-.1.04-.15.06-.05.01-.09.02-.13.02-.05,0-.1-.02-.14-.05-.05-.03-.09-.07-.12-.12-.04-.05-.06-.1-.08-.16-.02-.05-.03-.11-.03-.15-.02.02-.04.05-.07.09-.03.04-.06.08-.09.12-.03.04-.07.08-.09.11-.03.03-.05.06-.06.07-.04.05-.09.09-.15.14-.06.05-.11.09-.16.13-.05.04-.11.07-.16.09-.05.02-.09.04-.11.04-.06,0-.12,0-.17-.03-.05-.02-.1-.04-.14-.08-.04-.04-.07-.08-.1-.13-.02-.05-.04-.11-.04-.18s0-.14.03-.21c.02-.08.04-.16.07-.24.03-.09.07-.17.11-.26.05-.09.09-.17.14-.25.05-.08.11-.16.16-.23.06-.07.12-.14.18-.19.11-.1.22-.18.34-.22.12-.05.24-.07.37-.07.03,0,.06,0,.08.01.02.01.04.02.06.04.02.02.03.03.04.05.01.02.02.04.03.06,0,0,.02.02.03.04.02.02.03.03.05.05.02.02.03.04.04.06.01.02.02.04.02.06,0,.03,0,.06-.01.09,0,.03-.02.07-.03.11,0,.04-.02.09-.02.14,0,.06-.01.12-.01.18,0,.04,0,.09,0,.14,0,.05.01.1.03.15.01.05.03.09.04.12.02.03.04.05.06.05.03,0,.05,0,.07,0,.02,0,.04-.01.06-.03.02-.01.04-.02.06-.04.02-.02.04-.03.07-.05.08-.06.17-.13.25-.21.08-.08.17-.16.25-.24.02-.02.05-.05.07-.08.03-.03.05-.05.08-.08.03-.03.05-.04.08-.06.03-.02.05-.02.08-.02.04,0,.06.03.06.09ZM60.49,53.74s0-.01,0-.02c0-.01,0-.02,0-.02-.04,0-.09.02-.15.05-.05.03-.11.07-.17.13-.06.06-.12.14-.19.23-.07.09-.14.21-.22.34-.02.04-.04.07-.06.12-.02.04-.04.09-.06.13-.02.05-.04.1-.05.15-.01.05-.02.11-.02.17,0,.02,0,.04.02.05.01.01.02.02.04.02.03,0,.07-.02.12-.05.05-.03.1-.08.16-.14.05-.06.11-.13.17-.2.06-.07.11-.15.16-.23.05-.08.09-.16.13-.23.04-.08.06-.15.08-.21,0-.02,0-.04.01-.07,0-.03.01-.05.02-.08,0-.03,0-.05,0-.07,0-.02,0-.04,0-.05Z"/>
          <path class="cls-2" d="M66.02,54.18s0,.03-.01.05c0,.02-.01.04-.02.06,0,.02-.02.04-.03.07-.01.02-.02.04-.04.06-.02.03-.05.07-.08.11-.04.04-.08.09-.12.14-.04.05-.09.1-.14.14-.05.05-.1.09-.15.13-.04.03-.08.07-.14.11-.05.04-.11.08-.16.11-.06.03-.12.06-.18.08-.06.02-.12.03-.17.03-.05,0-.1-.01-.15-.03-.05-.02-.09-.06-.13-.12-.04-.06-.08-.14-.11-.24-.03-.1-.06-.23-.07-.4,0-.02,0-.04,0-.08,0-.03,0-.07,0-.1,0-.03,0-.06,0-.09,0-.02,0-.04,0-.04-.01,0-.03.02-.05.05-.02.03-.05.07-.09.13-.03.05-.07.11-.11.18-.04.07-.08.14-.12.21-.05.09-.1.18-.15.25-.04.07-.09.14-.13.18-.04.05-.08.09-.12.11-.04.03-.08.04-.12.04-.06,0-.11-.01-.15-.04-.04-.02-.07-.06-.09-.11-.02-.05-.04-.11-.05-.19,0-.08-.01-.17-.02-.27,0-.17-.01-.31-.02-.41,0-.1-.02-.15-.03-.15-.02,0-.04.02-.08.06-.04.04-.08.1-.13.17-.05.07-.11.15-.17.25-.06.1-.12.2-.19.31-.01.03-.03.06-.06.1-.02.04-.05.08-.07.12-.02.04-.05.08-.07.11-.02.04-.04.07-.06.1-.02.03-.05.06-.09.08-.03.02-.07.03-.11.03-.05,0-.1-.01-.14-.04-.04-.02-.07-.05-.09-.09-.02-.04-.04-.09-.05-.14-.01-.05-.02-.11-.02-.17,0-.05,0-.11,0-.15,0-.04,0-.09.01-.13,0-.04.01-.09.02-.14,0-.05.02-.11.03-.17,0-.05.01-.11.02-.18,0-.06,0-.12.01-.18,0-.06.01-.11.01-.16,0-.05.01-.09.02-.12,0-.02.02-.05.03-.07.01-.03.03-.05.04-.07.02-.02.04-.04.08-.06.03-.01.07-.02.11-.02.04,0,.07,0,.1.02.02.02.04.04.06.06.01.03.02.06.03.09,0,.04,0,.07,0,.11,0,.03,0,.07-.01.13,0,.06-.02.11-.03.18-.01.06-.03.13-.04.2-.01.07-.03.14-.04.2-.01.07-.02.13-.04.18-.01.05-.02.09-.02.12,0,0,0-.02.02-.04.01-.02.03-.05.05-.08.02-.03.04-.06.06-.1.02-.03.04-.07.06-.1.02-.03.04-.06.05-.08.01-.02.02-.04.02-.04.02-.04.05-.09.08-.13.03-.05.07-.1.1-.15.03-.05.07-.1.1-.15.03-.05.07-.08.09-.12.06-.07.12-.12.19-.15.07-.04.14-.05.21-.05.08,0,.15.03.2.09.05.06.09.13.11.22,0,.03.01.07.02.12,0,.05,0,.1,0,.16,0,.05,0,.11,0,.17,0,.06,0,.11,0,.15,0,.04,0,.08,0,.11,0,.03,0,.04,0,.04.01,0,.03-.02.05-.05.02-.03.05-.08.08-.12.03-.05.06-.11.09-.16.03-.06.06-.11.09-.16.04-.08.1-.15.15-.22.05-.07.1-.14.16-.19.05-.06.1-.1.15-.13.05-.03.09-.05.12-.05.02,0,.05,0,.08,0,.03,0,.05.01.08.02.02,0,.05.02.07.04.02.01.03.03.05.05.02.03.04.07.05.12.01.04.02.09.02.14,0,.05,0,.11.01.17,0,.06,0,.13.01.21.01.14.04.25.06.32.03.08.07.12.12.12.02,0,.05,0,.09-.02.04-.01.08-.04.12-.06.04-.02.09-.05.13-.09.05-.03.09-.06.13-.1.04-.04.09-.07.12-.11.04-.04.08-.07.12-.11.04-.04.08-.08.12-.12.04-.04.08-.09.13-.13.03-.03.06-.04.1-.04.04,0,.06.03.06.09Z"/>
          <path class="cls-2" d="M67.78,54.91s0,.05-.01.08c0,.03-.03.06-.05.09-.02.04-.06.09-.1.13-.04.04-.09.09-.14.12-.05.04-.11.07-.17.09-.06.02-.13.03-.2.03-.07,0-.14-.02-.2-.05-.06-.03-.11-.07-.15-.13-.04-.05-.08-.12-.11-.19-.03-.07-.04-.15-.05-.23-.06.08-.12.16-.19.24-.07.08-.15.14-.23.2-.08.06-.16.1-.23.14-.08.04-.15.05-.23.05-.05,0-.1-.01-.15-.03-.04-.02-.09-.05-.12-.09-.04-.04-.06-.09-.08-.14-.02-.05-.03-.11-.03-.16,0-.05,0-.1.01-.16,0-.06.02-.12.04-.18.02-.07.05-.14.08-.21.03-.08.07-.16.12-.25.05-.1.12-.2.19-.29.07-.09.15-.17.23-.24.08-.07.15-.13.23-.17.07-.04.13-.06.18-.06.02,0,.03,0,.05,0,.02,0,.04.01.05.01.02,0,.03.01.04.02.01,0,.02,0,.02,0,0,0,0,0,.01,0,0,0,.02,0,.03-.02.01,0,.03-.01.04-.01.01,0,.03,0,.04,0,.02,0,.05,0,.07.02.02.01.05.03.07.05.02.02.05.04.07.07.02.02.03.05.04.08,0,.02,0,.03,0,.03,0,0,0,.01,0,.01.02.02.03.03.04.05.01.02.02.04.02.08,0,.02,0,.04-.01.09,0,.04-.02.09-.03.14,0,.05-.02.11-.03.16,0,.06-.01.11-.01.16,0,.12,0,.23.02.31.02.09.03.15.06.2.02.05.05.09.08.11.03.02.06.03.09.03.08,0,.15-.02.21-.05.06-.03.11-.08.15-.13.01-.02.02-.03.03-.04,0-.01.02-.02.02-.03,0,0,.02-.01.03-.02.01,0,.03,0,.04,0,.02,0,.04,0,.06.02.02.02.03.04.03.07ZM66.59,54.05c0-.08,0-.14-.02-.17-.01-.03-.03-.05-.05-.05-.02,0-.05,0-.08.02-.03.01-.05.03-.08.04-.03.02-.05.04-.07.06-.02.02-.04.04-.06.06-.03.04-.06.08-.09.13-.03.05-.07.1-.1.16-.03.06-.07.11-.1.17-.03.06-.06.12-.09.17-.02.06-.05.11-.06.17-.02.05-.02.1-.02.14,0,.05,0,.08.02.11.01.03.04.04.07.04.02,0,.05-.01.08-.04.04-.03.08-.06.12-.1.05-.04.09-.08.13-.13.04-.05.08-.09.11-.14.03-.05.06-.1.09-.15.03-.05.06-.11.09-.16.03-.06.05-.11.06-.17.02-.05.03-.11.03-.15Z"/>
          <path class="cls-2" d="M69.34,54.92c.02-.06.03-.13.05-.22.02-.09.04-.19.06-.29.02-.11.05-.22.07-.33.02-.11.04-.23.06-.34.02-.11.04-.21.05-.31.01-.09.02-.17.03-.24v-.11s0-.05.01-.09c0-.03.02-.07.04-.1.02-.03.05-.06.09-.08.04-.02.09-.03.15-.03.05,0,.09,0,.12.03.03.02.06.04.08.08.02.03.04.07.05.12.02.05.03.1.04.16.02.05.04.12.08.2.04.08.08.17.13.26.05.09.11.2.17.31s.13.22.2.33c.07.11.14.22.22.32.08.11.15.21.23.3.02-.07.03-.15.05-.23.02-.08.03-.16.05-.24.01-.08.03-.16.04-.24.01-.08.03-.15.04-.21.01-.07.02-.13.03-.18,0-.05.02-.09.02-.12.02-.11.03-.2.05-.29.02-.08.03-.16.04-.23,0-.07.02-.14.02-.21,0-.07,0-.15,0-.23,0-.02,0-.04,0-.07,0-.03.01-.05.02-.07,0-.02.02-.05.03-.07.01-.02.02-.04.04-.05.02-.02.04-.04.07-.05.02-.01.04-.02.05-.02.02,0,.04,0,.06-.01.02,0,.04,0,.06,0,.05,0,.09.01.11.03.03.02.05.05.06.08.01.04.02.07.02.11,0,.04,0,.08,0,.12,0,.01,0,.03,0,.07,0,.03-.01.07-.02.11,0,.04-.02.08-.03.12,0,.04-.02.08-.03.11-.05.21-.1.41-.14.6-.04.19-.08.36-.11.53-.03.16-.06.32-.08.46-.02.14-.04.27-.05.38,0,.02,0,.03,0,.05,0,.02,0,.03,0,.05,0,.02,0,.04,0,.06,0,.02,0,.05,0,.09,0,.07-.01.12-.03.16-.02.04-.05.07-.08.08-.03.02-.07.03-.1.03-.04,0-.07,0-.1,0-.05,0-.1-.01-.14-.04-.03-.02-.07-.06-.1-.1-.03-.04-.06-.1-.09-.16-.03-.06-.08-.13-.13-.2-.15-.2-.3-.42-.45-.65-.15-.23-.31-.48-.47-.77-.02.12-.05.24-.07.37-.02.13-.04.26-.06.38-.02.13-.03.25-.05.36-.01.11-.03.22-.04.31,0,.03,0,.07,0,.11,0,.04-.01.08-.02.12,0,.04-.01.07-.02.09,0,.03-.01.04-.01.05,0,.01-.02.03-.03.06-.02.02-.03.05-.05.07-.02.02-.04.04-.07.06-.03.01-.05.02-.08.02-.05,0-.09,0-.13-.02-.03-.01-.06-.04-.08-.07-.02-.03-.03-.06-.04-.1,0-.04-.01-.09-.01-.14,0-.02,0-.05,0-.09,0-.04.01-.08.02-.12,0-.04.02-.09.03-.13.01-.05.02-.09.03-.13Z"/>
          <path class="cls-2" d="M75.44,54.22s0,.03,0,.05c0,.02-.01.04-.02.07,0,.02-.02.04-.03.06-.01.02-.02.04-.03.05,0,.01-.02.02-.03.04-.01.02-.03.03-.05.05-.02.02-.04.04-.06.07-.02.02-.05.05-.07.07-.08.07-.16.14-.23.21-.08.07-.16.13-.25.19-.09.05-.18.09-.27.13-.09.03-.19.05-.3.05-.04,0-.09,0-.14-.03-.05-.02-.09-.05-.13-.08-.04-.03-.07-.07-.11-.12-.03-.05-.05-.1-.06-.15-.02.04-.05.08-.09.13-.04.05-.08.09-.13.14-.05.04-.09.09-.14.13-.05.04-.1.08-.14.11-.03.02-.07.04-.11.06-.04.02-.09.04-.13.06-.05.02-.09.03-.14.04-.05.01-.09.02-.13.02-.06,0-.12-.02-.17-.06-.05-.04-.09-.08-.12-.13-.03-.05-.06-.11-.07-.17-.01-.06-.02-.11-.02-.16,0-.09.01-.18.04-.27.03-.09.06-.18.1-.27.04-.09.08-.17.13-.25.05-.08.1-.15.15-.21.05-.06.11-.13.18-.19.07-.06.15-.12.22-.17.08-.05.15-.09.23-.12.08-.03.14-.05.2-.05.03,0,.07,0,.1,0,.03,0,.07,0,.1,0,.03,0,.07,0,.1.02.03,0,.06.02.08.03.02.01.03.03.05.05.02.03.04.06.05.09.02.03.03.06.04.09.01.03.02.05.02.07,0,.04,0,.08-.02.13-.01.05-.02.11-.04.16-.01.06-.03.11-.04.17-.01.06-.02.11-.02.17,0,.04,0,.07.01.11,0,.04.02.07.05.1.02.03.04.06.07.08.03.02.06.03.09.03.08,0,.16-.01.23-.04.08-.03.15-.07.23-.12.08-.05.15-.11.23-.18.08-.07.15-.15.23-.23,0,0,.01,0,.03-.03.02-.02.04-.04.06-.07.03-.02.05-.05.08-.07.03-.02.05-.03.07-.03.04,0,.06.01.07.03.01.02.02.06.02.1ZM73.63,54.02s0-.03,0-.04c0-.02-.01-.03-.02-.05,0-.01-.02-.03-.02-.04,0,0-.02-.01-.03-.01-.09,0-.17.02-.24.07-.07.05-.15.11-.23.19-.04.04-.09.1-.14.18-.05.08-.09.15-.14.24-.04.08-.08.17-.11.25-.03.08-.04.16-.04.22,0,.01,0,.03,0,.05,0,.01,0,.03.01.04,0,.01.01.02.02.03,0,0,.02.01.04.01.05,0,.11-.02.17-.05.06-.03.13-.08.19-.13.07-.05.13-.11.19-.18.06-.07.11-.14.15-.21.05-.09.09-.18.13-.27.03-.1.05-.19.05-.3Z"/>
          <path class="cls-2" d="M77.58,53.93s0,.03,0,.05c0,.02-.01.04-.02.06,0,.02-.02.04-.03.06,0,.02-.02.04-.03.05-.07.09-.14.18-.22.27-.08.09-.17.18-.26.27-.09.09-.19.17-.29.26-.1.08-.21.16-.32.22-.06.04-.12.07-.19.1-.07.03-.14.06-.22.09-.07.03-.15.04-.23.06-.08.01-.16.02-.23.02-.1,0-.19-.02-.27-.05-.08-.04-.14-.09-.2-.15-.05-.06-.09-.13-.12-.21-.03-.08-.04-.17-.04-.26,0-.18.04-.35.11-.52.08-.17.18-.34.3-.51.03-.03.06-.07.1-.12.04-.04.08-.08.13-.12.05-.04.1-.07.15-.1.05-.03.11-.04.16-.04s.1.02.15.05c.04.03.08.07.11.12.03.05.06.1.07.16.02.06.03.11.03.15,0,.02,0,.05,0,.09,0,.03-.01.06-.02.09-.01.03-.03.05-.05.07-.02.02-.05.03-.08.03-.06,0-.11-.02-.14-.06-.03-.04-.05-.09-.06-.15,0-.03,0-.05-.01-.07,0-.02,0-.03-.01-.04,0,0,0-.01-.01-.02,0,0,0,0-.01,0-.02,0-.04,0-.06.03-.02.02-.05.05-.07.08-.03.03-.05.07-.08.12-.03.04-.05.09-.08.13-.02.04-.05.09-.07.14-.02.05-.04.1-.05.16-.01.06-.02.11-.03.17,0,.06-.01.11-.01.16,0,.04,0,.07.02.1.01.04.03.06.05.08.02.02.04.04.07.06.03.01.06.02.09.02.07,0,.15,0,.22-.02.07-.02.14-.04.21-.07.07-.03.14-.06.21-.1.07-.04.14-.08.2-.12.09-.06.18-.12.26-.19.09-.07.17-.15.24-.22.08-.07.14-.14.21-.21.06-.07.11-.12.15-.17.03-.03.05-.05.06-.07.02-.02.03-.03.05-.04.02-.01.03-.02.05-.02.02,0,.04,0,.06,0,0,0,.02,0,.04.03.02.02.03.05.03.09Z"/>
          <path class="cls-2" d="M79.15,54.28s-.01.07-.03.12c-.02.05-.06.1-.1.16-.04.06-.09.12-.14.18-.05.07-.12.13-.18.2-.07.07-.14.15-.23.22-.08.07-.17.14-.26.21-.09.07-.18.12-.27.15-.09.04-.17.05-.25.05-.09,0-.17-.01-.24-.05-.07-.03-.13-.07-.17-.13-.05-.05-.09-.12-.12-.18-.03-.07-.06-.14-.07-.22-.02-.08-.03-.16-.04-.24,0-.08-.01-.16-.01-.23,0-.03,0-.07,0-.12,0-.06,0-.11.02-.18,0-.06.02-.12.02-.18,0-.05.02-.1.03-.14.02-.06.07-.13.14-.19.07-.05.14-.08.23-.08s.13.05.13.16c0,.05,0,.1-.01.16,0,.05-.02.11-.03.16-.02.1-.03.18-.04.26,0,.08,0,.15,0,.21,0,.07,0,.13.01.2,0,.06.02.12.03.17.01.05.03.09.06.12.02.03.05.04.08.04.04,0,.08,0,.12-.01.04,0,.09-.03.15-.06.11-.06.24-.15.36-.25.05-.04.1-.08.15-.13.06-.05.12-.1.17-.16.06-.05.11-.11.16-.16.05-.05.09-.1.12-.13,0,0,0-.01.02-.02,0-.01.02-.02.02-.03,0-.01.02-.02.03-.03.01,0,.02-.01.03-.01.02,0,.04,0,.05,0,0,0,.02.02.03.05.01.03.02.06.02.08ZM77.91,52.65s0,.09-.02.13c-.01.04-.03.08-.06.11-.05.07-.13.11-.23.11-.04,0-.07,0-.11,0-.04,0-.07-.02-.1-.03-.03-.01-.06-.03-.08-.05-.02-.02-.03-.04-.03-.06,0-.04.01-.08.03-.13.02-.04.05-.09.08-.13.03-.04.07-.07.11-.1.04-.03.08-.04.11-.04.05,0,.09,0,.12,0,.04,0,.07.02.09.03.03.01.04.03.06.06.01.03.02.06.02.1Z"/>
          <path class="cls-2" d="M81.41,53.82s0,.05-.03.08c-.02.03-.04.06-.06.08-.03.03-.06.06-.09.09-.03.03-.07.05-.1.07-.03.02-.06.04-.1.06-.03.02-.05.03-.08.04-.03.02-.08.03-.14.04-.05.01-.11.02-.18.03-.06,0-.12.01-.18.02-.06,0-.11,0-.14,0,0,0-.02,0-.04,0-.02,0-.03,0-.05,0-.02,0-.04,0-.06-.02-.02,0-.04-.01-.05-.02.01.03.02.06.02.1,0,.04,0,.07,0,.11,0,.02,0,.05,0,.09,0,.03-.01.07-.02.11,0,.04-.02.07-.03.1,0,.03-.02.06-.04.08-.03.06-.07.11-.11.16-.04.05-.08.09-.13.13-.05.04-.1.08-.16.11-.06.03-.13.07-.2.11-.08.03-.17.06-.25.07-.08.01-.17.02-.25.02-.06,0-.12-.02-.17-.05-.05-.03-.09-.08-.13-.14-.03-.06-.06-.12-.08-.2-.02-.08-.03-.15-.03-.23,0-.02,0-.04,0-.07,0-.03,0-.06.01-.09,0-.03.01-.06.02-.09,0-.03.01-.05.02-.07.02-.05.05-.12.08-.19.04-.07.08-.15.12-.22.05-.07.1-.15.16-.22.06-.07.12-.14.19-.19.07-.06.13-.1.21-.13.07-.04.14-.05.21-.05.03,0,.06,0,.07,0,.02,0,.03.01.05.02.01.01.02.02.03.03.01.01.02.03.03.04.01,0,.02,0,.03,0,.01,0,.02,0,.03,0,.04,0,.08.01.12.05.04.03.08.07.12.1.02.02.04.04.06.05.02.02.04.03.05.05.02.01.03.02.04.03.01,0,.02.01.03.01h.11s.08,0,.12,0c.04,0,.08,0,.12,0,.04,0,.07,0,.11-.01,0,0,.02,0,.05-.01.03,0,.07-.02.11-.03.04,0,.09-.02.14-.04.05-.01.1-.02.14-.04.04-.01.08-.02.11-.03.03,0,.05-.01.05-.01.03,0,.05,0,.06,0,.02,0,.03.02.03.06ZM79.12,55.15c.11,0,.2-.03.29-.09.08-.06.15-.13.21-.23.06-.1.1-.2.13-.32.03-.12.05-.25.05-.37,0-.02-.02-.04-.04-.06-.02-.02-.04-.04-.06-.06-.02-.02-.05-.03-.07-.04-.02-.01-.04-.02-.07-.02-.03,0-.07.01-.1.04-.04.03-.07.05-.1.08-.03.03-.07.06-.1.1-.03.04-.06.09-.09.14-.03.05-.05.11-.07.17-.02.06-.04.12-.06.18-.01.06-.03.11-.04.17-.01.05-.01.1-.01.14,0,.02,0,.04.01.06,0,.02.01.04.02.05.01.02.03.03.04.04.02,0,.03.01.05.01Z"/>
          <path class="cls-2" d="M84.29,54.13s0,.05-.01.08c0,.03-.02.06-.04.09-.01.03-.03.06-.05.08-.02.03-.03.05-.05.07-.04.05-.09.11-.14.17-.05.06-.11.12-.16.18-.06.06-.11.11-.17.17-.06.05-.12.1-.18.14-.05.03-.09.06-.13.09-.04.03-.09.05-.13.07-.05.02-.09.04-.14.05-.05.01-.11.02-.17.02-.1,0-.18-.02-.25-.06-.07-.04-.12-.09-.16-.16-.04-.07-.07-.14-.09-.23-.02-.08-.04-.17-.05-.27-.02-.13-.04-.23-.06-.3-.02-.07-.05-.11-.08-.11s-.05,0-.08.02c-.02.01-.06.04-.09.08-.04.04-.09.1-.14.18-.06.08-.13.18-.22.32-.03.04-.07.1-.12.15-.04.06-.09.11-.14.16-.05.05-.1.1-.15.13-.05.04-.1.07-.14.08-.17-.04-.25-.19-.25-.48,0-.07,0-.18.02-.32,0-.06.02-.13.03-.2,0-.07.02-.14.04-.21.01-.07.03-.14.05-.21.02-.07.04-.13.07-.19.02-.03.03-.05.05-.07.02-.02.04-.03.06-.04.02,0,.04-.01.06-.02.02,0,.05,0,.07,0s.04,0,.06.02c.02,0,.04.02.05.04.02.02.03.04.04.07,0,.03.01.06.01.09,0,.03,0,.06,0,.09,0,.03-.01.06-.02.09,0,.03-.02.06-.03.09-.01.03-.02.07-.03.11,0,.03-.02.07-.03.11-.01.04-.02.09-.04.14-.01.05-.02.09-.04.14-.01.04-.02.08-.02.11.02-.03.05-.06.08-.11.03-.04.06-.09.1-.14.04-.05.07-.1.1-.15.04-.05.07-.1.11-.14.05-.06.09-.11.13-.16.05-.05.09-.1.14-.13.05-.04.1-.07.16-.09.06-.02.12-.03.2-.03.09,0,.16.02.21.05.06.03.1.08.13.15.03.06.06.14.07.22.02.09.03.18.04.28,0,.05.01.1.02.16,0,.05.02.1.04.15.02.04.04.08.07.11.03.03.06.04.1.04.06,0,.13-.02.2-.05.07-.03.15-.08.23-.13.08-.06.16-.12.24-.2.09-.08.17-.16.25-.24.03-.03.05-.05.08-.08.02-.03.05-.05.07-.07.02-.02.04-.04.07-.05.02-.01.04-.02.07-.02,0,0,.02,0,.03,0,.01,0,.02,0,.03.01.01,0,.02.01.02.03,0,.01,0,.02,0,.04Z"/>
          <path class="cls-2" d="M86.44,53.93s-.01.05-.03.1c-.02.05-.05.12-.08.19-.04.08-.08.16-.13.25-.05.09-.1.17-.16.26-.08.1-.16.2-.23.28-.08.08-.16.15-.23.2-.08.05-.14.1-.21.13-.07.03-.12.04-.16.04-.07,0-.14,0-.19-.03-.05-.02-.09-.05-.12-.09-.03-.04-.06-.09-.08-.14-.02-.06-.03-.12-.04-.2-.05.08-.11.16-.17.24-.06.07-.13.14-.19.2-.07.06-.14.11-.21.14-.07.04-.14.06-.21.06-.04,0-.09,0-.14-.02-.05-.01-.1-.04-.14-.07-.04-.03-.08-.08-.1-.13-.03-.05-.04-.11-.04-.19,0-.06,0-.12.02-.2.01-.07.04-.15.06-.23.02-.08.05-.16.08-.24.03-.08.07-.16.1-.23.04-.07.07-.14.11-.2.04-.06.07-.11.11-.15.04-.04.09-.08.14-.13.06-.05.12-.08.18-.12.07-.04.14-.07.22-.09.08-.02.16-.04.25-.04s.15.02.2.07c.04.05.07.12.09.22,0,0,0,.02.01.03.01.01.02.02.03.04.01.01.02.03.03.04,0,.02.01.03.01.05,0,.02,0,.04-.01.07,0,.03-.02.06-.03.1,0,.04-.02.08-.03.12,0,.04-.01.09-.01.14,0,.07,0,.15,0,.22,0,.07,0,.13.02.19,0,.05.02.1.05.13.02.03.05.05.09.05.03,0,.07-.01.11-.04.04-.02.09-.06.14-.1.05-.04.1-.1.16-.16.05-.06.11-.12.16-.19.04-.06.08-.12.12-.17.04-.06.07-.11.1-.16.03-.05.06-.1.08-.15.03-.05.05-.09.08-.12.03-.04.05-.06.08-.08.02-.02.05-.03.07-.03.02,0,.03,0,.05.02.01.02.02.04.02.09v.02s0,.02,0,.02h0ZM84.77,53.98s0-.02,0-.03c0-.01-.01-.02-.02-.03,0,0-.01-.02-.02-.02,0,0-.02,0-.03,0-.03,0-.06,0-.09.02-.03.01-.06.03-.08.05-.03.02-.05.04-.07.06-.02.02-.04.05-.06.07-.04.06-.09.13-.14.22-.05.08-.09.17-.13.27-.04.09-.07.18-.1.28-.03.09-.04.17-.04.25,0,.02,0,.04.03.06.02.01.04.02.08.02.02,0,.06-.01.09-.04.04-.03.08-.06.12-.11.04-.05.08-.1.13-.15.04-.06.08-.11.11-.17.06-.11.12-.23.16-.35.04-.12.07-.25.07-.37Z"/>
          <path class="cls-2" d="M87.64,54.78s0,.04-.02.07c-.01.03-.03.06-.05.1-.02.04-.04.07-.06.1-.02.03-.04.06-.06.08-.05.07-.11.13-.18.19-.07.06-.13.11-.21.16-.07.05-.15.08-.22.11-.08.03-.15.04-.22.04-.12,0-.22-.02-.3-.07-.08-.04-.15-.1-.21-.19-.05-.08-.09-.19-.12-.31-.02-.12-.04-.26-.04-.42,0-.1,0-.2.01-.31,0-.11.02-.23.04-.35.02-.12.04-.24.06-.36.02-.12.05-.24.07-.35.03-.11.06-.22.09-.32.03-.1.06-.18.09-.25.03-.07.06-.13.09-.17.03-.04.06-.06.09-.06.03,0,.05,0,.07.02.02.01.04.02.06.04.02.02.03.03.05.05.01.02.02.04.04.06,0,.06-.01.13-.03.22-.02.09-.04.18-.06.28-.02.1-.04.2-.07.31-.02.1-.05.2-.07.28-.02.06-.03.13-.04.2-.01.07-.02.14-.03.22,0,.07-.01.14-.02.21,0,.07,0,.14,0,.2,0,.2.02.36.07.47.05.11.12.16.23.16.07,0,.13-.01.2-.03.06-.02.12-.05.18-.09.06-.04.11-.08.16-.12.05-.05.1-.09.14-.14.03-.03.06-.07.09-.09.03-.03.06-.04.08-.04.04,0,.06,0,.07.02,0,.02.01.04.01.08Z"/>
          <path class="cls-2" d="M91.81,54.81c-.06.06-.13.12-.21.18-.08.06-.16.12-.25.17-.09.05-.18.09-.28.13-.1.03-.2.05-.31.05-.09,0-.17-.02-.25-.06-.07-.04-.13-.09-.18-.17-.05-.07-.09-.16-.11-.27-.03-.11-.04-.23-.04-.36-.02.04-.04.07-.07.11-.03.04-.05.08-.09.11-.03.04-.05.07-.08.1-.03.03-.05.05-.07.07-.18.18-.36.32-.52.42-.16.1-.32.15-.47.15-.06,0-.11,0-.15-.03-.04-.02-.08-.04-.11-.07-.03-.03-.05-.06-.07-.1-.02-.04-.02-.07-.02-.11,0-.1.02-.21.05-.32.03-.11.07-.22.12-.33.05-.11.11-.21.17-.3.06-.1.12-.19.19-.26.06-.08.12-.15.19-.22.06-.07.13-.12.19-.17.06-.05.12-.08.18-.11.06-.03.11-.04.16-.04.03,0,.06,0,.09.02.04.01.07.03.1.04.03.02.06.04.09.05.03.02.04.03.05.04.01.01.02.03.04.05.01.02.03.04.03.06.01-.08.03-.16.04-.26.01-.09.03-.18.04-.28.01-.09.02-.18.03-.26.01-.08.02-.16.02-.22,0-.1.03-.18.08-.22.04-.05.11-.07.21-.07.05,0,.1.02.13.07.03.05.05.11.05.2,0,.01,0,.04,0,.09,0,.05-.02.11-.03.18-.01.07-.02.15-.04.24-.01.09-.03.18-.04.27-.01.09-.03.19-.04.28-.01.09-.03.18-.04.26-.01.08-.02.15-.03.21,0,.06-.01.1-.01.13,0,.03,0,.07,0,.12,0,.05,0,.09.01.15,0,.05.01.1.03.15.01.05.03.09.05.14.02.04.05.07.08.1.03.02.07.04.12.04.07,0,.13,0,.2-.02.07-.02.13-.04.21-.07.07-.03.14-.07.22-.11.08-.04.16-.09.24-.15,0,0,0,0,.02-.02.01,0,.02-.02.03-.02.01,0,.02-.02.04-.02.01,0,.03-.01.04-.01.01,0,.02.01.04.03.02.02.02.05.02.08,0,.03,0,.06-.01.09-.01.03-.03.06-.06.09ZM90.13,53.93s.01-.03.02-.06c0-.02.01-.05.02-.07-.03.03-.06.06-.09.07-.03.01-.07.02-.12.02-.03,0-.05,0-.07,0-.02,0-.04-.02-.05-.03-.01-.01-.03-.03-.04-.04-.01-.02-.02-.04-.04-.06-.06.01-.12.05-.18.11-.06.06-.12.13-.18.22-.06.08-.12.18-.17.27-.05.1-.1.19-.14.27-.04.09-.07.16-.1.23-.02.07-.04.11-.04.13,0,.02,0,.03.01.05.01.01.02.02.04.02.03,0,.07,0,.11-.03.04-.02.08-.04.12-.06.04-.03.08-.05.12-.08.04-.03.07-.05.09-.07.06-.05.13-.11.2-.18.07-.07.14-.14.2-.22.07-.08.13-.16.18-.24.05-.08.09-.16.12-.24Z"/>
          <path class="cls-2" d="M93.44,54.57s-.02.1-.06.17c-.04.06-.09.13-.15.19-.07.07-.15.14-.24.2-.08.06-.17.12-.27.16-.09.05-.19.08-.28.11-.1.03-.19.04-.28.04-.11,0-.21-.02-.3-.05-.09-.03-.16-.09-.22-.15-.06-.07-.11-.16-.14-.25-.03-.1-.05-.22-.05-.35,0-.08,0-.16.02-.24.01-.08.04-.16.07-.25.03-.08.07-.16.11-.23.04-.08.09-.15.15-.22.04-.04.08-.09.12-.13.05-.04.09-.08.15-.12.06-.03.12-.06.18-.09.07-.02.14-.03.22-.03.07,0,.12.01.17.03.05.02.09.05.13.09.03.04.06.08.08.12.02.05.03.09.03.13,0,.1-.02.2-.07.29-.04.09-.11.17-.18.26-.08.08-.17.16-.29.24-.11.08-.24.16-.37.24,0,0-.02,0-.03.02-.01,0-.02.01-.02.02,0,.03,0,.06.02.09.01.03.03.06.06.09.02.03.06.05.1.07.04.02.09.03.14.03.09,0,.17-.01.25-.03.08-.02.17-.06.25-.1.08-.04.16-.1.24-.16.08-.06.15-.13.22-.21.03-.03.05-.05.08-.07.03-.01.05-.02.07-.02s.04,0,.06.03c.02.02.03.05.03.1ZM92.48,53.81s0-.04-.01-.05c-.01-.02-.02-.02-.03-.03,0,0-.02-.01-.03-.02,0,0-.02,0-.02,0-.06,0-.12.02-.16.07-.05.05-.1.1-.14.18-.04.07-.07.15-.1.24-.03.09-.05.17-.07.25.08-.06.15-.12.22-.17.07-.05.13-.1.18-.15.05-.05.09-.1.12-.15.03-.05.04-.1.04-.16Z"/>
          <path class="cls-2" d="M96.88,53.08s0,.04,0,.07c0,.03-.01.05-.02.08,0,.03-.02.06-.03.08-.01.02-.02.05-.04.06h0c-.04.05-.14.08-.3.08,0-.06,0-.11,0-.15,0-.04-.01-.07-.02-.1-.01-.02-.03-.04-.05-.05-.02-.01-.05-.03-.08-.04-.03,0-.06-.02-.09-.02-.03,0-.06,0-.08,0-.06,0-.11,0-.17,0-.05,0-.11,0-.16.01-.05,0-.11.02-.16.03-.05.01-.11.03-.16.06-.04.02-.08.03-.13.06-.04.02-.09.05-.12.08-.04.03-.07.06-.1.1-.02.04-.04.07-.05.11h0s.01.06.03.1c.02.04.05.08.09.12.04.04.08.07.13.1.05.03.1.05.15.07,0,0,.01,0,.04.01.02,0,.04.01.07.02.03,0,.06.02.08.03.03.01.06.02.09.03.03,0,.05.01.07.02.02,0,.03.01.03.01.31.08.53.17.68.28.15.11.22.25.22.41,0,.05-.01.1-.04.16-.02.05-.05.1-.09.15-.03.05-.07.09-.11.13-.04.04-.08.07-.11.1h0s-.08.06-.13.09c-.05.03-.1.06-.16.09-.06.03-.11.06-.17.08-.06.03-.12.05-.18.07-.06.02-.12.04-.18.05-.06.02-.13.03-.19.04-.06.01-.12.02-.18.03-.06,0-.11,0-.16,0-.02,0-.06,0-.09,0-.04,0-.07-.01-.11-.03-.04-.01-.08-.02-.12-.04-.04-.01-.08-.03-.11-.05-.03-.02-.06-.04-.08-.06-.02-.02-.03-.04-.03-.07,0-.02,0-.05.01-.08,0-.03.02-.06.03-.09.02-.03.03-.05.05-.07.02-.02.04-.03.07-.03.03,0,.06,0,.09.01.03,0,.06.02.1.03.04,0,.08.02.13.03.05.01.11.01.18.01s.15,0,.22-.02c.08-.02.15-.04.23-.06.07-.03.15-.06.21-.09.07-.03.13-.07.19-.1.02-.02.05-.03.08-.05.03-.02.06-.04.08-.07.03-.02.04-.05.06-.08.02-.03.03-.05.03-.08s-.02-.06-.07-.09h0c-.07-.04-.14-.07-.21-.1-.07-.02-.13-.04-.18-.06-.15-.04-.32-.1-.53-.18h0c-.09-.03-.17-.08-.26-.13-.08-.06-.15-.11-.21-.17-.13-.15-.2-.32-.2-.51,0-.07.02-.15.07-.22.04-.07.1-.14.17-.2.07-.06.16-.12.25-.17.1-.05.2-.1.31-.14.11-.04.22-.07.33-.09.11-.02.22-.03.33-.03.03,0,.07,0,.12,0,.05,0,.1.01.15.02.05,0,.1.02.15.03.05.01.09.03.11.04h0c.08.04.14.09.18.14.04.06.07.11.07.17Z"/>
          <path class="cls-2" d="M99.88,53.99s0,.05-.01.07c0,.03-.02.05-.03.08-.01.03-.03.05-.04.08-.02.02-.03.05-.05.07-.08.1-.16.2-.25.29-.09.09-.18.18-.26.26-.05.04-.1.08-.15.11-.05.03-.1.07-.15.09-.05.03-.1.04-.15.06-.05.01-.09.02-.13.02-.05,0-.1-.02-.15-.05-.05-.03-.09-.07-.12-.12-.04-.05-.06-.1-.08-.16-.02-.05-.03-.11-.03-.15-.02.02-.04.05-.07.09-.03.04-.06.08-.09.12-.04.04-.07.08-.09.11-.03.03-.05.06-.06.07-.04.05-.09.09-.15.14-.06.05-.11.09-.17.13-.05.04-.11.07-.15.09-.05.02-.08.04-.11.04-.06,0-.12,0-.17-.03-.06-.02-.1-.04-.14-.08-.04-.04-.08-.08-.1-.13-.03-.05-.04-.11-.04-.18s0-.14.03-.21c.02-.08.04-.16.07-.24.03-.09.07-.17.11-.26.04-.09.09-.17.14-.25.05-.08.11-.16.16-.23.06-.07.12-.14.18-.19.11-.1.22-.18.34-.22.12-.05.24-.07.37-.07.03,0,.06,0,.08.01.02.01.04.02.06.04.02.02.03.03.04.05.01.02.02.04.03.06,0,0,.02.02.03.04.01.02.03.03.05.05.02.02.03.04.04.06.01.02.02.04.02.06,0,.03,0,.06-.01.09,0,.03-.02.07-.02.11-.01.04-.02.09-.03.14,0,.06-.01.12-.01.18,0,.04,0,.09,0,.14,0,.05.01.1.03.15.01.05.03.09.05.12.02.03.04.05.06.05.03,0,.05,0,.07,0,.02,0,.04-.01.06-.03.02-.01.04-.02.06-.04.02-.02.04-.03.07-.05.08-.06.17-.13.25-.21.08-.08.17-.16.25-.24.02-.02.05-.05.08-.08.02-.03.05-.05.08-.08.03-.03.05-.04.08-.06.03-.02.05-.02.08-.02.04,0,.06.03.06.09ZM98.28,53.74s0-.01,0-.02c0-.01,0-.02,0-.02-.04,0-.09.02-.14.05-.05.03-.11.07-.17.13-.06.06-.13.14-.2.23-.07.09-.14.21-.22.34-.02.04-.04.07-.06.12-.02.04-.04.09-.06.13-.02.05-.04.1-.05.15-.01.05-.02.11-.02.17,0,.02,0,.04.02.05.01.01.02.02.04.02.03,0,.07-.02.12-.05.05-.03.1-.08.16-.14.06-.06.12-.13.18-.2.06-.07.11-.15.16-.23.05-.08.09-.16.13-.23.04-.08.06-.15.08-.21,0-.02,0-.04.01-.07,0-.03.01-.05.02-.08,0-.03,0-.05.01-.07,0-.02,0-.04,0-.05Z"/>
          <path class="cls-2" d="M102.72,54.41s.04,0,.04,0c0,0,.01.02.01.04,0,.05-.02.1-.05.16-.03.06-.08.11-.14.16-.06.05-.13.1-.2.15-.08.05-.16.09-.24.12-.09.04-.18.06-.27.08-.09.02-.18.03-.27.03-.1,0-.19-.01-.26-.04-.08-.03-.14-.07-.2-.12-.05-.05-.1-.1-.14-.17-.04-.06-.07-.13-.09-.19-.02-.07-.04-.13-.06-.19-.01-.06-.03-.12-.04-.17,0-.01,0-.03,0-.04,0-.01-.01-.02-.03-.02,0,0-.02.01-.04.04-.02.03-.04.06-.07.1-.03.04-.05.09-.08.14-.03.05-.05.1-.08.15-.04.09-.09.18-.14.28-.05.09-.1.18-.15.25-.06.08-.11.14-.18.18-.06.05-.13.07-.21.07-.07,0-.12-.02-.17-.07-.04-.04-.07-.1-.09-.17-.02-.07-.03-.15-.04-.24,0-.09,0-.17,0-.26,0-.1,0-.19,0-.27,0-.08,0-.16,0-.24,0-.05,0-.1.02-.14.02-.04.03-.09.06-.12.02-.04.05-.06.08-.08.03-.02.06-.03.09-.03s.06,0,.09,0c.03,0,.06.02.08.03.02.02.04.04.05.08.01.03.02.08.02.14s0,.12-.01.18c-.01.06-.02.13-.03.2-.01.07-.02.15-.04.23,0,.08-.02.18-.02.28.02-.02.04-.04.06-.08.02-.04.05-.08.08-.13.03-.05.05-.1.08-.16.03-.05.05-.11.07-.16.06-.14.12-.25.18-.35.05-.1.11-.18.17-.24.06-.06.13-.11.2-.14.07-.03.16-.04.25-.04.03,0,.05,0,.07.02.02.01.04.03.05.05.02.02.03.04.03.07,0,.03.01.05.01.08,0,.15.01.28.03.39.02.11.05.2.1.27.04.07.1.12.17.15.07.03.16.05.26.05.03,0,.07,0,.12-.01.05,0,.1-.02.16-.03.06-.01.12-.03.18-.05.06-.02.12-.05.17-.08,0,0,.03-.01.05-.03.03-.02.06-.03.1-.06.04-.02.07-.04.1-.05.03-.02.05-.02.07-.02Z"/>
          <path class="cls-2" d="M104.75,54.18s-.02.07-.05.13c-.07.1-.14.2-.23.29-.09.1-.18.19-.27.28-.1.09-.2.17-.3.24-.1.08-.21.14-.31.19-.11.05-.21.1-.32.13-.11.03-.21.05-.31.05-.23,0-.4-.06-.53-.19-.13-.13-.19-.32-.19-.58,0-.1,0-.21.02-.31.01-.1.04-.2.07-.3.03-.1.08-.19.13-.29.05-.09.12-.19.2-.27.03-.04.06-.07.1-.1.04-.03.08-.05.13-.08.04-.02.09-.04.14-.06.05-.01.1-.02.15-.02.07,0,.13.01.18.04.05.03.09.06.13.11.04.04.06.1.07.15.02.06.03.12.03.18,0,.12-.04.24-.13.37-.09.13-.21.26-.36.39-.05.04-.11.09-.17.14-.07.05-.14.11-.22.17,0,.03.01.06.03.09.02.03.04.06.07.08.03.02.06.04.1.05.04.01.09.02.13.02.07,0,.13,0,.21-.03.07-.02.15-.04.22-.07.07-.03.14-.06.21-.1.07-.04.13-.08.19-.11.1-.07.19-.15.28-.23.09-.08.18-.17.26-.25l.1-.11c.07-.07.14-.1.19-.1.03,0,.05,0,.05.03.01.02.01.03.01.05ZM103.2,53.82s0-.06-.01-.08c0-.03-.01-.04-.03-.05-.04,0-.09.02-.14.06-.05.04-.1.09-.15.16-.04.07-.09.16-.12.26-.04.1-.06.21-.08.33.06-.05.12-.09.19-.14.06-.05.12-.11.17-.16.05-.06.09-.12.13-.18.03-.06.05-.13.05-.2Z"/>
          <path class="cls-2" d="M107,53.99s0,.05-.01.07c0,.03-.02.05-.03.08-.01.03-.03.05-.04.08-.02.02-.03.05-.05.07-.08.1-.16.2-.25.29-.09.09-.18.18-.26.26-.05.04-.1.08-.15.11-.05.03-.1.07-.15.09-.05.03-.1.04-.14.06-.05.01-.09.02-.13.02-.05,0-.1-.02-.15-.05-.05-.03-.09-.07-.12-.12-.04-.05-.06-.1-.08-.16-.02-.05-.03-.11-.03-.15-.02.02-.04.05-.07.09-.03.04-.06.08-.1.12-.03.04-.06.08-.09.11-.03.03-.05.06-.06.07-.04.05-.09.09-.15.14-.06.05-.11.09-.17.13-.06.04-.11.07-.15.09-.05.02-.08.04-.11.04-.06,0-.11,0-.17-.03-.05-.02-.1-.04-.14-.08-.04-.04-.08-.08-.1-.13-.02-.05-.04-.11-.04-.18s0-.14.03-.21c.02-.08.04-.16.07-.24.03-.09.07-.17.11-.26.04-.09.09-.17.14-.25.05-.08.1-.16.16-.23.06-.07.11-.14.18-.19.11-.1.22-.18.34-.22.12-.05.24-.07.37-.07.03,0,.06,0,.08.01.02.01.04.02.06.04.02.02.03.03.04.05,0,.02.02.04.03.06,0,0,.02.02.03.04.02.02.03.03.05.05.02.02.03.04.04.06.01.02.02.04.02.06,0,.03,0,.06-.01.09,0,.03-.02.07-.02.11,0,.04-.02.09-.02.14,0,.06-.01.12-.01.18,0,.04,0,.09,0,.14,0,.05.02.1.03.15.01.05.03.09.04.12.02.03.04.05.06.05.03,0,.05,0,.08,0,.02,0,.04-.01.06-.03.02-.01.04-.02.06-.04.02-.02.04-.03.07-.05.08-.06.16-.13.25-.21.08-.08.17-.16.25-.24.02-.02.05-.05.07-.08.03-.03.05-.05.08-.08.03-.03.05-.04.08-.06.03-.02.05-.02.07-.02.04,0,.06.03.06.09ZM105.39,53.74s0-.01,0-.02c0-.01,0-.02,0-.02-.04,0-.09.02-.14.05-.05.03-.11.07-.17.13-.06.06-.12.14-.19.23-.07.09-.14.21-.22.34-.02.04-.04.07-.06.12-.02.04-.04.09-.06.13-.02.05-.03.1-.05.15,0,.05-.02.11-.02.17,0,.02,0,.04.02.05.01.01.03.02.04.02.03,0,.07-.02.12-.05.05-.03.1-.08.16-.14.06-.06.11-.13.17-.2.06-.07.11-.15.16-.23.05-.08.09-.16.13-.23.04-.08.07-.15.08-.21,0-.02,0-.04.01-.07,0-.03.01-.05.01-.08,0-.03,0-.05.01-.07,0-.02,0-.04,0-.05Z"/>
          <path class="cls-2" d="M110.78,54.71s0,.04-.02.06c-.01.02-.03.05-.05.07-.02.02-.04.05-.07.07-.02.02-.05.04-.07.05-.13.08-.25.14-.37.19-.12.04-.25.07-.38.07-.09,0-.16-.02-.22-.05-.06-.03-.12-.09-.16-.15-.04-.07-.09-.15-.12-.24-.03-.1-.06-.2-.08-.32,0-.04-.01-.07-.02-.1,0-.03,0-.06-.02-.08,0-.02-.01-.04-.02-.06,0-.01,0-.02,0-.02-.03,0-.07.04-.13.14-.06.09-.14.22-.23.39-.05.09-.1.18-.15.25-.05.07-.09.14-.13.18-.04.05-.08.09-.12.12-.04.02-.08.04-.11.04-.06,0-.11-.01-.15-.03-.04-.02-.07-.05-.09-.1-.02-.05-.04-.11-.05-.18,0-.08-.02-.17-.02-.29,0-.13,0-.23-.03-.31-.02-.07-.04-.11-.06-.11,0,0-.03.01-.05.04-.02.02-.05.06-.08.1-.03.04-.07.09-.11.13-.03.05-.07.1-.11.15-.04.05-.07.1-.1.15-.03.05-.06.09-.08.13-.02.03-.03.06-.06.1-.02.04-.05.08-.07.12-.02.04-.05.08-.07.11-.02.04-.04.07-.06.1-.02.03-.05.06-.09.08-.03.02-.07.03-.11.03-.06,0-.11-.01-.15-.04-.04-.03-.07-.06-.09-.11-.02-.04-.04-.1-.04-.16,0-.06-.01-.12-.01-.18,0-.05,0-.11,0-.16,0-.06.01-.12.02-.18,0-.06.02-.12.03-.18.01-.06.02-.12.03-.18.02-.11.04-.2.05-.29.01-.09.02-.17.02-.25,0-.05.01-.09.04-.12.03-.03.08-.05.13-.05.18,0,.26.11.26.32,0,.04,0,.08-.01.12,0,.05-.02.1-.03.15-.01.06-.03.11-.04.17-.02.06-.03.12-.04.17-.01.06-.03.11-.04.17-.01.05-.02.1-.03.14,0,0,.01-.02.02-.04.01-.02.02-.05.04-.08.02-.03.03-.06.05-.09.02-.03.04-.06.05-.09.02-.03.03-.05.04-.07.01-.02.02-.04.02-.04.07-.11.14-.21.2-.3.06-.09.12-.16.18-.23.06-.07.13-.12.19-.15.07-.03.14-.05.21-.05.07,0,.12.02.16.06.04.04.07.09.09.15.02.06.04.12.05.2.01.07.02.14.02.2,0,.03,0,.07.01.11,0,.04,0,.08.01.12,0,.04,0,.07,0,.1,0,.03,0,.05,0,.07,0,0,0,0,0,.01,0,0,.01,0,.01,0,0,0,.02-.01.03-.03.01-.02.03-.05.05-.08.02-.03.04-.07.05-.11.02-.04.04-.08.06-.11s.03-.07.05-.11c.02-.03.03-.05.04-.07.03-.05.07-.11.1-.17.04-.06.08-.12.13-.18.04-.05.09-.1.15-.14.06-.04.12-.06.18-.06.07,0,.13.01.18.04.04.03.07.07.1.12.02.06.04.13.06.21.02.08.04.18.06.29.04.15.08.27.12.36.04.09.09.13.14.13.08,0,.18-.01.28-.04.1-.02.22-.07.34-.14,0,0,.01,0,.03-.01.01,0,.03-.01.04-.02.02,0,.03-.01.05-.02.01,0,.03,0,.03,0,0,0,.02,0,.03,0,.01,0,.02.01.03.02,0,0,.02.02.02.03,0,.01.01.03.01.04Z"/>
          <path class="cls-2" d="M112.9,54.06s0,.03-.01.05c0,.02-.02.05-.04.08-.05.08-.12.17-.19.27-.08.1-.16.19-.26.29-.09.1-.19.19-.3.28-.11.09-.21.17-.32.24-.11.07-.22.12-.33.17-.11.04-.21.06-.31.06-.12,0-.23-.02-.32-.05-.09-.04-.17-.09-.23-.15-.06-.07-.11-.15-.14-.24-.03-.1-.05-.2-.05-.32,0-.09,0-.19.02-.29.01-.1.04-.21.08-.31.04-.11.09-.21.15-.32.06-.11.15-.21.24-.31.07-.08.16-.13.24-.17.09-.04.17-.06.25-.06.02,0,.03,0,.06,0,.02,0,.05.01.07.03.02.01.04.02.07.04.02.02.04.03.05.05.04.05.07.11.1.15.02.05.03.1.03.16,0,.1-.01.18-.04.26-.03.08-.06.15-.11.22-.05.07-.1.13-.16.19-.06.06-.13.13-.2.2-.04.04-.1.08-.16.13-.07.05-.13.1-.21.16,0,.04.02.08.04.11.02.03.04.06.06.07.02.02.05.04.09.04.03.01.07.02.12.02.06,0,.13-.01.2-.03.07-.02.14-.05.21-.08.06-.03.12-.07.18-.11.06-.04.12-.09.18-.14.04-.03.09-.07.15-.13.06-.05.12-.11.18-.17.04-.04.08-.08.13-.12.04-.04.09-.08.13-.13l.11-.1c.08-.06.14-.09.19-.09.03,0,.04,0,.05.02,0,.01.01.03.01.04ZM111.35,53.85c0-.06,0-.1-.03-.12-.02-.02-.04-.03-.06-.03-.02,0-.04,0-.07.03-.03.02-.05.06-.08.1-.03.04-.06.09-.09.14-.03.05-.06.11-.08.17-.02.06-.04.12-.06.18-.02.06-.03.12-.04.18.04-.03.08-.06.11-.09.03-.03.06-.06.09-.08.03-.03.06-.06.09-.1.04-.04.07-.08.1-.12.03-.04.06-.09.08-.13.02-.04.03-.08.03-.12Z"/>
          <path class="cls-2" d="M115.81,54.13s0,.05-.02.08c0,.03-.02.06-.03.09-.01.03-.03.06-.05.08-.02.03-.03.05-.05.07-.04.05-.09.11-.14.17-.05.06-.11.12-.16.18-.06.06-.12.11-.18.17-.06.05-.12.1-.18.14-.05.03-.09.06-.14.09-.04.03-.09.05-.13.07-.05.02-.09.04-.15.05-.05.01-.11.02-.17.02-.1,0-.18-.02-.25-.06-.06-.04-.12-.09-.16-.16-.04-.07-.07-.14-.09-.23-.02-.08-.04-.17-.05-.27-.02-.13-.04-.23-.06-.3-.02-.07-.05-.11-.08-.11s-.05,0-.08.02c-.02.01-.06.04-.1.08-.04.04-.08.1-.14.18-.06.08-.13.18-.23.32-.03.04-.07.1-.12.15-.04.06-.09.11-.14.16-.05.05-.1.1-.15.13-.05.04-.1.07-.14.08-.17-.04-.25-.19-.25-.48,0-.07,0-.18.02-.32,0-.06.02-.13.03-.2,0-.07.02-.14.04-.21.02-.07.03-.14.05-.21.02-.07.04-.13.07-.19.02-.03.03-.05.05-.07.02-.02.04-.03.06-.04.02,0,.04-.01.07-.02.02,0,.04,0,.07,0,.02,0,.04,0,.06.02.02,0,.04.02.05.04.02.02.03.04.03.07,0,.03.01.06.01.09,0,.03,0,.06,0,.09,0,.03-.01.06-.02.09,0,.03-.02.06-.03.09-.01.03-.02.07-.03.11,0,.03-.02.07-.03.11-.01.04-.02.09-.04.14-.01.05-.02.09-.03.14-.01.04-.02.08-.02.11.03-.03.05-.06.09-.11.03-.04.06-.09.1-.14.04-.05.07-.1.11-.15.04-.05.07-.1.11-.14.05-.06.09-.11.14-.16.04-.05.09-.1.14-.13.05-.04.1-.07.16-.09.06-.02.13-.03.2-.03.09,0,.16.02.21.05.05.03.1.08.13.15.03.06.06.14.07.22.02.09.03.18.04.28,0,.05,0,.1.02.16,0,.05.02.1.04.15.02.04.04.08.07.11.03.03.06.04.1.04.06,0,.13-.02.2-.05.08-.03.15-.08.23-.13.08-.06.16-.12.24-.2.09-.08.17-.16.25-.24.03-.03.06-.05.08-.08.03-.03.05-.05.07-.07.02-.02.04-.04.07-.05.02-.01.04-.02.06-.02,0,0,.02,0,.03,0,0,0,.02,0,.03.01.01,0,.02.01.03.03,0,.01,0,.02,0,.04Z"/>
          <path class="cls-2" d="M117.35,53.82s0,.05-.02.07c-.01.02-.02.04-.04.06-.02.02-.03.03-.05.04-.02.01-.04.03-.06.04-.06.03-.12.05-.19.07-.07.02-.14.04-.2.05-.07.01-.13.02-.2.04-.06,0-.12.02-.18.02-.04,0-.07,0-.12.01-.04,0-.08,0-.12.01-.04,0-.07,0-.11.01-.04,0-.06,0-.09.01-.03.11-.06.22-.08.32-.03.1-.05.2-.07.29,0,.02,0,.04-.01.07,0,.03-.01.06-.02.09,0,.03-.01.07-.02.1,0,.04-.01.07-.02.1,0,.03,0,.06,0,.09,0,.02,0,.05,0,.06,0,.05,0,.08.02.1.02.02.03.03.04.05.03.02.05.04.07.06.02.02.03.05.03.08,0,.03,0,.05-.03.08-.02.02-.04.04-.07.06-.03.02-.06.03-.09.04-.03.01-.06.02-.09.02-.05,0-.09-.01-.13-.03-.04-.02-.07-.05-.1-.09-.03-.04-.05-.08-.06-.13-.01-.05-.02-.1-.02-.15,0-.09,0-.18.02-.29.01-.1.03-.21.06-.32,0-.04.02-.1.03-.15.01-.06.03-.11.04-.16.01-.05.02-.1.03-.13.01-.04.02-.07.02-.08-.03,0-.07,0-.12.01-.05,0-.11.01-.18.01-.06,0-.11,0-.15-.01-.04,0-.07-.02-.1-.04-.03-.02-.05-.05-.06-.08-.01-.03-.02-.08-.02-.13,0-.03,0-.06.03-.08.02-.02.05-.03.08-.04.03,0,.07-.02.1-.02.04,0,.07,0,.09,0,.01,0,.04,0,.07,0,.03,0,.07,0,.11,0,.04,0,.08,0,.12,0,.03,0,.06,0,.08,0,0,0,.01-.01.02-.04,0-.02.02-.06.03-.1,0-.04.02-.08.03-.13.01-.05.02-.1.03-.14.01-.04.02-.09.03-.13,0-.04.02-.07.02-.09.01-.06.02-.12.04-.19.01-.07.02-.13.04-.2.02-.06.05-.11.08-.16.04-.04.09-.06.16-.06s.13.02.16.05c.03.03.05.08.05.15,0,.03,0,.07,0,.12,0,.04-.02.09-.03.13-.03.1-.06.2-.08.29-.02.09-.04.16-.05.23-.01.07-.03.14-.04.21.05,0,.11,0,.16,0,.05,0,.1,0,.15,0,.05,0,.11,0,.16,0,.06,0,.12,0,.18-.02.08,0,.14-.02.2-.03.05,0,.1-.02.14-.03.04,0,.08-.01.11-.02.03,0,.07,0,.11,0,.02,0,.03,0,.05.01.01.01.02.03.02.07Z"/>
          <path class="cls-2" d="M118.29,54.25s0,.08,0,.12c0,.03,0,.07-.02.1,0,.03-.02.07-.03.1-.01.03-.03.07-.05.11-.02.05-.06.1-.11.16-.05.06-.11.12-.17.18-.07.06-.14.12-.22.18-.08.06-.16.11-.24.15-.09.04-.17.08-.25.11-.08.03-.16.04-.24.04-.1,0-.18-.02-.26-.05-.07-.03-.13-.07-.18-.12-.05-.05-.08-.11-.11-.18-.02-.06-.03-.13-.03-.2,0-.06,0-.14.03-.22.02-.08.05-.17.09-.25.03-.09.07-.17.12-.25.04-.08.08-.14.12-.19.04-.06.1-.12.17-.17.07-.05.14-.1.22-.15.08-.04.17-.08.26-.1.09-.03.19-.04.28-.04.08,0,.16.02.23.06.08.04.14.09.2.15.06.06.11.13.14.21.04.08.05.17.05.26ZM117.87,54.3c0-.11-.03-.2-.09-.27-.06-.06-.15-.1-.27-.1-.04,0-.08.01-.12.04-.04.02-.08.05-.13.09-.04.03-.08.07-.11.11-.04.04-.07.08-.09.11-.02.03-.05.08-.08.13-.03.05-.06.11-.08.17-.02.06-.05.12-.06.18-.02.06-.03.12-.03.16,0,.02,0,.05.01.07.01.03.02.05.04.07.01.02.03.04.05.05.02.01.04.02.07.02.04,0,.09-.01.14-.03.06-.02.12-.05.18-.09.07-.04.13-.08.2-.13.07-.05.12-.11.18-.17.05-.06.1-.13.13-.2.03-.07.05-.14.05-.21Z"/>
          <path class="cls-2" d="M123.23,55.43s-.01.07-.03.09c-.02.03-.05.05-.09.07-.02.01-.06.03-.09.03-.03,0-.07.01-.1.01-.08,0-.16-.02-.23-.05-.08-.03-.16-.08-.25-.14-.04-.03-.1-.07-.17-.12-.07-.05-.15-.11-.23-.17-.02-.01-.06-.05-.13-.1-.06-.05-.14-.11-.25-.19-.09-.08-.17-.14-.23-.18-.06-.04-.09-.07-.1-.07-.01,0-.03,0-.05-.01-.02,0-.04,0-.08,0h-.03s-.02,0-.03,0c-.01,0-.03,0-.05,0-.02,0-.05,0-.08,0-.08-.06-.12-.13-.12-.23,0-.05.01-.09.03-.12.02-.03.06-.05.1-.07.01,0,.02,0,.02,0,0,0,.01,0,.02,0,0,0,.01,0,.03,0,0,0,.02,0,.05,0,.04,0,.07,0,.11-.01.03-.01.07-.02.1-.04.03-.01.07-.03.1-.04.03-.02.06-.03.09-.05.04-.02.08-.04.13-.07.05-.03.09-.06.14-.09.04-.03.08-.06.12-.09.04-.03.08-.07.12-.11.03-.03.05-.06.07-.09.01-.03.02-.06.02-.09,0-.05-.01-.09-.04-.13-.03-.04-.07-.08-.11-.12-.04-.03-.09-.06-.15-.09-.05-.02-.1-.04-.15-.06-.09-.03-.18-.04-.27-.04-.03,0-.06,0-.1,0-.04,0-.08,0-.13.01-.04,0-.09.01-.13.01-.04,0-.08.01-.12.02-.02,0-.03,0-.04,0-.01,0-.02,0-.03,0,0,0-.02,0-.03,0-.01,0-.04,0-.06.01.01.02.02.05.03.08,0,.03.01.06.02.09.01.05.02.1.02.14,0,.04,0,.08,0,.11v.11s0,.07,0,.11c0,.07,0,.14-.02.21-.01.07-.03.16-.05.27-.02.09-.03.18-.04.25-.01.07-.02.14-.02.19,0,.05-.01.1-.01.15,0,.05,0,.1,0,.14,0,.04,0,.08,0,.12,0,.04.01.07.02.11,0,.03.02.07.04.1.02.03.03.07.06.11-.01.02-.03.04-.05.06-.02.02-.04.03-.07.05-.02.01-.05.03-.07.04-.03,0-.05.01-.07.01-.11,0-.18-.02-.23-.07-.05-.05-.09-.11-.1-.17,0-.03-.01-.07-.01-.11,0-.04,0-.09,0-.13,0-.07,0-.14.01-.21,0-.06.01-.12.02-.18,0-.05.02-.11.03-.16,0-.02.01-.05.02-.07s0-.04,0-.07c0-.02,0-.05.01-.07,0-.03,0-.06.01-.1.02-.11.03-.21.04-.31.01-.1.01-.19.01-.28,0-.06,0-.13,0-.2,0-.07,0-.14-.02-.22-.04.01-.08.02-.11.03-.03,0-.05.01-.06.01-.07,0-.12-.02-.14-.05-.02-.03-.03-.08-.03-.14,0-.07.06-.13.18-.19.04-.02.09-.04.14-.06.05-.02.09-.03.14-.05.05-.02.11-.03.18-.05.07-.01.15-.03.23-.04.08-.01.16-.02.24-.03.08,0,.14-.01.2-.01.2,0,.4.02.58.07.1.02.19.06.27.1.08.04.16.09.22.15.14.13.22.3.22.5,0,.13-.05.26-.15.39-.09.11-.18.2-.29.28-.11.08-.23.15-.37.23.04.03.08.06.13.09.04.03.09.06.14.09.07.05.14.1.21.14.06.05.12.09.18.13.05.04.12.08.18.13.07.05.14.1.22.15.08.05.15.1.21.14.07.04.12.07.16.1l.04.05Z"/>
          <path class="cls-2" d="M126.78,53.79s0,.02,0,.03c0,.01,0,.02-.01.04-.05.1-.1.19-.17.3-.07.1-.14.2-.21.3-.08.1-.16.19-.24.28-.09.09-.17.16-.25.23-.08.07-.17.12-.25.16-.08.04-.16.06-.23.06-.07,0-.14-.01-.21-.04-.06-.02-.12-.06-.16-.11-.04-.05-.08-.12-.11-.2-.02-.08-.04-.18-.04-.29-.02.03-.05.07-.08.12-.03.04-.06.09-.09.13-.04.04-.07.09-.11.13-.04.04-.07.08-.11.11-.03.03-.07.06-.12.1-.04.04-.1.08-.16.11-.06.03-.13.07-.2.09-.07.03-.15.04-.23.05-.11,0-.2-.02-.26-.06-.06-.04-.11-.09-.14-.15-.03-.06-.05-.12-.06-.2-.01-.07-.01-.14-.01-.21,0,0,0-.02,0-.05,0-.03,0-.07.01-.11,0-.04.01-.1.02-.15,0-.05.02-.11.03-.18.01-.06.03-.12.04-.18.02-.06.04-.12.06-.17.01-.03.02-.05.04-.08.01-.02.02-.04.04-.06.01-.02.03-.03.05-.04.02-.01.05-.02.08-.02.04,0,.07,0,.1.02.03.01.05.03.06.05.02.02.03.04.04.07,0,.03,0,.05,0,.08,0,.02,0,.05-.02.11-.02.05-.04.11-.06.19-.02.07-.04.16-.06.25-.02.1-.03.2-.03.31,0,.05,0,.1.03.13.02.03.04.05.08.05.04,0,.08,0,.12-.02.04-.01.08-.03.12-.05.04-.02.08-.05.11-.07.04-.03.07-.06.11-.08.04-.03.08-.08.13-.13.05-.05.09-.11.14-.16.04-.06.09-.11.13-.17.04-.06.07-.1.09-.14,0-.02.02-.05.04-.09.02-.03.03-.07.05-.11.01-.04.03-.08.04-.11.01-.04.02-.07.03-.08,0-.02,0-.04,0-.05,0-.02.01-.03.01-.04,0-.01,0-.03.01-.04,0-.02.01-.03.02-.05,0-.01.02-.03.03-.04.01-.02.03-.03.05-.04.02-.01.04-.02.06-.03.02,0,.04-.01.06-.01.06,0,.1.02.14.05.03.03.05.07.05.13,0,.02-.01.07-.03.13-.01.06-.02.13-.04.21-.01.08-.02.16-.03.24-.01.08-.02.16-.02.22,0,.12.02.21.05.27.03.07.08.1.14.1.05,0,.09-.01.14-.04.05-.02.1-.06.15-.1.05-.04.11-.09.16-.14s.11-.11.16-.17c.05-.06.1-.12.15-.18.05-.06.09-.12.14-.17.06-.08.12-.14.17-.2.05-.05.1-.08.14-.08,0,0,.02,0,.03,0,.01,0,.02,0,.04.01.01,0,.02.02.03.02,0,.01.01.02.01.04Z"/>
          <path class="cls-2" d="M128.03,53.97s0,.03,0,.05c0,.02-.01.04-.03.06-.01.02-.02.04-.04.05-.02.01-.04.02-.06.03,0,0-.02,0-.03,0-.02,0-.03,0-.05,0-.02,0-.04,0-.06,0-.02,0-.03,0-.04,0-.22.01-.41.09-.58.24-.04.03-.07.07-.12.12-.04.04-.08.09-.12.15-.04.05-.07.11-.11.17-.03.06-.07.13-.09.19-.02.05-.04.11-.07.17-.02.06-.04.12-.06.18,0,.03-.02.07-.02.09,0,.03-.01.06-.02.09,0,.02-.02.04-.04.06-.02.01-.03.03-.05.04-.02.01-.04.02-.07.02-.02,0-.05,0-.07,0-.09,0-.14-.04-.18-.11-.03-.08-.05-.19-.05-.34,0-.03,0-.07,0-.1s0-.06,0-.09c0-.03,0-.07,0-.1,0-.03,0-.07,0-.11,0-.06.01-.14.02-.22,0-.09.02-.17.03-.26.01-.09.02-.17.03-.26.01-.08.03-.15.04-.21.02-.07.04-.13.08-.16.04-.04.09-.06.17-.06.02,0,.04,0,.06.02.02.01.04.03.06.04.02.02.03.03.04.05.01.02.02.04.02.05v.03s0,.08,0,.13c0,.05-.01.1-.03.16-.01.06-.02.11-.04.17-.01.06-.02.11-.04.17-.01.05-.02.1-.03.14-.01.05-.02.08-.02.11.05-.1.1-.19.15-.28.05-.09.11-.17.17-.25.06-.08.13-.15.2-.21.07-.06.14-.11.23-.15.06-.03.12-.05.17-.07.05-.02.1-.02.14-.02.05,0,.1,0,.16.02.05.01.1.03.15.05.04.02.08.05.11.07.03.03.04.06.04.1Z"/>
          <path class="cls-2" d="M130.66,53.93s-.01.05-.03.1c-.02.05-.05.12-.09.19-.04.08-.08.16-.13.25-.05.09-.1.17-.16.26-.08.1-.15.2-.23.28-.08.08-.16.15-.23.2-.07.05-.14.1-.21.13-.06.03-.12.04-.17.04-.07,0-.14,0-.19-.03-.05-.02-.09-.05-.12-.09-.03-.04-.06-.09-.08-.14-.02-.06-.03-.12-.04-.2-.05.08-.11.16-.17.24-.06.07-.13.14-.19.2-.07.06-.14.11-.21.14-.07.04-.14.06-.21.06-.04,0-.09,0-.14-.02-.05-.01-.1-.04-.14-.07-.04-.03-.08-.08-.1-.13-.03-.05-.04-.11-.04-.19,0-.06,0-.12.02-.2.02-.07.04-.15.06-.23.02-.08.05-.16.09-.24.03-.08.07-.16.1-.23.04-.07.07-.14.11-.2.04-.06.07-.11.11-.15.04-.04.09-.08.14-.13.05-.05.11-.08.18-.12.07-.04.14-.07.22-.09.08-.02.16-.04.25-.04s.15.02.2.07c.05.05.07.12.09.22,0,0,0,.02.01.03,0,.01.02.02.03.04,0,.01.02.03.03.04,0,.02,0,.03,0,.05,0,.02,0,.04,0,.07-.01.03-.02.06-.03.1-.01.04-.02.08-.03.12,0,.04-.02.09-.02.14,0,.07,0,.15,0,.22,0,.07.01.13.02.19.01.05.03.1.05.13.02.03.05.05.09.05.03,0,.07-.01.11-.04.04-.02.09-.06.15-.1.05-.04.1-.1.16-.16.06-.06.11-.12.17-.19.04-.06.08-.12.12-.17.03-.06.07-.11.1-.16.03-.05.06-.1.09-.15.03-.05.05-.09.08-.12.03-.04.05-.06.08-.08.02-.02.05-.03.08-.03.02,0,.03,0,.04.02.01.02.02.04.02.09v.02s0,.02,0,.02h0ZM128.99,53.98s0-.02,0-.03c0-.01,0-.02-.02-.03,0,0-.02-.02-.02-.02,0,0-.01,0-.02,0-.03,0-.06,0-.09.02-.03.01-.06.03-.08.05-.03.02-.05.04-.07.06-.02.02-.04.05-.06.07-.04.06-.09.13-.14.22-.05.08-.09.17-.13.27-.04.09-.07.18-.1.28-.02.09-.04.17-.04.25,0,.02,0,.04.03.06.02.01.04.02.07.02.03,0,.06-.01.09-.04.04-.03.08-.06.12-.11.04-.05.09-.1.13-.15.04-.06.08-.11.12-.17.06-.11.12-.23.16-.35.04-.12.06-.25.06-.37Z"/>
          <path class="cls-2" d="M131.86,54.78s-.01.04-.02.07c-.02.03-.03.06-.05.1-.02.04-.04.07-.06.1-.02.03-.04.06-.06.08-.05.07-.11.13-.18.19-.07.06-.13.11-.2.16-.08.05-.15.08-.23.11-.07.03-.15.04-.23.04-.12,0-.22-.02-.3-.07-.08-.04-.15-.1-.21-.19-.05-.08-.1-.19-.12-.31-.02-.12-.04-.26-.04-.42,0-.1,0-.2.02-.31,0-.11.02-.23.04-.35.02-.12.03-.24.06-.36.02-.12.05-.24.07-.35.03-.11.05-.22.09-.32.03-.1.06-.18.09-.25.03-.07.06-.13.09-.17.03-.04.06-.06.1-.06.03,0,.05,0,.07.02.02.01.04.02.06.04.02.02.03.03.04.05.01.02.02.04.04.06,0,.06-.02.13-.04.22-.02.09-.03.18-.06.28-.02.1-.04.2-.07.31-.02.1-.05.2-.07.28-.01.06-.02.13-.04.2-.01.07-.02.14-.03.22,0,.07-.01.14-.02.21,0,.07,0,.14,0,.2,0,.2.02.36.07.47.05.11.13.16.23.16.07,0,.13-.01.2-.03.06-.02.12-.05.18-.09.06-.04.11-.08.16-.12.05-.05.09-.09.14-.14.03-.03.06-.07.09-.09.03-.03.06-.04.08-.04.04,0,.06,0,.07.02,0,.02.01.04.01.08Z"/>
        </g>
      </g>
    </g>
  </g>
</svg>