<?xml version="1.0" encoding="UTF-8"?>
<svg id="Layer_2" data-name="Layer 2" xmlns="http://www.w3.org/2000/svg" viewBox="0 0 67.21 100.05">
  <defs>
    <style>
      .cls-1 {
        fill: none;
      }

      .cls-2 {
        fill: #ffb000;
      }

      .cls-2, .cls-3, .cls-4, .cls-5 {
        fill-rule: evenodd;
      }

      .cls-3 {
        fill: #1a69f9;
      }

      .cls-4 {
        fill: #f06;
      }

      .cls-5 {
        fill: #609;
      }
    </style>
  </defs>
  <g id="Layer_1-2" data-name="Layer 1">
    <rect class="cls-1" width="67.21" height="100.05"/>
    <g id="Camada_1" data-name="Camada 1">
      <g>
        <g>
          <path class="cls-5" d="M8.37,31.68l3.49,3.48c1.03,1.03,2.38,1.54,3.73,1.54s2.71-.51,3.73-1.54l3.48-3.48-2.12-2.12-3.48,3.48c-.44.44-1.03.66-1.62.66s-1.17-.22-1.62-.66l-3.48-3.48-2.12,2.12h0Z"/>
          <path class="cls-2" d="M24.1,33.34l-3.48,3.48c-1.03,1.03-1.54,2.38-1.54,3.73s.51,2.71,1.54,3.73l3.48,3.48,2.12-2.12-3.48-3.48c-.44-.44-.66-1.03-.66-1.62s.22-1.17.66-1.62l3.49-3.49-2.12-2.12h0Z"/>
          <path class="cls-3" d="M22.8,49.89l-3.49-3.49c-1.03-1.03-2.38-1.54-3.73-1.54s-2.71.51-3.73,1.54l-3.48,3.48,2.12,2.12,3.48-3.48c.44-.44,1.03-.66,1.62-.66s1.17.22,1.62.66l3.48,3.48,2.12-2.12h0Z"/>
          <path class="cls-4" d="M6.65,47.78l3.48-3.48c1.03-1.03,1.54-2.38,1.54-3.73s-.51-2.71-1.54-3.73l-3.48-3.48-2.12,2.12,3.48,3.48c.44.44.66,1.03.66,1.62s-.22,1.17-.66,1.62l-3.49,3.49,2.12,2.12h0Z"/>
          <path class="cls-4" d="M3.45,42.99c1.38,0,2.5-1.12,2.5-2.5s-1.12-2.5-2.5-2.5-2.5,1.12-2.5,2.5,1.12,2.5,2.5,2.5"/>
          <path class="cls-5" d="M13.08,28.35c0,1.38,1.12,2.5,2.5,2.5s2.5-1.12,2.5-2.5-1.12-2.5-2.51-2.5-2.5,1.12-2.5,2.5"/>
          <path class="cls-2" d="M27.72,37.98c-1.38,0-2.5,1.12-2.5,2.5s1.12,2.5,2.5,2.5,2.5-1.12,2.5-2.5-1.12-2.5-2.5-2.5"/>
          <path class="cls-3" d="M18.09,52.62c0-1.38-1.12-2.5-2.5-2.5s-2.5,1.12-2.5,2.5,1.12,2.5,2.5,2.5,2.5-1.12,2.5-2.5"/>
        </g>
        <g>
          <g>
            <path d="M36.49,35.5c-.37,0-.7-.07-1.02-.2s-.59-.33-.82-.58c-.23-.25-.41-.56-.55-.93s-.2-.79-.2-1.27.07-.9.22-1.27.34-.68.58-.93c.24-.25.52-.44.83-.57.32-.13.65-.19,1-.19.22,0,.4.02.58.04.17.03.33.06.46.1.13.04.24.09.34.12.1.04.16.08.22.11l-.17.47c-.14-.09-.31-.16-.52-.24s-.47-.12-.78-.12c-.35,0-.67.06-.93.18-.27.12-.49.29-.67.51-.18.22-.32.48-.4.78-.1.3-.14.64-.14,1.01s.04.72.14,1.02c.1.3.22.56.39.77.17.21.39.38.64.49s.55.17.88.17c.36,0,.66-.03.91-.1.24-.07.43-.14.56-.21l.15.47s-.1.06-.2.1-.22.07-.35.11c-.15.03-.31.07-.49.1-.21.03-.41.04-.64.04h0Z"/>
            <path d="M43.14,35.38c-.11-.28-.21-.55-.3-.81-.1-.26-.18-.51-.26-.76h-2.78c-.1.25-.19.5-.27.76-.1.26-.19.52-.29.81h-.58c.22-.59.42-1.14.61-1.66s.38-1,.57-1.45c.18-.46.37-.89.55-1.31.18-.42.37-.84.58-1.26h.49c.2.42.39.84.58,1.26.18.42.36.86.55,1.31s.37.94.57,1.45c.2.52.4,1.07.63,1.66h-.63,0ZM41.19,30.32c-.21.47-.4.95-.6,1.43-.2.49-.39,1.01-.61,1.57h2.43c-.21-.57-.41-1.09-.61-1.58-.21-.48-.41-.95-.61-1.43h0Z"/>
            <path d="M47.13,34.55c-.05-.14-.14-.32-.23-.54-.1-.22-.22-.47-.34-.74-.13-.27-.26-.54-.39-.82-.13-.28-.26-.55-.38-.79-.12-.25-.23-.46-.32-.65-.1-.19-.16-.32-.21-.39-.07.69-.13,1.43-.17,2.23-.04.8-.08,1.64-.11,2.53h-.55c.05-1.03.1-2.03.17-2.97.06-.94.14-1.86.23-2.71h.49c.16.27.34.59.52.94.19.36.37.73.56,1.12.18.39.36.76.53,1.14.17.38.33.71.46,1.01.13-.3.28-.64.46-1.01.17-.38.35-.76.53-1.14.18-.39.37-.76.56-1.12.19-.36.36-.68.52-.94h.46c.1.87.17,1.77.23,2.71.06.94.12,1.94.17,2.97h-.57c-.03-.89-.07-1.73-.11-2.53-.04-.8-.1-1.55-.17-2.23-.04.08-.11.21-.21.39-.1.19-.2.4-.32.65-.12.25-.25.51-.38.79-.13.28-.26.56-.39.82s-.24.51-.34.74c-.1.22-.18.4-.23.54h-.49Z"/>
            <path d="M53.11,29.64c.81,0,1.4.15,1.8.46s.59.74.59,1.31c0,.33-.06.6-.17.82-.11.22-.27.41-.49.55s-.47.24-.78.3c-.31.06-.66.1-1.05.1h-.77v2.2h-.56v-5.59c.2-.05.43-.1.7-.12.26-.03.51-.03.74-.03h0ZM53.14,30.12c-.21,0-.39,0-.53.02-.15.02-.27.03-.37.03v2.51h.7c.3,0,.58-.02.82-.05s.46-.1.63-.2.31-.23.39-.39c.1-.17.14-.39.14-.65,0-.25-.05-.46-.15-.63s-.23-.29-.4-.39c-.16-.1-.36-.16-.57-.2-.22-.03-.43-.05-.65-.05h0Z"/>
            <path d="M58.59,35.5c-.38,0-.7-.06-.96-.17s-.48-.27-.64-.47c-.16-.21-.28-.44-.36-.71-.08-.27-.11-.56-.11-.88v-3.58h.56v3.51c0,.31.03.58.11.81.08.22.18.41.31.56.13.15.29.26.47.33.19.07.39.1.63.1s.44-.03.63-.1.34-.18.47-.33c.13-.15.23-.34.31-.56s.11-.5.11-.81v-3.51h.56v3.58c0,.31-.03.6-.11.88-.08.27-.19.51-.36.71-.16.21-.38.36-.64.47-.26.11-.58.17-.96.17h0Z"/>
            <path d="M63.35,35.01c.45,0,.79-.08,1.03-.24.25-.16.37-.42.37-.78,0-.21-.04-.39-.12-.52s-.19-.26-.32-.35c-.13-.1-.28-.18-.46-.25s-.34-.14-.53-.22c-.23-.1-.45-.19-.64-.28s-.34-.21-.47-.34c-.13-.12-.23-.27-.3-.42s-.1-.34-.1-.56c0-.49.16-.86.48-1.11.33-.25.77-.38,1.35-.38.15,0,.3,0,.46.03.15.03.28.05.41.09.13.03.25.08.35.12s.2.1.27.14l-.2.46c-.15-.11-.35-.2-.58-.27-.22-.07-.47-.1-.74-.1-.18,0-.34.02-.5.05s-.28.1-.39.17c-.11.08-.2.18-.26.3-.06.12-.1.27-.1.44s.03.33.1.45c.07.12.15.22.27.31.12.09.26.16.41.24.15.07.34.15.52.22.22.1.44.19.64.27.2.1.38.21.52.33.15.13.27.27.35.46.09.18.13.4.13.66,0,.52-.18.9-.54,1.16s-.84.39-1.46.39c-.22,0-.42-.02-.6-.04-.18-.03-.34-.06-.48-.1-.15-.04-.27-.09-.36-.13-.1-.04-.17-.09-.23-.11l.18-.48c.05.03.13.07.22.11s.21.09.33.13c.13.04.27.08.43.1.18.02.35.03.55.03h0Z"/>
          </g>
          <g>
            <path d="M34.5,37.52c.16.49.33.94.48,1.38s.31.86.46,1.26c.15.4.3.81.45,1.2.15.39.32.79.5,1.19.17-.39.34-.78.49-1.18.15-.39.31-.79.46-1.2.15-.4.3-.83.46-1.27s.31-.9.47-1.39h.59c-.25.72-.48,1.35-.68,1.89s-.39,1.03-.56,1.47c-.17.44-.34.84-.49,1.21-.15.37-.32.74-.49,1.12h-.52c-.16-.38-.33-.76-.49-1.13s-.33-.77-.5-1.21-.36-.93-.56-1.47c-.2-.54-.43-1.17-.68-1.89h.61v.02h0Z"/>
            <path d="M39.67,37.52h.56v5.69h-.56v-5.69Z"/>
            <path d="M45.49,39.23c0,.43-.11.76-.34,1.01s-.52.42-.89.53c.09.11.2.26.34.45.14.19.28.39.43.61.15.22.29.46.44.7.15.24.27.47.36.69h-.6c-.11-.22-.24-.44-.37-.65-.14-.22-.27-.43-.41-.64s-.27-.39-.4-.57-.25-.33-.34-.46c-.17.02-.35.03-.52.03h-.92v2.3h-.57v-5.59c.2-.05.43-.1.7-.12.27-.03.51-.03.74-.03.78,0,1.38.15,1.77.45.39.3.58.72.58,1.3h0ZM43.2,37.96c-.21,0-.39,0-.55.02-.15.02-.28.03-.39.03v2.42h.77c.26,0,.5,0,.73-.03.23-.03.43-.08.6-.16s.3-.21.4-.37c.1-.15.15-.38.15-.65,0-.25-.05-.46-.15-.63-.1-.16-.22-.29-.39-.39-.15-.1-.34-.16-.55-.2s-.42-.04-.64-.04h0Z"/>
            <path d="M50.39,37.52v.48h-1.82v5.21h-.56v-5.21h-1.82v-.48h4.2Z"/>
            <path d="M53.33,43.34c-.38,0-.7-.06-.96-.17-.27-.11-.48-.27-.64-.47-.16-.21-.28-.44-.36-.71-.08-.27-.11-.56-.11-.88v-3.58h.56v3.51c0,.31.03.58.11.81s.18.41.31.56.29.26.47.33c.19.07.39.1.63.1s.44-.03.63-.1c.19-.07.34-.18.47-.33.13-.15.23-.34.31-.56.08-.22.11-.5.11-.81v-3.51h.56v3.58c0,.31-.03.6-.11.88-.08.27-.19.51-.36.71-.16.21-.38.36-.64.47-.26.11-.58.17-.96.17h0Z"/>
            <path d="M60.69,43.22c-.11-.28-.21-.55-.3-.81s-.18-.51-.26-.76h-2.78c-.1.25-.19.5-.27.76-.1.26-.19.52-.29.81h-.58c.22-.59.42-1.14.61-1.66s.38-1,.57-1.45c.19-.46.37-.89.55-1.31.18-.42.37-.84.58-1.26h.49c.2.42.39.84.58,1.26.18.42.36.86.55,1.31s.37.94.57,1.45.4,1.07.63,1.66h-.62ZM58.74,38.16c-.21.47-.4.95-.6,1.43-.2.49-.39,1.01-.61,1.57h2.43c-.21-.57-.41-1.09-.61-1.58-.21-.48-.41-.95-.61-1.43h0Z"/>
            <path d="M65.36,42.73v.48h-3.24v-5.69h.56v5.21h2.68,0Z"/>
          </g>
          <path d="M33.89,45.8v5.44h.89v-2.4h2.47v-.8h-2.47v-1.45h2.82v-.79h-3.71s0,0,0,0ZM38.37,45.8v5.44h.91v-5.42h-.91ZM42.84,45.67c-1.61,0-2.61,1.07-2.61,2.87s.99,2.87,2.61,2.87,2.61-1.08,2.61-2.87-1-2.87-2.61-2.87ZM42.84,46.45c1.05,0,1.69.75,1.69,2.08s-.65,2.08-1.69,2.08-1.69-.76-1.69-2.08c0-1.32.65-2.08,1.69-2.08ZM50.97,47.51c-.1-1.13-.93-1.84-2.25-1.84-1.61,0-2.57,1.06-2.57,2.87s.95,2.87,2.5,2.87c1.36,0,2.3-.87,2.34-2.1h-.89c-.04.75-.67,1.32-1.42,1.29h0c-.99,0-1.62-.77-1.62-2.09s.59-2.03,1.63-2.03c.78,0,1.28.37,1.38,1.01l.9.03h0ZM51.87,45.81v5.42h.9v-2.24h1.36c.72,0,.83.3.86.87l.03.65c0,.25.04.49.14.72h1.01v-.15c-.21-.11-.21-.31-.23-.63l-.04-.78c-.03-.59-.14-.92-.65-1.08.5-.21.82-.72.78-1.27.06-.77-.51-1.45-1.29-1.52-.08,0-.17,0-.25,0h-2.63s0,0,0,0ZM52.76,46.58h1.32c.68,0,1.05.19,1.05.83s-.34.85-1.06.85h-1.29v-1.69.02h0ZM57.03,45.81v3.41c0,1.42.73,2.16,2.15,2.16s2.16-.76,2.16-2.16v-3.43h-.91v3.39c0,.92-.39,1.38-1.25,1.38s-1.24-.45-1.24-1.38v-3.39l-.91.02h0ZM62.21,45.81v.77h2.99l-3.17,3.89v.76h4.22v-.8h-3.11l3.13-3.85v-.79l-4.05.03h0Z"/>
        </g>
      </g>
    </g>
  </g>
</svg>