<?xml version="1.0" encoding="UTF-8"?>
<svg id="Layer_2" xmlns="http://www.w3.org/2000/svg" version="1.1" viewBox="0 0 105.1 29.6">
  <!-- Generator: Adobe Illustrator 29.2.1, SVG Export Plug-In . SVG Version: 2.1.0 Build 116)  -->
  <defs>
    <style>
      .st0 {
        fill: none;
      }
    </style>
  </defs>
  <g id="Layer_1-2">
    <rect class="st0" y="-25.1" width="105.1" height="100.1"/>
    <g>
      <path d="M41.4,11.7h-9.1c-.2,0-.3.1-.3.3v17.1c0,.2.1.3.3.3h1.3c.2,0,.3-.1.3-.3v-7.8h5c.2,0,.3-.1.3-.3v-1c0-.2-.1-.3-.3-.3h-5v-6.2h7.4c.2,0,.3-.1.3-.3v-1c0-.2-.1-.3-.3-.3"/>
      <path d="M44.2,11.7h-1.3c-.2,0-.3.1-.3.3v17.1c0,.2.1.3.3.3h1.3c.2,0,.3-.1.3-.3V12.1c0-.2-.1-.3-.3-.3"/>
      <path d="M55.2,16.8v7.7c0,1-.3,1.8-.9,2.4s-1.7.9-2.7.9-1.9-.3-2.5-.9c-.6-.6-.9-1.4-.9-2.4v-7.7c0-1,.3-1.8.9-2.5.6-.6,1.5-.9,2.5-.9s2.1.3,2.7.9.9,1.5.9,2.5M54.7,12.3c-.8-.4-2-.7-3-.7s-2.1.2-2.9.7c-.8.4-1.4,1-1.8,1.8-.4.8-.7,1.7-.7,2.7v7.5c0,1,.2,1.9.7,2.7.4.8,1,1.4,1.8,1.8.8.4,1.8.7,2.9.7s2.2-.2,3-.7,1.4-1,1.8-1.8c.4-.8.7-1.7.7-2.7v-7.5c0-1-.2-1.9-.7-2.7-.4-.8-1.1-1.4-1.8-1.8"/>
      <path d="M64,11.7c-1.5,0-2.9.5-3.9,1.4s-1.4,2.1-1.4,3.6v7.9c0,1.5.5,2.7,1.4,3.6.9.9,2.7,1.4,4.2,1.4s2.8-.5,3.7-1.4c.9-.9,1.4-2.1,1.4-3.6v-.2c0-.2-.1-.3-.3-.3h-1.3c-.2,0-.3,0-.3.2v.3c0,.9-.3,1.7-.9,2.3-.6.6-1.4.9-2.3.9s-2.2-.3-2.8-.9-.9-1.3-.9-2.3v-8.1c0-1,.3-1.7.9-2.3.6-.6,1.5-.9,2.5-.9s2,.3,2.6.9c.6.6.9,1.3.9,2.3v.3c0,.2.1.3.3.3h1.3c.2,0,.3-.2.3-.4v-.2c0-1.5-.5-2.7-1.4-3.6-.9-.9-2.5-1.3-4.1-1.3"/>
      <path d="M80,16.6c0,.9-.3,1.9-.8,2.4-.5.6-1.2.9-2,.9h-4.1v-6.5h4.1c.8,0,1.5.3,2,.9.5.6.8,1.3.8,2.3M78.9,21.4h0c1-.3,1.7-.8,2.3-1.6.6-.8.8-2,.8-3.1s-.2-1.8-.6-2.6-.9-1.3-1.6-1.7-1.5-.6-2.3-.6h-5.9c-.2,0-.3.1-.3.3v17.1c0,.2.1.3.3.3h1.3c.2,0,.3-.1.3-.3v-7.6h3.8s3.1,7.7,3.1,7.7c0,.2.2.3.4.3h1.3c.2,0,.3-.1.3-.3h0c0-.1-3.2-7.9-3.2-7.9h0Z"/>
      <path d="M94.1,11.7h-1.3c-.2,0-.3.1-.3.3v12.3c0,1-.3,1.9-.9,2.5-.6.6-1.6.9-2.6.9s-2-.3-2.6-.9c-.6-.6-.9-1.5-.9-2.5v-12.3c0-.2-.1-.3-.3-.3h-1.3c-.2,0-.3.1-.3.3v12.2c0,1,.2,2,.7,2.8.4.8,1.1,1.4,1.8,1.8.8.4,1.9.7,2.9.7s2.2-.2,2.9-.7,1.4-1.1,1.8-1.8c.4-.8.7-1.7.7-2.8v-12.2c0-.2-.1-.3-.3-.3"/>
      <path d="M105.1,13.3v-1.2c0-.2-.1-.3-.3-.3h-9.1c-.2,0-.3.1-.3.3v1c0,.2.1.3.3.3h7.3l-7.6,14c0,.1,0,.4,0,.5v1.2c0,.2.1.3.3.3h9.1c.2,0,.3-.1.3-.3v-1c0-.2-.1-.3-.3-.3h-7.3l7.6-14.2c0-.1,0-.3,0-.4"/>
      <path d="M26.3,28.2h-5l-1.1-1.1H7.3l-1.1,1.1H1.5v-.4l.6-.7v-13l-.4-.4v-.7h1.2v-5.3l.4-.4v-1s0,0-.2-.1c-.1-.1-.2-.2-.3-.4-.1-.2-.2-.5-.2-.8,0-.9.8-1.7,1.7-1.7s1.7.8,1.7,1.7-.1.7-.3,1c0,0,0,0,0,0,0,0,0,0,0,0,0,0,0,0,0,0,0,0,0,0-.1.1v1l.4.4v4.5h3.1l.8-.8v-3.4h2.7v-.9h2.7v.9h2.7v3.3l.8.8h3v-4.5l.4-.4v-1c0,0-.1-.1-.2-.2-.1,0-.2-.2-.2-.3-.1-.2-.2-.5-.2-.8,0-.9.8-1.7,1.7-1.7s1.7.8,1.7,1.7-.1.7-.3,1c0,0,0,0,0,0h0s0,0,0,.1c0,0,0,0-.1.1v1l.4.4v5.3h1.2v.7l-.5.5v13l.8.8v.2h0ZM27.5,27.2h0c0,0,0-.1,0-.2l-.5-.5v-12.2l.4-.4v-1.5c0-.2,0-.3,0-.4-.1-.1-.2-.2-.4-.2h-.8v-4.7c0-.2,0-.3-.2-.4h0s0-.1,0-.1c.3-.5.5-1,.5-1.6,0-1.3-.9-2.5-2.1-3h0l-.2-1.4c0-.4-.4-.5-.7-.6-.3,0-.6.2-.6.5l-.3,1.4h0c-1.3.4-2.2,1.6-2.2,3s.2,1.1.5,1.6h0c0,0,0,.1,0,.1-.1,0-.2.2-.2.4v3.8h-1v-2.4l.3-.3v-1.2c0-.3-.2-.5-.5-.5h-1.4c-.1,0-.2,0-.3.1l-.3.3h-.4v-.4c.2-.1.1-.3,0-.4-.1-.1-.2-.2-.4-.2h-5c-.2,0-.3,0-.4.2-.1.1-.1.3-.1.5v.4c0,0-.4,0-.4,0l-.2-.3c0,0-.2-.1-.3-.1h-1.4c-.3,0-.5.2-.5.5v1.2l.4.3v2.4h-1v-3.8c0-.2,0-.3-.2-.4h0s0-.1,0-.1c.3-.5.5-1,.5-1.6,0-1.3-.9-2.5-2.2-3h0l-.2-1.4c0-.4-.4-.5-.7-.5s-.6.2-.7.5l-.3,1.4h0c-1.3.4-2.2,1.6-2.2,3s.2,1.1.5,1.6h0c0,0,0,.1,0,.1-.1,0-.2.2-.2.4v4.8h-.7c-.2,0-.3,0-.4.2,0,.1,0,.2,0,.4v1.5l.4.4v12.3l-.5.5c0,0-.1.2-.1.3v1.7c0,.3.2.5.5.5h6.3l1-1.1h11.7l1.1,1.1h6.4c.3,0,.5-.2.5-.5v-1.5c0,0,0-.3,0-.3"/>
    </g>
  </g>
</svg>