<?xml version="1.0" encoding="UTF-8"?>
<svg id="Layer_2" data-name="Layer 2" xmlns="http://www.w3.org/2000/svg" viewBox="0 0 221.43 100.05">
  <defs>
    <style>
      .cls-1 {
        fill: none;
      }

      .cls-2 {
        fill: #ffcf00;
      }

      .cls-3 {
        fill: #212121;
      }

      .cls-4 {
        fill: #3d3d3d;
      }

      .cls-5 {
        fill: #00cf00;
      }

      .cls-6 {
        fill: red;
      }

      .cls-7 {
        fill: #173dff;
      }
    </style>
  </defs>
  <g id="Layer_1-2" data-name="Layer 1">
    <rect class="cls-1" width="221.43" height="100.05"/>
    <g>
      <polygon class="cls-3" points="5.5 37.34 5.5 33.18 3.78 36.34 3.24 36.34 1.51 33.18 1.51 37.34 .59 37.34 .59 31.5 1.57 31.5 3.51 35.07 5.45 31.5 6.44 31.5 6.44 37.34 5.5 37.34"/>
      <rect class="cls-3" x="9.4" y="31.5" width=".92" height="5.85"/>
      <polygon class="cls-3" points="14.21 33.21 14.21 37.34 13.29 37.34 13.29 31.5 14.05 31.5 17.37 35.72 17.37 31.5 18.29 31.5 18.29 37.34 17.48 37.34 14.21 33.21"/>
      <rect class="cls-3" x="21.26" y="31.5" width=".92" height="5.85"/>
      <path class="cls-3" d="M28.61,32.87c-.13-.14-.34-.27-.65-.4-.3-.13-.61-.19-.94-.19-.38,0-.66.07-.85.21-.19.14-.28.34-.28.6,0,.08,0,.15.03.22.02.06.05.12.08.17.03.05.08.1.15.14.06.05.13.09.2.12.06.03.15.07.27.1.12.04.22.07.32.09.1.03.23.06.39.1.26.06.48.12.66.18.18.06.36.14.52.23.17.09.31.2.41.31.1.11.18.25.24.41.06.16.09.35.09.56,0,.23-.04.44-.11.63-.07.19-.17.35-.31.48-.13.13-.29.24-.47.33-.18.09-.38.15-.59.19-.21.04-.44.06-.68.06-.44,0-.88-.07-1.29-.2-.42-.13-.79-.33-1.12-.58l.43-.79c.17.18.44.35.82.5.38.16.78.25,1.18.25.36,0,.65-.06.84-.2.19-.13.3-.31.3-.55,0-.09-.02-.18-.04-.26-.03-.08-.08-.15-.16-.21-.07-.06-.15-.12-.22-.16-.08-.05-.19-.1-.33-.14-.14-.05-.27-.09-.38-.12-.12-.03-.27-.08-.48-.13-.31-.08-.56-.16-.76-.24-.2-.08-.38-.18-.53-.31-.15-.12-.26-.27-.34-.43-.07-.16-.11-.36-.11-.59,0-.28.06-.53.17-.76.11-.23.26-.41.45-.56.19-.15.42-.26.67-.34.26-.08.54-.12.84-.12.72,0,1.38.22,1.98.66l-.42.76Z"/>
      <polygon class="cls-3" points="36.13 32.31 34.18 32.31 34.18 37.34 33.25 37.34 33.25 32.31 31.3 32.31 31.3 31.5 36.13 31.5 36.13 32.31"/>
      <path class="cls-3" d="M40.93,30.89l-.59-.18.47-.91h.86l-.74,1.09ZM42.57,36.53v.82h-4.02v-5.85h3.94v.82h-3.02v1.66h2.61v.77h-2.61v1.79h3.09Z"/>
      <path class="cls-3" d="M46.08,34.49h1.62c.26,0,.47-.11.63-.32.17-.21.25-.47.25-.77s-.09-.55-.28-.77c-.19-.22-.41-.32-.66-.32h-1.57v2.18ZM45.17,37.34v-5.85h2.55c.25,0,.5.06.72.17.23.11.43.25.58.43.16.18.28.38.37.61.09.23.14.46.14.69,0,.4-.11.75-.31,1.07-.21.32-.48.54-.83.65l1.37,2.22h-1.04l-1.27-2.03h-1.36v2.03h-.92Z"/>
      <rect class="cls-3" x="52.26" y="31.5" width=".92" height="5.85"/>
      <path class="cls-3" d="M58.59,36.55c.28,0,.54-.06.78-.19.24-.12.43-.28.59-.49.15-.2.27-.43.36-.68.09-.25.12-.51.12-.78s-.04-.54-.13-.8c-.09-.26-.22-.48-.37-.68-.16-.2-.36-.35-.59-.47-.23-.12-.49-.18-.76-.18-.29,0-.55.06-.79.18-.24.12-.44.28-.6.48-.15.2-.28.43-.36.68-.09.25-.13.51-.13.77,0,.37.07.72.22,1.04.15.32.37.59.66.79.29.2.62.3.99.3M55.78,34.42c0-.39.08-.76.22-1.12.14-.36.34-.68.59-.95.25-.27.55-.49.89-.65.35-.16.73-.25,1.12-.25s.79.09,1.14.26c.35.17.65.4.89.68.24.28.43.6.56.96.13.35.2.72.2,1.08,0,.39-.07.76-.22,1.12-.15.36-.34.68-.58.95-.24.27-.54.49-.89.65-.35.16-.72.25-1.12.25-.33,0-.64-.06-.93-.16-.29-.11-.55-.26-.78-.45-.22-.19-.42-.41-.59-.66-.16-.25-.29-.52-.37-.81s-.13-.59-.13-.88"/>
      <path class="cls-3" d="M69.75,32.31h-1.15v4.21h1.15c.4,0,.75-.09,1.04-.28.3-.19.51-.44.66-.76.14-.31.22-.68.22-1.08,0-.62-.17-1.13-.51-1.52-.34-.39-.81-.58-1.41-.58M67.68,37.34v-5.85h2.07c.46,0,.88.08,1.24.23.37.15.67.36.9.63.24.27.41.57.53.92.12.35.19.73.19,1.14,0,.89-.26,1.6-.78,2.13-.51.53-1.21.8-2.07.8h-2.07Z"/>
      <path class="cls-3" d="M78.08,35.07l-.94-2.56-.97,2.56h1.91ZM76.7,31.5h.87l2.27,5.85h-.98l-.62-1.59h-2.25l-.62,1.59h-.98l2.29-5.85Z"/>
      <path class="cls-3" d="M49.97,44.97s-.06-.03-.1-.06c-.04-.02-.12-.07-.24-.13-.12-.06-.25-.12-.36-.16s-.26-.09-.41-.13c-.15-.04-.3-.06-.43-.06-.32,0-.47.1-.47.29,0,.04,0,.08.02.12.02.03.04.07.08.09.04.03.08.06.11.08.04.02.1.04.17.07.07.03.13.05.19.07.06.01.14.04.24.07.11.03.2.06.27.08.23.07.44.14.6.21.16.07.32.16.48.26.15.1.28.21.37.33.09.12.17.26.22.43.06.17.09.37.09.57,0,.27-.04.52-.13.73-.09.22-.2.4-.35.53-.14.13-.31.25-.5.35-.19.09-.4.15-.6.19-.21.03-.42.05-.65.05-.43,0-.86-.06-1.32-.18-.46-.12-.87-.29-1.22-.5l.69-1.41s.06.04.11.07c.05.03.15.08.29.15.15.07.29.14.43.19.14.06.31.11.51.16.19.05.37.07.54.07.31,0,.47-.09.47-.26,0-.07-.02-.12-.06-.17-.04-.05-.11-.1-.2-.14-.09-.04-.18-.08-.27-.1-.09-.03-.21-.06-.37-.11-.16-.05-.29-.09-.4-.12-.53-.17-.9-.39-1.14-.63-.23-.25-.35-.59-.35-1.01,0-.31.06-.6.18-.85.12-.26.28-.46.48-.62.2-.16.43-.29.69-.37.26-.09.54-.13.83-.13.62,0,1.36.21,2.19.63l-.69,1.33Z"/>
      <path class="cls-3" d="M55.77,46.69l-.52-2.06-.55,2.06h1.06ZM54.35,43.06h1.8l1.87,5.85h-1.63l-.35-1.15h-1.56l-.35,1.15h-1.64l1.87-5.85Z"/>
      <path class="cls-3" d="M62.98,42.81l-.99-.26.41-1.17h1.39l-.81,1.43ZM62.48,48.95c-.37,0-.7-.05-.99-.15-.3-.1-.55-.25-.75-.42-.2-.18-.37-.39-.51-.64-.14-.24-.24-.51-.3-.79-.06-.28-.09-.58-.09-.9v-3.01h1.61v3.01c0,.2.02.39.06.56.04.18.1.33.17.47.08.14.19.25.33.32.14.08.29.12.47.12s.34-.04.48-.12c.14-.08.24-.19.32-.33.08-.14.14-.3.18-.47.04-.17.06-.35.06-.55v-3.01h1.61v3.01c0,.41-.06.8-.16,1.15-.1.34-.27.65-.48.91-.21.26-.49.47-.83.62-.34.15-.73.22-1.18.22"/>
      <path class="cls-3" d="M69.94,44.46h-.64v3.05h.64c.41,0,.74-.15.97-.43.24-.28.36-.65.36-1.11s-.12-.82-.36-1.1c-.24-.28-.56-.41-.97-.41M67.7,48.91v-5.85h2.25c.47,0,.9.07,1.28.22.38.15.69.36.93.63.24.27.42.58.55.93.12.35.19.73.19,1.13,0,.89-.27,1.59-.81,2.13-.54.54-1.25.8-2.15.8h-2.25Z"/>
      <polygon class="cls-3" points="79.41 47.51 79.41 48.91 75.24 48.91 75.24 43.06 79.34 43.06 79.34 44.46 76.85 44.46 76.85 45.28 78.98 45.28 78.98 46.58 76.85 46.58 76.85 47.51 79.41 47.51"/>
      <path d="M114.3,67.05c-.27,0-.51-.04-.72-.12-.21-.08-.39-.19-.53-.32-.14-.13-.26-.29-.35-.48-.09-.19-.16-.38-.2-.59-.04-.21-.06-.42-.06-.66v-2.19h.68v2.19c0,.17.01.32.04.46.02.15.06.29.12.42.06.14.13.25.22.35.09.1.2.17.34.23.14.06.29.09.47.09s.33-.03.47-.09c.14-.06.25-.14.34-.23.09-.1.16-.21.22-.35.06-.14.1-.27.12-.42.02-.15.03-.3.03-.46v-2.19h.69v2.19c0,.3-.04.59-.11.84-.07.25-.18.48-.32.68-.15.2-.34.36-.59.47-.24.11-.53.17-.85.17"/>
      <polygon points="118.98 63.97 118.98 67.02 118.3 67.02 118.3 62.7 118.86 62.7 121.31 65.82 121.31 62.7 122 62.7 122 67.02 121.4 67.02 118.98 63.97"/>
      <rect x="124.18" y="62.7" width=".69" height="4.32"/>
      <path d="M129.33,65.34l-.7-1.89-.71,1.89h1.41ZM128.23,61.89c-.06,0-.12.01-.16.04-.04.03-.07.06-.09.1-.02.04-.03.07-.04.09,0,.02,0,.05,0,.06h-.38s0-.07.02-.12c.02-.05.04-.11.07-.18.03-.07.07-.13.12-.19.05-.06.11-.11.19-.15.08-.04.17-.06.26-.06.1,0,.2.02.29.07.09.04.18.09.26.13.08.05.16.07.25.07.05,0,.1,0,.15-.03.04-.02.08-.04.1-.06.02-.03.04-.05.06-.09.01-.03.02-.05.03-.07,0-.02,0-.03,0-.04h.38s0,.07-.02.12c-.01.05-.04.11-.07.18-.03.07-.08.13-.13.19-.05.06-.12.11-.2.16-.08.04-.18.06-.28.06s-.21-.02-.3-.06c-.1-.04-.18-.09-.26-.13-.08-.04-.16-.07-.23-.07M128.31,62.7h.65l1.68,4.32h-.72l-.46-1.18h-1.67l-.45,1.18h-.73l1.7-4.32Z"/>
      <path d="M134.03,66.44c.21,0,.4-.05.58-.14.18-.09.32-.21.43-.36.11-.15.2-.32.26-.51.06-.19.1-.37.1-.57s-.03-.4-.1-.59c-.07-.19-.16-.36-.28-.5-.11-.15-.26-.26-.43-.35-.18-.08-.36-.13-.56-.13s-.4.04-.58.13c-.18.09-.32.21-.44.36-.11.15-.2.32-.27.5-.06.19-.09.38-.09.57,0,.28.06.53.16.77.11.24.27.43.49.58.22.15.46.23.73.23M131.95,64.86c0-.28.05-.56.16-.83.11-.27.25-.5.43-.7.18-.2.4-.36.66-.48.26-.12.54-.18.83-.18s.58.06.84.19c.26.13.48.29.66.5.18.21.31.44.42.71.1.26.15.53.15.8,0,.29-.05.56-.16.82-.11.26-.25.5-.43.7-.18.2-.4.36-.66.48-.26.12-.53.18-.83.18-.24,0-.47-.04-.69-.12-.22-.08-.41-.19-.57-.33-.17-.14-.31-.3-.43-.49-.12-.19-.21-.39-.28-.6-.06-.22-.09-.43-.09-.65"/>
      <polygon points="143.7 66.42 143.7 67.02 140.74 67.02 140.74 62.7 143.65 62.7 143.65 63.3 141.42 63.3 141.42 64.53 143.35 64.53 143.35 65.1 141.42 65.1 141.42 66.42 143.7 66.42"/>
      <path d="M149.02,64.91h1.2c.19,0,.35-.08.47-.24.12-.16.18-.35.18-.57s-.07-.41-.21-.57c-.14-.15-.3-.24-.48-.24h-1.16v1.61ZM148.34,67.02v-4.32h1.88c.19,0,.37.04.54.12.17.08.31.19.43.32.12.13.21.28.27.45.07.17.1.34.1.51,0,.29-.08.56-.23.8-.15.24-.36.4-.61.48l1.02,1.64h-.77l-.94-1.5h-1.01v1.5h-.68Z"/>
      <polygon points="156.55 66.42 156.55 67.02 153.58 67.02 153.58 62.7 156.5 62.7 156.5 63.3 154.26 63.3 154.26 64.53 156.2 64.53 156.2 65.1 154.26 65.1 154.26 66.42 156.55 66.42"/>
      <path d="M160.21,62.67c.38,0,.71.09,1,.26.29.17.5.4.65.69l-.53.36c-.06-.13-.13-.23-.22-.33-.09-.09-.18-.16-.29-.21-.1-.05-.21-.09-.31-.11-.1-.03-.21-.03-.32-.03-.18,0-.34.03-.49.09-.15.06-.28.14-.39.24-.11.1-.2.22-.28.35-.07.14-.13.28-.17.42-.03.15-.06.3-.06.45,0,.28.06.54.18.78.12.24.28.44.5.58.21.15.46.22.72.22.15,0,.29-.02.43-.07.14-.04.28-.13.41-.23.13-.11.23-.25.31-.41l.57.32c-.09.21-.22.38-.42.54-.19.16-.4.27-.63.35-.23.07-.46.11-.69.11-.3,0-.57-.06-.83-.19-.26-.13-.48-.3-.66-.51-.18-.21-.32-.45-.42-.71-.1-.26-.15-.54-.15-.81,0-.21.03-.42.09-.62.06-.21.15-.41.27-.59.12-.18.26-.35.43-.49.16-.14.36-.25.59-.34.22-.08.47-.12.72-.12"/>
      <path d="M165.52,66.44c.21,0,.41-.05.58-.14.18-.09.32-.21.43-.36.11-.15.2-.32.26-.51.07-.19.1-.37.1-.57s-.03-.4-.1-.59c-.07-.19-.16-.36-.27-.5-.12-.15-.26-.26-.44-.35-.17-.08-.36-.13-.56-.13s-.4.04-.58.13c-.18.09-.32.21-.44.36-.12.15-.2.32-.27.5-.06.19-.09.38-.09.57,0,.28.05.53.16.77.11.24.27.43.48.58.22.15.46.23.73.23M163.44,64.86c0-.28.05-.56.16-.83.1-.27.25-.5.43-.7.18-.2.4-.36.66-.48.26-.12.54-.18.83-.18s.58.06.84.19c.26.13.48.29.65.5.18.21.31.44.41.71.1.26.15.53.15.8,0,.29-.05.56-.16.82s-.25.5-.43.7c-.18.2-.4.36-.66.48-.26.12-.53.18-.82.18-.24,0-.47-.04-.69-.12-.22-.08-.41-.19-.57-.33-.16-.14-.31-.3-.43-.49-.12-.19-.21-.39-.28-.6-.07-.22-.1-.43-.1-.65"/>
      <polygon points="170.2 63.97 170.2 67.02 169.51 67.02 169.51 62.7 170.08 62.7 172.52 65.82 172.52 62.7 173.21 62.7 173.21 67.02 172.61 67.02 170.2 63.97"/>
      <path d="M177.96,63.72c-.1-.1-.25-.2-.48-.3-.22-.09-.45-.14-.69-.14-.28,0-.49.05-.63.16-.14.1-.21.25-.21.44,0,.06,0,.12.02.16.02.05.04.09.06.13.02.04.06.07.11.11.05.03.1.06.15.08.05.03.12.05.2.08.08.03.16.05.24.07.07.02.17.04.29.07.19.04.35.09.49.13.13.05.26.1.39.17.12.07.23.15.3.23.07.08.14.19.18.31.04.12.07.26.07.41,0,.17-.03.32-.08.46-.06.14-.13.26-.23.35-.09.09-.21.18-.34.24-.14.06-.28.11-.43.14-.16.03-.32.05-.5.05-.33,0-.65-.05-.95-.15-.31-.1-.59-.24-.83-.43l.31-.59c.12.13.33.25.61.37.28.12.57.18.87.18.27,0,.48-.05.62-.14.15-.1.22-.23.22-.41,0-.07-.01-.14-.03-.19-.02-.06-.06-.11-.11-.15-.05-.05-.11-.09-.17-.12-.06-.04-.14-.07-.24-.1-.1-.04-.2-.07-.28-.09-.09-.02-.2-.05-.35-.09-.23-.06-.42-.12-.56-.18-.15-.06-.28-.14-.4-.22-.11-.09-.2-.2-.25-.32-.05-.12-.08-.26-.08-.43,0-.21.04-.4.12-.57.08-.16.19-.3.33-.41.14-.11.31-.19.5-.25.19-.06.4-.09.62-.09.53,0,1.02.16,1.46.49l-.31.56Z"/>
      <polygon points="183.52 63.3 182.08 63.3 182.08 67.02 181.39 67.02 181.39 63.3 179.95 63.3 179.95 62.7 183.52 62.7 183.52 63.3"/>
      <path d="M185.99,64.91h1.2c.19,0,.34-.08.47-.24.12-.16.18-.35.18-.57s-.07-.41-.21-.57c-.14-.15-.3-.24-.48-.24h-1.16v1.61ZM185.31,67.02v-4.32h1.88c.19,0,.37.04.54.12.17.08.31.19.43.32.12.13.21.28.27.45.07.17.1.34.1.51,0,.29-.08.56-.23.8-.15.24-.36.4-.61.48l1.02,1.64h-.77l-.94-1.5h-1.01v1.5h-.68Z"/>
      <path d="M192.35,67.05c-.27,0-.51-.04-.72-.12-.21-.08-.39-.19-.53-.32-.14-.13-.26-.29-.35-.48-.09-.19-.16-.38-.2-.59-.04-.21-.06-.42-.06-.66v-2.19h.69v2.19c0,.17.01.32.03.46.02.15.07.29.12.42.06.14.13.25.22.35.09.1.2.17.34.23.13.06.29.09.47.09s.33-.03.47-.09c.14-.06.25-.14.34-.23.09-.1.16-.21.22-.35.06-.14.1-.27.12-.42.02-.15.03-.3.03-.46v-2.19h.69v2.19c0,.3-.04.59-.11.84-.07.25-.18.48-.32.68-.15.2-.34.36-.59.47-.25.11-.53.17-.85.17"/>
      <path d="M199.88,66.05c-.11.26-.3.49-.57.66-.27.17-.57.28-.89.33.21.18.31.37.31.59,0,.18-.06.32-.18.42-.12.1-.28.15-.49.15-.25,0-.49-.06-.72-.18l.17-.36c.15.09.3.13.43.13.12,0,.2-.03.27-.07.06-.05.1-.12.1-.21,0-.16-.11-.31-.33-.45-.28-.02-.53-.1-.78-.24-.24-.13-.44-.31-.61-.52-.17-.2-.29-.44-.39-.69-.1-.26-.14-.51-.14-.78,0-.21.03-.42.09-.62.06-.21.15-.41.27-.59.12-.18.26-.35.43-.49.17-.14.36-.25.59-.34.23-.08.47-.12.72-.12.38,0,.71.09,1,.26.29.17.5.4.65.69l-.54.36c-.06-.13-.13-.23-.22-.33-.09-.09-.18-.16-.28-.21-.11-.05-.21-.09-.31-.11-.11-.02-.21-.03-.32-.03-.18,0-.34.03-.49.09-.15.06-.28.14-.39.24-.1.1-.2.22-.28.35-.08.14-.14.28-.17.42-.04.15-.05.3-.05.45,0,.28.06.54.18.78.12.24.28.44.5.58.22.15.46.22.72.22.15,0,.29-.02.43-.07.14-.04.28-.13.41-.23.13-.11.23-.25.31-.41l.57.32Z"/>
      <path d="M203.93,65.34l-.69-1.89-.72,1.89h1.41ZM202.84,61.89c-.06,0-.12.01-.16.04-.04.03-.07.06-.09.1-.02.04-.03.07-.04.09,0,.02,0,.05,0,.06h-.38s0-.07.02-.12c.01-.05.03-.11.07-.18.03-.07.07-.13.12-.19.04-.06.11-.11.19-.15.08-.04.16-.06.26-.06s.2.02.29.07c.09.04.18.09.26.13.08.05.17.07.25.07.06,0,.11,0,.15-.03.04-.02.08-.04.1-.06.02-.03.04-.05.06-.09.01-.03.02-.05.02-.07,0-.02,0-.03,0-.04h.38s0,.07-.02.12c-.01.05-.04.11-.07.18-.03.07-.08.13-.12.19-.05.06-.12.11-.2.16-.08.04-.18.06-.28.06s-.21-.02-.3-.06-.18-.09-.26-.13c-.08-.04-.16-.07-.23-.07M202.92,62.7h.65l1.68,4.32h-.72l-.46-1.18h-1.67l-.45,1.18h-.72l1.69-4.32Z"/>
      <path d="M208.63,66.44c.21,0,.4-.05.58-.14.18-.09.32-.21.43-.36.11-.15.2-.32.26-.51.06-.19.09-.37.09-.57s-.03-.4-.1-.59c-.07-.19-.16-.36-.27-.5-.12-.15-.26-.26-.44-.35-.17-.08-.36-.13-.56-.13s-.4.04-.58.13c-.17.09-.32.21-.44.36-.12.15-.21.32-.27.5-.06.19-.1.38-.1.57,0,.28.06.53.17.77.11.24.27.43.48.58.22.15.46.23.73.23M206.56,64.86c0-.28.05-.56.16-.83.11-.27.25-.5.43-.7.18-.2.41-.36.66-.48.26-.12.54-.18.83-.18s.58.06.84.19c.26.13.48.29.65.5.18.21.32.44.42.71.1.26.15.53.15.8,0,.29-.05.56-.16.82-.1.26-.25.5-.43.7-.18.2-.4.36-.66.48-.26.12-.54.18-.83.18-.24,0-.47-.04-.69-.12-.22-.08-.41-.19-.58-.33-.16-.14-.31-.3-.43-.49-.12-.19-.22-.39-.28-.6-.06-.22-.1-.43-.1-.65"/>
      <polygon class="cls-5" points="135.59 44.53 124.2 44.53 124.2 56.01 143.05 56.01 135.59 44.53"/>
      <polygon class="cls-2" points="154.81 27.02 137.56 56.01 172.07 56.01 154.81 27.02"/>
      <rect class="cls-2" x="200.79" y="27.02" width="10.03" height="19.25"/>
      <rect class="cls-7" x="210.82" y="46.27" width="10.03" height="9.74"/>
      <rect class="cls-4" x="200.79" y="46.27" width="10.03" height="9.74"/>
      <rect class="cls-6" x="167.04" y="39.9" width="9.48" height="16.11"/>
      <polygon class="cls-4" points="137.56 56.01 143.05 56.01 140.19 51.6 137.56 56.01"/>
      <polygon class="cls-4" points="167.04 47.57 167.04 56.01 172.07 56.01 167.04 47.57"/>
      <rect class="cls-5" x="189.07" y="27.02" width="10.03" height="28.99"/>
      <path class="cls-7" d="M132.55,44.53h3.04c4.84,0,8.76-3.92,8.76-8.76s-3.92-8.75-8.76-8.75h-11.38v17.51h8.34Z"/>
      <rect class="cls-7" x="176.52" y="27.02" width="10.85" height="10.54"/>
      <path class="cls-2" d="M179.84,37.56h-3.32v18.45h3.32c5.1,0,9.23-4.13,9.23-9.22s-4.13-9.22-9.23-9.22"/>
      <path class="cls-5" d="M173.49,27.02c-3.56,0-6.44,2.88-6.44,6.44s2.88,6.44,6.44,6.44h3.04v-12.88h-3.04Z"/>
      <path class="cls-6" d="M111.28,56.01h4.24c4.8,0,8.68-3.89,8.68-8.68s-3.89-8.68-8.68-8.68h-13.33v17.36h9.08Z"/>
      <path class="cls-7" d="M102.19,38.65h12.35c3.22,0,5.82-2.6,5.82-5.82s-2.6-5.81-5.82-5.81h-12.35v11.63Z"/>
      <rect class="cls-5" x="102.2" y="27.02" width="10.03" height="11.63"/>
      <rect class="cls-2" x="102.2" y="38.65" width="10.03" height="17.36"/>
      <polygon class="cls-2" points="135.59 44.53 124.2 27.02 124.2 44.53 135.59 44.53"/>
      <path class="cls-7" d="M165.39,56.01c0-5.84-4.74-10.57-10.58-10.57s-10.58,4.73-10.58,10.57h21.16Z"/>
      <path d="M117.91,17.92v.43c0,1.72-1.15,2.83-2.67,2.83-1.62,0-2.89-1.26-2.89-2.87s1.28-2.89,2.88-2.89c1.01,0,1.94.52,2.46,1.37l-1.26.75c-.25-.44-.69-.69-1.21-.69-.81,0-1.38.62-1.38,1.46s.58,1.42,1.41,1.42c.58,0,.96-.29,1.09-.65h-1.49v-1.17h3.07Z"/>
      <path d="M124.12,18.3c0-.78-.56-1.36-1.28-1.36s-1.3.58-1.3,1.36.57,1.36,1.3,1.36,1.28-.58,1.28-1.36M119.95,18.3c0-1.6,1.28-2.88,2.89-2.88s2.88,1.28,2.88,2.88-1.28,2.88-2.88,2.88-2.89-1.28-2.89-2.88"/>
      <polygon points="132.89 15.55 130.73 21.05 129.25 21.05 127.12 15.55 128.72 15.55 130 18.94 131.3 15.55 132.89 15.55"/>
      <polygon points="136.31 16.89 136.31 17.71 137.93 17.71 137.93 18.89 136.31 18.89 136.31 19.71 138.77 19.71 138.77 21.05 134.82 21.05 134.82 15.55 138.77 15.55 138.77 16.89 136.31 16.89"/>
      <path d="M142.53,17.9h1.03c.35,0,.57-.24.57-.51s-.21-.52-.57-.52h-1.03v1.03ZM143.15,19.15h-.62v1.9h-1.47v-5.51h2.66c1.08,0,1.9.77,1.9,1.79,0,.7-.38,1.29-.97,1.59l1.22,2.12h-1.64l-1.09-1.9Z"/>
      <polygon points="152.87 15.55 152.87 21.05 151.61 21.05 149.39 18.15 149.39 21.05 147.93 21.05 147.93 15.55 149.17 15.55 151.4 18.45 151.4 15.55 152.87 15.55"/>
      <path d="M159.17,18.3c0-.78-.56-1.36-1.28-1.36s-1.3.58-1.3,1.36.57,1.36,1.3,1.36,1.28-.58,1.28-1.36M155,18.3c0-1.6,1.28-2.88,2.89-2.88s2.88,1.28,2.88,2.88-1.28,2.88-2.88,2.88-2.89-1.28-2.89-2.88"/>
      <polygon points="168.04 16.87 168.04 17.8 169.66 17.8 169.66 19.04 168.04 19.04 168.04 21.05 166.55 21.05 166.55 15.55 170.5 15.55 170.5 16.87 168.04 16.87"/>
      <polygon points="174.21 16.89 174.21 17.71 175.83 17.71 175.83 18.89 174.21 18.89 174.21 19.71 176.67 19.71 176.67 21.05 172.73 21.05 172.73 15.55 176.67 15.55 176.67 16.89 174.21 16.89"/>
      <path d="M182.6,18.3c0-.8-.6-1.32-1.47-1.32h-.67v2.64h.67c.87,0,1.47-.52,1.47-1.32M184.14,18.3c0,1.58-1.26,2.75-2.94,2.75h-2.24v-5.51h2.24c1.68,0,2.94,1.17,2.94,2.75"/>
      <polygon points="187.77 16.89 187.77 17.71 189.39 17.71 189.39 18.89 187.77 18.89 187.77 19.71 190.22 19.71 190.22 21.05 186.28 21.05 186.28 15.55 190.22 15.55 190.22 16.89 187.77 16.89"/>
      <path d="M193.98,17.9h1.04c.35,0,.57-.24.57-.51s-.21-.52-.57-.52h-1.04v1.03ZM194.6,19.15h-.62v1.9h-1.47v-5.51h2.66c1.08,0,1.9.77,1.9,1.79,0,.7-.38,1.29-.96,1.59l1.22,2.12h-1.65l-1.09-1.9Z"/>
      <path d="M202.53,18.79l-.55-1.35-.55,1.35h1.1ZM203.07,20.11h-2.18l-.38.95h-1.54l2.3-5.51h1.41l2.33,5.51h-1.54l-.39-.95Z"/>
      <polygon points="210.82 19.64 210.82 21.05 206.94 21.05 206.94 15.55 208.5 15.55 208.5 19.64 210.82 19.64"/>
      <path d="M117.91,17.92v.43c0,1.72-1.15,2.83-2.67,2.83-1.62,0-2.89-1.26-2.89-2.87s1.28-2.89,2.88-2.89c1.01,0,1.94.52,2.46,1.37l-1.26.75c-.25-.44-.69-.69-1.21-.69-.81,0-1.38.62-1.38,1.46s.58,1.42,1.41,1.42c.58,0,.96-.29,1.09-.65h-1.49v-1.17h3.07Z"/>
      <path d="M124.12,18.3c0-.78-.56-1.36-1.28-1.36s-1.3.58-1.3,1.36.57,1.36,1.3,1.36,1.28-.58,1.28-1.36M119.95,18.3c0-1.6,1.28-2.88,2.89-2.88s2.88,1.28,2.88,2.88-1.28,2.88-2.88,2.88-2.89-1.28-2.89-2.88"/>
      <polygon points="132.89 15.55 130.73 21.05 129.25 21.05 127.12 15.55 128.72 15.55 130 18.94 131.3 15.55 132.89 15.55"/>
      <polygon points="136.31 16.89 136.31 17.71 137.93 17.71 137.93 18.89 136.31 18.89 136.31 19.71 138.77 19.71 138.77 21.05 134.82 21.05 134.82 15.55 138.77 15.55 138.77 16.89 136.31 16.89"/>
      <path d="M142.53,17.9h1.03c.35,0,.57-.24.57-.51s-.21-.52-.57-.52h-1.03v1.03ZM143.15,19.15h-.62v1.9h-1.47v-5.51h2.66c1.08,0,1.9.77,1.9,1.79,0,.7-.38,1.29-.97,1.59l1.22,2.12h-1.64l-1.09-1.9Z"/>
      <polygon points="152.87 15.55 152.87 21.05 151.61 21.05 149.39 18.15 149.39 21.05 147.93 21.05 147.93 15.55 149.17 15.55 151.4 18.45 151.4 15.55 152.87 15.55"/>
      <path d="M159.17,18.3c0-.78-.56-1.36-1.28-1.36s-1.3.58-1.3,1.36.57,1.36,1.3,1.36,1.28-.58,1.28-1.36M155,18.3c0-1.6,1.28-2.88,2.89-2.88s2.88,1.28,2.88,2.88-1.28,2.88-2.88,2.88-2.89-1.28-2.89-2.88"/>
      <polygon points="168.04 16.87 168.04 17.8 169.66 17.8 169.66 19.04 168.04 19.04 168.04 21.05 166.55 21.05 166.55 15.55 170.5 15.55 170.5 16.87 168.04 16.87"/>
      <polygon points="174.21 16.89 174.21 17.71 175.83 17.71 175.83 18.89 174.21 18.89 174.21 19.71 176.67 19.71 176.67 21.05 172.73 21.05 172.73 15.55 176.67 15.55 176.67 16.89 174.21 16.89"/>
      <path d="M182.6,18.3c0-.8-.6-1.32-1.47-1.32h-.67v2.64h.67c.87,0,1.47-.52,1.47-1.32M184.14,18.3c0,1.58-1.26,2.75-2.94,2.75h-2.24v-5.51h2.24c1.68,0,2.94,1.17,2.94,2.75"/>
      <polygon points="187.77 16.89 187.77 17.71 189.39 17.71 189.39 18.89 187.77 18.89 187.77 19.71 190.22 19.71 190.22 21.05 186.28 21.05 186.28 15.55 190.22 15.55 190.22 16.89 187.77 16.89"/>
      <path d="M193.98,17.9h1.04c.35,0,.57-.24.57-.51s-.21-.52-.57-.52h-1.04v1.03ZM194.6,19.15h-.62v1.9h-1.47v-5.51h2.66c1.08,0,1.9.77,1.9,1.79,0,.7-.38,1.29-.96,1.59l1.22,2.12h-1.65l-1.09-1.9Z"/>
      <path d="M202.53,18.79l-.55-1.35-.55,1.35h1.1ZM203.07,20.11h-2.18l-.38.95h-1.54l2.3-5.51h1.41l2.33,5.51h-1.54l-.39-.95Z"/>
      <polygon points="210.82 19.64 210.82 21.05 206.94 21.05 206.94 15.55 208.5 15.55 208.5 19.64 210.82 19.64"/>
    </g>
  </g>
</svg>