<?xml version="1.0" encoding="UTF-8"?>
<svg id="Layer_2" data-name="Layer 2" xmlns="http://www.w3.org/2000/svg" viewBox="0 0 105.07 100.05">
  <defs>
    <style>
      .cls-1 {
        fill: none;
      }
    </style>
  </defs>
  <g id="Layer_1-2" data-name="Layer 1">
    <rect class="cls-1" width="105.07" height="100.05"/>
    <g>
      <path d="M41.41,36.82h-9.06c-.22,0-.34.12-.34.34v17.08c0,.22.12.34.34.34h1.27c.22,0,.34-.12.34-.34v-7.78h5.01c.22,0,.34-.12.34-.34v-1.05c0-.22-.12-.34-.34-.34h-5.01s0-6.19,0-6.19h7.44c.22,0,.34-.12.34-.34v-1.05c0-.22-.12-.34-.34-.34"/>
      <path d="M44.16,36.82h-1.27c-.22,0-.34.12-.34.34v17.08c0,.22.12.34.34.34h1.27c.22,0,.34-.12.34-.34v-17.08c0-.22-.12-.34-.34-.34"/>
      <path d="M55.2,41.89v7.66c0,1-.3,1.81-.89,2.42-.59.61-1.7.92-2.68.92s-1.91-.31-2.5-.92c-.59-.61-.89-1.43-.89-2.42v-7.66c0-1.02.3-1.84.9-2.46.59-.62,1.54-.93,2.5-.93s2.09.31,2.68.93c.59.62.9,1.45.9,2.46M54.65,37.42c-.78-.43-2.01-.65-3.03-.65s-2.09.22-2.88.65c-.78.43-1.4,1.05-1.83,1.83-.43.78-.65,1.69-.65,2.7v7.54c0,1.01.22,1.91.65,2.68.43.78,1.04,1.39,1.83,1.82.78.43,1.85.65,2.88.65s2.25-.22,3.03-.65c.78-.43,1.4-1.04,1.84-1.82.44-.77.66-1.68.66-2.68v-7.54c0-1.01-.22-1.91-.66-2.7-.44-.78-1.06-1.4-1.84-1.83"/>
      <path d="M64.03,36.77c-1.53,0-2.93.46-3.87,1.36-.94.9-1.41,2.12-1.41,3.61v7.89c0,1.5.47,2.72,1.41,3.63.93.91,2.65,1.37,4.18,1.37s2.8-.46,3.74-1.36c.94-.9,1.41-2.11,1.41-3.59v-.17c0-.22-.12-.34-.34-.34h0l-1.28-.07c-.22,0-.34.12-.34.32v.35c0,.93-.3,1.7-.88,2.27-.58.58-1.36.87-2.31.87s-2.19-.29-2.77-.86c-.58-.57-.87-1.34-.87-2.29v-8.11c0-.95.29-1.72.87-2.29.58-.57,1.51-.86,2.45-.86s2.04.29,2.62.87c.58.58.88,1.34.88,2.27v.35c0,.2.12.32.35.32h0l1.27-.05c.22,0,.34-.12.34-.34v-.22c0-1.48-.47-2.68-1.41-3.58-.93-.89-2.5-1.34-4.05-1.34"/>
      <path d="M80.04,41.72c0,.93-.26,1.86-.77,2.43-.51.57-1.19.87-2.02.87h-4.06v-6.46h0s4.06,0,4.06,0c.83,0,1.51.29,2.02.87.51.58.77,1.35.77,2.3M78.87,46.44h0c.96-.27,1.73-.82,2.28-1.63.56-.81.84-1.95.84-3.1,0-.96-.19-1.82-.57-2.56-.38-.74-.92-1.32-1.6-1.73-.68-.41-1.47-.61-2.35-.61h-5.9c-.22,0-.34.12-.34.34v17.08c0,.22.12.34.34.34h1.27c.22,0,.34-.12.34-.34v-7.62h3.84v.02s3.1,7.69,3.1,7.69c.06.17.19.26.36.26h1.32c.2,0,.32-.11.32-.29l-.03-.14-3.21-7.72Z"/>
      <path d="M94.09,36.82h-1.27c-.22,0-.34.12-.34.34v12.3c0,1.03-.3,1.87-.9,2.5-.59.62-1.62.94-2.58.94s-1.99-.32-2.58-.94c-.59-.63-.9-1.47-.9-2.5v-12.3c0-.22-.12-.34-.34-.34h-1.27c-.22,0-.34.12-.34.34v12.2c0,1.04.22,1.97.65,2.76.43.79,1.05,1.42,1.83,1.85.78.44,1.93.66,2.95.66s2.17-.22,2.95-.66c.78-.44,1.4-1.06,1.83-1.85.43-.79.65-1.72.65-2.76v-12.2c0-.22-.12-.34-.34-.34"/>
      <path d="M105.07,38.33v-1.17c0-.22-.12-.34-.34-.34h-9.14c-.22,0-.34.12-.34.34v1.05c0,.22.12.34.34.34h7.31s-7.56,14.01-7.56,14.01c-.05.13-.08.4-.08.52v1.17c0,.22.12.34.34.34h9.14c.22,0,.34-.12.34-.34v-1.05c0-.22-.12-.34-.34-.34h-7.31s7.57-14.17,7.57-14.17c.05-.14.08-.26.08-.36"/>
      <path d="M26.26,53.23h-4.99l-1.07-1.07H7.32l-1.07,1.07H1.47v-.42l.64-.66v-13.04l-.42-.39v-.66h1.23v-5.28l.41-.42v-1.04c-.05-.04-.1-.09-.15-.14-.11-.1-.2-.23-.27-.37-.13-.24-.2-.51-.2-.8,0-.93.76-1.69,1.69-1.69s1.69.76,1.69,1.69c0,.37-.12.72-.33,1-.01.02-.03.04-.05.06,0,0,0,.01-.01.02-.03.03-.05.06-.08.09-.04.04-.09.09-.14.13v1.04l.4.41v4.48h3.08l.76-.78v-3.36h2.71v-.87h2.74v.88h2.71s0,3.28,0,3.28l.83.85h3v-4.49l.41-.41v-1.03c-.06-.05-.12-.11-.18-.17-.1-.09-.17-.2-.23-.32-.14-.24-.22-.53-.22-.83,0-.93.76-1.69,1.69-1.69s1.69.76,1.69,1.69c0,.37-.12.71-.32.99-.02.03-.04.05-.06.08,0,0,0,0-.01.01-.03.03-.05.06-.08.09-.04.05-.09.09-.14.13v1.04l.4.38v5.31h1.25v.74l-.45.45v12.96l.8.8v.23ZM27.51,52.28s-.02-.04-.03-.06v-.02s-.05-.05-.07-.07l-.54-.53v-12.23l.44-.43v-1.48c0-.15,0-.28-.09-.39-.1-.13-.24-.2-.4-.2h-.76v-4.74c0-.16-.08-.32-.23-.41l-.06-.04.04-.06c.3-.49.46-1.05.46-1.61,0-1.32-.88-2.54-2.15-2.95h-.04s-.23-1.42-.23-1.42c-.07-.38-.38-.55-.67-.56-.27,0-.58.18-.65.55l-.26,1.41h-.04c-1.28.42-2.17,1.64-2.17,2.97,0,.56.16,1.12.45,1.61l.03.06-.06.04c-.13.09-.21.24-.21.41v3.76h-1.01v-2.41l.34-.33v-1.23c0-.27-.22-.49-.49-.49h-1.42c-.1,0-.22.01-.3.1l-.29.33h-.44l.12-.37c.03-.15,0-.31-.1-.43-.1-.13-.25-.2-.4-.2h-4.97c-.16,0-.31.07-.41.19-.1.13-.14.29-.1.46l.06.35h-.46l-.25-.33c-.07-.09-.19-.11-.3-.11h-1.42c-.27,0-.49.22-.49.49v1.23l.35.33v2.41h-1.02v-3.75c0-.17-.08-.32-.22-.41l-.06-.04.04-.06c.3-.49.46-1.05.46-1.61,0-1.32-.89-2.54-2.15-2.95h-.04s-.24-1.42-.24-1.42c-.06-.38-.39-.55-.66-.55-.34,0-.6.22-.65.54l-.26,1.42h-.04c-1.28.42-2.17,1.64-2.17,2.97,0,.56.16,1.12.45,1.61l.03.06-.06.04c-.14.09-.21.24-.21.41v4.77h-.74c-.16,0-.3.07-.4.2-.08.11-.09.24-.09.37v1.49l.43.4v12.27l-.5.54c-.09.09-.14.21-.14.34v1.67c0,.27.22.5.49.5h6.34l1.05-1.08h11.67l1.06,1.08h6.37c.27,0,.49-.22.49-.5v-1.52c0-.07-.01-.29-.04-.35"/>
    </g>
  </g>
</svg>