<?xml version="1.0" encoding="UTF-8"?>
<svg id="Layer_2" xmlns="http://www.w3.org/2000/svg" version="1.1" viewBox="0 0 58 100.1">
  <!-- Generator: Adobe Illustrator 29.4.0, SVG Export Plug-In . SVG Version: 2.1.0 Build 152)  -->
  <defs>
    <style>
      .st0 {
        fill: #005baa;
      }

      .st1 {
        fill: #98241e;
      }
    </style>
  </defs>
  <path class="st0" d="M44.2,47.4v-1.3l-1.1-1.1-1.6-.3,3.2-2.2-.5-1,.2-.7h-.6l-.2-1-1.4-.4.3-1.9v-1.6h-1.2l-.2-1.6-2.6-1.1-.8-1.4.5-.3.7,1.2,2.8,1.1.2,1.6h1.1l.2,2.2-.2,1.5,1.2.3.2.9h.9l-.3,1.2.6,1.2-2.4,1.6h.4l1.5,1.4h0l2.4-2.3v-1.5l3.2-1.4,1.2.4,1.4-1.4v-.7l1.1-1.5v-1.5l3.1-2.3v-1.8h-.6l-1.8-2.2h-1.5l-.6-.5-.5.4-1.6-1.6h-.2l-.9.8-1.7-.7,1.3-.8h-.3l-1.6.8,1.5-2-.4-1.4-.6.8-1.2.2-.6-.3-2.2.6-.8-1.2.4-1-.2-.3-1.8.7-.8-.4v.4l1.6.6-2.5.9-1.2-.3v-.5l-1.1.2.5,1-.9-.2.2.8-.7,1.7-2.3,1-.2,1.3,1.1,1.5-.6.5-1.2-1.8.3-1.9,2.3-1,.5-1.3-.4-1.5h.6l-.3-.4,2.5-.4v.7h.7l.9-.3-.4-.2-.5-1.9,1.8.9,2-.8.7,1-.4,1,.4.6,2-.6.6.3h.8l1.2-1.7.8,2.9-.3.5h1.2v.8h.7l1.4,1.4.5-.4.8.7h1.6l1.8,2.3h1.1l-.2,2.7-3.2,2.3v1.4l-1.1,1.5v.7l-1.7,1.9-1.4-.4-2.6,1.1v1.4l-3.7,3.6-.3-.3h0ZM49,27.9h.6-.4s-.2,0-.2,0Z"/>
  <g>
    <polygon class="st1" points="0 41 0 29 5.9 29 5.9 31.9 3.3 31.9 3.3 33.7 5.6 33.7 5.6 36.5 3.3 36.5 3.3 41 0 41"/>
    <path class="st1" d="M6.7,36.7v-7.7h3.3v8c0,.3,0,.6.2.8.1.2.3.3.6.3s.5,0,.6-.3c.1-.2.2-.4.2-.8v-8h3.3v7.7c0,1.6-.3,2.7-1,3.4s-1.7,1.1-3.1,1.1-2.5-.4-3.1-1.1c-.7-.7-1-1.9-1-3.4"/>
    <polygon class="st1" points="16.2 41 16.2 29 19.5 29 21.4 35.3 21.4 29 24.4 29 24.4 41 21.1 41 19.3 35 19.3 41 16.2 41"/>
    <path class="st1" d="M24.9,41l2.6-11.9h3.7l2.6,11.9h-3.2l-.3-1.8h-2l-.3,1.8h-3.3s.2,0,.2,0ZM28.7,36.8h1.3l-.7-4.4-.7,4.4h.1Z"/>
    <path class="st1" d="M34,37c.5.4.9.7,1.3.9.4.2.7.3,1,.3s.5,0,.7-.2.3-.4.3-.6-.3-.7-.9-1.2h0c-1-.9-1.6-1.6-1.9-2.1-.3-.5-.4-1.1-.4-1.6,0-1,.3-1.8,1-2.5s1.6-1,2.6-1,.9,0,1.3.2c.4,0,.9.3,1.4.5v3.1c-.4-.3-.8-.6-1.1-.7-.3-.2-.7-.2-1-.2s-.5,0-.6.2c-.2,0-.2.3-.2.5,0,.3.3.7.9,1.1h0c1,.8,1.6,1.5,1.9,2,.3.5.4,1.1.4,1.8,0,1.2-.4,2.1-1.1,2.8-.7.7-1.7,1.1-2.9,1.1s-.9,0-1.4-.2c-.5,0-.9-.4-1.4-.7v-3.5h.1Z"/>
    <path class="st1" d="M40.8,41l2.6-11.9h3.7l2.6,11.9h-3.2l-.3-1.8h-2l-.3,1.8h-3.3.2ZM44.6,36.8h1.3l-.7-4.4-.7,4.4h.1Z"/>
  </g>
</svg>