<?xml version="1.0" encoding="UTF-8"?>
<svg id="Layer_1" xmlns="http://www.w3.org/2000/svg" version="1.1" viewBox="0 0 672 230">
  <!-- Generator: Adobe Illustrator 29.0.0, SVG Export Plug-In . SVG Version: 2.1.0 Build 186)  -->
  <defs>
    <style>
      .st0 {
        fill: #93b699;
      }

      .st1 {
        fill: #f9d2c5;
      }

      .st2 {
        fill: #c09768;
      }

      .st3 {
        fill: #b0c9ae;
      }

      .st4 {
        fill: #87b291;
      }

      .st5 {
        fill: #95b99c;
      }

      .st6 {
        fill: #86b691;
      }

      .st7 {
        fill: #2a9059;
      }

      .st8 {
        fill: #278e57;
      }

      .st9 {
        fill: #8fb794;
      }

      .st10 {
        fill: #7bb08a;
      }

      .st11 {
        fill: #2a9058;
      }

      .st12 {
        fill: #31915d;
      }

      .st13 {
        fill: #3f9866;
      }

      .st14 {
        fill: #a5c6a9;
      }

      .st15 {
        fill: #6aa37a;
      }

      .st16 {
        fill: #74ae85;
      }

      .st17 {
        fill: #adc5ac;
      }

      .st18 {
        fill: #87b692;
      }

      .st19 {
        fill: #269158;
      }

      .st20 {
        fill: #81ae8b;
      }

      .st21 {
        fill: #8cba94;
      }

      .st22 {
        fill: #43976b;
      }

      .st23 {
        fill: #7bab87;
      }

      .st24 {
        fill: #289058;
      }

      .st25 {
        fill: #72a67e;
      }

      .st26 {
        fill: #30915e;
      }

      .st27 {
        fill: #83b38c;
      }

      .st28 {
        fill: #2b915a;
      }

      .st29 {
        fill: #b9cdb6;
      }

      .st30 {
        fill: #2d905b;
      }

      .st31 {
        fill: #8eb693;
      }

      .st32 {
        fill: #2d915a;
      }

      .st33 {
        fill: #409468;
      }

      .st34 {
        fill: #2c915c;
      }

      .st35 {
        fill: #8ab494;
      }

      .st36 {
        fill: #b0caab;
      }

      .st37 {
        fill: #75ac83;
      }

      .st38 {
        fill: #2e905a;
      }

      .st39 {
        fill: #87b393;
      }

      .st40 {
        fill: #3e9767;
      }

      .st41 {
        fill: #8bb592;
      }

      .st42 {
        fill: #3a9461;
      }

      .st43 {
        fill: #f9d1c5;
      }

      .st44 {
        fill: #f3f6ed;
      }

      .st45 {
        fill: #208c55;
      }

      .st46 {
        fill: #067389;
      }

      .st47 {
        fill: #268f58;
      }

      .st48 {
        fill: #2c925b;
      }

      .st49 {
        fill: #85b492;
      }

      .st50 {
        fill: #2d925a;
      }

      .st51 {
        fill: #278f59;
      }

      .st52 {
        fill: #6aa37c;
      }

      .st53 {
        fill: #7fae88;
      }

      .st54 {
        fill: #a9cbad;
      }
    </style>
  </defs>
  <g>
    <circle class="st46" cx="126.5" cy="-58.4" r="1.2"/>
    <circle class="st46" cx="138" cy="-58.4" r="1.2"/>
    <circle class="st46" cx="149.5" cy="-58.4" r="1.2"/>
    <circle class="st46" cx="159.9" cy="-58.4" r="1.2"/>
    <circle class="st46" cx="171.4" cy="-58.4" r="1.2"/>
    <circle class="st46" cx="181.8" cy="-58.4" r="1.2"/>
    <circle class="st46" cx="192.1" cy="-58.4" r="1.2"/>
    <circle class="st46" cx="126.5" cy="-46.9" r="1.2"/>
    <circle class="st46" cx="138" cy="-46.9" r="1.2"/>
    <circle class="st46" cx="149.5" cy="-46.9" r="1.2"/>
    <circle class="st46" cx="159.9" cy="-46.9" r="1.2"/>
    <circle class="st46" cx="171.4" cy="-46.9" r="1.2"/>
    <circle class="st46" cx="181.8" cy="-46.9" r="1.2"/>
    <circle class="st46" cx="192.1" cy="-46.9" r="1.2"/>
    <circle class="st46" cx="126.5" cy="-36.1" r="1.2"/>
    <circle class="st46" cx="138" cy="-36.1" r="1.2"/>
    <circle class="st46" cx="149.5" cy="-36.1" r="1.2"/>
    <circle class="st46" cx="159.9" cy="-36.1" r="1.2"/>
    <circle class="st46" cx="171.4" cy="-36.1" r="1.2"/>
    <circle class="st46" cx="181.8" cy="-36.1" r="1.2"/>
    <circle class="st46" cx="192.1" cy="-36.1" r="1.2"/>
    <circle class="st46" cx="126.5" cy="-25.4" r="1.2"/>
    <circle class="st46" cx="138" cy="-25.4" r="1.2"/>
    <circle class="st46" cx="149.5" cy="-25.4" r="1.2"/>
    <circle class="st46" cx="159.9" cy="-25.4" r="1.2"/>
    <circle class="st46" cx="171.4" cy="-25.4" r="1.2"/>
    <circle class="st46" cx="181.8" cy="-25.4" r="1.2"/>
    <circle class="st46" cx="192.1" cy="-25.4" r="1.2"/>
    <circle class="st46" cx="126.5" cy="-14.6" r="1.2"/>
    <circle class="st46" cx="138" cy="-14.6" r="1.2"/>
    <circle class="st46" cx="149.5" cy="-14.6" r="1.2"/>
    <circle class="st46" cx="159.9" cy="-14.6" r="1.2"/>
    <circle class="st46" cx="171.4" cy="-14.6" r="1.2"/>
    <circle class="st46" cx="181.8" cy="-14.6" r="1.2"/>
    <circle class="st46" cx="192.1" cy="-14.6" r="1.2"/>
    <circle class="st46" cx="126.5" cy="-3.9" r="1.2"/>
    <circle class="st46" cx="138" cy="-3.9" r="1.2"/>
    <circle class="st46" cx="149.5" cy="-3.9" r="1.2"/>
    <circle class="st46" cx="159.9" cy="-3.9" r="1.2"/>
    <circle class="st46" cx="171.4" cy="-3.9" r="1.2"/>
    <circle class="st46" cx="181.8" cy="-3.9" r="1.2"/>
    <circle class="st46" cx="192.1" cy="-3.9" r="1.2"/>
    <circle class="st46" cx="126.5" cy="6.8" r="1.2"/>
    <circle class="st46" cx="138" cy="6.8" r="1.2"/>
    <circle class="st46" cx="149.5" cy="6.8" r="1.2"/>
    <circle class="st46" cx="159.9" cy="6.8" r="1.2"/>
    <circle class="st46" cx="171.4" cy="6.8" r="1.2"/>
    <circle class="st46" cx="181.8" cy="6.8" r="1.2"/>
    <circle class="st46" cx="192.1" cy="6.8" r="1.2"/>
    <circle class="st46" cx="126.5" cy="17.6" r="1.2"/>
    <circle class="st46" cx="138" cy="17.6" r="1.2"/>
    <circle class="st46" cx="149.5" cy="17.6" r="1.2"/>
    <circle class="st46" cx="159.9" cy="17.6" r="1.2"/>
    <circle class="st46" cx="171.4" cy="17.6" r="1.2"/>
    <circle class="st46" cx="181.8" cy="17.6" r="1.2"/>
    <circle class="st46" cx="192.1" cy="17.6" r="1.2"/>
    <circle class="st46" cx="126.5" cy="28.3" r="1.2"/>
    <circle class="st46" cx="138" cy="28.3" r="1.2"/>
    <circle class="st46" cx="149.5" cy="28.3" r="1.2"/>
    <circle class="st46" cx="159.9" cy="28.3" r="1.2"/>
    <circle class="st46" cx="171.4" cy="28.3" r="1.2"/>
    <circle class="st46" cx="181.8" cy="28.3" r="1.2"/>
    <circle class="st46" cx="192.1" cy="28.3" r="1.2"/>
    <circle class="st46" cx="95.4" cy="-58.4" r="1.2"/>
    <circle class="st46" cx="105.8" cy="-58.4" r="1.2"/>
    <circle class="st46" cx="116.2" cy="-58.4" r="1.2"/>
    <circle class="st46" cx="95.4" cy="-46.9" r="1.2"/>
    <circle class="st46" cx="105.8" cy="-46.9" r="1.2"/>
    <circle class="st46" cx="116.2" cy="-46.9" r="1.2"/>
    <circle class="st46" cx="95.4" cy="-36.1" r="1.2"/>
    <circle class="st46" cx="105.8" cy="-36.1" r="1.2"/>
    <circle class="st46" cx="116.2" cy="-36.1" r="1.2"/>
    <circle class="st46" cx="95.4" cy="-25.4" r="1.2"/>
    <circle class="st46" cx="105.8" cy="-25.4" r="1.2"/>
    <circle class="st46" cx="116.2" cy="-25.4" r="1.2"/>
    <circle class="st46" cx="95.4" cy="-14.6" r="1.2"/>
    <circle class="st46" cx="105.8" cy="-14.6" r="1.2"/>
    <circle class="st46" cx="116.2" cy="-14.6" r="1.2"/>
    <circle class="st46" cx="95.4" cy="-3.9" r="1.2"/>
    <circle class="st46" cx="105.8" cy="-3.9" r="1.2"/>
    <circle class="st46" cx="116.2" cy="-3.9" r="1.2"/>
    <circle class="st46" cx="95.4" cy="6.8" r="1.2"/>
    <circle class="st46" cx="105.8" cy="6.8" r="1.2"/>
    <circle class="st46" cx="116.2" cy="6.8" r="1.2"/>
    <circle class="st46" cx="95.4" cy="17.6" r="1.2"/>
    <circle class="st46" cx="105.8" cy="17.6" r="1.2"/>
    <circle class="st46" cx="116.2" cy="17.6" r="1.2"/>
    <circle class="st46" cx="95.4" cy="28.3" r="1.2"/>
    <circle class="st46" cx="105.8" cy="28.3" r="1.2"/>
    <circle class="st46" cx="116.2" cy="28.3" r="1.2"/>
  </g>
  <g>
    <circle class="st46" cx="600.6" cy="2.5" r="1.2"/>
    <circle class="st46" cx="612.1" cy="2.5" r="1.2"/>
    <circle class="st46" cx="623.6" cy="2.5" r="1.2"/>
    <circle class="st46" cx="634" cy="2.5" r="1.2"/>
    <circle class="st46" cx="645.5" cy="2.5" r="1.2"/>
    <circle class="st46" cx="655.8" cy="2.5" r="1.2"/>
    <circle class="st46" cx="666.2" cy="2.5" r="1.2"/>
    <circle class="st46" cx="600.6" cy="14" r="1.2"/>
    <circle class="st46" cx="612.1" cy="14" r="1.2"/>
    <circle class="st46" cx="623.6" cy="14" r="1.2"/>
    <circle class="st46" cx="634" cy="14" r="1.2"/>
    <circle class="st46" cx="645.5" cy="14" r="1.2"/>
    <circle class="st46" cx="655.8" cy="14" r="1.2"/>
    <circle class="st46" cx="666.2" cy="14" r="1.2"/>
    <circle class="st46" cx="600.6" cy="24.7" r="1.2"/>
    <circle class="st46" cx="612.1" cy="24.7" r="1.2"/>
    <circle class="st46" cx="623.6" cy="24.7" r="1.2"/>
    <circle class="st46" cx="634" cy="24.7" r="1.2"/>
    <circle class="st46" cx="645.5" cy="24.7" r="1.2"/>
    <circle class="st46" cx="655.8" cy="24.7" r="1.2"/>
    <circle class="st46" cx="666.2" cy="24.7" r="1.2"/>
    <circle class="st46" cx="600.6" cy="35.4" r="1.2"/>
    <circle class="st46" cx="612.1" cy="35.4" r="1.2"/>
    <circle class="st46" cx="623.6" cy="35.4" r="1.2"/>
    <circle class="st46" cx="634" cy="35.4" r="1.2"/>
    <circle class="st46" cx="645.5" cy="35.4" r="1.2"/>
    <circle class="st46" cx="655.8" cy="35.4" r="1.2"/>
    <circle class="st46" cx="666.2" cy="35.4" r="1.2"/>
    <circle class="st46" cx="600.6" cy="46.2" r="1.2"/>
    <circle class="st46" cx="612.1" cy="46.2" r="1.2"/>
    <circle class="st46" cx="623.6" cy="46.2" r="1.2"/>
    <circle class="st46" cx="634" cy="46.2" r="1.2"/>
    <circle class="st46" cx="645.5" cy="46.2" r="1.2"/>
    <circle class="st46" cx="655.8" cy="46.2" r="1.2"/>
    <circle class="st46" cx="666.2" cy="46.2" r="1.2"/>
    <circle class="st46" cx="600.6" cy="56.9" r="1.2"/>
    <circle class="st46" cx="612.1" cy="56.9" r="1.2"/>
    <circle class="st46" cx="623.6" cy="56.9" r="1.2"/>
    <circle class="st46" cx="634" cy="56.9" r="1.2"/>
    <circle class="st46" cx="645.5" cy="56.9" r="1.2"/>
    <circle class="st46" cx="655.8" cy="56.9" r="1.2"/>
    <circle class="st46" cx="666.2" cy="56.9" r="1.2"/>
    <circle class="st46" cx="600.6" cy="67.7" r="1.2"/>
    <circle class="st46" cx="612.1" cy="67.7" r="1.2"/>
    <circle class="st46" cx="623.6" cy="67.7" r="1.2"/>
    <circle class="st46" cx="634" cy="67.7" r="1.2"/>
    <circle class="st46" cx="645.5" cy="67.7" r="1.2"/>
    <circle class="st46" cx="655.8" cy="67.7" r="1.2"/>
    <circle class="st46" cx="666.2" cy="67.7" r="1.2"/>
    <circle class="st46" cx="600.6" cy="78.4" r="1.2"/>
    <circle class="st46" cx="612.1" cy="78.4" r="1.2"/>
    <circle class="st46" cx="623.6" cy="78.4" r="1.2"/>
    <circle class="st46" cx="634" cy="78.4" r="1.2"/>
    <circle class="st46" cx="645.5" cy="78.4" r="1.2"/>
    <circle class="st46" cx="655.8" cy="78.4" r="1.2"/>
    <circle class="st46" cx="666.2" cy="78.4" r="1.2"/>
    <circle class="st46" cx="600.6" cy="89.2" r="1.2"/>
    <circle class="st46" cx="612.1" cy="89.2" r="1.2"/>
    <circle class="st46" cx="623.6" cy="89.2" r="1.2"/>
    <circle class="st46" cx="634" cy="89.2" r="1.2"/>
    <circle class="st46" cx="645.5" cy="89.2" r="1.2"/>
    <circle class="st46" cx="655.8" cy="89.2" r="1.2"/>
    <circle class="st46" cx="666.2" cy="89.2" r="1.2"/>
    <circle class="st46" cx="569.5" cy="2.5" r="1.2"/>
    <circle class="st46" cx="579.9" cy="2.5" r="1.2"/>
    <circle class="st46" cx="590.2" cy="2.5" r="1.2"/>
    <circle class="st46" cx="569.5" cy="14" r="1.2"/>
    <circle class="st46" cx="579.9" cy="14" r="1.2"/>
    <circle class="st46" cx="590.2" cy="14" r="1.2"/>
    <circle class="st46" cx="569.5" cy="24.7" r="1.2"/>
    <circle class="st46" cx="579.9" cy="24.7" r="1.2"/>
    <circle class="st46" cx="590.2" cy="24.7" r="1.2"/>
    <circle class="st46" cx="569.5" cy="35.4" r="1.2"/>
    <circle class="st46" cx="579.9" cy="35.4" r="1.2"/>
    <circle class="st46" cx="590.2" cy="35.4" r="1.2"/>
    <circle class="st46" cx="569.5" cy="46.2" r="1.2"/>
    <circle class="st46" cx="579.9" cy="46.2" r="1.2"/>
    <circle class="st46" cx="590.2" cy="46.2" r="1.2"/>
    <circle class="st46" cx="569.5" cy="56.9" r="1.2"/>
    <circle class="st46" cx="579.9" cy="56.9" r="1.2"/>
    <circle class="st46" cx="590.2" cy="56.9" r="1.2"/>
    <circle class="st46" cx="569.5" cy="67.7" r="1.2"/>
    <circle class="st46" cx="579.9" cy="67.7" r="1.2"/>
    <circle class="st46" cx="590.2" cy="67.7" r="1.2"/>
    <circle class="st46" cx="569.5" cy="78.4" r="1.2"/>
    <circle class="st46" cx="579.9" cy="78.4" r="1.2"/>
    <circle class="st46" cx="590.2" cy="78.4" r="1.2"/>
    <circle class="st46" cx="569.5" cy="89.2" r="1.2"/>
    <circle class="st46" cx="579.9" cy="89.2" r="1.2"/>
    <circle class="st46" cx="590.2" cy="89.2" r="1.2"/>
  </g>
  <path class="st2" d="M-322.1-46.3c15.4-7.4,28.7-15.5,20.3-36.6-2.7-6.7,1.2-13.7,6.3-18.5,26.5-24.9,39.2-60.6,66.5-84.9,3.6-3.2,4.8-7.9,3.2-11.9-6.3-16.2-.2-25.3,13.6-35,17.4-12.2,8.8-32.1,6.8-48.3-2-16.2-2-28.8,9.8-42.5,9.2-10.7,4.3-28.2,9.9-42.3,8.5-21.3,14.6-25.6,35-15.6,13.3,6.5,29.3,4.4,41.4,14.9,5.6,4.9,12.1,8.8,15.7,15.3,10.9,20,23.4,37.7,42,52.4,14.5,11.5,12.5,33,5.3,48.5-6.4,13.8-9.8,25.9-9.5,41.4.3,16.3-7.3,33-18,45.8-19.5,23.1-21.8,51-26.7,78.8-5.4,30.1-9.1,61.7-42.1,77.3-8.6,4.1-10.6,13.5-11.6,22.1-3.9,32.3-11.4,64.4-7.4,97.2,1.2,9.6-8.3,15-8.2,24-47.1,0-94.1-.3-141.2.3-9.3.1-11.5-2.1-11.4-11.4.5-56.9.2-113.9.2-170.8Z"/>
  <path class="st2" d="M-2.6-20.4c7.7,2.4,15,3.9,18.9-6.2,1.2-3.2,4.8-4.4,8.1-4.4,17.3-.1,33.2-8.5,50.6-8.1,2.3,0,4.2-1.2,5-3.1,3-7.7,8.1-8.9,16-7.8,10,1.4,13.4-8.4,18-14.7,4.5-6.3,8.6-10.7,17.1-11.7,6.7-.8,10.6-8.4,17.1-11.6,9.8-4.7,13.4-4.2,17.2,5.8,2.5,6.6,8.8,11,9.6,18.6.4,3.5,1.4,7,.5,10.4-2.6,10.5-4,20.7-2.2,31.8,1.4,8.7-6.3,15.5-13.8,18.6-6.7,2.7-11.8,5.9-16.7,11.4-5.2,5.8-13.2,9.1-21.1,10.1-14.2,1.8-24.1,10.8-34.7,18.8-11.6,8.7-23.1,18.6-39.6,13.4-4.3-1.4-8,1.3-11.2,4-11.8,10-24.7,18.8-33.9,31.5-2.7,3.7-7.7,2.6-10.6,5.7-16.4-15.2-32.7-30.5-49.3-45.5-3.3-3-3.3-4.4-.3-7.7C-39.3,19.3-21-.6-2.6-20.4Z"/>
  <g>
    <path class="st43" d="M74.4-271.3c3.8-2.1,9-2.6,13-3.7,17.6-5,35.8-7.8,53.3-13.1,11.1-3.4,20.6-9.8,27-19.8,1.7-2.5,2.7-5.5,3.8-8.3.6-1.4,1.4-1.9,2.7-1.8,1.7.1,1.2,1.5,1.3,2.5.1,2.4,1.6,1.7,3.1,1.5,5.3-.9,10.6-2.3,16-1.2,4.7,1,9.1,3.1,13.4,5.2.7.4,1.3,1,1.1,1.9-.3,1.2-1.3.8-2.2.8-9.9-.2-19.7-1.2-29.5-2.2-1,0-2-.3-2.9.1-.8.4-1.4,1.1-1.3,2.1,0,.9.8,1.1,1.5,1.4,6.9,2.6,13.8,5,20.5,8,5.1,2.2,6.6,6,9.4,10.4.3.4.5.9.8,1.4,1.1,2.1,1.2,4.6,1.3,6.9.1,2.2.3,4.4.4,6.5-5-1.6-11.4-5.2-14.6-9.6-3.4-4.7-6.8-9.4-11-13.5-2.5-2.5-5.4-4.5-8.5-6.3-.5-.3-1-.7-1.5-.2-.6.5-.4,1.2,0,1.8.4.7,1.1,1.1,1.7,1.6,3.5,2.9,6.5,6.2,9.6,9.5,7.9,8.4,7.6,22.7.8,31.6-.3.4-.9.9-1.3.6-.4-.2-.4-.7-.4-1.1.1-4.1-1.2-7.4-1.9-11.4-.8-4.9-1.9-9.7-3.6-14.3-1.7-4.6-4.4-8.3-7.5-12-1.1-1.3-2.4-1.5-3.8-.5-2.1,1.6-4.4,2.8-6.8,4-2.5,1.3-3.3,3-2.4,6,2.5,8.4,3.8,17,4.1,25.7-.2,1.4-.5,2.8-.5,4.2-.2,1.1,0,2.2-.2,3.3-.2,1.2-.4,2.5-1.8,2.8-1.4.3-2.2-.7-2.9-1.8-.9-1.4-1.5-2.9-1.7-4.6-1.1-8.2-1.8-16.4-2-24.7,0-1.7.7-4.1-.8-4.9-1.5-.8-3.1,1.1-4.7,1.9-2.4,1.5-5.4,1.6-8,3.6,5.6,4.1,9.4,9.4,11.8,15.7.6,4.4,1.5,8.7,1.1,13.2-.1,1.2-.1,2.7-1.5,3-1.7.4-2-1.3-2.6-2.5-4.5-8.5-8.7-17.1-14-25.1-.4-.6-.8-1.1-1.1-1.6-.9-1.3-2-.6-3-.3-1.3.5-.6,1.5-.3,2.2,2.5,6.5,4.9,13,5.9,19.9.9,6,.6,12-.7,17.9-1,4.6-2.5,10.7-7.7,12.5-.8.3-1.8.2-2.2-.4-.2-.3-.3-.6-.3-.9-.8-5.7-1-12-1.2-17.8s0-12.6.3-18.9c.2-3.6-.4-7-.7-10.6-.2-2.5-1.8-2.3-3.6-1.9-1.8.4-3.2.6-2.5,3.1,1.6,5.7,1.8,11.5,1.8,17.4,0,4.4-1.4,8.5-2.7,12.5-1.1,3.6-5.7,6.3-9.2,6.8-.4,0-.8,0-1-.2-.2-.2-.1-.6,0-.8.9-4,1.4-8.2,2.5-12.1,2-6.9,3-14,2.9-21.2,0-2.3-.8-3-3.1-2.8-5.4.4-10.7,1.7-16,2.5-2.8.4-4.2,2-4.1,5,.1,2.7-1,4.6-4.1,3.7s-2.3-1.1-3.5-1.6c-3.7-1.7-8.2-1.2-11.5,1,1.3-1.7,2.6-3.4,3.9-5.1.9-1.2,2.1-2.2,3.4-2.9Z"/>
    <path class="st43" d="M165.2-274.9c0-5.1-1.6-9.7-4-14.1-.5-.9-1.2-1.8-.2-2.6.9-.7,1.7.1,2.2.8,2.8,3.3,6.9,5.1,9.6,8.7,5.4,7.3,4.3,15.1,2.6,23-.9,4.1-2.1,8.3-4.9,11.5-1,1.1-3.1,3-4.8,2.8s-1.7-1.6-1.4-3.5c.9-6.3,3.6-12.5,1.7-19.1-.7-2.4-1-4.9-.8-7.4Z"/>
    <path class="st1" d="M93.4-256.1c.9-3.6,1.1-7.6.7-10.7-.2-1.4-.6-3.2,1-3.7,1.7-.6,1.8,1.4,2.6,2.4,2.6,3.2,4.7,6.5,5.5,10.6,1.3,6.4-.3,10.8-5.3,15-1.3,1.1-2.6,2.1-4.2,2.8-3.5,1.5-6.2-.2-8.7-2.7-.1-.1-.3-.3-.3-.4,0-.2.1-.5.3-.7,1.6-1.9,3.5-3.5,5.1-5.5,1.5-1.9,2.6-4.3,3.2-6.9Z"/>
  </g>
  <g>
    <path class="st44" d="M736.1,179.1c-1.7-1.3-3.4-2.7-5.1-4-.5,3.9-1,7.8-1.5,11.8-6.4.8-9.2-3.7-12.1-8.1-.5-11.6-2.3-23-5.8-34-.9-3-1.8-6-3-8.9-1.8-4.2-4.4-7.9-6.9-11.7-2.6-4.6-4.7-9.5-7.3-14.1-.8-1.3-1.4-2.7-2.1-4.1-1.8-4.2-4-8.2-7-11.6-5.7-5.9-8.2-13.5-11.3-20.8-2.9-6.5-5.9-13-10.1-18.9-1.5-2-2.7-4.1-3.8-6.3-2.3-6.3-5-12.4-7.5-18.5-1.1-3.3-1.5-6.6-1.8-10,0-7.6-3.1-14.6-5.4-21.7-1-3.2-1.6-6.4-2.2-9.6-.6-2.4-1.2-4.7-1.9-7.1-1-3.9-1.3-7.9-2-11.9-.6-3.1-1.6-6.1-2.6-9.2-1.5-4.5-3-9-3.8-13.7-.5-3.8-1.3-7.5-3.8-10.6-1.4-1.9-2.7-4-3.7-6.2-3.9-8.4-3.8-17.9-7.2-26.4-1-2.3-2-4.6-2.9-7-3.3-12.3-11.6-22.7-13.4-35.6,0-1.8.5-3.4,1.5-4.8h11.1c2.3,2.4,5.1,4.5,6.7,7.5,4,8.3,8.9,16.3,11.6,25.2,1,4.1,1.9,8.2,3.7,12,3.7,9.6,8,19.1,11.2,28.9,1.1,5,1.4,10.2,3.3,15.1,1.5,5,3.1,9.8,4.3,14.9,1,5,1.3,10.1,2.9,15,1.3,4.9,2.1,9.9,3.8,14.7,1.7,9.2,8.3,16.4,10.2,25.5-.6,13.6,5.1,25.3,11.2,36.8,1.8,3.7,3.1,7.6,5.2,11.2,3.9,6.6,7.3,13.5,11.4,20,19,24.1,26.9,53.7,40,80.7,3,6.2,3.4,11.9-3.8,15.6Z"/>
    <path class="st50" d="M718.4-84.6c7.1,14.1,13.5,28.4,15,44.5-9.4,3.2-14.4-3.9-20.5-8.6-15.8-12.3-30.1-26.4-44.9-39.9-4.6-4.1-8.2-9-11.4-14.3-2.6-8.6-9.4-13.4-15.8-19-6.8-6-16.7-10.4-15.2-22.2h22.3c14.7,6.8,22.9,21.6,36.4,29.8,1.4.9,2.8,1.9,4.1,3,10.6,8.3,17.4,20.8,30.1,26.7Z"/>
    <path class="st26" d="M673.9-144.1c14.5,18.3,32.1,34.2,42.4,55.7-15.7,0-19-17.6-31.3-22.4h.1c-10.7-10.4-25.3-17.4-29.8-33.4h18.6Z"/>
    <path class="st20" d="M625.6-144.1c6.2,9.4,13.7,17.4,23.3,23.2,6.8,4.2,11.1,9.7,10.9,18-13.3,1.4-17.2-11.2-25.5-17.2-6.3-4.6-9.5-12.4-16.7-16.1-2.9-1.9-3.6-4.7-3.1-8h11.1Z"/>
    <path class="st5" d="M603.3-144.1c.5.8.5,1.7,0,2.6,0,.8-.2,1.7-.2,2.5-3,7.7-9.3,11.7-16.5,14.6-1.7.4-3.3.1-4.8-.8-.2-6.3-.5-12.6-.7-18.9h22.3Z"/>
    <path class="st31" d="M655.3-144.1c9.9,11.2,19.9,22.3,29.8,33.5-17.2-5.9-25.6-21.5-37.2-33.5,2.5,0,5,0,7.4,0Z"/>
    <path class="st30" d="M680.7,53.2c-7.4-11.4-17.1-22.2-10.2-37.5,8.4-2.1,11.6,5.1,16.4,9.4,24.1,21.6,42.6,49,68.8,68.5,4.4,14.9,1.7,29.7-.2,44.6-9.8,5.3-14.5-3.1-19.7-8.1-14.9-14.4-26-32.1-40.1-47.3-3.7-6.1-7.4-12.3-11.1-18.4q5-2.7,11.5,2.2c-3.4-6.7-11-8.1-15.3-13.2Z"/>
    <path class="st12" d="M696.2,104.7c.6.7.9,1.6.6,2.6-4.5,22.2-11.7,30.7-26.1,30.7-15-13.5-27.9-29-40.6-44.5.9-1.5,2.1-2.7,3.5-3.7,9.1-5.2,15.9-13.1,23.1-20.5,8.1-8.2,14.2-6.9,19.8,2.4,4.3,7.2,8.5,14.3,12.8,21.5,4,13-9.9,15.2-13.3,22.6,6.7-2.3,8-16.5,20.2-11Z"/>
    <path class="st11" d="M617.6-136.1c9.8-4,11.2,6.4,16.4,10,9.5,6.6,14.6,18.3,25.8,23.3,5.2,1.7,5.9,7.1,8.9,10.6,16.4,19.4,36.5,34.8,55.6,51.4,5.3,4.6,9.7,9.3,12.2,15.9.3,4.7.6,9.4.8,14.2,2.1,3.5-.2,4.6-3,5.4-15.6-7.2-24.4-22-36.9-32.8-13.4-11.7-23.6-26.9-39.5-35.7-5.1-3.2-9.3-7.3-12.6-12.4-4.1-8.9-11.4-15.8-15.8-24.5-4-8.4-8-16.8-12-25.2Z"/>
    <path class="st32" d="M734-6.7c1.1-1.4,2.2-2.8,3.3-4.1,3.7,12.4,4.8,24.9,2.4,37.6-1.7.8-3.3.5-4.8-.6-20-20.8-39.5-42-62.1-60.2-12-9.6-21-22.3-28.1-36.1-6.9-8.6-8.7-19.3-11.7-29.5,9.2-.7,11.6,6.7,15.2,12.6,3.9,2.3,7.5,4.9,9,9.5,19.4,11.5,31.9,30.3,48.5,44.8,9.6,8.4,16.8,19.6,28.4,25.8Z"/>
    <path class="st28" d="M755.7,93.6c-17.6,1.8-22.7-14.2-31.4-23.5-17.4-18.7-35.3-36.7-53.8-54.4-7.1-7.1-11.5-15.5-11.8-25.8-1-6.8,3.6-4.8,6.5-3.6,5.7,2.3,9.6,7.4,14.7,10.6,7.9,5.6,14.7,12.3,20.2,20.2,13.2,16.7,29.1,30.8,44.4,45.6,6,5.8,9.9,11.8,10.6,20,.2,3.7.4,7.3.6,11Z"/>
    <path class="st7" d="M643.4-31.9c.2,4.6.4,9.3.5,13.9-8.2,11.8-18.6,21.5-30,30.1-5.4,3.5-10.2,7.7-13.9,12.9,3.8-5.5,9.2-9.4,14.5-13.3,12.8-6,17.3-22.8,32.7-25.4.3,3.5.6,7,.9,10.4-1.6,7.1-7.3,10.9-12,15.6-1.3,1.1-2.6,2.1-4,3.1-12.1,9.2-23.6,18.9-31.3,32.4-.7,2.4-1.7,4.7-3.1,6.8-.6.5-1.3,1.1-1.9,1.6-7.7-8.2-13.6-17.3-15.3-28.7-1.4-2.5-1.6-5.2-1-8,12.7-19.7,30.6-34.4,47.9-49.7,4-3.6,9.8-8.4,15.8-1.8Z"/>
    <path class="st48" d="M621.7-99.3c3.8,9.5,6.5,19.3,7,29.6-3.4,9.9-10.6,17.1-17.4,24.6-13,5.8-17.6,23.9-34.7,23.8-6.4-14.7,8.1-18.7,15.3-28.3q-12.7,11.6-15,1.8c1.4-13.5,2.8-27,4.2-40.5,6.5-1.8,6.8,4.1,9.3,7.2,8.3,1.5,10.1-6.8,15.1-10.1,5.1-3.4,8.1-10.8,16.2-8.1Z"/>
    <path class="st42" d="M695.6,82.7c13.7,8.7,23.4,21.2,33.6,33.6,7.1,8.7,13.6,19.4,26.3,21.9.2,22.8-5.9,44.3-13.8,65.9-1.9-8.3-3.7-16.6-5.6-24.9,6.6-10.2-4-16.1-6.2-24.1-7.2-26.1-20.9-49.1-34.3-72.3Z"/>
    <path class="st40" d="M588.3-78.2c-2.4-3.4-4.8-6.8-7.2-10.2.2-12.3.4-24.5.7-36.8.9-.2,1.8-.5,2.8-.8,11.7,3.9,12.9-7.9,18.9-12.6.3-1,.3-2,0-3,5.5,12.4,14.1,23.8,13.8,38.3-8,10.2-13.7,23.1-28.9,25.1Z"/>
    <path class="st22" d="M714.8,141.9c4.8,12,11.6,23.9,3.5,37.1-1,1.2-2,1.1-2.8-.2-19.9-2.8-25.3-22.2-38.2-33.1,6.9-10,11.8-22.4,27-22.7,4,2.7,6.6,6.5,7.6,11.2,1.4,6.1-4.6,7.8-6.2,11.4,2.4-1.3,4.3-6,9.1-3.7Z"/>
    <path class="st34" d="M580.9,19.8c0,2.6-.2,5.3-.2,7.9-1.3-5.1-2.6-10.2-4-15.2-1.9-8.8-2-17.5,0-26.2,1.1-1.5,2.5-2.6,4.2-3.5,12.9-3.5,21.1-13.9,31.1-21.6,8.5-4.7,11.9-17.2,24.4-15.7,1.2,4.7,2.4,9.4,3.6,14.1-14.8,14.6-30.2,28.6-44.6,43.6-5.1,5.3-10.8,10.1-14.4,16.7Z"/>
    <path class="st8" d="M738.3,27s1.4-.2,1.4-.2c1.8,4.7,3.6,9.5,5.4,14.2-6.8,4.9-7.1,5.2-14-1.2-12.2-11.4-24-23.2-35.3-35.4-3.4-3.6-6.3-7.7-11-9.7-3.5-2.4-6.5-5.3-9.3-8.4-6.7-9.9-16.5-17.1-23.4-26.7-1.7-4.7-3.3-9.4-5-14.1.8-8.3,5.4-5,8-2,25.4,30.2,57.9,53.2,83.2,83.4Z"/>
    <path class="st30" d="M654.9,30.6c8.7,3.4,7,11.5,8.1,18.3-10.5,14.9-18.7,32.1-38,38.4-5.6-4.6-11.6-8.8-14.1-16.1.4-.7.8-1.4,1.1-2.2,7.5-7.4,15.6-14.2,22.3-22.5,6.5-5.7,9.2-16.3,20.5-15.9Z"/>
    <path class="st38" d="M654.9,30.6c-5.4,6.1-10.7,12.2-16.1,18.3-11.9,4.3-17.6,16.5-28.1,22.5,0,0,.3-.3.3-.3-7.3-2.6-10.1-9.7-15-14.8,0,0,.4-.5.4-.5,2-1.5,4.2-2.4,6.7-3,16.3-7.5,22.7-24.7,35.4-35.7,6.5-5.6,12.7-10.6,16.8,2.2-.1,3.8-.2,7.5-.4,11.3Z"/>
    <path class="st53" d="M736.5-25c-21.5-23.5-50.6-39.4-67.7-67.3,17.7,9.9,28.7,27.5,45.1,39,6.4,4.5,12.4,9.7,19.6,13.1,4.9,4.2,4,9.7,3.1,15.1Z"/>
    <path class="st24" d="M625,87.3c14.6-10.9,21.8-29,38-38.4,1.2,1.2,2.4,2.4,3.6,3.7,3.8,5.6,0,9.4-3.6,12.7-10.4,9.5-18.4,21.7-31.4,28.4,0,0-1.4-.2-1.4-.2-1.7-2.1-3.4-4.1-5.1-6.2Z"/>
    <path class="st15" d="M685-6.9c5-2.8,7.2.4,10.4,3.8,13,14,26.4,27.6,39.9,41,2.4,2.4,4.5,8.9,9.8,3,3.5,3.1,3,7.4,3.2,11.5,1,1,1.3,2.1,1,3.1-.3,1.1-.6,1.6-.9,1.6-7.3,1.4-11.3-3.9-15.6-8-14.6-14.1-28.8-28.6-42.6-43.4-3.3-3.5-7.7-6.7-5.2-12.6Z"/>
    <path class="st10" d="M747.9,56.7c.2-1.4.3-2.9.5-4.3,4.1,9.6,8,19.4,6.7,30.2-12.9-19.1-31.7-32.8-46.8-49.8-4.4-4.9-11.2-7.7-12.7-15,9.7-3.6,12.5,5.6,18,9.8,12,9,18.8,24.3,34.3,29.2Z"/>
    <path class="st13" d="M704.3,123c-9,7.6-18,15.1-27,22.7-2.2-2.6-4.4-5.2-6.6-7.8,17.1-3.1,14.7-22.8,26.1-30.7,2.8,5.1,7.9,9.1,7.4,15.7Z"/>
    <path class="st6" d="M581.4-13.8c-7.5,7.7-1.8,17.7-4.6,26.2-5-20.1-4.1-40.2.2-60.3,1.2,3.4,1.8,7.4,6.7,2.8,5-4.7,8.6-11.2,16.8-13.9-3.2,16-26.6,17.9-22.7,36.7,2.7,2.2,5.7,4.3,3.6,8.5Z"/>
    <path class="st33" d="M715.4,178.8c.9.1,1.9.2,2.8.2,6.7-1.7,8.5,3.7,11.2,7.8.5,6.3,1,12.7,1.9,23.6-8.3-12.5-17.5-19.1-16-31.6Z"/>
    <path class="st41" d="M685-110.7c14.8,1.4,17.6,19.5,31.3,22.4.7,1.3,1.4,2.5,2.2,3.8-18.1.2-23-16.5-33.4-26.2Z"/>
    <path class="st18" d="M738.3,27c-26.6-25-53-50.2-79.9-74.9-2.9-2.7-2.9-12.6-11.2-6.6-4.6-4.6-2.7-10.2-2.5-15.6,28.7,28.2,57.6,56.3,86.1,84.7,3.3,3.3,5.1,8.2,7.6,12.4Z"/>
    <path class="st47" d="M614.3-34.9c-10.4,6.2-16.6,18.2-29.5,20.8-5.3-10.7,5.5-13.2,9.8-18.7,4.4-5.7,9.9-10.7,16.1-14.7,4-9.1,9.3-17,18-22.2,1.3,1.4,2.5,2.8,3.8,4.2,5.3,6.8-1.5,9.7-4.6,13.4-4.7,5.6-11,9.9-13.7,17.1Z"/>
    <path class="st23" d="M655.2,19.3c-4-6.1-7.7-5.7-12.3-.3-9.5,11.1-19.1,22-29.2,32.4-2.7,2.8-4.8,9.5-11.2,4.9,1.3-14.2,15-20.1,21-31.2,2.5-4.7,8.3-7.4,9.5-13.2,3.4-6.7,8.7-11.4,15.2-15,4.7,6.7,6.8,14.3,7,22.4Z"/>
    <path class="st54" d="M580.9,19.8c14.8-24.8,36.4-43.1,59-60.3,1.1,2.9,2.3,5.8,3.4,8.7-10.9-1.1-16,7.7-22.4,13.7-13.4,12.6-25,27-40.1,37.9Z"/>
    <path class="st25" d="M631.6,93.6c11.4-13.9,28.6-22.9,35-41,3.3,6.4,6.6,12.7,9.9,19.1-6.5-4.1-11.6-6.2-18.5,1.6-7.2,8.2-12.8,20-26.5,20.4Z"/>
    <path class="st14" d="M588.3-78.2c9.6-8.4,19.2-16.7,28.9-25.1,2.7,0,4.2,1.3,4.5,4-14,5-18.4,22.3-33.3,26.1-.4.1-1.9-1.5-1.8-2.2,0-1,1.1-1.9,1.8-2.8Z"/>
    <path class="st4" d="M696.2,104.7c-12.8,1.9-16.5,16.6-29.3,21.2,4.2-14.4,21.3-18.2,22.4-32.8,2.3,3.9,4.6,7.7,6.9,11.6Z"/>
    <path class="st21" d="M647.3-13.5c-12.6,6.4-18.2,21.5-32.2,26.1-.4-.5-.8-.9-1.3-1.4,10-9.7,20.1-19.4,30.1-29.1,1.1,1.5,2.3,2.9,3.4,4.4Z"/>
    <path class="st16" d="M652.1-40.4c10.9,6.3,22.4,12,25.2,26-9.7,2.5-12.7-8-20-10.3-.8,0-1.5-.1-2.3-.2-3.8-4.7-3.8-10-3-15.6Z"/>
    <path class="st49" d="M680.7,53.2c12.6,2.8,18.6,13.2,28.7,23.6-12.7-.1-14-15.8-24.9-12.5-4.6-2.5-3.9-6.9-3.8-11.1Z"/>
    <path class="st35" d="M678.5,1.1c-8.7,0-8.8-15.3-19.9-11.3-4.6-4-2.7-9.7-3.6-14.7.3-.5.6-1.1,1-1.6,9.7,7.4,24,10.9,22.5,27.5Z"/>
    <path class="st0" d="M614.3-34.9c0-13.8,17.5-17.2,18.3-30.6,4.9,2.4,3.7,6.8,3.9,10.9-7.4,6.6-14.8,13.1-22.1,19.7Z"/>
    <path class="st29" d="M714.8,141.9c-8.3,2-11.4,11.6-24.4,16.8,9.5-10.9,15.5-17.7,21.5-24.5,1,2.6,2,5.1,3,7.7Z"/>
    <path class="st17" d="M648.1-86.9c-5.1-4.2-10.1-8.4-15.2-12.6-5-2.7-2.9-7.4-3.4-11.4,7.9,6.6,17.4,12.1,18.6,24Z"/>
    <path class="st37" d="M702.6-77.1c-10.9-11-21.8-21.9-31.8-32.1,13,7,22.5,19.4,31.8,32.1Z"/>
    <path class="st45" d="M603.4-138.5c.6,9.4-6.3,14.8-12.5,19.1-10.6,7.4-3.9-4.5-6.4-6.5,6.9-3.3,10.5-11.5,18.9-12.6Z"/>
    <path class="st39" d="M748.9,126.1c-5.2-5.6-10.4-11.3-15.6-16.9,9.1,1.5,14,7.4,15.6,16.9Z"/>
    <path class="st27" d="M643,99.1c6.3-5.8,12.6-11.7,19.1-17.8-3.5,8.7-10.3,14.1-19.1,17.8Z"/>
    <path class="st36" d="M734-6.7c-2,4.8-4.3,2.6-6.6.3-23.4-23.7-46.9-47.3-70.3-71,12.6.2,18.7,10.6,26.2,17.9,17.4,17,33.9,35.1,50.7,52.8Z"/>
    <path class="st19" d="M678.5,1.1c-3.4-12.5-14.9-18.3-22.5-27.5,0-4.7,1.7-5.2,5-2.2,5.4,4.8,10.8,9.5,16.2,14.2,4.6.3,7.6,2.4,7.7,7.4,19.6,22.6,40.8,43.5,62.9,63.6-2.5,12.3-6.6,1.6-8.3,0-14.7-13-25.4-30.4-44-39-5.7-5.6-11.4-11.1-17-16.7Z"/>
    <path class="st51" d="M633,11.9c10.8,2.4,2.8,6.5.5,9.2-10.2,11.9-20.7,23.5-31,35.3-2-.2-4.1-.3-6.1-.5-.2-2.1-.4-4.1-.6-6.2,10.5-14.5,23.5-26.6,37.4-37.9h-.1Z"/>
    <path class="st23" d="M633.1,11.8c-11.3,13.8-23.4,26.7-37.4,37.9,7.7-17.3,20.2-29.9,37.4-37.9Z"/>
    <path class="st9" d="M615.1,12.6c-8.4,7.6-16.8,15.3-28.1,25.6,8.3-13.3,15.4-22.2,26.9-27,.4.5.8.9,1.3,1.4Z"/>
    <path class="st52" d="M610.7-47.5c-6.3,12.9-23.6,17.4-26,33.4-1.1.2-2.2.3-3.4.3-1.2-2.8-2.4-5.7-3.6-8.5,13.2-5.5,17.1-23.2,33-25.2Z"/>
    <path class="st3" d="M610.6,71.4c6.8-10.7,13.8-21.1,28.1-22.5-9,7.9-16.1,18.3-28.1,22.5Z"/>
  </g>
</svg>