<svg width="272" height="232" viewBox="0 0 272 232" fill="none" xmlns="http://www.w3.org/2000/svg">
<circle cx="98" cy="3" r="3" fill="#067389"/>
<circle cx="128" cy="3" r="3" fill="#067389"/>
<circle cx="158" cy="3" r="3" fill="#067389"/>
<circle cx="185" cy="3" r="3" fill="#067389"/>
<circle cx="215" cy="3" r="3" fill="#067389"/>
<circle cx="242" cy="3" r="3" fill="#067389"/>
<circle cx="269" cy="3" r="3" fill="#067389"/>
<circle cx="98" cy="33" r="3" fill="#067389"/>
<circle cx="128" cy="33" r="3" fill="#067389"/>
<circle cx="158" cy="33" r="3" fill="#067389"/>
<circle cx="185" cy="33" r="3" fill="#067389"/>
<circle cx="215" cy="33" r="3" fill="#067389"/>
<circle cx="242" cy="33" r="3" fill="#067389"/>
<circle cx="269" cy="33" r="3" fill="#067389"/>
<circle cx="98" cy="61" r="3" fill="#067389"/>
<circle cx="128" cy="61" r="3" fill="#067389"/>
<circle cx="158" cy="61" r="3" fill="#067389"/>
<circle cx="185" cy="61" r="3" fill="#067389"/>
<circle cx="215" cy="61" r="3" fill="#067389"/>
<circle cx="242" cy="61" r="3" fill="#067389"/>
<circle cx="269" cy="61" r="3" fill="#067389"/>
<circle cx="98" cy="89" r="3" fill="#067389"/>
<circle cx="128" cy="89" r="3" fill="#067389"/>
<circle cx="158" cy="89" r="3" fill="#067389"/>
<circle cx="185" cy="89" r="3" fill="#067389"/>
<circle cx="215" cy="89" r="3" fill="#067389"/>
<circle cx="242" cy="89" r="3" fill="#067389"/>
<circle cx="269" cy="89" r="3" fill="#067389"/>
<circle cx="98" cy="117" r="3" fill="#067389"/>
<circle cx="128" cy="117" r="3" fill="#067389"/>
<circle cx="158" cy="117" r="3" fill="#067389"/>
<circle cx="185" cy="117" r="3" fill="#067389"/>
<circle cx="215" cy="117" r="3" fill="#067389"/>
<circle cx="242" cy="117" r="3" fill="#067389"/>
<circle cx="269" cy="117" r="3" fill="#067389"/>
<circle cx="98" cy="145" r="3" fill="#067389"/>
<circle cx="128" cy="145" r="3" fill="#067389"/>
<circle cx="158" cy="145" r="3" fill="#067389"/>
<circle cx="185" cy="145" r="3" fill="#067389"/>
<circle cx="215" cy="145" r="3" fill="#067389"/>
<circle cx="242" cy="145" r="3" fill="#067389"/>
<circle cx="269" cy="145" r="3" fill="#067389"/>
<circle cx="98" cy="173" r="3" fill="#067389"/>
<circle cx="128" cy="173" r="3" fill="#067389"/>
<circle cx="158" cy="173" r="3" fill="#067389"/>
<circle cx="185" cy="173" r="3" fill="#067389"/>
<circle cx="215" cy="173" r="3" fill="#067389"/>
<circle cx="242" cy="173" r="3" fill="#067389"/>
<circle cx="269" cy="173" r="3" fill="#067389"/>
<circle cx="98" cy="201" r="3" fill="#067389"/>
<circle cx="128" cy="201" r="3" fill="#067389"/>
<circle cx="158" cy="201" r="3" fill="#067389"/>
<circle cx="185" cy="201" r="3" fill="#067389"/>
<circle cx="215" cy="201" r="3" fill="#067389"/>
<circle cx="242" cy="201" r="3" fill="#067389"/>
<circle cx="269" cy="201" r="3" fill="#067389"/>
<circle cx="98" cy="229" r="3" fill="#067389"/>
<circle cx="128" cy="229" r="3" fill="#067389"/>
<circle cx="158" cy="229" r="3" fill="#067389"/>
<circle cx="185" cy="229" r="3" fill="#067389"/>
<circle cx="215" cy="229" r="3" fill="#067389"/>
<circle cx="242" cy="229" r="3" fill="#067389"/>
<circle cx="269" cy="229" r="3" fill="#067389"/>
<circle cx="17" cy="3" r="3" fill="#067389"/>
<circle cx="44" cy="3" r="3" fill="#067389"/>
<circle cx="71" cy="3" r="3" fill="#067389"/>
<circle cx="17" cy="33" r="3" fill="#067389"/>
<circle cx="44" cy="33" r="3" fill="#067389"/>
<circle cx="71" cy="33" r="3" fill="#067389"/>
<circle cx="17" cy="61" r="3" fill="#067389"/>
<circle cx="44" cy="61" r="3" fill="#067389"/>
<circle cx="71" cy="61" r="3" fill="#067389"/>
<circle cx="17" cy="89" r="3" fill="#067389"/>
<circle cx="44" cy="89" r="3" fill="#067389"/>
<circle cx="71" cy="89" r="3" fill="#067389"/>
<circle cx="17" cy="117" r="3" fill="#067389"/>
<circle cx="44" cy="117" r="3" fill="#067389"/>
<circle cx="71" cy="117" r="3" fill="#067389"/>
<circle cx="17" cy="145" r="3" fill="#067389"/>
<circle cx="44" cy="145" r="3" fill="#067389"/>
<circle cx="71" cy="145" r="3" fill="#067389"/>
<circle cx="17" cy="173" r="3" fill="#067389"/>
<circle cx="44" cy="173" r="3" fill="#067389"/>
<circle cx="71" cy="173" r="3" fill="#067389"/>
<circle cx="17" cy="201" r="3" fill="#067389"/>
<circle cx="44" cy="201" r="3" fill="#067389"/>
<circle cx="71" cy="201" r="3" fill="#067389"/>
<circle cx="17" cy="229" r="3" fill="#067389"/>
<circle cx="44" cy="229" r="3" fill="#067389"/>
<circle cx="71" cy="229" r="3" fill="#067389"/>
</svg>
