<?xml version="1.0" encoding="UTF-8"?>
<svg id="Layer_1" data-name="Layer 1" xmlns="http://www.w3.org/2000/svg" xmlns:xlink="http://www.w3.org/1999/xlink" version="1.1" viewBox="0 0 80 80">
  <defs>
    <style>
      .cls-1 {
        clip-path: url(#clippath);
      }

      .cls-2 {
        fill: none;
      }

      .cls-2, .cls-3, .cls-4, .cls-5, .cls-6, .cls-7, .cls-8, .cls-9 {
        stroke-width: 0px;
      }

      .cls-3 {
        fill: url(#Gradiente_sem_nome_156-2);
      }

      .cls-4 {
        fill: url(#Gradiente_sem_nome_156);
      }

      .cls-5 {
        fill: url(#Gradiente_sem_nome_147);
      }

      .cls-6 {
        fill: url(#Degradado_sin_nombre_243);
      }

      .cls-7 {
        fill: url(#Degradado_sin_nombre_233);
      }

      .cls-8 {
        fill: url(#Gradiente_sem_nome_95);
      }

      .cls-9 {
        fill: #ff9801;
      }
    </style>
    <clipPath id="clippath">
      <rect class="cls-2" x="-131.6" y="-143.5" width="80" height="80"/>
    </clipPath>
    <radialGradient id="Degradado_sin_nombre_233" data-name="Degradado sin nombre 233" cx="3376.3" cy="7737" fx="3376.3" fy="7737" r="42.8" gradientTransform="translate(7674.5 -3453.8) rotate(90)" gradientUnits="userSpaceOnUse">
      <stop offset=".2" stop-color="#001a5c" stop-opacity="0"/>
      <stop offset=".3" stop-color="rgba(62, 56, 69, .2)" stop-opacity=".2"/>
      <stop offset=".4" stop-color="rgba(120, 85, 49, .5)" stop-opacity=".5"/>
      <stop offset=".5" stop-color="rgba(168, 109, 31, .7)" stop-opacity=".7"/>
      <stop offset=".6" stop-color="rgba(205, 127, 18, .8)" stop-opacity=".8"/>
      <stop offset=".6" stop-color="rgba(232, 141, 8, .9)" stop-opacity=".9"/>
      <stop offset=".7" stop-color="rgba(249, 149, 3, 1)" stop-opacity="1"/>
      <stop offset=".8" stop-color="#ff9801"/>
    </radialGradient>
    <radialGradient id="Gradiente_sem_nome_95" data-name="Gradiente sem nome 95" cx="7537.7" cy="-2615.5" fx="7537.7" fy="-2615.5" r="45.8" gradientTransform="translate(8390.8 -2716.3) rotate(-180) scale(1.1 1)" gradientUnits="userSpaceOnUse">
      <stop offset="0" stop-color="#001a5c" stop-opacity="0"/>
      <stop offset="0" stop-color="rgba(2, 29, 97, 0)" stop-opacity="0"/>
      <stop offset=".2" stop-color="rgba(10, 39, 112, .2)" stop-opacity=".2"/>
      <stop offset=".4" stop-color="rgba(23, 56, 136, .4)" stop-opacity=".4"/>
      <stop offset=".5" stop-color="rgba(41, 79, 170, .6)" stop-opacity=".6"/>
      <stop offset=".8" stop-color="rgba(63, 108, 213, 1)" stop-opacity="1"/>
      <stop offset=".8" stop-color="#416ed8"/>
    </radialGradient>
    <radialGradient id="Degradado_sin_nombre_243" data-name="Degradado sin nombre 243" cx="8275.9" cy="-2723.4" fx="8275.9" fy="-2723.4" r="13.7" gradientTransform="translate(8285 -2716.3) rotate(-180)" gradientUnits="userSpaceOnUse">
      <stop offset=".2" stop-color="#001a5c" stop-opacity="0"/>
      <stop offset=".3" stop-color="rgba(14, 29, 108, .2)" stop-opacity=".2"/>
      <stop offset=".8" stop-color="rgba(68, 42, 171, .8)" stop-opacity=".8"/>
      <stop offset="1" stop-color="#5a30c5"/>
    </radialGradient>
    <linearGradient id="Gradiente_sem_nome_156" data-name="Gradiente sem nome 156" x1="3180" y1="7846.2" x2="3180" y2="7858.3" gradientTransform="translate(-3120.7 -7799)" gradientUnits="userSpaceOnUse">
      <stop offset="0" stop-color="#251d92" stop-opacity="0"/>
      <stop offset="0" stop-color="rgba(37, 29, 146, .1)" stop-opacity=".1"/>
      <stop offset=".3" stop-color="rgba(37, 29, 146, .4)" stop-opacity=".4"/>
      <stop offset=".5" stop-color="rgba(37, 29, 146, .9)" stop-opacity=".9"/>
      <stop offset=".5" stop-color="#251d92"/>
      <stop offset=".8" stop-color="rgba(37, 29, 146, .4)" stop-opacity=".4"/>
      <stop offset="1" stop-color="#251d92" stop-opacity="0"/>
    </linearGradient>
    <radialGradient id="Gradiente_sem_nome_147" data-name="Gradiente sem nome 147" cx="932.1" cy="12.4" fx="932.1" fy="12.4" r="30.7" gradientTransform="translate(19.7 999.7) rotate(-90) scale(1 .7)" gradientUnits="userSpaceOnUse">
      <stop offset=".8" stop-color="#3d0081" stop-opacity="0"/>
      <stop offset=".9" stop-color="rgba(56, 12, 167, .3)" stop-opacity=".3"/>
      <stop offset=".9" stop-color="rgba(51, 25, 204, .6)" stop-opacity=".6"/>
      <stop offset=".9" stop-color="rgba(48, 34, 231, .8)" stop-opacity=".8"/>
      <stop offset="1" stop-color="rgba(46, 39, 248, .9)" stop-opacity=".9"/>
      <stop offset="1" stop-color="#2e2aff"/>
    </radialGradient>
    <linearGradient id="Gradiente_sem_nome_156-2" data-name="Gradiente sem nome 156" x1="-1041.6" y1="-8253.1" x2="-1041.6" y2="-8241" gradientTransform="translate(704.2 8259.5) scale(.6 1)" xlink:href="#Gradiente_sem_nome_156"/>
  </defs>
  <g class="cls-1">
    <path class="cls-7" d="M-226-111H-86.2c12.2,0,22.4,9.7,22.5,21.9,0,2.1-.2,4.1-.8,6.1l7.3,2c.7-2.5,1.1-5.1,1.1-7.8,0-16.4-13.7-29.9-30.1-29.9h-139.7v7.6Z"/>
    <rect class="cls-8" x="-226.3" y="-104.6" width="145.3" height="7.6"/>
  </g>
  <g>
    <path class="cls-6" d="M24.5,46.8h0s31.7,0,31.7,0c6.8,0,12.4,5.6,12.4,12.4v20.8h4.2v-20.8c0-9.2-7.5-16.6-16.6-16.6h0s-31.7,0-31.7,0c-6.8,0-12.4-5.6-12.4-12.4V5.5l-4.2,5.3v19.3c0,9.2,7.5,16.6,16.6,16.6Z"/>
    <path class="cls-9" d="M48.2,46.2h-4.9c2.7,5.6,8.4,9.6,15,9.6h0s43.8,0,43.8,0v-4.2h-43.8c-4.2,0-7.9-2.1-10.2-5.3Z"/>
    <rect class="cls-4" x="56.9" y="47.2" width="4.8" height="12.2" transform="translate(112.6 -5.9) rotate(90)"/>
    <path class="cls-5" d="M32.7,42.6v-15.9c0-6.8,5.6-12.4,12.4-12.4s12.4,5.6,12.4,12.4v31.9c0,6.8-5.6,12.4-12.4,12.4s-1.5,4.3,0,4.3c9.2,0,16.6-7.5,16.6-16.6v-31.9c0-9.2-7.5-16.6-16.6-16.6s-16.6,7.5-16.6,16.6v14.6l4.3,1.4Z"/>
    <rect class="cls-3" x="40.3" y="6.3" width="4.2" height="12.2" transform="translate(38 56.4) rotate(-100.6)"/>
    <path class="cls-9" d="M48.1,52.2c.2-1.5.8-2.9,1.8-4.1-2.4-2.3-3.9-5.5-3.9-9V.6h-4.2v38.4c0,5.3,2.5,10.1,6.4,13.1Z"/>
  </g>
</svg>