<?xml version="1.0" encoding="UTF-8"?>
<svg id="Layer_1" xmlns="http://www.w3.org/2000/svg" version="1.1" viewBox="0 0 80 80">
  <!-- Generator: Adobe Illustrator 29.0.0, SVG Export Plug-In . SVG Version: 2.1.0 Build 186)  -->
  <defs>
    <style>
      .st0 {
        fill: #93b699;
      }

      .st1 {
        fill: #f9d2c5;
      }

      .st2 {
        fill: #c09768;
      }

      .st3 {
        fill: #b0c9ae;
      }

      .st4 {
        fill: #87b291;
      }

      .st5 {
        fill: #95b99c;
      }

      .st6 {
        fill: #86b691;
      }

      .st7 {
        fill: #2a9059;
      }

      .st8 {
        fill: #278e57;
      }

      .st9 {
        fill: #8fb794;
      }

      .st10 {
        fill: #a7bfc5;
      }

      .st11 {
        fill: #7bb08a;
      }

      .st12 {
        fill: #2a9058;
      }

      .st13 {
        fill: #31915d;
      }

      .st14 {
        fill: #3f9866;
      }

      .st15 {
        fill: #46878c;
      }

      .st16 {
        fill: #418691;
      }

      .st17 {
        fill: #a5c6a9;
      }

      .st18 {
        fill: #6aa37a;
      }

      .st19 {
        fill: #74ae85;
      }

      .st20 {
        fill: #2b7f8a;
      }

      .st21 {
        fill: #adc5ac;
      }

      .st22 {
        fill: #87b692;
      }

      .st23 {
        fill: #269158;
      }

      .st24 {
        fill: #81ae8b;
      }

      .st25 {
        fill: #8cba94;
      }

      .st26 {
        fill: #468596;
      }

      .st27 {
        fill: #43976b;
      }

      .st28 {
        fill: #7bab87;
      }

      .st29 {
        fill: #289058;
      }

      .st30 {
        fill: #72a67e;
      }

      .st31 {
        fill: #60949d;
      }

      .st32 {
        fill: #adc0c8;
      }

      .st33 {
        fill: #30915e;
      }

      .st34 {
        fill: #83b38c;
      }

      .st35 {
        fill: #2b915a;
      }

      .st36 {
        fill: #b9cdb6;
      }

      .st37 {
        fill: #2d905b;
      }

      .st38 {
        fill: #8eb693;
      }

      .st39 {
        fill: #6f9ea4;
      }

      .st40 {
        fill: #2d915a;
      }

      .st41 {
        fill: #2c915c;
      }

      .st42 {
        fill: #dadfe3;
      }

      .st43 {
        fill: #8ab494;
      }

      .st44 {
        fill: #b0caab;
      }

      .st45 {
        fill: #75ac83;
      }

      .st46 {
        fill: #2e905a;
      }

      .st47 {
        fill: #87b393;
      }

      .st48 {
        fill: #3e9767;
      }

      .st49 {
        fill: #35818e;
      }

      .st50 {
        fill: #8bb592;
      }

      .st51 {
        fill: #097882;
      }

      .st52 {
        fill: #e4e7e9;
      }

      .st53 {
        fill: #1e7b84;
      }

      .st54 {
        fill: #6f979f;
      }

      .st55 {
        fill: #3a9461;
      }

      .st56 {
        fill: #f9d1c5;
      }

      .st57 {
        fill: #f3f6ed;
      }

      .st58 {
        fill: #208c55;
      }

      .st59 {
        fill: #067389;
      }

      .st60 {
        fill: #268f58;
      }

      .st61 {
        fill: #2c925b;
      }

      .st62 {
        fill: #2f7d88;
      }

      .st63 {
        fill: #85b492;
      }

      .st64 {
        fill: #2d925a;
      }

      .st65 {
        fill: #278f59;
      }

      .st66 {
        fill: #6aa37c;
      }

      .st67 {
        fill: #7fae88;
      }

      .st68 {
        fill: #a9cbad;
      }
    </style>
  </defs>
  <g>
    <circle class="st59" cx="-145.6" cy="10.5" r="2.1"/>
    <circle class="st59" cx="-126.6" cy="10.5" r="2.1"/>
    <circle class="st59" cx="-105.6" cy="10.5" r="2.1"/>
    <circle class="st59" cx="-86.6" cy="10.5" r="2.1"/>
    <circle class="st59" cx="-145.6" cy="30.2" r="2.1"/>
    <circle class="st59" cx="-126.6" cy="30.2" r="2.1"/>
    <circle class="st59" cx="-105.6" cy="30.2" r="2.1"/>
    <circle class="st59" cx="-86.6" cy="30.2" r="2.1"/>
    <circle class="st59" cx="-145.6" cy="49.8" r="2.1"/>
    <circle class="st59" cx="-126.6" cy="49.8" r="2.1"/>
    <circle class="st59" cx="-105.6" cy="49.8" r="2.1"/>
    <circle class="st59" cx="-86.6" cy="49.8" r="2.1"/>
    <circle class="st59" cx="-145.6" cy="69.5" r="2.1"/>
    <circle class="st59" cx="-126.6" cy="69.5" r="2.1"/>
    <circle class="st59" cx="-105.6" cy="69.5" r="2.1"/>
    <circle class="st59" cx="-86.6" cy="69.5" r="2.1"/>
  </g>
  <g>
    <path class="st56" d="M6.6-82.2c1.5-2.2,4.1-3.9,5.9-5.6,8-7.7,17-14.3,24.9-22.1,5-4.9,8.3-11,8.9-18.2.2-1.8,0-3.7-.3-5.5,0-.9.2-1.4,1-1.7,1-.4,1.1.4,1.4,1,.7,1.3,1.3.5,2.1,0,2.6-2,5.1-4.2,8.3-5.2,2.8-.8,5.8-.9,8.7-1,.5,0,1,.2,1.1.7.2.8-.5.8-1,1-5.3,2.7-10.9,4.9-16.5,7.1-.6.2-1.2.4-1.5.9-.3.5-.4,1-.1,1.5.3.5.7.4,1.2.3,4.4-.5,8.8-1.2,13.3-1.5,3.3-.2,5.3,1.4,7.9,2.9.3.2.5.3.8.5,1.2.8,1.9,2.1,2.7,3.3.7,1.1,1.4,2.3,2,3.4-3.1.6-7.6.4-10.5-1-3.2-1.6-6.3-3.1-9.7-4.2-2.1-.6-4.2-.9-6.3-1-.3,0-.7,0-.9.3-.1.4.2.8.5,1,.4.3.9.3,1.3.4,2.7.6,5.3,1.5,7.8,2.4,6.6,2.3,10.5,10,9.3,16.7,0,.3-.2.7-.5.7-.3,0-.4-.3-.5-.5-1.1-2.2-2.7-3.7-4.2-5.6-1.8-2.4-3.8-4.7-6-6.7-2.2-2-4.7-3.2-7.4-4.3-.9-.4-1.7-.2-2.2.8-.7,1.5-1.6,2.8-2.5,4.1-1,1.4-.9,2.5.4,3.9,3.7,3.8,6.8,8,9.4,12.6.3.8.5,1.6.9,2.4.2.6.6,1.2.8,1.8.2.7.5,1.5-.2,2-.7.5-1.4.2-2.1-.1-.9-.5-1.6-1.2-2.2-2-2.9-4.1-5.6-8.3-8-12.6-.5-.9-.8-2.4-1.8-2.4-1,0-1.4,1.5-2,2.3-.9,1.5-2.5,2.4-3.3,4.2,4.2.6,7.7,2.4,10.7,5.1,1.6,2.2,3.2,4.3,4.3,6.7.3.7.7,1.5,0,2.1-.8.7-1.4-.1-2.1-.6-4.8-3.3-9.5-6.7-14.6-9.5-.4-.2-.7-.4-1.1-.6-.8-.4-1.2.2-1.7.7-.6.6,0,1,.4,1.3,3.2,2.8,6.3,5.6,8.8,9,2.2,2.9,3.7,6.3,4.7,9.8s1.7,6.5-.6,8.9c-.3.4-.9.6-1.3.4-.2,0-.3-.3-.4-.4-2.1-2.8-3.9-6.2-5.6-9.2-1.9-3.3-3.6-6.8-5.2-10.2-.9-2-2.2-3.7-3.4-5.5-.8-1.3-1.6-.7-2.5,0-.8.7-1.5,1.2-.4,2.4,2.4,2.6,4.2,5.7,5.9,8.8,1.3,2.4,1.6,4.9,2.1,7.5.4,2.2-1.3,5-3,6.2-.2.1-.4.3-.6.2-.2,0-.2-.3-.3-.4-.6-2.4-1.6-4.8-2.1-7.2-.9-4.3-2.3-8.4-4.4-12.2-.7-1.3-1.3-1.4-2.5-.6-2.8,1.7-5.2,3.9-7.9,5.9-1.4,1-1.7,2.3-.8,3.8.8,1.4.8,2.7-1.1,3.2s-1.5,0-2.3.1c-2.4.1-4.7,1.7-5.9,3.8.2-1.3.4-2.6.6-3.8.2-.9.5-1.8,1-2.5Z"/>
    <path class="st56" d="M54.3-109.6c-1.4-2.7-3.6-4.8-6.1-6.4-.5-.3-1.2-.6-.9-1.3.3-.7,1-.4,1.4-.2,2.4,1,5.1.8,7.6,2,5,2.4,6.5,6.9,7.9,11.6.7,2.4,1.2,5,.6,7.5-.2.9-.8,2.5-1.8,2.8-1.3.6-1.3-.4-1.7-1.5-1.3-3.7-1.6-7.7-4.5-10.7-1.1-1.1-1.9-2.3-2.5-3.8Z"/>
    <path class="st1" d="M21.1-79.4c-.5-2.2-1.5-4.4-2.7-6-.5-.7-1.2-1.5-.5-2.3.8-.8,1.4.2,2.1.5,2.3,1,4.4,2.2,6,4.1,2.5,3.1,2.9,5.9,1.3,9.5-.4.9-.8,1.9-1.4,2.7-1.4,1.8-3.4,1.6-5.4,1-.1,0-.2,0-.3-.1,0-.1,0-.3,0-.4.3-1.5.9-2.9,1.2-4.4.3-1.4.2-3-.2-4.6Z"/>
  </g>
  <g>
    <path class="st2" d="M-129.3-86.3c1.7-.5,3.3-1,2.8-3.4-.1-.8.4-1.4,1-1.8,3.3-2,5.3-5.5,8.6-7.5.4-.3.7-.7.6-1.2-.3-1.8.5-2.6,2.1-3.4,2.1-.9,1.6-3.2,1.7-4.9.1-1.7.4-3,1.9-4.2,1.2-.9,1-2.8,1.9-4.2,1.3-2,2-2.4,3.9-.9,1.2.9,3,1.1,4,2.4.5.6,1.1,1.2,1.3,1.9.7,2.3,1.7,4.4,3.3,6.3,1.3,1.5.6,3.7-.4,5.1-.9,1.3-1.5,2.5-1.8,4.1-.3,1.7-1.4,3.3-2.8,4.4-2.5,2-3.3,4.9-4.4,7.6-1.2,3-2.2,6.2-5.9,7.2-1,.2-1.4,1.2-1.6,2.1-1.1,3.3-2.5,6.4-2.7,9.9,0,1-1.2,1.4-1.3,2.3-4.9-1-9.8-1.9-14.7-2.8-1-.2-1.1-.4-1-1.4,1.2-5.9,2.3-11.8,3.5-17.7Z"/>
    <g>
      <path class="st51" d="M-92.7-124.2c0,.5,0,1-.2,1.4-1.3,1.8-.7,3,1.2,3.9.8.4.4,1.2.3,1.8-.1.7-.4,1.4,0,2.2,1.5,3.2.2,5.9-1.4,8.6-1.1,1.8-2.2,3.6-2,5.9,0,.5,0,1.1-.3,1.6-.7,1.4-.8,2.6.7,3.7,1,.8.4,3.8-.9,5.2-1.3,1.6-2.1,3.6-3.6,5-.8.7,0,1.6.1,2.4.1.8.3,1.5-.4,1.9-2.5,1.2-3.8,3.5-5.2,5.7-.7,1-1.4,1.6-2.5,2-1,.5-2,.9-2.7,1.9-.7.9-1.8.8-2.8,1-.9.1-1.4.4-1.8,1.3-.5,1.2-1.4,2.2-2.6,2.9-1.4,0-1.7-.2-1.3-1.4.2-.6.5-1.2,1-1.5,1.4-.9,2-2.6,3.3-3.5.7-.5,1.6-1.1,1.1-2.3,1.6-.8,1.5-3.1,3.3-3.9,1.5-.6,2.4-1.6,2.3-3.4,0-1.3.8-1.9,2-1.6.4,0,.1-.2.1-.2.6-1.8.4-4,2-5.4.4-.3.4-.7.2-1.2-.2-.4-.4-.8-.4-1.2,0-.7-.6-1.7.5-2,.9-.3.9.9,1.4,1.5.9-1,.6-2.3.7-3.4.2-2.3.5-4.4,1.7-6.4,1-1.7,1.4-3.8,1.9-5.8.5-2-.3-2.9-1.1-4.2-.5-.7-.2-1.5.6-1.5,1.4,0,1.1-.7,1.1-1.5,0-1.1-.9-.9-1.5-1-.1,0-.2,0-.3,0-1-.9-1.1-2.4,0-3.9.6-.8.5-1.5.2-2.3-.9-2.3-.9-2.3,1.4-2.5.2,0,.5,0,.7-.2l3.2.6Z"/>
      <path class="st20" d="M-95.8-124.8c-.3.4-.7.8-1.1.7-2.1-.4-1.1.8-.7,1.4.6.8.2,1.7.5,2.5-1.3.4-.5,1.8-1.2,2.3-1,.7-.3,1.1,0,1.6-.3.3-.6.3-1,.2-1.3-.2-1.1-1.3-1.3-2.1,0-.1-.1-.3-.2-.4,0-.2.5-.2.4-.4-.9-1.6-.6-3.4-.9-5.1-.1-.6.2-1.3.8-1.7l4.6.9Z"/>
      <path class="st31" d="M-100.4-125.7c-.6,2.5-.2,4.8.8,7.2-.2,0-.6,0-1.1,0-.4-.6-.7-1.3-.7-2.1-.1-1.8-.5-3.7-.7-5.5.6.1,1.2.2,1.8.3Z"/>
      <path class="st16" d="M-105-96.7c.4-.2.2-.5.1-.7.6-1.6,1.2-3.1,1.4-4.8,1.3-1.6,1.5-3.5,1.7-5.4.2-.8.4-1.7,1.3-2.2.3,0,.6,0,.7.4,0,.2.1.5,0,.7-.7,1.2,1.7,1.7.9,2.5-.7.7-1.3,1.1-1.4,2.2-.1.9.4,1.9.2,2.5-.6,1.6-.4,3.5-2,4.7-.3.3-.8.4-.8.9,0,1.8-1,3-2.3,4.1-.9.7-.4,2-1,2.8-.5.8-1.3,1.5-.7,2.5-.1.8-1.5.4-1.3,1.5,0,.2,0,.3,0,.5-.4.6-.9,1.2-1,1.9-.5.7-1.1.8-1.8.5-.3-.6,0-1,.2-1.5.7-2.4,2.2-4.4,3.2-6.7h0c.3-1,1-1.7,1.3-2.7h0c.6-1.2,1.3-2.3,1.4-3.7Z"/>
      <path class="st62" d="M-121.5-64.3c-.1,0-.3.1-.4.3-1.1,1.3-2.2,2.3-3.7.4,0,0,0-.2,0-.3,1.1-1.7,1.5-3.7,3-5.2.5-.4.9-1,1.6-1,.7,0,.7-1.5,1.8-1,.5,1.3.6,2.6-.3,3.8-.2.2-.3.5-.6.6-.9.3-1,.6-.3,1.5,0,.7-.4.9-1,.9Z"/>
      <path class="st31" d="M-100.3-109.6c-.7.6-.9,1.5-1.2,2.3-.4.1-.5-.2-.6-.5.9-2.6.3-5.3.9-8,.2-.8-.1-1.6.7-2.2.5,0,.7.2.5.7-.2.6.2.8.7.9-.1,1.2-1.3,2.2-.5,3.4,0,.5,0,1.2-.3,1.3-1,.4.1.6,0,.8,0,.4.2.8-.1,1.2Z"/>
      <path class="st39" d="M-120.8-69.9c-1.7.9-2.9,2.3-3.4,4.2-.2.8-.7,1.4-1.5,1.9-.4-.8-1.1-1.7.5-2.1.3,0,.4-.3.5-.6.5-2.1,2.1-3.4,3.5-4.8.3-.3.4-1.1,1.1-.6.2.9-.4,1.4-.7,2.1Z"/>
      <path class="st32" d="M-120-71.9c-.6-.2-.8.4-1.2.5-.3-1.4,1.2-2.1,1.7-2.4,2.4-1.6,3.5-4.3,5.5-6.3.3.5.2,1,0,1.5-.5,1.4-1.9,2.3-2.4,3.7-1,1.2-2.1,2.4-3.6,3Z"/>
      <path class="st42" d="M-107.7-90.3c-.1,1.2-.4,2.3-1.3,3.1-1,1-1,2.4-1.5,3.6-.4.4-.8,1.3-1.4.2,1.2-1.9,2.6-3.7,3.2-6,.1-.4.5-.8,1-.9Z"/>
      <path class="st54" d="M-111.9-83.4c.5.5,1,0,1.4-.2-.2.5-.4.9-.6,1.4.2,1.3-1.3,1.6-1.4,2.7,0,1-.4,1.6-1.5,1.4-.2,0-.3-.2-.4-.4.1-.5.3-1.1.4-1.6.9-1,1.9-1.9,2.1-3.3Z"/>
      <path class="st10" d="M-102.1-107.8c.2.2.4.3.6.5.2,2-.4,3.7-1.8,5.1-.8-.1-.6-.7-.5-1.2,1.4-.6.6-2.1,1.3-3.1.3-.3.2-.9.3-1.4Z"/>
      <path class="st52" d="M-103.7-103.3c.2.4.3.8.5,1.2-.3,1.7-.2,3.5-1.6,4.8-.6-2.2,1-3.9,1.2-6Z"/>
      <path class="st42" d="M-105-96.7c.3,1.5,0,2.8-1.4,3.7-.4-.2-.7-.8-.4-.9,1.2-.6,1-2,1.9-2.8Z"/>
      <path class="st42" d="M-106.4-93c.5,1.3-.9,1.8-1.3,2.7-1-1.6,0-2.2,1.3-2.7Z"/>
      <path class="st53" d="M-117.1-66.2c-.1.9-.9.6-1.4.6-.7,0-1.5,0-2.2.5-2-.6-.1-1.9-.9-2.9.9,0,.5,1.1,1.3,1.1-.4-.9,1.4-.8.9-1.9-.3-.6,0-1.5,0-2.2-.3-.9.2-1.6.9-1.8,1.1-.4,2.1-.8,2.3-2.1,1.1-.8,1.7-2.2,3.2-2.5-.2-.3-1.2,0-.9-1,1,0,1.3-.4,1-1.3,1.1-.7,2.1-1.4,3.2-2.1.4-.3,1-.6.4-1.3-.3-.9.6-1.2,1-1.6.1,0,.3.2.4,0,0-.1-.2-.2-.3-.4-.7-.3-.8-.7-.1-1.1.5-.2,1-.3,1.5-.5,1-.6.7-1.6.5-2.5,0-1.8.7-3.2,2.2-4.3.5-.3.7-.9.7-1.6,0-.8-.2-2,1.4-2.3,1-.2.2-2.2.6-2.5.8-.7,1.6-1.2.7-2.3-.8-1,.5-1.8.1-2.7-.7-1.7,1-1,1.6-1.5,0-.1,0-.3,0-.3q-1-.8-1.2-3.1c0-.4,0-.7-.1-1.1.1-.3,1.2-.1.4-.9-.2-.3.1-.8,0-1.2-1.4-1.5-.3-2.5.7-3.5.4,0,.7.1,1.1.2,2.3-.3,3,.6,2.3,3-.2.8-.3.9-1.1.3-.4-.3-.5,0-.7.1-.5.3-.1.7.1.8,1,.7,1.1,1.9,1.8,2.8.2.2.4.7.1.7-2.1.1-.5,1.5-.8,2.2-.7,1.7-1.2,3.5-2.2,5-1.3,1.9-1.2,3.8-1.3,6,0,1.3.2,3.2-1.6,4.1-.8-.6,0-1.9-1.3-2.4,0,1-.1,2,.4,2.7.7.9.4,1.5-.3,2-.9.7-1.6,1.3-1,2.5,0,.1.1.3,0,.3-1.7.8-.6,2.8-1.7,4.1-.5-.7,0-1.3-.2-1.9-.8.8-1.4,1.3-1.2,2.8.2,1.2-1.1,2.3-2.4,2.8-1,.4-2,.9-1.6,2.3.2.6-.3.8-.7.8-1.9.3-1.2.9-.2,1.5-.3.7-.8.2-1.1.5-1.6,1.9-3.2,3.8-5,5.6-.3.3-1,1.5.6,1.4Z"/>
      <path class="st49" d="M-109.5-83c.6,0,1.4.4.6,1-1.2,1-2.3,2.4-4.2,2.3.2-1.2,1.5-1.5,2-2.5.5-.3,1.4.1,1.6-.8Z"/>
      <path class="st49" d="M-106.5-88.9c1.4.2.5,1.3.6,1.9,0,.8-.9,0-1.1.5-1.7-1.2,0-1.7.5-2.5Z"/>
      <path class="st49" d="M-108.4-84.9c.9-.3,1,.4,1.3,1.2-.7-.2-1.4,0-1.4-.9,0-.1,0-.2,0-.4Z"/>
      <path class="st15" d="M-116.1-74.8c.5,1.9-.7,2.1-2.2,2.2-.9,0-.8,1-1.1,1.5-.6.2-.8.8-1.1,1.3,0,0-.1,0-.2,0,0,0,0,0-.1-.1-.2-.8.3-1.4.8-2,1.1-1,2.3-2,3.4-3,.2,0,.4,0,.5.1Z"/>
      <path class="st16" d="M-100-112.8c0,1.1,1.4,1.9.8,3.1-.9.2-.1-1.4-1.2-1-.6-.8.3-1.4.4-2.1Z"/>
      <path class="st26" d="M-116.1-74.8c-.2,0-.3,0-.5-.1,0-.3-.7-.7,0-1,1.1-.5,1.5-1.7,2.3-2.6.1,0,.3,0,.4.2.3.5.7.8,1.3.6.3,0,.6-.2.6.2,0,.3-.2.7-.4.7-1.5-.3-2,.8-2.7,1.7-.2.2-.6.3-1,.4Z"/>
    </g>
    <g>
      <path class="st56" d="M-128-65.1c1.3-2,3.6-3.5,5.3-5,7.2-6.8,15.2-12.7,22.2-19.6,4.4-4.4,7.4-9.8,8-16.2.2-1.6,0-3.3-.3-4.9,0-.8.2-1.3.9-1.6.9-.4,1,.4,1.2.9.7,1.1,1.2.4,1.8,0,2.3-1.8,4.5-3.8,7.4-4.6,2.5-.7,5.1-.8,7.7-.9.4,0,.9.1,1,.6.2.7-.4.7-.9.9-4.8,2.4-9.7,4.4-14.7,6.4-.5.2-1,.3-1.4.8-.3.4-.4.9-.1,1.3.3.4.6.4,1.1.3,3.9-.5,7.9-1.1,11.8-1.3,3-.2,4.7,1.2,7.1,2.6.2.1.5.3.7.5,1,.7,1.7,1.9,2.4,3,.6,1,1.2,2,1.8,3-2.8.5-6.8.4-9.4-.9-2.8-1.4-5.6-2.8-8.6-3.7-1.8-.6-3.7-.8-5.6-.9-.3,0-.6,0-.8.3-.1.4.1.7.4.9.3.2.8.3,1.2.3,2.4.5,4.7,1.4,7,2.2,5.9,2.1,9.3,8.9,8.3,14.9,0,.3-.2.6-.5.6-.2,0-.4-.2-.5-.4-1-2-2.4-3.3-3.7-5s-3.3-4.2-5.3-5.9c-2-1.8-4.2-2.9-6.6-3.9-.8-.4-1.5-.1-1.9.7-.6,1.3-1.4,2.5-2.2,3.6-.9,1.2-.8,2.2.4,3.4,3.3,3.4,6.1,7.2,8.4,11.3.3.7.5,1.4.8,2.1.2.6.5,1.1.7,1.6.2.6.4,1.3-.2,1.8-.6.5-1.3.2-1.8-.1-.8-.4-1.5-1-2-1.8-2.6-3.6-5-7.4-7.2-11.3-.5-.8-.7-2.1-1.6-2.1-.9,0-1.2,1.3-1.8,2.1-.8,1.3-2.2,2.1-2.9,3.7,3.7.6,6.8,2.1,9.6,4.5,1.4,1.9,2.9,3.8,3.8,6,.2.6.6,1.3,0,1.8-.7.6-1.3-.1-1.9-.5-4.3-2.9-8.5-6-13-8.5-.3-.2-.6-.3-1-.5-.7-.4-1.1.2-1.5.6-.5.6,0,.9.4,1.1,2.8,2.5,5.6,5,7.8,8,1.9,2.6,3.3,5.6,4.2,8.7s1.5,5.8-.5,7.9c-.3.3-.8.6-1.2.3-.2,0-.3-.2-.4-.4-1.8-2.5-3.5-5.5-5-8.2s-3.2-6-4.6-9.1c-.8-1.8-2-3.3-3-4.9-.7-1.1-1.4-.7-2.2,0-.7.6-1.4,1.1-.4,2.1,2.2,2.3,3.8,5,5.2,7.8,1.1,2.1,1.4,4.4,1.8,6.7.3,2-1.2,4.4-2.7,5.6-.2.1-.4.2-.6.1-.1,0-.2-.2-.2-.4-.6-2.1-1.4-4.3-1.8-6.4-.8-3.8-2.1-7.4-3.9-10.9-.6-1.1-1.1-1.3-2.2-.6-2.5,1.6-4.7,3.5-7,5.2-1.2.9-1.5,2-.7,3.4.7,1.2.7,2.4-1,2.8s-1.4,0-2,.1c-2.2.1-4.2,1.5-5.3,3.4.2-1.1.4-2.3.6-3.4.1-.8.5-1.6.9-2.2Z"/>
      <path class="st56" d="M-85.6-89.6c-1.3-2.4-3.2-4.3-5.5-5.7-.5-.3-1-.6-.8-1.2.2-.6.9-.4,1.3-.2,2.2.9,4.6.7,6.8,1.8,4.4,2.1,5.8,6.1,7,10.4.6,2.2,1.1,4.5.5,6.7-.2.8-.7,2.2-1.6,2.5s-1.2-.3-1.5-1.3c-1.2-3.3-1.4-6.9-4-9.6-1-1-1.7-2.1-2.3-3.3Z"/>
      <path class="st1" d="M-115.1-62.6c-.5-2-1.4-3.9-2.4-5.3-.4-.6-1.1-1.4-.4-2.1.7-.7,1.2.2,1.8.5,2,.9,3.9,1.9,5.3,3.7,2.2,2.7,2.6,5.3,1.2,8.5-.4.8-.7,1.7-1.3,2.4-1.3,1.6-3,1.4-4.8.9,0,0-.2,0-.2-.1,0-.1,0-.3,0-.4.3-1.3.8-2.6,1-3.9.3-1.3.1-2.7-.2-4.1Z"/>
    </g>
  </g>
  <g>
    <path class="st57" d="M167.8,16.5c-.5-.1-.9-.2-1.4-.4.2.8.5,1.6.7,2.5-1.2.7-2.1,0-3.1-.6-1.1-2.3-2.4-4.4-4.1-6.3-.4-.5-.9-1-1.4-1.5-.7-.7-1.6-1.2-2.4-1.7-.9-.7-1.7-1.5-2.7-2.2-.3-.2-.5-.4-.8-.6-.7-.7-1.5-1.3-2.4-1.7-1.6-.7-2.8-2-4-3.2-1.1-1-2.3-2.1-3.6-2.9-.5-.3-.9-.6-1.3-.9-1-1-2.1-2-3.1-3-.5-.6-.9-1.2-1.2-1.8-.7-1.5-1.9-2.6-2.9-3.8-.5-.5-.9-1.1-1.3-1.7-.3-.4-.7-.8-1-1.2-.5-.7-.9-1.5-1.4-2.2-.4-.6-.9-1.1-1.3-1.6-.7-.8-1.4-1.5-1.9-2.4-.4-.7-.9-1.4-1.7-1.8-.5-.3-.9-.6-1.3-.9-1.5-1.3-2.3-3.2-3.7-4.6-.4-.4-.8-.7-1.2-1.1-1.7-2.2-4.3-3.5-5.7-5.9-.1-.4-.2-.7-.1-1.1l2.2-1c.7.3,1.4.5,2,.9,1.5,1.3,3.2,2.5,4.5,4,.6.7,1.1,1.5,1.8,2.1,1.6,1.6,3.2,3.1,4.7,4.8.7.9,1.2,1.9,1.9,2.7.7.9,1.5,1.7,2.1,2.6.6.9,1.1,1.9,1.9,2.7.7.9,1.3,1.8,2,2.6,1.1,1.7,3,2.5,4.2,4.2,1,2.7,3.2,4.6,5.4,6.3.7.6,1.3,1.3,2,1.8,1.3,1,2.6,2,4,3,5.8,3.2,9.9,8.3,14.8,12.6,1.1,1,1.7,2.1.6,3.4Z"/>
    <path class="st64" d="M141.7-34.3c2.6,2.2,5.1,4.5,6.8,7.5-1.6,1.4-3.2.5-4.8,0-4.2-1.1-8.2-2.7-12.3-4.1-1.3-.4-2.4-1.1-3.5-1.9-1.3-1.5-3-1.8-4.8-2.4-1.9-.6-4.2-.6-4.9-3.1l4.4-1.9c3.5,0,6.4,2.3,9.8,2.8.4,0,.7.1,1.1.2,2.8.7,5.2,2.6,8.3,2.7Z"/>
    <path class="st33" d="M127.7-42.3c4.4,2.4,9.3,4,13.2,7.4-3.1,1.3-5.3-1.9-8.1-1.8h0c-3-1.2-6.5-1.3-8.8-4.1l3.7-1.6Z"/>
    <path class="st24" d="M118.1-38.1c2,1.3,4.2,2.3,6.6,2.6,1.7.2,3,1,3.7,2.6-2.5,1.4-4.4-.7-6.5-1.2-1.6-.4-2.9-1.7-4.7-1.8-.7-.1-1.1-.6-1.3-1.3l2.2-1Z"/>
    <path class="st5" d="M113.7-36.2c.2.1.2.3.2.5,0,.2.1.3.2.5,0,1.8-.8,3.1-2,4.3-.3.2-.6.3-1,.3-.6-1.2-1.2-2.5-1.8-3.7l4.4-1.9Z"/>
    <path class="st38" d="M124-40.7c2.9,1.4,5.9,2.7,8.8,4.1-3.9.3-6.9-2.1-10.3-3.5.5-.2,1-.4,1.5-.6Z"/>
    <path class="st37" d="M146-3.7c-2.5-1.6-5.3-2.9-5.2-6.6,1.5-1.1,2.7,0,4.1.5,6.6,2.2,12.7,6.1,19.5,7.7,2.2,2.6,2.9,5.7,3.8,8.9-1.5,1.9-3.1.6-4.6,0-4.2-1.6-7.9-4.1-12-5.9-1.3-.9-2.5-1.8-3.8-2.7q.7-1,2.5-.6c-1.2-1-2.9-.7-4.2-1.3Z"/>
    <path class="st13" d="M153.5,5.2c.2,0,.3.2.3.5,1,4.8.3,7.1-2.6,8.3-4.1-1.4-8-3.4-11.9-5.4,0-.4.2-.7.4-1,1.4-1.8,2-4,2.8-6,.9-2.3,2.2-2.6,4.1-1.2,1.5,1.1,2.9,2.1,4.4,3.2,1.9,2.2-.7,3.9-.7,5.6,1.1-1,.2-4,3.1-3.9Z"/>
    <path class="st12" d="M117.2-35.9c1.6-1.6,2.8.3,4.1.6,2.5.5,4.5,2.4,7.1,2.4,1.2-.1,1.8.9,2.7,1.3,4.9,2.4,10.2,3.8,15.4,5.4,1.4.5,2.7,1,3.8,2.1.5.9.9,1.8,1.4,2.7.7.5.4.9-.1,1.3-3.7,0-6.7-2.3-10.1-3.3-3.7-1.2-7-3.3-10.9-3.7-1.3-.2-2.5-.7-3.6-1.4-1.6-1.4-3.6-2.2-5.2-3.5-1.5-1.3-3-2.7-4.5-4Z"/>
    <path class="st40" d="M151.4-20.2c0-.4.2-.7.3-1.1,1.8,2.1,3.1,4.5,3.7,7.3-.3.3-.6.4-1,.3-5.8-2.4-11.4-5-17.5-6.6-3.2-.9-6.1-2.6-8.7-4.7-2.1-1.1-3.4-3.1-4.9-4.8,1.8-.9,2.9.3,4.1,1.2,1,.1,1.9.3,2.6,1.1,4.8.6,8.9,3.3,13.5,4.7,2.6.8,5,2.5,7.9,2.7Z"/>
    <path class="st35" d="M164.3-2.1c-3.3,1.9-5.7-.9-8.3-2-5-2.2-10.2-4.3-15.3-6.2-2-.8-3.6-2.1-4.6-4.1-.8-1.3.3-1.3,1-1.3,1.3,0,2.5.6,3.8.8,2,.4,4,1.2,5.7,2.3,4.1,2.2,8.4,3.6,12.7,5.2,1.7.6,3,1.5,3.8,3.1.4.7.7,1.4,1.1,2.1Z"/>
    <path class="st7" d="M131.3-17.4c.4.9.9,1.8,1.3,2.7-.6,3.1-1.8,5.9-3.4,8.5-.8,1.2-1.4,2.4-1.6,3.8.3-1.4,1-2.7,1.7-3.9,2-2.3,1.5-6,4.3-7.8.4.7.7,1.3,1.1,2,.3,1.5-.5,2.8-1,4.1-.2.3-.3.6-.5,1-1.6,2.9-3.1,5.8-3.4,9.1,0,.5,0,1.1,0,1.6,0,.2-.2.3-.2.5-2.2-1-4.2-2.3-5.5-4.4-.5-.4-.8-.9-.9-1.5.8-5,3.1-9.5,5.2-14,.5-1,1.2-2.5,3-1.7Z"/>
    <path class="st61" d="M121.2-28.9c1.6,1.6,2.9,3.3,3.9,5.3.2,2.3-.6,4.3-1.4,6.4-2.1,2.3-1.4,6.3-4.9,7.7-2.5-2.4,0-4.4.6-6.9q-1.5,3.4-2.8,1.6c-.9-2.8-1.8-5.6-2.6-8.4,1.1-.9,1.7.2,2.5.6,1.8-.4,1.4-2.2,2.1-3.3.7-1.1.7-2.8,2.5-3Z"/>
    <path class="st55" d="M151.5.9c3.5.6,6.5,2.2,9.5,3.8,2.2,1.1,4.4,2.7,7.1,2.1,2,4.5,2.6,9.3,2.9,14.2-1.1-1.5-2.2-3-3.2-4.5.4-2.6-2.2-2.8-3.3-4.2-3.7-4.6-8.4-8-13-11.4Z"/>
    <path class="st48" d="M116.4-21.9c-.8-.5-1.5-.9-2.3-1.4-1-2.5-2-4.9-3-7.4.2-.1.3-.3.5-.4,2.6-.2,1.9-2.7,2.7-4.1,0-.2-.1-.4-.3-.6,2.2,2,4.8,3.5,6,6.4-.7,2.7-.7,5.7-3.6,7.4Z"/>
    <path class="st27" d="M160.4,11c2,2,4.4,3.7,3.9,7.1-.1.3-.3.4-.6.2-4.2,1.2-6.9-2.2-10.4-3.3.5-2.6.4-5.5,3.4-6.8,1,.2,1.9.7,2.5,1.6.8,1.1-.2,2-.3,2.8.4-.5.3-1.6,1.5-1.5Z"/>
    <path class="st41" d="M123.3-1.8c.2.5.4,1.1.6,1.6-.7-.9-1.4-1.8-2.1-2.7-1.1-1.6-1.9-3.3-2.3-5.2,0-.4.3-.7.5-1.1,2.3-1.8,3-4.6,4.3-7,1.3-1.7.9-4.4,3.5-5.2.6.8,1.3,1.7,1.9,2.5-1.7,4.2-3.5,8.3-5.1,12.5-.6,1.5-1.3,2.9-1.4,4.6Z"/>
    <path class="st8" d="M155.2-13.9s.3-.2.3-.2c.8.8,1.5,1.6,2.3,2.3-.9,1.6-1,1.6-2.9,1-3.4-1.2-6.7-2.5-10-4-1-.4-1.9-1-3-1-.9-.2-1.7-.5-2.6-.9-2.2-1.4-4.7-2-6.9-3.3-.7-.8-1.5-1.6-2.2-2.4-.6-1.7.6-1.5,1.4-1.1,7.6,3.8,16,5.6,23.7,9.4Z"/>
    <path class="st37" d="M138.9-6c2,0,2.4,1.7,3.2,2.9-.8,3.9-1,8-4.2,10.9-1.5-.4-3.1-.7-4.2-2,0-.2,0-.4,0-.5.8-2.1,1.9-4.2,2.5-6.4.8-1.7.4-4,2.7-4.9Z"/>
    <path class="st46" d="M138.9-6c-.5,1.7-1.1,3.3-1.6,5-2,1.9-2.1,4.8-3.6,6.9,0,0,0,0,0,0-1.7.1-2.8-1.1-4.2-1.6,0,0,0-.1,0-.1.3-.5.6-.8,1.1-1.2,2.6-2.9,2.4-6.8,4-10.1.8-1.7,1.6-3.2,3.5-1,.3.8.6,1.5.9,2.3Z"/>
    <path class="st67" d="M150.3-24c-6.3-2.8-13.4-3.5-19.2-7.5,4.4.5,8.1,3,12.3,3.9,1.7.3,3.3.9,5,.9,1.3.4,1.6,1.6,1.9,2.7Z"/>
    <path class="st29" d="M137.9,7.8c2-3.4,1.8-7.6,4.2-10.9.3.1.7.3,1,.4,1.2.8.8,1.9.4,2.8-1.3,2.8-1.8,5.9-3.8,8.3,0,0-.3,0-.3,0-.5-.3-1-.5-1.5-.8Z"/>
    <path class="st18" d="M141.7-16c.8-1,1.5-.5,2.4-.1,3.8,1.7,7.6,3.2,11.4,4.7.7.3,1.7,1.4,2.2-.3,1,.3,1.2,1.2,1.6,2,.3.1.4.3.5.5,0,.2,0,.4,0,.4-1.3.9-2.6.2-3.8-.3-4.1-1.5-8.2-3.2-12.2-5-.9-.4-2.1-.7-2.1-2Z"/>
    <path class="st11" d="M159.6-8.8c0-.3-.2-.6-.3-.9,1.6,1.6,3.2,3.2,3.9,5.4-4.2-2.7-9.1-3.8-13.6-5.9-1.3-.6-2.9-.6-3.8-1.9,1.6-1.5,3,0,4.4.4,3.2.8,5.8,3.2,9.3,2.9Z"/>
    <path class="st14" d="M156.7,8.1c-1.1,2.3-2.3,4.5-3.4,6.8-.7-.3-1.3-.7-2-1,3.1-2.1,1-5.8,2.6-8.3,1,.8,2.3,1.1,2.8,2.5Z"/>
    <path class="st6" d="M120.5-8.5c-.8,2.2,1.2,3.7,1.3,5.6-2.7-3.6-4.3-7.6-5.1-12,.5.6,1,1.3,1.6,0,.6-1.4.7-3,2.1-4.2.7,3.5-3.7,5.8-1.4,9.2.7.2,1.5.4,1.4,1.4Z"/>
    <path class="st50" d="M132.8-36.6c3-1,5.2,2.4,8.1,1.8.3.2.5.4.8.6-3.6,1.6-6-1.3-8.9-2.3Z"/>
    <path class="st22" d="M155.2-13.9c-7.4-2.7-14.8-5.4-22.3-8-.8-.3-1.7-2.2-2.8-.3-1.3-.5-1.4-1.8-1.8-2.9,8.1,3.1,16.2,6.2,24.3,9.4.9.4,1.7,1.2,2.6,1.8Z"/>
    <path class="st60" d="M125.3-15.5c-1.5,2.1-1.7,5-4.1,6.7-2-1.7,0-3.1.3-4.6.4-1.5,1-3,1.9-4.3,0-2.1.4-4.2,1.7-6,.4.2.7.3,1.1.5,1.6.9.5,2,.2,3.1-.4,1.5-1.3,2.9-1.3,4.6Z"/>
    <path class="st28" d="M138-8.2c-1.3-.9-2-.5-2.5,1-.9,3-1.9,6-3,8.9-.3.8-.1,2.3-1.8,1.9-1-2.9,1.3-5.3,1.5-8,0-1.2,1-2.2.8-3.4.1-1.6.8-3,1.7-4.3,1.5.9,2.6,2.2,3.3,3.8Z"/>
    <path class="st68" d="M123.3-1.8c.8-6.2,3.5-11.7,6.5-17,.5.5.9,1,1.4,1.4-2.3.7-2.5,2.9-3.3,4.6-1.6,3.6-2.6,7.5-4.7,11Z"/>
    <path class="st30" d="M139.7,8.5c1.1-3.7,3.7-7,3.4-11.1,1.2,1,2.4,2,3.6,2.9-1.6-.3-2.8-.2-3.5,1.9-.7,2.3-.8,5.1-3.5,6.3Z"/>
    <path class="st17" d="M116.4-21.9c1.2-2.5,2.4-5,3.6-7.4.5-.2.9,0,1.2.4-2.4,2.2-1.7,6-4.4,8,0,0-.5-.1-.6-.3,0-.2,0-.5.1-.7Z"/>
    <path class="st4" d="M153.5,5.2c-2.4,1.5-1.9,4.7-4,6.7-.4-3.2,2.7-5.4,1.6-8.4.8.6,1.6,1.1,2.4,1.7Z"/>
    <path class="st25" d="M133.6-14.1c-2,2.4-1.8,5.8-4.2,7.9-.1,0-.2-.1-.4-.2,1.2-2.8,2.3-5.6,3.5-8.3.3.2.7.4,1,.6Z"/>
    <path class="st19" d="M132.3-19.8c2.7.3,5.5.5,7.2,3-1.7,1.3-3.2-.5-4.8-.3-.2,0-.3.1-.5.2-1.1-.6-1.6-1.7-1.9-2.8Z"/>
    <path class="st63" d="M146-3.7c2.7-.5,4.8,1,7.7,2.2-2.5,1.1-4.1-1.9-6-.4-1.1-.1-1.4-1-1.7-1.9Z"/>
    <path class="st43" d="M141.1-13.9c-1.7.7-3.1-2.3-4.9-.5-1.3-.4-1.4-1.7-2-2.6,0-.1,0-.3,0-.4,2.6.6,5.7.1,6.8,3.5Z"/>
    <path class="st0" d="M125.3-15.5c-1.2-2.7,2-4.9,1-7.6,1.2,0,1.3,1,1.7,1.8-.9,1.9-1.8,3.9-2.7,5.8Z"/>
    <path class="st36" d="M160.4,11c-1.5,1.1-1.3,3.3-3.4,5.4,1-3,1.6-4.8,2.2-6.7.4.4.8.8,1.2,1.3Z"/>
    <path class="st21" d="M127.5-28.7c-1.4-.4-2.7-.8-4.1-1.2-1.2,0-1.2-1.2-1.6-2,2.1.6,4.5.9,5.7,3.2Z"/>
    <path class="st45" d="M139.2-31.4c-3.1-1.2-6.2-2.5-9.1-3.6,3.2.3,6.1,1.9,9.1,3.6Z"/>
    <path class="st58" d="M114.2-35.1c.9,1.8,0,3.5-.8,4.9-1.5,2.4-1.2-.6-1.8-.7,1.1-1.2,1.1-3.2,2.7-4.1Z"/>
    <path class="st47" d="M165.8,4.9c-1.5-.7-3-1.3-4.5-2,1.9-.5,3.4.3,4.5,2Z"/>
    <path class="st34" d="M142.5,8.6c.7-1.7,1.5-3.4,2.3-5.2,0,2-.8,3.7-2.3,5.2Z"/>
    <path class="st44" d="M151.4-20.2c0,1.1-.6.9-1.3.6-6.7-2.7-13.4-5.4-20-8,2.5-1.1,4.6.5,6.7,1.3,4.9,1.9,9.7,4.1,14.6,6.1Z"/>
    <path class="st23" d="M141.1-13.9c-1.7-2.2-4.5-2.4-6.8-3.5-.4-.9-.1-1.2.8-.9,1.5.5,3,1,4.4,1.4.9-.3,1.7-.2,2.2.8,5.8,2.8,11.8,5.1,17.9,7.2.6,2.7-1.2.9-1.6.7-4-1.3-7.6-3.9-12.1-4-1.6-.6-3.2-1.2-4.8-1.8Z"/>
    <path class="st65" d="M133-7.8c2.3-.5,1.1,1.1.9,1.8-1,3.2-2.1,6.4-3.1,9.7-.4.1-.8.3-1.2.4-.2-.4-.4-.8-.7-1.2.8-3.8,2.4-7.3,4.2-10.7h0Z"/>
    <path class="st28" d="M133-7.8c-1.1,3.7-2.4,7.3-4.2,10.7,0-4.1,1.4-7.7,4.2-10.7Z"/>
    <path class="st9" d="M129.5-6.2c-1,2.2-2,4.5-3.4,7.5.5-3.4,1.2-5.7,3-7.7.1,0,.2.1.4.2Z"/>
    <path class="st66" d="M123.5-17.7c-.1,3.1-3.2,5.5-2.3,8.8-.2.1-.4.3-.6.4-.5-.5-1-.9-1.4-1.4,2.1-2.2,1.4-6.1,4.4-7.8Z"/>
    <path class="st3" d="M133.7,5.9c.4-2.7.9-5.4,3.6-6.9-1.1,2.3-1.6,5-3.6,6.9Z"/>
  </g>
  <path class="st2" d="M17.6,41.7c2.3.2,4.4.2,4.9-2.8.2-1,1.1-1.5,2-1.7,4.8-1,8.8-4.2,13.7-5.1.6-.1,1.1-.6,1.2-1.2.4-2.3,1.8-2.9,4.1-3.1,2.9-.2,3.3-3.1,4.2-5.1.9-2,1.8-3.5,4.2-4.2,1.8-.6,2.5-3,4.2-4.2,2.5-1.9,3.5-1.9,5.2.7,1.1,1.7,3.1,2.6,3.7,4.7.3,1,.8,1.9.7,2.9-.2,3.1,0,6,1.1,9.1.9,2.4-.9,4.7-2.8,6-1.7,1.1-3,2.3-4,4.1-1.1,1.9-3.2,3.3-5.3,4-3.9,1.3-6.1,4.4-8.7,7.2-2.8,3.1-5.4,6.5-10.4,6-1.3-.1-2.2.8-2.9,1.7-2.7,3.5-5.9,6.6-7.8,10.7-.5,1.2-2,1.2-2.6,2.2-5.5-3.3-10.9-6.7-16.4-10-1.1-.6-1.2-1.1-.5-2.1,4.1-6.6,8.1-13.2,12.2-19.8Z"/>
  <g>
    <path class="st51" d="M78.7,12.5c-.3.5-.5,1.2-.9,1.5-2.4,1.6-2.1,3.3-.3,5.2.8.9,0,1.6-.4,2.2-.5.8-1.1,1.5-1,2.7.4,4.5-2.4,7.3-5.5,9.7-2.2,1.7-4.3,3.4-5.1,6.2-.2.6-.5,1.3-1,1.8-1.5,1.4-2.1,2.8-.9,4.8.8,1.4-1.3,4.7-3.4,5.9-2.3,1.3-4.1,3.3-6.6,4.4-1.2.5-.7,1.9-.9,2.9-.2,1-.3,2-1.4,2.1-3.5.4-6.1,2.5-8.8,4.5-1.3.9-2.5,1.3-3.9,1.3-1.4.2-2.9.2-4.1,1.1-1.2.8-2.6.2-3.8,0-1.1-.2-1.9-.1-2.7.7-1.2,1.3-2.7,2-4.4,2.3-1.7-.6-1.9-1-.9-2.2.5-.6,1.2-1.2,1.9-1.3,2.1-.4,3.5-2.2,5.6-2.8,1-.3,2.4-.7,2.4-2.3,2.3-.3,3.2-3.1,5.7-3.2,2,0,3.6-.9,4.3-3.1.5-1.5,1.8-1.9,3.2-1.1.4.3.2-.1.2-.2,1.5-1.9,2.2-4.6,4.9-5.6.6-.2.8-.7.7-1.3,0-.5,0-1.1,0-1.6.3-.9,0-2.3,1.5-2.2,1.2,0,.7,1.5,1,2.5,1.6-.8,1.8-2.5,2.4-3.8,1.3-2.6,2.5-5,5-6.9,2-1.5,3.4-3.9,4.9-6.1,1.5-2.1,1-3.7.6-5.6-.2-1.1.5-1.9,1.3-1.5,1.7.7,1.7-.4,2-1.4.5-1.4-.6-1.5-1.4-1.8-.1,0-.3-.2-.4-.3-.8-1.5-.2-3.4,1.8-4.7,1.1-.7,1.3-1.6,1.3-2.6,0-3.1,0-3.1,2.9-2.3.3,0,.6.1.9,0l3.5,2.2Z"/>
    <path class="st20" d="M75.2,10.3c-.5.3-1.2.7-1.7.4-2.3-1.4-1.7.5-1.5,1.4.4,1.2-.5,2.2-.5,3.3-1.7-.1-1.4,2-2.4,2.3-1.5.4-.9,1.2-.7,2-.5.2-.9,0-1.3-.2-1.4-.8-.7-2-.7-3.1,0-.2,0-.4,0-.6.2-.2.7,0,.7-.3-.3-2.3.8-4.4,1.3-6.6.2-.8.8-1.5,1.7-1.7l5.1,3.1Z"/>
    <path class="st31" d="M70.1,7.2c-1.9,2.7-2.4,5.8-2.3,9-.2,0-.8-.3-1.3-.5-.2-.9-.2-1.8,0-2.8.7-2.3,1.1-4.6,1.6-7,.7.4,1.3.8,2,1.2Z"/>
    <path class="st16" d="M51.5,40.1c.6,0,.4-.5.5-.8,1.4-1.6,2.8-3.2,3.9-5.1,2.3-1.3,3.4-3.5,4.5-5.7.7-.9,1.2-1.9,2.5-2.1.4.1.6.4.6.8,0,.3,0,.7-.3.9-1.3,1.2,1.3,2.8,0,3.4-1.1.5-2,.8-2.7,2.1-.6,1.1-.4,2.5-.9,3.1-1.4,1.7-2.1,4.1-4.5,4.8-.5.2-1.1.2-1.3.7-.8,2.1-2.5,3.2-4.5,3.9-1.4.5-1.3,2.2-2.5,2.9-.9.7-2.2,1.2-2,2.7-.5.9-2-.2-2.3,1.2,0,.2-.2.4-.3.5-.7.6-1.6,1-2,1.8-.9.7-1.7.5-2.4-.2-.1-.8.5-1.2.9-1.7,1.9-2.6,4.6-4.3,6.9-6.6h0c.8-1,2-1.6,2.8-2.6h0c1.3-1.1,2.6-2.3,3.4-3.8Z"/>
    <path class="st62" d="M17,71.6c-.2,0-.5,0-.6.1-1.9,1-3.7,1.7-4.6-1.1,0-.1,0-.2.1-.3,2-1.5,3.4-3.8,5.9-4.9.8-.3,1.5-.8,2.4-.5.9.3,1.5-1.5,2.6-.4,0,1.8-.4,3.4-2.1,4.5-.3.2-.6.4-1,.4-1.3,0-1.4.3-1,1.6-.3.9-.8,1-1.6.7Z"/>
    <path class="st31" d="M63,26.6c-1.1.5-1.8,1.4-2.5,2.3-.6,0-.5-.5-.5-.9,2.3-2.7,2.8-6.3,4.6-9.3.5-.9.5-2,1.8-2.4.6.3.8.6.3,1.1-.5.6,0,1,.4,1.4-.7,1.3-2.6,2-2.2,3.9-.2.6-.4,1.4-.9,1.4-1.4,0,0,.7-.4,1,0,.5-.1,1.1-.7,1.4Z"/>
    <path class="st39" d="M20.4,65.2c-2.5.3-4.5,1.5-6,3.5-.6.9-1.5,1.4-2.6,1.6,0-1.2-.5-2.6,1.6-2.2.4,0,.6-.2.8-.6,1.5-2.3,4-3.1,6.4-4.3.5-.3.9-1.1,1.6-.3-.1,1.1-1.2,1.5-1.8,2.2Z"/>
    <path class="st32" d="M22.3,63.1c-.6-.5-1.1,0-1.6,0,.3-1.8,2.4-2,3.2-2.2,3.7-.9,6.2-3.7,9.4-5.1.2.8-.3,1.3-.7,1.9-1.3,1.5-3.4,1.8-4.6,3.4-1.8,1-3.6,1.9-5.7,1.9Z"/>
    <path class="st42" d="M45.4,46.5c-.7,1.4-1.5,2.5-3,3.2-1.6.7-2.3,2.4-3.4,3.6-.7.3-1.5,1.2-1.8-.4,2.3-1.8,4.8-3.3,6.6-5.7.3-.5.9-.8,1.6-.6Z"/>
    <path class="st54" d="M37.2,52.9c.4.8,1.2.4,1.8.4-.4.5-.9,1-1.3,1.4-.3,1.6-2.3,1.4-2.9,2.6-.5,1.1-1.2,1.7-2.5.9-.2-.2-.3-.4-.3-.6.4-.6.8-1.1,1.2-1.7,1.5-.8,3.1-1.4,4-3Z"/>
    <path class="st10" d="M60,28c.2.3.3.6.5.9-.6,2.5-2.1,4.3-4.4,5.4-.9-.5-.4-1.1,0-1.6,2,0,1.7-2.3,2.9-3.1.5-.3.7-1,1-1.5Z"/>
    <path class="st52" d="M56.1,32.6c0,.5,0,1.1,0,1.6-1.1,1.9-1.8,4.2-4.1,5,.3-2.9,3-4.3,4.1-6.6Z"/>
    <path class="st42" d="M51.5,40.1c-.4,2-1.3,3.4-3.4,3.8-.4-.4-.5-1.3,0-1.3,1.7-.2,2.1-2,3.5-2.5Z"/>
    <path class="st42" d="M48.1,43.9c0,1.8-1.9,1.7-2.8,2.6-.5-2.4,1-2.6,2.8-2.6Z"/>
    <path class="st53" d="M23.2,71.3c-.6,1-1.3.3-2,.1-.9-.2-1.8-.8-2.8-.4-2.2-1.6.7-2.4.2-3.9,1.1.5,0,1.6,1,1.8,0-1.3,2.1-.3,2-1.9,0-.9.6-1.8.9-2.7,0-1.2,1-1.8,1.9-1.7,1.5,0,2.9,0,3.7-1.5,1.7-.4,3-1.9,4.9-1.5,0-.4-1.4-.6-.7-1.6,1.2.5,1.7.1,1.7-1.1,1.6-.3,3.2-.7,4.8-1,.6-.1,1.5-.3,1-1.3.1-1.2,1.2-1.2,2-1.5.2,0,.3.4.5.2,0-.1-.2-.4-.2-.6-.7-.7-.7-1.2.4-1.3.7,0,1.3,0,2,.1,1.5-.3,1.5-1.6,1.7-2.7.9-2.1,2.3-3.6,4.6-4.2.7-.2,1.2-.8,1.6-1.7.4-1,.7-2.5,2.8-2.2,1.3.2,1.3-2.5,1.9-2.8,1.3-.5,2.4-.7,1.9-2.4-.5-1.5,1.4-1.9,1.4-3.2,0-2.4,1.7-.8,2.6-1.1,0-.1.2-.3.1-.4q-.8-1.4-.1-4.3c.1-.5.2-.9.3-1.4.3-.3,1.5.4.9-.9-.2-.4.5-.9.5-1.5-1-2.4.8-3.1,2.4-3.9.4.2.8.5,1.2.7,2.9.7,3.3,2.1,1.4,4.6-.6.8-.8.9-1.5-.2-.4-.5-.7-.2-.9-.1-.7.2-.4.8-.2,1.1.9,1.3.5,2.8.9,4.2.1.4.1,1.1-.2,1-2.5-.8-1.2,1.6-1.9,2.3-1.6,1.7-3,3.7-4.9,5-2.4,1.7-3.1,4.1-4.2,6.6-.6,1.5-1.2,4-3.8,4.3-.7-1,.8-2.3-.5-3.5-.6,1.2-1.1,2.3-.7,3.4.4,1.4-.2,2-1.3,2.3-1.4.4-2.5.9-2.3,2.6,0,.1,0,.4,0,.4-2.4.1-2,3.1-3.9,4.1-.3-1,.6-1.5.6-2.4-1.3.7-2.3,1-2.7,2.8-.3,1.6-2.4,2.3-4.2,2.3-1.4,0-2.8.1-3,2,0,.8-.6.8-1.2.7-2.5-.6-1.9.6-.9,1.8-.6.7-1.1-.2-1.6,0-2.8,1.6-5.6,3.2-8.6,4.4-.4.2-1.9,1.4,0,1.9Z"/>
    <path class="st49" d="M40,54.5c.7.4,1.5,1.1.3,1.5-1.9.7-3.9,1.8-6.1.9.8-1.4,2.5-1.1,3.5-2.2.8-.1,1.6.8,2.3-.2Z"/>
    <path class="st49" d="M46.2,48.7c1.5.9,0,1.8-.1,2.6-.2,1-1.1-.5-1.6.1-1.5-2.2.7-2.1,1.7-2.7Z"/>
    <path class="st49" d="M42.2,52.7c1.2,0,1,.9,1,2.1-.7-.6-1.6-.6-1.3-1.7,0-.1.2-.3.2-.4Z"/>
    <path class="st15" d="M28.2,61.4c-.3,2.6-1.8,2.2-3.6,1.7-1.2-.4-1.4.9-2.1,1.3-.8,0-1.3.6-1.9,1.1,0,0-.2,0-.2,0,0,0,0-.1,0-.2.2-1.1,1-1.6,1.8-2.1,1.8-.7,3.6-1.4,5.4-2.1.3,0,.5.1.5.4Z"/>
    <path class="st16" d="M64.8,22.8c-.4,1.3.8,2.9-.4,4.1-1.1-.2.5-1.8-1-1.7-.3-1.3,1-1.5,1.4-2.4Z"/>
    <path class="st26" d="M28.2,61.4c-.2-.1-.3-.3-.5-.4.2-.4-.6-1.1.4-1.2,1.6-.2,2.6-1.4,3.9-2.1.1.1.3.2.4.4.2.7.5,1.3,1.3,1.3.4,0,.8,0,.7.5,0,.4-.6.8-.8.6-1.7-1.1-2.8,0-4,.8-.3.2-.9,0-1.3,0Z"/>
  </g>
</svg>