<?xml version="1.0" encoding="UTF-8"?>
<svg id="Camada_1" xmlns="http://www.w3.org/2000/svg" version="1.1" viewBox="0 0 1280 720">
  <!-- Generator: Adobe Illustrator 29.2.1, SVG Export Plug-In . SVG Version: 2.1.0 Build 116)  -->
  <defs>
    <style>
      .st0 {
        fill: #508ba2;
      }

      .st1 {
        fill: #a7caca;
      }

      .st2 {
        fill: #fff;
      }

      .st3 {
        fill: #67b5a6;
      }

      .st4 {
        opacity: .7;
      }

      .st5 {
        opacity: .2;
      }

      .st6 {
        fill: #305361;
      }
    </style>
  </defs>
  <g id="dots" class="st5">
    <path class="st3" d="M71.9,499.7c2.2,0,4,1.8,4,4s-1.8,4-4,4-4-1.8-4-4,1.8-4,4-4Z"/>
    <path class="st3" d="M71.9,455.2c2.2,0,4,1.8,4,4s-1.8,4-4,4-4-1.8-4-4,1.8-4,4-4Z"/>
    <path class="st3" d="M71.9,411.7c2.2,0,4,1.8,4,4s-1.8,4-4,4-4-1.8-4-4,1.8-4,4-4Z"/>
    <path class="st3" d="M71.9,367.7c2.2,0,4,1.8,4,4s-1.8,4-4,4-4-1.8-4-4,1.8-4,4-4Z"/>
    <path class="st3" d="M71.9,324.5c2.2,0,4,1.8,4,4s-1.8,4-4,4-4-1.8-4-4,1.8-4,4-4Z"/>
    <path class="st3" d="M71.9,279.9c2.2,0,4,1.8,4,4s-1.8,4-4,4-4-1.8-4-4,1.8-4,4-4Z"/>
    <path class="st3" d="M71.9,236.5c2.2,0,4,1.8,4,4s-1.8,4-4,4-4-1.8-4-4,1.8-4,4-4Z"/>
    <path class="st3" d="M71.9,192.4c2.2,0,4,1.8,4,4s-1.8,4-4,4-4-1.8-4-4,1.8-4,4-4Z"/>
    <path class="st3" d="M27.9,499.7c2.2,0,4,1.8,4,4s-1.8,4-4,4-4-1.8-4-4,1.8-4,4-4Z"/>
    <path class="st3" d="M27.9,455.2c2.2,0,4,1.8,4,4s-1.8,4-4,4-4-1.8-4-4,1.8-4,4-4Z"/>
    <path class="st3" d="M27.9,411.7c2.2,0,4,1.8,4,4s-1.8,4-4,4-4-1.8-4-4,1.8-4,4-4Z"/>
    <path class="st3" d="M27.9,367.7c2.2,0,4,1.8,4,4s-1.8,4-4,4-4-1.8-4-4,1.8-4,4-4Z"/>
    <path class="st3" d="M27.9,324.5c2.2,0,4,1.8,4,4s-1.8,4-4,4-4-1.8-4-4,1.8-4,4-4Z"/>
    <path class="st3" d="M27.9,279.9c2.2,0,4,1.8,4,4s-1.8,4-4,4-4-1.8-4-4,1.8-4,4-4Z"/>
    <path class="st3" d="M27.9,236.5c2.2,0,4,1.8,4,4s-1.8,4-4,4-4-1.8-4-4,1.8-4,4-4Z"/>
    <path class="st3" d="M27.9,192.4c2.2,0,4,1.8,4,4s-1.8,4-4,4-4-1.8-4-4,1.8-4,4-4Z"/>
    <path class="st3" d="M115.5,499.7c2.2,0,4,1.8,4,4s-1.8,4-4,4-4-1.8-4-4,1.8-4,4-4Z"/>
    <path class="st3" d="M115.5,455.2c2.2,0,4,1.8,4,4s-1.8,4-4,4-4-1.8-4-4,1.8-4,4-4Z"/>
    <path class="st3" d="M115.5,411.7c2.2,0,4,1.8,4,4s-1.8,4-4,4-4-1.8-4-4,1.8-4,4-4Z"/>
    <path class="st3" d="M115.5,367.7c2.2,0,4,1.8,4,4s-1.8,4-4,4-4-1.8-4-4,1.8-4,4-4Z"/>
    <path class="st3" d="M115.5,324.5c2.2,0,4,1.8,4,4s-1.8,4-4,4-4-1.8-4-4,1.8-4,4-4Z"/>
    <path class="st3" d="M115.5,279.9c2.2,0,4,1.8,4,4s-1.8,4-4,4-4-1.8-4-4,1.8-4,4-4Z"/>
    <path class="st3" d="M115.5,236.5c2.2,0,4,1.8,4,4s-1.8,4-4,4-4-1.8-4-4,1.8-4,4-4Z"/>
    <path class="st3" d="M115.5,192.4c2.2,0,4,1.8,4,4s-1.8,4-4,4-4-1.8-4-4,1.8-4,4-4Z"/>
    <path class="st3" d="M159.4,499.7c2.2,0,4,1.8,4,4s-1.8,4-4,4-4-1.8-4-4,1.8-4,4-4Z"/>
    <path class="st3" d="M159.4,455.2c2.2,0,4,1.8,4,4s-1.8,4-4,4-4-1.8-4-4,1.8-4,4-4Z"/>
    <path class="st3" d="M159.4,411.7c2.2,0,4,1.8,4,4s-1.8,4-4,4-4-1.8-4-4,1.8-4,4-4Z"/>
    <path class="st3" d="M159.4,367.7c2.2,0,4,1.8,4,4s-1.8,4-4,4-4-1.8-4-4,1.8-4,4-4Z"/>
    <path class="st3" d="M159.4,324.5c2.2,0,4,1.8,4,4s-1.8,4-4,4-4-1.8-4-4,1.8-4,4-4Z"/>
    <path class="st3" d="M159.4,279.9c2.2,0,4,1.8,4,4s-1.8,4-4,4-4-1.8-4-4,1.8-4,4-4Z"/>
    <path class="st3" d="M159.4,236.5c2.2,0,4,1.8,4,4s-1.8,4-4,4-4-1.8-4-4,1.8-4,4-4Z"/>
    <path class="st3" d="M159.4,192.4c2.2,0,4,1.8,4,4s-1.8,4-4,4-4-1.8-4-4,1.8-4,4-4Z"/>
    <path class="st3" d="M202.6,499.7c2.2,0,4,1.8,4,4s-1.8,4-4,4-4-1.8-4-4,1.8-4,4-4Z"/>
    <path class="st3" d="M202.6,455.2c2.2,0,4,1.8,4,4s-1.8,4-4,4-4-1.8-4-4,1.8-4,4-4Z"/>
    <path class="st3" d="M202.6,411.7c2.2,0,4,1.8,4,4s-1.8,4-4,4-4-1.8-4-4,1.8-4,4-4Z"/>
    <path class="st3" d="M202.6,367.7c2.2,0,4,1.8,4,4s-1.8,4-4,4-4-1.8-4-4,1.8-4,4-4Z"/>
    <path class="st3" d="M202.6,324.5c2.2,0,4,1.8,4,4s-1.8,4-4,4-4-1.8-4-4,1.8-4,4-4Z"/>
    <path class="st3" d="M202.6,279.9c2.2,0,4,1.8,4,4s-1.8,4-4,4-4-1.8-4-4,1.8-4,4-4Z"/>
    <path class="st3" d="M202.6,236.5c2.2,0,4,1.8,4,4s-1.8,4-4,4-4-1.8-4-4,1.8-4,4-4Z"/>
    <path class="st3" d="M202.6,192.4c2.2,0,4,1.8,4,4s-1.8,4-4,4-4-1.8-4-4,1.8-4,4-4Z"/>
    <path class="st3" d="M246.5,499.7c2.2,0,4,1.8,4,4s-1.8,4-4,4-4-1.8-4-4,1.8-4,4-4Z"/>
    <path class="st3" d="M246.5,455.2c2.2,0,4,1.8,4,4s-1.8,4-4,4-4-1.8-4-4,1.8-4,4-4Z"/>
    <path class="st3" d="M246.5,411.7c2.2,0,4,1.8,4,4s-1.8,4-4,4-4-1.8-4-4,1.8-4,4-4Z"/>
    <path class="st3" d="M246.5,367.7c2.2,0,4,1.8,4,4s-1.8,4-4,4-4-1.8-4-4,1.8-4,4-4Z"/>
    <path class="st3" d="M246.5,324.5c2.2,0,4,1.8,4,4s-1.8,4-4,4-4-1.8-4-4,1.8-4,4-4Z"/>
    <path class="st3" d="M246.5,279.9c2.2,0,4,1.8,4,4s-1.8,4-4,4-4-1.8-4-4,1.8-4,4-4Z"/>
    <path class="st3" d="M246.5,236.5c2.2,0,4,1.8,4,4s-1.8,4-4,4-4-1.8-4-4,1.8-4,4-4Z"/>
    <path class="st3" d="M246.5,192.4c2.2,0,4,1.8,4,4s-1.8,4-4,4-4-1.8-4-4,1.8-4,4-4Z"/>
    <path class="st3" d="M290.2,499.7c2.2,0,4,1.8,4,4s-1.8,4-4,4-4-1.8-4-4,1.8-4,4-4Z"/>
    <path class="st3" d="M290.2,455.2c2.2,0,4,1.8,4,4s-1.8,4-4,4-4-1.8-4-4,1.8-4,4-4Z"/>
    <path class="st3" d="M290.2,411.7c2.2,0,4,1.8,4,4s-1.8,4-4,4-4-1.8-4-4,1.8-4,4-4Z"/>
    <path class="st3" d="M290.2,367.7c2.2,0,4,1.8,4,4s-1.8,4-4,4-4-1.8-4-4,1.8-4,4-4Z"/>
    <path class="st3" d="M290.2,324.5c2.2,0,4,1.8,4,4s-1.8,4-4,4-4-1.8-4-4,1.8-4,4-4Z"/>
    <path class="st3" d="M290.2,279.9c2.2,0,4,1.8,4,4s-1.8,4-4,4-4-1.8-4-4,1.8-4,4-4Z"/>
    <path class="st3" d="M290.2,236.5c2.2,0,4,1.8,4,4s-1.8,4-4,4-4-1.8-4-4,1.8-4,4-4Z"/>
    <path class="st3" d="M290.2,192.4c2.2,0,4,1.8,4,4s-1.8,4-4,4-4-1.8-4-4,1.8-4,4-4Z"/>
    <path class="st3" d="M334.4,499.7c2.2,0,4,1.8,4,4s-1.8,4-4,4-4-1.8-4-4,1.8-4,4-4Z"/>
    <path class="st3" d="M334.4,455.2c2.2,0,4,1.8,4,4s-1.8,4-4,4-4-1.8-4-4,1.8-4,4-4Z"/>
    <path class="st3" d="M334.4,411.7c2.2,0,4,1.8,4,4s-1.8,4-4,4-4-1.8-4-4,1.8-4,4-4Z"/>
    <path class="st3" d="M334.4,367.7c2.2,0,4,1.8,4,4s-1.8,4-4,4-4-1.8-4-4,1.8-4,4-4Z"/>
    <path class="st3" d="M334.4,324.5c2.2,0,4,1.8,4,4s-1.8,4-4,4-4-1.8-4-4,1.8-4,4-4Z"/>
    <path class="st3" d="M334.4,279.9c2.2,0,4,1.8,4,4s-1.8,4-4,4-4-1.8-4-4,1.8-4,4-4Z"/>
    <path class="st3" d="M334.4,236.5c2.2,0,4,1.8,4,4s-1.8,4-4,4-4-1.8-4-4,1.8-4,4-4Z"/>
    <path class="st3" d="M334.4,192.4c2.2,0,4,1.8,4,4s-1.8,4-4,4-4-1.8-4-4,1.8-4,4-4Z"/>
    <path class="st3" d="M378.2,499.7c2.2,0,4,1.8,4,4s-1.8,4-4,4-4-1.8-4-4,1.8-4,4-4Z"/>
    <path class="st3" d="M378.2,455.2c2.2,0,4,1.8,4,4s-1.8,4-4,4-4-1.8-4-4,1.8-4,4-4Z"/>
    <path class="st3" d="M378.2,411.7c2.2,0,4,1.8,4,4s-1.8,4-4,4-4-1.8-4-4,1.8-4,4-4Z"/>
    <path class="st3" d="M378.2,367.7c2.2,0,4,1.8,4,4s-1.8,4-4,4-4-1.8-4-4,1.8-4,4-4Z"/>
    <path class="st3" d="M378.2,324.5c2.2,0,4,1.8,4,4s-1.8,4-4,4-4-1.8-4-4,1.8-4,4-4Z"/>
    <path class="st3" d="M378.2,279.9c2.2,0,4,1.8,4,4s-1.8,4-4,4-4-1.8-4-4,1.8-4,4-4Z"/>
    <path class="st3" d="M378.2,236.5c2.2,0,4,1.8,4,4s-1.8,4-4,4-4-1.8-4-4,1.8-4,4-4Z"/>
    <path class="st3" d="M378.2,192.4c2.2,0,4,1.8,4,4s-1.8,4-4,4-4-1.8-4-4,1.8-4,4-4Z"/>
    <path class="st3" d="M421.8,499.7c2.2,0,4,1.8,4,4s-1.8,4-4,4-4-1.8-4-4,1.8-4,4-4Z"/>
    <path class="st3" d="M421.8,455.2c2.2,0,4,1.8,4,4s-1.8,4-4,4-4-1.8-4-4,1.8-4,4-4Z"/>
    <path class="st3" d="M421.8,411.7c2.2,0,4,1.8,4,4s-1.8,4-4,4-4-1.8-4-4,1.8-4,4-4Z"/>
    <path class="st3" d="M421.8,367.7c2.2,0,4,1.8,4,4s-1.8,4-4,4-4-1.8-4-4,1.8-4,4-4Z"/>
    <path class="st3" d="M421.8,324.5c2.2,0,4,1.8,4,4s-1.8,4-4,4-4-1.8-4-4,1.8-4,4-4Z"/>
    <path class="st3" d="M421.8,279.9c2.2,0,4,1.8,4,4s-1.8,4-4,4-4-1.8-4-4,1.8-4,4-4Z"/>
    <path class="st3" d="M421.8,236.5c2.2,0,4,1.8,4,4s-1.8,4-4,4-4-1.8-4-4,1.8-4,4-4Z"/>
    <path class="st3" d="M421.8,192.4c2.2,0,4,1.8,4,4s-1.8,4-4,4-4-1.8-4-4,1.8-4,4-4Z"/>
    <path class="st3" d="M465.5,499.7c2.2,0,4,1.8,4,4s-1.8,4-4,4-4-1.8-4-4,1.8-4,4-4Z"/>
    <path class="st3" d="M465.5,455.2c2.2,0,4,1.8,4,4s-1.8,4-4,4-4-1.8-4-4,1.8-4,4-4Z"/>
    <path class="st3" d="M465.5,411.7c2.2,0,4,1.8,4,4s-1.8,4-4,4-4-1.8-4-4,1.8-4,4-4Z"/>
    <path class="st3" d="M465.5,367.7c2.2,0,4,1.8,4,4s-1.8,4-4,4-4-1.8-4-4,1.8-4,4-4Z"/>
    <path class="st3" d="M465.5,324.5c2.2,0,4,1.8,4,4s-1.8,4-4,4-4-1.8-4-4,1.8-4,4-4Z"/>
    <path class="st3" d="M465.5,279.9c2.2,0,4,1.8,4,4s-1.8,4-4,4-4-1.8-4-4,1.8-4,4-4Z"/>
    <path class="st3" d="M465.5,236.5c2.2,0,4,1.8,4,4s-1.8,4-4,4-4-1.8-4-4,1.8-4,4-4Z"/>
    <path class="st3" d="M465.5,192.4c2.2,0,4,1.8,4,4s-1.8,4-4,4-4-1.8-4-4,1.8-4,4-4Z"/>
    <path class="st3" d="M509.1,499.7c2.2,0,4,1.8,4,4s-1.8,4-4,4-4-1.8-4-4,1.8-4,4-4h0Z"/>
    <path class="st3" d="M509.1,455.2c2.2,0,4,1.8,4,4s-1.8,4-4,4-4-1.8-4-4,1.8-4,4-4h0Z"/>
    <path class="st3" d="M509.1,411.7c2.2,0,4,1.8,4,4s-1.8,4-4,4-4-1.8-4-4,1.8-4,4-4h0Z"/>
    <path class="st3" d="M509.1,367.7c2.2,0,4,1.8,4,4s-1.8,4-4,4-4-1.8-4-4,1.8-4,4-4h0Z"/>
    <path class="st3" d="M509.1,324.5c2.2,0,4,1.8,4,4s-1.8,4-4,4-4-1.8-4-4,1.8-4,4-4h0Z"/>
    <path class="st3" d="M509.1,279.9c2.2,0,4,1.8,4,4s-1.8,4-4,4-4-1.8-4-4,1.8-4,4-4h0Z"/>
    <path class="st3" d="M509.1,236.5c2.2,0,4,1.8,4,4s-1.8,4-4,4-4-1.8-4-4,1.8-4,4-4h0Z"/>
    <path class="st3" d="M509.1,192.4c2.2,0,4,1.8,4,4s-1.8,4-4,4-4-1.8-4-4,1.8-4,4-4h0Z"/>
    <path class="st3" d="M553,499.7c2.2,0,4,1.8,4,4s-1.8,4-4,4-4-1.8-4-4,1.8-4,4-4Z"/>
    <path class="st3" d="M553,455.2c2.2,0,4,1.8,4,4s-1.8,4-4,4-4-1.8-4-4,1.8-4,4-4Z"/>
    <path class="st3" d="M553,411.7c2.2,0,4,1.8,4,4s-1.8,4-4,4-4-1.8-4-4,1.8-4,4-4Z"/>
    <path class="st3" d="M553,367.7c2.2,0,4,1.8,4,4s-1.8,4-4,4-4-1.8-4-4,1.8-4,4-4Z"/>
    <path class="st3" d="M553,324.5c2.2,0,4,1.8,4,4s-1.8,4-4,4-4-1.8-4-4,1.8-4,4-4Z"/>
    <path class="st3" d="M553,279.9c2.2,0,4,1.8,4,4s-1.8,4-4,4-4-1.8-4-4,1.8-4,4-4Z"/>
    <path class="st3" d="M553,236.5c2.2,0,4,1.8,4,4s-1.8,4-4,4-4-1.8-4-4,1.8-4,4-4Z"/>
    <path class="st3" d="M553,192.4c2.2,0,4,1.8,4,4s-1.8,4-4,4-4-1.8-4-4,1.8-4,4-4Z"/>
    <path class="st3" d="M596.2,499.7c2.2,0,4,1.8,4,4s-1.8,4-4,4-4-1.8-4-4,1.8-4,4-4Z"/>
    <path class="st3" d="M596.2,455.2c2.2,0,4,1.8,4,4s-1.8,4-4,4-4-1.8-4-4,1.8-4,4-4Z"/>
    <path class="st3" d="M596.2,411.7c2.2,0,4,1.8,4,4s-1.8,4-4,4-4-1.8-4-4,1.8-4,4-4Z"/>
    <path class="st3" d="M596.2,367.7c2.2,0,4,1.8,4,4s-1.8,4-4,4-4-1.8-4-4,1.8-4,4-4Z"/>
    <path class="st3" d="M596.2,324.5c2.2,0,4,1.8,4,4s-1.8,4-4,4-4-1.8-4-4,1.8-4,4-4Z"/>
    <path class="st3" d="M596.2,279.9c2.2,0,4,1.8,4,4s-1.8,4-4,4-4-1.8-4-4,1.8-4,4-4Z"/>
    <path class="st3" d="M596.2,236.5c2.2,0,4,1.8,4,4s-1.8,4-4,4-4-1.8-4-4,1.8-4,4-4Z"/>
    <path class="st3" d="M596.2,192.4c2.2,0,4,1.8,4,4s-1.8,4-4,4-4-1.8-4-4,1.8-4,4-4Z"/>
    <path class="st3" d="M640.1,499.7c2.2,0,4,1.8,4,4s-1.8,4-4,4-4-1.8-4-4,1.8-4,4-4Z"/>
    <path class="st3" d="M640.1,455.2c2.2,0,4,1.8,4,4s-1.8,4-4,4-4-1.8-4-4,1.8-4,4-4Z"/>
    <path class="st3" d="M640.1,411.7c2.2,0,4,1.8,4,4s-1.8,4-4,4-4-1.8-4-4,1.8-4,4-4Z"/>
    <path class="st3" d="M640.1,367.7c2.2,0,4,1.8,4,4s-1.8,4-4,4-4-1.8-4-4,1.8-4,4-4Z"/>
    <path class="st3" d="M640.1,324.5c2.2,0,4,1.8,4,4s-1.8,4-4,4-4-1.8-4-4,1.8-4,4-4Z"/>
    <path class="st3" d="M640.1,279.9c2.2,0,4,1.8,4,4s-1.8,4-4,4-4-1.8-4-4,1.8-4,4-4Z"/>
    <path class="st3" d="M640.1,236.5c2.2,0,4,1.8,4,4s-1.8,4-4,4-4-1.8-4-4,1.8-4,4-4Z"/>
    <path class="st3" d="M640.1,192.4c2.2,0,4,1.8,4,4s-1.8,4-4,4-4-1.8-4-4,1.8-4,4-4Z"/>
    <path class="st3" d="M683.8,499.7c2.2,0,4,1.8,4,4s-1.8,4-4,4-4-1.8-4-4,1.8-4,4-4Z"/>
    <path class="st3" d="M683.8,455.2c2.2,0,4,1.8,4,4s-1.8,4-4,4-4-1.8-4-4,1.8-4,4-4Z"/>
    <path class="st3" d="M683.8,411.7c2.2,0,4,1.8,4,4s-1.8,4-4,4-4-1.8-4-4,1.8-4,4-4Z"/>
    <path class="st3" d="M683.8,367.7c2.2,0,4,1.8,4,4s-1.8,4-4,4-4-1.8-4-4,1.8-4,4-4Z"/>
    <path class="st3" d="M683.8,324.5c2.2,0,4,1.8,4,4s-1.8,4-4,4-4-1.8-4-4,1.8-4,4-4Z"/>
    <path class="st3" d="M683.8,279.9c2.2,0,4,1.8,4,4s-1.8,4-4,4-4-1.8-4-4,1.8-4,4-4Z"/>
    <path class="st3" d="M683.8,236.5c2.2,0,4,1.8,4,4s-1.8,4-4,4-4-1.8-4-4,1.8-4,4-4Z"/>
    <path class="st3" d="M683.8,192.4c2.2,0,4,1.8,4,4s-1.8,4-4,4-4-1.8-4-4,1.8-4,4-4Z"/>
    <path class="st3" d="M727.9,499.7c2.2,0,4,1.8,4,4s-1.8,4-4,4-4-1.8-4-4,1.8-4,4-4Z"/>
    <path class="st3" d="M727.9,455.2c2.2,0,4,1.8,4,4s-1.8,4-4,4-4-1.8-4-4,1.8-4,4-4Z"/>
    <path class="st3" d="M727.9,411.7c2.2,0,4,1.8,4,4s-1.8,4-4,4-4-1.8-4-4,1.8-4,4-4Z"/>
    <path class="st3" d="M727.9,367.7c2.2,0,4,1.8,4,4s-1.8,4-4,4-4-1.8-4-4,1.8-4,4-4Z"/>
    <path class="st3" d="M727.9,324.5c2.2,0,4,1.8,4,4s-1.8,4-4,4-4-1.8-4-4,1.8-4,4-4Z"/>
    <path class="st3" d="M727.9,279.9c2.2,0,4,1.8,4,4s-1.8,4-4,4-4-1.8-4-4,1.8-4,4-4Z"/>
    <path class="st3" d="M727.9,236.5c2.2,0,4,1.8,4,4s-1.8,4-4,4-4-1.8-4-4,1.8-4,4-4Z"/>
    <path class="st3" d="M727.9,192.4c2.2,0,4,1.8,4,4s-1.8,4-4,4-4-1.8-4-4,1.8-4,4-4Z"/>
    <path class="st3" d="M771.7,499.7c2.2,0,4,1.8,4,4s-1.8,4-4,4-4-1.8-4-4,1.8-4,4-4Z"/>
    <path class="st3" d="M771.7,455.2c2.2,0,4,1.8,4,4s-1.8,4-4,4-4-1.8-4-4,1.8-4,4-4Z"/>
    <path class="st3" d="M771.7,411.7c2.2,0,4,1.8,4,4s-1.8,4-4,4-4-1.8-4-4,1.8-4,4-4Z"/>
    <path class="st3" d="M771.7,367.7c2.2,0,4,1.8,4,4s-1.8,4-4,4-4-1.8-4-4,1.8-4,4-4Z"/>
    <path class="st3" d="M771.7,324.5c2.2,0,4,1.8,4,4s-1.8,4-4,4-4-1.8-4-4,1.8-4,4-4Z"/>
    <path class="st3" d="M771.7,279.9c2.2,0,4,1.8,4,4s-1.8,4-4,4-4-1.8-4-4,1.8-4,4-4Z"/>
    <path class="st3" d="M771.7,236.5c2.2,0,4,1.8,4,4s-1.8,4-4,4-4-1.8-4-4,1.8-4,4-4Z"/>
    <path class="st3" d="M771.7,192.4c2.2,0,4,1.8,4,4s-1.8,4-4,4-4-1.8-4-4,1.8-4,4-4Z"/>
    <path class="st3" d="M815.4,499.7c2.2,0,4,1.8,4,4s-1.8,4-4,4-4-1.8-4-4,1.8-4,4-4Z"/>
    <path class="st3" d="M815.4,455.2c2.2,0,4,1.8,4,4s-1.8,4-4,4-4-1.8-4-4,1.8-4,4-4Z"/>
    <path class="st3" d="M815.4,411.7c2.2,0,4,1.8,4,4s-1.8,4-4,4-4-1.8-4-4,1.8-4,4-4Z"/>
    <path class="st3" d="M815.4,367.7c2.2,0,4,1.8,4,4s-1.8,4-4,4-4-1.8-4-4,1.8-4,4-4Z"/>
    <path class="st3" d="M815.4,324.5c2.2,0,4,1.8,4,4s-1.8,4-4,4-4-1.8-4-4,1.8-4,4-4Z"/>
    <path class="st3" d="M815.4,279.9c2.2,0,4,1.8,4,4s-1.8,4-4,4-4-1.8-4-4,1.8-4,4-4Z"/>
    <path class="st3" d="M815.4,236.5c2.2,0,4,1.8,4,4s-1.8,4-4,4-4-1.8-4-4,1.8-4,4-4Z"/>
    <path class="st3" d="M815.4,192.4c2.2,0,4,1.8,4,4s-1.8,4-4,4-4-1.8-4-4,1.8-4,4-4Z"/>
    <path class="st3" d="M859.7,499.7c2.2,0,4,1.8,4,4s-1.8,4-4,4-4-1.8-4-4,1.8-4,4-4Z"/>
    <path class="st3" d="M859.7,455.2c2.2,0,4,1.8,4,4s-1.8,4-4,4-4-1.8-4-4,1.8-4,4-4Z"/>
    <path class="st3" d="M859.7,411.7c2.2,0,4,1.8,4,4s-1.8,4-4,4-4-1.8-4-4,1.8-4,4-4Z"/>
    <path class="st3" d="M859.7,367.7c2.2,0,4,1.8,4,4s-1.8,4-4,4-4-1.8-4-4,1.8-4,4-4Z"/>
    <path class="st3" d="M859.7,324.5c2.2,0,4,1.8,4,4s-1.8,4-4,4-4-1.8-4-4,1.8-4,4-4Z"/>
    <path class="st3" d="M859.7,279.9c2.2,0,4,1.8,4,4s-1.8,4-4,4-4-1.8-4-4,1.8-4,4-4Z"/>
    <path class="st3" d="M859.7,236.5c2.2,0,4,1.8,4,4s-1.8,4-4,4-4-1.8-4-4,1.8-4,4-4Z"/>
    <path class="st3" d="M859.7,192.4c2.2,0,4,1.8,4,4s-1.8,4-4,4-4-1.8-4-4,1.8-4,4-4Z"/>
    <path class="st3" d="M903.5,499.7c2.2,0,4,1.8,4,4s-1.8,4-4,4-4-1.8-4-4,1.8-4,4-4Z"/>
    <path class="st3" d="M903.5,455.2c2.2,0,4,1.8,4,4s-1.8,4-4,4-4-1.8-4-4,1.8-4,4-4Z"/>
    <path class="st3" d="M903.5,411.7c2.2,0,4,1.8,4,4s-1.8,4-4,4-4-1.8-4-4,1.8-4,4-4Z"/>
    <path class="st3" d="M903.5,367.7c2.2,0,4,1.8,4,4s-1.8,4-4,4-4-1.8-4-4,1.8-4,4-4Z"/>
    <path class="st3" d="M903.5,324.5c2.2,0,4,1.8,4,4s-1.8,4-4,4-4-1.8-4-4,1.8-4,4-4Z"/>
    <path class="st3" d="M903.5,279.9c2.2,0,4,1.8,4,4s-1.8,4-4,4-4-1.8-4-4,1.8-4,4-4Z"/>
    <path class="st3" d="M903.5,236.5c2.2,0,4,1.8,4,4s-1.8,4-4,4-4-1.8-4-4,1.8-4,4-4Z"/>
    <path class="st3" d="M903.5,192.4c2.2,0,4,1.8,4,4s-1.8,4-4,4-4-1.8-4-4,1.8-4,4-4Z"/>
    <path class="st3" d="M945.7,499.7c2.2,0,4,1.8,4,4s-1.8,4-4,4-4-1.8-4-4,1.8-4,4-4Z"/>
    <path class="st3" d="M945.7,455.2c2.2,0,4,1.8,4,4s-1.8,4-4,4-4-1.8-4-4,1.8-4,4-4Z"/>
    <path class="st3" d="M945.7,411.7c2.2,0,4,1.8,4,4s-1.8,4-4,4-4-1.8-4-4,1.8-4,4-4Z"/>
    <path class="st3" d="M945.7,367.7c2.2,0,4,1.8,4,4s-1.8,4-4,4-4-1.8-4-4,1.8-4,4-4Z"/>
    <path class="st3" d="M945.7,324.5c2.2,0,4,1.8,4,4s-1.8,4-4,4-4-1.8-4-4,1.8-4,4-4Z"/>
    <path class="st3" d="M945.7,279.9c2.2,0,4,1.8,4,4s-1.8,4-4,4-4-1.8-4-4,1.8-4,4-4Z"/>
    <path class="st3" d="M945.7,236.5c2.2,0,4,1.8,4,4s-1.8,4-4,4-4-1.8-4-4,1.8-4,4-4Z"/>
    <path class="st3" d="M945.7,192.4c2.2,0,4,1.8,4,4s-1.8,4-4,4-4-1.8-4-4,1.8-4,4-4Z"/>
    <path class="st3" d="M989.6,499.7c2.2,0,4,1.8,4,4s-1.8,4-4,4-4-1.8-4-4,1.8-4,4-4Z"/>
    <path class="st3" d="M989.6,455.2c2.2,0,4,1.8,4,4s-1.8,4-4,4-4-1.8-4-4,1.8-4,4-4Z"/>
    <path class="st3" d="M989.6,411.7c2.2,0,4,1.8,4,4s-1.8,4-4,4-4-1.8-4-4,1.8-4,4-4Z"/>
    <path class="st3" d="M989.6,367.7c2.2,0,4,1.8,4,4s-1.8,4-4,4-4-1.8-4-4,1.8-4,4-4Z"/>
    <path class="st3" d="M989.6,324.5c2.2,0,4,1.8,4,4s-1.8,4-4,4-4-1.8-4-4,1.8-4,4-4Z"/>
    <path class="st3" d="M989.6,279.9c2.2,0,4,1.8,4,4s-1.8,4-4,4-4-1.8-4-4,1.8-4,4-4Z"/>
    <path class="st3" d="M989.6,236.5c2.2,0,4,1.8,4,4s-1.8,4-4,4-4-1.8-4-4,1.8-4,4-4Z"/>
    <path class="st3" d="M989.6,192.4c2.2,0,4,1.8,4,4s-1.8,4-4,4-4-1.8-4-4,1.8-4,4-4Z"/>
    <path class="st3" d="M1032.8,499.7c2.2,0,4,1.8,4,4s-1.8,4-4,4-4-1.8-4-4,1.8-4,4-4Z"/>
    <path class="st3" d="M1032.8,455.2c2.2,0,4,1.8,4,4s-1.8,4-4,4-4-1.8-4-4,1.8-4,4-4Z"/>
    <path class="st3" d="M1032.8,411.7c2.2,0,4,1.8,4,4s-1.8,4-4,4-4-1.8-4-4,1.8-4,4-4Z"/>
    <path class="st3" d="M1032.8,367.7c2.2,0,4,1.8,4,4s-1.8,4-4,4-4-1.8-4-4,1.8-4,4-4Z"/>
    <path class="st3" d="M1032.8,324.5c2.2,0,4,1.8,4,4s-1.8,4-4,4-4-1.8-4-4,1.8-4,4-4Z"/>
    <path class="st3" d="M1032.8,279.9c2.2,0,4,1.8,4,4s-1.8,4-4,4-4-1.8-4-4,1.8-4,4-4Z"/>
    <path class="st3" d="M1032.8,236.5c2.2,0,4,1.8,4,4s-1.8,4-4,4-4-1.8-4-4,1.8-4,4-4Z"/>
    <path class="st3" d="M1032.8,192.4c2.2,0,4,1.8,4,4s-1.8,4-4,4-4-1.8-4-4,1.8-4,4-4Z"/>
    <path class="st3" d="M1076.7,499.7c2.2,0,4,1.8,4,4s-1.8,4-4,4-4-1.8-4-4,1.8-4,4-4Z"/>
    <path class="st3" d="M1076.7,455.2c2.2,0,4,1.8,4,4s-1.8,4-4,4-4-1.8-4-4,1.8-4,4-4Z"/>
    <path class="st3" d="M1076.7,411.7c2.2,0,4,1.8,4,4s-1.8,4-4,4-4-1.8-4-4,1.8-4,4-4Z"/>
    <path class="st3" d="M1076.7,367.7c2.2,0,4,1.8,4,4s-1.8,4-4,4-4-1.8-4-4,1.8-4,4-4Z"/>
    <path class="st3" d="M1076.7,324.5c2.2,0,4,1.8,4,4s-1.8,4-4,4-4-1.8-4-4,1.8-4,4-4Z"/>
    <path class="st3" d="M1076.7,279.9c2.2,0,4,1.8,4,4s-1.8,4-4,4-4-1.8-4-4,1.8-4,4-4Z"/>
    <path class="st3" d="M1076.7,236.5c2.2,0,4,1.8,4,4s-1.8,4-4,4-4-1.8-4-4,1.8-4,4-4Z"/>
    <path class="st3" d="M1076.7,192.4c2.2,0,4,1.8,4,4s-1.8,4-4,4-4-1.8-4-4,1.8-4,4-4Z"/>
    <path class="st3" d="M1120.5,499.7c2.2,0,4,1.8,4,4s-1.8,4-4,4-4-1.8-4-4,1.8-4,4-4Z"/>
    <path class="st3" d="M1120.5,455.2c2.2,0,4,1.8,4,4s-1.8,4-4,4-4-1.8-4-4,1.8-4,4-4Z"/>
    <path class="st3" d="M1120.5,411.7c2.2,0,4,1.8,4,4s-1.8,4-4,4-4-1.8-4-4,1.8-4,4-4Z"/>
    <path class="st3" d="M1120.5,367.7c2.2,0,4,1.8,4,4s-1.8,4-4,4-4-1.8-4-4,1.8-4,4-4Z"/>
    <path class="st3" d="M1120.5,324.5c2.2,0,4,1.8,4,4s-1.8,4-4,4-4-1.8-4-4,1.8-4,4-4Z"/>
    <path class="st3" d="M1120.5,279.9c2.2,0,4,1.8,4,4s-1.8,4-4,4-4-1.8-4-4,1.8-4,4-4Z"/>
    <path class="st3" d="M1120.5,236.5c2.2,0,4,1.8,4,4s-1.8,4-4,4-4-1.8-4-4,1.8-4,4-4Z"/>
    <path class="st3" d="M1120.5,192.4c2.2,0,4,1.8,4,4s-1.8,4-4,4-4-1.8-4-4,1.8-4,4-4Z"/>
    <path class="st3" d="M1164.6,499.7c2.2,0,4,1.8,4,4s-1.8,4-4,4-4-1.8-4-4,1.8-4,4-4Z"/>
    <path class="st3" d="M1164.6,455.2c2.2,0,4,1.8,4,4s-1.8,4-4,4-4-1.8-4-4,1.8-4,4-4Z"/>
    <path class="st3" d="M1164.6,411.7c2.2,0,4,1.8,4,4s-1.8,4-4,4-4-1.8-4-4,1.8-4,4-4Z"/>
    <path class="st3" d="M1164.6,367.7c2.2,0,4,1.8,4,4s-1.8,4-4,4-4-1.8-4-4,1.8-4,4-4Z"/>
    <path class="st3" d="M1164.6,324.5c2.2,0,4,1.8,4,4s-1.8,4-4,4-4-1.8-4-4,1.8-4,4-4Z"/>
    <path class="st3" d="M1164.6,279.9c2.2,0,4,1.8,4,4s-1.8,4-4,4-4-1.8-4-4,1.8-4,4-4Z"/>
    <path class="st3" d="M1164.6,236.5c2.2,0,4,1.8,4,4s-1.8,4-4,4-4-1.8-4-4,1.8-4,4-4Z"/>
    <path class="st3" d="M1164.6,192.4c2.2,0,4,1.8,4,4s-1.8,4-4,4-4-1.8-4-4,1.8-4,4-4Z"/>
    <path class="st3" d="M1208.4,499.7c2.2,0,4,1.8,4,4s-1.8,4-4,4-4-1.8-4-4,1.8-4,4-4Z"/>
    <path class="st3" d="M1208.4,455.2c2.2,0,4,1.8,4,4s-1.8,4-4,4-4-1.8-4-4,1.8-4,4-4Z"/>
    <path class="st3" d="M1208.4,411.7c2.2,0,4,1.8,4,4s-1.8,4-4,4-4-1.8-4-4,1.8-4,4-4Z"/>
    <path class="st3" d="M1208.4,367.7c2.2,0,4,1.8,4,4s-1.8,4-4,4-4-1.8-4-4,1.8-4,4-4Z"/>
    <path class="st3" d="M1208.4,324.5c2.2,0,4,1.8,4,4s-1.8,4-4,4-4-1.8-4-4,1.8-4,4-4Z"/>
    <path class="st3" d="M1208.4,279.9c2.2,0,4,1.8,4,4s-1.8,4-4,4-4-1.8-4-4,1.8-4,4-4Z"/>
    <path class="st3" d="M1208.4,236.5c2.2,0,4,1.8,4,4s-1.8,4-4,4-4-1.8-4-4,1.8-4,4-4Z"/>
    <path class="st3" d="M1208.4,192.4c2.2,0,4,1.8,4,4s-1.8,4-4,4-4-1.8-4-4,1.8-4,4-4Z"/>
    <path class="st3" d="M1252.1,499.7c2.2,0,4,1.8,4,4s-1.8,4-4,4-4-1.8-4-4,1.8-4,4-4Z"/>
    <path class="st3" d="M71.9,545.5c2.2,0,4,1.8,4,4s-1.8,4-4,4-4-1.8-4-4,1.8-4,4-4Z"/>
    <path class="st3" d="M27.9,545.5c2.2,0,4,1.8,4,4s-1.8,4-4,4-4-1.8-4-4,1.8-4,4-4Z"/>
    <path class="st3" d="M115.5,545.5c2.2,0,4,1.8,4,4s-1.8,4-4,4-4-1.8-4-4,1.8-4,4-4Z"/>
    <path class="st3" d="M159.4,545.5c2.2,0,4,1.8,4,4s-1.8,4-4,4-4-1.8-4-4,1.8-4,4-4Z"/>
    <path class="st3" d="M202.6,545.5c2.2,0,4,1.8,4,4s-1.8,4-4,4-4-1.8-4-4,1.8-4,4-4Z"/>
    <path class="st3" d="M290.2,545.5c2.2,0,4,1.8,4,4s-1.8,4-4,4-4-1.8-4-4,1.8-4,4-4Z"/>
    <path class="st3" d="M334.4,545.5c2.2,0,4,1.8,4,4s-1.8,4-4,4-4-1.8-4-4,1.8-4,4-4Z"/>
    <path class="st3" d="M378.2,545.5c2.2,0,4,1.8,4,4s-1.8,4-4,4-4-1.8-4-4,1.8-4,4-4Z"/>
    <path class="st3" d="M421.8,545.5c2.2,0,4,1.8,4,4s-1.8,4-4,4-4-1.8-4-4,1.8-4,4-4Z"/>
    <path class="st3" d="M465.5,545.5c2.2,0,4,1.8,4,4s-1.8,4-4,4-4-1.8-4-4,1.8-4,4-4Z"/>
    <path class="st3" d="M509.1,545.5c2.2,0,4,1.8,4,4s-1.8,4-4,4-4-1.8-4-4,1.8-4,4-4h0Z"/>
    <path class="st3" d="M553,545.5c2.2,0,4,1.8,4,4s-1.8,4-4,4-4-1.8-4-4,1.8-4,4-4Z"/>
    <path class="st3" d="M596.2,545.5c2.2,0,4,1.8,4,4s-1.8,4-4,4-4-1.8-4-4,1.8-4,4-4Z"/>
    <path class="st3" d="M640.1,545.5c2.2,0,4,1.8,4,4s-1.8,4-4,4-4-1.8-4-4,1.8-4,4-4Z"/>
    <path class="st3" d="M683.8,545.5c2.2,0,4,1.8,4,4s-1.8,4-4,4-4-1.8-4-4,1.8-4,4-4Z"/>
    <path class="st3" d="M727.9,545.5c2.2,0,4,1.8,4,4s-1.8,4-4,4-4-1.8-4-4,1.8-4,4-4Z"/>
    <path class="st3" d="M771.7,545.5c2.2,0,4,1.8,4,4s-1.8,4-4,4-4-1.8-4-4,1.8-4,4-4Z"/>
    <path class="st3" d="M815.4,545.5c2.2,0,4,1.8,4,4s-1.8,4-4,4-4-1.8-4-4,1.8-4,4-4Z"/>
    <path class="st3" d="M859.7,545.5c2.2,0,4,1.8,4,4s-1.8,4-4,4-4-1.8-4-4,1.8-4,4-4Z"/>
    <path class="st3" d="M903.5,545.5c2.2,0,4,1.8,4,4s-1.8,4-4,4-4-1.8-4-4,1.8-4,4-4Z"/>
    <path class="st3" d="M945.7,545.5c2.2,0,4,1.8,4,4s-1.8,4-4,4-4-1.8-4-4,1.8-4,4-4Z"/>
    <path class="st3" d="M989.6,545.5c2.2,0,4,1.8,4,4s-1.8,4-4,4-4-1.8-4-4,1.8-4,4-4Z"/>
    <path class="st3" d="M1032.8,545.5c2.2,0,4,1.8,4,4s-1.8,4-4,4-4-1.8-4-4,1.8-4,4-4Z"/>
    <path class="st3" d="M1076.7,545.5c2.2,0,4,1.8,4,4s-1.8,4-4,4-4-1.8-4-4,1.8-4,4-4Z"/>
    <path class="st3" d="M1120.5,545.5c2.2,0,4,1.8,4,4s-1.8,4-4,4-4-1.8-4-4,1.8-4,4-4Z"/>
    <path class="st3" d="M1164.6,545.5c2.2,0,4,1.8,4,4s-1.8,4-4,4-4-1.8-4-4,1.8-4,4-4Z"/>
    <path class="st3" d="M1208.4,545.5c2.2,0,4,1.8,4,4s-1.8,4-4,4-4-1.8-4-4,1.8-4,4-4Z"/>
    <path class="st3" d="M1252.1,545.5c2.2,0,4,1.8,4,4s-1.8,4-4,4-4-1.8-4-4,1.8-4,4-4Z"/>
    <path class="st3" d="M1252.1,455.2c2.2,0,4,1.8,4,4s-1.8,4-4,4-4-1.8-4-4,1.8-4,4-4Z"/>
    <path class="st3" d="M1252.1,411.7c2.2,0,4,1.8,4,4s-1.8,4-4,4-4-1.8-4-4,1.8-4,4-4Z"/>
    <path class="st3" d="M1252.1,367.7c2.2,0,4,1.8,4,4s-1.8,4-4,4-4-1.8-4-4,1.8-4,4-4Z"/>
    <path class="st3" d="M1252.1,324.5c2.2,0,4,1.8,4,4s-1.8,4-4,4-4-1.8-4-4,1.8-4,4-4Z"/>
    <path class="st3" d="M1252.1,279.9c2.2,0,4,1.8,4,4s-1.8,4-4,4-4-1.8-4-4,1.8-4,4-4Z"/>
    <path class="st3" d="M1252.1,236.5c2.2,0,4,1.8,4,4s-1.8,4-4,4-4-1.8-4-4,1.8-4,4-4Z"/>
    <path class="st3" d="M1252.1,192.4c2.2,0,4,1.8,4,4s-1.8,4-4,4-4-1.8-4-4,1.8-4,4-4Z"/>
  </g>
  <g>
    <path class="st6" d="M321,33v39.6h-12.2v-13.7l.2-13.3h-.2l-7.7,27.1h-11.2l-7.6-27.1h-.2l.2,13.3v13.7h-12.2v-39.6h19.6l4.6,17.6,1.7,7.4h.1l1.7-7.4,4.6-17.6h18.6Z"/>
    <path class="st6" d="M342.6,53.9c0-2-.9-2.9-2.6-2.9s-1.5.2-2.1.7-.9,1.4-1,2.9l-11.6-1.7c.3-3.3,1.7-6,4.3-7.9,2.6-2,6.4-2.9,11.3-2.9s9,1.1,11.5,3.1c2.5,2.1,3.8,4.9,3.8,8.3v9.3c0,1.6.8,2.5,2.3,2.5s.8,0,1-.2l-.6,7.1c-1.5.7-3.3,1.1-5.3,1.1s-4.3-.4-5.9-1.2c-1.6-.8-2.7-2-3.3-3.7-.8,1.4-2.1,2.6-3.8,3.5s-3.7,1.4-5.9,1.4c-3.2,0-5.6-.7-7.3-2.1-1.7-1.4-2.5-3.4-2.5-5.9s.7-4,2.1-5.4,3.4-2.3,6.1-2.9l9.5-2v-1.1ZM337.9,63.2c0,.6.2,1.2.6,1.6s1,.6,1.7.6,1.2-.2,1.7-.7.7-1.2.7-2v-2.6l-2.3.5c-1.6.4-2.3,1.3-2.3,2.7h-.1Z"/>
    <path class="st6" d="M361.6,72.6v-30h12.4l.3,6.5c.9-2.3,2.2-4,4-5.3,1.8-1.2,3.9-1.9,6.5-1.9s5.3.9,6.9,2.6c1.7,1.8,2.5,4.2,2.5,7.4v20.5h-13.8v-17.1c0-1.3-.2-2.1-.5-2.6-.4-.5-.9-.7-1.6-.7s-1.7.4-2.2,1c-.4.7-.7,1.9-.7,3.5v15.8h-13.8v.3Z"/>
    <path class="st6" d="M414.8,73.2c-5.4,0-9.7-1.4-12.7-4.1s-4.5-6.6-4.5-11.5.7-6.1,2.1-8.5c1.4-2.3,3.3-4.1,5.8-5.3s5.4-1.8,8.7-1.8,6.3.6,8.7,1.8c2.4,1.2,4.2,2.9,5.4,5.1,1.2,2.2,1.9,4.8,1.9,7.7s0,1.3,0,2-.1,1.2-.2,1.6h-19.1c.2,1.6.6,2.6,1.3,3.1.7.5,1.6.7,2.8.7,2,0,3.2-.9,3.6-2.6l11.1,3c-.4,2-1.4,3.6-2.9,4.9s-3.3,2.3-5.4,2.9-4.3,1-6.5,1h0ZM414.3,51.2c-1,0-1.8.3-2.4.9-.5.6-.9,1.6-1.1,3.1h6.5c-.1-1.3-.4-2.3-.8-3s-1.2-1-2.2-1Z"/>
    <path class="st6" d="M446.9,42.6v30.8c0,4.2-1,7.3-3.1,9.2-2.1,1.9-5.5,2.9-10.1,2.9s-3.6,0-5-.4c-1.5-.3-2.8-.8-4.1-1.4l1.7-8c.4.2.8.4,1.3.5s1.1.2,1.8.2c1.2,0,2.1-.3,2.8-.9.7-.6,1-1.7,1-3.2v-29.6h13.8,0ZM440,40.7c-2.7,0-4.7-.4-5.8-1.3-1.1-.9-1.7-2.4-1.7-4.4s.6-3.6,1.7-4.5,3.1-1.3,5.8-1.3,4.6.4,5.8,1.3c1.1.9,1.7,2.4,1.7,4.5s-.6,3.6-1.7,4.4c-1.1.9-3.1,1.3-5.8,1.3Z"/>
    <path class="st6" d="M467.2,42c3.4,0,6.3.6,8.8,1.8s4.4,3,5.8,5.3,2.1,5.1,2.1,8.5-.7,6.1-2.1,8.4-3.4,4.1-5.8,5.3c-2.5,1.2-5.4,1.8-8.8,1.8s-6.2-.6-8.8-1.8c-2.5-1.2-4.5-3-5.9-5.3-1.4-2.3-2.1-5.1-2.1-8.4s.7-6.1,2.1-8.5c1.4-2.3,3.4-4.1,5.9-5.3s5.4-1.8,8.8-1.8ZM467.2,51.3c-.9,0-1.6.4-2.1,1.3s-.8,2.5-.8,5,.2,4.2.8,5,1.2,1.3,2.1,1.3,1.6-.4,2.1-1.3c.5-.8.8-2.5.8-5s-.3-4.2-.8-5-1.2-1.3-2.1-1.3Z"/>
    <path class="st6" d="M513.1,73.2c-3.7,0-6.5-1.4-8.5-4.1s-3-6.5-3-11.4,1-8.9,3-11.6c2-2.8,4.8-4.1,8.5-4.1s3.8.5,5.2,1.5,2.5,2.4,3.2,4v-17h13.8v42h-12.4l-.4-5.9c-.8,2-2.1,3.5-3.7,4.7-1.6,1.2-3.5,1.8-5.8,1.8h.1ZM518.7,63.6c.9,0,1.6-.5,2.2-1.4.5-.9.8-2.4.8-4.5,0-3.9-1-5.9-2.9-5.9s-1.7.4-2.3,1.2-.8,2.4-.8,4.7.3,3.9.8,4.7c.6.8,1.3,1.2,2.3,1.2h0Z"/>
    <path class="st6" d="M556.1,73.2c-5.4,0-9.7-1.4-12.7-4.1s-4.5-6.6-4.5-11.5.7-6.1,2.1-8.5c1.4-2.3,3.3-4.1,5.8-5.3s5.4-1.8,8.7-1.8,6.3.6,8.7,1.8,4.2,2.9,5.4,5.1c1.2,2.2,1.9,4.8,1.9,7.7s0,1.3,0,2,0,1.2-.2,1.6h-19.1c.2,1.6.6,2.6,1.3,3.1s1.6.7,2.8.7c2,0,3.2-.9,3.6-2.6l11.1,3c-.4,2-1.4,3.6-2.9,4.9s-3.3,2.3-5.4,2.9c-2.1.6-4.3,1-6.5,1h0ZM555.6,51.2c-1,0-1.8.3-2.4.9-.5.6-.9,1.6-1.1,3.1h6.5c0-1.3-.4-2.3-.8-3-.4-.7-1.2-1-2.2-1Z"/>
    <path class="st6" d="M606.2,53.9c0-2-.9-2.9-2.6-2.9s-1.5.2-2.1.7-.9,1.4-1,2.9l-11.6-1.7c.3-3.3,1.7-6,4.3-7.9,2.6-2,6.4-2.9,11.3-2.9s9,1.1,11.5,3.1c2.5,2.1,3.8,4.9,3.8,8.3v9.3c0,1.6.8,2.5,2.3,2.5s.8,0,1-.2l-.6,7.1c-1.5.7-3.3,1.1-5.3,1.1s-4.3-.4-5.9-1.2c-1.6-.8-2.7-2-3.3-3.7-.8,1.4-2.1,2.6-3.8,3.5s-3.7,1.4-5.9,1.4c-3.2,0-5.6-.7-7.3-2.1s-2.5-3.4-2.5-5.9.7-4,2.1-5.4,3.4-2.3,6.1-2.9l9.5-2v-1.1ZM602.1,28.8h12.3l-6.2,10.6h-9.7l3.6-10.6h0ZM601.5,63.2c0,.6.2,1.2.6,1.6.4.4,1,.6,1.7.6s1.2-.2,1.7-.7.7-1.2.7-2v-2.6l-2.3.5c-1.6.4-2.3,1.3-2.3,2.7h-.1Z"/>
    <path class="st6" d="M646.2,64.1c3.9,0,6.8.8,8.9,2.3s3.1,3.9,3.1,7-1.6,7.3-4.6,9.2c-3.1,1.9-7.5,2.9-13.2,2.9s-10-.6-12.5-1.8c-2.4-1.2-3.7-3-3.7-5.4s.5-2.4,1.4-3.3c1-.9,2.5-1.5,4.7-1.8-1.8-.6-3.1-1.5-3.9-2.6-.8-1.1-1.2-2.5-1.2-4.1s.5-2.8,1.4-3.9c.9-1.1,2.1-1.8,3.6-2.4-3.2-1.6-4.8-4.3-4.8-8s1.3-6,4-7.7,6.7-2.6,11.9-2.6,4.2,0,5.9.4c.2-1.6.5-3.1,1.1-4.6s1.5-2.7,2.7-3.6c1.2-.9,2.8-1.4,4.8-1.4h1.4l.7,8.5c-.4,0-.8,0-1.1-.2h-1c-1.2,0-2.1.3-2.8.8s-1.2,1.1-1.5,1.8c3.8,1.6,5.7,4.5,5.7,8.6s-1.4,5.9-4.1,7.6c-2.7,1.7-6.7,2.5-11.9,2.5s-4.8-.2-6.8-.6c-.6.2-.8.5-.8,1s.2.7.6.9c.4.2,1,.3,1.9.3h10.1v.2ZM640.5,77.2c5,0,7.5-.6,7.5-1.7s-.4-.8-1.1-.8h-11.7c-.4,0-.7,0-.9.3-.2.2-.3.4-.3.7,0,.5.6.9,1.7,1.1,1.2.2,2.8.4,4.8.4ZM641.3,49.2c-1.7,0-2.5,1-2.5,3.1s.8,3.1,2.5,3.1,2.5-1,2.5-3.1-.8-3.1-2.5-3.1Z"/>
    <path class="st6" d="M670.1,73.2c-3.1,0-5.5-.8-7.2-2.4s-2.5-4.2-2.5-7.9v-20.3h13.8v17.1c0,1.2.2,2,.6,2.5.4.5.9.8,1.7.8,1.8,0,2.7-1.5,2.7-4.5v-15.9h13.8v30h-12.4l-.3-6.4c-1.8,4.6-5.1,7-10.1,7h0Z"/>
    <path class="st6" d="M713.9,53.9c0-2-.9-2.9-2.6-2.9s-1.5.2-2.1.7-.9,1.4-1,2.9l-11.6-1.7c.3-3.3,1.7-6,4.3-7.9,2.6-2,6.4-2.9,11.3-2.9s9,1.1,11.5,3.1c2.5,2.1,3.8,4.9,3.8,8.3v9.3c0,1.6.8,2.5,2.3,2.5s.8,0,1-.2l-.6,7.1c-1.5.7-3.3,1.1-5.3,1.1s-4.3-.4-5.9-1.2c-1.6-.8-2.7-2-3.3-3.7-.8,1.4-2.1,2.6-3.8,3.5s-3.7,1.4-5.9,1.4c-3.2,0-5.6-.7-7.3-2.1s-2.5-3.4-2.5-5.9.7-4,2.1-5.4,3.4-2.3,6.1-2.9l9.5-2v-1.1ZM709.2,63.2c0,.6.2,1.2.6,1.6.4.4,1,.6,1.7.6s1.2-.2,1.7-.7.7-1.2.7-2v-2.6l-2.3.5c-1.6.4-2.3,1.3-2.3,2.7h-.1Z"/>
    <path class="st6" d="M746.7,73.2c-2.9,0-5.7-.4-8.4-1.2s-5-2-7-3.6l4.9-7.1c1.1,1,2.5,1.8,4.3,2.5,1.8.7,3.5,1.1,5.3,1.1s1.3,0,1.8-.2.8-.4.8-.8,0-.6-.5-.7c-.3-.2-1-.3-1.9-.5l-2.2-.4c-4.4-.8-7.4-2-9.2-3.6s-2.7-3.7-2.7-6.3.5-3.2,1.6-4.8,2.8-2.9,5.1-3.9,5.4-1.6,9.2-1.6,5.9.4,8.4,1.2,4.5,1.9,6.1,3.2l-4.7,6.8c-1.1-.9-2.6-1.6-4.3-2.1s-3.3-.8-4.8-.8-1.7,0-2.1.3c-.4.2-.6.4-.6.7s.2.5.6.8c.4.2,1.2.5,2.3.7l4.3.7c3.2.5,5.6,1.6,7.1,3.1s2.2,3.5,2.2,5.8-.5,3.8-1.6,5.4c-1.1,1.7-2.7,3-5,4s-5.2,1.5-8.9,1.5v-.2Z"/>
    <path class="st6" d="M780.2,85.2v-42.6h12.5l.3,6c.8-2,2.1-3.6,3.7-4.8,1.6-1.2,3.5-1.8,5.8-1.8,3.7,0,6.5,1.4,8.5,4.1,2,2.7,3,6.5,3,11.4s-1,8.9-3,11.6c-2,2.8-4.8,4.1-8.5,4.1s-3.8-.5-5.2-1.5-2.5-2.4-3.2-4v17.6h-13.9ZM796.9,63.5c1,0,1.7-.4,2.3-1.2s.8-2.3.8-4.7-.3-3.9-.8-4.7c-.6-.8-1.3-1.2-2.3-1.2s-1.6.5-2.2,1.4c-.5.9-.8,2.5-.8,4.5,0,3.9,1,5.9,2.9,5.9h0Z"/>
    <path class="st6" d="M831.6,30.6v30.1c0,1.2.2,2.1.5,2.6.4.6,1,.8,1.9.8h1.2c.3,0,.7,0,1-.2l-.6,7.4c-.8.6-1.9,1-3.3,1.4s-2.8.5-4.2.5c-3.7,0-6.4-.8-8-2.4s-2.4-4.3-2.4-8V30.6h13.9Z"/>
    <path class="st6" d="M847.9,73.2c-3.1,0-5.5-.8-7.2-2.4s-2.5-4.2-2.5-7.9v-20.3h13.8v17.1c0,1.2.2,2,.6,2.5.4.5.9.8,1.7.8,1.8,0,2.7-1.5,2.7-4.5v-15.9h13.8v30h-12.4l-.3-6.4c-1.8,4.6-5.1,7-10.1,7h0Z"/>
    <path class="st6" d="M894.7,42.6h14.3l-9.7,30h-17.2l-9.7-30h14.3l4,21.3,4-21.3h0Z"/>
    <path class="st6" d="M917.6,40.7c-2.7,0-4.7-.4-5.8-1.3-1.1-.9-1.7-2.4-1.7-4.4s.6-3.6,1.7-4.5c1.1-.9,3.1-1.3,5.8-1.3s4.6.4,5.8,1.3c1.1.9,1.7,2.4,1.7,4.5s-.6,3.6-1.7,4.4c-1.1.9-3.1,1.3-5.8,1.3ZM924.5,42.6v30h-13.8v-30h13.8Z"/>
    <path class="st6" d="M945.5,53.9c0-2-.9-2.9-2.6-2.9s-1.5.2-2.1.7-.9,1.4-1,2.9l-11.6-1.7c.3-3.3,1.7-6,4.3-7.9,2.6-2,6.4-2.9,11.3-2.9s9,1.1,11.5,3.1c2.5,2.1,3.8,4.9,3.8,8.3v9.3c0,1.6.8,2.5,2.3,2.5s.8,0,1-.2l-.6,7.1c-1.5.7-3.3,1.1-5.3,1.1s-4.3-.4-5.9-1.2c-1.6-.8-2.7-2-3.3-3.7-.8,1.4-2.1,2.6-3.8,3.5s-3.7,1.4-5.9,1.4c-3.2,0-5.6-.7-7.3-2.1s-2.5-3.4-2.5-5.9.7-4,2.1-5.4,3.4-2.3,6.1-2.9l9.5-2v-1.1ZM940.8,63.2c0,.6.2,1.2.6,1.6.4.4,1,.6,1.7.6s1.2-.2,1.7-.7.7-1.2.7-2v-2.6l-2.3.5c-1.6.4-2.3,1.3-2.3,2.7h-.1Z"/>
    <path class="st6" d="M971.4,40.7c-2.7,0-4.7-.4-5.8-1.3-1.1-.9-1.7-2.4-1.7-4.4s.6-3.6,1.7-4.5c1.1-.9,3.1-1.3,5.8-1.3s4.6.4,5.8,1.3c1.1.9,1.7,2.4,1.7,4.5s-.6,3.6-1.7,4.4c-1.1.9-3.1,1.3-5.8,1.3ZM978.3,42.6v30h-13.8v-30h13.8Z"/>
    <path class="st6" d="M996.8,73.2c-2.9,0-5.7-.4-8.4-1.2s-5-2-7-3.6l4.9-7.1c1.1,1,2.5,1.8,4.3,2.5,1.8.7,3.5,1.1,5.3,1.1s1.3,0,1.8-.2.8-.4.8-.8,0-.6-.5-.7c-.3-.2-1-.3-1.9-.5l-2.2-.4c-4.4-.8-7.4-2-9.2-3.6s-2.7-3.7-2.7-6.3.5-3.2,1.6-4.8,2.8-2.9,5.1-3.9,5.4-1.6,9.2-1.6,5.9.4,8.4,1.2,4.5,1.9,6.1,3.2l-4.7,6.8c-1.1-.9-2.6-1.6-4.3-2.1s-3.3-.8-4.8-.8-1.7,0-2.1.3c-.4.2-.6.4-.6.7s.2.5.6.8c.4.2,1.2.5,2.3.7l4.3.7c3.2.5,5.6,1.6,7.1,3.1s2.2,3.5,2.2,5.8-.5,3.8-1.6,5.4c-1.1,1.7-2.7,3-5,4s-5.2,1.5-8.9,1.5v-.2Z"/>
  </g>
  <g>
    <rect class="st6" x="76.9" y="275.8" width="1130" height="138.8"/>
    <rect class="st0" x="76.9" y="275.9" width="1108.9" height="138.7"/>
    <g class="st4">
      <rect class="st1" x="76.9" y="275.7" width="1088" height="65.7"/>
    </g>
    <g>
      <path class="st6" d="M287,460.4c4.1,0,7.3,1.1,9.4,3.4s3.2,5.5,3.2,9.8-1.1,7.4-3.2,9.7c-2.1,2.3-5.2,3.5-9.4,3.5h-13v-26.4h13ZM285.7,480.2c1.7,0,2.9-.5,3.5-1.6s.9-2.7.9-5-.3-3.9-.9-5-1.7-1.6-3.5-1.6h-2.3v13.1h2.3Z"/>
      <path class="st6" d="M312.7,474.3c0-1.3-.6-2-1.7-2s-1,.2-1.4.5-.6,1-.6,1.9l-7.8-1.1c.2-2.2,1.1-4,2.9-5.3,1.7-1.3,4.3-2,7.6-2s6,.7,7.7,2.1,2.5,3.2,2.5,5.5v6.2c0,1.1.5,1.6,1.6,1.6s.5,0,.7-.1l-.4,4.7c-1,.5-2.2.7-3.6.7s-2.9-.3-4-.8-1.8-1.3-2.2-2.4c-.5,1-1.4,1.7-2.5,2.3-1.1.6-2.5.9-3.9.9-2.1,0-3.7-.5-4.9-1.4-1.1-.9-1.7-2.2-1.7-3.9s.5-2.7,1.4-3.6,2.3-1.6,4-1.9l6.3-1.3v-.8.2ZM309.5,480.5c0,.4.1.8.4,1,.3.3.6.4,1.1.4s.8-.2,1.1-.5c.3-.3.5-.8.5-1.4v-1.8l-1.6.4c-1,.3-1.6.9-1.6,1.8h.1Z"/>
      <path class="st6" d="M334.5,487.2c-1.9,0-3.8-.3-5.6-.8-1.8-.5-3.4-1.3-4.7-2.4l3.3-4.8c.7.6,1.7,1.2,2.8,1.7,1.2.5,2.3.7,3.5.7s.9,0,1.2-.2c.4-.1.5-.3.5-.6s0-.4-.3-.5c-.2-.1-.6-.2-1.3-.3l-1.4-.3c-2.9-.6-5-1.4-6.2-2.4s-1.8-2.4-1.8-4.2.4-2.2,1.1-3.2c.7-1.1,1.8-1.9,3.4-2.6,1.5-.7,3.6-1,6.1-1s3.9.3,5.6.8,3,1.2,4,2.1l-3.2,4.6c-.7-.6-1.7-1.1-2.9-1.4-1.2-.4-2.2-.5-3.2-.5s-1.1,0-1.4.2c-.3.1-.4.3-.4.5s.1.4.4.5c.3.2.8.3,1.6.4l2.8.5c2.2.3,3.7,1,4.7,2.1,1,1,1.5,2.3,1.5,3.8s-.4,2.5-1.1,3.6-1.8,2-3.3,2.7-3.5,1-5.9,1h.2Z"/>
      <path class="st6" d="M366.7,487.2c-2.3,0-4.3-.4-6.2-1.2-1.9-.8-3.5-2.2-4.9-4.3l8-3.9c.2.8.6,1.5,1.1,2s1.2.8,2.2.8,1.5-.2,2-.6.7-1.1.7-2c0-1.5-1-2.3-2.9-2.3s-1.3,0-1.8.3c-.5.2-.9.4-1.3.7l-6.8-1.3,1.8-14.8h17.8v6.8h-11.3l-.4,3.3-.2.8h0c.5-.6,1.2-1,2.1-1.3s1.9-.4,2.9-.4c1.8,0,3.3.3,4.5,1s2.1,1.6,2.8,2.7c.6,1.1,1,2.5,1,3.9s-.3,3.3-.9,4.6c-.6,1.3-1.5,2.3-2.5,3-1.1.8-2.3,1.3-3.6,1.7-1.3.4-2.7.5-4.1.5h0Z"/>
      <path class="st6" d="M384.7,478.6c1.6,0,2.8.4,3.6,1.1.9.7,1.3,1.8,1.3,3.2s-.4,2.4-1.3,3.2c-.9.7-2.1,1.1-3.6,1.1s-2.8-.4-3.6-1.1c-.9-.7-1.3-1.8-1.3-3.2s.4-2.4,1.3-3.2c.9-.7,2.1-1.1,3.6-1.1Z"/>
      <path class="st6" d="M392.9,486.8v-5.6c4-2.1,7-4.2,8.9-6.3,1.9-2.1,2.9-3.9,2.9-5.5s-.2-1.2-.5-1.7-.9-.7-1.7-.7-1.6.4-2,1.1-.6,1.9-.6,3.6l-8-1.9c0-2.2.4-4.1,1.4-5.5s2.3-2.5,4.1-3.2c1.7-.7,3.6-1,5.7-1s3.7.3,5.1.8,2.5,1.3,3.3,2.1c.8.9,1.4,1.8,1.8,2.8s.5,2,.5,2.9c0,1.8-.5,3.3-1.4,4.8-.9,1.4-2.2,2.7-3.7,3.8-1.5,1.1-3.3,2.1-5.2,3h10.4v6.8h-21.1v-.3Z"/>
      <path class="st6" d="M429.2,460c1.4,0,2.8.2,4.1.6,1.3.4,2.5,1,3.5,1.9s1.7,2.1,2.1,3.6l-7.4,3.5c-.4-1.6-1.3-2.4-2.9-2.4s-1.9.4-2.6,1.3-1.1,2.2-1.1,4.2v1c.5-.9,1.3-1.6,2.4-2.1s2.3-.8,3.6-.8,2.9.3,4.2.9c1.2.6,2.2,1.5,2.9,2.6.7,1.1,1.1,2.5,1.1,4.1s-.4,3.4-1.3,4.8c-.9,1.3-2.1,2.4-3.6,3.1s-3.4,1.1-5.5,1.1-4.4-.4-6.2-1.3c-1.8-.9-3.3-2.3-4.4-4.2-1.1-1.9-1.6-4.5-1.6-7.6s.6-5.9,1.7-8,2.7-3.6,4.6-4.6,4.1-1.5,6.4-1.5v-.2ZM428.6,476.2c-.6,0-1.2.2-1.7.6s-.8.9-.8,1.7.3,1.3.8,1.7c.5.4,1.1.6,1.7.6,1.6,0,2.4-.7,2.4-2.2s-.8-2.2-2.4-2.2v-.2Z"/>
      <path class="st6" d="M454.1,460c1.4,0,2.8.2,4.1.6,1.3.4,2.5,1,3.5,1.9s1.7,2.1,2.1,3.6l-7.4,3.5c-.4-1.6-1.3-2.4-2.9-2.4s-1.9.4-2.6,1.3-1.1,2.2-1.1,4.2v1c.5-.9,1.3-1.6,2.4-2.1s2.3-.8,3.6-.8,2.9.3,4.2.9c1.2.6,2.2,1.5,2.9,2.6.7,1.1,1.1,2.5,1.1,4.1s-.4,3.4-1.3,4.8c-.9,1.3-2.1,2.4-3.6,3.1s-3.4,1.1-5.5,1.1-4.4-.4-6.2-1.3c-1.8-.9-3.3-2.3-4.4-4.2-1.1-1.9-1.6-4.5-1.6-7.6s.6-5.9,1.7-8,2.7-3.6,4.6-4.6,4.1-1.5,6.4-1.5v-.2ZM453.5,476.2c-.6,0-1.2.2-1.7.6s-.8.9-.8,1.7.3,1.3.8,1.7c.5.4,1.1.6,1.7.6,1.6,0,2.4-.7,2.4-2.2s-.8-2.2-2.4-2.2v-.2Z"/>
      <path class="st6" d="M487.1,487.2c-3.6,0-6.4-.9-8.4-2.7s-3-4.4-3-7.7.5-4.1,1.4-5.6,2.2-2.7,3.9-3.5c1.7-.8,3.6-1.2,5.8-1.2s4.2.4,5.8,1.2c1.6.8,2.8,2,3.6,3.4s1.2,3.2,1.2,5.1,0,.9,0,1.3,0,.8-.1,1.1h-12.7c.1,1,.4,1.7.9,2s1.1.5,1.9.5c1.3,0,2.1-.6,2.4-1.7l7.4,2c-.3,1.3-.9,2.4-2,3.3-1,.9-2.2,1.5-3.6,1.9s-2.8.6-4.3.6h-.2ZM486.7,472.5c-.7,0-1.2.2-1.6.6s-.6,1.1-.7,2.1h4.3c0-.9-.3-1.5-.6-2-.3-.5-.8-.7-1.4-.7h0Z"/>
      <path class="st6" d="M499.6,486.8v-20h8.3l.2,4.4c.6-1.5,1.5-2.7,2.6-3.5,1.2-.8,2.6-1.2,4.3-1.2s3.5.6,4.6,1.8c1.1,1.2,1.7,2.8,1.7,5v13.7h-9.2v-11.4c0-.9-.1-1.4-.4-1.7-.2-.3-.6-.5-1.1-.5s-1.1.2-1.4.7-.4,1.2-.4,2.3v10.6h-9.2v-.2Z"/>
      <path class="st6" d="M540.3,466.8v6.2h-5v5.6c0,.9.2,1.6.6,1.9.4.4,1,.6,1.8.6s1.8-.2,2.5-.5l.4,5.2c-.7.4-1.6.8-2.7,1-1.1.2-2.2.4-3.2.4-2.8,0-4.9-.5-6.4-1.6s-2.2-2.9-2.2-5.5v-7.1h-3.1v-6.2h3.1v-4.2l9.2-2.6v6.8h5Z"/>
      <path class="st6" d="M546.9,465.5c-1.8,0-3.1-.3-3.9-.9-.8-.6-1.1-1.6-1.1-3s.4-2.4,1.1-3c.8-.6,2-.9,3.9-.9s3.1.3,3.9.9c.8.6,1.1,1.6,1.1,3s-.4,2.4-1.1,3c-.8.6-2,.9-3.9.9ZM551.5,466.8v20h-9.2v-20h9.2Z"/>
      <path class="st6" d="M561.7,487.2c-2.5,0-4.3-.9-5.7-2.7-1.3-1.8-2-4.3-2-7.6s.7-5.9,2-7.8c1.3-1.8,3.2-2.8,5.7-2.8s2.5.3,3.5,1c.9.7,1.7,1.6,2.2,2.7v-11.3h9.2v28h-8.3l-.3-4c-.6,1.3-1.4,2.4-2.4,3.2-1.1.8-2.4,1.2-3.9,1.2h0ZM565.5,480.8c.6,0,1.1-.3,1.4-.9.3-.6.5-1.6.5-3,0-2.6-.7-3.9-2-3.9s-1.1.3-1.5.8-.6,1.6-.6,3.1.2,2.6.6,3.2c.4.5.9.8,1.5.8h0Z"/>
      <path class="st6" d="M590.6,474.3c0-1.3-.6-2-1.7-2s-1,.2-1.4.5-.6,1-.6,1.9l-7.8-1.1c.2-2.2,1.1-4,2.9-5.3,1.7-1.3,4.3-2,7.6-2s6,.7,7.7,2.1,2.5,3.2,2.5,5.5v6.2c0,1.1.5,1.6,1.6,1.6s.5,0,.7-.1l-.4,4.7c-1,.5-2.2.7-3.6.7s-2.9-.3-4-.8-1.8-1.3-2.2-2.4c-.5,1-1.4,1.7-2.5,2.3-1.1.6-2.5.9-3.9.9-2.1,0-3.7-.5-4.9-1.4-1.1-.9-1.7-2.2-1.7-3.9s.5-2.7,1.4-3.6,2.3-1.6,4-1.9l6.3-1.3v-.8.2ZM587.5,480.5c0,.4,0,.8.4,1,.3.3.6.4,1.1.4s.8-.2,1.1-.5.5-.8.5-1.4v-1.8l-1.6.4c-1,.3-1.6.9-1.6,1.8h0Z"/>
      <path class="st6" d="M610.1,487.2c-2.5,0-4.3-.9-5.7-2.7-1.3-1.8-2-4.3-2-7.6s.7-5.9,2-7.8c1.3-1.8,3.2-2.8,5.7-2.8s2.5.3,3.5,1c.9.7,1.7,1.6,2.2,2.7v-11.3h9.2v28h-8.3l-.3-4c-.6,1.3-1.4,2.4-2.4,3.2-1.1.8-2.4,1.2-3.9,1.2h0ZM613.8,480.8c.6,0,1.1-.3,1.4-.9.3-.6.5-1.6.5-3,0-2.6-.7-3.9-2-3.9s-1.1.3-1.5.8-.6,1.6-.6,3.1.2,2.6.6,3.2c.4.5.9.8,1.5.8h0Z"/>
      <path class="st6" d="M638.8,487.2c-3.6,0-6.4-.9-8.4-2.7s-3-4.4-3-7.7.5-4.1,1.4-5.6,2.2-2.7,3.9-3.5,3.6-1.2,5.8-1.2,4.2.4,5.8,1.2c1.6.8,2.8,2,3.6,3.4.8,1.5,1.2,3.2,1.2,5.1s0,.9,0,1.3,0,.8,0,1.1h-12.7c0,1,.4,1.7.9,2s1.1.5,1.9.5c1.3,0,2.1-.6,2.4-1.7l7.4,2c-.3,1.3-.9,2.4-2,3.3-1,.9-2.2,1.5-3.6,1.9-1.4.4-2.8.6-4.3.6h-.2ZM638.5,472.5c-.7,0-1.2.2-1.6.6-.4.4-.6,1.1-.7,2.1h4.3c0-.9-.3-1.5-.6-2s-.8-.7-1.4-.7Z"/>
      <path class="st6" d="M660.5,487.2c-1.9,0-3.8-.3-5.6-.8s-3.4-1.3-4.7-2.4l3.3-4.8c.7.6,1.7,1.2,2.8,1.7,1.2.5,2.3.7,3.5.7s.9,0,1.2-.2c.4-.1.5-.3.5-.6s0-.4-.3-.5c-.2-.1-.6-.2-1.3-.3l-1.4-.3c-2.9-.6-5-1.4-6.2-2.4s-1.8-2.4-1.8-4.2.4-2.2,1.1-3.2c.7-1.1,1.8-1.9,3.4-2.6,1.5-.7,3.6-1,6.1-1s3.9.3,5.6.8c1.7.5,3,1.2,4,2.1l-3.2,4.6c-.7-.6-1.7-1.1-2.9-1.4-1.2-.4-2.2-.5-3.2-.5s-1.1,0-1.4.2c-.3.1-.4.3-.4.5s0,.4.4.5c.3.2.8.3,1.6.4l2.8.5c2.2.3,3.7,1,4.7,2.1,1,1,1.5,2.3,1.5,3.8s-.4,2.5-1.1,3.6c-.7,1.1-1.8,2-3.3,2.7s-3.5,1-5.9,1h.2Z"/>
      <path class="st6" d="M695.6,495.2v-11.7c-.5,1.1-1.2,2-2.2,2.7s-2.1,1-3.5,1c-2.4,0-4.3-.9-5.7-2.8-1.3-1.8-2-4.4-2-7.8s.7-5.8,2-7.6c1.3-1.8,3.2-2.7,5.7-2.7s2.8.4,3.9,1.2c1.1.8,1.9,1.9,2.4,3.2l.2-4h8.4v28.4h-9.2ZM693.6,480.7c1.3,0,2-1.3,2-3.9s-.2-2.4-.5-3-.8-.9-1.4-.9-1.1.3-1.5.8-.6,1.6-.6,3.2.2,2.6.6,3.1c.4.5.9.8,1.5.8h0Z"/>
      <path class="st6" d="M714.3,487.2c-2.1,0-3.7-.5-4.8-1.6s-1.7-2.8-1.7-5.3v-13.5h9.2v11.4c0,.8,0,1.3.4,1.7.3.3.6.5,1.1.5,1.2,0,1.8-1,1.8-3v-10.6h9.2v20h-8.3l-.2-4.2c-1.2,3.1-3.4,4.6-6.8,4.6h0Z"/>
      <path class="st6" d="M743.4,487.2c-3.6,0-6.4-.9-8.4-2.7s-3-4.4-3-7.7.5-4.1,1.4-5.6,2.2-2.7,3.9-3.5,3.6-1.2,5.8-1.2,4.2.4,5.8,1.2c1.6.8,2.8,2,3.6,3.4.8,1.5,1.2,3.2,1.2,5.1s0,.9,0,1.3,0,.8,0,1.1h-12.7c0,1,.4,1.7.9,2s1.1.5,1.9.5c1.3,0,2.1-.6,2.4-1.7l7.4,2c-.3,1.3-.9,2.4-2,3.3-1,.9-2.2,1.5-3.6,1.9-1.4.4-2.8.6-4.3.6h-.2ZM743.1,472.5c-.7,0-1.2.2-1.6.6-.4.4-.6,1.1-.7,2.1h4.3c0-.9-.3-1.5-.6-2s-.8-.7-1.4-.7Z"/>
      <path class="st6" d="M765.9,495.2v-28.4h8.4l.2,4c.6-1.3,1.4-2.4,2.4-3.2s2.4-1.2,3.9-1.2c2.5,0,4.3.9,5.7,2.7s2,4.3,2,7.6-.7,5.9-2,7.8c-1.3,1.8-3.2,2.8-5.7,2.8s-2.5-.3-3.5-1c-.9-.7-1.7-1.6-2.2-2.7v11.7h-9.2ZM777.1,480.7c.6,0,1.1-.3,1.5-.8s.6-1.6.6-3.1-.2-2.6-.6-3.2c-.4-.5-.9-.8-1.5-.8s-1.1.3-1.4.9c-.3.6-.5,1.6-.5,3,0,2.6.7,3.9,2,3.9h0Z"/>
      <path class="st6" d="M791,486.8v-20h8.3l.2,5c.5-1.7,1.2-3,2.1-3.9.9-1,2.2-1.5,3.8-1.5s1.1,0,1.4.2.5.2.7.3l-.8,7.4c-.2-.1-.6-.2-1-.3-.5,0-.9-.1-1.5-.1-1.2,0-2.2.3-2.9.8-.7.6-1.1,1.4-1.1,2.5v9.6h-9.2Z"/>
      <path class="st6" d="M819.4,487.2c-3.6,0-6.4-.9-8.4-2.7s-3-4.4-3-7.7.5-4.1,1.4-5.6,2.2-2.7,3.9-3.5,3.6-1.2,5.8-1.2,4.2.4,5.8,1.2c1.6.8,2.8,2,3.6,3.4.8,1.5,1.2,3.2,1.2,5.1s0,.9,0,1.3,0,.8,0,1.1h-12.7c0,1,.4,1.7.9,2s1.1.5,1.9.5c1.3,0,2.1-.6,2.4-1.7l7.4,2c-.3,1.3-.9,2.4-2,3.3-1,.9-2.2,1.5-3.6,1.9-1.4.4-2.8.6-4.3.6h-.2ZM819.1,472.5c-.7,0-1.2.2-1.6.6s-.6,1.1-.7,2.1h4.3c0-.9-.3-1.5-.6-2s-.8-.7-1.4-.7Z"/>
      <path class="st6" d="M841.1,487.2c-1.9,0-3.8-.3-5.6-.8s-3.4-1.3-4.7-2.4l3.3-4.8c.7.6,1.7,1.2,2.8,1.7,1.2.5,2.3.7,3.5.7s.9,0,1.2-.2c.4-.1.5-.3.5-.6s0-.4-.3-.5c-.2-.1-.6-.2-1.3-.3l-1.4-.3c-2.9-.6-5-1.4-6.2-2.4s-1.8-2.4-1.8-4.2.4-2.2,1.1-3.2c.7-1.1,1.8-1.9,3.4-2.6,1.5-.7,3.6-1,6.1-1s3.9.3,5.6.8c1.7.5,3,1.2,4,2.1l-3.2,4.6c-.7-.6-1.7-1.1-2.9-1.4-1.2-.4-2.2-.5-3.2-.5s-1.1,0-1.4.2c-.3.1-.4.3-.4.5s0,.4.4.5c.3.2.8.3,1.6.4l2.8.5c2.2.3,3.7,1,4.7,2.1,1,1,1.5,2.3,1.5,3.8s-.4,2.5-1.1,3.6c-.7,1.1-1.8,2-3.3,2.7s-3.5,1-5.9,1h.2Z"/>
      <path class="st6" d="M869.3,466.8v6.2h-5v5.6c0,.9.2,1.6.6,1.9.4.4,1,.6,1.8.6s1.8-.2,2.5-.5l.4,5.2c-.7.4-1.6.8-2.7,1-1.1.2-2.2.4-3.2.4-2.8,0-4.9-.5-6.4-1.6s-2.2-2.9-2.2-5.5v-7.1h-3.1v-6.2h3.1v-4.2l9.2-2.6v6.8h5Z"/>
      <path class="st6" d="M882.8,474.3c0-1.3-.6-2-1.7-2s-1,.2-1.4.5-.6,1-.6,1.9l-7.8-1.1c.2-2.2,1.1-4,2.9-5.3,1.7-1.3,4.3-2,7.6-2s6,.7,7.7,2.1,2.5,3.2,2.5,5.5v6.2c0,1.1.5,1.6,1.6,1.6s.5,0,.7-.1l-.4,4.7c-1,.5-2.2.7-3.6.7s-2.9-.3-4-.8-1.8-1.3-2.2-2.4c-.5,1-1.4,1.7-2.5,2.3-1.1.6-2.5.9-3.9.9-2.1,0-3.7-.5-4.9-1.4-1.1-.9-1.7-2.2-1.7-3.9s.5-2.7,1.4-3.6,2.3-1.6,4-1.9l6.3-1.3v-.8.2ZM879.7,480.5c0,.4,0,.8.4,1,.3.3.6.4,1.1.4s.8-.2,1.1-.5.5-.8.5-1.4v-1.8l-1.6.4c-1,.3-1.6.9-1.6,1.8h0Z"/>
      <path class="st6" d="M895.5,486.8v-20h8.3l.2,4.4c.6-1.5,1.5-2.7,2.6-3.5,1.2-.8,2.6-1.2,4.3-1.2s2.8.3,3.8,1,1.7,1.7,2.1,3c.6-1.3,1.5-2.3,2.6-3s2.5-1,4-1,3.5.6,4.6,1.8c1.1,1.2,1.7,2.8,1.7,5v13.7h-9.2v-11.3c0-.9,0-1.5-.3-1.8s-.6-.5-1.1-.5c-1.3,0-1.9,1-1.9,3.1v10.5h-9.2v-11.3c0-.9,0-1.5-.3-1.8s-.6-.5-1.1-.5c-1.3,0-1.9,1-1.9,3.1v10.5h-9.2v-.2Z"/>
      <path class="st6" d="M953.5,487.2c-3.6,0-6.4-.9-8.4-2.7s-3-4.4-3-7.7.5-4.1,1.4-5.6,2.2-2.7,3.9-3.5,3.6-1.2,5.8-1.2,4.2.4,5.8,1.2c1.6.8,2.8,2,3.6,3.4.8,1.5,1.2,3.2,1.2,5.1s0,.9,0,1.3,0,.8,0,1.1h-12.7c0,1,.4,1.7.9,2s1.1.5,1.9.5c1.3,0,2.1-.6,2.4-1.7l7.4,2c-.3,1.3-.9,2.4-2,3.3-1,.9-2.2,1.5-3.6,1.9s-2.8.6-4.3.6h-.2ZM953.2,472.5c-.7,0-1.2.2-1.6.6-.4.4-.6,1.1-.7,2.1h4.3c0-.9-.3-1.5-.6-2s-.8-.7-1.4-.7Z"/>
      <path class="st6" d="M975.2,487.2c-1.9,0-3.8-.3-5.6-.8s-3.4-1.3-4.7-2.4l3.3-4.8c.7.6,1.7,1.2,2.8,1.7,1.2.5,2.3.7,3.5.7s.9,0,1.2-.2c.4-.1.5-.3.5-.6s0-.4-.3-.5c-.2-.1-.6-.2-1.3-.3l-1.4-.3c-2.9-.6-5-1.4-6.2-2.4s-1.8-2.4-1.8-4.2.4-2.2,1.1-3.2c.7-1.1,1.8-1.9,3.4-2.6,1.5-.7,3.6-1,6.1-1s3.9.3,5.6.8c1.7.5,3,1.2,4,2.1l-3.2,4.6c-.7-.6-1.7-1.1-2.9-1.4-1.2-.4-2.2-.5-3.2-.5s-1.1,0-1.4.2c-.3.1-.4.3-.4.5s0,.4.4.5c.3.2.8.3,1.6.4l2.8.5c2.2.3,3.7,1,4.7,2.1,1,1,1.5,2.3,1.5,3.8s-.4,2.5-1.1,3.6c-.7,1.1-1.8,2-3.3,2.7s-3.5,1-5.9,1h.2Z"/>
      <path class="st6" d="M996.7,487.2c-1.9,0-3.8-.3-5.6-.8s-3.4-1.3-4.7-2.4l3.3-4.8c.7.6,1.7,1.2,2.8,1.7,1.2.5,2.3.7,3.5.7s.9,0,1.2-.2c.4-.1.5-.3.5-.6s0-.4-.3-.5c-.2-.1-.6-.2-1.3-.3l-1.4-.3c-2.9-.6-5-1.4-6.2-2.4s-1.8-2.4-1.8-4.2.4-2.2,1.1-3.2c.7-1.1,1.8-1.9,3.4-2.6,1.5-.7,3.6-1,6.1-1s3.9.3,5.6.8c1.7.5,3,1.2,4,2.1l-3.2,4.6c-.7-.6-1.7-1.1-2.9-1.4-1.2-.4-2.2-.5-3.2-.5s-1.1,0-1.4.2c-.3.1-.4.3-.4.5s0,.4.4.5c.3.2.8.3,1.6.4l2.8.5c2.2.3,3.7,1,4.7,2.1,1,1,1.5,2.3,1.5,3.8s-.4,2.5-1.1,3.6c-.7,1.1-1.8,2-3.3,2.7s-3.5,1-5.9,1h.2Z"/>
      <path class="st6" d="M1019.5,487.2c-3.6,0-6.4-.9-8.4-2.7s-3-4.4-3-7.7.5-4.1,1.4-5.6,2.2-2.7,3.9-3.5,3.6-1.2,5.8-1.2,4.2.4,5.8,1.2c1.6.8,2.8,2,3.6,3.4.8,1.5,1.2,3.2,1.2,5.1s0,.9,0,1.3,0,.8,0,1.1h-12.7c0,1,.4,1.7.9,2s1.1.5,1.9.5c1.3,0,2.1-.6,2.4-1.7l7.4,2c-.3,1.3-.9,2.4-2,3.3-1,.9-2.2,1.5-3.6,1.9s-2.8.6-4.3.6h-.2ZM1019.2,472.5c-.7,0-1.2.2-1.6.6-.4.4-.6,1.1-.7,2.1h4.3c0-.9-.3-1.5-.6-2s-.8-.7-1.4-.7Z"/>
      <path class="st6" d="M1051.2,487.2c-1.9,0-3.8-.3-5.6-.8-1.8-.5-3.4-1.3-4.7-2.4l3.3-4.8c.7.6,1.7,1.2,2.8,1.7,1.2.5,2.3.7,3.5.7s.9,0,1.2-.2c.4-.1.5-.3.5-.6s0-.4-.3-.5c-.2-.1-.6-.2-1.3-.3l-1.4-.3c-2.9-.6-5-1.4-6.2-2.4s-1.8-2.4-1.8-4.2.4-2.2,1.1-3.2c.7-1.1,1.8-1.9,3.4-2.6,1.5-.7,3.6-1,6.1-1s3.9.3,5.6.8,3,1.2,4,2.1l-3.2,4.6c-.7-.6-1.7-1.1-2.9-1.4-1.2-.4-2.2-.5-3.2-.5s-1.1,0-1.4.2c-.3.1-.4.3-.4.5s0,.4.4.5c.3.2.8.3,1.6.4l2.8.5c2.2.3,3.7,1,4.7,2.1,1,1,1.5,2.3,1.5,3.8s-.4,2.5-1.1,3.6-1.8,2-3.3,2.7-3.5,1-5.9,1h.2Z"/>
      <path class="st6" d="M1074,487.2c-3.6,0-6.4-.9-8.4-2.7s-3-4.4-3-7.7.5-4.1,1.4-5.6,2.2-2.7,3.9-3.5c1.7-.8,3.6-1.2,5.8-1.2s4.2.4,5.8,1.2c1.6.8,2.8,2,3.6,3.4.8,1.5,1.2,3.2,1.2,5.1s0,.9,0,1.3,0,.8,0,1.1h-12.7c0,1,.4,1.7.9,2s1.1.5,1.9.5c1.3,0,2.1-.6,2.4-1.7l7.4,2c-.3,1.3-.9,2.4-2,3.3-1,.9-2.2,1.5-3.6,1.9s-2.8.6-4.3.6h-.2ZM1073.7,472.5c-.7,0-1.2.2-1.6.6s-.6,1.1-.7,2.1h4.3c0-.9-.3-1.5-.6-2-.3-.5-.8-.7-1.4-.7h0Z"/>
      <path class="st6" d="M1086.6,486.8v-20h8.3l.2,5c.5-1.7,1.2-3,2.1-3.9.9-1,2.2-1.5,3.8-1.5s1.1,0,1.4.2c.3.1.5.2.7.3l-.8,7.4c-.2-.1-.6-.2-1-.3-.5,0-.9-.1-1.5-.1-1.2,0-2.2.3-2.9.8-.7.6-1.1,1.4-1.1,2.5v9.6h-9.2Z"/>
      <path class="st6" d="M1117.2,466.8h9.5l-6.4,20h-11.4l-6.4-20h9.5l2.6,14.2,2.6-14.2h0Z"/>
      <path class="st6" d="M1132.4,465.5c-1.8,0-3.1-.3-3.9-.9s-1.1-1.6-1.1-3,.4-2.4,1.1-3c.8-.6,2-.9,3.9-.9s3.1.3,3.9.9,1.1,1.6,1.1,3-.4,2.4-1.1,3c-.8.6-2,.9-3.9.9ZM1137,466.8v20h-9.2v-20h9.2Z"/>
      <path class="st6" d="M1150.5,466.4c2.5,0,4.5.3,6,1s2.7,1.5,3.4,2.6,1.1,2.1,1.1,3.2l-8.5,2.5c0-1.1,0-1.8-.4-2.3s-.7-.7-1.3-.7-1.4.3-1.7.9c-.3.6-.5,1.7-.5,3.4s0,2,.3,2.6c.2.6.5,1,.8,1.2s.7.3,1.2.3c1.1,0,1.7-.9,1.8-2.6l8.2,2.6c0,1.1-.5,2.2-1.3,3.1s-2,1.7-3.5,2.3c-1.5.6-3.2.9-5.3.9-3.6,0-6.5-.9-8.5-2.7s-3.1-4.4-3.1-7.7.5-4.1,1.4-5.6,2.2-2.7,3.9-3.5c1.7-.8,3.6-1.2,5.8-1.2l.2-.3ZM1146.9,486.2l1.6-1.1c4.9.3,7.3,2,7.3,5s-.5,2.9-1.6,3.9-2.6,1.4-4.6,1.4-2-.1-2.6-.4c-.6-.2-1.2-.5-1.6-.8l1.3-3.9c.3.2.6.3,1,.4.3.1.8.2,1.3.2s1.2-.2,1.5-.5c.4-.3.6-.8.6-1.4s-.3-1.1-.9-1.5c-.6-.5-1.7-.9-3.2-1.3h-.1Z"/>
      <path class="st6" d="M1173.4,466.4c2.2,0,4.2.4,5.9,1.2,1.7.8,3,2,3.9,3.5s1.4,3.4,1.4,5.6-.5,4.1-1.4,5.6c-.9,1.6-2.2,2.7-3.9,3.6-1.7.8-3.6,1.2-5.9,1.2s-4.2-.4-5.8-1.2-3-2-3.9-3.6-1.4-3.4-1.4-5.6.5-4.1,1.4-5.6,2.2-2.7,3.9-3.5c1.7-.8,3.6-1.2,5.8-1.2ZM1173.4,472.6c-.6,0-1.1.3-1.4.8-.3.6-.5,1.7-.5,3.4s.2,2.8.5,3.4.8.8,1.4.8,1.1-.3,1.4-.8c.3-.6.5-1.7.5-3.4s-.2-2.8-.5-3.4-.8-.8-1.4-.8Z"/>
    </g>
    <g>
      <path class="st2" d="M224.2,363.1c3.8,0,6.7,1.1,8.7,3.2s2.9,5.6,2.9,10.2-.5,6-1.6,8.1c-1.1,2-2.5,3.5-4.2,4.4-1.8.9-3.7,1.3-5.8,1.3s-4.4-.4-6.2-1.3-3.1-2.3-4-4.3l8.2-2.9c.2,1.3.9,1.9,2.1,1.9s1.7-.4,2.4-1.1c.6-.7.9-1.9.9-3.6v-.8h-.1c-.4.8-1.2,1.4-2.2,1.9-1,.4-2.2.7-3.5.7s-3-.3-4.3-1-2.2-1.6-3-2.9c-.7-1.2-1.1-2.7-1.1-4.3s.5-3.6,1.4-5,2.2-2.4,3.8-3.2c1.6-.7,3.5-1.1,5.6-1.1v-.2ZM224.2,369.8c-.7,0-1.3.2-1.7.6-.5.4-.7.9-.7,1.7s.2,1.3.7,1.7c.5.4,1,.6,1.7.6s1.2-.2,1.7-.6.7-.9.7-1.7-.2-1.3-.7-1.7c-.5-.4-1.1-.6-1.7-.6Z"/>
      <path class="st2" d="M237.2,363.5h23.3v6.2c-2.2,2-3.9,4.1-5,6.2-1.2,2.2-2,4.4-2.4,6.7-.5,2.3-.7,4.7-.7,7.3h-9.1c0-3.8.6-7.2,1.9-10.4,1.3-3.1,3.4-6.1,6.4-9h-14.3v-7h0Z"/>
      <path class="st2" d="M262.2,381.6c1.2,0,2.2.3,3,.8s1.3,1.2,1.7,2.1c.4.8.5,1.7.5,2.7s-.3,2.8-1,4.1c-.7,1.3-1.5,2.4-2.5,3.3s-2,1.6-2.9,2l-3.5-2.4c1.1-.5,2.1-1.2,3.1-1.9,1-.8,1.7-1.6,2.2-2.4l-.2-.2c-.2.1-.4.2-.6.3-.2,0-.5.1-.9.1-.6,0-1.2-.1-1.8-.4-.6-.3-1.1-.7-1.5-1.3-.4-.6-.6-1.3-.6-2.1s.2-2,.7-2.6c.5-.7,1.1-1.2,1.8-1.5.8-.3,1.6-.5,2.4-.5h0Z"/>
      <path class="st2" d="M264.4,363.5h23.3v6.2c-2.2,2-3.9,4.1-5,6.2-1.2,2.2-2,4.4-2.4,6.7-.5,2.3-.7,4.7-.7,7.3h-9.1c0-3.8.6-7.2,1.9-10.4,1.3-3.1,3.4-6.1,6.4-9h-14.3v-7h0Z"/>
      <path class="st2" d="M298,363.1c1.6,0,3.1.3,4.3,1,1.2.6,2.2,1.5,2.9,2.7.7,1.1,1,2.5,1,4s-.3,2.9-1,4-1.6,2-2.9,2.7c-1.2.6-2.7,1-4.3,1s-3.1-.3-4.3-1c-1.2-.6-2.2-1.5-2.9-2.7s-1-2.5-1-4,.3-2.9,1-4,1.6-2,2.9-2.7c1.2-.6,2.7-1,4.3-1ZM295.8,389.9l19.4-26.4h6.6l-19.4,26.4h-6.6ZM298,369c-1.1,0-1.6.6-1.6,1.8s.5,1.8,1.6,1.8,1.6-.6,1.6-1.8-.5-1.8-1.6-1.8ZM319.5,374.9c1.6,0,3.1.3,4.3,1,1.2.6,2.2,1.5,2.9,2.7.7,1.1,1,2.5,1,4s-.3,2.9-1,4-1.6,2-2.9,2.7c-1.2.6-2.7,1-4.3,1s-3.1-.3-4.3-1c-1.2-.6-2.2-1.5-2.9-2.7-.7-1.1-1-2.5-1-4s.3-2.9,1-4,1.6-2,2.9-2.7c1.2-.6,2.7-1,4.3-1ZM319.5,380.8c-1.1,0-1.6.6-1.6,1.8s.5,1.8,1.6,1.8,1.6-.6,1.6-1.8-.5-1.8-1.6-1.8Z"/>
      <path class="st2" d="M349.4,390.3c-1.9,0-3.8-.3-5.6-.8-1.8-.5-3.4-1.3-4.7-2.4l3.3-4.8c.7.6,1.7,1.2,2.8,1.7,1.2.5,2.3.7,3.5.7s.9,0,1.2-.2c.4-.1.5-.3.5-.6s0-.4-.3-.5c-.2-.1-.6-.2-1.3-.3l-1.4-.3c-2.9-.6-5-1.4-6.2-2.4s-1.8-2.4-1.8-4.2.4-2.2,1.1-3.2c.7-1.1,1.8-1.9,3.4-2.6,1.5-.7,3.6-1,6.1-1s3.9.3,5.6.8,3,1.2,4,2.1l-3.2,4.6c-.7-.6-1.7-1.1-2.9-1.4-1.2-.4-2.2-.5-3.2-.5s-1.1,0-1.4.2c-.3.1-.4.3-.4.5s.1.4.4.5c.3.2.8.3,1.6.4l2.8.5c2.2.3,3.7,1,4.7,2.1,1,1,1.5,2.3,1.5,3.8s-.4,2.5-1.1,3.6-1.8,2-3.3,2.7-3.5,1-5.9,1h.2Z"/>
      <path class="st2" d="M372.5,377.4c0-1.3-.6-2-1.7-2s-1,.2-1.4.5-.6,1-.6,1.9l-7.8-1.1c.2-2.2,1.1-4,2.9-5.3,1.7-1.3,4.3-2,7.6-2s6,.7,7.7,2.1,2.5,3.2,2.5,5.5v6.2c0,1.1.5,1.6,1.6,1.6s.5,0,.7-.1l-.4,4.7c-1,.5-2.2.7-3.6.7s-2.9-.3-4-.8-1.8-1.3-2.2-2.4c-.5,1-1.4,1.7-2.5,2.3-1.1.6-2.5.9-3.9.9-2.1,0-3.7-.5-4.9-1.4-1.1-.9-1.7-2.2-1.7-3.9s.5-2.7,1.4-3.6,2.3-1.6,4-1.9l6.3-1.3v-.8.2ZM379.6,361.1c0,1.6-.3,2.9-.8,4-.5,1-1.2,1.8-1.9,2.3-.8.5-1.6.8-2.5.8s-1.8-.2-2.5-.5-1.2-.7-1.7-1-.9-.5-1.4-.5-1.1.6-1.2,1.9h-4.7c0-2.4.6-4.2,1.7-5.3,1.1-1.1,2.4-1.7,4-1.7s1.8.2,2.3.5c.6.3,1.1.7,1.5,1s.9.5,1.4.5,1.1-.6,1.2-1.9h4.7-.1ZM369.4,383.6c0,.4.1.8.4,1,.3.3.6.4,1.1.4s.8-.2,1.1-.5c.3-.3.5-.8.5-1.4v-1.8l-1.6.4c-1,.3-1.6.9-1.6,1.8h.1Z"/>
      <path class="st2" d="M395.4,369.5c2.2,0,4.2.4,5.9,1.2,1.7.8,3,2,3.9,3.5s1.4,3.4,1.4,5.6-.5,4.1-1.4,5.6c-.9,1.6-2.2,2.7-3.9,3.6s-3.6,1.2-5.9,1.2-4.2-.4-5.8-1.2c-1.7-.8-3-2-3.9-3.6s-1.4-3.4-1.4-5.6.5-4.1,1.4-5.6,2.2-2.7,3.9-3.5c1.7-.8,3.6-1.2,5.8-1.2ZM395.4,375.7c-.6,0-1.1.3-1.4.8-.3.6-.5,1.7-.5,3.4s.2,2.8.5,3.4.8.8,1.4.8,1.1-.3,1.4-.8c.3-.6.5-1.7.5-3.4s-.2-2.8-.5-3.4-.8-.8-1.4-.8Z"/>
      <path class="st2" d="M429.3,369.5c2.2,0,4.2.4,5.9,1.2,1.7.8,3,2,3.9,3.5s1.4,3.4,1.4,5.6-.5,4.1-1.4,5.6c-.9,1.6-2.2,2.7-3.9,3.6s-3.6,1.2-5.9,1.2-4.2-.4-5.8-1.2c-1.7-.8-3-2-3.9-3.6s-1.4-3.4-1.4-5.6.5-4.1,1.4-5.6,2.2-2.7,3.9-3.5c1.7-.8,3.6-1.2,5.8-1.2ZM427.9,360.7h8.2l-4.1,7.1h-6.5l2.4-7.1ZM429.3,375.7c-.6,0-1.1.3-1.4.8-.3.6-.5,1.7-.5,3.4s.2,2.8.5,3.4.8.8,1.4.8,1.1-.3,1.4-.8c.3-.6.5-1.7.5-3.4s-.2-2.8-.5-3.4-.8-.8-1.4-.8Z"/>
      <path class="st2" d="M442.8,389.9v-20h8.3l.2,5c.5-1.7,1.2-3,2.1-3.9.9-1,2.2-1.5,3.8-1.5s1.1,0,1.4.2c.3.1.5.2.7.3l-.8,7.4c-.2-.1-.6-.2-1-.3-.5,0-.9-.1-1.5-.1-1.2,0-2.2.3-2.9.8-.7.6-1.1,1.4-1.1,2.5v9.6h-9.2Z"/>
      <path class="st2" d="M474.2,384.2c2.6,0,4.6.5,5.9,1.6,1.4,1,2,2.6,2,4.7s-1,4.9-3.1,6.1c-2.1,1.3-5,1.9-8.8,1.9s-6.7-.4-8.3-1.2c-1.6-.8-2.4-2-2.4-3.6s.3-1.6,1-2.2c.6-.6,1.7-1,3.1-1.2-1.2-.4-2.1-1-2.6-1.7-.5-.8-.8-1.7-.8-2.7s.3-1.9.9-2.6,1.4-1.2,2.4-1.6c-2.1-1.1-3.2-2.9-3.2-5.4s.9-4,2.7-5.1c1.8-1.1,4.4-1.7,7.9-1.7s2.8,0,4,.3c.1-1,.4-2.1.8-3,.4-1,1-1.8,1.8-2.4s1.9-.9,3.2-.9h.9l.5,5.7c-.3,0-.5,0-.7-.1s-.4,0-.7,0c-.8,0-1.4.2-1.9.5s-.8.7-1,1.2c2.5,1.1,3.8,3,3.8,5.7s-.9,4-2.7,5.1c-1.8,1.1-4.4,1.7-7.9,1.7s-3.2-.1-4.5-.4c-.4.1-.6.4-.6.7s.1.5.4.6.7.2,1.3.2h6.7v-.2ZM470.4,392.9c3.3,0,5-.4,5-1.2s-.3-.5-.8-.5h-7.8c-.3,0-.5,0-.6.2-.1.1-.2.3-.2.5,0,.3.4.6,1.2.8.8.2,1.8.2,3.2.2h0ZM471,374.2c-1.1,0-1.7.7-1.7,2s.6,2,1.7,2,1.7-.7,1.7-2-.6-2-1.7-2Z"/>
      <path class="st2" d="M494.5,377.4c0-1.3-.6-2-1.7-2s-1,.2-1.4.5-.6,1-.6,1.9l-7.8-1.1c.2-2.2,1.1-4,2.9-5.3,1.7-1.3,4.3-2,7.6-2s6,.7,7.7,2.1,2.5,3.2,2.5,5.5v6.2c0,1.1.5,1.6,1.6,1.6s.5,0,.7-.1l-.4,4.7c-1,.5-2.2.7-3.6.7s-2.9-.3-4-.8-1.8-1.3-2.2-2.4c-.5,1-1.4,1.7-2.5,2.3-1.1.6-2.5.9-3.9.9-2.1,0-3.7-.5-4.9-1.4-1.1-.9-1.7-2.2-1.7-3.9s.5-2.7,1.4-3.6,2.3-1.6,4-1.9l6.3-1.3v-.8.2ZM501.6,361.1c0,1.6-.3,2.9-.8,4-.5,1-1.2,1.8-1.9,2.3-.8.5-1.6.8-2.5.8s-1.8-.2-2.5-.5-1.2-.7-1.7-1-.9-.5-1.4-.5-1.1.6-1.2,1.9h-4.7c0-2.4.6-4.2,1.7-5.3,1.1-1.1,2.4-1.7,4-1.7s1.8.2,2.3.5c.6.3,1.1.7,1.5,1s.9.5,1.4.5,1.1-.6,1.2-1.9h4.7-.1ZM491.4,383.6c0,.4.1.8.4,1,.3.3.6.4,1.1.4s.8-.2,1.1-.5c.3-.3.5-.8.5-1.4v-1.8l-1.6.4c-1,.3-1.6.9-1.6,1.8h.1Z"/>
      <path class="st2" d="M517.4,369.5c2.2,0,4.2.4,5.9,1.2,1.7.8,3,2,3.9,3.5s1.4,3.4,1.4,5.6-.5,4.1-1.4,5.6c-.9,1.6-2.2,2.7-3.9,3.6s-3.6,1.2-5.9,1.2-4.2-.4-5.8-1.2c-1.7-.8-3-2-3.9-3.6s-1.4-3.4-1.4-5.6.5-4.1,1.4-5.6,2.2-2.7,3.9-3.5c1.7-.8,3.6-1.2,5.8-1.2ZM517.4,375.7c-.6,0-1.1.3-1.4.8-.3.6-.5,1.7-.5,3.4s.2,2.8.5,3.4.8.8,1.4.8,1.1-.3,1.4-.8c.3-.6.5-1.7.5-3.4s-.2-2.8-.5-3.4-.8-.8-1.4-.8Z"/>
      <path class="st2" d="M540.1,390.3c-1.9,0-3.8-.3-5.6-.8s-3.4-1.3-4.7-2.4l3.3-4.8c.7.6,1.7,1.2,2.8,1.7,1.2.5,2.3.7,3.5.7s.9,0,1.2-.2c.4-.1.5-.3.5-.6s0-.4-.3-.5c-.2-.1-.6-.2-1.3-.3l-1.4-.3c-2.9-.6-5-1.4-6.2-2.4s-1.8-2.4-1.8-4.2.4-2.2,1.1-3.2c.7-1.1,1.8-1.9,3.4-2.6,1.5-.7,3.6-1,6.1-1s3.9.3,5.6.8c1.7.5,3,1.2,4,2.1l-3.2,4.6c-.7-.6-1.7-1.1-2.9-1.4-1.2-.4-2.2-.5-3.2-.5s-1.1,0-1.4.2c-.3.1-.4.3-.4.5s0,.4.4.5c.3.2.8.3,1.6.4l2.8.5c2.2.3,3.7,1,4.7,2.1,1,1,1.5,2.3,1.5,3.8s-.4,2.5-1.1,3.6c-.7,1.1-1.8,2-3.3,2.7s-3.5,1-5.9,1h.2Z"/>
      <path class="st2" d="M569.5,390.3c-2.5,0-4.3-.9-5.7-2.7-1.3-1.8-2-4.3-2-7.6s.7-5.9,2-7.8c1.3-1.8,3.2-2.8,5.7-2.8s2.5.3,3.5,1c.9.7,1.7,1.6,2.2,2.7v-11.3h9.2v28h-8.3l-.3-4c-.6,1.3-1.4,2.4-2.4,3.2-1.1.8-2.4,1.2-3.9,1.2h0ZM573.2,383.8c.6,0,1.1-.3,1.4-.9.3-.6.5-1.6.5-3,0-2.6-.7-3.9-2-3.9s-1.1.3-1.5.8-.6,1.6-.6,3.1.2,2.6.6,3.2c.4.5.9.8,1.5.8h0Z"/>
      <path class="st2" d="M598.2,390.3c-3.6,0-6.4-.9-8.4-2.7s-3-4.4-3-7.7.5-4.1,1.4-5.6,2.2-2.7,3.9-3.5,3.6-1.2,5.8-1.2,4.2.4,5.8,1.2c1.6.8,2.8,2,3.6,3.4s1.2,3.2,1.2,5.1,0,.9,0,1.3,0,.8,0,1.1h-12.7c0,1,.4,1.7.9,2s1.1.5,1.9.5c1.3,0,2.1-.6,2.4-1.7l7.4,2c-.3,1.3-.9,2.4-2,3.3-1,.9-2.2,1.5-3.6,1.9s-2.8.6-4.3.6h-.2ZM597.8,375.5c-.7,0-1.2.2-1.6.6-.4.4-.6,1.1-.7,2.1h4.3c0-.9-.3-1.5-.6-2s-.8-.7-1.4-.7Z"/>
      <path class="st2" d="M631.5,377.4c0-1.3-.6-2-1.7-2s-1,.2-1.4.5-.6,1-.6,1.9l-7.8-1.1c.2-2.2,1.1-4,2.9-5.3,1.7-1.3,4.3-2,7.6-2s6,.7,7.7,2.1,2.5,3.2,2.5,5.5v6.2c0,1.1.5,1.6,1.6,1.6s.5,0,.7-.1l-.4,4.7c-1,.5-2.2.7-3.6.7s-2.9-.3-4-.8-1.8-1.3-2.2-2.4c-.5,1-1.4,1.7-2.5,2.3-1.1.6-2.5.9-3.9.9-2.1,0-3.7-.5-4.9-1.4-1.1-.9-1.7-2.2-1.7-3.9s.5-2.7,1.4-3.6,2.3-1.6,4-1.9l6.3-1.3v-.8.2ZM628.4,383.6c0,.4,0,.8.4,1,.3.3.6.4,1.1.4s.8-.2,1.1-.5.5-.8.5-1.4v-1.8l-1.6.4c-1,.3-1.6.9-1.6,1.8h0Z"/>
      <path class="st2" d="M651,390.3c-2.5,0-4.3-.9-5.7-2.7-1.3-1.8-2-4.3-2-7.6s.7-5.9,2-7.8c1.3-1.8,3.2-2.8,5.7-2.8s2.5.3,3.5,1c.9.7,1.7,1.6,2.2,2.7v-11.3h9.2v28h-8.3l-.3-4c-.6,1.3-1.4,2.4-2.4,3.2-1.1.8-2.4,1.2-3.9,1.2h0ZM654.8,383.8c.6,0,1.1-.3,1.4-.9.3-.6.5-1.6.5-3,0-2.6-.7-3.9-2-3.9s-1.1.3-1.5.8-.6,1.6-.6,3.1.2,2.6.6,3.2.9.8,1.5.8h0Z"/>
      <path class="st2" d="M669,389.9v-20h8.3l.2,4.4c.6-1.5,1.5-2.7,2.6-3.5,1.2-.8,2.6-1.2,4.3-1.2s2.8.3,3.8,1,1.7,1.7,2.1,3c.6-1.3,1.5-2.3,2.6-3s2.5-1,4-1,3.5.6,4.6,1.8c1.1,1.2,1.7,2.8,1.7,5v13.7h-9.2v-11.3c0-.9,0-1.5-.3-1.8s-.6-.5-1.1-.5c-1.3,0-1.9,1-1.9,3.1v10.5h-9.2v-11.3c0-.9,0-1.5-.3-1.8s-.6-.5-1.1-.5c-1.3,0-1.9,1-1.9,3.1v10.5h-9.2v-.2Z"/>
      <path class="st2" d="M711,368.6c-1.8,0-3.1-.3-3.9-.9-.8-.6-1.1-1.6-1.1-3s.4-2.4,1.1-3c.8-.6,2-.9,3.9-.9s3.1.3,3.9.9c.8.6,1.1,1.6,1.1,3s-.4,2.4-1.1,3c-.8.6-2,.9-3.9.9ZM715.6,369.9v20h-9.2v-20h9.2Z"/>
      <path class="st2" d="M718.7,389.9v-20h8.3l.2,4.4c.6-1.5,1.5-2.7,2.6-3.5,1.2-.8,2.6-1.2,4.3-1.2s3.5.6,4.6,1.8c1.1,1.2,1.7,2.8,1.7,5v13.7h-9.2v-11.4c0-.9,0-1.4-.4-1.7-.2-.3-.6-.5-1.1-.5s-1.1.2-1.4.7c-.3.5-.4,1.2-.4,2.3v10.6h-9.2v-.2Z"/>
      <path class="st2" d="M748.1,368.6c-1.8,0-3.1-.3-3.9-.9-.8-.6-1.1-1.6-1.1-3s.4-2.4,1.1-3c.8-.6,2-.9,3.9-.9s3.1.3,3.9.9c.8.6,1.1,1.6,1.1,3s-.4,2.4-1.1,3c-.8.6-2,.9-3.9.9ZM752.7,369.9v20h-9.2v-20h9.2Z"/>
      <path class="st2" d="M765,390.3c-1.9,0-3.8-.3-5.6-.8s-3.4-1.3-4.7-2.4l3.3-4.8c.7.6,1.7,1.2,2.8,1.7,1.2.5,2.3.7,3.5.7s.9,0,1.2-.2.5-.3.5-.6,0-.4-.3-.5c-.2-.1-.6-.2-1.3-.3l-1.4-.3c-2.9-.6-5-1.4-6.2-2.4s-1.8-2.4-1.8-4.2.4-2.2,1.1-3.2c.7-1.1,1.8-1.9,3.4-2.6,1.5-.7,3.6-1,6.1-1s3.9.3,5.6.8c1.7.5,3,1.2,4,2.1l-3.2,4.6c-.7-.6-1.7-1.1-2.9-1.4-1.2-.4-2.2-.5-3.2-.5s-1.1,0-1.4.2-.4.3-.4.5,0,.4.4.5c.3.2.8.3,1.6.4l2.8.5c2.2.3,3.7,1,4.7,2.1,1,1,1.5,2.3,1.5,3.8s-.4,2.5-1.1,3.6c-.7,1.1-1.8,2-3.3,2.7s-3.5,1-5.9,1h.2Z"/>
      <path class="st2" d="M793.2,369.9v6.2h-5v5.6c0,.9.2,1.6.6,1.9.4.4,1,.6,1.8.6s1.8-.2,2.5-.5l.4,5.2c-.7.4-1.6.8-2.7,1-1.1.2-2.2.4-3.2.4-2.8,0-4.9-.5-6.4-1.6s-2.2-2.9-2.2-5.5v-7.1h-3.1v-6.2h3.1v-4.2l9.2-2.6v6.8h5Z"/>
      <path class="st2" d="M795.3,389.9v-20h8.3l.2,5c.5-1.7,1.2-3,2.1-3.9.9-1,2.2-1.5,3.8-1.5s1.1,0,1.4.2c.3.1.5.2.7.3l-.8,7.4c-.2-.1-.6-.2-1-.3-.5,0-.9-.1-1.5-.1-1.2,0-2.2.3-2.9.8-.7.6-1.1,1.4-1.1,2.5v9.6h-9.2Z"/>
      <path class="st2" d="M823.9,377.4c0-1.3-.6-2-1.7-2s-1,.2-1.4.5-.6,1-.6,1.9l-7.8-1.1c.2-2.2,1.1-4,2.9-5.3,1.7-1.3,4.3-2,7.6-2s6,.7,7.7,2.1,2.5,3.2,2.5,5.5v6.2c0,1.1.5,1.6,1.6,1.6s.5,0,.7-.1l-.4,4.7c-1,.5-2.2.7-3.6.7s-2.9-.3-4-.8-1.8-1.3-2.2-2.4c-.5,1-1.4,1.7-2.5,2.3-1.1.6-2.5.9-3.9.9-2.1,0-3.7-.5-4.9-1.4-1.1-.9-1.7-2.2-1.7-3.9s.5-2.7,1.4-3.6,2.3-1.6,4-1.9l6.3-1.3v-.8.2ZM820.8,383.6c0,.4,0,.8.4,1s.6.4,1.1.4.8-.2,1.1-.5.5-.8.5-1.4v-1.8l-1.6.4c-1,.3-1.6.9-1.6,1.8h0Z"/>
      <path class="st2" d="M846.6,369.5c2.5,0,4.5.3,6,1s2.7,1.5,3.4,2.6,1.1,2.1,1.1,3.2l-8.5,2.5c0-1.1,0-1.8-.4-2.3-.3-.5-.7-.7-1.3-.7s-1.4.3-1.7.9-.5,1.7-.5,3.4,0,2,.3,2.6c.2.6.5,1,.8,1.2s.7.3,1.2.3c1.1,0,1.7-.9,1.8-2.6l8.2,2.6c0,1.1-.5,2.2-1.3,3.1s-2,1.7-3.5,2.3c-1.5.6-3.2.9-5.3.9-3.6,0-6.5-.9-8.5-2.7s-3.1-4.4-3.1-7.7.5-4.1,1.4-5.6,2.2-2.7,3.9-3.5,3.6-1.2,5.8-1.2l.2-.3ZM843,389.3l1.6-1.1c4.9.3,7.3,2,7.3,5s-.5,2.9-1.6,3.9-2.6,1.4-4.6,1.4-2-.1-2.6-.4c-.6-.2-1.2-.5-1.6-.8l1.3-3.9c.3.2.6.3,1,.4.3.1.8.2,1.3.2s1.2-.2,1.5-.5c.4-.3.6-.8.6-1.4s-.3-1.1-.9-1.5c-.6-.5-1.7-.9-3.2-1.3h0Z"/>
      <path class="st2" d="M870,377.4c0-1.3-.6-2-1.7-2s-1,.2-1.4.5-.6,1-.6,1.9l-7.8-1.1c.2-2.2,1.1-4,2.9-5.3,1.7-1.3,4.3-2,7.6-2s6,.7,7.7,2.1,2.5,3.2,2.5,5.5v6.2c0,1.1.5,1.6,1.6,1.6s.5,0,.7-.1l-.4,4.7c-1,.5-2.2.7-3.6.7s-2.9-.3-4-.8-1.8-1.3-2.2-2.4c-.5,1-1.4,1.7-2.5,2.3-1.1.6-2.5.9-3.9.9-2.1,0-3.7-.5-4.9-1.4-1.1-.9-1.7-2.2-1.7-3.9s.5-2.7,1.4-3.6,2.3-1.6,4-1.9l6.3-1.3v-.8.2ZM877.1,361.1c0,1.6-.3,2.9-.8,4s-1.2,1.8-1.9,2.3c-.8.5-1.6.8-2.5.8s-1.8-.2-2.5-.5-1.2-.7-1.7-1-.9-.5-1.4-.5-1.1.6-1.2,1.9h-4.7c0-2.4.6-4.2,1.7-5.3,1.1-1.1,2.4-1.7,4-1.7s1.8.2,2.3.5c.6.3,1.1.7,1.5,1s.9.5,1.4.5,1.1-.6,1.2-1.9h4.7,0ZM866.9,383.6c0,.4,0,.8.4,1s.6.4,1.1.4.8-.2,1.1-.5.5-.8.5-1.4v-1.8l-1.6.4c-1,.3-1.6.9-1.6,1.8h0Z"/>
      <path class="st2" d="M892.8,369.5c2.2,0,4.2.4,5.9,1.2,1.7.8,3,2,3.9,3.5s1.4,3.4,1.4,5.6-.5,4.1-1.4,5.6c-.9,1.6-2.2,2.7-3.9,3.6-1.7.8-3.6,1.2-5.9,1.2s-4.2-.4-5.8-1.2-3-2-3.9-3.6-1.4-3.4-1.4-5.6.5-4.1,1.4-5.6,2.2-2.7,3.9-3.5,3.6-1.2,5.8-1.2ZM892.8,375.7c-.6,0-1.1.3-1.4.8-.3.6-.5,1.7-.5,3.4s.2,2.8.5,3.4.8.8,1.4.8,1.1-.3,1.4-.8c.3-.6.5-1.7.5-3.4s-.2-2.8-.5-3.4-.8-.8-1.4-.8Z"/>
      <path class="st2" d="M916.4,398.3v-28.4h8.4l.2,4c.6-1.3,1.4-2.4,2.4-3.2s2.4-1.2,3.9-1.2c2.5,0,4.3.9,5.7,2.7,1.3,1.8,2,4.3,2,7.6s-.7,5.9-2,7.8c-1.3,1.8-3.2,2.8-5.7,2.8s-2.5-.3-3.5-1-1.7-1.6-2.2-2.7v11.7h-9.2ZM927.5,383.8c.6,0,1.1-.3,1.5-.8s.6-1.6.6-3.1-.2-2.6-.6-3.2c-.4-.5-.9-.8-1.5-.8s-1.1.3-1.4.9c-.3.6-.5,1.6-.5,3,0,2.6.7,3.9,2,3.9h0Z"/>
      <path class="st2" d="M947.9,390.3c-2.1,0-3.7-.5-4.8-1.6s-1.7-2.8-1.7-5.3v-13.5h9.2v11.4c0,.8,0,1.3.4,1.7.3.3.6.5,1.1.5,1.2,0,1.8-1,1.8-3v-10.6h9.2v20h-8.3l-.2-4.2c-1.2,3.1-3.4,4.6-6.8,4.6h0ZM950.6,360.7h8.2l-4.1,7.1h-6.5l2.4-7.1h0Z"/>
      <path class="st2" d="M981.1,390.3c-1.6,0-3-.5-4.1-1.4s-1.9-2.2-2.4-3.7l-.2,4.7h-8.1v-28h9.2v11.4c.5-1.1,1.3-2.1,2.2-2.7,1-.7,2.3-1,3.8-1,2.2,0,4,.9,5.3,2.8,1.3,1.8,2,4.4,2,7.8s-.7,5.8-2,7.6c-1.3,1.8-3.2,2.7-5.7,2.7v-.2ZM977.4,383.8c.6,0,1.1-.3,1.5-.8s.6-1.6.6-3.2-.2-2.6-.6-3.1c-.4-.5-.9-.8-1.5-.8-1.3,0-2,1.3-2,3.9s.2,2.4.5,3,.8.9,1.4.9h0Z"/>
      <path class="st2" d="M1000.5,361.9v20c0,.8,0,1.4.4,1.8.2.4.7.6,1.3.6h.8c.2,0,.4,0,.7-.1l-.4,5c-.5.4-1.2.7-2.2.9-.9.2-1.9.4-2.8.4-2.5,0-4.3-.5-5.3-1.6-1.1-1.1-1.6-2.9-1.6-5.4v-21.4h9.2v-.2Z"/>
      <path class="st2" d="M1009.6,368.6c-1.8,0-3.1-.3-3.9-.9-.8-.6-1.1-1.6-1.1-3s.4-2.4,1.1-3c.8-.6,2-.9,3.9-.9s3.1.3,3.9.9c.8.6,1.1,1.6,1.1,3s-.4,2.4-1.1,3c-.8.6-2,.9-3.9.9ZM1014.2,369.9v20h-9.2v-20h9.2Z"/>
      <path class="st2" d="M1027.6,369.5c2.5,0,4.5.3,6,1s2.7,1.5,3.4,2.6,1.1,2.1,1.1,3.2l-8.5,2.5c0-1.1,0-1.8-.4-2.3s-.7-.7-1.3-.7-1.4.3-1.7.9c-.3.6-.5,1.7-.5,3.4s0,2,.3,2.6c.2.6.5,1,.8,1.2s.7.3,1.2.3c1.1,0,1.7-.9,1.8-2.6l8.2,2.6c0,1.1-.5,2.2-1.3,3.1s-2,1.7-3.5,2.3c-1.5.6-3.2.9-5.3.9-3.6,0-6.5-.9-8.5-2.7s-3.1-4.4-3.1-7.7.5-4.1,1.4-5.6,2.2-2.7,3.9-3.5,3.6-1.2,5.8-1.2l.2-.3Z"/>
      <path class="st2" d="M1051,377.4c0-1.3-.6-2-1.7-2s-1,.2-1.4.5-.6,1-.6,1.9l-7.8-1.1c.2-2.2,1.1-4,2.9-5.3,1.7-1.3,4.3-2,7.6-2s6,.7,7.7,2.1,2.5,3.2,2.5,5.5v6.2c0,1.1.5,1.6,1.6,1.6s.5,0,.7-.1l-.4,4.7c-1,.5-2.2.7-3.6.7s-2.9-.3-4-.8-1.8-1.3-2.2-2.4c-.5,1-1.4,1.7-2.5,2.3-1.1.6-2.5.9-3.9.9-2.1,0-3.7-.5-4.9-1.4-1.1-.9-1.7-2.2-1.7-3.9s.5-2.7,1.4-3.6,2.3-1.6,4-1.9l6.3-1.3v-.8.2ZM1047.8,383.6c0,.4,0,.8.4,1s.6.4,1.1.4.8-.2,1.1-.5c.3-.3.5-.8.5-1.4v-1.8l-1.6.4c-1,.3-1.6.9-1.6,1.8h0Z"/>
    </g>
    <g>
      <path class="st2" d="M224.2,294.8c3.8,0,6.7,1.1,8.7,3.2s2.9,5.6,2.9,10.2-.5,6-1.6,8.1c-1.1,2-2.5,3.5-4.2,4.4-1.8.9-3.7,1.3-5.8,1.3s-4.4-.4-6.2-1.3-3.1-2.3-4-4.3l8.2-2.9c.2,1.3.9,1.9,2.1,1.9s1.7-.4,2.4-1.1c.6-.7.9-1.9.9-3.6v-.8h-.1c-.4.8-1.2,1.4-2.2,1.9-1,.4-2.2.7-3.5.7s-3-.3-4.3-1-2.2-1.6-3-2.9c-.7-1.2-1.1-2.7-1.1-4.3s.5-3.6,1.4-5,2.2-2.4,3.8-3.2c1.6-.7,3.5-1.1,5.6-1.1v-.2ZM224.2,301.6c-.7,0-1.3.2-1.7.6-.5.4-.7.9-.7,1.7s.2,1.3.7,1.7c.5.4,1,.6,1.7.6s1.2-.2,1.7-.6.7-.9.7-1.7-.2-1.3-.7-1.7c-.5-.4-1.1-.6-1.7-.6Z"/>
      <path class="st2" d="M248.9,294.8c3.8,0,6.7,1.1,8.7,3.2,2,2.1,2.9,5.6,2.9,10.2s-.5,6-1.6,8.1c-1.1,2-2.5,3.5-4.2,4.4-1.8.9-3.7,1.3-5.8,1.3s-4.4-.4-6.2-1.3-3.1-2.3-4-4.3l8.2-2.9c.2,1.3.9,1.9,2.1,1.9s1.7-.4,2.4-1.1c.6-.7.9-1.9.9-3.6v-.8h-.1c-.4.8-1.2,1.4-2.2,1.9-1,.4-2.2.7-3.5.7s-3-.3-4.3-1-2.2-1.6-3-2.9c-.7-1.2-1.1-2.7-1.1-4.3s.5-3.6,1.4-5,2.2-2.4,3.8-3.2c1.6-.7,3.5-1.1,5.6-1.1v-.2ZM248.9,301.6c-.7,0-1.3.2-1.7.6-.5.4-.7.9-.7,1.7s.2,1.3.7,1.7c.5.4,1,.6,1.7.6s1.2-.2,1.7-.6.7-.9.7-1.7-.2-1.3-.7-1.7c-.5-.4-1.1-.6-1.7-.6Z"/>
      <path class="st2" d="M267.8,313.4c1.2,0,2.2.3,3,.8s1.3,1.2,1.7,2.1c.4.8.5,1.7.5,2.7s-.3,2.8-1,4.1c-.7,1.3-1.5,2.4-2.5,3.3s-2,1.6-2.9,2l-3.5-2.4c1.1-.5,2.1-1.2,3.1-1.9,1-.8,1.7-1.6,2.2-2.4l-.2-.2c-.2.1-.4.2-.6.3-.2,0-.5.1-.9.1-.6,0-1.2-.1-1.8-.4-.6-.3-1.1-.7-1.5-1.3s-.6-1.3-.6-2.1.2-2,.7-2.6c.5-.7,1.1-1.2,1.8-1.5.8-.3,1.6-.5,2.4-.5h0Z"/>
      <path class="st2" d="M288.3,294.8c1.4,0,2.8.2,4.1.6,1.3.4,2.5,1,3.5,1.9s1.7,2.1,2.1,3.6l-7.4,3.5c-.4-1.6-1.3-2.4-2.9-2.4s-1.9.4-2.6,1.3-1.1,2.2-1.1,4.2v1c.5-.9,1.3-1.6,2.4-2.1s2.3-.8,3.6-.8,2.9.3,4.2.9c1.2.6,2.2,1.5,2.9,2.6.7,1.1,1.1,2.5,1.1,4.1s-.4,3.4-1.3,4.8c-.9,1.3-2.1,2.4-3.6,3.1-1.6.7-3.4,1.1-5.5,1.1s-4.4-.4-6.2-1.3c-1.8-.9-3.3-2.3-4.4-4.2-1.1-1.9-1.6-4.5-1.6-7.6s.6-5.9,1.7-8,2.7-3.6,4.6-4.6,4.1-1.5,6.4-1.5v-.2ZM287.7,311c-.6,0-1.2.2-1.7.6s-.8.9-.8,1.7.3,1.3.8,1.7c.5.4,1.1.6,1.7.6,1.6,0,2.4-.7,2.4-2.2s-.8-2.2-2.4-2.2v-.2Z"/>
      <path class="st2" d="M308.2,294.8c1.6,0,3.1.3,4.3,1,1.2.6,2.2,1.5,2.9,2.7.7,1.1,1,2.5,1,4s-.3,2.9-1,4-1.6,2-2.9,2.7-2.7,1-4.3,1-3.1-.3-4.3-1-2.2-1.5-2.9-2.7c-.7-1.1-1-2.5-1-4s.3-2.9,1-4,1.6-2,2.9-2.7c1.2-.6,2.7-1,4.3-1ZM305.9,321.6l19.4-26.4h6.6l-19.4,26.4h-6.6ZM308.2,300.7c-1.1,0-1.6.6-1.6,1.8s.5,1.8,1.6,1.8,1.6-.6,1.6-1.8-.5-1.8-1.6-1.8ZM329.6,306.6c1.6,0,3.1.3,4.3,1s2.2,1.5,2.9,2.7c.7,1.1,1,2.5,1,4s-.3,2.9-1,4-1.6,2-2.9,2.7-2.7,1-4.3,1-3.1-.3-4.3-1-2.2-1.5-2.9-2.7c-.7-1.1-1-2.5-1-4s.3-2.9,1-4,1.6-2,2.9-2.7,2.7-1,4.3-1ZM329.6,312.6c-1.1,0-1.6.6-1.6,1.8s.5,1.8,1.6,1.8,1.6-.6,1.6-1.8-.5-1.8-1.6-1.8Z"/>
      <path class="st2" d="M357.4,322c-2.5,0-4.3-.9-5.7-2.7-1.3-1.8-2-4.3-2-7.6s.7-5.9,2-7.8c1.3-1.8,3.2-2.8,5.7-2.8s2.5.3,3.5,1c.9.7,1.7,1.6,2.2,2.7v-11.3h9.2v28h-8.3l-.3-4c-.6,1.3-1.4,2.4-2.4,3.2-1.1.8-2.4,1.2-3.9,1.2h0ZM361.1,315.6c.6,0,1.1-.3,1.4-.9s.5-1.6.5-3c0-2.6-.7-3.9-2-3.9s-1.1.3-1.5.8-.6,1.6-.6,3.1.2,2.6.6,3.2c.4.5.9.8,1.5.8h.1Z"/>
      <path class="st2" d="M386,322c-3.6,0-6.4-.9-8.4-2.7s-3-4.4-3-7.7.5-4.1,1.4-5.6,2.2-2.7,3.9-3.5c1.7-.8,3.6-1.2,5.8-1.2s4.2.4,5.8,1.2c1.6.8,2.8,2,3.6,3.4.8,1.5,1.2,3.2,1.2,5.1s0,.9,0,1.3,0,.8-.1,1.1h-12.7c.1,1,.4,1.7.9,2s1.1.5,1.9.5c1.3,0,2.1-.6,2.4-1.7l7.4,2c-.3,1.3-.9,2.4-2,3.3-1,.9-2.2,1.5-3.6,1.9s-2.8.6-4.3.6h-.2ZM385.7,307.3c-.7,0-1.2.2-1.6.6s-.6,1.1-.7,2.1h4.3c0-.9-.3-1.5-.6-2-.3-.5-.8-.7-1.4-.7h0Z"/>
      <path class="st2" d="M407.8,293.6v20c0,.8.1,1.4.4,1.8.2.4.7.6,1.3.6h.8c.2,0,.4,0,.7-.1l-.4,5c-.5.4-1.2.7-2.2.9-.9.2-1.9.4-2.8.4-2.5,0-4.3-.5-5.3-1.6-1.1-1.1-1.6-2.9-1.6-5.4v-21.4h9.2v-.2Z"/>
      <path class="st2" d="M423.6,309.1c0-1.3-.6-2-1.7-2s-1,.2-1.4.5-.6,1-.6,1.9l-7.8-1.1c.2-2.2,1.1-4,2.9-5.3,1.7-1.3,4.3-2,7.6-2s6,.7,7.7,2.1,2.5,3.2,2.5,5.5v6.2c0,1.1.5,1.6,1.6,1.6s.5,0,.7-.1l-.4,4.7c-1,.5-2.2.7-3.6.7s-2.9-.3-4-.8-1.8-1.3-2.2-2.4c-.5,1-1.4,1.7-2.5,2.3-1.1.6-2.5.9-3.9.9-2.1,0-3.7-.5-4.9-1.4-1.1-.9-1.7-2.2-1.7-3.9s.5-2.7,1.4-3.6,2.3-1.6,4-1.9l6.3-1.3v-.8.2ZM420.4,315.3c0,.4.1.8.4,1,.3.3.6.4,1.1.4s.8-.2,1.1-.5c.3-.3.5-.8.5-1.4v-1.8l-1.6.4c-1,.3-1.6.9-1.6,1.8h.1Z"/>
      <path class="st2" d="M445.4,322c-1.9,0-3.8-.3-5.6-.8-1.8-.5-3.4-1.3-4.7-2.4l3.3-4.8c.7.6,1.7,1.2,2.8,1.7,1.2.5,2.3.7,3.5.7s.9,0,1.2-.2c.4-.1.5-.3.5-.6s0-.4-.3-.5c-.2-.1-.6-.2-1.3-.3l-1.4-.3c-2.9-.6-5-1.4-6.2-2.4s-1.8-2.4-1.8-4.2.4-2.2,1.1-3.2c.7-1.1,1.8-1.9,3.4-2.6,1.5-.7,3.6-1,6.1-1s3.9.3,5.6.8,3,1.2,4,2.1l-3.2,4.6c-.7-.6-1.7-1.1-2.9-1.4-1.2-.4-2.2-.5-3.2-.5s-1.1,0-1.4.2c-.3.1-.4.3-.4.5s.1.4.4.5c.3.2.8.3,1.6.4l2.8.5c2.2.3,3.7,1,4.7,2.1,1,1,1.5,2.3,1.5,3.8s-.4,2.5-1.1,3.6-1.8,2-3.3,2.7-3.5,1-5.9,1h.2Z"/>
      <path class="st2" d="M467.8,330v-28.4h8.4l.2,4c.6-1.3,1.4-2.4,2.4-3.2,1.1-.8,2.4-1.2,3.9-1.2,2.5,0,4.3.9,5.7,2.7,1.3,1.8,2,4.3,2,7.6s-.7,5.9-2,7.8c-1.3,1.8-3.2,2.8-5.7,2.8s-2.5-.3-3.5-1c-.9-.7-1.7-1.6-2.2-2.7v11.7h-9.2,0ZM478.9,315.5c.6,0,1.1-.3,1.5-.8s.6-1.6.6-3.1-.2-2.6-.6-3.2c-.4-.5-.9-.8-1.5-.8s-1.1.3-1.4.9-.5,1.6-.5,3c0,2.6.7,3.9,2,3.9h-.1Z"/>
      <path class="st2" d="M503.5,322c-3.6,0-6.4-.9-8.4-2.7s-3-4.4-3-7.7.5-4.1,1.4-5.6,2.2-2.7,3.9-3.5c1.7-.8,3.6-1.2,5.8-1.2s4.2.4,5.8,1.2c1.6.8,2.8,2,3.6,3.4.8,1.5,1.2,3.2,1.2,5.1s0,.9,0,1.3,0,.8,0,1.1h-12.7c.1,1,.4,1.7.9,2s1.1.5,1.9.5c1.3,0,2.1-.6,2.4-1.7l7.4,2c-.3,1.3-.9,2.4-2,3.3-1,.9-2.2,1.5-3.6,1.9s-2.8.6-4.3.6h-.2ZM503.2,307.3c-.7,0-1.2.2-1.6.6s-.6,1.1-.7,2.1h4.3c0-.9-.3-1.5-.6-2-.3-.5-.8-.7-1.4-.7h0Z"/>
      <path class="st2" d="M516,321.6v-20h8.3l.2,5c.5-1.7,1.2-3,2.1-3.9.9-1,2.2-1.5,3.8-1.5s1.1,0,1.4.2c.3.1.5.2.7.3l-.8,7.4c-.2-.1-.6-.2-1-.3-.5,0-.9-.1-1.5-.1-1.2,0-2.2.3-2.9.8-.7.6-1.1,1.4-1.1,2.5v9.6h-9.2Z"/>
      <path class="st2" d="M549.7,301.6v6.2h-5v5.6c0,.9.2,1.6.6,1.9.4.4,1,.6,1.8.6s1.8-.2,2.5-.5l.4,5.2c-.7.4-1.6.8-2.7,1-1.1.2-2.2.4-3.2.4-2.8,0-4.9-.5-6.4-1.6s-2.2-2.9-2.2-5.5v-7.1h-3.1v-6.2h3.1v-4.2l9.2-2.6v6.8h5Z"/>
      <path class="st2" d="M562.4,322c-3.6,0-6.4-.9-8.4-2.7s-3-4.4-3-7.7.5-4.1,1.4-5.6,2.2-2.7,3.9-3.5,3.6-1.2,5.8-1.2,4.2.4,5.8,1.2c1.6.8,2.8,2,3.6,3.4.8,1.5,1.2,3.2,1.2,5.1s0,.9,0,1.3,0,.8,0,1.1h-12.7c0,1,.4,1.7.9,2s1.1.5,1.9.5c1.3,0,2.1-.6,2.4-1.7l7.4,2c-.3,1.3-.9,2.4-2,3.3-1,.9-2.2,1.5-3.6,1.9-1.4.4-2.8.6-4.3.6h-.2ZM562.1,307.3c-.7,0-1.2.2-1.6.6-.4.4-.6,1.1-.7,2.1h4.3c0-.9-.3-1.5-.6-2s-.8-.7-1.4-.7Z"/>
      <path class="st2" d="M575,321.6v-20h8.3l.2,4.4c.6-1.5,1.5-2.7,2.6-3.5,1.2-.8,2.6-1.2,4.3-1.2s3.5.6,4.6,1.8c1.1,1.2,1.7,2.8,1.7,5v13.7h-9.2v-11.4c0-.9,0-1.4-.4-1.7-.2-.3-.6-.5-1.1-.5s-1.1.2-1.4.7c-.3.5-.4,1.2-.4,2.3v10.6h-9.2v-.2Z"/>
      <path class="st2" d="M610.1,301.2c2.5,0,4.5.3,6,1s2.7,1.5,3.4,2.6,1.1,2.1,1.1,3.2l-8.5,2.5c0-1.1,0-1.8-.4-2.3-.3-.5-.7-.7-1.3-.7s-1.4.3-1.7.9-.5,1.7-.5,3.4,0,2,.3,2.6.5,1,.8,1.2.7.3,1.2.3c1.1,0,1.7-.9,1.8-2.6l8.2,2.6c0,1.1-.5,2.2-1.3,3.1s-2,1.7-3.5,2.3-3.2.9-5.3.9c-3.6,0-6.5-.9-8.5-2.7s-3.1-4.4-3.1-7.7.5-4.1,1.4-5.6,2.2-2.7,3.9-3.5,3.6-1.2,5.8-1.2l.2-.3Z"/>
      <path class="st2" d="M633.3,322c-3.6,0-6.4-.9-8.4-2.7s-3-4.4-3-7.7.5-4.1,1.4-5.6,2.2-2.7,3.9-3.5,3.6-1.2,5.8-1.2,4.2.4,5.8,1.2c1.6.8,2.8,2,3.6,3.4.8,1.5,1.2,3.2,1.2,5.1s0,.9,0,1.3,0,.8,0,1.1h-12.7c0,1,.4,1.7.9,2s1.1.5,1.9.5c1.3,0,2.1-.6,2.4-1.7l7.4,2c-.3,1.3-.9,2.4-2,3.3-1,.9-2.2,1.5-3.6,1.9-1.4.4-2.8.6-4.3.6h-.2ZM633,307.3c-.7,0-1.2.2-1.6.6-.4.4-.6,1.1-.7,2.1h4.3c0-.9-.3-1.5-.6-2s-.8-.7-1.4-.7Z"/>
      <path class="st2" d="M645.8,321.6v-20h8.3l.2,4.4c.6-1.5,1.5-2.7,2.6-3.5,1.2-.8,2.6-1.2,4.3-1.2s2.8.3,3.8,1,1.7,1.7,2.1,3c.6-1.3,1.5-2.3,2.6-3s2.5-1,4-1,3.5.6,4.6,1.8c1.1,1.2,1.7,2.8,1.7,5v13.7h-9.2v-11.3c0-.9,0-1.5-.3-1.8s-.6-.5-1.1-.5c-1.3,0-1.9,1-1.9,3.1v10.5h-9.2v-11.3c0-.9,0-1.5-.3-1.8s-.6-.5-1.1-.5c-1.3,0-1.9,1-1.9,3.1v10.5h-9.2v-.2Z"/>
      <path class="st2" d="M704,309.1c0-1.3-.6-2-1.7-2s-1,.2-1.4.5-.6,1-.6,1.9l-7.8-1.1c.2-2.2,1.1-4,2.9-5.3,1.7-1.3,4.3-2,7.6-2s6,.7,7.7,2.1,2.5,3.2,2.5,5.5v6.2c0,1.1.5,1.6,1.6,1.6s.5,0,.7-.1l-.4,4.7c-1,.5-2.2.7-3.6.7s-2.9-.3-4-.8-1.8-1.3-2.2-2.4c-.5,1-1.4,1.7-2.5,2.3s-2.5.9-3.9.9c-2.1,0-3.7-.5-4.9-1.4-1.1-.9-1.7-2.2-1.7-3.9s.5-2.7,1.4-3.6,2.3-1.6,4-1.9l6.3-1.3v-.8.2ZM700.8,315.3c0,.4,0,.8.4,1,.3.3.6.4,1.1.4s.8-.2,1.1-.5.5-.8.5-1.4v-1.8l-1.6.4c-1,.3-1.6.9-1.6,1.8h0Z"/>
      <path class="st2" d="M726.8,301.2c2.2,0,4.2.4,5.9,1.2,1.7.8,3,2,3.9,3.5s1.4,3.4,1.4,5.6-.5,4.1-1.4,5.6c-.9,1.6-2.2,2.7-3.9,3.6-1.7.8-3.6,1.2-5.9,1.2s-4.2-.4-5.8-1.2-3-2-3.9-3.6-1.4-3.4-1.4-5.6.5-4.1,1.4-5.6,2.2-2.7,3.9-3.5,3.6-1.2,5.8-1.2ZM726.8,307.4c-.6,0-1.1.3-1.4.8-.3.6-.5,1.7-.5,3.4s.2,2.8.5,3.4.8.8,1.4.8,1.1-.3,1.4-.8.5-1.7.5-3.4-.2-2.8-.5-3.4-.8-.8-1.4-.8Z"/>
      <path class="st2" d="M750.3,321.6v-20h8.3l.2,4.4c.6-1.5,1.5-2.7,2.6-3.5,1.2-.8,2.6-1.2,4.3-1.2s3.5.6,4.6,1.8c1.1,1.2,1.7,2.8,1.7,5v13.7h-9.2v-11.4c0-.9,0-1.4-.4-1.7-.2-.3-.6-.5-1.1-.5s-1.1.2-1.4.7c-.3.5-.4,1.2-.4,2.3v10.6h-9.2v-.2Z"/>
      <path class="st2" d="M784.3,301.6v20h-9.2v-20h9.2ZM778.3,292.4h8.2l-4.1,7.1h-6.5l2.4-7.1h0Z"/>
      <path class="st2" d="M800.3,301.6h9.5l-6.4,20h-11.4l-6.4-20h9.5l2.6,14.2,2.6-14.2h0Z"/>
      <path class="st2" d="M821,322c-3.6,0-6.4-.9-8.4-2.7s-3-4.4-3-7.7.5-4.1,1.4-5.6,2.2-2.7,3.9-3.5,3.6-1.2,5.8-1.2,4.2.4,5.8,1.2c1.6.8,2.8,2,3.6,3.4.8,1.5,1.2,3.2,1.2,5.1s0,.9,0,1.3,0,.8,0,1.1h-12.7c0,1,.4,1.7.9,2s1.1.5,1.9.5c1.3,0,2.1-.6,2.4-1.7l7.4,2c-.3,1.3-.9,2.4-2,3.3-1,.9-2.2,1.5-3.6,1.9-1.4.4-2.8.6-4.3.6h-.2ZM820.7,307.3c-.7,0-1.2.2-1.6.6-.4.4-.6,1.1-.7,2.1h4.3c0-.9-.3-1.5-.6-2s-.8-.7-1.4-.7Z"/>
      <path class="st2" d="M842.8,293.6v20c0,.8,0,1.4.4,1.8.2.4.7.6,1.3.6h.8c.2,0,.4,0,.7-.1l-.4,5c-.5.4-1.2.7-2.2.9-.9.2-1.9.4-2.8.4-2.5,0-4.3-.5-5.3-1.6-1.1-1.1-1.6-2.9-1.6-5.4v-21.4h9.2v-.2Z"/>
      <path class="st2" d="M857.2,321.6v-20h8.3l.2,4.4c.6-1.5,1.5-2.7,2.6-3.5,1.2-.8,2.6-1.2,4.3-1.2s2.8.3,3.8,1,1.7,1.7,2.1,3c.6-1.3,1.5-2.3,2.6-3s2.5-1,4-1,3.5.6,4.6,1.8c1.1,1.2,1.7,2.8,1.7,5v13.7h-9.2v-11.3c0-.9,0-1.5-.3-1.8s-.6-.5-1.1-.5c-1.3,0-1.9,1-1.9,3.1v10.5h-9.2v-11.3c0-.9,0-1.5-.3-1.8s-.6-.5-1.1-.5c-1.3,0-1.9,1-1.9,3.1v10.5h-9.2v-.2Z"/>
      <path class="st2" d="M901,322c-2.1,0-3.7-.5-4.8-1.6s-1.7-2.8-1.7-5.3v-13.5h9.2v11.4c0,.8,0,1.3.4,1.7.3.3.6.5,1.1.5,1.2,0,1.8-1,1.8-3v-10.6h9.2v20h-8.3l-.2-4.2c-1.2,3.1-3.4,4.6-6.8,4.6h0Z"/>
      <path class="st2" d="M919.3,321.6v-20h8.3l.2,4.4c.6-1.5,1.5-2.7,2.6-3.5,1.2-.8,2.6-1.2,4.3-1.2s3.5.6,4.6,1.8c1.1,1.2,1.7,2.8,1.7,5v13.7h-9.2v-11.4c0-.9,0-1.4-.4-1.7-.2-.3-.6-.5-1.1-.5s-1.1.2-1.4.7c-.3.5-.4,1.2-.4,2.3v10.6h-9.2v-.2Z"/>
      <path class="st2" d="M948.7,300.3c-1.8,0-3.1-.3-3.9-.9-.8-.6-1.1-1.6-1.1-3s.4-2.4,1.1-3c.8-.6,2-.9,3.9-.9s3.1.3,3.9.9c.8.6,1.1,1.6,1.1,3s-.4,2.4-1.1,3c-.8.6-2,.9-3.9.9ZM953.3,301.6v20h-9.2v-20h9.2Z"/>
      <path class="st2" d="M966.8,301.2c2.5,0,4.5.3,6,1s2.7,1.5,3.4,2.6,1.1,2.1,1.1,3.2l-8.5,2.5c0-1.1,0-1.8-.4-2.3-.3-.5-.7-.7-1.3-.7s-1.4.3-1.7.9-.5,1.7-.5,3.4,0,2,.3,2.6.5,1,.8,1.2.7.3,1.2.3c1.1,0,1.7-.9,1.8-2.6l8.2,2.6c0,1.1-.5,2.2-1.3,3.1s-2,1.7-3.5,2.3c-1.5.6-3.2.9-5.3.9-3.6,0-6.5-.9-8.5-2.7s-3.1-4.4-3.1-7.7.5-4.1,1.4-5.6,2.2-2.7,3.9-3.5,3.6-1.2,5.8-1.2l.2-.3Z"/>
      <path class="st2" d="M983.9,300.3c-1.8,0-3.1-.3-3.9-.9-.8-.6-1.1-1.6-1.1-3s.4-2.4,1.1-3c.8-.6,2-.9,3.9-.9s3.1.3,3.9.9c.8.6,1.1,1.6,1.1,3s-.4,2.4-1.1,3c-.8.6-2,.9-3.9.9ZM988.5,301.6v20h-9.2v-20h9.2Z"/>
      <path class="st2" d="M991.6,330v-28.4h8.4l.2,4c.6-1.3,1.4-2.4,2.4-3.2,1.1-.8,2.4-1.2,3.9-1.2,2.5,0,4.3.9,5.7,2.7,1.3,1.8,2,4.3,2,7.6s-.7,5.9-2,7.8c-1.3,1.8-3.2,2.8-5.7,2.8s-2.5-.3-3.5-1c-.9-.7-1.7-1.6-2.2-2.7v11.7h-9.2ZM1002.8,315.5c.6,0,1.1-.3,1.5-.8s.6-1.6.6-3.1-.2-2.6-.6-3.2c-.4-.5-.9-.8-1.5-.8s-1.1.3-1.4.9c-.3.6-.5,1.6-.5,3,0,2.6.7,3.9,2,3.9h0Z"/>
      <path class="st2" d="M1027.2,309.1c0-1.3-.6-2-1.7-2s-1,.2-1.4.5-.6,1-.6,1.9l-7.8-1.1c.2-2.2,1.1-4,2.9-5.3,1.7-1.3,4.3-2,7.6-2s6,.7,7.7,2.1,2.5,3.2,2.5,5.5v6.2c0,1.1.5,1.6,1.6,1.6s.5,0,.7-.1l-.4,4.7c-1,.5-2.2.7-3.6.7s-2.9-.3-4-.8-1.8-1.3-2.2-2.4c-.5,1-1.4,1.7-2.5,2.3-1.1.6-2.5.9-3.9.9-2.1,0-3.7-.5-4.9-1.4-1.1-.9-1.7-2.2-1.7-3.9s.5-2.7,1.4-3.6,2.3-1.6,4-1.9l6.3-1.3v-.8.2ZM1024.1,315.3c0,.4,0,.8.4,1,.3.3.6.4,1.1.4s.8-.2,1.1-.5c.3-.3.5-.8.5-1.4v-1.8l-1.6.4c-1,.3-1.6.9-1.6,1.8h0Z"/>
      <path class="st2" d="M1049.1,293.6v20c0,.8,0,1.4.4,1.8.2.4.7.6,1.3.6h.8c.2,0,.4,0,.7-.1l-.4,5c-.5.4-1.2.7-2.2.9-.9.2-1.9.4-2.8.4-2.5,0-4.3-.5-5.3-1.6-1.1-1.1-1.6-2.9-1.6-5.4v-21.4h9.2v-.2Z"/>
    </g>
    <path d="M1207.1,486.4h-2v-5h2v5ZM1207.1,476.4h-2v-5h2v5ZM1207.1,466.4h-2v-5h2v5ZM1207.1,456.4h-2v-5h2v5ZM1207.1,446.4h-2v-5h2v5ZM1207.1,436.4h-2v-5h2v5ZM1207.1,426.4h-2v-5h2v5ZM1207.1,416.4h-2v-5h2v5ZM1207.1,406.4h-2v-4.8h2v4.8Z"/>
  </g>
</svg>