<?xml version="1.0" encoding="UTF-8"?>
<svg id="img4" xmlns="http://www.w3.org/2000/svg" xmlns:xlink="http://www.w3.org/1999/xlink" version="1.1" viewBox="0 0 1280 1486.2">
  <defs>
    <style>
      .cls-1, .cls-2, .cls-3, .cls-4, .cls-5, .cls-6, .cls-7, .cls-8, .cls-9, .cls-10, .cls-11, .cls-12, .cls-13, .cls-14, .cls-15, .cls-16, .cls-17, .cls-18, .cls-19, .cls-20, .cls-21, .cls-22, .cls-23, .cls-24, .cls-25, .cls-26, .cls-27, .cls-28, .cls-29, .cls-30, .cls-31, .cls-32, .cls-33, .cls-34, .cls-35, .cls-36, .cls-37, .cls-38, .cls-39, .cls-40, .cls-41, .cls-42, .cls-43, .cls-44, .cls-45, .cls-46, .cls-47, .cls-48, .cls-49, .cls-50, .cls-51, .cls-52, .cls-53 {
        isolation: isolate;
      }

      .cls-1, .cls-4, .cls-6, .cls-9, .cls-10, .cls-11, .cls-15, .cls-16, .cls-17, .cls-18, .cls-19, .cls-20, .cls-24, .cls-29, .cls-30, .cls-36, .cls-38, .cls-40, .cls-42, .cls-44, .cls-45, .cls-48, .cls-49 {
        font-family: Montserrat-Bold, Montserrat;
        font-weight: 700;
      }

      .cls-1, .cls-6, .cls-10, .cls-24, .cls-44 {
        font-size: 18.7px;
      }

      .cls-1, .cls-10, .cls-13, .cls-14, .cls-24, .cls-54 {
        fill: #ff9800;
      }

      .cls-2, .cls-3, .cls-5, .cls-12, .cls-14, .cls-21, .cls-26, .cls-27, .cls-28, .cls-32, .cls-33, .cls-34, .cls-35, .cls-39, .cls-41, .cls-47, .cls-50, .cls-51, .cls-53 {
        font-family: Montserrat-SemiBold, Montserrat;
        font-weight: 600;
      }

      .cls-2, .cls-5, .cls-12, .cls-14, .cls-21, .cls-26, .cls-28, .cls-32, .cls-35, .cls-47, .cls-50 {
        font-size: 16.8px;
      }

      .cls-2, .cls-21, .cls-26, .cls-55, .cls-50 {
        fill: #fff;
      }

      .cls-3, .cls-4, .cls-11, .cls-15, .cls-16, .cls-18, .cls-19, .cls-20, .cls-27, .cls-29, .cls-30, .cls-33, .cls-34, .cls-39, .cls-40, .cls-41, .cls-42, .cls-48, .cls-49, .cls-51, .cls-53 {
        font-size: 23.6px;
      }

      .cls-3, .cls-56, .cls-29, .cls-30 {
        fill: #ee9211;
      }

      .cls-4, .cls-11, .cls-27, .cls-30, .cls-34, .cls-41 {
        letter-spacing: 0em;
      }

      .cls-4, .cls-15, .cls-19, .cls-34, .cls-57, .cls-39 {
        fill: #fdba4c;
      }

      .cls-5, .cls-6, .cls-12, .cls-58, .cls-28, .cls-32, .cls-35, .cls-44, .cls-47, .cls-52 {
        fill: #5850bb;
      }

      .cls-5, .cls-50 {
        letter-spacing: 0em;
      }

      .cls-6, .cls-10 {
        letter-spacing: 0em;
      }

      .cls-59 {
        fill: #261c92;
      }

      .cls-59, .cls-60, .cls-61, .cls-13, .cls-62, .cls-63, .cls-56, .cls-64, .cls-58, .cls-65, .cls-25, .cls-66, .cls-67, .cls-57, .cls-43, .cls-54, .cls-55, .cls-68, .cls-52 {
        stroke-width: 0px;
      }

      .cls-7 {
        letter-spacing: 0em;
      }

      .cls-7, .cls-8, .cls-22, .cls-23, .cls-31, .cls-37 {
        fill: #000;
        font-family: Montserrat-Regular, Montserrat;
        font-size: 26px;
      }

      .cls-8 {
        letter-spacing: 0em;
      }

      .cls-9 {
        letter-spacing: 0em;
      }

      .cls-9, .cls-17, .cls-36, .cls-38, .cls-45 {
        fill: #1e1a95;
        font-size: 41.5px;
      }

      .cls-11, .cls-16, .cls-18, .cls-27, .cls-33, .cls-68 {
        fill: #504dc1;
      }

      .cls-69 {
        clip-path: url(#clippath);
      }

      .cls-60 {
        fill: none;
      }

      .cls-12 {
        letter-spacing: 0em;
      }

      .cls-61, .cls-20, .cls-49, .cls-51 {
        fill: #ff7452;
      }

      .cls-13, .cls-52 {
        opacity: .3;
      }

      .cls-15, .cls-16, .cls-48, .cls-49 {
        letter-spacing: 0em;
      }

      .cls-62 {
        fill: #96f;
      }

      .cls-17 {
        letter-spacing: 0em;
      }

      .cls-63, .cls-40, .cls-41, .cls-42, .cls-48, .cls-53 {
        fill: #6d6ae5;
      }

      .cls-21, .cls-35 {
        letter-spacing: 0em;
      }

      .cls-23 {
        letter-spacing: 0em;
      }

      .cls-64 {
        fill: #652cc9;
      }

      .cls-24 {
        letter-spacing: 0em;
      }

      .cls-65 {
        fill: #96c;
      }

      .cls-25 {
        fill: #fbe287;
        opacity: .1;
      }

      .cls-26, .cls-32 {
        letter-spacing: 0em;
      }

      .cls-70 {
        filter: url(#drop-shadow-1);
      }

      .cls-66 {
        fill: #ffd652;
      }

      .cls-67 {
        fill: #639;
      }

      .cls-31 {
        letter-spacing: 0em;
      }

      .cls-36 {
        letter-spacing: 0em;
      }

      .cls-37 {
        letter-spacing: 0em;
      }

      .cls-38 {
        letter-spacing: 0em;
      }

      .cls-40 {
        letter-spacing: 0em;
      }

      .cls-43 {
        fill: #a5c4e5;
        opacity: .5;
      }

      .cls-47 {
        letter-spacing: 0em;
      }
    </style>
    <clipPath id="clippath">
      <rect class="cls-60" x="178.1" y="756.8" width="406.9" height="172.6"/>
    </clipPath>
    <filter id="drop-shadow-1" filterUnits="userSpaceOnUse">
      <feOffset dx="2" dy="2"/>
      <feGaussianBlur result="blur" stdDeviation="3"/>
      <feFlood flood-color="#3c006b" flood-opacity=".8"/>
      <feComposite in2="blur" operator="in"/>
      <feComposite in="SourceGraphic"/>
    </filter>
  </defs>
  <rect class="cls-25" x="23" y="250.7" width="1233.9" height="1211.8"/>
  <g class="cls-46">
    <text class="cls-45" transform="translate(219 90.5)"><tspan x="0" y="0">AS 10 ORGANIZ</tspan></text>
    <text class="cls-45" transform="translate(549.8 90.5)"><tspan x="0" y="0">A</tspan></text>
    <text class="cls-17" transform="translate(581.2 90.5)"><tspan x="0" y="0">Ç</tspan></text>
    <text class="cls-45" transform="translate(611 90.5)"><tspan x="0" y="0">ÕES QUE FIZERAM A </tspan></text>
    <text class="cls-45" transform="translate(245.6 140.3)"><tspan x="0" y="0">MAIOR </tspan></text>
    <text class="cls-38" transform="translate(408 140.3)"><tspan x="0" y="0">P</tspan></text>
    <text class="cls-45" transform="translate(436.5 140.3)"><tspan x="0" y="0">A</tspan></text>
    <text class="cls-45" transform="translate(468.3 140.3)"><tspan x="0" y="0">R</tspan></text>
    <text class="cls-45" transform="translate(498.4 140.3)"><tspan x="0" y="0">TE </tspan></text>
    <text class="cls-45" transform="translate(563.7 140.3)"><tspan x="0" y="0">D</tspan></text>
    <text class="cls-45" transform="translate(597.6 140.3)"><tspan x="0" y="0">AS </tspan></text>
    <text class="cls-45" transform="translate(667.6 140.3)"><tspan x="0" y="0">P</tspan></text>
    <text class="cls-45" transform="translate(697.6 140.3)"><tspan x="0" y="0">ESQUISAS </tspan></text>
    <text class="cls-9" transform="translate(929.9 140.3)"><tspan x="0" y="0">C</tspan></text>
    <text class="cls-45" transform="translate(959.8 140.3)"><tspan x="0" y="0">OM </tspan></text>
    <text class="cls-45" transform="translate(226.8 190.2)"><tspan x="0" y="0">ANIMAIS NA GR</tspan></text>
    <text class="cls-17" transform="translate(568.8 190.2)"><tspan x="0" y="0">Ã</tspan></text>
    <text class="cls-45" transform="translate(599.7 190.2)"><tspan x="0" y="0">-BRE</tspan></text>
    <text class="cls-36" transform="translate(705.8 190.2)"><tspan x="0" y="0">T</tspan></text>
    <text class="cls-45" transform="translate(730 190.2)"><tspan x="0" y="0">ANHA EM </tspan></text>
    <text class="cls-45" transform="translate(951.8 190.2)"><tspan x="0" y="0">2</tspan></text>
    <text class="cls-45" transform="translate(976.2 190.2)"><tspan x="0" y="0">0</tspan></text>
    <text class="cls-45" transform="translate(1004.2 190.2)"><tspan x="0" y="0">22</tspan></text>
  </g>
  <g class="cls-46">
    <text class="cls-22" transform="translate(187.6 1268.8)"><tspan x="0" y="0">C</tspan></text>
    <text class="cls-22" transform="translate(206.1 1268.8)"><tspan x="0" y="0">a</tspan></text>
    <text class="cls-22" transform="translate(221.5 1268.8)"><tspan x="0" y="0">da o</tspan></text>
    <text class="cls-8" transform="translate(277.6 1268.8)"><tspan x="0" y="0">r</tspan></text>
    <text class="cls-22" transform="translate(287.7 1268.8)"><tspan x="0" y="0">ganiz</tspan></text>
    <text class="cls-22" transform="translate(358.7 1268.8)"><tspan x="0" y="0">a</tspan></text>
    <text class="cls-22" transform="translate(374.1 1268.8)"><tspan x="0" y="0">ç</tspan></text>
    <text class="cls-22" transform="translate(388.7 1268.8)"><tspan x="0" y="0">ã</tspan></text>
    <text class="cls-22" transform="translate(404.1 1268.8)"><tspan x="0" y="0">o publica de </tspan></text>
    <text class="cls-22" transform="translate(570.9 1268.8)"><tspan x="0" y="0">f</tspan></text>
    <text class="cls-22" transform="translate(579.5 1268.8)"><tspan x="0" y="0">o</tspan></text>
    <text class="cls-22" transform="translate(595.8 1268.8)"><tspan x="0" y="0">r</tspan></text>
    <text class="cls-22" transform="translate(606 1268.8)"><tspan x="0" y="0">ma p</tspan></text>
    <text class="cls-8" transform="translate(673.4 1268.8)"><tspan x="0" y="0">r</tspan></text>
    <text class="cls-22" transform="translate(683.5 1268.8)"><tspan x="0" y="0">o</tspan></text>
    <text class="cls-22" transform="translate(699.7 1268.8)"><tspan x="0" y="0">ati</tspan></text>
    <text class="cls-7" transform="translate(732.6 1268.8)"><tspan x="0" y="0">v</tspan></text>
    <text class="cls-22" transform="translate(746.3 1268.8)"><tspan x="0" y="0">a essas im</tspan></text>
    <text class="cls-22" transform="translate(879 1268.8)"><tspan x="0" y="0">a</tspan></text>
    <text class="cls-22" transform="translate(894.4 1268.8)"><tspan x="0" y="0">gens em seu </tspan></text>
    <text class="cls-8" transform="translate(209.3 1304.8)"><tspan x="0" y="0">w</tspan></text>
    <text class="cls-22" transform="translate(231.8 1304.8)"><tspan x="0" y="0">ebsi</tspan></text>
    <text class="cls-7" transform="translate(284.8 1304.8)"><tspan x="0" y="0">t</tspan></text>
    <text class="cls-22" transform="translate(294.9 1304.8)"><tspan x="0" y="0">e. A pesquisa </tspan></text>
    <text class="cls-22" transform="translate(471.4 1304.8)"><tspan x="0" y="0">c</tspan></text>
    <text class="cls-22" transform="translate(485.8 1304.8)"><tspan x="0" y="0">om animais é </tspan></text>
    <text class="cls-8" transform="translate(668.4 1304.8)"><tspan x="0" y="0">r</tspan></text>
    <text class="cls-23" transform="translate(678.5 1304.8)"><tspan x="0" y="0">e</tspan></text>
    <text class="cls-22" transform="translate(693.8 1304.8)"><tspan x="0" y="0">aliz</tspan></text>
    <text class="cls-22" transform="translate(736.4 1304.8)"><tspan x="0" y="0">a</tspan></text>
    <text class="cls-22" transform="translate(751.8 1304.8)"><tspan x="0" y="0">da sob </tspan></text>
    <text class="cls-22" transform="translate(845 1304.8)"><tspan x="0" y="0">n</tspan></text>
    <text class="cls-22" transform="translate(862.7 1304.8)"><tspan x="0" y="0">o</tspan></text>
    <text class="cls-22" transform="translate(879 1304.8)"><tspan x="0" y="0">r</tspan></text>
    <text class="cls-22" transform="translate(889.2 1304.8)"><tspan x="0" y="0">mas </tspan></text>
    <text class="cls-22" transform="translate(951.6 1304.8)"><tspan x="0" y="0">r</tspan></text>
    <text class="cls-22" transform="translate(961.9 1304.8)"><tspan x="0" y="0">ígidas </tspan></text>
    <text class="cls-22" transform="translate(242.9 1340.8)"><tspan x="0" y="0">imple</tspan></text>
    <text class="cls-22" transform="translate(317.8 1340.8)"><tspan x="0" y="0">m</tspan></text>
    <text class="cls-22" transform="translate(345.4 1340.8)"><tspan x="0" y="0">ent</tspan></text>
    <text class="cls-22" transform="translate(389.3 1340.8)"><tspan x="0" y="0">a</tspan></text>
    <text class="cls-22" transform="translate(404.7 1340.8)"><tspan x="0" y="0">das pelo Minis</tspan></text>
    <text class="cls-7" transform="translate(589.8 1340.8)"><tspan x="0" y="0">t</tspan></text>
    <text class="cls-22" transform="translate(599.8 1340.8)"><tspan x="0" y="0">é</tspan></text>
    <text class="cls-22" transform="translate(615.5 1340.8)"><tspan x="0" y="0">r</tspan></text>
    <text class="cls-22" transform="translate(625.7 1340.8)"><tspan x="0" y="0">io do In</tspan></text>
    <text class="cls-7" transform="translate(722 1340.8)"><tspan x="0" y="0">t</tspan></text>
    <text class="cls-22" transform="translate(732.1 1340.8)"><tspan x="0" y="0">e</tspan></text>
    <text class="cls-22" transform="translate(747.8 1340.8)"><tspan x="0" y="0">r</tspan></text>
    <text class="cls-22" transform="translate(758 1340.8)"><tspan x="0" y="0">ior do Rei</tspan></text>
    <text class="cls-22" transform="translate(880.8 1340.8)"><tspan x="0" y="0">n</tspan></text>
    <text class="cls-22" transform="translate(898.4 1340.8)"><tspan x="0" y="0">o Unid</tspan></text>
    <text class="cls-23" transform="translate(984.4 1340.8)"><tspan x="0" y="0">o</tspan></text>
    <text class="cls-22" transform="translate(1000.3 1340.8)"><tspan x="0" y="0">.</tspan></text>
    <text class="cls-37" transform="translate(236.1 1376.8)"><tspan x="0" y="0">T</tspan></text>
    <text class="cls-22" transform="translate(249.6 1376.8)"><tspan x="0" y="0">odas as d</tspan></text>
    <text class="cls-22" transform="translate(370.9 1376.8)"><tspan x="0" y="0">e</tspan></text>
    <text class="cls-22" transform="translate(386.5 1376.8)"><tspan x="0" y="0">z o</tspan></text>
    <text class="cls-8" transform="translate(422.9 1376.8)"><tspan x="0" y="0">r</tspan></text>
    <text class="cls-22" transform="translate(433 1376.8)"><tspan x="0" y="0">ganiz</tspan></text>
    <text class="cls-22" transform="translate(504 1376.8)"><tspan x="0" y="0">a</tspan></text>
    <text class="cls-22" transform="translate(519.4 1376.8)"><tspan x="0" y="0">ç</tspan></text>
    <text class="cls-22" transform="translate(533.8 1376.8)"><tspan x="0" y="0">ões se </tspan></text>
    <text class="cls-22" transform="translate(620.6 1376.8)"><tspan x="0" y="0">c</tspan></text>
    <text class="cls-22" transform="translate(635 1376.8)"><tspan x="0" y="0">omp</tspan></text>
    <text class="cls-8" transform="translate(696.5 1376.8)"><tspan x="0" y="0">r</tspan></text>
    <text class="cls-22" transform="translate(706.6 1376.8)"><tspan x="0" y="0">o</tspan></text>
    <text class="cls-22" transform="translate(722.9 1376.8)"><tspan x="0" y="0">m</tspan></text>
    <text class="cls-22" transform="translate(750.6 1376.8)"><tspan x="0" y="0">e</tspan></text>
    <text class="cls-7" transform="translate(766.3 1376.8)"><tspan x="0" y="0">t</tspan></text>
    <text class="cls-22" transform="translate(776.3 1376.8)"><tspan x="0" y="0">em a man</tspan></text>
    <text class="cls-7" transform="translate(909.1 1376.8)"><tspan x="0" y="0">t</tspan></text>
    <text class="cls-22" transform="translate(919.2 1376.8)"><tspan x="0" y="0">er uma </tspan></text>
    <text class="cls-22" transform="translate(251.2 1412.8)"><tspan x="0" y="0">c</tspan></text>
    <text class="cls-22" transform="translate(265.6 1412.8)"><tspan x="0" y="0">omunic</tspan></text>
    <text class="cls-22" transform="translate(366.2 1412.8)"><tspan x="0" y="0">a</tspan></text>
    <text class="cls-22" transform="translate(381.6 1412.8)"><tspan x="0" y="0">ç</tspan></text>
    <text class="cls-22" transform="translate(396.3 1412.8)"><tspan x="0" y="0">ã</tspan></text>
    <text class="cls-22" transform="translate(411.6 1412.8)"><tspan x="0" y="0">o abe</tspan></text>
    <text class="cls-31" transform="translate(483.4 1412.8)"><tspan x="0" y="0">r</tspan></text>
    <text class="cls-22" transform="translate(494.2 1412.8)"><tspan x="0" y="0">ta a </tspan></text>
    <text class="cls-8" transform="translate(549.1 1412.8)"><tspan x="0" y="0">r</tspan></text>
    <text class="cls-22" transform="translate(559.2 1412.8)"><tspan x="0" y="0">espei</tspan></text>
    <text class="cls-7" transform="translate(627.9 1412.8)"><tspan x="0" y="0">t</tspan></text>
    <text class="cls-22" transform="translate(638 1412.8)"><tspan x="0" y="0">o de pesquisa </tspan></text>
    <text class="cls-22" transform="translate(824.3 1412.8)"><tspan x="0" y="0">c</tspan></text>
    <text class="cls-22" transform="translate(838.7 1412.8)"><tspan x="0" y="0">om animais.</tspan></text>
  </g>
  <rect class="cls-58" x="53.6" y="1045.6" width="565.5" height="59.3"/>
  <rect class="cls-52" x="53.6" y="1108" width="565.5" height="59.3"/>
  <rect class="cls-55" x="213.1" y="1045.9" width="2.8" height="121.9"/>
  <rect class="cls-55" x="294.8" y="1045.9" width="2.8" height="121.9"/>
  <rect class="cls-55" x="376.4" y="1045.9" width="2.8" height="121.9"/>
  <rect class="cls-55" x="448.8" y="1045.9" width="2.8" height="121.9"/>
  <rect class="cls-55" x="539.8" y="1045.9" width="2.8" height="121.9"/>
  <g class="cls-46">
    <text class="cls-44" transform="translate(53.6 1031.4)"><tspan x="0" y="0">ES</tspan></text>
    <text class="cls-6" transform="translate(78.1 1031.4)"><tspan x="0" y="0">P</tspan></text>
    <text class="cls-44" transform="translate(91.6 1031.4)"><tspan x="0" y="0">É</tspan></text>
    <text class="cls-44" transform="translate(104.1 1031.4)"><tspan x="0" y="0">CIES DE ANIMAIS USADOS</tspan></text>
  </g>
  <g class="cls-46">
    <text class="cls-2" transform="translate(72.3 1079.5)"><tspan x="0" y="0">C</tspan></text>
    <text class="cls-2" transform="translate(84.4 1079.5)"><tspan x="0" y="0">amu</tspan></text>
    <text class="cls-2" transform="translate(123.8 1079.5)"><tspan x="0" y="0">n</tspan></text>
    <text class="cls-2" transform="translate(135.4 1079.5)"><tspan x="0" y="0">do</tspan></text>
    <text class="cls-2" transform="translate(157.9 1079.5)"><tspan x="0" y="0">n</tspan></text>
    <text class="cls-2" transform="translate(169.5 1079.5)"><tspan x="0" y="0" xml:space="preserve">gos      </tspan></text>
    <text class="cls-21" transform="translate(228.5 1079.5)"><tspan x="0" y="0">P</tspan></text>
    <text class="cls-2" transform="translate(240.5 1079.5)"><tspan x="0" y="0">ei</tspan></text>
    <text class="cls-26" transform="translate(255.9 1079.5)"><tspan x="0" y="0">x</tspan></text>
    <text class="cls-2" transform="translate(265.2 1079.5)"><tspan x="0" y="0" xml:space="preserve">es      </tspan></text>
    <text class="cls-2" transform="translate(312.2 1079.5)"><tspan x="0" y="0">R</tspan></text>
    <text class="cls-2" transform="translate(324.4 1079.5)"><tspan x="0" y="0">a</tspan></text>
    <text class="cls-26" transform="translate(334.6 1079.5)"><tspan x="0" y="0">t</tspan></text>
    <text class="cls-2" transform="translate(341.5 1079.5)"><tspan x="0" y="0" xml:space="preserve">os       </tspan></text>
    <text class="cls-50" transform="translate(393.5 1079.5)"><tspan x="0" y="0">A</tspan></text>
    <text class="cls-21" transform="translate(405.6 1079.5)"><tspan x="0" y="0">v</tspan></text>
    <text class="cls-2" transform="translate(415.1 1079.5)"><tspan x="0" y="0" xml:space="preserve">es     M</tspan></text>
    <text class="cls-2" transform="translate(473.6 1079.5)"><tspan x="0" y="0">a</tspan></text>
    <text class="cls-2" transform="translate(483.8 1079.5)"><tspan x="0" y="0">c</tspan></text>
    <text class="cls-2" transform="translate(493.6 1079.5)"><tspan x="0" y="0">a</tspan></text>
    <text class="cls-2" transform="translate(503.9 1079.5)"><tspan x="0" y="0">c</tspan></text>
    <text class="cls-2" transform="translate(513.6 1079.5)"><tspan x="0" y="0" xml:space="preserve">os    Out</tspan></text>
    <text class="cls-2" transform="translate(584.4 1079.5)"><tspan x="0" y="0">r</tspan></text>
    <text class="cls-2" transform="translate(591.3 1079.5)"><tspan x="0" y="0">os</tspan></text>
  </g>
  <g class="cls-46">
    <text class="cls-28" transform="translate(108.4 1142.4)"><tspan x="0" y="0">83</tspan></text>
    <text class="cls-28" transform="translate(129.1 1142.4)"><tspan x="0" y="0">.</tspan></text>
    <text class="cls-28" transform="translate(133.4 1142.4)"><tspan x="0" y="0">8</tspan></text>
    <text class="cls-28" transform="translate(144.2 1142.4)"><tspan x="0" y="0" xml:space="preserve">%                13</tspan></text>
    <text class="cls-12" transform="translate(249.2 1142.4)"><tspan x="0" y="0">.</tspan></text>
    <text class="cls-35" transform="translate(253.5 1142.4)"><tspan x="0" y="0">8</tspan></text>
    <text class="cls-28" transform="translate(264.3 1142.4)"><tspan x="0" y="0" xml:space="preserve">%         1</tspan></text>
    <text class="cls-35" transform="translate(327 1142.4)"><tspan x="0" y="0">.</tspan></text>
    <text class="cls-32" transform="translate(330.9 1142.4)"><tspan x="0" y="0">6</tspan></text>
    <text class="cls-28" transform="translate(341.1 1142.4)"><tspan x="0" y="0" xml:space="preserve">%        </tspan></text>
    <text class="cls-47" transform="translate(392.7 1142.4)"><tspan x="0" y="0">0</tspan></text>
    <text class="cls-12" transform="translate(403.8 1142.4)"><tspan x="0" y="0">.</tspan></text>
    <text class="cls-28" transform="translate(408.1 1142.4)"><tspan x="0" y="0">3</tspan></text>
    <text class="cls-28" transform="translate(417.7 1142.4)"><tspan x="0" y="0" xml:space="preserve">%       </tspan></text>
    <text class="cls-47" transform="translate(464.7 1142.4)"><tspan x="0" y="0">0.</tspan></text>
    <text class="cls-28" transform="translate(479.7 1142.4)"><tspan x="0" y="0">0</tspan></text>
    <text class="cls-28" transform="translate(491.1 1142.4)"><tspan x="0" y="0">0</tspan></text>
    <text class="cls-28" transform="translate(502.3 1142.4)"><tspan x="0" y="0" xml:space="preserve">1%        </tspan></text>
    <text class="cls-47" transform="translate(560.3 1142.4)"><tspan x="0" y="0">0</tspan></text>
    <text class="cls-28" transform="translate(571.5 1142.4)"><tspan x="0" y="0">,</tspan></text>
    <text class="cls-5" transform="translate(575.5 1142.4)"><tspan x="0" y="0">4</tspan></text>
    <text class="cls-28" transform="translate(586.4 1142.4)"><tspan x="0" y="0">%</tspan></text>
  </g>
  <rect class="cls-54" x="660.9" y="1045.4" width="565.5" height="59.3"/>
  <rect class="cls-13" x="660.9" y="1107.8" width="565.5" height="59.3"/>
  <rect class="cls-55" x="792.3" y="1045.4" width="2.8" height="121.8"/>
  <rect class="cls-55" x="936.1" y="1045.4" width="2.8" height="121.8"/>
  <rect class="cls-55" x="1011.6" y="1045.4" width="2.8" height="121.8"/>
  <rect class="cls-55" x="1130.2" y="1045.4" width="2.8" height="121.8"/>
  <g class="cls-46">
    <text class="cls-1" transform="translate(660.9 1032.2)"><tspan x="0" y="0">S</tspan></text>
    <text class="cls-10" transform="translate(672.8 1032.2)"><tspan x="0" y="0">E</tspan></text>
    <text class="cls-10" transform="translate(685.2 1032.2)"><tspan x="0" y="0">V</tspan></text>
    <text class="cls-1" transform="translate(698.9 1032.2)"><tspan x="0" y="0">ERI</tspan></text>
    <text class="cls-1" transform="translate(731.3 1032.2)"><tspan x="0" y="0">D</tspan></text>
    <text class="cls-1" transform="translate(746.5 1032.2)"><tspan x="0" y="0">ADE DOS </tspan></text>
    <text class="cls-1" transform="translate(842.6 1032.2)"><tspan x="0" y="0">E</tspan></text>
    <text class="cls-24" transform="translate(855 1032.2)"><tspan x="0" y="0">X</tspan></text>
    <text class="cls-10" transform="translate(867.9 1032.2)"><tspan x="0" y="0">P</tspan></text>
    <text class="cls-1" transform="translate(881.4 1032.2)"><tspan x="0" y="0">ERIMEN</tspan></text>
    <text class="cls-1" transform="translate(959.4 1032.2)"><tspan x="0" y="0">T</tspan></text>
    <text class="cls-1" transform="translate(970.7 1032.2)"><tspan x="0" y="0">OS</tspan></text>
  </g>
  <g class="cls-46">
    <text class="cls-2" transform="translate(956.2 1080.1)"><tspan x="0" y="0">L</tspan></text>
    <text class="cls-2" transform="translate(966.2 1080.1)"><tspan x="0" y="0">e</tspan></text>
    <text class="cls-21" transform="translate(976.5 1080.1)"><tspan x="0" y="0">v</tspan></text>
    <text class="cls-2" transform="translate(986 1080.1)"><tspan x="0" y="0" xml:space="preserve">e       Mode</tspan></text>
    <text class="cls-2" transform="translate(1077.9 1080.1)"><tspan x="0" y="0">r</tspan></text>
    <text class="cls-2" transform="translate(1084.8 1080.1)"><tspan x="0" y="0">a</tspan></text>
    <text class="cls-2" transform="translate(1095.1 1080.1)"><tspan x="0" y="0" xml:space="preserve">do        G</tspan></text>
    <text class="cls-2" transform="translate(1167.7 1080.1)"><tspan x="0" y="0">r</tspan></text>
    <text class="cls-2" transform="translate(1174.6 1080.1)"><tspan x="0" y="0">a</tspan></text>
    <text class="cls-21" transform="translate(1184.7 1080.1)"><tspan x="0" y="0">v</tspan></text>
    <text class="cls-2" transform="translate(1194.1 1080.1)"><tspan x="0" y="0">e</tspan></text>
  </g>
  <g class="cls-46">
    <text class="cls-14" transform="translate(708.1 1143)"><tspan x="0" y="0">5</tspan></text>
    <text class="cls-14" transform="translate(717.9 1143)"><tspan x="0" y="0">5</tspan></text>
    <text class="cls-14" transform="translate(727.7 1143)"><tspan x="0" y="0">.</tspan></text>
    <text class="cls-14" transform="translate(732 1143)"><tspan x="0" y="0">3</tspan></text>
    <text class="cls-14" transform="translate(741.6 1143)"><tspan x="0" y="0" xml:space="preserve">%                    1</tspan></text>
    <text class="cls-14" transform="translate(855.4 1143)"><tspan x="0" y="0">.</tspan></text>
    <text class="cls-14" transform="translate(859.6 1143)"><tspan x="0" y="0">3</tspan></text>
    <text class="cls-14" transform="translate(869.3 1143)"><tspan x="0" y="0" xml:space="preserve">%               </tspan></text>
    <text class="cls-14" transform="translate(953.4 1143)"><tspan x="0" y="0">2</tspan></text>
    <text class="cls-14" transform="translate(963.1 1143)"><tspan x="0" y="0">6</tspan></text>
    <text class="cls-14" transform="translate(973.9 1143)"><tspan x="0" y="0">.</tspan></text>
    <text class="cls-14" transform="translate(978 1143)"><tspan x="0" y="0">5</tspan></text>
    <text class="cls-14" transform="translate(987.6 1143)"><tspan x="0" y="0" xml:space="preserve">%           15.</tspan></text>
    <text class="cls-14" transform="translate(1073.5 1143)"><tspan x="0" y="0">5</tspan></text>
    <text class="cls-14" transform="translate(1083.2 1143)"><tspan x="0" y="0" xml:space="preserve">%               1.</tspan></text>
    <text class="cls-14" transform="translate(1177.8 1143)"><tspan x="0" y="0">5</tspan></text>
    <text class="cls-14" transform="translate(1187.5 1143)"><tspan x="0" y="0">%</tspan></text>
  </g>
  <path class="cls-55" d="M707.3,1070.2h-5.9l-1.2,2.7h-2.2l5.3-11.8h2.2l5.3,11.8h-2.3l-1.2-2.7h0ZM706.6,1068.5l-2.2-5.2-2.2,5.2h4.4,0Z"/>
  <path class="cls-55" d="M721.7,1068.4c0,2.8-1.9,4.6-4.6,4.6s-2.3-.4-3-1.3v1.2h-2v-12.5h2.1v4.6c.7-.8,1.7-1.2,2.9-1.2,2.6,0,4.6,1.8,4.6,4.6h0ZM719.5,1068.4c0-1.7-1.1-2.8-2.7-2.8s-2.7,1.1-2.7,2.8,1.2,2.8,2.7,2.8,2.7-1.1,2.7-2.8Z"/>
  <path class="cls-55" d="M731.1,1067.6v5.3h-2v-1.1c-.5.8-1.5,1.2-2.8,1.2-2,0-3.3-1.1-3.3-2.7s1-2.7,3.7-2.7h2.3c0-1.4-.7-2.1-2.2-2.1s-2,.3-2.7.9l-.8-1.5c1-.7,2.4-1.1,3.8-1.1,2.6,0,4.1,1.2,4.1,3.8h0ZM729,1070.1v-1h-2.2c-1.4,0-1.8.5-1.8,1.2s.6,1.2,1.7,1.2,1.9-.5,2.3-1.4h0Z"/>
  <path class="cls-55" d="M733.5,1061.2c0-.7.6-1.3,1.3-1.3s1.3.5,1.3,1.2-.6,1.3-1.3,1.3-1.3-.6-1.3-1.3ZM733.8,1063.9h2.1v9h-2.1v-9Z"/>
  <path class="cls-55" d="M744.3,1072.9l-2.3-3.1-2.3,3.1h-2.3l3.5-4.6-3.3-4.4h2.3l2.2,2.9,2.2-2.9h2.3l-3.4,4.4,3.5,4.6h-2.4Z"/>
  <path class="cls-55" d="M747.2,1068.4c0-2.7,2-4.6,4.8-4.6s4.8,1.9,4.8,4.6-2,4.6-4.8,4.6-4.8-1.9-4.8-4.6ZM754.7,1068.4c0-1.7-1.1-2.8-2.7-2.8s-2.7,1.1-2.7,2.8,1.1,2.8,2.7,2.8,2.7-1.1,2.7-2.8Z"/>
  <path class="cls-55" d="M702,1077.2v12.5h-2v-1.2c-.7.9-1.8,1.3-3,1.3-2.6,0-4.5-1.8-4.5-4.6s1.9-4.6,4.5-4.6,2.2.4,2.9,1.2v-4.6h2.1ZM699.9,1085.2c0-1.7-1.2-2.8-2.7-2.8s-2.7,1.1-2.7,2.8,1.2,2.8,2.7,2.8,2.7-1.1,2.7-2.8Z"/>
  <path class="cls-55" d="M704,1085.2c0-2.7,2-4.6,4.8-4.6s4.8,1.9,4.8,4.6-2,4.6-4.8,4.6-4.8-1.9-4.8-4.6ZM711.4,1085.2c0-1.7-1.1-2.8-2.7-2.8s-2.7,1.1-2.7,2.8,1.1,2.8,2.7,2.8,2.7-1.1,2.7-2.8Z"/>
  <path class="cls-55" d="M720.2,1077.2h2.1v12.5h-2.1v-12.5Z"/>
  <path class="cls-55" d="M724.8,1078c0-.7.6-1.3,1.3-1.3s1.3.5,1.3,1.2-.6,1.3-1.3,1.3-1.3-.6-1.3-1.3ZM725.1,1080.8h2.1v9h-2.1v-9Z"/>
  <path class="cls-55" d="M745,1084.6v5.2h-2.1v-4.9c0-1.6-.7-2.4-2-2.4s-2.3.9-2.3,2.7v4.6h-2.1v-4.9c0-1.6-.7-2.4-2-2.4s-2.3.9-2.3,2.7v4.6h-2.1v-9h2v1.1c.7-.8,1.7-1.2,3-1.2s2.4.5,3,1.5c.7-.9,1.9-1.5,3.4-1.5,2.2,0,3.7,1.2,3.7,3.9h0Z"/>
  <path class="cls-55" d="M747.4,1078c0-.7.6-1.3,1.3-1.3s1.3.5,1.3,1.2-.6,1.3-1.3,1.3-1.3-.6-1.3-1.3ZM747.7,1080.8h2.1v9h-2.1v-9Z"/>
  <path class="cls-55" d="M757.9,1089.2c-.5.4-1.3.6-2,.6-2,0-3.1-1-3.1-3v-4.3h-1.5v-1.7h1.5v-2.1h2.1v2.1h2.4v1.7h-2.4v4.3c0,.9.4,1.3,1.2,1.3s.9-.1,1.2-.4l.6,1.5h0Z"/>
  <path class="cls-55" d="M767.8,1085.9h-7c.2,1.3,1.3,2.2,2.9,2.2s1.8-.3,2.4-1l1.1,1.3c-.8,1-2.1,1.5-3.6,1.5-3,0-5-1.9-5-4.6s2-4.6,4.7-4.6,4.5,1.8,4.5,4.7,0,.4,0,.6h0ZM760.7,1084.5h5.1c-.2-1.3-1.2-2.2-2.5-2.2s-2.4.9-2.6,2.2Z"/>
  <g class="cls-46">
    <text class="cls-2" transform="translate(845.3 1072.9)"><tspan x="0" y="0">Sem</tspan></text>
    <text class="cls-2" transform="translate(810.3 1089.7)"><tspan x="0" y="0">r</tspan></text>
    <text class="cls-2" transform="translate(817.2 1089.7)"><tspan x="0" y="0">ecupe</tspan></text>
    <text class="cls-2" transform="translate(870.9 1089.7)"><tspan x="0" y="0">r</tspan></text>
    <text class="cls-2" transform="translate(877.9 1089.7)"><tspan x="0" y="0">a</tspan></text>
    <text class="cls-2" transform="translate(888.2 1089.7)"><tspan x="0" y="0">ç</tspan></text>
    <text class="cls-2" transform="translate(898 1089.7)"><tspan x="0" y="0">ã</tspan></text>
    <text class="cls-2" transform="translate(908.2 1089.7)"><tspan x="0" y="0">o</tspan></text>
  </g>
  <circle class="cls-64" cx="529.2" cy="646.4" r="221.8"/>
  <path class="cls-62" d="M308.4,625.2l220.8,21.2-186.2-120.6c-18.9,29.2-31.2,63-34.6,99.5h0Z"/>
  <path class="cls-65" d="M340.8,529.2l188.4,117.1-111-192.1c-31.5,18.3-58.2,44.1-77.4,75h0Z"/>
  <path class="cls-67" d="M529.2,646.4l-21.2-220.8c-32.9,3.1-63.7,13.4-90.9,29.4l112.1,191.4h0Z"/>
  <path class="cls-59" d="M529.2,646.4l57.7-214.2c-18.4-4.9-37.7-7.6-57.7-7.6s-14.4.4-21.4,1l21.4,220.8h0Z"/>
  <path class="cls-68" d="M529.2,646.4l126.8-182c-21.3-14.9-45.4-26.1-71.2-32.8l-55.6,214.8Z"/>
  <path class="cls-63" d="M529.2,646.4l175.2-136c-14-18.1-30.8-33.9-49.7-46.9l-125.5,182.9Z"/>
  <path class="cls-61" d="M529.2,646.4l206.1-82.2c-8-19.9-18.7-38.4-31.8-55l-174.3,137.2h0Z"/>
  <path class="cls-56" d="M529.2,646.4l220.1-27.8c-2.4-19.2-7.2-37.6-14.2-54.9l-205.9,82.7h0Z"/>
  <path class="cls-57" d="M750.2,665.6c.5-6.3.8-12.8.8-19.3,0-9.2-.6-18.4-1.7-27.3l-220.2,27.3,221,19.3Z"/>
  <path class="cls-66" d="M745.1,697.3c2.4-10.3,4.1-20.9,5-31.7l-221-19.3,215.9,51Z"/>
  <g class="cls-69">
    <g>
      <polygon class="cls-43" points="660 968.4 517.2 951 178.2 984.9 113.4 939.2 104.7 732.6 660 757.8 660 968.4"/>
      <polyline class="cls-43" points="604 752.5 151.1 753.4 145.2 942.2 650.9 953.1 604 752.5"/>
    </g>
  </g>
  <g class="cls-70">
    <path class="cls-55" d="M283.8,783v24.6h-3.8l-13.6-16.7v16.7h-4.5v-24.6h3.8l13.6,16.7v-16.7h4.5Z"/>
    <path class="cls-55" d="M290.2,796.9v-13.9h4.6v13.7c0,5.1,2.3,7.2,6.2,7.2s6.2-2.2,6.2-7.2v-13.7h4.5v13.9c0,7.2-4,11.1-10.8,11.1s-10.8-3.9-10.8-11.1h0ZM302.8,776.2h5.2l-6.1,4.8h-3.8l4.7-4.8Z"/>
    <path class="cls-55" d="M340.7,807.6v-16.3s-8.1,13.5-8.1,13.5h-2l-8.1-13.3v16.1h-4.4v-24.6h3.8l9.8,16.3,9.6-16.3h3.8v24.6s-4.3,0-4.3,0h0Z"/>
    <path class="cls-55" d="M370.1,803.8v3.8h-18.4v-24.6h18v3.8h-13.4v6.4h11.9v3.8h-11.9v6.8h13.9,0Z"/>
    <path class="cls-55" d="M391.2,807.6l-5-7.2c-.3,0-.6,0-1,0h-5.5v7.2h-4.6v-24.6h10.1c6.5,0,10.5,3.3,10.5,8.8s-1.9,6.5-5.2,7.8l5.7,8.1h-4.9ZM385.1,786.9h-5.3v9.8h5.3c4,0,6.1-1.8,6.1-4.9s-2.1-4.9-6.1-4.9Z"/>
    <path class="cls-55" d="M399.1,795.3c0-7.3,5.6-12.7,13.2-12.7s13.2,5.3,13.2,12.7-5.6,12.7-13.2,12.7-13.2-5.4-13.2-12.7ZM421,795.3c0-5-3.7-8.6-8.6-8.6s-8.6,3.6-8.6,8.6,3.7,8.6,8.6,8.6,8.6-3.6,8.6-8.6Z"/>
    <path class="cls-55" d="M440.1,783h10.8c8,0,13.4,4.9,13.4,12.3s-5.5,12.3-13.4,12.3h-10.8v-24.6h0ZM450.6,803.8c5.5,0,9-3.3,9-8.4s-3.5-8.4-9-8.4h-6v16.9h6Z"/>
    <path class="cls-55" d="M487.5,803.8v3.8h-18.4v-24.6h18v3.8h-13.4v6.4h11.9v3.8h-11.9v6.8h13.9,0Z"/>
    <path class="cls-55" d="M238.9,835.7c0,5.4-4,8.8-10.5,8.8h-5.6v7.1h-4.6v-24.6h10.1c6.5,0,10.5,3.3,10.5,8.8h0ZM234.3,835.7c0-3.1-2.1-4.9-6.1-4.9h-5.3v9.8h5.3c4,0,6.1-1.8,6.1-4.9h0Z"/>
    <path class="cls-55" d="M259.5,851.5l-5-7.2c-.3,0-.6,0-.9,0h-5.6v7.2h-4.6v-24.6h10.1c6.5,0,10.5,3.3,10.5,8.8s-1.9,6.5-5.2,7.8l5.7,8.1h-4.9ZM253.4,830.8h-5.3v9.8h5.3c4,0,6.1-1.8,6.1-4.9s-2.1-4.9-6.1-4.9h0Z"/>
    <path class="cls-55" d="M267.4,839.2c0-7.3,5.6-12.7,13.2-12.7s13.2,5.3,13.2,12.7-5.6,12.7-13.2,12.7-13.2-5.4-13.2-12.7ZM289.3,839.2c0-5-3.7-8.6-8.6-8.6s-8.6,3.6-8.6,8.6,3.7,8.6,8.6,8.6,8.6-3.6,8.6-8.6Z"/>
    <path class="cls-55" d="M297,839.2c0-7.3,5.6-12.7,13.2-12.7s7.5,1.4,9.7,4.1l-3,2.8c-1.8-1.9-4-2.9-6.6-2.9-5.1,0-8.8,3.6-8.8,8.6s3.7,8.6,8.8,8.6,4.8-1,6.6-2.9l3,2.8c-2.3,2.7-5.7,4.1-9.8,4.1-7.5,0-13.1-5.3-13.1-12.7h0Z"/>
    <path class="cls-55" d="M342.7,847.7v3.8h-18.4v-24.6h18v3.8h-13.4v6.4h11.9v3.8h-11.9v6.8h13.9,0Z"/>
    <path class="cls-55" d="M347.8,826.9h10.8c8,0,13.4,4.9,13.4,12.3s-5.5,12.3-13.4,12.3h-10.8v-24.6h0ZM358.3,847.7c5.5,0,9-3.3,9-8.4s-3.5-8.4-9-8.4h-6v16.9h6Z"/>
    <path class="cls-55" d="M376.8,826.9h4.6v24.6h-4.6v-24.6Z"/>
    <path class="cls-55" d="M410.6,851.5v-16.3s-8.1,13.5-8.1,13.5h-2l-8.1-13.3v16.1h-4.4v-24.6h3.8l9.8,16.3,9.6-16.3h3.8v24.6s-4.3,0-4.3,0h0Z"/>
    <path class="cls-55" d="M440,847.7v3.8h-18.4v-24.6h18v3.8h-13.4v6.4h11.9v3.8h-11.9v6.8h13.9,0Z"/>
    <path class="cls-55" d="M466.9,826.9v24.6h-3.8l-13.6-16.7v16.7h-4.5v-24.6h3.8l13.6,16.7v-16.7h4.5Z"/>
    <path class="cls-55" d="M478.5,830.8h-8.1v-3.9h20.9v3.9h-8.1v20.7h-4.6v-20.7h0Z"/>
    <path class="cls-55" d="M492.5,839.2c0-7.3,5.6-12.7,13.2-12.7s13.2,5.3,13.2,12.7-5.6,12.7-13.2,12.7-13.2-5.4-13.2-12.7h0ZM514.4,839.2c0-5-3.7-8.6-8.6-8.6s-8.6,3.6-8.6,8.6,3.7,8.6,8.6,8.6,8.6-3.6,8.6-8.6Z"/>
    <path class="cls-55" d="M521.8,848.9l1.6-3.5c2,1.6,5.1,2.7,8.1,2.7s5.4-1.4,5.4-3.2c0-5.3-14.6-1.8-14.6-11s3.2-7.3,9.9-7.3,6,.8,8.2,2.2l-1.4,3.5c-2.2-1.3-4.6-1.9-6.8-1.9-3.8,0-5.3,1.5-5.3,3.3,0,5.2,14.6,1.8,14.6,10.8s-3.2,7.3-9.9,7.3-7.7-1.2-9.7-3h0Z"/>
    <path class="cls-55" d="M260,886c0,5.8-4,9.6-9.5,9.6s-4.5-.8-6-2.5v9.1h-4.4v-25.6h4.2v2.5c1.5-1.8,3.6-2.7,6.2-2.7,5.5,0,9.5,3.8,9.5,9.6ZM255.6,886c0-3.6-2.4-5.9-5.6-5.9s-5.6,2.3-5.6,5.9,2.4,5.9,5.6,5.9,5.6-2.3,5.6-5.9Z"/>
    <path class="cls-55" d="M262.7,886c0-5.6,4.2-9.6,10-9.6s10,4,10,9.6-4.2,9.6-10,9.6-10-4-10-9.6ZM278.2,886c0-3.6-2.4-5.9-5.6-5.9s-5.5,2.3-5.5,5.9,2.4,5.9,5.5,5.9,5.6-2.3,5.6-5.9Z"/>
    <path class="cls-55" d="M297.7,876.4v4.2c-.4,0-.7-.1-1-.1-3.3,0-5.4,2-5.4,5.8v9.1h-4.4v-18.8h4.2v2.7c1.3-2,3.5-3,6.7-3h0Z"/>
    <path class="cls-55" d="M309.8,886c0-5.6,4.2-9.6,10-9.6s10,4,10,9.6-4.2,9.6-10,9.6-10-4-10-9.6ZM325.3,886c0-3.6-2.4-5.9-5.6-5.9s-5.5,2.3-5.5,5.9,2.4,5.9,5.5,5.9,5.6-2.3,5.6-5.9Z"/>
    <path class="cls-55" d="M344.8,876.4v4.2c-.4,0-.7-.1-1-.1-3.3,0-5.4,2-5.4,5.8v9.1h-4.4v-18.8h4.2v2.7c1.3-2,3.5-3,6.7-3h0Z"/>
    <path class="cls-55" d="M367,876.7v15.9c0,6.8-3.5,9.9-10.1,9.9s-7-.9-9.1-2.7l2-3.3c1.6,1.4,4.3,2.2,6.9,2.2,4.1,0,6-1.9,6-5.7v-1c-1.5,1.7-3.8,2.5-6.3,2.5-5.4,0-9.5-3.7-9.5-9.1s4.1-9,9.5-9,5,.8,6.5,2.7v-2.5h4.2ZM362.7,885.5c0-3.2-2.4-5.3-5.7-5.3s-5.7,2.1-5.7,5.3,2.4,5.4,5.7,5.4,5.7-2.2,5.7-5.4Z"/>
    <path class="cls-55" d="M388.4,884.4v11h-4.1v-2.3c-1,1.6-3.1,2.5-5.9,2.5-4.3,0-7-2.3-7-5.6s2.1-5.6,7.8-5.6h4.9v-.3c0-2.6-1.5-4.1-4.7-4.1s-4.3.7-5.7,1.9l-1.7-3.2c2-1.5,4.9-2.3,7.9-2.3,5.4,0,8.5,2.6,8.5,8h0ZM384,889.5v-2.2h-4.5c-3,0-3.8,1.1-3.8,2.5s1.3,2.6,3.6,2.6,4-1,4.7-2.9h0Z"/>
    <path class="cls-55" d="M412.5,884.7v10.8h-4.4v-10.2c0-3.3-1.6-5-4.5-5s-5.2,1.9-5.2,5.7v9.5h-4.4v-18.8h4.2v2.4c1.4-1.7,3.7-2.6,6.5-2.6,4.5,0,7.8,2.6,7.8,8.2h0Z"/>
    <path class="cls-55" d="M417.5,870.9c0-1.5,1.2-2.6,2.8-2.6s2.8,1.1,2.8,2.5-1.2,2.7-2.8,2.7-2.8-1.2-2.8-2.6h0ZM418.1,876.7h4.4v18.8h-4.4v-18.8Z"/>
    <path class="cls-55" d="M442.9,891.9v3.5h-16.2v-2.8l10.3-12.5h-10.1v-3.5h15.7v2.8l-10.3,12.5h10.6,0Z"/>
    <path class="cls-55" d="M462.6,884.4v11h-4.1v-2.3c-1,1.6-3.1,2.5-5.9,2.5-4.3,0-7-2.3-7-5.6s2.1-5.6,7.8-5.6h4.9v-.3c0-2.6-1.5-4.1-4.7-4.1s-4.3.7-5.7,1.9l-1.7-3.2c2-1.5,4.9-2.3,7.9-2.3,5.4,0,8.5,2.6,8.5,8h0ZM458.2,889.5v-2.2h-4.5c-3,0-3.8,1.1-3.8,2.5s1.3,2.6,3.6,2.6,4-1,4.7-2.9h0Z"/>
    <path class="cls-55" d="M481.7,889.3l3.4,2c-1.4,2.7-4.2,4.3-7.7,4.4l-.4,1.5c2.1.2,3.1,1.4,3.1,3s-1.9,3.3-4.8,3.3-2.4-.2-3.2-.7l.8-2.1c.7.4,1.5.6,2.4.6,1.3,0,1.9-.5,1.9-1.3s-.5-1.2-1.9-1.2h-1.1l.9-3.3c-4.8-.8-8.1-4.5-8.1-9.5s4.2-9.6,10.1-9.6,6.6,1.5,8,4.4l-3.4,2c-1.1-1.8-2.8-2.6-4.7-2.6-3.2,0-5.7,2.2-5.7,5.9s2.5,5.9,5.7,5.9,3.5-.8,4.7-2.6h0Z"/>
    <path class="cls-55" d="M504.5,884.4v11h-4.1v-2.3c-1,1.6-3.1,2.5-5.9,2.5-4.3,0-7-2.3-7-5.6s2.1-5.6,7.8-5.6h4.9v-.3c0-2.6-1.5-4.1-4.7-4.1s-4.3.7-5.7,1.9l-1.7-3.2c2-1.5,4.9-2.3,7.9-2.3,5.4,0,8.5,2.6,8.5,8h0ZM492.4,873.9h-2.4c0-2.9,1.5-4.7,3.8-4.7s3.5,2.3,4.8,2.3,1.6-.7,1.7-2h2.4c0,2.7-1.5,4.6-3.8,4.6s-3.5-2.3-4.8-2.3-1.6.8-1.7,2.1h0ZM500.1,889.5v-2.2h-4.5c-3,0-3.8,1.1-3.8,2.5s1.3,2.6,3.6,2.6,4-1,4.7-2.9h0Z"/>
    <path class="cls-55" d="M508.8,886c0-5.6,4.2-9.6,10-9.6s10,4,10,9.6-4.2,9.6-10,9.6-10-4-10-9.6ZM524.3,886c0-3.6-2.4-5.9-5.6-5.9s-5.5,2.3-5.5,5.9,2.4,5.9,5.5,5.9,5.6-2.3,5.6-5.9Z"/>
  </g>
  <path class="cls-62" d="M153.5,550.9v-9.3h3.8v9.1c0,3.1,1.4,4.4,3.7,4.4s3.7-1.3,3.7-4.4v-9.1h3.8v9.3c0,4.9-2.8,7.6-7.5,7.6s-7.5-2.7-7.5-7.6h0Z"/>
  <path class="cls-62" d="M185,550.9v7.3h-3.7v-6.7c0-2.1-.9-3-2.6-3s-3.1,1.1-3.1,3.4v6.3h-3.7v-12.7h3.5v1.5c1-1.1,2.5-1.7,4.2-1.7,3,0,5.3,1.8,5.3,5.6h0Z"/>
  <path class="cls-62" d="M187.9,541.6c0-1.2.9-2.1,2.3-2.1s2.3.8,2.3,2-.9,2.1-2.3,2.1-2.3-.9-2.3-2.1ZM188.3,545.4h3.7v12.7h-3.7v-12.7Z"/>
  <path class="cls-62" d="M208.1,545.4l-5.4,12.7h-3.8l-5.3-12.7h3.8l3.5,8.7,3.6-8.7h3.5Z"/>
  <path class="cls-62" d="M221.6,552.8h-9.6c.4,1.6,1.7,2.5,3.6,2.5s2.3-.4,3.2-1.2l2,2.1c-1.2,1.3-2.9,2.1-5.2,2.1-4.4,0-7.3-2.8-7.3-6.5s2.9-6.5,6.8-6.5,6.6,2.5,6.6,6.6,0,.7,0,1h0ZM211.9,550.7h6.3c-.3-1.6-1.5-2.7-3.1-2.7s-2.9,1-3.1,2.7Z"/>
  <path class="cls-62" d="M232,545.2v3.4c-.3,0-.5,0-.8,0-2,0-3.4,1.1-3.4,3.5v6h-3.7v-12.7h3.5v1.7c.9-1.2,2.4-1.9,4.4-1.9h0Z"/>
  <path class="cls-62" d="M233,557l1.2-2.7c1.1.7,2.9,1.2,4.4,1.2s2.3-.5,2.3-1.2c0-2.1-7.7,0-7.7-5s2.2-4.1,5.9-4.1,3.7.4,4.9,1.1l-1.2,2.6c-1.2-.7-2.5-1-3.7-1-1.6,0-2.4.5-2.4,1.2,0,2.2,7.7,0,7.7,5.1s-2.2,4-6,4-4.3-.6-5.5-1.4h0Z"/>
  <path class="cls-62" d="M246.4,541.6c0-1.2.9-2.1,2.3-2.1s2.3.8,2.3,2-.9,2.1-2.3,2.1-2.3-.9-2.3-2.1ZM246.8,545.4h3.7v12.7h-3.7v-12.7Z"/>
  <path class="cls-62" d="M266.9,540.6v17.5h-3.5v-1.5c-.9,1.1-2.3,1.7-4,1.7-3.6,0-6.4-2.5-6.4-6.5s2.8-6.5,6.4-6.5,2.9.5,3.8,1.5v-6.2h3.7ZM263.3,551.8c0-2.2-1.4-3.5-3.2-3.5s-3.3,1.3-3.3,3.5,1.4,3.5,3.3,3.5,3.2-1.3,3.2-3.5Z"/>
  <path class="cls-62" d="M281.5,550.9v7.3h-3.5v-1.6c-.7,1.2-2,1.8-3.9,1.8-3,0-4.8-1.7-4.8-3.8s1.6-3.8,5.5-3.8h2.9c0-1.6-1-2.5-2.9-2.5s-2.7.5-3.7,1.2l-1.3-2.6c1.4-1,3.5-1.5,5.5-1.5,3.9,0,6.1,1.8,6.1,5.7h0ZM277.9,554.1v-1.3h-2.5c-1.7,0-2.3.6-2.3,1.5s.8,1.5,2.1,1.5,2.3-.6,2.7-1.7Z"/>
  <path class="cls-62" d="M298,540.6v17.5h-3.5v-1.5c-.9,1.1-2.3,1.7-4,1.7-3.6,0-6.4-2.5-6.4-6.5s2.8-6.5,6.4-6.5,2.9.5,3.8,1.5v-6.2h3.7ZM294.4,551.8c0-2.2-1.4-3.5-3.2-3.5s-3.3,1.3-3.3,3.5,1.4,3.5,3.3,3.5,3.2-1.3,3.2-3.5Z"/>
  <path class="cls-62" d="M313.8,552.8h-9.6c.4,1.6,1.7,2.5,3.6,2.5s2.3-.4,3.2-1.2l2,2.1c-1.2,1.3-3,2.1-5.2,2.1-4.4,0-7.3-2.8-7.3-6.5s2.9-6.5,6.8-6.5,6.6,2.5,6.6,6.6,0,.7,0,1h0ZM304.1,550.7h6.3c-.3-1.6-1.5-2.7-3.1-2.7s-2.9,1-3.1,2.7Z"/>
  <path class="cls-62" d="M189.9,562.9v17.5h-3.5v-1.5c-.9,1.1-2.3,1.7-4,1.7-3.6,0-6.4-2.5-6.4-6.5s2.8-6.5,6.4-6.5,2.9.5,3.8,1.5v-6.2h3.7ZM186.3,574.1c0-2.2-1.4-3.5-3.2-3.5s-3.3,1.3-3.3,3.5,1.4,3.5,3.3,3.5,3.2-1.3,3.2-3.5Z"/>
  <path class="cls-62" d="M205.7,575.2h-9.6c.4,1.6,1.7,2.5,3.6,2.5s2.3-.4,3.2-1.2l2,2.1c-1.2,1.3-2.9,2.1-5.2,2.1-4.4,0-7.3-2.8-7.3-6.5s2.9-6.5,6.8-6.5,6.6,2.5,6.6,6.6,0,.7,0,1h0ZM196.1,573h6.3c-.3-1.6-1.5-2.7-3.1-2.7s-2.9,1-3.1,2.7Z"/>
  <path class="cls-62" d="M214.2,572.2c0-4.9,3.8-8.6,9.1-8.6s9.1,3.6,9.1,8.6-3.9,8.6-9.1,8.6-9.1-3.6-9.1-8.6ZM228.4,572.2c0-3.1-2.2-5.3-5.2-5.3s-5.2,2.2-5.2,5.3,2.2,5.3,5.2,5.3,5.2-2.2,5.2-5.3Z"/>
  <path class="cls-62" d="M242.6,580.5l-2.8-3.9-2.9,3.9h-4l4.9-6.4-4.7-6.3h4.1l2.7,3.7,2.8-3.7h3.9l-4.7,6.2,4.9,6.5h-4.2Z"/>
  <path class="cls-62" d="M252.6,568h3.3v2.8h-3.2v9.6h-3.7v-9.6h-2v-2.8h2v-.6c0-2.9,1.8-4.7,4.9-4.7s2.1.2,2.8.7l-1,2.7c-.4-.3-.9-.5-1.5-.5-1.1,0-1.7.6-1.7,1.8v.5h0Z"/>
  <path class="cls-62" d="M256.6,574.1c0-3.8,3-6.5,7-6.5s7,2.7,7,6.5-2.9,6.5-7,6.5-7-2.7-7-6.5ZM266.8,574.1c0-2.2-1.4-3.5-3.2-3.5s-3.3,1.3-3.3,3.5,1.4,3.5,3.3,3.5,3.2-1.3,3.2-3.5Z"/>
  <path class="cls-62" d="M280.9,567.6v3.4c-.3,0-.5,0-.8,0-2,0-3.4,1.1-3.4,3.5v6h-3.7v-12.7h3.5v1.7c.9-1.2,2.4-1.9,4.4-1.9h0Z"/>
  <path class="cls-62" d="M296,562.9v17.5h-3.5v-1.5c-.9,1.1-2.3,1.7-4,1.7-3.6,0-6.4-2.5-6.4-6.5s2.8-6.5,6.4-6.5,2.9.5,3.8,1.5v-6.2h3.7ZM292.3,574.1c0-2.2-1.4-3.5-3.2-3.5s-3.3,1.3-3.3,3.5,1.4,3.5,3.3,3.5,3.2-1.3,3.2-3.5Z"/>
  <path class="cls-62" d="M201.6,605.9v2.6h-12.2v-2.1l6.6-6.2c1.6-1.5,1.9-2.5,1.9-3.4,0-1.5-1-2.4-3.1-2.4s-2.9.5-3.9,1.7l-2.1-1.7c1.3-1.7,3.6-2.7,6.3-2.7s5.9,1.8,5.9,4.8-.4,3.1-2.7,5.2l-4.4,4.2h7.8Z"/>
  <path class="cls-62" d="M203.3,600.2c0-5.4,3-8.5,6.9-8.5s6.9,3.1,6.9,8.5-3,8.5-6.9,8.5-6.9-3.1-6.9-8.5ZM214,600.2c0-4-1.6-5.8-3.8-5.8s-3.8,1.8-3.8,5.8,1.6,5.8,3.8,5.8,3.8-1.8,3.8-5.8Z"/>
  <path class="cls-62" d="M231.9,599.9c0,5.7-3.3,8.8-8.1,8.8s-3.2-.3-4.4-1.1l1.1-2.3c.9.6,2,.8,3.1.8,3.1,0,5.1-1.9,5.1-5.7h0c-1,1.1-2.6,1.7-4.4,1.7-3.3,0-5.7-2-5.7-5.1s2.7-5.4,6.1-5.4,7.2,2.9,7.2,8.2h0ZM228.4,596.9c0-1.6-1.2-2.8-3.4-2.8s-3.2,1.1-3.2,2.8,1.3,2.8,3.3,2.8,3.4-1.2,3.4-2.8h0Z"/>
  <path class="cls-62" d="M237.5,606.7c0,.5-.1,1-.5,2l-1.2,3.3h-1.9l.9-3.6c-.7-.3-1.1-.9-1.1-1.8s.8-2,1.9-2,1.9.8,1.9,2h0Z"/>
  <path class="cls-62" d="M251.5,603.4c0,2.9-2.1,5.3-6.6,5.3s-4.7-.7-6.2-1.9l1.3-2.4c1.2,1,3,1.6,4.9,1.6s3.5-1,3.5-2.5-1-2.6-4.4-2.6h-4l.9-9h9.7v2.6h-7.1l-.4,3.8h1.6c4.9,0,6.9,2.1,6.9,5.1h0Z"/>
  <path class="cls-62" d="M268.1,604.7h-2.9v3.8h-3v-3.8h-9.1v-2.1l8.2-10.7h3.3l-7.7,10.2h5.4v-3.3h2.9v3.3h2.9v2.6h0Z"/>
  <path class="cls-62" d="M284.1,604.7h-2.9v3.8h-3v-3.8h-9.1v-2.1l8.1-10.7h3.3l-7.7,10.2h5.4v-3.3h2.9v3.3h2.9v2.6h0Z"/>
  <path class="cls-65" d="M188.8,447.9v-9.3h3.8v9.1c0,3.1,1.4,4.4,3.7,4.4s3.7-1.3,3.7-4.4v-9.1h3.8v9.3c0,4.9-2.8,7.6-7.5,7.6s-7.5-2.7-7.5-7.6h0Z"/>
  <path class="cls-65" d="M220.3,447.9v7.3h-3.7v-6.7c0-2.1-.9-3-2.6-3s-3.1,1.1-3.1,3.4v6.3h-3.7v-12.7h3.5v1.5c1-1.1,2.5-1.7,4.2-1.7,3,0,5.3,1.8,5.3,5.6h0Z"/>
  <path class="cls-65" d="M223.1,438.6c0-1.2.9-2.1,2.3-2.1s2.3.9,2.3,2-.9,2.1-2.3,2.1-2.3-.9-2.3-2.1ZM223.6,442.5h3.7v12.7h-3.7v-12.7Z"/>
  <path class="cls-65" d="M243.3,442.5l-5.4,12.7h-3.8l-5.3-12.7h3.8l3.5,8.6,3.6-8.6h3.5Z"/>
  <path class="cls-65" d="M256.9,449.9h-9.6c.4,1.6,1.7,2.5,3.6,2.5s2.3-.4,3.2-1.2l2,2.1c-1.2,1.4-2.9,2.1-5.2,2.1-4.4,0-7.3-2.8-7.3-6.5s2.9-6.5,6.8-6.5,6.6,2.5,6.6,6.6,0,.7,0,1h0ZM247.2,447.7h6.3c-.3-1.6-1.5-2.6-3.1-2.6s-2.9,1-3.1,2.6Z"/>
  <path class="cls-65" d="M267.3,442.3v3.4c-.3,0-.5,0-.8,0-2,0-3.4,1.1-3.4,3.5v6h-3.7v-12.7h3.5v1.7c.9-1.2,2.4-1.9,4.4-1.9h0Z"/>
  <path class="cls-65" d="M268.3,454l1.2-2.6c1.1.7,2.9,1.2,4.4,1.2s2.3-.5,2.3-1.2c0-2.1-7.7,0-7.7-5s2.2-4.1,5.9-4.1,3.7.4,4.9,1.1l-1.2,2.6c-1.2-.7-2.5-1-3.7-1-1.6,0-2.4.5-2.4,1.2,0,2.2,7.7,0,7.7,5.1s-2.2,4-6,4-4.3-.6-5.5-1.4h0Z"/>
  <path class="cls-65" d="M281.6,438.6c0-1.2.9-2.1,2.3-2.1s2.3.9,2.3,2-.9,2.1-2.3,2.1-2.3-.9-2.3-2.1ZM282.1,442.5h3.7v12.7h-3.7v-12.7Z"/>
  <path class="cls-65" d="M302.2,437.6v17.5h-3.5v-1.5c-.9,1.1-2.3,1.7-4,1.7-3.6,0-6.4-2.5-6.4-6.5s2.8-6.5,6.4-6.5,2.9.5,3.8,1.5v-6.2h3.7ZM298.5,448.8c0-2.2-1.4-3.5-3.2-3.5s-3.3,1.3-3.3,3.5,1.4,3.5,3.3,3.5,3.2-1.3,3.2-3.5Z"/>
  <path class="cls-65" d="M316.8,447.9v7.3h-3.5v-1.6c-.7,1.2-2,1.8-3.9,1.8-3,0-4.8-1.7-4.8-3.9s1.6-3.8,5.5-3.8h2.9c0-1.6-1-2.5-2.9-2.5s-2.7.5-3.7,1.2l-1.3-2.6c1.4-1,3.5-1.5,5.5-1.5,3.9,0,6.1,1.8,6.1,5.6h0ZM313.1,451.2v-1.3h-2.5c-1.7,0-2.3.6-2.3,1.5s.8,1.5,2.1,1.5,2.3-.6,2.7-1.7Z"/>
  <path class="cls-65" d="M333.2,437.6v17.5h-3.5v-1.5c-.9,1.1-2.3,1.7-4,1.7-3.6,0-6.4-2.5-6.4-6.5s2.8-6.5,6.4-6.5,2.9.5,3.8,1.5v-6.2h3.7ZM329.6,448.8c0-2.2-1.4-3.5-3.2-3.5s-3.3,1.3-3.3,3.5,1.4,3.5,3.3,3.5,3.2-1.3,3.2-3.5Z"/>
  <path class="cls-65" d="M349,449.9h-9.6c.4,1.6,1.7,2.5,3.6,2.5s2.3-.4,3.2-1.2l2,2.1c-1.2,1.4-3,2.1-5.2,2.1-4.4,0-7.3-2.8-7.3-6.5s2.9-6.5,6.8-6.5,6.6,2.5,6.6,6.6,0,.7,0,1h0ZM339.4,447.7h6.3c-.3-1.6-1.5-2.6-3.1-2.6s-2.9,1-3.1,2.6Z"/>
  <path class="cls-65" d="M198.4,460v17.5h-3.5v-1.5c-.9,1.1-2.3,1.7-4,1.7-3.6,0-6.4-2.5-6.4-6.5s2.8-6.5,6.4-6.5,2.9.5,3.8,1.5v-6.2h3.7ZM194.8,471.1c0-2.2-1.4-3.5-3.2-3.5s-3.3,1.3-3.3,3.5,1.4,3.5,3.3,3.5,3.2-1.3,3.2-3.5Z"/>
  <path class="cls-65" d="M214.2,472.2h-9.6c.4,1.6,1.7,2.5,3.6,2.5s2.3-.4,3.2-1.2l2,2.1c-1.2,1.4-2.9,2.1-5.2,2.1-4.4,0-7.3-2.8-7.3-6.5s2.9-6.5,6.8-6.5,6.6,2.5,6.6,6.6,0,.7,0,1h0ZM204.6,470h6.3c-.3-1.6-1.5-2.6-3.1-2.6s-2.9,1-3.1,2.6Z"/>
  <path class="cls-65" d="M222.7,469.2c0-5,3.8-8.6,9-8.6s5.2,1,6.8,2.9l-2.5,2.3c-1.1-1.3-2.5-1.9-4.2-1.9-3.1,0-5.3,2.2-5.3,5.3s2.2,5.3,5.3,5.3,3.1-.7,4.2-2l2.5,2.3c-1.6,1.9-3.9,3-6.8,3-5.1,0-9-3.6-9-8.6h0Z"/>
  <path class="cls-65" d="M251.9,470.2v7.3h-3.4v-1.6c-.7,1.2-2,1.8-3.9,1.8-3,0-4.8-1.7-4.8-3.9s1.6-3.8,5.5-3.8h2.9c0-1.6-.9-2.5-2.9-2.5s-2.7.5-3.7,1.2l-1.3-2.6c1.4-1,3.4-1.5,5.5-1.5,3.9,0,6.1,1.8,6.1,5.6h0ZM248.2,473.5v-1.3h-2.5c-1.7,0-2.3.6-2.3,1.5s.8,1.5,2.1,1.5,2.3-.6,2.7-1.7Z"/>
  <path class="cls-65" d="M276.8,470.2v7.3h-3.7v-6.7c0-2.1-.9-3-2.4-3s-2.8,1.1-2.8,3.3v6.4h-3.7v-6.7c0-2.1-.9-3-2.4-3s-2.8,1.1-2.8,3.3v6.4h-3.7v-12.7h3.5v1.5c1-1.1,2.4-1.6,4-1.6s3.3.7,4.2,2.1c1-1.3,2.7-2.1,4.6-2.1,3,0,5.2,1.8,5.2,5.6h0Z"/>
  <path class="cls-65" d="M293.9,471.1c0,4-2.8,6.5-6.3,6.5s-3.1-.5-4-1.7v1.5h-3.5v-17.5h3.7v6.2c1-1,2.2-1.5,3.8-1.5,3.6,0,6.3,2.5,6.3,6.5h0ZM290.2,471.1c0-2.2-1.4-3.5-3.2-3.5s-3.2,1.3-3.2,3.5,1.4,3.5,3.2,3.5,3.2-1.3,3.2-3.5Z"/>
  <path class="cls-65" d="M304.3,464.6v3.4c-.3,0-.5,0-.8,0-2,0-3.4,1.1-3.4,3.5v6h-3.7v-12.7h3.5v1.7c.9-1.2,2.4-1.9,4.4-1.9h0Z"/>
  <path class="cls-65" d="M306,461c0-1.2.9-2.1,2.3-2.1s2.3.9,2.3,2-.9,2.1-2.3,2.1-2.3-.9-2.3-2.1ZM306.5,464.8h3.7v12.7h-3.7v-12.7Z"/>
  <path class="cls-65" d="M326.5,460v17.5h-3.5v-1.5c-.9,1.1-2.3,1.7-4,1.7-3.6,0-6.4-2.5-6.4-6.5s2.8-6.5,6.4-6.5,2.9.5,3.8,1.5v-6.2h3.7ZM322.9,471.1c0-2.2-1.4-3.5-3.2-3.5s-3.3,1.3-3.3,3.5,1.4,3.5,3.3,3.5,3.2-1.3,3.2-3.5Z"/>
  <path class="cls-65" d="M343,464.8v10.6c0,4.7-2.5,6.9-7.1,6.9s-4.8-.6-6.2-1.8l1.5-2.6c1.1.9,2.9,1.4,4.5,1.4,2.6,0,3.7-1.2,3.7-3.5v-.5c-1,1.1-2.4,1.6-4,1.6-3.5,0-6.4-2.4-6.4-6.1s2.8-6.1,6.4-6.1,3.2.6,4.2,1.8v-1.6h3.5ZM339.4,470.8c0-1.9-1.4-3.1-3.3-3.1s-3.4,1.2-3.4,3.1,1.4,3.1,3.4,3.1,3.3-1.2,3.3-3.1Z"/>
  <path class="cls-65" d="M358.9,472.2h-9.6c.4,1.6,1.7,2.5,3.6,2.5s2.3-.4,3.2-1.2l2,2.1c-1.2,1.4-3,2.1-5.2,2.1-4.4,0-7.3-2.8-7.3-6.5s2.9-6.5,6.8-6.5,6.6,2.5,6.6,6.6,0,.7,0,1h0ZM349.2,470h6.3c-.3-1.6-1.5-2.6-3.1-2.6s-2.9,1-3.1,2.6Z"/>
  <path class="cls-65" d="M237.9,502.9v2.6h-12.2v-2.1l6.6-6.2c1.6-1.5,1.9-2.5,1.9-3.4,0-1.5-1-2.4-3.1-2.4s-2.9.5-3.9,1.7l-2.1-1.7c1.3-1.7,3.6-2.7,6.3-2.7s5.9,1.8,5.9,4.8-.4,3.1-2.7,5.2l-4.4,4.2h7.8Z"/>
  <path class="cls-65" d="M239.6,497.2c0-5.4,3-8.5,6.9-8.5s6.9,3.1,6.9,8.5-3,8.5-6.9,8.5-6.9-3.1-6.9-8.5ZM250.4,497.2c0-4-1.6-5.8-3.8-5.8s-3.8,1.8-3.8,5.8,1.6,5.8,3.8,5.8,3.8-1.8,3.8-5.8Z"/>
  <path class="cls-65" d="M268.7,500.4c0,3.3-2.7,5.4-6,5.4s-7.2-2.9-7.2-8.2,3.3-8.8,8.1-8.8,3.2.4,4.4,1.1l-1.1,2.3c-.9-.6-2-.8-3.1-.8-3.1,0-5.1,1.9-5.1,5.7h0c1-1.1,2.6-1.7,4.4-1.7,3.3,0,5.7,2,5.7,5.1h0ZM265.8,500.5c0-1.7-1.3-2.8-3.3-2.8s-3.4,1.2-3.4,2.8,1.2,2.8,3.4,2.8,3.2-1.1,3.2-2.8h0Z"/>
  <path class="cls-65" d="M274.4,503.7c0,.5-.1,1-.5,2l-1.2,3.3h-1.9l1-3.6c-.7-.3-1.1-.9-1.1-1.8s.8-2,1.9-2,1.9.8,1.9,2h0Z"/>
  <path class="cls-65" d="M289.1,497c0,5.7-3.3,8.8-8.1,8.8s-3.2-.4-4.4-1.1l1.1-2.3c.9.6,2,.8,3.1.8,3.1,0,5.1-1.9,5.1-5.7h0c-1,1.1-2.6,1.7-4.4,1.7-3.3,0-5.7-2-5.7-5.1s2.7-5.4,6-5.4,7.2,2.9,7.2,8.2h0ZM285.5,493.9c0-1.6-1.2-2.8-3.4-2.8s-3.2,1.1-3.2,2.8,1.3,2.8,3.3,2.8,3.4-1.2,3.4-2.8h0Z"/>
  <path class="cls-65" d="M303.9,497c0,5.7-3.3,8.8-8.1,8.8s-3.2-.4-4.4-1.1l1.1-2.3c.9.6,2,.8,3.1.8,3.1,0,5.1-1.9,5.1-5.7h0c-1,1.1-2.6,1.7-4.4,1.7-3.3,0-5.7-2-5.7-5.1s2.7-5.4,6-5.4,7.2,2.9,7.2,8.2h0ZM300.4,493.9c0-1.6-1.2-2.8-3.4-2.8s-3.2,1.1-3.2,2.8,1.3,2.8,3.3,2.8,3.4-1.2,3.4-2.8h0Z"/>
  <path class="cls-65" d="M317.9,502.9v2.6h-12.2v-2.1l6.6-6.2c1.6-1.5,1.9-2.5,1.9-3.4,0-1.5-1-2.4-3.1-2.4s-3,.5-3.9,1.7l-2.1-1.7c1.3-1.7,3.6-2.7,6.3-2.7s5.9,1.8,5.9,4.8-.5,3.1-2.7,5.2l-4.4,4.2h7.8Z"/>
  <path class="cls-67" d="M336.5,358.7h3.8v16.5h-3.8v-16.5Z"/>
  <path class="cls-67" d="M357,368v7.3h-3.7v-6.7c0-2.1-1-3-2.6-3s-3,1.1-3,3.4v6.3h-3.7v-12.7h3.5v1.5c1-1.1,2.5-1.7,4.2-1.7,3,0,5.3,1.8,5.3,5.6h0Z"/>
  <path class="cls-67" d="M359.1,374.1l1.2-2.6c1.1.7,2.9,1.2,4.4,1.2s2.3-.5,2.3-1.2c0-2.1-7.7,0-7.7-5s2.2-4.1,5.9-4.1,3.7.4,4.9,1.1l-1.2,2.6c-1.2-.7-2.5-1-3.7-1-1.6,0-2.4.5-2.4,1.2,0,2.2,7.7,0,7.7,5.1s-2.2,4-6,4-4.3-.6-5.5-1.4h0Z"/>
  <path class="cls-67" d="M381.1,374.7c-.8.5-1.9.8-3,.8-3,0-4.8-1.5-4.8-4.6v-5.2h-2v-2.8h2v-3.1h3.7v3.1h3.2v2.8h-3.2v5.2c0,1.1.6,1.7,1.6,1.7s1.1-.2,1.5-.5l1,2.6h0Z"/>
  <path class="cls-67" d="M382.8,358.7c0-1.2.9-2.1,2.3-2.1s2.3.9,2.3,2-.9,2.1-2.3,2.1-2.3-.9-2.3-2.1ZM383.2,362.6h3.7v12.7h-3.7v-12.7Z"/>
  <path class="cls-67" d="M398.5,374.7c-.8.5-1.9.8-3,.8-3,0-4.8-1.5-4.8-4.6v-5.2h-2v-2.8h2v-3.1h3.7v3.1h3.2v2.8h-3.2v5.2c0,1.1.6,1.7,1.6,1.7s1.1-.2,1.5-.5l1,2.6h0Z"/>
  <path class="cls-67" d="M413.4,362.6v12.7h-3.5v-1.5c-1,1.1-2.4,1.7-4,1.7-3.2,0-5.4-1.8-5.4-5.7v-7.2h3.7v6.6c0,2.1,1,3.1,2.6,3.1s2.9-1.1,2.9-3.4v-6.3h3.7Z"/>
  <path class="cls-67" d="M425,374.7c-.8.5-1.9.8-3,.8-3,0-4.8-1.5-4.8-4.6v-5.2h-2v-2.8h2v-3.1h3.7v3.1h3.2v2.8h-3.2v5.2c0,1.1.6,1.7,1.6,1.7s1.1-.2,1.5-.5l1,2.6h0Z"/>
  <path class="cls-67" d="M425.8,368.9c0-3.8,3-6.5,7-6.5s7,2.7,7,6.5-2.9,6.5-7,6.5-7-2.7-7-6.5ZM436,368.9c0-2.2-1.4-3.5-3.2-3.5s-3.3,1.3-3.3,3.5,1.4,3.5,3.3,3.5,3.2-1.3,3.2-3.5Z"/>
  <path class="cls-67" d="M316.5,384.1v4.4h7.7v3.1h-7.7v6h-3.8v-16.5h12.5v3.1h-8.7Z"/>
  <path class="cls-67" d="M335.2,384.7v3.4c-.3,0-.5,0-.8,0-2,0-3.4,1.1-3.4,3.5v6h-3.7v-12.7h3.5v1.7c.9-1.2,2.4-1.9,4.4-1.9h0Z"/>
  <path class="cls-67" d="M348.6,390.4v7.3h-3.5v-1.6c-.7,1.2-2,1.8-3.9,1.8-3,0-4.8-1.7-4.8-3.9s1.6-3.8,5.5-3.8h2.9c0-1.6-1-2.5-2.9-2.5s-2.7.5-3.7,1.2l-1.3-2.6c1.4-1,3.5-1.5,5.5-1.5,3.9,0,6.1,1.8,6.1,5.6h0ZM344.9,393.6v-1.3h-2.5c-1.7,0-2.3.6-2.3,1.5s.8,1.5,2.1,1.5,2.3-.6,2.7-1.7Z"/>
  <path class="cls-67" d="M364.9,390.3v7.3h-3.7v-6.7c0-2.1-1-3-2.6-3s-3,1.1-3,3.4v6.3h-3.7v-12.7h3.5v1.5c1-1.1,2.5-1.7,4.2-1.7,3,0,5.3,1.8,5.3,5.6h0Z"/>
  <path class="cls-67" d="M367.5,391.2c0-3.8,3-6.5,7.1-6.5s4.8,1.2,5.7,3.2l-2.9,1.5c-.7-1.2-1.7-1.8-2.9-1.8-1.9,0-3.3,1.3-3.3,3.5s1.5,3.5,3.3,3.5,2.2-.5,2.9-1.8l2.9,1.6c-.9,2-3,3.2-5.7,3.2-4.1,0-7.1-2.7-7.1-6.5h0Z"/>
  <path class="cls-67" d="M381.9,381.1c0-1.2.9-2.1,2.3-2.1s2.3.9,2.3,2-.9,2.1-2.3,2.1-2.3-.9-2.3-2.1ZM382.4,384.9h3.7v12.7h-3.7v-12.7Z"/>
  <path class="cls-67" d="M388.3,396.4l1.2-2.6c1.1.7,2.9,1.2,4.4,1.2s2.3-.5,2.3-1.2c0-2.1-7.7,0-7.7-5s2.2-4.1,5.9-4.1,3.7.4,4.9,1.1l-1.2,2.6c-1.2-.7-2.5-1-3.7-1-1.6,0-2.4.5-2.4,1.2,0,2.2,7.7,0,7.7,5.1s-2.2,4-6,4-4.3-.6-5.5-1.4h0Z"/>
  <path class="cls-67" d="M408,389.3c0-5,3.8-8.6,9-8.6s5.2,1,6.8,2.9l-2.5,2.3c-1.1-1.3-2.5-1.9-4.2-1.9-3.1,0-5.3,2.2-5.3,5.3s2.2,5.3,5.3,5.3,3-.7,4.2-2l2.5,2.3c-1.6,1.9-4,3-6.8,3-5.1,0-9-3.6-9-8.6h0Z"/>
  <path class="cls-67" d="M433.9,384.7v3.4c-.3,0-.5,0-.8,0-2,0-3.4,1.1-3.4,3.5v6h-3.7v-12.7h3.5v1.7c.9-1.2,2.4-1.9,4.4-1.9h0Z"/>
  <path class="cls-67" d="M435.7,381.1c0-1.2.9-2.1,2.3-2.1s2.3.9,2.3,2-.9,2.1-2.3,2.1-2.3-.9-2.3-2.1ZM436.1,384.9h3.7v12.7h-3.7v-12.7Z"/>
  <path class="cls-67" d="M442.3,391.2c0-3.8,3-6.5,7.1-6.5s4.8,1.2,5.7,3.2l-2.9,1.5c-.7-1.2-1.7-1.8-2.9-1.8-1.9,0-3.3,1.3-3.3,3.5s1.5,3.5,3.3,3.5,2.2-.5,2.9-1.8l2.9,1.6c-.9,2-3,3.2-5.7,3.2-4.1,0-7.1-2.7-7.1-6.5h0Z"/>
  <path class="cls-67" d="M462.6,392.6l-1.8,1.8v3.2h-3.7v-17.5h3.7v9.9l5.4-5.1h4.4l-5.3,5.4,5.8,7.3h-4.5l-4-5h0Z"/>
  <path class="cls-67" d="M355.4,409.1v16.5h-3.1v-14h-3.5v-2.6h6.6Z"/>
  <path class="cls-67" d="M371.5,417c0,5.7-3.3,8.8-8.1,8.8s-3.2-.4-4.4-1.1l1.1-2.3c.9.6,2,.8,3.1.8,3.1,0,5.1-1.9,5.1-5.7h0c-1,1.1-2.6,1.7-4.4,1.7-3.3,0-5.7-2-5.7-5.1s2.7-5.4,6-5.4,7.2,2.9,7.2,8.2h0ZM367.9,414c0-1.6-1.2-2.8-3.4-2.8s-3.2,1.1-3.2,2.8,1.3,2.8,3.3,2.8,3.4-1.2,3.4-2.8h0Z"/>
  <path class="cls-67" d="M373.5,417.3c0-5.4,3-8.5,6.9-8.5s6.9,3.1,6.9,8.5-3,8.5-6.9,8.5-6.9-3.1-6.9-8.5ZM384.3,417.3c0-4-1.6-5.8-3.8-5.8s-3.8,1.8-3.8,5.8,1.6,5.8,3.8,5.8,3.8-1.8,3.8-5.8Z"/>
  <path class="cls-67" d="M392.9,423.8c0,.5-.1,1-.5,2l-1.2,3.3h-1.9l1-3.6c-.7-.3-1.1-.9-1.1-1.8s.8-2,1.9-2,1.9.8,1.9,2h0Z"/>
  <path class="cls-67" d="M407.7,417c0,5.7-3.3,8.8-8.1,8.8s-3.2-.4-4.4-1.1l1.1-2.3c.9.6,2,.8,3.1.8,3.1,0,5.1-1.9,5.1-5.7h0c-1,1.1-2.6,1.7-4.4,1.7-3.3,0-5.7-2-5.7-5.1s2.7-5.4,6-5.4,7.2,2.9,7.2,8.2h0ZM404.1,414c0-1.6-1.2-2.8-3.4-2.8s-3.2,1.1-3.2,2.8,1.3,2.8,3.3,2.8,3.4-1.2,3.4-2.8h0Z"/>
  <path class="cls-67" d="M423.2,420.9c0,3.1-2.7,5-6.8,5s-6.7-1.9-6.7-5,1-3.2,2.6-4c-1.3-.7-2.1-1.9-2.1-3.5,0-2.8,2.5-4.6,6.1-4.6s6.2,1.8,6.2,4.6-.8,2.7-2.1,3.5c1.7.8,2.7,2.1,2.7,4ZM420.1,420.8c0-1.6-1.4-2.6-3.7-2.6s-3.6,1-3.6,2.6,1.4,2.7,3.6,2.7,3.7-1,3.7-2.7ZM413.3,413.6c0,1.4,1.2,2.3,3.1,2.3s3.2-.9,3.2-2.3-1.3-2.3-3.2-2.3-3.1.9-3.1,2.3Z"/>
  <path class="cls-67" d="M430.9,409.1v16.5h-3.1v-14h-3.5v-2.6h6.6Z"/>
  <path class="cls-59" d="M481.5,346.6v-9.3h3.8v9.1c0,3.1,1.4,4.4,3.7,4.4s3.7-1.3,3.7-4.4v-9.1h3.8v9.3c0,4.9-2.8,7.6-7.5,7.6s-7.5-2.7-7.5-7.6h0Z"/>
  <path class="cls-59" d="M513,346.6v7.3h-3.7v-6.7c0-2.1-1-3-2.6-3s-3,1.1-3,3.4v6.3h-3.7v-12.7h3.5v1.5c1-1.1,2.5-1.7,4.2-1.7,3,0,5.3,1.8,5.3,5.6h0Z"/>
  <path class="cls-59" d="M515.9,337.4c0-1.2.9-2.1,2.3-2.1s2.3.9,2.3,2-.9,2.1-2.3,2.1-2.3-.9-2.3-2.1ZM516.4,341.2h3.7v12.7h-3.7v-12.7Z"/>
  <path class="cls-59" d="M536.1,341.2l-5.4,12.7h-3.8l-5.3-12.7h3.8l3.5,8.6,3.6-8.6h3.5Z"/>
  <path class="cls-59" d="M549.7,348.6h-9.6c.3,1.6,1.7,2.5,3.6,2.5s2.3-.4,3.2-1.2l2,2.1c-1.2,1.4-3,2.1-5.2,2.1-4.4,0-7.3-2.8-7.3-6.5s2.9-6.5,6.8-6.5,6.6,2.5,6.6,6.6,0,.7,0,1h0ZM540,346.4h6.3c-.3-1.6-1.5-2.6-3.1-2.6s-2.9,1-3.1,2.6Z"/>
  <path class="cls-59" d="M560.1,341v3.4c-.3,0-.5,0-.8,0-2,0-3.4,1.1-3.4,3.5v6h-3.7v-12.7h3.5v1.7c.9-1.2,2.4-1.9,4.4-1.9h0Z"/>
  <path class="cls-59" d="M561.1,352.7l1.2-2.6c1.1.7,2.9,1.2,4.4,1.2s2.3-.5,2.3-1.2c0-2.1-7.7,0-7.7-5s2.2-4.1,5.9-4.1,3.7.4,4.9,1.1l-1.2,2.6c-1.2-.7-2.5-1-3.7-1-1.7,0-2.4.5-2.4,1.2,0,2.2,7.7,0,7.7,5.1s-2.2,4-6,4-4.3-.6-5.5-1.4h0Z"/>
  <path class="cls-59" d="M574.4,337.4c0-1.2.9-2.1,2.3-2.1s2.3.9,2.3,2-.9,2.1-2.3,2.1-2.3-.9-2.3-2.1ZM574.9,341.2h3.7v12.7h-3.7v-12.7Z"/>
  <path class="cls-59" d="M594.9,336.4v17.5h-3.5v-1.5c-.9,1.1-2.3,1.7-4,1.7-3.6,0-6.4-2.5-6.4-6.5s2.8-6.5,6.4-6.5,2.9.5,3.8,1.5v-6.2h3.7ZM591.3,347.5c0-2.2-1.4-3.5-3.2-3.5s-3.3,1.3-3.3,3.5,1.4,3.5,3.3,3.5,3.2-1.3,3.2-3.5Z"/>
  <path class="cls-59" d="M609.6,346.6v7.3h-3.5v-1.6c-.7,1.2-2,1.8-3.9,1.8-3,0-4.8-1.7-4.8-3.9s1.6-3.8,5.5-3.8h2.9c0-1.6-1-2.5-2.9-2.5s-2.7.5-3.7,1.2l-1.3-2.6c1.4-1,3.5-1.5,5.5-1.5,3.9,0,6.1,1.8,6.1,5.6h0ZM605.9,349.9v-1.3h-2.5c-1.7,0-2.3.6-2.3,1.5s.8,1.5,2.1,1.5,2.3-.6,2.7-1.7h0Z"/>
  <path class="cls-59" d="M626,336.4v17.5h-3.5v-1.5c-.9,1.1-2.3,1.7-4,1.7-3.6,0-6.4-2.5-6.4-6.5s2.8-6.5,6.4-6.5,2.9.5,3.8,1.5v-6.2h3.7ZM622.4,347.5c0-2.2-1.4-3.5-3.2-3.5s-3.3,1.3-3.3,3.5,1.4,3.5,3.3,3.5,3.2-1.3,3.2-3.5Z"/>
  <path class="cls-59" d="M641.8,348.6h-9.6c.3,1.6,1.7,2.5,3.6,2.5s2.3-.4,3.2-1.2l2,2.1c-1.2,1.4-3,2.1-5.2,2.1-4.4,0-7.3-2.8-7.3-6.5s2.9-6.5,6.8-6.5,6.6,2.5,6.6,6.6,0,.7,0,1h0ZM632.1,346.4h6.3c-.3-1.6-1.5-2.6-3.1-2.6s-2.9,1-3.1,2.6Z"/>
  <path class="cls-59" d="M494.7,358.7v17.5h-3.5v-1.5c-.9,1.1-2.3,1.7-4,1.7-3.6,0-6.4-2.5-6.4-6.5s2.8-6.5,6.4-6.5,2.9.5,3.8,1.5v-6.2h3.7ZM491.1,369.9c0-2.2-1.4-3.5-3.2-3.5s-3.3,1.3-3.3,3.5,1.4,3.5,3.3,3.5,3.2-1.3,3.2-3.5Z"/>
  <path class="cls-59" d="M510.5,370.9h-9.6c.4,1.6,1.7,2.5,3.6,2.5s2.3-.4,3.2-1.2l2,2.1c-1.2,1.4-3,2.1-5.2,2.1-4.4,0-7.3-2.8-7.3-6.5s2.9-6.5,6.8-6.5,6.6,2.5,6.6,6.6,0,.7,0,1h0ZM500.8,368.8h6.3c-.3-1.6-1.5-2.6-3.1-2.6s-2.9,1-3.1,2.6Z"/>
  <path class="cls-59" d="M532.8,373.1v3.1h-12.8v-16.5h12.5v3.1h-8.7v3.6h7.7v3h-7.7v3.8h9Z"/>
  <path class="cls-59" d="M548.4,358.7v17.5h-3.5v-1.5c-.9,1.1-2.3,1.7-4,1.7-3.6,0-6.4-2.5-6.4-6.5s2.8-6.5,6.4-6.5,2.9.5,3.8,1.5v-6.2h3.7ZM544.8,369.9c0-2.2-1.4-3.5-3.2-3.5s-3.3,1.3-3.3,3.5,1.4,3.5,3.3,3.5,3.2-1.3,3.2-3.5Z"/>
  <path class="cls-59" d="M551.4,359.7c0-1.2.9-2.1,2.3-2.1s2.3.9,2.3,2-.9,2.1-2.3,2.1-2.3-.9-2.3-2.1ZM551.8,363.5h3.7v12.7h-3.7v-12.7Z"/>
  <path class="cls-59" d="M572,368.9v7.3h-3.7v-6.7c0-2.1-1-3-2.6-3s-3,1.1-3,3.4v6.3h-3.7v-12.7h3.5v1.5c1-1.1,2.5-1.7,4.2-1.7,3,0,5.3,1.8,5.3,5.6h0Z"/>
  <path class="cls-59" d="M589.1,369.9c0,4-2.8,6.5-6.3,6.5s-3.1-.5-4-1.7v1.5h-3.5v-17.5h3.7v6.2c1-1,2.2-1.5,3.8-1.5,3.6,0,6.3,2.5,6.3,6.5h0ZM585.4,369.9c0-2.2-1.4-3.5-3.2-3.5s-3.2,1.3-3.2,3.5,1.4,3.5,3.2,3.5,3.2-1.3,3.2-3.5Z"/>
  <path class="cls-59" d="M604.4,363.5v12.7h-3.5v-1.5c-1,1.1-2.4,1.7-4,1.7-3.2,0-5.4-1.8-5.4-5.7v-7.2h3.7v6.6c0,2.1,1,3.1,2.6,3.1s2.9-1.1,2.9-3.4v-6.3h3.7Z"/>
  <path class="cls-59" d="M615.7,363.3v3.4c-.3,0-.5,0-.8,0-2,0-3.4,1.1-3.4,3.5v6h-3.7v-12.7h3.5v1.7c.9-1.2,2.4-1.9,4.4-1.9h0Z"/>
  <path class="cls-59" d="M630.9,363.5v10.6c0,4.7-2.5,6.9-7.1,6.9s-4.8-.6-6.2-1.8l1.5-2.6c1.1.9,2.9,1.4,4.5,1.4,2.6,0,3.7-1.2,3.7-3.5v-.5c-1,1.1-2.4,1.6-4,1.6-3.5,0-6.4-2.4-6.4-6.1s2.8-6.1,6.4-6.1,3.2.6,4.2,1.8v-1.6h3.5ZM627.3,369.5c0-1.9-1.4-3.1-3.3-3.1s-3.4,1.2-3.4,3.1,1.4,3.1,3.4,3.1,3.3-1.2,3.3-3.1Z"/>
  <path class="cls-59" d="M647.3,368.9v7.3h-3.7v-6.7c0-2.1-1-3-2.6-3s-3,1.1-3,3.4v6.3h-3.7v-17.5h3.7v6.1c1-1,2.4-1.5,4-1.5,3,0,5.3,1.8,5.3,5.6h0Z"/>
  <path class="cls-59" d="M526.5,387.7v16.5h-3.1v-14h-3.5v-2.6h6.6Z"/>
  <path class="cls-59" d="M541.8,399.1c0,2.9-2.1,5.3-6.5,5.3s-4.7-.7-6.2-1.9l1.3-2.4c1.2,1,3,1.6,4.9,1.6s3.5-1,3.5-2.5-1-2.6-4.4-2.6h-4l.8-9h9.7v2.6h-7.1l-.3,3.8h1.6c4.9,0,6.8,2.1,6.8,5.1h0Z"/>
  <path class="cls-59" d="M558.4,400.5h-2.9v3.8h-3v-3.8h-9.1v-2.1l8.2-10.7h3.3l-7.7,10.2h5.4v-3.3h2.9v3.3h2.9v2.6h0Z"/>
  <path class="cls-59" d="M563.9,402.4c0,.5-.1,1-.5,2l-1.2,3.3h-1.9l1-3.6c-.7-.3-1.1-.9-1.1-1.8s.8-2,1.9-2,1.9.8,1.9,2h0Z"/>
  <path class="cls-59" d="M578,387.7v2.1l-6.4,14.5h-3.3l6.2-14h-6.5v2.8h-2.9v-5.4h12.9Z"/>
  <path class="cls-59" d="M592.7,399.1c0,3.3-2.7,5.4-6,5.4s-7.2-2.9-7.2-8.2,3.3-8.8,8.1-8.8,3.2.4,4.3,1.1l-1.1,2.3c-.9-.6-2-.8-3.1-.8-3.1,0-5.1,1.9-5.1,5.7h0c1-1.1,2.6-1.7,4.4-1.7,3.3,0,5.7,2,5.7,5.1h0ZM589.7,399.2c0-1.7-1.3-2.8-3.3-2.8s-3.4,1.2-3.4,2.8,1.2,2.8,3.4,2.8,3.2-1.1,3.2-2.8h0Z"/>
  <path class="cls-59" d="M609,400.5h-2.9v3.8h-3v-3.8h-9.1v-2.1l8.2-10.7h3.3l-7.7,10.2h5.4v-3.3h2.9v3.3h2.9v2.6h0Z"/>
  <g class="cls-46">
    <text class="cls-18" transform="translate(625.6 435.3)"><tspan x="0" y="0">Uni</tspan></text>
    <text class="cls-11" transform="translate(667.7 435.3)"><tspan x="0" y="0">v</tspan></text>
    <text class="cls-18" transform="translate(681.5 435.3)"><tspan x="0" y="0">e</tspan></text>
    <text class="cls-18" transform="translate(696.4 435.3)"><tspan x="0" y="0">r</tspan></text>
    <text class="cls-18" transform="translate(706.5 435.3)"><tspan x="0" y="0">si</tspan></text>
    <text class="cls-18" transform="translate(726.2 435.3)"><tspan x="0" y="0">t</tspan></text>
    <text class="cls-18" transform="translate(736.2 435.3)"><tspan x="0" y="0">y </tspan></text>
    <text class="cls-16" transform="translate(757 435.3)"><tspan x="0" y="0">C</tspan></text>
    <text class="cls-18" transform="translate(773.9 435.3)"><tspan x="0" y="0">ollege </tspan></text>
    <text class="cls-18" transform="translate(856.7 435.3)"><tspan x="0" y="0">L</tspan></text>
    <text class="cls-18" transform="translate(870.9 435.3)"><tspan x="0" y="0">o</tspan></text>
    <text class="cls-18" transform="translate(886.4 435.3)"><tspan x="0" y="0">n</tspan></text>
    <text class="cls-18" transform="translate(902.8 435.3)"><tspan x="0" y="0">don </tspan></text>
    <text class="cls-33" transform="translate(957.7 435.3)"><tspan x="0" y="0">1</tspan></text>
    <text class="cls-33" transform="translate(966.7 435.3)"><tspan x="0" y="0">48</tspan></text>
    <text class="cls-27" transform="translate(998.6 435.3)"><tspan x="0" y="0">,</tspan></text>
    <text class="cls-33" transform="translate(1004.1 435.3)"><tspan x="0" y="0">050</tspan></text>
  </g>
  <g class="cls-46">
    <text class="cls-48" transform="translate(695.4 480.8)"><tspan x="0" y="0">C</tspan></text>
    <text class="cls-42" transform="translate(712.3 480.8)"><tspan x="0" y="0">onsel</tspan></text>
    <text class="cls-42" transform="translate(778.7 480.8)"><tspan x="0" y="0">h</tspan></text>
    <text class="cls-42" transform="translate(795.1 480.8)"><tspan x="0" y="0">o de </tspan></text>
    <text class="cls-40" transform="translate(855.2 480.8)"><tspan x="0" y="0">P</tspan></text>
    <text class="cls-42" transform="translate(872.3 480.8)"><tspan x="0" y="0">esquisa Médica</tspan></text>
    <text class="cls-53" transform="translate(1062.8 480.8)"><tspan x="0" y="0" xml:space="preserve"> 13</tspan></text>
    <text class="cls-53" transform="translate(1092 480.8)"><tspan x="0" y="0">6</tspan></text>
    <text class="cls-41" transform="translate(1107.1 480.8)"><tspan x="0" y="0">,</tspan></text>
    <text class="cls-53" transform="translate(1112.5 480.8)"><tspan x="0" y="0">7</tspan></text>
    <text class="cls-53" transform="translate(1126.7 480.8)"><tspan x="0" y="0">3</tspan></text>
    <text class="cls-53" transform="translate(1140.3 480.8)"><tspan x="0" y="0">2</tspan></text>
  </g>
  <g class="cls-46">
    <text class="cls-20" transform="translate(740 539)"><tspan x="0" y="0">K</tspan></text>
    <text class="cls-20" transform="translate(757.2 539)"><tspan x="0" y="0">i</tspan></text>
    <text class="cls-20" transform="translate(764.4 539)"><tspan x="0" y="0">n</tspan></text>
    <text class="cls-20" transform="translate(780.8 539)"><tspan x="0" y="0">g</tspan></text>
    <text class="cls-49" transform="translate(797.4 539)"><tspan x="0" y="0">’</tspan></text>
    <text class="cls-20" transform="translate(803.1 539)"><tspan x="0" y="0">s </tspan></text>
    <text class="cls-49" transform="translate(822.4 539)"><tspan x="0" y="0">C</tspan></text>
    <text class="cls-20" transform="translate(839.3 539)"><tspan x="0" y="0">ollege </tspan></text>
    <text class="cls-20" transform="translate(922 539)"><tspan x="0" y="0">L</tspan></text>
    <text class="cls-20" transform="translate(936.2 539)"><tspan x="0" y="0">o</tspan></text>
    <text class="cls-20" transform="translate(951.7 539)"><tspan x="0" y="0">n</tspan></text>
    <text class="cls-20" transform="translate(968.2 539)"><tspan x="0" y="0">don </tspan></text>
    <text class="cls-51" transform="translate(1023 539)"><tspan x="0" y="0">123</tspan></text>
    <text class="cls-51" transform="translate(1059.5 539)"><tspan x="0" y="0">,</tspan></text>
    <text class="cls-51" transform="translate(1065.6 539)"><tspan x="0" y="0">228</tspan></text>
  </g>
  <g class="cls-46">
    <text class="cls-29" transform="translate(763.7 597)"><tspan x="0" y="0">Uni</tspan></text>
    <text class="cls-30" transform="translate(805.7 597)"><tspan x="0" y="0">v</tspan></text>
    <text class="cls-29" transform="translate(819.5 597)"><tspan x="0" y="0">e</tspan></text>
    <text class="cls-29" transform="translate(834.4 597)"><tspan x="0" y="0">r</tspan></text>
    <text class="cls-29" transform="translate(844.6 597)"><tspan x="0" y="0">sid</tspan></text>
    <text class="cls-29" transform="translate(880.6 597)"><tspan x="0" y="0">a</tspan></text>
    <text class="cls-29" transform="translate(895.3 597)"><tspan x="0" y="0">de de Glasg</tspan></text>
    <text class="cls-30" transform="translate(1040.2 597)"><tspan x="0" y="0">o</tspan></text>
    <text class="cls-29" transform="translate(1055.4 597)"><tspan x="0" y="0">w </tspan></text>
    <text class="cls-3" transform="translate(1084.2 597)"><tspan x="0" y="0">10</tspan></text>
    <text class="cls-3" transform="translate(1109.1 597)"><tspan x="0" y="0">8,</tspan></text>
    <text class="cls-3" transform="translate(1130.8 597)"><tspan x="0" y="0">2</tspan></text>
    <text class="cls-3" transform="translate(1144.4 597)"><tspan x="0" y="0">04</tspan></text>
  </g>
  <g class="cls-46">
    <text class="cls-19" transform="translate(773.5 644.3)"><tspan x="0" y="0">Uni</tspan></text>
    <text class="cls-4" transform="translate(815.5 644.3)"><tspan x="0" y="0">v</tspan></text>
    <text class="cls-19" transform="translate(829.3 644.3)"><tspan x="0" y="0">e</tspan></text>
    <text class="cls-19" transform="translate(844.2 644.3)"><tspan x="0" y="0">r</tspan></text>
    <text class="cls-19" transform="translate(854.4 644.3)"><tspan x="0" y="0">sid</tspan></text>
    <text class="cls-19" transform="translate(890.4 644.3)"><tspan x="0" y="0">a</tspan></text>
    <text class="cls-19" transform="translate(905.1 644.3)"><tspan x="0" y="0">de de Ma</tspan></text>
    <text class="cls-19" transform="translate(1018.2 644.3)"><tspan x="0" y="0">n</tspan></text>
    <text class="cls-19" transform="translate(1034.7 644.3)"><tspan x="0" y="0">c</tspan></text>
    <text class="cls-19" transform="translate(1048.5 644.3)"><tspan x="0" y="0">h</tspan></text>
    <text class="cls-19" transform="translate(1065 644.3)"><tspan x="0" y="0">es</tspan></text>
    <text class="cls-15" transform="translate(1092.5 644.3)"><tspan x="0" y="0">t</tspan></text>
    <text class="cls-19" transform="translate(1102.4 644.3)"><tspan x="0" y="0">er </tspan></text>
    <text class="cls-39" transform="translate(1134.1 644.3)"><tspan x="0" y="0">95</tspan></text>
    <text class="cls-34" transform="translate(1162.8 644.3)"><tspan x="0" y="0">,</tspan></text>
    <text class="cls-39" transform="translate(1168.3 644.3)"><tspan x="0" y="0">004</tspan></text>
  </g>
  <g class="cls-46">
    <text class="cls-19" transform="translate(766 693.7)"><tspan x="0" y="0">Impe</tspan></text>
    <text class="cls-19" transform="translate(829.8 693.7)"><tspan x="0" y="0">r</tspan></text>
    <text class="cls-19" transform="translate(839.9 693.7)"><tspan x="0" y="0">ial </tspan></text>
    <text class="cls-15" transform="translate(875.4 693.7)"><tspan x="0" y="0">C</tspan></text>
    <text class="cls-19" transform="translate(892.3 693.7)"><tspan x="0" y="0">ollege </tspan></text>
    <text class="cls-19" transform="translate(975.1 693.7)"><tspan x="0" y="0">L</tspan></text>
    <text class="cls-19" transform="translate(989.2 693.7)"><tspan x="0" y="0">o</tspan></text>
    <text class="cls-19" transform="translate(1004.7 693.7)"><tspan x="0" y="0">n</tspan></text>
    <text class="cls-19" transform="translate(1021.2 693.7)"><tspan x="0" y="0">don </tspan></text>
    <text class="cls-39" transform="translate(1076.1 693.7)"><tspan x="0" y="0">6</tspan></text>
    <text class="cls-34" transform="translate(1090.9 693.7)"><tspan x="0" y="0">0</tspan></text>
    <text class="cls-39" transform="translate(1106.5 693.7)"><tspan x="0" y="0">,904</tspan></text>
  </g>
  <path class="cls-64" d="M733.3,788.4c0-4.9,3.8-8.6,9-8.6s9,3.6,9,8.6-3.8,8.6-9,8.6-9-3.6-9-8.6ZM747.5,788.4c0-3.1-2.2-5.3-5.2-5.3s-5.2,2.2-5.2,5.3,2.2,5.3,5.2,5.3,5.2-2.2,5.2-5.3Z"/>
  <path class="cls-64" d="M766.8,784v12.7h-3.5v-1.5c-1,1.1-2.4,1.7-4,1.7-3.2,0-5.4-1.8-5.4-5.7v-7.2h3.7v6.6c0,2.1,1,3.1,2.6,3.1s2.9-1.1,2.9-3.4v-6.3h3.7Z"/>
  <path class="cls-64" d="M778.4,796c-.8.5-1.9.8-3,.8-3,0-4.8-1.5-4.8-4.6v-5.2h-2v-2.8h2v-3.1h3.7v3.1h3.2v2.8h-3.2v5.2c0,1.1.6,1.7,1.6,1.7s1.1-.2,1.5-.5l1,2.6h0Z"/>
  <path class="cls-64" d="M788.4,783.8v3.4c-.3,0-.5,0-.8,0-2,0-3.4,1.1-3.4,3.5v6h-3.7v-12.7h3.5v1.7c.9-1.2,2.4-1.9,4.4-1.9h0Z"/>
  <path class="cls-64" d="M801.8,789.4v7.3h-3.5v-1.6c-.7,1.2-2,1.8-3.9,1.8-3,0-4.8-1.7-4.8-3.8s1.6-3.8,5.5-3.8h2.9c0-1.6-1-2.5-2.9-2.5s-2.7.5-3.7,1.2l-1.3-2.6c1.4-1,3.5-1.5,5.5-1.5,3.9,0,6.1,1.8,6.1,5.7h0ZM798.1,792.7v-1.3h-2.5c-1.7,0-2.3.6-2.3,1.5s.8,1.5,2.1,1.5,2.3-.6,2.7-1.7h0Z"/>
  <path class="cls-64" d="M803.9,795.5l1.2-2.7c1.1.7,2.9,1.2,4.4,1.2s2.3-.5,2.3-1.2c0-2.1-7.7,0-7.7-5s2.2-4.1,5.9-4.1,3.7.4,4.9,1.1l-1.2,2.6c-1.2-.7-2.5-1-3.7-1-1.7,0-2.4.5-2.4,1.2,0,2.2,7.7,0,7.7,5.1s-2.2,4-6,4-4.3-.6-5.5-1.4h0Z"/>
  <path class="cls-64" d="M696.1,812.6c0-3.8,3-6.5,7-6.5s7,2.7,7,6.5-2.9,6.5-7,6.5-7-2.7-7-6.5ZM706.3,812.6c0-2.2-1.4-3.5-3.2-3.5s-3.3,1.3-3.3,3.5,1.4,3.5,3.3,3.5,3.2-1.3,3.2-3.5Z"/>
  <path class="cls-64" d="M720.4,806.1v3.4c-.3,0-.5,0-.8,0-2,0-3.4,1.1-3.4,3.5v6h-3.7v-12.7h3.5v1.7c.9-1.2,2.4-1.9,4.4-1.9h0Z"/>
  <path class="cls-64" d="M735.6,806.3v10.6c0,4.7-2.5,6.9-7.1,6.9s-4.8-.6-6.2-1.8l1.5-2.7c1.1.9,2.9,1.4,4.5,1.4,2.6,0,3.7-1.2,3.7-3.5v-.5c-1,1.1-2.4,1.6-4,1.6-3.5,0-6.4-2.4-6.4-6.2s2.8-6.2,6.4-6.2,3.2.6,4.2,1.8v-1.6h3.5ZM732,812.2c0-1.9-1.4-3.1-3.3-3.1s-3.4,1.2-3.4,3.1,1.4,3.1,3.4,3.1,3.3-1.2,3.3-3.1Z"/>
  <path class="cls-64" d="M750.3,811.7v7.3h-3.5v-1.6c-.7,1.2-2,1.8-3.9,1.8-3,0-4.8-1.7-4.8-3.8s1.6-3.8,5.5-3.8h2.9c0-1.6-1-2.5-2.9-2.5s-2.7.5-3.7,1.2l-1.3-2.6c1.4-1,3.5-1.5,5.5-1.5,3.9,0,6.1,1.8,6.1,5.7h0ZM746.6,815v-1.3h-2.5c-1.7,0-2.3.6-2.3,1.5s.8,1.5,2.1,1.5,2.3-.6,2.7-1.7h0Z"/>
  <path class="cls-64" d="M766.6,811.7v7.3h-3.7v-6.7c0-2.1-1-3-2.6-3s-3,1.1-3,3.4v6.3h-3.7v-12.7h3.5v1.5c1-1.1,2.5-1.7,4.2-1.7,3,0,5.3,1.8,5.3,5.6h0Z"/>
  <path class="cls-64" d="M769.5,802.4c0-1.2.9-2.1,2.3-2.1s2.3.8,2.3,2-.9,2.1-2.3,2.1-2.3-.9-2.3-2.1ZM770,806.3h3.7v12.7h-3.7v-12.7Z"/>
  <path class="cls-64" d="M787.5,816.2v2.8h-11.3v-2.2l6.5-7.7h-6.3v-2.8h11v2.2l-6.5,7.7h6.7Z"/>
  <path class="cls-64" d="M801.2,811.7v7.3h-3.5v-1.6c-.7,1.2-2,1.8-3.9,1.8-3,0-4.8-1.7-4.8-3.8s1.6-3.8,5.5-3.8h2.9c0-1.6-1-2.5-2.9-2.5s-2.7.5-3.7,1.2l-1.3-2.6c1.4-1,3.5-1.5,5.5-1.5,3.9,0,6.1,1.8,6.1,5.7h0ZM797.5,815v-1.3h-2.5c-1.7,0-2.3.6-2.3,1.5s.8,1.5,2.1,1.5,2.3-.6,2.7-1.7h0Z"/>
  <path class="cls-64" d="M813.6,814.4l2.9,1.6c-.9,2-2.9,3.1-5.4,3.2l-.2,1c1.4.2,2.1,1,2.1,2,0,1.4-1.4,2.3-3.5,2.3s-1.7-.2-2.2-.5l.6-1.6c.5.2,1,.3,1.5.3.9,0,1.2-.3,1.2-.8s-.3-.7-1.2-.7h-.8l.6-2.3c-3.3-.6-5.5-3.1-5.5-6.4s3-6.5,7.1-6.5,4.8,1.2,5.7,3.2l-2.9,1.5c-.7-1.2-1.7-1.8-2.9-1.8-1.9,0-3.3,1.3-3.3,3.5s1.5,3.5,3.3,3.5,2.2-.5,2.9-1.8h0Z"/>
  <path class="cls-64" d="M817.5,812.6c0-3.8,3-6.5,7-6.5s7,2.7,7,6.5-2.9,6.5-7,6.5-7-2.7-7-6.5ZM822.9,803.2c-.6,0-1.1.5-1.1,1.3h-1.9c0-2.1,1.1-3.5,2.8-3.5s2.5,1.5,3.3,1.5,1.1-.5,1.1-1.3h1.9c0,2-1.1,3.4-2.8,3.4s-2.5-1.5-3.3-1.5h0ZM827.7,812.6c0-2.2-1.4-3.5-3.2-3.5s-3.3,1.3-3.3,3.5,1.4,3.5,3.3,3.5,3.2-1.3,3.2-3.5Z"/>
  <path class="cls-64" d="M846.3,813.7h-9.6c.3,1.6,1.7,2.5,3.6,2.5s2.3-.4,3.2-1.2l2,2.1c-1.2,1.3-3,2.1-5.2,2.1-4.4,0-7.3-2.8-7.3-6.5s2.9-6.5,6.8-6.5,6.6,2.5,6.6,6.6,0,.7,0,1h0ZM836.6,811.5h6.3c-.3-1.6-1.5-2.7-3.1-2.7s-2.9,1-3.1,2.7Z"/>
  <path class="cls-64" d="M847.6,817.8l1.2-2.7c1.1.7,2.9,1.2,4.4,1.2s2.3-.5,2.3-1.2c0-2.1-7.7,0-7.7-5s2.2-4.1,5.9-4.1,3.7.4,4.9,1.1l-1.2,2.6c-1.2-.7-2.5-1-3.7-1-1.7,0-2.4.5-2.4,1.2,0,2.2,7.7,0,7.7,5.1s-2.2,4-6,4-4.3-.6-5.5-1.4h0Z"/>
  <path class="cls-64" d="M698.8,830.4v16.5h-3.1v-14h-3.5v-2.6h6.6Z"/>
  <path class="cls-64" d="M705.9,845.2c0,.5-.1,1-.5,2l-1.2,3.3h-1.9l1-3.6c-.7-.3-1.1-.9-1.1-1.8s.8-2,1.9-2,1.9.8,1.9,2h0Z"/>
  <path class="cls-64" d="M719.9,842c0,2.8-2.1,5.2-6.5,5.2s-4.7-.7-6.2-1.9l1.3-2.4c1.2,1,3,1.6,4.8,1.6s3.5-1,3.5-2.5-1.1-2.5-3.6-2.5h-1.5v-2.1l3.8-4.5h-7.5v-2.6h11.3v2.1l-4,4.8c3.1.4,4.7,2.3,4.7,4.8h0Z"/>
  <path class="cls-64" d="M733.8,844.4v2.6h-12.2v-2.1l6.6-6.2c1.6-1.5,1.9-2.5,1.9-3.4,0-1.5-1-2.4-3.1-2.4s-3,.5-3.9,1.7l-2.2-1.7c1.3-1.7,3.6-2.7,6.3-2.7s5.9,1.8,5.9,4.8-.5,3.1-2.7,5.2l-4.4,4.2h7.8Z"/>
  <path class="cls-64" d="M748.7,841.9c0,3.3-2.7,5.4-6,5.4s-7.2-2.9-7.2-8.2,3.3-8.8,8.1-8.8,3.2.3,4.3,1.1l-1.1,2.3c-.9-.6-2-.8-3.1-.8-3.1,0-5.1,1.9-5.1,5.7h0c1-1.1,2.6-1.7,4.4-1.7,3.3,0,5.7,2,5.7,5.1h0ZM745.7,842c0-1.7-1.3-2.8-3.3-2.8s-3.4,1.2-3.4,2.8,1.2,2.8,3.4,2.8,3.2-1.1,3.2-2.8h0Z"/>
  <path class="cls-64" d="M754.3,845.2c0,.5-.1,1-.5,2l-1.2,3.3h-1.9l1-3.6c-.7-.3-1.1-.9-1.1-1.8s.8-2,1.9-2,1.9.8,1.9,2h0Z"/>
  <path class="cls-64" d="M770,842.2c0,3.1-2.7,5-6.8,5s-6.7-1.9-6.7-5,1-3.2,2.7-4c-1.3-.7-2.1-1.9-2.1-3.5,0-2.8,2.5-4.6,6.2-4.6s6.2,1.8,6.2,4.6-.8,2.7-2.1,3.5c1.7.8,2.7,2.1,2.7,4h0ZM766.8,842.1c0-1.6-1.4-2.7-3.7-2.7s-3.6,1-3.6,2.7,1.4,2.7,3.6,2.7,3.7-1,3.7-2.7ZM760,835c0,1.4,1.2,2.3,3.1,2.3s3.2-.9,3.2-2.3-1.3-2.3-3.2-2.3-3.1.8-3.1,2.3Z"/>
  <path class="cls-64" d="M771.9,838.7c0-5.4,3-8.5,6.9-8.5s6.9,3.1,6.9,8.5-3,8.5-6.9,8.5-6.9-3.1-6.9-8.5ZM782.7,838.7c0-4-1.6-5.8-3.8-5.8s-3.8,1.8-3.8,5.8,1.6,5.8,3.8,5.8,3.8-1.8,3.8-5.8Z"/>
  <path class="cls-64" d="M793.4,830.4v16.5h-3.1v-14h-3.5v-2.6h6.6Z"/>
  <path class="cls-64" d="M803.5,839.2h6.5v2.5h-6.5v-2.5Z"/>
  <path class="cls-64" d="M833.6,843.2h-2.9v3.8h-3v-3.8h-9.1v-2.1l8.2-10.7h3.3l-7.7,10.2h5.4v-3.3h2.9v3.3h2.9v2.6h0Z"/>
  <path class="cls-64" d="M848.6,842.2c0,3.1-2.7,5-6.8,5s-6.7-1.9-6.7-5,1-3.2,2.7-4c-1.3-.7-2.1-1.9-2.1-3.5,0-2.8,2.5-4.6,6.2-4.6s6.2,1.8,6.2,4.6-.8,2.7-2.1,3.5c1.7.8,2.7,2.1,2.7,4h0ZM845.5,842.1c0-1.6-1.4-2.7-3.7-2.7s-3.6,1-3.6,2.7,1.4,2.7,3.6,2.7,3.7-1,3.7-2.7ZM838.7,835c0,1.4,1.2,2.3,3.1,2.3s3.2-.9,3.2-2.3-1.3-2.3-3.2-2.3-3.1.8-3.1,2.3Z"/>
  <path class="cls-64" d="M850.1,834.8c0-2.7,1.6-4.5,4-4.5s4,1.8,4,4.5-1.6,4.5-4,4.5-4-1.8-4-4.5ZM856,834.8c0-1.8-.8-2.9-2-2.9s-2,1.1-2,2.9.8,2.9,2,2.9,2-1,2-2.9ZM864,830.4h2.3l-11.3,16.5h-2.3l11.3-16.5ZM860.9,842.6c0-2.7,1.6-4.5,4-4.5s4,1.8,4,4.5-1.6,4.5-4,4.5-4-1.8-4-4.5ZM866.9,842.6c0-1.8-.8-2.9-2-2.9s-2,1-2,2.9.8,2.9,2,2.9,2-1.1,2-2.9Z"/>
</svg>