<?xml version="1.0" encoding="UTF-8"?>
<svg id="Camada_1" xmlns="http://www.w3.org/2000/svg" version="1.1" viewBox="0 0 1280 720">
  <!-- Generator: Adobe Illustrator 29.2.1, SVG Export Plug-In . SVG Version: 2.1.0 Build 116)  -->
  <defs>
    <style>
      .st0 {
        fill: none;
      }

      .st1, .st2, .st3, .st4, .st5 {
        isolation: isolate;
      }

      .st6, .st5 {
        fill: #fff;
      }

      .st7 {
        fill: #67b5a6;
      }

      .st8 {
        opacity: .2;
      }

      .st9 {
        fill: #305361;
      }

      .st2 {
        opacity: .3;
      }

      .st2, .st3, .st4 {
        fill: #68b0e0;
      }

      .st3, .st5 {
        opacity: .6;
      }

      .st4 {
        opacity: .4;
      }
    </style>
  </defs>
  <circle class="st6" cx="631.9" cy="463.7" r="224.9"/>
  <circle class="st4" cx="631.9" cy="463.7" r="224.9"/>
  <g>
    <path class="st2" d="M424.1,549.7c4.9,11.7,10.7,22.9,17.3,33.5l-17.3-33.5Z"/>
    <path class="st3" d="M632.5,238.8l-.7,224.9-145.6,171.3c39.2,33.4,90.1,53.5,145.6,53.5,124.2,0,224.9-100.7,224.9-224.9s-100.3-224.5-224.2-224.9h0Z"/>
  </g>
  <path class="st5" d="M632.6,464.9l.4-226.5h-.4c-20.8,0-40.8,2.8-59.9,8.1l59.9,218.3h0Z"/>
  <rect class="st0" width="1280" height="720"/>
  <g id="dots" class="st8">
    <path class="st7" d="M71.9,499.7c2.2,0,4,1.8,4,4s-1.8,4-4,4-4-1.8-4-4,1.8-4,4-4Z"/>
    <path class="st7" d="M71.9,455.2c2.2,0,4,1.8,4,4s-1.8,4-4,4-4-1.8-4-4,1.8-4,4-4Z"/>
    <path class="st7" d="M71.9,411.7c2.2,0,4,1.8,4,4s-1.8,4-4,4-4-1.8-4-4,1.8-4,4-4Z"/>
    <path class="st7" d="M71.9,367.7c2.2,0,4,1.8,4,4s-1.8,4-4,4-4-1.8-4-4,1.8-4,4-4Z"/>
    <path class="st7" d="M71.9,324.5c2.2,0,4,1.8,4,4s-1.8,4-4,4-4-1.8-4-4,1.8-4,4-4Z"/>
    <path class="st7" d="M71.9,279.9c2.2,0,4,1.8,4,4s-1.8,4-4,4-4-1.8-4-4,1.8-4,4-4Z"/>
    <path class="st7" d="M71.9,236.5c2.2,0,4,1.8,4,4s-1.8,4-4,4-4-1.8-4-4,1.8-4,4-4Z"/>
    <path class="st7" d="M71.9,192.4c2.2,0,4,1.8,4,4s-1.8,4-4,4-4-1.8-4-4,1.8-4,4-4Z"/>
    <path class="st7" d="M27.9,499.7c2.2,0,4,1.8,4,4s-1.8,4-4,4-4-1.8-4-4,1.8-4,4-4Z"/>
    <path class="st7" d="M27.9,455.2c2.2,0,4,1.8,4,4s-1.8,4-4,4-4-1.8-4-4,1.8-4,4-4Z"/>
    <path class="st7" d="M27.9,411.7c2.2,0,4,1.8,4,4s-1.8,4-4,4-4-1.8-4-4,1.8-4,4-4Z"/>
    <path class="st7" d="M27.9,367.7c2.2,0,4,1.8,4,4s-1.8,4-4,4-4-1.8-4-4,1.8-4,4-4Z"/>
    <path class="st7" d="M27.9,324.5c2.2,0,4,1.8,4,4s-1.8,4-4,4-4-1.8-4-4,1.8-4,4-4Z"/>
    <path class="st7" d="M27.9,279.9c2.2,0,4,1.8,4,4s-1.8,4-4,4-4-1.8-4-4,1.8-4,4-4Z"/>
    <path class="st7" d="M27.9,236.5c2.2,0,4,1.8,4,4s-1.8,4-4,4-4-1.8-4-4,1.8-4,4-4Z"/>
    <path class="st7" d="M27.9,192.4c2.2,0,4,1.8,4,4s-1.8,4-4,4-4-1.8-4-4,1.8-4,4-4Z"/>
    <path class="st7" d="M115.5,499.7c2.2,0,4,1.8,4,4s-1.8,4-4,4-4-1.8-4-4,1.8-4,4-4Z"/>
    <path class="st7" d="M115.5,455.2c2.2,0,4,1.8,4,4s-1.8,4-4,4-4-1.8-4-4,1.8-4,4-4Z"/>
    <path class="st7" d="M115.5,411.7c2.2,0,4,1.8,4,4s-1.8,4-4,4-4-1.8-4-4,1.8-4,4-4Z"/>
    <path class="st7" d="M115.5,367.7c2.2,0,4,1.8,4,4s-1.8,4-4,4-4-1.8-4-4,1.8-4,4-4Z"/>
    <path class="st7" d="M115.5,324.5c2.2,0,4,1.8,4,4s-1.8,4-4,4-4-1.8-4-4,1.8-4,4-4Z"/>
    <path class="st7" d="M115.5,279.9c2.2,0,4,1.8,4,4s-1.8,4-4,4-4-1.8-4-4,1.8-4,4-4Z"/>
    <path class="st7" d="M115.5,236.5c2.2,0,4,1.8,4,4s-1.8,4-4,4-4-1.8-4-4,1.8-4,4-4Z"/>
    <path class="st7" d="M115.5,192.4c2.2,0,4,1.8,4,4s-1.8,4-4,4-4-1.8-4-4,1.8-4,4-4Z"/>
    <path class="st7" d="M159.4,499.7c2.2,0,4,1.8,4,4s-1.8,4-4,4-4-1.8-4-4,1.8-4,4-4Z"/>
    <path class="st7" d="M159.4,455.2c2.2,0,4,1.8,4,4s-1.8,4-4,4-4-1.8-4-4,1.8-4,4-4Z"/>
    <path class="st7" d="M159.4,411.7c2.2,0,4,1.8,4,4s-1.8,4-4,4-4-1.8-4-4,1.8-4,4-4Z"/>
    <path class="st7" d="M159.4,367.7c2.2,0,4,1.8,4,4s-1.8,4-4,4-4-1.8-4-4,1.8-4,4-4Z"/>
    <path class="st7" d="M159.4,324.5c2.2,0,4,1.8,4,4s-1.8,4-4,4-4-1.8-4-4,1.8-4,4-4Z"/>
    <path class="st7" d="M159.4,279.9c2.2,0,4,1.8,4,4s-1.8,4-4,4-4-1.8-4-4,1.8-4,4-4Z"/>
    <path class="st7" d="M159.4,236.5c2.2,0,4,1.8,4,4s-1.8,4-4,4-4-1.8-4-4,1.8-4,4-4Z"/>
    <path class="st7" d="M159.4,192.4c2.2,0,4,1.8,4,4s-1.8,4-4,4-4-1.8-4-4,1.8-4,4-4Z"/>
    <path class="st7" d="M202.6,499.7c2.2,0,4,1.8,4,4s-1.8,4-4,4-4-1.8-4-4,1.8-4,4-4Z"/>
    <path class="st7" d="M202.6,455.2c2.2,0,4,1.8,4,4s-1.8,4-4,4-4-1.8-4-4,1.8-4,4-4Z"/>
    <path class="st7" d="M202.6,411.7c2.2,0,4,1.8,4,4s-1.8,4-4,4-4-1.8-4-4,1.8-4,4-4Z"/>
    <path class="st7" d="M202.6,367.7c2.2,0,4,1.8,4,4s-1.8,4-4,4-4-1.8-4-4,1.8-4,4-4Z"/>
    <path class="st7" d="M202.6,324.5c2.2,0,4,1.8,4,4s-1.8,4-4,4-4-1.8-4-4,1.8-4,4-4Z"/>
    <path class="st7" d="M202.6,279.9c2.2,0,4,1.8,4,4s-1.8,4-4,4-4-1.8-4-4,1.8-4,4-4Z"/>
    <path class="st7" d="M202.6,236.5c2.2,0,4,1.8,4,4s-1.8,4-4,4-4-1.8-4-4,1.8-4,4-4Z"/>
    <path class="st7" d="M202.6,192.4c2.2,0,4,1.8,4,4s-1.8,4-4,4-4-1.8-4-4,1.8-4,4-4Z"/>
    <path class="st7" d="M246.5,499.7c2.2,0,4,1.8,4,4s-1.8,4-4,4-4-1.8-4-4,1.8-4,4-4Z"/>
    <path class="st7" d="M246.5,455.2c2.2,0,4,1.8,4,4s-1.8,4-4,4-4-1.8-4-4,1.8-4,4-4Z"/>
    <path class="st7" d="M246.5,411.7c2.2,0,4,1.8,4,4s-1.8,4-4,4-4-1.8-4-4,1.8-4,4-4Z"/>
    <path class="st7" d="M246.5,367.7c2.2,0,4,1.8,4,4s-1.8,4-4,4-4-1.8-4-4,1.8-4,4-4Z"/>
    <path class="st7" d="M246.5,324.5c2.2,0,4,1.8,4,4s-1.8,4-4,4-4-1.8-4-4,1.8-4,4-4Z"/>
    <path class="st7" d="M246.5,279.9c2.2,0,4,1.8,4,4s-1.8,4-4,4-4-1.8-4-4,1.8-4,4-4Z"/>
    <path class="st7" d="M246.5,236.5c2.2,0,4,1.8,4,4s-1.8,4-4,4-4-1.8-4-4,1.8-4,4-4Z"/>
    <path class="st7" d="M246.5,192.4c2.2,0,4,1.8,4,4s-1.8,4-4,4-4-1.8-4-4,1.8-4,4-4Z"/>
    <path class="st7" d="M290.2,499.7c2.2,0,4,1.8,4,4s-1.8,4-4,4-4-1.8-4-4,1.8-4,4-4Z"/>
    <path class="st7" d="M290.2,455.2c2.2,0,4,1.8,4,4s-1.8,4-4,4-4-1.8-4-4,1.8-4,4-4Z"/>
    <path class="st7" d="M290.2,411.7c2.2,0,4,1.8,4,4s-1.8,4-4,4-4-1.8-4-4,1.8-4,4-4Z"/>
    <path class="st7" d="M290.2,367.7c2.2,0,4,1.8,4,4s-1.8,4-4,4-4-1.8-4-4,1.8-4,4-4Z"/>
    <path class="st7" d="M290.2,324.5c2.2,0,4,1.8,4,4s-1.8,4-4,4-4-1.8-4-4,1.8-4,4-4Z"/>
    <path class="st7" d="M290.2,279.9c2.2,0,4,1.8,4,4s-1.8,4-4,4-4-1.8-4-4,1.8-4,4-4Z"/>
    <path class="st7" d="M290.2,236.5c2.2,0,4,1.8,4,4s-1.8,4-4,4-4-1.8-4-4,1.8-4,4-4Z"/>
    <path class="st7" d="M290.2,192.4c2.2,0,4,1.8,4,4s-1.8,4-4,4-4-1.8-4-4,1.8-4,4-4Z"/>
    <path class="st7" d="M334.4,499.7c2.2,0,4,1.8,4,4s-1.8,4-4,4-4-1.8-4-4,1.8-4,4-4Z"/>
    <path class="st7" d="M334.4,455.2c2.2,0,4,1.8,4,4s-1.8,4-4,4-4-1.8-4-4,1.8-4,4-4Z"/>
    <path class="st7" d="M334.4,411.7c2.2,0,4,1.8,4,4s-1.8,4-4,4-4-1.8-4-4,1.8-4,4-4Z"/>
    <path class="st7" d="M334.4,367.7c2.2,0,4,1.8,4,4s-1.8,4-4,4-4-1.8-4-4,1.8-4,4-4Z"/>
    <path class="st7" d="M334.4,324.5c2.2,0,4,1.8,4,4s-1.8,4-4,4-4-1.8-4-4,1.8-4,4-4Z"/>
    <path class="st7" d="M334.4,279.9c2.2,0,4,1.8,4,4s-1.8,4-4,4-4-1.8-4-4,1.8-4,4-4Z"/>
    <path class="st7" d="M334.4,236.5c2.2,0,4,1.8,4,4s-1.8,4-4,4-4-1.8-4-4,1.8-4,4-4Z"/>
    <path class="st7" d="M334.4,192.4c2.2,0,4,1.8,4,4s-1.8,4-4,4-4-1.8-4-4,1.8-4,4-4Z"/>
    <path class="st7" d="M378.2,499.7c2.2,0,4,1.8,4,4s-1.8,4-4,4-4-1.8-4-4,1.8-4,4-4Z"/>
    <path class="st7" d="M378.2,455.2c2.2,0,4,1.8,4,4s-1.8,4-4,4-4-1.8-4-4,1.8-4,4-4Z"/>
    <path class="st7" d="M378.2,411.7c2.2,0,4,1.8,4,4s-1.8,4-4,4-4-1.8-4-4,1.8-4,4-4Z"/>
    <path class="st7" d="M378.2,367.7c2.2,0,4,1.8,4,4s-1.8,4-4,4-4-1.8-4-4,1.8-4,4-4Z"/>
    <path class="st7" d="M378.2,324.5c2.2,0,4,1.8,4,4s-1.8,4-4,4-4-1.8-4-4,1.8-4,4-4Z"/>
    <path class="st7" d="M378.2,279.9c2.2,0,4,1.8,4,4s-1.8,4-4,4-4-1.8-4-4,1.8-4,4-4Z"/>
    <path class="st7" d="M378.2,236.5c2.2,0,4,1.8,4,4s-1.8,4-4,4-4-1.8-4-4,1.8-4,4-4Z"/>
    <path class="st7" d="M378.2,192.4c2.2,0,4,1.8,4,4s-1.8,4-4,4-4-1.8-4-4,1.8-4,4-4Z"/>
    <path class="st7" d="M421.8,499.7c2.2,0,4,1.8,4,4s-1.8,4-4,4-4-1.8-4-4,1.8-4,4-4Z"/>
    <path class="st7" d="M421.8,455.2c2.2,0,4,1.8,4,4s-1.8,4-4,4-4-1.8-4-4,1.8-4,4-4Z"/>
    <path class="st7" d="M421.8,411.7c2.2,0,4,1.8,4,4s-1.8,4-4,4-4-1.8-4-4,1.8-4,4-4Z"/>
    <path class="st7" d="M421.8,367.7c2.2,0,4,1.8,4,4s-1.8,4-4,4-4-1.8-4-4,1.8-4,4-4Z"/>
    <path class="st7" d="M421.8,324.5c2.2,0,4,1.8,4,4s-1.8,4-4,4-4-1.8-4-4,1.8-4,4-4Z"/>
    <path class="st7" d="M421.8,279.9c2.2,0,4,1.8,4,4s-1.8,4-4,4-4-1.8-4-4,1.8-4,4-4Z"/>
    <path class="st7" d="M421.8,236.5c2.2,0,4,1.8,4,4s-1.8,4-4,4-4-1.8-4-4,1.8-4,4-4Z"/>
    <path class="st7" d="M421.8,192.4c2.2,0,4,1.8,4,4s-1.8,4-4,4-4-1.8-4-4,1.8-4,4-4Z"/>
    <path class="st7" d="M465.5,499.7c2.2,0,4,1.8,4,4s-1.8,4-4,4-4-1.8-4-4,1.8-4,4-4Z"/>
    <path class="st7" d="M465.5,455.2c2.2,0,4,1.8,4,4s-1.8,4-4,4-4-1.8-4-4,1.8-4,4-4Z"/>
    <path class="st7" d="M465.5,411.7c2.2,0,4,1.8,4,4s-1.8,4-4,4-4-1.8-4-4,1.8-4,4-4Z"/>
    <path class="st7" d="M465.5,367.7c2.2,0,4,1.8,4,4s-1.8,4-4,4-4-1.8-4-4,1.8-4,4-4Z"/>
    <path class="st7" d="M465.5,324.5c2.2,0,4,1.8,4,4s-1.8,4-4,4-4-1.8-4-4,1.8-4,4-4Z"/>
    <path class="st7" d="M465.5,279.9c2.2,0,4,1.8,4,4s-1.8,4-4,4-4-1.8-4-4,1.8-4,4-4Z"/>
    <path class="st7" d="M465.5,236.5c2.2,0,4,1.8,4,4s-1.8,4-4,4-4-1.8-4-4,1.8-4,4-4Z"/>
    <path class="st7" d="M465.5,192.4c2.2,0,4,1.8,4,4s-1.8,4-4,4-4-1.8-4-4,1.8-4,4-4Z"/>
    <path class="st7" d="M509.1,499.7c2.2,0,4,1.8,4,4s-1.8,4-4,4-4-1.8-4-4,1.8-4,4-4h0Z"/>
    <path class="st7" d="M509.1,455.2c2.2,0,4,1.8,4,4s-1.8,4-4,4-4-1.8-4-4,1.8-4,4-4h0Z"/>
    <path class="st7" d="M509.1,411.7c2.2,0,4,1.8,4,4s-1.8,4-4,4-4-1.8-4-4,1.8-4,4-4h0Z"/>
    <path class="st7" d="M509.1,367.7c2.2,0,4,1.8,4,4s-1.8,4-4,4-4-1.8-4-4,1.8-4,4-4h0Z"/>
    <path class="st7" d="M509.1,324.5c2.2,0,4,1.8,4,4s-1.8,4-4,4-4-1.8-4-4,1.8-4,4-4h0Z"/>
    <path class="st7" d="M509.1,279.9c2.2,0,4,1.8,4,4s-1.8,4-4,4-4-1.8-4-4,1.8-4,4-4h0Z"/>
    <path class="st7" d="M509.1,236.5c2.2,0,4,1.8,4,4s-1.8,4-4,4-4-1.8-4-4,1.8-4,4-4h0Z"/>
    <path class="st7" d="M509.1,192.4c2.2,0,4,1.8,4,4s-1.8,4-4,4-4-1.8-4-4,1.8-4,4-4h0Z"/>
    <path class="st7" d="M553,499.7c2.2,0,4,1.8,4,4s-1.8,4-4,4-4-1.8-4-4,1.8-4,4-4Z"/>
    <path class="st7" d="M553,455.2c2.2,0,4,1.8,4,4s-1.8,4-4,4-4-1.8-4-4,1.8-4,4-4Z"/>
    <path class="st7" d="M553,411.7c2.2,0,4,1.8,4,4s-1.8,4-4,4-4-1.8-4-4,1.8-4,4-4Z"/>
    <path class="st7" d="M553,367.7c2.2,0,4,1.8,4,4s-1.8,4-4,4-4-1.8-4-4,1.8-4,4-4Z"/>
    <path class="st7" d="M553,324.5c2.2,0,4,1.8,4,4s-1.8,4-4,4-4-1.8-4-4,1.8-4,4-4Z"/>
    <path class="st7" d="M553,279.9c2.2,0,4,1.8,4,4s-1.8,4-4,4-4-1.8-4-4,1.8-4,4-4Z"/>
    <path class="st7" d="M553,236.5c2.2,0,4,1.8,4,4s-1.8,4-4,4-4-1.8-4-4,1.8-4,4-4Z"/>
    <path class="st7" d="M553,192.4c2.2,0,4,1.8,4,4s-1.8,4-4,4-4-1.8-4-4,1.8-4,4-4Z"/>
    <path class="st7" d="M596.2,499.7c2.2,0,4,1.8,4,4s-1.8,4-4,4-4-1.8-4-4,1.8-4,4-4Z"/>
    <path class="st7" d="M596.2,455.2c2.2,0,4,1.8,4,4s-1.8,4-4,4-4-1.8-4-4,1.8-4,4-4Z"/>
    <path class="st7" d="M596.2,411.7c2.2,0,4,1.8,4,4s-1.8,4-4,4-4-1.8-4-4,1.8-4,4-4Z"/>
    <path class="st7" d="M596.2,367.7c2.2,0,4,1.8,4,4s-1.8,4-4,4-4-1.8-4-4,1.8-4,4-4Z"/>
    <path class="st7" d="M596.2,324.5c2.2,0,4,1.8,4,4s-1.8,4-4,4-4-1.8-4-4,1.8-4,4-4Z"/>
    <path class="st7" d="M596.2,279.9c2.2,0,4,1.8,4,4s-1.8,4-4,4-4-1.8-4-4,1.8-4,4-4Z"/>
    <path class="st7" d="M596.2,236.5c2.2,0,4,1.8,4,4s-1.8,4-4,4-4-1.8-4-4,1.8-4,4-4Z"/>
    <path class="st7" d="M596.2,192.4c2.2,0,4,1.8,4,4s-1.8,4-4,4-4-1.8-4-4,1.8-4,4-4Z"/>
    <path class="st7" d="M640.1,499.7c2.2,0,4,1.8,4,4s-1.8,4-4,4-4-1.8-4-4,1.8-4,4-4Z"/>
    <path class="st7" d="M640.1,455.2c2.2,0,4,1.8,4,4s-1.8,4-4,4-4-1.8-4-4,1.8-4,4-4Z"/>
    <path class="st7" d="M640.1,411.7c2.2,0,4,1.8,4,4s-1.8,4-4,4-4-1.8-4-4,1.8-4,4-4Z"/>
    <path class="st7" d="M640.1,367.7c2.2,0,4,1.8,4,4s-1.8,4-4,4-4-1.8-4-4,1.8-4,4-4Z"/>
    <path class="st7" d="M640.1,324.5c2.2,0,4,1.8,4,4s-1.8,4-4,4-4-1.8-4-4,1.8-4,4-4Z"/>
    <path class="st7" d="M640.1,279.9c2.2,0,4,1.8,4,4s-1.8,4-4,4-4-1.8-4-4,1.8-4,4-4Z"/>
    <path class="st7" d="M640.1,236.5c2.2,0,4,1.8,4,4s-1.8,4-4,4-4-1.8-4-4,1.8-4,4-4Z"/>
    <path class="st7" d="M640.1,192.4c2.2,0,4,1.8,4,4s-1.8,4-4,4-4-1.8-4-4,1.8-4,4-4Z"/>
    <path class="st7" d="M683.8,499.7c2.2,0,4,1.8,4,4s-1.8,4-4,4-4-1.8-4-4,1.8-4,4-4Z"/>
    <path class="st7" d="M683.8,455.2c2.2,0,4,1.8,4,4s-1.8,4-4,4-4-1.8-4-4,1.8-4,4-4Z"/>
    <path class="st7" d="M683.8,411.7c2.2,0,4,1.8,4,4s-1.8,4-4,4-4-1.8-4-4,1.8-4,4-4Z"/>
    <path class="st7" d="M683.8,367.7c2.2,0,4,1.8,4,4s-1.8,4-4,4-4-1.8-4-4,1.8-4,4-4Z"/>
    <path class="st7" d="M683.8,324.5c2.2,0,4,1.8,4,4s-1.8,4-4,4-4-1.8-4-4,1.8-4,4-4Z"/>
    <path class="st7" d="M683.8,279.9c2.2,0,4,1.8,4,4s-1.8,4-4,4-4-1.8-4-4,1.8-4,4-4Z"/>
    <path class="st7" d="M683.8,236.5c2.2,0,4,1.8,4,4s-1.8,4-4,4-4-1.8-4-4,1.8-4,4-4Z"/>
    <path class="st7" d="M683.8,192.4c2.2,0,4,1.8,4,4s-1.8,4-4,4-4-1.8-4-4,1.8-4,4-4Z"/>
    <path class="st7" d="M727.9,499.7c2.2,0,4,1.8,4,4s-1.8,4-4,4-4-1.8-4-4,1.8-4,4-4Z"/>
    <path class="st7" d="M727.9,455.2c2.2,0,4,1.8,4,4s-1.8,4-4,4-4-1.8-4-4,1.8-4,4-4Z"/>
    <path class="st7" d="M727.9,411.7c2.2,0,4,1.8,4,4s-1.8,4-4,4-4-1.8-4-4,1.8-4,4-4Z"/>
    <path class="st7" d="M727.9,367.7c2.2,0,4,1.8,4,4s-1.8,4-4,4-4-1.8-4-4,1.8-4,4-4Z"/>
    <path class="st7" d="M727.9,324.5c2.2,0,4,1.8,4,4s-1.8,4-4,4-4-1.8-4-4,1.8-4,4-4Z"/>
    <path class="st7" d="M727.9,279.9c2.2,0,4,1.8,4,4s-1.8,4-4,4-4-1.8-4-4,1.8-4,4-4Z"/>
    <path class="st7" d="M727.9,236.5c2.2,0,4,1.8,4,4s-1.8,4-4,4-4-1.8-4-4,1.8-4,4-4Z"/>
    <path class="st7" d="M727.9,192.4c2.2,0,4,1.8,4,4s-1.8,4-4,4-4-1.8-4-4,1.8-4,4-4Z"/>
    <path class="st7" d="M771.7,499.7c2.2,0,4,1.8,4,4s-1.8,4-4,4-4-1.8-4-4,1.8-4,4-4Z"/>
    <path class="st7" d="M771.7,455.2c2.2,0,4,1.8,4,4s-1.8,4-4,4-4-1.8-4-4,1.8-4,4-4Z"/>
    <path class="st7" d="M771.7,411.7c2.2,0,4,1.8,4,4s-1.8,4-4,4-4-1.8-4-4,1.8-4,4-4Z"/>
    <path class="st7" d="M771.7,367.7c2.2,0,4,1.8,4,4s-1.8,4-4,4-4-1.8-4-4,1.8-4,4-4Z"/>
    <path class="st7" d="M771.7,324.5c2.2,0,4,1.8,4,4s-1.8,4-4,4-4-1.8-4-4,1.8-4,4-4Z"/>
    <path class="st7" d="M771.7,279.9c2.2,0,4,1.8,4,4s-1.8,4-4,4-4-1.8-4-4,1.8-4,4-4Z"/>
    <path class="st7" d="M771.7,236.5c2.2,0,4,1.8,4,4s-1.8,4-4,4-4-1.8-4-4,1.8-4,4-4Z"/>
    <path class="st7" d="M771.7,192.4c2.2,0,4,1.8,4,4s-1.8,4-4,4-4-1.8-4-4,1.8-4,4-4Z"/>
    <path class="st7" d="M815.4,499.7c2.2,0,4,1.8,4,4s-1.8,4-4,4-4-1.8-4-4,1.8-4,4-4Z"/>
    <path class="st7" d="M815.4,455.2c2.2,0,4,1.8,4,4s-1.8,4-4,4-4-1.8-4-4,1.8-4,4-4Z"/>
    <path class="st7" d="M815.4,411.7c2.2,0,4,1.8,4,4s-1.8,4-4,4-4-1.8-4-4,1.8-4,4-4Z"/>
    <path class="st7" d="M815.4,367.7c2.2,0,4,1.8,4,4s-1.8,4-4,4-4-1.8-4-4,1.8-4,4-4Z"/>
    <path class="st7" d="M815.4,324.5c2.2,0,4,1.8,4,4s-1.8,4-4,4-4-1.8-4-4,1.8-4,4-4Z"/>
    <path class="st7" d="M815.4,279.9c2.2,0,4,1.8,4,4s-1.8,4-4,4-4-1.8-4-4,1.8-4,4-4Z"/>
    <path class="st7" d="M815.4,236.5c2.2,0,4,1.8,4,4s-1.8,4-4,4-4-1.8-4-4,1.8-4,4-4Z"/>
    <path class="st7" d="M815.4,192.4c2.2,0,4,1.8,4,4s-1.8,4-4,4-4-1.8-4-4,1.8-4,4-4Z"/>
    <path class="st7" d="M859.7,499.7c2.2,0,4,1.8,4,4s-1.8,4-4,4-4-1.8-4-4,1.8-4,4-4Z"/>
    <path class="st7" d="M859.7,455.2c2.2,0,4,1.8,4,4s-1.8,4-4,4-4-1.8-4-4,1.8-4,4-4Z"/>
    <path class="st7" d="M859.7,411.7c2.2,0,4,1.8,4,4s-1.8,4-4,4-4-1.8-4-4,1.8-4,4-4Z"/>
    <path class="st7" d="M859.7,367.7c2.2,0,4,1.8,4,4s-1.8,4-4,4-4-1.8-4-4,1.8-4,4-4Z"/>
    <path class="st7" d="M859.7,324.5c2.2,0,4,1.8,4,4s-1.8,4-4,4-4-1.8-4-4,1.8-4,4-4Z"/>
    <path class="st7" d="M859.7,279.9c2.2,0,4,1.8,4,4s-1.8,4-4,4-4-1.8-4-4,1.8-4,4-4Z"/>
    <path class="st7" d="M859.7,236.5c2.2,0,4,1.8,4,4s-1.8,4-4,4-4-1.8-4-4,1.8-4,4-4Z"/>
    <path class="st7" d="M859.7,192.4c2.2,0,4,1.8,4,4s-1.8,4-4,4-4-1.8-4-4,1.8-4,4-4Z"/>
    <path class="st7" d="M903.5,499.7c2.2,0,4,1.8,4,4s-1.8,4-4,4-4-1.8-4-4,1.8-4,4-4Z"/>
    <path class="st7" d="M903.5,455.2c2.2,0,4,1.8,4,4s-1.8,4-4,4-4-1.8-4-4,1.8-4,4-4Z"/>
    <path class="st7" d="M903.5,411.7c2.2,0,4,1.8,4,4s-1.8,4-4,4-4-1.8-4-4,1.8-4,4-4Z"/>
    <path class="st7" d="M903.5,367.7c2.2,0,4,1.8,4,4s-1.8,4-4,4-4-1.8-4-4,1.8-4,4-4Z"/>
    <path class="st7" d="M903.5,324.5c2.2,0,4,1.8,4,4s-1.8,4-4,4-4-1.8-4-4,1.8-4,4-4Z"/>
    <path class="st7" d="M903.5,279.9c2.2,0,4,1.8,4,4s-1.8,4-4,4-4-1.8-4-4,1.8-4,4-4Z"/>
    <path class="st7" d="M903.5,236.5c2.2,0,4,1.8,4,4s-1.8,4-4,4-4-1.8-4-4,1.8-4,4-4Z"/>
    <path class="st7" d="M903.5,192.4c2.2,0,4,1.8,4,4s-1.8,4-4,4-4-1.8-4-4,1.8-4,4-4Z"/>
    <path class="st7" d="M945.7,499.7c2.2,0,4,1.8,4,4s-1.8,4-4,4-4-1.8-4-4,1.8-4,4-4Z"/>
    <path class="st7" d="M945.7,455.2c2.2,0,4,1.8,4,4s-1.8,4-4,4-4-1.8-4-4,1.8-4,4-4Z"/>
    <path class="st7" d="M945.7,411.7c2.2,0,4,1.8,4,4s-1.8,4-4,4-4-1.8-4-4,1.8-4,4-4Z"/>
    <path class="st7" d="M945.7,367.7c2.2,0,4,1.8,4,4s-1.8,4-4,4-4-1.8-4-4,1.8-4,4-4Z"/>
    <path class="st7" d="M945.7,324.5c2.2,0,4,1.8,4,4s-1.8,4-4,4-4-1.8-4-4,1.8-4,4-4Z"/>
    <path class="st7" d="M945.7,279.9c2.2,0,4,1.8,4,4s-1.8,4-4,4-4-1.8-4-4,1.8-4,4-4Z"/>
    <path class="st7" d="M945.7,236.5c2.2,0,4,1.8,4,4s-1.8,4-4,4-4-1.8-4-4,1.8-4,4-4Z"/>
    <path class="st7" d="M945.7,192.4c2.2,0,4,1.8,4,4s-1.8,4-4,4-4-1.8-4-4,1.8-4,4-4Z"/>
    <path class="st7" d="M989.6,499.7c2.2,0,4,1.8,4,4s-1.8,4-4,4-4-1.8-4-4,1.8-4,4-4Z"/>
    <path class="st7" d="M989.6,455.2c2.2,0,4,1.8,4,4s-1.8,4-4,4-4-1.8-4-4,1.8-4,4-4Z"/>
    <path class="st7" d="M989.6,411.7c2.2,0,4,1.8,4,4s-1.8,4-4,4-4-1.8-4-4,1.8-4,4-4Z"/>
    <path class="st7" d="M989.6,367.7c2.2,0,4,1.8,4,4s-1.8,4-4,4-4-1.8-4-4,1.8-4,4-4Z"/>
    <path class="st7" d="M989.6,324.5c2.2,0,4,1.8,4,4s-1.8,4-4,4-4-1.8-4-4,1.8-4,4-4Z"/>
    <path class="st7" d="M989.6,279.9c2.2,0,4,1.8,4,4s-1.8,4-4,4-4-1.8-4-4,1.8-4,4-4Z"/>
    <path class="st7" d="M989.6,236.5c2.2,0,4,1.8,4,4s-1.8,4-4,4-4-1.8-4-4,1.8-4,4-4Z"/>
    <path class="st7" d="M989.6,192.4c2.2,0,4,1.8,4,4s-1.8,4-4,4-4-1.8-4-4,1.8-4,4-4Z"/>
    <path class="st7" d="M1032.8,499.7c2.2,0,4,1.8,4,4s-1.8,4-4,4-4-1.8-4-4,1.8-4,4-4Z"/>
    <path class="st7" d="M1032.8,455.2c2.2,0,4,1.8,4,4s-1.8,4-4,4-4-1.8-4-4,1.8-4,4-4Z"/>
    <path class="st7" d="M1032.8,411.7c2.2,0,4,1.8,4,4s-1.8,4-4,4-4-1.8-4-4,1.8-4,4-4Z"/>
    <path class="st7" d="M1032.8,367.7c2.2,0,4,1.8,4,4s-1.8,4-4,4-4-1.8-4-4,1.8-4,4-4Z"/>
    <path class="st7" d="M1032.8,324.5c2.2,0,4,1.8,4,4s-1.8,4-4,4-4-1.8-4-4,1.8-4,4-4Z"/>
    <path class="st7" d="M1032.8,279.9c2.2,0,4,1.8,4,4s-1.8,4-4,4-4-1.8-4-4,1.8-4,4-4Z"/>
    <path class="st7" d="M1032.8,236.5c2.2,0,4,1.8,4,4s-1.8,4-4,4-4-1.8-4-4,1.8-4,4-4Z"/>
    <path class="st7" d="M1032.8,192.4c2.2,0,4,1.8,4,4s-1.8,4-4,4-4-1.8-4-4,1.8-4,4-4Z"/>
    <path class="st7" d="M1076.7,499.7c2.2,0,4,1.8,4,4s-1.8,4-4,4-4-1.8-4-4,1.8-4,4-4Z"/>
    <path class="st7" d="M1076.7,455.2c2.2,0,4,1.8,4,4s-1.8,4-4,4-4-1.8-4-4,1.8-4,4-4Z"/>
    <path class="st7" d="M1076.7,411.7c2.2,0,4,1.8,4,4s-1.8,4-4,4-4-1.8-4-4,1.8-4,4-4Z"/>
    <path class="st7" d="M1076.7,367.7c2.2,0,4,1.8,4,4s-1.8,4-4,4-4-1.8-4-4,1.8-4,4-4Z"/>
    <path class="st7" d="M1076.7,324.5c2.2,0,4,1.8,4,4s-1.8,4-4,4-4-1.8-4-4,1.8-4,4-4Z"/>
    <path class="st7" d="M1076.7,279.9c2.2,0,4,1.8,4,4s-1.8,4-4,4-4-1.8-4-4,1.8-4,4-4Z"/>
    <path class="st7" d="M1076.7,236.5c2.2,0,4,1.8,4,4s-1.8,4-4,4-4-1.8-4-4,1.8-4,4-4Z"/>
    <path class="st7" d="M1076.7,192.4c2.2,0,4,1.8,4,4s-1.8,4-4,4-4-1.8-4-4,1.8-4,4-4Z"/>
    <path class="st7" d="M1120.5,499.7c2.2,0,4,1.8,4,4s-1.8,4-4,4-4-1.8-4-4,1.8-4,4-4Z"/>
    <path class="st7" d="M1120.5,455.2c2.2,0,4,1.8,4,4s-1.8,4-4,4-4-1.8-4-4,1.8-4,4-4Z"/>
    <path class="st7" d="M1120.5,411.7c2.2,0,4,1.8,4,4s-1.8,4-4,4-4-1.8-4-4,1.8-4,4-4Z"/>
    <path class="st7" d="M1120.5,367.7c2.2,0,4,1.8,4,4s-1.8,4-4,4-4-1.8-4-4,1.8-4,4-4Z"/>
    <path class="st7" d="M1120.5,324.5c2.2,0,4,1.8,4,4s-1.8,4-4,4-4-1.8-4-4,1.8-4,4-4Z"/>
    <path class="st7" d="M1120.5,279.9c2.2,0,4,1.8,4,4s-1.8,4-4,4-4-1.8-4-4,1.8-4,4-4Z"/>
    <path class="st7" d="M1120.5,236.5c2.2,0,4,1.8,4,4s-1.8,4-4,4-4-1.8-4-4,1.8-4,4-4Z"/>
    <path class="st7" d="M1120.5,192.4c2.2,0,4,1.8,4,4s-1.8,4-4,4-4-1.8-4-4,1.8-4,4-4Z"/>
    <path class="st7" d="M1164.6,499.7c2.2,0,4,1.8,4,4s-1.8,4-4,4-4-1.8-4-4,1.8-4,4-4Z"/>
    <path class="st7" d="M1164.6,455.2c2.2,0,4,1.8,4,4s-1.8,4-4,4-4-1.8-4-4,1.8-4,4-4Z"/>
    <path class="st7" d="M1164.6,411.7c2.2,0,4,1.8,4,4s-1.8,4-4,4-4-1.8-4-4,1.8-4,4-4Z"/>
    <path class="st7" d="M1164.6,367.7c2.2,0,4,1.8,4,4s-1.8,4-4,4-4-1.8-4-4,1.8-4,4-4Z"/>
    <path class="st7" d="M1164.6,324.5c2.2,0,4,1.8,4,4s-1.8,4-4,4-4-1.8-4-4,1.8-4,4-4Z"/>
    <path class="st7" d="M1164.6,279.9c2.2,0,4,1.8,4,4s-1.8,4-4,4-4-1.8-4-4,1.8-4,4-4Z"/>
    <path class="st7" d="M1164.6,236.5c2.2,0,4,1.8,4,4s-1.8,4-4,4-4-1.8-4-4,1.8-4,4-4Z"/>
    <path class="st7" d="M1164.6,192.4c2.2,0,4,1.8,4,4s-1.8,4-4,4-4-1.8-4-4,1.8-4,4-4Z"/>
    <path class="st7" d="M1208.4,499.7c2.2,0,4,1.8,4,4s-1.8,4-4,4-4-1.8-4-4,1.8-4,4-4Z"/>
    <path class="st7" d="M1208.4,455.2c2.2,0,4,1.8,4,4s-1.8,4-4,4-4-1.8-4-4,1.8-4,4-4Z"/>
    <path class="st7" d="M1208.4,411.7c2.2,0,4,1.8,4,4s-1.8,4-4,4-4-1.8-4-4,1.8-4,4-4Z"/>
    <path class="st7" d="M1208.4,367.7c2.2,0,4,1.8,4,4s-1.8,4-4,4-4-1.8-4-4,1.8-4,4-4Z"/>
    <path class="st7" d="M1208.4,324.5c2.2,0,4,1.8,4,4s-1.8,4-4,4-4-1.8-4-4,1.8-4,4-4Z"/>
    <path class="st7" d="M1208.4,279.9c2.2,0,4,1.8,4,4s-1.8,4-4,4-4-1.8-4-4,1.8-4,4-4Z"/>
    <path class="st7" d="M1208.4,236.5c2.2,0,4,1.8,4,4s-1.8,4-4,4-4-1.8-4-4,1.8-4,4-4Z"/>
    <path class="st7" d="M1208.4,192.4c2.2,0,4,1.8,4,4s-1.8,4-4,4-4-1.8-4-4,1.8-4,4-4Z"/>
    <path class="st7" d="M1252.1,499.7c2.2,0,4,1.8,4,4s-1.8,4-4,4-4-1.8-4-4,1.8-4,4-4Z"/>
    <path class="st7" d="M71.9,545.5c2.2,0,4,1.8,4,4s-1.8,4-4,4-4-1.8-4-4,1.8-4,4-4Z"/>
    <path class="st7" d="M27.9,545.5c2.2,0,4,1.8,4,4s-1.8,4-4,4-4-1.8-4-4,1.8-4,4-4Z"/>
    <path class="st7" d="M115.5,545.5c2.2,0,4,1.8,4,4s-1.8,4-4,4-4-1.8-4-4,1.8-4,4-4Z"/>
    <path class="st7" d="M159.4,545.5c2.2,0,4,1.8,4,4s-1.8,4-4,4-4-1.8-4-4,1.8-4,4-4Z"/>
    <path class="st7" d="M202.6,545.5c2.2,0,4,1.8,4,4s-1.8,4-4,4-4-1.8-4-4,1.8-4,4-4Z"/>
    <path class="st7" d="M246.5,545.5c2.2,0,4,1.8,4,4s-1.8,4-4,4-4-1.8-4-4,1.8-4,4-4Z"/>
    <path class="st7" d="M290.2,545.5c2.2,0,4,1.8,4,4s-1.8,4-4,4-4-1.8-4-4,1.8-4,4-4Z"/>
    <path class="st7" d="M334.4,545.5c2.2,0,4,1.8,4,4s-1.8,4-4,4-4-1.8-4-4,1.8-4,4-4Z"/>
    <path class="st7" d="M378.2,545.5c2.2,0,4,1.8,4,4s-1.8,4-4,4-4-1.8-4-4,1.8-4,4-4Z"/>
    <path class="st7" d="M421.8,545.5c2.2,0,4,1.8,4,4s-1.8,4-4,4-4-1.8-4-4,1.8-4,4-4Z"/>
    <path class="st7" d="M465.5,545.5c2.2,0,4,1.8,4,4s-1.8,4-4,4-4-1.8-4-4,1.8-4,4-4Z"/>
    <path class="st7" d="M509.1,545.5c2.2,0,4,1.8,4,4s-1.8,4-4,4-4-1.8-4-4,1.8-4,4-4h0Z"/>
    <path class="st7" d="M553,545.5c2.2,0,4,1.8,4,4s-1.8,4-4,4-4-1.8-4-4,1.8-4,4-4Z"/>
    <path class="st7" d="M596.2,545.5c2.2,0,4,1.8,4,4s-1.8,4-4,4-4-1.8-4-4,1.8-4,4-4Z"/>
    <path class="st7" d="M640.1,545.5c2.2,0,4,1.8,4,4s-1.8,4-4,4-4-1.8-4-4,1.8-4,4-4Z"/>
    <path class="st7" d="M683.8,545.5c2.2,0,4,1.8,4,4s-1.8,4-4,4-4-1.8-4-4,1.8-4,4-4Z"/>
    <path class="st7" d="M727.9,545.5c2.2,0,4,1.8,4,4s-1.8,4-4,4-4-1.8-4-4,1.8-4,4-4Z"/>
    <path class="st7" d="M771.7,545.5c2.2,0,4,1.8,4,4s-1.8,4-4,4-4-1.8-4-4,1.8-4,4-4Z"/>
    <path class="st7" d="M815.4,545.5c2.2,0,4,1.8,4,4s-1.8,4-4,4-4-1.8-4-4,1.8-4,4-4Z"/>
    <path class="st7" d="M859.7,545.5c2.2,0,4,1.8,4,4s-1.8,4-4,4-4-1.8-4-4,1.8-4,4-4Z"/>
    <path class="st7" d="M903.5,545.5c2.2,0,4,1.8,4,4s-1.8,4-4,4-4-1.8-4-4,1.8-4,4-4Z"/>
    <path class="st7" d="M945.7,545.5c2.2,0,4,1.8,4,4s-1.8,4-4,4-4-1.8-4-4,1.8-4,4-4Z"/>
    <path class="st7" d="M989.6,545.5c2.2,0,4,1.8,4,4s-1.8,4-4,4-4-1.8-4-4,1.8-4,4-4Z"/>
    <path class="st7" d="M1032.8,545.5c2.2,0,4,1.8,4,4s-1.8,4-4,4-4-1.8-4-4,1.8-4,4-4Z"/>
    <path class="st7" d="M1076.7,545.5c2.2,0,4,1.8,4,4s-1.8,4-4,4-4-1.8-4-4,1.8-4,4-4Z"/>
    <path class="st7" d="M1120.5,545.5c2.2,0,4,1.8,4,4s-1.8,4-4,4-4-1.8-4-4,1.8-4,4-4Z"/>
    <path class="st7" d="M1164.6,545.5c2.2,0,4,1.8,4,4s-1.8,4-4,4-4-1.8-4-4,1.8-4,4-4Z"/>
    <path class="st7" d="M1208.4,545.5c2.2,0,4,1.8,4,4s-1.8,4-4,4-4-1.8-4-4,1.8-4,4-4Z"/>
    <path class="st7" d="M1252.1,545.5c2.2,0,4,1.8,4,4s-1.8,4-4,4-4-1.8-4-4,1.8-4,4-4Z"/>
    <path class="st7" d="M1252.1,455.2c2.2,0,4,1.8,4,4s-1.8,4-4,4-4-1.8-4-4,1.8-4,4-4Z"/>
    <path class="st7" d="M1252.1,411.7c2.2,0,4,1.8,4,4s-1.8,4-4,4-4-1.8-4-4,1.8-4,4-4Z"/>
    <path class="st7" d="M1252.1,367.7c2.2,0,4,1.8,4,4s-1.8,4-4,4-4-1.8-4-4,1.8-4,4-4Z"/>
    <path class="st7" d="M1252.1,324.5c2.2,0,4,1.8,4,4s-1.8,4-4,4-4-1.8-4-4,1.8-4,4-4Z"/>
    <path class="st7" d="M1252.1,279.9c2.2,0,4,1.8,4,4s-1.8,4-4,4-4-1.8-4-4,1.8-4,4-4Z"/>
    <path class="st7" d="M1252.1,236.5c2.2,0,4,1.8,4,4s-1.8,4-4,4-4-1.8-4-4,1.8-4,4-4Z"/>
    <path class="st7" d="M1252.1,192.4c2.2,0,4,1.8,4,4s-1.8,4-4,4-4-1.8-4-4,1.8-4,4-4Z"/>
  </g>
  <g class="st1">
    <g class="st1">
      <path class="st9" d="M307,72.6v-39.6h30.8v8h-20.5v8h16.3v7.5h-16.3v8.1h21.3v8h-31.6Z"/>
      <path class="st9" d="M356.7,73.2c-3,0-5.8-.5-8.3-1.5-2.6-1-4.7-2.4-6.4-4.2l4.8-5.6c1,1.3,2.3,2.4,4,3.2,1.7.9,3.5,1.3,5.5,1.3s2.3-.2,3.1-.5c.8-.4,1.2-.9,1.2-1.7s-.2-1-.6-1.3c-.4-.4-1.2-.7-2.4-.9l-4.2-.8c-3.8-.8-6.4-1.9-8-3.4-1.6-1.5-2.4-3.5-2.4-5.9s.5-3.2,1.5-4.7c1-1.5,2.5-2.7,4.6-3.7,2.1-1,4.7-1.4,8-1.4,6.2,0,10.7,1.7,13.6,5.2l-4.9,5.5c-1-1.2-2.2-2.1-3.7-2.8-1.5-.7-3-1-4.6-1-2.9,0-4.4.7-4.4,2.2s.2,1,.8,1.4c.5.4,1.4.7,2.8,1l5.5,1.1c3.1.6,5.3,1.6,6.7,3.1,1.4,1.5,2,3.2,2,5.3s-1.2,5.4-3.5,7.3c-2.3,2-5.9,3-10.6,3Z"/>
      <path class="st9" d="M394.5,65.9c3.5,0,6.1.7,8,2.2,1.9,1.5,2.8,3.5,2.8,6.3s-1.5,6.5-4.5,8.4c-3,1.8-7,2.7-12,2.7s-9.4-.7-11.8-2c-2.4-1.4-3.6-3.2-3.6-5.5s.5-2.5,1.4-3.5,2.3-1.6,4.4-2c-2.9-1.1-4.4-3.1-4.4-6.1s.4-2.6,1.3-3.7c.8-1.1,2-1.8,3.5-2.3-3.2-1.8-4.8-4.5-4.8-8.2s1.3-5.7,3.8-7.5c2.5-1.8,6.1-2.7,10.7-2.7s4.4.2,6.3.7c.2-1.4.6-2.8,1.2-4,.7-1.2,1.6-2.2,2.8-3,1.2-.8,2.6-1.2,4.4-1.2s.3,0,.4,0c.2,0,.3,0,.5,0l.8,6.8c-.4-.1-.9-.2-1.4-.2-1.4,0-2.5.3-3.4.8-.8.6-1.4,1.3-1.7,2.2,3,1.8,4.5,4.4,4.5,8s-1.3,5.7-3.8,7.5c-2.5,1.8-6.1,2.6-10.6,2.6s-4-.2-5.6-.5c-1.3.4-2,1.1-2,2.1s1.1,2,3.4,2h9.5ZM388.8,78.9c2.9,0,5-.3,6.4-.9,1.4-.6,2.1-1.3,2.1-2.2s-.2-1.1-.7-1.4c-.5-.3-1.3-.5-2.4-.5h-10.7c-.8,0-1.4.2-1.8.6-.5.4-.7.9-.7,1.5,0,.9.7,1.6,2,2.1,1.4.5,3.3.8,5.7.8ZM389.2,47.8c-1.3,0-2.4.4-3.2,1.1-.8.8-1.2,1.8-1.2,3.2s.4,2.4,1.2,3.2c.8.8,1.9,1.1,3.2,1.1s2.3-.4,3.2-1.1c.8-.8,1.3-1.8,1.3-3.2s-.4-2.5-1.3-3.2c-.8-.8-1.9-1.1-3.2-1.1Z"/>
      <path class="st9" d="M423.6,42c3.2,0,5.9.6,8.3,1.9,2.4,1.2,4.2,3,5.6,5.3,1.3,2.3,2,5.1,2,8.4s-.7,6.1-2,8.4c-1.3,2.3-3.2,4.1-5.6,5.3-2.4,1.2-5.2,1.9-8.3,1.9s-5.9-.6-8.2-1.9c-2.4-1.2-4.2-3-5.6-5.3-1.3-2.3-2-5.1-2-8.4s.7-6.1,2-8.4c1.3-2.3,3.2-4.1,5.6-5.3,2.4-1.2,5.1-1.9,8.2-1.9ZM423.6,49.3c-1.8,0-3.1.7-4.1,2-1,1.3-1.5,3.4-1.5,6.4s.5,5,1.5,6.4c1,1.3,2.3,2,4.1,2s3.2-.7,4.2-2c1-1.3,1.5-3.4,1.5-6.4s-.5-5.1-1.5-6.4c-1-1.3-2.4-2-4.2-2Z"/>
      <path class="st9" d="M466.5,42.6v7.3h-8.9v12.1c0,1.4.3,2.5,1,3.1.7.6,1.7.9,2.9.9s1.8-.1,2.5-.3c.7-.2,1.3-.5,1.9-1l1.1,6.3c-1,.7-2.3,1.2-3.8,1.6-1.5.4-3.1.6-4.6.6-3.4,0-6.2-.7-8.1-2.2-2-1.5-3-3.9-3-7.4v-13.7h-5.2v-7.3h5.2v-6.7l10.2-2.8v9.5h8.9Z"/>
      <path class="st9" d="M488.5,53.6c0-1.4-.4-2.5-1.2-3.3-.8-.8-1.8-1.2-3.1-1.2s-2.5.3-3.4,1c-.9.7-1.6,1.8-1.9,3.5l-8.6-2c.6-2.9,2-5.2,4.4-6.9s5.8-2.6,10.1-2.6,7.8,1,10.2,2.9c2.4,1.9,3.6,4.8,3.6,8.5v11c0,1.6.7,2.3,2.1,2.3s1.3,0,1.7-.2l-.6,5.8c-1.2.6-2.7.8-4.4.8s-3.5-.4-4.9-1.1c-1.4-.7-2.3-1.9-2.8-3.4-.8,1.6-2.2,2.7-4,3.5-1.8.7-3.8,1.1-5.8,1.1-3.1,0-5.5-.7-7.4-2.1-1.8-1.4-2.7-3.5-2.7-6.1s.6-4,2-5.4c1.3-1.4,3.3-2.4,6.1-3l10.4-2.2v-.8ZM480.1,64c0,.9.3,1.5,1,2,.6.4,1.4.7,2.3.7,1.4,0,2.6-.4,3.6-1.2,1-.8,1.6-2.1,1.6-3.9v-1.7l-4.9,1c-1.2.2-2.1.6-2.7,1-.6.5-.9,1.2-.9,2.1Z"/>
      <path class="st9" d="M506.5,72.6v-30h9.1l.3,5.8c1-2.1,2.3-3.7,4-4.8,1.7-1.1,3.8-1.6,6-1.6s4.1.5,5.8,1.5c1.7,1,2.9,2.5,3.7,4.4.9-2,2.3-3.4,4.1-4.4,1.8-1,3.8-1.5,6-1.5s5.4.9,7.3,2.7c1.9,1.8,2.9,4.4,2.9,7.9v20h-10.2v-17.6c0-1.9-.4-3.3-1.1-4-.8-.8-1.7-1.1-2.9-1.1s-2.8.6-3.8,1.7c-1,1.1-1.5,2.8-1.5,5.1v16h-10.2v-17.6c0-1.9-.4-3.3-1.1-4-.8-.8-1.7-1.1-2.9-1.1s-2.6.5-3.7,1.6c-1.1,1.1-1.6,2.9-1.6,5.3v15.8h-10.2Z"/>
      <path class="st9" d="M577.6,73.2c-5,0-9-1.4-11.8-4.1-2.9-2.7-4.4-6.6-4.4-11.5s.7-6.1,2-8.4c1.3-2.3,3.2-4.1,5.5-5.3,2.3-1.2,5.1-1.8,8.2-1.8s5.9.6,8.1,1.8c2.2,1.2,3.9,2.9,5.1,5,1.2,2.1,1.7,4.6,1.7,7.4s0,1.5,0,2.2c0,.7-.1,1.3-.1,1.8h-20.5c.3,2.1,1,3.6,2,4.5,1.1.9,2.5,1.4,4.3,1.4s2.7-.3,3.6-.9c.9-.6,1.6-1.4,2-2.5l8.2,2.7c-.6,1.7-1.5,3.2-2.9,4.4s-3,2.1-4.9,2.7c-1.9.6-3.9.9-6,.9ZM577.1,49.1c-3.2,0-5.2,1.9-5.8,5.6h11c-.4-3.7-2.2-5.6-5.2-5.6Z"/>
      <path class="st9" d="M597.7,72.6v-30h9.1l.3,6.1c.9-2.2,2.3-3.9,4-5,1.8-1.1,3.8-1.7,6.2-1.7s5.6.9,7.5,2.7c1.9,1.8,2.9,4.4,2.9,7.9v20h-10.2v-17.3c0-2.1-.4-3.5-1.2-4.3-.8-.8-1.8-1.2-3.1-1.2s-2.8.5-3.8,1.6c-1.1,1-1.6,2.8-1.6,5.3v15.9h-10.2Z"/>
      <path class="st9" d="M656.2,42.6v7.3h-8.9v12.1c0,1.4.3,2.5,1,3.1.7.6,1.7.9,2.9.9s1.8-.1,2.5-.3c.7-.2,1.3-.5,1.9-1l1.1,6.3c-1,.7-2.3,1.2-3.8,1.6s-3.1.6-4.6.6c-3.4,0-6.2-.7-8.1-2.2-2-1.5-3-3.9-3-7.4v-13.7h-5.2v-7.3h5.2v-6.7l10.2-2.8v9.5h8.9Z"/>
      <path class="st9" d="M675.2,42c3.2,0,5.9.6,8.3,1.9,2.4,1.2,4.2,3,5.6,5.3,1.3,2.3,2,5.1,2,8.4s-.7,6.1-2,8.4c-1.3,2.3-3.2,4.1-5.6,5.3-2.4,1.2-5.2,1.9-8.3,1.9s-5.9-.6-8.2-1.9c-2.4-1.2-4.2-3-5.6-5.3-1.3-2.3-2-5.1-2-8.4s.7-6.1,2-8.4c1.3-2.3,3.2-4.1,5.6-5.3,2.4-1.2,5.1-1.9,8.2-1.9ZM675.2,49.3c-1.8,0-3.1.7-4.1,2-1,1.3-1.5,3.4-1.5,6.4s.5,5,1.5,6.4c1,1.3,2.3,2,4.1,2s3.2-.7,4.2-2c1-1.3,1.5-3.4,1.5-6.4s-.5-5.1-1.5-6.4-2.4-2-4.2-2Z"/>
      <path class="st9" d="M726.6,73.2c-3,0-5.8-.5-8.3-1.5s-4.7-2.4-6.4-4.2l4.8-5.6c1,1.3,2.3,2.4,4,3.2,1.7.9,3.5,1.3,5.5,1.3s2.3-.2,3.1-.5c.8-.4,1.2-.9,1.2-1.7s-.2-1-.6-1.3c-.4-.4-1.2-.7-2.4-.9l-4.2-.8c-3.8-.8-6.4-1.9-8-3.4-1.6-1.5-2.4-3.5-2.4-5.9s.5-3.2,1.5-4.7c1-1.5,2.5-2.7,4.6-3.7,2.1-1,4.7-1.4,8-1.4,6.2,0,10.7,1.7,13.6,5.2l-4.9,5.5c-1-1.2-2.2-2.1-3.7-2.8-1.5-.7-3-1-4.6-1-2.9,0-4.4.7-4.4,2.2s.2,1,.8,1.4c.5.4,1.4.7,2.8,1l5.5,1.1c3.1.6,5.3,1.6,6.7,3.1,1.4,1.5,2,3.2,2,5.3s-1.2,5.4-3.5,7.3c-2.3,2-5.9,3-10.6,3Z"/>
      <path class="st9" d="M762.7,53.6c0-1.4-.4-2.5-1.2-3.3-.8-.8-1.8-1.2-3.1-1.2s-2.5.3-3.4,1c-.9.7-1.6,1.8-1.9,3.5l-8.6-2c.6-2.9,2-5.2,4.4-6.9,2.4-1.7,5.8-2.6,10.1-2.6s7.8,1,10.2,2.9c2.4,1.9,3.6,4.8,3.6,8.5v11c0,1.6.7,2.3,2.1,2.3s1.3,0,1.7-.2l-.6,5.8c-1.2.6-2.7.8-4.4.8s-3.5-.4-4.9-1.1c-1.4-.7-2.3-1.9-2.8-3.4-.8,1.6-2.2,2.7-4,3.5-1.8.7-3.8,1.1-5.8,1.1-3.1,0-5.5-.7-7.4-2.1-1.8-1.4-2.7-3.5-2.7-6.1s.6-4,2-5.4c1.3-1.4,3.3-2.4,6.1-3l10.4-2.2v-.8ZM754.3,64c0,.9.3,1.5,1,2,.6.4,1.4.7,2.3.7,1.4,0,2.6-.4,3.6-1.2,1-.8,1.6-2.1,1.6-3.9v-1.7l-4.9,1c-1.2.2-2.1.6-2.7,1-.6.5-.9,1.2-.9,2.1Z"/>
      <path class="st9" d="M780.7,72.6v-30h9.1l.3,6.1c.9-2.2,2.3-3.9,4-5,1.8-1.1,3.8-1.7,6.2-1.7s5.6.9,7.5,2.7c1.9,1.8,2.9,4.4,2.9,7.9v20h-10.2v-17.3c0-2.1-.4-3.5-1.2-4.3-.8-.8-1.8-1.2-3.1-1.2s-2.8.5-3.8,1.6c-1.1,1-1.6,2.8-1.6,5.3v15.9h-10.2Z"/>
      <path class="st9" d="M823,39.1c-2.1,0-3.6-.4-4.5-1.2-.9-.8-1.4-2-1.4-3.7s.5-3,1.4-3.8c.9-.8,2.5-1.2,4.5-1.2s3.5.4,4.5,1.2,1.4,2,1.4,3.8-.5,2.9-1.4,3.7c-1,.8-2.5,1.2-4.5,1.2ZM828.1,42.6v30h-10.2v-30h10.2Z"/>
      <path class="st9" d="M856.9,42.6v7.3h-8.9v12.1c0,1.4.3,2.5,1,3.1.7.6,1.7.9,2.9.9s1.8-.1,2.5-.3c.7-.2,1.3-.5,1.9-1l1.1,6.3c-1,.7-2.3,1.2-3.8,1.6s-3.1.6-4.6.6c-3.4,0-6.2-.7-8.1-2.2-2-1.5-3-3.9-3-7.4v-13.7h-5.2v-7.3h5.2v-6.7l10.2-2.8v9.5h8.9Z"/>
      <path class="st9" d="M878.8,53.6c0-1.4-.4-2.5-1.2-3.3-.8-.8-1.8-1.2-3.2-1.2s-2.5.3-3.4,1c-.9.7-1.6,1.8-2,3.5l-8.6-2c.6-2.9,2-5.2,4.4-6.9,2.4-1.7,5.8-2.6,10.1-2.6s7.8,1,10.2,2.9c2.4,1.9,3.6,4.8,3.6,8.5v11c0,1.6.7,2.3,2.1,2.3s1.3,0,1.7-.2l-.6,5.8c-1.2.6-2.7.8-4.4.8s-3.5-.4-4.9-1.1c-1.4-.7-2.3-1.9-2.8-3.4-.8,1.6-2.2,2.7-4,3.5-1.8.7-3.8,1.1-5.8,1.1-3.1,0-5.5-.7-7.3-2.1-1.8-1.4-2.7-3.5-2.7-6.1s.7-4,2-5.4,3.3-2.4,6.2-3l10.4-2.2v-.8ZM874.5,28.3h9.5l-6.1,10.4h-7.4l4-10.4ZM870.4,64c0,.9.3,1.5,1,2,.6.4,1.4.7,2.3.7,1.4,0,2.6-.4,3.6-1.2,1-.8,1.6-2.1,1.6-3.9v-1.7l-4.9,1c-1.2.2-2.1.6-2.7,1-.6.5-.9,1.2-.9,2.1Z"/>
      <path class="st9" d="M896.8,72.6v-30h9l.4,6.5c.7-2.2,1.8-3.9,3.3-5.2s3.4-1.9,5.8-1.9,1.4,0,1.9.2c.5.1,1,.3,1.3.4l-1,8.4c-.4-.1-.9-.2-1.5-.4-.6-.1-1.4-.2-2.2-.2-1.8,0-3.4.6-4.8,1.7-1.3,1.2-2,2.9-2,5.2v15.1h-10.2Z"/>
      <path class="st9" d="M927.7,39.1c-2.1,0-3.6-.4-4.5-1.2-.9-.8-1.4-2-1.4-3.7s.5-3,1.4-3.8c.9-.8,2.4-1.2,4.5-1.2s3.5.4,4.5,1.2c1,.8,1.4,2,1.4,3.8s-.5,2.9-1.4,3.7c-1,.8-2.5,1.2-4.5,1.2ZM932.8,42.6v30h-10.2v-30h10.2Z"/>
      <path class="st9" d="M954.4,42c3.2,0,5.9.6,8.3,1.9,2.4,1.2,4.2,3,5.6,5.3,1.3,2.3,2,5.1,2,8.4s-.7,6.1-2,8.4c-1.3,2.3-3.2,4.1-5.6,5.3-2.4,1.2-5.2,1.9-8.3,1.9s-5.9-.6-8.2-1.9c-2.4-1.2-4.2-3-5.6-5.3-1.3-2.3-2-5.1-2-8.4s.7-6.1,2-8.4c1.3-2.3,3.2-4.1,5.6-5.3,2.4-1.2,5.1-1.9,8.2-1.9ZM954.4,49.3c-1.8,0-3.1.7-4.1,2-1,1.3-1.5,3.4-1.5,6.4s.5,5,1.5,6.4c1,1.3,2.3,2,4.1,2s3.2-.7,4.2-2c1-1.3,1.5-3.4,1.5-6.4s-.5-5.1-1.5-6.4-2.4-2-4.2-2Z"/>
    </g>
  </g>
  <g class="st1">
    <g class="st1">
      <path class="st9" d="M297.1,247v-4.5h-8.2v-2.1l8.6-12.2h1.9v12.2h2.6v2.1h-2.6v4.5h-2.3ZM297.1,240.3v-8.5l-5.9,8.5h5.9Z"/>
      <path class="st9" d="M305.6,247v-2.6h2.6v2.6c0,1-.2,1.8-.5,2.4s-.9,1.1-1.6,1.4l-.6-1c.5-.2.9-.5,1.1-.9.2-.4.4-1,.4-1.8h-1.3Z"/>
      <path class="st9" d="M323.8,232.7l-2.3.2c-.2-.9-.5-1.6-.9-2-.6-.7-1.4-1-2.3-1s-1.4.2-1.9.6c-.7.5-1.3,1.3-1.7,2.3-.4,1-.6,2.5-.7,4.4.6-.9,1.2-1.5,2-1.9.8-.4,1.7-.6,2.5-.6,1.5,0,2.9.6,4,1.7,1.1,1.1,1.6,2.6,1.6,4.4s-.3,2.3-.8,3.3c-.5,1-1.2,1.8-2.1,2.3-.9.5-1.9.8-3,.8-1.9,0-3.5-.7-4.7-2.1-1.2-1.4-1.8-3.8-1.8-7s.7-6.3,2-8c1.2-1.4,2.8-2.2,4.8-2.2s2.7.4,3.7,1.2c.9.8,1.5,2,1.7,3.5ZM314.3,240.9c0,.8.2,1.6.5,2.3s.8,1.3,1.4,1.7c.6.4,1.2.6,1.9.6,1,0,1.8-.4,2.5-1.2.7-.8,1.1-1.9,1.1-3.2s-.3-2.3-1-3.1-1.6-1.1-2.6-1.1-1.9.4-2.7,1.1c-.7.8-1.1,1.7-1.1,3Z"/>
      <path class="st9" d="M326.8,232.6c0-1.3.3-2.5,1-3.4s1.7-1.4,3-1.4,2.2.4,2.9,1.3,1.2,2.1,1.2,3.7-.4,2.8-1.2,3.7c-.8.9-1.8,1.3-2.9,1.3s-2.1-.4-2.9-1.3-1.1-2.1-1.1-3.9ZM330.9,229.4c-.6,0-1.1.2-1.4.7-.4.5-.6,1.4-.6,2.7s.2,2.1.6,2.6.9.7,1.4.7,1.1-.2,1.5-.7c.4-.5.6-1.4.6-2.7s-.2-2.1-.6-2.6-.9-.7-1.4-.7ZM330.9,247.7l10.3-19.9h1.9l-10.3,19.9h-1.9ZM339.1,242.6c0-1.4.3-2.5,1-3.4.7-.9,1.7-1.4,3-1.4s2.2.4,2.9,1.3c.8.8,1.2,2.1,1.2,3.7s-.4,2.8-1.2,3.7c-.8.9-1.8,1.3-2.9,1.3s-2.1-.4-2.9-1.3c-.8-.9-1.1-2.1-1.1-3.8ZM343.1,239.3c-.6,0-1.1.2-1.5.7-.4.5-.6,1.4-.6,2.7s.2,2.1.6,2.6c.4.5.9.7,1.4.7s1.1-.2,1.5-.7c.4-.5.6-1.4.6-2.7s-.2-2.1-.6-2.6-.9-.7-1.4-.7Z"/>
      <path class="st9" d="M356.9,242.9l2.3-.4c.1.9.5,1.6,1.1,2.1.6.5,1.4.7,2.5.7s1.9-.2,2.4-.7c.5-.4.8-.9.8-1.5s-.2-.9-.7-1.2c-.3-.2-1.1-.5-2.4-.8-1.7-.4-2.9-.8-3.5-1.1-.7-.3-1.2-.7-1.5-1.3s-.5-1.2-.5-1.8.1-1.2.4-1.7c.3-.5.7-1,1.1-1.3.4-.3.9-.5,1.5-.7.6-.2,1.3-.3,2-.3,1.1,0,2,.2,2.8.5.8.3,1.4.7,1.8,1.3s.7,1.2.8,2.1l-2.3.3c-.1-.7-.4-1.3-.9-1.6-.5-.4-1.2-.6-2.1-.6s-1.8.2-2.3.5-.7.8-.7,1.2,0,.6.3.8c.2.2.5.5.9.6.2,0,.9.3,2,.6,1.6.4,2.8.8,3.4,1.1.6.3,1.2.7,1.5,1.2.4.5.6,1.2.6,2s-.2,1.5-.7,2.2-1.1,1.2-2,1.6c-.9.4-1.8.6-2.9.6-1.8,0-3.1-.4-4.1-1.1-.9-.7-1.5-1.8-1.8-3.3Z"/>
      <path class="st9" d="M380,245.3c-.9.7-1.7,1.2-2.5,1.5s-1.6.5-2.6.5c-1.5,0-2.7-.4-3.5-1.1-.8-.7-1.2-1.7-1.2-2.8s.2-1.3.5-1.8c.3-.6.7-1,1.2-1.3s1.1-.6,1.7-.8c.5-.1,1.1-.2,2.1-.3,1.9-.2,3.3-.5,4.1-.8,0-.3,0-.5,0-.6,0-.9-.2-1.6-.7-2-.6-.5-1.5-.8-2.6-.8s-1.9.2-2.4.6c-.5.4-.9,1.1-1.2,2l-2.3-.3c.2-1,.5-1.8,1-2.4.5-.6,1.2-1.1,2-1.4s1.9-.5,3.1-.5,2.1.1,2.8.4c.7.3,1.3.6,1.6,1s.6.9.7,1.6c0,.4.1,1.1.1,2.1v3.1c0,2.2,0,3.5.1,4.1,0,.6.3,1.1.6,1.6h-2.4c-.2-.5-.4-1-.5-1.7ZM372.3,231.3c0-.9.2-1.6.7-2.1.5-.5,1.1-.8,1.9-.8s1.3.2,2.2.7c.5.3.9.4,1.2.4s.5,0,.6-.2c.1-.1.2-.4.3-.9h1.7c0,1-.3,1.7-.7,2.2-.5.5-1.1.7-1.8.7s-1.3-.2-2.1-.7c-.6-.3-1-.5-1.3-.5s-.5.1-.7.3c-.2.2-.3.5-.3.9h-1.7ZM379.8,240.1c-.8.3-2.1.6-3.8.9-1,.1-1.6.3-2,.5-.4.2-.7.4-.9.8-.2.3-.3.7-.3,1.1,0,.6.2,1.1.7,1.5s1.2.6,2.1.6,1.7-.2,2.4-.6c.7-.4,1.2-.9,1.5-1.6.2-.5.4-1.3.4-2.3v-.9Z"/>
      <path class="st9" d="M384.9,240.2c0-2.5.7-4.4,2.1-5.6,1.2-1,2.6-1.5,4.3-1.5s3.4.6,4.6,1.8c1.2,1.2,1.8,2.9,1.8,5.1s-.3,3.1-.8,4.2c-.5,1-1.3,1.8-2.3,2.4s-2.1.8-3.3.8c-1.9,0-3.5-.6-4.6-1.8-1.2-1.2-1.8-3-1.8-5.3ZM387.3,240.2c0,1.8.4,3.1,1.1,3.9.8.9,1.7,1.3,2.9,1.3s2.1-.4,2.9-1.3c.8-.9,1.1-2.2,1.1-4s-.4-3-1.2-3.8c-.8-.9-1.7-1.3-2.9-1.3s-2.1.4-2.9,1.3c-.8.9-1.1,2.2-1.1,3.9Z"/>
      <path class="st9" d="M416.6,247v-1.7c-.9,1.4-2.1,2-3.8,2s-2.1-.3-3-.9c-.9-.6-1.6-1.4-2.1-2.5-.5-1.1-.8-2.3-.8-3.7s.2-2.6.7-3.7,1.1-2,2-2.6c.9-.6,1.9-.9,3.1-.9s1.6.2,2.2.5c.6.3,1.2.8,1.6,1.4v-6.8h2.3v18.9h-2.2ZM409.3,240.2c0,1.8.4,3.1,1.1,3.9.7.9,1.6,1.3,2.6,1.3s1.9-.4,2.6-1.2c.7-.8,1.1-2.1,1.1-3.8s-.4-3.2-1.1-4.1c-.7-.9-1.6-1.3-2.7-1.3s-1.9.4-2.6,1.3c-.7.8-1,2.2-1,4Z"/>
      <path class="st9" d="M431.8,242.6l2.4.3c-.4,1.4-1.1,2.5-2.1,3.3-1,.8-2.3,1.2-3.9,1.2s-3.6-.6-4.8-1.8c-1.2-1.2-1.8-3-1.8-5.2s.6-4.1,1.8-5.4c1.2-1.3,2.7-1.9,4.6-1.9s3.3.6,4.5,1.9,1.7,3,1.7,5.3,0,.3,0,.6h-10.2c0,1.5.5,2.7,1.3,3.5.8.8,1.7,1.2,2.9,1.2s1.6-.2,2.2-.7c.6-.4,1.1-1.2,1.4-2.1ZM424.2,238.8h7.6c-.1-1.2-.4-2-.9-2.6-.7-.9-1.7-1.3-2.9-1.3s-2,.4-2.7,1.1c-.7.7-1.1,1.7-1.2,2.9Z"/>
    </g>
    <g class="st1">
      <path class="st9" d="M295.9,286c-2.7,0-4.8-.7-6.4-2.2-1.6-1.5-2.3-3.5-2.3-6.2s.4-3.3,1.1-4.5c.7-1.3,1.7-2.2,3-2.9,1.3-.7,2.7-1,4.4-1s3.1.3,4.3,1c1.2.7,2.1,1.6,2.7,2.7.6,1.2.9,2.5.9,4s0,.8,0,1.2,0,.7,0,1h-11c.2,1.1.5,1.9,1.1,2.4.6.5,1.3.7,2.3.7s1.5-.2,2-.5c.5-.3.8-.8,1.1-1.4l4.4,1.5c-.3.9-.8,1.7-1.6,2.3-.7.6-1.6,1.1-2.6,1.4-1,.3-2.1.5-3.2.5ZM295.6,273.1c-1.7,0-2.8,1-3.1,3h5.9c-.2-2-1.2-3-2.8-3Z"/>
      <path class="st9" d="M306.7,285.7v-16.2h4.9l.2,3.3c.5-1.2,1.2-2.1,2.2-2.7.9-.6,2.1-.9,3.4-.9s3,.5,4,1.5,1.6,2.4,1.6,4.3v10.8h-5.5v-9.3c0-1.1-.2-1.9-.6-2.3-.4-.4-1-.6-1.6-.6s-1.5.3-2.1.8c-.6.6-.9,1.5-.9,2.9v8.6h-5.5Z"/>
      <path class="st9" d="M338.2,269.5v3.9h-4.8v6.5c0,.8.2,1.3.6,1.7.4.3.9.5,1.6.5s1,0,1.3-.2c.4-.1.7-.3,1-.5l.6,3.4c-.5.4-1.2.7-2.1.9-.8.2-1.7.3-2.5.3-1.9,0-3.3-.4-4.4-1.2s-1.6-2.1-1.6-4v-7.4h-2.8v-3.9h2.8v-3.6l5.5-1.5v5.1h4.8Z"/>
      <path class="st9" d="M343.5,267.7c-1.1,0-1.9-.2-2.4-.6-.5-.4-.8-1.1-.8-2s.3-1.6.8-2c.5-.4,1.3-.6,2.4-.6s1.9.2,2.4.6c.5.4.8,1.1.8,2s-.3,1.6-.8,2c-.5.4-1.3.6-2.4.6ZM346.2,269.5v16.2h-5.5v-16.2h5.5Z"/>
      <path class="st9" d="M356.1,286c-2,0-3.6-.7-4.8-2.2-1.2-1.5-1.8-3.5-1.8-6.1s.3-3.3.9-4.6c.6-1.3,1.4-2.2,2.4-2.9,1-.7,2.2-1,3.5-1s2.1.3,2.9.8c.8.6,1.4,1.3,1.8,2.2v-9.6h5.5v23h-4.9l-.2-3.2c-.5,1.1-1.1,1.9-2.1,2.6-.9.6-2,.9-3.2.9ZM358,282c.9,0,1.6-.4,2.2-1.1.5-.8.8-1.9.8-3.3s-.3-2.4-.8-3.1-1.2-1.1-2.2-1.1-1.7.4-2.2,1c-.5.7-.8,1.8-.8,3.3s.3,2.6.8,3.3c.5.7,1.3,1,2.2,1Z"/>
      <path class="st9" d="M379.4,275.5c0-.8-.2-1.4-.6-1.8-.4-.4-1-.7-1.7-.7s-1.3.2-1.8.5c-.5.4-.9,1-1,1.9l-4.7-1.1c.3-1.6,1.1-2.8,2.4-3.7s3.1-1.4,5.5-1.4,4.2.5,5.5,1.6c1.3,1,2,2.6,2,4.6v5.9c0,.8.4,1.3,1.1,1.3s.7,0,.9-.1l-.3,3.1c-.6.3-1.4.5-2.4.5s-1.9-.2-2.6-.6c-.7-.4-1.2-1-1.5-1.8-.5.8-1.2,1.5-2.1,1.9-1,.4-2,.6-3.1.6-1.7,0-3-.4-4-1.1-1-.8-1.5-1.9-1.5-3.3s.3-2.1,1-2.9c.7-.8,1.8-1.3,3.3-1.6l5.6-1.2v-.5ZM374.9,281c0,.5.2.8.5,1.1s.8.4,1.2.4c.7,0,1.4-.2,1.9-.7.6-.4.8-1.1.8-2.1v-.9l-2.6.5c-.6.1-1.1.3-1.4.6-.3.2-.5.6-.5,1.1Z"/>
      <path class="st9" d="M394.9,286c-2,0-3.6-.7-4.8-2.2-1.2-1.5-1.8-3.5-1.8-6.1s.3-3.3.9-4.6c.6-1.3,1.4-2.2,2.4-2.9,1-.7,2.2-1,3.5-1s2.1.3,2.9.8c.8.6,1.4,1.3,1.8,2.2v-9.6h5.5v23h-4.9l-.2-3.2c-.5,1.1-1.1,1.9-2.1,2.6-.9.6-2,.9-3.2.9ZM396.8,282c.9,0,1.6-.4,2.2-1.1.5-.8.8-1.9.8-3.3s-.3-2.4-.8-3.1-1.2-1.1-2.2-1.1-1.7.4-2.2,1c-.5.7-.8,1.8-.8,3.3s.3,2.6.8,3.3c.5.7,1.3,1,2.2,1Z"/>
      <path class="st9" d="M417.1,286c-2.7,0-4.8-.7-6.4-2.2-1.6-1.5-2.3-3.5-2.3-6.2s.4-3.3,1.1-4.5c.7-1.3,1.7-2.2,3-2.9,1.3-.7,2.7-1,4.4-1s3.1.3,4.3,1c1.2.7,2.1,1.6,2.7,2.7.6,1.2.9,2.5.9,4s0,.8,0,1.2,0,.7,0,1h-11c.2,1.1.5,1.9,1.1,2.4.6.5,1.3.7,2.3.7s1.5-.2,2-.5c.5-.3.8-.8,1.1-1.4l4.4,1.5c-.3.9-.8,1.7-1.6,2.3-.7.6-1.6,1.1-2.6,1.4-1,.3-2.1.5-3.2.5ZM416.8,273.1c-1.7,0-2.8,1-3.1,3h5.9c-.2-2-1.2-3-2.8-3Z"/>
      <path class="st9" d="M434.7,286c-1.6,0-3.1-.3-4.5-.8-1.4-.5-2.5-1.3-3.5-2.3l2.6-3c.5.7,1.3,1.3,2.1,1.7.9.5,1.9.7,3,.7s1.2,0,1.6-.3c.4-.2.6-.5.6-.9s-.1-.5-.3-.7c-.2-.2-.6-.4-1.3-.5l-2.3-.5c-2-.4-3.5-1-4.3-1.8s-1.3-1.9-1.3-3.2.3-1.7.8-2.5c.5-.8,1.4-1.5,2.5-2,1.1-.5,2.6-.8,4.3-.8,3.3,0,5.8.9,7.3,2.8l-2.6,3c-.5-.6-1.2-1.2-2-1.5-.8-.4-1.6-.5-2.5-.5-1.6,0-2.4.4-2.4,1.2s.1.5.4.7c.3.2.8.4,1.5.5l2.9.6c1.7.3,2.9.9,3.6,1.7.7.8,1.1,1.7,1.1,2.9s-.6,2.9-1.9,4c-1.3,1.1-3.2,1.6-5.7,1.6Z"/>
    </g>
    <g class="st1">
      <path class="st9" d="M306.3,331.2v-22.9h4.9l.2,3.3c.5-1.1,1.1-1.9,2.1-2.6.9-.7,2-1,3.2-1,2,0,3.6.7,4.8,2.2,1.2,1.5,1.8,3.5,1.8,6.1s-.6,4.7-1.9,6.2c-1.2,1.5-2.8,2.2-4.8,2.2s-2.2-.3-3-.9-1.4-1.3-1.9-2.2v9.6h-5.5ZM314.7,320.7c.9,0,1.7-.3,2.2-1,.5-.7.8-1.8.8-3.3s-.3-2.6-.8-3.3c-.5-.7-1.3-1-2.2-1s-1.7.4-2.2,1.1c-.5.7-.8,1.8-.8,3.2s.3,2.4.8,3.2c.5.8,1.2,1.2,2.2,1.2Z"/>
      <path class="st9" d="M326.5,324.4v-16.2h4.8l.2,3.5c.4-1.2,1-2.1,1.8-2.8.8-.7,1.8-1,3.1-1s.8,0,1,.1c.3,0,.5.2.7.2l-.5,4.5c-.2,0-.5-.1-.8-.2-.3,0-.7,0-1.2,0-1,0-1.8.3-2.6.9-.7.6-1.1,1.6-1.1,2.8v8.1h-5.5Z"/>
      <path class="st9" d="M343.2,306.4c-1.1,0-1.9-.2-2.4-.6-.5-.4-.8-1.1-.8-2s.3-1.6.8-2c.5-.4,1.3-.6,2.4-.6s1.9.2,2.4.6c.5.4.8,1.1.8,2s-.3,1.6-.8,2c-.5.4-1.3.6-2.4.6ZM345.9,308.2v16.2h-5.5v-16.2h5.5Z"/>
      <path class="st9" d="M360.3,308.2h5.7l-5.8,16.2h-6.6l-5.8-16.2h5.8l3.3,12.3,3.4-12.3Z"/>
      <path class="st9" d="M376.6,314.2c0-.8-.2-1.4-.6-1.8-.4-.4-1-.7-1.7-.7s-1.3.2-1.8.5c-.5.4-.9,1-1,1.9l-4.7-1.1c.3-1.6,1.1-2.8,2.4-3.7s3.1-1.4,5.5-1.4,4.2.5,5.5,1.6c1.3,1,2,2.6,2,4.6v5.9c0,.8.4,1.3,1.1,1.3s.7,0,.9-.1l-.3,3.1c-.6.3-1.4.5-2.4.5s-1.9-.2-2.6-.6c-.7-.4-1.2-1-1.5-1.8-.5.8-1.2,1.5-2.1,1.9-1,.4-2,.6-3.1.6-1.7,0-3-.4-4-1.1-1-.8-1.5-1.9-1.5-3.3s.3-2.1,1-2.9c.7-.8,1.8-1.3,3.3-1.6l5.6-1.2v-.5ZM372.1,319.7c0,.5.2.8.5,1.1s.8.4,1.2.4c.7,0,1.4-.2,1.9-.7.6-.4.8-1.1.8-2.1v-.9l-2.6.5c-.6.1-1.1.3-1.4.6-.3.2-.5.6-.5,1.1Z"/>
      <path class="st9" d="M392.1,324.7c-2,0-3.6-.7-4.8-2.2-1.2-1.5-1.8-3.5-1.8-6.1s.3-3.3.9-4.6c.6-1.3,1.4-2.2,2.4-2.9,1-.7,2.2-1,3.5-1s2.1.3,2.9.8c.8.6,1.4,1.3,1.8,2.2v-9.6h5.5v23h-4.9l-.2-3.2c-.5,1.1-1.1,1.9-2.1,2.6-.9.6-2,.9-3.2.9ZM394,320.7c.9,0,1.6-.4,2.2-1.1.5-.8.8-1.9.8-3.3s-.3-2.4-.8-3.1-1.2-1.1-2.2-1.1-1.7.4-2.2,1c-.5.7-.8,1.8-.8,3.3s.3,2.6.8,3.3c.5.7,1.3,1,2.2,1Z"/>
      <path class="st9" d="M415.4,314.2c0-.8-.2-1.4-.6-1.8-.4-.4-1-.7-1.7-.7s-1.3.2-1.8.5c-.5.4-.9,1-1,1.9l-4.7-1.1c.3-1.6,1.1-2.8,2.4-3.7s3.1-1.4,5.5-1.4,4.2.5,5.5,1.6c1.3,1,2,2.6,2,4.6v5.9c0,.8.4,1.3,1.1,1.3s.7,0,.9-.1l-.3,3.1c-.6.3-1.4.5-2.4.5s-1.9-.2-2.6-.6c-.7-.4-1.2-1-1.5-1.8-.5.8-1.2,1.5-2.1,1.9-1,.4-2,.6-3.1.6-1.7,0-3-.4-4-1.1-1-.8-1.5-1.9-1.5-3.3s.3-2.1,1-2.9c.7-.8,1.8-1.3,3.3-1.6l5.6-1.2v-.5ZM410.9,319.7c0,.5.2.8.5,1.1s.8.4,1.2.4c.7,0,1.4-.2,1.9-.7.6-.4.8-1.1.8-2.1v-.9l-2.6.5c-.6.1-1.1.3-1.4.6-.3.2-.5.6-.5,1.1Z"/>
      <path class="st9" d="M431.9,324.7c-1.6,0-3.1-.3-4.5-.8-1.4-.5-2.5-1.3-3.5-2.3l2.6-3c.5.7,1.3,1.3,2.1,1.7.9.5,1.9.7,3,.7s1.2,0,1.6-.3c.4-.2.6-.5.6-.9s-.1-.5-.3-.7c-.2-.2-.6-.4-1.3-.5l-2.3-.5c-2-.4-3.5-1-4.3-1.8s-1.3-1.9-1.3-3.2.3-1.7.8-2.5c.5-.8,1.4-1.5,2.5-2,1.1-.5,2.6-.8,4.3-.8,3.3,0,5.8.9,7.3,2.8l-2.6,3c-.5-.6-1.2-1.2-2-1.5-.8-.4-1.6-.5-2.5-.5-1.6,0-2.4.4-2.4,1.2s.1.5.4.7c.3.2.8.4,1.5.5l2.9.6c1.7.3,2.9.9,3.6,1.7.7.8,1.1,1.7,1.1,2.9s-.6,2.9-1.9,4c-1.3,1.1-3.2,1.6-5.7,1.6Z"/>
    </g>
  </g>
  <g class="st1">
    <g class="st1">
      <path class="st6" d="M693.8,454.4c2.1,0,3.9.4,5.5,1.3,1.6.9,2.8,2.3,3.5,4.4l-5.5,2.6c-.3-.9-.7-1.6-1.4-2.2-.6-.5-1.5-.8-2.6-.8-1.5,0-2.7.7-3.6,2-.9,1.3-1.3,3.2-1.3,5.6v.9c.4-.8.8-1.5,1.5-2s1.5-1,2.3-1.2c.9-.3,1.7-.4,2.6-.4,1.6,0,3,.3,4.3.9,1.3.6,2.2,1.5,3,2.7.7,1.2,1.1,2.6,1.1,4.2s-.4,3.3-1.2,4.6c-.8,1.3-1.9,2.3-3.4,3-1.5.7-3.2,1.1-5.1,1.1s-4.2-.5-5.9-1.5c-1.7-1-3-2.4-3.9-4.4-.9-1.9-1.4-4.4-1.4-7.2s.5-5.6,1.5-7.6c1-2,2.4-3.5,4.1-4.5,1.7-1,3.7-1.5,5.9-1.5ZM693.3,469.1c-1,0-1.9.3-2.6.9-.7.6-1.1,1.5-1.1,2.5s.4,1.8,1.1,2.5,1.6,1,2.6,1,2.1-.3,2.7-.9c.6-.6,1-1.5,1-2.5s-.3-1.9-1-2.5c-.6-.6-1.5-.9-2.7-.9Z"/>
      <path class="st6" d="M711.3,480.7v-14.9c0-.7,0-1.4,0-2.1,0-.7,0-1.5,0-2.2-.9.8-1.8,1.5-2.9,2.1-1.1.6-2.2,1-3.3,1.2l-.6-5.6c.9-.1,1.9-.4,2.9-.8,1.1-.4,2-1,3-1.6.9-.6,1.6-1.3,2-1.9h5.4v25.9h-6.5Z"/>
      <path class="st6" d="M726.3,474c1.4,0,2.5.5,3.2,1.5s1,2.1,1,3.4-.3,2.3-.8,3.4-1.2,2-2,2.9-1.7,1.4-2.7,1.9l-2.7-2c1.1-.4,2-1,2.9-1.8.8-.7,1.4-1.5,1.8-2.4h-.2c-.2,0-.3,0-.5.1-.2,0-.5,0-.8,0-.7,0-1.4-.3-2.1-.8-.7-.5-1-1.3-1-2.4s.4-2.2,1.2-2.8c.8-.6,1.7-1,2.7-1Z"/>
      <path class="st6" d="M743.9,481.1c-2.8,0-5.1-.5-6.9-1.6-1.8-1.1-3.1-2.7-3.8-4.8l6.2-2.7c.2,1.4.6,2.4,1.4,3s1.7.9,2.9.9,1.9-.3,2.5-.8.9-1.3.9-2.3-.3-1.7-.9-2.2c-.6-.4-1.5-.7-2.5-.7s-1.3,0-1.9.1v-4.4c.2,0,.4,0,.6,0,.2,0,.5,0,.7,0,1.2,0,2.1-.3,2.6-.8.5-.5.8-1.3.8-2.4s-.3-1.7-.8-2.2c-.5-.5-1.3-.7-2.3-.7s-1.9.3-2.5.8-1.1,1.5-1.2,2.7l-5.9-2c.3-1.4.9-2.7,1.8-3.6s2.1-1.8,3.5-2.3c1.4-.5,3-.8,4.7-.8,3,0,5.2.6,6.8,1.9s2.4,3,2.4,5.2-.2,2.1-.5,2.8c-.4.8-.8,1.4-1.3,1.8-.5.5-1.1.8-1.6,1s-1,.4-1.4.4h0c.5.1,1,.2,1.6.4.6.2,1.2.5,1.8.9s1.1,1,1.4,1.7c.4.7.6,1.6.6,2.6,0,1.6-.4,3-1.3,4.2-.8,1.2-2,2.1-3.5,2.7-1.5.6-3.1,1-5,1Z"/>
      <path class="st6" d="M763.8,454.4c2.2,0,4,.7,5.3,2,1.3,1.3,2,3.1,2,5.4s-.7,4-2,5.4c-1.3,1.3-3.1,2-5.3,2s-4-.7-5.3-2c-1.3-1.3-2-3.1-2-5.4s.7-4,2-5.4c1.3-1.3,3.1-2,5.3-2ZM763.8,458.9c-.7,0-1.3.3-1.7.8-.4.5-.6,1.2-.6,2.1s.2,1.6.6,2.1c.4.5,1,.8,1.7.8s1.3-.3,1.7-.8.6-1.2.6-2.1-.2-1.6-.6-2.1c-.4-.5-1-.8-1.7-.8ZM762.2,480.7l18-25.9h5.1l-18,25.9h-5.1ZM783.6,466.4c2.2,0,4,.7,5.3,2s2,3.1,2,5.4-.7,4-2,5.4c-1.3,1.3-3.1,2-5.3,2s-4-.7-5.3-2c-1.3-1.3-2-3.1-2-5.4s.7-4,2-5.4,3.1-2,5.3-2ZM783.6,470.8c-.8,0-1.3.3-1.7.8-.4.5-.6,1.2-.6,2.1s.2,1.6.6,2.1c.4.5,1,.8,1.7.8s1.3-.3,1.7-.8c.4-.5.6-1.2.6-2.1s-.2-1.6-.6-2.1-1-.8-1.7-.8Z"/>
    </g>
  </g>
  <g class="st1">
    <g class="st1">
      <path class="st6" d="M491.2,457.2c-2.8,0-5.1-.5-6.9-1.6-1.8-1.1-3.1-2.7-3.8-4.8l6.2-2.7c.2,1.4.6,2.4,1.4,3,.7.6,1.7.9,2.9.9s1.9-.3,2.5-.8c.6-.6.9-1.3.9-2.3s-.3-1.7-.9-2.2-1.5-.7-2.5-.7-1.3,0-1.9.1v-4.4c.2,0,.4,0,.6,0,.2,0,.5,0,.7,0,1.2,0,2.1-.3,2.6-.8.5-.5.8-1.3.8-2.4s-.3-1.7-.8-2.2c-.5-.5-1.3-.7-2.3-.7s-1.9.3-2.5.8c-.6.5-1.1,1.5-1.2,2.7l-5.9-2c.3-1.4.9-2.7,1.8-3.6.9-1,2.1-1.8,3.5-2.3,1.4-.5,3-.8,4.7-.8,3,0,5.2.6,6.8,1.9,1.6,1.3,2.4,3,2.4,5.2s-.2,2.1-.5,2.8c-.4.8-.8,1.4-1.3,1.8-.5.5-1.1.8-1.6,1s-1,.4-1.4.4h0c.5.1,1,.2,1.6.4.6.2,1.2.5,1.8.9.6.4,1.1,1,1.4,1.7.4.7.6,1.6.6,2.6,0,1.6-.4,3-1.3,4.2s-2,2.1-3.5,2.7c-1.5.6-3.1,1-5,1Z"/>
      <path class="st6" d="M517,456.8v-5.7h-12.6v-4.2c.2-.4.5-.9.9-1.5.4-.6.8-1.3,1.4-2.1l8.4-12.3h7.9v15.6h4v4.6h-4v5.7h-6ZM509.7,446.5h7.3v-7.8c0-.5,0-1.1,0-1.6,0-.5,0-1.1,0-1.7h0c-.3.5-.6,1.1-.9,1.7s-.7,1.1-1,1.6l-4.6,6.7c-.3.4-.6.8-.8,1.2Z"/>
      <path class="st6" d="M536.4,430.5c2.2,0,4,.7,5.3,2,1.3,1.3,2,3.1,2,5.4s-.7,4-2,5.4c-1.3,1.3-3.1,2-5.3,2s-4-.7-5.3-2c-1.3-1.3-2-3.1-2-5.4s.7-4,2-5.4c1.3-1.3,3.1-2,5.3-2ZM536.4,435c-.7,0-1.3.3-1.7.8-.4.5-.6,1.2-.6,2.1s.2,1.6.6,2.1c.4.5,1,.8,1.7.8s1.3-.3,1.7-.8.6-1.2.6-2.1-.2-1.6-.6-2.1c-.4-.5-1-.8-1.7-.8ZM534.8,456.8l18-25.9h5.1l-18,25.9h-5.1ZM556.2,442.5c2.2,0,4,.7,5.3,2s2,3.1,2,5.4-.7,4-2,5.4c-1.3,1.3-3.1,2-5.3,2s-4-.7-5.3-2c-1.3-1.3-2-3.1-2-5.4s.7-4,2-5.4,3.1-2,5.3-2ZM556.2,446.9c-.8,0-1.3.3-1.7.8-.4.5-.6,1.2-.6,2.1s.2,1.6.6,2.1c.4.5,1,.8,1.7.8s1.3-.3,1.7-.8c.4-.5.6-1.2.6-2.1s-.2-1.6-.6-2.1c-.4-.5-1-.8-1.7-.8Z"/>
    </g>
  </g>
  <g class="st1">
    <g class="st1">
      <path class="st9" d="M583.9,297.8v-5.7h-12.6v-4.2c.2-.4.5-.9.9-1.5.4-.6.8-1.3,1.4-2.1l8.4-12.3h7.9v15.6h4v4.6h-4v5.7h-6ZM576.7,287.5h7.3v-7.8c0-.5,0-1.1,0-1.6,0-.5,0-1.1,0-1.7h0c-.3.5-.6,1.1-.9,1.7s-.7,1.1-1,1.6l-4.6,6.7c-.3.4-.6.8-.8,1.2Z"/>
      <path class="st9" d="M600.3,291.1c1.4,0,2.5.5,3.2,1.5.7,1,1,2.1,1,3.4s-.3,2.3-.8,3.4-1.2,2-2,2.9c-.8.8-1.7,1.4-2.7,1.9l-2.7-2c1.1-.4,2-1,2.9-1.8.8-.7,1.4-1.5,1.8-2.4h-.2c-.2,0-.3,0-.5.1-.2,0-.5,0-.8,0-.7,0-1.4-.3-2.1-.8-.7-.5-1-1.3-1-2.4s.4-2.2,1.2-2.8c.8-.6,1.7-1,2.7-1Z"/>
      <path class="st9" d="M619.3,271.5c2.1,0,3.9.4,5.5,1.3,1.6.9,2.8,2.3,3.5,4.4l-5.5,2.6c-.3-.9-.7-1.6-1.4-2.2-.6-.5-1.5-.8-2.6-.8-1.5,0-2.7.7-3.6,2-.9,1.3-1.3,3.2-1.3,5.6v.9c.4-.8.8-1.5,1.5-2,.7-.5,1.5-1,2.3-1.2.9-.3,1.7-.4,2.6-.4,1.6,0,3,.3,4.3.9,1.3.6,2.2,1.5,3,2.7.7,1.2,1.1,2.6,1.1,4.2s-.4,3.3-1.2,4.6c-.8,1.3-1.9,2.3-3.4,3-1.5.7-3.2,1.1-5.1,1.1s-4.2-.5-5.9-1.5c-1.7-1-3-2.4-3.9-4.4-.9-1.9-1.4-4.4-1.4-7.2s.5-5.6,1.5-7.6c1-2,2.4-3.5,4.1-4.5,1.7-1,3.7-1.5,5.9-1.5ZM618.8,286.2c-1,0-1.9.3-2.6.9s-1.1,1.5-1.1,2.5.4,1.8,1.1,2.5,1.6,1,2.6,1,2.1-.3,2.7-.9c.6-.6,1-1.5,1-2.5s-.3-1.9-1-2.5c-.6-.6-1.5-.9-2.7-.9Z"/>
      <path class="st9" d="M638.5,271.5c2.2,0,4,.7,5.3,2,1.3,1.3,2,3.1,2,5.4s-.7,4-2,5.4c-1.3,1.3-3.1,2-5.3,2s-4-.7-5.3-2c-1.3-1.3-2-3.1-2-5.4s.7-4,2-5.4c1.3-1.3,3.1-2,5.3-2ZM638.5,276c-.7,0-1.3.3-1.7.8-.4.5-.6,1.2-.6,2.1s.2,1.6.6,2.1c.4.5,1,.8,1.7.8s1.3-.3,1.7-.8.6-1.2.6-2.1-.2-1.6-.6-2.1c-.4-.5-1-.8-1.7-.8ZM636.9,297.8l18-25.9h5.1l-18,25.9h-5.1ZM658.3,283.5c2.2,0,4,.7,5.3,2s2,3.1,2,5.4-.7,4-2,5.4c-1.3,1.3-3.1,2-5.3,2s-4-.7-5.3-2c-1.3-1.3-2-3.1-2-5.4s.7-4,2-5.4,3.1-2,5.3-2ZM658.3,287.9c-.8,0-1.3.3-1.7.8-.4.5-.6,1.2-.6,2.1s.2,1.6.6,2.1c.4.5,1,.8,1.7.8s1.3-.3,1.7-.8c.4-.5.6-1.2.6-2.1s-.2-1.6-.6-2.1-1-.8-1.7-.8Z"/>
    </g>
  </g>
  <g class="st1">
    <g class="st1">
      <path class="st9" d="M81.4,483.1l2.3-.3c.3,1.3.7,2.3,1.4,2.8.6.6,1.4.9,2.3.9s2-.4,2.8-1.1,1.1-1.7,1.1-2.8-.3-1.9-1-2.6c-.7-.7-1.6-1-2.7-1s-1,0-1.6.3l.3-2c.2,0,.3,0,.4,0,1,0,1.9-.3,2.7-.8.8-.5,1.2-1.3,1.2-2.4s-.3-1.6-.9-2.1c-.6-.6-1.3-.8-2.2-.8s-1.7.3-2.3.9c-.6.6-1,1.4-1.2,2.6l-2.3-.4c.3-1.6.9-2.8,1.9-3.6,1-.9,2.3-1.3,3.8-1.3s2,.2,2.8.7c.9.4,1.5,1,2,1.8s.7,1.6.7,2.4-.2,1.6-.7,2.2c-.4.7-1.1,1.2-1.9,1.6,1.1.3,2,.8,2.6,1.6.6.8.9,1.8.9,3s-.6,3-1.8,4.2-2.7,1.7-4.6,1.7-3-.5-4.1-1.5-1.7-2.3-1.9-3.8Z"/>
      <path class="st9" d="M103.5,488.1v-4.5h-8.2v-2.1l8.6-12.2h1.9v12.2h2.6v2.1h-2.6v4.5h-2.3ZM103.5,481.4v-8.5l-5.9,8.5h5.9Z"/>
      <path class="st9" d="M112,488.1v-2.6h2.6v2.6c0,1-.2,1.8-.5,2.4s-.9,1.1-1.6,1.4l-.6-1c.5-.2.9-.5,1.1-.9.2-.4.4-1,.4-1.8h-1.3Z"/>
      <path class="st9" d="M118.1,478.8c0-2.2.2-4,.7-5.4.5-1.4,1.1-2.4,2-3.2s2-1.1,3.4-1.1,1.9.2,2.7.6c.8.4,1.4,1,1.9,1.8.5.8.9,1.7,1.2,2.8.3,1.1.4,2.6.4,4.5s-.2,4-.7,5.4c-.5,1.4-1.1,2.4-2,3.2-.9.7-2.1,1.1-3.4,1.1s-3.3-.7-4.3-2c-1.2-1.6-1.9-4.1-1.9-7.7ZM120.5,478.8c0,3.1.4,5.2,1.1,6.2.7,1,1.6,1.5,2.7,1.5s2-.5,2.7-1.5c.7-1,1.1-3.1,1.1-6.2s-.4-5.2-1.1-6.2c-.7-1-1.6-1.5-2.7-1.5s-1.9.5-2.6,1.4c-.8,1.2-1.2,3.3-1.2,6.4Z"/>
      <path class="st9" d="M133.2,473.7c0-1.3.3-2.5,1-3.4s1.7-1.4,3-1.4,2.2.4,2.9,1.3,1.2,2.1,1.2,3.7-.4,2.8-1.2,3.7c-.8.9-1.8,1.3-2.9,1.3s-2.1-.4-2.9-1.3-1.1-2.1-1.1-3.9ZM137.3,470.5c-.6,0-1.1.2-1.4.7-.4.5-.6,1.4-.6,2.7s.2,2.1.6,2.6.9.7,1.4.7,1.1-.2,1.5-.7c.4-.5.6-1.4.6-2.7s-.2-2.1-.6-2.6-.9-.7-1.4-.7ZM137.3,488.8l10.3-19.9h1.9l-10.3,19.9h-1.9ZM145.4,483.7c0-1.4.3-2.5,1-3.4.7-.9,1.7-1.4,3-1.4s2.2.4,2.9,1.3c.8.8,1.2,2.1,1.2,3.7s-.4,2.8-1.2,3.7c-.8.9-1.8,1.3-2.9,1.3s-2.1-.4-2.9-1.3c-.8-.9-1.1-2.1-1.1-3.8ZM149.5,480.4c-.6,0-1.1.2-1.5.7-.4.5-.6,1.4-.6,2.7s.2,2.1.6,2.6c.4.5.9.7,1.4.7s1.1-.2,1.5-.7c.4-.5.6-1.4.6-2.7s-.2-2.1-.6-2.6-.9-.7-1.4-.7Z"/>
      <path class="st9" d="M163.3,484l2.3-.4c.1.9.5,1.6,1.1,2.1.6.5,1.4.7,2.5.7s1.9-.2,2.4-.7c.5-.4.8-.9.8-1.5s-.2-.9-.7-1.2c-.3-.2-1.1-.5-2.4-.8-1.7-.4-2.9-.8-3.5-1.1-.7-.3-1.2-.7-1.5-1.3s-.5-1.2-.5-1.8.1-1.2.4-1.7c.3-.5.7-1,1.1-1.3.4-.3.9-.5,1.5-.7.6-.2,1.3-.3,2-.3,1.1,0,2,.2,2.8.5.8.3,1.4.7,1.8,1.3s.7,1.2.8,2.1l-2.3.3c-.1-.7-.4-1.3-.9-1.6-.5-.4-1.2-.6-2.1-.6s-1.8.2-2.3.5-.7.8-.7,1.2,0,.6.3.8c.2.2.5.5.9.6.2,0,.9.3,2,.6,1.6.4,2.8.8,3.4,1.1.6.3,1.2.7,1.5,1.2.4.5.6,1.2.6,2s-.2,1.5-.7,2.2-1.1,1.2-2,1.6c-.9.4-1.8.6-2.9.6-1.8,0-3.1-.4-4.1-1.1-.9-.7-1.5-1.8-1.8-3.3Z"/>
      <path class="st9" d="M186.4,486.4c-.9.7-1.7,1.2-2.5,1.5s-1.6.5-2.6.5c-1.5,0-2.7-.4-3.5-1.1-.8-.7-1.2-1.7-1.2-2.8s.2-1.3.5-1.8c.3-.6.7-1,1.2-1.3s1.1-.6,1.7-.8c.5-.1,1.1-.2,2.1-.3,1.9-.2,3.3-.5,4.1-.8,0-.3,0-.5,0-.6,0-.9-.2-1.6-.7-2-.6-.5-1.5-.8-2.6-.8s-1.9.2-2.4.6c-.5.4-.9,1.1-1.2,2l-2.3-.3c.2-1,.5-1.8,1-2.4.5-.6,1.2-1.1,2-1.4s1.9-.5,3.1-.5,2.1.1,2.8.4c.7.3,1.3.6,1.6,1s.6.9.7,1.6c0,.4.1,1.1.1,2.1v3.1c0,2.2,0,3.5.1,4.1,0,.6.3,1.1.6,1.6h-2.4c-.2-.5-.4-1-.5-1.7ZM178.6,472.4c0-.9.2-1.6.7-2.1.5-.5,1.1-.8,1.9-.8s1.3.2,2.2.7c.5.3.9.4,1.2.4s.5,0,.6-.2c.1-.1.2-.4.3-.9h1.7c0,1-.3,1.7-.7,2.2-.5.5-1.1.7-1.8.7s-1.3-.2-2.1-.7c-.6-.3-1-.5-1.3-.5s-.5.1-.7.3c-.2.2-.3.5-.3.9h-1.7ZM186.2,481.2c-.8.3-2.1.6-3.8.9-1,.1-1.6.3-2,.5-.4.2-.7.4-.9.8-.2.3-.3.7-.3,1.1,0,.6.2,1.1.7,1.5s1.2.6,2.1.6,1.7-.2,2.4-.6c.7-.4,1.2-.9,1.5-1.6.2-.5.4-1.3.4-2.3v-.9Z"/>
      <path class="st9" d="M191.2,481.3c0-2.5.7-4.4,2.1-5.6,1.2-1,2.6-1.5,4.3-1.5s3.4.6,4.6,1.8c1.2,1.2,1.8,2.9,1.8,5.1s-.3,3.1-.8,4.2c-.5,1-1.3,1.8-2.3,2.4s-2.1.8-3.3.8c-1.9,0-3.5-.6-4.6-1.8-1.2-1.2-1.8-3-1.8-5.3ZM193.6,481.3c0,1.8.4,3.1,1.1,3.9.8.9,1.7,1.3,2.9,1.3s2.1-.4,2.9-1.3c.8-.9,1.1-2.2,1.1-4s-.4-3-1.2-3.8c-.8-.9-1.7-1.3-2.9-1.3s-2.1.4-2.9,1.3c-.8.9-1.1,2.2-1.1,3.9Z"/>
    </g>
    <g class="st1">
      <path class="st9" d="M219.8,488.4c-2.7,0-4.8-.7-6.4-2.2-1.6-1.5-2.3-3.5-2.3-6.2s.4-3.3,1.1-4.5c.7-1.3,1.7-2.2,3-2.9,1.3-.7,2.7-1,4.4-1s3.1.3,4.3,1c1.2.7,2.1,1.6,2.7,2.7.6,1.2.9,2.5.9,4s0,.8,0,1.2,0,.7,0,1h-11c.2,1.1.5,1.9,1.1,2.4.6.5,1.3.7,2.3.7s1.5-.2,2-.5c.5-.3.8-.8,1.1-1.4l4.4,1.5c-.3.9-.8,1.7-1.6,2.3-.7.6-1.6,1.1-2.6,1.4-1,.3-2.1.5-3.2.5ZM219.5,475.5c-1.7,0-2.8,1-3.1,3h5.9c-.2-2-1.2-3-2.8-3Z"/>
      <path class="st9" d="M237.4,488.4c-1.6,0-3.1-.3-4.5-.8-1.4-.5-2.5-1.3-3.5-2.3l2.6-3c.5.7,1.3,1.3,2.1,1.7.9.5,1.9.7,3,.7s1.2,0,1.6-.3c.4-.2.6-.5.6-.9s-.1-.5-.3-.7c-.2-.2-.6-.4-1.3-.5l-2.3-.5c-2-.4-3.5-1-4.3-1.8s-1.3-1.9-1.3-3.2.3-1.7.8-2.5c.5-.8,1.4-1.5,2.5-2,1.1-.5,2.6-.8,4.3-.8,3.3,0,5.8.9,7.3,2.8l-2.6,3c-.5-.6-1.2-1.2-2-1.5-.8-.4-1.6-.5-2.5-.5-1.6,0-2.4.4-2.4,1.2s.1.5.4.7c.3.2.8.4,1.5.5l2.9.6c1.7.3,2.9.9,3.6,1.7.7.8,1.1,1.7,1.1,2.9s-.6,2.9-1.9,4c-1.3,1.1-3.2,1.6-5.7,1.6Z"/>
      <path class="st9" d="M259.4,471.9v3.9h-4.8v6.5c0,.8.2,1.3.6,1.7.4.3.9.5,1.6.5s1,0,1.3-.2c.4-.1.7-.3,1-.5l.6,3.4c-.5.4-1.2.7-2.1.9-.8.2-1.7.3-2.5.3-1.9,0-3.3-.4-4.4-1.2s-1.6-2.1-1.6-4v-7.4h-2.8v-3.9h2.8v-3.6l5.5-1.5v5.1h4.8Z"/>
      <path class="st9" d="M271.2,477.9c0-.8-.2-1.4-.6-1.8-.4-.4-1-.7-1.7-.7s-1.3.2-1.8.5c-.5.4-.9,1-1,1.9l-4.7-1.1c.3-1.6,1.1-2.8,2.4-3.7s3.1-1.4,5.5-1.4,4.2.5,5.5,1.6c1.3,1,2,2.6,2,4.6v5.9c0,.8.4,1.3,1.1,1.3s.7,0,.9-.1l-.3,3.1c-.6.3-1.4.5-2.4.5s-1.9-.2-2.6-.6c-.7-.4-1.2-1-1.5-1.8-.5.8-1.2,1.5-2.1,1.9-1,.4-2,.6-3.1.6-1.7,0-3-.4-4-1.1-1-.8-1.5-1.9-1.5-3.3s.3-2.1,1-2.9c.7-.8,1.8-1.3,3.3-1.6l5.6-1.2v-.5ZM266.7,483.4c0,.5.2.8.5,1.1s.8.4,1.2.4c.7,0,1.4-.2,1.9-.7.6-.4.8-1.1.8-2.1v-.9l-2.6.5c-.6.1-1.1.3-1.4.6-.3.2-.5.6-.5,1.1Z"/>
      <path class="st9" d="M286.7,488.4c-2,0-3.6-.7-4.8-2.2-1.2-1.5-1.8-3.5-1.8-6.1s.3-3.3.9-4.6c.6-1.3,1.4-2.2,2.4-2.9,1-.7,2.2-1,3.5-1s2.1.3,2.9.8c.8.6,1.4,1.3,1.8,2.2v-9.6h5.5v23h-4.9l-.2-3.2c-.5,1.1-1.1,1.9-2.1,2.6-.9.6-2,.9-3.2.9ZM288.6,484.4c.9,0,1.6-.4,2.2-1.1.5-.8.8-1.9.8-3.3s-.3-2.4-.8-3.1-1.2-1.1-2.2-1.1-1.7.4-2.2,1c-.5.7-.8,1.8-.8,3.3s.3,2.6.8,3.3c.5.7,1.3,1,2.2,1Z"/>
      <path class="st9" d="M306.4,488.4c-1.6,0-3-.4-4-1.3s-1.6-2.3-1.6-4.4v-10.8h5.5v9.5c0,1,.2,1.8.6,2.2.4.4,1,.6,1.7.6s1.4-.3,2-.9c.5-.6.8-1.5.8-2.8v-8.7h5.5v16.2h-4.9l-.2-3c-.5,1.1-1.2,2-2.2,2.5-.9.5-2,.8-3.4.8Z"/>
      <path class="st9" d="M330,477.9c0-.8-.2-1.4-.6-1.8-.4-.4-1-.7-1.7-.7s-1.3.2-1.8.5c-.5.4-.9,1-1,1.9l-4.7-1.1c.3-1.6,1.1-2.8,2.4-3.7s3.1-1.4,5.5-1.4,4.2.5,5.5,1.6c1.3,1,2,2.6,2,4.6v5.9c0,.8.4,1.3,1.1,1.3s.7,0,.9-.1l-.3,3.1c-.6.3-1.4.5-2.4.5s-1.9-.2-2.6-.6c-.7-.4-1.2-1-1.5-1.8-.5.8-1.2,1.5-2.1,1.9-1,.4-2,.6-3.1.6-1.7,0-3-.4-4-1.1-1-.8-1.5-1.9-1.5-3.3s.3-2.1,1-2.9c.7-.8,1.8-1.3,3.3-1.6l5.6-1.2v-.5ZM325.5,483.4c0,.5.2.8.5,1.1s.8.4,1.2.4c.7,0,1.4-.2,1.9-.7.6-.4.8-1.1.8-2.1v-.9l-2.6.5c-.6.1-1.1.3-1.4.6-.3.2-.5.6-.5,1.1Z"/>
      <path class="st9" d="M342.4,470.1c-1.1,0-1.9-.2-2.4-.6-.5-.4-.8-1.1-.8-2s.3-1.6.8-2c.5-.4,1.3-.6,2.4-.6s1.9.2,2.4.6c.5.4.8,1.1.8,2s-.3,1.6-.8,2c-.5.4-1.3.6-2.4.6ZM345.2,471.9v16.2h-5.5v-16.2h5.5Z"/>
      <path class="st9" d="M355.9,488.4c-1.6,0-3.1-.3-4.5-.8-1.4-.5-2.5-1.3-3.5-2.3l2.6-3c.5.7,1.3,1.3,2.1,1.7.9.5,1.9.7,3,.7s1.2,0,1.6-.3c.4-.2.6-.5.6-.9s-.1-.5-.3-.7c-.2-.2-.6-.4-1.3-.5l-2.3-.5c-2-.4-3.5-1-4.3-1.8s-1.3-1.9-1.3-3.2.3-1.7.8-2.5c.5-.8,1.4-1.5,2.5-2,1.1-.5,2.6-.8,4.3-.8,3.3,0,5.8.9,7.3,2.8l-2.6,3c-.5-.6-1.2-1.2-2-1.5-.8-.4-1.6-.5-2.5-.5-1.6,0-2.4.4-2.4,1.2s.1.5.4.7c.3.2.8.4,1.5.5l2.9.6c1.7.3,2.9.9,3.6,1.7.7.8,1.1,1.7,1.1,2.9s-.6,2.9-1.9,4c-1.3,1.1-3.2,1.6-5.7,1.6Z"/>
    </g>
  </g>
  <path d="M591.3,263h-5v-2h5v2ZM581.3,263h-5v-2h5v2ZM571.3,263h-5v-2h5v2ZM561.3,263h-5v-2h5v2ZM551.3,263h-5v-2h5v2ZM541.3,263h-5v-2h5v2ZM531.3,263h-5v-2h5v2ZM521.3,263h-5v-2h5v2ZM511.3,263h-5v-2h5v2ZM501.3,263h-5v-2h5v2ZM491.3,263h-5v-2h5v2ZM481.3,263h-5v-2h5v2ZM471.3,263h-5v-2h5v2ZM461.3,263h-5v-2h5v2ZM451.3,263h-5v-2h5v2Z"/>
  <path d="M872.4,338.8h-5v-2h5v2ZM862.4,338.8h-5v-2h5v2ZM852.4,338.8h-5v-2h5v2ZM842.4,338.8h-5v-2h5v2ZM832.4,338.8h-5v-2h5v2ZM822.4,338.8h-5v-2h5v2ZM812.4,338.8h-5v-2h5v2ZM802.4,338.8h-5v-2h5v2ZM792.4,338.8h-5v-2h5v2ZM782.4,338.8h-5v-2h5v2ZM772.4,338.8h-5v-2h5v2ZM762.4,338.8h-5v-2h5v2ZM752.4,338.8h-5v-2h5v2ZM742.4,338.8h-5v-2h5v2ZM732.4,338.8h-5v-2h5v2Z"/>
  <path d="M460,481.3h-5v-2h5v2ZM450,481.3h-5v-2h5v2ZM440,481.3h-5v-2h5v2ZM430,481.3h-5v-2h5v2ZM420,481.3h-5v-2h5v2ZM410,481.3h-5v-2h5v2ZM400,481.3h-5v-2h5v2ZM390,481.3h-5v-2h5v2ZM380,481.3h-5v-2h5v2ZM370,481.3h-5v-2h5v2Z"/>
  <g class="st1">
    <g class="st1">
      <path class="st9" d="M907,263.8l-2.3.2c-.2-.9-.5-1.6-.9-2-.6-.7-1.4-1-2.3-1s-1.4.2-1.9.6c-.7.5-1.3,1.3-1.7,2.3s-.6,2.5-.7,4.4c.6-.9,1.2-1.5,2-1.9.8-.4,1.7-.6,2.5-.6,1.5,0,2.9.6,4,1.7s1.6,2.6,1.6,4.4-.3,2.3-.8,3.3c-.5,1-1.2,1.8-2.1,2.3-.9.5-1.9.8-3,.8-1.9,0-3.5-.7-4.7-2.1-1.2-1.4-1.8-3.8-1.8-7s.7-6.3,2-8c1.2-1.4,2.8-2.2,4.8-2.2s2.7.4,3.7,1.2c.9.8,1.5,2,1.7,3.5ZM897.6,272c0,.8.2,1.6.5,2.3.3.7.8,1.3,1.4,1.7.6.4,1.2.6,1.9.6,1,0,1.8-.4,2.5-1.2.7-.8,1.1-1.9,1.1-3.2s-.3-2.3-1-3.1-1.6-1.1-2.6-1.1-1.9.4-2.7,1.1c-.7.8-1.1,1.7-1.1,3Z"/>
      <path class="st9" d="M918.4,278.1h-2.3v-14.8c-.6.5-1.3,1.1-2.2,1.6-.9.5-1.7.9-2.4,1.2v-2.2c1.3-.6,2.4-1.3,3.4-2.2s1.7-1.7,2.1-2.5h1.5v19Z"/>
      <path class="st9" d="M925.6,278.1v-2.6h2.6v2.6c0,1-.2,1.8-.5,2.4s-.9,1.1-1.6,1.4l-.6-1c.5-.2.9-.5,1.1-.9s.4-1,.4-1.8h-1.3Z"/>
      <path class="st9" d="M931.7,273.1l2.3-.3c.3,1.3.7,2.3,1.4,2.8s1.4.9,2.3.9,2-.4,2.8-1.1,1.1-1.7,1.1-2.8-.3-1.9-1-2.6-1.6-1-2.7-1-1,0-1.6.3l.3-2c.2,0,.3,0,.4,0,1,0,1.9-.3,2.7-.8.8-.5,1.2-1.3,1.2-2.4s-.3-1.6-.9-2.1c-.6-.6-1.3-.8-2.2-.8s-1.7.3-2.3.9c-.6.6-1,1.4-1.2,2.6l-2.3-.4c.3-1.6.9-2.8,1.9-3.6s2.3-1.3,3.8-1.3,2,.2,2.8.7c.9.4,1.5,1,2,1.8s.7,1.6.7,2.4-.2,1.6-.7,2.2c-.4.7-1.1,1.2-1.9,1.6,1.1.3,2,.8,2.6,1.6.6.8.9,1.8.9,3s-.6,3-1.8,4.2-2.7,1.7-4.6,1.7-3-.5-4.1-1.5-1.7-2.3-1.9-3.8Z"/>
      <path class="st9" d="M946.8,263.7c0-1.3.3-2.5,1-3.4s1.7-1.4,3-1.4,2.2.4,2.9,1.3c.8.8,1.2,2.1,1.2,3.7s-.4,2.8-1.2,3.7c-.8.9-1.8,1.3-2.9,1.3s-2.1-.4-2.9-1.3-1.1-2.1-1.1-3.9ZM950.9,260.5c-.6,0-1.1.2-1.4.7-.4.5-.6,1.4-.6,2.7s.2,2.1.6,2.6.9.7,1.4.7,1.1-.2,1.5-.7c.4-.5.6-1.4.6-2.7s-.2-2.1-.6-2.6-.9-.7-1.4-.7ZM950.9,278.8l10.3-19.9h1.9l-10.3,19.9h-1.9ZM959,273.7c0-1.4.3-2.5,1-3.4.7-.9,1.7-1.4,3-1.4s2.2.4,2.9,1.3,1.2,2.1,1.2,3.7-.4,2.8-1.2,3.7c-.8.9-1.8,1.3-2.9,1.3s-2.1-.4-2.9-1.3c-.8-.9-1.1-2.1-1.1-3.8ZM963.1,270.4c-.6,0-1.1.2-1.5.7-.4.5-.6,1.4-.6,2.7s.2,2.1.6,2.6c.4.5.9.7,1.4.7s1.1-.2,1.5-.7c.4-.5.6-1.4.6-2.7s-.2-2.1-.6-2.6-.9-.7-1.4-.7Z"/>
      <path class="st9" d="M971.1,278.1v-2.6h2.6v2.6c0,1-.2,1.8-.5,2.4s-.9,1.1-1.6,1.4l-.6-1c.5-.2.9-.5,1.1-.9s.4-1,.4-1.8h-1.3Z"/>
      <path class="st9" d="M994,278.1v-1.7c-.9,1.4-2.1,2-3.8,2s-2.1-.3-3-.9-1.6-1.4-2.1-2.5c-.5-1.1-.8-2.3-.8-3.7s.2-2.6.7-3.7c.5-1.1,1.1-2,2-2.6.9-.6,1.9-.9,3.1-.9s1.6.2,2.2.5c.6.3,1.2.8,1.6,1.4v-6.8h2.3v18.9h-2.2ZM986.7,271.3c0,1.8.4,3.1,1.1,3.9s1.6,1.3,2.6,1.3,1.9-.4,2.6-1.2c.7-.8,1.1-2.1,1.1-3.8s-.4-3.2-1.1-4.1c-.7-.9-1.6-1.3-2.7-1.3s-1.9.4-2.6,1.3c-.7.8-1,2.2-1,4Z"/>
      <path class="st9" d="M999,271.3c0-2.5.7-4.4,2.1-5.6,1.2-1,2.6-1.5,4.3-1.5s3.4.6,4.6,1.8c1.2,1.2,1.8,2.9,1.8,5.1s-.3,3.1-.8,4.2c-.5,1-1.3,1.8-2.3,2.4s-2.1.8-3.3.8c-1.9,0-3.5-.6-4.6-1.8-1.2-1.2-1.8-3-1.8-5.3ZM1001.4,271.3c0,1.8.4,3.1,1.1,3.9.8.9,1.7,1.3,2.9,1.3s2.1-.4,2.9-1.3c.8-.9,1.1-2.2,1.1-4s-.4-3-1.2-3.8c-.8-.9-1.7-1.3-2.9-1.3s-2.1.4-2.9,1.3-1.1,2.2-1.1,3.9Z"/>
      <path class="st9" d="M1013.6,274l2.3-.4c.1.9.5,1.6,1.1,2.1.6.5,1.4.7,2.5.7s1.9-.2,2.4-.7c.5-.4.8-.9.8-1.5s-.2-.9-.7-1.2c-.3-.2-1.1-.5-2.4-.8-1.7-.4-2.9-.8-3.5-1.1-.7-.3-1.2-.7-1.5-1.3-.3-.6-.5-1.2-.5-1.8s.1-1.2.4-1.7c.3-.5.7-1,1.1-1.3.4-.3.9-.5,1.5-.7.6-.2,1.3-.3,2-.3,1.1,0,2,.2,2.8.5.8.3,1.4.7,1.8,1.3s.7,1.2.8,2.1l-2.3.3c-.1-.7-.4-1.3-.9-1.6-.5-.4-1.2-.6-2.1-.6s-1.8.2-2.3.5c-.5.4-.7.8-.7,1.2s0,.6.3.8c.2.2.5.5.9.6.2,0,.9.3,2,.6,1.6.4,2.8.8,3.4,1.1.6.3,1.2.7,1.5,1.2.4.5.6,1.2.6,2s-.2,1.5-.7,2.2-1.1,1.2-2,1.6c-.9.4-1.8.6-2.9.6-1.8,0-3.1-.4-4.1-1.1s-1.5-1.8-1.8-3.3Z"/>
      <path class="st9" d="M1034.1,274l2.3-.4c.1.9.5,1.6,1.1,2.1.6.5,1.4.7,2.5.7s1.9-.2,2.4-.7c.5-.4.8-.9.8-1.5s-.2-.9-.7-1.2c-.3-.2-1.1-.5-2.4-.8-1.7-.4-2.9-.8-3.5-1.1-.7-.3-1.2-.7-1.5-1.3-.3-.6-.5-1.2-.5-1.8s.1-1.2.4-1.7c.3-.5.7-1,1.1-1.3.4-.3.9-.5,1.5-.7.6-.2,1.3-.3,2-.3,1.1,0,2,.2,2.8.5s1.4.7,1.8,1.3.7,1.2.8,2.1l-2.3.3c-.1-.7-.4-1.3-.9-1.6-.5-.4-1.2-.6-2.1-.6s-1.8.2-2.3.5c-.5.4-.7.8-.7,1.2s0,.6.3.8c.2.2.5.5.9.6.2,0,.9.3,2,.6,1.6.4,2.8.8,3.4,1.1.6.3,1.2.7,1.5,1.2s.6,1.2.6,2-.2,1.5-.7,2.2-1.1,1.2-2,1.6c-.9.4-1.8.6-2.9.6-1.8,0-3.1-.4-4.1-1.1-.9-.7-1.5-1.8-1.8-3.3Z"/>
      <path class="st9" d="M1057.6,273.7l2.4.3c-.4,1.4-1.1,2.5-2.1,3.3-1,.8-2.3,1.2-3.9,1.2s-3.6-.6-4.8-1.8c-1.2-1.2-1.8-3-1.8-5.2s.6-4.1,1.8-5.4c1.2-1.3,2.7-1.9,4.6-1.9s3.3.6,4.5,1.9,1.7,3,1.7,5.3,0,.3,0,.6h-10.2c0,1.5.5,2.7,1.3,3.5.8.8,1.7,1.2,2.9,1.2s1.6-.2,2.2-.7c.6-.4,1.1-1.2,1.4-2.1ZM1050,269.9h7.6c-.1-1.2-.4-2-.9-2.6-.7-.9-1.7-1.3-2.9-1.3s-2,.4-2.7,1.1c-.7.7-1.1,1.7-1.2,2.9Z"/>
      <path class="st9" d="M1062.9,278.1v-13.7h2.1v2.1c.5-1,1-1.6,1.5-1.9s.9-.5,1.5-.5c.8,0,1.6.2,2.4.7l-.8,2.2c-.6-.3-1.1-.5-1.7-.5s-1,.2-1.4.5c-.4.3-.7.7-.9,1.3-.3.8-.4,1.7-.4,2.7v7.2h-2.3Z"/>
      <path class="st9" d="M1075.5,278.1l-5.2-13.7h2.4l2.9,8.2c.3.9.6,1.8.9,2.8.2-.7.5-1.6.9-2.6l3-8.4h2.4l-5.2,13.7h-2.2Z"/>
      <path class="st9" d="M1085,261.9v-2.7h2.3v2.7h-2.3ZM1085,278.1v-13.7h2.3v13.7h-2.3Z"/>
      <path class="st9" d="M1099.7,273.1l2.3.3c-.2,1.6-.9,2.8-1.9,3.7-1,.9-2.3,1.3-3.8,1.3s-3.4-.6-4.5-1.8-1.7-3-1.7-5.3.2-2.8.7-3.9c.5-1.1,1.2-1.9,2.2-2.5,1-.6,2.1-.8,3.3-.8s2.7.4,3.6,1.1,1.6,1.8,1.8,3.2l-2.3.3c-.2-.9-.6-1.6-1.1-2.1s-1.2-.7-2-.7c-1.2,0-2.1.4-2.8,1.3s-1.1,2.2-1.1,4,.4,3.2,1.1,4c.7.8,1.6,1.2,2.8,1.2s1.7-.3,2.3-.8,1-1.4,1.2-2.6ZM1094.4,279.8l.7-2.3h1.7l-.4,1.4c.7,0,1.3.3,1.6.7s.6.8.6,1.2c0,.6-.3,1.2-.9,1.7-.6.5-1.6.7-2.8.7s-1.3,0-1.9-.2v-1.5c.7,0,1.1,0,1.4,0,.8,0,1.4-.1,1.7-.3.2-.2.4-.4.4-.6s0-.3-.1-.4c0-.1-.3-.2-.5-.3-.3,0-.7-.1-1.3-.1Z"/>
      <path class="st9" d="M1103.1,271.3c0-2.5.7-4.4,2.1-5.6,1.2-1,2.6-1.5,4.3-1.5s3.4.6,4.6,1.8,1.8,2.9,1.8,5.1-.3,3.1-.8,4.2-1.3,1.8-2.3,2.4-2.1.8-3.3.8c-1.9,0-3.5-.6-4.6-1.8-1.2-1.2-1.8-3-1.8-5.3ZM1105.5,271.3c0,1.8.4,3.1,1.1,3.9.8.9,1.7,1.3,2.9,1.3s2.1-.4,2.9-1.3c.8-.9,1.1-2.2,1.1-4s-.4-3-1.2-3.8c-.8-.9-1.7-1.3-2.9-1.3s-2.1.4-2.9,1.3c-.8.9-1.1,2.2-1.1,3.9Z"/>
      <path class="st9" d="M1117.8,274l2.3-.4c.1.9.5,1.6,1.1,2.1.6.5,1.4.7,2.5.7s1.9-.2,2.4-.7c.5-.4.8-.9.8-1.5s-.2-.9-.7-1.2c-.3-.2-1.1-.5-2.4-.8-1.7-.4-2.9-.8-3.5-1.1-.7-.3-1.2-.7-1.5-1.3-.3-.6-.5-1.2-.5-1.8s.1-1.2.4-1.7c.3-.5.7-1,1.1-1.3.4-.3.9-.5,1.5-.7.6-.2,1.3-.3,2-.3,1.1,0,2,.2,2.8.5.8.3,1.4.7,1.8,1.3s.7,1.2.8,2.1l-2.3.3c-.1-.7-.4-1.3-.9-1.6-.5-.4-1.2-.6-2.1-.6s-1.8.2-2.3.5c-.5.4-.7.8-.7,1.2s0,.6.3.8c.2.2.5.5.9.6.2,0,.9.3,2,.6,1.6.4,2.8.8,3.4,1.1.6.3,1.2.7,1.5,1.2.4.5.6,1.2.6,2s-.2,1.5-.7,2.2-1.1,1.2-2,1.6c-.9.4-1.8.6-2.9.6-1.8,0-3.1-.4-4.1-1.1s-1.5-1.8-1.8-3.3Z"/>
    </g>
    <g class="st1">
      <path class="st9" d="M904.5,310.8v-1.7c-.9,1.4-2.1,2-3.8,2s-2.1-.3-3-.9-1.6-1.4-2.1-2.5c-.5-1.1-.8-2.3-.8-3.7s.2-2.6.7-3.7c.5-1.1,1.1-2,2-2.6.9-.6,1.9-.9,3.1-.9s1.6.2,2.2.5c.6.3,1.2.8,1.6,1.4v-6.8h2.3v18.9h-2.2ZM897.2,304c0,1.8.4,3.1,1.1,3.9s1.6,1.3,2.6,1.3,1.9-.4,2.6-1.2c.7-.8,1.1-2.1,1.1-3.8s-.4-3.2-1.1-4.1c-.7-.9-1.6-1.3-2.7-1.3s-1.9.4-2.6,1.3c-.7.8-1,2.2-1,4Z"/>
      <path class="st9" d="M919.7,306.4l2.4.3c-.4,1.4-1.1,2.5-2.1,3.3-1,.8-2.3,1.2-3.9,1.2s-3.6-.6-4.8-1.8c-1.2-1.2-1.8-3-1.8-5.2s.6-4.1,1.8-5.4c1.2-1.3,2.7-1.9,4.6-1.9s3.3.6,4.5,1.9,1.7,3,1.7,5.3,0,.3,0,.6h-10.2c0,1.5.5,2.7,1.3,3.5.8.8,1.7,1.2,2.9,1.2s1.6-.2,2.2-.7c.6-.4,1.1-1.2,1.4-2.1ZM912.1,302.6h7.6c-.1-1.2-.4-2-.9-2.6-.7-.9-1.7-1.3-2.9-1.3s-2,.4-2.7,1.1c-.7.7-1.1,1.7-1.2,2.9Z"/>
      <path class="st9" d="M941.7,306.4l2.4.3c-.4,1.4-1.1,2.5-2.1,3.3s-2.3,1.2-3.9,1.2-3.6-.6-4.8-1.8c-1.2-1.2-1.8-3-1.8-5.2s.6-4.1,1.8-5.4c1.2-1.3,2.7-1.9,4.6-1.9s3.3.6,4.5,1.9,1.7,3,1.7,5.3,0,.3,0,.6h-10.2c0,1.5.5,2.7,1.3,3.5.8.8,1.7,1.2,2.9,1.2s1.6-.2,2.2-.7c.6-.4,1.1-1.2,1.4-2.1ZM934.1,302.6h7.6c-.1-1.2-.4-2-.9-2.6-.7-.9-1.7-1.3-2.9-1.3s-2,.4-2.7,1.1c-.7.7-1.1,1.7-1.2,2.9Z"/>
      <path class="st9" d="M946.1,306.7l2.3-.4c.1.9.5,1.6,1.1,2.1.6.5,1.4.7,2.5.7s1.9-.2,2.4-.7c.5-.4.8-.9.8-1.5s-.2-.9-.7-1.2c-.3-.2-1.1-.5-2.4-.8-1.7-.4-2.9-.8-3.5-1.1-.7-.3-1.2-.7-1.5-1.3-.3-.6-.5-1.2-.5-1.8s.1-1.2.4-1.7c.3-.5.7-1,1.1-1.3.4-.3.9-.5,1.5-.7.6-.2,1.3-.3,2-.3,1.1,0,2,.2,2.8.5s1.4.7,1.8,1.3.7,1.2.8,2.1l-2.3.3c-.1-.7-.4-1.3-.9-1.6-.5-.4-1.2-.6-2.1-.6s-1.8.2-2.3.5c-.5.4-.7.8-.7,1.2s0,.6.3.8c.2.2.5.5.9.6.2,0,.9.3,2,.6,1.6.4,2.8.8,3.4,1.1.6.3,1.2.7,1.5,1.2s.6,1.2.6,2-.2,1.5-.7,2.2-1.1,1.2-2,1.6c-.9.4-1.8.6-2.9.6-1.8,0-3.1-.4-4.1-1.1-.9-.7-1.5-1.8-1.8-3.3Z"/>
      <path class="st9" d="M959.8,311.9l2.3.3c0,.7.4,1.2.8,1.5.6.4,1.4.6,2.4.6s1.9-.2,2.5-.6c.6-.4,1-1,1.2-1.8.1-.5.2-1.5.2-3-1,1.2-2.3,1.8-3.8,1.8s-3.3-.7-4.4-2c-1-1.4-1.5-3-1.5-4.9s.2-2.5.7-3.6,1.2-2,2.1-2.6c.9-.6,2-.9,3.2-.9s2.9.7,4,2v-1.6h2.1v11.8c0,2.1-.2,3.6-.7,4.5-.4.9-1.1,1.6-2.1,2.1-.9.5-2.1.8-3.5.8s-3-.4-4-1.1c-1-.7-1.5-1.8-1.5-3.3ZM961.7,303.7c0,1.8.4,3.1,1.1,3.9.7.8,1.6,1.2,2.7,1.2s2-.4,2.7-1.2c.7-.8,1.1-2.1,1.1-3.9s-.4-2.9-1.1-3.8c-.7-.9-1.6-1.3-2.7-1.3s-1.9.4-2.6,1.3-1.1,2.1-1.1,3.7Z"/>
      <path class="st9" d="M974,304c0-2.5.7-4.4,2.1-5.6,1.2-1,2.6-1.5,4.3-1.5s3.4.6,4.6,1.8c1.2,1.2,1.8,2.9,1.8,5.1s-.3,3.1-.8,4.2c-.5,1-1.3,1.8-2.3,2.4s-2.1.8-3.3.8c-1.9,0-3.5-.6-4.6-1.8-1.2-1.2-1.8-3-1.8-5.3ZM976.4,304c0,1.8.4,3.1,1.1,3.9.8.9,1.7,1.3,2.9,1.3s2.1-.4,2.9-1.3c.8-.9,1.1-2.2,1.1-4s-.4-3-1.2-3.8c-.8-.9-1.7-1.3-2.9-1.3s-2.1.4-2.9,1.3-1.1,2.2-1.1,3.9Z"/>
      <path class="st9" d="M994.7,308.7l.3,2c-.7.1-1.2.2-1.8.2-.8,0-1.5-.1-2-.4-.5-.3-.8-.6-1-1.1-.2-.4-.3-1.3-.3-2.7v-7.9h-1.7v-1.8h1.7v-3.4l2.3-1.4v4.8h2.3v1.8h-2.3v8c0,.7,0,1.1.1,1.3,0,.2.2.3.4.5.2.1.4.2.8.2s.6,0,1,0Z"/>
      <path class="st9" d="M1005.9,309.1c-.9.7-1.7,1.2-2.5,1.5s-1.6.5-2.6.5c-1.5,0-2.7-.4-3.5-1.1-.8-.7-1.2-1.7-1.2-2.8s.2-1.3.5-1.8c.3-.6.7-1,1.2-1.3s1.1-.6,1.7-.8c.5-.1,1.1-.2,2.1-.3,1.9-.2,3.3-.5,4.1-.8,0-.3,0-.5,0-.6,0-.9-.2-1.6-.7-2-.6-.5-1.5-.8-2.6-.8s-1.9.2-2.4.6c-.5.4-.9,1.1-1.2,2l-2.3-.3c.2-1,.5-1.8,1-2.4.5-.6,1.2-1.1,2-1.4s1.9-.5,3.1-.5,2.1.1,2.8.4c.7.3,1.3.6,1.6,1s.6.9.7,1.6c0,.4.1,1.1.1,2.1v3.1c0,2.2,0,3.5.1,4.1s.3,1.1.6,1.6h-2.4c-.2-.5-.4-1-.5-1.7ZM1005.7,303.9c-.8.3-2.1.6-3.8.9-1,.1-1.6.3-2,.5-.4.2-.7.4-.9.8-.2.3-.3.7-.3,1.1,0,.6.2,1.1.7,1.5.5.4,1.2.6,2.1.6s1.7-.2,2.4-.6c.7-.4,1.2-.9,1.5-1.6.2-.5.4-1.3.4-2.3v-.9Z"/>
      <path class="st9" d="M1011.6,310.8v-13.7h2.1v1.9c.4-.7,1-1.2,1.7-1.6.7-.4,1.5-.6,2.4-.6s1.8.2,2.5.6c.6.4,1.1,1,1.4,1.8,1.1-1.6,2.5-2.4,4.2-2.4s2.4.4,3.1,1.1c.7.8,1.1,1.9,1.1,3.5v9.4h-2.3v-8.6c0-.9,0-1.6-.2-2s-.4-.7-.8-1c-.4-.2-.9-.4-1.4-.4-1,0-1.8.3-2.4,1-.6.6-1,1.7-1,3.1v8h-2.3v-8.9c0-1-.2-1.8-.6-2.3s-1-.8-1.9-.8-1.3.2-1.8.5c-.6.3-1,.8-1.2,1.5-.2.7-.4,1.6-.4,2.9v7.1h-2.3Z"/>
      <path class="st9" d="M1043,306.4l2.4.3c-.4,1.4-1.1,2.5-2.1,3.3s-2.3,1.2-3.9,1.2-3.6-.6-4.8-1.8c-1.2-1.2-1.8-3-1.8-5.2s.6-4.1,1.8-5.4c1.2-1.3,2.7-1.9,4.6-1.9s3.3.6,4.5,1.9,1.7,3,1.7,5.3,0,.3,0,.6h-10.2c0,1.5.5,2.7,1.3,3.5.8.8,1.7,1.2,2.9,1.2s1.6-.2,2.2-.7c.6-.4,1.1-1.2,1.4-2.1ZM1035.3,302.6h7.6c-.1-1.2-.4-2-.9-2.6-.7-.9-1.7-1.3-2.9-1.3s-2,.4-2.7,1.1c-.7.7-1.1,1.7-1.2,2.9Z"/>
      <path class="st9" d="M1048.3,310.8v-13.7h2.1v1.9c1-1.5,2.5-2.3,4.4-2.3s1.6.1,2.3.4c.7.3,1.2.7,1.6,1.2s.6,1.1.7,1.7c0,.4.1,1.2.1,2.3v8.4h-2.3v-8.3c0-.9,0-1.7-.3-2.1-.2-.5-.5-.8-1-1.1-.5-.3-1-.4-1.6-.4-1,0-1.8.3-2.6.9-.7.6-1.1,1.8-1.1,3.6v7.5h-2.3Z"/>
      <path class="st9" d="M1068,308.7l.3,2c-.7.1-1.2.2-1.8.2-.8,0-1.5-.1-2-.4-.5-.3-.8-.6-1-1.1-.2-.4-.3-1.3-.3-2.7v-7.9h-1.7v-1.8h1.7v-3.4l2.3-1.4v4.8h2.3v1.8h-2.3v8c0,.7,0,1.1.1,1.3,0,.2.2.3.4.5.2.1.4.2.8.2s.6,0,1,0Z"/>
      <path class="st9" d="M1069.4,304c0-2.5.7-4.4,2.1-5.6,1.2-1,2.6-1.5,4.3-1.5s3.4.6,4.6,1.8c1.2,1.2,1.8,2.9,1.8,5.1s-.3,3.1-.8,4.2c-.5,1-1.3,1.8-2.3,2.4s-2.1.8-3.3.8c-1.9,0-3.5-.6-4.6-1.8-1.2-1.2-1.8-3-1.8-5.3ZM1071.8,304c0,1.8.4,3.1,1.1,3.9.8.9,1.7,1.3,2.9,1.3s2.1-.4,2.9-1.3c.8-.9,1.1-2.2,1.1-4s-.4-3-1.2-3.8c-.8-.9-1.7-1.3-2.9-1.3s-2.1.4-2.9,1.3-1.1,2.2-1.1,3.9Z"/>
    </g>
    <g class="st1">
      <path class="st9" d="M894.7,339.3l2.3-.4c.1.9.5,1.6,1.1,2.1.6.5,1.4.7,2.5.7s1.9-.2,2.4-.7c.5-.4.8-.9.8-1.5s-.2-.9-.7-1.2c-.3-.2-1.1-.5-2.4-.8-1.7-.4-2.9-.8-3.5-1.1-.7-.3-1.2-.7-1.5-1.3-.3-.6-.5-1.2-.5-1.8s.1-1.2.4-1.7c.3-.5.7-1,1.1-1.3.4-.3.9-.5,1.5-.7.6-.2,1.3-.3,2-.3,1.1,0,2,.2,2.8.5s1.4.7,1.8,1.3.7,1.2.8,2.1l-2.3.3c-.1-.7-.4-1.3-.9-1.6-.5-.4-1.2-.6-2.1-.6s-1.8.2-2.3.5c-.5.4-.7.8-.7,1.2s0,.6.3.8c.2.2.5.5.9.6.2,0,.9.3,2,.6,1.6.4,2.8.8,3.4,1.1.6.3,1.2.7,1.5,1.2s.6,1.2.6,2-.2,1.5-.7,2.2-1.1,1.2-2,1.6c-.9.4-1.8.6-2.9.6-1.8,0-3.1-.4-4.1-1.1-.9-.7-1.5-1.8-1.8-3.3Z"/>
      <path class="st9" d="M917.8,341.7c-.9.7-1.7,1.2-2.5,1.5s-1.6.5-2.6.5c-1.5,0-2.7-.4-3.5-1.1-.8-.7-1.2-1.7-1.2-2.8s.2-1.3.5-1.8.7-1,1.2-1.3,1.1-.6,1.7-.8c.5-.1,1.1-.2,2.1-.3,1.9-.2,3.3-.5,4.1-.8,0-.3,0-.5,0-.6,0-.9-.2-1.6-.7-2-.6-.5-1.5-.8-2.6-.8s-1.9.2-2.4.6c-.5.4-.9,1.1-1.2,2l-2.3-.3c.2-1,.5-1.8,1-2.4.5-.6,1.2-1.1,2-1.4s1.9-.5,3.1-.5,2.1.1,2.8.4c.7.3,1.3.6,1.6,1s.6.9.7,1.6c0,.4.1,1.1.1,2.1v3.1c0,2.2,0,3.5.1,4.1,0,.6.3,1.1.6,1.6h-2.4c-.2-.5-.4-1-.5-1.7ZM917.6,336.5c-.8.3-2.1.6-3.8.9-1,.1-1.6.3-2,.5s-.7.4-.9.8c-.2.3-.3.7-.3,1.1,0,.6.2,1.1.7,1.5.5.4,1.2.6,2.1.6s1.7-.2,2.4-.6c.7-.4,1.2-.9,1.5-1.6.2-.5.4-1.3.4-2.3v-.9Z"/>
      <path class="st9" d="M923.5,343.4v-13.7h2.1v1.9c1-1.5,2.5-2.3,4.4-2.3s1.6.1,2.3.4c.7.3,1.2.7,1.6,1.2s.6,1.1.7,1.7c0,.4.1,1.2.1,2.3v8.4h-2.3v-8.3c0-.9,0-1.7-.3-2.1-.2-.5-.5-.8-1-1.1s-1-.4-1.6-.4c-1,0-1.8.3-2.6.9-.7.6-1.1,1.8-1.1,3.6v7.5h-2.3Z"/>
      <path class="st9" d="M938.2,327.2v-2.7h2.3v2.7h-2.3ZM938.2,343.4v-13.7h2.3v13.7h-2.3Z"/>
      <path class="st9" d="M949.1,341.3l.3,2c-.7.1-1.2.2-1.8.2-.8,0-1.5-.1-2-.4-.5-.3-.8-.6-1-1.1-.2-.4-.3-1.3-.3-2.7v-7.9h-1.7v-1.8h1.7v-3.4l2.3-1.4v4.8h2.3v1.8h-2.3v8c0,.7,0,1.1.1,1.3,0,.2.2.3.4.5.2.1.4.2.8.2s.6,0,1,0Z"/>
      <path class="st9" d="M960.3,341.7c-.9.7-1.7,1.2-2.5,1.5s-1.6.5-2.6.5c-1.5,0-2.7-.4-3.5-1.1-.8-.7-1.2-1.7-1.2-2.8s.2-1.3.5-1.8.7-1,1.2-1.3,1.1-.6,1.7-.8c.5-.1,1.1-.2,2.1-.3,1.9-.2,3.3-.5,4.1-.8,0-.3,0-.5,0-.6,0-.9-.2-1.6-.7-2-.6-.5-1.5-.8-2.6-.8s-1.9.2-2.4.6c-.5.4-.9,1.1-1.2,2l-2.3-.3c.2-1,.5-1.8,1-2.4.5-.6,1.2-1.1,2-1.4s1.9-.5,3.1-.5,2.1.1,2.8.4c.7.3,1.3.6,1.6,1s.6.9.7,1.6c0,.4.1,1.1.1,2.1v3.1c0,2.2,0,3.5.1,4.1,0,.6.3,1.1.6,1.6h-2.4c-.2-.5-.4-1-.5-1.7ZM960.1,336.5c-.8.3-2.1.6-3.8.9-1,.1-1.6.3-2,.5s-.7.4-.9.8c-.2.3-.3.7-.3,1.1,0,.6.2,1.1.7,1.5.5.4,1.2.6,2.1.6s1.7-.2,2.4-.6c.7-.4,1.2-.9,1.5-1.6.2-.5.4-1.3.4-2.3v-.9ZM955.6,328l1.7-3.6h3l-2.8,3.6h-1.9Z"/>
      <path class="st9" d="M966.1,343.4v-13.7h2.1v2.1c.5-1,1-1.6,1.5-1.9s.9-.5,1.5-.5c.8,0,1.6.2,2.4.7l-.8,2.2c-.6-.3-1.1-.5-1.7-.5s-1,.2-1.4.5c-.4.3-.7.7-.9,1.3-.3.8-.4,1.7-.4,2.7v7.2h-2.3Z"/>
      <path class="st9" d="M974.9,327.2v-2.7h2.3v2.7h-2.3ZM974.9,343.4v-13.7h2.3v13.7h-2.3Z"/>
      <path class="st9" d="M979.9,336.6c0-2.5.7-4.4,2.1-5.6,1.2-1,2.6-1.5,4.3-1.5s3.4.6,4.6,1.8,1.8,2.9,1.8,5.1-.3,3.1-.8,4.2-1.3,1.8-2.3,2.4-2.1.8-3.3.8c-1.9,0-3.5-.6-4.6-1.8-1.2-1.2-1.8-3-1.8-5.3ZM982.3,336.6c0,1.8.4,3.1,1.1,3.9.8.9,1.7,1.3,2.9,1.3s2.1-.4,2.9-1.3c.8-.9,1.1-2.2,1.1-4s-.4-3-1.2-3.8c-.8-.9-1.7-1.3-2.9-1.3s-2.1.4-2.9,1.3c-.8.9-1.1,2.2-1.1,3.9Z"/>
      <path class="st9" d="M1001.8,339.3l2.3-.4c.1.9.5,1.6,1.1,2.1.6.5,1.4.7,2.5.7s1.9-.2,2.4-.7c.5-.4.8-.9.8-1.5s-.2-.9-.7-1.2c-.3-.2-1.1-.5-2.4-.8-1.7-.4-2.9-.8-3.5-1.1-.7-.3-1.2-.7-1.5-1.3-.3-.6-.5-1.2-.5-1.8s.1-1.2.4-1.7c.3-.5.7-1,1.1-1.3.4-.3.9-.5,1.5-.7.6-.2,1.3-.3,2-.3,1.1,0,2,.2,2.8.5s1.4.7,1.8,1.3.7,1.2.8,2.1l-2.3.3c-.1-.7-.4-1.3-.9-1.6-.5-.4-1.2-.6-2.1-.6s-1.8.2-2.3.5c-.5.4-.7.8-.7,1.2s0,.6.3.8c.2.2.5.5.9.6.2,0,.9.3,2,.6,1.6.4,2.8.8,3.4,1.1.6.3,1.2.7,1.5,1.2s.6,1.2.6,2-.2,1.5-.7,2.2-1.1,1.2-2,1.6c-.9.4-1.8.6-2.9.6-1.8,0-3.1-.4-4.1-1.1-.9-.7-1.5-1.8-1.8-3.3Z"/>
      <path class="st9" d="M1024.9,341.7c-.9.7-1.7,1.2-2.5,1.5s-1.6.5-2.6.5c-1.5,0-2.7-.4-3.5-1.1-.8-.7-1.2-1.7-1.2-2.8s.2-1.3.5-1.8c.3-.6.7-1,1.2-1.3s1.1-.6,1.7-.8c.5-.1,1.1-.2,2.1-.3,1.9-.2,3.3-.5,4.1-.8,0-.3,0-.5,0-.6,0-.9-.2-1.6-.7-2-.6-.5-1.5-.8-2.6-.8s-1.9.2-2.4.6c-.5.4-.9,1.1-1.2,2l-2.3-.3c.2-1,.5-1.8,1-2.4.5-.6,1.2-1.1,2-1.4s1.9-.5,3.1-.5,2.1.1,2.8.4c.7.3,1.3.6,1.6,1s.6.9.7,1.6c0,.4.1,1.1.1,2.1v3.1c0,2.2,0,3.5.1,4.1s.3,1.1.6,1.6h-2.4c-.2-.5-.4-1-.5-1.7ZM1017.2,327.7c0-.9.2-1.6.7-2.1.5-.5,1.1-.8,1.9-.8s1.3.2,2.2.7c.5.3.9.4,1.2.4s.5,0,.6-.2c.1-.1.2-.4.3-.9h1.7c0,1-.3,1.7-.7,2.2-.5.5-1.1.7-1.8.7s-1.3-.2-2.1-.7c-.6-.3-1-.5-1.3-.5s-.5.1-.7.3c-.2.2-.3.5-.3.9h-1.7ZM1024.7,336.5c-.8.3-2.1.6-3.8.9-1,.1-1.6.3-2,.5-.4.2-.7.4-.9.8-.2.3-.3.7-.3,1.1,0,.6.2,1.1.7,1.5.5.4,1.2.6,2.1.6s1.7-.2,2.4-.6c.7-.4,1.2-.9,1.5-1.6.2-.5.4-1.3.4-2.3v-.9Z"/>
      <path class="st9" d="M1029.8,336.6c0-2.5.7-4.4,2.1-5.6,1.2-1,2.6-1.5,4.3-1.5s3.4.6,4.6,1.8,1.8,2.9,1.8,5.1-.3,3.1-.8,4.2-1.3,1.8-2.3,2.4-2.1.8-3.3.8c-1.9,0-3.5-.6-4.6-1.8-1.2-1.2-1.8-3-1.8-5.3ZM1032.2,336.6c0,1.8.4,3.1,1.1,3.9.8.9,1.7,1.3,2.9,1.3s2.1-.4,2.9-1.3c.8-.9,1.1-2.2,1.1-4s-.4-3-1.2-3.8c-.8-.9-1.7-1.3-2.9-1.3s-2.1.4-2.9,1.3c-.8.9-1.1,2.2-1.1,3.9Z"/>
    </g>
    <g class="st1">
      <path class="st9" d="M895.6,387.3v-18.9h2.1v1.8c.5-.7,1.1-1.2,1.7-1.6.6-.3,1.4-.5,2.3-.5s2.2.3,3.1.9,1.6,1.5,2,2.5c.5,1.1.7,2.3.7,3.6s-.3,2.7-.8,3.8c-.5,1.1-1.2,2-2.2,2.6-1,.6-2,.9-3,.9s-1.5-.2-2.1-.5c-.6-.3-1.1-.7-1.5-1.2v6.7h-2.3ZM897.7,375.3c0,1.8.4,3.1,1.1,3.9.7.8,1.6,1.3,2.6,1.3s1.9-.4,2.6-1.3c.7-.9,1.1-2.2,1.1-4.1s-.4-3.1-1.1-3.9-1.6-1.3-2.6-1.3-1.9.5-2.6,1.4c-.8.9-1.1,2.3-1.1,4Z"/>
      <path class="st9" d="M910.3,382.1v-13.7h2.1v2.1c.5-1,1-1.6,1.5-1.9s.9-.5,1.5-.5c.8,0,1.6.2,2.4.7l-.8,2.2c-.6-.3-1.1-.5-1.7-.5s-1,.2-1.4.5c-.4.3-.7.7-.9,1.3-.3.8-.4,1.7-.4,2.7v7.2h-2.3Z"/>
      <path class="st9" d="M928.5,377.7l2.4.3c-.4,1.4-1.1,2.5-2.1,3.3-1,.8-2.3,1.2-3.9,1.2s-3.6-.6-4.8-1.8c-1.2-1.2-1.8-3-1.8-5.2s.6-4.1,1.8-5.4c1.2-1.3,2.7-1.9,4.6-1.9s3.3.6,4.5,1.9,1.7,3,1.7,5.3,0,.3,0,.6h-10.2c0,1.5.5,2.7,1.3,3.5.8.8,1.7,1.2,2.9,1.2s1.6-.2,2.2-.7c.6-.4,1.1-1.2,1.4-2.1ZM920.9,373.9h7.6c-.1-1.2-.4-2-.9-2.6-.7-.9-1.7-1.3-2.9-1.3s-2,.4-2.7,1.1c-.7.7-1.1,1.7-1.2,2.9Z"/>
      <path class="st9" d="M932.9,378l2.3-.4c.1.9.5,1.6,1.1,2.1.6.5,1.4.7,2.5.7s1.9-.2,2.4-.7c.5-.4.8-.9.8-1.5s-.2-.9-.7-1.2c-.3-.2-1.1-.5-2.4-.8-1.7-.4-2.9-.8-3.5-1.1-.7-.3-1.2-.7-1.5-1.3-.3-.6-.5-1.2-.5-1.8s.1-1.2.4-1.7c.3-.5.7-1,1.1-1.3.4-.3.9-.5,1.5-.7.6-.2,1.3-.3,2-.3,1.1,0,2,.2,2.8.5s1.4.7,1.8,1.3.7,1.2.8,2.1l-2.3.3c-.1-.7-.4-1.3-.9-1.6-.5-.4-1.2-.6-2.1-.6s-1.8.2-2.3.5c-.5.4-.7.8-.7,1.2s0,.6.3.8c.2.2.5.5.9.6.2,0,.9.3,2,.6,1.6.4,2.8.8,3.4,1.1.6.3,1.2.7,1.5,1.2s.6,1.2.6,2-.2,1.5-.7,2.2-1.1,1.2-2,1.6c-.9.4-1.8.6-2.9.6-1.8,0-3.1-.4-4.1-1.1-.9-.7-1.5-1.8-1.8-3.3Z"/>
      <path class="st9" d="M952.1,380l.3,2c-.7.1-1.2.2-1.8.2-.8,0-1.5-.1-2-.4-.5-.3-.8-.6-1-1.1-.2-.4-.3-1.3-.3-2.7v-7.9h-1.7v-1.8h1.7v-3.4l2.3-1.4v4.8h2.3v1.8h-2.3v8c0,.7,0,1.1.1,1.3,0,.2.2.3.4.5.2.1.4.2.8.2s.6,0,1,0Z"/>
      <path class="st9" d="M963.3,380.4c-.9.7-1.7,1.2-2.5,1.5s-1.6.5-2.6.5c-1.5,0-2.7-.4-3.5-1.1-.8-.7-1.2-1.7-1.2-2.8s.2-1.3.5-1.8c.3-.6.7-1,1.2-1.3s1.1-.6,1.7-.8c.5-.1,1.1-.2,2.1-.3,1.9-.2,3.3-.5,4.1-.8,0-.3,0-.5,0-.6,0-.9-.2-1.6-.7-2-.6-.5-1.5-.8-2.6-.8s-1.9.2-2.4.6c-.5.4-.9,1.1-1.2,2l-2.3-.3c.2-1,.5-1.8,1-2.4.5-.6,1.2-1.1,2-1.4s1.9-.5,3.1-.5,2.1.1,2.8.4c.7.3,1.3.6,1.6,1s.6.9.7,1.6c0,.4.1,1.1.1,2.1v3.1c0,2.2,0,3.5.1,4.1s.3,1.1.6,1.6h-2.4c-.2-.5-.4-1-.5-1.7ZM963.1,375.2c-.8.3-2.1.6-3.8.9-1,.1-1.6.3-2,.5-.4.2-.7.4-.9.8-.2.3-.3.7-.3,1.1,0,.6.2,1.1.7,1.5.5.4,1.2.6,2.1.6s1.7-.2,2.4-.6c.7-.4,1.2-.9,1.5-1.6.2-.5.4-1.3.4-2.3v-.9Z"/>
      <path class="st9" d="M977.9,382.1v-1.7c-.9,1.4-2.1,2-3.8,2s-2.1-.3-3-.9c-.9-.6-1.6-1.4-2.1-2.5-.5-1.1-.8-2.3-.8-3.7s.2-2.6.7-3.7c.5-1.1,1.1-2,2-2.6.9-.6,1.9-.9,3.1-.9s1.6.2,2.2.5c.6.3,1.2.8,1.6,1.4v-6.8h2.3v18.9h-2.2ZM970.6,375.3c0,1.8.4,3.1,1.1,3.9.7.9,1.6,1.3,2.6,1.3s1.9-.4,2.6-1.2c.7-.8,1.1-2.1,1.1-3.8s-.4-3.2-1.1-4.1-1.6-1.3-2.7-1.3-1.9.4-2.6,1.3c-.7.8-1,2.2-1,4Z"/>
      <path class="st9" d="M982.8,375.3c0-2.5.7-4.4,2.1-5.6,1.2-1,2.6-1.5,4.3-1.5s3.4.6,4.6,1.8c1.2,1.2,1.8,2.9,1.8,5.1s-.3,3.1-.8,4.2c-.5,1-1.3,1.8-2.3,2.4s-2.1.8-3.3.8c-1.9,0-3.5-.6-4.6-1.8-1.2-1.2-1.8-3-1.8-5.3ZM985.2,375.3c0,1.8.4,3.1,1.1,3.9.8.9,1.7,1.3,2.9,1.3s2.1-.4,2.9-1.3c.8-.9,1.1-2.2,1.1-4s-.4-3-1.2-3.8c-.8-.9-1.7-1.3-2.9-1.3s-2.1.4-2.9,1.3-1.1,2.2-1.1,3.9Z"/>
      <path class="st9" d="M997.5,378l2.3-.4c.1.9.5,1.6,1.1,2.1.6.5,1.4.7,2.5.7s1.9-.2,2.4-.7c.5-.4.8-.9.8-1.5s-.2-.9-.7-1.2c-.3-.2-1.1-.5-2.4-.8-1.7-.4-2.9-.8-3.5-1.1-.7-.3-1.2-.7-1.5-1.3-.3-.6-.5-1.2-.5-1.8s.1-1.2.4-1.7c.3-.5.7-1,1.1-1.3.4-.3.9-.5,1.5-.7.6-.2,1.3-.3,2-.3,1.1,0,2,.2,2.8.5s1.4.7,1.8,1.3.7,1.2.8,2.1l-2.3.3c-.1-.7-.4-1.3-.9-1.6-.5-.4-1.2-.6-2.1-.6s-1.8.2-2.3.5c-.5.4-.7.8-.7,1.2s0,.6.3.8c.2.2.5.5.9.6.2,0,.9.3,2,.6,1.6.4,2.8.8,3.4,1.1.6.3,1.2.7,1.5,1.2s.6,1.2.6,2-.2,1.5-.7,2.2-1.1,1.2-2,1.6c-.9.4-1.8.6-2.9.6-1.8,0-3.1-.4-4.1-1.1-.9-.7-1.5-1.8-1.8-3.3Z"/>
    </g>
    <g class="st1">
      <path class="st9" d="M1021.6,387.3v-18.9h2.1v1.8c.5-.7,1.1-1.2,1.7-1.6.6-.3,1.4-.5,2.3-.5s2.2.3,3.1.9,1.6,1.5,2,2.5c.5,1.1.7,2.3.7,3.6s-.3,2.7-.8,3.8c-.5,1.1-1.2,2-2.2,2.6-1,.6-2,.9-3,.9s-1.5-.2-2.1-.5c-.6-.3-1.1-.7-1.5-1.2v6.7h-2.3ZM1023.7,375.3c0,1.8.4,3.1,1.1,3.9.7.8,1.6,1.3,2.6,1.3s1.9-.4,2.6-1.3c.7-.9,1.1-2.2,1.1-4.1s-.4-3.1-1.1-3.9-1.6-1.3-2.6-1.3-1.9.5-2.6,1.4c-.8.9-1.1,2.3-1.1,4Z"/>
      <path class="st9" d="M1035.5,375.3c0-2.5.7-4.4,2.1-5.6,1.2-1,2.6-1.5,4.3-1.5s3.4.6,4.6,1.8c1.2,1.2,1.8,2.9,1.8,5.1s-.3,3.1-.8,4.2c-.5,1-1.3,1.8-2.3,2.4s-2.1.8-3.3.8c-1.9,0-3.5-.6-4.6-1.8-1.2-1.2-1.8-3-1.8-5.3ZM1037.8,375.3c0,1.8.4,3.1,1.1,3.9.8.9,1.7,1.3,2.9,1.3s2.1-.4,2.9-1.3c.8-.9,1.1-2.2,1.1-4s-.4-3-1.2-3.8c-.8-.9-1.7-1.3-2.9-1.3s-2.1.4-2.9,1.3-1.1,2.2-1.1,3.9Z"/>
      <path class="st9" d="M1051,382.1v-13.7h2.1v2.1c.5-1,1-1.6,1.5-1.9s.9-.5,1.5-.5c.8,0,1.6.2,2.4.7l-.8,2.2c-.6-.3-1.1-.5-1.7-.5s-1,.2-1.4.5c-.4.3-.7.7-.9,1.3-.3.8-.4,1.7-.4,2.7v7.2h-2.3Z"/>
    </g>
    <g class="st1">
      <path class="st9" d="M903.8,421.1c-2.7,0-4.8-.7-6.4-2.2-1.6-1.5-2.3-3.5-2.3-6.2s.4-3.3,1.1-4.5,1.7-2.2,3-2.9c1.3-.7,2.7-1,4.4-1s3.1.3,4.3,1c1.2.7,2.1,1.6,2.7,2.7.6,1.2.9,2.5.9,4s0,.8,0,1.2,0,.7,0,1h-11c.2,1.1.5,1.9,1.1,2.4.6.5,1.3.7,2.3.7s1.5-.2,2-.5c.5-.3.8-.8,1.1-1.4l4.4,1.5c-.3.9-.8,1.7-1.6,2.3s-1.6,1.1-2.6,1.4c-1,.3-2.1.5-3.2.5ZM903.5,408.2c-1.7,0-2.8,1-3.1,3h5.9c-.2-2-1.2-3-2.8-3Z"/>
      <path class="st9" d="M914.6,420.8v-16.2h4.9l.2,3.3c.5-1.2,1.2-2.1,2.2-2.7.9-.6,2.1-.9,3.4-.9s3,.5,4,1.5c1,1,1.6,2.4,1.6,4.3v10.8h-5.5v-9.3c0-1.1-.2-1.9-.6-2.3s-1-.6-1.6-.6-1.5.3-2.1.8c-.6.6-.9,1.5-.9,2.9v8.6h-5.5Z"/>
      <path class="st9" d="M946.1,404.6v3.9h-4.8v6.5c0,.8.2,1.3.6,1.7.4.3.9.5,1.6.5s1,0,1.3-.2.7-.3,1-.5l.6,3.4c-.5.4-1.2.7-2.1.9-.8.2-1.7.3-2.5.3-1.9,0-3.3-.4-4.4-1.2-1.1-.8-1.6-2.1-1.6-4v-7.4h-2.8v-3.9h2.8v-3.6l5.5-1.5v5.1h4.8Z"/>
      <path class="st9" d="M951.4,402.8c-1.1,0-1.9-.2-2.4-.6s-.8-1.1-.8-2,.3-1.6.8-2,1.3-.6,2.4-.6,1.9.2,2.4.6.8,1.1.8,2-.3,1.6-.8,2-1.3.6-2.4.6ZM954.1,404.6v16.2h-5.5v-16.2h5.5Z"/>
      <path class="st9" d="M964,421.1c-2,0-3.6-.7-4.8-2.2-1.2-1.5-1.8-3.5-1.8-6.1s.3-3.3.9-4.6,1.4-2.2,2.4-2.9c1-.7,2.2-1,3.5-1s2.1.3,2.9.8c.8.6,1.4,1.3,1.8,2.2v-9.6h5.5v23h-4.9l-.2-3.2c-.5,1.1-1.1,1.9-2.1,2.6-.9.6-2,.9-3.2.9ZM965.9,417.1c.9,0,1.6-.4,2.2-1.1.5-.8.8-1.9.8-3.3s-.3-2.4-.8-3.1-1.2-1.1-2.2-1.1-1.7.4-2.2,1c-.5.7-.8,1.8-.8,3.3s.3,2.6.8,3.3c.5.7,1.3,1,2.2,1Z"/>
      <path class="st9" d="M987.3,410.6c0-.8-.2-1.4-.6-1.8-.4-.4-1-.7-1.7-.7s-1.3.2-1.8.5-.9,1-1,1.9l-4.7-1.1c.3-1.6,1.1-2.8,2.4-3.7s3.1-1.4,5.5-1.4,4.2.5,5.5,1.6c1.3,1,2,2.6,2,4.6v5.9c0,.8.4,1.3,1.1,1.3s.7,0,.9-.1l-.3,3.1c-.6.3-1.4.5-2.4.5s-1.9-.2-2.6-.6c-.7-.4-1.2-1-1.5-1.8-.5.8-1.2,1.5-2.1,1.9-1,.4-2,.6-3.1.6-1.7,0-3-.4-4-1.1-1-.8-1.5-1.9-1.5-3.3s.3-2.1,1-2.9c.7-.8,1.8-1.3,3.3-1.6l5.6-1.2v-.5ZM982.8,416.1c0,.5.2.8.5,1.1.3.2.8.4,1.2.4.7,0,1.4-.2,1.9-.7.6-.4.8-1.1.8-2.1v-.9l-2.6.5c-.6.1-1.1.3-1.4.6-.3.2-.5.6-.5,1.1Z"/>
      <path class="st9" d="M1002.8,421.1c-2,0-3.6-.7-4.8-2.2-1.2-1.5-1.8-3.5-1.8-6.1s.3-3.3.9-4.6c.6-1.3,1.4-2.2,2.4-2.9,1-.7,2.2-1,3.5-1s2.1.3,2.9.8c.8.6,1.4,1.3,1.8,2.2v-9.6h5.5v23h-4.9l-.2-3.2c-.5,1.1-1.1,1.9-2.1,2.6-.9.6-2,.9-3.2.9ZM1004.7,417.1c.9,0,1.6-.4,2.2-1.1s.8-1.9.8-3.3-.3-2.4-.8-3.1-1.2-1.1-2.2-1.1-1.7.4-2.2,1c-.5.7-.8,1.8-.8,3.3s.3,2.6.8,3.3c.5.7,1.3,1,2.2,1Z"/>
      <path class="st9" d="M1025,421.1c-2.7,0-4.8-.7-6.4-2.2-1.6-1.5-2.3-3.5-2.3-6.2s.4-3.3,1.1-4.5c.7-1.3,1.7-2.2,3-2.9,1.3-.7,2.7-1,4.4-1s3.1.3,4.3,1c1.2.7,2.1,1.6,2.7,2.7.6,1.2.9,2.5.9,4s0,.8,0,1.2,0,.7,0,1h-11c.2,1.1.5,1.9,1.1,2.4.6.5,1.3.7,2.3.7s1.5-.2,2-.5c.5-.3.8-.8,1.1-1.4l4.4,1.5c-.3.9-.8,1.7-1.6,2.3-.7.6-1.6,1.1-2.6,1.4-1,.3-2.1.5-3.2.5ZM1024.7,408.2c-1.7,0-2.8,1-3.1,3h5.9c-.2-2-1.2-3-2.8-3Z"/>
      <path class="st9" d="M1042.6,421.1c-1.6,0-3.1-.3-4.5-.8-1.4-.5-2.5-1.3-3.5-2.3l2.6-3c.5.7,1.3,1.3,2.1,1.7s1.9.7,3,.7,1.2,0,1.6-.3c.4-.2.6-.5.6-.9s-.1-.5-.3-.7c-.2-.2-.6-.4-1.3-.5l-2.3-.5c-2-.4-3.5-1-4.3-1.8s-1.3-1.9-1.3-3.2.3-1.7.8-2.5c.5-.8,1.4-1.5,2.5-2,1.1-.5,2.6-.8,4.3-.8,3.3,0,5.8.9,7.3,2.8l-2.6,3c-.5-.6-1.2-1.2-2-1.5-.8-.4-1.6-.5-2.5-.5-1.6,0-2.4.4-2.4,1.2s.1.5.4.7.8.4,1.5.5l2.9.6c1.7.3,2.9.9,3.6,1.7s1.1,1.7,1.1,2.9-.6,2.9-1.9,4c-1.3,1.1-3.2,1.6-5.7,1.6Z"/>
    </g>
    <g class="st1">
      <path class="st9" d="M895.9,459.5v-16.2h4.9l.2,3.1c.5-1.1,1.2-2,2.2-2.6.9-.6,2-.9,3.2-.9s2.2.3,3.1.8c.9.5,1.6,1.3,2,2.4.5-1.1,1.2-1.9,2.2-2.4s2.1-.8,3.2-.8,2.9.5,4,1.4c1,1,1.6,2.4,1.6,4.3v10.8h-5.5v-9.5c0-1-.2-1.8-.6-2.2s-.9-.6-1.6-.6-1.5.3-2,.9c-.5.6-.8,1.5-.8,2.7v8.6h-5.5v-9.5c0-1-.2-1.8-.6-2.2s-.9-.6-1.6-.6-1.4.3-2,.9c-.6.6-.9,1.5-.9,2.9v8.5h-5.5Z"/>
      <path class="st9" d="M931.7,459.8c-1.6,0-3-.4-4-1.3-1-.9-1.5-2.3-1.5-4.4v-10.8h5.5v9.5c0,1,.2,1.8.6,2.2.4.4,1,.6,1.7.6s1.4-.3,2-.9c.5-.6.8-1.5.8-2.8v-8.7h5.5v16.2h-4.9l-.2-3c-.5,1.1-1.2,2-2.2,2.5-.9.5-2,.8-3.4.8Z"/>
      <path class="st9" d="M946.3,459.5v-16.2h4.9l.2,3.3c.5-1.2,1.2-2.1,2.2-2.7.9-.6,2.1-.9,3.4-.9s3,.5,4,1.5c1,1,1.6,2.4,1.6,4.3v10.8h-5.5v-9.3c0-1.1-.2-1.9-.6-2.3s-1-.6-1.6-.6-1.5.3-2.1.8c-.6.6-.9,1.5-.9,2.9v8.6h-5.5Z"/>
      <path class="st9" d="M969,441.5c-1.1,0-1.9-.2-2.4-.6-.5-.4-.8-1.1-.8-2s.3-1.6.8-2c.5-.4,1.3-.6,2.4-.6s1.9.2,2.4.6c.5.4.8,1.1.8,2s-.3,1.6-.8,2c-.5.4-1.3.6-2.4.6ZM971.8,443.3v16.2h-5.5v-16.2h5.5Z"/>
      <path class="st9" d="M983.3,443c1.6,0,3,.2,4.1.7,1.1.5,1.9,1.1,2.5,1.8.6.8,1,1.6,1.2,2.5l-5.1,1.7c-.1-.9-.4-1.6-.8-2.1s-1-.7-1.7-.7-1.8.4-2.3,1.1c-.5.7-.8,1.9-.8,3.5s.3,2.7.9,3.4c.6.7,1.3,1,2.3,1,1.5,0,2.4-.9,2.7-2.6l4.9,1.6c-.2,1.4-1,2.6-2.3,3.5-1.3.9-3.1,1.4-5.2,1.4s-4.8-.7-6.3-2.2c-1.6-1.5-2.4-3.5-2.4-6.2s.4-3.3,1.1-4.5c.7-1.2,1.7-2.2,3-2.9,1.3-.7,2.7-1,4.4-1Z"/>
      <path class="st9" d="M996.7,441.5c-1.1,0-1.9-.2-2.4-.6s-.8-1.1-.8-2,.3-1.6.8-2,1.3-.6,2.4-.6,1.9.2,2.4.6.8,1.1.8,2-.3,1.6-.8,2-1.3.6-2.4.6ZM999.5,443.3v16.2h-5.5v-16.2h5.5Z"/>
      <path class="st9" d="M1003.4,466.3v-22.9h4.9l.2,3.3c.5-1.1,1.1-1.9,2.1-2.6.9-.7,2-1,3.2-1,2,0,3.6.7,4.8,2.2,1.2,1.5,1.8,3.5,1.8,6.1s-.6,4.7-1.9,6.2c-1.2,1.5-2.8,2.2-4.8,2.2s-2.2-.3-3-.9-1.4-1.3-1.9-2.2v9.6h-5.5ZM1011.9,455.8c.9,0,1.7-.3,2.2-1,.5-.7.8-1.8.8-3.3s-.3-2.6-.8-3.3c-.5-.7-1.3-1-2.2-1s-1.7.4-2.2,1.1-.8,1.8-.8,3.2.3,2.4.8,3.2c.5.8,1.2,1.2,2.2,1.2Z"/>
      <path class="st9" d="M1032.5,449.3c0-.8-.2-1.4-.6-1.8-.4-.4-1-.7-1.7-.7s-1.3.2-1.8.5-.9,1-1,1.9l-4.7-1.1c.3-1.6,1.1-2.8,2.4-3.7s3.1-1.4,5.5-1.4,4.2.5,5.5,1.6c1.3,1,2,2.6,2,4.6v5.9c0,.8.4,1.3,1.1,1.3s.7,0,.9-.1l-.3,3.1c-.6.3-1.4.5-2.4.5s-1.9-.2-2.6-.6c-.7-.4-1.2-1-1.5-1.8-.5.8-1.2,1.5-2.1,1.9-1,.4-2,.6-3.1.6-1.7,0-3-.4-4-1.1-1-.8-1.5-1.9-1.5-3.3s.3-2.1,1-2.9c.7-.8,1.8-1.3,3.3-1.6l5.6-1.2v-.5ZM1028,454.8c0,.5.2.8.5,1.1.3.2.8.4,1.2.4.7,0,1.4-.2,1.9-.7.6-.4.8-1.1.8-2.1v-.9l-2.6.5c-.6.1-1.1.3-1.4.6-.3.2-.5.6-.5,1.1Z"/>
      <path class="st9" d="M1044.9,441.5c-1.1,0-1.9-.2-2.4-.6s-.8-1.1-.8-2,.3-1.6.8-2,1.3-.6,2.4-.6,1.9.2,2.4.6.8,1.1.8,2-.3,1.6-.8,2-1.3.6-2.4.6ZM1047.7,443.3v16.2h-5.5v-16.2h5.5Z"/>
      <path class="st9" d="M1058.4,459.8c-1.6,0-3.1-.3-4.5-.8-1.4-.5-2.5-1.3-3.5-2.3l2.6-3c.5.7,1.3,1.3,2.1,1.7s1.9.7,3,.7,1.2,0,1.6-.3c.4-.2.6-.5.6-.9s-.1-.5-.3-.7c-.2-.2-.6-.4-1.3-.5l-2.3-.5c-2-.4-3.5-1-4.3-1.8s-1.3-1.9-1.3-3.2.3-1.7.8-2.5c.5-.8,1.4-1.5,2.5-2,1.1-.5,2.6-.8,4.3-.8,3.3,0,5.8.9,7.3,2.8l-2.6,3c-.5-.6-1.2-1.2-2-1.5-.8-.4-1.6-.5-2.5-.5-1.6,0-2.4.4-2.4,1.2s.1.5.4.7.8.4,1.5.5l2.9.6c1.7.3,2.9.9,3.6,1.7s1.1,1.7,1.1,2.9-.6,2.9-1.9,4c-1.3,1.1-3.2,1.6-5.7,1.6Z"/>
    </g>
  </g>
  <g class="st1">
    <g class="st1">
      <path class="st9" d="M653.7,169.2c-2.9,0-5.1-.9-6.6-2.8-1.5-1.9-2.2-4.6-2.2-8.2s.7-6.4,2.2-8.2c1.5-1.9,3.7-2.8,6.6-2.8s5.1.9,6.6,2.8c1.5,1.9,2.2,4.6,2.2,8.2s-.7,6.4-2.2,8.2c-1.5,1.9-3.7,2.8-6.6,2.8ZM653.7,164.9c1.2,0,2-.5,2.6-1.5.5-1,.8-2.7.8-5.1s-.3-4.1-.8-5.1c-.5-1-1.4-1.5-2.6-1.5s-2,.5-2.6,1.5c-.5,1-.8,2.7-.8,5.1s.3,4.1.8,5.1c.5,1,1.4,1.5,2.6,1.5Z"/>
      <path class="st9" d="M668.4,163.3c1.2,0,2.1.4,2.6,1.2.6.8.9,1.7.9,2.8s-.2,1.9-.6,2.8-1,1.7-1.6,2.4-1.4,1.2-2.2,1.5l-2.2-1.6c.9-.4,1.7-.9,2.4-1.5.7-.6,1.2-1.3,1.5-2h-.2c-.1,0-.3,0-.4,0-.2,0-.4,0-.7,0-.6,0-1.2-.2-1.7-.6-.6-.4-.9-1.1-.9-2s.3-1.8,1-2.3c.7-.5,1.4-.8,2.2-.8Z"/>
      <path class="st9" d="M676.1,168.9v-12.3c0-.6,0-1.1,0-1.7,0-.6,0-1.2,0-1.8-.7.7-1.5,1.2-2.4,1.7s-1.8.8-2.7,1l-.5-4.6c.7,0,1.5-.3,2.4-.7s1.7-.8,2.4-1.3c.8-.5,1.3-1,1.6-1.6h4.4v21.3h-5.4Z"/>
      <path class="st9" d="M690.8,147.3c1.8,0,3.3.6,4.4,1.7,1.1,1.1,1.6,2.6,1.6,4.4s-.5,3.3-1.6,4.4c-1.1,1.1-2.6,1.7-4.4,1.7s-3.3-.6-4.4-1.7c-1.1-1.1-1.6-2.6-1.6-4.4s.5-3.3,1.6-4.4c1.1-1.1,2.6-1.7,4.4-1.7ZM690.8,150.9c-.6,0-1.1.2-1.4.6-.3.4-.5,1-.5,1.8s.2,1.3.5,1.8c.3.4.8.6,1.4.6s1.1-.2,1.4-.6.5-1,.5-1.8-.2-1.3-.5-1.8-.8-.6-1.4-.6ZM689.5,168.9l14.8-21.4h4.2l-14.8,21.4h-4.2ZM707.1,157.1c1.8,0,3.3.6,4.4,1.7,1.1,1.1,1.6,2.6,1.6,4.4s-.5,3.3-1.6,4.4c-1.1,1.1-2.6,1.7-4.4,1.7s-3.3-.6-4.4-1.7c-1.1-1.1-1.6-2.6-1.6-4.4s.5-3.3,1.6-4.4c1.1-1.1,2.6-1.7,4.4-1.7ZM707.1,160.8c-.6,0-1.1.2-1.4.6-.3.4-.5,1-.5,1.8s.2,1.3.5,1.8c.3.4.8.6,1.4.6s1.1-.2,1.4-.6.5-1,.5-1.8-.2-1.3-.5-1.8-.8-.6-1.4-.6Z"/>
      <path class="st9" d="M732.1,169.2c-1.6,0-3.1-.3-4.5-.8-1.4-.5-2.5-1.3-3.5-2.3l2.6-3c.5.7,1.3,1.3,2.1,1.7s1.9.7,3,.7,1.2,0,1.6-.3c.4-.2.6-.5.6-.9s-.1-.5-.3-.7c-.2-.2-.6-.4-1.3-.5l-2.3-.5c-2-.4-3.5-1-4.3-1.8s-1.3-1.9-1.3-3.2.3-1.7.8-2.5c.5-.8,1.4-1.5,2.5-2,1.1-.5,2.6-.8,4.3-.8,3.3,0,5.8.9,7.3,2.8l-2.6,3c-.5-.6-1.2-1.2-2-1.5-.8-.4-1.6-.5-2.5-.5-1.6,0-2.4.4-2.4,1.2s.1.5.4.7.8.4,1.5.5l2.9.6c1.7.3,2.9.9,3.6,1.7s1.1,1.7,1.1,2.9-.6,2.9-1.9,4c-1.3,1.1-3.2,1.6-5.7,1.6Z"/>
      <path class="st9" d="M751.5,158.7c0-.8-.2-1.4-.6-1.8-.4-.4-1-.7-1.7-.7s-1.3.2-1.8.5-.9,1-1,1.9l-4.7-1.1c.3-1.6,1.1-2.8,2.4-3.7s3.1-1.4,5.5-1.4,4.2.5,5.5,1.6c1.3,1,2,2.6,2,4.6v5.9c0,.8.4,1.3,1.1,1.3s.7,0,.9-.1l-.3,3.1c-.6.3-1.4.5-2.4.5s-1.9-.2-2.6-.6c-.7-.4-1.2-1-1.5-1.8-.5.8-1.2,1.5-2.1,1.9-1,.4-2,.6-3.1.6-1.7,0-3-.4-4-1.1-1-.8-1.5-1.9-1.5-3.3s.3-2.1,1-2.9c.7-.8,1.8-1.3,3.3-1.6l5.6-1.2v-.5ZM755.9,145.7c0,1.7-.5,3-1.2,3.9-.8.9-1.7,1.3-2.7,1.3s-1.2,0-1.6-.3c-.4-.2-.8-.4-1.1-.6-.3-.2-.6-.5-.9-.6-.3-.2-.6-.3-.9-.3s-.6.2-.8.5-.3.8-.4,1.4h-3.1c0-1.7.5-3,1.3-3.9.8-.8,1.7-1.3,3-1.3s1.1,0,1.5.3c.4.2.8.4,1.1.6.3.2.6.5.9.6.3.2.6.3.9.3.7,0,1.1-.6,1.2-1.8h3.1ZM747,164.2c0,.5.2.8.5,1.1.3.2.8.4,1.2.4.7,0,1.4-.2,1.9-.7.6-.4.8-1.1.8-2.1v-.9l-2.6.5c-.6.1-1.1.3-1.4.6-.3.2-.5.6-.5,1.1Z"/>
      <path class="st9" d="M768.8,152.4c1.7,0,3.2.3,4.5,1,1.3.7,2.3,1.6,3,2.9s1.1,2.8,1.1,4.5-.4,3.3-1.1,4.5-1.7,2.2-3,2.9c-1.3.7-2.8,1-4.5,1s-3.2-.3-4.4-1c-1.3-.7-2.3-1.6-3-2.9s-1.1-2.8-1.1-4.5.4-3.3,1.1-4.5,1.7-2.2,3-2.9c1.3-.7,2.8-1,4.4-1ZM768.8,156.3c-.9,0-1.7.3-2.2,1-.5.7-.8,1.8-.8,3.4s.3,2.7.8,3.4c.5.7,1.3,1.1,2.2,1.1s1.7-.4,2.2-1.1c.5-.7.8-1.9.8-3.4s-.3-2.7-.8-3.4c-.5-.7-1.3-1-2.2-1Z"/>
      <path class="st9" d="M795.6,169.2c-2,0-3.6-.7-4.8-2.2-1.2-1.5-1.8-3.5-1.8-6.1s.3-3.3.9-4.6c.6-1.3,1.4-2.2,2.4-2.9,1-.7,2.2-1,3.5-1s2.1.3,2.9.8c.8.6,1.4,1.3,1.8,2.2v-9.6h5.5v23h-4.9l-.2-3.2c-.5,1.1-1.1,1.9-2.1,2.6-.9.6-2,.9-3.2.9ZM797.5,165.2c.9,0,1.6-.4,2.2-1.1s.8-1.9.8-3.3-.3-2.4-.8-3.1-1.2-1.1-2.2-1.1-1.7.4-2.2,1c-.5.7-.8,1.8-.8,3.3s.3,2.6.8,3.3c.5.7,1.3,1,2.2,1Z"/>
      <path class="st9" d="M817.8,169.2c-2.7,0-4.8-.7-6.4-2.2-1.6-1.5-2.3-3.5-2.3-6.2s.4-3.3,1.1-4.5c.7-1.3,1.7-2.2,3-2.9,1.3-.7,2.7-1,4.4-1s3.1.3,4.3,1c1.2.7,2.1,1.6,2.7,2.7.6,1.2.9,2.5.9,4s0,.8,0,1.2,0,.7,0,1h-11c.2,1.1.5,1.9,1.1,2.4.6.5,1.3.7,2.3.7s1.5-.2,2-.5c.5-.3.8-.8,1.1-1.4l4.4,1.5c-.3.9-.8,1.7-1.6,2.3-.7.6-1.6,1.1-2.6,1.4-1,.3-2.1.5-3.2.5ZM817.6,156.3c-1.7,0-2.8,1-3.1,3h5.9c-.2-2-1.2-3-2.8-3Z"/>
    </g>
    <g class="st1">
      <path class="st9" d="M653.2,207.9c-2.7,0-4.8-.7-6.4-2.2-1.6-1.5-2.3-3.5-2.3-6.2s.4-3.3,1.1-4.5c.7-1.3,1.7-2.2,3-2.9,1.3-.7,2.7-1,4.4-1s3.1.3,4.3,1c1.2.7,2.1,1.6,2.7,2.7.6,1.2.9,2.5.9,4s0,.8,0,1.2,0,.7,0,1h-11c.2,1.1.5,1.9,1.1,2.4.6.5,1.3.7,2.3.7s1.5-.2,2-.5c.5-.3.8-.8,1.1-1.4l4.4,1.5c-.3.9-.8,1.7-1.6,2.3-.7.6-1.6,1.1-2.6,1.4-1,.3-2.1.5-3.2.5ZM652.9,195c-1.7,0-2.8,1-3.1,3h5.9c-.2-2-1.2-3-2.8-3Z"/>
      <path class="st9" d="M664,207.6v-16.2h4.9l.2,3.3c.5-1.2,1.2-2.1,2.2-2.7s2.1-.9,3.4-.9,3,.5,4,1.5c1,1,1.6,2.4,1.6,4.3v10.8h-5.5v-9.3c0-1.1-.2-1.9-.6-2.3-.4-.4-1-.6-1.6-.6s-1.5.3-2.1.8c-.6.6-.9,1.5-.9,2.9v8.6h-5.5Z"/>
      <path class="st9" d="M695.5,191.4v3.9h-4.8v6.5c0,.8.2,1.3.6,1.7s.9.5,1.6.5,1,0,1.3-.2c.4-.1.7-.3,1-.5l.6,3.4c-.5.4-1.2.7-2.1.9-.8.2-1.7.3-2.5.3-1.9,0-3.3-.4-4.4-1.2-1.1-.8-1.6-2.1-1.6-4v-7.4h-2.8v-3.9h2.8v-3.6l5.5-1.5v5.1h4.8Z"/>
      <path class="st9" d="M700.8,189.6c-1.1,0-1.9-.2-2.4-.6-.5-.4-.8-1.1-.8-2s.3-1.6.8-2c.5-.4,1.3-.6,2.4-.6s1.9.2,2.4.6c.5.4.8,1.1.8,2s-.3,1.6-.8,2c-.5.4-1.3.6-2.4.6ZM703.5,191.4v16.2h-5.5v-16.2h5.5Z"/>
      <path class="st9" d="M713.4,207.9c-2,0-3.6-.7-4.8-2.2-1.2-1.5-1.8-3.5-1.8-6.1s.3-3.3.9-4.6c.6-1.3,1.4-2.2,2.4-2.9,1-.7,2.2-1,3.5-1s2.1.3,2.9.8c.8.6,1.4,1.3,1.8,2.2v-9.6h5.5v23h-4.9l-.2-3.2c-.5,1.1-1.1,1.9-2.1,2.6-.9.6-2,.9-3.2.9ZM715.3,203.9c.9,0,1.6-.4,2.2-1.1s.8-1.9.8-3.3-.3-2.4-.8-3.1-1.2-1.1-2.2-1.1-1.7.4-2.2,1c-.5.7-.8,1.8-.8,3.3s.3,2.6.8,3.3c.5.7,1.3,1,2.2,1Z"/>
      <path class="st9" d="M736.7,197.4c0-.8-.2-1.4-.6-1.8-.4-.4-1-.7-1.7-.7s-1.3.2-1.8.5c-.5.4-.9,1-1,1.9l-4.7-1.1c.3-1.6,1.1-2.8,2.4-3.7s3.1-1.4,5.5-1.4,4.2.5,5.5,1.6c1.3,1,2,2.6,2,4.6v5.9c0,.8.4,1.3,1.1,1.3s.7,0,.9-.1l-.3,3.1c-.6.3-1.4.5-2.4.5s-1.9-.2-2.6-.6c-.7-.4-1.2-1-1.5-1.8-.5.8-1.2,1.5-2.1,1.9-1,.4-2,.6-3.1.6-1.7,0-3-.4-4-1.1-1-.8-1.5-1.9-1.5-3.3s.3-2.1,1-2.9c.7-.8,1.8-1.3,3.3-1.6l5.6-1.2v-.5ZM732.2,202.9c0,.5.2.8.5,1.1.3.2.8.4,1.2.4.7,0,1.4-.2,1.9-.7.6-.4.8-1.1.8-2.1v-.9l-2.6.5c-.6.1-1.1.3-1.4.6-.3.2-.5.6-.5,1.1Z"/>
      <path class="st9" d="M752.2,207.9c-2,0-3.6-.7-4.8-2.2-1.2-1.5-1.8-3.5-1.8-6.1s.3-3.3.9-4.6,1.4-2.2,2.4-2.9c1-.7,2.2-1,3.5-1s2.1.3,2.9.8c.8.6,1.4,1.3,1.8,2.2v-9.6h5.5v23h-4.9l-.2-3.2c-.5,1.1-1.1,1.9-2.1,2.6-.9.6-2,.9-3.2.9ZM754.1,203.9c.9,0,1.6-.4,2.2-1.1.5-.8.8-1.9.8-3.3s-.3-2.4-.8-3.1-1.2-1.1-2.2-1.1-1.7.4-2.2,1c-.5.7-.8,1.8-.8,3.3s.3,2.6.8,3.3c.5.7,1.3,1,2.2,1Z"/>
      <path class="st9" d="M774.4,207.9c-2.7,0-4.8-.7-6.4-2.2-1.6-1.5-2.3-3.5-2.3-6.2s.4-3.3,1.1-4.5,1.7-2.2,3-2.9c1.3-.7,2.7-1,4.4-1s3.1.3,4.3,1c1.2.7,2.1,1.6,2.7,2.7.6,1.2.9,2.5.9,4s0,.8,0,1.2,0,.7,0,1h-11c.2,1.1.5,1.9,1.1,2.4.6.5,1.3.7,2.3.7s1.5-.2,2-.5c.5-.3.8-.8,1.1-1.4l4.4,1.5c-.3.9-.8,1.7-1.6,2.3s-1.6,1.1-2.6,1.4c-1,.3-2.1.5-3.2.5ZM774.1,195c-1.7,0-2.8,1-3.1,3h5.9c-.2-2-1.2-3-2.8-3Z"/>
      <path class="st9" d="M792,207.9c-1.6,0-3.1-.3-4.5-.8s-2.5-1.3-3.5-2.3l2.6-3c.5.7,1.3,1.3,2.1,1.7.9.5,1.9.7,3,.7s1.2,0,1.6-.3c.4-.2.6-.5.6-.9s-.1-.5-.3-.7c-.2-.2-.6-.4-1.3-.5l-2.3-.5c-2-.4-3.5-1-4.3-1.8s-1.3-1.9-1.3-3.2.3-1.7.8-2.5c.5-.8,1.4-1.5,2.5-2,1.1-.5,2.6-.8,4.3-.8,3.3,0,5.8.9,7.3,2.8l-2.6,3c-.5-.6-1.2-1.2-2-1.5-.8-.4-1.6-.5-2.5-.5-1.6,0-2.4.4-2.4,1.2s.1.5.4.7c.3.2.8.4,1.5.5l2.9.6c1.7.3,2.9.9,3.6,1.7.7.8,1.1,1.7,1.1,2.9s-.6,2.9-1.9,4c-1.3,1.1-3.2,1.6-5.7,1.6Z"/>
      <path class="st9" d="M822.6,191.4v3.9h-4.6v12.2h-5.5v-12.2h-2.6v-3.9h2.6v-1.5c0-1.4.3-2.5.9-3.3.6-.9,1.4-1.5,2.4-1.9,1-.4,2-.6,3.2-.6s1.7,0,2.3.3c.7.2,1.2.4,1.5.6l-.5,3.4c-.2-.1-.5-.2-.8-.3-.3,0-.7-.1-1.1-.1-.8,0-1.4.2-1.9.5-.5.3-.7.9-.7,1.8v1.1h4.9Z"/>
      <path class="st9" d="M832.5,207.9c-2.7,0-4.8-.7-6.4-2.2-1.6-1.5-2.3-3.5-2.3-6.2s.4-3.3,1.1-4.5c.7-1.3,1.7-2.2,3-2.9,1.3-.7,2.7-1,4.4-1s3.1.3,4.3,1c1.2.7,2.1,1.6,2.7,2.7.6,1.2.9,2.5.9,4s0,.8,0,1.2,0,.7,0,1h-11c.2,1.1.5,1.9,1.1,2.4.6.5,1.3.7,2.3.7s1.5-.2,2-.5c.5-.3.8-.8,1.1-1.4l4.4,1.5c-.3.9-.8,1.7-1.6,2.3-.7.6-1.6,1.1-2.6,1.4-1,.3-2.1.5-3.2.5ZM832.2,195c-1.7,0-2.8,1-3.1,3h5.9c-.2-2-1.2-3-2.8-3Z"/>
      <path class="st9" d="M849.2,207.9c-2,0-3.6-.7-4.8-2.2-1.2-1.5-1.8-3.5-1.8-6.1s.3-3.3.9-4.6,1.4-2.2,2.4-2.9c1-.7,2.2-1,3.5-1s2.1.3,2.9.8c.8.6,1.4,1.3,1.8,2.2v-9.6h5.5v23h-4.9l-.2-3.2c-.5,1.1-1.1,1.9-2.1,2.6-.9.6-2,.9-3.2.9ZM851.1,203.9c.9,0,1.6-.4,2.2-1.1.5-.8.8-1.9.8-3.3s-.3-2.4-.8-3.1-1.2-1.1-2.2-1.1-1.7.4-2.2,1c-.5.7-.8,1.8-.8,3.3s.3,2.6.8,3.3c.5.7,1.3,1,2.2,1Z"/>
      <path class="st9" d="M871.4,207.9c-2.7,0-4.8-.7-6.4-2.2-1.6-1.5-2.3-3.5-2.3-6.2s.4-3.3,1.1-4.5,1.7-2.2,3-2.9c1.3-.7,2.7-1,4.4-1s3.1.3,4.3,1c1.2.7,2.1,1.6,2.7,2.7.6,1.2.9,2.5.9,4s0,.8,0,1.2,0,.7,0,1h-11c.2,1.1.5,1.9,1.1,2.4.6.5,1.3.7,2.3.7s1.5-.2,2-.5c.5-.3.8-.8,1.1-1.4l4.4,1.5c-.3.9-.8,1.7-1.6,2.3s-1.6,1.1-2.6,1.4c-1,.3-2.1.5-3.2.5ZM871.2,195c-1.7,0-2.8,1-3.1,3h5.9c-.2-2-1.2-3-2.8-3Z"/>
      <path class="st9" d="M882.3,207.6v-16.2h4.8l.2,3.5c.4-1.2,1-2.1,1.8-2.8.8-.7,1.8-1,3.1-1s.8,0,1,.1c.3,0,.5.2.7.2l-.5,4.5c-.2,0-.5-.1-.8-.2-.3,0-.7,0-1.2,0-1,0-1.8.3-2.6.9-.7.6-1.1,1.6-1.1,2.8v8.1h-5.5Z"/>
      <path class="st9" d="M905,197.4c0-.8-.2-1.4-.6-1.8-.4-.4-1-.7-1.7-.7s-1.3.2-1.8.5-.9,1-1,1.9l-4.7-1.1c.3-1.6,1.1-2.8,2.4-3.7s3.1-1.4,5.5-1.4,4.2.5,5.5,1.6c1.3,1,2,2.6,2,4.6v5.9c0,.8.4,1.3,1.1,1.3s.7,0,.9-.1l-.3,3.1c-.6.3-1.4.5-2.4.5s-1.9-.2-2.6-.6c-.7-.4-1.2-1-1.5-1.8-.5.8-1.2,1.5-2.1,1.9-1,.4-2,.6-3.1.6-1.7,0-3-.4-4-1.1-1-.8-1.5-1.9-1.5-3.3s.3-2.1,1-2.9c.7-.8,1.8-1.3,3.3-1.6l5.6-1.2v-.5ZM900.4,202.9c0,.5.2.8.5,1.1.3.2.8.4,1.2.4.7,0,1.4-.2,1.9-.7.6-.4.8-1.1.8-2.1v-.9l-2.6.5c-.6.1-1.1.3-1.4.6-.3.2-.5.6-.5,1.1Z"/>
      <path class="st9" d="M917.4,189.6c-1.1,0-1.9-.2-2.4-.6s-.8-1.1-.8-2,.3-1.6.8-2,1.3-.6,2.4-.6,1.9.2,2.4.6.8,1.1.8,2-.3,1.6-.8,2-1.3.6-2.4.6ZM920.1,191.4v16.2h-5.5v-16.2h5.5Z"/>
      <path class="st9" d="M930.8,207.9c-1.6,0-3.1-.3-4.5-.8-1.4-.5-2.5-1.3-3.5-2.3l2.6-3c.5.7,1.3,1.3,2.1,1.7s1.9.7,3,.7,1.2,0,1.6-.3c.4-.2.6-.5.6-.9s-.1-.5-.3-.7c-.2-.2-.6-.4-1.3-.5l-2.3-.5c-2-.4-3.5-1-4.3-1.8s-1.3-1.9-1.3-3.2.3-1.7.8-2.5c.5-.8,1.4-1.5,2.5-2,1.1-.5,2.6-.8,4.3-.8,3.3,0,5.8.9,7.3,2.8l-2.6,3c-.5-.6-1.2-1.2-2-1.5-.8-.4-1.6-.5-2.5-.5-1.6,0-2.4.4-2.4,1.2s.1.5.4.7.8.4,1.5.5l2.9.6c1.7.3,2.9.9,3.6,1.7s1.1,1.7,1.1,2.9-.6,2.9-1.9,4c-1.3,1.1-3.2,1.6-5.7,1.6Z"/>
    </g>
  </g>
  <path d="M634,231.7h-2v-5h2v5ZM634,221.7h-2v-5h2v5ZM634,211.7h-2v-5h2v5ZM634,201.7h-2v-5h2v5ZM634,191.7h-2v-5h2v5ZM634,181.7h-2v-5h2v5ZM634,171.7h-2v-5h2v5ZM634,161.7h-2v-5h2v5ZM634,151.7h-2v-4.8h2v4.8Z"/>
</svg>