<?xml version="1.0" encoding="UTF-8"?>
<svg id="img4" xmlns="http://www.w3.org/2000/svg" xmlns:xlink="http://www.w3.org/1999/xlink" version="1.1" viewBox="0 0 1280 1018.4">
  <defs>
    <style>
      .cls-1 {
        fill: url(#Gradiente_sem_nome);
      }

      .cls-1, .cls-2, .cls-3, .cls-4, .cls-5, .cls-6, .cls-7, .cls-8, .cls-9, .cls-10, .cls-11 {
        stroke-width: 0px;
      }

      .cls-2 {
        fill: url(#Gradiente_sem_nome_4);
        fill-rule: evenodd;
      }

      .cls-3 {
        fill: #f89d01;
      }

      .cls-4 {
        fill: #fafafc;
      }

      .cls-5 {
        fill: url(#Gradiente_sem_nome_5);
      }

      .cls-6 {
        fill: url(#Gradiente_sem_nome_7);
      }

      .cls-7 {
        fill: url(#Gradiente_sem_nome_3);
      }

      .cls-8 {
        fill: url(#Gradiente_sem_nome_6);
      }

      .cls-9 {
        fill: url(#Gradiente_sem_nome_2);
      }

      .cls-10 {
        fill: #1e1a95;
      }

      .cls-11 {
        fill: #000;
      }

      .cls-12 {
        isolation: isolate;
      }
    </style>
    <linearGradient id="Gradiente_sem_nome" data-name="Gradiente sem nome" x1="470.2" y1="591.3" x2="475" y2="591.3" gradientTransform="translate(0 1018) scale(1 -1)" gradientUnits="userSpaceOnUse">
      <stop offset="0" stop-color="#7675d4"/>
      <stop offset="1" stop-color="#5850bb"/>
    </linearGradient>
    <linearGradient id="Gradiente_sem_nome_2" data-name="Gradiente sem nome 2" x1="323.9" y1="568.6" x2="497.1" y2="568.6" gradientTransform="translate(0 1018) scale(1 -1)" gradientUnits="userSpaceOnUse">
      <stop offset="0" stop-color="#7675d4"/>
      <stop offset="1" stop-color="#5850bb"/>
    </linearGradient>
    <linearGradient id="Gradiente_sem_nome_3" data-name="Gradiente sem nome 3" x1="533.9" y1="617.5" x2="673.1" y2="617.5" gradientTransform="translate(0 1018) scale(1 -1)" gradientUnits="userSpaceOnUse">
      <stop offset="0" stop-color="#7675d4"/>
      <stop offset="1" stop-color="#5850bb"/>
    </linearGradient>
    <linearGradient id="Gradiente_sem_nome_4" data-name="Gradiente sem nome 4" x1="692.7" y1="697.4" x2="898.7" y2="697.4" gradientTransform="translate(0 1018) scale(1 -1)" gradientUnits="userSpaceOnUse">
      <stop offset="0" stop-color="#7675d4"/>
      <stop offset="1" stop-color="#5850bb"/>
    </linearGradient>
    <linearGradient id="Gradiente_sem_nome_5" data-name="Gradiente sem nome 5" x1="918.6" y1="705.2" x2="1045.9" y2="705.2" gradientTransform="translate(0 1018) scale(1 -1)" gradientUnits="userSpaceOnUse">
      <stop offset="0" stop-color="#7675d4"/>
      <stop offset="1" stop-color="#5850bb"/>
    </linearGradient>
    <linearGradient id="Gradiente_sem_nome_6" data-name="Gradiente sem nome 6" x1="1041.3" y1="760.7" x2="1200.4" y2="760.7" gradientTransform="translate(0 1018) scale(1 -1)" gradientUnits="userSpaceOnUse">
      <stop offset="0" stop-color="#7675d4"/>
      <stop offset="1" stop-color="#5850bb"/>
    </linearGradient>
    <linearGradient id="Gradiente_sem_nome_7" data-name="Gradiente sem nome 7" x1="35.8" y1="392.5" x2="1150.2" y2="392.5" gradientTransform="translate(0 1018) scale(1 -1)" gradientUnits="userSpaceOnUse">
      <stop offset="0" stop-color="#5a30c5"/>
      <stop offset=".2" stop-color="#5c31c1"/>
      <stop offset=".3" stop-color="#6537b7"/>
      <stop offset=".5" stop-color="#7341a5"/>
      <stop offset=".6" stop-color="#884e8c"/>
      <stop offset=".7" stop-color="#a25f6c"/>
      <stop offset=".9" stop-color="#c27545"/>
      <stop offset="1" stop-color="#e88e18"/>
      <stop offset="1" stop-color="#ee9211"/>
    </linearGradient>
  </defs>
  <g class="cls-12">
    <g class="cls-12">
      <path class="cls-10" d="M1089,652.3l-9.1,21h-4.8l-9.1-21h5.2l6.4,15,6.5-15h4.8Z"/>
    </g>
    <g class="cls-12">
      <path class="cls-10" d="M1105,666.5h-12.2c.5,2,2.2,3.2,4.6,3.2s2.9-.5,4-1.6l2.5,2.7c-1.5,1.7-3.7,2.6-6.7,2.6-5.6,0-9.2-3.5-9.2-8.3s3.7-8.3,8.6-8.3,8.4,3.2,8.4,8.4,0,.9,0,1.3ZM1092.7,663.8h7.9c-.3-2-1.9-3.4-4-3.4s-3.7,1.3-4,3.4ZM1097.5,655.1h-3.7l4-4.3h5l-5.4,4.3Z"/>
    </g>
    <g class="cls-12">
      <path class="cls-10" d="M1118.2,656.9v4.3c-.4,0-.7,0-1,0-2.6,0-4.3,1.4-4.3,4.5v7.6h-4.7v-16.1h4.5v2.1c1.1-1.6,3.1-2.4,5.5-2.4Z"/>
    </g>
    <g class="cls-12">
      <path class="cls-10" d="M1132,672.5c-1,.7-2.4,1-3.8,1-3.8,0-6-2-6-5.8v-6.6h-2.5v-3.6h2.5v-3.9h4.7v3.9h4v3.6h-4v6.6c0,1.4.8,2.1,2,2.1s1.4-.2,1.9-.6l1.3,3.3Z"/>
    </g>
    <g class="cls-12">
      <path class="cls-10" d="M1149.8,666.5h-12.2c.5,2,2.2,3.2,4.6,3.2s2.9-.5,4-1.6l2.5,2.7c-1.5,1.7-3.8,2.6-6.7,2.6-5.6,0-9.2-3.5-9.2-8.3s3.7-8.3,8.6-8.3,8.4,3.2,8.4,8.4,0,.9,0,1.3ZM1137.5,663.8h8c-.3-2-1.9-3.4-4-3.4s-3.7,1.3-4,3.4Z"/>
      <path class="cls-10" d="M1170.6,665.2c0,5.1-3.5,8.3-8,8.3s-3.9-.7-5.1-2.1v1.9h-4.5v-22.3h4.7v7.8c1.2-1.3,2.8-1.9,4.9-1.9,4.5,0,8,3.2,8,8.3ZM1165.9,665.2c0-2.8-1.8-4.5-4.1-4.5s-4.1,1.7-4.1,4.5,1.8,4.5,4.1,4.5,4.1-1.7,4.1-4.5Z"/>
    </g>
    <g class="cls-12">
      <path class="cls-10" d="M1183.8,656.9v4.3c-.4,0-.7,0-1.1,0-2.6,0-4.3,1.4-4.3,4.5v7.6h-4.7v-16.1h4.5v2.1c1.1-1.6,3.1-2.4,5.5-2.4Z"/>
    </g>
    <g class="cls-12">
      <path class="cls-10" d="M1200.7,664v9.2h-4.4v-2c-.9,1.5-2.5,2.2-4.9,2.2-3.8,0-6-2.1-6-4.9s2-4.8,6.9-4.8h3.7c0-2-1.2-3.2-3.7-3.2s-3.5.6-4.7,1.5l-1.7-3.3c1.8-1.3,4.4-1.9,7-1.9,4.9,0,7.8,2.3,7.8,7.2ZM1196,668.2v-1.7h-3.2c-2.2,0-2.9.8-2.9,1.9s1,1.9,2.6,1.9,2.9-.7,3.5-2.2Z"/>
      <path class="cls-10" d="M1203.4,671.8l1.6-3.4c1.4.9,3.6,1.6,5.6,1.6s3-.6,3-1.5c0-2.6-9.8,0-9.8-6.4s2.8-5.2,7.5-5.2,4.7.5,6.2,1.4l-1.6,3.3c-1.6-.9-3.2-1.2-4.6-1.2-2.1,0-3,.7-3,1.5,0,2.8,9.8,0,9.8,6.5s-2.8,5.1-7.6,5.1-5.5-.8-7-1.7Z"/>
    </g>
  </g>
  <path class="cls-10" d="M170.4,69.1c0-8.8,6.7-15,15.8-15s9.2,1.8,12,5.2l-4.3,4c-1.9-2.2-4.4-3.4-7.3-3.4-5.4,0-9.3,3.8-9.3,9.3s3.9,9.3,9.3,9.3,5.4-1.2,7.3-3.4l4.3,4c-2.7,3.4-6.9,5.2-12,5.2-9,0-15.7-6.3-15.7-15h0Z"/>
  <path class="cls-10" d="M202.7,54.5h6.7v23.6h14.6v5.5h-21.3v-29.1Z"/>
  <path class="cls-10" d="M247.2,77.4h-13.5l-2.6,6.2h-6.9l13-29.1h6.6l13,29.1h-7.1l-2.6-6.2h0ZM245.1,72.3l-4.6-11.1-4.6,11.1h9.2Z"/>
  <path class="cls-10" d="M259.9,54.5h13.2c9.5,0,16,5.7,16,14.5s-6.5,14.5-16,14.5h-13.2v-29.1h0ZM272.7,78.1c5.8,0,9.5-3.4,9.5-9s-3.8-9-9.5-9h-6.1v18h6.1Z"/>
  <path class="cls-10" d="M292.3,69.1c0-8.6,6.7-15,15.9-15s15.9,6.3,15.9,15-6.8,15-15.9,15-15.9-6.4-15.9-15ZM317.3,69.1c0-5.5-3.9-9.3-9.1-9.3s-9.1,3.8-9.1,9.3,3.9,9.3,9.1,9.3,9.1-3.8,9.1-9.3Z"/>
  <path class="cls-10" d="M348.9,68.6h6.1v11.8c-3.2,2.4-7.6,3.7-11.8,3.7-9.1,0-15.9-6.3-15.9-15s6.7-15,16-15,9.4,1.7,12.2,5l-4.3,4c-2.1-2.2-4.6-3.3-7.5-3.3-5.6,0-9.5,3.8-9.5,9.3s3.9,9.3,9.4,9.3,3.5-.3,5.2-1.2v-8.5Z"/>
  <path class="cls-10" d="M379.8,83.6l-5.6-8.1h-6.2v8.1h-6.7v-29.1h12.6c7.8,0,12.6,4,12.6,10.6s-2.2,7.6-6,9.2l6.5,9.3h-7.2,0ZM373.4,60h-5.5v10.1h5.5c4.1,0,6.2-1.9,6.2-5.1s-2.1-5.1-6.2-5.1h0Z"/>
  <path class="cls-10" d="M410.9,77.4h-13.5l-2.6,6.2h-6.9l13-29.1h6.6l13,29.1h-7.1l-2.6-6.2h0ZM408.8,72.3l-4.6-11.1-4.6,11.1h9.2,0Z"/>
  <path class="cls-10" d="M450,83.6v-17.4s-8.6,14.4-8.6,14.4h-3l-8.5-14v17.1h-6.3v-29.1h5.6l10.9,18.1,10.7-18.1h5.5v29.1c0,0-6.2,0-6.2,0h0Z"/>
  <path class="cls-10" d="M482.4,77.4h-13.5l-2.6,6.2h-6.9l13-29.1h6.6l13,29.1h-7.1l-2.6-6.2h0ZM480.2,72.3l-4.6-11.1-4.6,11.1h9.2,0Z"/>
  <path class="cls-10" d="M533.2,83.6v-17.4s-8.6,14.4-8.6,14.4h-3l-8.5-14v17.1h-6.3v-29.1h5.6l10.9,18.1,10.7-18.1h5.5v29.1c0,0-6.2,0-6.2,0h0Z"/>
  <path class="cls-10" d="M544.6,69.1c0-8.6,6.7-15,15.9-15s15.9,6.3,15.9,15-6.8,15-15.9,15-15.9-6.4-15.9-15ZM569.6,69.1c0-5.5-3.9-9.3-9.1-9.3s-9.1,3.8-9.1,9.3,3.9,9.3,9.1,9.3,9.1-3.8,9.1-9.3Z"/>
  <path class="cls-10" d="M579.2,80.7l2.3-5.1c2.5,1.8,6.1,3,9.6,3s5.6-1.3,5.6-3.1c0-5.4-16.9-1.7-16.9-12.5s4-9,12.2-9,7.4.9,10.1,2.6l-2.1,5.1c-2.7-1.5-5.5-2.3-8.1-2.3-4,0-5.5,1.5-5.5,3.3,0,5.4,16.9,1.7,16.9,12.3s-4,9-12.3,9-9.3-1.4-11.8-3.4h0Z"/>
  <path class="cls-10" d="M613.6,60h-9.3v-5.5h25.3v5.5h-9.3v23.6h-6.7v-23.6h0Z"/>
  <path class="cls-10" d="M651.8,83.6l-5.6-8.1h-6.2v8.1h-6.7v-29.1h12.6c7.8,0,12.6,4,12.6,10.6s-2.2,7.6-6,9.2l6.5,9.3h-7.2,0ZM645.4,60h-5.5v10.1h5.5c4.1,0,6.2-1.9,6.2-5.1s-2.1-5.1-6.2-5.1h0Z"/>
  <path class="cls-10" d="M682.9,77.4h-13.5l-2.6,6.2h-6.9l13-29.1h6.7l13,29.1h-7.1l-2.6-6.2ZM680.8,72.3l-4.6-11.1-4.6,11.1h9.2Z"/>
  <path class="cls-10" d="M722.2,54.5v29.1h-5.5l-14.5-17.7v17.7h-6.7v-29.1h5.6l14.5,17.7v-17.7s6.7,0,6.7,0Z"/>
  <path class="cls-10" d="M729.1,54.5h13.2c9.5,0,16,5.7,16,14.5s-6.5,14.5-16,14.5h-13.2v-29.1h0ZM742,78.1c5.8,0,9.5-3.4,9.5-9s-3.8-9-9.5-9h-6.2v18h6.2Z"/>
  <path class="cls-10" d="M761.6,69.1c0-8.6,6.7-15,15.9-15s15.9,6.3,15.9,15-6.8,15-15.9,15-15.9-6.4-15.9-15ZM786.6,69.1c0-5.5-3.9-9.3-9.1-9.3s-9.1,3.8-9.1,9.3,3.9,9.3,9.1,9.3,9.1-3.8,9.1-9.3Z"/>
  <path class="cls-10" d="M829.4,77.4h-13.5l-2.6,6.2h-6.9l13-29.1h6.6l13,29.1h-7.1l-2.6-6.2h0ZM827.2,72.3l-4.6-11.1-4.6,11.1h9.2Z"/>
  <path class="cls-10" d="M839.8,80.7l2.3-5.1c2.5,1.8,6.1,3,9.6,3s5.6-1.3,5.6-3.1c0-5.4-16.9-1.7-16.9-12.5s4-9,12.2-9,7.4.9,10.1,2.6l-2.1,5.1c-2.7-1.5-5.5-2.3-8.1-2.3-4,0-5.5,1.5-5.5,3.3,0,5.4,16.9,1.7,16.9,12.3s-4,9-12.3,9-9.3-1.4-11.8-3.4h0Z"/>
  <path class="cls-10" d="M898.8,83.6l-5.6-8.1h-6.2v8.1h-6.7v-29.1h12.6c7.8,0,12.6,4,12.6,10.6s-2.2,7.6-6,9.2l6.5,9.3h-7.2,0ZM892.5,60h-5.5v10.1h5.5c4.1,0,6.2-1.9,6.2-5.1s-2.1-5.1-6.2-5.1h0Z"/>
  <path class="cls-10" d="M933.3,78.2v5.4h-22.5v-29.1h22v5.4h-15.3v6.3h13.5v5.2h-13.5v6.7h15.8Z"/>
  <path class="cls-10" d="M938.7,54.5h6.7v23.6h14.6v5.5h-21.3v-29.1Z"/>
  <path class="cls-10" d="M983.2,77.4h-13.5l-2.6,6.2h-6.9l13-29.1h6.6l13,29.1h-7.1l-2.6-6.2h0ZM981,72.3l-4.6-11.1-4.6,11.1h9.2Z"/>
  <path class="cls-10" d="M1017,74.9l4.3,4c-2.6,3.2-6.6,5-11.4,5.2l-.4,1.6c2.5.3,3.6,1.7,3.6,3.4,0,2.5-2.4,4.1-6.1,4.1s-2.9-.3-3.9-.9l1-2.8c.8.4,1.7.6,2.7.6,1.5,0,2.2-.5,2.2-1.3s-.6-1.2-2-1.2h-1.4l.9-3.8c-7.6-1.2-13-7-13-14.8s6.7-15,15.8-15,9.2,1.8,12,5.2l-4.3,4c-2-2.2-4.4-3.4-7.3-3.4-5.4,0-9.3,3.8-9.3,9.3s3.9,9.3,9.3,9.3,5.4-1.2,7.3-3.4h0Z"/>
  <path class="cls-10" d="M1023.4,69.1c0-8.6,6.7-15,15.9-15s15.9,6.3,15.9,15-6.8,15-15.9,15-15.9-6.4-15.9-15h0ZM1048.4,69.1c0-5.5-3.9-9.3-9.1-9.3s-9.1,3.8-9.1,9.3,3.9,9.3,9.1,9.3,9.1-3.8,9.1-9.3ZM1036.6,49.7c-1.1,0-1.9.8-2,2.3h-3.3c0-3.7,1.9-6.1,4.9-6.1s4.3,2.7,5.8,2.7,1.9-.9,2-2.2h3.3c0,3.6-1.9,5.9-4.9,5.9s-4.3-2.6-5.8-2.6h0Z"/>
  <path class="cls-10" d="M1082.8,78.2v5.4h-22.5v-29.1h22v5.4h-15.3v6.3h13.5v5.2h-13.5v6.7h15.8Z"/>
  <path class="cls-10" d="M1085.8,80.7l2.3-5.1c2.4,1.8,6.1,3,9.6,3s5.6-1.3,5.6-3.1c0-5.4-16.9-1.7-16.9-12.5s4-9,12.2-9,7.4.9,10.1,2.6l-2.1,5.1c-2.7-1.5-5.5-2.3-8.1-2.3-4,0-5.5,1.5-5.5,3.3,0,5.4,16.9,1.7,16.9,12.3s-4,9-12.3,9-9.3-1.4-11.8-3.4h0Z"/>
  <path class="cls-10" d="M256.2,109.8v7.7h13.5v5.4h-13.5v10.6h-6.7v-29.1h22v5.4s-15.2,0-15.2,0Z"/>
  <path class="cls-10" d="M276,104.4h6.7v29.1h-6.7s0-29.1,0-29.1Z"/>
  <path class="cls-10" d="M289.6,104.4h6.7v23.6h14.6v5.5h-21.3s0-29.1,0-29.1Z"/>
  <path class="cls-10" d="M312.4,118.9c0-8.6,6.7-15,15.9-15s15.9,6.3,15.9,15-6.8,15-15.9,15-15.9-6.4-15.9-15ZM337.4,118.9c0-5.5-3.9-9.3-9.1-9.3s-9.1,3.8-9.1,9.3,3.9,9.3,9.1,9.3,9.1-3.8,9.1-9.3Z"/>
  <path class="cls-10" d="M368.9,118.4h6.1v11.8c-3.2,2.4-7.6,3.7-11.8,3.7-9.1,0-15.9-6.3-15.9-15s6.7-15,16-15,9.4,1.7,12.2,5l-4.3,4c-2.1-2.2-4.6-3.3-7.5-3.3-5.6,0-9.5,3.8-9.5,9.3s3.9,9.3,9.4,9.3,3.5-.3,5.2-1.2c0,0,0-8.5,0-8.5Z"/>
  <path class="cls-10" d="M403.8,128v5.4h-22.5v-29.1h22v5.4h-15.3v6.3h13.5v5.2h-13.5v6.7h15.8Z"/>
  <path class="cls-10" d="M435.8,104.4v29.1h-5.5l-14.5-17.7v17.7h-6.6v-29.1h5.6l14.5,17.7v-17.7h6.6,0Z"/>
  <path class="cls-10" d="M465.2,128v5.4h-22.5v-29.1h22v5.4h-15.3v6.3h13.5v5.2h-13.5v6.7h15.8ZM455,102h-5.1l5.6-6h7l-7.5,6Z"/>
  <path class="cls-10" d="M476.6,109.8h-9.3v-5.5h25.3v5.5h-9.3v23.6h-6.7v-23.6h0Z"/>
  <path class="cls-10" d="M496.2,104.4h6.7v29.1h-6.7s0-29.1,0-29.1Z"/>
  <path class="cls-10" d="M508,118.9c0-8.8,6.7-15,15.8-15s9.2,1.8,12,5.2l-4.3,4c-2-2.2-4.4-3.4-7.3-3.4-5.4,0-9.3,3.8-9.3,9.3s3.9,9.3,9.3,9.3,5.4-1.2,7.3-3.4l4.3,4c-2.7,3.4-6.9,5.2-12,5.2-9,0-15.7-6.3-15.7-15h0Z"/>
  <path class="cls-10" d="M558.9,127.2h-13.5l-2.6,6.2h-6.9l13-29.1h6.7l13,29.1h-7.1l-2.6-6.2h0ZM556.7,122.1l-4.6-11.1-4.6,11.1h9.2Z"/>
  <path class="cls-10" d="M569.2,130.6l2.3-5.1c2.5,1.8,6.1,3,9.6,3s5.6-1.3,5.6-3.1c0-5.4-16.9-1.7-16.9-12.5s4-9.1,12.2-9.1,7.4.9,10.1,2.6l-2.1,5.1c-2.7-1.5-5.5-2.3-8.1-2.3-4,0-5.5,1.5-5.5,3.3,0,5.4,16.9,1.7,16.9,12.3s-4,9-12.3,9-9.3-1.4-11.8-3.4h0Z"/>
  <path class="cls-10" d="M609.8,104.4h13.2c9.5,0,16,5.7,16,14.5s-6.5,14.5-16,14.5h-13.2v-29.1h0ZM622.6,127.9c5.8,0,9.5-3.4,9.5-9s-3.8-9-9.5-9h-6.2v18h6.2Z"/>
  <path class="cls-10" d="M642.2,118.9c0-8.6,6.7-15,15.9-15s15.9,6.3,15.9,15-6.8,15-15.9,15-15.9-6.4-15.9-15ZM667.2,118.9c0-5.5-3.9-9.3-9.1-9.3s-9.1,3.8-9.1,9.3,3.9,9.3,9.1,9.3,9.1-3.8,9.1-9.3Z"/>
  <path class="cls-10" d="M676.8,130.6l2.3-5.1c2.5,1.8,6.1,3,9.6,3s5.6-1.3,5.6-3.1c0-5.4-16.9-1.7-16.9-12.5s4-9.1,12.2-9.1,7.4.9,10.1,2.6l-2.1,5.1c-2.7-1.5-5.5-2.3-8.1-2.3-4,0-5.5,1.5-5.5,3.3,0,5.4,16.9,1.7,16.9,12.3s-4,9-12.3,9-9.3-1.4-11.8-3.4h0Z"/>
  <path class="cls-10" d="M745.3,104.4l-12.6,29.1h-6.6l-12.5-29.1h7.3l8.8,20.8,9-20.8h6.7,0Z"/>
  <path class="cls-10" d="M770.2,128v5.4h-22.5v-29.1h22v5.4h-15.3v6.3h13.5v5.2h-13.5v6.7h15.8,0Z"/>
  <path class="cls-10" d="M794.1,133.4l-5.6-8.1h-6.2v8.1h-6.7v-29.1h12.6c7.8,0,12.6,4,12.6,10.6s-2.2,7.6-6,9.2l6.5,9.4h-7.2,0ZM787.8,109.8h-5.5v10.1h5.5c4.1,0,6.2-1.9,6.2-5.1s-2.1-5.1-6.2-5.1h0Z"/>
  <path class="cls-10" d="M811.7,109.8h-9.3v-5.5h25.3v5.5h-9.3v23.6h-6.7v-23.6h0Z"/>
  <path class="cls-10" d="M853.9,128v5.4h-22.5v-29.1h22v5.4h-15.3v6.3h13.5v5.2h-13.5v6.7h15.8Z"/>
  <path class="cls-10" d="M885.9,125.5c0,5-4,7.9-11.6,7.9h-15v-29.1h14.2c7.3,0,11,3,11,7.6s-1.5,5.2-3.9,6.4c3.2,1,5.3,3.5,5.3,7.2h0ZM865.9,109.4v6.8h6.7c3.3,0,5.1-1.2,5.1-3.4s-1.8-3.4-5.1-3.4h-6.7ZM879.1,124.8c0-2.4-1.9-3.6-5.4-3.6h-7.8v7.2h7.8c3.5,0,5.4-1.1,5.4-3.6h0Z"/>
  <path class="cls-10" d="M909.5,133.4l-5.6-8.1h-6.2v8.1h-6.7v-29.1h12.6c7.8,0,12.6,4,12.6,10.6s-2.2,7.6-6,9.2l6.5,9.4h-7.2ZM903.2,109.8h-5.5v10.1h5.5c4.1,0,6.2-1.9,6.2-5.1s-2.1-5.1-6.2-5.1h0Z"/>
  <path class="cls-10" d="M940.7,127.2h-13.5l-2.6,6.2h-6.9l13-29.1h6.6l13,29.1h-7.1l-2.6-6.2h0ZM938.5,122.1l-4.6-11.1-4.6,11.1h9.2Z"/>
  <path class="cls-10" d="M953.3,104.4h13.2c9.5,0,16,5.7,16,14.5s-6.5,14.5-16,14.5h-13.2v-29.1h0ZM966.2,127.9c5.8,0,9.5-3.4,9.5-9s-3.8-9-9.5-9h-6.2v18h6.2Z"/>
  <path class="cls-10" d="M985.8,118.9c0-8.6,6.7-15,15.9-15s15.9,6.3,15.9,15-6.8,15-15.9,15-15.9-6.4-15.9-15ZM1010.8,118.9c0-5.5-3.9-9.3-9.1-9.3s-9.1,3.8-9.1,9.3,3.9,9.3,9.1,9.3,9.1-3.8,9.1-9.3Z"/>
  <path class="cls-10" d="M1020.4,130.6l2.3-5.1c2.4,1.8,6.1,3,9.6,3s5.6-1.3,5.6-3.1c0-5.4-16.9-1.7-16.9-12.5s4-9.1,12.2-9.1,7.4.9,10.1,2.6l-2.1,5.1c-2.7-1.5-5.5-2.3-8.1-2.3-4,0-5.5,1.5-5.5,3.3,0,5.4,16.9,1.7,16.9,12.3s-4,9-12.3,9-9.3-1.4-11.8-3.4h0Z"/>
  <g class="cls-12">
    <g class="cls-12">
      <path class="cls-11" d="M95.2,554.4c0-4.3,3.3-7.5,7.8-7.5s4.2.8,5.6,2.3l-1.4,1.3c-1.1-1.2-2.5-1.7-4.1-1.7-3.3,0-5.8,2.4-5.8,5.6s2.5,5.6,5.8,5.6,3-.6,4.1-1.8l1.4,1.3c-1.3,1.5-3.3,2.3-5.6,2.3-4.5,0-7.8-3.2-7.8-7.5Z"/>
    </g>
    <g class="cls-12">
      <path class="cls-11" d="M109.8,556.1c0-3.3,2.5-5.7,5.8-5.7s5.8,2.4,5.8,5.7-2.4,5.7-5.8,5.7-5.8-2.4-5.8-5.7ZM119.3,556.1c0-2.4-1.6-3.9-3.7-3.9s-3.8,1.5-3.8,3.9,1.6,3.9,3.8,3.9,3.7-1.6,3.7-3.9Z"/>
    </g>
    <g class="cls-12">
      <path class="cls-11" d="M130.2,550.5v2c-.2,0-.3,0-.5,0-2.2,0-3.5,1.3-3.5,3.8v5.5h-2v-11.1h1.9v1.9c.7-1.3,2.1-2,4.1-2Z"/>
    </g>
    <g class="cls-12">
      <path class="cls-11" d="M144.2,556.1c0,3.4-2.4,5.7-5.6,5.7s-3-.6-3.9-1.8v5.8h-2v-15.2h1.9v1.8c.9-1.2,2.3-1.9,4-1.9,3.3,0,5.6,2.3,5.6,5.7ZM142.1,556.1c0-2.4-1.6-3.9-3.8-3.9s-3.7,1.6-3.7,3.9,1.6,3.9,3.7,3.9,3.8-1.6,3.8-3.9Z"/>
      <path class="cls-11" d="M145.9,556.1c0-3.3,2.5-5.7,5.8-5.7s5.8,2.4,5.8,5.7-2.4,5.7-5.8,5.7-5.8-2.4-5.8-5.7ZM155.5,556.1c0-2.4-1.6-3.9-3.7-3.9s-3.8,1.5-3.8,3.9,1.6,3.9,3.8,3.9,3.7-1.6,3.7-3.9Z"/>
      <path class="cls-11" d="M176.5,555.3v6.4h-2v-6.2c0-2.2-1.1-3.3-3-3.3s-3.5,1.3-3.5,3.7v5.7h-2v-15.6h2v6c.8-1.1,2.2-1.7,3.9-1.7,2.7,0,4.6,1.6,4.6,4.8Z"/>
      <path class="cls-11" d="M179.9,547.1c0-.7.6-1.3,1.4-1.3s1.4.6,1.4,1.3-.6,1.3-1.4,1.3-1.4-.6-1.4-1.3ZM180.2,550.6h2v11.1h-2v-11.1Z"/>
      <path class="cls-11" d="M196.6,546.1v15.6h-1.9v-1.8c-.9,1.3-2.3,1.9-4,1.9-3.3,0-5.6-2.3-5.6-5.7s2.4-5.7,5.6-5.7,3,.6,3.9,1.8v-6.1h2ZM194.6,556.1c0-2.4-1.6-3.9-3.7-3.9s-3.8,1.5-3.8,3.9,1.6,3.9,3.8,3.9,3.7-1.6,3.7-3.9Z"/>
    </g>
    <g class="cls-12">
      <path class="cls-11" d="M206.4,550.5v2c-.2,0-.3,0-.5,0-2.2,0-3.5,1.3-3.5,3.8v5.5h-2v-11.1h1.9v1.9c.7-1.3,2.1-2,4.1-2Z"/>
    </g>
    <g class="cls-12">
      <path class="cls-11" d="M207.8,556.1c0-3.3,2.5-5.7,5.8-5.7s5.8,2.4,5.8,5.7-2.4,5.7-5.8,5.7-5.8-2.4-5.8-5.7ZM217.3,556.1c0-2.4-1.6-3.9-3.7-3.9s-3.8,1.5-3.8,3.9,1.6,3.9,3.8,3.9,3.7-1.6,3.7-3.9Z"/>
      <path class="cls-11" d="M232.6,546.1v15.6h-1.9v-1.8c-.9,1.3-2.3,1.9-4,1.9-3.3,0-5.6-2.3-5.6-5.7s2.4-5.7,5.6-5.7,3,.6,3.9,1.8v-6.1h2ZM230.6,556.1c0-2.4-1.6-3.9-3.7-3.9s-3.8,1.5-3.8,3.9,1.6,3.9,3.8,3.9,3.7-1.6,3.7-3.9Z"/>
      <path class="cls-11" d="M236.1,547.1c0-.7.6-1.3,1.4-1.3s1.4.6,1.4,1.3-.6,1.3-1.4,1.3-1.4-.6-1.4-1.3ZM236.4,550.6h2v11.1h-2v-11.1Z"/>
      <path class="cls-11" d="M252.9,555.3v6.4h-2v-6.2c0-2.2-1.1-3.3-3-3.3s-3.5,1.3-3.5,3.7v5.7h-2v-11.1h1.9v1.7c.8-1.1,2.2-1.8,4-1.8,2.7,0,4.6,1.6,4.6,4.8Z"/>
      <path class="cls-11" d="M265.4,555v6.7h-1.9v-1.5c-.7,1-1.9,1.6-3.7,1.6-2.5,0-4.1-1.3-4.1-3.3s1.2-3.3,4.5-3.3h3.2v-.4c0-1.7-1-2.7-3-2.7s-2.7.5-3.5,1.2l-.8-1.5c1.2-.9,2.8-1.4,4.6-1.4,3,0,4.8,1.5,4.8,4.5ZM258.9,549h-1.8l2.8-2.7h1.9l2.8,2.7h-1.8l-1.9-1.6-1.9,1.6ZM263.4,558.3v-1.6h-3.1c-2,0-2.6.8-2.6,1.7s.9,1.8,2.5,1.8,2.7-.7,3.2-2Z"/>
      <path class="cls-11" d="M287.6,555.3v6.4h-2v-6.2c0-2.2-1-3.3-2.9-3.3s-3.3,1.3-3.3,3.7v5.7h-2v-6.2c0-2.2-1-3.3-2.9-3.3s-3.3,1.3-3.3,3.7v5.7h-2v-11.1h1.9v1.7c.8-1.1,2.2-1.8,3.8-1.8s3.1.7,3.9,2.1c.8-1.3,2.4-2.1,4.3-2.1,2.7,0,4.6,1.6,4.6,4.8Z"/>
      <path class="cls-11" d="M291,547.1c0-.7.6-1.3,1.4-1.3s1.4.6,1.4,1.3-.6,1.3-1.4,1.3-1.4-.6-1.4-1.3ZM291.4,550.6h2v11.1h-2v-11.1Z"/>
    </g>
    <g class="cls-12">
      <path class="cls-11" d="M296.2,556.1c0-3.3,2.5-5.7,5.9-5.7s3.7.8,4.5,2.4l-1.5,1c-.7-1.1-1.8-1.6-3-1.6-2.2,0-3.8,1.5-3.8,3.9s1.6,3.9,3.8,3.9,2.3-.5,3-1.6l1.5,1c-.9,1.6-2.5,2.4-4.5,2.4-3.4,0-5.9-2.4-5.9-5.7Z"/>
    </g>
    <g class="cls-12">
      <path class="cls-11" d="M308,556.1c0-3.3,2.5-5.7,5.8-5.7s5.8,2.4,5.8,5.7-2.4,5.7-5.8,5.7-5.8-2.4-5.8-5.7ZM317.5,556.1c0-2.4-1.6-3.9-3.7-3.9s-3.8,1.5-3.8,3.9,1.6,3.9,3.8,3.9,3.7-1.6,3.7-3.9Z"/>
      <path class="cls-11" d="M327.3,555.1h5.6v1.7h-5.6v-1.7Z"/>
    </g>
    <g class="cls-12">
      <path class="cls-11" d="M51.5,579.6c0-4.3,3.3-7.5,7.8-7.5s4.2.8,5.6,2.3l-1.4,1.3c-1.1-1.2-2.5-1.7-4.1-1.7-3.3,0-5.8,2.4-5.8,5.6s2.5,5.6,5.8,5.6,3-.6,4.1-1.8l1.4,1.3c-1.3,1.5-3.3,2.3-5.6,2.3-4.5,0-7.8-3.2-7.8-7.5Z"/>
    </g>
    <g class="cls-12">
      <path class="cls-11" d="M66.1,581.3c0-3.3,2.5-5.7,5.8-5.7s5.8,2.4,5.8,5.7-2.4,5.7-5.8,5.7-5.8-2.4-5.8-5.7ZM75.6,581.3c0-2.4-1.6-3.9-3.7-3.9s-3.8,1.5-3.8,3.9,1.6,3.9,3.8,3.9,3.7-1.6,3.7-3.9Z"/>
    </g>
    <g class="cls-12">
      <path class="cls-11" d="M86.4,575.7v2c-.2,0-.3,0-.5,0-2.2,0-3.5,1.3-3.5,3.8v5.5h-2v-11.1h1.9v1.9c.7-1.3,2.1-2,4.1-2Z"/>
    </g>
    <g class="cls-12">
      <path class="cls-11" d="M97.7,580.2v6.7h-1.9v-1.5c-.7,1-1.9,1.6-3.7,1.6-2.5,0-4.1-1.3-4.1-3.3s1.2-3.3,4.5-3.3h3.2v-.4c0-1.7-1-2.7-3-2.7s-2.7.5-3.5,1.2l-.8-1.5c1.2-.9,2.8-1.4,4.6-1.4,3,0,4.8,1.5,4.8,4.5ZM95.7,583.5v-1.6h-3.1c-2,0-2.6.8-2.6,1.7s.9,1.8,2.5,1.8,2.7-.7,3.2-2Z"/>
    </g>
    <g class="cls-12">
      <path class="cls-11" d="M109.4,583.7l1.5,1c-.9,1.6-2.5,2.4-4.5,2.4l-.3.9c1.2.1,1.8.8,1.8,1.7s-1,1.9-2.6,1.9-1.3-.1-1.9-.5l.4-1c.4.3.9.4,1.4.4.8,0,1.2-.3,1.2-.8s-.4-.8-1.2-.8h-.6l.5-1.9c-2.8-.5-4.8-2.6-4.8-5.6s2.5-5.7,5.9-5.7,3.7.8,4.5,2.4l-1.5,1c-.7-1.1-1.8-1.6-3-1.6-2.2,0-3.8,1.5-3.8,3.9s1.6,3.9,3.8,3.9,2.3-.5,3-1.6Z"/>
    </g>
    <g class="cls-12">
      <path class="cls-11" d="M122.3,580.2v6.7h-1.9v-1.5c-.7,1-1.9,1.6-3.7,1.6-2.5,0-4.1-1.3-4.1-3.3s1.2-3.3,4.5-3.3h3.2v-.4c0-1.7-1-2.7-3-2.7s-2.7.5-3.5,1.2l-.8-1.5c1.2-.9,2.8-1.4,4.6-1.4,3,0,4.8,1.5,4.8,4.5ZM115.3,574h-1.1c0-1.6.8-2.6,2.1-2.6s2,1.4,2.8,1.4,1-.5,1.1-1.3h1.1c0,1.5-.8,2.5-2.1,2.5s-2-1.4-2.8-1.4-1,.5-1.1,1.3ZM120.3,583.5v-1.6h-3.1c-2,0-2.6.8-2.6,1.7s.9,1.8,2.5,1.8,2.7-.7,3.2-2Z"/>
    </g>
    <g class="cls-12">
      <path class="cls-11" d="M125.1,581.3c0-3.3,2.5-5.7,5.8-5.7s5.8,2.4,5.8,5.7-2.4,5.7-5.8,5.7-5.8-2.4-5.8-5.7ZM134.6,581.3c0-2.4-1.6-3.9-3.7-3.9s-3.8,1.5-3.8,3.9,1.6,3.9,3.8,3.9,3.7-1.6,3.7-3.9Z"/>
    </g>
    <g class="cls-12">
      <path class="cls-11" d="M144.1,581.3c0-3.3,2.5-5.7,5.9-5.7s3.7.8,4.5,2.4l-1.5,1c-.7-1.1-1.8-1.6-3-1.6-2.2,0-3.8,1.5-3.8,3.9s1.6,3.9,3.8,3.9,2.3-.5,3-1.6l1.5,1c-.9,1.6-2.5,2.4-4.5,2.4-3.4,0-5.9-2.4-5.9-5.7Z"/>
    </g>
    <g class="cls-12">
      <path class="cls-11" d="M155.9,581.3c0-3.3,2.5-5.7,5.8-5.7s5.8,2.4,5.8,5.7-2.4,5.7-5.8,5.7-5.8-2.4-5.8-5.7ZM165.4,581.3c0-2.4-1.6-3.9-3.7-3.9s-3.8,1.5-3.8,3.9,1.6,3.9,3.8,3.9,3.7-1.6,3.7-3.9Z"/>
      <path class="cls-11" d="M188.7,580.5v6.4h-2v-6.2c0-2.2-1-3.3-2.9-3.3s-3.3,1.3-3.3,3.7v5.7h-2v-6.2c0-2.2-1-3.3-2.9-3.3s-3.3,1.3-3.3,3.7v5.7h-2v-11.1h1.9v1.7c.8-1.1,2.2-1.8,3.8-1.8s3.1.7,3.9,2.1c.8-1.3,2.4-2.1,4.3-2.1,2.7,0,4.6,1.6,4.6,4.8Z"/>
      <path class="cls-11" d="M207.5,585.1v1.8h-10.6v-1.4l6-5.8c1.6-1.5,1.8-2.4,1.8-3.4,0-1.5-1.1-2.4-3.1-2.4s-2.9.5-3.8,1.6l-1.4-1.2c1.1-1.4,3.1-2.2,5.4-2.2s5,1.6,5,4.1-.4,2.7-2.4,4.6l-4.5,4.3h7.5Z"/>
      <path class="cls-11" d="M214.8,581.3c0-3.3,2.5-5.7,5.9-5.7s3.7.8,4.5,2.4l-1.5,1c-.7-1.1-1.8-1.6-3-1.6-2.2,0-3.8,1.5-3.8,3.9s1.6,3.9,3.8,3.9,2.3-.5,3-1.6l1.5,1c-.9,1.6-2.5,2.4-4.5,2.4-3.4,0-5.9-2.4-5.9-5.7Z"/>
    </g>
    <g class="cls-12">
      <path class="cls-11" d="M236.6,580.2v6.7h-1.9v-1.5c-.7,1-1.9,1.6-3.7,1.6-2.5,0-4.1-1.3-4.1-3.3s1.2-3.3,4.5-3.3h3.2v-.4c0-1.7-1-2.7-3-2.7s-2.7.5-3.5,1.2l-.8-1.5c1.2-.9,2.8-1.4,4.6-1.4,3,0,4.8,1.5,4.8,4.5ZM234.6,583.5v-1.6h-3.1c-2,0-2.6.8-2.6,1.7s.9,1.8,2.5,1.8,2.7-.7,3.2-2Z"/>
    </g>
    <g class="cls-12">
      <path class="cls-11" d="M250,575.8l-4.9,11.1h-2.1l-4.9-11.1h2.1l3.8,8.9,3.9-8.9h2Z"/>
      <path class="cls-11" d="M251.5,572.3c0-.7.6-1.3,1.4-1.3s1.4.6,1.4,1.3-.6,1.3-1.4,1.3-1.4-.6-1.4-1.3ZM251.9,575.8h2v11.1h-2v-11.1Z"/>
      <path class="cls-11" d="M268.2,571.3v15.6h-1.9v-1.8c-.9,1.3-2.3,1.9-4,1.9-3.3,0-5.6-2.3-5.6-5.7s2.4-5.7,5.6-5.7,3,.6,3.9,1.8v-6.1h2ZM266.2,581.3c0-2.4-1.6-3.9-3.7-3.9s-3.8,1.5-3.8,3.9,1.6,3.9,3.8,3.9,3.7-1.6,3.7-3.9Z"/>
    </g>
    <g class="cls-12">
      <path class="cls-11" d="M280.9,580.2v6.7h-1.9v-1.5c-.7,1-1.9,1.6-3.7,1.6-2.5,0-4.1-1.3-4.1-3.3s1.2-3.3,4.5-3.3h3.2v-.4c0-1.7-1-2.7-3-2.7s-2.7.5-3.5,1.2l-.8-1.5c1.2-.9,2.8-1.4,4.6-1.4,3,0,4.8,1.5,4.8,4.5ZM278.9,583.5v-1.6h-3.1c-2,0-2.6.8-2.6,1.7s.9,1.8,2.5,1.8,2.7-.7,3.2-2Z"/>
    </g>
    <g class="cls-12">
      <path class="cls-11" d="M295.2,571.3v15.6h-1.9v-1.8c-.9,1.3-2.3,1.9-4,1.9-3.3,0-5.6-2.3-5.6-5.7s2.4-5.7,5.6-5.7,3,.6,3.9,1.8v-6.1h2ZM293.2,581.3c0-2.4-1.6-3.9-3.7-3.9s-3.8,1.5-3.8,3.9,1.6,3.9,3.8,3.9,3.7-1.6,3.7-3.9Z"/>
      <path class="cls-11" d="M309,582h-9c.3,2,1.8,3.3,4,3.3s2.4-.4,3.2-1.3l1.1,1.3c-1,1.2-2.5,1.8-4.4,1.8-3.6,0-6-2.4-6-5.7s2.4-5.7,5.6-5.7,5.5,2.3,5.5,5.7,0,.4,0,.6ZM300,580.6h7.1c-.2-1.9-1.6-3.2-3.6-3.2s-3.4,1.3-3.6,3.2Z"/>
      <path class="cls-11" d="M310.4,585.7l.8-1.6c.9.7,2.5,1.2,3.9,1.2s2.6-.6,2.6-1.5c0-2.5-7-.3-7-4.8s1.8-3.3,4.6-3.3,3.1.4,4.1,1l-.9,1.6c-1-.7-2.1-.9-3.2-.9-1.8,0-2.6.7-2.6,1.5,0,2.6,7.1.5,7.1,4.8s-1.8,3.3-4.8,3.3-3.7-.6-4.6-1.3Z"/>
      <path class="cls-11" d="M327.3,580.3h5.6v1.7h-5.6v-1.7Z"/>
    </g>
    <g class="cls-12">
      <path class="cls-11" d="M214.1,597.4v14.7h-1.7l-8.8-11v11h-2.1v-14.7h1.7l8.8,11v-11h2.1Z"/>
    </g>
    <g class="cls-12">
      <path class="cls-11" d="M227.1,605.4v6.7h-1.9v-1.5c-.7,1-1.9,1.6-3.7,1.6-2.5,0-4.1-1.3-4.1-3.3s1.2-3.3,4.5-3.3h3.2v-.4c0-1.7-1-2.7-3-2.7s-2.7.5-3.5,1.2l-.8-1.5c1.2-.9,2.8-1.4,4.6-1.4,3,0,4.8,1.5,4.8,4.5ZM225.1,608.7v-1.6h-3.1c-2,0-2.6.8-2.6,1.7s.9,1.8,2.5,1.8,2.7-.7,3.2-2Z"/>
    </g>
    <g class="cls-12">
      <path class="cls-11" d="M241.4,596.5v15.6h-1.9v-1.8c-.9,1.3-2.3,1.9-4,1.9-3.3,0-5.6-2.3-5.6-5.7s2.4-5.7,5.6-5.7,3,.6,3.9,1.8v-6.1h2ZM239.4,606.5c0-2.4-1.6-3.9-3.7-3.9s-3.8,1.5-3.8,3.9,1.6,3.9,3.8,3.9,3.7-1.6,3.7-3.9Z"/>
    </g>
    <g class="cls-12">
      <path class="cls-11" d="M254,605.4v6.7h-1.9v-1.5c-.7,1-1.9,1.6-3.7,1.6-2.5,0-4.1-1.3-4.1-3.3s1.2-3.3,4.5-3.3h3.2v-.4c0-1.7-1-2.7-3-2.7s-2.7.5-3.5,1.2l-.8-1.5c1.2-.9,2.8-1.4,4.6-1.4,3,0,4.8,1.5,4.8,4.5ZM252,608.7v-1.6h-3.1c-2,0-2.6.8-2.6,1.7s.9,1.8,2.5,1.8,2.7-.7,3.2-2Z"/>
    </g>
    <g class="cls-12">
      <path class="cls-11" d="M268.3,596.5v15.6h-1.9v-1.8c-.9,1.3-2.3,1.9-4,1.9-3.3,0-5.6-2.3-5.6-5.7s2.4-5.7,5.6-5.7,3,.6,3.9,1.8v-6.1h2ZM266.3,606.5c0-2.4-1.6-3.9-3.7-3.9s-3.8,1.5-3.8,3.9,1.6,3.9,3.8,3.9,3.7-1.6,3.7-3.9Z"/>
      <path class="cls-11" d="M282.2,607.2h-9c.3,2,1.8,3.3,4,3.3s2.4-.4,3.2-1.3l1.1,1.3c-1,1.2-2.5,1.8-4.4,1.8-3.6,0-6-2.4-6-5.7s2.4-5.7,5.6-5.7,5.5,2.3,5.5,5.7,0,.4,0,.6ZM273.1,605.8h7.1c-.2-1.9-1.6-3.2-3.6-3.2s-3.4,1.3-3.6,3.2Z"/>
      <path class="cls-11" d="M284.6,597.5c0-.7.6-1.3,1.4-1.3s1.4.6,1.4,1.3-.6,1.3-1.4,1.3-1.4-.6-1.4-1.3ZM285,601h2v11.1h-2v-11.1Z"/>
    </g>
    <g class="cls-12">
      <path class="cls-11" d="M296.8,600.9v2c-.2,0-.3,0-.5,0-2.2,0-3.5,1.3-3.5,3.8v5.5h-2v-11.1h1.9v1.9c.7-1.3,2.1-2,4.1-2Z"/>
    </g>
    <g class="cls-12">
      <path class="cls-11" d="M308.1,605.4v6.7h-1.9v-1.5c-.7,1-1.9,1.6-3.7,1.6-2.5,0-4.1-1.3-4.1-3.3s1.2-3.3,4.5-3.3h3.2v-.4c0-1.7-1-2.7-3-2.7s-2.7.5-3.5,1.2l-.8-1.5c1.2-.9,2.8-1.4,4.6-1.4,3,0,4.8,1.5,4.8,4.5ZM306.1,608.7v-1.6h-3.1c-2,0-2.6.8-2.6,1.7s.9,1.8,2.5,1.8,2.7-.7,3.2-2Z"/>
      <path class="cls-11" d="M310.4,610.9l.8-1.6c.9.7,2.5,1.2,3.9,1.2s2.6-.6,2.6-1.5c0-2.5-7-.3-7-4.8s1.8-3.3,4.6-3.3,3.1.4,4.1,1l-.9,1.6c-1-.7-2.1-.9-3.2-.9-1.8,0-2.6.7-2.6,1.5,0,2.6,7.1.5,7.1,4.8s-1.8,3.3-4.8,3.3-3.7-.6-4.6-1.3Z"/>
      <path class="cls-11" d="M327.3,605.5h5.6v1.7h-5.6v-1.7Z"/>
    </g>
    <g class="cls-12">
      <path class="cls-11" d="M106.5,637.3l-3.2-4.5c-.3,0-.6,0-.9,0h-3.6v4.5h-2.1v-14.7h5.7c3.8,0,6.1,1.9,6.1,5.1s-1.2,3.9-3.2,4.6l3.5,4.9h-2.3ZM106.4,627.7c0-2.1-1.4-3.3-4.1-3.3h-3.6v6.6h3.6c2.7,0,4.1-1.2,4.1-3.3Z"/>
      <path class="cls-11" d="M121.7,632.4h-9c.3,2,1.8,3.3,4,3.3s2.4-.4,3.2-1.3l1.1,1.3c-1,1.2-2.5,1.8-4.4,1.8-3.6,0-6-2.4-6-5.7s2.4-5.7,5.6-5.7,5.5,2.3,5.5,5.7,0,.4,0,.6ZM112.6,631h7.1c-.2-1.9-1.6-3.2-3.6-3.2s-3.4,1.3-3.6,3.2Z"/>
      <path class="cls-11" d="M123.1,636.1l.8-1.6c.9.7,2.5,1.2,3.9,1.2s2.6-.6,2.6-1.5c0-2.5-7-.3-7-4.8s1.8-3.3,4.6-3.3,3.1.4,4.1,1l-.9,1.6c-1-.7-2.1-.9-3.2-.9-1.8,0-2.6.7-2.6,1.5,0,2.6,7.1.5,7.1,4.8s-1.8,3.3-4.8,3.3-3.7-.6-4.6-1.3Z"/>
      <path class="cls-11" d="M146.6,631.7c0,3.4-2.4,5.7-5.6,5.7s-3-.6-3.9-1.8v5.8h-2v-15.2h1.9v1.8c.9-1.2,2.3-1.9,4-1.9,3.3,0,5.6,2.3,5.6,5.7ZM144.5,631.7c0-2.4-1.6-3.9-3.8-3.9s-3.7,1.6-3.7,3.9,1.6,3.9,3.7,3.9,3.8-1.6,3.8-3.9Z"/>
      <path class="cls-11" d="M149,622.7c0-.7.6-1.3,1.4-1.3s1.4.6,1.4,1.3-.6,1.3-1.4,1.3-1.4-.6-1.4-1.3ZM149.4,626.2h2v11.1h-2v-11.1Z"/>
    </g>
    <g class="cls-12">
      <path class="cls-11" d="M161.2,626.1v2c-.2,0-.3,0-.5,0-2.2,0-3.5,1.3-3.5,3.8v5.5h-2v-11.1h1.9v1.9c.7-1.3,2.1-2,4.1-2Z"/>
    </g>
    <g class="cls-12">
      <path class="cls-11" d="M172.5,630.6v6.7h-1.9v-1.5c-.7,1-1.9,1.6-3.7,1.6-2.5,0-4.1-1.3-4.1-3.3s1.2-3.3,4.5-3.3h3.2v-.4c0-1.7-1-2.7-3-2.7s-2.7.5-3.5,1.2l-.8-1.5c1.2-.9,2.8-1.4,4.6-1.4,3,0,4.8,1.5,4.8,4.5ZM170.5,633.9v-1.6h-3.1c-2,0-2.6.8-2.6,1.7s.9,1.8,2.5,1.8,2.7-.7,3.2-2Z"/>
    </g>
    <g class="cls-12">
      <path class="cls-11" d="M184.1,634.1l1.5,1c-.9,1.6-2.5,2.4-4.5,2.4l-.3.9c1.2.1,1.8.8,1.8,1.7s-1,1.9-2.6,1.9-1.3-.1-1.9-.5l.4-1c.4.3.9.4,1.4.4.8,0,1.2-.3,1.2-.8s-.4-.8-1.2-.8h-.6l.5-1.9c-2.8-.5-4.8-2.6-4.8-5.6s2.5-5.7,5.9-5.7,3.7.8,4.5,2.4l-1.5,1c-.7-1.1-1.8-1.6-3-1.6-2.2,0-3.8,1.5-3.8,3.9s1.6,3.9,3.8,3.9,2.3-.5,3-1.6Z"/>
    </g>
    <g class="cls-12">
      <path class="cls-11" d="M197.1,630.6v6.7h-1.9v-1.5c-.7,1-1.9,1.6-3.7,1.6-2.5,0-4.1-1.3-4.1-3.3s1.2-3.3,4.5-3.3h3.2v-.4c0-1.7-1-2.7-3-2.7s-2.7.5-3.5,1.2l-.8-1.5c1.2-.9,2.8-1.4,4.6-1.4,3,0,4.8,1.5,4.8,4.5ZM190.1,624.4h-1.1c0-1.6.8-2.6,2.1-2.6s2,1.4,2.8,1.4,1-.5,1.1-1.3h1.1c0,1.5-.8,2.5-2.1,2.5s-2-1.4-2.8-1.4-1,.5-1.1,1.3ZM195.1,633.9v-1.6h-3.1c-2,0-2.6.8-2.6,1.7s.9,1.8,2.5,1.8,2.7-.7,3.2-2Z"/>
    </g>
    <g class="cls-12">
      <path class="cls-11" d="M199.9,631.7c0-3.3,2.5-5.7,5.8-5.7s5.8,2.4,5.8,5.7-2.4,5.7-5.8,5.7-5.8-2.4-5.8-5.7ZM209.4,631.7c0-2.4-1.6-3.9-3.7-3.9s-3.8,1.5-3.8,3.9,1.6,3.9,3.8,3.9,3.7-1.6,3.7-3.9Z"/>
      <path class="cls-11" d="M231.4,631.7c0,3.4-2.4,5.7-5.6,5.7s-3.1-.6-4-1.9v1.8h-1.9v-15.6h2v6.1c.9-1.2,2.3-1.8,3.9-1.8,3.3,0,5.6,2.3,5.6,5.7ZM229.4,631.7c0-2.4-1.6-3.9-3.8-3.9s-3.7,1.5-3.7,3.9,1.6,3.9,3.7,3.9,3.8-1.6,3.8-3.9Z"/>
    </g>
    <g class="cls-12">
      <path class="cls-11" d="M240.2,626.1v2c-.2,0-.3,0-.5,0-2.2,0-3.5,1.3-3.5,3.8v5.5h-2v-11.1h1.9v1.9c.7-1.3,2.1-2,4.1-2Z"/>
    </g>
    <g class="cls-12">
      <path class="cls-11" d="M251.5,630.6v6.7h-1.9v-1.5c-.7,1-1.9,1.6-3.7,1.6-2.5,0-4.1-1.3-4.1-3.3s1.2-3.3,4.5-3.3h3.2v-.4c0-1.7-1-2.7-3-2.7s-2.7.5-3.5,1.2l-.8-1.5c1.2-.9,2.8-1.4,4.6-1.4,3,0,4.8,1.5,4.8,4.5ZM249.4,633.9v-1.6h-3.1c-2,0-2.6.8-2.6,1.7s.9,1.8,2.5,1.8,2.7-.7,3.2-2Z"/>
    </g>
    <g class="cls-12">
      <path class="cls-11" d="M265.8,630.9v6.4h-2v-6.2c0-2.2-1.1-3.3-3-3.3s-3.5,1.3-3.5,3.7v5.7h-2v-11.1h1.9v1.7c.8-1.1,2.2-1.8,4-1.8,2.7,0,4.6,1.6,4.6,4.8Z"/>
    </g>
    <g class="cls-12">
      <path class="cls-11" d="M280.1,626.2v15.2h-2v-5.8c-.9,1.2-2.3,1.8-3.9,1.8-3.3,0-5.6-2.3-5.6-5.7s2.4-5.7,5.6-5.7,3.1.6,4,1.9v-1.8h1.9ZM278.1,631.7c0-2.4-1.6-3.9-3.7-3.9s-3.8,1.6-3.8,3.9,1.6,3.9,3.8,3.9,3.7-1.6,3.7-3.9Z"/>
      <path class="cls-11" d="M294.3,626.2v11.1h-1.9v-1.7c-.8,1.2-2.2,1.8-3.8,1.8-2.9,0-4.8-1.6-4.8-4.9v-6.4h2v6.2c0,2.2,1.1,3.3,3,3.3s3.4-1.3,3.4-3.7v-5.8h2Z"/>
      <path class="cls-11" d="M297.7,622.7c0-.7.6-1.3,1.4-1.3s1.4.6,1.4,1.3-.6,1.3-1.4,1.3-1.4-.6-1.4-1.3ZM298.1,626.2h2v11.1h-2v-11.1Z"/>
      <path class="cls-11" d="M312.8,630.6v6.7h-1.9v-1.5c-.7,1-1.9,1.6-3.7,1.6-2.5,0-4.1-1.3-4.1-3.3s1.2-3.3,4.5-3.3h3.2v-.4c0-1.7-1-2.7-3-2.7s-2.7.5-3.5,1.2l-.8-1.5c1.2-.9,2.8-1.4,4.6-1.4,3,0,4.8,1.5,4.8,4.5ZM310.8,633.9v-1.6h-3.1c-2,0-2.6.8-2.6,1.7s.9,1.8,2.5,1.8,2.7-.7,3.2-2Z"/>
      <path class="cls-11" d="M316.5,621.7h2v15.6h-2v-15.6Z"/>
      <path class="cls-11" d="M327.3,630.7h5.6v1.7h-5.6v-1.7Z"/>
    </g>
  </g>
  <g class="cls-12">
    <g class="cls-12">
      <path class="cls-11" d="M226,823.5v-10.7s-5.3,8.9-5.3,8.9h-1l-5.3-8.9v10.6h-2v-14.7h1.7l6.1,10.3,6-10.3h1.7v14.7s-2,0-2,0Z"/>
      <path class="cls-11" d="M242.2,818.6h-9c.3,2,1.8,3.3,4,3.3s2.4-.4,3.2-1.3l1.1,1.3c-1,1.2-2.5,1.8-4.4,1.8-3.6,0-6-2.4-6-5.7s2.4-5.7,5.6-5.7,5.5,2.3,5.5,5.7,0,.4,0,.6ZM233.1,817.1h7.1c-.2-1.9-1.6-3.2-3.6-3.2s-3.4,1.3-3.6,3.2Z"/>
      <path class="cls-11" d="M263.5,817.1v6.4h-2v-6.2c0-2.2-1-3.3-2.9-3.3s-3.3,1.3-3.3,3.7v5.7h-2v-6.2c0-2.2-1-3.3-2.9-3.3s-3.3,1.3-3.3,3.7v5.7h-2v-11.1h1.9v1.7c.8-1.1,2.2-1.8,3.8-1.8s3.1.7,3.9,2.1c.8-1.3,2.4-2.1,4.3-2.1,2.7,0,4.6,1.6,4.6,4.8Z"/>
      <path class="cls-11" d="M278.7,817.9c0,3.4-2.4,5.7-5.6,5.7s-3.1-.6-4-1.9v1.8h-1.9v-15.6h2v6.1c.9-1.2,2.3-1.8,3.9-1.8,3.3,0,5.6,2.3,5.6,5.7ZM276.7,817.9c0-2.4-1.6-3.9-3.8-3.9s-3.7,1.5-3.7,3.9,1.6,3.9,3.7,3.9,3.8-1.6,3.8-3.9Z"/>
    </g>
    <g class="cls-12">
      <path class="cls-11" d="M287.5,812.2v2c-.2,0-.3,0-.5,0-2.2,0-3.5,1.3-3.5,3.8v5.5h-2v-11.1h1.9v1.9c.7-1.3,2.1-2,4.1-2Z"/>
    </g>
    <g class="cls-12">
      <path class="cls-11" d="M288.8,817.9c0-3.3,2.5-5.7,5.8-5.7s5.8,2.4,5.8,5.7-2.4,5.7-5.8,5.7-5.8-2.4-5.8-5.7ZM298.4,817.9c0-2.4-1.6-3.9-3.7-3.9s-3.8,1.5-3.8,3.9,1.6,3.9,3.8,3.9,3.7-1.6,3.7-3.9Z"/>
      <path class="cls-11" d="M301.8,822.3l.8-1.6c.9.7,2.5,1.2,3.9,1.2s2.6-.6,2.6-1.5c0-2.5-7-.3-7-4.8s1.8-3.3,4.6-3.3,3.1.4,4.1,1l-.9,1.6c-1-.7-2.1-.9-3.2-.9-1.8,0-2.6.7-2.6,1.5,0,2.6,7.1.5,7.1,4.8s-1.8,3.3-4.8,3.3-3.7-.6-4.6-1.3Z"/>
    </g>
    <g class="cls-12">
      <path class="cls-11" d="M196.3,833.1h2v15.6h-2v-15.6Z"/>
      <path class="cls-11" d="M201.1,843.1c0-3.3,2.5-5.7,5.8-5.7s5.8,2.4,5.8,5.7-2.4,5.7-5.8,5.7-5.8-2.4-5.8-5.7ZM210.6,843.1c0-2.4-1.6-3.9-3.7-3.9s-3.8,1.5-3.8,3.9,1.6,3.9,3.8,3.9,3.7-1.6,3.7-3.9Z"/>
    </g>
    <g class="cls-12">
      <path class="cls-11" d="M214.4,843.1c0-3.3,2.5-5.7,5.9-5.7s3.7.8,4.5,2.4l-1.5,1c-.7-1.1-1.8-1.6-3-1.6-2.2,0-3.8,1.5-3.8,3.9s1.6,3.9,3.8,3.9,2.3-.5,3-1.6l1.5,1c-.9,1.6-2.5,2.4-4.5,2.4-3.4,0-5.9-2.4-5.9-5.7Z"/>
    </g>
    <g class="cls-12">
      <path class="cls-11" d="M226.2,843.1c0-3.3,2.5-5.7,5.8-5.7s5.8,2.4,5.8,5.7-2.4,5.7-5.8,5.7-5.8-2.4-5.8-5.7ZM235.8,843.1c0-2.4-1.6-3.9-3.7-3.9s-3.8,1.5-3.8,3.9,1.6,3.9,3.8,3.9,3.7-1.6,3.7-3.9Z"/>
    </g>
    <g class="cls-12">
      <path class="cls-11" d="M259.1,842.3v6.4h-2v-6.2c0-2.2-1-3.3-2.9-3.3s-3.3,1.3-3.3,3.7v5.7h-2v-6.2c0-2.2-1-3.3-2.9-3.3s-3.3,1.3-3.3,3.7v5.7h-2v-11.1h1.9v1.7c.8-1.1,2.2-1.8,3.8-1.8s3.1.7,3.9,2.1c.8-1.3,2.4-2.1,4.3-2.1,2.7,0,4.6,1.6,4.6,4.8Z"/>
    </g>
    <g class="cls-12">
      <path class="cls-11" d="M261.8,843.1c0-3.3,2.5-5.7,5.8-5.7s5.8,2.4,5.8,5.7-2.4,5.7-5.8,5.7-5.8-2.4-5.8-5.7ZM271.4,843.1c0-2.4-1.6-3.9-3.7-3.9s-3.8,1.5-3.8,3.9,1.6,3.9,3.8,3.9,3.7-1.6,3.7-3.9Z"/>
    </g>
    <g class="cls-12">
      <path class="cls-11" d="M282.4,848c-.6.5-1.5.8-2.4.8-2.2,0-3.5-1.2-3.5-3.5v-6.1h-1.9v-1.7h1.9v-2.4h2v2.4h3.2v1.7h-3.2v6c0,1.2.6,1.9,1.7,1.9s1.2-.2,1.6-.5l.6,1.4Z"/>
    </g>
    <g class="cls-12">
      <path class="cls-11" d="M283.5,843.1c0-3.3,2.5-5.7,5.8-5.7s5.8,2.4,5.8,5.7-2.4,5.7-5.8,5.7-5.8-2.4-5.8-5.7ZM293,843.1c0-2.4-1.6-3.9-3.7-3.9s-3.8,1.5-3.8,3.9,1.6,3.9,3.8,3.9,3.7-1.6,3.7-3.9Z"/>
    </g>
    <g class="cls-12">
      <path class="cls-11" d="M303.8,837.4v2c-.2,0-.3,0-.5,0-2.2,0-3.5,1.3-3.5,3.8v5.5h-2v-11.1h1.9v1.9c.7-1.3,2.1-2,4.1-2Z"/>
    </g>
    <g class="cls-12">
      <path class="cls-11" d="M316.2,843.8h-9c.3,2,1.8,3.3,4,3.3s2.4-.4,3.2-1.3l1.1,1.3c-1,1.2-2.5,1.8-4.4,1.8-3.6,0-6-2.4-6-5.7s2.4-5.7,5.6-5.7,5.5,2.3,5.5,5.7,0,.4,0,.6ZM307.2,842.3h7.1c-.2-1.9-1.6-3.2-3.6-3.2s-3.4,1.3-3.6,3.2Z"/>
      <path class="cls-11" d="M317.6,847.5l.8-1.6c.9.7,2.5,1.2,3.9,1.2s2.6-.6,2.6-1.5c0-2.5-7-.3-7-4.8s1.8-3.3,4.6-3.3,3.1.4,4.1,1l-.9,1.6c-1-.7-2.1-.9-3.2-.9-1.8,0-2.6.7-2.6,1.5,0,2.6,7.1.5,7.1,4.8s-1.8,3.3-4.8,3.3-3.7-.6-4.6-1.3Z"/>
    </g>
    <g class="cls-12">
      <path class="cls-11" d="M216.6,869h-9c.3,2,1.8,3.3,4,3.3s2.4-.4,3.2-1.3l1.1,1.3c-1,1.2-2.5,1.8-4.4,1.8-3.6,0-6-2.4-6-5.7s2.4-5.7,5.6-5.7,5.5,2.3,5.5,5.7,0,.4,0,.6ZM207.5,867.5h7.1c-.2-1.9-1.6-3.2-3.6-3.2s-3.4,1.3-3.6,3.2Z"/>
      <path class="cls-11" d="M237.2,864.3c0,3.2-2.3,5.1-6.1,5.1h-3.6v4.5h-2.1v-14.7h5.7c3.8,0,6.1,1.9,6.1,5.1ZM235.1,864.3c0-2.1-1.4-3.3-4.1-3.3h-3.6v6.6h3.6c2.7,0,4.1-1.2,4.1-3.3Z"/>
      <path class="cls-11" d="M250.6,862.7v11.1h-1.9v-1.7c-.8,1.2-2.2,1.8-3.8,1.8-2.9,0-4.8-1.6-4.8-4.9v-6.4h2v6.2c0,2.2,1.1,3.3,3,3.3s3.4-1.3,3.4-3.7v-5.8h2Z"/>
      <path class="cls-11" d="M254.4,858.3h2v15.6h-2v-15.6Z"/>
    </g>
    <g class="cls-12">
      <path class="cls-11" d="M278.8,867.5v6.4h-2v-6.2c0-2.2-1-3.3-2.9-3.3s-3.3,1.3-3.3,3.7v5.7h-2v-6.2c0-2.2-1-3.3-2.9-3.3s-3.3,1.3-3.3,3.7v5.7h-2v-11.1h1.9v1.7c.8-1.1,2.2-1.8,3.8-1.8s3.1.7,3.9,2.1c.8-1.3,2.4-2.1,4.3-2.1,2.7,0,4.6,1.6,4.6,4.8Z"/>
    </g>
    <g class="cls-12">
      <path class="cls-11" d="M281.5,868.3c0-3.3,2.5-5.7,5.8-5.7s5.8,2.4,5.8,5.7-2.4,5.7-5.8,5.7-5.8-2.4-5.8-5.7ZM291.1,868.3c0-2.4-1.6-3.9-3.7-3.9s-3.8,1.5-3.8,3.9,1.6,3.9,3.8,3.9,3.7-1.6,3.7-3.9ZM286,859.6c-.6,0-1,.5-1.1,1.3h-1.1c0-1.6.8-2.6,2.1-2.6s2,1.4,2.8,1.4,1-.5,1.1-1.3h1.1c0,1.5-.8,2.5-2.1,2.5s-2-1.4-2.8-1.4Z"/>
      <path class="cls-11" d="M305.9,869h-9c.3,2,1.8,3.3,4,3.3s2.4-.4,3.2-1.3l1.1,1.3c-1,1.2-2.5,1.8-4.4,1.8-3.6,0-6-2.4-6-5.7s2.4-5.7,5.6-5.7,5.5,2.3,5.5,5.7,0,.4,0,.6ZM296.9,867.5h7.1c-.2-1.9-1.6-3.2-3.6-3.2s-3.4,1.3-3.6,3.2Z"/>
      <path class="cls-11" d="M307.3,872.7l.8-1.6c.9.7,2.5,1.2,3.9,1.2s2.6-.6,2.6-1.5c0-2.5-7-.3-7-4.8s1.8-3.3,4.6-3.3,3.1.4,4.1,1l-.9,1.6c-1-.7-2.1-.9-3.2-.9-1.8,0-2.6.7-2.6,1.5,0,2.6,7.1.5,7.1,4.8s-1.8,3.3-4.8,3.3-3.7-.6-4.6-1.3Z"/>
    </g>
  </g>
  <g class="cls-12">
    <g class="cls-12">
      <path class="cls-11" d="M212.8,902.7h-5v-1.8h12.2v1.8h-5v12.9h-2.1v-12.9Z"/>
    </g>
    <g class="cls-12">
      <path class="cls-11" d="M230.8,910.7h-9c.3,2,1.8,3.3,4,3.3s2.4-.4,3.2-1.3l1.1,1.3c-1,1.2-2.5,1.8-4.4,1.8-3.6,0-6-2.4-6-5.7s2.4-5.7,5.6-5.7,5.5,2.3,5.5,5.7,0,.4,0,.6ZM221.7,909.2h7.1c-.2-1.9-1.6-3.2-3.6-3.2s-3.4,1.3-3.6,3.2Z"/>
      <path class="cls-11" d="M239.9,914.9c-.6.5-1.5.8-2.4.8-2.2,0-3.5-1.2-3.5-3.5v-6.1h-1.9v-1.7h1.9v-2.4h2v2.4h3.2v1.7h-3.2v6c0,1.2.6,1.9,1.7,1.9s1.2-.2,1.6-.5l.6,1.4Z"/>
    </g>
    <g class="cls-12">
      <path class="cls-11" d="M248.3,904.4v2c-.2,0-.3,0-.5,0-2.2,0-3.5,1.3-3.5,3.8v5.5h-2v-11.1h1.9v1.9c.7-1.3,2.1-2,4.1-2Z"/>
    </g>
    <g class="cls-12">
      <path class="cls-11" d="M259.6,908.9v6.7h-1.9v-1.5c-.7,1-1.9,1.6-3.7,1.6-2.5,0-4.1-1.3-4.1-3.3s1.2-3.3,4.5-3.3h3.2v-.4c0-1.7-1-2.7-3-2.7s-2.7.5-3.5,1.2l-.8-1.5c1.2-.9,2.8-1.4,4.6-1.4,3,0,4.8,1.5,4.8,4.5ZM257.6,912.2v-1.6h-3.1c-2,0-2.6.8-2.6,1.7s.9,1.8,2.5,1.8,2.7-.7,3.2-2Z"/>
      <path class="cls-11" d="M274.8,910c0,3.4-2.4,5.7-5.6,5.7s-3-.6-3.9-1.8v5.8h-2v-15.2h1.9v1.8c.9-1.2,2.3-1.9,4-1.9,3.3,0,5.6,2.3,5.6,5.7ZM272.8,910c0-2.4-1.6-3.9-3.8-3.9s-3.7,1.6-3.7,3.9,1.6,3.9,3.7,3.9,3.8-1.6,3.8-3.9Z"/>
      <path class="cls-11" d="M276.6,910c0-3.3,2.5-5.7,5.8-5.7s5.8,2.4,5.8,5.7-2.4,5.7-5.8,5.7-5.8-2.4-5.8-5.7ZM286.1,910c0-2.4-1.6-3.9-3.7-3.9s-3.8,1.5-3.8,3.9,1.6,3.9,3.8,3.9,3.7-1.6,3.7-3.9Z"/>
      <path class="cls-11" d="M301.5,900v15.6h-1.9v-1.8c-.9,1.3-2.3,1.9-4,1.9-3.3,0-5.6-2.3-5.6-5.7s2.4-5.7,5.6-5.7,3,.6,3.9,1.8v-6.1h2ZM299.5,910c0-2.4-1.6-3.9-3.7-3.9s-3.8,1.5-3.8,3.9,1.6,3.9,3.8,3.9,3.7-1.6,3.7-3.9Z"/>
      <path class="cls-11" d="M314.1,908.9v6.7h-1.9v-1.5c-.7,1-1.9,1.6-3.7,1.6-2.5,0-4.1-1.3-4.1-3.3s1.2-3.3,4.5-3.3h3.2v-.4c0-1.7-1-2.7-3-2.7s-2.7.5-3.5,1.2l-.8-1.5c1.2-.9,2.8-1.4,4.6-1.4,3,0,4.8,1.5,4.8,4.5ZM312.1,912.2v-1.6h-3.1c-2,0-2.6.8-2.6,1.7s.9,1.8,2.5,1.8,2.7-.7,3.2-2Z"/>
    </g>
  </g>
  <g class="cls-12">
    <g class="cls-12">
      <path class="cls-11" d="M412.9,823.5l-3.2-4.5c-.3,0-.6,0-.9,0h-3.6v4.5h-2.1v-14.7h5.7c3.8,0,6.1,1.9,6.1,5.1s-1.2,3.9-3.2,4.6l3.5,4.9h-2.3ZM412.9,813.9c0-2.1-1.4-3.3-4.1-3.3h-3.6v6.6h3.6c2.7,0,4.1-1.2,4.1-3.3Z"/>
      <path class="cls-11" d="M428.1,818.6h-9c.3,2,1.8,3.3,4,3.3s2.4-.4,3.2-1.3l1.1,1.3c-1,1.2-2.5,1.8-4.4,1.8-3.6,0-6-2.4-6-5.7s2.4-5.7,5.6-5.7,5.5,2.3,5.5,5.7,0,.4,0,.6ZM419.1,817.1h7.1c-.2-1.9-1.6-3.2-3.6-3.2s-3.4,1.3-3.6,3.2Z"/>
      <path class="cls-11" d="M429.5,822.3l.8-1.6c.9.7,2.5,1.2,3.9,1.2s2.6-.6,2.6-1.5c0-2.5-7-.3-7-4.8s1.8-3.3,4.6-3.3,3.1.4,4.1,1l-.9,1.6c-1-.7-2.1-.9-3.2-.9-1.8,0-2.6.7-2.6,1.5,0,2.6,7.1.5,7.1,4.8s-1.8,3.3-4.8,3.3-3.7-.6-4.6-1.3Z"/>
      <path class="cls-11" d="M453,817.9c0,3.4-2.4,5.7-5.6,5.7s-3-.6-3.9-1.8v5.8h-2v-15.2h1.9v1.8c.9-1.2,2.3-1.9,4-1.9,3.3,0,5.6,2.3,5.6,5.7ZM450.9,817.9c0-2.4-1.6-3.9-3.8-3.9s-3.7,1.6-3.7,3.9,1.6,3.9,3.7,3.9,3.8-1.6,3.8-3.9Z"/>
      <path class="cls-11" d="M455.4,808.9c0-.7.6-1.3,1.4-1.3s1.4.6,1.4,1.3-.6,1.3-1.4,1.3-1.4-.6-1.4-1.3ZM455.8,812.3h2v11.1h-2v-11.1Z"/>
    </g>
    <g class="cls-12">
      <path class="cls-11" d="M467.6,812.2v2c-.2,0-.3,0-.5,0-2.2,0-3.5,1.3-3.5,3.8v5.5h-2v-11.1h1.9v1.9c.7-1.3,2.1-2,4.1-2Z"/>
    </g>
    <g class="cls-12">
      <path class="cls-11" d="M478.9,816.7v6.7h-1.9v-1.5c-.7,1-1.9,1.6-3.7,1.6-2.5,0-4.1-1.3-4.1-3.3s1.2-3.3,4.5-3.3h3.2v-.4c0-1.7-1-2.7-3-2.7s-2.7.5-3.5,1.2l-.8-1.5c1.2-.9,2.8-1.4,4.6-1.4,3,0,4.8,1.5,4.8,4.5ZM476.9,820.1v-1.6h-3.1c-2,0-2.6.8-2.6,1.7s.9,1.8,2.5,1.8,2.7-.7,3.2-2Z"/>
    </g>
    <g class="cls-12">
      <path class="cls-11" d="M490.5,820.2l1.5,1c-.9,1.6-2.5,2.4-4.5,2.4l-.3.9c1.2.1,1.8.8,1.8,1.7s-1,1.9-2.6,1.9-1.3-.1-1.9-.5l.4-1c.4.3.9.4,1.4.4.8,0,1.2-.3,1.2-.8s-.4-.8-1.2-.8h-.6l.5-1.9c-2.8-.5-4.8-2.6-4.8-5.6s2.5-5.7,5.9-5.7,3.7.8,4.5,2.4l-1.5,1c-.7-1.1-1.8-1.6-3-1.6-2.2,0-3.8,1.5-3.8,3.9s1.6,3.9,3.8,3.9,2.3-.5,3-1.6Z"/>
    </g>
    <g class="cls-12">
      <path class="cls-11" d="M503.5,816.7v6.7h-1.9v-1.5c-.7,1-1.9,1.6-3.7,1.6-2.5,0-4.1-1.3-4.1-3.3s1.2-3.3,4.5-3.3h3.2v-.4c0-1.7-1-2.7-3-2.7s-2.7.5-3.5,1.2l-.8-1.5c1.2-.9,2.8-1.4,4.6-1.4,3,0,4.8,1.5,4.8,4.5ZM496.5,810.5h-1.1c0-1.6.8-2.6,2.1-2.6s2,1.4,2.8,1.4,1-.5,1.1-1.3h1.1c0,1.5-.8,2.5-2.1,2.5s-2-1.4-2.8-1.4-1,.5-1.1,1.3ZM501.5,820.1v-1.6h-3.1c-2,0-2.6.8-2.6,1.7s.9,1.8,2.5,1.8,2.7-.7,3.2-2Z"/>
    </g>
    <g class="cls-12">
      <path class="cls-11" d="M506.3,817.9c0-3.3,2.5-5.7,5.8-5.7s5.8,2.4,5.8,5.7-2.4,5.7-5.8,5.7-5.8-2.4-5.8-5.7ZM515.8,817.9c0-2.4-1.6-3.9-3.7-3.9s-3.8,1.5-3.8,3.9,1.6,3.9,3.8,3.9,3.7-1.6,3.7-3.9Z"/>
    </g>
    <g class="cls-12">
      <path class="cls-11" d="M412.7,843.1c0,3.4-2.4,5.7-5.6,5.7s-3.1-.6-4-1.9v1.8h-1.9v-15.6h2v6.1c.9-1.2,2.3-1.8,3.9-1.8,3.3,0,5.6,2.3,5.6,5.7ZM410.7,843.1c0-2.4-1.6-3.9-3.8-3.9s-3.7,1.5-3.7,3.9,1.6,3.9,3.7,3.9,3.8-1.6,3.8-3.9Z"/>
    </g>
    <g class="cls-12">
      <path class="cls-11" d="M421.5,837.4v2c-.2,0-.3,0-.5,0-2.2,0-3.5,1.3-3.5,3.8v5.5h-2v-11.1h1.9v1.9c.7-1.3,2.1-2,4.1-2Z"/>
    </g>
    <g class="cls-12">
      <path class="cls-11" d="M432.8,841.9v6.7h-1.9v-1.5c-.7,1-1.9,1.6-3.7,1.6-2.5,0-4.1-1.3-4.1-3.3s1.2-3.3,4.5-3.3h3.2v-.4c0-1.7-1-2.7-3-2.7s-2.7.5-3.5,1.2l-.8-1.5c1.2-.9,2.8-1.4,4.6-1.4,3,0,4.8,1.5,4.8,4.5ZM430.8,845.3v-1.6h-3.1c-2,0-2.6.8-2.6,1.7s.9,1.8,2.5,1.8,2.7-.7,3.2-2Z"/>
    </g>
    <g class="cls-12">
      <path class="cls-11" d="M447.1,842.3v6.4h-2v-6.2c0-2.2-1.1-3.3-3-3.3s-3.5,1.3-3.5,3.7v5.7h-2v-11.1h1.9v1.7c.8-1.1,2.2-1.8,4-1.8,2.7,0,4.6,1.6,4.6,4.8Z"/>
    </g>
    <g class="cls-12">
      <path class="cls-11" d="M461.4,837.5v15.2h-2v-5.8c-.9,1.2-2.3,1.8-3.9,1.8-3.3,0-5.6-2.3-5.6-5.7s2.4-5.7,5.6-5.7,3.1.6,4,1.9v-1.8h1.9ZM459.4,843.1c0-2.4-1.6-3.9-3.7-3.9s-3.8,1.6-3.8,3.9,1.6,3.9,3.8,3.9,3.7-1.6,3.7-3.9Z"/>
      <path class="cls-11" d="M475.6,837.5v11.1h-1.9v-1.7c-.8,1.2-2.2,1.8-3.8,1.8-2.9,0-4.8-1.6-4.8-4.9v-6.4h2v6.2c0,2.2,1.1,3.3,3,3.3s3.4-1.3,3.4-3.7v-5.8h2Z"/>
      <path class="cls-11" d="M479.1,834.1c0-.7.6-1.3,1.4-1.3s1.4.6,1.4,1.3-.6,1.3-1.4,1.3-1.4-.6-1.4-1.3ZM479.4,837.5h2v11.1h-2v-11.1Z"/>
      <path class="cls-11" d="M494.1,841.9v6.7h-1.9v-1.5c-.7,1-1.9,1.6-3.7,1.6-2.5,0-4.1-1.3-4.1-3.3s1.2-3.3,4.5-3.3h3.2v-.4c0-1.7-1-2.7-3-2.7s-2.7.5-3.5,1.2l-.8-1.5c1.2-.9,2.8-1.4,4.6-1.4,3,0,4.8,1.5,4.8,4.5ZM492.1,845.3v-1.6h-3.1c-2,0-2.6.8-2.6,1.7s.9,1.8,2.5,1.8,2.7-.7,3.2-2Z"/>
      <path class="cls-11" d="M497.9,833.1h2v15.6h-2v-15.6Z"/>
      <path class="cls-11" d="M519.4,843.8h-9c.3,2,1.8,3.3,4,3.3s2.4-.4,3.2-1.3l1.1,1.3c-1,1.2-2.5,1.8-4.4,1.8-3.6,0-6-2.4-6-5.7s2.4-5.7,5.6-5.7,5.5,2.3,5.5,5.7,0,.4,0,.6ZM510.4,842.3h7.1c-.2-1.9-1.6-3.2-3.6-3.2s-3.4,1.3-3.6,3.2Z"/>
    </g>
    <g class="cls-12">
      <path class="cls-11" d="M408,868.3c0-3.3,2.5-5.7,5.9-5.7s3.7.8,4.5,2.4l-1.5,1c-.7-1.1-1.8-1.6-3-1.6-2.2,0-3.8,1.5-3.8,3.9s1.6,3.9,3.8,3.9,2.3-.5,3-1.6l1.5,1c-.9,1.6-2.5,2.4-4.5,2.4-3.4,0-5.9-2.4-5.9-5.7Z"/>
      <path class="cls-11" d="M431.4,862.7v11.1h-1.9v-1.7c-.8,1.2-2.2,1.8-3.8,1.8-2.9,0-4.8-1.6-4.8-4.9v-6.4h2v6.2c0,2.2,1.1,3.3,3,3.3s3.4-1.3,3.4-3.7v-5.8h2Z"/>
      <path class="cls-11" d="M441.5,873.2c-.6.5-1.5.8-2.4.8-2.2,0-3.5-1.2-3.5-3.5v-6.1h-1.9v-1.7h1.9v-2.4h2v2.4h3.2v1.7h-3.2v6c0,1.2.6,1.9,1.7,1.9s1.2-.2,1.6-.5l.6,1.4Z"/>
      <path class="cls-11" d="M452.7,867.1v6.7h-1.9v-1.5c-.7,1-1.9,1.6-3.7,1.6-2.5,0-4.1-1.3-4.1-3.3s1.2-3.3,4.5-3.3h3.2v-.4c0-1.7-1-2.7-3-2.7s-2.7.5-3.5,1.2l-.8-1.5c1.2-.9,2.8-1.4,4.6-1.4,3,0,4.8,1.5,4.8,4.5ZM446.2,861.1h-1.8l2.8-2.7h1.9l2.8,2.7h-1.8l-1.9-1.6-1.9,1.6ZM450.7,870.5v-1.6h-3.1c-2,0-2.6.8-2.6,1.7s.9,1.8,2.5,1.8,2.7-.7,3.2-2Z"/>
    </g>
    <g class="cls-12">
      <path class="cls-11" d="M467,867.5v6.4h-2v-6.2c0-2.2-1.1-3.3-3-3.3s-3.5,1.3-3.5,3.7v5.7h-2v-11.1h1.9v1.7c.8-1.1,2.2-1.8,4-1.8,2.7,0,4.6,1.6,4.6,4.8Z"/>
    </g>
    <g class="cls-12">
      <path class="cls-11" d="M480.8,869h-9c.3,2,1.8,3.3,4,3.3s2.4-.4,3.2-1.3l1.1,1.3c-1,1.2-2.5,1.8-4.4,1.8-3.6,0-6-2.4-6-5.7s2.4-5.7,5.6-5.7,5.5,2.3,5.5,5.7,0,.4,0,.6ZM471.8,867.5h7.1c-.2-1.9-1.6-3.2-3.6-3.2s-3.4,1.3-3.6,3.2Z"/>
    </g>
    <g class="cls-12">
      <path class="cls-11" d="M492.2,867.1v6.7h-1.9v-1.5c-.7,1-1.9,1.6-3.7,1.6-2.5,0-4.1-1.3-4.1-3.3s1.2-3.3,4.5-3.3h3.2v-.4c0-1.7-1-2.7-3-2.7s-2.7.5-3.5,1.2l-.8-1.5c1.2-.9,2.8-1.4,4.6-1.4,3,0,4.8,1.5,4.8,4.5ZM490.2,870.5v-1.6h-3.1c-2,0-2.6.8-2.6,1.7s.9,1.8,2.5,1.8,2.7-.7,3.2-2Z"/>
      <path class="cls-11" d="M511.6,869h-9c.3,2,1.8,3.3,4,3.3s2.4-.4,3.2-1.3l1.1,1.3c-1,1.2-2.5,1.8-4.4,1.8-3.6,0-6-2.4-6-5.7s2.4-5.7,5.6-5.7,5.5,2.3,5.5,5.7,0,.4,0,.6ZM502.6,867.5h7.1c-.2-1.9-1.6-3.2-3.6-3.2s-3.4,1.3-3.6,3.2Z"/>
    </g>
    <g class="cls-12">
      <path class="cls-11" d="M388.9,893.5c0,3.4-2.4,5.7-5.6,5.7s-3.1-.6-4-1.9v1.8h-1.9v-15.6h2v6.1c.9-1.2,2.3-1.8,3.9-1.8,3.3,0,5.6,2.3,5.6,5.7ZM386.9,893.5c0-2.4-1.6-3.9-3.8-3.9s-3.7,1.5-3.7,3.9,1.6,3.9,3.7,3.9,3.8-1.6,3.8-3.9Z"/>
      <path class="cls-11" d="M402.1,887.9v11.1h-1.9v-1.7c-.8,1.2-2.2,1.8-3.8,1.8-2.9,0-4.8-1.6-4.8-4.9v-6.4h2v6.2c0,2.2,1.1,3.3,3,3.3s3.4-1.3,3.4-3.7v-5.8h2Z"/>
    </g>
    <g class="cls-12">
      <path class="cls-11" d="M404.9,893.5c0-3.3,2.5-5.7,5.9-5.7s3.7.8,4.5,2.4l-1.5,1c-.7-1.1-1.8-1.6-3-1.6-2.2,0-3.8,1.5-3.8,3.9s1.6,3.9,3.8,3.9,2.3-.5,3-1.6l1.5,1c-.9,1.6-2.5,2.4-4.5,2.4-3.4,0-5.9-2.4-5.9-5.7Z"/>
    </g>
    <g class="cls-12">
      <path class="cls-11" d="M416.8,893.5c0-3.3,2.5-5.7,5.8-5.7s5.8,2.4,5.8,5.7-2.4,5.7-5.8,5.7-5.8-2.4-5.8-5.7ZM426.3,893.5c0-2.4-1.6-3.9-3.7-3.9s-3.8,1.5-3.8,3.9,1.6,3.9,3.8,3.9,3.7-1.6,3.7-3.9Z"/>
    </g>
    <g class="cls-12">
      <path class="cls-11" d="M433.4,887v1h3.2v1.7h-3.2v9.5h-2v-9.5h-1.9v-1.7h1.9v-1c0-2.2,1.3-3.6,3.7-3.6s1.7.2,2.3.7l-.6,1.5c-.4-.3-1-.5-1.6-.5-1.2,0-1.8.7-1.8,2Z"/>
    </g>
    <g class="cls-12">
      <path class="cls-11" d="M447.1,892.3v6.7h-1.9v-1.5c-.7,1-1.9,1.6-3.7,1.6-2.5,0-4.1-1.3-4.1-3.3s1.2-3.3,4.5-3.3h3.2v-.4c0-1.7-1-2.7-3-2.7s-2.7.5-3.5,1.2l-.8-1.5c1.2-.9,2.8-1.4,4.6-1.4,3,0,4.8,1.5,4.8,4.5ZM445.1,895.7v-1.6h-3.1c-2,0-2.6.8-2.6,1.7s.9,1.8,2.5,1.8,2.7-.7,3.2-2Z"/>
    </g>
    <g class="cls-12">
      <path class="cls-11" d="M456.9,887.8v2c-.2,0-.3,0-.5,0-2.2,0-3.5,1.3-3.5,3.8v5.5h-2v-11.1h1.9v1.9c.7-1.3,2.1-2,4.1-2Z"/>
    </g>
    <g class="cls-12">
      <path class="cls-11" d="M459,884.5c0-.7.6-1.3,1.4-1.3s1.4.6,1.4,1.3-.6,1.3-1.4,1.3-1.4-.6-1.4-1.3ZM459.3,887.9h2v11.1h-2v-11.1Z"/>
    </g>
    <g class="cls-12">
      <path class="cls-11" d="M475.8,892.7v6.4h-2v-6.2c0-2.2-1.1-3.3-3-3.3s-3.5,1.3-3.5,3.7v5.7h-2v-11.1h1.9v1.7c.8-1.1,2.2-1.8,4-1.8,2.7,0,4.6,1.6,4.6,4.8Z"/>
    </g>
    <g class="cls-12">
      <path class="cls-11" d="M490.2,887.9v9.6c0,3.9-2,5.7-5.8,5.7s-4.1-.6-5.3-1.7l1-1.6c1,.9,2.6,1.4,4.3,1.4,2.6,0,3.8-1.2,3.8-3.7v-.9c-1,1.2-2.4,1.7-4,1.7-3.2,0-5.6-2.2-5.6-5.4s2.4-5.4,5.6-5.4,3.2.6,4.1,1.8v-1.7h1.9ZM488.2,893.2c0-2.2-1.6-3.6-3.8-3.6s-3.8,1.4-3.8,3.6,1.6,3.6,3.8,3.6,3.8-1.5,3.8-3.6Z"/>
    </g>
    <g class="cls-12">
      <path class="cls-11" d="M504.1,894.2h-9c.3,2,1.8,3.3,4,3.3s2.4-.4,3.2-1.3l1.1,1.3c-1,1.2-2.5,1.8-4.4,1.8-3.6,0-6-2.4-6-5.7s2.4-5.7,5.6-5.7,5.5,2.3,5.5,5.7,0,.4,0,.6ZM495,892.7h7.1c-.2-1.9-1.6-3.2-3.6-3.2s-3.4,1.3-3.6,3.2Z"/>
    </g>
    <g class="cls-12">
      <path class="cls-11" d="M515.4,892.3v6.7h-1.9v-1.5c-.7,1-1.9,1.6-3.7,1.6-2.5,0-4.1-1.3-4.1-3.3s1.2-3.3,4.5-3.3h3.2v-.4c0-1.7-1-2.7-3-2.7s-2.7.5-3.5,1.2l-.8-1.5c1.2-.9,2.8-1.4,4.6-1.4,3,0,4.8,1.5,4.8,4.5ZM513.4,895.7v-1.6h-3.1c-2,0-2.6.8-2.6,1.7s.9,1.8,2.5,1.8,2.7-.7,3.2-2Z"/>
      <path class="cls-11" d="M529.7,892.7v6.4h-2v-6.2c0-2.2-1.1-3.3-3-3.3s-3.5,1.3-3.5,3.7v5.7h-2v-11.1h1.9v1.7c.8-1.1,2.2-1.8,4-1.8,2.7,0,4.6,1.6,4.6,4.8Z"/>
      <path class="cls-11" d="M542.3,892.3v6.7h-1.9v-1.5c-.7,1-1.9,1.6-3.7,1.6-2.5,0-4.1-1.3-4.1-3.3s1.2-3.3,4.5-3.3h3.2v-.4c0-1.7-1-2.7-3-2.7s-2.7.5-3.5,1.2l-.8-1.5c1.2-.9,2.8-1.4,4.6-1.4,3,0,4.8,1.5,4.8,4.5ZM540.3,895.7v-1.6h-3.1c-2,0-2.6.8-2.6,1.7s.9,1.8,2.5,1.8,2.7-.7,3.2-2Z"/>
    </g>
  </g>
  <g class="cls-12">
    <g class="cls-12">
      <path class="cls-11" d="M626.4,816.1c0-4.3,3.3-7.5,7.8-7.5s7.8,3.2,7.8,7.5-3.3,7.5-7.8,7.5-7.8-3.2-7.8-7.5ZM639.9,816.1c0-3.3-2.4-5.6-5.7-5.6s-5.7,2.4-5.7,5.6,2.4,5.6,5.7,5.6,5.7-2.4,5.7-5.6Z"/>
    </g>
    <g class="cls-12">
      <path class="cls-11" d="M654.8,812.3l-4.9,11.1h-2.1l-4.9-11.1h2.1l3.8,8.9,3.9-8.9h2Z"/>
    </g>
    <g class="cls-12">
      <path class="cls-11" d="M655.4,817.9c0-3.3,2.5-5.7,5.8-5.7s5.8,2.4,5.8,5.7-2.4,5.7-5.8,5.7-5.8-2.4-5.8-5.7ZM664.9,817.9c0-2.4-1.6-3.9-3.7-3.9s-3.8,1.5-3.8,3.9,1.6,3.9,3.8,3.9,3.7-1.6,3.7-3.9Z"/>
    </g>
    <g class="cls-12">
      <path class="cls-11" d="M603.4,841.9v6.7h-1.9v-1.5c-.7,1-1.9,1.6-3.7,1.6-2.5,0-4.1-1.3-4.1-3.3s1.2-3.3,4.5-3.3h3.2v-.4c0-1.7-1-2.7-3-2.7s-2.7.5-3.5,1.2l-.8-1.5c1.2-.9,2.8-1.4,4.6-1.4,3,0,4.8,1.5,4.8,4.5ZM601.3,845.3v-1.6h-3.1c-2,0-2.6.8-2.6,1.7s.9,1.8,2.5,1.8,2.7-.7,3.2-2Z"/>
      <path class="cls-11" d="M625.6,842.3v6.4h-2v-6.2c0-2.2-1-3.3-2.9-3.3s-3.3,1.3-3.3,3.7v5.7h-2v-6.2c0-2.2-1-3.3-2.9-3.3s-3.3,1.3-3.3,3.7v5.7h-2v-11.1h1.9v1.7c.8-1.1,2.2-1.8,3.8-1.8s3.1.7,3.9,2.1c.8-1.3,2.4-2.1,4.3-2.1,2.7,0,4.6,1.6,4.6,4.8Z"/>
      <path class="cls-11" d="M639.9,842.3v6.4h-2v-6.2c0-2.2-1.1-3.3-3-3.3s-3.5,1.3-3.5,3.7v5.7h-2v-11.1h1.9v1.7c.8-1.1,2.2-1.8,4-1.8,2.7,0,4.6,1.6,4.6,4.8Z"/>
      <path class="cls-11" d="M643.2,834.1c0-.7.6-1.3,1.4-1.3s1.4.6,1.4,1.3-.6,1.3-1.4,1.3-1.4-.6-1.4-1.3ZM643.6,837.5h2v11.1h-2v-11.1Z"/>
      <path class="cls-11" d="M648.4,843.1c0-3.3,2.5-5.7,5.8-5.7s5.8,2.4,5.8,5.7-2.4,5.7-5.8,5.7-5.8-2.4-5.8-5.7ZM658,843.1c0-2.4-1.6-3.9-3.7-3.9s-3.8,1.5-3.8,3.9,1.6,3.9,3.8,3.9,3.7-1.6,3.7-3.9ZM655.5,833.2h2.6l-3.5,2.7h-1.9l2.9-2.7Z"/>
      <path class="cls-11" d="M669,848c-.6.5-1.5.8-2.4.8-2.2,0-3.5-1.2-3.5-3.5v-6.1h-1.9v-1.7h1.9v-2.4h2v2.4h3.2v1.7h-3.2v6c0,1.2.6,1.9,1.7,1.9s1.2-.2,1.6-.5l.6,1.4Z"/>
      <path class="cls-11" d="M671.1,834.1c0-.7.6-1.3,1.4-1.3s1.4.6,1.4,1.3-.6,1.3-1.4,1.3-1.4-.6-1.4-1.3ZM671.5,837.5h2v11.1h-2v-11.1Z"/>
    </g>
    <g class="cls-12">
      <path class="cls-11" d="M676.3,843.1c0-3.3,2.5-5.7,5.9-5.7s3.7.8,4.5,2.4l-1.5,1c-.7-1.1-1.8-1.6-3-1.6-2.2,0-3.8,1.5-3.8,3.9s1.6,3.9,3.8,3.9,2.3-.5,3-1.6l1.5,1c-.9,1.6-2.5,2.4-4.5,2.4-3.4,0-5.9-2.4-5.9-5.7Z"/>
    </g>
    <g class="cls-12">
      <path class="cls-11" d="M688.1,843.1c0-3.3,2.5-5.7,5.8-5.7s5.8,2.4,5.8,5.7-2.4,5.7-5.8,5.7-5.8-2.4-5.8-5.7ZM697.7,843.1c0-2.4-1.6-3.9-3.7-3.9s-3.8,1.5-3.8,3.9,1.6,3.9,3.8,3.9,3.7-1.6,3.7-3.9Z"/>
    </g>
  </g>
  <g class="cls-12">
    <g class="cls-12">
      <path class="cls-11" d="M784.6,816h2v5.7c-1.5,1.2-3.5,1.9-5.6,1.9-4.5,0-7.8-3.2-7.8-7.5s3.3-7.5,7.9-7.5,4.3.8,5.6,2.3l-1.3,1.3c-1.2-1.2-2.6-1.7-4.3-1.7-3.4,0-5.9,2.4-5.9,5.6s2.5,5.6,5.8,5.6,2.4-.3,3.4-.9v-4.8Z"/>
      <path class="cls-11" d="M790.4,807.9h2v15.6h-2v-15.6Z"/>
      <path class="cls-11" d="M805,816.7v6.7h-1.9v-1.5c-.7,1-1.9,1.6-3.7,1.6-2.5,0-4.1-1.3-4.1-3.3s1.2-3.3,4.5-3.3h3.2v-.4c0-1.7-1-2.7-3-2.7s-2.7.5-3.5,1.2l-.8-1.5c1.2-.9,2.8-1.4,4.6-1.4,3,0,4.8,1.5,4.8,4.5ZM798.5,810.7h-1.8l2.8-2.7h1.9l2.8,2.7h-1.8l-1.9-1.6-1.9,1.6ZM803,820.1v-1.6h-3.1c-2,0-2.6.8-2.6,1.7s.9,1.8,2.5,1.8,2.7-.7,3.2-2Z"/>
    </g>
    <g class="cls-12">
      <path class="cls-11" d="M819.3,817.1v6.4h-2v-6.2c0-2.2-1.1-3.3-3-3.3s-3.5,1.3-3.5,3.7v5.7h-2v-11.1h1.9v1.7c.8-1.1,2.2-1.8,4-1.8,2.7,0,4.6,1.6,4.6,4.8Z"/>
    </g>
    <g class="cls-12">
      <path class="cls-11" d="M833.6,807.9v15.6h-1.9v-1.8c-.9,1.3-2.3,1.9-4,1.9-3.3,0-5.6-2.3-5.6-5.7s2.4-5.7,5.6-5.7,3,.6,3.9,1.8v-6.1h2ZM831.6,817.9c0-2.4-1.6-3.9-3.7-3.9s-3.8,1.5-3.8,3.9,1.6,3.9,3.8,3.9,3.7-1.6,3.7-3.9Z"/>
      <path class="cls-11" d="M847.8,812.3v11.1h-1.9v-1.7c-.8,1.2-2.2,1.8-3.8,1.8-2.9,0-4.8-1.6-4.8-4.9v-6.4h2v6.2c0,2.2,1.1,3.3,3,3.3s3.4-1.3,3.4-3.7v-5.8h2Z"/>
      <path class="cls-11" d="M851.7,807.9h2v15.6h-2v-15.6Z"/>
      <path class="cls-11" d="M866.4,816.7v6.7h-1.9v-1.5c-.7,1-1.9,1.6-3.7,1.6-2.5,0-4.1-1.3-4.1-3.3s1.2-3.3,4.5-3.3h3.2v-.4c0-1.7-1-2.7-3-2.7s-2.7.5-3.5,1.2l-.8-1.5c1.2-.9,2.8-1.4,4.6-1.4,3,0,4.8,1.5,4.8,4.5ZM864.3,820.1v-1.6h-3.1c-2,0-2.6.8-2.6,1.7s.9,1.8,2.5,1.8,2.7-.7,3.2-2Z"/>
      <path class="cls-11" d="M868.7,822.3l.8-1.6c.9.7,2.5,1.2,3.9,1.2s2.6-.6,2.6-1.5c0-2.5-7-.3-7-4.8s1.8-3.3,4.6-3.3,3.1.4,4.1,1l-.9,1.6c-1-.7-2.1-.9-3.2-.9-1.8,0-2.6.7-2.6,1.5,0,2.6,7.1.5,7.1,4.8s-1.8,3.3-4.8,3.3-3.7-.6-4.6-1.3Z"/>
    </g>
    <g class="cls-12">
      <path class="cls-11" d="M792.4,842.3v6.4h-2v-6.2c0-2.2-1-3.3-2.9-3.3s-3.3,1.3-3.3,3.7v5.7h-2v-6.2c0-2.2-1-3.3-2.9-3.3s-3.3,1.3-3.3,3.7v5.7h-2v-11.1h1.9v1.7c.8-1.1,2.2-1.8,3.8-1.8s3.1.7,3.9,2.1c.8-1.3,2.4-2.1,4.3-2.1,2.7,0,4.6,1.6,4.6,4.8Z"/>
      <path class="cls-11" d="M804.9,841.9v6.7h-1.9v-1.5c-.7,1-1.9,1.6-3.7,1.6-2.5,0-4.1-1.3-4.1-3.3s1.2-3.3,4.5-3.3h3.2v-.4c0-1.7-1-2.7-3-2.7s-2.7.5-3.5,1.2l-.8-1.5c1.2-.9,2.8-1.4,4.6-1.4,3,0,4.8,1.5,4.8,4.5ZM802.9,845.3v-1.6h-3.1c-2,0-2.6.8-2.6,1.7s.9,1.8,2.5,1.8,2.7-.7,3.2-2Z"/>
      <path class="cls-11" d="M827.2,842.3v6.4h-2v-6.2c0-2.2-1-3.3-2.9-3.3s-3.3,1.3-3.3,3.7v5.7h-2v-6.2c0-2.2-1-3.3-2.9-3.3s-3.3,1.3-3.3,3.7v5.7h-2v-11.1h1.9v1.7c.8-1.1,2.2-1.8,3.8-1.8s3.1.7,3.9,2.1c.8-1.3,2.4-2.1,4.3-2.1,2.7,0,4.6,1.6,4.6,4.8Z"/>
      <path class="cls-11" d="M839.7,841.9v6.7h-1.9v-1.5c-.7,1-1.9,1.6-3.7,1.6-2.5,0-4.1-1.3-4.1-3.3s1.2-3.3,4.5-3.3h3.2v-.4c0-1.7-1-2.7-3-2.7s-2.7.5-3.5,1.2l-.8-1.5c1.2-.9,2.8-1.4,4.6-1.4,3,0,4.8,1.5,4.8,4.5ZM837.7,845.3v-1.6h-3.1c-2,0-2.6.8-2.6,1.7s.9,1.8,2.5,1.8,2.7-.7,3.2-2ZM835.4,835.9h-1.9l2.9-2.7h2.6l-3.5,2.7Z"/>
    </g>
    <g class="cls-12">
      <path class="cls-11" d="M849.4,837.4v2c-.2,0-.3,0-.5,0-2.2,0-3.5,1.3-3.5,3.8v5.5h-2v-11.1h1.9v1.9c.7-1.3,2.1-2,4.1-2Z"/>
    </g>
    <g class="cls-12">
      <path class="cls-11" d="M851.5,834.1c0-.7.6-1.3,1.4-1.3s1.4.6,1.4,1.3-.6,1.3-1.4,1.3-1.4-.6-1.4-1.3ZM851.9,837.5h2v11.1h-2v-11.1Z"/>
      <path class="cls-11" d="M866.6,841.9v6.7h-1.9v-1.5c-.7,1-1.9,1.6-3.7,1.6-2.5,0-4.1-1.3-4.1-3.3s1.2-3.3,4.5-3.3h3.2v-.4c0-1.7-1-2.7-3-2.7s-2.7.5-3.5,1.2l-.8-1.5c1.2-.9,2.8-1.4,4.6-1.4,3,0,4.8,1.5,4.8,4.5ZM864.6,845.3v-1.6h-3.1c-2,0-2.6.8-2.6,1.7s.9,1.8,2.5,1.8,2.7-.7,3.2-2Z"/>
      <path class="cls-11" d="M868.9,847.5l.8-1.6c.9.7,2.5,1.2,3.9,1.2s2.6-.6,2.6-1.5c0-2.5-7-.3-7-4.8s1.8-3.3,4.6-3.3,3.1.4,4.1,1l-.9,1.6c-1-.7-2.1-.9-3.2-.9-1.8,0-2.6.7-2.6,1.5,0,2.6,7.1.5,7.1,4.8s-1.8,3.3-4.8,3.3-3.7-.6-4.6-1.3Z"/>
    </g>
  </g>
  <g class="cls-12">
    <g class="cls-12">
      <path class="cls-11" d="M976.6,819.8h-7.8l-1.6,3.7h-2.2l6.7-14.7h2.1l6.7,14.7h-2.2l-1.6-3.7ZM975.9,818.1l-3.2-7.2-3.2,7.2h6.3Z"/>
    </g>
    <g class="cls-12">
      <path class="cls-11" d="M992.8,807.9v15.6h-1.9v-1.8c-.9,1.3-2.3,1.9-4,1.9-3.3,0-5.6-2.3-5.6-5.7s2.4-5.7,5.6-5.7,3,.6,3.9,1.8v-6.1h2ZM990.8,817.9c0-2.4-1.6-3.9-3.7-3.9s-3.8,1.5-3.8,3.9,1.6,3.9,3.8,3.9,3.7-1.6,3.7-3.9Z"/>
      <path class="cls-11" d="M1005.4,816.7v6.7h-1.9v-1.5c-.7,1-1.9,1.6-3.7,1.6-2.5,0-4.1-1.3-4.1-3.3s1.2-3.3,4.5-3.3h3.2v-.4c0-1.7-1-2.7-3-2.7s-2.7.5-3.5,1.2l-.8-1.5c1.2-.9,2.8-1.4,4.6-1.4,3,0,4.8,1.5,4.8,4.5ZM1003.4,820.1v-1.6h-3.1c-2,0-2.6.8-2.6,1.7s.9,1.8,2.5,1.8,2.7-.7,3.2-2Z"/>
      <path class="cls-11" d="M1020.7,817.9c0,3.4-2.4,5.7-5.6,5.7s-3-.6-3.9-1.8v5.8h-2v-15.2h1.9v1.8c.9-1.2,2.3-1.9,4-1.9,3.3,0,5.6,2.3,5.6,5.7ZM1018.6,817.9c0-2.4-1.6-3.9-3.8-3.9s-3.7,1.6-3.7,3.9,1.6,3.9,3.7,3.9,3.8-1.6,3.8-3.9Z"/>
      <path class="cls-11" d="M1029.7,822.8c-.6.5-1.5.8-2.4.8-2.2,0-3.5-1.2-3.5-3.5v-6.1h-1.9v-1.7h1.9v-2.4h2v2.4h3.2v1.7h-3.2v6c0,1.2.6,1.9,1.7,1.9s1.2-.2,1.6-.5l.6,1.4Z"/>
    </g>
    <g class="cls-12">
      <path class="cls-11" d="M1041,816.7v6.7h-1.9v-1.5c-.7,1-1.9,1.6-3.7,1.6-2.5,0-4.1-1.3-4.1-3.3s1.2-3.3,4.5-3.3h3.2v-.4c0-1.7-1-2.7-3-2.7s-2.7.5-3.5,1.2l-.8-1.5c1.2-.9,2.8-1.4,4.6-1.4,3,0,4.8,1.5,4.8,4.5ZM1039,820.1v-1.6h-3.1c-2,0-2.6.8-2.6,1.7s.9,1.8,2.5,1.8,2.7-.7,3.2-2Z"/>
    </g>
    <g class="cls-12">
      <path class="cls-11" d="M1052.6,820.2l1.5,1c-.9,1.6-2.5,2.4-4.5,2.4l-.3.9c1.2.1,1.8.8,1.8,1.7s-1,1.9-2.6,1.9-1.3-.1-1.9-.5l.4-1c.4.3.9.4,1.4.4.8,0,1.2-.3,1.2-.8s-.4-.8-1.2-.8h-.6l.5-1.9c-2.8-.5-4.8-2.6-4.8-5.6s2.5-5.7,5.9-5.7,3.7.8,4.5,2.4l-1.5,1c-.7-1.1-1.8-1.6-3-1.6-2.2,0-3.8,1.5-3.8,3.9s1.6,3.9,3.8,3.9,2.3-.5,3-1.6Z"/>
    </g>
    <g class="cls-12">
      <path class="cls-11" d="M1065.6,816.7v6.7h-1.9v-1.5c-.7,1-1.9,1.6-3.7,1.6-2.5,0-4.1-1.3-4.1-3.3s1.2-3.3,4.5-3.3h3.2v-.4c0-1.7-1-2.7-3-2.7s-2.7.5-3.5,1.2l-.8-1.5c1.2-.9,2.8-1.4,4.6-1.4,3,0,4.8,1.5,4.8,4.5ZM1058.6,810.5h-1.1c0-1.6.8-2.6,2.1-2.6s2,1.4,2.8,1.4,1-.5,1.1-1.3h1.1c0,1.5-.8,2.5-2.1,2.5s-2-1.4-2.8-1.4-1,.5-1.1,1.3ZM1063.6,820.1v-1.6h-3.1c-2,0-2.6.8-2.6,1.7s.9,1.8,2.5,1.8,2.7-.7,3.2-2Z"/>
    </g>
    <g class="cls-12">
      <path class="cls-11" d="M1068.4,817.9c0-3.3,2.5-5.7,5.8-5.7s5.8,2.4,5.8,5.7-2.4,5.7-5.8,5.7-5.8-2.4-5.8-5.7ZM1077.9,817.9c0-2.4-1.6-3.9-3.7-3.9s-3.8,1.5-3.8,3.9,1.6,3.9,3.8,3.9,3.7-1.6,3.7-3.9Z"/>
    </g>
    <g class="cls-12">
      <path class="cls-11" d="M990.6,843.1c0,3.4-2.4,5.7-5.6,5.7s-3-.6-3.9-1.8v5.8h-2v-15.2h1.9v1.8c.9-1.2,2.3-1.9,4-1.9,3.3,0,5.6,2.3,5.6,5.7ZM988.6,843.1c0-2.4-1.6-3.9-3.8-3.9s-3.7,1.6-3.7,3.9,1.6,3.9,3.7,3.9,3.8-1.6,3.8-3.9Z"/>
    </g>
    <g class="cls-12">
      <path class="cls-11" d="M1002.1,841.9v6.7h-1.9v-1.5c-.7,1-1.9,1.6-3.7,1.6-2.5,0-4.1-1.3-4.1-3.3s1.2-3.3,4.5-3.3h3.2v-.4c0-1.7-1-2.7-3-2.7s-2.7.5-3.5,1.2l-.8-1.5c1.2-.9,2.8-1.4,4.6-1.4,3,0,4.8,1.5,4.8,4.5ZM1000.1,845.3v-1.6h-3.1c-2,0-2.6.8-2.6,1.7s.9,1.8,2.5,1.8,2.7-.7,3.2-2Z"/>
    </g>
    <g class="cls-12">
      <path class="cls-11" d="M1011.9,837.4v2c-.2,0-.3,0-.5,0-2.2,0-3.5,1.3-3.5,3.8v5.5h-2v-11.1h1.9v1.9c.7-1.3,2.1-2,4.1-2Z"/>
    </g>
    <g class="cls-12">
      <path class="cls-11" d="M1023.1,841.9v6.7h-1.9v-1.5c-.7,1-1.9,1.6-3.7,1.6-2.5,0-4.1-1.3-4.1-3.3s1.2-3.3,4.5-3.3h3.2v-.4c0-1.7-1-2.7-3-2.7s-2.7.5-3.5,1.2l-.8-1.5c1.2-.9,2.8-1.4,4.6-1.4,3,0,4.8,1.5,4.8,4.5ZM1021.1,845.3v-1.6h-3.1c-2,0-2.6.8-2.6,1.7s.9,1.8,2.5,1.8,2.7-.7,3.2-2Z"/>
    </g>
    <g class="cls-12">
      <path class="cls-11" d="M1042.4,837.5l-4.9,11.1h-2.1l-4.9-11.1h2.1l3.8,8.9,3.9-8.9h2Z"/>
    </g>
    <g class="cls-12">
      <path class="cls-11" d="M1042.9,843.1c0-3.3,2.5-5.7,5.8-5.7s5.8,2.4,5.8,5.7-2.4,5.7-5.8,5.7-5.8-2.4-5.8-5.7ZM1052.4,843.1c0-2.4-1.6-3.9-3.7-3.9s-3.8,1.5-3.8,3.9,1.6,3.9,3.8,3.9,3.7-1.6,3.7-3.9Z"/>
      <path class="cls-11" d="M1056.2,843.1c0-3.3,2.5-5.7,5.8-5.7s5.8,2.4,5.8,5.7-2.4,5.7-5.8,5.7-5.8-2.4-5.8-5.7ZM1065.8,843.1c0-2.4-1.6-3.9-3.7-3.9s-3.8,1.5-3.8,3.9,1.6,3.9,3.8,3.9,3.7-1.6,3.7-3.9Z"/>
    </g>
  </g>
  <g>
    <ellipse class="cls-1" cx="472.6" cy="426.7" rx="2.4" ry="2.2"/>
    <path class="cls-9" d="M332.3,466.4c.4,1.2,1.8,2.1,1.2,3.6-.5,1.2-2.3,1.1-2.8,2.2-.6,1.2,0,2.8-.3,4.1-.4,1.4-2,1.9-1.9,3.5,0,.9.7,1.3,1,2,.2.6.3,1.6.2,2.3-.2.7-.9,1.2-.7,2,.1.7.8,1,1.3,1.4.4.3.8.5,1,1,.3.5.2,1,.8,1.3,1.6.8,3.8-1,5.2-1.7,1.7-.9,3.5-1.8,5.1-2.7,4.8-2.7,9.5-5.7,14.2-8.6,5.4-3.3,11.2-6,17.6-5.3,3.5.4,6.6,2,9.9,3.2,9.8,3.5,19.6,3.4,29.8,3.2,1.1,0,7.1-1.2,7.5-.9,1.2,1.1-.4,2.6-.7,3.8-.2.8-.3,1.3-.8,1.9-.6.6-1.3,1-1.8,1.7-.5.8-1,1-1.7,1.6-.5.6-.9,1.3-1.6,1.8-.6.5-2.4,2-1.8,2.8.5.7,2.2.6,3,.8,1.7.3,3.5.1,5.2,0,1.5-.2,3.1-.5,4.7-1,2.9-.9,6.1-1.7,8.7-3.2,1.8-1,3.4-2.4,4.9-3.7,2.8-1.4,5.4-5.1,7.7-5.9,2.2-1.9,4.1-3.7,5.5-5,.2-.2.4-.3.4-.3,39.3-8.6,42.7-30.7,42.7-30.7-4.9,1-8-.6-8-.6,5.9-1.2,9.4-3.6,9.4-3.6.3-9.6-22.8-23.5-22.8-23.5-26.6-13.6-51.7-4.6-70.1,7.3-.7.5-6.8-2.8-7.9-3.1-2.1-.6-7.5-2.2-9,.3-.5.8-.5,1.6-1.5,2-.9.4-2.2,0-3.1.6-.9.6-.6,1.6-1.1,2.3-1.2,1.7-3.2.4-4,2.8-.3.9-.3,1.4-1.2,2-.8.5-1.7.4-2.2,1.2-.7,1-.4,1.8-1.7,2.3-1.1.4-1.9.2-2.5,1.5-.7,1.3-.5,1.5-1.8,2.3-3.3,2.1,1.3,3.8,2.9,4.6,2.2,1.1,4.6,1.8,6.9,2.9-.8.8-1.5,1.4-2.1,1.9-9.1,8-13,10.5-22.7,4.6-4.8-2.9-10.7-3.9-16.1-4.6-2.1-.2-4.2-.4-6.4-.5-2-.1-7-.4-6.8,2.7,0,1.2,1.5,1.1,2.1,1.9.9,1.2-.4,2.7.2,3.9.6,1.4,2,2.1,2.9,3.3,1,1.3.3,2.5.7,4,.4,1.5,2.3,1.3,3,2.6s-.4,1.9-.6,3c0,.2,0,.5,0,.8h0ZM468.1,426.7c0-2.5,2.1-4.5,4.6-4.5s4.6,2,4.6,4.5-2,4.5-4.6,4.5-4.6-2-4.6-4.5Z"/>
  </g>
  <path class="cls-7" d="M673,373.1c-.4-3.5-4.2-6.7-4.2-6.7,0,0,.1-1.7-1.7-2.9s-2.7-1.9-4.8-3.4c-2.2-1.4-1.8-2.3-3.1-4-1.3-1.7-4-3.2-6.7-2.6-2.8.6-3.6,1.8-5,3.1-1.4,1.3-3.1,1.7-7.8,1.4-4.7-.2-4.7.4-9.4.1-4.7-.2-6.2.2-11.3.2s-6.1-.6-9.4-.6-5.5-.7-10,.2c-4.4,1-6.6,1.3-11.9,1.4-5.3.1-7.1.7-10.2,3.6-3.1,2.9-3.8,3.9-6.2,5,0,0-8.7-2.3-14.7-1.2-6,1.1-6.8,2.8-10.1,3-3.2.2-6.4.7-7.7,2.8-1.3,2,.5,4.7-.2,8.3-.7,3.6.4,4.4.8,6.9.5,2.4,2.5,3.5,2.5,3.5-3.2,3.4-1,6.2-1,6.2,0,0-5.3,1-6.7,5.3-1.4,4.3,1.7,10.3,6.2,14.9,4.6,4.6,8.9,8.8,13.8,10.7,4.9,1.9,10.1,5.8,11.7,7.1,1.6,1.3,4,3.7,5.9,4.7,1.9,1,6,3.4,7.3,4.3,1.3,1,2.2,2.9,4.3,3,2.2.1,2.8-1.4,1.9-3.1-.8-1.7-3.6-1.6-5.9-3.1-2.3-1.6-4.7-1.8-6.4-3.5-1.7-1.7-5.2-3.1-4.6-3.5.6-.4,3.8,1.3,6.6,1.7s3.8.5,6,1c2.2.5,4.8.4,6.4.8s3.4,1.1,4.6.7,2.5-.8,1.9-2.8c-.6-1.9-3-2-4.9-1.8-1.9.2-3.5,1.1-6.6-.1-3.1-1.2-5.3-.6-7.2-1.4-1.9-.8-6.4-.1-6.5-.7s1.9-.7,4.7-1c2.8-.2,4.9-.6,6.4-1,1.4-.4,1.6.5,3.8-.1,2.3-.6,2.5-3.2,0-3.2s-3.2,1.2-6.4,1.4-4.3.8-6.2.1-6.1-2.2-6.1-2.2c0,0,4.9.4,10.2-.7s6.7-3.5,6.7-3.5c8.9,3.5,15.6-1.3,15.6-1.3,2.3,3.6,6.5,7.5,13.5,8.9,7,1.4,14.5.5,17.9-.5,3.4-1,5.8-1.8,7.7-1.6s6.5,1.2,9.2,1.7c2.8.5,7.2,1.8,8.8,2.5,1.6.7,3.1,2.5,5.4,1.7,2.3-.8,2.5-3.1.6-4.4-1.9-1.3-2.7-.1-5.2-.8-2.5-.7-3.6-1.2-6.5-2.3-2.9-1.1-4.2-1.6-6.8-2.5-2.6-1-6.1-1.6-5.9-2.3.2-.7,3.4-1,5.9-1s5.8-.5,8.1-.6,3,.2,5.2,0,3.5-1.4,3-3.1c-.5-1.7-2.3-1.7-4.1-1s-2.7,1-5.9,1.1c-3.2.1-5.3-.4-7.5-.1-2.2.2-7.2.7-7.6.6s.5-1.4,1.6-2.8c1.1-1.3,1.9-2,2.7-4,.7-1.9-.8-4.1-2.7-2.8-1.8,1.3-1.6,3.5-2.2,4.9s-3,3.8-4,4.4c-1,.6-4.7,1.3-7.2-.6s-5.2-4.1-5.2-4.1c3.8-.7,6.4-3.2,7.9-4.6,1.6-1.3,3-2,6.6-3.8s6.5-2.8,11.1-5.8c4.6-3,6.2-5.9,10-7.8,3.7-1.9,4.2-2.2,7.7-3.5,3.5-1.3,4.3-1.7,7-2.8,2.7-1.1,3-3.5,3-3.5,2.7-1,3.7-3.5,3.4-7h0ZM652.7,376.9c-1.7.8-3.9.4-5.2-.9-1.3-1.4-1.7-3.6-.8-5.3,2-3.9,8-2.9,8.6,1.5.3,1.9-.8,3.9-2.5,4.7h0Z"/>
  <path class="cls-2" d="M867.2,325c2.9.4,15.2.9,18.5-.4s8.8-1.5,9.9-2.6c0,0-2.8-1-4.5-.6-1.7.4-4.1-.3-4.1-.3,0,0,2.4.2,4-.3,1.6-.5,5.2,0,6.5.5s1.4-2.4,1.2-4.7c-.2-2.3-3.1-4.1-3.3-6.1s-4.8-6.6-15.2-7.3c-10.4-.7-13.3.2-16.2,1.5s-8.4,2.2-10.6,1.8c0,0-.8-5.4-9-9.3,0,0,3.9-1.3,5-8.6,1-7.3-1.1-16.1-3.1-19.4-2-3.2-7.4-9.9-8.7-10.8-1.3-.9-.9.8-1.8.2-.9-.7-11.6-7.5-12.8-7.6s-.6,1.5-2.9.5c-2.3-1.1-6.1-1.6-8.4-.2-2.3,1.4-3.4.6-3.4,1.9,0,1.3.7,5,3,7.9,2.3,2.9,8.2,5.4,10,8.6,1.9,3.2,5.3,8,5.6,9.3.3,1.3.7,1.5,1.4,1.8.7.3-.2,2.3,1,2.6s.9,1.6,1.3,2.4c.4.8,1.2.4,1.3.9s-1.4,2-.4,5.1c0,0-7.2-3.2-17.2-4.4s-24.9-1-39.2.5-27.7,4.2-35.9,9.7-17.4,11.7-17.4,11.7c0,0-9-.5-15.7-.1-6.6.4-8.9,3.5-11.6,3.8s-1.5,1.5-.1,2.6,2,.7,2,.7c0,0-1.7,1.6-.2,2.4,1.5.7,2.9-.2,4.6,1.1s2.9,2.6,4.8,1.8c1.9-.8,3.6-1.3,5.2-1s3-.9,3-.9c0,0-1.6,3.4-2.7,5-1,1.6-4.3,4.6-3.3,7.2s14.4,12,14.4,12c0,0-3.2,4.5-4.5,5s-3.5,1.2-4.6,2.9c-1.1,1.6-5.8,3-6.9,4.6s.4,3.4-.7,5.8c-1.1,2.4-4.5,7.5-4.2,9s1.4,1.8,1.2,3.3c-.2,1.5.8,1.6.8,3.2s-.5,1.6.8,2.4c1.3.8,0,1.4,3,2,3,.5,5.4-1.5,5.4-1.5,0,0-.4.8.5.9,1,.1,9.2-4.9,13.7-10.6,4.5-5.7,13.9-16.2,13.9-16.2l3.5,2.1s8.7,6.5,16.4,7.3c0,0,7.1,5.4,15.8,4.4,0,0,10.6,3.6,19,1.5,0,0,11,1.4,17.6-4.2,0,0,9.9,1.4,14.9-5.5,0,0,9-.9,11.1-9,0,0,4.5-.9,7.2-2.9,2.7-2,6.9-2.4,7.3-1.4.3,1,.9,3.1,2.9,2.8,2-.3,3-.8,3-.8,0,0-.2,3.8,1.2,3.2s.3,3.3,2.1,3,1.3,4.5,3.1,4c1.8-.5.8,3.1,1.8,3.6,1,.5.4,4.3,2.2,5.7,1.8,1.4,1.4,1.4,1.8,3.8s2.4,5.7,2.5,8.5c.1,2.8,2.5,8.5,5.5,9.8,3,1.3,7.9-5.2,8.9-11.7s2.5-9.9,1.7-14.8c-.9-4.9,2.5-1.5.1-6s-5-6.4-8.7-13.7-12-11.2-17.2-12.1c-5.2-.9-15.8,2.9-15.8,2.9,0,0,2.2-5.4,2.4-6.9.3-2.3,15.2-3.6,16.7-3.4h0Z"/>
  <path class="cls-5" d="M980.2,313.2c4.1-5.4,4-8.5,5.7-10.8s2.6-3.5,5.9-4.1c0,0,4.2.1,7.6.9s10.8,2,11.9,2.1,3.2-.2,3.6-.7-3.5-1.3-8.7-2.5c-6.6-1.6-11.9-2.8-13-3.4,0,0-1.8-3.5-4.9-5.7-3-2.2-8.1-4.4-13-2.4s-7.3,9-11,13c-3.6,4-5.1,4.9-5.9,4.5s-1.6-1.1-2.8-5.3-6.5-14.6-11-22.1c-4.5-7.5-12.2-16.1-16.1-20.7-4.2-4.9-5.5-5.8-6.2-5.2-.7.6.3,4.4,1.8,6,0,0-1,2.6.2,6.2,0,0-1.3,3.3.5,7.6,0,0-1.5,4.2,1,8.3,0,0-.8,2.8,1.5,6.1,0,0-.2,2.5,1.7,5.5,0,0-.3,2.8,2,5.5,0,0-.6,3,1.9,5.4,0,0-.3,3.1,2.2,5.4,0,0-.2,3.3,2.8,5.1,0,0,.3,2.6,3.5,3.9,0,0,1,2.7,4.2,1.6,0,0,.8,2.3,3.8,2.1,0,0-.2-.1-2.4,2.6-2.2,2.7-2.1,4.3-2.7,6.1,0,0-4.9-2.1-10.5-2.6-5.6-.5-9.2.2-10.2,2s2.4,4.2,3.9,4.9c0,0-6.6.9-7.3,4.5s5.1,5.6,5.1,5.6c0,0-7.5,3.2-6.5,7,1,3.8,6.6,3.6,6.6,3.6,0,0-5,3.5-4.1,7.1s7.4,2.3,7.4,2.3c0,0-2.8,6.9.7,8.9,3.5,2,8.2-3.9,8.2-3.9,0,0,.8,7,4.6,7.5,3.8.6,5.9-7.2,5.9-7.2,0,0,2.6,6.1,5.8,6.2s3.9-6.9,3.9-6.9c0,0,2.9,5.1,5,4.7s2.2-6,2.2-6c0,0,2.4,2.4,4.7,1.3s-2.5-18-7.5-26c0,0,6-5.1,9.2-11.2,0,0,0,3,4.5,3,0,0,1.6,1.8,6.1,1.5,0,0,2.7,1.8,7-.2,0,0,3.4,1.8,8.6-.4,0,0,4.4,1.8,9.4-.2,0,0,4.8,1.4,9.5-.6,0,0,4.7,1.2,9.6-1.5,0,0,3,.5,7.3-.9,0,0,2.3.3,5.5-1,3.3-1.4,6.4-.4,7.1-1.6s-9.4-1.5-12.8-2.7c-3.3-1.3-15.7-4.6-21.8-5.4s-20.8-4.8-25.3-5.3c-4.5-.5-5.8-1.3-5.8-1.3h0Z"/>
  <path class="cls-8" d="M1042.1,204.5c-.1-.3-.6-.2-.7,0-.2.2,0,.6,0,.8.4,1.9.7,3.8,1.1,5.7-.3-.2-.6.3-.6.7,0,4.1,2.1,7.5,1.4,11.7-.2,1.2,0,2.6.7,3.6-.2,2.8.4,5.5,1.7,8-.2-.2-.6-.3-.9-.2l.3,1.9c-.2,1.4.2,2.9,1.2,3.9,0,1.7.3,3.4,1,5-.5.9-.5,2.1.1,3,0-.2-.4-.1-.5,0,0,.2,0,.4.1.6.8,1.6,1.5,3.2,2.3,4.8.5,1.7,1.1,3.5,1.6,5.2l-1-.4c.3,1.3,1.1,2.4,1.3,3.7.2,1,0,2,.2,3,.1.5.2.7,0,.8.4.9.9,1.9,1.1,2.9.3,2.5.5,5,.6,7.5.1.1.2.4.2.7,0,.5,0,1,0,1.5-.2,1.4-.2,2.8-.3,4.1-.2,1.5.2,2.9.5,4.3.2.7.4,1.4,0,2.2-.3.5-.1,1,0,1.5.2.9.3,1.8.6,2.6.6,1.3.6,2.5.2,3.8-.2.6,0,1.1.3,1.6,0,.1.2.3.3.4.3.7.7,1.2,1.2,1.6,0,.4-.6.3-.5.7,0,.3.1.6.3.9.1.1.2.4.2.5-.5.6,0,.9.3,1.2.5.6,1.2.9,1.6,1.6.1.2.4.3.2.5-.7.7.3.7.3,1,.4-.3-.1-.5.2-.6.2-.1.4,0,.5.2.4.3.7.6,1.1,1-.5.3-.9-.2-1.3.1.2.4.6.6.9.8,1.4.7,2.3,1.9,3.1,3.2,1,1.7,2.2,3.2,3.4,4.8.2.3.5.5.8.6.7.5,1.3,1.1,1.8,1.9.3.7.9,1.1,1.6,1.5.5.2.9.5,1.4.7.3.2.6.4.7.7.2.7.7,1.2,1.2,1.7,1.7,1.8,3.7,3.2,5.9,4.3,1.7.9,3.4,1.9,5.3,2.3.8.2,1.6.3,2.4.5.6.1.8.4.8,1,0,2.2.9,2.5,2.7,2.8,1,.2,2,.1,3,0,.2,0,.4,0,.6,0,4.2,0,8.4-.4,12.7-.2.2,0,.3,0,.5,0,3.4.7,6.7.2,10.1,0,.7,0,1.4,0,2.1.2.9.1,1.8.2,2.7.2,2.6,0,5.2,0,7.8,0,1.4,0,2.8,0,4.3.4,2.1.6,4.4.5,6.6.5.3,0,.6,0,.9-.2,1.5-.5,3-.2,4.4.3,1.9.8,3.9,1.2,6.1,1.1,1.6,0,2-.5,1.6-2,.2-.2.4,0,.6.1.6.2,1.2.5,1.8.8.6.2,1.1.1,1.5-.2.4-.4.9-.7,1.5-.9.4-.1.5-.4,0-.8-.5-.4-1-.7-1.6-.9-.9-.4-1.8-.8-2.6-1.2-1.2-.6-2.5-.8-3.8-.9-3.4-.3-6.7,0-10.1-.3-1.3-.1-2.6,0-3.9,0s-2.3-.5-3.4-.8c-1-.3-1.2-1-1-2.1.2-.9.6-1.9.9-2.7.9-2.2,1.9-4.5,2.6-6.9.7-2.1,1.8-4.1,3-6,1-1.6,1.9-3.3,2.8-5,.5-.9,1-1.8,1.7-2.8.2,1.1.4,2,.4,2.9,0,1,.3,2,.6,2.9,0,.2.1.4.4.5s.3-.2.5-.4c.2-.3.3-.8.7-.6.5.2.1.7.1,1,0,.5-.1.9-.2,1.3,0,.2,0,.4.2.5.2.1.3,0,.4-.1.7-.4.8-.4,1,.4.2.7.8,1.2,1,1.9,0,.2.3.2.5.2.3,0,.6,0,.9.2,0,.7-.4,1.3-.7,2,.3.2.5-.2.7-.2.2,0,.4,0,.5.2,0,.2,0,.3-.2.4-.1.1-.3.1-.3.4.3.1.6-.2.8-.3.1,0,.3-.1.4,0,.1.2,0,.3-.1.4-.2.2-.6.2-.7.6.2.3.5.2.7.2.6,0,.8,0,.7.6,0,.6.2.7.6.9.3,0,.4.3.6.6.5.9,1.1,1.8,2.2,2,1.2.2,1.9,1,2.4,2.1.2.3.3.7.6,1,.2.3.4.5.8.5.6-.1.6.2.7.6.3.9.9,1.7,1.6,2.4.6.6.9,1.3,1.2,2,.1.3.2.6.3.9.4.8.9.9,1.6.3.2.1.3.4.4.6.3.5.7.8,1.2,1,2.1.6,4.2,1.1,6.4,1.3,1,0,2.1.3,3.1.5,1.5.3,3,0,4.5-.3,1.1-.3,2.1-.6,3.2-.8,1.2-.3,2.3-.6,3.4-1.2,1-.6,2.3-.1,3.4.1,1.2.3,2.3.8,3.5.9.9.1,1.9,0,2.8,0,1.1-.1,2.2-.4,2.9-1.2.3-.3.5-.8.3-1.2-.3-.6-1.1-.7-1.8-.7-2,0-3.8-.7-5.6-1.4-1.7-.7-3.5-1.1-5.3-1.5-.5-.1-1-.1-1.5-.3-1.8-.4-3.4,0-5,.6-.7.3-1.4.7-2,1-.6.3-1.2.6-1.9.9-.8.3-.9.3-1.1-.5-.5-1.7-1.2-3.3-1.8-4.9-1.7-4.4-3.5-8.7-5.8-12.9-.6-1.1-1.2-2.3-1.7-3.5-1.4-3.3-3.2-6.4-5-9.5-1.2-2.1-2.4-4.2-3.5-6.4-.4-.9-.7-1.8-.9-2.8.8.3.8.3.8-.4,0-.8,0-1.6-.1-2.5.3,0,.7.3.7-.3-.1-2.7.7-5.2,1.6-7.6.3-1,.6-2,.7-3.2.4.7.1,1.3.6,1.9.3-.4.3-.9.3-1.3,0-.9,0-1.7,0-2.6,0-.9-.2-1.8.3-2.6,0-.1,0-.3,0-.4-.3-1.8.7-3.4.7-5.1.4,0,.6.2.8.4,1.6,1.2,3.5,1.7,5.4,2.1.7.1,1.4.4,2,.9.5.4,1.1.6,1.7.7,2.8.4,5.3-.2,7.2-2.5,1.3-1.6,2.4-3.3,3.1-5.2.4-1.1.7-2.2.4-3.3,0-.4,0-.7.2-1.1.2-.5.2-.9-.3-1.3-.4-.3-.6-.9-.8-1.3-.6-1.6-1.1-3.2-1.7-4.8-.3-.8-.2-1.4.4-2,.7-.7,1.3-1.6,1.9-2.5.4-.6.6-1.1.7-1.8,0-.7.2-.8.9-.7.6,0,1.2.2,1.7.2.2,0,.4,0,.5-.2.1-.2,0-.4-.2-.5-.5-.4-.9-.9-1.1-1.6,0-.4-.4-.6-.6-.8-1.2-1-2.5-1.7-3.9-2.3-.7-.3-1-.7-1.2-1.4-.3-1.3-.7-2.5-1.2-3.6-.3-.5-.8-1.1-.9-1.6-.2-.5.1-.8-.4-1.1-.5-.4-1.1-.6-1.7-.8h.6c-.5-.5-1.2-1-1.8-1.3.3.2.8.2,1.1.1-.2-.4-.7-.6-1.1-.8-.8-.3-1.6-.4-2.5-.6-.6-.1-1.2-.4-1.9-.6-1.6-.4-3.3-.7-4.9-.8-3.2-.1-6.5.5-9.5,1.7-1.8.7-3.6,1.4-5.3,2.5-.4.2-.7.3-1.1,0-1.6-.9-3.4-1.4-4.9-2.4-.3-.2-.6-.3-1,0-.3.3-.3.7,0,.9.9,1.1.1,1.7-.6,2.4-1.9,1.8-2.9,4.1-3.2,6.6-.1,1.2,0,2.3.7,3.4.5.7.4.8-.5,1-3.2.8-6.4,1.9-9.2,3.6-1.5.9-3.1,1.5-4.8,2-3.6,1.2-7.3,2.1-10.8,3.4-3.8,1.4-7.3,3.4-10.8,5.5-2.4,1.4-4.8,3-7.1,4.6-1.5,1.1-2.9,2.4-4.3,3.5-1.9,1.6-3.7,3.3-5.4,5.1-2.7,3-4.8,6.3-6.4,9.9-1.8,4-2.7,8.1-3.3,12.3-.3,2.1-.8,4.1-1.2,6.2-.4,1.7-.7,3.4-1.1,5.1-.2,1.2-.7,2.3-1.4,3.3-.4.6-.6.6-1,0-.5-.6-1-1.1-1.5-1.7-.9-.9-1.5-2.1-2-3.2-1.2-2.2-1.9-4.6-2.5-7.1,0-.4-.2-.7-.3-1.1-.6-1.5-.9-3-.8-4.5,0-1.2-.2-2.5-.6-3.6-.2-.6-.3-1.3-.2-1.9.2-1.3.2-2.5.3-3.8,0-.5,0-1-.2-1.5-.2-.3-.1-.7,0-1,0-.5.2-1.1.2-1.6,0-1.4-.1-2.7-.6-4-.8-2.4-1.2-4.8-1.9-7.2-.9-3.2-1.4-6.5-2.1-9.8-.3-1.8-1-3.4-1.3-5.2-.9-4.2-2-8.4-2.9-12.6-.5-2.2-.9-4.5-1.2-6.8-.2-1.8-.6-3.6-.9-5.4-.6-3.4-1-6.7-1.3-10.1-.3-2.6-.6-5.1-.8-7.7-.2-1.8,0-3.5,0-5.3-.1-3.1.8-6.1,1.8-8.9,1-2.7,2.8-4.9,4.9-6.8,2.1-1.9,4.5-2,7.1-1.1,3.7,1.3,6.1,3.9,7.6,7.5.5,1.2.9,2.4,1.3,3.7.3,1,.6,2.1,1.7,2.6,2.1,1.1,3.9.2,5-1.7.6-1,.8-2.1.7-3.3-.1-1.5-.4-2.9-1-4.3-.4-.9-.8-1.9-1.3-2.8-2.2-4.2-5.4-7.1-9.7-9-1.5-.7-3.1-.9-4.7-1-2.8-.3-5.7.1-8.5.8-2.1.6-3.4,2.1-5.3,3,.5-.8,1-1.6,1.2-2.5-2,2.2-3.9,4.5-5.6,6.9-1.6,1.9-2.8,4.1-3.4,6.4,0-.4-.2-.9-.2-1.4-.4,2.9-.8,5.8-1.1,8.7-.2-.4-.4-.8-.5-1.2,0,.8,0,1.6,0,2.4,0,1.4.2,2.9.3,4.3h0ZM1113.4,326.9c1-1.1,1.4-2.6,2.4-3.6-.2.6-.5,1-.8,1.5-.3.5-.7.9-.7,1.6.3,0,.4-.2.5-.3,1.7-2.6,3.5-5.1,4.7-8,.2-.6.3-.6.8-.2.4.3.5.1.7-.2.6-.7,2.5-2.1,3.3-2.4,0,.3-.1.6-.3.9-1.6,2.9-2.8,5.9-4.6,8.6-.4.6-.7,1.4-1,2-.2.3-.3.6-.4.9-.2.4-.5.5-.9.4-1.2-.5-2.5-.9-3.8-1.3h0Z"/>
  <path class="cls-6" d="M1138.6,411.7c-8.4,34.5-27,66-48.8,93.7-23,29.3-50.2,55.7-80.2,77.8-64.2,47.3-142,71.4-219.2,87.1-56.7,11.5-114,20.7-171.5,26.6,29.6-9.8,57.6-24,82.5-43.3,11.8-9.1,22.6-19.3,32.5-30.3,44.7,1.2,89.9-6.6,130.3-26.1,37.7-18.2,70.2-47.3,89.5-84.7,11.5-22.2,17.9-46.5,20.1-71.3.7-7.6-11.2-7.6-11.9,0-3.7,40.9-20.8,79.3-50.1,108.3-29,28.8-67,46.7-106.6,55.4-20.2,4.5-40.8,6.5-61.5,6.5,17.4-22,31.2-47,40.7-73.7,9.2-25.8,14.2-53,15.7-80.4.4-7.7-11.5-7.6-11.9,0-2.6,45.9-16,91-41.3,129.6-5.7,8.6-11.9,16.8-18.6,24.6-1.7.6-2.8,2-3.2,3.6-23.6,26.2-53,46.9-85.5,61.2-28.1,12.4-58.5,19.8-89,23.5-1.9.2-3.4,1.2-4.3,2.5-4.3.2-8.7.4-13,.6-24.8,1-49.7,1.6-74.5,2.2,25.5-7,50.4-16.3,74.2-26.8,8.4-3.7,17-7.3,24.8-12.3,7.5-4.9,14.4-10.9,20.5-17.5,14.9-15.9,26.6-34.8,35.5-54.6,11.5-25.6,18.7-53,20.6-81,.5-7.6-11.4-7.6-11.9,0-2.9,43.8-19.7,89.4-48.7,122.8-5.5,6.4-11.6,12.5-18.5,17.5-6.7,4.9-14.3,8.4-21.9,11.9-20,9.1-40.7,16.7-61.6,23.2-22.5,7-45.6,13.3-69,16.1-1.9.2-3.4,1.2-4.3,2.5-14.3.6-28.6,1.3-42.8,2.3,15-7.5,29-17.1,41.6-27.7,24.8-20.7,46-47.6,55.9-78.7,5.5-17.2,6.7-35.2,3.5-52.9-1.4-7.5-12.8-4.3-11.5,3.2,11,60.6-40.4,115.8-89.7,142.5-13.3,7.2-27.4,12.8-42.2,15.7-1.9.4-3.1,1.4-3.7,2.6-11.5,1.7-23,3.7-34.5,6.2-76.9,17.2-150.6,50.9-214.8,96.4-7.6,5.4-15.1,11-22.5,16.8-6,4.7,2.4,13.1,8.4,8.4,62.8-48.8,136-85.3,212.9-105.4,39.8-10.4,79.9-14.8,121-16.8,45.3-2.2,90.7-2.7,136-4.2,45-1.5,89.9-4.1,134.5-10.1,41.6-5.6,83.2-12.4,124.5-20.1,78.7-14.8,158.8-36.9,226.1-81.9,30.7-20.5,58.7-45.4,83-73.1,23.9-27.2,44.9-57.6,58.1-91.5,3.1-7.9,5.6-15.9,7.6-24.1,1.8-7.4-9.7-10.6-11.5-3.2h0Z"/>
  <path class="cls-3" d="M406.3,654.5c-.4,0-.8-.1-1-.4l-56.4-54.9c-.6-.6-.6-1.5,0-2.1.6-.6,1.5-.6,2.1,0l56.4,54.9c.6.6.6,1.5,0,2.1-.3.3-.7.5-1.1.5Z"/>
  <path class="cls-3" d="M269.3,790.7c-.5,0-1-.3-1.3-.7-.4-.7-.2-1.6.5-2.1l128.9-76.2c.7-.4,1.6-.2,2.1.5.4.7.2,1.6-.5,2.1l-128.9,76.2c-.2.1-.5.2-.8.2Z"/>
  <path class="cls-3" d="M461.2,796.5c-.2,0-.5,0-.7-.2-.7-.4-1-1.3-.7-2l54.9-109.1c.4-.7,1.3-1,2-.7.7.4,1,1.3.7,2l-54.9,109.1c-.3.5-.8.8-1.3.8Z"/>
  <path class="cls-3" d="M649.4,796.5c-.4,0-.7-.1-1-.4l-98.8-89.1c-.6-.6-.7-1.5-.1-2.1.6-.6,1.5-.7,2.1-.1l98.8,89.1c.6.6.7,1.5.1,2.1-.3.3-.7.5-1.1.5Z"/>
  <path class="cls-3" d="M825.9,795.1c-.6,0-1.1-.3-1.4-.9l-49.5-111.8c-.3-.8,0-1.6.8-2,.8-.3,1.6,0,2,.8l49.5,111.8c.3.8,0,1.6-.8,2-.2,0-.4.1-.6.1Z"/>
  <path class="cls-3" d="M1020.7,797.3c-.6,0-1.1-.3-1.4-.9l-110.1-239.4c-.3-.8,0-1.6.7-2,.8-.3,1.6,0,2,.7l110.1,239.4c.3.8,0,1.6-.7,2-.2,0-.4.1-.6.1Z"/>
  <path class="cls-3" d="M1090.3,817.1c-.8,0-1.5-.7-1.5-1.5v-21.2h-139.8v21.2c0,.8-.7,1.5-1.5,1.5s-1.5-.7-1.5-1.5v-24.2h145.8v24.2c0,.8-.7,1.5-1.5,1.5Z"/>
  <path class="cls-3" d="M891.8,818c-.8,0-1.5-.7-1.5-1.5v-21.2h-131.4v21.2c0,.8-.7,1.5-1.5,1.5s-1.5-.7-1.5-1.5v-24.2h137.4v24.2c0,.8-.7,1.5-1.5,1.5Z"/>
  <path class="cls-3" d="M702.1,817.3c-.8,0-1.5-.7-1.5-1.5v-21.2h-110.3v21.2c0,.8-.7,1.5-1.5,1.5s-1.5-.7-1.5-1.5v-24.2h116.3v24.2c0,.8-.7,1.5-1.5,1.5Z"/>
  <path class="cls-3" d="M534.4,818c-.8,0-1.5-.7-1.5-1.5v-21.2h-144.5v21.2c0,.8-.7,1.5-1.5,1.5s-1.5-.7-1.5-1.5v-24.2h150.5v24.2c0,.8-.7,1.5-1.5,1.5Z"/>
  <path class="cls-3" d="M330.8,817.3c-.8,0-1.5-.7-1.5-1.5v-21.2h-137.4v21.2c0,.8-.7,1.5-1.5,1.5s-1.5-.7-1.5-1.5v-24.2h143.4v24.2c0,.8-.7,1.5-1.5,1.5Z"/>
  <path class="cls-3" d="M349.5,659.6h-24.2c-.8,0-1.5-.7-1.5-1.5s.7-1.5,1.5-1.5h21.2v-122.2h-21.2c-.8,0-1.5-.7-1.5-1.5s.7-1.5,1.5-1.5h24.2v128.2Z"/>
  <path class="cls-3" d="M335,929.4h-148v-44.8h148v44.8ZM190,926.4h142v-38.8h-142v38.8Z"/>
  <g>
    <circle class="cls-4" cx="402.8" cy="710.6" r="12.2"/>
    <path class="cls-3" d="M402.8,725.8c-8.4,0-15.2-6.8-15.2-15.2s6.8-15.2,15.2-15.2,15.2,6.8,15.2,15.2-6.8,15.2-15.2,15.2ZM402.8,701.4c-5.1,0-9.2,4.1-9.2,9.2s4.1,9.2,9.2,9.2,9.2-4.1,9.2-9.2-4.1-9.2-9.2-9.2Z"/>
  </g>
  <g>
    <circle class="cls-4" cx="516.1" cy="677.6" r="12.2" transform="translate(-220 249.1) rotate(-22.5)"/>
    <path class="cls-3" d="M516.1,692.8c-8.4,0-15.2-6.8-15.2-15.2s6.8-15.2,15.2-15.2,15.2,6.8,15.2,15.2-6.8,15.2-15.2,15.2ZM516.1,668.4c-5.1,0-9.2,4.1-9.2,9.2s4.1,9.2,9.2,9.2,9.2-4.1,9.2-9.2-4.1-9.2-9.2-9.2Z"/>
  </g>
  <g>
    <circle class="cls-4" cx="541.6" cy="707.6" r="12.2"/>
    <path class="cls-3" d="M541.6,722.8c-8.4,0-15.2-6.8-15.2-15.2s6.8-15.2,15.2-15.2,15.2,6.8,15.2,15.2-6.8,15.2-15.2,15.2ZM541.6,698.3c-5.1,0-9.2,4.1-9.2,9.2s4.1,9.2,9.2,9.2,9.2-4.1,9.2-9.2-4.1-9.2-9.2-9.2Z"/>
  </g>
  <g>
    <circle class="cls-4" cx="776.5" cy="681.8" r="12.2"/>
    <path class="cls-3" d="M776.5,697c-8.4,0-15.2-6.8-15.2-15.2s6.8-15.2,15.2-15.2,15.2,6.8,15.2,15.2-6.8,15.2-15.2,15.2ZM776.5,672.6c-5.1,0-9.2,4.1-9.2,9.2s4.1,9.2,9.2,9.2,9.2-4.1,9.2-9.2-4.1-9.2-9.2-9.2Z"/>
  </g>
  <g>
    <circle class="cls-4" cx="910.6" cy="556.4" r="12.2"/>
    <path class="cls-3" d="M910.6,571.6c-8.4,0-15.2-6.8-15.2-15.2s6.8-15.2,15.2-15.2,15.2,6.8,15.2,15.2-6.8,15.2-15.2,15.2ZM910.6,547.2c-5.1,0-9.2,4.1-9.2,9.2s4.1,9.2,9.2,9.2,9.2-4.1,9.2-9.2-4.1-9.2-9.2-9.2Z"/>
  </g>
  <g>
    <circle class="cls-4" cx="412.9" cy="659.6" r="12.2"/>
    <path class="cls-3" d="M412.9,674.8c-8.4,0-15.2-6.8-15.2-15.2s6.8-15.2,15.2-15.2,15.2,6.8,15.2,15.2-6.8,15.2-15.2,15.2ZM412.9,650.4c-5.1,0-9.2,4.1-9.2,9.2s4.1,9.2,9.2,9.2,9.2-4.1,9.2-9.2-4.1-9.2-9.2-9.2Z"/>
  </g>
  <g class="cls-12">
    <g class="cls-12">
      <path class="cls-10" d="M417.9,521.6c0,4.7-3.5,7.6-9.1,7.6h-4.2v5.8h-4.9v-21h9.1c5.6,0,9.1,2.9,9.1,7.6ZM413,521.6c0-2.3-1.5-3.7-4.5-3.7h-4v7.3h4c3,0,4.5-1.3,4.5-3.6Z"/>
    </g>
    <g class="cls-12">
      <path class="cls-10" d="M437.6,531.1v3.9h-16.3v-21h15.9v3.9h-11v4.6h9.7v3.8h-9.7v4.9h11.4Z"/>
      <path class="cls-10" d="M441.5,514h4.9v21h-4.9v-21Z"/>
    </g>
    <g class="cls-12">
      <path class="cls-10" d="M464.6,535l-5.1-7.3-5,7.3h-5.6l7.8-10.7-7.4-10.3h5.5l4.8,6.8,4.7-6.8h5.2l-7.3,10.1,7.8,10.9h-5.6Z"/>
    </g>
    <g class="cls-12">
      <path class="cls-10" d="M488.4,531.1v3.9h-16.3v-21h15.9v3.9h-11v4.6h9.7v3.8h-9.7v4.9h11.4Z"/>
      <path class="cls-10" d="M490.6,532.9l1.6-3.7c1.8,1.3,4.4,2.2,6.9,2.2s4-1,4-2.2c0-3.9-12.2-1.2-12.2-9s2.9-6.5,8.8-6.5,5.3.6,7.3,1.9l-1.5,3.7c-2-1.1-4-1.6-5.8-1.6-2.9,0-4,1.1-4,2.4,0,3.9,12.2,1.2,12.2,8.9s-2.9,6.5-8.9,6.5-6.7-1-8.5-2.4Z"/>
    </g>
  </g>
  <g class="cls-12">
    <g class="cls-12">
      <path class="cls-10" d="M567.9,487.4h-9.7l-1.9,4.5h-5l9.4-21h4.8l9.4,21h-5.1l-1.9-4.5ZM566.4,483.8l-3.3-8-3.3,8h6.7Z"/>
      <path class="cls-10" d="M596.3,470.9v21h-4l-10.5-12.7v12.7h-4.8v-21h4l10.4,12.7v-12.7h4.8Z"/>
      <path class="cls-10" d="M606.1,474.8v5.5h9.7v3.9h-9.7v7.6h-4.9v-21h15.9v3.9h-11Z"/>
      <path class="cls-10" d="M624.2,464.9h5l-5.4,4.3h-3.7l4-4.3ZM620.5,470.9h4.9v21h-4.9v-21Z"/>
      <path class="cls-10" d="M649.6,486.2c0,3.6-2.9,5.7-8.4,5.7h-10.9v-21h10.3c5.2,0,7.9,2.2,7.9,5.5s-1.1,3.7-2.8,4.6c2.3.8,3.8,2.5,3.8,5.2ZM635.1,474.6v4.9h4.8c2.4,0,3.7-.8,3.7-2.5s-1.3-2.5-3.7-2.5h-4.8ZM644.7,485.7c0-1.8-1.3-2.6-3.9-2.6h-5.7v5.2h5.7c2.5,0,3.9-.8,3.9-2.6Z"/>
      <path class="cls-10" d="M653.2,470.9h4.9v21h-4.9v-21Z"/>
      <path class="cls-10" d="M661.8,481.4c0-6.2,4.9-10.9,11.5-10.9s11.5,4.6,11.5,10.9-4.9,10.9-11.5,10.9-11.5-4.6-11.5-10.9ZM679.8,481.4c0-4-2.8-6.7-6.6-6.7s-6.6,2.7-6.6,6.7,2.8,6.7,6.6,6.7,6.6-2.7,6.6-6.7Z"/>
      <path class="cls-10" d="M686.8,489.9l1.7-3.7c1.8,1.3,4.4,2.2,6.9,2.2s4-1,4-2.2c0-3.9-12.2-1.2-12.2-9s2.9-6.5,8.8-6.5,5.3.6,7.3,1.9l-1.5,3.7c-2-1.1-4-1.6-5.8-1.6-2.9,0-4,1.1-4,2.4,0,3.9,12.2,1.2,12.2,8.9s-2.9,6.5-8.9,6.5-6.7-1-8.5-2.4Z"/>
    </g>
  </g>
  <g class="cls-12">
    <g class="cls-12">
      <path class="cls-10" d="M748.5,435.2l-4-5.8h-4.5v5.8h-4.9v-21h9.1c5.6,0,9.1,2.9,9.1,7.6s-1.6,5.5-4.3,6.6l4.7,6.8h-5.2ZM743.9,418.2h-4v7.3h4c3,0,4.5-1.4,4.5-3.7s-1.5-3.7-4.5-3.7Z"/>
      <path class="cls-10" d="M773.4,431.3v3.9h-16.3v-21h15.9v3.9h-11v4.6h9.7v3.8h-9.7v4.9h11.4ZM766,412.5h-3.7l4-4.3h5l-5.4,4.3Z"/>
    </g>
    <g class="cls-12">
      <path class="cls-10" d="M795.5,421.8c0,4.7-3.5,7.6-9.1,7.6h-4.2v5.8h-4.9v-21h9.1c5.6,0,9.1,2.9,9.1,7.6ZM790.6,421.8c0-2.3-1.5-3.7-4.5-3.7h-4v7.3h4c3,0,4.5-1.3,4.5-3.6Z"/>
    </g>
    <g class="cls-12">
      <path class="cls-10" d="M802.7,418.2h-6.7v-4h18.3v4h-6.7v17h-4.9v-17Z"/>
      <path class="cls-10" d="M833.2,431.3v3.9h-16.3v-21h15.9v3.9h-11v4.6h9.8v3.8h-9.8v4.9h11.4Z"/>
      <path class="cls-10" d="M837,414.2h4.9v21h-4.9v-21Z"/>
      <path class="cls-10" d="M845.2,433.1l1.7-3.7c1.8,1.3,4.4,2.2,6.9,2.2s4-1,4-2.2c0-3.9-12.2-1.2-12.2-9s2.9-6.5,8.8-6.5,5.3.6,7.3,1.9l-1.5,3.7c-2-1.1-4-1.6-5.8-1.6-2.9,0-4,1.1-4,2.4,0,3.9,12.2,1.2,12.2,8.9s-2.9,6.5-8.9,6.5-6.7-1-8.5-2.4Z"/>
    </g>
  </g>
  <g class="cls-12">
    <g class="cls-12">
      <path class="cls-10" d="M941.1,415.5h-9.8l-1.9,4.5h-5l9.4-21h4.8l9.4,21h-5.1l-1.9-4.5ZM939.5,411.8l-3.3-8-3.3,8h6.7Z"/>
    </g>
    <g class="cls-12">
      <path class="cls-10" d="M969.3,399l-9.1,21h-4.8l-9.1-21h5.2l6.4,15,6.5-15h4.8Z"/>
    </g>
    <g class="cls-12">
      <path class="cls-10" d="M987.3,416.1v3.9h-16.3v-21h15.9v3.9h-11v4.6h9.7v3.8h-9.7v4.9h11.4Z"/>
      <path class="cls-10" d="M989.5,417.9l1.7-3.7c1.8,1.3,4.4,2.2,6.9,2.2s4-1,4-2.2c0-3.9-12.2-1.2-12.2-9s2.9-6.5,8.8-6.5,5.3.6,7.3,1.9l-1.5,3.7c-2-1.1-4-1.6-5.8-1.6-2.9,0-4,1.1-4,2.4,0,3.9,12.2,1.2,12.2,8.9s-2.9,6.5-8.9,6.5-6.7-1-8.5-2.4Z"/>
    </g>
  </g>
  <g class="cls-12">
    <g class="cls-12">
      <path class="cls-10" d="M1062.4,389.8v-12.6s-6.2,10.4-6.2,10.4h-2.2l-6.1-10.1v12.3h-4.6v-21h4l7.9,13,7.7-13h4v21c0,0-4.5,0-4.5,0Z"/>
      <path class="cls-10" d="M1085.8,385.3h-9.7l-1.9,4.5h-5l9.4-21h4.8l9.4,21h-5.1l-1.9-4.5ZM1084.2,381.7l-3.3-8-3.3,8h6.7Z"/>
      <path class="cls-10" d="M1114,389.8v-12.6s-6.2,10.4-6.2,10.4h-2.2l-6.2-10.1v12.3h-4.6v-21h4l7.9,13,7.7-13h4v21c0,0-4.5,0-4.5,0Z"/>
      <path class="cls-10" d="M1127.3,362.8h5l-5.4,4.3h-3.7l4-4.3ZM1123.6,368.8h4.9v21h-4.9v-21Z"/>
      <path class="cls-10" d="M1138.3,372.7v5.5h9.7v3.9h-9.7v7.6h-4.9v-21h15.9v3.9h-11Z"/>
      <path class="cls-10" d="M1168.8,385.9v3.9h-16.3v-21h15.9v3.9h-11v4.6h9.7v3.8h-9.7v4.9h11.4Z"/>
      <path class="cls-10" d="M1186.1,389.8l-4-5.8h-4.5v5.8h-4.9v-21h9.1c5.6,0,9.1,2.9,9.1,7.6s-1.6,5.5-4.3,6.6l4.7,6.8h-5.2ZM1181.5,372.8h-4v7.3h4c3,0,4.5-1.4,4.5-3.7s-1.5-3.7-4.5-3.7Z"/>
      <path class="cls-10" d="M1193.4,379.3c0-6.2,4.9-10.9,11.5-10.9s11.5,4.6,11.5,10.9-4.9,10.9-11.5,10.9-11.5-4.6-11.5-10.9ZM1211.5,379.3c0-4-2.8-6.7-6.6-6.7s-6.6,2.7-6.6,6.7,2.8,6.7,6.6,6.7,6.6-2.7,6.6-6.7Z"/>
      <path class="cls-10" d="M1218.4,387.8l1.6-3.7c1.8,1.3,4.4,2.2,6.9,2.2s4-1,4-2.2c0-3.9-12.2-1.2-12.2-9s2.9-6.5,8.8-6.5,5.3.6,7.3,1.9l-1.5,3.7c-1.9-1.1-4-1.6-5.8-1.6-2.9,0-4,1.1-4,2.4,0,3.9,12.2,1.2,12.2,8.9s-2.9,6.5-8.9,6.5-6.7-1-8.5-2.4Z"/>
    </g>
  </g>
</svg>