<?xml version="1.0" encoding="UTF-8"?>
<svg id="Layer_1" xmlns="http://www.w3.org/2000/svg" version="1.1" viewBox="0 0 500 720">
  <!-- Generator: Adobe Illustrator 29.3.0, SVG Export Plug-In . SVG Version: 2.1.0 Build 146)  -->
  <defs>
    <style>
      .st0 {
        fill: none;
      }

      .st1 {
        fill: #00b7a8;
      }

      .st2 {
        fill: #fdc763;
      }

      .st3 {
        fill: #6ac8ca;
      }

      .st4 {
        fill: #145063;
      }

      .st5 {
        opacity: .2;
      }

      .st6 {
        fill: #f3a791;
      }
    </style>
  </defs>
  <rect class="st0" width="500.2" height="720"/>
  <g id="img2">
    <g id="dots" class="st5">
      <path class="st1" d="M120.7,86.8c0,2.2-1.8,4-4,4s-4-1.8-4-4,1.8-4,4-4,4,1.8,4,4Z"/>
      <path class="st1" d="M165.3,86.8c0,2.2-1.8,4-4,4s-4-1.8-4-4,1.8-4,4-4,4,1.8,4,4Z"/>
      <path class="st1" d="M208.7,86.8c0,2.2-1.8,4-4,4s-4-1.8-4-4,1.8-4,4-4,4,1.8,4,4Z"/>
      <path class="st1" d="M252.8,86.8c0,2.2-1.8,4-4,4s-4-1.8-4-4,1.8-4,4-4,4,1.8,4,4Z"/>
      <path class="st1" d="M296,86.8c0,2.2-1.8,4-4,4s-4-1.8-4-4,1.8-4,4-4,4,1.8,4,4Z"/>
      <path class="st1" d="M340.5,86.8c0,2.2-1.8,4-4,4s-4-1.8-4-4,1.8-4,4-4,4,1.8,4,4Z"/>
      <path class="st1" d="M384,86.8c0,2.2-1.8,4-4,4s-4-1.8-4-4,1.8-4,4-4,4,1.8,4,4Z"/>
      <path class="st1" d="M428,86.8c0,2.2-1.8,4-4,4s-4-1.8-4-4,1.8-4,4-4,4,1.8,4,4Z"/>
      <path class="st1" d="M120.7,42.7c0,2.2-1.8,4-4,4s-4-1.8-4-4,1.8-4,4-4,4,1.8,4,4Z"/>
      <path class="st1" d="M165.3,42.7c0,2.2-1.8,4-4,4s-4-1.8-4-4,1.8-4,4-4,4,1.8,4,4Z"/>
      <path class="st1" d="M208.7,42.7c0,2.2-1.8,4-4,4s-4-1.8-4-4,1.8-4,4-4,4,1.8,4,4Z"/>
      <path class="st1" d="M252.8,42.7c0,2.2-1.8,4-4,4s-4-1.8-4-4,1.8-4,4-4,4,1.8,4,4Z"/>
      <path class="st1" d="M296,42.7c0,2.2-1.8,4-4,4s-4-1.8-4-4,1.8-4,4-4,4,1.8,4,4Z"/>
      <path class="st1" d="M340.5,42.7c0,2.2-1.8,4-4,4s-4-1.8-4-4,1.8-4,4-4,4,1.8,4,4Z"/>
      <path class="st1" d="M384,42.7c0,2.2-1.8,4-4,4s-4-1.8-4-4,1.8-4,4-4,4,1.8,4,4Z"/>
      <path class="st1" d="M428,42.7c0,2.2-1.8,4-4,4s-4-1.8-4-4,1.8-4,4-4,4,1.8,4,4Z"/>
      <path class="st1" d="M120.7,130.3c0,2.2-1.8,4-4,4s-4-1.8-4-4,1.8-4,4-4,4,1.8,4,4Z"/>
      <path class="st1" d="M165.3,130.3c0,2.2-1.8,4-4,4s-4-1.8-4-4,1.8-4,4-4,4,1.8,4,4Z"/>
      <path class="st1" d="M208.7,130.3c0,2.2-1.8,4-4,4s-4-1.8-4-4,1.8-4,4-4,4,1.8,4,4Z"/>
      <path class="st1" d="M252.8,130.3c0,2.2-1.8,4-4,4s-4-1.8-4-4,1.8-4,4-4,4,1.8,4,4Z"/>
      <path class="st1" d="M296,130.3c0,2.2-1.8,4-4,4s-4-1.8-4-4,1.8-4,4-4,4,1.8,4,4Z"/>
      <path class="st1" d="M340.5,130.3c0,2.2-1.8,4-4,4s-4-1.8-4-4,1.8-4,4-4,4,1.8,4,4Z"/>
      <path class="st1" d="M384,130.3c0,2.2-1.8,4-4,4s-4-1.8-4-4,1.8-4,4-4,4,1.8,4,4Z"/>
      <path class="st1" d="M428,130.3c0,2.2-1.8,4-4,4s-4-1.8-4-4,1.8-4,4-4,4,1.8,4,4Z"/>
      <path class="st1" d="M120.7,174.2c0,2.2-1.8,4-4,4s-4-1.8-4-4,1.8-4,4-4,4,1.8,4,4Z"/>
      <path class="st1" d="M165.3,174.2c0,2.2-1.8,4-4,4s-4-1.8-4-4,1.8-4,4-4,4,1.8,4,4Z"/>
      <path class="st1" d="M208.7,174.2c0,2.2-1.8,4-4,4s-4-1.8-4-4,1.8-4,4-4,4,1.8,4,4Z"/>
      <path class="st1" d="M252.8,174.2c0,2.2-1.8,4-4,4s-4-1.8-4-4,1.8-4,4-4,4,1.8,4,4Z"/>
      <path class="st1" d="M296,174.2c0,2.2-1.8,4-4,4s-4-1.8-4-4,1.8-4,4-4,4,1.8,4,4Z"/>
      <path class="st1" d="M340.5,174.2c0,2.2-1.8,4-4,4s-4-1.8-4-4,1.8-4,4-4,4,1.8,4,4Z"/>
      <path class="st1" d="M384,174.2c0,2.2-1.8,4-4,4s-4-1.8-4-4,1.8-4,4-4,4,1.8,4,4Z"/>
      <path class="st1" d="M428,174.2c0,2.2-1.8,4-4,4s-4-1.8-4-4,1.8-4,4-4,4,1.8,4,4Z"/>
      <path class="st1" d="M120.7,217.4c0,2.2-1.8,4-4,4s-4-1.8-4-4,1.8-4,4-4,4,1.8,4,4Z"/>
      <path class="st1" d="M165.3,217.4c0,2.2-1.8,4-4,4s-4-1.8-4-4,1.8-4,4-4,4,1.8,4,4Z"/>
      <path class="st1" d="M208.7,217.4c0,2.2-1.8,4-4,4s-4-1.8-4-4,1.8-4,4-4,4,1.8,4,4Z"/>
      <path class="st1" d="M252.8,217.4c0,2.2-1.8,4-4,4s-4-1.8-4-4,1.8-4,4-4,4,1.8,4,4Z"/>
      <path class="st1" d="M296,217.4c0,2.2-1.8,4-4,4s-4-1.8-4-4,1.8-4,4-4,4,1.8,4,4Z"/>
      <path class="st1" d="M340.5,217.4c0,2.2-1.8,4-4,4s-4-1.8-4-4,1.8-4,4-4,4,1.8,4,4Z"/>
      <path class="st1" d="M384,217.4c0,2.2-1.8,4-4,4s-4-1.8-4-4,1.8-4,4-4,4,1.8,4,4Z"/>
      <path class="st1" d="M428,217.4c0,2.2-1.8,4-4,4s-4-1.8-4-4,1.8-4,4-4,4,1.8,4,4Z"/>
      <path class="st1" d="M120.7,590.6c0,2.2-1.8,4-4,4s-4-1.8-4-4,1.8-4,4-4,4,1.8,4,4Z"/>
      <path class="st1" d="M165.3,590.6c0,2.2-1.8,4-4,4s-4-1.8-4-4,1.8-4,4-4,4,1.8,4,4Z"/>
      <path class="st1" d="M208.7,590.6c0,2.2-1.8,4-4,4s-4-1.8-4-4,1.8-4,4-4,4,1.8,4,4Z"/>
      <path class="st1" d="M252.8,590.6c0,2.2-1.8,4-4,4s-4-1.8-4-4,1.8-4,4-4,4,1.8,4,4Z"/>
      <path class="st1" d="M296,590.6c0,2.2-1.8,4-4,4s-4-1.8-4-4,1.8-4,4-4,4,1.8,4,4Z"/>
      <path class="st1" d="M340.5,590.6c0,2.2-1.8,4-4,4s-4-1.8-4-4,1.8-4,4-4,4,1.8,4,4Z"/>
      <path class="st1" d="M384,590.6c0,2.2-1.8,4-4,4s-4-1.8-4-4,1.8-4,4-4,4,1.8,4,4Z"/>
      <path class="st1" d="M428,590.6c0,2.2-1.8,4-4,4s-4-1.8-4-4,1.8-4,4-4,4,1.8,4,4Z"/>
      <path class="st1" d="M120.7,633.8c0,2.2-1.8,4-4,4s-4-1.8-4-4,1.8-4,4-4,4,1.8,4,4Z"/>
      <path class="st1" d="M165.3,633.8c0,2.2-1.8,4-4,4s-4-1.8-4-4,1.8-4,4-4,4,1.8,4,4Z"/>
      <path class="st1" d="M208.7,633.8c0,2.2-1.8,4-4,4s-4-1.8-4-4,1.8-4,4-4,4,1.8,4,4Z"/>
      <path class="st1" d="M252.8,633.8c0,2.2-1.8,4-4,4s-4-1.8-4-4,1.8-4,4-4,4,1.8,4,4Z"/>
      <path class="st1" d="M296,633.8c0,2.2-1.8,4-4,4s-4-1.8-4-4,1.8-4,4-4,4,1.8,4,4Z"/>
      <path class="st1" d="M340.5,633.8c0,2.2-1.8,4-4,4s-4-1.8-4-4,1.8-4,4-4,4,1.8,4,4Z"/>
      <path class="st1" d="M384,633.8c0,2.2-1.8,4-4,4s-4-1.8-4-4,1.8-4,4-4,4,1.8,4,4Z"/>
      <path class="st1" d="M428,633.8c0,2.2-1.8,4-4,4s-4-1.8-4-4,1.8-4,4-4,4,1.8,4,4Z"/>
      <path class="st1" d="M120.7,677.7c0,2.2-1.8,4-4,4s-4-1.8-4-4,1.8-4,4-4,4,1.8,4,4Z"/>
      <path class="st1" d="M165.3,677.7c0,2.2-1.8,4-4,4s-4-1.8-4-4,1.8-4,4-4,4,1.8,4,4Z"/>
      <path class="st1" d="M208.7,677.7c0,2.2-1.8,4-4,4s-4-1.8-4-4,1.8-4,4-4,4,1.8,4,4Z"/>
      <path class="st1" d="M252.8,677.7c0,2.2-1.8,4-4,4s-4-1.8-4-4,1.8-4,4-4,4,1.8,4,4Z"/>
      <path class="st1" d="M296,677.7c0,2.2-1.8,4-4,4s-4-1.8-4-4,1.8-4,4-4,4,1.8,4,4Z"/>
      <path class="st1" d="M340.5,677.7c0,2.2-1.8,4-4,4s-4-1.8-4-4,1.8-4,4-4,4,1.8,4,4Z"/>
      <path class="st1" d="M384,677.7c0,2.2-1.8,4-4,4s-4-1.8-4-4,1.8-4,4-4,4,1.8,4,4Z"/>
      <path class="st1" d="M428,677.7c0,2.2-1.8,4-4,4s-4-1.8-4-4,1.8-4,4-4,4,1.8,4,4Z"/>
      <path class="st1" d="M74.9,86.8c0,2.2-1.8,4-4,4s-4-1.8-4-4,1.8-4,4-4,4,1.8,4,4Z"/>
      <path class="st1" d="M74.9,42.7c0,2.2-1.8,4-4,4s-4-1.8-4-4,1.8-4,4-4,4,1.8,4,4Z"/>
      <path class="st1" d="M74.9,130.3c0,2.2-1.8,4-4,4s-4-1.8-4-4,1.8-4,4-4,4,1.8,4,4Z"/>
      <path class="st1" d="M74.9,174.2c0,2.2-1.8,4-4,4s-4-1.8-4-4,1.8-4,4-4,4,1.8,4,4Z"/>
      <path class="st1" d="M74.9,217.4c0,2.2-1.8,4-4,4s-4-1.8-4-4,1.8-4,4-4,4,1.8,4,4Z"/>
      <path class="st1" d="M74.9,590.6c0,2.2-1.8,4-4,4s-4-1.8-4-4,1.8-4,4-4,4,1.8,4,4Z"/>
      <path class="st1" d="M74.9,633.8c0,2.2-1.8,4-4,4s-4-1.8-4-4,1.8-4,4-4,4,1.8,4,4Z"/>
      <path class="st1" d="M74.9,677.7c0,2.2-1.8,4-4,4s-4-1.8-4-4,1.8-4,4-4,4,1.8,4,4Z"/>
    </g>
    <g id="bt1">
      <path id="bg1" class="st3" d="M54.3,208.4l95.4,187.3c26.1,59.5,92.9,86.3,152.3,56.9l-94.1,150.1c-102.5-17.2-184.1-99.1-202.2-201.3-10.5-59.3,3.1-140.8,42.2-188.4s2.9-5.2,6.5-4.6Z"/>
      <g id="ic1">
        <g>
          <path class="st4" d="M113.8,397.4h-4.6v-5.5h-5.5v-4c7.3-1.3,12.9-7.7,12.9-15.5s-7-15.7-15.7-15.7-13.1,4.6-15,11.2c-1.8-1.2-3.9-1.9-6.2-1.9-5.5,0-10.1,3.9-10.9,9.3-3.2.4-5.7,3.1-5.7,6.4s2.9,6.5,6.5,6.5h2.8v3.7h-5.5v5.5h-4.6c-1.5,0-2.8,1.2-2.8,2.8v7.4c0,1.5,1.2,2.8,2.8,2.8h1.8v1.8h-1.8v1.8h11.1v-1.8h-1.8v-1.8h1.8c1.5,0,2.8-1.2,2.8-2.8v-4.6h3.7v4.6c0,1.5,1.2,2.8,2.8,2.8h1.8v1.8h-1.8v1.8h11.1v-1.8h-1.8v-1.8h1.8c1.5,0,2.8-1.2,2.8-2.8v-4.6h3.7v4.6c0,1.5,1.2,2.8,2.8,2.8h1.8v1.8h-1.8v1.8h11.1v-1.8h-1.8v-1.8h1.8c1.5,0,2.8-1.2,2.8-2.8v-7.4c0-1.5-1.2-2.8-2.8-2.8h0ZM114.7,400.2v4.6h-12.9v-4.6c0-.5.4-.9.9-.9h11.1c.5,0,.9.4.9.9ZM92.5,373.4c0,.7,0,1.3.1,1.9-.4,0-.7,0-1.1,0s-.7,0-1.1,0c-.1-.7-.3-1.3-.5-1.9h2.5ZM100.8,358.6c2.1,0,3.9,2.2,5.1,5.5h-10.3c1.2-3.3,3.1-5.5,5.1-5.5h0ZM106.5,366c.4,1.7.7,3.6.8,5.5h-12.9c0-2,.3-3.9.8-5.5h11.4ZM114.6,371.5h-5.5c0-2-.3-3.8-.7-5.5h4.7c.9,1.7,1.4,3.6,1.6,5.5h0ZM114.6,373.4c-.1,2-.7,3.9-1.6,5.5h-4.7c.4-1.7.6-3.6.7-5.5h5.5ZM94.6,376c-.1-.8-.2-1.7-.2-2.6h12.9c0,2-.3,3.9-.8,5.5h-9.1c-.6-1.3-1.6-2.3-2.8-3h0ZM98,380.8h8c-1.2,3.3-3.1,5.5-5.1,5.5s-2.8-.2-4.2-.6c.9-1.1,1.4-2.5,1.4-4s0-.6,0-.9h0ZM105.5,385.5c1-1.2,1.8-2.8,2.4-4.7h4c-1.6,2.1-3.8,3.8-6.4,4.7ZM111.9,364.2h-4c-.6-1.9-1.4-3.5-2.4-4.7,2.5.9,4.7,2.6,6.4,4.7ZM96.1,359.4c-1,1.2-1.8,2.8-2.4,4.7h-4c1.6-2.1,3.8-3.8,6.4-4.7ZM88.6,366h4.7c-.4,1.7-.6,3.6-.7,5.5h-3.4c-.5-.9-1.1-1.6-1.8-2.3.3-1.1.7-2.2,1.2-3.2h0ZM64.8,381.7c0-2.5,2.1-4.6,4.6-4.6h.9c0,0,0-.8,0-.8.4-4.8,4.4-8.4,9.2-8.4s8.9,3.8,9.2,8.7v1.2c0,0,1.2-.4,1.2-.4.5-.2,1-.3,1.6-.3,2.5,0,4.6,2.1,4.6,4.6s-2.1,4.6-4.6,4.6h-22.2c-2.5,0-4.6-2.1-4.6-4.6h0ZM62,399.3h11.1c.5,0,.9.4.9.9v4.6h-12.9v-4.6c0-.5.4-.9.9-.9ZM69.4,412.2h-3.7v-1.8h3.7v1.8ZM73.1,408.5h-11.1c-.5,0-.9-.4-.9-.9v-.9h12.9v.9c0,.5-.4.9-.9.9ZM75.9,401.1v-.9c0-1.5-1.2-2.8-2.8-2.8h-4.6v-3.7h5.5v-5.5h12.9v9.2h-4.6c-1.5,0-2.8,1.2-2.8,2.8v.9h-3.7ZM94.4,404.8h-12.9v-4.6c0-.5.4-.9.9-.9h11.1c.5,0,.9.4.9.9v4.6ZM89.7,412.2h-3.7v-1.8h3.7v1.8ZM93.4,408.5h-11.1c-.5,0-.9-.4-.9-.9v-.9h12.9v.9c0,.5-.4.9-.9.9ZM96.2,401.1v-.9c0-1.5-1.2-2.8-2.8-2.8h-4.6v-9.2h2.8c1.3,0,2.5-.4,3.6-1.1,1.8.7,3.7,1.1,5.7,1.1s.6,0,.9,0v5.6h5.5v3.7h-4.6c-1.5,0-2.8,1.2-2.8,2.8v.9h-3.7ZM110.1,412.2h-3.7v-1.8h3.7v1.8ZM113.8,408.5h-11.1c-.5,0-.9-.4-.9-.9v-.9h12.9v.9c0,.5-.4.9-.9.9Z"/>
          <path class="st4" d="M73.1,378.9c-1.5,0-2.8,1.2-2.8,2.8s1.2,2.8,2.8,2.8,2.8-1.2,2.8-2.8-1.2-2.8-2.8-2.8ZM73.1,382.6c-.5,0-.9-.4-.9-.9s.4-.9.9-.9.9.4.9.9-.4.9-.9.9Z"/>
          <path class="st4" d="M80.5,378.9c-1.5,0-2.8,1.2-2.8,2.8s1.2,2.8,2.8,2.8,2.8-1.2,2.8-2.8-1.2-2.8-2.8-2.8ZM80.5,382.6c-.5,0-.9-.4-.9-.9s.4-.9.9-.9.9.4.9.9-.4.9-.9.9Z"/>
          <path class="st4" d="M87.9,378.9c-1.5,0-2.8,1.2-2.8,2.8s1.2,2.8,2.8,2.8,2.8-1.2,2.8-2.8-1.2-2.8-2.8-2.8ZM87.9,382.6c-.5,0-.9-.4-.9-.9s.4-.9.9-.9.9.4.9.9-.4.9-.9.9Z"/>
          <path class="st4" d="M79.6,369.7v1.8c2.4,0,4.6,1.6,5.3,4l1.8-.5c-.9-3.1-3.8-5.3-7.1-5.3Z"/>
        </g>
      </g>
      <g>
        <path class="st4" d="M56.3,434.4v2.9h-4.7v11.6h-3.8v-11.6h-4.8v-2.9h13.3Z"/>
        <path class="st4" d="M62.7,449.1c-1.2,0-2.2-.2-3.1-.7-.9-.5-1.6-1.1-2-1.9-.5-.8-.7-1.9-.7-3.1s.2-2.2.7-3.1c.5-.8,1.2-1.5,2-1.9.9-.5,1.9-.7,3-.7s2.1.2,2.9.7c.8.4,1.4,1.1,1.9,1.8.4.8.6,1.7.6,2.7s0,.5,0,.8c0,.3,0,.5,0,.6h-8.7v-2h7.1l-1.8.7c0-.9-.2-1.6-.5-2s-.8-.7-1.5-.7-.9.1-1.2.3c-.3.2-.6.6-.7,1s-.3,1.1-.3,1.8,0,1.3.3,1.8c.2.4.5.8.8,1,.4.2.8.3,1.3.3s1-.1,1.3-.3c.3-.2.6-.5.7-.9l3,1c-.2.6-.6,1.1-1.1,1.6s-1.1.8-1.8,1c-.7.2-1.4.3-2.2.3Z"/>
        <path class="st4" d="M74.4,437.7c1.1,0,2,.2,2.8.5.7.3,1.3.7,1.7,1.3.4.5.7,1.1.8,1.7l-3.5,1.1c-.1-.6-.3-1.1-.6-1.4s-.7-.5-1.2-.5-.9.1-1.2.3c-.3.2-.6.5-.7,1-.2.5-.2,1.1-.2,1.8s0,1.3.3,1.7c.2.4.4.8.7,1,.3.2.7.3,1.1.3s.7,0,.9-.2c.2-.1.4-.3.6-.6s.3-.6.3-1l3.4,1.1c-.1.6-.4,1.2-.8,1.7s-1,.9-1.8,1.2-1.6.4-2.6.4-2.3-.2-3.1-.7c-.9-.4-1.6-1.1-2.1-2-.5-.9-.7-1.9-.7-3.1s.2-2.2.7-3.1,1.2-1.5,2-2c.9-.4,1.9-.7,3-.7Z"/>
        <path class="st4" d="M80.8,448.9v-11h3.3l.2,3.8-.4-.4c.1-.8.4-1.5.8-2,.4-.5.8-.9,1.4-1.2.6-.3,1.2-.4,1.9-.4s1.4.1,2,.4c.6.3,1,.7,1.3,1.3.3.6.5,1.3.5,2.2v7.3h-3.7v-6.3c0-.8-.1-1.3-.4-1.6s-.7-.4-1.1-.4-.7,0-1,.3c-.3.2-.5.4-.7.8-.2.4-.3.9-.3,1.5v5.8h-3.7Z"/>
        <path class="st4" d="M98.8,437.7c1.2,0,2.2.2,3,.7.9.4,1.6,1.1,2,2s.7,1.9.7,3.1-.2,2.2-.7,3.1c-.5.9-1.2,1.5-2,2-.9.4-1.9.7-3,.7s-2.1-.2-3-.7c-.9-.4-1.6-1.1-2.1-2-.5-.9-.7-1.9-.7-3.1s.2-2.2.7-3.1,1.2-1.5,2.1-2c.9-.4,1.9-.7,3-.7ZM98.8,440.3c-.4,0-.8.1-1.1.3-.3.2-.5.5-.7,1-.2.5-.2,1-.2,1.8s0,1.3.2,1.7c.2.4.4.8.7,1,.3.2.7.3,1.1.3s.8-.1,1.1-.3c.3-.2.5-.5.7-1,.2-.4.2-1,.2-1.7s0-1.3-.2-1.8c-.2-.5-.4-.8-.7-1-.3-.2-.7-.3-1.1-.3Z"/>
        <path class="st4" d="M109.5,433.2v11.9c0,.5,0,.8.2,1,.2.2.4.3.8.3s.4,0,.5,0,.3,0,.5-.1l-.2,2.2c-.3.2-.6.3-1,.4-.4.1-.8.2-1.3.2-1.2,0-2-.3-2.6-.8-.5-.5-.8-1.4-.8-2.7v-12.4h3.7Z"/>
        <path class="st4" d="M117.4,437.7c1.2,0,2.2.2,3,.7.9.4,1.6,1.1,2,2s.7,1.9.7,3.1-.2,2.2-.7,3.1c-.5.9-1.2,1.5-2,2-.9.4-1.9.7-3,.7s-2.1-.2-3-.7c-.9-.4-1.6-1.1-2.1-2-.5-.9-.7-1.9-.7-3.1s.2-2.2.7-3.1,1.2-1.5,2.1-2c.9-.4,1.9-.7,3-.7ZM117.4,440.3c-.4,0-.8.1-1.1.3-.3.2-.5.5-.7,1-.2.5-.2,1-.2,1.8s0,1.3.2,1.7c.2.4.4.8.7,1,.3.2.7.3,1.1.3s.8-.1,1.1-.3c.3-.2.5-.5.7-1,.2-.4.2-1,.2-1.7s0-1.3-.2-1.8c-.2-.5-.4-.8-.7-1-.3-.2-.7-.3-1.1-.3Z"/>
        <path class="st4" d="M131.3,446.5c1.3,0,2.3.3,2.9.8.7.5,1,1.3,1,2.3s-.2,1.7-.7,2.3c-.5.6-1.2,1.1-2.1,1.4-.9.3-2,.5-3.2.5-2,0-3.4-.2-4.3-.7-.9-.5-1.3-1.2-1.3-2s.2-1.1.7-1.5c.5-.4,1.3-.6,2.5-.6v.4c-1-.1-1.6-.4-2.1-.8-.4-.4-.7-1-.7-1.7s.3-1.3.8-1.7c.6-.4,1.3-.7,2.2-.7l1.4.6h-.4c-.6,0-1,.1-1.2.3-.2.2-.4.4-.4.6s.1.4.3.6c.2.1.5.2.9.2h3.5ZM129.4,437.7c1.1,0,2.1.1,2.9.4.8.3,1.4.7,1.8,1.3s.6,1.2.6,2-.2,1.5-.6,2c-.4.6-1,1-1.8,1.3s-1.7.4-2.9.4c-1.7,0-3.1-.3-4-1-.9-.6-1.4-1.6-1.4-2.8s.2-1.5.6-2,1-1,1.8-1.3c.8-.3,1.8-.4,2.9-.4ZM129.2,451.2c.7,0,1.3,0,1.7-.1s.8-.2,1-.4c.2-.2.4-.4.4-.6s0-.4-.2-.5c-.2-.1-.5-.2-.9-.2h-3.9c-.3,0-.5,0-.7.2s-.3.3-.3.5c0,.3.2.6.7.8s1.2.3,2.1.3ZM129.4,439.8c-.5,0-.9.1-1.2.4-.3.3-.5.7-.5,1.2s.2.9.5,1.2.7.4,1.2.4.9-.1,1.2-.4c.3-.3.5-.7.5-1.2s-.2-.9-.5-1.2c-.3-.3-.7-.4-1.2-.4ZM135.1,435l.3,2.5c0,0-.2,0-.3,0,0,0-.2,0-.3,0-.6,0-1.1.2-1.4.5-.3.3-.5.7-.5,1.2l-1.3-.5c0-.6.1-1.2.3-1.7.2-.6.6-1,1-1.4.5-.4,1-.5,1.7-.5h.2c0,0,.1,0,.2,0Z"/>
        <path class="st4" d="M137.8,436.6c-.8,0-1.3-.1-1.7-.4s-.5-.7-.5-1.4.2-1.1.5-1.4.9-.4,1.7-.4,1.3.1,1.7.4c.4.3.5.7.5,1.4s-.2,1.1-.5,1.4c-.4.3-.9.4-1.7.4ZM139.6,437.9v11h-3.7v-11h3.7Z"/>
        <path class="st4" d="M147.6,441.9c0-.5-.1-.9-.4-1.2s-.7-.5-1.2-.5-.9.1-1.2.4c-.3.2-.6.7-.7,1.3l-3.2-.7c.2-1.1.7-1.9,1.6-2.5.9-.6,2.1-.9,3.7-.9s2,.2,2.7.5c.8.3,1.3.8,1.7,1.4.4.6.6,1.4.6,2.3v4c0,.6.3.9.8.9s.5,0,.6,0l-.2,2.1c-.4.2-1,.3-1.6.3s-1.1,0-1.5-.3c-.4-.2-.8-.5-1-.8-.2-.4-.4-.8-.4-1.4h0c0-.1.4-.3.4-.3,0,.6-.2,1.2-.6,1.6-.4.4-.9.7-1.5.9s-1.2.3-1.9.3-1.4-.1-2-.4c-.6-.2-1-.6-1.3-1-.3-.4-.5-1-.5-1.7s.2-1.4.7-2c.5-.5,1.2-.9,2.3-1.1l4.2-.9v2s-2.1.4-2.1.4c-.4,0-.8.2-1,.4-.2.2-.3.4-.3.8s.1.6.4.7.5.2.8.2.5,0,.7-.1.4-.2.6-.3c.2-.2.3-.3.4-.6s.2-.5.2-.8v-2.9Z"/>
      </g>
    </g>
    <g id="bt2">
      <path id="bg2" class="st2" d="M486.2,273.5c14,42.5,17.8,85.8,9.9,129.9-23.1,127.7-147,218.8-276.1,201.2l128.4-202c23.5-52,4-106-41.3-137.7l179.2,8.7Z"/>
      <g id="ic2">
        <g>
          <path class="st4" d="M436.1,407c-.6.3-3.6,1.8-4.1,2.1-4.8,2.7-10.3,5.7-15.5,5.2l-18.6-1.7s0,0,0,0h-5.1v-9.2h5.1c.2,0,.4,0,.5-.2,0,0,4.4-2.5,6.6-3.6.4-.2.6-.7.3-1.1-.2-.4-.7-.6-1.1-.3-1.9,1-6.1,3.2-6.7,3.7h-5.7c-.5,0-.8.4-.8.8v10.8c0,.5.4.8.8.8h5.9l18.6,1.7c.4,0,.8,0,1.3,0,5.3,0,10.6-2.9,15.2-5.5.6-.3,3.6-1.8,4.1-2.1.4-.2.5-.7.3-1.1-.2-.4-3.2.7-3.6.9l2.5-1.2Z"/>
          <path class="st4" d="M417.6,416.5c-.4,0-.9,0-1.3,0l-18.6-1.7h-5.9c-.7,0-1.3-.6-1.3-1.3v-10.8c0-.7.6-1.3,1.3-1.3h5.5c1.1-.7,6.6-3.6,6.6-3.6.3-.2.6-.2,1,0,.3.1.6.3.7.6.3.6,0,1.4-.5,1.7-2.1,1.1-6.2,3.4-6.6,3.6-.2.2-.5.3-.8.3h-4.7v8.3h4.7s0,0,.1,0l18.6,1.7c5.1.5,10.5-2.5,15.3-5.2.3-.1.9-.5,1.7-.9h0s0,0,0,0l2.5-1.2.2.3c.5-.1.9-.2,1.2,0,.2,0,.3.2.4.3.2.3.2.6.1,1,0,.3-.3.6-.6.8-.3.1-1.1.6-1.9,1-.9.5-1.9,1-2.2,1.2-4.7,2.6-10,5.5-15.4,5.5ZM391.8,402.3c-.2,0-.4.2-.4.4v10.8c0,.2.2.4.4.4h5.9l18.6,1.7c.4,0,.8,0,1.2,0,5.2,0,10.4-2.9,15-5.4.3-.2,1.3-.7,2.3-1.2.8-.4,1.6-.8,1.9-1,0,0,.2-.1.2-.2,0,0,0,0,0-.1-.5,0-1.7.4-2.5.7-.9.5-1.9,1-2.2,1.2-4.9,2.7-10.4,5.8-15.8,5.3l-18.6-1.7h-5.6v-10.1h5.6c0,0,.2,0,.2,0,.1-.1,4.9-2.8,6.7-3.7.2,0,.3-.3.2-.5,0,0-.1-.2-.2-.2,0,0-.2,0-.3,0-2.4,1.2-6.2,3.3-6.6,3.6h-.1c0,0-5.8,0-5.8,0Z"/>
        </g>
        <g>
          <path class="st4" d="M446.2,399.1c-.9-1.2-2.4-1.6-3.7-1,0-.5-.2-1-.5-1.5-.8-1.1-2.4-1.5-3.6-.9l-2,1c0-.5-.2-.9-.4-1.3-.8-1.3-2.4-1.7-3.7-1l-1.5.8c0-.6-.2-1.1-.6-1.6-.9-1.2-2.4-1.5-3.7-.9l-10.5,5.5c-1.2-.5-5-1.7-9.4-.9-.8.1-1.5.3-2.3.6-.4.1-.7.6-.5,1,.1.4.6.7,1,.5.7-.2,1.4-.4,2.1-.6,4.7-.9,8.7.9,8.8.9.1,0,.2,0,.3,0h11c.8,0,1.4.6,1.4,1.4s-.5,1.3-1.2,1.4l-13.9,1.8c-.4,0-.7.4-.7.8,0,.4.3.8.7.8l5.9.7c5.7.7,11.4-.4,16.4-3.2l7.4-4.1c.6-.3,1.4-.2,1.9.4.6.7.3,1.8-.5,2.2l-7.9,4.3c-.9.5-.1,2,.8,1.4l7.9-4.3c.8-.4,1.4-1.2,1.6-2.1.2-.9,0-1.8-.6-2.6h0ZM427.4,394.3c.6-.3,1.2-.1,1.6.4.5.6.2,1.5-.4,1.9l-3.5,1.9h-5.6l7.9-4.2ZM428.1,398.7l5-2.7c.5-.3,1.2-.1,1.6.4.4.6.1,1.4-.5,1.6l-4.3,2.3c-.3-.8-1-1.4-1.8-1.7h0ZM434.9,402.4c-4.5,2.5-9.6,3.6-14.7,3.1l7.3-.9c1.3-.2,2.4-1.2,2.6-2.5l9.1-4.8c.5-.3,1.2-.1,1.5.4.4.6.2,1.4-.4,1.7l-5.4,3Z"/>
          <path class="st4" d="M436.9,408.7c-.2,0-.4,0-.6-.2-.4-.2-.7-.7-.7-1.2,0-.4.3-.8.7-1l7.9-4.3c.3-.1.5-.4.5-.7,0-.3,0-.6-.2-.8-.3-.4-.9-.5-1.3-.3l-7.4,4.1c-5.1,2.8-10.9,4-16.7,3.3l-5.9-.7c-.6,0-1.1-.6-1.1-1.3,0-.6.5-1.2,1.1-1.3l13.9-1.8c.5,0,.8-.5.8-1s-.4-1-1-1h-11c-.2,0-.4,0-.5-.1,0,0-4-1.7-8.5-.9-.7.1-1.4.3-2,.5-.7.2-1.4-.1-1.6-.8-.2-.7.1-1.4.8-1.6.8-.3,1.6-.5,2.4-.6,4.3-.8,8.1.3,9.4.8l10.3-5.4c1.5-.8,3.3-.4,4.3,1,.3.3.4.7.5,1.2l.9-.5c1.5-.8,3.4-.3,4.3,1.2.2.3.3.6.4.9l1.4-.7c1.4-.8,3.3-.3,4.2,1,.2.3.4.7.5,1.1,1.4-.3,2.8.2,3.7,1.3h0c.6.8.9,1.9.6,2.9-.2,1-.9,1.9-1.8,2.4l-7.9,4.3c-.2.1-.4.2-.6.2ZM443.7,399.1c.6,0,1.2.3,1.5.8.3.4.5,1,.3,1.6-.1.6-.5,1-1,1.3l-7.9,4.3c-.1,0-.2.1-.2.3,0,.2,0,.3.2.4,0,0,.2,0,.3,0l7.9-4.3c.7-.4,1.2-1,1.3-1.8.2-.8,0-1.6-.5-2.2h0c-.7-1-2-1.3-3.2-.9l-.6.2v-.6c0-.4-.2-.9-.5-1.2-.7-1-2-1.3-3.1-.7l-2.6,1.4v-.7c0-.4-.2-.8-.4-1.1-.7-1.1-2-1.5-3.1-.9l-2.1,1.1v-.7c0-.5-.2-.9-.5-1.3-.7-1-2-1.3-3.1-.7l-10.7,5.6h-.2c-1-.5-4.8-1.7-9.1-.9-.7.1-1.5.3-2.3.6-.2,0-.3.3-.2.5,0,.2.3.3.5.2.7-.2,1.5-.4,2.2-.6,4.8-.9,9,.9,9,.9,0,0,0,0,.1,0h11c1,0,1.9.8,1.9,1.9s-.7,1.7-1.6,1.9l-13.9,1.8c-.2,0-.3.2-.3.4,0,.2.1.3.3.4l5.9.7c5.6.7,11.2-.4,16.1-3.2l7.4-4.1c.3-.2.6-.2.9-.2ZM422.5,406c-.8,0-1.6,0-2.4-.1l-4.1-.4,11.3-1.4c1.1-.1,2-1,2.2-2.1v-.2s9.3-4.9,9.3-4.9c.7-.4,1.6-.2,2.1.5.3.4.4.8.3,1.3-.1.5-.4.9-.8,1.1l-5.4,3c-3.9,2.2-8.2,3.3-12.6,3.3ZM430.5,402.3c-.2.7-.6,1.4-1.1,1.8,1.8-.5,3.6-1.3,5.3-2.2l5.4-3c.2,0,.3-.3.4-.5,0-.2,0-.4-.1-.6-.2-.3-.6-.4-1-.2l-8.9,4.7ZM429.7,400.9l-.2-.4c-.3-.7-.8-1.2-1.5-1.4l-.9-.3,5.9-3.2c.8-.4,1.7-.2,2.2.6.2.4.3.8.2,1.3-.1.4-.4.8-.8,1l-4.7,2.5ZM429.1,398.6c.4.3.7.6,1,1.1l3.9-2.1c.2,0,.3-.2.4-.4,0-.2,0-.4,0-.6-.2-.3-.6-.5-1-.3l-4.2,2.3ZM425.1,398.9h-7.5l9.5-5c.8-.4,1.7-.2,2.2.5.3.4.4.9.3,1.4-.1.5-.4.9-.9,1.1l-3.6,2ZM421.3,398h3.6l3.4-1.9c.2-.1.3-.3.4-.5,0-.2,0-.5-.1-.7-.2-.3-.7-.4-1-.2l-6.3,3.3Z"/>
        </g>
        <g>
          <path class="st4" d="M410.1,382.5c.9,0,1.8-.2,2.6-.6.4-.2.6-.7.4-1.1-.2-.4-.7-.6-1.1-.4-.6.3-1.3.4-1.9.4-2.5,0-4.5-2-4.5-4.5s2-4.5,4.5-4.5,4.5,2,4.5,4.5-.2,1.5-.6,2.2c-.2.4,0,.9.3,1.1.4.2.9,0,1.1-.3.5-.9.8-1.9.8-3,0-3.4-2.8-6.2-6.2-6.2s-6.2,2.8-6.2,6.2,2.8,6.2,6.2,6.2Z"/>
          <path class="st4" d="M410.1,382.9c-3.7,0-6.6-3-6.6-6.6s3-6.6,6.6-6.6,6.6,3,6.6,6.6-.3,2.2-.8,3.2c-.3.6-1.1.8-1.7.5-.6-.3-.8-1.1-.5-1.7.3-.6.5-1.3.5-2,0-2.3-1.8-4.1-4.1-4.1s-4.1,1.8-4.1,4.1,1.8,4.1,4.1,4.1,1.2-.1,1.8-.4c.6-.3,1.4,0,1.7.6.1.3.2.7,0,1s-.3.6-.7.7c-.9.4-1.8.6-2.8.6ZM410.1,370.6c-3.2,0-5.7,2.6-5.7,5.7s2.6,5.7,5.7,5.7,1.7-.2,2.5-.6c0,0,.2-.1.2-.2,0,0,0-.2,0-.3,0-.2-.3-.3-.5-.2-.7.3-1.4.5-2.1.5-2.7,0-5-2.2-5-5s2.2-5,5-5,5,2.2,5,5-.2,1.7-.6,2.4c0,.2,0,.4.1.5.2,0,.4,0,.5-.1.5-.8.7-1.8.7-2.8,0-3.2-2.6-5.7-5.7-5.7Z"/>
        </g>
        <g>
          <path class="st4" d="M397.3,378.8l1.7.3c.3,1.2.7,2.2,1.3,3.3l-1,1.4c-.5.7-.4,1.5.2,2.1l1.2,1.2c.6.6,1.5.6,2.1.2l1.4-1c1,.6,2.1,1.1,3.3,1.3l.3,1.7c.1.8.8,1.4,1.6,1.4h1.7c.8,0,1.5-.6,1.6-1.4l.3-1.7c1.2-.3,2.2-.7,3.3-1.3l1.4,1c.7.5,1.5.4,2.1-.2l1.2-1.2c.6-.6.6-1.5.2-2.1l-1-1.4c.6-1,1.1-2.1,1.3-3.3l1.7-.3c.8-.1,1.4-.8,1.4-1.6h0s4.9,0,4.9,0v10.5c0,1.1.9,1.9,1.9,1.9h3.5c.4,1.7,1.9,2.9,3.7,2.9s3.7-1.7,3.7-3.7-1.7-3.7-3.7-3.7-3.3,1.3-3.7,2.9h-3.5c-.2,0-.3-.1-.3-.3v-10.5h3.8c.4,1.7,1.9,2.9,3.7,2.9s3.7-1.7,3.7-3.7-1.7-3.7-3.7-3.7-3.3,1.3-3.7,2.9h-3.8v-10.5c0-.2.1-.3.3-.3h3.5c.4,1.7,1.9,2.9,3.7,2.9s3.7-1.7,3.7-3.7-1.7-3.7-3.7-3.7-3.3,1.3-3.7,2.9h-3.5c-1.1,0-1.9.9-1.9,1.9v10.5h-4.9c0-.8-.6-1.5-1.4-1.6l-1.7-.3c-.3-1.2-.7-2.2-1.3-3.3l1-1.4c.5-.7.4-1.5-.2-2.1l-1.2-1.2c-.6-.6-1.5-.6-2.1-.2l-1.4,1c-1-.6-2.1-1.1-3.3-1.3l-.3-1.7c-.1-.8-.8-1.4-1.6-1.4h-1.7c-.8,0-1.5.6-1.6,1.4l-.3,1.7c-1.2.3-2.2.7-3.3,1.3l-1.4-1c-.7-.5-1.5-.4-2.1.2l-1.2,1.2c-.6.6-.6,1.5-.2,2.1l1,1.4c-.6,1-1.1,2.1-1.3,3.3l-1.7.3c-.8.1-1.4.8-1.4,1.6v1.7c0,.8.6,1.5,1.4,1.6h0ZM438.2,386.6c1.2,0,2.1.9,2.1,2.1s-.9,2.1-2.1,2.1-2.1-.9-2.1-2.1.9-2.1,2.1-2.1h0ZM438.2,374.2c1.2,0,2.1.9,2.1,2.1s-.9,2.1-2.1,2.1-2.1-.9-2.1-2.1.9-2.1,2.1-2.1ZM438.2,361.9c1.2,0,2.1.9,2.1,2.1s-.9,2.1-2.1,2.1-2.1-.9-2.1-2.1.9-2.1,2.1-2.1ZM397.5,375.5l2.3-.3c.3,0,.6-.3.7-.7.2-1.3.8-2.6,1.5-3.7.2-.3.2-.7,0-1l-1.4-1.8,1.2-1.2,1.8,1.4c.3.2.7.2,1,0,1.1-.8,2.4-1.3,3.7-1.5.3,0,.6-.3.7-.7l.3-2.3h1.6l.3,2.3c0,.3.3.6.7.7,1.3.2,2.6.8,3.7,1.5.3.2.7.2,1,0l1.8-1.4,1.2,1.2-1.4,1.8c-.2.3-.2.7,0,1,.8,1.1,1.3,2.4,1.5,3.7,0,.3.3.6.7.7l2.3.3v1.6l-2.3.3c-.3,0-.6.3-.7.7-.3,1.3-.8,2.6-1.5,3.7-.2.3-.2.7,0,1l1.4,1.8-1.2,1.2-1.8-1.4c-.3-.2-.7-.2-1,0-1.1.8-2.4,1.3-3.7,1.5-.3,0-.6.3-.7.7l-.3,2.3h-1.6l-.3-2.3c0-.3-.3-.6-.7-.7-1.3-.3-2.6-.8-3.7-1.5-.3-.2-.7-.2-1,0l-1.8,1.4-1.2-1.2,1.4-1.8c.2-.3.2-.7,0-1-.8-1.1-1.3-2.4-1.5-3.7,0-.3-.3-.6-.7-.7l-2.3-.3v-1.6Z"/>
          <path class="st4" d="M438.2,392.9c-1.8,0-3.4-1.2-4-2.9h-3.2c-1.3,0-2.4-1.1-2.4-2.4v-10h-4c-.2.8-.8,1.5-1.7,1.6l-1.4.2c-.3,1-.7,1.9-1.2,2.8l.8,1.1c.6.8.5,2-.2,2.7l-1.2,1.2c-.7.7-1.9.8-2.7.2l-1.1-.8c-.9.5-1.8.9-2.8,1.2l-.2,1.4c-.2,1-1,1.8-2.1,1.8h-1.7c-1,0-1.9-.7-2.1-1.8l-.2-1.4c-1-.3-1.9-.7-2.8-1.2l-1.1.8c-.8.6-2,.5-2.7-.2l-1.2-1.2c-.7-.7-.8-1.9-.2-2.7l.8-1.1c-.5-.9-.9-1.8-1.2-2.8l-1.4-.2c-1-.2-1.8-1-1.8-2.1v-1.7c0-1,.7-1.9,1.8-2.1l1.4-.2c.3-1,.7-1.9,1.2-2.8l-.8-1.1c-.6-.8-.5-2,.2-2.7l1.2-1.2c.7-.7,1.9-.8,2.7-.2l1.1.8c.9-.5,1.8-.9,2.8-1.2l.2-1.4c.2-1,1-1.8,2.1-1.8h1.7c1,0,1.9.7,2.1,1.8l.2,1.4c1,.3,1.9.7,2.8,1.2l1.1-.8c.8-.6,2-.5,2.7.2l1.2,1.2c.7.7.8,1.9.2,2.7l-.8,1.1c.5.9.9,1.8,1.2,2.8l1.4.2c.9.1,1.5.8,1.7,1.6h4v-10c0-1.3,1.1-2.4,2.4-2.4h3.2c.5-1.7,2.2-2.9,4-2.9s4.2,1.9,4.2,4.2-1.9,4.2-4.2,4.2-3.4-1.2-4-2.9h-3v9.8h3c.5-1.7,2.2-2.9,4-2.9s4.2,1.9,4.2,4.2-1.9,4.2-4.2,4.2-3.4-1.2-4-2.9h-3v9.8h3c.5-1.7,2.2-2.9,4-2.9s4.2,1.9,4.2,4.2-1.9,4.2-4.2,4.2ZM424.3,376.7h5.3v10.9c0,.8.7,1.5,1.5,1.5h3.9v.4c.4,1.5,1.8,2.6,3.3,2.6s3.3-1.5,3.3-3.3-1.5-3.3-3.3-3.3-2.9,1.1-3.2,2.6v.4h-3.9c-.4,0-.7-.3-.7-.7v-10.9h4.6v.4c.4,1.5,1.8,2.6,3.3,2.6s3.3-1.5,3.3-3.3-1.5-3.3-3.3-3.3-2.9,1.1-3.2,2.6v.4h-4.7v-10.9c0-.4.3-.7.7-.7h3.9v.4c.4,1.5,1.8,2.6,3.3,2.6s3.3-1.5,3.3-3.3-1.5-3.3-3.3-3.3-2.9,1.1-3.2,2.6v.4h-3.9c-.8,0-1.5.7-1.5,1.5v10.9h-5.8v-.4c0-.6-.4-1.1-1-1.2l-2-.3v-.3c-.3-1.1-.8-2.2-1.4-3.1l-.2-.3,1.2-1.6c.4-.5.3-1.1-.1-1.5l-1.2-1.2c-.4-.4-1.1-.5-1.5-.1l-1.6,1.2-.3-.2c-1-.6-2-1-3.1-1.3h-.3c0,0-.3-2.1-.3-2.1,0-.6-.6-1-1.2-1h-1.7c-.6,0-1.1.4-1.2,1l-.3,2h-.3c-1.1.3-2.2.8-3.1,1.4l-.3.2-1.6-1.2c-.5-.4-1.1-.3-1.5.1l-1.2,1.2c-.4.4-.5,1.1-.1,1.5l1.2,1.6-.2.3c-.6,1-1,2-1.3,3.1v.3c0,0-2.1.3-2.1.3-.6,0-1,.6-1,1.2v1.7c0,.6.4,1.1,1,1.2l2,.3v.3c.3,1.1.8,2.2,1.4,3.1l.2.3-1.2,1.6c-.3.5-.3,1.1.1,1.5l1.2,1.2c.4.4,1.1.5,1.5.1l1.6-1.2.3.2c1,.6,2,1,3.1,1.3h.3c0,0,.3,2.1.3,2.1,0,.6.6,1,1.2,1h1.7c.6,0,1.1-.4,1.2-1l.3-2h.3c1.1-.3,2.2-.8,3.1-1.4l.3-.2,1.6,1.2c.5.4,1.1.3,1.5-.1l1.2-1.2c.4-.4.5-1.1.1-1.5l-1.2-1.6.2-.3c.6-1,1-2,1.3-3.1v-.3c0,0,2.1-.3,2.1-.3.6,0,1-.6,1-1.2v-.4h.4ZM438.2,391.2c-1.4,0-2.6-1.1-2.6-2.6s1.1-2.6,2.6-2.6,2.6,1.1,2.6,2.6-1.1,2.6-2.6,2.6ZM438.2,387c-.9,0-1.7.7-1.7,1.7s.7,1.7,1.7,1.7,1.7-.7,1.7-1.7-.7-1.7-1.7-1.7ZM411.3,389.3h-2.4l-.4-2.6c0-.2-.1-.3-.3-.3-1.4-.3-2.7-.8-3.9-1.6-.1,0-.3,0-.4,0l-2.1,1.6-1.7-1.7,1.6-2.1c0-.1,0-.3,0-.4-.8-1.2-1.3-2.5-1.6-3.9,0-.2-.2-.3-.3-.3l-2.6-.4v-2.4l2.6-.4c.2,0,.3-.1.3-.3.3-1.4.8-2.7,1.6-3.9,0-.1,0-.3,0-.4l-1.6-2.1,1.7-1.7,2.1,1.6c.1,0,.3,0,.4,0,1.2-.8,2.5-1.3,3.9-1.6.2,0,.3-.2.3-.3l.4-2.6h2.4l.4,2.6c0,.2.1.3.3.3,1.4.3,2.7.8,3.9,1.6.1,0,.3,0,.4,0l2.1-1.6,1.7,1.7-1.6,2.1c0,.1,0,.3,0,.4.8,1.2,1.3,2.5,1.6,3.9,0,.2.2.3.3.3l2.6.4v2.4l-2.6.4c-.2,0-.3.1-.3.3-.3,1.4-.8,2.7-1.6,3.9,0,.1,0,.3,0,.4l1.6,2.1-1.7,1.7-2.1-1.6c-.1,0-.3,0-.4,0-1.2.8-2.5,1.3-3.9,1.6-.2,0-.3.2-.3.3l-.4,2.6ZM409.7,388.4h.9l.3-1.9c0-.5.5-1,1-1.1,1.3-.2,2.5-.7,3.5-1.5.4-.3,1-.3,1.5,0l1.5,1.1.6-.6-1.1-1.5c-.3-.4-.3-1,0-1.5.7-1.1,1.2-2.3,1.5-3.5,0-.5.5-.9,1.1-1l1.9-.3v-.9l-1.9-.3c-.5,0-1-.5-1.1-1-.2-1.3-.7-2.5-1.5-3.5-.3-.4-.3-1,0-1.5l1.1-1.5-.6-.6-1.5,1.1c-.4.3-1,.3-1.5,0-1.1-.7-2.3-1.2-3.5-1.5-.5,0-.9-.5-1-1.1l-.3-1.9h-.9l-.3,1.9c0,.5-.5,1-1,1.1-1.3.2-2.5.7-3.5,1.5-.4.3-1,.3-1.5,0l-1.5-1.1-.6.6,1.1,1.5c.3.4.3,1,0,1.5-.7,1.1-1.2,2.3-1.5,3.5-.1.5-.5.9-1.1,1l-1.9.3v.9l1.9.3c.5,0,1,.5,1.1,1,.2,1.3.7,2.5,1.5,3.5.3.4.3,1,0,1.5l-1.1,1.5.6.6,1.5-1.1c.4-.3,1-.3,1.5,0,1.1.7,2.3,1.2,3.5,1.5.5.1.9.5,1,1.1l.3,1.9ZM438.2,378.9c-1.4,0-2.6-1.1-2.6-2.6s1.1-2.6,2.6-2.6,2.6,1.1,2.6,2.6-1.1,2.6-2.6,2.6ZM438.2,374.7c-.9,0-1.7.7-1.7,1.7s.7,1.7,1.7,1.7,1.7-.7,1.7-1.7-.7-1.7-1.7-1.7ZM438.2,366.5c-1.4,0-2.6-1.1-2.6-2.6s1.1-2.6,2.6-2.6,2.6,1.1,2.6,2.6-1.1,2.6-2.6,2.6ZM438.2,362.3c-.9,0-1.7.7-1.7,1.7s.7,1.7,1.7,1.7,1.7-.7,1.7-1.7-.7-1.7-1.7-1.7Z"/>
        </g>
      </g>
      <g>
        <rect class="st0" x="337.8" y="421.1" width="147.6" height="55.6"/>
        <path class="st4" d="M362.7,439.6c-1.3,0-2.4-.3-3.4-.9-1-.6-1.8-1.4-2.3-2.5-.6-1.1-.8-2.5-.8-4.1s.3-2.9.9-4c.6-1.1,1.4-2,2.5-2.6s2.4-.9,3.9-.9,3,.3,4,.9c1,.6,1.8,1.5,2.4,2.8l-3.5,1.4c-.2-.7-.5-1.3-1-1.6-.5-.3-1.1-.5-1.8-.5s-1.3.2-1.8.5-.9.9-1.2,1.5c-.3.7-.4,1.5-.4,2.5s.1,1.9.4,2.6c.3.7.7,1.2,1.2,1.5.5.3,1.2.5,2,.5s.8,0,1.2-.2c.4-.1.7-.3.9-.5.3-.2.5-.4.6-.7.1-.3.2-.7.2-1.1v-.2h-3.3v-2.5h6.5v7.8h-2.6l-.3-3.4.6.5c-.3,1-.9,1.8-1.7,2.3-.8.5-1.8.8-3.1.8Z"/>
        <path class="st4" d="M376.8,439.6c-1.2,0-2.2-.2-3.1-.7-.9-.5-1.6-1.1-2-1.9s-.7-1.9-.7-3.1.2-2.2.7-3.1c.5-.8,1.2-1.5,2-1.9.9-.5,1.9-.7,3-.7s2.1.2,2.9.7c.8.4,1.4,1.1,1.9,1.8.4.8.6,1.7.6,2.7s0,.5,0,.8,0,.5,0,.6h-8.7v-2h7.1l-1.8.7c0-.9-.2-1.6-.5-2-.3-.5-.8-.7-1.5-.7s-.9.1-1.2.3c-.3.2-.6.6-.7,1s-.3,1.1-.3,1.8,0,1.3.3,1.8.5.8.8,1c.4.2.8.3,1.3.3s1-.1,1.3-.3c.3-.2.6-.5.7-.9l3,1c-.2.6-.6,1.1-1.1,1.6s-1.1.8-1.8,1-1.4.3-2.2.3Z"/>
        <path class="st4" d="M388,439.6c-1.1,0-2.1-.2-3.1-.5-.9-.4-1.7-.9-2.4-1.6l1.8-2.1c.4.5.9.9,1.5,1.2.6.3,1.3.5,2,.5s.9,0,1.1-.2c.3-.1.4-.3.4-.6s0-.4-.2-.5c-.1-.1-.4-.2-.9-.3l-1.5-.3c-1.4-.3-2.4-.7-3-1.2-.6-.6-.9-1.3-.9-2.2s.2-1.2.6-1.7c.4-.5.9-1,1.7-1.3.8-.4,1.7-.5,2.9-.5s2.1.2,2.9.5c.9.3,1.5.8,2,1.4l-1.8,2c-.4-.5-.8-.8-1.4-1-.6-.2-1.1-.4-1.7-.4s-.6,0-.9,0c-.2,0-.4.2-.5.3-.1.1-.2.3-.2.4s0,.4.3.5c.2.1.5.3,1,.4l2,.4c1.1.2,1.9.6,2.4,1.1.5.5.7,1.2.7,2s-.2,1.3-.6,1.9c-.4.6-1,1-1.7,1.4s-1.7.5-2.9.5Z"/>
        <path class="st4" d="M402.1,428.4v2.7h-8.9v-2.7h8.9ZM398.8,424.9v10.6c0,.5.1.9.4,1.1.3.2.6.3,1.1.3s.7,0,.9-.1c.3,0,.5-.2.7-.4l.4,2.3c-.4.3-.8.5-1.4.6s-1.1.2-1.7.2c-.8,0-1.6-.1-2.2-.4s-1.1-.6-1.4-1.1-.5-1.2-.5-2v-10.2l3.7-1Z"/>
        <path class="st4" d="M409.1,432.4c0-.5-.1-.9-.4-1.2s-.7-.5-1.2-.5-.9.1-1.2.4c-.3.2-.6.7-.7,1.3l-3.2-.7c.2-1.1.7-1.9,1.6-2.5.9-.6,2.1-.9,3.7-.9s2,.2,2.7.5c.8.3,1.3.8,1.7,1.4.4.6.6,1.4.6,2.3v4c0,.6.3.9.8.9s.5,0,.6,0l-.2,2.1c-.4.2-1,.3-1.6.3s-1.1,0-1.5-.3c-.4-.2-.8-.5-1-.8-.2-.4-.4-.8-.4-1.4h0c0-.1.4-.3.4-.3,0,.6-.2,1.2-.6,1.6-.4.4-.9.7-1.5.9-.6.2-1.2.3-1.9.3s-1.4-.1-2-.4c-.6-.2-1-.6-1.3-1-.3-.4-.5-1-.5-1.7s.2-1.4.7-2,1.2-.9,2.3-1.1l4.2-.9v2s-2.1.4-2.1.4c-.4,0-.8.2-1,.4-.2.2-.3.4-.3.8s.1.6.4.7c.2.2.5.2.8.2s.5,0,.7-.1c.2,0,.4-.2.6-.3s.3-.3.4-.6c.1-.2.2-.5.2-.8v-2.9ZM412,423.6c0,.8-.2,1.4-.4,1.9-.2.5-.6.9-1,1.2-.4.3-.8.4-1.3.4s-.8,0-1.1-.2c-.3-.1-.6-.3-.8-.4-.2-.2-.4-.3-.6-.4-.2-.1-.4-.2-.6-.2s-.4.1-.6.3-.2.5-.3.9h-2.1c0-1.2.3-2,.9-2.6.5-.6,1.2-.9,2-.9s.7,0,1,.2c.3.1.5.3.7.4.2.2.4.3.6.4s.4.2.6.2.5-.1.6-.3c.1-.2.2-.5.3-.9h2.1Z"/>
        <path class="st4" d="M420,428.2c1.2,0,2.2.2,3,.7.9.4,1.6,1.1,2,2,.5.9.7,1.9.7,3.1s-.2,2.2-.7,3.1-1.2,1.5-2,2c-.9.4-1.9.7-3,.7s-2.1-.2-3-.7c-.9-.4-1.6-1.1-2.1-2s-.7-1.9-.7-3.1.2-2.2.7-3.1c.5-.9,1.2-1.5,2.1-2,.9-.4,1.9-.7,3-.7ZM420,430.8c-.4,0-.8.1-1.1.3-.3.2-.5.5-.7,1-.2.5-.2,1-.2,1.8s0,1.3.2,1.7c.2.4.4.8.7,1,.3.2.7.3,1.1.3s.8-.1,1.1-.3c.3-.2.5-.5.7-1,.2-.4.2-1,.2-1.7s0-1.3-.2-1.8c-.2-.5-.4-.8-.7-1-.3-.2-.7-.3-1.1-.3Z"/>
        <path class="st4" d="M436.5,439.6c-.9,0-1.7-.2-2.4-.7s-1.2-1.1-1.6-1.9-.6-1.9-.6-3.1.2-2.3.6-3.1c.4-.9.9-1.5,1.6-2,.7-.5,1.5-.7,2.4-.7s1.8.3,2.4.9c.6.6,1,1.4,1.2,2.3l-.4.5v-8.1h3.7v15.7h-3.3l-.2-3.7.4.3c0,.7-.3,1.4-.7,1.9s-.8,1-1.4,1.3c-.6.3-1.2.5-1.9.5ZM437.8,436.8c.4,0,.8-.1,1.1-.3.3-.2.5-.6.7-1,.2-.5.2-1,.2-1.7s0-1.1-.2-1.6c-.2-.4-.4-.8-.7-1s-.7-.3-1.1-.3c-.6,0-1.2.2-1.5.7s-.6,1.2-.6,2.3.2,1.8.5,2.3c.4.5.9.7,1.5.7Z"/>
        <path class="st4" d="M450.6,428.2c1.2,0,2.2.2,3,.7.9.4,1.6,1.1,2,2,.5.9.7,1.9.7,3.1s-.2,2.2-.7,3.1-1.2,1.5-2,2c-.9.4-1.9.7-3,.7s-2.1-.2-3-.7c-.9-.4-1.6-1.1-2.1-2s-.7-1.9-.7-3.1.2-2.2.7-3.1c.5-.9,1.2-1.5,2.1-2,.9-.4,1.9-.7,3-.7ZM450.6,430.8c-.4,0-.8.1-1.1.3-.3.2-.5.5-.7,1-.2.5-.2,1-.2,1.8s0,1.3.2,1.7c.2.4.4.8.7,1,.3.2.7.3,1.1.3s.8-.1,1.1-.3c.3-.2.5-.5.7-1,.2-.4.2-1,.2-1.7s0-1.3-.2-1.8c-.2-.5-.4-.8-.7-1-.3-.2-.7-.3-1.1-.3Z"/>
        <path class="st4" d="M462.3,439.6c-1.1,0-2.1-.2-3.1-.5-.9-.4-1.7-.9-2.4-1.6l1.8-2.1c.4.5.9.9,1.5,1.2.6.3,1.3.5,2,.5s.9,0,1.1-.2c.3-.1.4-.3.4-.6s0-.4-.2-.5c-.1-.1-.4-.2-.9-.3l-1.5-.3c-1.4-.3-2.4-.7-3-1.2-.6-.6-.9-1.3-.9-2.2s.2-1.2.6-1.7c.4-.5.9-1,1.7-1.3.8-.4,1.7-.5,2.9-.5s2.1.2,2.9.5c.9.3,1.5.8,2,1.4l-1.8,2c-.4-.5-.8-.8-1.4-1-.6-.2-1.1-.4-1.7-.4s-.6,0-.9,0c-.2,0-.4.2-.5.3-.1.1-.2.3-.2.4s0,.4.3.5c.2.1.5.3,1,.4l2,.4c1.1.2,1.9.6,2.4,1.1.5.5.7,1.2.7,2s-.2,1.3-.6,1.9c-.4.6-1,1-1.7,1.4s-1.7.5-2.9.5Z"/>
        <path class="st4" d="M375.6,466c-1.1,0-2.1-.2-3.1-.5-.9-.4-1.7-.9-2.4-1.6l1.8-2.1c.4.5.9.9,1.5,1.2s1.3.5,2,.5.9,0,1.1-.2c.3-.1.4-.3.4-.6s0-.4-.2-.5c-.1-.1-.4-.2-.9-.3l-1.5-.3c-1.4-.3-2.4-.7-3-1.2-.6-.5-.9-1.3-.9-2.2s.2-1.2.6-1.7.9-1,1.7-1.3c.8-.4,1.7-.5,2.9-.5s2.1.2,2.9.5c.9.3,1.5.8,2,1.4l-1.8,2c-.4-.5-.8-.8-1.4-1s-1.1-.4-1.7-.4-.6,0-.9,0c-.2,0-.4.2-.5.3-.1.1-.2.3-.2.4s0,.4.3.5c.2.1.5.3,1,.4l2,.4c1.1.2,1.9.6,2.4,1.1.5.5.7,1.2.7,2s-.2,1.3-.6,1.9c-.4.6-1,1-1.7,1.4s-1.7.5-2.9.5Z"/>
        <path class="st4" d="M387.2,466c-1.2,0-2.2-.2-3.1-.7-.9-.5-1.6-1.1-2-1.9-.5-.8-.7-1.9-.7-3.1s.2-2.2.7-3.1c.5-.8,1.2-1.5,2-1.9.9-.5,1.9-.7,3-.7s2.1.2,2.9.7c.8.4,1.4,1.1,1.9,1.8.4.8.6,1.7.6,2.7s0,.5,0,.8c0,.3,0,.5,0,.6h-8.7v-2h7.1l-1.8.7c0-.9-.2-1.6-.5-2s-.8-.7-1.5-.7-.9.1-1.2.3c-.3.2-.6.6-.7,1s-.3,1.1-.3,1.8,0,1.3.3,1.8c.2.4.5.8.8,1,.4.2.8.3,1.3.3s1-.1,1.3-.3.6-.5.7-.9l3,1c-.2.6-.6,1.1-1.1,1.6s-1.1.8-1.8,1c-.7.2-1.4.3-2.2.3Z"/>
        <path class="st4" d="M393.7,465.8v-11h3.3l.2,2.4c.3-.8.7-1.5,1.2-1.9.5-.5,1.2-.7,2.1-.7s.5,0,.7,0c.2,0,.4.1.5.2l-.4,3.1c-.1,0-.3-.1-.6-.1-.2,0-.5,0-.8,0s-.9,0-1.2.3c-.4.2-.7.5-.9.8s-.3.8-.3,1.4v5.5h-3.7Z"/>
        <path class="st4" d="M409.4,454.8h3.9l-4,11h-4.5l-4-11h3.9l2.3,8.4,2.3-8.4Z"/>
        <path class="st4" d="M415.6,453.5c-.8,0-1.3-.1-1.7-.4s-.5-.7-.5-1.4.2-1.1.5-1.4.9-.4,1.7-.4,1.3.1,1.7.4c.4.3.5.7.5,1.4s-.2,1.1-.5,1.4c-.4.3-.9.4-1.7.4ZM417.5,454.8v11h-3.7v-11h3.7Z"/>
        <path class="st4" d="M424.5,454.6c1.1,0,2,.2,2.8.5.7.3,1.3.7,1.7,1.3.4.5.7,1.1.8,1.7l-3.5,1.1c-.1-.6-.3-1.1-.6-1.4s-.7-.5-1.2-.5-.9.1-1.2.3c-.3.2-.6.5-.7,1-.2.5-.2,1.1-.2,1.8s0,1.3.3,1.7.4.8.7,1c.3.2.7.3,1.1.3s.7,0,.9-.2c.2-.1.4-.3.6-.6s.3-.6.3-1l3.4,1.1c-.1.6-.4,1.2-.8,1.7s-1,.9-1.8,1.2c-.7.3-1.6.4-2.6.4s-2.3-.2-3.1-.7c-.9-.4-1.6-1.1-2.1-2-.5-.9-.7-1.9-.7-3.1s.2-2.2.7-3.1,1.2-1.5,2-2c.9-.4,1.9-.7,3-.7ZM422.8,465.6l.9-.6c1.1.2,2,.5,2.5.9.5.5.8,1.1.8,1.9s-.3,1.5-.8,2c-.5.5-1.3.8-2.3.8s-1,0-1.4-.2c-.3-.1-.6-.3-.9-.5l.6-1.8c.2.1.4.2.6.3.2,0,.5.1.7.1s.7-.1.9-.3c.2-.2.4-.5.4-.9s-.2-.6-.5-.9c-.3-.3-.9-.5-1.7-.8Z"/>
        <path class="st4" d="M436.1,454.6c1.2,0,2.2.2,3,.7.9.4,1.6,1.1,2,2s.7,1.9.7,3.1-.2,2.2-.7,3.1c-.5.9-1.2,1.5-2,2-.9.4-1.9.7-3,.7s-2.1-.2-3-.7c-.9-.4-1.6-1.1-2.1-2-.5-.9-.7-1.9-.7-3.1s.2-2.2.7-3.1,1.2-1.5,2.1-2c.9-.4,1.9-.7,3-.7ZM436.1,457.2c-.4,0-.8.1-1.1.3-.3.2-.5.5-.7,1-.2.5-.2,1-.2,1.8s0,1.3.2,1.7c.2.4.4.8.7,1,.3.2.7.3,1.1.3s.8-.1,1.1-.3c.3-.2.5-.5.7-1,.2-.4.2-1,.2-1.7s0-1.3-.2-1.8c-.2-.5-.4-.8-.7-1-.3-.2-.7-.3-1.1-.3Z"/>
        <path class="st4" d="M447.8,466c-1.1,0-2.1-.2-3.1-.5-.9-.4-1.7-.9-2.4-1.6l1.8-2.1c.4.5.9.9,1.5,1.2s1.3.5,2,.5.9,0,1.1-.2c.3-.1.4-.3.4-.6s0-.4-.2-.5c-.1-.1-.4-.2-.9-.3l-1.5-.3c-1.4-.3-2.4-.7-3-1.2-.6-.5-.9-1.3-.9-2.2s.2-1.2.6-1.7.9-1,1.7-1.3c.8-.4,1.7-.5,2.9-.5s2.1.2,2.9.5c.9.3,1.5.8,2,1.4l-1.8,2c-.4-.5-.8-.8-1.4-1s-1.1-.4-1.7-.4-.6,0-.9,0c-.2,0-.4.2-.5.3-.1.1-.2.3-.2.4s0,.4.3.5c.2.1.5.3,1,.4l2,.4c1.1.2,1.9.6,2.4,1.1.5.5.7,1.2.7,2s-.2,1.3-.6,1.9c-.4.6-1,1-1.7,1.4s-1.7.5-2.9.5Z"/>
      </g>
    </g>
    <g id="bt3">
      <path id="bg3" class="st6" d="M479.6,255.6s-182.4-10.4-243.3-4.5c-46,4.5-84.1,45.2-91.2,89.8-.3,2,1.2,18.9-3.6,14.3L61.4,195.9c71.2-83.6,188.7-111.1,290-66.8,56.8,24.9,106.9,68,128.1,126.5Z"/>
      <g id="ic3">
        <path class="st4" d="M256.6,157.8c9.5,0,17.2-7.7,17.2-17.2s-7.7-17.2-17.2-17.2-17.2,7.7-17.2,17.2c0,9.5,7.7,17.2,17.2,17.2ZM269.6,132.4c3.5,5.6,3,12.9-1.3,18l-3.9-5.3.7-2.1,2.7-2.7c.2-.2.3-.4.3-.7v-2.9c0-.2,0-.4-.2-.5l-1.3-2,3-1.7ZM256.6,125.2c4.6,0,9,2.1,11.9,5.7l-3.7,2.1h0c-.5.3-.6.8-.4,1.3,0,0,0,0,0,0h0l1.8,2.6v2.2l-2.6,2.6c-.1.1-.2.2-.2.4l-.9,2.8c0,.3,0,.6.1.9l4.4,5.9c-1.3,1.2-2.9,2.2-4.6,2.9l-1-2v-3.6c0-.1,0-.3,0-.4l-1.9-3.8c-.2-.4-.6-.6-1.1-.5l-4.3.9-1-1,1.5-2.2c.2-.3.2-.8,0-1.1l-2.4-3.2,3.2-3.3c.2-.2.3-.4.3-.7v-2.7c0-.2,0-.4-.2-.5l-3.2-4.6c1.4-.4,2.9-.7,4.4-.7ZM241.3,140.5c0-6,3.6-11.5,9.1-14l3.3,4.8v2l-3.4,3.6c-.3.3-.4.9,0,1.2l2.5,3.3-1.5,2.3c-.3.4-.2.9.1,1.2l1.9,1.9c.2.2.5.3.9.3l4.1-.8,1.5,3v3.6c0,.1,0,.3,0,.4l1,1.9c-4.8,1.3-10,.2-13.8-3.1l1.8-1.4c.4-.3.5-.9.2-1.3l-1.6-2.4,1.7-3.3c.2-.4,0-.9-.3-1.2l-3.8-2.9c-.3-.2-.6-.2-.9-.1l-2.5,1s0,0,0-.1ZM244,141.6l2.8,2.1-1.6,3.1c-.2.3-.1.7,0,1l1.4,2.1-1.3,1c-2.1-2.3-3.5-5.2-3.9-8.2l2.6-1Z"/>
        <path class="st4" d="M285.7,179.3c-.3-1.9-1.6-3.4-3.4-3.9l-3.6-1v-1.2c1.2-.9,1.9-2.3,1.9-3.8v-3.5l1.8-2.2c.8-1,.7-2.5-.3-3.3-.4-.4-1-.6-1.5-.5h-6.7c-3.2,0-5.7,2.6-5.7,5.7v1c0,2,1.3,3.8,3.2,4.5.3.9.9,1.6,1.6,2.2v1.2l-3.6,1c-1.4.4-2.5,1.4-3.1,2.8-.3-.8-.8-1.4-1.5-2,.9-.7,1.5-1.8,1.5-3,0-.4-.2-.7-.5-.9-.9-.4-1.4-1.3-1.4-2.2v-2.6c0-4.2-3.4-7.7-7.7-7.7s-7.7,3.4-7.7,7.7v2.6c0,1-.5,1.8-1.4,2.2-.3.2-.5.5-.5.9,0,1.2.6,2.3,1.5,3-.7.5-1.2,1.2-1.5,2-.6-1.3-1.7-2.4-3.1-2.8l-3.6-1v-1.2c1.2-.9,1.9-2.3,1.9-3.8v-3c1.8-.5,2.8-2.4,2.3-4.2-.4-1.4-1.7-2.4-3.2-2.4h-5.7c-3.2,0-5.7,2.6-5.7,5.7v1c0,2,1.3,3.8,3.2,4.5.3.9.9,1.6,1.6,2.2v1.2l-3.6,1c-1.8.5-3.2,2.1-3.4,3.9l-.6,4.2c0,.5.3,1,.8,1.1,0,0,0,0,.1,0h57.5c.5,0,1-.4,1-1,0,0,0,0,0-.1l-.6-4.2ZM240.3,169.3c0,1.6-1.3,2.9-2.9,2.9s-2.9-1.3-2.9-2.9v-1.9c0-.5.4-1,1-1h4.8v2.9ZM238.4,174v1.1c0,.5-.4,1-1,1s-1-.4-1-1v-1.1c.3,0,.6.1,1,.1.3,0,.6,0,1,0ZM232.6,167.4v1.2c-.6-.5-1-1.3-1-2.1v-1c0-2.1,1.7-3.8,3.8-3.8h5.7c.8,0,1.4.6,1.4,1.4s-.6,1.4-1.4,1.4h-5.7c-1.6,0-2.9,1.3-2.9,2.9ZM228.9,182.7l.5-3.2c.2-1.1,1-2,2.1-2.4l3.4-1c.7,1.4,2.4,2.1,3.8,1.4.6-.3,1.1-.8,1.4-1.4l3.4,1c1.1.3,1.9,1.2,2.1,2.4l.5,3.2h-17ZM250.8,170v-2.6c0-3.2,2.6-5.7,5.7-5.7s5.7,2.6,5.7,5.7v2.6c0,1.4.7,2.8,1.9,3.6-.2.8-1,1.4-1.9,1.4h-.3l-2.5-.7v-1.2c1.2-.9,1.9-2.3,1.9-3.8v-.7c0-1.1-.6-2.1-1.6-2.6l-2.8-1.4c-.3-.1-.6-.1-.9,0l-2.8,1.4c-1,.5-1.6,1.5-1.6,2.6v.7c0,1.5.7,2.9,1.9,3.8v1.2l-2.5.7h-.3c-.9,0-1.6-.6-1.9-1.4,1.2-.8,1.9-2.2,1.9-3.6ZM256.6,172.2c-1.6,0-2.9-1.3-2.9-2.9v-.7c0-.4.2-.7.5-.9l2.3-1.2,2.3,1.2c.3.2.5.5.5.9v.7c0,1.6-1.3,2.9-2.9,2.9ZM257.5,174v1.1c0,.5-.4,1-1,1s-1-.4-1-1v-1.1c.6.1,1.3.1,1.9,0ZM248.1,182.7l.5-3.2c.2-1.1,1-2,2.1-2.4l3.4-1c.7,1.4,2.4,2.1,3.8,1.4.6-.3,1.1-.8,1.4-1.4l3.4,1c1.1.3,1.9,1.2,2.1,2.4l.5,3.2h-17ZM278.6,169.3c0,1.6-1.3,2.9-2.9,2.9s-2.9-1.3-2.9-2.9v-1.9c0-.5.4-1,1-1h4.8v2.9ZM276.7,174v1.1c0,.5-.4,1-1,1s-1-.4-1-1v-1.1c.3,0,.6.1,1,.1.3,0,.6,0,1,0ZM271,167.4v1.2c-.6-.5-1-1.3-1-2.1v-1c0-2.1,1.7-3.8,3.8-3.8h6.7c.2,0,.4.2.4.4,0,.1,0,.2-.1.3l-1.8,2.1h-5.3c-1.6,0-2.9,1.3-2.9,2.9ZM267.3,182.7l.5-3.2c.2-1.1,1-2,2.1-2.4l3.4-1c.7,1.4,2.4,2.1,3.8,1.4.6-.3,1.1-.8,1.4-1.4l3.4,1c1.1.3,1.9,1.2,2.1,2.4l.5,3.2h-17Z"/>
      </g>
      <g>
        <rect class="st0" x="144.5" y="187.2" width="220.4" height="55"/>
        <path class="st4" d="M198.3,205.5v-14.5h11.3v2.9h-7.5v2.9h6v2.8h-6v3h7.8v2.9h-11.6Z"/>
        <path class="st4" d="M215.1,205.7c-.9,0-1.7-.2-2.4-.7-.7-.4-1.2-1.1-1.6-1.9s-.6-1.9-.6-3.1.2-2.3.6-3.1c.4-.9.9-1.5,1.6-2,.7-.5,1.5-.7,2.4-.7s1.8.3,2.4.9c.6.6,1,1.4,1.2,2.3l-.4.5v-8.1h3.7v15.7h-3.3l-.2-3.7.4.3c0,.7-.3,1.4-.7,1.9-.4.5-.8,1-1.4,1.3-.6.3-1.2.5-1.9.5ZM216.4,202.9c.4,0,.8-.1,1.1-.3.3-.2.5-.6.7-1s.2-1,.2-1.7,0-1.1-.2-1.6c-.2-.4-.4-.8-.7-1s-.7-.3-1.1-.3c-.6,0-1.2.2-1.5.7s-.6,1.2-.6,2.3.2,1.8.5,2.3c.4.5.9.7,1.5.7Z"/>
        <path class="st4" d="M227.7,205.7c-.7,0-1.4-.1-2-.4s-1-.7-1.3-1.2c-.3-.6-.5-1.3-.5-2.2v-7.3h3.7v6.5c0,.7.1,1.2.4,1.5.3.3.7.4,1.2.4s.5,0,.7-.1c.2,0,.4-.2.6-.4.2-.2.3-.5.4-.8,0-.3.1-.7.1-1.1v-5.9h3.7v11h-3.3v-2.1c-.5.8-1,1.4-1.6,1.7s-1.4.6-2.3.6Z"/>
        <path class="st4" d="M241.9,194.2c1.1,0,2,.2,2.8.5.7.3,1.3.7,1.7,1.3.4.5.7,1.1.8,1.7l-3.5,1.1c-.1-.6-.3-1.1-.6-1.4s-.7-.5-1.2-.5-.9.1-1.2.3c-.3.2-.6.5-.7,1-.2.5-.2,1.1-.2,1.8s0,1.3.3,1.7c.2.4.4.8.7,1,.3.2.7.3,1.1.3s.7,0,.9-.2c.2-.1.4-.3.6-.6.2-.3.3-.6.3-1l3.4,1.1c-.1.6-.4,1.2-.8,1.7s-1,.9-1.8,1.2c-.7.3-1.6.4-2.6.4s-2.3-.2-3.1-.7c-.9-.4-1.6-1.1-2.1-2-.5-.9-.7-1.9-.7-3.1s.2-2.2.7-3.1c.5-.9,1.2-1.5,2-2,.9-.4,1.9-.7,3-.7Z"/>
        <path class="st4" d="M254.4,198.5c0-.5-.1-.9-.4-1.2s-.7-.5-1.2-.5-.9.1-1.2.4c-.3.2-.6.7-.7,1.3l-3.2-.7c.2-1.1.7-1.9,1.6-2.5.9-.6,2.1-.9,3.7-.9s2,.2,2.7.5c.8.3,1.3.8,1.7,1.4s.6,1.4.6,2.3v4c0,.6.3.9.8.9s.5,0,.6,0l-.2,2.1c-.4.2-1,.3-1.6.3s-1.1,0-1.5-.3c-.4-.2-.8-.5-1-.8-.2-.4-.4-.8-.4-1.4h0c0-.1.4-.3.4-.3,0,.6-.2,1.2-.6,1.6-.4.4-.9.7-1.5.9-.6.2-1.2.3-1.9.3s-1.4-.1-2-.4c-.6-.2-1-.6-1.3-1-.3-.4-.5-1-.5-1.7s.2-1.4.7-2c.5-.5,1.2-.9,2.3-1.1l4.2-.9v2s-2.1.4-2.1.4c-.4,0-.8.2-1,.4s-.3.4-.3.8.1.6.4.7c.2.2.5.2.8.2s.5,0,.7-.1c.2,0,.4-.2.6-.3.2-.2.3-.3.4-.6.1-.2.2-.5.2-.8v-2.9Z"/>
        <path class="st4" d="M265.4,194.2c1.1,0,2,.2,2.8.5.7.3,1.3.7,1.7,1.3.4.5.7,1.1.8,1.7l-3.5,1.1c-.1-.6-.3-1.1-.6-1.4s-.7-.5-1.2-.5-.9.1-1.2.3c-.3.2-.6.5-.7,1-.2.5-.2,1.1-.2,1.8s0,1.3.3,1.7c.2.4.4.8.7,1,.3.2.7.3,1.1.3s.7,0,.9-.2c.2-.1.4-.3.6-.6.2-.3.3-.6.3-1l3.4,1.1c-.1.6-.4,1.2-.8,1.7s-1,.9-1.8,1.2c-.7.3-1.6.4-2.6.4s-2.3-.2-3.1-.7c-.9-.4-1.6-1.1-2.1-2-.5-.9-.7-1.9-.7-3.1s.2-2.2.7-3.1c.5-.9,1.2-1.5,2-2,.9-.4,1.9-.7,3-.7ZM263.7,205.2l.9-.6c1.1.2,2,.5,2.5.9.5.5.8,1.1.8,1.9s-.3,1.5-.8,2c-.5.5-1.3.8-2.3.8s-1,0-1.4-.2c-.3-.1-.6-.3-.9-.5l.6-1.8c.2.1.4.2.6.3s.5.1.7.1.7-.1.9-.3c.2-.2.4-.5.4-.9s-.2-.6-.5-.9c-.3-.3-.9-.5-1.7-.8Z"/>
        <path class="st4" d="M277.9,198.5c0-.5-.1-.9-.4-1.2s-.7-.5-1.2-.5-.9.1-1.2.4c-.3.2-.6.7-.7,1.3l-3.2-.7c.2-1.1.7-1.9,1.6-2.5.9-.6,2.1-.9,3.7-.9s2,.2,2.7.5c.8.3,1.3.8,1.7,1.4s.6,1.4.6,2.3v4c0,.6.3.9.8.9s.5,0,.6,0l-.2,2.1c-.4.2-1,.3-1.6.3s-1.1,0-1.5-.3c-.4-.2-.8-.5-1-.8-.2-.4-.4-.8-.4-1.4h0c0-.1.4-.3.4-.3,0,.6-.2,1.2-.6,1.6-.4.4-.9.7-1.5.9-.6.2-1.2.3-1.9.3s-1.4-.1-2-.4c-.6-.2-1-.6-1.3-1-.3-.4-.5-1-.5-1.7s.2-1.4.7-2c.5-.5,1.2-.9,2.3-1.1l4.2-.9v2s-2.1.4-2.1.4c-.4,0-.8.2-1,.4s-.3.4-.3.8.1.6.4.7c.2.2.5.2.8.2s.5,0,.7-.1c.2,0,.4-.2.6-.3.2-.2.3-.3.4-.6.1-.2.2-.5.2-.8v-2.9ZM280.9,189.7c0,.8-.2,1.4-.4,1.9-.2.5-.6.9-1,1.2-.4.3-.8.4-1.3.4s-.8,0-1.1-.2-.6-.3-.8-.4c-.2-.2-.4-.3-.6-.4-.2-.1-.4-.2-.6-.2s-.4.1-.6.3c-.1.2-.2.5-.3.9h-2.1c0-1.2.3-2,.9-2.6.5-.6,1.2-.9,2-.9s.7,0,1,.2c.3.1.5.3.7.4s.4.3.6.4c.2.1.4.2.6.2s.5-.1.6-.3c.1-.2.2-.5.3-.9h2.1Z"/>
        <path class="st4" d="M288.8,194.2c1.2,0,2.2.2,3,.7.9.4,1.6,1.1,2,2,.5.9.7,1.9.7,3.1s-.2,2.2-.7,3.1c-.5.9-1.2,1.5-2,2-.9.4-1.9.7-3,.7s-2.1-.2-3-.7c-.9-.4-1.6-1.1-2.1-2-.5-.9-.7-1.9-.7-3.1s.2-2.2.7-3.1c.5-.9,1.2-1.5,2.1-2,.9-.4,1.9-.7,3-.7ZM288.8,196.9c-.4,0-.8.1-1.1.3-.3.2-.5.5-.7,1-.2.5-.2,1-.2,1.8s0,1.3.2,1.7c.2.4.4.8.7,1,.3.2.7.3,1.1.3s.8-.1,1.1-.3c.3-.2.5-.5.7-1,.2-.4.2-1,.2-1.7s0-1.3-.2-1.8c-.2-.5-.4-.8-.7-1-.3-.2-.7-.3-1.1-.3Z"/>
        <path class="st4" d="M306.7,205.7c-1.2,0-2.2-.2-3.1-.7s-1.6-1.1-2-1.9c-.5-.8-.7-1.9-.7-3.1s.2-2.2.7-3.1,1.2-1.5,2-1.9c.9-.5,1.9-.7,3-.7s2.1.2,2.9.7c.8.4,1.4,1.1,1.9,1.8.4.8.6,1.7.6,2.7s0,.5,0,.8c0,.3,0,.5,0,.6h-8.7v-2h7.1l-1.8.7c0-.9-.2-1.6-.5-2-.3-.5-.8-.7-1.5-.7s-.9.1-1.2.3-.6.6-.7,1-.3,1.1-.3,1.8,0,1.3.3,1.8c.2.4.5.8.8,1,.4.2.8.3,1.3.3s1-.1,1.3-.3.6-.5.7-.9l3,1c-.2.6-.6,1.1-1.1,1.6s-1.1.8-1.8,1c-.7.2-1.4.3-2.2.3Z"/>
        <path class="st4" d="M166.3,217.3c1.2,0,2.2.2,3,.6.8.4,1.5.9,1.9,1.7.4.7.7,1.6.7,2.6s-.2,1.9-.7,2.6c-.4.7-1.1,1.3-1.9,1.6-.8.4-1.8.6-3,.6h-2.9v4.8h-3.8v-14.5h6.7ZM165.7,224.2c.8,0,1.4-.2,1.8-.5s.6-.8.6-1.5-.2-1.2-.6-1.5-1-.5-1.8-.5h-2.3v4h2.3Z"/>
        <path class="st4" d="M179.3,224.9c0-.5-.1-.9-.4-1.2s-.7-.5-1.2-.5-.9.1-1.2.4c-.3.2-.6.7-.7,1.3l-3.2-.7c.2-1.1.7-1.9,1.6-2.5.9-.6,2.1-.9,3.7-.9s2,.2,2.7.5c.8.3,1.3.8,1.7,1.4s.6,1.4.6,2.3v4c0,.6.3.9.8.9s.5,0,.6,0l-.2,2.1c-.4.2-1,.3-1.6.3s-1.1,0-1.5-.3c-.4-.2-.8-.5-1-.8-.2-.4-.4-.8-.4-1.4h0c0-.1.4-.3.4-.3,0,.6-.2,1.2-.6,1.6-.4.4-.9.7-1.5.9-.6.2-1.2.3-1.9.3s-1.4-.1-2-.4c-.6-.2-1-.6-1.3-1-.3-.4-.5-1-.5-1.7s.2-1.4.7-2c.5-.5,1.2-.9,2.3-1.1l4.2-.9v2s-2.1.4-2.1.4c-.4,0-.8.2-1,.4s-.3.4-.3.8.1.6.4.7c.2.2.5.2.8.2s.5,0,.7-.1c.2,0,.4-.2.6-.3.2-.2.3-.3.4-.6.1-.2.2-.5.2-.8v-2.9Z"/>
        <path class="st4" d="M185.1,231.9v-11h3.3l.2,2.4c.3-.8.7-1.5,1.2-1.9.5-.5,1.2-.7,2.1-.7s.5,0,.7,0c.2,0,.4.1.5.2l-.4,3.1c-.1,0-.3-.1-.6-.1s-.5,0-.8,0-.9,0-1.2.3-.7.5-.9.8-.3.8-.3,1.4v5.5h-3.7Z"/>
        <path class="st4" d="M201.5,220.9v2.7h-8.9v-2.7h8.9ZM198.2,217.4v10.6c0,.5.1.9.4,1.1.3.2.6.3,1.1.3s.7,0,.9-.1.5-.2.7-.4l.4,2.3c-.4.3-.8.5-1.4.6s-1.1.2-1.7.2c-.8,0-1.6-.1-2.2-.4s-1.1-.6-1.4-1.1c-.3-.5-.5-1.2-.5-2v-10.2l3.7-1Z"/>
        <path class="st4" d="M204.2,219.6c-.8,0-1.3-.1-1.7-.4s-.5-.7-.5-1.4.2-1.1.5-1.4.9-.4,1.7-.4,1.3.1,1.7.4c.4.3.5.7.5,1.4s-.2,1.1-.5,1.4c-.4.3-.9.4-1.7.4ZM206.1,220.9v11h-3.7v-11h3.7Z"/>
        <path class="st4" d="M213.1,220.6c1.1,0,2,.2,2.8.5.7.3,1.3.7,1.7,1.3.4.5.7,1.1.8,1.7l-3.5,1.1c-.1-.6-.3-1.1-.6-1.4s-.7-.5-1.2-.5-.9.1-1.2.3c-.3.2-.6.5-.7,1-.2.5-.2,1.1-.2,1.8s0,1.3.3,1.7c.2.4.4.8.7,1,.3.2.7.3,1.1.3s.7,0,.9-.2c.2-.1.4-.3.6-.6.2-.3.3-.6.3-1l3.4,1.1c-.1.6-.4,1.2-.8,1.7s-1,.9-1.8,1.2c-.7.3-1.6.4-2.6.4s-2.3-.2-3.1-.7c-.9-.4-1.6-1.1-2.1-2-.5-.9-.7-1.9-.7-3.1s.2-2.2.7-3.1c.5-.9,1.2-1.5,2-2,.9-.4,1.9-.7,3-.7Z"/>
        <path class="st4" d="M221.4,219.6c-.8,0-1.3-.1-1.7-.4s-.5-.7-.5-1.4.2-1.1.5-1.4.9-.4,1.7-.4,1.3.1,1.7.4c.4.3.5.7.5,1.4s-.2,1.1-.5,1.4c-.4.3-.9.4-1.7.4ZM223.2,220.9v11h-3.7v-11h3.7Z"/>
        <path class="st4" d="M225,236.5v-15.6h3.4l.2,4-.4-.5c.1-.7.3-1.4.7-1.9.4-.6.8-1,1.4-1.3s1.2-.5,1.9-.5,1.7.2,2.4.7,1.2,1.1,1.6,1.9.6,1.9.6,3.1-.2,2.2-.6,3.1c-.4.9-.9,1.5-1.6,2-.7.5-1.5.7-2.4.7s-1.8-.3-2.4-.9c-.6-.6-1-1.3-1.2-2.3l.4-.5v8.1h-3.7ZM230.8,229.3c.6,0,1.2-.2,1.5-.7.4-.5.5-1.2.5-2.3s-.2-1.8-.5-2.3-.9-.7-1.5-.7-.8.1-1.1.3c-.3.2-.5.6-.7,1s-.3,1-.3,1.6,0,1.1.2,1.6c.2.4.4.8.7,1,.3.2.7.4,1.1.4Z"/>
        <path class="st4" d="M244.1,224.9c0-.5-.1-.9-.4-1.2s-.7-.5-1.2-.5-.9.1-1.2.4c-.3.2-.6.7-.7,1.3l-3.2-.7c.2-1.1.7-1.9,1.6-2.5.9-.6,2.1-.9,3.7-.9s2,.2,2.7.5c.8.3,1.3.8,1.7,1.4s.6,1.4.6,2.3v4c0,.6.3.9.8.9s.5,0,.6,0l-.2,2.1c-.4.2-1,.3-1.6.3s-1.1,0-1.5-.3c-.4-.2-.8-.5-1-.8-.2-.4-.4-.8-.4-1.4h0c0-.1.4-.3.4-.3,0,.6-.2,1.2-.6,1.6-.4.4-.9.7-1.5.9-.6.2-1.2.3-1.9.3s-1.4-.1-2-.4c-.6-.2-1-.6-1.3-1-.3-.4-.5-1-.5-1.7s.2-1.4.7-2c.5-.5,1.2-.9,2.3-1.1l4.2-.9v2s-2.1.4-2.1.4c-.4,0-.8.2-1,.4s-.3.4-.3.8.1.6.4.7c.2.2.5.2.8.2s.5,0,.7-.1c.2,0,.4-.2.6-.3.2-.2.3-.3.4-.6.1-.2.2-.5.2-.8v-2.9Z"/>
        <path class="st4" d="M255,220.6c1.1,0,2,.2,2.8.5.7.3,1.3.7,1.7,1.3.4.5.7,1.1.8,1.7l-3.5,1.1c-.1-.6-.3-1.1-.6-1.4s-.7-.5-1.2-.5-.9.1-1.2.3c-.3.2-.6.5-.7,1-.2.5-.2,1.1-.2,1.8s0,1.3.3,1.7c.2.4.4.8.7,1,.3.2.7.3,1.1.3s.7,0,.9-.2c.2-.1.4-.3.6-.6.2-.3.3-.6.3-1l3.4,1.1c-.1.6-.4,1.2-.8,1.7s-1,.9-1.8,1.2c-.7.3-1.6.4-2.6.4s-2.3-.2-3.1-.7c-.9-.4-1.6-1.1-2.1-2-.5-.9-.7-1.9-.7-3.1s.2-2.2.7-3.1c.5-.9,1.2-1.5,2-2,.9-.4,1.9-.7,3-.7ZM253.3,231.6l.9-.6c1.1.2,2,.5,2.5.9.5.5.8,1.1.8,1.9s-.3,1.5-.8,2c-.5.5-1.3.8-2.3.8s-1,0-1.4-.2c-.3-.1-.6-.3-.9-.5l.6-1.8c.2.1.4.2.6.3s.5.1.7.1.7-.1.9-.3c.2-.2.4-.5.4-.9s-.2-.6-.5-.9c-.3-.3-.9-.5-1.7-.8Z"/>
        <path class="st4" d="M267.5,224.9c0-.5-.1-.9-.4-1.2s-.7-.5-1.2-.5-.9.1-1.2.4c-.3.2-.6.7-.7,1.3l-3.2-.7c.2-1.1.7-1.9,1.6-2.5.9-.6,2.1-.9,3.7-.9s2,.2,2.7.5c.8.3,1.3.8,1.7,1.4s.6,1.4.6,2.3v4c0,.6.3.9.8.9s.5,0,.6,0l-.2,2.1c-.4.2-1,.3-1.6.3s-1.1,0-1.5-.3c-.4-.2-.8-.5-1-.8-.2-.4-.4-.8-.4-1.4h0c0-.1.4-.3.4-.3,0,.6-.2,1.2-.6,1.6-.4.4-.9.7-1.5.9-.6.2-1.2.3-1.9.3s-1.4-.1-2-.4c-.6-.2-1-.6-1.3-1-.3-.4-.5-1-.5-1.7s.2-1.4.7-2c.5-.5,1.2-.9,2.3-1.1l4.2-.9v2s-2.1.4-2.1.4c-.4,0-.8.2-1,.4s-.3.4-.3.8.1.6.4.7c.2.2.5.2.8.2s.5,0,.7-.1c.2,0,.4-.2.6-.3.2-.2.3-.3.4-.6.1-.2.2-.5.2-.8v-2.9ZM270.5,216.1c0,.8-.2,1.4-.4,1.9-.2.5-.6.9-1,1.2-.4.3-.8.4-1.3.4s-.8,0-1.1-.2-.6-.3-.8-.4c-.2-.2-.4-.3-.6-.4-.2-.1-.4-.2-.6-.2s-.4.1-.6.3c-.1.2-.2.5-.3.9h-2.1c0-1.2.3-2,.9-2.6.5-.6,1.2-.9,2-.9s.7,0,1,.2c.3.1.5.3.7.4s.4.3.6.4c.2.1.4.2.6.2s.5-.1.6-.3c.1-.2.2-.5.3-.9h2.1Z"/>
        <path class="st4" d="M278.5,220.6c1.2,0,2.2.2,3,.7.9.4,1.6,1.1,2,2,.5.9.7,1.9.7,3.1s-.2,2.2-.7,3.1c-.5.9-1.2,1.5-2,2-.9.4-1.9.7-3,.7s-2.1-.2-3-.7c-.9-.4-1.6-1.1-2.1-2-.5-.9-.7-1.9-.7-3.1s.2-2.2.7-3.1c.5-.9,1.2-1.5,2.1-2,.9-.4,1.9-.7,3-.7ZM278.5,223.3c-.4,0-.8.1-1.1.3-.3.2-.5.5-.7,1-.2.5-.2,1-.2,1.8s0,1.3.2,1.7c.2.4.4.8.7,1,.3.2.7.3,1.1.3s.8-.1,1.1-.3c.3-.2.5-.5.7-1,.2-.4.2-1,.2-1.7s0-1.3-.2-1.8c-.2-.5-.4-.8-.7-1-.3-.2-.7-.3-1.1-.3Z"/>
        <path class="st4" d="M296.9,217.1c1.3,0,2.5.2,3.6.6,1,.4,1.9,1,2.7,1.8l-1.8,2.4c-.6-.7-1.3-1.2-2-1.5-.7-.3-1.6-.5-2.5-.5s-1,0-1.3.2c-.3.1-.6.3-.7.5s-.2.4-.2.7.1.6.4.8c.3.2.8.4,1.4.5l2.4.5c1.5.3,2.5.8,3.2,1.5.7.6,1,1.5,1,2.6s-.3,1.9-.8,2.6-1.3,1.2-2.2,1.6c-.9.4-2,.5-3.2.5s-1.9-.1-2.8-.3-1.7-.5-2.4-.9-1.3-.9-1.8-1.4l1.8-2.5c.4.4.8.8,1.4,1.1.5.3,1.1.6,1.8.8.6.2,1.3.3,1.9.3s.9,0,1.3-.2c.3-.1.6-.3.8-.5.2-.2.2-.4.2-.7s-.1-.6-.3-.8c-.2-.2-.6-.4-1.3-.5l-2.7-.6c-.8-.2-1.6-.4-2.2-.8-.6-.3-1.1-.7-1.5-1.3-.4-.5-.5-1.2-.5-2s.2-1.7.7-2.4,1.2-1.3,2.2-1.7,2.1-.6,3.4-.6Z"/>
        <path class="st4" d="M309.5,220.6c1.2,0,2.2.2,3,.7.9.4,1.6,1.1,2,2,.5.9.7,1.9.7,3.1s-.2,2.2-.7,3.1c-.5.9-1.2,1.5-2,2-.9.4-1.9.7-3,.7s-2.1-.2-3-.7c-.9-.4-1.6-1.1-2.1-2-.5-.9-.7-1.9-.7-3.1s.2-2.2.7-3.1c.5-.9,1.2-1.5,2.1-2,.9-.4,1.9-.7,3-.7ZM309.5,223.3c-.4,0-.8.1-1.1.3-.3.2-.5.5-.7,1-.2.5-.2,1-.2,1.8s0,1.3.2,1.7c.2.4.4.8.7,1,.3.2.7.3,1.1.3s.8-.1,1.1-.3c.3-.2.5-.5.7-1,.2-.4.2-1,.2-1.7s0-1.3-.2-1.8c-.2-.5-.4-.8-.7-1-.3-.2-.7-.3-1.1-.3Z"/>
        <path class="st4" d="M321.8,220.6c1.1,0,2,.2,2.8.5.7.3,1.3.7,1.7,1.3.4.5.7,1.1.8,1.7l-3.5,1.1c-.1-.6-.3-1.1-.6-1.4s-.7-.5-1.2-.5-.9.1-1.2.3c-.3.2-.6.5-.7,1-.2.5-.2,1.1-.2,1.8s0,1.3.3,1.7c.2.4.4.8.7,1,.3.2.7.3,1.1.3s.7,0,.9-.2c.2-.1.4-.3.6-.6.2-.3.3-.6.3-1l3.4,1.1c-.1.6-.4,1.2-.8,1.7s-1,.9-1.8,1.2c-.7.3-1.6.4-2.6.4s-2.3-.2-3.1-.7c-.9-.4-1.6-1.1-2.1-2-.5-.9-.7-1.9-.7-3.1s.2-2.2.7-3.1c.5-.9,1.2-1.5,2-2,.9-.4,1.9-.7,3-.7Z"/>
        <path class="st4" d="M330,219.6c-.8,0-1.3-.1-1.7-.4s-.5-.7-.5-1.4.2-1.1.5-1.4.9-.4,1.7-.4,1.3.1,1.7.4c.4.3.5.7.5,1.4s-.2,1.1-.5,1.4c-.4.3-.9.4-1.7.4ZM331.9,220.9v11h-3.7v-11h3.7Z"/>
        <path class="st4" d="M339.8,224.9c0-.5-.1-.9-.4-1.2s-.7-.5-1.2-.5-.9.1-1.2.4c-.3.2-.6.7-.7,1.3l-3.2-.7c.2-1.1.7-1.9,1.6-2.5.9-.6,2.1-.9,3.7-.9s2,.2,2.7.5c.8.3,1.3.8,1.7,1.4s.6,1.4.6,2.3v4c0,.6.3.9.8.9s.5,0,.6,0l-.2,2.1c-.4.2-1,.3-1.6.3s-1.1,0-1.5-.3c-.4-.2-.8-.5-1-.8-.2-.4-.4-.8-.4-1.4h0c0-.1.4-.3.4-.3,0,.6-.2,1.2-.6,1.6-.4.4-.9.7-1.5.9-.6.2-1.2.3-1.9.3s-1.4-.1-2-.4c-.6-.2-1-.6-1.3-1-.3-.4-.5-1-.5-1.7s.2-1.4.7-2c.5-.5,1.2-.9,2.3-1.1l4.2-.9v2s-2.1.4-2.1.4c-.4,0-.8.2-1,.4s-.3.4-.3.8.1.6.4.7c.2.2.5.2.8.2s.5,0,.7-.1c.2,0,.4-.2.6-.3.2-.2.3-.3.4-.6.1-.2.2-.5.2-.8v-2.9Z"/>
        <path class="st4" d="M349.2,216.2v11.9c0,.5,0,.8.2,1,.2.2.4.3.8.3s.4,0,.5,0,.3,0,.5-.1l-.2,2.2c-.3.2-.6.3-1,.4-.4.1-.8.2-1.3.2-1.2,0-2-.3-2.6-.8-.5-.5-.8-1.4-.8-2.7v-12.4h3.7Z"/>
      </g>
    </g>
    <g>
      <rect class="st0" x="175.2" y="292.7" width="144.4" height="134.7"/>
      <path class="st4" d="M194.7,303.1c0,3.7-2.4,5.7-7.2,5.7h-3v5.5h-6.1v-17.2h9.1c4.8,0,7.2,2,7.2,6ZM188.6,303c0-1.1-.6-1.6-2.1-1.6h-2.1v3.2h2.1c1.5,0,2.1-.5,2.1-1.6Z"/>
      <path class="st4" d="M209.4,307.7c0,4.3-2.7,6.8-7.3,6.8s-7.3-2.5-7.3-6.8,2.7-6.8,7.3-6.8,7.3,2.5,7.3,6.8ZM200.9,307.7c0,2.2.3,2.7,1.2,2.7s1.2-.5,1.2-2.7-.3-2.7-1.2-2.7-1.2.5-1.2,2.7Z"/>
      <path class="st4" d="M224.5,307.7c0,4.3-1.8,6.8-5,6.8s-3-1-3.7-2.4v7.6h-6v-18.5h5.3l.2,3c.7-2,2.1-3.3,4.3-3.3,3.2,0,5,2.4,5,6.7ZM218.5,307.7c0-2.1-.5-2.6-1.4-2.6s-1.3.7-1.3,2.5v.2c0,1.7.4,2.4,1.3,2.4s1.4-.5,1.4-2.5Z"/>
      <path class="st4" d="M239.2,301.2v13h-5.4v-2.8c-.9,2-2.4,3-4.5,3s-4.2-1.3-4.2-4.5v-8.8h6v7.3c0,1.2.3,1.5,1,1.5s1.2-.6,1.2-2.1v-6.8h6Z"/>
      <path class="st4" d="M246.2,309.1c0,1,.3,1.5,1.1,1.5s.6,0,.9-.1l-.3,3.2c-.7.5-2.1.8-3.2.8-3.2,0-4.5-1.3-4.5-4.5v-13.9h6v13Z"/>
      <path class="st4" d="M262.6,310.9l-.5,3c-.6.4-1.3.5-1.9.5-2.1,0-3.6-.7-4.1-2.2-.8,1.3-2.2,2.2-4.6,2.2s-4-1.1-4-3.1,1.4-3.4,5.1-4.2l2.6-.6v-.5c0-.8-.4-1.3-1.2-1.3s-1.3.3-1.4,1.6l-4.9-.8c.3-2.9,2.4-4.7,6.7-4.7s6.8,1.8,6.8,5.4v3.6c0,.7.3,1.1.9,1.1s.5,0,.7-.1ZM255.1,310v-1.2l-.9.3c-.7.2-1.2.7-1.2,1.4s.4.9.9.9,1.1-.4,1.1-1.3Z"/>
      <path class="st4" d="M270.5,308.7l5.4,1.7c0,1.7-1.4,3.2-4,3.8.9.6,1.3,1.4,1.3,2.3,0,2.4-1.9,3.3-4.2,3.3s-2.9-.5-3.5-1.1l1.2-2.5c.4.4,1.1.7,1.9.7s1.4-.4,1.4-1.1-.3-1-1.4-1.3c-4.5-.2-6.8-2.6-6.8-6.7s2.6-6.8,7.2-6.8,6.8,2.3,6.9,4.4l-5.5,1.6c0-1.4-.3-2-1-2-1,0-1.5.7-1.5,2.8s.6,2.7,1.5,2.7,1.1-.6,1.2-1.7Z"/>
      <path class="st4" d="M290.2,307.7c0,4.3-2.7,6.8-7.3,6.8s-7.3-2.5-7.3-6.8,2.7-6.8,7.3-6.8,7.3,2.5,7.3,6.8ZM284.7,300.1c-2.1,0-2.3-1.3-3.3-1.3s-.7.4-.8,1.2h-3.1c0-3.1,1.4-4.6,3.8-4.6s2.3,1.3,3.3,1.3.7-.4.8-1.2h3.1c0,3.1-1.4,4.6-3.8,4.6ZM281.7,307.7c0,2.2.3,2.7,1.2,2.7s1.2-.5,1.2-2.7-.3-2.7-1.2-2.7-1.2.5-1.2,2.7Z"/>
      <path class="st4" d="M304.2,308.9h-8.3c.2,1.4.8,1.6,1.8,1.6s1.4-.4,1.6-1.1l4.8,1.3c-.6,2.6-3.2,3.8-6.4,3.8-5,0-7.5-2.4-7.5-6.8s2.6-6.8,7.2-6.8,6.9,2.5,6.9,6.3,0,1.2-.1,1.6ZM296,306.7h2.8c-.1-1.1-.4-1.7-1.3-1.7s-1.4.4-1.5,1.7Z"/>
      <path class="st4" d="M304,312.6l2.6-3.2c.9.8,2.3,1.5,3.8,1.5s1.1-.1,1.1-.4-.5-.5-2-.8c-3.8-.8-5.4-2.1-5.4-4.2s2.1-4.5,7-4.5,5.3,1,6.3,1.9l-2.4,2.9c-1-1-2.3-1.2-3.5-1.2s-1.3.2-1.3.5.4.4,1.6.5c4,.5,5.7,1.9,5.7,4.3s-2,4.7-6.7,4.7-5.4-.5-6.9-1.9Z"/>
      <path class="st4" d="M199.2,327.2v18.2h-5.4l-.2-2.6c-.7,1.7-2.1,2.8-4.1,2.8-3.2,0-5-2.4-5-6.7s1.8-6.8,5-6.8,3,1,3.7,2.4v-7.4h6ZM193.2,339v-.2c0-1.7-.4-2.4-1.3-2.4s-1.4.5-1.4,2.5.5,2.6,1.4,2.6,1.3-.7,1.3-2.5Z"/>
      <path class="st4" d="M214.2,338.9c0,4.3-2.7,6.8-7.3,6.8s-7.3-2.5-7.3-6.8,2.7-6.8,7.3-6.8,7.3,2.5,7.3,6.8ZM205.7,338.9c0,2.2.3,2.7,1.2,2.7s1.2-.5,1.2-2.7-.3-2.7-1.2-2.7-1.2.5-1.2,2.7Z"/>
      <path class="st4" d="M228.7,345.7c-5.4,0-8.7-3.2-8.7-8.8s3.3-8.8,8.7-8.8,7.1,1.5,7.8,5.2l-5.2,2c-.3-2.2-1-2.7-2.4-2.7s-2.7,1.3-2.7,4.3.8,4.3,2.7,4.3,2.3-.7,2.5-2.3l5.4,1.4c-1,4-4,5.5-7.9,5.5Z"/>
      <path class="st4" d="M251.3,342.1l-.5,3c-.6.4-1.3.5-1.9.5-2.1,0-3.6-.7-4.1-2.2-.8,1.3-2.2,2.2-4.6,2.2s-4-1.1-4-3.1,1.4-3.4,5.1-4.2l2.6-.6v-.5c0-.8-.4-1.3-1.2-1.3s-1.3.3-1.4,1.6l-4.9-.8c.3-2.9,2.4-4.7,6.7-4.7s6.8,1.8,6.8,5.4v3.6c0,.7.3,1.1.9,1.1s.5,0,.6-.1ZM243.8,341.2v-1.2l-.9.3c-.7.2-1.2.7-1.2,1.4s.4.9.9.9,1.1-.4,1.1-1.3Z"/>
      <path class="st4" d="M273.2,336.5v8.9h-6v-7.3c0-1.2-.3-1.5-.9-1.5s-1.2.6-1.2,2v6.8h-6v-7.3c0-1.2-.3-1.5-.9-1.5s-1.2.6-1.2,2v6.8h-6v-13h5.4v2.8c.9-2,2.4-3.1,4.7-3.1s3.3.9,3.8,2.6c.8-1.7,2.3-2.6,4.3-2.6s4.1,1.6,4.1,4.4Z"/>
      <path class="st4" d="M288.8,338.9c0,4.3-1.8,6.8-5,6.8s-3-1-3.7-2.4v7.6h-6v-18.5h5.3l.2,3c.7-2,2.1-3.3,4.3-3.3,3.2,0,5,2.4,5,6.7ZM282.8,338.9c0-2.1-.5-2.6-1.4-2.6s-1.3.7-1.3,2.5v.2c0,1.7.4,2.4,1.3,2.4s1.4-.5,1.4-2.5Z"/>
      <path class="st4" d="M303.5,338.9c0,4.3-2.7,6.8-7.3,6.8s-7.3-2.5-7.3-6.8,2.7-6.8,7.3-6.8,7.3,2.5,7.3,6.8ZM295,338.9c0,2.2.3,2.7,1.2,2.7s1.2-.5,1.2-2.7-.3-2.7-1.2-2.7-1.2.5-1.2,2.7Z"/>
      <path class="st4" d="M310.2,344c0,2.5-1.4,4.7-4.1,5.8l-2.5-1.6c1.7-.7,3.1-1.5,3.7-2.9h-.1c-.2.2-.5.3-.8.3-1.3,0-2.7-.8-2.7-2.6s1.3-2.9,3.2-2.9,3.4,1.8,3.4,3.9Z"/>
      <path class="st4" d="M194.9,358.4v18.2h-5.4l-.2-2.6c-.7,1.7-2.1,2.8-4.1,2.8-3.2,0-5-2.4-5-6.7s1.8-6.8,5-6.8,3,1,3.7,2.4v-7.4h6ZM188.9,370.2v-.2c0-1.7-.4-2.4-1.3-2.4s-1.4.5-1.4,2.5.5,2.6,1.4,2.6,1.3-.7,1.3-2.5Z"/>
      <path class="st4" d="M210.4,373.3l-.5,3c-.6.4-1.3.5-1.9.5-2.1,0-3.6-.7-4.1-2.2-.8,1.3-2.2,2.2-4.6,2.2s-4-1.1-4-3.1,1.4-3.4,5.1-4.2l2.6-.6v-.5c0-.8-.4-1.3-1.2-1.3s-1.3.3-1.4,1.6l-4.9-.8c.3-2.9,2.4-4.7,6.7-4.7s6.8,1.8,6.8,5.4v3.6c0,.7.3,1.1.9,1.1s.5,0,.6-.1ZM203,372.4v-1.2l-.9.3c-.7.2-1.2.7-1.2,1.4s.4.9.9.9,1.1-.4,1.1-1.3Z"/>
      <path class="st4" d="M222,363.9v2.4h6.6v4.4h-6.6v5.9h-6.1v-17.2h14.2v4.4h-8.2Z"/>
      <path class="st4" d="M236.5,371.5c0,1,.3,1.5,1.1,1.5s.6,0,.9-.1l-.3,3.2c-.7.5-2.1.8-3.2.8-3.2,0-4.5-1.3-4.5-4.5v-13.9h6v13Z"/>
      <path class="st4" d="M252.4,370.1c0,4.3-2.7,6.8-7.3,6.8s-7.3-2.5-7.3-6.8,2.7-6.8,7.3-6.8,7.3,2.5,7.3,6.8ZM243.9,370.1c0,2.2.3,2.7,1.2,2.7s1.2-.5,1.2-2.7-.3-2.7-1.2-2.7-1.2.5-1.2,2.7Z"/>
      <path class="st4" d="M263.6,363.7l-.5,4.9c-.3-.2-.9-.4-1.6-.4-1.6,0-2.6.8-2.6,2.2v6.2h-6v-13h5.4v3.2c.7-2.1,1.9-3.5,4-3.5s1.2.2,1.4.3Z"/>
      <path class="st4" d="M276.9,371.3h-8.3c.2,1.4.8,1.6,1.8,1.6s1.4-.4,1.6-1.1l4.8,1.3c-.6,2.6-3.2,3.8-6.4,3.8-5,0-7.5-2.4-7.5-6.8s2.6-6.8,7.2-6.8,6.9,2.5,6.9,6.3,0,1.2-.1,1.6ZM268.6,369.1h2.8c-.1-1.1-.4-1.7-1.3-1.7s-1.4.4-1.5,1.7Z"/>
      <path class="st4" d="M276.6,375l2.6-3.2c.9.8,2.3,1.5,3.8,1.5s1.1-.1,1.1-.4-.5-.5-2-.8c-3.8-.8-5.4-2.1-5.4-4.2s2.1-4.5,7-4.5,5.3,1,6.3,1.9l-2.4,2.9c-1-1-2.3-1.2-3.5-1.2s-1.3.2-1.3.5.4.4,1.6.5c4,.5,5.7,1.9,5.7,4.3s-2,4.7-6.7,4.7-5.4-.5-6.9-1.9Z"/>
      <path class="st4" d="M300.9,376c-.9.5-2.6.9-3.9.9-3.6,0-5.6-1.2-5.6-4.6v-4.6h-2v-4h2v-2.8l6-1.7v4.4h3.3v4h-3.3v3.7c0,1.2.5,1.6,1.6,1.6s1.2-.1,1.6-.3l.3,3.4Z"/>
      <path class="st4" d="M315.5,373.3l-.5,3c-.6.4-1.3.5-1.9.5-2.1,0-3.6-.7-4.1-2.2-.8,1.3-2.2,2.2-4.6,2.2s-4-1.1-4-3.1,1.4-3.4,5.1-4.2l2.6-.6v-.5c0-.8-.4-1.3-1.2-1.3s-1.3.3-1.4,1.6l-4.9-.8c.3-2.9,2.4-4.7,6.7-4.7s6.8,1.8,6.8,5.4v3.6c0,.7.3,1.1.9,1.1s.5,0,.7-.1ZM308,372.4v-1.2l-.9.3c-.7.2-1.2.7-1.2,1.4s.4.9.9.9,1.1-.4,1.1-1.3Z"/>
      <path class="st4" d="M215.1,402.5h-8.3c.2,1.4.8,1.6,1.8,1.6s1.4-.4,1.6-1.1l4.8,1.3c-.6,2.6-3.2,3.8-6.4,3.8-5,0-7.5-2.4-7.5-6.8s2.6-6.8,7.2-6.8,6.9,2.5,6.9,6.3,0,1.2-.1,1.6ZM206.8,400.3h2.8c-.1-1.1-.4-1.7-1.3-1.7s-1.4.4-1.5,1.7Z"/>
      <path class="st4" d="M231.3,404.6h-4.6l-.8,3.3h-6l5.6-17.2h7.3l5.6,17.2h-6.2l-.8-3.3ZM231,389.4h-4.2l1.5-4.3h5.1l-2.4,4.3ZM230.5,400.8l-1.4-5.7h0l-.7,2.9-.7,2.8h2.8Z"/>
      <path class="st4" d="M252.2,408.6c0,3.3-2.9,4.9-7.9,4.9s-7.1-1-7.1-2.8.6-2,2.5-2.4c-1.2-.5-2.2-1.4-2.2-2.9s.9-2.2,2.2-2.7c-1.5-.7-2.2-1.9-2.2-3.6,0-3,2.4-4.4,7-4.4s1.8,0,2.5.2c.2-2.2,1.4-4.5,4.4-4.1l.5,3.7c-1.6-.4-2.6.2-3,1,1.7.7,2.5,2,2.5,3.7,0,3-2.4,4.4-7,4.4s-2.1,0-2.9-.2c-.2,0-.3.2-.3.4,0,.3.3.5,1.1.5h4.5c3.4,0,5.3,1.4,5.3,4.4ZM247.7,409.2c0-.3-.2-.4-.9-.4h-3.6c-1.3,0-1.6,0-1.6.4s.9.6,3.1.6,3-.2,3-.6ZM243.5,399c0,.8.4,1.3,1.1,1.3s1.1-.5,1.1-1.3-.4-1.3-1.1-1.3-1.1.5-1.1,1.3Z"/>
      <path class="st4" d="M266.1,394.8v13h-5.4v-2.8c-.9,2-2.4,3-4.5,3s-4.2-1.3-4.2-4.5v-8.8h6v7.3c0,1.2.3,1.5,1,1.5s1.2-.7,1.2-2.1v-6.8h6Z"/>
      <path class="st4" d="M281.6,404.5l-.5,3c-.6.4-1.3.5-1.9.5-2.1,0-3.6-.7-4.1-2.2-.8,1.3-2.2,2.2-4.6,2.2s-4-1.1-4-3.1,1.4-3.4,5.1-4.2l2.6-.6v-.5c0-.8-.4-1.3-1.2-1.3s-1.3.3-1.4,1.6l-4.9-.8c.3-2.9,2.4-4.7,6.7-4.7s6.8,1.8,6.8,5.4v3.6c0,.7.3,1.1.9,1.1s.5,0,.6-.1ZM274.1,403.6v-1.2l-.9.3c-.7.2-1.2.7-1.2,1.4s.4.9.9.9,1.1-.4,1.1-1.3Z"/>
      <path class="st4" d="M280.5,406.2l2.6-3.2c.9.8,2.3,1.5,3.8,1.5s1.1-.1,1.1-.4-.5-.5-2-.8c-3.8-.8-5.4-2.1-5.4-4.2s2.1-4.5,7-4.5,5.3,1,6.3,1.9l-2.4,2.9c-1-1-2.3-1.2-3.5-1.2s-1.3.2-1.3.5.4.4,1.6.5c4,.5,5.7,1.9,5.7,4.3s-2,4.7-6.7,4.7-5.4-.5-6.9-1.9Z"/>
    </g>
  </g>
</svg>