<?xml version="1.0" encoding="UTF-8"?>
<svg id="Layer_1" xmlns="http://www.w3.org/2000/svg" version="1.1" viewBox="0 0 1280 720">
  <!-- Generator: Adobe Illustrator 29.3.0, SVG Export Plug-In . SVG Version: 2.1.0 Build 146)  -->
  <defs>
    <style>
      .st0 {
        fill: none;
      }

      .st1 {
        fill: #00b7a8;
      }

      .st2 {
        fill: #fdc763;
      }

      .st3 {
        fill: #6ac8ca;
      }

      .st4 {
        fill: #145063;
      }

      .st5 {
        opacity: .2;
      }

      .st6 {
        fill: #f3a791;
      }
    </style>
  </defs>
  <g id="img2">
    <g id="dots" class="st5">
      <path class="st1" d="M72.1,504.8c2.2,0,4,1.8,4,4s-1.8,4-4,4-4-1.8-4-4,1.8-4,4-4Z"/>
      <path class="st1" d="M72.1,460.2c2.2,0,4,1.8,4,4s-1.8,4-4,4-4-1.8-4-4,1.8-4,4-4Z"/>
      <path class="st1" d="M72.1,416.8c2.2,0,4,1.8,4,4s-1.8,4-4,4-4-1.8-4-4,1.8-4,4-4Z"/>
      <path class="st1" d="M72.1,372.8c2.2,0,4,1.8,4,4s-1.8,4-4,4-4-1.8-4-4,1.8-4,4-4Z"/>
      <path class="st1" d="M72.1,329.5c2.2,0,4,1.8,4,4s-1.8,4-4,4-4-1.8-4-4,1.8-4,4-4Z"/>
      <path class="st1" d="M72.1,285c2.2,0,4,1.8,4,4s-1.8,4-4,4-4-1.8-4-4,1.8-4,4-4Z"/>
      <path class="st1" d="M72.1,241.5c2.2,0,4,1.8,4,4s-1.8,4-4,4-4-1.8-4-4,1.8-4,4-4Z"/>
      <path class="st1" d="M72.1,197.5c2.2,0,4,1.8,4,4s-1.8,4-4,4-4-1.8-4-4,1.8-4,4-4Z"/>
      <path class="st1" d="M28.1,504.8c2.2,0,4,1.8,4,4s-1.8,4-4,4-4-1.8-4-4,1.8-4,4-4Z"/>
      <path class="st1" d="M28.1,460.2c2.2,0,4,1.8,4,4s-1.8,4-4,4-4-1.8-4-4,1.8-4,4-4Z"/>
      <path class="st1" d="M28.1,416.8c2.2,0,4,1.8,4,4s-1.8,4-4,4-4-1.8-4-4,1.8-4,4-4Z"/>
      <path class="st1" d="M28.1,372.8c2.2,0,4,1.8,4,4s-1.8,4-4,4-4-1.8-4-4,1.8-4,4-4Z"/>
      <path class="st1" d="M28.1,329.5c2.2,0,4,1.8,4,4s-1.8,4-4,4-4-1.8-4-4,1.8-4,4-4Z"/>
      <path class="st1" d="M28.1,285c2.2,0,4,1.8,4,4s-1.8,4-4,4-4-1.8-4-4,1.8-4,4-4Z"/>
      <path class="st1" d="M28.1,241.5c2.2,0,4,1.8,4,4s-1.8,4-4,4-4-1.8-4-4,1.8-4,4-4Z"/>
      <path class="st1" d="M28.1,197.5c2.2,0,4,1.8,4,4s-1.8,4-4,4-4-1.8-4-4,1.8-4,4-4Z"/>
      <path class="st1" d="M115.7,504.8c2.2,0,4,1.8,4,4s-1.8,4-4,4-4-1.8-4-4,1.8-4,4-4Z"/>
      <path class="st1" d="M115.7,460.2c2.2,0,4,1.8,4,4s-1.8,4-4,4-4-1.8-4-4,1.8-4,4-4Z"/>
      <path class="st1" d="M115.7,416.8c2.2,0,4,1.8,4,4s-1.8,4-4,4-4-1.8-4-4,1.8-4,4-4Z"/>
      <path class="st1" d="M115.7,372.8c2.2,0,4,1.8,4,4s-1.8,4-4,4-4-1.8-4-4,1.8-4,4-4Z"/>
      <path class="st1" d="M115.7,329.5c2.2,0,4,1.8,4,4s-1.8,4-4,4-4-1.8-4-4,1.8-4,4-4Z"/>
      <path class="st1" d="M115.7,285c2.2,0,4,1.8,4,4s-1.8,4-4,4-4-1.8-4-4,1.8-4,4-4Z"/>
      <path class="st1" d="M115.7,241.5c2.2,0,4,1.8,4,4s-1.8,4-4,4-4-1.8-4-4,1.8-4,4-4Z"/>
      <path class="st1" d="M115.7,197.5c2.2,0,4,1.8,4,4s-1.8,4-4,4-4-1.8-4-4,1.8-4,4-4Z"/>
      <path class="st1" d="M159.6,504.8c2.2,0,4,1.8,4,4s-1.8,4-4,4-4-1.8-4-4,1.8-4,4-4Z"/>
      <path class="st1" d="M159.6,460.2c2.2,0,4,1.8,4,4s-1.8,4-4,4-4-1.8-4-4,1.8-4,4-4Z"/>
      <path class="st1" d="M159.6,416.8c2.2,0,4,1.8,4,4s-1.8,4-4,4-4-1.8-4-4,1.8-4,4-4Z"/>
      <path class="st1" d="M159.6,372.8c2.2,0,4,1.8,4,4s-1.8,4-4,4-4-1.8-4-4,1.8-4,4-4Z"/>
      <path class="st1" d="M159.6,329.5c2.2,0,4,1.8,4,4s-1.8,4-4,4-4-1.8-4-4,1.8-4,4-4Z"/>
      <path class="st1" d="M159.6,285c2.2,0,4,1.8,4,4s-1.8,4-4,4-4-1.8-4-4,1.8-4,4-4Z"/>
      <path class="st1" d="M159.6,241.5c2.2,0,4,1.8,4,4s-1.8,4-4,4-4-1.8-4-4,1.8-4,4-4Z"/>
      <path class="st1" d="M159.6,197.5c2.2,0,4,1.8,4,4s-1.8,4-4,4-4-1.8-4-4,1.8-4,4-4Z"/>
      <path class="st1" d="M202.8,504.8c2.2,0,4,1.8,4,4s-1.8,4-4,4-4-1.8-4-4,1.8-4,4-4Z"/>
      <path class="st1" d="M202.8,460.2c2.2,0,4,1.8,4,4s-1.8,4-4,4-4-1.8-4-4,1.8-4,4-4Z"/>
      <path class="st1" d="M202.8,416.8c2.2,0,4,1.8,4,4s-1.8,4-4,4-4-1.8-4-4,1.8-4,4-4Z"/>
      <path class="st1" d="M202.8,372.8c2.2,0,4,1.8,4,4s-1.8,4-4,4-4-1.8-4-4,1.8-4,4-4Z"/>
      <path class="st1" d="M202.8,329.5c2.2,0,4,1.8,4,4s-1.8,4-4,4-4-1.8-4-4,1.8-4,4-4Z"/>
      <path class="st1" d="M202.8,285c2.2,0,4,1.8,4,4s-1.8,4-4,4-4-1.8-4-4,1.8-4,4-4Z"/>
      <path class="st1" d="M202.8,241.5c2.2,0,4,1.8,4,4s-1.8,4-4,4-4-1.8-4-4,1.8-4,4-4Z"/>
      <path class="st1" d="M202.8,197.5c2.2,0,4,1.8,4,4s-1.8,4-4,4-4-1.8-4-4,1.8-4,4-4Z"/>
      <path class="st1" d="M246.6,504.8c2.2,0,4,1.8,4,4s-1.8,4-4,4-4-1.8-4-4,1.8-4,4-4Z"/>
      <path class="st1" d="M246.6,460.2c2.2,0,4,1.8,4,4s-1.8,4-4,4-4-1.8-4-4,1.8-4,4-4Z"/>
      <path class="st1" d="M246.6,416.8c2.2,0,4,1.8,4,4s-1.8,4-4,4-4-1.8-4-4,1.8-4,4-4Z"/>
      <path class="st1" d="M246.6,372.8c2.2,0,4,1.8,4,4s-1.8,4-4,4-4-1.8-4-4,1.8-4,4-4Z"/>
      <path class="st1" d="M246.6,329.5c2.2,0,4,1.8,4,4s-1.8,4-4,4-4-1.8-4-4,1.8-4,4-4Z"/>
      <path class="st1" d="M246.6,285c2.2,0,4,1.8,4,4s-1.8,4-4,4-4-1.8-4-4,1.8-4,4-4Z"/>
      <path class="st1" d="M246.6,241.5c2.2,0,4,1.8,4,4s-1.8,4-4,4-4-1.8-4-4,1.8-4,4-4Z"/>
      <path class="st1" d="M246.6,197.5c2.2,0,4,1.8,4,4s-1.8,4-4,4-4-1.8-4-4,1.8-4,4-4Z"/>
      <path class="st1" d="M290.4,504.8c2.2,0,4,1.8,4,4s-1.8,4-4,4-4-1.8-4-4,1.8-4,4-4Z"/>
      <path class="st1" d="M290.4,460.2c2.2,0,4,1.8,4,4s-1.8,4-4,4-4-1.8-4-4,1.8-4,4-4Z"/>
      <path class="st1" d="M290.4,416.8c2.2,0,4,1.8,4,4s-1.8,4-4,4-4-1.8-4-4,1.8-4,4-4Z"/>
      <path class="st1" d="M290.4,372.8c2.2,0,4,1.8,4,4s-1.8,4-4,4-4-1.8-4-4,1.8-4,4-4Z"/>
      <path class="st1" d="M290.4,329.5c2.2,0,4,1.8,4,4s-1.8,4-4,4-4-1.8-4-4,1.8-4,4-4Z"/>
      <path class="st1" d="M290.4,285c2.2,0,4,1.8,4,4s-1.8,4-4,4-4-1.8-4-4,1.8-4,4-4Z"/>
      <path class="st1" d="M290.4,241.5c2.2,0,4,1.8,4,4s-1.8,4-4,4-4-1.8-4-4,1.8-4,4-4Z"/>
      <path class="st1" d="M290.4,197.5c2.2,0,4,1.8,4,4s-1.8,4-4,4-4-1.8-4-4,1.8-4,4-4Z"/>
      <path class="st1" d="M334.5,504.8c2.2,0,4,1.8,4,4s-1.8,4-4,4-4-1.8-4-4,1.8-4,4-4Z"/>
      <path class="st1" d="M334.5,460.2c2.2,0,4,1.8,4,4s-1.8,4-4,4-4-1.8-4-4,1.8-4,4-4Z"/>
      <path class="st1" d="M334.5,416.8c2.2,0,4,1.8,4,4s-1.8,4-4,4-4-1.8-4-4,1.8-4,4-4Z"/>
      <path class="st1" d="M334.5,372.8c2.2,0,4,1.8,4,4s-1.8,4-4,4-4-1.8-4-4,1.8-4,4-4Z"/>
      <path class="st1" d="M334.5,329.5c2.2,0,4,1.8,4,4s-1.8,4-4,4-4-1.8-4-4,1.8-4,4-4Z"/>
      <path class="st1" d="M334.5,285c2.2,0,4,1.8,4,4s-1.8,4-4,4-4-1.8-4-4,1.8-4,4-4Z"/>
      <path class="st1" d="M334.5,241.5c2.2,0,4,1.8,4,4s-1.8,4-4,4-4-1.8-4-4,1.8-4,4-4Z"/>
      <path class="st1" d="M334.5,197.5c2.2,0,4,1.8,4,4s-1.8,4-4,4-4-1.8-4-4,1.8-4,4-4Z"/>
      <path class="st1" d="M378.3,504.8c2.2,0,4,1.8,4,4s-1.8,4-4,4-4-1.8-4-4,1.8-4,4-4Z"/>
      <path class="st1" d="M378.3,460.2c2.2,0,4,1.8,4,4s-1.8,4-4,4-4-1.8-4-4,1.8-4,4-4Z"/>
      <path class="st1" d="M378.3,416.8c2.2,0,4,1.8,4,4s-1.8,4-4,4-4-1.8-4-4,1.8-4,4-4Z"/>
      <path class="st1" d="M378.3,372.8c2.2,0,4,1.8,4,4s-1.8,4-4,4-4-1.8-4-4,1.8-4,4-4Z"/>
      <path class="st1" d="M378.3,329.5c2.2,0,4,1.8,4,4s-1.8,4-4,4-4-1.8-4-4,1.8-4,4-4Z"/>
      <path class="st1" d="M378.3,285c2.2,0,4,1.8,4,4s-1.8,4-4,4-4-1.8-4-4,1.8-4,4-4Z"/>
      <path class="st1" d="M378.3,241.5c2.2,0,4,1.8,4,4s-1.8,4-4,4-4-1.8-4-4,1.8-4,4-4Z"/>
      <path class="st1" d="M378.3,197.5c2.2,0,4,1.8,4,4s-1.8,4-4,4-4-1.8-4-4,1.8-4,4-4Z"/>
      <path class="st1" d="M903.7,504.8c2.2,0,4,1.8,4,4s-1.8,4-4,4-4-1.8-4-4,1.8-4,4-4Z"/>
      <path class="st1" d="M903.7,460.2c2.2,0,4,1.8,4,4s-1.8,4-4,4-4-1.8-4-4,1.8-4,4-4Z"/>
      <path class="st1" d="M903.7,416.8c2.2,0,4,1.8,4,4s-1.8,4-4,4-4-1.8-4-4,1.8-4,4-4Z"/>
      <path class="st1" d="M903.7,372.8c2.2,0,4,1.8,4,4s-1.8,4-4,4-4-1.8-4-4,1.8-4,4-4Z"/>
      <path class="st1" d="M903.7,329.5c2.2,0,4,1.8,4,4s-1.8,4-4,4-4-1.8-4-4,1.8-4,4-4Z"/>
      <path class="st1" d="M903.7,285c2.2,0,4,1.8,4,4s-1.8,4-4,4-4-1.8-4-4,1.8-4,4-4Z"/>
      <path class="st1" d="M903.7,241.5c2.2,0,4,1.8,4,4s-1.8,4-4,4-4-1.8-4-4,1.8-4,4-4Z"/>
      <path class="st1" d="M903.7,197.5c2.2,0,4,1.8,4,4s-1.8,4-4,4-4-1.8-4-4,1.8-4,4-4Z"/>
      <path class="st1" d="M945.9,504.8c2.2,0,4,1.8,4,4s-1.8,4-4,4-4-1.8-4-4,1.8-4,4-4Z"/>
      <path class="st1" d="M945.9,460.2c2.2,0,4,1.8,4,4s-1.8,4-4,4-4-1.8-4-4,1.8-4,4-4Z"/>
      <path class="st1" d="M945.9,416.8c2.2,0,4,1.8,4,4s-1.8,4-4,4-4-1.8-4-4,1.8-4,4-4Z"/>
      <path class="st1" d="M945.9,372.8c2.2,0,4,1.8,4,4s-1.8,4-4,4-4-1.8-4-4,1.8-4,4-4Z"/>
      <path class="st1" d="M945.9,329.5c2.2,0,4,1.8,4,4s-1.8,4-4,4-4-1.8-4-4,1.8-4,4-4Z"/>
      <path class="st1" d="M945.9,285c2.2,0,4,1.8,4,4s-1.8,4-4,4-4-1.8-4-4,1.8-4,4-4Z"/>
      <path class="st1" d="M945.9,241.5c2.2,0,4,1.8,4,4s-1.8,4-4,4-4-1.8-4-4,1.8-4,4-4Z"/>
      <path class="st1" d="M945.9,197.5c2.2,0,4,1.8,4,4s-1.8,4-4,4-4-1.8-4-4,1.8-4,4-4Z"/>
      <path class="st1" d="M989.8,504.8c2.2,0,4,1.8,4,4s-1.8,4-4,4-4-1.8-4-4,1.8-4,4-4Z"/>
      <path class="st1" d="M989.8,460.2c2.2,0,4,1.8,4,4s-1.8,4-4,4-4-1.8-4-4,1.8-4,4-4Z"/>
      <path class="st1" d="M989.8,416.8c2.2,0,4,1.8,4,4s-1.8,4-4,4-4-1.8-4-4,1.8-4,4-4Z"/>
      <path class="st1" d="M989.8,372.8c2.2,0,4,1.8,4,4s-1.8,4-4,4-4-1.8-4-4,1.8-4,4-4Z"/>
      <path class="st1" d="M989.8,329.5c2.2,0,4,1.8,4,4s-1.8,4-4,4-4-1.8-4-4,1.8-4,4-4Z"/>
      <path class="st1" d="M989.8,285c2.2,0,4,1.8,4,4s-1.8,4-4,4-4-1.8-4-4,1.8-4,4-4Z"/>
      <path class="st1" d="M989.8,241.5c2.2,0,4,1.8,4,4s-1.8,4-4,4-4-1.8-4-4,1.8-4,4-4Z"/>
      <path class="st1" d="M989.8,197.5c2.2,0,4,1.8,4,4s-1.8,4-4,4-4-1.8-4-4,1.8-4,4-4Z"/>
      <path class="st1" d="M1033,504.8c2.2,0,4,1.8,4,4s-1.8,4-4,4-4-1.8-4-4,1.8-4,4-4Z"/>
      <path class="st1" d="M1033,460.2c2.2,0,4,1.8,4,4s-1.8,4-4,4-4-1.8-4-4,1.8-4,4-4Z"/>
      <path class="st1" d="M1033,416.8c2.2,0,4,1.8,4,4s-1.8,4-4,4-4-1.8-4-4,1.8-4,4-4Z"/>
      <path class="st1" d="M1033,372.8c2.2,0,4,1.8,4,4s-1.8,4-4,4-4-1.8-4-4,1.8-4,4-4Z"/>
      <path class="st1" d="M1033,329.5c2.2,0,4,1.8,4,4s-1.8,4-4,4-4-1.8-4-4,1.8-4,4-4Z"/>
      <path class="st1" d="M1033,285c2.2,0,4,1.8,4,4s-1.8,4-4,4-4-1.8-4-4,1.8-4,4-4Z"/>
      <path class="st1" d="M1033,241.5c2.2,0,4,1.8,4,4s-1.8,4-4,4-4-1.8-4-4,1.8-4,4-4Z"/>
      <path class="st1" d="M1033,197.5c2.2,0,4,1.8,4,4s-1.8,4-4,4-4-1.8-4-4,1.8-4,4-4Z"/>
      <path class="st1" d="M1076.9,504.8c2.2,0,4,1.8,4,4s-1.8,4-4,4-4-1.8-4-4,1.8-4,4-4Z"/>
      <path class="st1" d="M1076.9,460.2c2.2,0,4,1.8,4,4s-1.8,4-4,4-4-1.8-4-4,1.8-4,4-4Z"/>
      <path class="st1" d="M1076.9,416.8c2.2,0,4,1.8,4,4s-1.8,4-4,4-4-1.8-4-4,1.8-4,4-4Z"/>
      <path class="st1" d="M1076.9,372.8c2.2,0,4,1.8,4,4s-1.8,4-4,4-4-1.8-4-4,1.8-4,4-4Z"/>
      <path class="st1" d="M1076.9,329.5c2.2,0,4,1.8,4,4s-1.8,4-4,4-4-1.8-4-4,1.8-4,4-4Z"/>
      <path class="st1" d="M1076.9,285c2.2,0,4,1.8,4,4s-1.8,4-4,4-4-1.8-4-4,1.8-4,4-4Z"/>
      <path class="st1" d="M1076.9,241.5c2.2,0,4,1.8,4,4s-1.8,4-4,4-4-1.8-4-4,1.8-4,4-4Z"/>
      <path class="st1" d="M1076.9,197.5c2.2,0,4,1.8,4,4s-1.8,4-4,4-4-1.8-4-4,1.8-4,4-4Z"/>
      <path class="st1" d="M1120.7,504.8c2.2,0,4,1.8,4,4s-1.8,4-4,4-4-1.8-4-4,1.8-4,4-4Z"/>
      <path class="st1" d="M1120.7,460.2c2.2,0,4,1.8,4,4s-1.8,4-4,4-4-1.8-4-4,1.8-4,4-4Z"/>
      <path class="st1" d="M1120.7,416.8c2.2,0,4,1.8,4,4s-1.8,4-4,4-4-1.8-4-4,1.8-4,4-4Z"/>
      <path class="st1" d="M1120.7,372.8c2.2,0,4,1.8,4,4s-1.8,4-4,4-4-1.8-4-4,1.8-4,4-4Z"/>
      <path class="st1" d="M1120.7,329.5c2.2,0,4,1.8,4,4s-1.8,4-4,4-4-1.8-4-4,1.8-4,4-4Z"/>
      <path class="st1" d="M1120.7,285c2.2,0,4,1.8,4,4s-1.8,4-4,4-4-1.8-4-4,1.8-4,4-4Z"/>
      <path class="st1" d="M1120.7,241.5c2.2,0,4,1.8,4,4s-1.8,4-4,4-4-1.8-4-4,1.8-4,4-4Z"/>
      <path class="st1" d="M1120.7,197.5c2.2,0,4,1.8,4,4s-1.8,4-4,4-4-1.8-4-4,1.8-4,4-4Z"/>
      <path class="st1" d="M1164.8,504.8c2.2,0,4,1.8,4,4s-1.8,4-4,4-4-1.8-4-4,1.8-4,4-4Z"/>
      <path class="st1" d="M1164.8,460.2c2.2,0,4,1.8,4,4s-1.8,4-4,4-4-1.8-4-4,1.8-4,4-4Z"/>
      <path class="st1" d="M1164.8,416.8c2.2,0,4,1.8,4,4s-1.8,4-4,4-4-1.8-4-4,1.8-4,4-4Z"/>
      <path class="st1" d="M1164.8,372.8c2.2,0,4,1.8,4,4s-1.8,4-4,4-4-1.8-4-4,1.8-4,4-4Z"/>
      <path class="st1" d="M1164.8,329.5c2.2,0,4,1.8,4,4s-1.8,4-4,4-4-1.8-4-4,1.8-4,4-4Z"/>
      <path class="st1" d="M1164.8,285c2.2,0,4,1.8,4,4s-1.8,4-4,4-4-1.8-4-4,1.8-4,4-4Z"/>
      <path class="st1" d="M1164.8,241.5c2.2,0,4,1.8,4,4s-1.8,4-4,4-4-1.8-4-4,1.8-4,4-4Z"/>
      <path class="st1" d="M1164.8,197.5c2.2,0,4,1.8,4,4s-1.8,4-4,4-4-1.8-4-4,1.8-4,4-4Z"/>
      <path class="st1" d="M1208.6,504.8c2.2,0,4,1.8,4,4s-1.8,4-4,4-4-1.8-4-4,1.8-4,4-4Z"/>
      <path class="st1" d="M1208.6,460.2c2.2,0,4,1.8,4,4s-1.8,4-4,4-4-1.8-4-4,1.8-4,4-4Z"/>
      <path class="st1" d="M1208.6,416.8c2.2,0,4,1.8,4,4s-1.8,4-4,4-4-1.8-4-4,1.8-4,4-4Z"/>
      <path class="st1" d="M1208.6,372.8c2.2,0,4,1.8,4,4s-1.8,4-4,4-4-1.8-4-4,1.8-4,4-4Z"/>
      <path class="st1" d="M1208.6,329.5c2.2,0,4,1.8,4,4s-1.8,4-4,4-4-1.8-4-4,1.8-4,4-4Z"/>
      <path class="st1" d="M1208.6,285c2.2,0,4,1.8,4,4s-1.8,4-4,4-4-1.8-4-4,1.8-4,4-4Z"/>
      <path class="st1" d="M1208.6,241.5c2.2,0,4,1.8,4,4s-1.8,4-4,4-4-1.8-4-4,1.8-4,4-4Z"/>
      <path class="st1" d="M1208.6,197.5c2.2,0,4,1.8,4,4s-1.8,4-4,4-4-1.8-4-4,1.8-4,4-4Z"/>
      <path class="st1" d="M1252.3,504.8c2.2,0,4,1.8,4,4s-1.8,4-4,4-4-1.8-4-4,1.8-4,4-4Z"/>
      <path class="st1" d="M72.1,550.6c2.2,0,4,1.8,4,4s-1.8,4-4,4-4-1.8-4-4,1.8-4,4-4Z"/>
      <path class="st1" d="M28.1,550.6c2.2,0,4,1.8,4,4s-1.8,4-4,4-4-1.8-4-4,1.8-4,4-4Z"/>
      <path class="st1" d="M115.7,550.6c2.2,0,4,1.8,4,4s-1.8,4-4,4-4-1.8-4-4,1.8-4,4-4Z"/>
      <path class="st1" d="M159.6,550.6c2.2,0,4,1.8,4,4s-1.8,4-4,4-4-1.8-4-4,1.8-4,4-4Z"/>
      <path class="st1" d="M202.8,550.6c2.2,0,4,1.8,4,4s-1.8,4-4,4-4-1.8-4-4,1.8-4,4-4Z"/>
      <path class="st1" d="M246.6,550.6c2.2,0,4,1.8,4,4s-1.8,4-4,4-4-1.8-4-4,1.8-4,4-4Z"/>
      <path class="st1" d="M290.4,550.6c2.2,0,4,1.8,4,4s-1.8,4-4,4-4-1.8-4-4,1.8-4,4-4Z"/>
      <path class="st1" d="M334.5,550.6c2.2,0,4,1.8,4,4s-1.8,4-4,4-4-1.8-4-4,1.8-4,4-4Z"/>
      <path class="st1" d="M378.3,550.6c2.2,0,4,1.8,4,4s-1.8,4-4,4-4-1.8-4-4,1.8-4,4-4Z"/>
      <path class="st1" d="M903.7,550.6c2.2,0,4,1.8,4,4s-1.8,4-4,4-4-1.8-4-4,1.8-4,4-4Z"/>
      <path class="st1" d="M945.9,550.6c2.2,0,4,1.8,4,4s-1.8,4-4,4-4-1.8-4-4,1.8-4,4-4Z"/>
      <path class="st1" d="M989.8,550.6c2.2,0,4,1.8,4,4s-1.8,4-4,4-4-1.8-4-4,1.8-4,4-4Z"/>
      <path class="st1" d="M1033,550.6c2.2,0,4,1.8,4,4s-1.8,4-4,4-4-1.8-4-4,1.8-4,4-4Z"/>
      <path class="st1" d="M1076.9,550.6c2.2,0,4,1.8,4,4s-1.8,4-4,4-4-1.8-4-4,1.8-4,4-4Z"/>
      <path class="st1" d="M1120.7,550.6c2.2,0,4,1.8,4,4s-1.8,4-4,4-4-1.8-4-4,1.8-4,4-4Z"/>
      <path class="st1" d="M1164.8,550.6c2.2,0,4,1.8,4,4s-1.8,4-4,4-4-1.8-4-4,1.8-4,4-4Z"/>
      <path class="st1" d="M1208.6,550.6c2.2,0,4,1.8,4,4s-1.8,4-4,4-4-1.8-4-4,1.8-4,4-4Z"/>
      <path class="st1" d="M1252.3,550.6c2.2,0,4,1.8,4,4s-1.8,4-4,4-4-1.8-4-4,1.8-4,4-4Z"/>
      <path class="st1" d="M1252.3,460.2c2.2,0,4,1.8,4,4s-1.8,4-4,4-4-1.8-4-4,1.8-4,4-4Z"/>
      <path class="st1" d="M1252.3,416.8c2.2,0,4,1.8,4,4s-1.8,4-4,4-4-1.8-4-4,1.8-4,4-4Z"/>
      <path class="st1" d="M1252.3,372.8c2.2,0,4,1.8,4,4s-1.8,4-4,4-4-1.8-4-4,1.8-4,4-4Z"/>
      <path class="st1" d="M1252.3,329.5c2.2,0,4,1.8,4,4s-1.8,4-4,4-4-1.8-4-4,1.8-4,4-4Z"/>
      <path class="st1" d="M1252.3,285c2.2,0,4,1.8,4,4s-1.8,4-4,4-4-1.8-4-4,1.8-4,4-4Z"/>
      <path class="st1" d="M1252.3,241.5c2.2,0,4,1.8,4,4s-1.8,4-4,4-4-1.8-4-4,1.8-4,4-4Z"/>
      <path class="st1" d="M1252.3,197.5c2.2,0,4,1.8,4,4s-1.8,4-4,4-4-1.8-4-4,1.8-4,4-4Z"/>
    </g>
    <g id="bt1">
      <path id="bg1" class="st3" d="M364.3,156.3l133.6,262.4c36.5,83.4,130.2,120.9,213.3,79.7l-131.8,210.3c-143.6-24.1-257.9-138.9-283.3-282.1-14.7-83.1,4.3-197.2,59.1-264,2.6-3.1,4.1-7.3,9.1-6.4Z"/>
      <g id="ic1">
        <g>
          <path class="st4" d="M447.6,421.1h-6.5v-7.8h-7.8v-5.5c10.3-1.8,18.1-10.8,18.1-21.6s-9.9-22-22-22-18.3,6.5-21.1,15.6c-2.5-1.7-5.5-2.7-8.7-2.7-7.7,0-14.1,5.5-15.3,13-4.5.5-8,4.4-8,9s4.1,9.1,9.1,9.1h3.9v5.2h-7.8v7.8h-6.5c-2.1,0-3.9,1.7-3.9,3.9v10.4c0,2.1,1.7,3.9,3.9,3.9h2.6v2.6h-2.6v2.6h15.5v-2.6h-2.6v-2.6h2.6c2.1,0,3.9-1.7,3.9-3.9v-6.5h5.2v6.5c0,2.1,1.7,3.9,3.9,3.9h2.6v2.6h-2.6v2.6h15.5v-2.6h-2.6v-2.6h2.6c2.1,0,3.9-1.7,3.9-3.9v-6.5h5.2v6.5c0,2.1,1.7,3.9,3.9,3.9h2.6v2.6h-2.6v2.6h15.5v-2.6h-2.6v-2.6h2.6c2.1,0,3.9-1.7,3.9-3.9v-10.4c0-2.1-1.7-3.9-3.9-3.9h0ZM448.9,425v6.5h-18.1v-6.5c0-.7.6-1.3,1.3-1.3h15.5c.7,0,1.3.6,1.3,1.3ZM417.9,387.4c0,.9,0,1.8.2,2.7-.5,0-1-.1-1.5-.1s-1,0-1.5.1c-.1-.9-.4-1.8-.7-2.7h3.5ZM429.5,366.7c2.9,0,5.5,3.1,7.2,7.8h-14.4c1.7-4.7,4.3-7.8,7.2-7.8h0ZM437.5,377.1c.6,2.4,1,5,1.1,7.8h-18.1c0-2.8.5-5.4,1.1-7.8h16ZM448.8,384.9h-7.7c0-2.8-.4-5.4-1-7.8h6.5c1.2,2.3,2,5,2.2,7.8h0ZM448.8,387.4c-.2,2.8-.9,5.4-2.2,7.8h-6.5c.6-2.4.9-5,1-7.8h7.7ZM420.7,391.1c-.2-1.2-.2-2.4-.3-3.6h18.1c0,2.8-.5,5.4-1.1,7.8h-12.7c-.8-1.8-2.2-3.2-4-4.1h0ZM425.5,397.8h11.2c-1.7,4.7-4.3,7.8-7.2,7.8s-4-.3-5.8-.9c1.2-1.5,1.9-3.5,1.9-5.6s0-.9-.1-1.3h0ZM436.1,404.4c1.3-1.7,2.5-4,3.3-6.6h5.6c-2.2,3-5.3,5.3-8.9,6.6ZM445,374.5h-5.6c-.9-2.6-2-4.9-3.3-6.6,3.6,1.3,6.7,3.6,8.9,6.6ZM422.9,367.9c-1.4,1.7-2.5,4-3.3,6.6h-5.6c2.3-3,5.4-5.3,8.9-6.6ZM412.3,377.1h6.5c-.6,2.4-.9,5-1,7.8h-4.7c-.7-1.2-1.5-2.3-2.5-3.3.4-1.6,1-3.1,1.7-4.5h0ZM379,399.1c0-3.6,2.9-6.5,6.5-6.5h1.3c0,0,.1-1.2.1-1.2.6-6.7,6.1-11.8,12.9-11.8s12.5,5.4,12.9,12.2v1.7c0,0,1.7-.6,1.7-.6.7-.3,1.5-.4,2.2-.4,3.6,0,6.5,2.9,6.5,6.5s-2.9,6.5-6.5,6.5h-31.1c-3.6,0-6.5-2.9-6.5-6.5h0ZM375.1,423.7h15.5c.7,0,1.3.6,1.3,1.3v6.5h-18.1v-6.5c0-.7.6-1.3,1.3-1.3ZM385.4,441.8h-5.2v-2.6h5.2v2.6ZM390.6,436.7h-15.5c-.7,0-1.3-.6-1.3-1.3v-1.3h18.1v1.3c0,.7-.6,1.3-1.3,1.3ZM394.5,426.3v-1.3c0-2.1-1.7-3.9-3.9-3.9h-6.5v-5.2h7.8v-7.8h18.1v12.9h-6.5c-2.1,0-3.9,1.7-3.9,3.9v1.3h-5.2ZM420.4,431.5h-18.1v-6.5c0-.7.6-1.3,1.3-1.3h15.5c.7,0,1.3.6,1.3,1.3v6.5ZM413.9,441.8h-5.2v-2.6h5.2v2.6ZM419.1,436.7h-15.5c-.7,0-1.3-.6-1.3-1.3v-1.3h18.1v1.3c0,.7-.6,1.3-1.3,1.3ZM423,426.3v-1.3c0-2.1-1.7-3.9-3.9-3.9h-6.5v-12.9h3.9c1.8,0,3.6-.6,5-1.5,2.5,1,5.2,1.5,8,1.5s.9,0,1.3,0v7.8h7.8v5.2h-6.5c-2.1,0-3.9,1.7-3.9,3.9v1.3h-5.2ZM442.4,441.8h-5.2v-2.6h5.2v2.6ZM447.6,436.7h-15.5c-.7,0-1.3-.6-1.3-1.3v-1.3h18.1v1.3c0,.7-.6,1.3-1.3,1.3Z"/>
          <path class="st4" d="M390.6,395.2c-2.1,0-3.9,1.7-3.9,3.9s1.7,3.9,3.9,3.9,3.9-1.7,3.9-3.9-1.7-3.9-3.9-3.9ZM390.6,400.4c-.7,0-1.3-.6-1.3-1.3s.6-1.3,1.3-1.3,1.3.6,1.3,1.3-.6,1.3-1.3,1.3Z"/>
          <path class="st4" d="M401,395.2c-2.1,0-3.9,1.7-3.9,3.9s1.7,3.9,3.9,3.9,3.9-1.7,3.9-3.9-1.7-3.9-3.9-3.9ZM401,400.4c-.7,0-1.3-.6-1.3-1.3s.6-1.3,1.3-1.3,1.3.6,1.3,1.3-.6,1.3-1.3,1.3Z"/>
          <path class="st4" d="M411.3,395.2c-2.1,0-3.9,1.7-3.9,3.9s1.7,3.9,3.9,3.9,3.9-1.7,3.9-3.9-1.7-3.9-3.9-3.9ZM411.3,400.4c-.7,0-1.3-.6-1.3-1.3s.6-1.3,1.3-1.3,1.3.6,1.3,1.3-.6,1.3-1.3,1.3Z"/>
          <path class="st4" d="M399.7,382.3v2.6c3.4,0,6.5,2.3,7.4,5.5l2.5-.7c-1.3-4.4-5.4-7.4-9.9-7.4Z"/>
        </g>
      </g>
      <g>
        <path class="st4" d="M372.4,474.8v3.7h-6v14.8h-4.8v-14.8h-6v-3.7h16.9Z"/>
        <path class="st4" d="M380.5,493.5c-1.5,0-2.9-.3-4-.9-1.1-.6-2-1.4-2.6-2.5-.6-1.1-.9-2.4-.9-3.9s.3-2.9.9-3.9,1.5-1.9,2.6-2.5c1.1-.6,2.4-.9,3.8-.9s2.7.3,3.8.9c1,.6,1.8,1.4,2.4,2.4.6,1,.8,2.1.8,3.4s0,.7,0,1c0,.3,0,.6,0,.8h-11.1v-2.6h9l-2.3.9c0-1.1-.2-2-.6-2.6s-1-.9-1.9-.9-1.1.1-1.5.4c-.4.3-.7.7-1,1.3-.2.6-.3,1.3-.3,2.3s.1,1.7.4,2.2c.2.6.6,1,1,1.2s1,.4,1.6.4,1.3-.1,1.7-.4.7-.7.9-1.2l3.8,1.3c-.3.8-.7,1.5-1.4,2-.6.6-1.4,1-2.3,1.2-.9.3-1.8.4-2.8.4Z"/>
        <path class="st4" d="M395.4,479c1.4,0,2.6.2,3.5.6s1.7.9,2.2,1.6c.5.7.9,1.4,1,2.1l-4.4,1.5c-.1-.8-.4-1.4-.7-1.8-.3-.4-.8-.6-1.5-.6s-1.1.1-1.5.4c-.4.3-.7.7-.9,1.3-.2.6-.3,1.3-.3,2.3s.1,1.7.3,2.2c.2.6.5,1,1,1.2.4.3.9.4,1.5.4s.9,0,1.2-.3c.3-.2.6-.4.8-.8.2-.3.3-.7.4-1.2l4.3,1.4c-.1.8-.5,1.6-1,2.2-.6.6-1.3,1.2-2.3,1.5-.9.4-2,.6-3.3.6s-2.9-.3-4-.9c-1.1-.6-2-1.4-2.6-2.5-.6-1.1-.9-2.4-.9-3.9s.3-2.8.9-3.9c.6-1.1,1.5-1.9,2.6-2.5,1.1-.6,2.4-.9,3.8-.9Z"/>
        <path class="st4" d="M403.6,493.2v-14h4.3l.3,4.8-.5-.5c.2-1,.5-1.8,1-2.5.5-.7,1.1-1.2,1.8-1.5s1.5-.5,2.4-.5,1.8.2,2.5.6,1.3.9,1.7,1.7c.4.7.6,1.6.6,2.7v9.3h-4.8v-8.1c0-1-.2-1.6-.6-2-.4-.4-.8-.6-1.4-.6s-.9.1-1.3.3c-.4.2-.7.6-.9,1-.2.5-.3,1.1-.3,1.9v7.4h-4.8Z"/>
        <path class="st4" d="M426.5,479c1.5,0,2.8.3,3.9.9s2,1.4,2.6,2.5c.6,1.1.9,2.4.9,3.9s-.3,2.8-.9,3.9c-.6,1.1-1.5,1.9-2.6,2.5-1.1.6-2.4.9-3.9.9s-2.7-.3-3.8-.9c-1.1-.6-2-1.4-2.6-2.5-.6-1.1-.9-2.4-.9-3.9s.3-2.8.9-3.9c.6-1.1,1.5-1.9,2.6-2.5s2.4-.9,3.8-.9ZM426.5,482.3c-.5,0-1,.1-1.4.4-.4.3-.7.7-.9,1.3-.2.6-.3,1.3-.3,2.2s.1,1.7.3,2.2c.2.6.5,1,.9,1.3.4.3.9.4,1.4.4s1-.1,1.4-.4c.4-.3.7-.7.9-1.3.2-.6.3-1.3.3-2.2s-.1-1.7-.3-2.2c-.2-.6-.5-1-.9-1.3-.4-.3-.9-.4-1.4-.4Z"/>
        <path class="st4" d="M440.2,473.3v15.2c0,.6.1,1.1.3,1.3.2.3.6.4,1,.4s.5,0,.7,0c.2,0,.4,0,.7-.2l-.3,2.9c-.3.2-.8.4-1.3.5-.5.1-1.1.2-1.6.2-1.5,0-2.6-.3-3.2-1s-1-1.8-1-3.4v-15.8h4.8Z"/>
        <path class="st4" d="M450.2,479c1.5,0,2.8.3,3.9.9s2,1.4,2.6,2.5c.6,1.1.9,2.4.9,3.9s-.3,2.8-.9,3.9c-.6,1.1-1.5,1.9-2.6,2.5-1.1.6-2.4.9-3.9.9s-2.7-.3-3.8-.9c-1.1-.6-2-1.4-2.6-2.5-.6-1.1-.9-2.4-.9-3.9s.3-2.8.9-3.9c.6-1.1,1.5-1.9,2.6-2.5s2.4-.9,3.8-.9ZM450.2,482.3c-.5,0-1,.1-1.4.4-.4.3-.7.7-.9,1.3-.2.6-.3,1.3-.3,2.2s.1,1.7.3,2.2c.2.6.5,1,.9,1.3.4.3.9.4,1.4.4s1-.1,1.4-.4c.4-.3.7-.7.9-1.3.2-.6.3-1.3.3-2.2s-.1-1.7-.3-2.2c-.2-.6-.5-1-.9-1.3-.4-.3-.9-.4-1.4-.4Z"/>
        <path class="st4" d="M467.9,490.1c1.6,0,2.9.3,3.7,1,.9.7,1.3,1.7,1.3,2.9s-.3,2.1-1,2.9c-.6.8-1.5,1.3-2.7,1.7-1.1.4-2.5.6-4.1.6-2.5,0-4.4-.3-5.5-1-1.1-.6-1.7-1.5-1.7-2.6s.3-1.4,1-1.9c.6-.5,1.7-.7,3.2-.8v.4c-1.3-.1-2.1-.5-2.7-1-.6-.5-.8-1.2-.8-2.1s.4-1.6,1.1-2.2c.7-.6,1.7-.9,2.8-.9l1.7.8h-.4c-.7,0-1.2.2-1.5.4-.3.2-.4.5-.4.8s.1.6.4.7c.3.2.7.2,1.2.2h4.5ZM465.4,479c1.4,0,2.6.2,3.6.6s1.8.9,2.3,1.6c.5.7.8,1.6.8,2.6s-.3,1.9-.8,2.6c-.5.7-1.3,1.2-2.3,1.6s-2.2.5-3.6.5c-2.2,0-3.9-.4-5.1-1.2-1.1-.8-1.7-2-1.7-3.5s.3-1.9.8-2.6c.5-.7,1.3-1.2,2.3-1.6,1-.4,2.2-.6,3.7-.6ZM465.2,496.2c.9,0,1.6,0,2.2-.2s1-.3,1.3-.5c.3-.2.4-.5.4-.7s-.1-.5-.3-.7c-.2-.2-.6-.2-1.1-.2h-5c-.4,0-.6,0-.9.3-.2.2-.3.4-.3.7,0,.4.3.8,1,1,.6.2,1.5.4,2.7.4ZM465.4,481.7c-.6,0-1.1.2-1.5.5-.4.4-.6.9-.6,1.5s.2,1.1.6,1.5c.4.4.9.5,1.5.5s1.1-.2,1.5-.5c.4-.4.6-.8.6-1.5s-.2-1.2-.6-1.5c-.4-.4-.9-.5-1.5-.5ZM472.7,475.5l.4,3.2c-.1,0-.2,0-.3,0-.1,0-.2,0-.3,0-.8,0-1.4.2-1.8.6-.4.4-.6.9-.6,1.5l-1.7-.6c0-.8.1-1.5.4-2.2.3-.7.7-1.3,1.3-1.7.6-.4,1.3-.7,2.2-.7h.2c0,0,.2,0,.2,0Z"/>
        <path class="st4" d="M476.1,477.6c-1,0-1.7-.2-2.1-.5s-.7-.9-.7-1.7.2-1.4.7-1.8c.4-.4,1.1-.5,2.1-.5s1.7.2,2.1.5c.4.4.7.9.7,1.8s-.2,1.4-.7,1.7c-.4.4-1.1.5-2.1.5ZM478.5,479.2v14h-4.8v-14h4.8Z"/>
        <path class="st4" d="M488.5,484.4c0-.7-.2-1.2-.5-1.6-.4-.4-.9-.6-1.5-.6s-1.1.2-1.6.5-.7.9-.9,1.6l-4-1c.3-1.3,1-2.4,2.1-3.2,1.1-.8,2.7-1.2,4.7-1.2s2.5.2,3.5.6c1,.4,1.7,1,2.2,1.8.5.8.8,1.8.8,2.9v5.1c0,.7.3,1.1,1,1.1s.6,0,.8-.1l-.3,2.7c-.6.3-1.2.4-2,.4s-1.4-.1-1.9-.3c-.6-.2-1-.6-1.3-1.1-.3-.5-.5-1.1-.5-1.8v-.2l.5-.2c0,.8-.2,1.5-.7,2-.5.5-1.1.9-1.8,1.2-.8.3-1.5.4-2.4.4s-1.8-.1-2.5-.4c-.7-.3-1.3-.7-1.6-1.3s-.6-1.3-.6-2.1.3-1.8.9-2.5c.6-.7,1.6-1.1,2.9-1.4l5.3-1.1v2.5s-2.7.6-2.7.6c-.6.1-1,.3-1.2.5-.3.2-.4.5-.4,1s.1.7.4.9c.3.2.7.3,1.1.3s.6,0,.9-.1c.3,0,.5-.2.8-.4s.4-.4.5-.7c.1-.3.2-.7.2-1.1v-3.7Z"/>
      </g>
    </g>
    <g id="bt2">
      <path id="bg2" class="st2" d="M969.5,247.5c19.6,59.5,25,120.1,13.8,182-32.3,178.9-205.9,306.5-386.8,281.8l179.9-283c32.9-72.9,5.6-148.5-57.8-193l251,12.2Z"/>
      <g id="ic2">
        <g>
          <path class="st4" d="M893.2,431c-.8.4-5,2.6-5.8,3-6.8,3.7-14.4,8-21.8,7.3l-26.1-2.3s0,0-.1,0h-7.2v-12.9h7.2c.3,0,.5,0,.7-.3,0,0,6.1-3.5,9.3-5.1.6-.3.8-1,.5-1.5-.3-.6-1-.8-1.5-.5-2.6,1.4-8.6,4.5-9.3,5.1h-7.9c-.6,0-1.1.5-1.1,1.1v15.2c0,.6.5,1.1,1.1,1.1h8.3l26,2.3c.6,0,1.2,0,1.8,0,7.5,0,14.8-4.1,21.3-7.7.8-.4,5-2.6,5.8-3,.6-.3.8-1,.5-1.6-.3-.6-4.4.9-5,1.2l3.4-1.7Z"/>
          <path class="st4" d="M867.2,444.3c-.6,0-1.2,0-1.8,0l-26-2.3h-8.2c-1,0-1.8-.8-1.8-1.8v-15.2c0-1,.8-1.8,1.8-1.8h7.7c1.6-1,9.2-5,9.3-5,.4-.2.9-.3,1.4-.1.5.1.8.5,1,.9.5.9.1,1.9-.8,2.4-3,1.6-8.7,4.8-9.2,5.1-.3.2-.7.4-1.1.4h-6.5v11.6h6.5c0,0,.1,0,.2,0l26.1,2.3c7.2.6,14.7-3.6,21.4-7.3.4-.2,1.3-.7,2.4-1.2h0c0,0,0,0,0,0l3.4-1.7.2.5c.7-.2,1.3-.2,1.6-.1.3,0,.4.3.5.4.2.4.3.9.1,1.4-.1.5-.4.8-.9,1.1-.4.2-1.5.8-2.7,1.4-1.3.7-2.7,1.4-3.1,1.6-6.6,3.6-14,7.8-21.6,7.8ZM831.1,424.4c-.3,0-.5.2-.5.5v15.2c0,.3.2.5.5.5h8.3l26.1,2.3c.6,0,1.1,0,1.7,0,7.3,0,14.6-4,21-7.6.4-.2,1.8-1,3.2-1.6,1.2-.6,2.3-1.2,2.6-1.4.1,0,.2-.2.3-.3,0,0,0-.1,0-.2-.7,0-2.4.6-3.4,1-1.3.7-2.7,1.4-3.1,1.6-6.8,3.8-14.6,8.1-22.1,7.4l-26.1-2.3h-7.9v-14.2h7.8c.1,0,.2,0,.3-.1.2-.2,6.9-3.9,9.4-5.2.3-.1.4-.4.2-.7,0-.1-.2-.2-.3-.3-.1,0-.3,0-.4,0-3.4,1.7-8.6,4.6-9.2,5.1h-.2c0,.1-8.1.1-8.1.1Z"/>
        </g>
        <g>
          <path class="st4" d="M907.4,419.9c-1.2-1.6-3.4-2.2-5.2-1.4,0-.7-.3-1.5-.7-2.1-1.1-1.6-3.3-2.1-5.1-1.2l-2.7,1.4c0-.6-.2-1.3-.6-1.8-1.1-1.8-3.4-2.4-5.2-1.4l-2,1.1c0-.8-.3-1.6-.8-2.2-1.2-1.6-3.4-2.1-5.2-1.2l-14.7,7.7c-1.7-.6-6.9-2.4-13.1-1.2-1.1.2-2.2.5-3.3.9-.6.2-.9.9-.7,1.5.2.6.9.9,1.5.7,1-.3,2-.6,3-.8,6.6-1.2,12.2,1.2,12.3,1.3.1,0,.3.1.5.1h15.3c1.1,0,2,.9,2,2s-.7,1.8-1.7,2l-19.5,2.5c-.6,0-1,.6-1,1.1,0,.6.4,1.1,1,1.1l8.3,1c8,1,16-.6,23-4.5l10.3-5.7c.9-.5,2-.2,2.6.6.8,1,.4,2.5-.7,3.1l-11.1,6c-1.3.7-.2,2.8,1.1,2l11.1-6c1.1-.6,1.9-1.7,2.2-2.9.3-1.3,0-2.6-.8-3.6h0ZM880.9,413.2c.8-.4,1.7-.2,2.2.5.6.8.3,2.1-.6,2.6l-5,2.7h-7.8l11.1-5.8ZM882,419.2l7-3.8c.8-.4,1.7-.2,2.2.6.5.8.2,1.9-.6,2.3l-6,3.2c-.5-1.1-1.4-1.9-2.5-2.3h0ZM891.5,424.5c-6.3,3.5-13.4,5-20.6,4.4l10.2-1.3c1.9-.2,3.4-1.7,3.7-3.5l12.7-6.7c.7-.4,1.7-.2,2.1.5.6.8.3,2-.5,2.4l-7.6,4.2Z"/>
          <path class="st4" d="M894.4,433.3c-.3,0-.6,0-.8-.2-.6-.3-.9-1-.9-1.7,0-.6.4-1.1.9-1.4l11.1-6c.4-.2.6-.5.7-1,0-.4,0-.9-.2-1.2-.4-.6-1.2-.8-1.8-.4l-10.3,5.7c-7.2,4-15.2,5.6-23.4,4.6l-8.3-1c-.9-.1-1.6-.9-1.6-1.8,0-.9.7-1.7,1.6-1.8l19.5-2.5c.7,0,1.2-.7,1.2-1.3s-.6-1.4-1.3-1.4h-15.3c-.3,0-.5,0-.7-.2,0,0-5.5-2.4-11.9-1.2-.9.2-1.9.4-2.9.8-.9.3-1.9-.2-2.3-1.1-.3-.9.2-1.9,1.1-2.3,1.1-.4,2.3-.7,3.3-.9,6.1-1.1,11.3.5,13.2,1.1l14.5-7.6c2.1-1.1,4.6-.5,6,1.4.4.5.6,1,.8,1.6l1.3-.7c2.1-1.2,4.8-.4,6.1,1.7.2.4.4.8.5,1.2l2-1c2-1.1,4.6-.5,5.9,1.4.3.5.6,1,.7,1.6,1.9-.5,4,.2,5.2,1.9h0c.9,1.2,1.2,2.7.9,4.1-.3,1.4-1.2,2.7-2.5,3.4l-11.1,6c-.3.2-.6.2-.9.2ZM903.9,419.9c.8,0,1.6.4,2.2,1.1.5.6.7,1.4.5,2.2-.2.8-.7,1.5-1.4,1.8l-11.1,6c-.2,0-.3.2-.3.4,0,.2.1.5.3.6.1,0,.3,0,.4,0l11.1-6c1-.5,1.6-1.4,1.9-2.5.2-1.1,0-2.2-.7-3.1h0c-1-1.4-2.9-1.9-4.4-1.2l-.8.3v-.9c0-.6-.3-1.2-.7-1.7-1-1.4-2.8-1.8-4.3-1l-3.6,1.9v-1c0-.5-.2-1.1-.5-1.5-.9-1.5-2.8-2-4.4-1.2l-2.9,1.6v-1c0-.7-.3-1.3-.7-1.9-1-1.4-2.8-1.8-4.4-1l-15,7.9h-.3c-1.5-.7-6.7-2.4-12.8-1.3-1,.2-2.1.5-3.2.8-.3,0-.4.4-.3.7,0,.3.4.4.7.3,1-.3,2.1-.6,3-.8,6.8-1.3,12.6,1.3,12.7,1.3,0,0,.1,0,.2,0h15.3c1.4,0,2.6,1.2,2.6,2.6s-1,2.4-2.3,2.6l-19.5,2.5c-.3,0-.5.3-.5.5,0,.3.2.5.5.5l8.3,1c7.9.9,15.7-.6,22.6-4.4l10.3-5.7c.4-.2.8-.3,1.3-.3ZM874.2,429.6c-1.1,0-2.2,0-3.3-.2l-5.7-.5,15.9-2c1.6-.2,2.9-1.4,3.1-3v-.3c0,0,13-6.8,13-6.8,1-.5,2.3-.2,2.9.7.4.5.5,1.2.4,1.9-.2.7-.6,1.2-1.1,1.5l-7.6,4.2c-5.4,3-11.5,4.6-17.6,4.6ZM885.3,424.4c-.2,1-.8,1.9-1.6,2.6,2.6-.7,5.1-1.8,7.5-3.1l7.6-4.2c.3-.1.4-.4.5-.7,0-.3,0-.6-.2-.8-.3-.4-.9-.6-1.3-.3l-12.5,6.6ZM884.1,422.4l-.3-.6c-.4-.9-1.2-1.6-2.1-2l-1.3-.5,8.2-4.4c1.1-.6,2.4-.2,3,.8.3.5.4,1.2.2,1.8-.2.6-.6,1.1-1.1,1.4l-6.6,3.5ZM883.3,419.2c.6.4,1,.9,1.4,1.5l5.5-2.9c.2-.1.4-.4.5-.6,0-.3,0-.6,0-.8-.3-.5-.9-.6-1.4-.4l-5.9,3.2ZM877.8,419.6h-10.5l13.4-7c1.1-.6,2.3-.3,3,.7.4.5.6,1.2.4,1.9-.2.7-.6,1.3-1.2,1.6l-5.1,2.8ZM872.4,418.4h5.1l4.8-2.6c.3-.1.5-.4.6-.8,0-.3,0-.7-.2-.9-.3-.5-.9-.6-1.4-.3l-8.8,4.6Z"/>
        </g>
        <g>
          <path class="st4" d="M856.8,396.6c1.3,0,2.5-.3,3.7-.8.6-.3.8-1,.5-1.5-.3-.6-1-.8-1.5-.5-.9.4-1.8.6-2.7.6-3.5,0-6.4-2.8-6.4-6.4s2.8-6.4,6.4-6.4,6.4,2.8,6.4,6.4-.3,2.1-.8,3.1c-.3.6-.1,1.3.5,1.6.6.3,1.3.1,1.6-.5.7-1.3,1.1-2.7,1.1-4.2,0-4.8-3.9-8.6-8.6-8.6s-8.6,3.9-8.6,8.6,3.9,8.6,8.6,8.6Z"/>
          <path class="st4" d="M856.8,397.2c-5.1,0-9.3-4.2-9.3-9.3s4.2-9.3,9.3-9.3,9.3,4.2,9.3,9.3-.4,3.1-1.2,4.5c-.5.9-1.6,1.2-2.4.7-.9-.5-1.2-1.6-.7-2.4.5-.8.7-1.8.7-2.8,0-3.2-2.6-5.7-5.7-5.7s-5.7,2.6-5.7,5.7,2.6,5.7,5.7,5.7,1.7-.2,2.5-.6c.9-.4,2,0,2.4.8.2.4.2.9,0,1.4s-.5.8-.9,1c-1.2.6-2.6.9-4,.9ZM856.8,379.9c-4.4,0-8,3.6-8,8s3.6,8,8,8,2.4-.3,3.4-.8c.1,0,.2-.2.3-.3,0-.1,0-.3,0-.4-.1-.3-.4-.4-.7-.2-.9.4-1.9.7-3,.7-3.8,0-7-3.1-7-7s3.1-7,7-7,7,3.1,7,7-.3,2.3-.9,3.4c-.1.3,0,.6.2.7.3.1.6,0,.7-.2.6-1.2,1-2.5,1-3.9,0-4.4-3.6-8-8-8Z"/>
        </g>
        <g>
          <path class="st4" d="M838.8,391.4l2.4.4c.4,1.6,1,3.1,1.9,4.6l-1.4,1.9c-.7.9-.6,2.2.2,3l1.6,1.6c.8.8,2.1.9,3,.2l1.9-1.4c1.4.9,2.9,1.5,4.6,1.9l.4,2.4c.2,1.1,1.1,1.9,2.3,1.9h2.3c1.1,0,2.1-.8,2.3-1.9l.4-2.4c1.6-.4,3.1-1,4.6-1.9l1.9,1.4c.9.7,2.2.6,3-.2l1.6-1.6c.8-.8.9-2.1.2-3l-1.4-1.9c.9-1.4,1.5-2.9,1.9-4.6l2.4-.4c1.1-.2,1.9-1.1,1.9-2.3h0s6.8,0,6.8,0v14.6c0,1.5,1.2,2.7,2.7,2.7h4.9c.5,2.3,2.6,4.1,5.1,4.1s5.2-2.4,5.2-5.2-2.4-5.2-5.2-5.2-4.6,1.8-5.1,4.1h-4.9c-.2,0-.4-.2-.4-.4v-14.6h5.3c.5,2.3,2.6,4.1,5.1,4.1s5.2-2.4,5.2-5.2-2.4-5.2-5.2-5.2-4.6,1.8-5.1,4.1h-5.3v-14.6c0-.2.2-.4.4-.4h4.9c.5,2.3,2.6,4.1,5.1,4.1s5.2-2.4,5.2-5.2-2.4-5.2-5.2-5.2-4.6,1.8-5.1,4.1h-4.9c-1.5,0-2.7,1.2-2.7,2.7v14.6h-6.8c0-1.1-.8-2.1-1.9-2.3l-2.4-.4c-.4-1.6-1-3.1-1.9-4.6l1.4-1.9c.7-.9.6-2.2-.2-3l-1.6-1.6c-.8-.8-2.1-.9-3-.2l-1.9,1.4c-1.4-.9-2.9-1.5-4.6-1.9l-.4-2.4c-.2-1.1-1.1-1.9-2.3-1.9h-2.3c-1.1,0-2.1.8-2.3,1.9l-.4,2.4c-1.6.4-3.1,1-4.6,1.9l-1.9-1.4c-.9-.7-2.2-.6-3,.2l-1.6,1.6c-.8.8-.9,2.1-.2,3l1.4,1.9c-.9,1.4-1.5,2.9-1.9,4.6l-2.4.4c-1.1.2-1.9,1.1-1.9,2.3v2.3c0,1.1.8,2.1,1.9,2.3h0ZM896.2,402.3c1.6,0,2.9,1.3,2.9,2.9s-1.3,2.9-2.9,2.9-2.9-1.3-2.9-2.9,1.3-2.9,2.9-2.9h0ZM896.2,385c1.6,0,2.9,1.3,2.9,2.9s-1.3,2.9-2.9,2.9-2.9-1.3-2.9-2.9,1.3-2.9,2.9-2.9ZM896.2,367.7c1.6,0,2.9,1.3,2.9,2.9s-1.3,2.9-2.9,2.9-2.9-1.3-2.9-2.9,1.3-2.9,2.9-2.9ZM839.2,386.8l3.2-.5c.5,0,.9-.4,1-.9.4-1.9,1.1-3.6,2.1-5.2.3-.4.3-.9,0-1.3l-1.9-2.6,1.6-1.6,2.6,1.9c.4.3.9.3,1.3,0,1.6-1.1,3.3-1.8,5.2-2.1.5,0,.9-.5.9-1l.5-3.2h2.3l.5,3.2c0,.5.4.9.9,1,1.9.4,3.6,1.1,5.2,2.1.4.3.9.3,1.3,0l2.6-1.9,1.6,1.6-1.9,2.6c-.3.4-.3.9,0,1.3,1.1,1.6,1.8,3.3,2.1,5.2,0,.5.5.9,1,.9l3.2.5v2.3l-3.2.5c-.5,0-.9.4-1,.9-.4,1.9-1.1,3.6-2.1,5.2-.3.4-.3.9,0,1.3l1.9,2.6-1.6,1.6-2.6-1.9c-.4-.3-.9-.3-1.3,0-1.6,1.1-3.3,1.8-5.2,2.1-.5,0-.9.5-.9,1l-.5,3.2h-2.3l-.5-3.2c0-.5-.4-.9-.9-1-1.9-.4-3.6-1.1-5.2-2.1-.4-.3-.9-.3-1.3,0l-2.6,1.9-1.6-1.6,1.9-2.6c.3-.4.3-.9,0-1.3-1.1-1.6-1.8-3.3-2.1-5.2,0-.5-.5-.9-1-.9l-3.2-.5v-2.3Z"/>
          <path class="st4" d="M896.2,411.2c-2.6,0-4.8-1.7-5.6-4.1h-4.4c-1.8,0-3.3-1.5-3.3-3.3v-14h-5.6c-.3,1.2-1.2,2.1-2.4,2.3l-2,.3c-.4,1.4-.9,2.7-1.6,4l1.2,1.6c.9,1.2.7,2.8-.3,3.8l-1.6,1.6c-1,1-2.6,1.1-3.8.3l-1.6-1.2c-1.2.7-2.6,1.3-4,1.6l-.3,2c-.2,1.4-1.4,2.5-2.9,2.5h-2.3c-1.5,0-2.7-1-2.9-2.5l-.3-2c-1.4-.4-2.7-.9-4-1.6l-1.6,1.2c-1.2.9-2.8.7-3.8-.3l-1.6-1.6c-1-1-1.1-2.6-.3-3.8l1.2-1.6c-.7-1.2-1.3-2.6-1.6-4l-2-.3c-1.4-.2-2.5-1.4-2.5-2.9v-2.3c0-1.5,1-2.7,2.5-2.9l2-.3c.4-1.4.9-2.7,1.6-4l-1.2-1.6c-.9-1.2-.7-2.8.3-3.8l1.6-1.6c1-1,2.6-1.1,3.8-.3l1.6,1.2c1.2-.7,2.6-1.3,4-1.6l.3-2c.2-1.4,1.4-2.5,2.9-2.5h2.3c1.5,0,2.7,1,2.9,2.5l.3,2c1.4.4,2.7.9,4,1.6l1.6-1.2c1.2-.9,2.8-.7,3.8.3l1.6,1.6c1,1,1.1,2.6.3,3.8l-1.2,1.6c.7,1.2,1.3,2.6,1.6,4l2,.3c1.2.2,2.2,1.1,2.4,2.3h5.6v-14c0-1.8,1.5-3.3,3.3-3.3h4.4c.8-2.4,3-4.1,5.6-4.1s5.9,2.6,5.9,5.9-2.6,5.9-5.9,5.9-4.8-1.7-5.6-4.1h-4.2v13.8h4.2c.8-2.4,3-4.1,5.6-4.1s5.9,2.6,5.9,5.9-2.6,5.9-5.9,5.9-4.8-1.7-5.6-4.1h-4.2v13.8h4.2c.8-2.4,3-4.1,5.6-4.1s5.9,2.6,5.9,5.9-2.6,5.9-5.9,5.9ZM876.6,388.5h7.4v15.3c0,1.1.9,2,2,2h5.4v.5c.6,2.1,2.5,3.6,4.6,3.6s4.6-2.1,4.6-4.6-2.1-4.6-4.6-4.6-4,1.5-4.5,3.6v.5h-5.5c-.6,0-1-.5-1-1v-15.3h6.4v.5c.6,2.1,2.5,3.6,4.6,3.6s4.6-2.1,4.6-4.6-2.1-4.6-4.6-4.6-4,1.5-4.5,3.6v.5h-6.5v-15.3c0-.6.5-1,1-1h5.4v.5c.6,2.1,2.5,3.6,4.6,3.6s4.6-2.1,4.6-4.6-2.1-4.6-4.6-4.6-4,1.5-4.5,3.6v.5h-5.5c-1.1,0-2,.9-2,2v15.3h-8.1v-.6c0-.8-.6-1.5-1.4-1.6l-2.8-.4v-.4c-.5-1.5-1.1-3-1.9-4.4l-.2-.4,1.7-2.3c.5-.7.4-1.6-.2-2.2l-1.6-1.6c-.6-.6-1.5-.6-2.2-.2l-2.3,1.7-.4-.2c-1.4-.8-2.8-1.4-4.4-1.8h-.4c0,0-.4-2.9-.4-2.9-.1-.8-.8-1.4-1.6-1.4h-2.3c-.8,0-1.5.6-1.6,1.4l-.4,2.8h-.4c-1.5.5-3,1.1-4.4,1.9l-.4.2-2.3-1.7c-.7-.5-1.6-.4-2.2.2l-1.6,1.6c-.6.6-.7,1.5-.2,2.2l1.7,2.3-.2.4c-.8,1.4-1.4,2.8-1.8,4.4v.4c0,0-2.9.4-2.9.4-.8.1-1.4.8-1.4,1.6v2.3c0,.8.6,1.5,1.4,1.6l2.8.4v.4c.5,1.5,1.1,3,1.9,4.4l.2.4-1.7,2.3c-.5.7-.4,1.6.2,2.2l1.6,1.6c.6.6,1.5.7,2.2.2l2.3-1.7.4.2c1.4.8,2.8,1.4,4.4,1.8h.4c0,0,.4,2.9.4,2.9.1.8.8,1.4,1.6,1.4h2.3c.8,0,1.5-.6,1.6-1.4l.4-2.8h.4c1.5-.5,3-1.1,4.4-1.9l.4-.2,2.3,1.7c.7.5,1.6.4,2.2-.2l1.6-1.6c.6-.6.7-1.5.2-2.1l-1.7-2.3.2-.4c.8-1.4,1.4-2.8,1.8-4.4v-.4c.1,0,2.9-.4,2.9-.4.8-.1,1.4-.8,1.4-1.6v-.6h.6ZM896.2,408.9c-2,0-3.6-1.6-3.6-3.6s1.6-3.6,3.6-3.6,3.6,1.6,3.6,3.6-1.6,3.6-3.6,3.6ZM896.2,403c-1.3,0-2.3,1-2.3,2.3s1,2.3,2.3,2.3,2.3-1,2.3-2.3-1-2.3-2.3-2.3ZM858.4,406.2h-3.4l-.6-3.7c0-.2-.2-.4-.4-.4-2-.4-3.8-1.1-5.4-2.2-.2-.1-.4-.1-.6,0l-3,2.2-2.4-2.4,2.2-3c.1-.2.1-.4,0-.6-1.1-1.6-1.9-3.5-2.2-5.4,0-.2-.2-.4-.4-.4l-3.7-.6v-3.4l3.7-.6c.2,0,.4-.2.4-.4.4-2,1.1-3.8,2.2-5.4.1-.2.1-.4,0-.6l-2.2-3,2.4-2.4,3,2.2c.2.1.4.1.6,0,1.6-1.1,3.5-1.9,5.4-2.2.2,0,.4-.2.4-.4l.6-3.7h3.4l.6,3.7c0,.2.2.4.4.4,2,.4,3.8,1.1,5.4,2.2.2.1.4.1.6,0l3-2.2,2.4,2.4-2.2,3c-.1.2-.1.4,0,.6,1.1,1.6,1.9,3.5,2.2,5.4,0,.2.2.4.4.4l3.7.6v3.4l-3.7.6c-.2,0-.4.2-.4.4-.4,2-1.1,3.8-2.2,5.4-.1.2-.1.4,0,.6l2.2,3-2.4,2.4-3-2.2c-.2-.1-.4-.1-.6,0-1.6,1.1-3.5,1.9-5.4,2.2-.2,0-.4.2-.4.4l-.6,3.7ZM856.1,404.9h1.2l.4-2.6c.1-.7.7-1.3,1.4-1.5,1.8-.3,3.4-1,4.9-2,.6-.4,1.5-.4,2.1,0l2.1,1.6.9-.9-1.6-2.1c-.4-.6-.5-1.4,0-2.1,1-1.5,1.7-3.2,2-4.9.1-.7.7-1.3,1.5-1.4l2.6-.4v-1.2l-2.6-.4c-.7-.1-1.3-.7-1.5-1.4-.3-1.8-1-3.4-2-4.9-.4-.6-.4-1.5,0-2.1l1.6-2.1-.9-.9-2.1,1.6c-.6.4-1.4.5-2.1,0-1.5-1-3.2-1.7-4.9-2-.7-.1-1.3-.7-1.4-1.5l-.4-2.6h-1.2l-.4,2.6c-.1.7-.7,1.3-1.4,1.5-1.8.3-3.4,1-4.9,2-.6.4-1.5.4-2.1,0l-2.1-1.6-.9.9,1.6,2.1c.4.6.5,1.4,0,2.1-1,1.5-1.7,3.2-2,4.9-.1.7-.7,1.3-1.5,1.4l-2.6.4v1.2l2.6.4c.7.1,1.3.7,1.5,1.4.3,1.8,1,3.4,2,4.9.4.6.4,1.5,0,2.1l-1.6,2.1.9.9,2.1-1.6c.6-.4,1.4-.5,2.1,0,1.5,1,3.2,1.7,4.9,2,.7.1,1.3.7,1.4,1.5l.4,2.6ZM896.2,391.5c-2,0-3.6-1.6-3.6-3.6s1.6-3.6,3.6-3.6,3.6,1.6,3.6,3.6-1.6,3.6-3.6,3.6ZM896.2,385.6c-1.3,0-2.3,1-2.3,2.3s1,2.3,2.3,2.3,2.3-1,2.3-2.3-1-2.3-2.3-2.3ZM896.2,374.2c-2,0-3.6-1.6-3.6-3.6s1.6-3.6,3.6-3.6,3.6,1.6,3.6,3.6-1.6,3.6-3.6,3.6ZM896.2,368.3c-1.3,0-2.3,1-2.3,2.3s1,2.3,2.3,2.3,2.3-1,2.3-2.3-1-2.3-2.3-2.3Z"/>
        </g>
      </g>
      <g>
        <rect class="st0" x="761.5" y="454.3" width="206.7" height="77.9"/>
        <path class="st4" d="M802.7,477.8c-1.6,0-3.1-.4-4.4-1.1-1.3-.7-2.3-1.8-3-3.2-.7-1.4-1.1-3.1-1.1-5.2s.4-3.7,1.1-5.1c.7-1.4,1.8-2.5,3.2-3.3,1.4-.8,3-1.1,4.9-1.1s3.8.4,5.1,1.1,2.3,2,3,3.6l-4.5,1.8c-.2-1-.7-1.6-1.3-2.1s-1.4-.6-2.3-.6-1.7.2-2.4.7c-.7.4-1.1,1.1-1.5,1.9s-.5,1.9-.5,3.1.2,2.4.5,3.3c.3.9.9,1.5,1.5,1.9.7.4,1.5.6,2.5.6s1,0,1.5-.2c.4-.1.8-.3,1.2-.6.3-.3.6-.6.8-1,.2-.4.3-.8.3-1.4v-.3h-4.2v-3.2h8.3v10h-3.3l-.4-4.3.8.7c-.4,1.3-1.1,2.2-2.1,2.9-1,.7-2.3,1-3.9,1Z"/>
        <path class="st4" d="M820.6,477.8c-1.5,0-2.9-.3-4-.9-1.1-.6-2-1.4-2.6-2.5-.6-1.1-.9-2.4-.9-3.9s.3-2.9.9-3.9,1.5-1.9,2.6-2.5c1.1-.6,2.4-.9,3.8-.9s2.7.3,3.8.9c1,.6,1.8,1.4,2.4,2.4.6,1,.8,2.1.8,3.4s0,.7,0,1c0,.3,0,.6,0,.8h-11.1v-2.6h9l-2.3.9c0-1.1-.2-2-.6-2.6s-1-.9-1.9-.9-1.1.1-1.5.4c-.4.3-.7.7-1,1.3-.2.6-.3,1.3-.3,2.3s.1,1.7.4,2.2c.2.6.6,1,1,1.2s1,.4,1.6.4,1.3-.1,1.7-.4.7-.7.9-1.2l3.8,1.3c-.3.8-.7,1.5-1.4,2-.6.6-1.4,1-2.3,1.2-.9.3-1.8.4-2.8.4Z"/>
        <path class="st4" d="M834.8,477.8c-1.4,0-2.7-.2-3.9-.7s-2.2-1.1-3-2l2.2-2.6c.5.6,1.1,1.1,1.9,1.5.8.4,1.6.6,2.6.6s1.1,0,1.5-.2c.4-.2.6-.4.6-.8s0-.5-.3-.6c-.2-.2-.6-.3-1.1-.4l-1.9-.4c-1.8-.4-3-.9-3.8-1.6-.7-.7-1.1-1.6-1.1-2.8s.2-1.5.7-2.2c.5-.7,1.2-1.3,2.2-1.7,1-.4,2.2-.7,3.7-.7s2.7.2,3.8.6c1.1.4,2,1,2.6,1.8l-2.3,2.6c-.4-.6-1-1-1.7-1.3-.7-.3-1.4-.5-2.2-.5s-.8,0-1.1.1c-.3,0-.5.2-.7.4-.1.2-.2.3-.2.5s.1.5.3.6.7.3,1.3.5l2.5.5c1.4.3,2.5.7,3.1,1.4.6.7,1,1.5,1,2.5s-.2,1.7-.7,2.4c-.5.7-1.2,1.3-2.2,1.7s-2.2.6-3.7.6Z"/>
        <path class="st4" d="M852.7,463.5v3.4h-11.3v-3.4h11.3ZM848.6,459.1v13.5c0,.7.2,1.2.5,1.4.3.3.8.4,1.4.4s.8,0,1.2-.2c.3-.1.6-.3.9-.5l.5,2.9c-.5.3-1.1.6-1.8.8-.7.2-1.4.3-2.2.3-1.1,0-2-.1-2.8-.4s-1.4-.8-1.8-1.4-.6-1.5-.7-2.6v-12.9l4.8-1.3Z"/>
        <path class="st4" d="M861.6,468.7c0-.7-.2-1.2-.5-1.6-.4-.4-.9-.6-1.5-.6s-1.1.2-1.6.5-.7.9-.9,1.6l-4-1c.3-1.3,1-2.4,2.1-3.2,1.1-.8,2.7-1.2,4.7-1.2s2.5.2,3.5.6c1,.4,1.7,1,2.2,1.8.5.8.8,1.8.8,2.9v5.1c0,.7.3,1.1,1,1.1s.6,0,.8-.1l-.3,2.7c-.6.3-1.2.4-2,.4s-1.4-.1-1.9-.3c-.6-.2-1-.6-1.3-1.1-.3-.5-.5-1.1-.5-1.8v-.2l.5-.2c0,.8-.2,1.5-.7,2-.5.5-1.1.9-1.8,1.2-.8.3-1.5.4-2.4.4s-1.8-.1-2.5-.4c-.7-.3-1.3-.7-1.6-1.3s-.6-1.3-.6-2.1.3-1.8.9-2.5c.6-.7,1.6-1.1,2.9-1.4l5.3-1.1v2.5s-2.7.6-2.7.6c-.6.1-1,.3-1.2.5-.3.2-.4.5-.4,1s.1.7.4.9c.3.2.7.3,1.1.3s.6,0,.9-.1c.3,0,.5-.2.8-.4s.4-.4.5-.7c.1-.3.2-.7.2-1.1v-3.7ZM865.4,457.4c0,1-.2,1.8-.5,2.5-.3.7-.7,1.2-1.2,1.5-.5.3-1.1.5-1.7.5s-1,0-1.4-.2c-.4-.2-.7-.3-1-.6-.3-.2-.5-.4-.8-.6s-.5-.2-.8-.2-.6.1-.7.4c-.2.3-.3.7-.3,1.2h-2.7c0-1.5.4-2.6,1.1-3.3.7-.7,1.5-1.1,2.6-1.1s.9,0,1.3.2c.4.2.7.3.9.6.3.2.5.4.7.6.2.2.5.2.7.2s.6-.1.7-.4c.2-.3.3-.7.3-1.2h2.7Z"/>
        <path class="st4" d="M875.6,463.3c1.5,0,2.8.3,3.9.9s2,1.4,2.6,2.5c.6,1.1.9,2.4.9,3.9s-.3,2.8-.9,3.9c-.6,1.1-1.5,1.9-2.6,2.5-1.1.6-2.4.9-3.9.9s-2.7-.3-3.8-.9c-1.1-.6-2-1.4-2.6-2.5-.6-1.1-.9-2.4-.9-3.9s.3-2.8.9-3.9c.6-1.1,1.5-1.9,2.6-2.5s2.4-.9,3.8-.9ZM875.6,466.7c-.5,0-1,.1-1.4.4-.4.3-.7.7-.9,1.3-.2.6-.3,1.3-.3,2.2s.1,1.7.3,2.2c.2.6.5,1,.9,1.3.4.3.9.4,1.4.4s1-.1,1.4-.4c.4-.3.7-.7.9-1.3.2-.6.3-1.3.3-2.2s-.1-1.7-.3-2.2c-.2-.6-.5-1-.9-1.3-.4-.3-.9-.4-1.4-.4Z"/>
        <path class="st4" d="M896.6,477.8c-1.2,0-2.2-.3-3-.9-.9-.6-1.5-1.4-2-2.5-.5-1.1-.7-2.4-.7-3.9s.2-2.9.7-4c.5-1.1,1.2-1.9,2.1-2.5.9-.6,1.9-.9,3.1-.9s2.3.4,3.1,1.2c.8.8,1.3,1.8,1.5,3l-.4.6v-10.4h4.8v19.9h-4.3l-.3-4.8.6.4c-.1.9-.4,1.7-.9,2.4-.5.7-1,1.2-1.7,1.6-.7.4-1.5.6-2.4.6ZM898.3,474.3c.5,0,1-.1,1.4-.4.4-.3.7-.7.9-1.3.2-.6.3-1.3.3-2.1s0-1.5-.3-2-.5-1-.9-1.3-.8-.4-1.4-.4c-.8,0-1.5.3-1.9.9-.5.6-.7,1.6-.7,2.9s.2,2.3.7,2.9c.5.6,1.1.9,1.9.9Z"/>
        <path class="st4" d="M914.6,463.3c1.5,0,2.8.3,3.9.9s2,1.4,2.6,2.5c.6,1.1.9,2.4.9,3.9s-.3,2.8-.9,3.9c-.6,1.1-1.5,1.9-2.6,2.5-1.1.6-2.4.9-3.9.9s-2.7-.3-3.8-.9c-1.1-.6-2-1.4-2.6-2.5-.6-1.1-.9-2.4-.9-3.9s.3-2.8.9-3.9c.6-1.1,1.5-1.9,2.6-2.5s2.4-.9,3.8-.9ZM914.6,466.7c-.5,0-1,.1-1.4.4-.4.3-.7.7-.9,1.3-.2.6-.3,1.3-.3,2.2s.1,1.7.3,2.2c.2.6.5,1,.9,1.3.4.3.9.4,1.4.4s1-.1,1.4-.4c.4-.3.7-.7.9-1.3.2-.6.3-1.3.3-2.2s-.1-1.7-.3-2.2c-.2-.6-.5-1-.9-1.3-.4-.3-.9-.4-1.4-.4Z"/>
        <path class="st4" d="M929.4,477.8c-1.4,0-2.7-.2-3.9-.7s-2.2-1.1-3-2l2.2-2.6c.5.6,1.1,1.1,1.9,1.5.8.4,1.6.6,2.6.6s1.1,0,1.5-.2c.4-.2.6-.4.6-.8s0-.5-.3-.6c-.2-.2-.6-.3-1.1-.4l-1.9-.4c-1.8-.4-3-.9-3.8-1.6-.7-.7-1.1-1.6-1.1-2.8s.2-1.5.7-2.2c.5-.7,1.2-1.3,2.2-1.7,1-.4,2.2-.7,3.7-.7s2.7.2,3.8.6c1.1.4,2,1,2.6,1.8l-2.3,2.6c-.4-.6-1-1-1.7-1.3-.7-.3-1.4-.5-2.2-.5s-.8,0-1.1.1c-.3,0-.5.2-.7.4-.1.2-.2.3-.2.5s.1.5.3.6.7.3,1.3.5l2.5.5c1.4.3,2.5.7,3.1,1.4.6.7,1,1.5,1,2.5s-.2,1.7-.7,2.4c-.5.7-1.2,1.3-2.2,1.7s-2.2.6-3.7.6Z"/>
        <path class="st4" d="M819.1,511.4c-1.4,0-2.7-.2-3.9-.7s-2.2-1.1-3-2l2.2-2.6c.5.6,1.1,1.1,1.9,1.5.8.4,1.6.6,2.6.6s1.1,0,1.5-.2c.4-.2.6-.4.6-.8s0-.5-.3-.6c-.2-.2-.6-.3-1.1-.4l-1.9-.4c-1.8-.4-3-.9-3.8-1.6-.7-.7-1.1-1.6-1.1-2.8s.2-1.5.7-2.2c.5-.7,1.2-1.3,2.2-1.7,1-.4,2.2-.7,3.7-.7s2.7.2,3.8.6c1.1.4,2,1,2.6,1.8l-2.3,2.6c-.4-.6-1-1-1.7-1.3-.7-.3-1.4-.5-2.2-.5s-.8,0-1.1.1c-.3,0-.5.2-.7.4-.1.2-.2.3-.2.5s.1.5.3.6.7.3,1.3.5l2.5.5c1.4.3,2.5.7,3.1,1.4.6.7,1,1.5,1,2.5s-.2,1.7-.7,2.4c-.5.7-1.2,1.3-2.2,1.7s-2.2.6-3.7.6Z"/>
        <path class="st4" d="M833.8,511.4c-1.5,0-2.9-.3-4-.9-1.1-.6-2-1.4-2.6-2.5-.6-1.1-.9-2.4-.9-3.9s.3-2.9.9-3.9,1.5-1.9,2.6-2.5c1.1-.6,2.4-.9,3.8-.9s2.7.3,3.8.9c1,.6,1.8,1.4,2.4,2.4.6,1,.8,2.1.8,3.4s0,.7,0,1c0,.3,0,.6,0,.8h-11.1v-2.6h9l-2.3.9c0-1.1-.2-2-.6-2.6s-1-.9-1.9-.9-1.1.1-1.5.4c-.4.3-.7.7-1,1.3-.2.6-.3,1.3-.3,2.3s.1,1.7.4,2.2c.2.6.6,1,1,1.2s1,.4,1.6.4,1.3-.1,1.7-.4.7-.7.9-1.2l3.8,1.3c-.3.8-.7,1.5-1.4,2-.6.6-1.4,1-2.3,1.2-.9.3-1.8.4-2.8.4Z"/>
        <path class="st4" d="M842.1,511.1v-14h4.2l.2,3c.4-1,.9-1.9,1.6-2.4.7-.6,1.6-.9,2.7-.9s.7,0,.9,0c.3,0,.5.1.6.2l-.5,3.9c-.2,0-.4-.1-.7-.2-.3,0-.6,0-1,0s-1.1.1-1.6.4-.9.6-1.2,1.1c-.3.5-.4,1.1-.4,1.8v7.1h-4.8Z"/>
        <path class="st4" d="M862.1,497.1h4.9l-5,14h-5.7l-5-14h5l2.9,10.7,2.9-10.7Z"/>
        <path class="st4" d="M870,495.5c-1,0-1.7-.2-2.1-.5s-.7-.9-.7-1.7.2-1.4.7-1.8c.4-.4,1.1-.5,2.1-.5s1.7.2,2.1.5c.4.4.7.9.7,1.8s-.2,1.4-.7,1.7c-.4.4-1.1.5-2.1.5ZM872.4,497.1v14h-4.8v-14h4.8Z"/>
        <path class="st4" d="M881.3,496.9c1.4,0,2.6.2,3.5.6s1.7.9,2.2,1.6c.5.7.9,1.4,1,2.1l-4.4,1.5c-.1-.8-.4-1.4-.7-1.8-.3-.4-.8-.6-1.5-.6s-1.1.1-1.5.4c-.4.3-.7.7-.9,1.3-.2.6-.3,1.3-.3,2.3s.1,1.7.3,2.2c.2.6.5,1,1,1.2.4.3.9.4,1.5.4s.9,0,1.2-.3c.3-.2.6-.4.8-.8.2-.3.3-.7.4-1.2l4.3,1.4c-.1.8-.5,1.6-1,2.2-.6.6-1.3,1.2-2.3,1.5-.9.4-2,.6-3.3.6s-2.9-.3-4-.9c-1.1-.6-2-1.4-2.6-2.5-.6-1.1-.9-2.4-.9-3.9s.3-2.8.9-3.9c.6-1.1,1.5-1.9,2.6-2.5,1.1-.6,2.4-.9,3.8-.9ZM879.2,510.9l1.1-.8c1.5.2,2.5.6,3.2,1.2s1,1.4,1,2.4-.4,1.9-1,2.5c-.7.6-1.7,1-2.9,1s-1.3,0-1.7-.2c-.4-.2-.8-.4-1.1-.6l.8-2.3c.2.1.5.2.7.3.3.1.6.2,1,.2s.9-.1,1.2-.4c.3-.3.4-.7.4-1.2s-.2-.8-.6-1.1c-.4-.3-1.1-.7-2.1-1Z"/>
        <path class="st4" d="M896.1,496.9c1.5,0,2.8.3,3.9.9s2,1.4,2.6,2.5c.6,1.1.9,2.4.9,3.9s-.3,2.8-.9,3.9c-.6,1.1-1.5,1.9-2.6,2.5-1.1.6-2.4.9-3.9.9s-2.7-.3-3.8-.9c-1.1-.6-2-1.4-2.6-2.5-.6-1.1-.9-2.4-.9-3.9s.3-2.8.9-3.9c.6-1.1,1.5-1.9,2.6-2.5s2.4-.9,3.8-.9ZM896.1,500.3c-.5,0-1,.1-1.4.4-.4.3-.7.7-.9,1.3-.2.6-.3,1.3-.3,2.2s.1,1.7.3,2.2c.2.6.5,1,.9,1.3.4.3.9.4,1.4.4s1-.1,1.4-.4c.4-.3.7-.7.9-1.3.2-.6.3-1.3.3-2.2s-.1-1.7-.3-2.2c-.2-.6-.5-1-.9-1.3-.4-.3-.9-.4-1.4-.4Z"/>
        <path class="st4" d="M910.9,511.4c-1.4,0-2.7-.2-3.9-.7s-2.2-1.1-3-2l2.2-2.6c.5.6,1.1,1.1,1.9,1.5.8.4,1.6.6,2.6.6s1.1,0,1.5-.2c.4-.2.6-.4.6-.8s0-.5-.3-.6c-.2-.2-.6-.3-1.1-.4l-1.9-.4c-1.8-.4-3-.9-3.8-1.6-.7-.7-1.1-1.6-1.1-2.8s.2-1.5.7-2.2c.5-.7,1.2-1.3,2.2-1.7,1-.4,2.2-.7,3.7-.7s2.7.2,3.8.6c1.1.4,2,1,2.6,1.8l-2.3,2.6c-.4-.6-1-1-1.7-1.3-.7-.3-1.4-.5-2.2-.5s-.8,0-1.1.1c-.3,0-.5.2-.7.4-.1.2-.2.3-.2.5s.1.5.3.6.7.3,1.3.5l2.5.5c1.4.3,2.5.7,3.1,1.4.6.7,1,1.5,1,2.5s-.2,1.7-.7,2.4c-.5.7-1.2,1.3-2.2,1.7s-2.2.6-3.7.6Z"/>
      </g>
    </g>
    <g id="bt3">
      <path id="bg3" class="st6" d="M960.1,222.5s-255.5-14.6-340.9-6.3c-64.4,6.3-117.9,63.3-127.7,125.9-.4,2.8,1.6,26.5-5,20l-112.1-223.3C474,21.7,638.7-17,780.6,45.2c79.6,34.9,149.8,95.2,179.5,177.3Z"/>
      <g id="ic3">
        <path class="st4" d="M645.1,79c13.3,0,24.2-10.8,24.2-24.2s-10.8-24.2-24.2-24.2-24.2,10.8-24.2,24.2c0,13.3,10.8,24.2,24.2,24.2ZM663.3,43.5c5,7.9,4.2,18-1.8,25.2l-5.4-7.4.9-3,3.8-3.8c.2-.3.4-.6.4-.9v-4c0-.3,0-.5-.2-.7l-1.9-2.8,4.2-2.4ZM645.1,33.4c6.5,0,12.6,2.9,16.6,7.9l-5.2,3h0c-.6.4-.9,1.2-.5,1.8,0,0,0,0,0,0h0l2.5,3.7v3.1l-3.6,3.6c-.2.2-.3.3-.3.6l-1.2,4c-.1.4,0,.9.2,1.2l6.1,8.3c-1.9,1.7-4.1,3.1-6.5,4.1l-1.4-2.7v-5.1c0-.2,0-.4-.1-.6l-2.7-5.4c-.3-.5-.9-.8-1.5-.7l-6,1.2-1.4-1.4,2.1-3.1c.3-.5.3-1.1,0-1.6l-3.3-4.5,4.4-4.7c.2-.2.4-.6.4-.9v-3.8c0-.3,0-.5-.2-.8l-4.5-6.5c2-.6,4.1-.9,6.2-.9ZM623.6,54.9c0-8.5,5-16.1,12.7-19.6l4.6,6.7v2.9l-4.8,5.1c-.5.5-.5,1.2-.1,1.7l3.5,4.6-2.2,3.2c-.4.5-.3,1.2.2,1.7l2.7,2.7c.3.3.8.5,1.2.4l5.7-1.1,2.1,4.2v5.1c0,.2,0,.4.1.6l1.3,2.7c-6.8,1.8-14,.2-19.3-4.3l2.6-1.9c.6-.4.7-1.2.3-1.8l-2.3-3.4,2.3-4.7c.3-.6.1-1.3-.4-1.7l-5.4-4c-.4-.3-.9-.3-1.3-.2l-3.5,1.4c0,0,0-.1,0-.2ZM627.4,56.4l3.9,2.9-2.2,4.4c-.2.4-.2.9,0,1.3l2,3-1.9,1.4c-3-3.2-4.9-7.2-5.5-11.6l3.6-1.4Z"/>
        <path class="st4" d="M685.8,109.1c-.4-2.6-2.3-4.8-4.8-5.5l-5.1-1.5v-1.7c1.7-1.3,2.7-3.2,2.7-5.3v-4.9l2.6-3.1c1.2-1.4,1-3.5-.4-4.7-.6-.5-1.4-.8-2.1-.8h-9.4c-4.4,0-8.1,3.6-8.1,8.1v1.3c0,2.8,1.8,5.4,4.4,6.3.4,1.2,1.2,2.3,2.3,3.1v1.7l-5.1,1.5c-2,.6-3.5,2-4.3,3.9-.5-1.1-1.2-2-2.1-2.7,1.3-1,2.1-2.6,2.1-4.2,0-.5-.3-1-.7-1.2-1.2-.6-1.9-1.8-1.9-3.1v-3.7c0-5.9-4.8-10.7-10.7-10.7s-10.7,4.8-10.7,10.7v3.7c0,1.3-.7,2.6-1.9,3.1-.5.2-.7.7-.7,1.2,0,1.7.8,3.2,2.1,4.2-.9.7-1.7,1.7-2.1,2.7-.8-1.9-2.4-3.3-4.3-3.9l-5.1-1.5v-1.7c1.7-1.3,2.7-3.2,2.7-5.3v-4.2c2.5-.7,3.9-3.3,3.2-5.8-.6-2-2.4-3.4-4.5-3.4h-8.1c-4.4,0-8.1,3.6-8.1,8.1v1.3c0,2.8,1.8,5.4,4.4,6.3.4,1.2,1.2,2.3,2.3,3.1v1.7l-5.1,1.5c-2.5.7-4.4,2.9-4.8,5.5l-.9,6c-.1.7.4,1.4,1.1,1.5,0,0,.1,0,.2,0h80.6c.7,0,1.3-.6,1.3-1.3,0,0,0-.1,0-.2l-.9-5.9ZM622.2,95.1c0,2.2-1.8,4-4,4s-4-1.8-4-4v-2.7c0-.7.6-1.3,1.3-1.3h6.7v4ZM619.6,101.7v1.5c0,.7-.6,1.3-1.3,1.3s-1.3-.6-1.3-1.3v-1.5c.4,0,.9.1,1.3.2.5,0,.9,0,1.3-.1ZM611.5,92.5v1.7c-.9-.8-1.3-1.9-1.3-3v-1.3c0-3,2.4-5.4,5.4-5.4h8.1c1.1,0,2,.9,2,2s-.9,2-2,2h-8.1c-2.2,0-4,1.8-4,4ZM606.3,113.9l.6-4.4c.2-1.6,1.4-2.9,2.9-3.3l4.7-1.3c.9,2,3.3,2.9,5.3,2,.9-.4,1.6-1.1,2-2l4.7,1.3c1.5.4,2.7,1.7,2.9,3.3l.6,4.4h-23.8ZM637,96.2v-3.7c0-4.4,3.6-8.1,8.1-8.1s8.1,3.6,8.1,8.1v3.7c0,2,1,3.9,2.6,5-.3,1.2-1.4,2-2.6,2h-.5l-3.5-1v-1.7c1.7-1.3,2.7-3.2,2.7-5.3v-1c0-1.5-.9-2.9-2.2-3.6l-3.9-1.9c-.4-.2-.8-.2-1.2,0l-3.9,1.9c-1.4.7-2.2,2.1-2.2,3.6v1c0,2.1,1,4.1,2.7,5.3v1.7l-3.5,1h-.5c-1.2,0-2.3-.8-2.6-2,1.6-1.2,2.6-3,2.6-5ZM645.1,99.2c-2.2,0-4-1.8-4-4v-1c0-.5.3-1,.7-1.2l3.3-1.6,3.3,1.6c.5.2.7.7.7,1.2v1c0,2.2-1.8,4-4,4ZM646.4,101.7v1.5c0,.7-.6,1.3-1.3,1.3s-1.3-.6-1.3-1.3v-1.5c.9.2,1.8.2,2.7,0ZM633.2,113.9l.6-4.4c.2-1.6,1.4-2.9,2.9-3.3l4.7-1.3c.9,2,3.3,2.9,5.3,2,.9-.4,1.6-1.1,2-2l4.7,1.3c1.5.4,2.7,1.7,2.9,3.3l.6,4.4h-23.8ZM676,95.1c0,2.2-1.8,4-4,4s-4-1.8-4-4v-2.7c0-.7.6-1.3,1.3-1.3h6.7v4ZM673.3,101.7v1.5c0,.7-.6,1.3-1.3,1.3s-1.3-.6-1.3-1.3v-1.5c.4,0,.9.1,1.3.2.5,0,.9,0,1.3-.1ZM665.2,92.5v1.7c-.9-.8-1.3-1.9-1.3-3v-1.3c0-3,2.4-5.4,5.4-5.4h9.4c.3,0,.6.3.6.6,0,.1,0,.3-.1.4l-2.5,3h-7.4c-2.2,0-4,1.8-4,4ZM660,113.9l.6-4.4c.2-1.6,1.4-2.9,2.9-3.3l4.7-1.3c.9,2,3.3,2.9,5.3,2,.9-.4,1.6-1.1,2-2l4.7,1.3c1.5.4,2.7,1.7,2.9,3.3l.6,4.4h-23.8Z"/>
      </g>
      <g>
        <rect class="st0" x="490.7" y="126.6" width="308.8" height="77"/>
        <path class="st4" d="M573.3,149.8v-18.5h14.4v3.7h-9.6v3.8h7.6v3.5h-7.6v3.8h9.9v3.7h-14.8Z"/>
        <path class="st4" d="M594.7,150.1c-1.2,0-2.2-.3-3-.9-.9-.6-1.5-1.4-2-2.5-.5-1.1-.7-2.4-.7-3.9s.2-2.9.7-4c.5-1.1,1.2-1.9,2.1-2.5.9-.6,1.9-.9,3.1-.9s2.3.4,3.1,1.2c.8.8,1.3,1.8,1.5,3l-.4.6v-10.4h4.8v19.9h-4.3l-.3-4.8.6.4c-.1.9-.4,1.7-.9,2.4-.5.7-1,1.2-1.7,1.6-.7.4-1.5.6-2.4.6ZM596.3,146.6c.5,0,1-.1,1.4-.4.4-.3.7-.7.9-1.3.2-.6.3-1.3.3-2.1s0-1.5-.3-2-.5-1-.9-1.3-.8-.4-1.4-.4c-.8,0-1.5.3-1.9.9-.5.6-.7,1.6-.7,2.9s.2,2.3.7,2.9c.5.6,1.1.9,1.9.9Z"/>
        <path class="st4" d="M610.7,150.1c-1,0-1.8-.2-2.5-.5s-1.3-.9-1.7-1.6c-.4-.7-.6-1.7-.6-2.9v-9.4h4.8v8.2c0,.9.2,1.5.5,1.9s.9.5,1.5.5.7,0,1-.2c.3-.1.6-.3.8-.6s.4-.6.5-1,.2-.9.2-1.4v-7.5h4.8v14h-4.3v-2.6c-.6,1-1.2,1.7-2,2.2-.8.5-1.8.7-2.9.7Z"/>
        <path class="st4" d="M628.8,135.5c1.4,0,2.6.2,3.5.6s1.7.9,2.2,1.6c.5.7.9,1.4,1,2.1l-4.4,1.5c-.1-.8-.4-1.4-.7-1.8-.3-.4-.8-.6-1.5-.6s-1.1.1-1.5.4c-.4.3-.7.7-.9,1.3-.2.6-.3,1.3-.3,2.3s.1,1.7.3,2.2c.2.6.5,1,1,1.2.4.3.9.4,1.5.4s.9,0,1.2-.3c.3-.2.6-.4.8-.8.2-.3.3-.7.4-1.2l4.3,1.4c-.1.8-.5,1.6-1,2.2-.6.6-1.3,1.2-2.3,1.5-.9.4-2,.6-3.3.6s-2.9-.3-4-.9c-1.1-.6-2-1.4-2.6-2.5-.6-1.1-.9-2.4-.9-3.9s.3-2.8.9-3.9c.6-1.1,1.5-1.9,2.6-2.5,1.1-.6,2.4-.9,3.8-.9Z"/>
        <path class="st4" d="M644.7,140.9c0-.7-.2-1.2-.5-1.6-.4-.4-.9-.6-1.5-.6s-1.1.2-1.6.5-.7.9-.9,1.6l-4-1c.3-1.3,1-2.4,2.1-3.2,1.1-.8,2.7-1.2,4.7-1.2s2.5.2,3.5.6c1,.4,1.7,1,2.2,1.8.5.8.8,1.8.8,2.9v5.1c0,.7.3,1.1,1,1.1s.6,0,.8-.1l-.3,2.7c-.6.3-1.2.4-2,.4s-1.4-.1-1.9-.3c-.6-.2-1-.6-1.3-1.1-.3-.5-.5-1.1-.5-1.8v-.2l.5-.2c0,.8-.2,1.5-.7,2-.5.5-1.1.9-1.8,1.2-.8.3-1.5.4-2.4.4s-1.8-.1-2.5-.4c-.7-.3-1.3-.7-1.6-1.3s-.6-1.3-.6-2.1.3-1.8.9-2.5c.6-.7,1.6-1.1,2.9-1.4l5.3-1.1v2.5s-2.7.6-2.7.6c-.6.1-1,.3-1.2.5-.3.2-.4.5-.4,1s.1.7.4.9c.3.2.7.3,1.1.3s.6,0,.9-.1c.3,0,.5-.2.8-.4s.4-.4.5-.7c.1-.3.2-.7.2-1.1v-3.7Z"/>
        <path class="st4" d="M658.6,135.5c1.4,0,2.6.2,3.5.6s1.7.9,2.2,1.6c.5.7.9,1.4,1,2.1l-4.4,1.5c-.1-.8-.4-1.4-.7-1.8-.3-.4-.8-.6-1.5-.6s-1.1.1-1.5.4c-.4.3-.7.7-.9,1.3-.2.6-.3,1.3-.3,2.3s.1,1.7.3,2.2c.2.6.5,1,1,1.2.4.3.9.4,1.5.4s.9,0,1.2-.3c.3-.2.6-.4.8-.8.2-.3.3-.7.4-1.2l4.3,1.4c-.1.8-.5,1.6-1,2.2-.6.6-1.3,1.2-2.3,1.5-.9.4-2,.6-3.3.6s-2.9-.3-4-.9c-1.1-.6-2-1.4-2.6-2.5-.6-1.1-.9-2.4-.9-3.9s.3-2.8.9-3.9c.6-1.1,1.5-1.9,2.6-2.5,1.1-.6,2.4-.9,3.8-.9ZM656.5,149.5l1.1-.8c1.5.2,2.5.6,3.2,1.2s1,1.4,1,2.4-.4,1.9-1,2.5c-.7.6-1.7,1-2.9,1s-1.3,0-1.7-.2c-.4-.2-.8-.4-1.1-.6l.8-2.3c.2.1.5.2.7.3.3.1.6.2,1,.2s.9-.1,1.2-.4c.3-.3.4-.7.4-1.2s-.2-.8-.6-1.1c-.4-.3-1.1-.7-2.1-1Z"/>
        <path class="st4" d="M674.6,140.9c0-.7-.2-1.2-.5-1.6-.4-.4-.9-.6-1.5-.6s-1.1.2-1.6.5-.7.9-.9,1.6l-4-1c.3-1.3,1-2.4,2.1-3.2,1.1-.8,2.7-1.2,4.7-1.2s2.5.2,3.5.6c1,.4,1.7,1,2.2,1.8.5.8.8,1.8.8,2.9v5.1c0,.7.3,1.1,1,1.1s.6,0,.8-.1l-.3,2.7c-.6.3-1.2.4-2,.4s-1.4-.1-1.9-.3c-.6-.2-1-.6-1.3-1.1-.3-.5-.5-1.1-.5-1.8v-.2l.5-.2c0,.8-.2,1.5-.7,2-.5.5-1.1.9-1.8,1.2-.8.3-1.5.4-2.4.4s-1.8-.1-2.5-.4c-.7-.3-1.3-.7-1.6-1.3s-.6-1.3-.6-2.1.3-1.8.9-2.5c.6-.7,1.6-1.1,2.9-1.4l5.3-1.1v2.5s-2.7.6-2.7.6c-.6.1-1,.3-1.2.5-.3.2-.4.5-.4,1s.1.7.4.9c.3.2.7.3,1.1.3s.6,0,.9-.1c.3,0,.5-.2.8-.4s.4-.4.5-.7c.1-.3.2-.7.2-1.1v-3.7ZM678.4,129.7c0,1-.2,1.8-.5,2.5-.3.7-.7,1.2-1.2,1.5-.5.3-1.1.5-1.7.5s-1,0-1.4-.2c-.4-.2-.7-.3-1-.6-.3-.2-.5-.4-.8-.6s-.5-.2-.8-.2-.6.1-.7.4c-.2.3-.3.7-.3,1.2h-2.7c0-1.5.4-2.6,1.1-3.3.7-.7,1.5-1.1,2.6-1.1s.9,0,1.3.2c.4.2.7.3.9.6.3.2.5.4.7.6.2.2.5.2.7.2s.6-.1.7-.4c.2-.3.3-.7.3-1.2h2.7Z"/>
        <path class="st4" d="M688.5,135.5c1.5,0,2.8.3,3.9.9s2,1.4,2.6,2.5c.6,1.1.9,2.4.9,3.9s-.3,2.8-.9,3.9c-.6,1.1-1.5,1.9-2.6,2.5-1.1.6-2.4.9-3.9.9s-2.7-.3-3.8-.9c-1.1-.6-2-1.4-2.6-2.5-.6-1.1-.9-2.4-.9-3.9s.3-2.8.9-3.9c.6-1.1,1.5-1.9,2.6-2.5s2.4-.9,3.8-.9ZM688.5,138.9c-.5,0-1,.1-1.4.4-.4.3-.7.7-.9,1.3-.2.6-.3,1.3-.3,2.2s.1,1.7.3,2.2c.2.6.5,1,.9,1.3.4.3.9.4,1.4.4s1-.1,1.4-.4c.4-.3.7-.7.9-1.3.2-.6.3-1.3.3-2.2s-.1-1.7-.3-2.2c-.2-.6-.5-1-.9-1.3-.4-.3-.9-.4-1.4-.4Z"/>
        <path class="st4" d="M711.2,150.1c-1.5,0-2.9-.3-4-.9-1.1-.6-2-1.4-2.6-2.5-.6-1.1-.9-2.4-.9-3.9s.3-2.9.9-3.9,1.5-1.9,2.6-2.5c1.1-.6,2.4-.9,3.8-.9s2.7.3,3.8.9c1,.6,1.8,1.4,2.4,2.4.6,1,.8,2.1.8,3.4s0,.7,0,1c0,.3,0,.6,0,.8h-11.1v-2.6h9l-2.3.9c0-1.1-.2-2-.6-2.6s-1-.9-1.9-.9-1.1.1-1.5.4c-.4.3-.7.7-1,1.3-.2.6-.3,1.3-.3,2.3s.1,1.7.4,2.2c.2.6.6,1,1,1.2s1,.4,1.6.4,1.3-.1,1.7-.4.7-.7.9-1.2l3.8,1.3c-.3.8-.7,1.5-1.4,2-.6.6-1.4,1-2.3,1.2-.9.3-1.8.4-2.8.4Z"/>
        <path class="st4" d="M532.6,164.9c1.5,0,2.8.2,3.9.7,1.1.5,1.9,1.2,2.4,2.1.6.9.8,2,.8,3.3s-.3,2.4-.8,3.3c-.6.9-1.4,1.6-2.4,2.1-1.1.5-2.4.7-3.9.7h-3.7v6.2h-4.8v-18.5h8.5ZM531.8,173.6c1,0,1.8-.2,2.3-.6s.8-1.1.8-1.9-.3-1.5-.8-1.9-1.3-.6-2.3-.6h-2.9v5.1h2.9Z"/>
        <path class="st4" d="M549.1,174.5c0-.7-.2-1.2-.5-1.6-.4-.4-.9-.6-1.5-.6s-1.1.2-1.6.5-.7.9-.9,1.6l-4-1c.3-1.3,1-2.4,2.1-3.2,1.1-.8,2.7-1.2,4.7-1.2s2.5.2,3.5.6c1,.4,1.7,1,2.2,1.8.5.8.8,1.8.8,2.9v5.1c0,.7.3,1.1,1,1.1s.6,0,.8-.1l-.3,2.7c-.6.3-1.2.4-2,.4s-1.4-.1-1.9-.3c-.6-.2-1-.6-1.3-1.1-.3-.5-.5-1.1-.5-1.8v-.2l.5-.2c0,.8-.2,1.5-.7,2-.5.5-1.1.9-1.8,1.2-.8.3-1.5.4-2.4.4s-1.8-.1-2.5-.4c-.7-.3-1.3-.7-1.6-1.3s-.6-1.3-.6-2.1.3-1.8.9-2.5c.6-.7,1.6-1.1,2.9-1.4l5.3-1.1v2.5s-2.7.6-2.7.6c-.6.1-1,.3-1.2.5-.3.2-.4.5-.4,1s.1.7.4.9c.3.2.7.3,1.1.3s.6,0,.9-.1c.3,0,.5-.2.8-.4s.4-.4.5-.7c.1-.3.2-.7.2-1.1v-3.7Z"/>
        <path class="st4" d="M556.4,183.4v-14h4.2l.2,3c.4-1,.9-1.9,1.6-2.4.7-.6,1.6-.9,2.7-.9s.7,0,.9,0c.3,0,.5.1.6.2l-.5,3.9c-.2,0-.4-.1-.7-.2-.3,0-.6,0-1,0s-1.1.1-1.6.4-.9.6-1.2,1.1c-.3.5-.4,1.1-.4,1.8v7.1h-4.8Z"/>
        <path class="st4" d="M577.4,169.4v3.4h-11.3v-3.4h11.3ZM573.2,165v13.5c0,.7.2,1.2.5,1.4.3.3.8.4,1.4.4s.8,0,1.2-.2c.3-.1.6-.3.9-.5l.5,2.9c-.5.3-1.1.6-1.8.8-.7.2-1.4.3-2.2.3-1.1,0-2-.1-2.8-.4s-1.4-.8-1.8-1.4-.6-1.5-.7-2.6v-12.9l4.8-1.3Z"/>
        <path class="st4" d="M580.8,167.8c-1,0-1.7-.2-2.1-.5s-.7-.9-.7-1.7.2-1.4.7-1.8c.4-.4,1.1-.5,2.1-.5s1.7.2,2.1.5c.4.4.7.9.7,1.8s-.2,1.4-.7,1.7c-.4.4-1.1.5-2.1.5ZM583.2,169.4v14h-4.8v-14h4.8Z"/>
        <path class="st4" d="M592.1,169.1c1.4,0,2.6.2,3.5.6s1.7.9,2.2,1.6c.5.7.9,1.4,1,2.1l-4.4,1.5c-.1-.8-.4-1.4-.7-1.8-.3-.4-.8-.6-1.5-.6s-1.1.1-1.5.4c-.4.3-.7.7-.9,1.3-.2.6-.3,1.3-.3,2.3s.1,1.7.3,2.2c.2.6.5,1,1,1.2.4.3.9.4,1.5.4s.9,0,1.2-.3c.3-.2.6-.4.8-.8.2-.3.3-.7.4-1.2l4.3,1.4c-.1.8-.5,1.6-1,2.2-.6.6-1.3,1.2-2.3,1.5-.9.4-2,.6-3.3.6s-2.9-.3-4-.9c-1.1-.6-2-1.4-2.6-2.5-.6-1.1-.9-2.4-.9-3.9s.3-2.8.9-3.9c.6-1.1,1.5-1.9,2.6-2.5,1.1-.6,2.4-.9,3.8-.9Z"/>
        <path class="st4" d="M602.6,167.8c-1,0-1.7-.2-2.1-.5s-.7-.9-.7-1.7.2-1.4.7-1.8c.4-.4,1.1-.5,2.1-.5s1.7.2,2.1.5c.4.4.7.9.7,1.8s-.2,1.4-.7,1.7c-.4.4-1.1.5-2.1.5ZM605,169.4v14h-4.8v-14h4.8Z"/>
        <path class="st4" d="M607.3,189.3v-19.9h4.3l.3,5.1-.6-.6c.1-.9.4-1.8.9-2.5.4-.7,1-1.3,1.7-1.7.7-.4,1.5-.6,2.4-.6s2.2.3,3,.9,1.5,1.4,2,2.5.7,2.4.7,3.9-.2,2.8-.7,3.9c-.5,1.1-1.2,1.9-2,2.5-.9.6-1.9.9-3,.9s-2.3-.4-3.1-1.1c-.8-.8-1.3-1.7-1.6-2.9l.4-.7v10.3h-4.8ZM614.6,180.2c.8,0,1.5-.3,1.9-.9s.7-1.6.7-2.9-.2-2.3-.7-2.9c-.5-.6-1.1-.9-1.9-.9s-1,.1-1.4.4c-.4.3-.7.7-.9,1.3-.2.6-.3,1.3-.3,2.1s0,1.5.3,2c.2.6.5,1,.9,1.3.4.3.9.4,1.4.4Z"/>
        <path class="st4" d="M631.5,174.5c0-.7-.2-1.2-.5-1.6-.4-.4-.9-.6-1.5-.6s-1.1.2-1.6.5-.7.9-.9,1.6l-4-1c.3-1.3,1-2.4,2.1-3.2,1.1-.8,2.7-1.2,4.7-1.2s2.5.2,3.5.6c1,.4,1.7,1,2.2,1.8.5.8.8,1.8.8,2.9v5.1c0,.7.3,1.1,1,1.1s.6,0,.8-.1l-.3,2.7c-.6.3-1.2.4-2,.4s-1.4-.1-1.9-.3c-.6-.2-1-.6-1.3-1.1-.3-.5-.5-1.1-.5-1.8v-.2l.5-.2c0,.8-.2,1.5-.7,2-.5.5-1.1.9-1.8,1.2-.8.3-1.5.4-2.4.4s-1.8-.1-2.5-.4c-.7-.3-1.3-.7-1.6-1.3s-.6-1.3-.6-2.1.3-1.8.9-2.5c.6-.7,1.6-1.1,2.9-1.4l5.3-1.1v2.5s-2.7.6-2.7.6c-.6.1-1,.3-1.2.5-.3.2-.4.5-.4,1s.1.7.4.9c.3.2.7.3,1.1.3s.6,0,.9-.1c.3,0,.5-.2.8-.4s.4-.4.5-.7c.1-.3.2-.7.2-1.1v-3.7Z"/>
        <path class="st4" d="M645.4,169.1c1.4,0,2.6.2,3.5.6s1.7.9,2.2,1.6c.5.7.9,1.4,1,2.1l-4.4,1.5c-.1-.8-.4-1.4-.7-1.8-.3-.4-.8-.6-1.5-.6s-1.1.1-1.5.4c-.4.3-.7.7-.9,1.3-.2.6-.3,1.3-.3,2.3s.1,1.7.3,2.2c.2.6.5,1,1,1.2.4.3.9.4,1.5.4s.9,0,1.2-.3c.3-.2.6-.4.8-.8.2-.3.3-.7.4-1.2l4.3,1.4c-.1.8-.5,1.6-1,2.2-.6.6-1.3,1.2-2.3,1.5-.9.4-2,.6-3.3.6s-2.9-.3-4-.9c-1.1-.6-2-1.4-2.6-2.5-.6-1.1-.9-2.4-.9-3.9s.3-2.8.9-3.9c.6-1.1,1.5-1.9,2.6-2.5,1.1-.6,2.4-.9,3.8-.9ZM643.3,183.1l1.1-.8c1.5.2,2.5.6,3.2,1.2s1,1.4,1,2.4-.4,1.9-1,2.5c-.7.6-1.7,1-2.9,1s-1.3,0-1.7-.2c-.4-.2-.8-.4-1.1-.6l.8-2.3c.2.1.5.2.7.3.3.1.6.2,1,.2s.9-.1,1.2-.4c.3-.3.4-.7.4-1.2s-.2-.8-.6-1.1c-.4-.3-1.1-.7-2.1-1Z"/>
        <path class="st4" d="M661.4,174.5c0-.7-.2-1.2-.5-1.6-.4-.4-.9-.6-1.5-.6s-1.1.2-1.6.5-.7.9-.9,1.6l-4-1c.3-1.3,1-2.4,2.1-3.2,1.1-.8,2.7-1.2,4.7-1.2s2.5.2,3.5.6c1,.4,1.7,1,2.2,1.8.5.8.8,1.8.8,2.9v5.1c0,.7.3,1.1,1,1.1s.6,0,.8-.1l-.3,2.7c-.6.3-1.2.4-2,.4s-1.4-.1-1.9-.3c-.6-.2-1-.6-1.3-1.1-.3-.5-.5-1.1-.5-1.8v-.2l.5-.2c0,.8-.2,1.5-.7,2-.5.5-1.1.9-1.8,1.2-.8.3-1.5.4-2.4.4s-1.8-.1-2.5-.4c-.7-.3-1.3-.7-1.6-1.3s-.6-1.3-.6-2.1.3-1.8.9-2.5c.6-.7,1.6-1.1,2.9-1.4l5.3-1.1v2.5s-2.7.6-2.7.6c-.6.1-1,.3-1.2.5-.3.2-.4.5-.4,1s.1.7.4.9c.3.2.7.3,1.1.3s.6,0,.9-.1c.3,0,.5-.2.8-.4s.4-.4.5-.7c.1-.3.2-.7.2-1.1v-3.7ZM665.2,163.3c0,1-.2,1.8-.5,2.5-.3.7-.7,1.2-1.2,1.5-.5.3-1.1.5-1.7.5s-1,0-1.4-.2c-.4-.2-.7-.3-1-.6-.3-.2-.5-.4-.8-.6s-.5-.2-.8-.2-.6.1-.7.4c-.2.3-.3.7-.3,1.2h-2.7c0-1.5.4-2.6,1.1-3.3.7-.7,1.5-1.1,2.6-1.1s.9,0,1.3.2c.4.2.7.3.9.6.3.2.5.4.7.6.2.2.5.2.7.2s.6-.1.7-.4c.2-.3.3-.7.3-1.2h2.7Z"/>
        <path class="st4" d="M675.3,169.1c1.5,0,2.8.3,3.9.9s2,1.4,2.6,2.5c.6,1.1.9,2.4.9,3.9s-.3,2.8-.9,3.9c-.6,1.1-1.5,1.9-2.6,2.5-1.1.6-2.4.9-3.9.9s-2.7-.3-3.8-.9c-1.1-.6-2-1.4-2.6-2.5-.6-1.1-.9-2.4-.9-3.9s.3-2.8.9-3.9c.6-1.1,1.5-1.9,2.6-2.5s2.4-.9,3.8-.9ZM675.3,172.5c-.5,0-1,.1-1.4.4-.4.3-.7.7-.9,1.3-.2.6-.3,1.3-.3,2.2s.1,1.7.3,2.2c.2.6.5,1,.9,1.3.4.3.9.4,1.4.4s1-.1,1.4-.4c.4-.3.7-.7.9-1.3.2-.6.3-1.3.3-2.2s-.1-1.7-.3-2.2c-.2-.6-.5-1-.9-1.3-.4-.3-.9-.4-1.4-.4Z"/>
        <path class="st4" d="M698.8,164.7c1.7,0,3.2.3,4.6.8,1.3.5,2.5,1.3,3.4,2.3l-2.3,3.1c-.8-.8-1.7-1.5-2.6-1.9s-2-.6-3.2-.6-1.2,0-1.7.2-.7.4-.9.6c-.2.3-.3.6-.3.9s.2.7.5,1c.4.3,1,.5,1.8.7l3.1.7c1.8.4,3.2,1.1,4.1,1.9s1.3,1.9,1.3,3.3-.3,2.4-1,3.3c-.7.9-1.6,1.6-2.8,2s-2.5.7-4,.7-2.4-.1-3.5-.4-2.1-.7-3-1.2c-.9-.5-1.7-1.1-2.3-1.7l2.3-3.2c.5.5,1,1,1.7,1.4.7.4,1.4.8,2.2,1,.8.2,1.6.4,2.5.4s1.2,0,1.6-.2.8-.3,1-.6c.2-.3.3-.6.3-.9s-.1-.7-.4-1c-.3-.3-.8-.5-1.6-.7l-3.4-.8c-1-.2-2-.6-2.8-1-.8-.4-1.5-.9-1.9-1.6-.5-.7-.7-1.5-.7-2.6s.3-2.2,1-3.1c.6-.9,1.5-1.6,2.7-2.1,1.2-.5,2.6-.8,4.3-.8Z"/>
        <path class="st4" d="M714.8,169.1c1.5,0,2.8.3,3.9.9s2,1.4,2.6,2.5c.6,1.1.9,2.4.9,3.9s-.3,2.8-.9,3.9c-.6,1.1-1.5,1.9-2.6,2.5-1.1.6-2.4.9-3.9.9s-2.7-.3-3.8-.9c-1.1-.6-2-1.4-2.6-2.5-.6-1.1-.9-2.4-.9-3.9s.3-2.8.9-3.9c.6-1.1,1.5-1.9,2.6-2.5s2.4-.9,3.8-.9ZM714.8,172.5c-.5,0-1,.1-1.4.4-.4.3-.7.7-.9,1.3-.2.6-.3,1.3-.3,2.2s.1,1.7.3,2.2c.2.6.5,1,.9,1.3.4.3.9.4,1.4.4s1-.1,1.4-.4c.4-.3.7-.7.9-1.3.2-.6.3-1.3.3-2.2s-.1-1.7-.3-2.2c-.2-.6-.5-1-.9-1.3-.4-.3-.9-.4-1.4-.4Z"/>
        <path class="st4" d="M730.4,169.1c1.4,0,2.6.2,3.5.6s1.7.9,2.2,1.6c.5.7.9,1.4,1,2.1l-4.4,1.5c-.1-.8-.4-1.4-.7-1.8-.3-.4-.8-.6-1.5-.6s-1.1.1-1.5.4c-.4.3-.7.7-.9,1.3-.2.6-.3,1.3-.3,2.3s.1,1.7.3,2.2c.2.6.5,1,1,1.2.4.3.9.4,1.5.4s.9,0,1.2-.3c.3-.2.6-.4.8-.8.2-.3.3-.7.4-1.2l4.3,1.4c-.1.8-.5,1.6-1,2.2-.6.6-1.3,1.2-2.3,1.5-.9.4-2,.6-3.3.6s-2.9-.3-4-.9c-1.1-.6-2-1.4-2.6-2.5-.6-1.1-.9-2.4-.9-3.9s.3-2.8.9-3.9c.6-1.1,1.5-1.9,2.6-2.5,1.1-.6,2.4-.9,3.8-.9Z"/>
        <path class="st4" d="M740.9,167.8c-1,0-1.7-.2-2.1-.5s-.7-.9-.7-1.7.2-1.4.7-1.8c.4-.4,1.1-.5,2.1-.5s1.7.2,2.1.5c.4.4.7.9.7,1.8s-.2,1.4-.7,1.7c-.4.4-1.1.5-2.1.5ZM743.3,169.4v14h-4.8v-14h4.8Z"/>
        <path class="st4" d="M753.4,174.5c0-.7-.2-1.2-.5-1.6-.4-.4-.9-.6-1.5-.6s-1.1.2-1.6.5-.7.9-.9,1.6l-4-1c.3-1.3,1-2.4,2.1-3.2,1.1-.8,2.7-1.2,4.7-1.2s2.5.2,3.5.6c1,.4,1.7,1,2.2,1.8.5.8.8,1.8.8,2.9v5.1c0,.7.3,1.1,1,1.1s.6,0,.8-.1l-.3,2.7c-.6.3-1.2.4-2,.4s-1.4-.1-1.9-.3c-.6-.2-1-.6-1.3-1.1-.3-.5-.5-1.1-.5-1.8v-.2l.5-.2c0,.8-.2,1.5-.7,2-.5.5-1.1.9-1.8,1.2-.8.3-1.5.4-2.4.4s-1.8-.1-2.5-.4c-.7-.3-1.3-.7-1.6-1.3s-.6-1.3-.6-2.1.3-1.8.9-2.5c.6-.7,1.6-1.1,2.9-1.4l5.3-1.1v2.5s-2.7.6-2.7.6c-.6.1-1,.3-1.2.5-.3.2-.4.5-.4,1s.1.7.4.9c.3.2.7.3,1.1.3s.6,0,.9-.1c.3,0,.5-.2.8-.4s.4-.4.5-.7c.1-.3.2-.7.2-1.1v-3.7Z"/>
        <path class="st4" d="M765.4,163.5v15.2c0,.6.1,1.1.3,1.3.2.3.6.4,1,.4s.5,0,.7,0c.2,0,.4,0,.7-.2l-.3,2.9c-.3.2-.8.4-1.3.5-.5.1-1.1.2-1.6.2-1.5,0-2.6-.3-3.2-1s-1-1.8-1-3.4v-15.8h4.8Z"/>
      </g>
    </g>
    <g>
      <rect class="st0" x="533.7" y="288.2" width="202.3" height="188.7"/>
      <path class="st4" d="M569.9,301.1c0,4.5-3,7-8.9,7h-3.7v6.7h-7.5v-21.1h11.2c5.9,0,8.9,2.5,8.9,7.4ZM562.5,301c0-1.4-.8-2-2.6-2h-2.5v4h2.5c1.8,0,2.6-.6,2.6-2Z"/>
      <path class="st4" d="M588.1,306.8c0,5.3-3.3,8.3-8.9,8.3s-8.9-3-8.9-8.3,3.3-8.3,8.9-8.3,8.9,3,8.9,8.3ZM577.6,306.8c0,2.7.3,3.4,1.5,3.4s1.5-.7,1.5-3.4-.3-3.4-1.5-3.4-1.5.7-1.5,3.4Z"/>
      <path class="st4" d="M606.7,306.7c0,5.3-2.2,8.4-6.1,8.4s-3.7-1.2-4.5-3v9.4h-7.4v-22.7h6.5l.2,3.7c.8-2.4,2.6-4.1,5.2-4.1,3.9,0,6.1,3,6.1,8.2ZM599.3,306.8c0-2.5-.6-3.2-1.7-3.2s-1.6.8-1.6,3v.3c0,2,.5,3,1.6,3s1.7-.6,1.7-3.1Z"/>
      <path class="st4" d="M624.8,298.8v16h-6.6l-.2-3.4c-.9,2.5-2.8,3.7-5.4,3.7s-5.2-1.6-5.2-5.5v-10.8h7.4v9c0,1.4.4,1.9,1.2,1.9s1.5-.8,1.5-2.5v-8.4h7.4Z"/>
      <path class="st4" d="M633.4,308.4c0,1.3.3,1.9,1.3,1.9s.8,0,1.2-.2l-.3,4c-.8.6-2.5,1-4,1-4,0-5.5-1.6-5.5-5.6v-17.2h7.4v16Z"/>
      <path class="st4" d="M653.5,310.7l-.6,3.7c-.8.4-1.6.6-2.4.6-2.6,0-4.4-.9-5-2.7-.9,1.6-2.8,2.7-5.7,2.7s-4.9-1.4-4.9-3.8,1.7-4.2,6.2-5.2l3.2-.7v-.6c0-1-.5-1.6-1.4-1.6s-1.6.4-1.7,2l-6.1-.9c.3-3.6,3-5.8,8.2-5.8s8.3,2.2,8.3,6.6v4.5c0,.9.4,1.3,1.1,1.3s.6,0,.8-.1ZM644.3,309.5v-1.5l-1.1.3c-.9.3-1.4.9-1.4,1.7s.5,1.1,1.1,1.1,1.4-.5,1.4-1.6Z"/>
      <path class="st4" d="M663.2,308l6.6,2c0,2.1-1.7,3.9-4.9,4.7,1.1.7,1.6,1.7,1.6,2.9,0,3-2.3,4-5.2,4s-3.5-.7-4.3-1.4l1.4-3c.5.5,1.3.9,2.4.9s1.7-.5,1.7-1.4-.4-1.2-1.8-1.6c-5.5-.3-8.4-3.2-8.4-8.3s3.2-8.3,8.9-8.3,8.4,2.8,8.4,5.4l-6.8,2c0-1.7-.4-2.5-1.3-2.5-1.3,0-1.9.8-1.9,3.5s.8,3.3,1.8,3.3,1.3-.7,1.4-2.1Z"/>
      <path class="st4" d="M687.6,306.8c0,5.3-3.3,8.3-8.9,8.3s-8.9-3-8.9-8.3,3.3-8.3,8.9-8.3,8.9,3,8.9,8.3ZM680.7,297.4c-2.5,0-2.8-1.6-4-1.6s-.9.4-1,1.5h-3.8c0-3.8,1.8-5.6,4.7-5.6s2.8,1.6,4,1.6.9-.4,1-1.5h3.8c0,3.8-1.8,5.6-4.7,5.6ZM677.1,306.8c0,2.7.3,3.4,1.5,3.4s1.5-.7,1.5-3.4-.3-3.4-1.5-3.4-1.5.7-1.5,3.4Z"/>
      <path class="st4" d="M704.8,308.2h-10.2c.2,1.7,1,2,2.2,2s1.7-.5,1.9-1.4l5.9,1.6c-.7,3.2-3.9,4.7-7.8,4.7-6.1,0-9.2-3-9.2-8.3s3.2-8.3,8.9-8.3,8.5,3.1,8.5,7.8,0,1.5-.2,1.9ZM694.6,305.5h3.5c-.1-1.4-.5-2.1-1.6-2.1s-1.7.5-1.9,2.1Z"/>
      <path class="st4" d="M704.5,312.7l3.2-3.9c1.2,1,2.8,1.9,4.7,1.9s1.4-.1,1.4-.5-.6-.7-2.4-1c-4.7-.9-6.6-2.6-6.6-5.2s2.6-5.6,8.7-5.6,6.5,1.2,7.7,2.3l-3,3.6c-1.2-1.2-2.8-1.5-4.4-1.5s-1.6.3-1.6.6.5.4,2,.6c4.9.7,7.1,2.3,7.1,5.2s-2.4,5.8-8.3,5.8-6.6-.7-8.5-2.4Z"/>
      <path class="st4" d="M575.5,330.8v22.4h-6.6l-.2-3.2c-.9,2.1-2.6,3.5-5.1,3.5-3.9,0-6.1-3-6.1-8.2s2.2-8.4,6.1-8.4,3.7,1.2,4.5,3v-9.1h7.4ZM568.2,345.3v-.3c0-2-.5-3-1.6-3s-1.7.6-1.7,3.1.6,3.2,1.7,3.2,1.6-.8,1.6-3Z"/>
      <path class="st4" d="M594,345.2c0,5.3-3.3,8.3-8.9,8.3s-8.9-3-8.9-8.3,3.3-8.3,8.9-8.3,8.9,3,8.9,8.3ZM583.5,345.2c0,2.7.3,3.4,1.5,3.4s1.5-.7,1.5-3.4-.3-3.4-1.5-3.4-1.5.7-1.5,3.4Z"/>
      <path class="st4" d="M611.8,353.5c-6.7,0-10.8-4-10.8-10.9s4.1-10.9,10.8-10.9,8.7,1.9,9.6,6.4l-6.4,2.5c-.4-2.8-1.2-3.3-3-3.3s-3.3,1.6-3.3,5.3,1,5.3,3.3,5.3,2.8-.9,3-2.9l6.6,1.7c-1.2,5-4.9,6.8-9.8,6.8Z"/>
      <path class="st4" d="M639.6,349.1l-.6,3.7c-.8.4-1.6.6-2.4.6-2.6,0-4.4-.9-5-2.7-.9,1.6-2.8,2.7-5.7,2.7s-4.9-1.4-4.9-3.8,1.7-4.2,6.2-5.2l3.2-.7v-.6c0-1-.5-1.6-1.4-1.6s-1.6.4-1.7,2l-6.1-.9c.3-3.6,3-5.8,8.2-5.8s8.3,2.2,8.3,6.6v4.5c0,.9.4,1.3,1.1,1.3s.6,0,.8-.1ZM630.4,347.9v-1.5l-1.1.3c-.9.3-1.4.9-1.4,1.7s.5,1.1,1.1,1.1,1.4-.5,1.4-1.6Z"/>
      <path class="st4" d="M666.7,342.2v10.9h-7.4v-9c0-1.4-.4-1.9-1.1-1.9s-1.5.8-1.5,2.5v8.4h-7.4v-9c0-1.4-.4-1.9-1.1-1.9s-1.5.8-1.5,2.5v8.4h-7.4v-16h6.6l.2,3.5c.9-2.4,2.8-3.8,5.6-3.8s4.1,1.2,4.7,3.2c1-2,2.8-3.2,5.3-3.2s5.1,2,5,5.4Z"/>
      <path class="st4" d="M685.9,345.1c0,5.3-2.2,8.4-6.1,8.4s-3.7-1.2-4.5-3v9.4h-7.4v-22.7h6.5l.2,3.7c.8-2.4,2.6-4.1,5.2-4.1,3.9,0,6.1,3,6.1,8.2ZM678.4,345.2c0-2.5-.6-3.2-1.7-3.2s-1.6.8-1.6,3v.3c0,2,.5,3,1.6,3s1.7-.6,1.7-3.1Z"/>
      <path class="st4" d="M703.9,345.2c0,5.3-3.3,8.3-8.9,8.3s-8.9-3-8.9-8.3,3.3-8.3,8.9-8.3,8.9,3,8.9,8.3ZM693.4,345.2c0,2.7.3,3.4,1.5,3.4s1.5-.7,1.5-3.4-.3-3.4-1.5-3.4-1.5.7-1.5,3.4Z"/>
      <path class="st4" d="M712.1,351.4c0,3.1-1.8,5.8-5.1,7.1l-3.1-2c2.1-.9,3.8-1.9,4.5-3.5h-.2c-.3.2-.6.3-1,.3-1.6,0-3.3-1-3.3-3.2s1.6-3.6,3.9-3.6,4.2,2.2,4.2,4.8Z"/>
      <path class="st4" d="M570.3,369.2v22.4h-6.6l-.2-3.2c-.9,2.1-2.6,3.5-5.1,3.5-3.9,0-6.1-3-6.1-8.2s2.2-8.4,6.1-8.4,3.7,1.2,4.5,3v-9.1h7.4ZM562.9,383.7v-.3c0-2-.5-3-1.6-3s-1.7.6-1.7,3.1.6,3.2,1.7,3.2,1.6-.8,1.6-3Z"/>
      <path class="st4" d="M589.3,387.5l-.6,3.7c-.8.4-1.6.6-2.4.6-2.6,0-4.4-.9-5-2.7-.9,1.6-2.8,2.7-5.7,2.7s-4.9-1.4-4.9-3.8,1.7-4.2,6.2-5.2l3.2-.7v-.6c0-1-.5-1.6-1.4-1.6s-1.6.4-1.7,2l-6.1-.9c.3-3.6,3-5.8,8.2-5.8s8.3,2.2,8.3,6.6v4.5c0,.9.4,1.3,1.1,1.3s.6,0,.8-.1ZM580.1,386.3v-1.5l-1.1.3c-.9.3-1.4.9-1.4,1.7s.5,1.1,1.1,1.1,1.4-.5,1.4-1.6Z"/>
      <path class="st4" d="M603.5,375.9v2.9h8.1v5.5h-8.1v7.2h-7.5v-21.1h17.5v5.5h-10Z"/>
      <path class="st4" d="M621.5,385.2c0,1.3.3,1.9,1.3,1.9s.8,0,1.2-.2l-.3,4c-.8.6-2.5,1-4,1-4,0-5.5-1.6-5.5-5.6v-17.2h7.4v16Z"/>
      <path class="st4" d="M641,383.6c0,5.3-3.3,8.3-8.9,8.3s-8.9-3-8.9-8.3,3.3-8.3,8.9-8.3,8.9,3,8.9,8.3ZM630.5,383.6c0,2.7.3,3.4,1.5,3.4s1.5-.7,1.5-3.4-.3-3.4-1.5-3.4-1.5.7-1.5,3.4Z"/>
      <path class="st4" d="M654.7,375.6l-.6,6c-.4-.3-1.2-.5-2-.5-1.9,0-3.2.9-3.2,2.8v7.7h-7.4v-16h6.6l.2,4c.7-2.6,2.2-4.3,4.7-4.3s1.4.2,1.7.4Z"/>
      <path class="st4" d="M671.1,385h-10.2c.2,1.7,1,2,2.2,2s1.7-.5,1.9-1.4l5.9,1.6c-.7,3.2-3.9,4.7-7.8,4.7-6.1,0-9.2-3-9.2-8.3s3.2-8.3,8.9-8.3,8.5,3.1,8.5,7.8,0,1.5-.2,1.9ZM660.9,382.3h3.5c-.1-1.4-.5-2.1-1.6-2.1s-1.7.5-1.9,2.1Z"/>
      <path class="st4" d="M670.8,389.5l3.2-3.9c1.2,1,2.8,1.9,4.7,1.9s1.4-.1,1.4-.5-.6-.7-2.4-1c-4.7-.9-6.6-2.6-6.6-5.2s2.6-5.6,8.7-5.6,6.5,1.2,7.7,2.3l-3,3.6c-1.2-1.2-2.8-1.5-4.4-1.5s-1.6.3-1.6.6.5.4,2,.6c4.9.7,7.1,2.3,7.1,5.2s-2.4,5.8-8.3,5.8-6.6-.7-8.5-2.4Z"/>
      <path class="st4" d="M700.7,390.8c-1.1.7-3.2,1.1-4.8,1.1-4.5,0-6.8-1.5-6.8-5.7v-5.7h-2.5v-5h2.5v-3.4l7.4-2v5.4h4v5h-4v4.5c0,1.5.6,2,1.9,2s1.4-.1,2-.4l.3,4.2Z"/>
      <path class="st4" d="M718.6,387.5l-.6,3.7c-.8.4-1.6.6-2.4.6-2.6,0-4.4-.9-5-2.7-.9,1.6-2.8,2.7-5.7,2.7s-4.9-1.4-4.9-3.8,1.7-4.2,6.2-5.2l3.2-.7v-.6c0-1-.5-1.6-1.4-1.6s-1.6.4-1.7,2l-6.1-.9c.3-3.6,3-5.8,8.2-5.8s8.3,2.2,8.3,6.6v4.5c0,.9.4,1.3,1.1,1.3s.6,0,.8-.1ZM709.4,386.3v-1.5l-1.1.3c-.9.3-1.4.9-1.4,1.7s.5,1.1,1.1,1.1,1.4-.5,1.4-1.6Z"/>
      <path class="st4" d="M595.1,423.4h-10.2c.2,1.7,1,2,2.2,2s1.7-.5,1.9-1.4l5.9,1.6c-.7,3.2-3.9,4.7-7.8,4.7-6.1,0-9.2-3-9.2-8.3s3.2-8.3,8.9-8.3,8.5,3.1,8.5,7.8,0,1.5-.2,1.9ZM584.9,420.7h3.5c-.1-1.4-.5-2.1-1.6-2.1s-1.7.5-1.9,2.1Z"/>
      <path class="st4" d="M615.1,426h-5.7l-1,4h-7.4l6.8-21.1h9l6.9,21.1h-7.6l-1-4ZM614.6,407.3h-5.2l1.9-5.3h6.3l-2.9,5.3ZM614,421.3l-1.7-7h0l-.8,3.6-.9,3.5h3.5Z"/>
      <path class="st4" d="M640.8,430.9c0,4.1-3.6,6-9.7,6s-8.7-1.2-8.7-3.5.7-2.5,3.1-2.9c-1.5-.6-2.7-1.7-2.7-3.6s1.1-2.8,2.7-3.4c-1.8-.9-2.8-2.3-2.8-4.4,0-3.7,2.9-5.5,8.6-5.5s2.2,0,3.1.2c.3-2.7,1.7-5.5,5.4-5.1l.6,4.5c-2-.4-3.2.3-3.7,1.2,2.1.9,3.1,2.4,3.1,4.6,0,3.6-2.9,5.4-8.6,5.4s-2.5,0-3.6-.3c-.3,0-.4.3-.4.5,0,.4.4.7,1.4.7h5.5c4.1,0,6.5,1.7,6.5,5.4ZM635.2,431.6c0-.3-.3-.5-1.2-.5h-4.4c-1.6,0-2,0-2,.5s1.1.7,3.9.7,3.7-.3,3.7-.8ZM630,419.1c0,1,.5,1.6,1.3,1.6s1.3-.6,1.3-1.6-.5-1.6-1.3-1.6-1.3.6-1.3,1.6Z"/>
      <path class="st4" d="M657.9,414v16h-6.6l-.2-3.4c-.9,2.5-2.8,3.7-5.4,3.7s-5.2-1.6-5.2-5.5v-10.8h7.4v9c0,1.4.4,1.9,1.2,1.9s1.5-.8,1.5-2.5v-8.4h7.4Z"/>
      <path class="st4" d="M676.9,425.9l-.6,3.7c-.8.4-1.6.6-2.4.6-2.6,0-4.4-.9-5-2.7-.9,1.6-2.8,2.7-5.7,2.7s-4.9-1.4-4.9-3.8,1.7-4.2,6.2-5.2l3.2-.7v-.6c0-1-.5-1.6-1.4-1.6s-1.6.4-1.7,2l-6.1-.9c.3-3.6,3-5.8,8.2-5.8s8.3,2.2,8.3,6.6v4.5c0,.9.4,1.3,1.1,1.3s.6,0,.8-.1ZM667.8,424.7v-1.5l-1.1.3c-.9.3-1.4.9-1.4,1.7s.5,1.1,1.1,1.1,1.4-.5,1.4-1.6Z"/>
      <path class="st4" d="M675.6,427.9l3.2-3.9c1.2,1,2.8,1.9,4.7,1.9s1.4-.1,1.4-.5-.6-.7-2.4-1c-4.7-.9-6.6-2.6-6.6-5.2s2.6-5.6,8.7-5.6,6.5,1.2,7.7,2.3l-3,3.6c-1.2-1.2-2.8-1.5-4.4-1.5s-1.6.3-1.6.6.5.4,2,.6c4.9.7,7.1,2.3,7.1,5.2s-2.4,5.8-8.3,5.8-6.6-.7-8.5-2.4Z"/>
    </g>
  </g>
</svg>