<?xml version="1.0" encoding="UTF-8"?>
<svg id="Layer_1" xmlns="http://www.w3.org/2000/svg" version="1.1" viewBox="0 0 500 720">
  <!-- Generator: Adobe Illustrator 29.3.0, SVG Export Plug-In . SVG Version: 2.1.0 Build 146)  -->
  <defs>
    <style>
      .st0 {
        fill: none;
      }

      .st1 {
        fill: #085566;
      }

      .st2 {
        fill: #eebb2a;
        opacity: .8;
      }

      .st3 {
        fill: #0d8da5;
      }

      .st4 {
        fill: #fff;
      }

      .st5 {
        fill: #145063;
      }

      .st6 {
        fill: #f3a791;
      }

      .st6, .st7 {
        opacity: .6;
      }

      .st7 {
        fill: #6ac8ca;
      }

      .st8 {
        fill: #045262;
      }
    </style>
  </defs>
  <g id="item2">
    <circle id="circle2" class="st6" cx="137.3" cy="429.9" r="137.6"/>
    <g>
      <rect class="st0" x="51.1" y="417.7" width="125.3" height="27.2"/>
      <path class="st5" d="M97.7,431.8v3.7h-11.4v-14.1h5v10.4h6.4Z"/>
      <path class="st5" d="M110.3,430.1c0,3.5-2.2,5.6-6,5.6s-6-2-6-5.6,2.2-5.5,6-5.5,6,2,6,5.5ZM103.4,430.1c0,1.8.2,2.2,1,2.2s1-.4,1-2.2-.2-2.2-1-2.2-1,.4-1,2.2Z"/>
      <path class="st5" d="M122.6,428.2l-4.5,1.3c0-1.1-.3-1.6-.9-1.6-.9,0-1.2.5-1.2,2.3s.5,2.2,1.2,2.2.9-.5,1-1.4l4.4,1.4c0,1.8-1.9,3.4-5.3,3.4s-6.2-2-6.2-5.6,2.2-5.5,5.9-5.5,5.6,1.9,5.6,3.6Z"/>
      <path class="st5" d="M135.4,432.7l-.4,2.5c-.5.3-1,.4-1.6.4-1.7,0-2.9-.6-3.4-1.8-.6,1-1.8,1.8-3.8,1.8s-3.3-.9-3.3-2.5,1.1-2.8,4.2-3.4l2.1-.5v-.4c0-.7-.3-1-1-1s-1.1.3-1.1,1.3l-4.1-.6c.2-2.4,2-3.9,5.5-3.9s5.5,1.5,5.5,4.4v3c0,.6.3.9.7.9s.4,0,.5,0ZM129.3,431.9v-1l-.7.2c-.6.2-1,.6-1,1.1s.3.7.7.7.9-.3.9-1Z"/>
      <path class="st5" d="M140.8,431.2c0,.9.2,1.2.9,1.2s.5,0,.8-.1l-.2,2.6c-.5.4-1.7.7-2.6.7-2.6,0-3.7-1-3.7-3.7v-11.4h4.9v10.7Z"/>
    </g>
    <g id="bt2">
      <circle class="st2" cx="120.1" cy="479.2" r="22.9"/>
      <g>
        <rect class="st0" x="96.8" y="463.8" width="45.7" height="33.4"/>
        <path class="st5" d="M127,480.7h-4.8v5.8h-5v-5.8h-4.9v-4.5h4.9v-5.8h5v5.8h4.8v4.5Z"/>
      </g>
    </g>
  </g>
  <g id="item1">
    <circle id="circle1" class="st7" cx="258.5" cy="271.1" r="138.6"/>
    <g>
      <rect class="st0" x="159.1" y="188.2" width="198.8" height="54.3"/>
      <path class="st5" d="M168.7,201.2h-1.4v4.7h-4.9v-14.1h7.6c3.8,0,5.7,1.6,5.7,4.7s-.9,3.5-2.5,4.2l3.3,5.2h-5.4l-2.5-4.7ZM167.3,198h1.8c1.3,0,1.7-.3,1.7-1.3s-.5-1.3-1.7-1.3h-1.8v2.6Z"/>
      <path class="st5" d="M188.2,201.5h-6.8c.1,1.1.6,1.3,1.5,1.3s1.1-.3,1.3-.9l3.9,1.1c-.5,2.1-2.6,3.1-5.2,3.1-4.1,0-6.2-2-6.2-5.6s2.2-5.6,5.9-5.6,5.7,2.1,5.7,5.2,0,1-.1,1.3ZM181.4,199.7h2.3c0-.9-.4-1.4-1.1-1.4s-1.1.4-1.2,1.4Z"/>
      <path class="st5" d="M201,206.5c0,2.7-2.4,4-6.5,4s-5.8-.8-5.8-2.3.5-1.6,2.1-2c-1-.4-1.8-1.2-1.8-2.4s.7-1.8,1.8-2.2c-1.2-.6-1.8-1.6-1.8-2.9,0-2.5,2-3.7,5.8-3.7s1.5,0,2.1.1c.2-1.8,1.2-3.7,3.6-3.4l.4,3c-1.3-.3-2.1.2-2.5.8,1.4.6,2.1,1.6,2.1,3.1,0,2.4-2,3.6-5.8,3.6s-1.7,0-2.4-.2c-.2,0-.3.2-.3.3,0,.3.3.4.9.4h3.7c2.8,0,4.3,1.1,4.3,3.6ZM197.3,207c0-.2-.2-.3-.8-.3h-3c-1,0-1.3,0-1.3.4s.7.5,2.6.5,2.5-.2,2.5-.5ZM193.8,198.6c0,.7.3,1.1.9,1.1s.9-.4.9-1.1-.3-1.1-.9-1.1-.9.4-.9,1.1Z"/>
      <path class="st5" d="M201.3,192.5c0-1.5.7-2,2.7-2s2.7.6,2.7,2-.7,2-2.7,2-2.7-.6-2.7-2ZM206.4,205.9h-4.9v-10.7h4.9v10.7Z"/>
      <path class="st5" d="M219.4,200.6c0,3.5-2.2,5.6-6,5.6s-6-2-6-5.6,2.2-5.6,6-5.6,6,2,6,5.6ZM212.4,200.6c0,1.8.2,2.2,1,2.2s1-.4,1-2.2-.2-2.2-1-2.2-1,.4-1,2.2Z"/>
      <path class="st5" d="M232,198.6v7.3h-4.9v-6c0-1-.2-1.2-.7-1.2s-1,.5-1,1.7v5.6h-4.9v-10.7h4.4v2.3c.7-1.6,2-2.5,3.8-2.5s3.4,1.3,3.4,3.6Z"/>
      <path class="st5" d="M245.4,203.2l-.4,2.5c-.5.3-1,.4-1.6.4-1.7,0-2.9-.6-3.4-1.8-.6,1-1.8,1.8-3.8,1.8s-3.3-.9-3.3-2.5,1.1-2.8,4.2-3.4l2.1-.5v-.4c0-.7-.3-1-1-1s-1.1.3-1.1,1.3l-4.1-.6c.2-2.4,2-3.9,5.5-3.9s5.5,1.5,5.5,4.4v3c0,.6.3.9.7.9s.4,0,.5,0ZM239.3,202.4v-1l-.7.2c-.6.2-1,.6-1,1.1s.3.7.7.7.9-.3.9-1Z"/>
      <path class="st5" d="M250.8,201.7c0,.9.2,1.2.9,1.2s.5,0,.8-.1l-.2,2.6c-.5.4-1.7.7-2.6.7-2.6,0-3.7-1-3.7-3.7v-11.4h4.9v10.7Z"/>
      <path class="st5" d="M258.1,204.7c0,2.1-1.2,3.9-3.4,4.8l-2.1-1.3c1.4-.6,2.5-1.2,3-2.3h-.1c-.2.1-.4.2-.7.2-1.1,0-2.2-.7-2.2-2.1s1-2.4,2.6-2.4,2.8,1.5,2.8,3.2Z"/>
      <path class="st5" d="M276.6,202.3v3.7h-12v-14.1h11.7v3.7h-6.7v1.8h5.4v3.4h-5.4v1.7h7Z"/>
      <path class="st5" d="M276.9,204.5l2.2-2.6c.8.7,1.9,1.2,3.1,1.2s.9,0,.9-.3-.4-.4-1.6-.7c-3.1-.6-4.4-1.7-4.4-3.4s1.7-3.7,5.8-3.7,4.3.8,5.1,1.6l-2,2.4c-.8-.8-1.9-1-2.9-1s-1.1.2-1.1.4.4.3,1.3.4c3.3.4,4.7,1.5,4.7,3.5s-1.6,3.8-5.5,3.8-4.4-.4-5.7-1.6Z"/>
      <path class="st5" d="M297.5,205.4c-.7.4-2.1.7-3.2.7-3,0-4.6-1-4.6-3.8v-3.8h-1.6v-3.3h1.6v-2.3l4.9-1.4v3.6h2.7v3.3h-2.7v3c0,1,.4,1.3,1.3,1.3s1,0,1.3-.3l.2,2.8Z"/>
      <path class="st5" d="M310.1,203.2l-.4,2.5c-.5.3-1,.4-1.6.4-1.7,0-2.9-.6-3.4-1.8-.6,1-1.8,1.8-3.8,1.8s-3.3-.9-3.3-2.5,1.1-2.8,4.2-3.4l2.1-.5v-.4c0-.7-.3-1-1-1s-1.1.3-1.1,1.3l-4.1-.6c.2-2.4,2-3.9,5.5-3.9s5.6,1.5,5.6,4.4v3c0,.6.3.9.7.9s.4,0,.5,0ZM304,202.4v-1l-.7.2c-.6.2-1,.6-1,1.1s.3.7.7.7.9-.3.9-1Z"/>
      <path class="st5" d="M322.3,191v14.9h-4.4l-.2-2.1c-.6,1.4-1.8,2.3-3.4,2.3-2.6,0-4.1-2-4.1-5.5s1.5-5.6,4.1-5.6,2.5.8,3,2v-6.1h4.9ZM317.4,200.7v-.2c0-1.4-.3-2-1-2s-1.1.4-1.1,2.1.4,2.1,1.1,2.1,1-.6,1-2Z"/>
      <path class="st5" d="M335.3,195.2v10.7h-4.4v-2.3c-.7,1.6-2,2.5-3.7,2.5s-3.5-1.1-3.5-3.7v-7.2h4.9v6c0,1,.2,1.3.8,1.3s1-.5,1-1.7v-5.6h4.9Z"/>
      <path class="st5" d="M348.7,203.2l-.4,2.5c-.5.3-1,.4-1.6.4-1.7,0-2.9-.6-3.4-1.8-.6,1-1.8,1.8-3.8,1.8s-3.3-.9-3.3-2.5,1.1-2.8,4.2-3.4l2.1-.5v-.4c0-.7-.3-1-1-1s-1.1.3-1.1,1.3l-4.1-.6c.2-2.4,2-3.9,5.5-3.9s5.6,1.5,5.6,4.4v3c0,.6.3.9.7.9s.4,0,.5,0ZM342.6,202.4v-1l-.7.2c-.6.2-1,.6-1,1.1s.3.7.7.7.9-.3.9-1Z"/>
      <path class="st5" d="M354.1,201.7c0,.9.2,1.2.9,1.2s.5,0,.8-.1l-.2,2.6c-.5.4-1.7.7-2.6.7-2.6,0-3.7-1-3.7-3.7v-11.4h4.9v10.7Z"/>
      <path class="st5" d="M221.9,227.1h-6.8c.1,1.1.6,1.3,1.5,1.3s1.1-.3,1.3-.9l3.9,1.1c-.5,2.1-2.6,3.1-5.2,3.1-4.1,0-6.2-2-6.2-5.6s2.2-5.6,5.9-5.6,5.7,2.1,5.7,5.2,0,1-.1,1.3ZM215.1,225.3h2.3c0-.9-.4-1.4-1.1-1.4s-1.1.4-1.2,1.4Z"/>
      <path class="st5" d="M233.5,221.1v2h5.4v3.7h-5.4v4.8h-5v-14.1h11.7v3.7h-6.7Z"/>
      <path class="st5" d="M252.3,227.1h-6.8c.1,1.1.6,1.3,1.5,1.3s1.1-.3,1.3-.9l3.9,1.1c-.5,2.1-2.6,3.1-5.2,3.1-4.1,0-6.2-2-6.2-5.6s2.2-5.6,5.9-5.6,5.7,2.1,5.7,5.2,0,1-.1,1.3ZM245.5,225.3h2.3c0-.9-.4-1.4-1.1-1.4s-1.1.4-1.2,1.4Z"/>
      <path class="st5" d="M265.1,216.6v14.9h-4.4v-2.1c-.7,1.4-1.9,2.3-3.5,2.3-2.6,0-4.1-2-4.1-5.5s1.5-5.6,4.1-5.6,2.5.8,3,2v-6.1h4.9ZM260.2,226.3v-.2c0-1.4-.3-2-1-2s-1.1.4-1.1,2.1.4,2.1,1.1,2.1,1-.6,1-2Z"/>
      <path class="st5" d="M277.7,227.1h-6.8c.1,1.1.6,1.3,1.5,1.3s1.1-.3,1.3-.9l3.9,1.1c-.5,2.1-2.6,3.1-5.2,3.1-4.1,0-6.2-2-6.2-5.6s2.2-5.6,5.9-5.6,5.7,2.1,5.7,5.2,0,1-.1,1.3ZM270.9,225.3h2.3c0-.9-.4-1.4-1.1-1.4s-1.1.4-1.2,1.4Z"/>
      <path class="st5" d="M287.7,220.9l-.4,4c-.3-.2-.8-.3-1.3-.3-1.3,0-2.1.6-2.1,1.8v5.1h-4.9v-10.7h4.4v2.7c.6-1.8,1.6-2.9,3.2-2.9s1,.1,1.1.3Z"/>
      <path class="st5" d="M300.1,228.8l-.4,2.5c-.5.3-1,.4-1.6.4-1.7,0-2.9-.6-3.4-1.8-.6,1-1.8,1.8-3.8,1.8s-3.3-.9-3.3-2.5,1.1-2.8,4.2-3.4l2.1-.5v-.4c0-.7-.3-1-1-1s-1.1.3-1.1,1.3l-4.1-.6c.2-2.4,2-3.9,5.5-3.9s5.6,1.5,5.6,4.4v3c0,.6.3.9.7.9s.4,0,.5,0ZM294,228v-1l-.7.2c-.6.2-1,.6-1,1.1s.3.7.7.7.9-.3.9-1Z"/>
      <path class="st5" d="M305.4,227.3c0,.9.2,1.2.9,1.2s.5,0,.8-.1l-.2,2.6c-.5.4-1.7.7-2.6.7-2.6,0-3.7-1-3.7-3.7v-11.4h4.9v10.7Z"/>
    </g>
    <g id="bt1">
      <circle class="st2" cx="254.5" cy="267.4" r="22.9"/>
      <g>
        <rect class="st0" x="231.1" y="252" width="45.7" height="33.4"/>
        <path class="st5" d="M261.3,268.9h-4.8v5.8h-5v-5.8h-4.9v-4.5h4.9v-5.8h5v5.8h4.8v4.5Z"/>
      </g>
    </g>
  </g>
  <g id="item3">
    <circle id="circle3" class="st2" cx="359.4" cy="429.9" r="137.6"/>
    <g>
      <rect class="st0" x="286.7" y="417.7" width="173.1" height="29.8"/>
      <path class="st5" d="M340.5,435.4h-4.3v-9.6c0,0,0,0,0,0l-2.7,9.6h-4l-2.7-9.6h0v4.7c0,0,0,4.9,0,4.9h-4.4v-14.1h7l1.6,6.3.6,2.6h0l.6-2.6,1.6-6.3h6.6v14.1Z"/>
      <path class="st5" d="M353.8,424.7v10.7h-4.4v-2.3c-.7,1.6-2,2.5-3.7,2.5s-3.5-1.1-3.5-3.7v-7.2h4.9v6c0,1,.2,1.3.8,1.3s1-.5,1-1.7v-5.6h4.9Z"/>
      <path class="st5" d="M366.8,428.1v7.3h-4.9v-6c0-1-.2-1.2-.7-1.2s-1,.5-1,1.7v5.6h-4.9v-10.7h4.4v2.3c.7-1.6,2-2.5,3.8-2.5s3.4,1.3,3.4,3.6Z"/>
      <path class="st5" d="M368.1,422c0-1.5.7-2,2.7-2s2.7.6,2.7,2-.7,2-2.7,2-2.7-.6-2.7-2ZM373.2,435.4h-4.9v-10.7h4.9v10.7Z"/>
      <path class="st5" d="M385.8,428.2l-4.5,1.3c0-1.1-.3-1.6-.9-1.6-.9,0-1.2.5-1.2,2.3s.5,2.2,1.2,2.2.9-.5,1-1.4l4.4,1.4c0,1.8-1.9,3.4-5.3,3.4s-6.2-2-6.2-5.6,2.2-5.5,5.9-5.5,5.6,1.9,5.6,3.6Z"/>
      <path class="st5" d="M386.6,422c0-1.5.7-2,2.7-2s2.7.6,2.7,2-.7,2-2.7,2-2.7-.6-2.7-2ZM391.7,435.4h-4.9v-10.7h4.9v10.7Z"/>
      <path class="st5" d="M405.2,430c0,3.6-1.5,5.6-4.1,5.6s-2.5-.8-3-2v6.3h-4.9v-15.2h4.3v2.5c.7-1.6,1.9-2.7,3.6-2.7,2.6,0,4.1,2,4.1,5.5ZM400.2,430.1c0-1.7-.4-2.1-1.1-2.1s-1,.6-1,2v.2c0,1.4.3,2,1,2s1.1-.4,1.1-2.1Z"/>
      <path class="st5" d="M418.3,432.7l-.4,2.5c-.5.3-1,.4-1.6.4-1.7,0-2.9-.6-3.4-1.8-.6,1-1.8,1.8-3.8,1.8s-3.3-.9-3.3-2.5,1.1-2.8,4.2-3.4l2.1-.5v-.4c0-.7-.3-1-1-1s-1.1.3-1.1,1.3l-4.1-.6c.2-2.4,2-3.9,5.5-3.9s5.5,1.5,5.5,4.4v3c0,.6.3.9.7.9s.4,0,.5,0ZM412.1,431.9v-1l-.7.2c-.6.2-1,.6-1,1.1s.3.7.7.7.9-.3.9-1Z"/>
      <path class="st5" d="M423.6,431.2c0,.9.2,1.2.9,1.2s.5,0,.8-.1l-.2,2.6c-.5.4-1.7.7-2.6.7-2.6,0-3.7-1-3.7-3.7v-11.4h4.9v10.7Z"/>
    </g>
    <g id="bt3">
      <circle class="st2" cx="369.3" cy="479.2" r="22.9"/>
      <g>
        <rect class="st0" x="345.9" y="463.8" width="45.7" height="33.4"/>
        <path class="st5" d="M376.1,480.7h-4.8v5.8h-5v-5.8h-4.9v-4.5h4.9v-5.8h5v5.8h4.8v4.5Z"/>
      </g>
    </g>
  </g>
  <g id="item4">
    <circle id="citcle4" class="st3" cx="247.2" cy="385.2" r="75.2"/>
    <g>
      <rect class="st0" x="175.8" y="352.6" width="145.5" height="23.3"/>
      <path class="st4" d="M209.4,363.3c0,4.5-2.3,7-6.7,7h-6.9v-14.1h6.9c4.4,0,6.7,2.6,6.7,7ZM204.4,363.3c0-2.4-.5-3.5-2.3-3.5h-1.2v7h1.2c1.8,0,2.3-1.1,2.3-3.5Z"/>
      <path class="st4" d="M222.2,365c0,3.5-2.2,5.6-6,5.6s-6-2-6-5.6,2.2-5.6,6-5.6,6,2,6,5.6ZM215.2,365c0,1.8.2,2.2,1,2.2s1-.4,1-2.2-.2-2.2-1-2.2-1,.4-1,2.2Z"/>
      <path class="st4" d="M241.5,363v7.3h-4.9v-6c0-1-.2-1.2-.7-1.2s-1,.5-1,1.7v5.6h-4.9v-6c0-1-.2-1.2-.7-1.2s-1,.5-1,1.7v5.6h-4.9v-10.7h4.4v2.3c.7-1.6,2-2.5,3.8-2.5s2.7.8,3.2,2.1c.7-1.4,1.9-2.1,3.5-2.1s3.4,1.3,3.4,3.6Z"/>
      <path class="st4" d="M242.8,356.9c0-1.5.7-2,2.7-2s2.7.6,2.7,2-.7,2-2.7,2-2.7-.6-2.7-2ZM247.9,370.3h-4.9v-10.7h4.9v10.7Z"/>
      <path class="st4" d="M260.5,363.1l-4.5,1.3c0-1.1-.3-1.6-.9-1.6-.9,0-1.2.5-1.2,2.3s.5,2.2,1.2,2.2.9-.5,1-1.4l4.4,1.4c0,1.8-1.9,3.4-5.3,3.4s-6.2-2-6.2-5.6,2.2-5.6,5.9-5.6,5.6,1.9,5.6,3.6Z"/>
      <path class="st4" d="M261.3,356.9c0-1.5.7-2,2.7-2s2.7.6,2.7,2-.7,2-2.7,2-2.7-.6-2.7-2ZM266.4,370.3h-4.9v-10.7h4.9v10.7Z"/>
      <path class="st4" d="M272.8,366.1c0,.9.2,1.2.9,1.2s.5,0,.8-.1l-.2,2.6c-.5.4-1.7.7-2.6.7-2.6,0-3.7-1-3.7-3.7v-11.4h4.9v10.7Z"/>
      <path class="st4" d="M274.7,356.9c0-1.5.7-2,2.7-2s2.7.6,2.7,2-.7,2-2.7,2-2.7-.6-2.7-2ZM279.9,370.3h-4.9v-10.7h4.9v10.7Z"/>
      <path class="st4" d="M293.3,367.6l-.4,2.5c-.5.3-1,.4-1.6.4-1.7,0-2.9-.6-3.4-1.8-.6,1-1.8,1.8-3.8,1.8s-3.3-.9-3.3-2.5,1.1-2.8,4.2-3.4l2.1-.5v-.4c0-.7-.3-1-1-1s-1.1.3-1.1,1.3l-4.1-.6c.2-2.4,2-3.9,5.5-3.9s5.6,1.5,5.6,4.4v3c0,.6.3.9.7.9s.4,0,.5,0ZM287.1,366.8v-1l-.7.2c-.6.2-1,.6-1,1.1s.3.7.7.7.9-.3.9-1Z"/>
      <path class="st4" d="M302.5,359.7l-.4,4c-.3-.2-.8-.3-1.3-.3-1.3,0-2.1.6-2.1,1.8v5.1h-4.9v-10.7h4.4v2.7c.6-1.8,1.6-2.9,3.2-2.9s1,.1,1.1.3Z"/>
    </g>
    <g id="bt4">
      <circle class="st2" cx="247.4" cy="408.1" r="22.9"/>
      <g>
        <rect class="st0" x="224" y="392.7" width="45.7" height="33.4"/>
        <path class="st5" d="M254.3,409.6h-4.8v5.8h-5v-5.8h-4.9v-4.5h4.9v-5.8h5v5.8h4.8v4.5Z"/>
      </g>
    </g>
  </g>
  <g id="text">
    <g>
      <rect class="st0" x="41.1" y="12.8" width="425.9" height="94.7"/>
      <path class="st8" d="M68.6,31.2h12.2v14.9h-6.2l-.3-3c-1.3,2.2-3.6,3.4-7.2,3.4-6.8,0-12.3-4.5-12.3-13.5s5.1-13.7,13.7-13.7,10.2,2,12.3,7.2l-8.7,3.1c-.4-2.4-1.6-3.4-3.3-3.4-3.1,0-4.5,2-4.5,6.6s1.6,6.8,4.8,6.8,3.8-.9,3.8-2.8h0s-4.4,0-4.4,0v-5.7Z"/>
      <path class="st8" d="M104.9,37.8h-12.7c.3,2.1,1.2,2.5,2.8,2.5s2.1-.6,2.4-1.7l7.4,2c-.9,4-4.9,5.8-9.8,5.8-7.6,0-11.6-3.8-11.6-10.4s4-10.4,11.1-10.4,10.6,3.9,10.6,9.8,0,1.9-.2,2.4ZM92.2,34.4h4.3c-.2-1.8-.7-2.7-2-2.7s-2.1.7-2.3,2.7Z"/>
      <path class="st8" d="M106.2,43.5l4-4.9c1.4,1.3,3.5,2.3,5.9,2.3s1.8-.2,1.8-.6-.8-.8-3-1.3c-5.8-1.2-8.3-3.2-8.3-6.4s3.2-7,10.8-7,8.1,1.5,9.6,2.9l-3.8,4.4c-1.5-1.5-3.5-1.8-5.4-1.8s-2,.4-2,.7.7.6,2.4.8c6.1.8,8.8,2.9,8.8,6.6s-3,7.2-10.3,7.2-8.2-.8-10.6-3Z"/>
      <path class="st8" d="M145.1,45.1c-1.4.8-4,1.4-6,1.4-5.6,0-8.6-1.9-8.6-7.1v-7.1h-3.1v-6.2h3.1v-4.2l9.2-2.6v6.8h5v6.2h-5v5.6c0,1.8.8,2.5,2.4,2.5s1.8-.2,2.5-.5l.4,5.2Z"/>
      <path class="st8" d="M169.7,41l-.7,4.7c-1,.6-2,.8-3,.8-3.2,0-5.5-1.1-6.3-3.4-1.2,2-3.4,3.4-7.1,3.4s-6.2-1.7-6.2-4.8,2.1-5.2,7.8-6.4l4-.9v-.8c0-1.2-.6-2-1.8-2s-2,.5-2.1,2.4l-7.6-1.2c.4-4.5,3.7-7.2,10.2-7.2s10.4,2.8,10.4,8.2v5.6c0,1.1.5,1.6,1.4,1.6s.8,0,1-.2ZM153.2,24.2h-4.7c.1-4.8,2.2-7,5.8-7s3.6,2,5,2,1.1-.6,1.2-1.9h4.7c-.1,4.8-2.2,7-5.8,7s-3.6-2-5-2-1.1.6-1.2,1.9ZM158.2,39.5v-1.9l-1.3.4c-1.1.3-1.8,1.1-1.8,2.1s.6,1.4,1.4,1.4,1.7-.6,1.7-2Z"/>
      <path class="st8" d="M192.2,36c0,6.6-4.1,10.4-11.2,10.4s-11.2-3.8-11.2-10.4,4.1-10.4,11.2-10.4,11.2,3.8,11.2,10.4ZM179.1,36c0,3.4.4,4.2,1.9,4.2s1.9-.8,1.9-4.2-.4-4.2-1.9-4.2-1.9.8-1.9,4.2Z"/>
      <path class="st8" d="M238.8,32.4l-.2,13.7h-9v-11.3c0-1.8-.4-2.3-1.4-2.3s-1.9,1-1.9,3.1v10.5h-9.2v-11.3c0-1.8-.4-2.3-1.4-2.3s-1.9,1-1.9,3.1v10.5h-9.2v-20h8.3l.2,4.4c1.2-3,3.5-4.8,7-4.8s5.1,1.4,5.9,4c1.2-2.6,3.5-4,6.6-4s6.3,2.4,6.3,6.7Z"/>
      <path class="st8" d="M263.5,26v20h-8.3l-.2-4.2c-1.2,3.1-3.5,4.6-6.8,4.6s-6.5-2-6.5-6.9v-13.5h9.2v11.2c0,1.8.4,2.4,1.5,2.4s1.8-1,1.8-3.2v-10.4h9.2Z"/>
      <path class="st8" d="M275.9,38.1c0,1.6.4,2.3,1.6,2.3s1,0,1.4-.2l-.4,5c-1,.8-3.2,1.3-5,1.3-5,0-6.9-2-6.9-7v-21.4h9.2v20Z"/>
      <path class="st8" d="M295.8,45.1c-1.4.8-4,1.4-6,1.4-5.6,0-8.6-1.9-8.6-7.1v-7.1h-3.1v-6.2h3.1v-4.2l9.2-2.6v6.8h5v6.2h-5v5.6c0,1.8.8,2.5,2.4,2.5s1.8-.2,2.5-.5l.4,5.2Z"/>
      <path class="st8" d="M297.1,20.9c0-2.8,1.4-3.8,5-3.8s5,1,5,3.8-1.4,3.8-5,3.8-5-1-5-3.8ZM306.7,46h-9.2v-20h9.2v20Z"/>
      <path class="st8" d="M330.6,37.8h-12.7c.3,2.1,1.2,2.5,2.8,2.5s2.1-.6,2.4-1.7l7.4,2c-.9,4-4.9,5.8-9.8,5.8-7.6,0-11.6-3.8-11.6-10.4s4-10.4,11.1-10.4,10.6,3.9,10.6,9.8,0,1.9-.2,2.4ZM317.9,34.4h4.3c-.2-1.8-.7-2.7-2-2.7s-2.1.7-2.3,2.7Z"/>
      <path class="st8" d="M331.8,43.5l4-4.9c1.4,1.3,3.5,2.3,5.9,2.3s1.8-.2,1.8-.6-.8-.8-3-1.3c-5.8-1.2-8.3-3.2-8.3-6.4s3.2-7,10.8-7,8.1,1.5,9.6,2.9l-3.8,4.4c-1.5-1.5-3.5-1.8-5.4-1.8s-2,.4-2,.7.7.6,2.4.8c6.1.8,8.8,2.9,8.8,6.6s-3,7.2-10.3,7.2-8.2-.8-10.6-3Z"/>
      <path class="st8" d="M375.3,32.4l-8.5,2.5c0-2.1-.5-3.1-1.6-3.1-1.6,0-2.3,1-2.3,4.3s1,4.1,2.3,4.1,1.7-.9,1.8-2.6l8.2,2.6c0,3.4-3.5,6.3-10,6.3s-11.6-3.8-11.6-10.4,4-10.4,11.1-10.4,10.5,3.6,10.6,6.8Z"/>
      <path class="st8" d="M399.8,41l-.7,4.7c-1,.6-2,.8-3,.8-3.2,0-5.5-1.1-6.3-3.4-1.2,2-3.4,3.4-7.1,3.4s-6.2-1.7-6.2-4.8,2.1-5.2,7.8-6.4l4-.9v-.8c0-1.2-.6-2-1.8-2s-2,.5-2.1,2.4l-7.6-1.2c.4-4.5,3.7-7.2,10.2-7.2s10.4,2.8,10.4,8.2v5.6c0,1.1.5,1.6,1.4,1.6s.8,0,1-.2ZM388.3,39.5v-1.9l-1.3.4c-1.1.3-1.8,1.1-1.8,2.1s.6,1.4,1.4,1.4,1.7-.6,1.7-2Z"/>
      <path class="st8" d="M410.2,38.1c0,1.6.4,2.3,1.6,2.3s1,0,1.4-.2l-.4,5c-1,.8-3.2,1.3-5,1.3-5,0-6.9-2-6.9-7v-21.4h9.2v20Z"/>
      <path class="st8" d="M437.1,41l-.7,4.7c-1,.6-2,.8-3,.8-3.2,0-5.5-1.1-6.3-3.4-1.2,2-3.4,3.4-7.1,3.4s-6.2-1.7-6.2-4.8,2.1-5.2,7.8-6.4l4-.9v-.8c0-1.2-.6-2-1.8-2s-2,.5-2.1,2.4l-7.6-1.2c.4-4.5,3.7-7.2,10.2-7.2s10.4,2.8,10.4,8.2v5.6c0,1.1.5,1.6,1.4,1.6s.8,0,1-.2ZM425.6,39.5v-1.9l-1.3.4c-1.1.3-1.8,1.1-1.8,2.1s.6,1.4,1.4,1.4,1.7-.6,1.7-2Z"/>
      <path class="st8" d="M454.7,26.1l-.8,7.5c-.5-.4-1.4-.6-2.5-.6-2.4,0-4,1.2-4,3.4v9.6h-9.2v-20h8.3l.2,5c.9-3.3,2.7-5.4,5.9-5.4s1.8.3,2.1.5Z"/>
      <path class="st8" d="M192.1,66v28h-8.3l-.3-4c-1.1,2.6-3.3,4.4-6.3,4.4-4.9,0-7.6-3.8-7.6-10.3s2.8-10.5,7.7-10.5,4.6,1.5,5.6,3.8v-11.4h9.2ZM182.9,84.2v-.3c0-2.6-.6-3.8-2-3.8s-2.1.8-2.1,3.9.8,4,2.1,4,2-1,2-3.8Z"/>
      <path class="st8" d="M216.7,84c0,6.6-4.1,10.4-11.2,10.4s-11.2-3.8-11.2-10.4,4.1-10.4,11.2-10.4,11.2,3.8,11.2,10.4ZM203.7,84c0,3.4.4,4.2,1.9,4.2s1.9-.8,1.9-4.2-.4-4.2-1.9-4.2-1.9.8-1.9,4.2Z"/>
      <path class="st8" d="M254.6,76.9c0,5.7-3.7,8.8-11.1,8.8h-4.7v8.4h-9.3v-26.4h14c7.4,0,11.1,3.1,11.1,9.2ZM245.3,76.8c0-1.7-1-2.5-3.3-2.5h-3.2v5h3.2c2.3,0,3.3-.8,3.3-2.5Z"/>
      <path class="st8" d="M283.6,94h-10.1l-6.3-12-1.4-3.2h0l.2,5.4v9.8h-8.1v-26.4h10.1l6.3,12,1.4,3.2h0l-.2-5.4v-9.8h8.1v26.4Z"/>
      <path class="st8" d="M311.3,71.4l-4.1,5.8c-2.4-2.2-4.8-3.2-7.8-3.2s-3.1.6-3.1,1.5,1.5.9,3.6,1.3c7.8,1.4,10.9,4,10.9,9s-5.3,8.5-11.8,8.5-9.7-1.4-13-3.7l4-6.3c2.2,2.2,4.8,3.2,8.3,3.2s2.9-.5,2.9-1.2-1.7-1.2-3.9-1.6c-4.3-.8-10.6-1.9-10.6-8.4s4.4-9.1,12.4-9.1,8.4,1,12.2,4.2Z"/>
      <path class="st8" d="M325.1,85.3h-2.6v8.8h-9.1v-26.4h14.3c7,0,10.7,3,10.7,8.8s-1.6,6.5-4.8,7.8l6.2,9.8h-10.1l-4.7-8.8ZM322.6,79.2h3.3c2.4,0,3.2-.6,3.2-2.4s-.9-2.4-3.2-2.4h-3.3v4.9Z"/>
    </g>
    <g>
      <path class="st1" d="M33.5,592.3c1.2,0,2.3.2,3.1.6s1.5,1,2,1.8c.5.8.7,1.7.7,2.7s-.2,2-.7,2.7c-.5.8-1.1,1.3-2,1.8s-1.9.6-3.1.6h-3.3v5.6h-3.3v-15.8h6.6ZM33,599.9c1,0,1.7-.2,2.2-.6.5-.4.7-1,.7-1.9s-.2-1.5-.7-1.9c-.5-.4-1.2-.6-2.2-.6h-2.8v5h2.8Z"/>
      <path class="st1" d="M47.9,600.5c0-.7-.2-1.2-.6-1.6-.4-.4-.9-.6-1.5-.6s-1.1.2-1.6.5c-.4.3-.8.8-1,1.5l-2.8-.9c.3-1.1.9-1.9,1.8-2.5.9-.6,2.2-1,3.7-1s2,.2,2.8.5,1.4.8,1.8,1.5c.4.7.7,1.5.7,2.5v4.9c0,.6.3.9.9.9s.5,0,.8-.1l-.2,2c-.4.2-.9.3-1.6.3s-1.1,0-1.5-.3c-.4-.2-.8-.5-1.1-.9-.3-.4-.4-.9-.4-1.5h0c0,0,.6-.2.6-.2,0,.6-.4,1.1-.8,1.5s-1,.7-1.6,1c-.6.2-1.3.3-1.9.3s-1.5-.1-2.1-.4c-.6-.2-1-.6-1.4-1.1-.3-.5-.5-1.1-.5-1.8s.3-1.6.9-2.2c.6-.6,1.4-1,2.5-1.2l4.5-.9v2s-2.9.6-2.9.6c-.5.1-1,.3-1.2.4-.3.2-.4.5-.4.9s.1.7.4.9.7.3,1.1.3.7,0,1-.1.6-.2.9-.4c.3-.2.5-.4.6-.7.1-.3.2-.7.2-1.1v-3.2Z"/>
      <path class="st1" d="M53.9,608.2v-12h2.9l.2,2.4c.3-.8.8-1.5,1.4-1.9.6-.4,1.4-.7,2.3-.7s.5,0,.7,0c.2,0,.4.1.6.2l-.4,2.8c-.2,0-.4-.1-.6-.1-.2,0-.5,0-.9,0s-.9.1-1.4.3c-.4.2-.8.6-1.1,1.1s-.4,1.1-.4,1.8v6.2h-3.3Z"/>
      <path class="st1" d="M69.9,600.5c0-.7-.2-1.2-.6-1.6-.4-.4-.9-.6-1.5-.6s-1.1.2-1.6.5c-.4.3-.8.8-1,1.5l-2.8-.9c.3-1.1.9-1.9,1.8-2.5.9-.6,2.2-1,3.7-1s2,.2,2.8.5,1.4.8,1.8,1.5c.4.7.7,1.5.7,2.5v4.9c0,.6.3.9.9.9s.5,0,.8-.1l-.2,2c-.4.2-.9.3-1.6.3s-1.1,0-1.5-.3c-.4-.2-.8-.5-1.1-.9-.3-.4-.4-.9-.4-1.5h0c0,0,.6-.2.6-.2,0,.6-.4,1.1-.8,1.5s-1,.7-1.6,1c-.6.2-1.3.3-1.9.3s-1.5-.1-2.1-.4c-.6-.2-1-.6-1.4-1.1-.3-.5-.5-1.1-.5-1.8s.3-1.6.9-2.2c.6-.6,1.4-1,2.5-1.2l4.5-.9v2s-2.9.6-2.9.6c-.5.1-1,.3-1.2.4-.3.2-.4.5-.4.9s.1.7.4.9.7.3,1.1.3.7,0,1-.1.6-.2.9-.4c.3-.2.5-.4.6-.7.1-.3.2-.7.2-1.1v-3.2Z"/>
      <path class="st1" d="M87.7,595.9c1.1,0,2,.2,2.7.5.7.3,1.3.7,1.8,1.3s.8,1.1,1,1.8l-3.1,1.1c-.2-.7-.4-1.3-.8-1.6s-.9-.6-1.6-.6-1.1.1-1.6.4-.8.7-1,1.3c-.2.6-.3,1.3-.3,2.1s.1,1.6.3,2.1c.2.6.6,1,1,1.2.4.3,1,.4,1.5.4s.9,0,1.2-.3.6-.4.8-.7c.2-.3.4-.7.4-1.2l3,1c-.2.7-.5,1.4-1,1.9-.5.5-1.1,1-1.8,1.3s-1.6.5-2.6.5-2.3-.2-3.3-.7-1.7-1.2-2.2-2.1c-.5-.9-.8-2-.8-3.4s.3-2.4.8-3.4c.5-.9,1.2-1.6,2.2-2.1.9-.5,2-.7,3.2-.7Z"/>
      <path class="st1" d="M101.7,600.5c0-.7-.2-1.2-.6-1.6-.4-.4-.9-.6-1.5-.6s-1.1.2-1.6.5c-.4.3-.8.8-1,1.5l-2.8-.9c.3-1.1.9-1.9,1.8-2.5.9-.6,2.2-1,3.7-1s2,.2,2.8.5,1.4.8,1.8,1.5c.4.7.7,1.5.7,2.5v4.9c0,.6.3.9.9.9s.5,0,.8-.1l-.2,2c-.4.2-.9.3-1.6.3s-1.1,0-1.5-.3c-.4-.2-.8-.5-1.1-.9-.3-.4-.4-.9-.4-1.5h0c0,0,.6-.2.6-.2,0,.6-.4,1.1-.8,1.5s-1,.7-1.6,1c-.6.2-1.3.3-1.9.3s-1.5-.1-2.1-.4c-.6-.2-1-.6-1.4-1.1-.3-.5-.5-1.1-.5-1.8s.3-1.6.9-2.2c.6-.6,1.4-1,2.5-1.2l4.5-.9v2s-2.9.6-2.9.6c-.5.1-1,.3-1.2.4-.3.2-.4.5-.4.9s.1.7.4.9.7.3,1.1.3.7,0,1-.1.6-.2.9-.4c.3-.2.5-.4.6-.7.1-.3.2-.7.2-1.1v-3.2Z"/>
      <path class="st1" d="M112.2,608.4c-1,0-1.9-.2-2.7-.7-.8-.5-1.4-1.2-1.8-2.1-.4-.9-.7-2-.7-3.3s.2-2.5.7-3.4c.5-.9,1.1-1.6,1.9-2.1s1.7-.7,2.7-.7,1.9.3,2.6.9c.7.6,1.1,1.4,1.3,2.4l-.3.4v-8.7h3.3v17.3h-3l-.2-3.6.4.2c-.1.8-.4,1.4-.8,2-.4.6-.9,1-1.5,1.3-.6.3-1.3.5-2,.5ZM113.1,605.9c.6,0,1.1-.1,1.5-.4.4-.3.7-.7,1-1.3.2-.6.3-1.3.3-2.1s-.1-1.4-.3-2c-.2-.5-.5-.9-1-1.2-.4-.3-.9-.4-1.5-.4-.9,0-1.6.3-2.1.9-.5.6-.8,1.6-.8,2.8s.2,2.1.7,2.8c.5.6,1.2.9,2.1.9Z"/>
      <path class="st1" d="M128.6,600.5c0-.7-.2-1.2-.6-1.6-.4-.4-.9-.6-1.5-.6s-1.1.2-1.6.5c-.4.3-.8.8-1,1.5l-2.8-.9c.3-1.1.9-1.9,1.8-2.5.9-.6,2.2-1,3.7-1s2,.2,2.8.5,1.4.8,1.8,1.5c.4.7.7,1.5.7,2.5v4.9c0,.6.3.9.9.9s.5,0,.8-.1l-.2,2c-.4.2-.9.3-1.6.3s-1.1,0-1.5-.3c-.4-.2-.8-.5-1.1-.9-.3-.4-.4-.9-.4-1.5h0c0,0,.6-.2.6-.2,0,.6-.4,1.1-.8,1.5s-1,.7-1.6,1c-.6.2-1.3.3-1.9.3s-1.5-.1-2.1-.4c-.6-.2-1-.6-1.4-1.1-.3-.5-.5-1.1-.5-1.8s.3-1.6.9-2.2c.6-.6,1.4-1,2.5-1.2l4.5-.9v2s-2.9.6-2.9.6c-.5.1-1,.3-1.2.4-.3.2-.4.5-.4.9s.1.7.4.9.7.3,1.1.3.7,0,1-.1.6-.2.9-.4c.3-.2.5-.4.6-.7.1-.3.2-.7.2-1.1v-3.2Z"/>
      <path class="st1" d="M140.9,608.2v-12h3l.2,3.6-.4-.4c.2-.8.5-1.4.9-1.9.4-.5.9-.9,1.5-1.1.6-.2,1.3-.4,2-.4s1.6.2,2.2.5c.6.3,1.2.8,1.5,1.5.4.6.6,1.5.6,2.4v7.9h-3.3v-6.9c0-1-.2-1.7-.6-2.1-.4-.4-.9-.6-1.6-.6s-.9.1-1.3.3c-.4.2-.8.6-1,1-.3.5-.4,1.1-.4,1.9v6.4h-3.3Z"/>
      <path class="st1" d="M158.1,596.2v12h-3.3v-12h3.3ZM156.6,590.4h3.2l-2.4,4.1h-2.4l1.7-4.1Z"/>
      <path class="st1" d="M168.5,596.2h3.4l-4.6,12h-3.8l-4.6-12h3.5l3,9.5,3-9.5Z"/>
      <path class="st1" d="M178.4,608.4c-1.3,0-2.4-.2-3.3-.7-.9-.5-1.7-1.2-2.2-2.1-.5-.9-.8-2-.8-3.4s.3-2.4.8-3.4c.5-.9,1.2-1.6,2.1-2.1s2-.7,3.2-.7,2.2.2,3.1.7c.8.5,1.5,1.2,1.9,2,.4.8.7,1.8.7,2.9s0,.6,0,.9c0,.3,0,.5,0,.8h-9.6v-2.3h8.1l-1.6.6c0-1-.2-1.8-.7-2.3s-1.1-.8-1.9-.8-1.1.1-1.6.4c-.4.3-.8.7-1,1.3-.2.6-.3,1.3-.3,2.1s.1,1.5.4,2.1c.2.6.6,1,1.1,1.2.5.3,1,.4,1.6.4s1.3-.1,1.7-.4c.4-.3.8-.6,1-1.1l2.6,1c-.3.6-.6,1.2-1.2,1.6-.5.4-1.1.8-1.8,1s-1.5.3-2.3.3Z"/>
      <path class="st1" d="M189,590.9v13.6c0,.6,0,1,.3,1.2.2.2.5.3,1,.3s.5,0,.7,0,.4,0,.7-.2l-.3,2.2c-.3.2-.6.3-1,.4s-.8.1-1.2.1c-1.2,0-2-.3-2.6-.9-.5-.6-.8-1.5-.8-2.7v-13.9h3.3Z"/>
      <path class="st1" d="M203.6,608.4c-1.2,0-2.3-.2-3.3-.6s-1.8-1-2.4-1.8l1.9-1.9c.4.6.9,1,1.5,1.4.6.4,1.4.6,2.3.6s1.1,0,1.5-.3c.4-.2.6-.5.6-.9s0-.5-.3-.7c-.2-.2-.5-.3-1.1-.4l-2.1-.4c-1.4-.3-2.4-.7-3-1.3-.6-.6-.9-1.3-.9-2.3s.2-1.3.6-1.8c.4-.6,1-1,1.8-1.4s1.8-.5,2.9-.5,2.2.2,3.1.6c.9.4,1.6.9,2.1,1.7l-2,1.9c-.4-.6-.8-1-1.4-1.3-.6-.3-1.2-.4-1.8-.4s-.8,0-1.2.1c-.3,0-.6.2-.7.4-.2.2-.2.4-.2.6s.1.5.3.7c.2.2.6.3,1.2.5l2.4.5c1.2.2,2,.6,2.5,1.2.5.6.8,1.3.8,2.1s-.2,1.5-.6,2.1c-.4.6-1,1.1-1.8,1.4s-1.8.5-2.9.5Z"/>
      <path class="st1" d="M217.4,600.5c0-.7-.2-1.2-.6-1.6-.4-.4-.9-.6-1.5-.6s-1.1.2-1.6.5c-.4.3-.8.8-1,1.5l-2.8-.9c.3-1.1.9-1.9,1.8-2.5.9-.6,2.2-1,3.7-1s2,.2,2.8.5,1.4.8,1.8,1.5c.4.7.7,1.5.7,2.5v4.9c0,.6.3.9.9.9s.5,0,.8-.1l-.2,2c-.4.2-.9.3-1.6.3s-1.1,0-1.5-.3c-.4-.2-.8-.5-1.1-.9-.3-.4-.4-.9-.4-1.5h0c0,0,.6-.2.6-.2,0,.6-.4,1.1-.8,1.5s-1,.7-1.6,1c-.6.2-1.3.3-1.9.3s-1.5-.1-2.1-.4c-.6-.2-1-.6-1.4-1.1-.3-.5-.5-1.1-.5-1.8s.3-1.6.9-2.2c.6-.6,1.4-1,2.5-1.2l4.5-.9v2s-2.9.6-2.9.6c-.5.1-1,.3-1.2.4-.3.2-.4.5-.4.9s.1.7.4.9.7.3,1.1.3.7,0,1-.1.6-.2.9-.4c.3-.2.5-.4.6-.7.1-.3.2-.7.2-1.1v-3.2ZM220.1,590.9c0,.8-.2,1.5-.4,2-.2.5-.6.9-1,1.2s-.9.4-1.4.4-.8,0-1.2-.2c-.3-.2-.6-.3-.8-.5-.2-.2-.5-.4-.7-.5s-.4-.2-.7-.2-.5.1-.7.4c-.2.2-.3.6-.3,1.1h-2c0-1.2.4-2.1.9-2.7.5-.6,1.2-.9,2.1-.9s.8,0,1.1.2c.3.2.6.3.8.5.2.2.4.4.6.5.2.1.4.2.7.2s.6-.1.7-.4c.2-.2.3-.6.3-1.1h2Z"/>
      <path class="st1" d="M228.9,595.9c1.2,0,2.3.2,3.2.7.9.5,1.6,1.2,2.2,2.1.5.9.8,2,.8,3.4s-.3,2.4-.8,3.3c-.5.9-1.2,1.7-2.2,2.1-.9.5-2,.7-3.2.7s-2.3-.2-3.2-.7-1.7-1.2-2.2-2.1c-.5-.9-.8-2.1-.8-3.3s.3-2.4.8-3.4c.5-.9,1.2-1.6,2.2-2.1s2-.7,3.2-.7ZM228.9,598.4c-.6,0-1.1.1-1.5.4-.4.3-.7.7-1,1.3-.2.6-.3,1.3-.3,2.1s.1,1.6.3,2.1c.2.6.5,1,1,1.3.4.3.9.4,1.5.4s1.1-.1,1.5-.4.7-.7,1-1.3c.2-.6.3-1.3.3-2.1s-.1-1.6-.3-2.1c-.2-.6-.5-1-1-1.3s-.9-.4-1.5-.4Z"/>
      <path class="st1" d="M243.2,613.2v-17h3l.2,3.8-.4-.4c.1-.7.4-1.3.8-1.9.4-.5.9-1,1.5-1.3.6-.3,1.3-.5,2-.5s1.8.2,2.6.7c.8.5,1.4,1.2,1.8,2.1s.7,2,.7,3.3-.2,2.4-.7,3.4c-.4.9-1.1,1.7-1.8,2.1-.8.5-1.7.7-2.7.7s-1.9-.3-2.6-.9c-.7-.6-1.2-1.3-1.4-2.2l.3-.5v8.4h-3.3ZM249.3,605.9c.9,0,1.6-.3,2.1-.9.5-.6.8-1.6.8-2.8s-.2-2.1-.7-2.8c-.5-.6-1.2-.9-2.1-.9s-1.1.1-1.5.4-.8.7-1,1.3c-.2.6-.4,1.2-.4,2s.1,1.4.3,2c.2.6.5,1,1,1.3.4.3.9.4,1.5.4Z"/>
      <path class="st1" d="M257.3,608.2v-12h2.9l.2,2.4c.3-.8.8-1.5,1.4-1.9.6-.4,1.4-.7,2.3-.7s.5,0,.7,0c.2,0,.4.1.6.2l-.4,2.8c-.2,0-.4-.1-.6-.1-.2,0-.5,0-.9,0s-.9.1-1.4.3c-.4.2-.8.6-1.1,1.1s-.4,1.1-.4,1.8v6.2h-3.3Z"/>
      <path class="st1" d="M271.9,595.9c1.2,0,2.3.2,3.2.7.9.5,1.6,1.2,2.2,2.1.5.9.8,2,.8,3.4s-.3,2.4-.8,3.3c-.5.9-1.2,1.7-2.2,2.1-.9.5-2,.7-3.2.7s-2.3-.2-3.2-.7-1.7-1.2-2.2-2.1c-.5-.9-.8-2.1-.8-3.3s.3-2.4.8-3.4c.5-.9,1.2-1.6,2.2-2.1s2-.7,3.2-.7ZM271.9,598.4c-.6,0-1.1.1-1.5.4-.4.3-.7.7-1,1.3-.2.6-.3,1.3-.3,2.1s.1,1.6.3,2.1c.2.6.5,1,1,1.3.4.3.9.4,1.5.4s1.1-.1,1.5-.4.7-.7,1-1.3c.2-.6.3-1.3.3-2.1s-.1-1.6-.3-2.1c-.2-.6-.5-1-1-1.3s-.9-.4-1.5-.4Z"/>
      <path class="st1" d="M279.9,613.2v-17h3l.2,3.8-.4-.4c.1-.7.4-1.3.8-1.9.4-.5.9-1,1.5-1.3.6-.3,1.3-.5,2-.5s1.8.2,2.6.7c.8.5,1.4,1.2,1.8,2.1s.7,2,.7,3.3-.2,2.4-.7,3.4c-.4.9-1.1,1.7-1.8,2.1-.8.5-1.7.7-2.7.7s-1.9-.3-2.6-.9c-.7-.6-1.2-1.3-1.4-2.2l.3-.5v8.4h-3.3ZM285.9,605.9c.9,0,1.6-.3,2.1-.9.5-.6.8-1.6.8-2.8s-.2-2.1-.7-2.8c-.5-.6-1.2-.9-2.1-.9s-1.1.1-1.5.4-.8.7-1,1.3c-.2.6-.4,1.2-.4,2s.1,1.4.3,2c.2.6.5,1,1,1.3.4.3.9.4,1.5.4Z"/>
      <path class="st1" d="M299.4,595.9c1.2,0,2.3.2,3.2.7.9.5,1.6,1.2,2.2,2.1.5.9.8,2,.8,3.4s-.3,2.4-.8,3.3c-.5.9-1.2,1.7-2.2,2.1-.9.5-2,.7-3.2.7s-2.3-.2-3.2-.7-1.7-1.2-2.2-2.1c-.5-.9-.8-2.1-.8-3.3s.3-2.4.8-3.4c.5-.9,1.2-1.6,2.2-2.1s2-.7,3.2-.7ZM299.4,598.4c-.6,0-1.1.1-1.5.4-.4.3-.7.7-1,1.3-.2.6-.3,1.3-.3,2.1s.1,1.6.3,2.1c.2.6.5,1,1,1.3.4.3.9.4,1.5.4s1.1-.1,1.5-.4.7-.7,1-1.3c.2-.6.3-1.3.3-2.1s-.1-1.6-.3-2.1c-.2-.6-.5-1-1-1.3s-.9-.4-1.5-.4Z"/>
      <path class="st1" d="M312.2,608.4c-1.2,0-2.3-.2-3.3-.6s-1.8-1-2.4-1.8l1.9-1.9c.4.6.9,1,1.5,1.4.6.4,1.4.6,2.3.6s1.1,0,1.5-.3c.4-.2.6-.5.6-.9s0-.5-.3-.7c-.2-.2-.5-.3-1.1-.4l-2.1-.4c-1.4-.3-2.4-.7-3-1.3-.6-.6-.9-1.3-.9-2.3s.2-1.3.6-1.8c.4-.6,1-1,1.8-1.4s1.8-.5,2.9-.5,2.2.2,3.1.6c.9.4,1.6.9,2.1,1.7l-2,1.9c-.4-.6-.8-1-1.4-1.3-.6-.3-1.2-.4-1.8-.4s-.8,0-1.2.1c-.3,0-.6.2-.7.4-.2.2-.2.4-.2.6s.1.5.3.7c.2.2.6.3,1.2.5l2.4.5c1.2.2,2,.6,2.5,1.2.5.6.8,1.3.8,2.1s-.2,1.5-.6,2.1c-.4.6-1,1.1-1.8,1.4s-1.8.5-2.9.5Z"/>
      <path class="st1" d="M327.2,596.2v2.4h-9.3v-2.4h9.3ZM323.4,592.5v11.8c0,.6.1,1,.4,1.3s.7.4,1.2.4.8,0,1.1-.2c.3-.1.6-.3.8-.5l.5,2.2c-.4.3-.9.5-1.4.7s-1.2.3-1.8.3-1.5-.1-2.1-.4c-.6-.2-1.1-.6-1.4-1.2-.3-.5-.5-1.2-.5-2.1v-11.4l3.3-.9Z"/>
      <path class="st1" d="M334,595.9c1.2,0,2.3.2,3.2.7.9.5,1.6,1.2,2.2,2.1.5.9.8,2,.8,3.4s-.3,2.4-.8,3.3c-.5.9-1.2,1.7-2.2,2.1-.9.5-2,.7-3.2.7s-2.3-.2-3.2-.7-1.7-1.2-2.2-2.1c-.5-.9-.8-2.1-.8-3.3s.3-2.4.8-3.4c.5-.9,1.2-1.6,2.2-2.1s2-.7,3.2-.7ZM334,598.4c-.6,0-1.1.1-1.5.4-.4.3-.7.7-1,1.3-.2.6-.3,1.3-.3,2.1s.1,1.6.3,2.1c.2.6.5,1,1,1.3.4.3.9.4,1.5.4s1.1-.1,1.5-.4.7-.7,1-1.3c.2-.6.3-1.3.3-2.1s-.1-1.6-.3-2.1c-.2-.6-.5-1-1-1.3s-.9-.4-1.5-.4Z"/>
      <path class="st1" d="M346.7,608.4c-1.2,0-2.3-.2-3.3-.6s-1.8-1-2.4-1.8l1.9-1.9c.4.6.9,1,1.5,1.4.6.4,1.4.6,2.3.6s1.1,0,1.5-.3c.4-.2.6-.5.6-.9s0-.5-.3-.7c-.2-.2-.5-.3-1.1-.4l-2.1-.4c-1.4-.3-2.4-.7-3-1.3-.6-.6-.9-1.3-.9-2.3s.2-1.3.6-1.8c.4-.6,1-1,1.8-1.4s1.8-.5,2.9-.5,2.2.2,3.1.6c.9.4,1.6.9,2.1,1.7l-2,1.9c-.4-.6-.8-1-1.4-1.3-.6-.3-1.2-.4-1.8-.4s-.8,0-1.2.1c-.3,0-.6.2-.7.4-.2.2-.2.4-.2.6s.1.5.3.7c.2.2.6.3,1.2.5l2.4.5c1.2.2,2,.6,2.5,1.2.5.6.8,1.3.8,2.1s-.2,1.5-.6,2.1c-.4.6-1,1.1-1.8,1.4s-1.8.5-2.9.5Z"/>
      <path class="st1" d="M366.9,600.5c0-.7-.2-1.2-.6-1.6-.4-.4-.9-.6-1.5-.6s-1.1.2-1.6.5c-.4.3-.8.8-1,1.5l-2.8-.9c.3-1.1.9-1.9,1.8-2.5.9-.6,2.2-1,3.7-1s2,.2,2.8.5,1.4.8,1.8,1.5c.4.7.7,1.5.7,2.5v4.9c0,.6.3.9.9.9s.5,0,.8-.1l-.2,2c-.4.2-.9.3-1.6.3s-1.1,0-1.5-.3c-.4-.2-.8-.5-1.1-.9-.3-.4-.4-.9-.4-1.5h0c0,0,.6-.2.6-.2,0,.6-.4,1.1-.8,1.5s-1,.7-1.6,1c-.6.2-1.3.3-1.9.3s-1.5-.1-2.1-.4c-.6-.2-1-.6-1.4-1.1-.3-.5-.5-1.1-.5-1.8s.3-1.6.9-2.2c.6-.6,1.4-1,2.5-1.2l4.5-.9v2s-2.9.6-2.9.6c-.5.1-1,.3-1.2.4-.3.2-.4.5-.4.9s.1.7.4.9.7.3,1.1.3.7,0,1-.1.6-.2.9-.4c.3-.2.5-.4.6-.7.1-.3.2-.7.2-1.1v-3.2Z"/>
      <path class="st1" d="M381,596.2v2.4h-9.3v-2.4h9.3ZM377.2,592.5v11.8c0,.6.1,1,.4,1.3s.7.4,1.2.4.8,0,1.1-.2c.3-.1.6-.3.8-.5l.5,2.2c-.4.3-.9.5-1.4.7s-1.2.3-1.8.3-1.5-.1-2.1-.4c-.6-.2-1.1-.6-1.4-1.2-.3-.5-.5-1.2-.5-2.1v-11.4l3.3-.9Z"/>
      <path class="st1" d="M387.7,595.9c1.2,0,2.3.2,3.2.7.9.5,1.6,1.2,2.2,2.1.5.9.8,2,.8,3.4s-.3,2.4-.8,3.3c-.5.9-1.2,1.7-2.2,2.1-.9.5-2,.7-3.2.7s-2.3-.2-3.2-.7-1.7-1.2-2.2-2.1c-.5-.9-.8-2.1-.8-3.3s.3-2.4.8-3.4c.5-.9,1.2-1.6,2.2-2.1s2-.7,3.2-.7ZM387.7,598.4c-.6,0-1.1.1-1.5.4-.4.3-.7.7-1,1.3-.2.6-.3,1.3-.3,2.1s.1,1.6.3,2.1c.2.6.5,1,1,1.3.4.3.9.4,1.5.4s1.1-.1,1.5-.4.7-.7,1-1.3c.2-.6.3-1.3.3-2.1s-.1-1.6-.3-2.1c-.2-.6-.5-1-1-1.3s-.9-.4-1.5-.4Z"/>
      <path class="st1" d="M395.7,608.2v-12h2.9l.2,2.4c.3-.8.8-1.5,1.4-1.9.6-.4,1.4-.7,2.3-.7s.5,0,.7,0c.2,0,.4.1.6.2l-.4,2.8c-.2,0-.4-.1-.6-.1-.2,0-.5,0-.9,0s-.9.1-1.4.3c-.4.2-.8.6-1.1,1.1s-.4,1.1-.4,1.8v6.2h-3.3Z"/>
      <path class="st1" d="M410.4,608.4c-1.3,0-2.4-.2-3.3-.7-.9-.5-1.7-1.2-2.2-2.1-.5-.9-.8-2-.8-3.4s.3-2.4.8-3.4c.5-.9,1.2-1.6,2.1-2.1s2-.7,3.2-.7,2.2.2,3.1.7c.8.5,1.5,1.2,1.9,2,.4.8.7,1.8.7,2.9s0,.6,0,.9c0,.3,0,.5,0,.8h-9.6v-2.3h8.1l-1.6.6c0-1-.2-1.8-.7-2.3s-1.1-.8-1.9-.8-1.1.1-1.6.4c-.4.3-.8.7-1,1.3-.2.6-.3,1.3-.3,2.1s.1,1.5.4,2.1c.2.6.6,1,1.1,1.2.5.3,1,.4,1.6.4s1.3-.1,1.7-.4c.4-.3.8-.6,1-1.1l2.6,1c-.3.6-.6,1.2-1.2,1.6-.5.4-1.1.8-1.8,1s-1.5.3-2.3.3Z"/>
      <path class="st1" d="M422.6,608.4c-1.2,0-2.3-.2-3.3-.6s-1.8-1-2.4-1.8l1.9-1.9c.4.6.9,1,1.5,1.4.6.4,1.4.6,2.3.6s1.1,0,1.5-.3c.4-.2.6-.5.6-.9s0-.5-.3-.7c-.2-.2-.5-.3-1.1-.4l-2.1-.4c-1.4-.3-2.4-.7-3-1.3-.6-.6-.9-1.3-.9-2.3s.2-1.3.6-1.8c.4-.6,1-1,1.8-1.4s1.8-.5,2.9-.5,2.2.2,3.1.6c.9.4,1.6.9,2.1,1.7l-2,1.9c-.4-.6-.8-1-1.4-1.3-.6-.3-1.2-.4-1.8-.4s-.8,0-1.2.1c-.3,0-.6.2-.7.4-.2.2-.2.4-.2.6s.1.5.3.7c.2.2.6.3,1.2.5l2.4.5c1.2.2,2,.6,2.5,1.2.5.6.8,1.3.8,2.1s-.2,1.5-.6,2.1c-.4.6-1,1.1-1.8,1.4s-1.8.5-2.9.5Z"/>
      <path class="st1" d="M441.5,608.4c-1.3,0-2.4-.2-3.3-.7-.9-.5-1.7-1.2-2.2-2.1-.5-.9-.8-2-.8-3.4s.3-2.4.8-3.4c.5-.9,1.2-1.6,2.1-2.1s2-.7,3.2-.7,2.2.2,3.1.7c.8.5,1.5,1.2,1.9,2,.4.8.7,1.8.7,2.9s0,.6,0,.9c0,.3,0,.5,0,.8h-9.6v-2.3h8.1l-1.6.6c0-1-.2-1.8-.7-2.3s-1.1-.8-1.9-.8-1.1.1-1.6.4c-.4.3-.8.7-1,1.3-.2.6-.3,1.3-.3,2.1s.1,1.5.4,2.1c.2.6.6,1,1.1,1.2.5.3,1,.4,1.6.4s1.3-.1,1.7-.4c.4-.3.8-.6,1-1.1l2.6,1c-.3.6-.6,1.2-1.2,1.6-.5.4-1.1.8-1.8,1s-1.5.3-2.3.3Z"/>
      <path class="st1" d="M26.5,637v-12h2.9l.2,2.4c.3-.8.8-1.5,1.4-1.9.6-.4,1.4-.7,2.3-.7s.5,0,.7,0c.2,0,.4.1.6.2l-.4,2.8c-.2,0-.4-.1-.6-.1-.2,0-.5,0-.9,0s-.9.1-1.4.3c-.4.2-.8.6-1.1,1.1s-.4,1.1-.4,1.8v6.2h-3.3Z"/>
      <path class="st1" d="M41.3,637.2c-1.3,0-2.4-.2-3.3-.7-.9-.5-1.7-1.2-2.2-2.1-.5-.9-.8-2-.8-3.4s.3-2.4.8-3.4c.5-.9,1.2-1.6,2.1-2.1s2-.7,3.2-.7,2.2.2,3.1.7c.8.5,1.5,1.2,1.9,2,.4.8.7,1.8.7,2.9s0,.6,0,.9c0,.3,0,.5,0,.8h-9.6v-2.3h8.1l-1.6.6c0-1-.2-1.8-.7-2.3s-1.1-.8-1.9-.8-1.1.1-1.6.4c-.4.3-.8.7-1,1.3-.2.6-.3,1.3-.3,2.1s.1,1.5.4,2.1c.2.6.6,1,1.1,1.2.5.3,1,.4,1.6.4s1.3-.1,1.7-.4c.4-.3.8-.6,1-1.1l2.6,1c-.3.6-.6,1.2-1.2,1.6-.5.4-1.1.8-1.8,1s-1.5.3-2.3.3Z"/>
      <path class="st1" d="M53.4,637.2c-1.2,0-2.3-.2-3.3-.6s-1.8-1-2.4-1.8l1.9-1.9c.4.6.9,1,1.5,1.4.6.4,1.4.6,2.3.6s1.1,0,1.5-.3c.4-.2.6-.5.6-.9s0-.5-.3-.7c-.2-.2-.5-.3-1.1-.4l-2.1-.4c-1.4-.3-2.4-.7-3-1.3-.6-.6-.9-1.3-.9-2.3s.2-1.3.6-1.8c.4-.6,1-1,1.8-1.4s1.8-.5,2.9-.5,2.2.2,3.1.6c.9.4,1.6.9,2.1,1.7l-2,1.9c-.4-.6-.8-1-1.4-1.3-.6-.3-1.2-.4-1.8-.4s-.8,0-1.2.1c-.3,0-.6.2-.7.4-.2.2-.2.4-.2.6s.1.5.3.7c.2.2.6.3,1.2.5l2.4.5c1.2.2,2,.6,2.5,1.2.5.6.8,1.3.8,2.1s-.2,1.5-.6,2.1c-.4.6-1,1.1-1.8,1.4s-1.8.5-2.9.5Z"/>
      <path class="st1" d="M60.4,642v-17h3l.2,3.8-.4-.4c.1-.7.4-1.3.8-1.9.4-.5.9-1,1.5-1.3.6-.3,1.3-.5,2-.5s1.8.2,2.6.7c.8.5,1.4,1.2,1.8,2.1s.7,2,.7,3.3-.2,2.4-.7,3.4c-.4.9-1.1,1.7-1.8,2.1-.8.5-1.7.7-2.7.7s-1.9-.3-2.6-.9c-.7-.6-1.2-1.3-1.4-2.2l.3-.5v8.4h-3.3ZM66.5,634.7c.9,0,1.6-.3,2.1-.9.5-.6.8-1.6.8-2.8s-.2-2.1-.7-2.8c-.5-.6-1.2-.9-2.1-.9s-1.1.1-1.5.4-.8.7-1,1.3c-.2.6-.4,1.2-.4,2s.1,1.4.3,2c.2.6.5,1,1,1.3.4.3.9.4,1.5.4Z"/>
      <path class="st1" d="M80,624.7c1.2,0,2.3.2,3.2.7.9.5,1.6,1.2,2.2,2.1.5.9.8,2,.8,3.4s-.3,2.4-.8,3.3c-.5.9-1.2,1.7-2.2,2.1-.9.5-2,.7-3.2.7s-2.3-.2-3.2-.7-1.7-1.2-2.2-2.1c-.5-.9-.8-2.1-.8-3.3s.3-2.4.8-3.4c.5-.9,1.2-1.6,2.2-2.1s2-.7,3.2-.7ZM80,627.2c-.6,0-1.1.1-1.5.4-.4.3-.7.7-1,1.3-.2.6-.3,1.3-.3,2.1s.1,1.6.3,2.1c.2.6.5,1,1,1.3.4.3.9.4,1.5.4s1.1-.1,1.5-.4.7-.7,1-1.3c.2-.6.3-1.3.3-2.1s-.1-1.6-.3-2.1c-.2-.6-.5-1-1-1.3s-.9-.4-1.5-.4Z"/>
      <path class="st1" d="M87.9,637v-12h3l.2,3.6-.4-.4c.2-.8.5-1.4.9-1.9.4-.5.9-.9,1.5-1.1.6-.2,1.3-.4,2-.4s1.6.2,2.2.5c.6.3,1.2.8,1.5,1.5.4.6.6,1.5.6,2.4v7.9h-3.3v-6.9c0-1-.2-1.7-.6-2.1-.4-.4-.9-.6-1.6-.6s-.9.1-1.3.3c-.4.2-.8.6-1,1-.3.5-.4,1.1-.4,1.9v6.4h-3.3Z"/>
      <path class="st1" d="M106.6,637.2c-1.2,0-2.3-.2-3.3-.6s-1.8-1-2.4-1.8l1.9-1.9c.4.6.9,1,1.5,1.4.6.4,1.4.6,2.3.6s1.1,0,1.5-.3c.4-.2.6-.5.6-.9s0-.5-.3-.7c-.2-.2-.5-.3-1.1-.4l-2.1-.4c-1.4-.3-2.4-.7-3-1.3-.6-.6-.9-1.3-.9-2.3s.2-1.3.6-1.8c.4-.6,1-1,1.8-1.4s1.8-.5,2.9-.5,2.2.2,3.1.6c.9.4,1.6.9,2.1,1.7l-2,1.9c-.4-.6-.8-1-1.4-1.3-.6-.3-1.2-.4-1.8-.4s-.8,0-1.2.1c-.3,0-.6.2-.7.4-.2.2-.2.4-.2.6s.1.5.3.7c.2.2.6.3,1.2.5l2.4.5c1.2.2,2,.6,2.5,1.2.5.6.8,1.3.8,2.1s-.2,1.5-.6,2.1c-.4.6-1,1.1-1.8,1.4s-1.8.5-2.9.5Z"/>
      <path class="st1" d="M120.4,629.3c0-.7-.2-1.2-.6-1.6-.4-.4-.9-.6-1.5-.6s-1.1.2-1.6.5c-.4.3-.8.8-1,1.5l-2.8-.9c.3-1.1.9-1.9,1.8-2.5.9-.6,2.2-1,3.7-1s2,.2,2.8.5,1.4.8,1.8,1.5c.4.7.7,1.5.7,2.5v4.9c0,.6.3.9.9.9s.5,0,.8-.1l-.2,2c-.4.2-.9.3-1.6.3s-1.1,0-1.5-.3c-.4-.2-.8-.5-1.1-.9-.3-.4-.4-.9-.4-1.5h0c0,0,.6-.2.6-.2,0,.6-.4,1.1-.8,1.5s-1,.7-1.6,1c-.6.2-1.3.3-1.9.3s-1.5-.1-2.1-.4c-.6-.2-1-.6-1.4-1.1-.3-.5-.5-1.1-.5-1.8s.3-1.6.9-2.2c.6-.6,1.4-1,2.5-1.2l4.5-.9v2s-2.9.6-2.9.6c-.5.1-1,.3-1.2.4-.3.2-.4.5-.4.9s.1.7.4.9.7.3,1.1.3.7,0,1-.1.6-.2.9-.4c.3-.2.5-.4.6-.7.1-.3.2-.7.2-1.1v-3.2Z"/>
      <path class="st1" d="M133.5,637.2c-.7,0-1.4-.2-2-.5-.6-.3-1.1-.7-1.5-1.3-.4-.6-.7-1.2-.8-1.9l.3-.4-.2,3.8h-2.9v-17.3h3.3v8.6l-.3-.5c.3-.9.7-1.6,1.5-2.2.7-.6,1.6-.9,2.7-.9s1.8.2,2.6.7c.8.5,1.4,1.2,1.8,2.1.4.9.7,2.1.7,3.4s-.2,2.4-.7,3.3c-.4.9-1,1.6-1.8,2.1-.8.5-1.7.7-2.7.7ZM132.5,634.7c.9,0,1.6-.3,2.1-.9.5-.6.8-1.6.8-2.8s-.2-2.1-.7-2.8c-.5-.6-1.2-.9-2.1-.9s-1.1.2-1.5.5c-.4.3-.7.7-1,1.3-.2.6-.3,1.2-.3,2s.1,1.5.3,2c.2.6.6,1,1,1.3s.9.4,1.5.4Z"/>
      <path class="st1" d="M142.2,623.2c-.7,0-1.2-.1-1.5-.4s-.5-.7-.5-1.3.2-1,.5-1.3c.3-.3.8-.4,1.5-.4s1.2.1,1.5.4c.3.3.5.7.5,1.3s-.2,1-.5,1.3-.8.4-1.5.4ZM143.8,625v12h-3.3v-12h3.3Z"/>
      <path class="st1" d="M149.6,619.7v13.6c0,.6,0,1,.3,1.2.2.2.5.3,1,.3s.5,0,.7,0,.4,0,.7-.2l-.3,2.2c-.3.2-.6.3-1,.4s-.8.1-1.2.1c-1.2,0-2-.3-2.6-.9-.5-.6-.8-1.5-.8-2.7v-13.9h3.3Z"/>
      <path class="st1" d="M154.7,623.2c-.7,0-1.2-.1-1.5-.4s-.5-.7-.5-1.3.2-1,.5-1.3c.3-.3.8-.4,1.5-.4s1.2.1,1.5.4c.3.3.5.7.5,1.3s-.2,1-.5,1.3-.8.4-1.5.4ZM156.3,625v12h-3.3v-12h3.3Z"/>
      <path class="st1" d="M163.4,637.2c-1,0-1.9-.2-2.7-.7-.8-.5-1.4-1.2-1.8-2.1-.4-.9-.7-2-.7-3.3s.2-2.5.7-3.4c.5-.9,1.1-1.6,1.9-2.1s1.7-.7,2.7-.7,1.9.3,2.6.9c.7.6,1.1,1.4,1.3,2.4l-.3.4v-8.7h3.3v17.3h-3l-.2-3.6.4.2c-.1.8-.4,1.4-.8,2-.4.6-.9,1-1.5,1.3-.6.3-1.3.5-2,.5ZM164.3,634.7c.6,0,1.1-.1,1.5-.4.4-.3.7-.7,1-1.3.2-.6.3-1.3.3-2.1s-.1-1.4-.3-2c-.2-.5-.5-.9-1-1.2-.4-.3-.9-.4-1.5-.4-.9,0-1.6.3-2.1.9-.5.6-.8,1.6-.8,2.8s.2,2.1.7,2.8c.5.6,1.2.9,2.1.9Z"/>
      <path class="st1" d="M179.7,629.3c0-.7-.2-1.2-.6-1.6-.4-.4-.9-.6-1.5-.6s-1.1.2-1.6.5c-.4.3-.8.8-1,1.5l-2.8-.9c.3-1.1.9-1.9,1.8-2.5.9-.6,2.2-1,3.7-1s2,.2,2.8.5,1.4.8,1.8,1.5c.4.7.7,1.5.7,2.5v4.9c0,.6.3.9.9.9s.5,0,.8-.1l-.2,2c-.4.2-.9.3-1.6.3s-1.1,0-1.5-.3c-.4-.2-.8-.5-1.1-.9-.3-.4-.4-.9-.4-1.5h0c0,0,.6-.2.6-.2,0,.6-.4,1.1-.8,1.5s-1,.7-1.6,1c-.6.2-1.3.3-1.9.3s-1.5-.1-2.1-.4c-.6-.2-1-.6-1.4-1.1-.3-.5-.5-1.1-.5-1.8s.3-1.6.9-2.2c.6-.6,1.4-1,2.5-1.2l4.5-.9v2s-2.9.6-2.9.6c-.5.1-1,.3-1.2.4-.3.2-.4.5-.4.9s.1.7.4.9.7.3,1.1.3.7,0,1-.1.6-.2.9-.4c.3-.2.5-.4.6-.7.1-.3.2-.7.2-1.1v-3.2Z"/>
      <path class="st1" d="M190.3,637.2c-1,0-1.9-.2-2.7-.7-.8-.5-1.4-1.2-1.8-2.1-.4-.9-.7-2-.7-3.3s.2-2.5.7-3.4c.5-.9,1.1-1.6,1.9-2.1s1.7-.7,2.7-.7,1.9.3,2.6.9c.7.6,1.1,1.4,1.3,2.4l-.3.4v-8.7h3.3v17.3h-3l-.2-3.6.4.2c-.1.8-.4,1.4-.8,2-.4.6-.9,1-1.5,1.3-.6.3-1.3.5-2,.5ZM191.2,634.7c.6,0,1.1-.1,1.5-.4.4-.3.7-.7,1-1.3.2-.6.3-1.3.3-2.1s-.1-1.4-.3-2c-.2-.5-.5-.9-1-1.2-.4-.3-.9-.4-1.5-.4-.9,0-1.6.3-2.1.9-.5.6-.8,1.6-.8,2.8s.2,2.1.7,2.8c.5.6,1.2.9,2.1.9Z"/>
      <path class="st1" d="M205.4,637.2c-1.3,0-2.4-.2-3.3-.7-.9-.5-1.7-1.2-2.2-2.1-.5-.9-.8-2-.8-3.4s.3-2.4.8-3.4c.5-.9,1.2-1.6,2.1-2.1s2-.7,3.2-.7,2.2.2,3.1.7c.8.5,1.5,1.2,1.9,2,.4.8.7,1.8.7,2.9s0,.6,0,.9c0,.3,0,.5,0,.8h-9.6v-2.3h8.1l-1.6.6c0-1-.2-1.8-.7-2.3s-1.1-.8-1.9-.8-1.1.1-1.6.4c-.4.3-.8.7-1,1.3-.2.6-.3,1.3-.3,2.1s.1,1.5.4,2.1c.2.6.6,1,1.1,1.2.5.3,1,.4,1.6.4s1.3-.1,1.7-.4c.4-.3.8-.6,1-1.1l2.6,1c-.3.6-.6,1.2-1.2,1.6-.5.4-1.1.8-1.8,1s-1.5.3-2.3.3Z"/>
      <path class="st1" d="M217.5,637.2c-1.2,0-2.3-.2-3.3-.6s-1.8-1-2.4-1.8l1.9-1.9c.4.6.9,1,1.5,1.4.6.4,1.4.6,2.3.6s1.1,0,1.5-.3c.4-.2.6-.5.6-.9s0-.5-.3-.7c-.2-.2-.5-.3-1.1-.4l-2.1-.4c-1.4-.3-2.4-.7-3-1.3-.6-.6-.9-1.3-.9-2.3s.2-1.3.6-1.8c.4-.6,1-1,1.8-1.4s1.8-.5,2.9-.5,2.2.2,3.1.6c.9.4,1.6.9,2.1,1.7l-2,1.9c-.4-.6-.8-1-1.4-1.3-.6-.3-1.2-.4-1.8-.4s-.8,0-1.2.1c-.3,0-.6.2-.7.4-.2.2-.2.4-.2.6s.1.5.3.7c.2.2.6.3,1.2.5l2.4.5c1.2.2,2,.6,2.5,1.2.5.6.8,1.3.8,2.1s-.2,1.5-.6,2.1c-.4.6-1,1.1-1.8,1.4s-1.8.5-2.9.5Z"/>
      <path class="st1" d="M226.1,633.3c.5,0,.9.1,1.3.4s.6.6.8,1,.3.9.3,1.4-.1,1.3-.4,1.9-.6,1.2-1.1,1.6c-.5.5-1,.9-1.6,1.1l-1.4-1.1c.4-.2.8-.4,1.2-.6.4-.3.7-.5.9-.9s.4-.6.6-1h-.1c0,0-.2,0-.3,0-.1,0-.3,0-.5,0s-.5,0-.8-.2-.5-.3-.6-.6-.3-.6-.3-1,0-.8.3-1.1c.2-.3.4-.5.8-.7s.7-.3,1-.3Z"/>
      <path class="st1" d="M241.2,637.2c-1,0-1.9-.2-2.7-.7-.8-.5-1.4-1.2-1.8-2.1-.4-.9-.7-2-.7-3.3s.2-2.5.7-3.4c.5-.9,1.1-1.6,1.9-2.1s1.7-.7,2.7-.7,1.9.3,2.6.9c.7.6,1.1,1.4,1.3,2.4l-.3.4v-8.7h3.3v17.3h-3l-.2-3.6.4.2c-.1.8-.4,1.4-.8,2-.4.6-.9,1-1.5,1.3-.6.3-1.3.5-2,.5ZM242.2,634.7c.6,0,1.1-.1,1.5-.4.4-.3.7-.7,1-1.3.2-.6.3-1.3.3-2.1s-.1-1.4-.3-2c-.2-.5-.5-.9-1-1.2-.4-.3-.9-.4-1.5-.4-.9,0-1.6.3-2.1.9-.5.6-.8,1.6-.8,2.8s.2,2.1.7,2.8c.5.6,1.2.9,2.1.9Z"/>
      <path class="st1" d="M256.4,637.2c-1.3,0-2.4-.2-3.3-.7-.9-.5-1.7-1.2-2.2-2.1-.5-.9-.8-2-.8-3.4s.3-2.4.8-3.4c.5-.9,1.2-1.6,2.1-2.1s2-.7,3.2-.7,2.2.2,3.1.7c.8.5,1.5,1.2,1.9,2,.4.8.7,1.8.7,2.9s0,.6,0,.9c0,.3,0,.5,0,.8h-9.6v-2.3h8.1l-1.6.6c0-1-.2-1.8-.7-2.3s-1.1-.8-1.9-.8-1.1.1-1.6.4c-.4.3-.8.7-1,1.3-.2.6-.3,1.3-.3,2.1s.1,1.5.4,2.1c.2.6.6,1,1.1,1.2.5.3,1,.4,1.6.4s1.3-.1,1.7-.4c.4-.3.8-.6,1-1.1l2.6,1c-.3.6-.6,1.2-1.2,1.6-.5.4-1.1.8-1.8,1s-1.5.3-2.3.3Z"/>
      <path class="st1" d="M268.5,637.2c-1.2,0-2.3-.2-3.3-.6s-1.8-1-2.4-1.8l1.9-1.9c.4.6.9,1,1.5,1.4.6.4,1.4.6,2.3.6s1.1,0,1.5-.3c.4-.2.6-.5.6-.9s0-.5-.3-.7c-.2-.2-.5-.3-1.1-.4l-2.1-.4c-1.4-.3-2.4-.7-3-1.3-.6-.6-.9-1.3-.9-2.3s.2-1.3.6-1.8c.4-.6,1-1,1.8-1.4s1.8-.5,2.9-.5,2.2.2,3.1.6c.9.4,1.6.9,2.1,1.7l-2,1.9c-.4-.6-.8-1-1.4-1.3-.6-.3-1.2-.4-1.8-.4s-.8,0-1.2.1c-.3,0-.6.2-.7.4-.2.2-.2.4-.2.6s.1.5.3.7c.2.2.6.3,1.2.5l2.4.5c1.2.2,2,.6,2.5,1.2.5.6.8,1.3.8,2.1s-.2,1.5-.6,2.1c-.4.6-1,1.1-1.8,1.4s-1.8.5-2.9.5Z"/>
      <path class="st1" d="M280,637.2c-1,0-1.9-.2-2.7-.7-.8-.5-1.4-1.2-1.8-2.1-.4-.9-.7-2-.7-3.3s.2-2.5.7-3.4c.5-.9,1.1-1.6,1.9-2.1s1.7-.7,2.7-.7,1.9.3,2.6.9c.7.6,1.1,1.4,1.3,2.4l-.3.4v-8.7h3.3v17.3h-3l-.2-3.6.4.2c-.1.8-.4,1.4-.8,2-.4.6-.9,1-1.5,1.3-.6.3-1.3.5-2,.5ZM281,634.7c.6,0,1.1-.1,1.5-.4.4-.3.7-.7,1-1.3.2-.6.3-1.3.3-2.1s-.1-1.4-.3-2c-.2-.5-.5-.9-1-1.2-.4-.3-.9-.4-1.5-.4-.9,0-1.6.3-2.1.9-.5.6-.8,1.6-.8,2.8s.2,2.1.7,2.8c.5.6,1.2.9,2.1.9Z"/>
      <path class="st1" d="M295.2,637.2c-1.3,0-2.4-.2-3.3-.7-.9-.5-1.7-1.2-2.2-2.1-.5-.9-.8-2-.8-3.4s.3-2.4.8-3.4c.5-.9,1.2-1.6,2.1-2.1s2-.7,3.2-.7,2.2.2,3.1.7c.8.5,1.5,1.2,1.9,2,.4.8.7,1.8.7,2.9s0,.6,0,.9c0,.3,0,.5,0,.8h-9.6v-2.3h8.1l-1.6.6c0-1-.2-1.8-.7-2.3s-1.1-.8-1.9-.8-1.1.1-1.6.4c-.4.3-.8.7-1,1.3-.2.6-.3,1.3-.3,2.1s.1,1.5.4,2.1c.2.6.6,1,1.1,1.2.5.3,1,.4,1.6.4s1.3-.1,1.7-.4c.4-.3.8-.6,1-1.1l2.6,1c-.3.6-.6,1.2-1.2,1.6-.5.4-1.1.8-1.8,1s-1.5.3-2.3.3Z"/>
      <path class="st1" d="M314.4,624.7c1.2,0,2.3.2,3.2.7.9.5,1.6,1.2,2.2,2.1.5.9.8,2,.8,3.4s-.3,2.4-.8,3.3c-.5.9-1.2,1.7-2.2,2.1-.9.5-2,.7-3.2.7s-2.3-.2-3.2-.7-1.7-1.2-2.2-2.1c-.5-.9-.8-2.1-.8-3.3s.3-2.4.8-3.4c.5-.9,1.2-1.6,2.2-2.1s2-.7,3.2-.7ZM314.4,627.2c-.6,0-1.1.1-1.5.4-.4.3-.7.7-1,1.3-.2.6-.3,1.3-.3,2.1s.1,1.6.3,2.1c.2.6.5,1,1,1.3.4.3.9.4,1.5.4s1.1-.1,1.5-.4.7-.7,1-1.3c.2-.6.3-1.3.3-2.1s-.1-1.6-.3-2.1c-.2-.6-.5-1-1-1.3s-.9-.4-1.5-.4Z"/>
      <path class="st1" d="M332.9,637.2c-.8,0-1.5-.1-2.2-.4-.6-.3-1.1-.7-1.5-1.4s-.6-1.5-.6-2.5v-8h3.3v7.2c0,.9.2,1.6.6,1.9.4.4.9.5,1.7.5s.7,0,1-.2c.3-.1.6-.3.9-.6.2-.3.4-.6.6-1,.1-.4.2-.9.2-1.5v-6.5h3.3v12h-2.9v-2.1c-.5.8-1.1,1.4-1.8,1.8s-1.5.6-2.5.6Z"/>
      <path class="st1" d="M347.4,637.2c-1.2,0-2.3-.2-3.3-.6s-1.8-1-2.4-1.8l1.9-1.9c.4.6.9,1,1.5,1.4.6.4,1.4.6,2.3.6s1.1,0,1.5-.3c.4-.2.6-.5.6-.9s0-.5-.3-.7c-.2-.2-.5-.3-1.1-.4l-2.1-.4c-1.4-.3-2.4-.7-3-1.3-.6-.6-.9-1.3-.9-2.3s.2-1.3.6-1.8c.4-.6,1-1,1.8-1.4s1.8-.5,2.9-.5,2.2.2,3.1.6c.9.4,1.6.9,2.1,1.7l-2,1.9c-.4-.6-.8-1-1.4-1.3-.6-.3-1.2-.4-1.8-.4s-.8,0-1.2.1c-.3,0-.6.2-.7.4-.2.2-.2.4-.2.6s.1.5.3.7c.2.2.6.3,1.2.5l2.4.5c1.2.2,2,.6,2.5,1.2.5.6.8,1.3.8,2.1s-.2,1.5-.6,2.1c-.4.6-1,1.1-1.8,1.4s-1.8.5-2.9.5Z"/>
      <path class="st1" d="M358.5,637.2c-.8,0-1.5-.1-2.2-.4-.6-.3-1.1-.7-1.5-1.4s-.6-1.5-.6-2.5v-8h3.3v7.2c0,.9.2,1.6.6,1.9.4.4.9.5,1.7.5s.7,0,1-.2c.3-.1.6-.3.9-.6.2-.3.4-.6.6-1,.1-.4.2-.9.2-1.5v-6.5h3.3v12h-2.9v-2.1c-.5.8-1.1,1.4-1.8,1.8s-1.5.6-2.5.6Z"/>
      <path class="st1" d="M375.1,629.3c0-.7-.2-1.2-.6-1.6-.4-.4-.9-.6-1.5-.6s-1.1.2-1.6.5c-.4.3-.8.8-1,1.5l-2.8-.9c.3-1.1.9-1.9,1.8-2.5.9-.6,2.2-1,3.7-1s2,.2,2.8.5,1.4.8,1.8,1.5c.4.7.7,1.5.7,2.5v4.9c0,.6.3.9.9.9s.5,0,.8-.1l-.2,2c-.4.2-.9.3-1.6.3s-1.1,0-1.5-.3c-.4-.2-.8-.5-1.1-.9-.3-.4-.4-.9-.4-1.5h0c0,0,.6-.2.6-.2,0,.6-.4,1.1-.8,1.5s-1,.7-1.6,1c-.6.2-1.3.3-1.9.3s-1.5-.1-2.1-.4c-.6-.2-1-.6-1.4-1.1-.3-.5-.5-1.1-.5-1.8s.3-1.6.9-2.2c.6-.6,1.4-1,2.5-1.2l4.5-.9v2s-2.9.6-2.9.6c-.5.1-1,.3-1.2.4-.3.2-.4.5-.4.9s.1.7.4.9.7.3,1.1.3.7,0,1-.1.6-.2.9-.4c.3-.2.5-.4.6-.7.1-.3.2-.7.2-1.1v-3.2ZM373.2,619.2h3.2l-2.4,4.1h-2.4l1.7-4.1Z"/>
      <path class="st1" d="M381.1,637v-12h2.9l.2,2.4c.3-.8.8-1.5,1.4-1.9.6-.4,1.4-.7,2.3-.7s.5,0,.7,0c.2,0,.4.1.6.2l-.4,2.8c-.2,0-.4-.1-.6-.1-.2,0-.5,0-.9,0s-.9.1-1.4.3c-.4.2-.8.6-1.1,1.1s-.4,1.1-.4,1.8v6.2h-3.3Z"/>
      <path class="st1" d="M391.9,623.2c-.7,0-1.2-.1-1.5-.4s-.5-.7-.5-1.3.2-1,.5-1.3c.3-.3.8-.4,1.5-.4s1.2.1,1.5.4c.3.3.5.7.5,1.3s-.2,1-.5,1.3-.8.4-1.5.4ZM393.5,625v12h-3.3v-12h3.3Z"/>
      <path class="st1" d="M401.5,624.7c1.2,0,2.3.2,3.2.7.9.5,1.6,1.2,2.2,2.1.5.9.8,2,.8,3.4s-.3,2.4-.8,3.3c-.5.9-1.2,1.7-2.2,2.1-.9.5-2,.7-3.2.7s-2.3-.2-3.2-.7-1.7-1.2-2.2-2.1c-.5-.9-.8-2.1-.8-3.3s.3-2.4.8-3.4c.5-.9,1.2-1.6,2.2-2.1s2-.7,3.2-.7ZM401.5,627.2c-.6,0-1.1.1-1.5.4-.4.3-.7.7-1,1.3-.2.6-.3,1.3-.3,2.1s.1,1.6.3,2.1c.2.6.5,1,1,1.3.4.3.9.4,1.5.4s1.1-.1,1.5-.4.7-.7,1-1.3c.2-.6.3-1.3.3-2.1s-.1-1.6-.3-2.1c-.2-.6-.5-1-1-1.3s-.9-.4-1.5-.4Z"/>
      <path class="st1" d="M423.6,625v2.4h-9v-2.4h9ZM421.2,619.5c.6,0,1.1,0,1.5.2.5.1.8.3,1,.4l-.5,2.2c-.2-.1-.4-.2-.6-.3-.2,0-.5,0-.8,0-.6,0-1.1.1-1.5.4s-.6.8-.6,1.4v2.3c.1,0,.1,10.9.1,10.9h-3.3v-13.4c0-.7.1-1.3.3-1.8.2-.5.5-.9.9-1.3.4-.3.9-.6,1.4-.8s1.1-.3,1.8-.3ZM427.3,623.2c-.7,0-1.2-.1-1.5-.4s-.5-.7-.5-1.3.2-1,.5-1.3c.3-.3.8-.4,1.5-.4s1.2.1,1.5.4c.3.3.5.7.5,1.3s-.2,1-.5,1.3c-.3.3-.8.4-1.5.4ZM428.9,625v12h-3.3v-12h3.3Z"/>
      <path class="st1" d="M431.4,637v-12h3l.2,3.6-.4-.4c.2-.8.5-1.4.9-1.9.4-.5.9-.9,1.5-1.1.6-.2,1.3-.4,2-.4s1.6.2,2.2.5c.6.3,1.2.8,1.5,1.5.4.6.6,1.5.6,2.4v7.9h-3.3v-6.9c0-1-.2-1.7-.6-2.1-.4-.4-.9-.6-1.6-.6s-.9.1-1.3.3c-.4.2-.8.6-1,1-.3.5-.4,1.1-.4,1.9v6.4h-3.3Z"/>
      <path class="st1" d="M452.1,629.3c0-.7-.2-1.2-.6-1.6-.4-.4-.9-.6-1.5-.6s-1.1.2-1.6.5c-.4.3-.8.8-1,1.5l-2.8-.9c.3-1.1.9-1.9,1.8-2.5.9-.6,2.2-1,3.7-1s2,.2,2.8.5,1.4.8,1.8,1.5c.4.7.7,1.5.7,2.5v4.9c0,.6.3.9.9.9s.5,0,.8-.1l-.2,2c-.4.2-.9.3-1.6.3s-1.1,0-1.5-.3c-.4-.2-.8-.5-1.1-.9-.3-.4-.4-.9-.4-1.5h0c0,0,.6-.2.6-.2,0,.6-.4,1.1-.8,1.5s-1,.7-1.6,1c-.6.2-1.3.3-1.9.3s-1.5-.1-2.1-.4c-.6-.2-1-.6-1.4-1.1-.3-.5-.5-1.1-.5-1.8s.3-1.6.9-2.2c.6-.6,1.4-1,2.5-1.2l4.5-.9v2s-2.9.6-2.9.6c-.5.1-1,.3-1.2.4-.3.2-.4.5-.4.9s.1.7.4.9.7.3,1.1.3.7,0,1-.1.6-.2.9-.4c.3-.2.5-.4.6-.7.1-.3.2-.7.2-1.1v-3.2Z"/>
      <path class="st1" d="M461.4,619.7v13.6c0,.6,0,1,.3,1.2.2.2.5.3,1,.3s.5,0,.7,0,.4,0,.7-.2l-.3,2.2c-.3.2-.6.3-1,.4s-.8.1-1.2.1c-1.2,0-2-.3-2.6-.9-.5-.6-.8-1.5-.8-2.7v-13.9h3.3Z"/>
      <path class="st1" d="M33.4,658.1c0-.7-.2-1.2-.6-1.6-.4-.4-.9-.6-1.5-.6s-1.1.2-1.6.5c-.4.3-.8.8-1,1.5l-2.8-.9c.3-1.1.9-1.9,1.8-2.5.9-.6,2.2-1,3.7-1s2,.2,2.8.5c.8.3,1.4.8,1.8,1.5s.7,1.5.7,2.5v4.9c0,.6.3.9.9.9s.5,0,.8-.1l-.2,2c-.4.2-.9.3-1.6.3s-1.1,0-1.5-.3c-.4-.2-.8-.5-1.1-.9-.3-.4-.4-.9-.4-1.5h0c0,0,.6-.2.6-.2,0,.6-.4,1.1-.8,1.5s-1,.7-1.6,1-1.3.3-1.9.3-1.5-.1-2.1-.4-1-.6-1.4-1.1c-.3-.5-.5-1.1-.5-1.8s.3-1.6.9-2.2c.6-.6,1.4-1,2.5-1.2l4.5-.9v2s-2.9.6-2.9.6c-.5.1-1,.3-1.2.4-.3.2-.4.5-.4.9s.1.7.4.9.7.3,1.1.3.7,0,1-.1.6-.2.9-.4c.3-.2.5-.4.6-.7.1-.3.2-.7.2-1.1v-3.2Z"/>
      <path class="st1" d="M47.4,653.8v2.4h-9.3v-2.4h9.3ZM43.6,650.1v11.8c0,.6.1,1,.4,1.3.3.3.7.4,1.2.4s.8,0,1.1-.2c.3-.1.6-.3.8-.5l.5,2.2c-.4.3-.9.5-1.4.7s-1.2.3-1.8.3-1.5-.1-2.1-.4c-.6-.2-1.1-.6-1.4-1.2-.3-.5-.5-1.2-.5-2.1v-11.4l3.3-.9Z"/>
      <path class="st1" d="M54.3,666c-1.3,0-2.4-.2-3.3-.7-.9-.5-1.7-1.2-2.2-2.1-.5-.9-.8-2-.8-3.4s.3-2.4.8-3.4c.5-.9,1.2-1.6,2.1-2.1.9-.5,2-.7,3.2-.7s2.2.2,3.1.7c.8.5,1.5,1.2,1.9,2s.7,1.8.7,2.9,0,.6,0,.9c0,.3,0,.5,0,.8h-9.6v-2.3h8.1l-1.6.6c0-1-.2-1.8-.7-2.3s-1.1-.8-1.9-.8-1.1.1-1.6.4c-.4.3-.8.7-1,1.3-.2.6-.3,1.3-.3,2.1s.1,1.5.4,2.1.6,1,1.1,1.2c.5.3,1,.4,1.6.4s1.3-.1,1.7-.4c.4-.3.8-.6,1-1.1l2.6,1c-.3.6-.6,1.2-1.2,1.6-.5.4-1.1.8-1.8,1-.7.2-1.5.3-2.3.3ZM54.1,648h3.2l-2.4,4.1h-2.4l1.7-4.1Z"/>
      <path class="st1" d="M73.5,653.5c1.2,0,2.3.2,3.2.7.9.5,1.6,1.2,2.2,2.1.5.9.8,2,.8,3.4s-.3,2.4-.8,3.3c-.5.9-1.2,1.7-2.2,2.1-.9.5-2,.7-3.2.7s-2.3-.2-3.2-.7c-.9-.5-1.7-1.2-2.2-2.1-.5-.9-.8-2.1-.8-3.3s.3-2.4.8-3.4c.5-.9,1.2-1.6,2.2-2.1.9-.5,2-.7,3.2-.7ZM73.5,656c-.6,0-1.1.1-1.5.4-.4.3-.7.7-1,1.3-.2.6-.3,1.3-.3,2.1s.1,1.6.3,2.1c.2.6.5,1,1,1.3.4.3.9.4,1.5.4s1.1-.1,1.5-.4c.4-.3.7-.7,1-1.3.2-.6.3-1.3.3-2.1s-.1-1.6-.3-2.1c-.2-.6-.5-1-1-1.3-.4-.3-.9-.4-1.5-.4Z"/>
      <path class="st1" d="M86.2,666c-1.2,0-2.3-.2-3.3-.6-1-.4-1.8-1-2.4-1.8l1.9-1.9c.4.6.9,1,1.5,1.4.6.4,1.4.6,2.3.6s1.1,0,1.5-.3c.4-.2.6-.5.6-.9s0-.5-.3-.7c-.2-.2-.5-.3-1.1-.4l-2.1-.4c-1.4-.3-2.4-.7-3-1.3-.6-.6-.9-1.3-.9-2.3s.2-1.3.6-1.8c.4-.6,1-1,1.8-1.4.8-.4,1.8-.5,2.9-.5s2.2.2,3.1.6c.9.4,1.6.9,2.1,1.7l-2,1.9c-.4-.6-.8-1-1.4-1.3-.6-.3-1.2-.4-1.8-.4s-.8,0-1.2.1c-.3,0-.6.2-.7.4-.2.2-.2.4-.2.6s.1.5.3.7c.2.2.6.3,1.2.5l2.4.5c1.2.2,2,.6,2.5,1.2.5.6.8,1.3.8,2.1s-.2,1.5-.6,2.1c-.4.6-1,1.1-1.8,1.4-.8.3-1.8.5-2.9.5Z"/>
      <path class="st1" d="M106.7,663.5c1.3,0,2.3.3,3,.8.7.6,1.1,1.3,1.1,2.4s-.3,1.7-.8,2.3-1.3,1.1-2.2,1.4c-1,.3-2.1.5-3.3.5-2.1,0-3.6-.3-4.5-.9-1-.6-1.4-1.3-1.4-2.3s.3-1.2.8-1.7c.5-.4,1.3-.7,2.5-.7v.4c-1-.1-1.6-.4-2-.8s-.7-1-.7-1.7.3-1.3.9-1.8c.6-.5,1.3-.7,2.3-.8l1.4.7h-.3c-.7,0-1.2.2-1.5.4-.3.2-.4.5-.4.8s.1.6.4.8c.3.2.6.3,1.1.3h3.7ZM104.5,653.5c1.1,0,2.1.2,2.9.5.8.3,1.5.8,1.9,1.4.4.6.7,1.3.7,2.2s-.2,1.6-.7,2.2c-.4.6-1.1,1.1-1.9,1.4-.8.3-1.8.5-2.9.5-1.8,0-3.1-.4-4.1-1.1-.9-.7-1.4-1.7-1.4-3s.2-1.6.7-2.2c.4-.6,1.1-1.1,1.9-1.4.8-.3,1.8-.5,2.9-.5ZM104.5,668.7c.8,0,1.5,0,2.1-.2.5-.1.9-.3,1.2-.6.3-.2.4-.5.4-.7s-.1-.5-.4-.7-.7-.3-1.3-.3h-4.1c-.4,0-.7,0-.9.3-.2.2-.4.5-.4.8s.3.8.9,1.1c.6.3,1.4.4,2.5.4ZM104.5,655.6c-.6,0-1.2.2-1.6.5-.4.4-.6.8-.6,1.5s.2,1.1.6,1.5c.4.4.9.5,1.6.5s1.2-.2,1.6-.5c.4-.4.6-.9.6-1.5s-.2-1.1-.6-1.5-.9-.5-1.6-.5ZM110.7,650.9l.4,2.4c0,0-.1,0-.2,0,0,0-.1,0-.2,0-.7,0-1.3.2-1.7.5-.4.3-.6.8-.6,1.4l-1.3-.6c0-.6.1-1.2.4-1.8s.6-1,1.1-1.3,1.1-.5,1.8-.5h.3Z"/>
      <path class="st1" d="M117.4,666c-1.3,0-2.4-.2-3.3-.7-.9-.5-1.7-1.2-2.2-2.1-.5-.9-.8-2-.8-3.4s.3-2.4.8-3.4c.5-.9,1.2-1.6,2.1-2.1.9-.5,2-.7,3.2-.7s2.2.2,3.1.7c.8.5,1.5,1.2,1.9,2s.7,1.8.7,2.9,0,.6,0,.9c0,.3,0,.5,0,.8h-9.6v-2.3h8.1l-1.6.6c0-1-.2-1.8-.7-2.3s-1.1-.8-1.9-.8-1.1.1-1.6.4c-.4.3-.8.7-1,1.3-.2.6-.3,1.3-.3,2.1s.1,1.5.4,2.1.6,1,1.1,1.2c.5.3,1,.4,1.6.4s1.3-.1,1.7-.4c.4-.3.8-.6,1-1.1l2.6,1c-.3.6-.6,1.2-1.2,1.6-.5.4-1.1.8-1.8,1-.7.2-1.5.3-2.3.3Z"/>
      <path class="st1" d="M129.5,666c-1.2,0-2.3-.2-3.3-.6-1-.4-1.8-1-2.4-1.8l1.9-1.9c.4.6.9,1,1.5,1.4.6.4,1.4.6,2.3.6s1.1,0,1.5-.3c.4-.2.6-.5.6-.9s0-.5-.3-.7c-.2-.2-.5-.3-1.1-.4l-2.1-.4c-1.4-.3-2.4-.7-3-1.3-.6-.6-.9-1.3-.9-2.3s.2-1.3.6-1.8c.4-.6,1-1,1.8-1.4.8-.4,1.8-.5,2.9-.5s2.2.2,3.1.6c.9.4,1.6.9,2.1,1.7l-2,1.9c-.4-.6-.8-1-1.4-1.3-.6-.3-1.2-.4-1.8-.4s-.8,0-1.2.1c-.3,0-.6.2-.7.4-.2.2-.2.4-.2.6s.1.5.3.7c.2.2.6.3,1.2.5l2.4.5c1.2.2,2,.6,2.5,1.2.5.6.8,1.3.8,2.1s-.2,1.5-.6,2.1c-.4.6-1,1.1-1.8,1.4-.8.3-1.8.5-2.9.5Z"/>
      <path class="st1" d="M144.6,653.8v2.4h-9.3v-2.4h9.3ZM140.8,650.1v11.8c0,.6.1,1,.4,1.3.3.3.7.4,1.2.4s.8,0,1.1-.2c.3-.1.6-.3.8-.5l.5,2.2c-.4.3-.9.5-1.4.7s-1.2.3-1.8.3-1.5-.1-2.1-.4c-.6-.2-1.1-.6-1.4-1.2-.3-.5-.5-1.2-.5-2.1v-11.4l3.3-.9Z"/>
      <path class="st1" d="M151.4,653.5c1.2,0,2.3.2,3.2.7.9.5,1.6,1.2,2.2,2.1.5.9.8,2,.8,3.4s-.3,2.4-.8,3.3c-.5.9-1.2,1.7-2.2,2.1-.9.5-2,.7-3.2.7s-2.3-.2-3.2-.7c-.9-.5-1.7-1.2-2.2-2.1-.5-.9-.8-2.1-.8-3.3s.3-2.4.8-3.4c.5-.9,1.2-1.6,2.2-2.1.9-.5,2-.7,3.2-.7ZM151.4,656c-.6,0-1.1.1-1.5.4-.4.3-.7.7-1,1.3-.2.6-.3,1.3-.3,2.1s.1,1.6.3,2.1c.2.6.5,1,1,1.3.4.3.9.4,1.5.4s1.1-.1,1.5-.4c.4-.3.7-.7,1-1.3.2-.6.3-1.3.3-2.1s-.1-1.6-.3-2.1c-.2-.6-.5-1-1-1.3-.4-.3-.9-.4-1.5-.4Z"/>
      <path class="st1" d="M159.3,665.8v-12h2.9l.2,2.4c.3-.8.8-1.5,1.4-1.9.6-.4,1.4-.7,2.3-.7s.5,0,.7,0c.2,0,.4.1.6.2l-.4,2.8c-.2,0-.4-.1-.6-.1-.2,0-.5,0-.9,0s-.9.1-1.4.3-.8.6-1.1,1.1c-.3.5-.4,1.1-.4,1.8v6.2h-3.3Z"/>
      <path class="st1" d="M174,666c-1.3,0-2.4-.2-3.3-.7-.9-.5-1.7-1.2-2.2-2.1-.5-.9-.8-2-.8-3.4s.3-2.4.8-3.4c.5-.9,1.2-1.6,2.1-2.1.9-.5,2-.7,3.2-.7s2.2.2,3.1.7c.8.5,1.5,1.2,1.9,2s.7,1.8.7,2.9,0,.6,0,.9c0,.3,0,.5,0,.8h-9.6v-2.3h8.1l-1.6.6c0-1-.2-1.8-.7-2.3s-1.1-.8-1.9-.8-1.1.1-1.6.4c-.4.3-.8.7-1,1.3-.2.6-.3,1.3-.3,2.1s.1,1.5.4,2.1.6,1,1.1,1.2c.5.3,1,.4,1.6.4s1.3-.1,1.7-.4c.4-.3.8-.6,1-1.1l2.6,1c-.3.6-.6,1.2-1.2,1.6-.5.4-1.1.8-1.8,1-.7.2-1.5.3-2.3.3Z"/>
      <path class="st1" d="M186.2,666c-1.2,0-2.3-.2-3.3-.6-1-.4-1.8-1-2.4-1.8l1.9-1.9c.4.6.9,1,1.5,1.4.6.4,1.4.6,2.3.6s1.1,0,1.5-.3c.4-.2.6-.5.6-.9s0-.5-.3-.7c-.2-.2-.5-.3-1.1-.4l-2.1-.4c-1.4-.3-2.4-.7-3-1.3-.6-.6-.9-1.3-.9-2.3s.2-1.3.6-1.8c.4-.6,1-1,1.8-1.4.8-.4,1.8-.5,2.9-.5s2.2.2,3.1.6c.9.4,1.6.9,2.1,1.7l-2,1.9c-.4-.6-.8-1-1.4-1.3-.6-.3-1.2-.4-1.8-.4s-.8,0-1.2.1c-.3,0-.6.2-.7.4-.2.2-.2.4-.2.6s.1.5.3.7c.2.2.6.3,1.2.5l2.4.5c1.2.2,2,.6,2.5,1.2.5.6.8,1.3.8,2.1s-.2,1.5-.6,2.1c-.4.6-1,1.1-1.8,1.4-.8.3-1.8.5-2.9.5Z"/>
      <path class="st1" d="M207.7,653.8v2.4h-9.3v-2.4h9.3ZM203.8,650.1v11.8c0,.6.1,1,.4,1.3.3.3.7.4,1.2.4s.8,0,1.1-.2c.3-.1.6-.3.8-.5l.5,2.2c-.4.3-.9.5-1.4.7s-1.2.3-1.8.3-1.5-.1-2.1-.4c-.6-.2-1.1-.6-1.4-1.2-.3-.5-.5-1.2-.5-2.1v-11.4l3.3-.9Z"/>
      <path class="st1" d="M214.5,666c-1.3,0-2.4-.2-3.3-.7-.9-.5-1.7-1.2-2.2-2.1-.5-.9-.8-2-.8-3.4s.3-2.4.8-3.4c.5-.9,1.2-1.6,2.1-2.1.9-.5,2-.7,3.2-.7s2.2.2,3.1.7c.8.5,1.5,1.2,1.9,2s.7,1.8.7,2.9,0,.6,0,.9c0,.3,0,.5,0,.8h-9.6v-2.3h8.1l-1.6.6c0-1-.2-1.8-.7-2.3s-1.1-.8-1.9-.8-1.1.1-1.6.4c-.4.3-.8.7-1,1.3-.2.6-.3,1.3-.3,2.1s.1,1.5.4,2.1.6,1,1.1,1.2c.5.3,1,.4,1.6.4s1.3-.1,1.7-.4c.4-.3.8-.6,1-1.1l2.6,1c-.3.6-.6,1.2-1.2,1.6-.5.4-1.1.8-1.8,1-.7.2-1.5.3-2.3.3ZM214.3,648h3.2l-2.4,4.1h-2.4l1.7-4.1Z"/>
      <path class="st1" d="M227.3,653.5c1.1,0,2,.2,2.7.5.7.3,1.3.7,1.8,1.3.5.5.8,1.1,1,1.8l-3.1,1.1c-.2-.7-.4-1.3-.8-1.6-.4-.4-.9-.6-1.6-.6s-1.1.1-1.6.4c-.4.3-.8.7-1,1.3-.2.6-.3,1.3-.3,2.1s.1,1.6.3,2.1c.2.6.6,1,1,1.2.4.3,1,.4,1.5.4s.9,0,1.2-.3.6-.4.8-.7.4-.7.4-1.2l3,1c-.2.7-.5,1.4-1,1.9-.5.5-1.1,1-1.8,1.3s-1.6.5-2.6.5-2.3-.2-3.3-.7c-.9-.5-1.7-1.2-2.2-2.1-.5-.9-.8-2-.8-3.4s.3-2.4.8-3.4c.5-.9,1.2-1.6,2.2-2.1.9-.5,2-.7,3.2-.7Z"/>
      <path class="st1" d="M234.4,665.8v-12h3l.2,3.6-.4-.4c.2-.8.5-1.4.9-1.9s.9-.9,1.5-1.1c.6-.2,1.3-.4,2-.4s1.6.2,2.2.5c.6.3,1.2.8,1.5,1.5.4.6.6,1.5.6,2.4v7.9h-3.3v-6.9c0-1-.2-1.7-.6-2.1-.4-.4-.9-.6-1.6-.6s-.9.1-1.3.3c-.4.2-.8.6-1,1-.3.5-.4,1.1-.4,1.9v6.4h-3.3Z"/>
      <path class="st1" d="M250,652c-.7,0-1.2-.1-1.5-.4s-.5-.7-.5-1.3.2-1,.5-1.3.8-.4,1.5-.4,1.2.1,1.5.4.5.7.5,1.3-.2,1-.5,1.3-.8.4-1.5.4ZM251.6,653.8v12h-3.3v-12h3.3Z"/>
      <path class="st1" d="M259.6,653.5c1.1,0,2,.2,2.7.5.7.3,1.3.7,1.8,1.3.5.5.8,1.1,1,1.8l-3.1,1.1c-.2-.7-.4-1.3-.8-1.6-.4-.4-.9-.6-1.6-.6s-1.1.1-1.6.4c-.4.3-.8.7-1,1.3-.2.6-.3,1.3-.3,2.1s.1,1.6.3,2.1c.2.6.6,1,1,1.2.4.3,1,.4,1.5.4s.9,0,1.2-.3.6-.4.8-.7.4-.7.4-1.2l3,1c-.2.7-.5,1.4-1,1.9-.5.5-1.1,1-1.8,1.3s-1.6.5-2.6.5-2.3-.2-3.3-.7c-.9-.5-1.7-1.2-2.2-2.1-.5-.9-.8-2-.8-3.4s.3-2.4.8-3.4c.5-.9,1.2-1.6,2.2-2.1.9-.5,2-.7,3.2-.7Z"/>
      <path class="st1" d="M272.2,653.5c1.2,0,2.3.2,3.2.7.9.5,1.6,1.2,2.2,2.1.5.9.8,2,.8,3.4s-.3,2.4-.8,3.3c-.5.9-1.2,1.7-2.2,2.1-.9.5-2,.7-3.2.7s-2.3-.2-3.2-.7c-.9-.5-1.7-1.2-2.2-2.1-.5-.9-.8-2.1-.8-3.3s.3-2.4.8-3.4c.5-.9,1.2-1.6,2.2-2.1.9-.5,2-.7,3.2-.7ZM272.2,656c-.6,0-1.1.1-1.5.4-.4.3-.7.7-1,1.3-.2.6-.3,1.3-.3,2.1s.1,1.6.3,2.1c.2.6.5,1,1,1.3.4.3.9.4,1.5.4s1.1-.1,1.5-.4c.4-.3.7-.7,1-1.3.2-.6.3-1.3.3-2.1s-.1-1.6-.3-2.1c-.2-.6-.5-1-1-1.3-.4-.3-.9-.4-1.5-.4Z"/>
      <path class="st1" d="M284.9,666c-1.2,0-2.3-.2-3.3-.6-1-.4-1.8-1-2.4-1.8l1.9-1.9c.4.6.9,1,1.5,1.4.6.4,1.4.6,2.3.6s1.1,0,1.5-.3c.4-.2.6-.5.6-.9s0-.5-.3-.7c-.2-.2-.5-.3-1.1-.4l-2.1-.4c-1.4-.3-2.4-.7-3-1.3-.6-.6-.9-1.3-.9-2.3s.2-1.3.6-1.8c.4-.6,1-1,1.8-1.4.8-.4,1.8-.5,2.9-.5s2.2.2,3.1.6c.9.4,1.6.9,2.1,1.7l-2,1.9c-.4-.6-.8-1-1.4-1.3-.6-.3-1.2-.4-1.8-.4s-.8,0-1.2.1c-.3,0-.6.2-.7.4-.2.2-.2.4-.2.6s.1.5.3.7c.2.2.6.3,1.2.5l2.4.5c1.2.2,2,.6,2.5,1.2.5.6.8,1.3.8,2.1s-.2,1.5-.6,2.1c-.4.6-1,1.1-1.8,1.4-.8.3-1.8.5-2.9.5Z"/>
      <path class="st1" d="M303.8,666c-1.3,0-2.4-.2-3.3-.7-.9-.5-1.7-1.2-2.2-2.1-.5-.9-.8-2-.8-3.4s.3-2.4.8-3.4c.5-.9,1.2-1.6,2.1-2.1.9-.5,2-.7,3.2-.7s2.2.2,3.1.7c.8.5,1.5,1.2,1.9,2s.7,1.8.7,2.9,0,.6,0,.9c0,.3,0,.5,0,.8h-9.6v-2.3h8.1l-1.6.6c0-1-.2-1.8-.7-2.3s-1.1-.8-1.9-.8-1.1.1-1.6.4c-.4.3-.8.7-1,1.3-.2.6-.3,1.3-.3,2.1s.1,1.5.4,2.1.6,1,1.1,1.2c.5.3,1,.4,1.6.4s1.3-.1,1.7-.4c.4-.3.8-.6,1-1.1l2.6,1c-.3.6-.6,1.2-1.2,1.6-.5.4-1.1.8-1.8,1-.7.2-1.5.3-2.3.3Z"/>
      <path class="st1" d="M324.4,658.1c0-.7-.2-1.2-.6-1.6-.4-.4-.9-.6-1.5-.6s-1.1.2-1.6.5c-.4.3-.8.8-1,1.5l-2.8-.9c.3-1.1.9-1.9,1.8-2.5.9-.6,2.2-1,3.7-1s2,.2,2.8.5c.8.3,1.4.8,1.8,1.5s.7,1.5.7,2.5v4.9c0,.6.3.9.9.9s.5,0,.8-.1l-.2,2c-.4.2-.9.3-1.6.3s-1.1,0-1.5-.3c-.4-.2-.8-.5-1.1-.9-.3-.4-.4-.9-.4-1.5h0c0,0,.6-.2.6-.2,0,.6-.4,1.1-.8,1.5s-1,.7-1.6,1-1.3.3-1.9.3-1.5-.1-2.1-.4-1-.6-1.4-1.1c-.3-.5-.5-1.1-.5-1.8s.3-1.6.9-2.2c.6-.6,1.4-1,2.5-1.2l4.5-.9v2s-2.9.6-2.9.6c-.5.1-1,.3-1.2.4-.3.2-.4.5-.4.9s.1.7.4.9.7.3,1.1.3.7,0,1-.1.6-.2.9-.4c.3-.2.5-.4.6-.7.1-.3.2-.7.2-1.1v-3.2Z"/>
      <path class="st1" d="M335,666c-1,0-1.9-.2-2.7-.7-.8-.5-1.4-1.2-1.8-2.1-.4-.9-.7-2-.7-3.3s.2-2.5.7-3.4c.5-.9,1.1-1.6,1.9-2.1s1.7-.7,2.7-.7,1.9.3,2.6.9c.7.6,1.1,1.4,1.3,2.4l-.3.4v-8.7h3.3v17.3h-3l-.2-3.6.4.2c-.1.8-.4,1.4-.8,2-.4.6-.9,1-1.5,1.3-.6.3-1.3.5-2,.5ZM335.9,663.5c.6,0,1.1-.1,1.5-.4s.7-.7,1-1.3c.2-.6.3-1.3.3-2.1s-.1-1.4-.3-2c-.2-.5-.5-.9-1-1.2-.4-.3-.9-.4-1.5-.4-.9,0-1.6.3-2.1.9s-.8,1.6-.8,2.8.2,2.1.7,2.8c.5.6,1.2.9,2.1.9Z"/>
      <path class="st1" d="M344.5,665.8v-12h3v2.2c.5-.8,1.1-1.4,1.8-1.8.7-.4,1.5-.6,2.3-.6s1.6.2,2.3.6c.7.4,1.2,1,1.6,1.8.3-.5.6-1,1-1.3s.9-.6,1.4-.8c.5-.2,1.1-.3,1.6-.3.8,0,1.5.2,2.1.5.6.3,1.2.8,1.5,1.4.4.6.6,1.5.6,2.4v7.9h-3.3v-7.2c0-.9-.2-1.5-.6-1.9s-.9-.6-1.5-.6-.9.1-1.3.4c-.4.2-.7.6-1,1.1-.2.5-.3,1.1-.3,1.8v6.5h-3.3v-7.2c0-.9-.2-1.5-.6-1.9-.4-.4-.9-.6-1.5-.6s-.8.1-1.2.3-.7.6-1,1.1c-.3.5-.4,1.1-.4,1.9v6.4h-3.3Z"/>
      <path class="st1" d="M367.9,652c-.7,0-1.2-.1-1.5-.4s-.5-.7-.5-1.3.2-1,.5-1.3.8-.4,1.5-.4,1.2.1,1.5.4.5.7.5,1.3-.2,1-.5,1.3-.8.4-1.5.4ZM369.5,653.8v12h-3.3v-12h3.3Z"/>
      <path class="st1" d="M372,665.8v-12h3l.2,3.6-.4-.4c.2-.8.5-1.4.9-1.9s.9-.9,1.5-1.1c.6-.2,1.3-.4,2-.4s1.6.2,2.2.5c.6.3,1.2.8,1.5,1.5.4.6.6,1.5.6,2.4v7.9h-3.3v-6.9c0-1-.2-1.7-.6-2.1-.4-.4-.9-.6-1.6-.6s-.9.1-1.3.3c-.4.2-.8.6-1,1-.3.5-.4,1.1-.4,1.9v6.4h-3.3Z"/>
      <path class="st1" d="M387.6,652c-.7,0-1.2-.1-1.5-.4s-.5-.7-.5-1.3.2-1,.5-1.3.8-.4,1.5-.4,1.2.1,1.5.4.5.7.5,1.3-.2,1-.5,1.3-.8.4-1.5.4ZM389.2,653.8v12h-3.3v-12h3.3Z"/>
      <path class="st1" d="M396.5,666c-1.2,0-2.3-.2-3.3-.6-1-.4-1.8-1-2.4-1.8l1.9-1.9c.4.6.9,1,1.5,1.4.6.4,1.4.6,2.3.6s1.1,0,1.5-.3c.4-.2.6-.5.6-.9s0-.5-.3-.7c-.2-.2-.5-.3-1.1-.4l-2.1-.4c-1.4-.3-2.4-.7-3-1.3-.6-.6-.9-1.3-.9-2.3s.2-1.3.6-1.8c.4-.6,1-1,1.8-1.4.8-.4,1.8-.5,2.9-.5s2.2.2,3.1.6c.9.4,1.6.9,2.1,1.7l-2,1.9c-.4-.6-.8-1-1.4-1.3-.6-.3-1.2-.4-1.8-.4s-.8,0-1.2.1c-.3,0-.6.2-.7.4-.2.2-.2.4-.2.6s.1.5.3.7c.2.2.6.3,1.2.5l2.4.5c1.2.2,2,.6,2.5,1.2.5.6.8,1.3.8,2.1s-.2,1.5-.6,2.1c-.4.6-1,1.1-1.8,1.4-.8.3-1.8.5-2.9.5Z"/>
      <path class="st1" d="M411.6,653.8v2.4h-9.3v-2.4h9.3ZM407.8,650.1v11.8c0,.6.1,1,.4,1.3.3.3.7.4,1.2.4s.8,0,1.1-.2c.3-.1.6-.3.8-.5l.5,2.2c-.4.3-.9.5-1.4.7s-1.2.3-1.8.3-1.5-.1-2.1-.4c-.6-.2-1.1-.6-1.4-1.2-.3-.5-.5-1.2-.5-2.1v-11.4l3.3-.9Z"/>
      <path class="st1" d="M412.9,665.8v-12h2.9l.2,2.4c.3-.8.8-1.5,1.4-1.9.6-.4,1.4-.7,2.3-.7s.5,0,.7,0c.2,0,.4.1.6.2l-.4,2.8c-.2,0-.4-.1-.6-.1-.2,0-.5,0-.9,0s-.9.1-1.4.3-.8.6-1.1,1.1c-.3.5-.4,1.1-.4,1.8v6.2h-3.3Z"/>
      <path class="st1" d="M428.9,658.1c0-.7-.2-1.2-.6-1.6-.4-.4-.9-.6-1.5-.6s-1.1.2-1.6.5c-.4.3-.8.8-1,1.5l-2.8-.9c.3-1.1.9-1.9,1.8-2.5.9-.6,2.2-1,3.7-1s2,.2,2.8.5c.8.3,1.4.8,1.8,1.5s.7,1.5.7,2.5v4.9c0,.6.3.9.9.9s.5,0,.8-.1l-.2,2c-.4.2-.9.3-1.6.3s-1.1,0-1.5-.3c-.4-.2-.8-.5-1.1-.9-.3-.4-.4-.9-.4-1.5h0c0,0,.6-.2.6-.2,0,.6-.4,1.1-.8,1.5s-1,.7-1.6,1-1.3.3-1.9.3-1.5-.1-2.1-.4-1-.6-1.4-1.1c-.3-.5-.5-1.1-.5-1.8s.3-1.6.9-2.2c.6-.6,1.4-1,2.5-1.2l4.5-.9v2s-2.9.6-2.9.6c-.5.1-1,.3-1.2.4-.3.2-.4.5-.4.9s.1.7.4.9.7.3,1.1.3.7,0,1-.1.6-.2.9-.4c.3-.2.5-.4.6-.7.1-.3.2-.7.2-1.1v-3.2Z"/>
      <path class="st1" d="M442.9,653.8v2.4h-9.3v-2.4h9.3ZM439.1,650.1v11.8c0,.6.1,1,.4,1.3.3.3.7.4,1.2.4s.8,0,1.1-.2c.3-.1.6-.3.8-.5l.5,2.2c-.4.3-.9.5-1.4.7s-1.2.3-1.8.3-1.5-.1-2.1-.4c-.6-.2-1.1-.6-1.4-1.2-.3-.5-.5-1.2-.5-2.1v-11.4l3.3-.9Z"/>
      <path class="st1" d="M445.9,652c-.7,0-1.2-.1-1.5-.4s-.5-.7-.5-1.3.2-1,.5-1.3.8-.4,1.5-.4,1.2.1,1.5.4.5.7.5,1.3-.2,1-.5,1.3-.8.4-1.5.4ZM447.5,653.8v12h-3.3v-12h3.3Z"/>
      <path class="st1" d="M457.9,653.8h3.4l-4.6,12h-3.8l-4.6-12h3.5l3,9.5,3-9.5Z"/>
      <path class="st1" d="M467.6,653.5c1.2,0,2.3.2,3.2.7.9.5,1.6,1.2,2.2,2.1.5.9.8,2,.8,3.4s-.3,2.4-.8,3.3c-.5.9-1.2,1.7-2.2,2.1-.9.5-2,.7-3.2.7s-2.3-.2-3.2-.7c-.9-.5-1.7-1.2-2.2-2.1-.5-.9-.8-2.1-.8-3.3s.3-2.4.8-3.4c.5-.9,1.2-1.6,2.2-2.1.9-.5,2-.7,3.2-.7ZM467.6,656c-.6,0-1.1.1-1.5.4-.4.3-.7.7-1,1.3-.2.6-.3,1.3-.3,2.1s.1,1.6.3,2.1c.2.6.5,1,1,1.3.4.3.9.4,1.5.4s1.1-.1,1.5-.4c.4-.3.7-.7,1-1.3.2-.6.3-1.3.3-2.1s-.1-1.6-.3-2.1c-.2-.6-.5-1-1-1.3-.4-.3-.9-.4-1.5-.4Z"/>
      <path class="st1" d="M480.4,666c-1.2,0-2.3-.2-3.3-.6-1-.4-1.8-1-2.4-1.8l1.9-1.9c.4.6.9,1,1.5,1.4.6.4,1.4.6,2.3.6s1.1,0,1.5-.3c.4-.2.6-.5.6-.9s0-.5-.3-.7c-.2-.2-.5-.3-1.1-.4l-2.1-.4c-1.4-.3-2.4-.7-3-1.3-.6-.6-.9-1.3-.9-2.3s.2-1.3.6-1.8c.4-.6,1-1,1.8-1.4.8-.4,1.8-.5,2.9-.5s2.2.2,3.1.6c.9.4,1.6.9,2.1,1.7l-2,1.9c-.4-.6-.8-1-1.4-1.3-.6-.3-1.2-.4-1.8-.4s-.8,0-1.2.1c-.3,0-.6.2-.7.4-.2.2-.2.4-.2.6s.1.5.3.7c.2.2.6.3,1.2.5l2.4.5c1.2.2,2,.6,2.5,1.2.5.6.8,1.3.8,2.1s-.2,1.5-.6,2.1c-.4.6-1,1.1-1.8,1.4-.8.3-1.8.5-2.9.5Z"/>
      <path class="st1" d="M26.5,694.6v-12h3v2.2c.5-.8,1.1-1.4,1.8-1.8.7-.4,1.5-.6,2.3-.6s1.6.2,2.3.6c.7.4,1.2,1,1.6,1.8.3-.5.6-1,1-1.3s.9-.6,1.4-.8c.5-.2,1.1-.3,1.6-.3.8,0,1.5.2,2.1.5.6.3,1.2.8,1.5,1.4.4.6.6,1.5.6,2.4v7.9h-3.3v-7.2c0-.9-.2-1.5-.6-1.9s-.9-.6-1.5-.6-.9.1-1.3.4c-.4.2-.7.6-1,1.1-.2.5-.3,1.1-.3,1.8v6.5h-3.3v-7.2c0-.9-.2-1.5-.6-1.9-.4-.4-.9-.6-1.5-.6s-.8.1-1.2.3-.7.6-1,1.1c-.3.5-.4,1.1-.4,1.9v6.4h-3.3Z"/>
      <path class="st1" d="M52.4,694.8c-.8,0-1.5-.1-2.2-.4-.6-.3-1.1-.7-1.5-1.4-.4-.6-.6-1.5-.6-2.5v-8h3.3v7.2c0,.9.2,1.6.6,1.9.4.4.9.5,1.7.5s.7,0,1-.2c.3-.1.6-.3.9-.6s.4-.6.6-1c.1-.4.2-.9.2-1.5v-6.5h3.3v12h-2.9v-2.1c-.5.8-1.1,1.4-1.8,1.8-.7.4-1.5.6-2.5.6Z"/>
      <path class="st1" d="M62.1,694.6v-12h3l.2,3.6-.4-.4c.2-.8.5-1.4.9-1.9s.9-.9,1.5-1.1c.6-.2,1.3-.4,2-.4s1.6.2,2.2.5c.6.3,1.2.8,1.5,1.5.4.6.6,1.5.6,2.4v7.9h-3.3v-6.9c0-1-.2-1.7-.6-2.1-.4-.4-.9-.6-1.6-.6s-.9.1-1.3.3c-.4.2-.8.6-1,1-.3.5-.4,1.1-.4,1.9v6.4h-3.3Z"/>
      <path class="st1" d="M77.7,680.8c-.7,0-1.2-.1-1.5-.4s-.5-.7-.5-1.3.2-1,.5-1.3.8-.4,1.5-.4,1.2.1,1.5.4.5.7.5,1.3-.2,1-.5,1.3-.8.4-1.5.4ZM79.3,682.6v12h-3.3v-12h3.3Z"/>
      <path class="st1" d="M87.3,682.3c1.1,0,2,.2,2.7.5.7.3,1.3.7,1.8,1.3.5.5.8,1.1,1,1.8l-3.1,1.1c-.2-.7-.4-1.3-.8-1.6-.4-.4-.9-.6-1.6-.6s-1.1.1-1.6.4c-.4.3-.8.7-1,1.3-.2.6-.3,1.3-.3,2.1s.1,1.6.3,2.1c.2.6.6,1,1,1.2.4.3,1,.4,1.5.4s.9,0,1.2-.3.6-.4.8-.7.4-.7.4-1.2l3,1c-.2.7-.5,1.4-1,1.9-.5.5-1.1,1-1.8,1.3s-1.6.5-2.6.5-2.3-.2-3.3-.7c-.9-.5-1.7-1.2-2.2-2.1-.5-.9-.8-2-.8-3.4s.3-2.4.8-3.4c.5-.9,1.2-1.6,2.2-2.1.9-.5,2-.7,3.2-.7Z"/>
      <path class="st1" d="M96.1,680.8c-.7,0-1.2-.1-1.5-.4s-.5-.7-.5-1.3.2-1,.5-1.3.8-.4,1.5-.4,1.2.1,1.5.4.5.7.5,1.3-.2,1-.5,1.3-.8.4-1.5.4ZM97.7,682.6v12h-3.3v-12h3.3Z"/>
      <path class="st1" d="M100.2,699.6v-17h3l.2,3.8-.4-.4c.1-.7.4-1.3.8-1.9.4-.5.9-1,1.5-1.3.6-.3,1.3-.5,2-.5s1.8.2,2.6.7c.8.5,1.4,1.2,1.8,2.1.4.9.7,2,.7,3.3s-.2,2.4-.7,3.4c-.4.9-1.1,1.7-1.8,2.1-.8.5-1.7.7-2.7.7s-1.9-.3-2.6-.9-1.2-1.3-1.4-2.2l.3-.5v8.4h-3.3ZM106.3,692.3c.9,0,1.6-.3,2.1-.9s.8-1.6.8-2.8-.2-2.1-.7-2.8c-.5-.6-1.2-.9-2.1-.9s-1.1.1-1.5.4-.8.7-1,1.3-.4,1.2-.4,2,.1,1.4.3,2c.2.6.5,1,1,1.3.4.3.9.4,1.5.4Z"/>
      <path class="st1" d="M121.1,686.9c0-.7-.2-1.2-.6-1.6-.4-.4-.9-.6-1.5-.6s-1.1.2-1.6.5c-.4.3-.8.8-1,1.5l-2.8-.9c.3-1.1.9-1.9,1.8-2.5.9-.6,2.2-1,3.7-1s2,.2,2.8.5c.8.3,1.4.8,1.8,1.5s.7,1.5.7,2.5v4.9c0,.6.3.9.9.9s.5,0,.8-.1l-.2,2c-.4.2-.9.3-1.6.3s-1.1,0-1.5-.3c-.4-.2-.8-.5-1.1-.9-.3-.4-.4-.9-.4-1.5h0c0,0,.6-.2.6-.2,0,.6-.4,1.1-.8,1.5s-1,.7-1.6,1-1.3.3-1.9.3-1.5-.1-2.1-.4-1-.6-1.4-1.1c-.3-.5-.5-1.1-.5-1.8s.3-1.6.9-2.2c.6-.6,1.4-1,2.5-1.2l4.5-.9v2s-2.9.6-2.9.6c-.5.1-1,.3-1.2.4-.3.2-.4.5-.4.9s.1.7.4.9.7.3,1.1.3.7,0,1-.1.6-.2.9-.4c.3-.2.5-.4.6-.7.1-.3.2-.7.2-1.1v-3.2Z"/>
      <path class="st1" d="M130.4,677.3v13.6c0,.6,0,1,.3,1.2.2.2.5.3,1,.3s.5,0,.7,0c.2,0,.4,0,.7-.2l-.3,2.2c-.3.2-.6.3-1,.4s-.8.1-1.2.1c-1.2,0-2-.3-2.6-.9-.5-.6-.8-1.5-.8-2.7v-13.9h3.3Z"/>
      <path class="st1" d="M135.4,690.9c.5,0,.9.1,1.3.4s.6.6.8,1c.2.4.3.9.3,1.4s-.1,1.3-.4,1.9c-.3.6-.6,1.2-1.1,1.6-.5.5-1,.9-1.6,1.1l-1.4-1.1c.4-.2.8-.4,1.2-.6.4-.3.7-.5.9-.9.3-.3.4-.6.6-1h-.1c0,0-.2,0-.3,0-.1,0-.3,0-.5,0s-.5,0-.8-.2-.5-.3-.6-.6c-.2-.3-.3-.6-.3-1s0-.8.3-1.1c.2-.3.4-.5.8-.7s.7-.3,1-.3Z"/>
      <path class="st1" d="M151.5,694.8c-1.3,0-2.4-.2-3.3-.7-.9-.5-1.7-1.2-2.2-2.1-.5-.9-.8-2-.8-3.4s.3-2.4.8-3.4c.5-.9,1.2-1.6,2.1-2.1.9-.5,2-.7,3.2-.7s2.2.2,3.1.7c.8.5,1.5,1.2,1.9,2s.7,1.8.7,2.9,0,.6,0,.9c0,.3,0,.5,0,.8h-9.6v-2.3h8.1l-1.6.6c0-1-.2-1.8-.7-2.3s-1.1-.8-1.9-.8-1.1.1-1.6.4c-.4.3-.8.7-1,1.3-.2.6-.3,1.3-.3,2.1s.1,1.5.4,2.1.6,1,1.1,1.2c.5.3,1,.4,1.6.4s1.3-.1,1.7-.4c.4-.3.8-.6,1-1.1l2.6,1c-.3.6-.6,1.2-1.2,1.6-.5.4-1.1.8-1.8,1-.7.2-1.5.3-2.3.3Z"/>
      <path class="st1" d="M163.7,694.8c-1.2,0-2.3-.2-3.3-.6-1-.4-1.8-1-2.4-1.8l1.9-1.9c.4.6.9,1,1.5,1.4.6.4,1.4.6,2.3.6s1.1,0,1.5-.3c.4-.2.6-.5.6-.9s0-.5-.3-.7c-.2-.2-.5-.3-1.1-.4l-2.1-.4c-1.4-.3-2.4-.7-3-1.3-.6-.6-.9-1.3-.9-2.3s.2-1.3.6-1.8c.4-.6,1-1,1.8-1.4.8-.4,1.8-.5,2.9-.5s2.2.2,3.1.6c.9.4,1.6.9,2.1,1.7l-2,1.9c-.4-.6-.8-1-1.4-1.3-.6-.3-1.2-.4-1.8-.4s-.8,0-1.2.1c-.3,0-.6.2-.7.4-.2.2-.2.4-.2.6s.1.5.3.7c.2.2.6.3,1.2.5l2.4.5c1.2.2,2,.6,2.5,1.2.5.6.8,1.3.8,2.1s-.2,1.5-.6,2.1c-.4.6-1,1.1-1.8,1.4-.8.3-1.8.5-2.9.5Z"/>
      <path class="st1" d="M178.8,682.6v2.4h-9.3v-2.4h9.3ZM174.9,678.9v11.8c0,.6.1,1,.4,1.3.3.3.7.4,1.2.4s.8,0,1.1-.2c.3-.1.6-.3.8-.5l.5,2.2c-.4.3-.9.5-1.4.7s-1.2.3-1.8.3-1.5-.1-2.1-.4c-.6-.2-1.1-.6-1.4-1.2-.3-.5-.5-1.2-.5-2.1v-11.4l3.3-.9Z"/>
      <path class="st1" d="M186.9,686.9c0-.7-.2-1.2-.6-1.6-.4-.4-.9-.6-1.5-.6s-1.1.2-1.6.5c-.4.3-.8.8-1,1.5l-2.8-.9c.3-1.1.9-1.9,1.8-2.5.9-.6,2.2-1,3.7-1s2,.2,2.8.5c.8.3,1.4.8,1.8,1.5s.7,1.5.7,2.5v4.9c0,.6.3.9.9.9s.5,0,.8-.1l-.2,2c-.4.2-.9.3-1.6.3s-1.1,0-1.5-.3c-.4-.2-.8-.5-1.1-.9-.3-.4-.4-.9-.4-1.5h0c0,0,.6-.2.6-.2,0,.6-.4,1.1-.8,1.5s-1,.7-1.6,1-1.3.3-1.9.3-1.5-.1-2.1-.4-1-.6-1.4-1.1c-.3-.5-.5-1.1-.5-1.8s.3-1.6.9-2.2c.6-.6,1.4-1,2.5-1.2l4.5-.9v2s-2.9.6-2.9.6c-.5.1-1,.3-1.2.4-.3.2-.4.5-.4.9s.1.7.4.9.7.3,1.1.3.7,0,1-.1.6-.2.9-.4c.3-.2.5-.4.6-.7.1-.3.2-.7.2-1.1v-3.2Z"/>
      <path class="st1" d="M197.4,694.8c-1,0-1.9-.2-2.7-.7-.8-.5-1.4-1.2-1.8-2.1-.4-.9-.7-2-.7-3.3s.2-2.5.7-3.4c.5-.9,1.1-1.6,1.9-2.1s1.7-.7,2.7-.7,1.9.3,2.6.9c.7.6,1.1,1.4,1.3,2.4l-.3.4v-8.7h3.3v17.3h-3l-.2-3.6.4.2c-.1.8-.4,1.4-.8,2-.4.6-.9,1-1.5,1.3-.6.3-1.3.5-2,.5ZM198.4,692.3c.6,0,1.1-.1,1.5-.4s.7-.7,1-1.3c.2-.6.3-1.3.3-2.1s-.1-1.4-.3-2c-.2-.5-.5-.9-1-1.2-.4-.3-.9-.4-1.5-.4-.9,0-1.6.3-2.1.9s-.8,1.6-.8,2.8.2,2.1.7,2.8c.5.6,1.2.9,2.1.9Z"/>
      <path class="st1" d="M211.1,694.8c-.8,0-1.5-.1-2.2-.4-.6-.3-1.1-.7-1.5-1.4-.4-.6-.6-1.5-.6-2.5v-8h3.3v7.2c0,.9.2,1.6.6,1.9.4.4.9.5,1.7.5s.7,0,1-.2c.3-.1.6-.3.9-.6s.4-.6.6-1c.1-.4.2-.9.2-1.5v-6.5h3.3v12h-2.9v-2.1c-.5.8-1.1,1.4-1.8,1.8-.7.4-1.5.6-2.5.6Z"/>
      <path class="st1" d="M227.7,686.9c0-.7-.2-1.2-.6-1.6-.4-.4-.9-.6-1.5-.6s-1.1.2-1.6.5c-.4.3-.8.8-1,1.5l-2.8-.9c.3-1.1.9-1.9,1.8-2.5.9-.6,2.2-1,3.7-1s2,.2,2.8.5c.8.3,1.4.8,1.8,1.5s.7,1.5.7,2.5v4.9c0,.6.3.9.9.9s.5,0,.8-.1l-.2,2c-.4.2-.9.3-1.6.3s-1.1,0-1.5-.3c-.4-.2-.8-.5-1.1-.9-.3-.4-.4-.9-.4-1.5h0c0,0,.6-.2.6-.2,0,.6-.4,1.1-.8,1.5s-1,.7-1.6,1-1.3.3-1.9.3-1.5-.1-2.1-.4-1-.6-1.4-1.1c-.3-.5-.5-1.1-.5-1.8s.3-1.6.9-2.2c.6-.6,1.4-1,2.5-1.2l4.5-.9v2s-2.9.6-2.9.6c-.5.1-1,.3-1.2.4-.3.2-.4.5-.4.9s.1.7.4.9.7.3,1.1.3.7,0,1-.1.6-.2.9-.4c.3-.2.5-.4.6-.7.1-.3.2-.7.2-1.1v-3.2Z"/>
      <path class="st1" d="M236.9,677.3v13.6c0,.6,0,1,.3,1.2.2.2.5.3,1,.3s.5,0,.7,0c.2,0,.4,0,.7-.2l-.3,2.2c-.3.2-.6.3-1,.4s-.8.1-1.2.1c-1.2,0-2-.3-2.6-.9-.5-.6-.8-1.5-.8-2.7v-13.9h3.3Z"/>
      <path class="st1" d="M252.3,694.8c-1.3,0-2.4-.2-3.3-.7-.9-.5-1.7-1.2-2.2-2.1-.5-.9-.8-2-.8-3.4s.3-2.4.8-3.4c.5-.9,1.2-1.6,2.1-2.1.9-.5,2-.7,3.2-.7s2.2.2,3.1.7c.8.5,1.5,1.2,1.9,2s.7,1.8.7,2.9,0,.6,0,.9c0,.3,0,.5,0,.8h-9.6v-2.3h8.1l-1.6.6c0-1-.2-1.8-.7-2.3s-1.1-.8-1.9-.8-1.1.1-1.6.4c-.4.3-.8.7-1,1.3-.2.6-.3,1.3-.3,2.1s.1,1.5.4,2.1.6,1,1.1,1.2c.5.3,1,.4,1.6.4s1.3-.1,1.7-.4c.4-.3.8-.6,1-1.1l2.6,1c-.3.6-.6,1.2-1.2,1.6-.5.4-1.1.8-1.8,1-.7.2-1.5.3-2.3.3Z"/>
      <path class="st1" d="M273.8,682.6v2.4h-9v-2.4h9ZM271.4,677.1c.6,0,1.1,0,1.5.2.5.1.8.3,1,.4l-.5,2.2c-.2-.1-.4-.2-.6-.3-.2,0-.5,0-.8,0-.6,0-1.1.1-1.5.4-.4.3-.6.8-.6,1.4v2.3c.1,0,.1,10.9.1,10.9h-3.3v-13.4c0-.7.1-1.3.3-1.8.2-.5.5-.9.9-1.3.4-.3.9-.6,1.4-.8s1.1-.3,1.8-.3Z"/>
      <path class="st1" d="M280.4,694.8c-1.3,0-2.4-.2-3.3-.7-.9-.5-1.7-1.2-2.2-2.1-.5-.9-.8-2-.8-3.4s.3-2.4.8-3.4c.5-.9,1.2-1.6,2.1-2.1.9-.5,2-.7,3.2-.7s2.2.2,3.1.7c.8.5,1.5,1.2,1.9,2s.7,1.8.7,2.9,0,.6,0,.9c0,.3,0,.5,0,.8h-9.6v-2.3h8.1l-1.6.6c0-1-.2-1.8-.7-2.3s-1.1-.8-1.9-.8-1.1.1-1.6.4c-.4.3-.8.7-1,1.3-.2.6-.3,1.3-.3,2.1s.1,1.5.4,2.1.6,1,1.1,1.2c.5.3,1,.4,1.6.4s1.3-.1,1.7-.4c.4-.3.8-.6,1-1.1l2.6,1c-.3.6-.6,1.2-1.2,1.6-.5.4-1.1.8-1.8,1-.7.2-1.5.3-2.3.3Z"/>
      <path class="st1" d="M292.3,694.8c-1,0-1.9-.2-2.7-.7-.8-.5-1.4-1.2-1.8-2.1-.4-.9-.7-2-.7-3.3s.2-2.5.7-3.4c.5-.9,1.1-1.6,1.9-2.1s1.7-.7,2.7-.7,1.9.3,2.6.9c.7.6,1.1,1.4,1.3,2.4l-.3.4v-8.7h3.3v17.3h-3l-.2-3.6.4.2c-.1.8-.4,1.4-.8,2-.4.6-.9,1-1.5,1.3-.6.3-1.3.5-2,.5ZM293.3,692.3c.6,0,1.1-.1,1.5-.4s.7-.7,1-1.3c.2-.6.3-1.3.3-2.1s-.1-1.4-.3-2c-.2-.5-.5-.9-1-1.2-.4-.3-.9-.4-1.5-.4-.9,0-1.6.3-2.1.9s-.8,1.6-.8,2.8.2,2.1.7,2.8c.5.6,1.2.9,2.1.9Z"/>
      <path class="st1" d="M307.4,694.8c-1.3,0-2.4-.2-3.3-.7-.9-.5-1.7-1.2-2.2-2.1-.5-.9-.8-2-.8-3.4s.3-2.4.8-3.4c.5-.9,1.2-1.6,2.1-2.1.9-.5,2-.7,3.2-.7s2.2.2,3.1.7c.8.5,1.5,1.2,1.9,2s.7,1.8.7,2.9,0,.6,0,.9c0,.3,0,.5,0,.8h-9.6v-2.3h8.1l-1.6.6c0-1-.2-1.8-.7-2.3s-1.1-.8-1.9-.8-1.1.1-1.6.4c-.4.3-.8.7-1,1.3-.2.6-.3,1.3-.3,2.1s.1,1.5.4,2.1.6,1,1.1,1.2c.5.3,1,.4,1.6.4s1.3-.1,1.7-.4c.4-.3.8-.6,1-1.1l2.6,1c-.3.6-.6,1.2-1.2,1.6-.5.4-1.1.8-1.8,1-.7.2-1.5.3-2.3.3Z"/>
      <path class="st1" d="M314.8,694.6v-12h2.9l.2,2.4c.3-.8.8-1.5,1.4-1.9.6-.4,1.4-.7,2.3-.7s.5,0,.7,0c.2,0,.4.1.6.2l-.4,2.8c-.2,0-.4-.1-.6-.1-.2,0-.5,0-.9,0s-.9.1-1.4.3-.8.6-1.1,1.1c-.3.5-.4,1.1-.4,1.8v6.2h-3.3Z"/>
      <path class="st1" d="M330.8,686.9c0-.7-.2-1.2-.6-1.6-.4-.4-.9-.6-1.5-.6s-1.1.2-1.6.5c-.4.3-.8.8-1,1.5l-2.8-.9c.3-1.1.9-1.9,1.8-2.5.9-.6,2.2-1,3.7-1s2,.2,2.8.5c.8.3,1.4.8,1.8,1.5s.7,1.5.7,2.5v4.9c0,.6.3.9.9.9s.5,0,.8-.1l-.2,2c-.4.2-.9.3-1.6.3s-1.1,0-1.5-.3c-.4-.2-.8-.5-1.1-.9-.3-.4-.4-.9-.4-1.5h0c0,0,.6-.2.6-.2,0,.6-.4,1.1-.8,1.5s-1,.7-1.6,1-1.3.3-1.9.3-1.5-.1-2.1-.4-1-.6-1.4-1.1c-.3-.5-.5-1.1-.5-1.8s.3-1.6.9-2.2c.6-.6,1.4-1,2.5-1.2l4.5-.9v2s-2.9.6-2.9.6c-.5.1-1,.3-1.2.4-.3.2-.4.5-.4.9s.1.7.4.9.7.3,1.1.3.7,0,1-.1.6-.2.9-.4c.3-.2.5-.4.6-.7.1-.3.2-.7.2-1.1v-3.2Z"/>
      <path class="st1" d="M340,677.3v13.6c0,.6,0,1,.3,1.2.2.2.5.3,1,.3s.5,0,.7,0c.2,0,.4,0,.7-.2l-.3,2.2c-.3.2-.6.3-1,.4s-.8.1-1.2.1c-1.2,0-2-.3-2.6-.9-.5-.6-.8-1.5-.8-2.7v-13.9h3.3Z"/>
      <path class="st1" d="M345.1,690.9c.6,0,1.1.2,1.5.5s.6.8.6,1.4-.2,1.1-.6,1.4-.9.5-1.5.5-1.1-.2-1.5-.5c-.4-.3-.6-.8-.6-1.4s.2-1.1.6-1.4c.4-.4.9-.5,1.5-.5Z"/>
    </g>
  </g>
</svg>