<?xml version="1.0" encoding="UTF-8"?>
<svg id="Layer_2" xmlns="http://www.w3.org/2000/svg" viewBox="0 0 150 150">
  <defs>
    <style>
      .cls-1 {
        fill: none;
      }

      .cls-2 {
        fill: #ee9211;
      }
    </style>
  </defs>
  <g id="img4">
    <rect class="cls-1" width="150" height="150"/>
    <g>
      <circle class="cls-2" cx="120.73" cy="95.77" r="2.07"/>
      <path class="cls-2" d="M85.45,72.09h-25.21c-2.38.04-2.39,3.59,0,3.63,0,0,25.21,0,25.21,0,2.38-.04,2.39-3.59,0-3.63Z"/>
      <g>
        <path class="cls-2" d="M118.82,102.32v28.93c0,.23-.19.42-.42.42H31.04c-.23,0-.42-.18-.42-.42V16.58c0-.23.19-.42.42-.42h72.85v11.74c0,1.75,1.45,3.2,3.2,3.2h11.74v58.5h3.98V30.1c0-1.21-.44-2.26-1.29-3.11l-13.53-13.53c-.85-.85-1.9-1.29-3.11-1.29H31.04c-2.43,0-4.41,1.98-4.41,4.41v114.67c0,2.42,1.97,4.4,4.41,4.4h87.37c2.42,0,4.4-1.98,4.4-4.4v-28.93h-3.98ZM107.87,18.97l8.14,8.14h-8.14v-8.14Z"/>
        <g>
          <path class="cls-2" d="M118.41,135.9H31.04c-2.57,0-4.66-2.08-4.66-4.65V16.58c0-2.57,2.09-4.66,4.66-4.66h73.84c1.27,0,2.38.46,3.29,1.36.13.13,13.44,13.44,13.53,13.53.91.91,1.36,2.01,1.36,3.29.02,6.69,0,16.81,0,27.52-.01,11.93-.03,24.26,0,31.97v.25s-4.48,0-4.48,0V31.35h-11.49c-1.9,0-3.45-1.55-3.45-3.45v-11.49H31.04c-.1,0-.17.08-.17.17v114.67c0,.09.08.17.17.17h87.37c.09,0,.17-.07.17-.17v-29.18h4.48v29.18c0,2.56-2.08,4.65-4.65,4.65ZM31.04,12.42c-2.29,0-4.16,1.86-4.16,4.16v114.67c0,2.29,1.87,4.15,4.16,4.15h87.37c2.29,0,4.15-1.86,4.15-4.15v-28.68h-3.48v28.68c0,.37-.3.67-.67.67H31.04c-.37,0-.67-.3-.67-.66V16.58c0-.37.3-.67.67-.67h73.1v11.99c0,1.63,1.32,2.95,2.95,2.95h11.99v58.5h3.48c-.03-7.72-.02-19.92,0-31.72.01-10.71.02-20.83,0-27.52,0-1.14-.41-2.12-1.22-2.93l.03-.03c-.47-.41-2.6-2.55-13.55-13.5-.81-.81-1.79-1.22-2.93-1.22H31.04Z"/>
          <path class="cls-2" d="M116.61,27.36h-8.99v-9l8.99,9ZM108.12,26.86h7.29l-7.29-7.29v7.29Z"/>
        </g>
      </g>
    </g>
  </g>
</svg>