<?xml version="1.0" encoding="UTF-8"?>
<svg id="Layer_2" xmlns="http://www.w3.org/2000/svg" viewBox="0 0 150 150">
  <defs>
    <style>
      .cls-1 {
        fill: none;
      }

      .cls-2 {
        fill: #ee9211;
      }
    </style>
  </defs>
  <g id="img4">
    <rect class="cls-1" width="150" height="150"/>
    <g>
      <path class="cls-2" d="M129.96,66.3c-6.28,0-11.89,3.52-14.62,9.07h-21.44c-.48,0-.94.19-1.28.53l-5.44,5.44c-.71.71-.71,1.86,0,2.57l5.44,5.44c.34.34.8.53,1.28.53,1.01-.09,5.01.26,5.56-.3,0,0,3.08-2.05,3.08-2.05.7.36,3.25,2.48,4.08,2.36,0,0,8.72,0,8.72,0,7.66,15.32,30.84,9.92,30.96-7.26,0-9.01-7.33-16.33-16.33-16.33ZM129.96,95.34c-5.2,0-9.82-3.12-11.77-7.94-.28-.69-.94-1.14-1.68-1.14h-9.34l-3.63-2.42c-.61-.41-1.4-.41-2.01,0l-3.63,2.42h-3.26l-3.63-3.63,3.63-3.63h21.86c.74,0,1.41-.45,1.68-1.14,1.94-4.82,6.56-7.94,11.77-7.94,16.82.63,16.84,24.77,0,25.41h0Z"/>
      <path class="cls-2" d="M133.59,80.82h-7.26c-2.38.04-2.39,3.59,0,3.63,0,0,7.26,0,7.26,0,2.38-.04,2.39-3.59,0-3.63Z"/>
    </g>
    <g>
      <path class="cls-2" d="M35.13,30.91h10.28c1.1,0,1.99-.89,1.99-1.99s-.89-1.99-1.99-1.99h-10.28c-1.1,0-1.99.89-1.99,1.99s.89,1.99,1.99,1.99Z"/>
      <path class="cls-2" d="M84.85,30.91c1.1,0,1.99-.89,1.99-1.99s-.89-1.99-1.99-1.99h-30.08c-1.1,0-1.99.89-1.99,1.99s.89,1.99,1.99,1.99h30.08Z"/>
      <path class="cls-2" d="M35.13,54.2h39.27c1.1,0,1.99-.89,1.99-1.99s-.89-1.99-1.99-1.99h-39.27c-1.1,0-1.99.89-1.99,1.99s.89,1.99,1.99,1.99Z"/>
      <path class="cls-2" d="M35.13,42.56h24.24c1.1,0,1.99-.89,1.99-1.99s-.89-1.99-1.99-1.99h-24.24c-1.1,0-1.99.89-1.99,1.99s.89,1.99,1.99,1.99Z"/>
      <path class="cls-2" d="M112.49,100.28v28.93c0,.23-.19.42-.42.42H24.7c-.23,0-.42-.18-.42-.42V14.55c0-.23.19-.42.42-.42h72.85v11.74c0,1.75,1.45,3.2,3.2,3.2h11.74v36.78h3.98V28.06c0-1.21-.44-2.26-1.29-3.11l-13.53-13.53c-.85-.85-1.9-1.29-3.11-1.29H24.7c-2.43,0-4.41,1.98-4.41,4.41v114.67c0,2.42,1.97,4.4,4.41,4.4h87.37c2.42,0,4.4-1.98,4.4-4.4v-28.93h-3.98ZM101.53,16.94l8.14,8.14h-8.14v-8.14Z"/>
      <path class="cls-2" d="M35.13,65.84h15.01c1.1,0,1.99-.89,1.99-1.99s-.89-1.99-1.99-1.99h-15.01c-1.1,0-1.99.89-1.99,1.99s.89,1.99,1.99,1.99Z"/>
      <path class="cls-2" d="M35.13,77.48h32.36c1.1,0,1.99-.89,1.99-1.99s-.89-1.99-1.99-1.99h-32.36c-1.1,0-1.99.89-1.99,1.99s.89,1.99,1.99,1.99Z"/>
      <path class="cls-2" d="M54.77,126.7c11.92,0,21.63-9.71,21.63-21.63s-9.71-21.63-21.63-21.63-21.63,9.72-21.63,21.63,9.72,21.63,21.63,21.63ZM54.77,87.43c9.72,0,17.65,7.93,17.65,17.65s-7.92,17.65-17.65,17.65-17.65-7.92-17.65-17.65,7.93-17.65,17.65-17.65Z"/>
      <path class="cls-2" d="M49.52,112.42c.75.75,1.96.78,2.75.07l13.08-11.86c.81-.74.88-2,.14-2.81-.74-.81-2-.88-2.81-.14l-11.67,10.59-4.04-4.04c-.78-.78-2.04-.78-2.82,0s-.78,2.04,0,2.82l5.38,5.38Z"/>
    </g>
  </g>
</svg>