<?xml version="1.0" encoding="UTF-8"?>
<svg id="Layer_2" xmlns="http://www.w3.org/2000/svg" viewBox="0 0 150 150">
  <defs>
    <style>
      .cls-1 {
        fill: none;
      }

      .cls-2 {
        fill: #ee9211;
      }
    </style>
  </defs>
  <g id="img4">
    <rect class="cls-1" width="150" height="150"/>
    <g>
      <g>
        <path class="cls-2" d="M42.82,136.99h-11.79V16.38h85.86v3.69c0,1.04.84,1.88,1.88,1.88s1.88-.84,1.88-1.88v-4.32c0-1.72-1.4-3.13-3.13-3.13H30.4c-1.72,0-3.13,1.4-3.13,3.13v121.86c0,1.72,1.4,3.13,3.13,3.13h12.42c1.04,0,1.88-.84,1.88-1.88s-.84-1.88-1.88-1.88Z"/>
        <path class="cls-2" d="M42.82,141.25h-12.42c-2,0-3.63-1.63-3.63-3.63V15.76c0-2,1.63-3.63,3.63-3.63h87.11c2,0,3.63,1.63,3.63,3.63v4.32c0,1.31-1.07,2.38-2.38,2.38s-2.38-1.07-2.38-2.38v-3.19H31.52v119.61h11.29c1.31,0,2.38,1.07,2.38,2.38s-1.07,2.38-2.38,2.38ZM30.4,13.13c-1.45,0-2.63,1.18-2.63,2.63v121.86c0,1.45,1.18,2.63,2.63,2.63h12.42c.76,0,1.38-.62,1.38-1.38s-.62-1.38-1.38-1.38h-12.29V15.88h86.86v4.19c0,.76.62,1.38,1.38,1.38s1.38-.62,1.38-1.38v-4.32c0-1.45-1.18-2.63-2.63-2.63H30.4Z"/>
      </g>
      <g>
        <path class="cls-2" d="M40.89,67.15c.05.71.14,1.42.24,2.12.14.93.94,1.6,1.85,1.6.09,0,.19,0,.28-.02,1.02-.15,1.73-1.11,1.58-2.14-.09-.61-.16-1.23-.21-1.85-.08-1.03-.97-1.81-2.02-1.73-1.03.08-1.81.98-1.73,2.02Z"/>
        <path class="cls-2" d="M42.98,71.37c-1.16,0-2.17-.87-2.35-2.02-.11-.71-.19-1.43-.25-2.15-.05-.63.15-1.25.56-1.73.41-.48.99-.77,1.62-.82.63-.04,1.25.15,1.73.56.48.41.77.99.82,1.63.05.61.12,1.22.21,1.81.09.63-.06,1.25-.44,1.77-.38.51-.93.84-1.56.94-.12.02-.24.03-.36.03ZM41.39,67.11c.05.7.13,1.4.24,2.08.11.74.83,1.27,1.57,1.16.36-.05.68-.25.9-.54s.31-.66.25-1.02c-.09-.62-.17-1.25-.21-1.88-.03-.37-.2-.7-.48-.94-.28-.24-.63-.35-1-.32-.37.03-.7.2-.94.48s-.36.63-.33,1Z"/>
      </g>
      <g>
        <path class="cls-2" d="M44.57,54.64c.26.13.54.19.81.19.7,0,1.37-.39,1.69-1.06.27-.56.56-1.11.87-1.65.52-.9.2-2.05-.69-2.56-.9-.52-2.05-.2-2.56.69-.35.62-.69,1.25-.99,1.89-.45.93-.06,2.06.88,2.5h0Z"/>
        <path class="cls-2" d="M45.38,55.33c-.36,0-.71-.08-1.03-.24-1.18-.57-1.68-1.99-1.11-3.17.32-.65.66-1.3,1.01-1.92.32-.55.83-.94,1.44-1.11.61-.17,1.25-.08,1.8.23.55.32.95.83,1.11,1.44s.08,1.25-.23,1.8c-.3.53-.59,1.07-.85,1.61-.39.82-1.23,1.35-2.14,1.35ZM46.31,49.81c-.12,0-.24.02-.36.05-.36.1-.65.32-.83.64-.34.6-.67,1.22-.98,1.86-.33.68-.04,1.51.64,1.84h0c.67.32,1.52.02,1.84-.64.27-.57.57-1.13.88-1.68.18-.32.23-.69.13-1.05-.1-.35-.32-.65-.64-.83-.21-.12-.45-.18-.68-.18Z"/>
      </g>
      <g>
        <path class="cls-2" d="M43.72,77.64c.32.67.99,1.06,1.69,1.06.27,0,.55-.06.82-.19.93-.45,1.32-1.57.87-2.51-.27-.56-.52-1.13-.75-1.7-.38-.96-1.47-1.43-2.44-1.05-.96.38-1.43,1.47-1.05,2.44.26.66.55,1.31.86,1.95Z"/>
        <path class="cls-2" d="M45.41,79.2c-.91,0-1.75-.53-2.14-1.34-.31-.65-.61-1.32-.87-1.98-.23-.59-.22-1.24.03-1.82.25-.58.72-1.03,1.31-1.27,1.22-.48,2.6.11,3.09,1.33.22.56.47,1.12.73,1.67.57,1.18.08,2.6-1.1,3.17-.33.16-.67.24-1.03.24ZM44.61,73.62c-.17,0-.34.03-.51.1-.34.14-.61.4-.76.73-.15.34-.15.71-.02,1.05.25.65.54,1.29.84,1.92h0c.32.66,1.17.96,1.84.64.68-.33.97-1.16.64-1.84-.27-.57-.53-1.15-.76-1.73-.21-.54-.73-.87-1.28-.87Z"/>
      </g>
      <g>
        <path class="cls-2" d="M41.51,58.42c-.15.69-.29,1.4-.39,2.09-.15,1.03.56,1.98,1.58,2.13.09.01.19.02.28.02.91,0,1.72-.67,1.85-1.6.09-.61.2-1.22.34-1.83.23-1.01-.41-2.01-1.42-2.24s-2.01.41-2.24,1.42h0Z"/>
        <path class="cls-2" d="M42.98,63.17c-.12,0-.23,0-.35-.03-.63-.09-1.18-.43-1.56-.94s-.54-1.14-.44-1.76c.11-.72.24-1.43.39-2.13h0c.29-1.28,1.57-2.09,2.84-1.8,1.28.29,2.09,1.56,1.8,2.84-.13.59-.24,1.19-.33,1.79-.17,1.16-1.18,2.03-2.35,2.03ZM42,58.53h0c-.15.67-.28,1.37-.38,2.06-.05.36.04.73.26,1.02.22.3.54.49.9.54.75.11,1.45-.42,1.56-1.16.09-.61.21-1.24.34-1.86.17-.74-.3-1.48-1.04-1.65-.74-.16-1.48.3-1.64,1.04Z"/>
      </g>
      <g>
        <path class="cls-2" d="M65.7,35.81c-.7.11-1.41.24-2.09.4-1.01.23-1.64,1.24-1.41,2.25.2.87.97,1.46,1.83,1.46.14,0,.28-.02.42-.05.6-.14,1.21-.25,1.82-.35,1.02-.16,1.73-1.12,1.57-2.14-.16-1.02-1.11-1.73-2.14-1.57Z"/>
        <path class="cls-2" d="M64.02,40.41c-1.11,0-2.07-.76-2.32-1.85-.29-1.28.51-2.56,1.79-2.85.7-.16,1.42-.3,2.13-.41h0c1.29-.2,2.51.69,2.71,1.99.2,1.29-.69,2.51-1.99,2.71-.6.09-1.2.21-1.79.34-.18.04-.36.06-.53.06ZM65.77,36.3h0c-.69.11-1.38.24-2.06.39-.74.17-1.2.91-1.04,1.65.17.73.9,1.21,1.65,1.03.61-.14,1.24-.26,1.86-.36.75-.12,1.27-.82,1.15-1.57-.12-.75-.83-1.26-1.57-1.15Z"/>
      </g>
      <g>
        <path class="cls-2" d="M63.67,93.52c.14.03.28.05.42.05.86,0,1.63-.59,1.83-1.46.23-1.01-.4-2.02-1.42-2.25-.6-.14-1.21-.3-1.8-.48-.99-.3-2.04.26-2.34,1.25s.26,2.04,1.25,2.34c.68.21,1.37.39,2.06.55h0Z"/>
        <path class="cls-2" d="M64.09,94.07c-.18,0-.35-.02-.53-.06-.7-.16-1.41-.35-2.1-.56-1.25-.38-1.96-1.71-1.58-2.97.38-1.25,1.71-1.96,2.97-1.58.58.18,1.17.33,1.76.47.62.14,1.15.51,1.49,1.05s.45,1.17.31,1.79c-.25,1.09-1.2,1.85-2.32,1.85ZM62.16,89.8c-.59,0-1.14.38-1.32.98-.22.73.19,1.5.92,1.72.67.2,1.35.38,2.03.54h0c.73.17,1.48-.32,1.65-1.04.08-.36.02-.73-.18-1.04-.2-.31-.5-.53-.86-.61-.61-.14-1.23-.3-1.83-.49-.13-.04-.27-.06-.4-.06Z"/>
      </g>
      <g>
        <path class="cls-2" d="M72.34,35.54c-1.03-.07-1.93.7-2.01,1.74-.07,1.03.7,1.93,1.74,2.01.62.04,1.24.11,1.85.2.09.01.18.02.27.02.92,0,1.72-.67,1.85-1.61.15-1.03-.56-1.98-1.59-2.13-.7-.1-1.41-.18-2.12-.23h0Z"/>
        <path class="cls-2" d="M74.19,40.01c-.11,0-.23,0-.34-.02-.59-.09-1.2-.15-1.81-.2-1.31-.09-2.29-1.23-2.2-2.54.05-.63.34-1.21.82-1.63.48-.42,1.09-.62,1.72-.57h0c.72.05,1.44.13,2.15.23.63.09,1.18.42,1.56.93s.54,1.14.45,1.76c-.17,1.16-1.18,2.03-2.35,2.03ZM72.2,36.04c-.33,0-.64.12-.9.34-.28.24-.45.58-.47.94-.05.76.52,1.42,1.27,1.47.64.05,1.27.11,1.88.2.75.1,1.45-.43,1.56-1.16.05-.36-.04-.73-.26-1.02s-.54-.49-.91-.54c-.69-.1-1.39-.18-2.08-.23h0s-.07,0-.1,0Z"/>
      </g>
      <g>
        <path class="cls-2" d="M57.34,38.42c-.64.31-1.27.65-1.88,1-.9.52-1.2,1.67-.68,2.57.35.6.98.93,1.62.93.32,0,.64-.08.94-.25.53-.31,1.09-.6,1.64-.87.93-.45,1.32-1.58.86-2.51-.45-.93-1.58-1.32-2.51-.87Z"/>
        <path class="cls-2" d="M56.4,43.42c-.84,0-1.63-.45-2.06-1.18-.66-1.13-.27-2.59.86-3.25.62-.36,1.27-.7,1.91-1.02h0c.57-.28,1.21-.32,1.82-.11.6.21,1.08.64,1.36,1.21.57,1.18.08,2.6-1.09,3.18-.54.26-1.08.55-1.61.86-.36.21-.77.32-1.19.32ZM58.16,38.73c-.21,0-.41.05-.6.14h0c-.62.3-1.24.63-1.85.98-.66.38-.88,1.23-.5,1.88.37.63,1.25.87,1.88.5.55-.32,1.11-.62,1.67-.89.68-.33.97-1.16.63-1.84-.16-.33-.44-.58-.79-.7-.15-.05-.3-.08-.45-.08Z"/>
      </g>
      <g>
        <path class="cls-2" d="M55.51,90.33c.3.17.62.25.94.25.65,0,1.28-.34,1.63-.94.52-.9.21-2.05-.69-2.56-.54-.31-1.07-.64-1.58-.99-.86-.58-2.02-.36-2.61.5-.58.86-.36,2.02.5,2.61.59.4,1.19.78,1.81,1.13Z"/>
        <path class="cls-2" d="M56.45,91.08c-.42,0-.83-.11-1.19-.32h0c-.63-.36-1.24-.75-1.84-1.15-1.08-.74-1.37-2.22-.63-3.3.74-1.08,2.22-1.37,3.3-.63.5.34,1.02.67,1.54.97.55.32.94.83,1.11,1.44s.08,1.25-.24,1.8c-.42.73-1.21,1.19-2.06,1.19ZM55.76,89.89c.64.37,1.52.13,1.88-.5.18-.32.23-.69.14-1.04-.1-.36-.32-.65-.64-.84-.55-.32-1.09-.65-1.61-1.01-.63-.43-1.49-.26-1.91.37-.43.63-.26,1.49.37,1.91.57.39,1.17.76,1.77,1.11h0Z"/>
      </g>
      <g>
        <path class="cls-2" d="M70.28,94.25c.71,0,1.42-.03,2.13-.08,1.03-.08,1.81-.98,1.73-2.01-.08-1.03-.98-1.81-2.01-1.73-.61.05-1.24.07-1.86.07-1.04,0-1.87.85-1.87,1.88,0,1.03.84,1.87,1.88,1.87h0Z"/>
        <path class="cls-2" d="M70.28,94.75h0c-1.31,0-2.37-1.06-2.38-2.37,0-.64.24-1.23.69-1.68.45-.45,1.04-.7,1.68-.7.61,0,1.22-.03,1.82-.07,1.3-.1,2.45.89,2.55,2.19.1,1.31-.89,2.45-2.19,2.55-.72.05-1.45.08-2.16.08h0ZM72.26,90.92s-.07,0-.1,0c-.62.05-1.26.07-1.89.07-.37,0-.71.15-.97.41-.26.26-.4.61-.4.97,0,.76.62,1.37,1.38,1.37v.5s0-.5,0-.5c.69,0,1.4-.03,2.09-.08.76-.06,1.33-.72,1.27-1.48-.05-.72-.66-1.27-1.38-1.27Z"/>
      </g>
      <g>
        <path class="cls-2" d="M90.28,80.79c-.64.81-.51,1.99.3,2.64.35.27.76.41,1.17.41.55,0,1.1-.24,1.47-.71.44-.55.87-1.13,1.27-1.72.58-.86.36-2.02-.49-2.61-.86-.58-2.02-.36-2.61.49-.35.51-.72,1.01-1.1,1.5Z"/>
        <path class="cls-2" d="M91.75,84.34c-.54,0-1.05-.18-1.48-.52-1.03-.82-1.2-2.31-.38-3.34h0c.37-.47.74-.96,1.08-1.47.74-1.08,2.22-1.36,3.3-.62,1.08.74,1.36,2.22.62,3.3-.41.6-.84,1.18-1.29,1.75-.45.57-1.13.9-1.86.9ZM90.67,81.11c-.47.59-.37,1.46.22,1.93.58.46,1.48.35,1.93-.22.43-.54.85-1.11,1.24-1.69.43-.63.27-1.48-.36-1.91-.63-.43-1.49-.27-1.91.36-.36.52-.74,1.04-1.13,1.53h0Z"/>
      </g>
      <g>
        <path class="cls-2" d="M94.45,48.25c-.59-.85-1.75-1.07-2.61-.49-.85.59-1.07,1.75-.49,2.61.35.51.68,1.04.99,1.57.35.6.98.93,1.62.93.32,0,.65-.08.94-.26.9-.52,1.2-1.67.67-2.57-.36-.61-.74-1.21-1.14-1.8Z"/>
        <path class="cls-2" d="M93.97,53.37c-.84,0-1.63-.45-2.05-1.18-.3-.52-.63-1.04-.98-1.54-.74-1.08-.46-2.56.62-3.3,1.08-.74,2.56-.46,3.3.62h0c.4.59.79,1.2,1.16,1.83.32.55.41,1.19.25,1.8-.16.61-.55,1.13-1.1,1.45-.36.21-.78.32-1.2.32ZM92.9,47.94c-.27,0-.54.08-.78.24-.62.43-.79,1.29-.36,1.91.36.52.7,1.06,1.01,1.6.37.63,1.25.87,1.88.49.32-.19.54-.48.64-.84.09-.36.04-.73-.14-1.04-.35-.61-.73-1.2-1.12-1.77h0c-.27-.39-.7-.6-1.14-.6Z"/>
      </g>
      <g>
        <path class="cls-2" d="M94.68,57.25c.18.59.35,1.19.49,1.79.2.87.97,1.45,1.83,1.45.14,0,.28-.02.43-.05,1.01-.23,1.64-1.24,1.4-2.25-.16-.69-.35-1.38-.56-2.06-.31-.99-1.36-1.54-2.35-1.24-.99.31-1.54,1.36-1.24,2.35h0Z"/>
        <path class="cls-2" d="M96.99,60.99c-1.11,0-2.06-.76-2.31-1.84-.14-.59-.3-1.18-.48-1.76-.19-.61-.13-1.25.17-1.81.3-.56.79-.97,1.4-1.16,1.25-.39,2.59.31,2.97,1.56.21.69.4,1.39.57,2.09.14.62.04,1.26-.3,1.79-.34.54-.86.91-1.48,1.06-.18.04-.36.06-.54.06ZM96.47,55.31c-.13,0-.27.02-.41.06-.35.11-.64.35-.81.67-.17.33-.21.7-.1,1.05h0c.19.61.36,1.23.5,1.83.17.73.93,1.2,1.65,1.03.36-.08.66-.3.86-.61.2-.31.26-.68.17-1.04-.16-.68-.34-1.36-.55-2.02-.18-.59-.73-.97-1.32-.97Z"/>
      </g>
      <g>
        <path class="cls-2" d="M95.84,76.73c.75,0,1.46-.45,1.75-1.2.26-.66.49-1.34.7-2.02.31-.99-.25-2.04-1.24-2.35-.99-.31-2.04.25-2.35,1.24-.18.59-.39,1.18-.61,1.76-.38.97.1,2.05,1.07,2.43.22.09.45.13.68.13Z"/>
        <path class="cls-2" d="M95.84,77.23c-.3,0-.59-.05-.86-.16-1.22-.48-1.83-1.86-1.35-3.08.22-.55.42-1.13.6-1.72.19-.61.6-1.1,1.16-1.4.56-.3,1.2-.36,1.81-.17.61.19,1.1.6,1.4,1.16s.36,1.2.17,1.81c-.22.7-.46,1.39-.71,2.05-.36.92-1.23,1.51-2.21,1.51ZM96.49,71.59c-.22,0-.44.05-.64.16-.33.17-.56.46-.67.81-.19.61-.4,1.22-.62,1.79-.28.71.08,1.51.78,1.78.69.27,1.51-.09,1.78-.78.25-.64.48-1.31.69-1.98.11-.35.07-.72-.1-1.05-.17-.32-.46-.56-.81-.67-.13-.04-.27-.06-.41-.06Z"/>
      </g>
      <g>
        <path class="cls-2" d="M51.38,47.45c.42-.45.86-.9,1.31-1.32.76-.71.8-1.9.09-2.65-.71-.76-1.9-.8-2.65-.09-.52.48-1.02.99-1.5,1.51-.7.76-.66,1.95.1,2.65.36.33.82.5,1.27.5.5,0,1.01-.2,1.38-.6Z"/>
        <path class="cls-2" d="M50,48.55c-.6,0-1.17-.22-1.61-.63-.47-.43-.74-1.02-.76-1.65s.2-1.24.63-1.71c.49-.52,1-1.04,1.53-1.54.46-.44,1.08-.67,1.7-.64.63.02,1.22.29,1.66.75.89.96.84,2.46-.11,3.36-.44.41-.88.85-1.29,1.29h0c-.45.48-1.08.76-1.75.76ZM51.4,43.38c-.35,0-.68.13-.94.37-.51.48-1.01.98-1.48,1.48-.52.56-.48,1.43.08,1.95.54.5,1.45.47,1.95-.08.43-.46.88-.91,1.34-1.34.55-.52.58-1.39.06-1.95-.25-.27-.59-.42-.96-.44-.02,0-.03,0-.05,0Z"/>
      </g>
      <g>
        <path class="cls-2" d="M50.2,80.9c-.65-.81-1.83-.94-2.64-.29-.81.65-.94,1.83-.29,2.64.44.55.91,1.09,1.39,1.61.37.4.87.6,1.38.6.46,0,.92-.17,1.28-.5.76-.71.8-1.89.1-2.65-.42-.45-.83-.93-1.22-1.41h0Z"/>
        <path class="cls-2" d="M50.04,85.96c-.66,0-1.29-.28-1.74-.76-.49-.53-.97-1.08-1.42-1.64-.82-1.02-.66-2.52.36-3.34.5-.4,1.11-.58,1.75-.51.63.07,1.2.38,1.6.87h0c.38.48.78.94,1.19,1.38.89.96.84,2.47-.12,3.36-.44.41-1.01.64-1.62.64ZM48.73,80.7c-.31,0-.61.11-.86.3-.59.48-.69,1.34-.21,1.94.43.54.89,1.07,1.37,1.58.5.54,1.41.57,1.94.07.56-.52.59-1.39.07-1.95-.43-.46-.84-.94-1.24-1.43h0c-.23-.29-.56-.47-.92-.51-.05,0-.1,0-.15,0Z"/>
      </g>
      <g>
        <path class="cls-2" d="M99.51,66.98c.05-.7.08-1.42.08-2.13v-.06c0-1.04-.84-1.88-1.88-1.88s-1.88.84-1.88,1.88v.06c0,.62-.02,1.24-.07,1.86-.07,1.03.7,1.93,1.74,2.01.05,0,.09,0,.14,0,.98,0,1.8-.75,1.87-1.74h0Z"/>
        <path class="cls-2" d="M97.64,69.23c-.06,0-.11,0-.17,0-.63-.04-1.21-.33-1.63-.81-.42-.48-.62-1.09-.57-1.73.04-.6.06-1.21.06-1.82,0-1.37,1.07-2.44,2.38-2.44s2.38,1.07,2.38,2.38c0,.78-.03,1.51-.08,2.22h0c-.09,1.24-1.13,2.21-2.37,2.21ZM97.71,63.42c-.76,0-1.38.62-1.38,1.38,0,.7-.02,1.34-.07,1.96-.03.37.09.72.33,1,.24.28.58.45.94.47h.1c.72,0,1.32-.56,1.37-1.27h0c.05-.69.08-1.39.08-2.09,0-.82-.62-1.44-1.38-1.44Z"/>
      </g>
      <g>
        <path class="cls-2" d="M79.57,88.73c-.57.23-1.16.43-1.75.62-.99.31-1.54,1.36-1.24,2.35.25.8.99,1.32,1.79,1.32.18,0,.37-.03.56-.09.67-.21,1.35-.45,2.01-.71.96-.38,1.44-1.47,1.06-2.43-.38-.96-1.47-1.44-2.43-1.06h0Z"/>
        <path class="cls-2" d="M78.38,93.51c-1.05,0-1.96-.67-2.27-1.67-.19-.61-.13-1.25.17-1.81.29-.56.79-.98,1.4-1.16.58-.18,1.16-.38,1.72-.6h0c.59-.23,1.23-.22,1.82.03.58.25,1.03.72,1.26,1.31.23.59.22,1.24-.03,1.82-.25.58-.72,1.03-1.31,1.26-.68.27-1.37.51-2.05.72-.23.07-.47.11-.71.11ZM80.26,89.1c-.17,0-.34.03-.5.1h0c-.58.23-1.18.44-1.79.63-.35.11-.64.35-.81.67-.17.33-.21.7-.1,1.05.22.71,1.02,1.13,1.72.91.66-.2,1.32-.44,1.98-.7.34-.13.61-.39.76-.73.15-.34.15-.71.02-1.05s-.39-.61-.73-.76c-.18-.08-.36-.12-.55-.12Z"/>
      </g>
      <g>
        <path class="cls-2" d="M127.27,68.34c-1.02-.2-2,.46-2.2,1.48-2.35,11.98-12.93,20.67-25.16,20.67-4.08,0-7.95-.96-11.38-2.67.8-.65.93-1.82.29-2.63-.65-.81-1.83-.94-2.64-.3-.36.29-.74.57-1.12.84-3.49-2.49-6.33-5.83-8.22-9.71,5.75-1.55,10.86-5.09,14.35-10.1.45-.64.45-1.5,0-2.14-3.48-5.01-8.59-8.55-14.35-10.1,1.96-4.04,4.96-7.48,8.63-10,.08.42.31.81.67,1.1.48.38.96.79,1.41,1.21.36.33.82.5,1.27.5.51,0,1.01-.2,1.38-.61.7-.76.65-1.95-.11-2.65-.5-.46-1.03-.91-1.57-1.34,3.43-1.71,7.29-2.67,11.38-2.67,12.91,0,23.85,9.65,25.44,22.44.13,1.03,1.07,1.76,2.09,1.63,1.03-.13,1.76-1.07,1.63-2.09-.84-6.71-3.92-12.67-8.43-17.16v-7.81c0-1.04-.84-1.88-1.88-1.88s-1.88.84-1.88,1.88v4.65c-4.82-3.42-10.7-5.41-16.98-5.41-5.9,0-11.4,1.75-16.01,4.76.09-.77-.31-1.55-1.05-1.91-.64-.31-1.3-.59-1.96-.85-.97-.38-2.05.1-2.43,1.07-.38.97.1,2.05,1.07,2.43.57.22,1.15.47,1.71.74.14.07.28.11.43.14-3.69,2.94-6.67,6.75-8.61,11.11-.94-.11-1.89-.16-2.84-.16-8.36,0-16.21,4.11-20.99,10.99-.45.64-.45,1.5,0,2.14,4.78,6.88,12.63,10.99,20.99,10.99.96,0,1.91-.06,2.84-.16,4.58,10.3,14.9,17.5,26.87,17.5,6.26,0,12.14-1.99,16.98-5.42v48.16h-58.37c-1.04,0-1.88.84-1.88,1.88s.84,1.88,1.88,1.88h59c1.72,0,3.13-1.4,3.13-3.13v-51.94c4.05-4.02,6.95-9.23,8.11-15.13.2-1.02-.46-2-1.48-2.2h0ZM53.08,64.86c3.04-3.85,7.26-6.53,11.95-7.68-2.47,1.66-4.09,4.49-4.09,7.68s1.63,6.01,4.09,7.68c-4.69-1.15-8.91-3.83-11.95-7.68h0ZM70.19,70.36c-3.04,0-5.5-2.47-5.5-5.5s2.47-5.5,5.5-5.5,5.5,2.47,5.5,5.5-2.47,5.5-5.5,5.5ZM79.45,64.86c0-3.19-1.63-6.02-4.09-7.68,4.69,1.15,8.91,3.83,11.95,7.68-3.04,3.85-7.26,6.53-11.95,7.68,2.47-1.66,4.09-4.49,4.09-7.68Z"/>
        <path class="cls-2" d="M117.51,141.25h-59c-1.31,0-2.38-1.07-2.38-2.38s1.07-2.38,2.38-2.38h57.87v-46.71c-4.91,3.25-10.59,4.97-16.48,4.97-11.68,0-22.3-6.84-27.18-17.46-.85.08-1.7.13-2.54.13-8.53,0-16.53-4.19-21.4-11.2-.56-.81-.56-1.9,0-2.71,4.87-7.01,12.88-11.2,21.4-11.2.83,0,1.68.04,2.54.13,1.83-3.99,4.57-7.57,7.94-10.42-.44-.2-.89-.39-1.34-.57-.59-.23-1.06-.68-1.31-1.26-.25-.58-.27-1.23-.04-1.82.23-.59.68-1.06,1.26-1.31.58-.25,1.23-.27,1.82-.04.67.26,1.34.55,1.99.86.63.3,1.08.85,1.26,1.5,4.69-2.88,10.07-4.4,15.59-4.4,5.9,0,11.58,1.71,16.48,4.96v-3.7c0-1.31,1.07-2.38,2.38-2.38s2.38,1.07,2.38,2.38v7.6c4.63,4.67,7.62,10.8,8.43,17.3.08.63-.09,1.25-.48,1.75-.39.5-.95.82-1.58.9-.62.08-1.25-.09-1.75-.48-.5-.39-.82-.95-.9-1.58-1.56-12.54-12.28-22-24.94-22-3.65,0-7.17.77-10.45,2.28.34.29.67.57.98.86.47.43.74,1.02.76,1.65.03.63-.2,1.24-.63,1.71-.85.93-2.43.99-3.36.14-.44-.41-.91-.81-1.38-1.19-.25-.2-.45-.44-.6-.71-3.22,2.33-5.86,5.38-7.67,8.9,5.68,1.68,10.65,5.26,14.04,10.13.56.81.56,1.9,0,2.71-3.39,4.88-8.35,8.46-14.04,10.13,1.78,3.45,4.36,6.47,7.51,8.78.27-.2.54-.4.81-.61.5-.4,1.12-.57,1.75-.5.63.07,1.2.38,1.59.88.65.82.68,1.94.13,2.78,3.32,1.55,6.87,2.33,10.57,2.33,11.99,0,22.36-8.52,24.67-20.27.12-.62.48-1.16,1.01-1.52.53-.35,1.16-.48,1.78-.36h0c1.29.25,2.13,1.5,1.87,2.79-1.13,5.78-3.93,11.05-8.1,15.24v51.74c0,2-1.63,3.63-3.63,3.63ZM58.52,137.49c-.76,0-1.38.62-1.38,1.38s.62,1.38,1.38,1.38h59c1.45,0,2.63-1.18,2.63-2.63v-52.15l.15-.15c4.11-4.08,6.86-9.22,7.97-14.87.15-.74-.34-1.47-1.09-1.62h0c-.36-.07-.73,0-1.03.21-.3.21-.51.52-.58.88-2.4,12.21-13.18,21.08-25.65,21.08-4.07,0-7.97-.92-11.6-2.72l-.7-.35.61-.49c.59-.47.68-1.34.21-1.93-.23-.29-.56-.47-.92-.51-.37-.04-.72.06-1.01.29-.37.3-.75.58-1.14.86l-.29.21-.29-.21c-3.57-2.55-6.47-5.97-8.38-9.9l-.26-.54.58-.16c5.7-1.54,10.7-5.06,14.07-9.91.33-.47.33-1.1,0-1.57-3.37-4.85-8.37-8.37-14.07-9.91l-.58-.16.26-.54c1.99-4.09,5.03-7.62,8.8-10.19l.62-.43.15.74c.06.32.24.6.49.8.49.39.98.81,1.44,1.23.54.5,1.45.46,1.95-.08.25-.27.38-.62.36-.99-.02-.37-.17-.71-.44-.96-.48-.45-1-.89-1.54-1.32l-.61-.49.7-.35c3.63-1.81,7.53-2.72,11.6-2.72,13.16,0,24.31,9.83,25.94,22.88.05.36.23.69.52.92.29.23.65.32,1.01.28.37-.05.69-.23.92-.52.23-.29.33-.65.28-1.02-.79-6.35-3.73-12.34-8.29-16.87l-.15-.15v-8.02c0-.76-.62-1.38-1.38-1.38s-1.38.62-1.38,1.38v5.62l-.79-.56c-4.91-3.48-10.68-5.32-16.69-5.32-5.61,0-11.05,1.62-15.74,4.68l-.89.58.12-1.06c.07-.58-.24-1.15-.77-1.4-.62-.3-1.27-.58-1.92-.83-.34-.13-.72-.13-1.05.02-.34.15-.6.42-.73.76s-.13.72.02,1.05c.15.34.42.6.76.73.58.23,1.17.48,1.74.75.1.05.2.08.31.1l1.04.22-.83.66c-3.66,2.91-6.58,6.69-8.47,10.92l-.15.33-.36-.04c-.94-.11-1.87-.16-2.79-.16-8.2,0-15.89,4.03-20.58,10.77-.33.47-.33,1.1,0,1.57,4.69,6.74,12.38,10.77,20.58,10.77.91,0,1.85-.05,2.79-.16l.36-.04.15.33c4.64,10.45,15.01,17.2,26.41,17.2,6,0,11.77-1.84,16.69-5.32l.79-.56v49.63h-58.87ZM72.76,73.69l2.32-1.56c2.42-1.64,3.87-4.35,3.87-7.27s-1.45-5.63-3.87-7.27l-2.32-1.56,2.72.66c4.81,1.18,9.16,3.97,12.22,7.86l.24.31-.24.31c-3.07,3.89-7.41,6.68-12.22,7.86l-2.72.66ZM77.44,58.33c1.6,1.77,2.51,4.09,2.51,6.53s-.91,4.75-2.51,6.53c3.59-1.31,6.8-3.57,9.22-6.53-2.43-2.96-5.64-5.22-9.22-6.53ZM67.63,73.69l-2.72-.66c-4.81-1.18-9.15-3.97-12.22-7.86l-.24-.31.24-.31c3.07-3.89,7.41-6.68,12.23-7.86l2.72-.66-2.32,1.56c-2.43,1.64-3.87,4.35-3.87,7.27s1.45,5.63,3.87,7.27l2.32,1.56ZM53.72,64.86c2.43,2.96,5.64,5.22,9.22,6.53-1.6-1.77-2.51-4.09-2.51-6.53s.91-4.75,2.51-6.53c-3.59,1.3-6.8,3.57-9.22,6.53ZM70.19,70.86c-3.31,0-6-2.69-6-6s2.69-6,6-6,6,2.69,6,6-2.69,6-6,6ZM70.19,59.85c-2.76,0-5,2.25-5,5s2.25,5,5,5,5-2.24,5-5-2.25-5-5-5Z"/>
      </g>
      <g>
        <path class="cls-2" d="M92.2,27.16c0-1.04-.84-1.88-1.88-1.88h-32.74c-1.04,0-1.88.84-1.88,1.88s.84,1.88,1.88,1.88h32.74c1.04,0,1.88-.84,1.88-1.88Z"/>
        <path class="cls-2" d="M90.33,29.54h-32.74c-1.31,0-2.38-1.07-2.38-2.38s1.07-2.38,2.38-2.38h32.74c1.31,0,2.38,1.07,2.38,2.38s-1.07,2.38-2.38,2.38ZM57.58,25.79c-.76,0-1.38.62-1.38,1.38s.62,1.38,1.38,1.38h32.74c.76,0,1.38-.62,1.38-1.38s-.62-1.38-1.38-1.38h-32.74Z"/>
      </g>
      <g>
        <path class="cls-2" d="M100.73,106.63c1.04,0,1.88-.84,1.88-1.88s-.84-1.88-1.88-1.88h-15.69c-1.04,0-1.88.84-1.88,1.88s.84,1.88,1.88,1.88h15.69Z"/>
        <path class="cls-2" d="M100.73,107.13h-15.69c-1.31,0-2.38-1.07-2.38-2.38s1.07-2.38,2.38-2.38h15.69c1.31,0,2.38,1.07,2.38,2.38s-1.07,2.38-2.38,2.38ZM85.04,103.38c-.76,0-1.38.62-1.38,1.38s.62,1.38,1.38,1.38h15.69c.76,0,1.38-.62,1.38-1.38s-.62-1.38-1.38-1.38h-15.69Z"/>
      </g>
      <g>
        <path class="cls-2" d="M45.3,104.75c0,1.04.84,1.88,1.88,1.88h31.36c1.04,0,1.88-.84,1.88-1.88s-.84-1.88-1.88-1.88h-31.36c-1.04,0-1.88.84-1.88,1.88Z"/>
        <path class="cls-2" d="M78.54,107.13h-31.36c-1.31,0-2.38-1.07-2.38-2.38s1.07-2.38,2.38-2.38h31.36c1.31,0,2.38,1.07,2.38,2.38s-1.07,2.38-2.38,2.38ZM47.18,103.38c-.76,0-1.38.62-1.38,1.38s.62,1.38,1.38,1.38h31.36c.76,0,1.38-.62,1.38-1.38s-.62-1.38-1.38-1.38h-31.36Z"/>
      </g>
      <g>
        <path class="cls-2" d="M62.9,113.97c0,1.04.84,1.88,1.88,1.88h35.96c1.04,0,1.88-.84,1.88-1.88s-.84-1.88-1.88-1.88h-35.96c-1.04,0-1.88.84-1.88,1.88h0Z"/>
        <path class="cls-2" d="M100.73,116.35h-35.96c-1.31,0-2.38-1.07-2.38-2.38s1.07-2.38,2.38-2.38h35.96c1.31,0,2.38,1.07,2.38,2.38s-1.07,2.38-2.38,2.38ZM64.77,112.59c-.76,0-1.38.62-1.38,1.38s.62,1.38,1.38,1.38h35.96c.76,0,1.38-.62,1.38-1.38s-.62-1.38-1.38-1.38h-35.96Z"/>
      </g>
      <g>
        <path class="cls-2" d="M47.18,115.85h11.09c1.04,0,1.88-.84,1.88-1.88s-.84-1.88-1.88-1.88h-11.09c-1.04,0-1.88.84-1.88,1.88s.84,1.88,1.88,1.88Z"/>
        <path class="cls-2" d="M58.27,116.35h-11.09c-1.31,0-2.38-1.07-2.38-2.38s1.07-2.38,2.38-2.38h11.09c1.31,0,2.38,1.07,2.38,2.38s-1.07,2.38-2.38,2.38ZM47.18,112.59c-.76,0-1.38.62-1.38,1.38s.62,1.38,1.38,1.38h11.09c.76,0,1.38-.62,1.38-1.38s-.62-1.38-1.38-1.38h-11.09Z"/>
      </g>
      <g>
        <path class="cls-2" d="M47.18,125.07h53.56c1.04,0,1.88-.84,1.88-1.88s-.84-1.88-1.88-1.88h-53.56c-1.04,0-1.88.84-1.88,1.88s.84,1.88,1.88,1.88Z"/>
        <path class="cls-2" d="M100.73,125.57h-53.56c-1.31,0-2.38-1.07-2.38-2.38s1.07-2.38,2.38-2.38h53.56c1.31,0,2.38,1.07,2.38,2.38s-1.07,2.38-2.38,2.38ZM47.18,121.81c-.76,0-1.38.62-1.38,1.38s.62,1.38,1.38,1.38h53.56c.76,0,1.38-.62,1.38-1.38s-.62-1.38-1.38-1.38h-53.56Z"/>
      </g>
    </g>
    <circle class="cls-2" cx="118.75" cy="27.47" r="2.07"/>
    <circle class="cls-2" cx="50.39" cy="138.18" r="2.07"/>
  </g>
</svg>