<?xml version="1.0" encoding="UTF-8"?>
<svg id="Layer_2" xmlns="http://www.w3.org/2000/svg" viewBox="0 0 150 150">
  <defs>
    <style>
      .cls-1 {
        fill: none;
      }

      .cls-2, .cls-3 {
        fill: #ee9211;
      }

      .cls-3 {
        stroke: #ee9211;
        stroke-miterlimit: 10;
        stroke-width: 2px;
      }
    </style>
  </defs>
  <g id="img4">
    <rect class="cls-1" width="150" height="150"/>
    <g>
      <path class="cls-3" d="M23.41,102.35h5v8.92c0,.84.49,1.6,1.25,1.94.78.35,1.65.21,2.26-.33l12.26-10.53h23.4v16.92c0,2.04,1.66,3.69,3.69,3.69h4.16v7.55c0,.79.46,1.51,1.18,1.84.27.12.55.18.83.18.47,0,.94-.17,1.31-.5l10.57-9.08h26.71c2.04,0,3.7-1.66,3.7-3.69v-29.56c0-2.04-1.66-3.7-3.7-3.7h-36.85v-18.86h18.61l12.25,10.52c.65.57,1.52.68,2.27.34.76-.34,1.25-1.11,1.25-1.94v-8.92h5c2.24,0,4.07-1.83,4.07-4.07V28.93c0-2.25-1.83-4.07-4.07-4.07h-51.71c-2.24,0-4.07,1.83-4.07,4.07v31.13H23.41c-2.24,0-4.07,1.83-4.07,4.07v34.15c0,2.24,1.82,4.07,4.07,4.07h0ZM117.19,89.71v29.56c0,.63-.52,1.15-1.15,1.15h-27.18c-.31,0-.6.11-.83.31l-10.04,8.63v-7.66c0-.7-.57-1.27-1.27-1.27h-5.43c-.63,0-1.15-.52-1.15-1.15v-29.56c0-.63.52-1.15,1.15-1.15,7.02,0,43.55,0,44.76,0,.63,0,1.15.52,1.15,1.15ZM65.34,28.93c0-.84.68-1.53,1.53-1.53h51.71c.84,0,1.53.69,1.53,1.53v34.15c0,.84-.68,1.53-1.53,1.53h-6.28c-.7,0-1.27.57-1.27,1.27v9.28l-11.93-10.24c-.23-.2-.52-.31-.83-.31h-19.08v-.47c0-2.25-1.83-4.07-4.07-4.07h-9.77v-31.13h0ZM21.88,64.13c0-.84.68-1.53,1.53-1.53h51.71c.84,0,1.53.69,1.53,1.53v21.88h-5.36c-2.11,0-3.7,1.77-3.7,3.7v10.09h-23.86c-.31,0-.6.11-.83.31l-11.93,10.24v-9.28c0-.7-.57-1.27-1.27-1.27h-6.28c-.84,0-1.53-.69-1.53-1.53v-34.15h0Z"/>
      <path class="cls-3" d="M77.92,99.6c-.7,0-1.27.57-1.27,1.27s.57,1.27,1.27,1.27h31.47c.7,0,1.27-.57,1.27-1.27s-.57-1.27-1.27-1.27h-31.47Z"/>
      <path class="cls-3" d="M94.36,106.61h-16.44c-.7,0-1.27.57-1.27,1.27s.57,1.27,1.27,1.27h16.44c.7,0,1.27-.57,1.27-1.27s-.57-1.27-1.27-1.27Z"/>
      <path class="cls-3" d="M74.54,38h36.35c.7,0,1.27-.57,1.27-1.27s-.57-1.27-1.27-1.27h-36.35c-.7,0-1.27.57-1.27,1.27s.57,1.27,1.27,1.27Z"/>
      <path class="cls-3" d="M74.54,46.1h18.99c.7,0,1.27-.57,1.27-1.27s-.57-1.27-1.27-1.27h-18.99c-.7,0-1.27.57-1.27,1.27s.57,1.27,1.27,1.27Z"/>
      <path class="cls-3" d="M112.17,52.94c0-.7-.57-1.27-1.27-1.27h-36.35c-.7,0-1.27.57-1.27,1.27s.57,1.27,1.27,1.27h36.35c.7,0,1.27-.57,1.27-1.27h0Z"/>
      <path class="cls-3" d="M34.85,85.48c2.59,0,4.69-2.11,4.69-4.69s-2.1-4.69-4.69-4.69-4.69,2.11-4.69,4.69,2.11,4.69,4.69,4.69ZM34.85,78.64c1.18,0,2.15.96,2.15,2.15s-.96,2.15-2.15,2.15-2.15-.96-2.15-2.15.97-2.15,2.15-2.15Z"/>
      <path class="cls-3" d="M49.26,85.48c2.59,0,4.69-2.11,4.69-4.69s-2.1-4.69-4.69-4.69-4.69,2.11-4.69,4.69,2.11,4.69,4.69,4.69ZM49.26,78.64c1.18,0,2.15.96,2.15,2.15s-.96,2.15-2.15,2.15-2.15-.96-2.15-2.15.96-2.15,2.15-2.15Z"/>
      <path class="cls-3" d="M63.67,85.48c2.59,0,4.69-2.11,4.69-4.69s-2.11-4.69-4.69-4.69-4.69,2.11-4.69,4.69,2.11,4.69,4.69,4.69ZM63.67,78.64c1.18,0,2.15.96,2.15,2.15s-.96,2.15-2.15,2.15-2.15-.96-2.15-2.15.96-2.15,2.15-2.15Z"/>
    </g>
    <g>
      <path class="cls-2" d="M30.16,56.21c-.23,0-.46-.04-.68-.12-1.04-.38-1.58-1.52-1.2-2.56.24-.67.49-1.32.75-1.95.42-1.02,1.59-1.51,2.61-1.09,1.02.42,1.51,1.59,1.08,2.61-.24.58-.47,1.18-.69,1.78-.29.81-1.06,1.32-1.88,1.32Z"/>
      <path class="cls-2" d="M36.74,44.61c-.46,0-.92-.16-1.29-.47-.84-.71-.95-1.98-.23-2.82,1.03-1.22,2.16-2.38,3.35-3.46.82-.74,2.08-.68,2.83.14.74.82.68,2.08-.14,2.83-1.06.96-2.07,2-2.99,3.08-.4.47-.96.71-1.53.71ZM49.37,35.04c-.74,0-1.45-.41-1.8-1.12-.49-.99-.08-2.19.91-2.68,1.35-.66,2.8-1.31,4.31-1.91,1.02-.41,2.19.09,2.6,1.12.41,1.03-.09,2.19-1.12,2.6-1.42.56-2.77,1.16-4.02,1.78-.28.14-.59.21-.88.21Z"/>
      <path class="cls-2" d="M64.4,29.76c-.89,0-1.71-.6-1.94-1.51-.27-1.07.38-2.16,1.45-2.43.65-.17,1.31-.33,1.97-.49,1.07-.25,2.15.41,2.41,1.48.26,1.07-.41,2.15-1.48,2.41-.64.15-1.28.31-1.92.47-.17.04-.33.06-.49.06Z"/>
    </g>
    <g>
      <path class="cls-2" d="M127.47,60.97c-.72,0-1.42-.39-1.78-1.08-.28-.54-.59-1.1-.92-1.69-.55-.96-.21-2.18.75-2.73.96-.55,2.18-.21,2.73.75.36.63.69,1.24,1,1.83.51.98.12,2.19-.86,2.7-.29.15-.61.22-.92.22Z"/>
      <path class="cls-2" d="M130.01,92.76c-.13,0-.26-.01-.4-.04-1.08-.22-1.78-1.27-1.57-2.36.27-1.33.46-2.76.6-4.36.09-1.1,1.07-1.92,2.16-1.82,1.1.09,1.92,1.06,1.82,2.16-.15,1.75-.37,3.32-.67,4.81-.19.95-1.03,1.61-1.96,1.61ZM130.88,76.62c-1.09,0-1.99-.88-2-1.98-.02-1.87-.07-3.25-.17-4.48-.09-1.1.73-2.07,1.83-2.16,1.11-.1,2.07.73,2.16,1.83.11,1.33.17,2.8.19,4.76.01,1.1-.87,2.01-1.98,2.02h-.02Z"/>
      <path class="cls-2" d="M124.6,105.13c-.38,0-.77-.11-1.11-.34-.92-.61-1.17-1.86-.55-2.77.37-.55.71-1.09,1.04-1.62.58-.94,1.81-1.24,2.75-.66.94.58,1.24,1.81.66,2.75-.35.57-.72,1.16-1.12,1.75-.39.58-1.02.89-1.67.89Z"/>
    </g>
    <g>
      <path class="cls-2" d="M69.99,131.89c-.11,0-.22,0-.33-.03-.68-.11-1.36-.23-2.02-.35-1.08-.21-1.8-1.25-1.6-2.34.21-1.08,1.25-1.8,2.34-1.6.63.12,1.27.23,1.93.34,1.09.18,1.83,1.21,1.65,2.3-.16.98-1.01,1.68-1.97,1.68Z"/>
      <path class="cls-2" d="M59.6,129.42c-.21,0-.42-.03-.63-.1-1.17-.39-2.31-.81-3.39-1.26-1.02-.42-1.51-1.59-1.09-2.61.42-1.02,1.59-1.51,2.61-1.09,1,.41,2.05.8,3.13,1.16,1.05.35,1.62,1.48,1.27,2.53-.28.84-1.06,1.37-1.9,1.37ZM48.7,124.09c-.39,0-.79-.12-1.14-.35-1-.69-1.98-1.44-2.91-2.21-.85-.71-.96-1.97-.25-2.82.71-.85,1.97-.96,2.82-.25.84.7,1.72,1.37,2.62,1.99.91.63,1.14,1.87.51,2.78-.39.56-1.01.86-1.65.86Z"/>
      <path class="cls-2" d="M39.89,115.76c-.59,0-1.17-.26-1.56-.75-.43-.53-.85-1.08-1.27-1.65-.66-.89-.47-2.14.42-2.8s2.14-.47,2.8.42c.39.52.78,1.03,1.17,1.53.69.86.55,2.12-.31,2.81-.37.29-.81.44-1.25.44Z"/>
    </g>
  </g>
</svg>