<?xml version="1.0" encoding="UTF-8"?>
<svg id="Layer_2" xmlns="http://www.w3.org/2000/svg" viewBox="0 0 150 150">
  <defs>
    <style>
      .cls-1 {
        fill: none;
      }

      .cls-2 {
        fill: #ee9211;
      }
    </style>
  </defs>
  <g id="img4">
    <rect class="cls-1" width="150" height="150"/>
    <path class="cls-2" d="M13.74,74.41c0,23.67,13.39,45.31,34.58,55.86,1.03.51,2.28.09,2.79-.93,0,0,0,0,0,0l4.63-9.31c.51-1.03.09-2.28-.93-2.79-16.25-8.09-26.52-24.68-26.51-42.83-.03-9.43,2.76-18.65,8-26.49l7.17,7.17c.81.81,2.13.81,2.94,0,.39-.39.61-.92.61-1.47v-24.95c0-1.15-.93-2.08-2.08-2.08h-24.95c-1.15,0-2.08.93-2.08,2.08,0,.55.22,1.08.61,1.47l7.34,7.34c-7.91,10.69-12.16,23.64-12.11,36.94ZM17.9,74.41c-.05-13,4.3-25.63,12.34-35.85.65-.83.58-2.01-.17-2.75l-5.07-5.07h17.85v17.85l-5.36-5.36c-.81-.81-2.13-.81-2.94,0-.07.07-.14.15-.2.23-12.76,17.23-13.64,40.53-2.21,58.67,4.71,7.46,11.24,13.61,18.97,17.86l-2.78,5.59c-18.76-10.19-30.44-29.83-30.43-51.18Z"/>
    <path class="cls-2" d="M105.24,95.21v24.95c0,1.15.93,2.08,2.08,2.08h24.95c1.15,0,2.08-.93,2.08-2.08,0-.55-.22-1.08-.61-1.47l-7.34-7.34c15.18-20.67,16.17-48.52,2.5-70.21-6.1-9.67-14.74-17.48-24.98-22.59-1.03-.51-2.28-.1-2.79.93,0,0,0,0,0,0l-4.63,9.31c-.51,1.03-.09,2.28.93,2.79,16.25,8.09,26.52,24.68,26.51,42.83.03,9.43-2.76,18.65-8,26.49l-7.17-7.17c-.81-.81-2.13-.81-2.94,0-.39.39-.61.92-.61,1.47ZM109.4,100.23l5.36,5.36c.81.81,2.13.81,2.94,0,.07-.07.14-.15.2-.23,12.76-17.23,13.64-40.53,2.21-58.67-4.71-7.46-11.24-13.61-18.97-17.86l2.78-5.59c18.76,10.19,30.44,29.83,30.43,51.18.05,13-4.3,25.63-12.34,35.85-.65.83-.58,2.01.17,2.75l5.07,5.07h-17.85v-17.85Z"/>
    <path class="cls-2" d="M79.84,122.73c-.35.43-.51.98-.45,1.53l1.11,10.34c.11,1.06,1,1.86,2.07,1.86.07,0,.15,0,.22-.01,3.83-.41,7.62-1.17,11.31-2.28,1.1-.33,1.72-1.49,1.39-2.59l-2.99-9.96c-.33-1.1-1.49-1.72-2.59-1.39-2.83.85-5.73,1.43-8.67,1.74-.55.06-1.05.33-1.4.76ZM83.75,125.84c1.8-.27,3.59-.62,5.35-1.08l1.8,5.98c-2.14.56-4.3.99-6.49,1.3l-.67-6.21Z"/>
    <path class="cls-2" d="M57.65,131.87c-.31,1.1.33,2.25,1.43,2.57,0,0,0,0,0,0,3.71,1.05,7.51,1.75,11.34,2.1.06,0,.13,0,.19,0,1.07,0,1.97-.82,2.07-1.89l.95-10.35c.1-1.14-.74-2.16-1.88-2.26,0,0,0,0,0,0-2.94-.27-5.85-.81-8.69-1.61-1.1-.31-2.25.33-2.57,1.43l-2.84,10ZM62.23,130.97l1.71-6.01c1.77.42,3.56.76,5.37.99l-.57,6.22c-2.19-.28-4.36-.68-6.51-1.2Z"/>
    <path class="cls-2" d="M72.41,26.09c.35-.43.51-.98.45-1.53l-1.11-10.34c-.12-1.14-1.14-1.97-2.28-1.85,0,0,0,0,0,0-3.83.41-7.62,1.17-11.31,2.28-1.1.33-1.72,1.49-1.39,2.59l2.99,9.96c.33,1.1,1.49,1.72,2.59,1.39,0,0,0,0,0,0,2.83-.85,5.73-1.43,8.67-1.74.55-.06,1.05-.33,1.4-.76ZM68.5,22.98c-1.8.27-3.59.62-5.35,1.08l-1.8-5.98c2.14-.56,4.3-.99,6.49-1.3l.67,6.21Z"/>
    <path class="cls-2" d="M94.6,16.96c.31-1.1-.33-2.25-1.43-2.57h0c-3.71-1.05-7.51-1.75-11.34-2.1-1.14-.1-2.15.74-2.26,1.88l-.95,10.35c-.1,1.14.74,2.16,1.88,2.26,0,0,0,0,0,0,2.94.27,5.85.81,8.69,1.61,1.1.31,2.25-.33,2.57-1.43,0,0,0,0,0,0l2.84-10ZM90.02,17.86l-1.71,6.01c-1.77-.42-3.56-.76-5.37-.99l.57-6.22c2.19.28,4.36.68,6.51,1.2Z"/>
    <path class="cls-2" d="M92.76,109.76c4.59,0,8.31-3.73,8.32-8.32v-47.83c0-.55-.22-1.08-.61-1.47l-12.48-12.48c-.39-.39-.92-.61-1.47-.61h-27.03c-4.59,0-8.31,3.73-8.32,8.32v54.07c0,4.59,3.73,8.31,8.32,8.32h33.27ZM88.6,46.16l5.38,5.38h-5.38v-5.38ZM55.33,101.45v-54.07c0-2.3,1.86-4.16,4.16-4.16h24.95v10.4c0,1.15.93,2.08,2.08,2.08h10.4v45.75c0,2.3-1.86,4.16-4.16,4.16h-33.27c-2.3,0-4.16-1.86-4.16-4.16Z"/>
    <path class="cls-2" d="M59.49,47.38h8.32v4.16h-8.32v-4.16Z"/>
    <path class="cls-2" d="M63.65,59.86h20.79v4.16h-20.79v-4.16Z"/>
    <path class="cls-2" d="M88.6,59.86h4.16v4.16h-4.16v-4.16Z"/>
    <path class="cls-2" d="M84.44,76.49h8.32v4.16h-8.32v-4.16Z"/>
    <path class="cls-2" d="M59.49,76.49h20.79v4.16h-20.79v-4.16Z"/>
    <path class="cls-2" d="M76.12,68.17h16.64v4.16h-16.64v-4.16Z"/>
    <path class="cls-2" d="M59.49,68.17h12.48v4.16h-12.48v-4.16Z"/>
    <path class="cls-2" d="M59.49,84.81h16.64v4.16h-16.64v-4.16Z"/>
    <path class="cls-2" d="M80.49,84.81h8.11v4.16h-8.11v-4.16Z"/>
    <path class="cls-2" d="M82.57,93.13h8.11v4.16h-8.11v-4.16Z"/>
  </g>
</svg>