<?xml version="1.0" encoding="UTF-8"?>
<svg id="img4" xmlns="http://www.w3.org/2000/svg" viewBox="0 0 150 150">
  <defs>
    <style>
      .cls-1 {
        fill: none;
      }

      .cls-2 {
        fill: #ee9211;
      }
    </style>
  </defs>
  <rect class="cls-1" x="0" width="150" height="150"/>
  <g>
    <path class="cls-2" d="M95.98,32.8h-4c-1.1,0-2-.9-2-2s.9-2,2-2h4c1.1,0,2,.9,2,2s-.9,2-2,2Z"/>
    <path class="cls-2" d="M126.24,71.35c-1.1,0-2-.9-2-2v-7.96c0-1.1.9-2,2-2s2,.9,2,2v7.96c0,1.1-.9,2-2,2ZM126.24,55.43c-1.1,0-2-.9-2-2v-7.96c0-1.1.9-2,2-2s2,.9,2,2v7.96c0,1.1-.9,2-2,2ZM125.09,39.69c-.75,0-1.46-.42-1.81-1.14-.95-2-2.57-3.66-4.55-4.67-.98-.5-1.38-1.7-.88-2.69.5-.98,1.7-1.38,2.69-.88,2.76,1.4,5.02,3.72,6.35,6.52.47,1,.05,2.19-.95,2.66-.28.13-.57.19-.86.19ZM111.89,32.8h-7.95c-1.1,0-2-.9-2-2s.9-2,2-2h7.95c1.1,0,2,.9,2,2s-.9,2-2,2Z"/>
    <path class="cls-2" d="M126.24,83.28c-1.1,0-2-.9-2-2v-4c0-1.1.9-2,2-2s2,.9,2,2v4c0,1.1-.9,2-2,2Z"/>
  </g>
  <g>
    <path class="cls-2" d="M64.31,123.67h-4c-1.1,0-2-.9-2-2s.9-2,2-2h4c1.1,0,2,.9,2,2s-.9,2-2,2Z"/>
    <path class="cls-2" d="M51.82,123.67h-8.49c-1.1,0-2-.9-2-2s.9-2,2-2h8.49c1.1,0,2,.9,2,2s-.9,2-2,2ZM35.37,121.27c-.42,0-.84-.13-1.2-.4-2.67-2.01-4.55-4.89-5.28-8.13-.24-1.08.43-2.15,1.51-2.39,1.08-.25,2.15.43,2.39,1.51.52,2.31,1.86,4.37,3.78,5.81.88.66,1.06,1.92.4,2.8-.39.52-.99.8-1.6.8ZM30.56,105.83c-1.1,0-2-.9-2-2v-8.49c0-1.1.9-2,2-2s2,.9,2,2v8.49c0,1.1-.9,2-2,2ZM30.56,88.84c-1.1,0-2-.9-2-2v-8.49c0-1.1.9-2,2-2s2,.9,2,2v8.49c0,1.1-.9,2-2,2Z"/>
    <path class="cls-2" d="M30.56,71.89c-1.1,0-2-.9-2-2v-4c0-1.1.9-2,2-2s2,.9,2,2v4c0,1.1-.9,2-2,2Z"/>
  </g>
  <g>
    <g>
      <path class="cls-2" d="M47.2,65.27c1.86,5.46,9.74,5.46,11.58,0h30.93c1.35,0,2.45-1.09,2.45-2.45V16.45c.02-1.35-1.09-2.45-2.43-2.45h0s-1.94,0-1.94,0c-.08-.95-.85-1.7-1.82-1.7h-31.8c-.28,0-.53.06-.77.18-.24-.12-.49-.18-.77-.18h-31.78c-.97,0-1.74.75-1.82,1.7h-1.94c-1.35,0-2.45,1.09-2.45,2.45v45.22M54.46,14.43h31.19v45.08h-31.19V14.43ZM16.76,16.45c0-.18.14-.32.32-.32h1.92v43.4c-.75-.04-1.5-.06-2.24-.04V16.45ZM21.14,59.51V14.43h31.19v45.08h-9.52M90.04,62.81c0,.16-.16.32-.32.32h-32.65c-.46,5.5-7.7,5.5-8.17,0H15.21c-.06-.49-.12-.99-.2-1.46h37.62c.28,0,.51-.08.75-.16.24.1.49.18.77.18h31.8c.89,0,1.62-.63,1.8-1.46.26-.69-.12-43.44.04-44.05h1.92c.18,0,.32.14.32.32v46.32ZM57.11,22.25c0-.59.47-1.07,1.07-1.07h5.72c.59,0,1.07.47,1.07,1.07s-.47,1.07-1.07,1.07h-5.72c-.57,0-1.07-.47-1.07-1.07ZM83.02,22.25c0,.59-.47,1.07-1.07,1.07h-14.45c-.59,0-1.07-.47-1.07-1.07s.47-1.07,1.07-1.07h14.45c.59,0,1.07.47,1.07,1.07ZM83.02,29.61c0,.59-.47,1.07-1.07,1.07h-5.72c-.59,0-1.07-.47-1.07-1.07s.47-1.07,1.07-1.07h5.72c.59,0,1.07.47,1.07,1.07ZM57.11,29.61c0-.59.47-1.07,1.07-1.07h14.45c.59,0,1.07.47,1.07,1.07s-.47,1.07-1.07,1.07h-14.45c-.57,0-1.07-.47-1.07-1.07ZM57.11,36.99c0-.59.47-1.07,1.07-1.07h5.72c.59,0,1.07.47,1.07,1.07s-.47,1.07-1.07,1.07h-5.72c-.57,0-1.07-.49-1.07-1.07ZM83.02,36.99c0,.59-.47,1.07-1.07,1.07h-14.45c-.59,0-1.07-.47-1.07-1.07s.47-1.07,1.07-1.07h14.45c.59,0,1.07.47,1.07,1.07ZM57.11,44.35c0-.59.47-1.07,1.07-1.07h5.72c.59,0,1.07.47,1.07,1.07s-.47,1.07-1.07,1.07h-5.72c-.57,0-1.07-.47-1.07-1.07ZM83.02,44.35c0,.59-.47,1.07-1.07,1.07h-14.45c-.59,0-1.07-.47-1.07-1.07s.47-1.07,1.07-1.07h14.45c.59,0,1.07.47,1.07,1.07ZM83.02,51.71c0,.59-.47,1.07-1.07,1.07h-5.72c-.59,0-1.07-.47-1.07-1.07s.47-1.07,1.07-1.07h5.72c.59,0,1.07.49,1.07,1.07ZM73.69,51.71c0,.59-.47,1.07-1.07,1.07h-14.45c-.59,0-1.07-.47-1.07-1.07s.47-1.07,1.07-1.07h14.45c.59,0,1.07.49,1.07,1.07ZM23.79,22.23c0-.59.47-1.07,1.07-1.07h5.72c.59,0,1.07.47,1.07,1.07s-.47,1.07-1.07,1.07h-5.72c-.59,0-1.07-.47-1.07-1.07ZM48.6,23.3h-14.45c-1.39,0-1.4-2.14,0-2.14h14.45c1.4,0,1.4,2.14,0,2.14ZM42.88,30.66c-1.4,0-1.4-2.14,0-2.14h5.72c1.4,0,1.4,2.14,0,2.14h-5.72ZM40.37,29.59c0,.59-.47,1.07-1.07,1.07h-14.45c-.59,0-1.07-.47-1.07-1.07s.47-1.07,1.07-1.07h14.45c.59,0,1.07.49,1.07,1.07Z"/>
      <g>
        <path class="cls-2" d="M52.99,69.86c-2.89,0-5.35-1.74-6.27-4.44l.95-.32c.78,2.28,2.87,3.76,5.32,3.76h0c1.95,0,4.37-.99,5.3-3.76l.11-.34h31.29c1.08,0,1.95-.88,1.95-1.95V16.45c0-.52-.19-1-.55-1.37-.37-.37-.86-.58-1.38-.58h-2.4l-.04-.46c-.06-.71-.63-1.24-1.32-1.24-10.35,0-26.51,0-41.26,0h-23.86c-.69,0-1.26.53-1.32,1.24l-.04.46h-2.4c-1.08,0-1.95.88-1.95,1.95v45.22h-1V16.45c0-1.63,1.33-2.95,2.95-2.95h1.52c.28-1,1.17-1.7,2.24-1.7h23.86c14.75,0,30.91,0,41.26,0,1.06,0,1.96.71,2.24,1.7h1.52c.79,0,1.53.31,2.09.88.55.56.85,1.3.84,2.08v46.36c0,1.63-1.33,2.95-2.95,2.95h-30.58c-.99,2.5-3.36,4.09-6.12,4.1h-.01Z"/>
        <path class="cls-2" d="M86.15,60.01h-32.19V13.93h32.19v46.08ZM54.96,59.01h30.19V14.93h-30.19v44.08Z"/>
        <path class="cls-2" d="M19.5,60.06l-.53-.03c-.83-.04-1.55-.06-2.2-.04h-.51s0-43.54,0-43.54c0-.45.37-.82.82-.82h2.42v44.43ZM17.35,58.98c.36,0,.74,0,1.15.02V16.63h-1.24v42.35h.09Z"/>
        <polygon class="cls-2" points="52.82 60.01 42.81 60.01 42.81 59.01 51.82 59.01 51.82 14.93 21.64 14.93 21.64 59.51 20.64 59.51 20.64 13.93 52.82 13.93 52.82 60.01"/>
        <path class="cls-2" d="M52.99,67.76c-1.92,0-4.09-1.29-4.54-4.13H14.77l-.05-.44c-.06-.53-.12-.99-.19-1.44l-.1-.58h38.21c.19,0,.38-.06.59-.13l.18-.06.18.07c.23.1.41.14.58.14h31.8c.63,0,1.18-.45,1.31-1.07.13-.8.08-14.65.03-25.77-.06-14.14-.06-18.01.01-18.3l.1-.37h2.31c.46,0,.82.36.82.82v46.33c0,.44-.38.82-.82.82h-32.21c-.43,2.83-2.6,4.12-4.51,4.13,0,0,0,0,0,0ZM15.66,62.63h33.7l.04.46c.22,2.54,1.96,3.67,3.6,3.67,0,0,0,0,0,0,1.63,0,3.36-1.14,3.57-3.67l.04-.46h32.93V16.67h-1.26c-.03,1.85,0,9.88.03,17.67.08,20.56.07,25.67-.07,26.05-.21,1.01-1.17,1.79-2.27,1.79h-31.8c-.3,0-.58-.07-.79-.15-.22.07-.46.13-.74.13H15.6c.02.15.04.31.06.46Z"/>
        <path class="cls-2" d="M63.9,23.81h-5.72c-.78,0-1.42-.56-1.55-1.3h-.02v-.26c0-.87.7-1.57,1.57-1.57h5.72c.87,0,1.57.7,1.57,1.57s-.7,1.57-1.57,1.57ZM57.61,22.25c0,.31.26.57.57.57h5.72c.32,0,.57-.25.57-.57s-.25-.57-.57-.57h-5.72c-.32,0-.57.25-.57.57Z"/>
        <path class="cls-2" d="M81.95,23.81h-14.45c-.87,0-1.57-.7-1.57-1.57s.7-1.57,1.57-1.57h14.45c.78,0,1.42.56,1.55,1.31h.02v.26c0,.86-.7,1.57-1.57,1.57ZM67.5,21.68c-.32,0-.57.25-.57.57s.25.57.57.57h14.45c.32,0,.57-.25.57-.57s-.25-.57-.57-.57h-14.45Z"/>
        <path class="cls-2" d="M81.95,31.18h-5.72c-.87,0-1.57-.7-1.57-1.57s.7-1.57,1.57-1.57h5.72c.78,0,1.42.56,1.55,1.31h.02v.26c0,.86-.7,1.57-1.57,1.57ZM76.23,29.04c-.32,0-.57.25-.57.57s.25.57.57.57h5.72c.32,0,.57-.25.57-.57s-.25-.57-.57-.57h-5.72Z"/>
        <path class="cls-2" d="M72.63,31.18h-14.45c-.78,0-1.42-.56-1.55-1.3h-.02v-.26c0-.87.7-1.57,1.57-1.57h14.45c.87,0,1.57.7,1.57,1.57s-.7,1.57-1.57,1.57ZM57.61,29.61c0,.31.26.57.57.57h14.45c.32,0,.57-.25.57-.57s-.25-.57-.57-.57h-14.45c-.32,0-.57.25-.57.57Z"/>
        <path class="cls-2" d="M63.9,38.56h-5.72c-.76,0-1.42-.58-1.55-1.31h-.02v-.25c0-.86.7-1.57,1.57-1.57h5.72c.87,0,1.57.7,1.57,1.57s-.7,1.57-1.57,1.57ZM57.61,36.99c0,.3.27.57.57.57h5.72c.32,0,.57-.25.57-.57s-.25-.57-.57-.57h-5.72c-.32,0-.57.25-.57.57Z"/>
        <path class="cls-2" d="M81.95,38.56h-14.45c-.87,0-1.57-.7-1.57-1.57s.7-1.57,1.57-1.57h14.45c.78,0,1.42.56,1.55,1.3h.02v.26c0,.86-.7,1.57-1.57,1.57ZM67.5,36.42c-.32,0-.57.25-.57.57s.25.57.57.57h14.45c.32,0,.57-.25.57-.57s-.25-.57-.57-.57h-14.45Z"/>
        <path class="cls-2" d="M63.9,45.92h-5.72c-.78,0-1.42-.56-1.55-1.3h-.02v-.26c0-.86.7-1.57,1.57-1.57h5.72c.87,0,1.57.7,1.57,1.57s-.7,1.57-1.57,1.57ZM57.61,44.35c0,.31.26.57.57.57h5.72c.32,0,.57-.25.57-.57s-.25-.57-.57-.57h-5.72c-.32,0-.57.25-.57.57Z"/>
        <path class="cls-2" d="M81.95,45.92h-14.45c-.87,0-1.57-.7-1.57-1.57s.7-1.57,1.57-1.57h14.45c.78,0,1.42.56,1.55,1.3h.02v.26c0,.86-.7,1.57-1.57,1.57ZM67.5,43.78c-.32,0-.57.25-.57.57s.25.57.57.57h14.45c.32,0,.57-.25.57-.57s-.25-.57-.57-.57h-14.45Z"/>
        <path class="cls-2" d="M81.95,53.28h-5.72c-.87,0-1.57-.7-1.57-1.57s.7-1.57,1.57-1.57h5.72c.78,0,1.43.57,1.55,1.31h.02v.25c0,.86-.7,1.57-1.57,1.57ZM76.23,51.14c-.32,0-.57.25-.57.57s.25.57.57.57h5.72c.32,0,.57-.25.57-.57s-.26-.57-.57-.57h-5.72Z"/>
        <path class="cls-2" d="M72.63,53.28h-14.45c-.87,0-1.57-.7-1.57-1.57s.7-1.57,1.57-1.57h14.45c.78,0,1.43.57,1.55,1.31h.02v.25c0,.86-.7,1.57-1.57,1.57ZM58.18,51.14c-.32,0-.57.25-.57.57s.25.57.57.57h14.45c.32,0,.57-.25.57-.57s-.26-.57-.57-.57h-14.45Z"/>
        <path class="cls-2" d="M30.58,23.8h-5.72c-.78,0-1.42-.56-1.55-1.31h-.02v-.26c0-.86.7-1.57,1.57-1.57h5.72c.87,0,1.57.7,1.57,1.57s-.7,1.57-1.57,1.57ZM24.29,22.23c0,.32.25.57.57.57h5.72c.32,0,.57-.25.57-.57s-.25-.57-.57-.57h-5.72c-.32,0-.57.25-.57.57Z"/>
        <path class="cls-2" d="M49.23,23.8h-15.07c-1,0-1.55-.81-1.55-1.57s.53-1.56,1.55-1.56h14.45c1.02,0,1.55.79,1.55,1.57,0,.6-.32,1.21-.93,1.45v.11ZM34.16,21.66c-.52,0-.55.47-.55.56s.03.57.55.57h14.45c.53,0,.55-.47.55-.57s-.03-.57-.55-.57h-14.45Z"/>
        <path class="cls-2" d="M48.6,31.16h-5.72c-1.02,0-1.55-.79-1.55-1.57s.53-1.57,1.55-1.57h5.72c1.02,0,1.55.79,1.55,1.57s-.53,1.57-1.55,1.57ZM42.88,29.02c-.53,0-.55.47-.55.57s.03.57.55.57h5.72c.53,0,.55-.47.55-.57s-.03-.57-.55-.57h-5.72Z"/>
        <path class="cls-2" d="M39.3,31.16h-14.45c-.87,0-1.57-.7-1.57-1.57s.7-1.57,1.57-1.57h14.45c.78,0,1.43.57,1.55,1.31h.02v.25c0,.86-.7,1.57-1.57,1.57ZM24.86,29.02c-.32,0-.57.25-.57.57s.25.57.57.57h14.45c.32,0,.57-.25.57-.57s-.26-.57-.57-.57h-14.45Z"/>
      </g>
    </g>
    <g>
      <path class="cls-2" d="M92.16,61.79V16.57c0-1.37-1.11-2.45-2.45-2.45h-1.94c-.08-.95-.85-1.7-1.82-1.7h-31.78c-.28,0-.53.06-.77.18-.24-.12-.49-.18-.77-.18h-31.8c-.97,0-1.74.75-1.82,1.7h-1.94c-1.35,0-2.45,1.11-2.43,2.45v46.36c0,1.37,1.11,2.45,2.45,2.45h30.93c1.84,5.46,9.72,5.46,11.58,0M52.32,59.63h-31.19V14.55h31.19v45.08ZM90.02,59.62c-.73-.02-1.48,0-2.24.04V16.26h1.92c.18,0,.32.14.32.32v43.04ZM63.98,59.63h-9.52V14.55h31.19v45.08M16.74,16.61c0-.18.14-.32.32-.32h1.92c.16.61-.22,43.36.04,44.05.18.83.91,1.46,1.8,1.46h31.8c.28,0,.53-.08.77-.18.24.08.47.16.75.16h37.62c-.08.47-.14.97-.2,1.46h-33.69c-.47,5.5-7.72,5.5-8.17,0H17.06c-.16,0-.32-.16-.32-.32V16.61ZM48.6,23.44h-5.72c-.59,0-1.07-.47-1.07-1.07,0-.59.47-1.07,1.07-1.07h5.72c.59,0,1.07.47,1.07,1.07,0,.59-.49,1.07-1.07,1.07ZM24.84,21.3h14.45c.59,0,1.07.47,1.07,1.07,0,.59-.47,1.07-1.07,1.07h-14.45c-.59,0-1.07-.47-1.07-1.07,0-.59.47-1.07,1.07-1.07ZM24.84,28.66h5.72c.59,0,1.07.47,1.07,1.07,0,.59-.47,1.07-1.07,1.07h-5.72c-.59,0-1.07-.47-1.07-1.07s.47-1.07,1.07-1.07ZM48.6,30.8h-14.45c-.59,0-1.07-.47-1.07-1.07s.47-1.07,1.07-1.07h14.45c.59,0,1.07.47,1.07,1.07,0,.59-.49,1.07-1.07,1.07ZM48.6,38.18h-5.72c-.59,0-1.07-.47-1.07-1.07,0-.59.47-1.07,1.07-1.07h5.72c.59,0,1.07.47,1.07,1.07s-.49,1.07-1.07,1.07ZM24.84,36.04h14.45c.59,0,1.07.47,1.07,1.07,0,.59-.47,1.07-1.07,1.07h-14.45c-.59,0-1.07-.47-1.07-1.07,0-.59.47-1.07,1.07-1.07ZM48.6,45.54h-5.72c-.59,0-1.07-.47-1.07-1.07,0-.59.47-1.07,1.07-1.07h5.72c.59,0,1.07.47,1.07,1.07,0,.59-.49,1.07-1.07,1.07ZM24.84,43.41h14.45c.59,0,1.07.47,1.07,1.07,0,.59-.47,1.07-1.07,1.07h-14.45c-.59,0-1.07-.47-1.07-1.07,0-.59.47-1.07,1.07-1.07ZM24.84,50.77h5.72c.59,0,1.07.47,1.07,1.07s-.47,1.07-1.07,1.07h-5.72c-.59,0-1.07-.47-1.07-1.07,0-.57.47-1.07,1.07-1.07ZM34.16,50.77h14.45c.59,0,1.07.47,1.07,1.07s-.47,1.07-1.07,1.07h-14.45c-.59,0-1.07-.47-1.07-1.07,0-.57.47-1.07,1.07-1.07ZM81.93,23.42h-5.72c-.59,0-1.07-.47-1.07-1.07,0-.59.47-1.07,1.07-1.07h5.72c.59,0,1.07.47,1.07,1.07,0,.59-.47,1.07-1.07,1.07ZM58.18,21.28h14.45c1.4,0,1.39,2.14,0,2.14h-14.45c-1.4,0-1.4-2.14,0-2.14ZM58.18,30.78c-1.4,0-1.4-2.14,0-2.14h5.72c1.4,0,1.4,2.14,0,2.14h-5.72ZM67.48,28.64h14.45c.59,0,1.07.47,1.07,1.07,0,.59-.47,1.07-1.07,1.07h-14.45c-.59,0-1.07-.47-1.07-1.07,0-.57.47-1.07,1.07-1.07Z"/>
      <g>
        <path class="cls-2" d="M53.79,69.99s0,0-.01,0c-2.76,0-5.13-1.6-6.12-4.1h-30.58c-1.63,0-2.95-1.33-2.95-2.95V16.57c-.01-.77.29-1.51.84-2.07.56-.57,1.3-.88,2.09-.88h1.52c.28-1,1.17-1.7,2.24-1.7h22.76c15.04,0,31.75,0,42.36,0,1.06,0,1.96.71,2.24,1.7h1.52c1.63,0,2.95,1.33,2.95,2.95v45.22h-1V16.57c0-1.08-.88-1.95-1.95-1.95h-2.4l-.04-.46c-.06-.71-.63-1.24-1.32-1.24-10.61,0-27.31,0-42.36,0h-22.76c-.69,0-1.26.53-1.32,1.24l-.04.46h-2.4c-.52,0-1.01.21-1.38.58-.36.37-.56.85-.55,1.37v46.37c0,1.08.88,1.95,1.95,1.95h31.29l.11.34c.93,2.76,3.35,3.75,5.3,3.76,0,0,0,0,0,0,2.46,0,4.54-1.47,5.32-3.76l.95.32c-.92,2.7-3.38,4.44-6.27,4.44Z"/>
        <path class="cls-2" d="M52.82,60.13H20.64V14.05h32.19v46.08ZM21.64,59.13h30.19V15.05h-30.19v44.08Z"/>
        <path class="cls-2" d="M87.29,60.18V15.76h2.42c.46,0,.82.36.82.82v43.56h-.51c-.64-.03-1.36-.02-2.2.03l-.53.03ZM88.29,16.76v42.38c.44-.02.85-.03,1.24-.02V16.76h-1.24Z"/>
        <polygon class="cls-2" points="63.98 60.13 53.96 60.13 53.96 14.05 86.15 14.05 86.15 59.63 85.15 59.63 85.15 15.05 54.96 15.05 54.96 59.13 63.98 59.13 63.98 60.13"/>
        <path class="cls-2" d="M53.79,67.88s0,0,0,0c-1.92,0-4.08-1.3-4.51-4.13H17.06c-.43,0-.82-.38-.82-.82V16.61c0-.46.36-.82.82-.82h2.31l.1.38c.08.29.07,4.15.01,18.25-.04,11.14-.1,25.01.03,25.81.14.63.69,1.08,1.31,1.08h31.8c.17,0,.35-.04.58-.14l.17-.07.18.06c.22.07.4.13.59.13h38.21l-.1.58c-.08.47-.14.95-.2,1.44l-.05.44h-33.69c-.44,2.83-2.62,4.13-4.54,4.13ZM17.24,62.75h32.93l.04.46c.21,2.53,1.95,3.66,3.57,3.67,0,0,0,0,0,0,1.63,0,3.38-1.13,3.6-3.67l.04-.46h33.7c.02-.16.04-.31.06-.46h-37.04c-.28,0-.52-.06-.74-.13-.21.08-.48.15-.79.15h-31.8c-1.09,0-2.06-.78-2.29-1.86-.12-.31-.13-5.43-.05-26.03.03-7.73.06-15.69.02-17.62h-1.26v45.96Z"/>
        <path class="cls-2" d="M48.61,23.94h-5.72c-1.02-.01-1.55-.8-1.55-1.57s.53-1.55,1.55-1.57h5.73c1.02.02,1.55.8,1.55,1.56,0,.77-.53,1.56-1.54,1.58h0ZM48.6,21.8h-5.71c-.53,0-.55.47-.55.57s.03.56.56.57h5.71c.53-.01.56-.48.56-.58s-.03-.55-.56-.56Z"/>
        <path class="cls-2" d="M24.84,23.94c-1.02-.01-1.55-.8-1.55-1.57,0-.77.53-1.55,1.55-1.57h14.45c1.02.01,1.55.8,1.55,1.57,0,.77-.53,1.55-1.55,1.57h-14.45ZM24.84,21.8c-.53,0-.56.47-.56.57s.03.56.56.57h14.44c.53,0,.55-.47.55-.57s-.03-.56-.56-.57h-14.43Z"/>
        <path class="cls-2" d="M24.84,31.3c-1.02-.01-1.55-.8-1.55-1.57s.53-1.55,1.55-1.57h5.73c1.02.01,1.55.8,1.55,1.57s-.53,1.55-1.55,1.57h-5.73ZM24.84,29.16c-.53,0-.56.47-.56.57s.03.56.56.57h5.71c.53,0,.55-.47.55-.57s-.03-.56-.56-.57h-5.71Z"/>
        <path class="cls-2" d="M48.61,31.3h-14.45c-1.02-.01-1.55-.8-1.55-1.57,0-.77.53-1.55,1.55-1.57h14.45c1.02.02,1.55.8,1.55,1.56,0,.77-.53,1.56-1.54,1.58h0ZM48.6,29.16h-14.44c-.53,0-.55.47-.55.57s.03.56.56.57h14.43c.53-.01.56-.48.56-.57,0-.09-.03-.55-.56-.56Z"/>
        <path class="cls-2" d="M48.61,38.68h-5.73c-.87,0-1.57-.7-1.57-1.57s.7-1.57,1.57-1.57h5.72c1.02.02,1.55.79,1.55,1.55,0,.77-.52,1.56-1.54,1.59h0ZM48.59,36.54h-5.71c-.32,0-.57.25-.57.57s.25.57.57.57h5.71c.55-.02.56-.52.56-.58,0-.09-.03-.55-.56-.55Z"/>
        <path class="cls-2" d="M24.84,38.68c-1.02-.01-1.55-.8-1.55-1.57,0-.77.53-1.55,1.55-1.57h14.45c1.02.01,1.55.8,1.55,1.57,0,.77-.53,1.55-1.55,1.57h-14.45ZM24.84,36.54c-.53,0-.56.47-.56.57s.03.56.56.57h14.44c.53,0,.55-.47.55-.57s-.03-.56-.56-.57h-14.43Z"/>
        <path class="cls-2" d="M48.61,46.04h-5.72c-1.02-.01-1.55-.8-1.55-1.57s.53-1.55,1.55-1.57h5.73c1.02.02,1.55.8,1.55,1.56,0,.77-.53,1.56-1.54,1.58h0ZM48.59,43.91h-5.71c-.53,0-.55.47-.55.57s.03.56.56.57h5.71c.53-.01.56-.48.56-.57s-.03-.55-.56-.56Z"/>
        <path class="cls-2" d="M24.84,46.04c-1.02-.01-1.55-.8-1.55-1.57,0-.77.53-1.55,1.55-1.57h14.45c1.02.01,1.55.8,1.55,1.57,0,.77-.53,1.55-1.55,1.57h-14.45ZM24.84,43.91c-.53,0-.56.47-.56.57s.03.56.56.57h14.44c.53,0,.55-.47.55-.57s-.03-.56-.56-.57h-14.43Z"/>
        <path class="cls-2" d="M30.56,53.4h-5.72c-1.02-.01-1.55-.79-1.55-1.56,0-.77.52-1.56,1.54-1.58h5.73c.87,0,1.57.7,1.57,1.57s-.7,1.57-1.57,1.57ZM24.84,51.27c-.54.02-.56.48-.56.58,0,.09.03.55.56.56h5.71c.32,0,.57-.25.57-.57s-.25-.57-.57-.57h-5.71Z"/>
        <path class="cls-2" d="M34.16,53.4c-1.02-.01-1.55-.79-1.55-1.56,0-.77.52-1.56,1.54-1.58h14.46c1.02.01,1.55.8,1.55,1.57,0,.77-.53,1.55-1.55,1.57h-14.45ZM34.16,51.27c-.54.02-.56.48-.56.57,0,.09.03.56.56.56h14.44c.53,0,.55-.47.55-.57s-.03-.56-.56-.57h-14.43Z"/>
        <path class="cls-2" d="M81.93,23.92h-5.72c-1.02-.01-1.55-.8-1.55-1.57,0-.77.53-1.55,1.55-1.57h5.73c1.02.01,1.55.8,1.55,1.57s-.53,1.55-1.55,1.57h0ZM81.92,21.78h-5.71c-.53,0-.55.47-.55.57s.03.56.56.57h5.71c.53,0,.56-.47.56-.57s-.03-.56-.56-.57Z"/>
        <path class="cls-2" d="M72.63,23.92h-14.45c-1.02,0-1.55-.79-1.55-1.57,0-.6.32-1.21.93-1.45v-.11h15.07c1.01,0,1.55.79,1.55,1.56s-.54,1.57-1.55,1.57ZM58.18,21.78c-.53,0-.55.47-.55.57s.03.57.55.57h14.45c.52,0,.55-.48.55-.57s-.03-.56-.55-.56h-14.45Z"/>
        <path class="cls-2" d="M63.9,31.28h-5.72c-1.02,0-1.55-.79-1.55-1.57s.53-1.57,1.55-1.57h5.72c1.02,0,1.55.79,1.55,1.57s-.53,1.57-1.55,1.57ZM58.18,29.14c-.53,0-.55.47-.55.57s.03.57.55.57h5.72c.53,0,.55-.47.55-.57s-.03-.57-.55-.57h-5.72Z"/>
        <path class="cls-2" d="M67.48,31.28c-1.02-.01-1.55-.79-1.55-1.56,0-.77.52-1.56,1.54-1.58h14.46c1.02.01,1.55.8,1.55,1.57,0,.77-.53,1.55-1.55,1.57h-14.45ZM67.49,29.14c-.54.02-.56.48-.56.57,0,.09.03.56.56.56h14.44c.53,0,.55-.47.55-.57,0-.09-.03-.56-.56-.57h-14.43Z"/>
      </g>
    </g>
  </g>
  <g>
    <g>
      <path class="cls-2" d="M97.21,134.16c1.86,5.46,9.74,5.46,11.58,0h30.93c1.35,0,2.45-1.09,2.45-2.45v-46.36c.02-1.35-1.09-2.45-2.43-2.45h0s-1.94,0-1.94,0c-.08-.95-.85-1.7-1.82-1.7h-31.8c-.28,0-.53.06-.77.18-.24-.12-.49-.18-.77-.18h-31.78c-.97,0-1.74.75-1.82,1.7h-1.94c-1.35,0-2.45,1.09-2.45,2.45v45.22M104.47,83.32h31.19v45.08h-31.19v-45.08ZM66.77,85.34c0-.18.14-.32.32-.32h1.92v43.4c-.75-.04-1.5-.06-2.24-.04v-43.04ZM71.14,128.4v-45.08h31.19v45.08h-9.52M140.05,131.7c0,.16-.16.32-.32.32h-32.65c-.46,5.5-7.7,5.5-8.17,0h-33.69c-.06-.49-.12-.99-.2-1.46h37.62c.28,0,.51-.08.75-.16.24.1.49.18.77.18h31.8c.89,0,1.62-.63,1.8-1.46.26-.69-.12-43.44.04-44.05h1.92c.18,0,.32.14.32.32v46.32ZM107.12,91.14c0-.59.47-1.07,1.07-1.07h5.72c.59,0,1.07.47,1.07,1.07s-.47,1.07-1.07,1.07h-5.72c-.57,0-1.07-.47-1.07-1.07ZM133.02,91.14c0,.59-.47,1.07-1.07,1.07h-14.45c-.59,0-1.07-.47-1.07-1.07s.47-1.07,1.07-1.07h14.45c.59,0,1.07.47,1.07,1.07ZM133.02,98.5c0,.59-.47,1.07-1.07,1.07h-5.72c-.59,0-1.07-.47-1.07-1.07s.47-1.07,1.07-1.07h5.72c.59,0,1.07.47,1.07,1.07ZM107.12,98.5c0-.59.47-1.07,1.07-1.07h14.45c.59,0,1.07.47,1.07,1.07s-.47,1.07-1.07,1.07h-14.45c-.57,0-1.07-.47-1.07-1.07ZM107.12,105.88c0-.59.47-1.07,1.07-1.07h5.72c.59,0,1.07.47,1.07,1.07s-.47,1.07-1.07,1.07h-5.72c-.57,0-1.07-.49-1.07-1.07ZM133.02,105.88c0,.59-.47,1.07-1.07,1.07h-14.45c-.59,0-1.07-.47-1.07-1.07s.47-1.07,1.07-1.07h14.45c.59,0,1.07.47,1.07,1.07ZM107.12,113.24c0-.59.47-1.07,1.07-1.07h5.72c.59,0,1.07.47,1.07,1.07s-.47,1.07-1.07,1.07h-5.72c-.57,0-1.07-.47-1.07-1.07ZM133.02,113.24c0,.59-.47,1.07-1.07,1.07h-14.45c-.59,0-1.07-.47-1.07-1.07s.47-1.07,1.07-1.07h14.45c.59,0,1.07.47,1.07,1.07ZM133.02,120.6c0,.59-.47,1.07-1.07,1.07h-5.72c-.59,0-1.07-.47-1.07-1.07s.47-1.07,1.07-1.07h5.72c.59,0,1.07.49,1.07,1.07ZM123.7,120.6c0,.59-.47,1.07-1.07,1.07h-14.45c-.59,0-1.07-.47-1.07-1.07s.47-1.07,1.07-1.07h14.45c.59,0,1.07.49,1.07,1.07ZM73.8,91.12c0-.59.47-1.07,1.07-1.07h5.72c.59,0,1.07.47,1.07,1.07s-.47,1.07-1.07,1.07h-5.72c-.59,0-1.07-.47-1.07-1.07ZM98.61,92.19h-14.45c-1.39,0-1.4-2.14,0-2.14h14.45c1.4,0,1.4,2.14,0,2.14ZM92.89,99.55c-1.4,0-1.4-2.14,0-2.14h5.72c1.4,0,1.4,2.14,0,2.14h-5.72ZM90.38,98.48c0,.59-.47,1.07-1.07,1.07h-14.45c-.59,0-1.07-.47-1.07-1.07s.47-1.07,1.07-1.07h14.45c.59,0,1.07.49,1.07,1.07Z"/>
      <g>
        <path class="cls-2" d="M103,138.75c-2.89,0-5.35-1.74-6.27-4.44l.95-.32c.78,2.28,2.87,3.76,5.32,3.76,0,0,0,0,0,0,1.95,0,4.37-.99,5.3-3.76l.11-.34h31.29c1.08,0,1.95-.88,1.95-1.95v-46.36c0-.52-.19-1-.55-1.37-.37-.38-.86-.58-1.38-.58h-2.4l-.04-.46c-.06-.71-.63-1.24-1.32-1.24-10.41,0-26.67,0-41.49,0h-23.64c-.69,0-1.26.53-1.32,1.24l-.04.46h-2.4c-1.08,0-1.95.88-1.95,1.95v45.22h-1v-45.22c0-1.63,1.33-2.95,2.95-2.95h1.52c.28-1,1.17-1.7,2.24-1.7h23.64c14.81,0,31.08,0,41.49,0,1.06,0,1.96.71,2.24,1.7h1.52c.79,0,1.53.31,2.09.88.55.56.85,1.3.84,2.08v46.36c0,1.63-1.33,2.95-2.95,2.95h-30.58c-.99,2.5-3.36,4.09-6.12,4.1,0,0,0,0-.01,0Z"/>
        <path class="cls-2" d="M136.15,128.9h-32.19v-46.08h32.19v46.08ZM104.97,127.9h30.19v-44.08h-30.19v44.08Z"/>
        <path class="cls-2" d="M69.51,128.95l-.53-.03c-.83-.04-1.54-.06-2.2-.04h-.51s0-43.54,0-43.54c0-.46.36-.82.82-.82h2.42v44.43ZM67.36,127.87c.36,0,.74,0,1.15.02v-42.38h-1.24v42.35s.06,0,.09,0Z"/>
        <polygon class="cls-2" points="102.83 128.9 92.81 128.9 92.81 127.9 101.83 127.9 101.83 83.82 71.64 83.82 71.64 128.4 70.64 128.4 70.64 82.82 102.83 82.82 102.83 128.9"/>
        <path class="cls-2" d="M103,136.65c-1.92,0-4.09-1.29-4.54-4.13h-33.69l-.05-.44c-.06-.49-.12-.97-.19-1.44l-.1-.58h38.21c.2,0,.38-.06.59-.13l.18-.06.17.07c.23.1.41.14.58.14h31.8c.63,0,1.18-.45,1.31-1.07.13-.81.08-14.69.03-25.85-.06-14.08-.06-17.93.01-18.22l.1-.38h2.31c.46,0,.82.36.82.82v46.32c0,.44-.38.82-.82.82h-32.21c-.43,2.83-2.6,4.12-4.52,4.13h0ZM65.66,131.52h33.7l.04.46c.22,2.54,1.96,3.67,3.6,3.67h0c1.63,0,3.37-1.14,3.58-3.67l.04-.46h32.93v-45.96h-1.26c-.03,1.85,0,9.84.03,17.6.08,20.62.07,25.75-.07,26.13-.21,1.01-1.17,1.79-2.27,1.79h-31.8c-.3,0-.58-.07-.79-.15-.22.07-.46.13-.74.13h-37.04c.02.15.04.31.06.46Z"/>
        <path class="cls-2" d="M113.91,92.71h-5.72c-.78,0-1.42-.56-1.55-1.31h-.02v-.26c0-.86.7-1.57,1.57-1.57h5.72c.87,0,1.57.7,1.57,1.57s-.7,1.57-1.57,1.57ZM107.62,91.14c0,.31.26.57.57.57h5.72c.32,0,.57-.25.57-.57s-.25-.57-.57-.57h-5.72c-.32,0-.57.25-.57.57Z"/>
        <path class="cls-2" d="M131.95,92.71h-14.45c-.87,0-1.57-.7-1.57-1.57s.7-1.57,1.57-1.57h14.45c.78,0,1.42.56,1.55,1.3h.02v.26c0,.87-.7,1.57-1.57,1.57ZM117.51,90.57c-.32,0-.57.25-.57.57s.25.57.57.57h14.45c.32,0,.57-.25.57-.57s-.25-.57-.57-.57h-14.45Z"/>
        <path class="cls-2" d="M131.95,100.07h-5.72c-.87,0-1.57-.7-1.57-1.57s.7-1.57,1.57-1.57h5.72c.78,0,1.42.56,1.55,1.3h.02v.26c0,.87-.7,1.57-1.57,1.57ZM126.24,97.93c-.32,0-.57.25-.57.57s.25.57.57.57h5.72c.32,0,.57-.25.57-.57s-.25-.57-.57-.57h-5.72Z"/>
        <path class="cls-2" d="M122.63,100.07h-14.45c-.78,0-1.42-.56-1.55-1.31h-.02v-.26c0-.86.7-1.57,1.57-1.57h14.45c.87,0,1.57.7,1.57,1.57s-.7,1.57-1.57,1.57ZM107.62,98.5c0,.31.26.57.57.57h14.45c.32,0,.57-.25.57-.57s-.25-.57-.57-.57h-14.45c-.32,0-.57.25-.57.57Z"/>
        <path class="cls-2" d="M113.91,107.45h-5.72c-.76,0-1.42-.58-1.55-1.31h-.02v-.25c0-.87.7-1.57,1.57-1.57h5.72c.87,0,1.57.7,1.57,1.57s-.7,1.57-1.57,1.57ZM107.62,105.88c0,.3.27.57.57.57h5.72c.32,0,.57-.25.57-.57s-.25-.57-.57-.57h-5.72c-.32,0-.57.25-.57.57Z"/>
        <path class="cls-2" d="M131.95,107.45h-14.45c-.87,0-1.57-.7-1.57-1.57s.7-1.57,1.57-1.57h14.45c.78,0,1.42.56,1.55,1.31h.02v.26c0,.86-.7,1.57-1.57,1.57ZM117.51,105.31c-.32,0-.57.25-.57.57s.25.57.57.57h14.45c.32,0,.57-.25.57-.57s-.25-.57-.57-.57h-14.45Z"/>
        <path class="cls-2" d="M113.91,114.81h-5.72c-.78,0-1.42-.56-1.55-1.3h-.02v-.26c0-.87.7-1.57,1.57-1.57h5.72c.87,0,1.57.7,1.57,1.57s-.7,1.57-1.57,1.57ZM107.62,113.24c0,.31.26.57.57.57h5.72c.32,0,.57-.25.57-.57s-.25-.57-.57-.57h-5.72c-.32,0-.57.25-.57.57Z"/>
        <path class="cls-2" d="M131.95,114.81h-14.45c-.87,0-1.57-.7-1.57-1.57s.7-1.57,1.57-1.57h14.45c.78,0,1.42.56,1.55,1.31h.02v.26c0,.86-.7,1.57-1.57,1.57ZM117.51,112.67c-.32,0-.57.25-.57.57s.25.57.57.57h14.45c.32,0,.57-.25.57-.57s-.25-.57-.57-.57h-14.45Z"/>
        <path class="cls-2" d="M131.95,122.17h-5.72c-.87,0-1.57-.7-1.57-1.57s.7-1.57,1.57-1.57h5.72c.78,0,1.43.57,1.55,1.31h.02v.25c0,.87-.7,1.57-1.57,1.57ZM126.24,120.03c-.32,0-.57.25-.57.57s.25.57.57.57h5.72c.32,0,.57-.25.57-.57s-.26-.57-.57-.57h-5.72Z"/>
        <path class="cls-2" d="M122.63,122.17h-14.45c-.87,0-1.57-.7-1.57-1.57s.7-1.57,1.57-1.57h14.45c.78,0,1.43.57,1.55,1.31h.02v.25c0,.87-.7,1.57-1.57,1.57ZM108.19,120.03c-.32,0-.57.25-.57.57s.25.57.57.57h14.45c.32,0,.57-.25.57-.57s-.26-.57-.57-.57h-14.45Z"/>
        <path class="cls-2" d="M80.58,92.69h-5.72c-.78,0-1.42-.56-1.55-1.3h-.02v-.26c0-.87.7-1.57,1.57-1.57h5.72c.87,0,1.57.7,1.57,1.57s-.7,1.57-1.57,1.57ZM74.3,91.12c0,.32.25.57.57.57h5.72c.32,0,.57-.25.57-.57s-.25-.57-.57-.57h-5.72c-.32,0-.57.25-.57.57Z"/>
        <path class="cls-2" d="M99.24,92.69h-15.07c-1,0-1.55-.81-1.55-1.57s.53-1.56,1.55-1.56h14.45c1.02,0,1.55.79,1.55,1.57,0,.6-.32,1.21-.93,1.45v.11ZM84.16,90.55c-.52,0-.55.47-.55.56s.03.57.55.57h14.45c.53,0,.55-.47.55-.57s-.03-.57-.55-.57h-14.45Z"/>
        <path class="cls-2" d="M98.61,100.05h-5.72c-1.02,0-1.55-.79-1.55-1.57s.53-1.57,1.55-1.57h5.72c1.02,0,1.55.79,1.55,1.57s-.53,1.57-1.55,1.57ZM92.89,97.91c-.53,0-.55.47-.55.57s.03.57.55.57h5.72c.53,0,.55-.47.55-.57s-.03-.57-.55-.57h-5.72Z"/>
        <path class="cls-2" d="M89.31,100.05h-14.45c-.87,0-1.57-.7-1.57-1.57s.7-1.57,1.57-1.57h14.45c.78,0,1.43.57,1.55,1.31h.02v.26c0,.86-.7,1.57-1.57,1.57ZM74.86,97.91c-.32,0-.57.25-.57.57s.25.57.57.57h14.45c.32,0,.57-.25.57-.57s-.26-.57-.57-.57h-14.45Z"/>
      </g>
    </g>
    <g>
      <path class="cls-2" d="M142.16,130.68v-45.22c0-1.37-1.11-2.45-2.45-2.45h-1.94c-.08-.95-.85-1.7-1.82-1.7h-31.78c-.28,0-.53.06-.77.18-.24-.12-.49-.18-.77-.18h-31.8c-.97,0-1.74.75-1.82,1.7h-1.94c-1.35,0-2.45,1.11-2.43,2.45v46.36c0,1.37,1.11,2.45,2.45,2.45h30.93c1.84,5.46,9.72,5.46,11.58,0M102.33,128.52h-31.19v-45.08h31.19v45.08ZM140.03,128.51c-.73-.02-1.48,0-2.24.04v-43.4h1.92c.18,0,.32.14.32.32v43.04ZM113.99,128.52h-9.52v-45.08h31.19v45.08M66.75,85.5c0-.18.14-.32.32-.32h1.92c.16.61-.22,43.36.04,44.05.18.83.91,1.46,1.8,1.46h31.8c.28,0,.53-.08.77-.18.24.08.47.16.75.16h37.62c-.08.47-.14.97-.2,1.46h-33.69c-.47,5.5-7.72,5.5-8.17,0h-32.65c-.16,0-.32-.16-.32-.32v-46.32ZM98.61,92.33h-5.72c-.59,0-1.07-.47-1.07-1.07,0-.59.47-1.07,1.07-1.07h5.72c.59,0,1.07.47,1.07,1.07,0,.59-.49,1.07-1.07,1.07ZM74.84,90.19h14.45c.59,0,1.07.47,1.07,1.07,0,.59-.47,1.07-1.07,1.07h-14.45c-.59,0-1.07-.47-1.07-1.07,0-.59.47-1.07,1.07-1.07ZM74.84,97.55h5.72c.59,0,1.07.47,1.07,1.07,0,.59-.47,1.07-1.07,1.07h-5.72c-.59,0-1.07-.47-1.07-1.07,0-.59.47-1.07,1.07-1.07ZM98.61,99.69h-14.45c-.59,0-1.07-.47-1.07-1.07,0-.59.47-1.07,1.07-1.07h14.45c.59,0,1.07.47,1.07,1.07,0,.59-.49,1.07-1.07,1.07ZM98.61,107.07h-5.72c-.59,0-1.07-.47-1.07-1.07,0-.59.47-1.07,1.07-1.07h5.72c.59,0,1.07.47,1.07,1.07s-.49,1.07-1.07,1.07ZM74.84,104.93h14.45c.59,0,1.07.47,1.07,1.07,0,.59-.47,1.07-1.07,1.07h-14.45c-.59,0-1.07-.47-1.07-1.07s.47-1.07,1.07-1.07ZM98.61,114.43h-5.72c-.59,0-1.07-.47-1.07-1.07,0-.59.47-1.07,1.07-1.07h5.72c.59,0,1.07.47,1.07,1.07,0,.59-.49,1.07-1.07,1.07ZM74.84,112.3h14.45c.59,0,1.07.47,1.07,1.07,0,.59-.47,1.07-1.07,1.07h-14.45c-.59,0-1.07-.47-1.07-1.07,0-.59.47-1.07,1.07-1.07ZM74.84,119.66h5.72c.59,0,1.07.47,1.07,1.07s-.47,1.07-1.07,1.07h-5.72c-.59,0-1.07-.47-1.07-1.07,0-.57.47-1.07,1.07-1.07ZM84.16,119.66h14.45c.59,0,1.07.47,1.07,1.07,0,.59-.47,1.07-1.07,1.07h-14.45c-.59,0-1.07-.47-1.07-1.07s.47-1.07,1.07-1.07ZM131.93,92.31h-5.72c-.59,0-1.07-.47-1.07-1.07s.47-1.07,1.07-1.07h5.72c.59,0,1.07.47,1.07,1.07,0,.59-.47,1.07-1.07,1.07ZM108.19,90.17h14.45c1.4,0,1.39,2.14,0,2.14h-14.45c-1.4,0-1.4-2.14,0-2.14ZM108.19,99.67c-1.4,0-1.4-2.14,0-2.14h5.72c1.4,0,1.4,2.14,0,2.14h-5.72ZM117.49,97.53h14.45c.59,0,1.07.47,1.07,1.07,0,.59-.47,1.07-1.07,1.07h-14.45c-.59,0-1.07-.47-1.07-1.07,0-.57.47-1.07,1.07-1.07Z"/>
      <g>
        <path class="cls-2" d="M103.8,138.88h-.01c-2.76,0-5.13-1.6-6.12-4.1h-30.58c-1.63,0-2.95-1.33-2.95-2.95v-46.36c-.01-.77.29-1.51.84-2.07.56-.57,1.3-.88,2.09-.88h1.52c.28-1,1.17-1.7,2.24-1.7h23.86c14.75,0,30.91,0,41.26,0,1.06,0,1.96.71,2.24,1.7h1.52c1.63,0,2.95,1.33,2.95,2.95v45.22h-1v-45.22c0-1.08-.88-1.95-1.95-1.95h-2.4l-.04-.46c-.06-.71-.63-1.24-1.32-1.24-10.36,0-26.51,0-41.26,0h-23.86c-.69,0-1.26.53-1.32,1.24l-.04.46h-2.4c-.52,0-1.01.21-1.38.58-.36.37-.56.85-.55,1.36v46.37c0,1.08.88,1.95,1.95,1.95h31.29l.11.34c.93,2.76,3.35,3.75,5.3,3.76h0c2.46,0,4.54-1.47,5.32-3.76l.95.32c-.92,2.7-3.38,4.44-6.27,4.44Z"/>
        <path class="cls-2" d="M102.83,129.02h-32.19v-46.08h32.19v46.08ZM71.64,128.02h30.19v-44.08h-30.19v44.08Z"/>
        <path class="cls-2" d="M137.29,129.07v-44.43h2.42c.46,0,.82.36.82.82v43.56h-.51c-.65-.03-1.37-.02-2.2.03l-.53.03ZM138.29,85.65v42.38c.44-.02.85-.03,1.24-.02v-42.35h-1.24Z"/>
        <polygon class="cls-2" points="113.99 129.02 103.97 129.02 103.97 82.94 136.15 82.94 136.15 128.52 135.15 128.52 135.15 83.94 104.97 83.94 104.97 128.02 113.99 128.02 113.99 129.02"/>
        <path class="cls-2" d="M103.8,136.77h0c-1.92,0-4.08-1.3-4.51-4.13h-32.21c-.44,0-.82-.38-.82-.82v-46.33c0-.46.36-.82.82-.82h2.31l.1.38c.08.29.07,4.15.01,18.22-.04,11.16-.1,25.04.03,25.84.13.63.69,1.08,1.31,1.08h31.8c.17,0,.35-.04.58-.14l.17-.07.18.06c.21.07.4.13.59.13h38.21l-.1.58c-.08.47-.14.96-.2,1.44l-.05.44h-33.69c-.44,2.83-2.62,4.13-4.54,4.13ZM67.25,131.64h32.93l.04.46c.21,2.53,1.95,3.66,3.57,3.67h0c1.63,0,3.38-1.13,3.6-3.67l.04-.46h33.7c.02-.16.04-.31.06-.46h-37.04c-.28,0-.52-.06-.74-.13-.21.08-.48.15-.79.15h-31.8c-1.1,0-2.06-.78-2.29-1.86-.12-.31-.14-5.44-.05-26.06.03-7.71.06-15.66.02-17.6h-1.26v45.96Z"/>
        <path class="cls-2" d="M98.62,92.83h-5.72c-1.02-.01-1.55-.8-1.55-1.57,0-.77.53-1.55,1.55-1.57h5.73c1.02.02,1.55.8,1.55,1.56,0,.77-.53,1.56-1.54,1.58h0ZM98.6,90.69h-5.71c-.53,0-.55.48-.55.57s.03.56.56.57h5.71c.53-.01.56-.48.56-.58s-.03-.55-.56-.56Z"/>
        <path class="cls-2" d="M74.84,92.83c-1.02-.01-1.55-.8-1.55-1.57,0-.77.53-1.55,1.55-1.57h14.45c1.02.01,1.55.8,1.55,1.57,0,.77-.53,1.55-1.55,1.57h-14.45ZM74.85,90.69c-.53,0-.56.47-.56.57s.03.56.56.57h14.44c.53,0,.55-.47.55-.57s-.03-.56-.56-.57h-14.43Z"/>
        <path class="cls-2" d="M74.84,100.19c-1.02-.01-1.55-.8-1.55-1.57,0-.77.53-1.55,1.55-1.57h5.73c1.02.01,1.55.8,1.55,1.57,0,.77-.53,1.55-1.55,1.57h-5.73ZM74.85,98.05c-.53,0-.56.47-.56.57s.03.56.56.57h5.71c.53,0,.55-.47.55-.57s-.03-.56-.56-.57h-5.71Z"/>
        <path class="cls-2" d="M98.62,100.19h-14.45c-1.02-.01-1.55-.8-1.55-1.57,0-.77.53-1.55,1.55-1.57h14.45c1.02.02,1.55.8,1.55,1.56,0,.77-.53,1.56-1.54,1.58h0ZM98.6,98.05h-14.44c-.53,0-.55.47-.55.57s.03.56.56.57h14.43c.53-.01.56-.48.56-.57s-.03-.55-.56-.56Z"/>
        <path class="cls-2" d="M98.62,107.57h-5.73c-.87,0-1.57-.7-1.57-1.57s.7-1.57,1.57-1.57h5.72c1.02.02,1.55.79,1.55,1.55,0,.77-.52,1.56-1.54,1.59h0ZM98.6,105.43h-5.71c-.32,0-.57.25-.57.57s.25.57.57.57h5.71c.55-.02.56-.52.56-.58,0-.09-.03-.55-.56-.55Z"/>
        <path class="cls-2" d="M74.84,107.57c-1.02-.01-1.55-.8-1.55-1.57,0-.77.53-1.55,1.55-1.57h14.45c1.02.01,1.55.8,1.55,1.57,0,.77-.53,1.55-1.55,1.57h-14.45ZM74.85,105.43c-.53,0-.56.47-.56.57s.03.56.56.57h14.44c.53,0,.55-.47.55-.57s-.03-.56-.56-.57h-14.43Z"/>
        <path class="cls-2" d="M98.62,114.93h-5.72c-1.02-.01-1.55-.8-1.55-1.57s.53-1.55,1.55-1.57h5.73c1.02.02,1.55.8,1.55,1.56,0,.77-.53,1.56-1.54,1.58h0ZM98.6,112.8h-5.71c-.53,0-.55.47-.55.57s.03.56.56.57h5.71c.53-.01.56-.48.56-.58s-.03-.55-.56-.56Z"/>
        <path class="cls-2" d="M74.84,114.93c-1.02-.01-1.55-.8-1.55-1.57,0-.77.53-1.55,1.55-1.57h14.45c1.02.01,1.55.8,1.55,1.57,0,.77-.53,1.55-1.55,1.57h-14.45ZM74.85,112.8c-.53,0-.56.47-.56.57s.03.56.56.57h14.44c.53,0,.55-.47.55-.57s-.03-.56-.56-.57h-14.43Z"/>
        <path class="cls-2" d="M74.84,122.29c-1.02-.01-1.55-.79-1.55-1.56,0-.77.52-1.56,1.54-1.58h5.73c1.02.01,1.55.8,1.55,1.57,0,.77-.53,1.55-1.55,1.57h-5.73ZM74.85,120.16c-.54.02-.56.48-.56.58,0,.09.03.55.56.56h5.71c.53,0,.55-.47.55-.57s-.03-.56-.56-.57h-5.71Z"/>
        <path class="cls-2" d="M84.16,122.29c-1.02-.01-1.55-.79-1.55-1.56,0-.77.52-1.56,1.54-1.58h14.46c1.02.01,1.55.8,1.55,1.57,0,.77-.53,1.55-1.55,1.57h-14.45ZM84.17,120.16c-.54.02-.56.48-.56.57,0,.09.03.56.56.56h14.44c.53,0,.55-.47.55-.57s-.03-.56-.56-.57h-14.43Z"/>
        <path class="cls-2" d="M131.94,92.81h-5.72c-1.02-.01-1.55-.8-1.55-1.57,0-.77.53-1.55,1.55-1.57h5.73c1.02.01,1.55.8,1.55,1.57,0,.77-.53,1.55-1.55,1.57h0ZM131.93,90.67h-5.71c-.53,0-.55.47-.55.57s.03.56.56.57h5.71c.53,0,.56-.47.56-.57s-.03-.56-.56-.57Z"/>
        <path class="cls-2" d="M122.63,92.81h-14.45c-1.02,0-1.55-.79-1.55-1.57,0-.6.32-1.21.93-1.45v-.11h15.07c1.02,0,1.55.79,1.55,1.56s-.54,1.57-1.55,1.57ZM108.19,90.67c-.53,0-.55.47-.55.57s.03.57.55.57h14.45c.52,0,.55-.48.55-.57s-.03-.56-.55-.56h-14.45Z"/>
        <path class="cls-2" d="M113.91,100.17h-5.72c-1.02,0-1.55-.79-1.55-1.57s.53-1.57,1.55-1.57h5.72c1.02,0,1.55.79,1.55,1.57s-.53,1.57-1.55,1.57ZM108.19,98.03c-.53,0-.55.47-.55.57s.03.57.55.57h5.72c.53,0,.55-.47.55-.57s-.03-.57-.55-.57h-5.72Z"/>
        <path class="cls-2" d="M117.49,100.17c-1.02-.01-1.55-.79-1.55-1.56,0-.77.52-1.56,1.54-1.58h14.46c1.02.01,1.55.8,1.55,1.57,0,.77-.53,1.55-1.55,1.57h-14.45ZM117.5,98.03c-.54.02-.56.48-.56.57,0,.09.03.56.56.56h14.44c.53,0,.55-.47.55-.57s-.03-.56-.56-.57h-14.43Z"/>
      </g>
    </g>
  </g>
</svg>