<?xml version="1.0" encoding="UTF-8"?>
<svg id="Layer_2" xmlns="http://www.w3.org/2000/svg" viewBox="0 0 150 150">
  <defs>
    <style>
      .cls-1, .cls-2 {
        fill: none;
      }

      .cls-3 {
        fill: #ee9211;
      }

      .cls-2 {
        stroke: #ee9211;
        stroke-linecap: round;
        stroke-linejoin: round;
        stroke-width: 5px;
      }
    </style>
  </defs>
  <g id="img4">
    <rect class="cls-1" width="150" height="150"/>
    <g>
      <g id="g457">
        <g id="g463">
          <path id="path465" class="cls-2" d="M53.01,134.66h-29.11c-1.16,0-2.1-.94-2.1-2.1v-6.38c0-1.16.94-2.1,2.1-2.1h29.11c1.16,0,2.1.94,2.1,2.1v6.38c0,1.16-.94,2.1-2.1,2.1Z"/>
        </g>
        <g id="g467">
          <path id="path469" class="cls-2" d="M23.06,114.57c.85,1.82,1.59,1.98,2.14,3.39.37.97.56,2,.56,3.04v3.08"/>
        </g>
        <g id="g471">
          <path id="path473" class="cls-2" d="M51.77,124.08c.1-.24.21-.48.34-.71l4.89-9.85c1.52-3.11,2.12-6.59,1.71-10.03l-.99-8.45v-21.81c0-2.51-.97-4.55-3.48-4.55-4.44-.48-9.7,8.72-9.7,15.58,0,3.33,0,7.1,0,9.18,0,1.02-.4,2-1.13,2.72l-.04.04c-1.2,1.2-3.78,1.45-5.25.6l-7.53-7.53c-1.63-1.63-2.54-3.84-2.54-6.14h0v-19.66c-3.59,2.87-7,5.88-8.39,6.98-1.55,1.22-2.11,3.02-2.3,4.99l-2.12,17.98c-.25,2.59.31,5.2,1.6,7.46"/>
        </g>
        <g id="g475">
          <path id="path477" class="cls-2" d="M100.38,25.93h-3.39c-1.16,0-2.1-.94-2.1-2.1v-6.39c0-1.16.94-2.1,2.1-2.1h29.11c1.16,0,2.1.94,2.1,2.1v6.39c0,1.16-.94,2.1-2.1,2.1h-11.13"/>
        </g>
        <g id="g479">
          <path id="path481" class="cls-2" d="M98.23,25.93c-.1.24-.21.48-.34.71l-4.89,9.85c-1.52,3.11-2.12,6.59-1.71,10.03l.99,8.45v21.81c0,2.51.97,4.55,3.48,4.55,4.44.48,9.7-8.72,9.7-15.58,0-3.33,0-7.1,0-9.18,0-1.02.4-2,1.13-2.72l.04-.04c1.2-1.2,3.78-1.45,5.25-.6l7.53,7.53c1.63,1.63,2.54,3.84,2.54,6.14v19.66c3.59-2.87,7-5.88,8.39-6.98,1.55-1.22,2.11-3.02,2.3-4.99l2.12-17.98c.24-2.59-.31-5.2-1.6-7.46-2.56-4.51-6.57-12.39-8.36-17.08-.37-.97-.56-2-.56-3.04v-3.08"/>
        </g>
        <g id="g483">
          <path id="path485" class="cls-2" d="M75,65.41v-12.32c0-.78-.63-1.42-1.42-1.42h-10.99c-.71,0-1.32-.52-1.4-1.22-.6-4.8-4.7-8.52-9.66-8.52s-9.06,3.72-9.66,8.52c-.09.7-.7,1.22-1.4,1.22h-10.99c-.78,0-1.42.64-1.42,1.42v10.39"/>
        </g>
        <g id="g487">
          <path id="path489" class="cls-2" d="M58.14,98.62h15.44c.78,0,1.42-.63,1.42-1.42v-12.32"/>
        </g>
        <g id="g491">
          <path id="path493" class="cls-2" d="M91.89,51.67h-15.47c-.78,0-1.42.63-1.42,1.42v12.32s-.03,0-.05,0c-5.38,0-9.74,4.36-9.74,9.74s4.36,9.74,9.74,9.74c.02,0,.03,0,.05,0v12.32c0,.78.64,1.42,1.42,1.42h12.32c0,5.38,4.36,9.74,9.74,9.74s9.74-4.36,9.74-9.74h12.32c.78,0,1.42-.63,1.42-1.42v-10.68s0,0,0,0"/>
        </g>
      </g>
      <circle class="cls-3" cx="19.73" cy="107.68" r="2.07"/>
      <circle class="cls-3" cx="107.33" cy="25.93" r="2.07"/>
    </g>
  </g>
</svg>