<?xml version="1.0" encoding="UTF-8"?>
<svg id="img4" xmlns="http://www.w3.org/2000/svg" viewBox="0 0 150 150">
  <defs>
    <style>
      .cls-1 {
        fill: none;
      }

      .cls-2 {
        fill: #ee9211;
        fill-rule: evenodd;
      }
    </style>
  </defs>
  <rect class="cls-1" x="0" width="150" height="150"/>
  <path class="cls-2" d="M118.36,92.26v40.08c0,2.42-1.98,4.4-4.4,4.4H26.59c-2.43,0-4.41-1.98-4.41-4.4V17.67c0-2.43,1.98-4.41,4.41-4.41h73.84c1.21,0,2.26.44,3.11,1.29l13.53,13.53c.85.85,1.29,1.9,1.29,3.11v24.95l4.76-8.25c2.16-3.75,6.98-5.05,10.73-2.88l2.04,1.17h0c3.75,2.16,5.04,6.99,2.88,10.74h0s-3.43,5.93-3.43,5.93l-16.98,29.4ZM99.44,17.25H26.59c-.23,0-.42.19-.42.42v114.67c0,.23.19.42.42.42h87.37c.23,0,.42-.19.42-.42v-33.18l-5.42,9.39h0c-.17.31-.43.56-.73.73l-12.19,7.04c-.62.36-1.38.36-1.99,0-.62-.36-1-1.01-1-1.72v-14.09c0-.35.09-.7.27-1l21.06-36.47v-30.85h-11.74c-1.75,0-3.2-1.45-3.2-3.2v-11.74ZM111.56,28.2l-8.14-8.14v8.14h8.14ZM122.15,57.54l-24.39,42.23,8.75,5.05,24.39-42.24-8.74-5.05ZM132.89,59.14l2.43-4.21c1.06-1.85.43-4.23-1.41-5.3l-2.04-1.17s0,0,0,0c-1.85-1.07-4.22-.43-5.28,1.42h0s-2.43,4.21-2.43,4.21l8.74,5.05h0ZM97.03,103.95v7.19l6.22-3.59-6.22-3.59ZM56.66,129.83c-11.9,0-21.63-9.71-21.63-21.63s9.72-21.63,21.63-21.63,21.63,9.72,21.63,21.63-9.71,21.63-21.63,21.63ZM56.66,125.85c9.72,0,17.65-7.92,17.65-17.65s-7.92-17.65-17.65-17.65-17.65,7.93-17.65,17.65,7.93,17.65,17.65,17.65ZM46.03,110.16c-.78-.78-.78-2.04,0-2.82s2.04-.78,2.82,0l4.04,4.04,11.67-10.59c.81-.74,2.07-.68,2.81.14.74.81.68,2.07-.14,2.81l-13.08,11.86c-.79.71-2,.68-2.75-.07l-5.38-5.38ZM56.66,34.04c-1.1,0-1.99-.89-1.99-1.99s.89-1.99,1.99-1.99h30.08c1.1,0,1.99.89,1.99,1.99s-.89,1.99-1.99,1.99h-30.08ZM71.7,45.68c-1.1,0-1.99-.89-1.99-1.99s.89-1.99,1.99-1.99h29.07c1.1,0,1.99.89,1.99,1.99s-.89,1.99-1.99,1.99h-29.07ZM37.03,45.68c-1.1,0-1.99-.89-1.99-1.99s.89-1.99,1.99-1.99h24.24c1.1,0,1.99.89,1.99,1.99s-.89,1.99-1.99,1.99h-24.24ZM37.03,34.04c-1.1,0-1.99-.89-1.99-1.99s.89-1.99,1.99-1.99h10.28c1.1,0,1.99.89,1.99,1.99s-.89,1.99-1.99,1.99h-10.28ZM37.03,68.97c-1.1,0-1.99-.89-1.99-1.99s.89-1.99,1.99-1.99h15.01c1.1,0,1.99.89,1.99,1.99s-.89,1.99-1.99,1.99h-15.01ZM37.03,80.61c-1.1,0-1.99-.89-1.99-1.99s.89-1.99,1.99-1.99h32.36c1.1,0,1.99.89,1.99,1.99s-.89,1.99-1.99,1.99h-32.36ZM79.97,80.61c-1.1,0-1.99-.89-1.99-1.99s.89-1.99,1.99-1.99h12.12c1.1,0,1.99.89,1.99,1.99s-.89,1.99-1.99,1.99h-12.12ZM61.27,68.97c-1.1,0-1.99-.89-1.99-1.99s.89-1.99,1.99-1.99h30.82c1.1,0,1.99.89,1.99,1.99s-.89,1.99-1.99,1.99h-30.82ZM37.03,57.32c-1.1,0-1.99-.89-1.99-1.99s.89-1.99,1.99-1.99h39.27c1.1,0,1.99.89,1.99,1.99s-.89,1.99-1.99,1.99h-39.27ZM86.23,57.32c-1.1,0-1.99-.89-1.99-1.99s.89-1.99,1.99-1.99h11.4c1.1,0,1.99.89,1.99,1.99s-.89,1.99-1.99,1.99h-11.4Z"/>
</svg>