<?xml version="1.0" encoding="UTF-8"?>
<svg id="img4" xmlns="http://www.w3.org/2000/svg" viewBox="0 0 150 150">
  <defs>
    <style>
      .cls-1 {
        fill: none;
      }

      .cls-2 {
        fill: #ee9211;
      }
    </style>
  </defs>
  <rect class="cls-1" width="150" height="150"/>
  <g>
    <path class="cls-2" d="M134.18,15.75h-2.55c-.1-1.25-1.12-2.23-2.39-2.23h-41.75c-.36,0-.7.08-1.01.23-.31-.16-.65-.23-1.01-.23h-41.72c-1.27,0-2.29.99-2.39,2.23h-2.55c-1.77,0-3.22,1.43-3.22,3.22v30.79c-30.06,3.07-41.62,41.52-18.26,60.71,12.96,10.73,32.16,10.42,44.74-.78l8.16,6.75c-1.22,2.42-.68,5.43,1.48,7.22,7.14,5.9,14.11,12.21,21.51,17.77,4.18,3.48,10.47,2.91,13.98-1.32,3.48-4.23,2.88-10.5-1.32-13.98-7.17-5.92-14.37-11.85-21.51-17.77-2.16-1.79-5.25-1.77-7.38-.1l-8.16-6.75c3.4-5.72,4.91-12.11,4.73-18.45h4.81c2.44,7.17,12.78,7.17,15.2,0h40.61c1.77,0,3.22-1.43,3.22-3.22V18.97c.03-1.77-1.43-3.22-3.2-3.22h0ZM87.89,16.32h40.94v59.18h-40.94V16.32ZM38.4,18.97c0-.23.18-.42.42-.42h2.52v31.05c-.99-.05-1.97-.08-2.94-.05v-30.58ZM104.1,128.3c7.07,6.24-1.61,16.76-9.07,10.99l-9.64-7.95,9.07-10.99,9.64,7.95ZM92.3,118.55l-9.07,10.99s-3.46-2.86-3.61-2.96l9.07-10.99,3.61,2.96ZM78.22,110.94c1.09-1.32,3.04-1.51,4.36-.42l3.97,3.27-9.07,10.99-4-3.27c-1.32-1.09-1.51-3.04-.42-4.36l5.14-6.21ZM75.08,110.32c-.47.57-2.78,3.35-3.2,3.87l-7.79-6.44c1.14-1.2,2.23-2.52,3.2-3.87l7.79,6.44ZM66.3,100.26c-9.33,16.16-33.02,20.26-47.18,8.05-21.62-17.77-10.63-53.36,17.22-55.83,25.69-2.26,43.05,25.67,29.95,47.78ZM70.33,69.35c-4.7-10.34-14.96-17.87-26.19-19.46V16.32h40.94v59.18h-12.5c.42-.57-1.95-5.4-2.26-6.16h0ZM134.6,79.84c0,.21-.21.42-.42.42h-42.87c-.6,7.22-10.11,7.22-10.73,0h-7.14c-.08-.65-.16-1.3-.26-1.92h12.31c.36,0,.68-.1.99-.21.31.13.65.23,1.01.23h41.75c1.17,0,2.13-.83,2.36-1.92.34-.91-.16-57.03.05-57.83h2.52c.23,0,.42.18.42.42v60.82ZM56.92,62.57c-18.21-16.03-47.96.23-45.41,24.03.96,13.95,13.98,25.54,27.75,25.17,25.8-.23,37.28-32.66,17.67-49.21ZM62.22,93.93c-6.16,14.89-26.6,19.93-38.94,9.33-16.21-13.2-9.35-39.36,10.83-43.78,19.69-4.36,36.09,16.08,28.11,34.45ZM91.37,26.59c0-.78.62-1.4,1.4-1.4h7.51c.78,0,1.4.62,1.4,1.4s-.62,1.4-1.4,1.4h-7.51c-.75,0-1.4-.62-1.4-1.4ZM125.38,26.59c0,.78-.62,1.4-1.4,1.4h-18.97c-.78,0-1.4-.62-1.4-1.4s.62-1.4,1.4-1.4h18.97c.78,0,1.4.62,1.4,1.4ZM125.38,36.25c0,.78-.62,1.4-1.4,1.4h-7.51c-.78,0-1.4-.62-1.4-1.4s.62-1.4,1.4-1.4h7.51c.78,0,1.4.62,1.4,1.4ZM91.37,36.25c0-.78.62-1.4,1.4-1.4h18.97c.78,0,1.4.62,1.4,1.4s-.62,1.4-1.4,1.4h-18.97c-.75,0-1.4-.62-1.4-1.4ZM91.37,45.94c0-.78.62-1.4,1.4-1.4h7.51c.78,0,1.4.62,1.4,1.4s-.62,1.4-1.4,1.4h-7.51c-.75,0-1.4-.65-1.4-1.4ZM125.38,45.94c0,.78-.62,1.4-1.4,1.4h-18.97c-.78,0-1.4-.62-1.4-1.4s.62-1.4,1.4-1.4h18.97c.78,0,1.4.62,1.4,1.4ZM91.37,55.61c0-.78.62-1.4,1.4-1.4h7.51c.78,0,1.4.62,1.4,1.4s-.62,1.4-1.4,1.4h-7.51c-.75,0-1.4-.62-1.4-1.4ZM125.38,55.61c0,.78-.62,1.4-1.4,1.4h-18.97c-.78,0-1.4-.62-1.4-1.4s.62-1.4,1.4-1.4h18.97c.78,0,1.4.62,1.4,1.4ZM125.38,65.27c0,.78-.62,1.4-1.4,1.4h-7.51c-.78,0-1.4-.62-1.4-1.4s.62-1.4,1.4-1.4h7.51c.78,0,1.4.65,1.4,1.4ZM113.14,65.27c0,.78-.62,1.4-1.4,1.4h-18.97c-.78,0-1.4-.62-1.4-1.4s.62-1.4,1.4-1.4h18.97c.78,0,1.4.65,1.4,1.4ZM47.62,26.56c0-.78.62-1.4,1.4-1.4h7.51c.78,0,1.4.62,1.4,1.4s-.62,1.4-1.4,1.4h-7.51c-.78,0-1.4-.62-1.4-1.4ZM80.2,27.96h-18.97c-1.82,0-1.84-2.81,0-2.81h18.97c1.84,0,1.84,2.81,0,2.81ZM72.69,37.63c-1.84,0-1.84-2.81,0-2.81h7.51c1.84,0,1.84,2.81,0,2.81h-7.51ZM69.39,36.22c0,.78-.62,1.4-1.4,1.4h-18.97c-.78,0-1.4-.62-1.4-1.4s.62-1.4,1.4-1.4h18.97c.78,0,1.4.65,1.4,1.4Z"/>
    <path class="cls-2" d="M99.51,144.22c-2.42,0-4.74-.83-6.61-2.39-4.91-3.69-9.71-7.78-14.36-11.74-2.34-1.99-4.75-4.05-7.15-6.03-2.21-1.83-2.91-4.86-1.78-7.47l-7.53-6.24c-12.73,11.05-32.03,11.3-45.07.51-10.98-9.02-15.21-23.19-11.05-36.97,4.11-13.61,15.24-22.99,29.13-24.58v-30.34c0-2.05,1.67-3.72,3.72-3.72h2.12c.31-1.3,1.45-2.23,2.82-2.23h41.72c.36,0,.7.06,1.01.19.32-.12.66-.19,1.01-.19h41.75c1.36,0,2.5.93,2.82,2.23h2.12c1,0,1.93.39,2.64,1.11.7.71,1.07,1.64,1.06,2.62v60.86c0,2.05-1.67,3.72-3.72,3.72h-40.25c-1.26,3.27-4.33,5.37-7.93,5.38h-.02c-3.6,0-6.69-2.1-7.96-5.38h-3.94c.09,6.32-1.49,12.47-4.59,17.83l7.53,6.24c2.33-1.59,5.5-1.46,7.68.35,4.7,3.9,9.43,7.8,14.16,11.7l7.35,6.07c4.42,3.65,5.04,10.24,1.39,14.68-1.78,2.15-4.3,3.48-7.08,3.74-.33.03-.66.05-.99.05ZM62.05,109.04l8.79,7.28-.18.36c-1.15,2.27-.59,4.99,1.35,6.61,2.4,1.98,4.82,4.04,7.16,6.04,4.63,3.95,9.42,8.03,14.33,11.72,1.94,1.61,4.39,2.37,6.89,2.13,2.52-.23,4.79-1.43,6.41-3.38,3.3-4.01,2.74-9.97-1.26-13.27l-7.35-6.07c-4.73-3.9-9.46-7.8-14.16-11.7-1.93-1.6-4.77-1.64-6.75-.09l-.32.25-8.8-7.28.22-.37c3.23-5.43,4.84-11.71,4.66-18.18v-.51s5.66,0,5.66,0l.12.34c1.04,3.06,3.84,5.04,7.13,5.04h.01c3.29,0,6.07-1.98,7.1-5.04l.11-.34h40.97c1.5,0,2.72-1.22,2.72-2.72V18.97c.01-.72-.26-1.4-.77-1.91-.51-.52-1.2-.81-1.92-.81h-3.01l-.04-.46c-.08-1.01-.9-1.78-1.89-1.78h-41.75c-.29,0-.55.06-.79.18l-.22.11-.22-.11c-.24-.12-.5-.18-.79-.18h-41.72c-1,0-1.81.76-1.89,1.78l-.04.46h-3.01c-1.5,0-2.72,1.22-2.72,2.72v31.24l-.45.05c-13.68,1.4-24.69,10.56-28.72,23.92-4.04,13.39.07,27.15,10.73,35.91,12.77,10.57,31.73,10.24,44.09-.77l.32-.29ZM99.57,141.47c-1.55,0-3.22-.52-4.85-1.78l-10.04-8.28,9.7-11.76,10.04,8.28c3.89,3.44,3.23,7.95.96,10.7-1.36,1.65-3.47,2.85-5.82,2.85ZM86.1,131.27l9.25,7.63c3.56,2.76,7.31,1.46,9.27-.92,1.97-2.38,2.54-6.31-.85-9.3l-9.25-7.63-8.43,10.22ZM83.3,130.08c-.2,0-.48-.24-1.21-.84-.91-.75-2.59-2.14-2.74-2.25l-.43-.31.33-.42,9.38-11.37,4.38,3.6-9.39,11.38c-.13.14-.21.22-.33.22ZM80.34,126.51c.41.33,1.14.93,2.38,1.96.17.14.32.27.45.37l8.43-10.22-2.84-2.33-8.43,10.21ZM77.56,125.49l-4.39-3.59c-.75-.61-1.2-1.48-1.29-2.44-.09-.96.2-1.89.81-2.63l5.14-6.21c.61-.74,1.48-1.2,2.43-1.29.95-.09,1.89.2,2.63.81l4.36,3.59-9.7,11.76ZM80.61,110.31c-.08,0-.17,0-.25.01-.69.07-1.31.4-1.76.93h0s-5.14,6.21-5.14,6.21c-.44.54-.65,1.21-.59,1.9.07.69.4,1.31.93,1.76l3.61,2.96,8.43-10.22-3.59-2.96c-.47-.39-1.05-.6-1.66-.6ZM38.82,115.92c-7.48,0-14.57-2.51-20.02-7.22-10.16-8.35-14.02-21.46-10.08-34.2,3.93-12.73,14.51-21.35,27.59-22.51,12.2-1.07,23.39,4.49,29.93,14.89,6.49,10.31,6.68,23.2.5,33.64-4.54,7.86-12.63,13.3-22.19,14.92-1.92.33-3.83.48-5.72.48ZM39.26,52.86c-.95,0-1.91.04-2.88.13-12.67,1.12-22.91,9.48-26.72,21.81-3.82,12.35-.07,25.04,9.77,33.14,6.62,5.71,15.7,8.08,24.93,6.52,9.27-1.57,17.11-6.83,21.5-14.43h0c6.08-10.28,5.9-22.46-.48-32.6-5.82-9.25-15.44-14.55-26.12-14.55ZM71.96,114.9l-8.6-7.11.37-.39c1.11-1.16,2.2-2.48,3.15-3.82l.31-.44,8.59,7.1-.32.38c-.18.22-.64.78-1.17,1.41-.81.98-1.77,2.14-2.03,2.46l-.32.4ZM64.82,107.7l7,5.78c.42-.51,1.11-1.34,1.72-2.08.32-.39.62-.75.85-1.02l-7-5.79c-.79,1.07-1.66,2.13-2.56,3.1ZM38.62,112.28c-13.84,0-26.66-11.83-27.61-25.65-1.2-11.25,4.91-22.11,15.58-27.63,10.5-5.44,22.25-4.21,30.66,3.19,9.28,7.83,12.46,19.84,8.31,31.35-4.12,11.45-14.2,18.63-26.3,18.74-.21,0-.43,0-.64,0ZM39.95,56.64c-4.3,0-8.7,1.07-12.91,3.25-10.3,5.33-16.2,15.8-15.04,26.66.93,13.54,13.7,25.12,27.24,24.73,11.68-.11,21.4-7.03,25.38-18.07,4-11.11.93-22.7-8.02-30.25h0c-4.74-4.18-10.58-6.31-16.64-6.31ZM38.92,109.38c-5.91,0-11.6-2-15.97-5.75-7.61-6.19-10.78-15.66-8.48-25.33,2.33-9.79,9.82-17.19,19.53-19.32,9.32-2.07,18.59,1.19,24.78,8.7,6.21,7.53,7.7,17.66,3.89,26.43-2.97,7.18-9.54,12.61-17.57,14.53-2.06.49-4.14.73-6.19.73ZM39.51,59.38c-1.75,0-3.51.19-5.29.59-9.34,2.04-16.53,9.16-18.77,18.57-2.21,9.28.83,18.37,8.15,24.33,5.65,4.85,13.6,6.65,21.28,4.81,7.72-1.84,14.03-7.06,16.88-13.94h0c3.66-8.44,2.23-18.17-3.74-25.41-4.77-5.79-11.44-8.95-18.51-8.95ZM85.96,86.18c-2.49,0-5.3-1.7-5.82-5.42h-7.14l-.05-.44c-.08-.64-.15-1.28-.26-1.9l-.1-.58h12.9c.28,0,.55-.09.83-.18l.18-.06.17.07c.32.14.58.2.82.2h41.75c.9,0,1.69-.64,1.88-1.53.18-.98.1-19.25.04-33.93-.07-18.21-.08-23.56.01-23.92l.1-.38h2.91c.51,0,.92.4.92.92v60.82c0,.49-.43.92-.92.92h-42.42c-.51,3.71-3.31,5.41-5.79,5.42h0ZM73.89,79.76h7.16l.04.46c.3,3.43,2.66,4.96,4.88,4.96h0c2.21,0,4.56-1.54,4.85-4.96l.04-.46h43.24V19.11h-1.97c-.05,2.18,0,12.9.04,23.29.1,24.81.1,33.71-.09,34.21-.27,1.27-1.47,2.25-2.83,2.25h-41.75c-.4,0-.76-.1-1.03-.2-.28.09-.6.18-.97.18h-11.73c.04.3.08.61.12.92ZM129.33,76.01h-41.94V15.82h41.94v60.18ZM88.39,75.01h39.94V16.82h-39.94v58.18ZM85.58,76.01h-13.98l.53-.73c.01-.47-.63-2.14-1.92-4.95-.16-.36-.29-.63-.35-.78-4.59-10.08-14.71-17.6-25.8-19.16l-.43-.06V15.82h41.94v60.18ZM73.11,75.01h11.47V16.82h-39.94v32.63c11.25,1.74,21.48,9.43,26.14,19.68v.02c.06.13.18.4.34.75,1.33,2.91,1.87,4.33,1.99,5.1ZM123.97,67.17h-7.51c-1.05,0-1.9-.85-1.9-1.9s.85-1.9,1.9-1.9h7.51c1.05,0,1.9.85,1.9,1.9s-.85,1.9-1.9,1.9ZM116.47,64.37c-.51,0-.9.4-.9.9s.4.9.9.9h7.51c.51,0,.9-.4.9-.9s-.41-.9-.9-.9h-7.51ZM111.74,67.17h-18.96c-1.05,0-1.9-.85-1.9-1.9s.85-1.9,1.9-1.9h18.96c1.05,0,1.9.85,1.9,1.9s-.85,1.9-1.9,1.9ZM92.77,64.37c-.51,0-.9.4-.9.9s.4.9.9.9h18.96c.51,0,.9-.4.9-.9s-.41-.9-.9-.9h-18.96ZM123.97,57.51h-18.97c-1.05,0-1.9-.85-1.9-1.9s.85-1.9,1.9-1.9h18.97c1.05,0,1.9.85,1.9,1.9s-.85,1.9-1.9,1.9ZM105.01,54.7c-.51,0-.9.4-.9.9s.4.9.9.9h18.97c.51,0,.9-.4.9-.9s-.4-.9-.9-.9h-18.97ZM100.28,57.51h-7.51c-1.05,0-1.9-.85-1.9-1.9s.85-1.9,1.9-1.9h7.51c1.05,0,1.9.85,1.9,1.9s-.85,1.9-1.9,1.9ZM92.77,54.7c-.51,0-.9.4-.9.9s.41.9.9.9h7.51c.51,0,.9-.4.9-.9s-.4-.9-.9-.9h-7.51ZM41.83,50.13l-.53-.03c-1.09-.06-2.04-.08-2.9-.05h-.51s0-31.08,0-31.08c0-.51.4-.92.92-.92h3.02v32.07ZM39.17,49.04c.52,0,1.07.01,1.66.04v-30.02h-1.94v29.98c.09,0,.18,0,.27,0ZM123.97,47.84h-18.97c-1.05,0-1.9-.85-1.9-1.9s.85-1.9,1.9-1.9h18.97c1.05,0,1.9.85,1.9,1.9s-.85,1.9-1.9,1.9ZM105.01,45.04c-.51,0-.9.4-.9.9s.4.9.9.9h18.97c.51,0,.9-.4.9-.9s-.4-.9-.9-.9h-18.97ZM100.28,47.84h-7.51c-1.03,0-1.9-.87-1.9-1.9s.85-1.9,1.9-1.9h7.51c1.05,0,1.9.85,1.9,1.9s-.85,1.9-1.9,1.9ZM92.77,45.04c-.51,0-.9.4-.9.9s.42.9.9.9h7.51c.51,0,.9-.4.9-.9s-.4-.9-.9-.9h-7.51ZM123.97,38.15h-7.51c-1.05,0-1.9-.85-1.9-1.9s.85-1.9,1.9-1.9h7.51c1.05,0,1.9.85,1.9,1.9s-.85,1.9-1.9,1.9ZM116.47,35.35c-.51,0-.9.4-.9.9s.4.9.9.9h7.51c.51,0,.9-.4.9-.9s-.4-.9-.9-.9h-7.51ZM111.74,38.15h-18.96c-1.05,0-1.9-.85-1.9-1.9s.85-1.9,1.9-1.9h18.96c1.05,0,1.9.85,1.9,1.9s-.85,1.9-1.9,1.9ZM92.77,35.35c-.51,0-.9.4-.9.9s.41.9.9.9h18.96c.51,0,.9-.4.9-.9s-.4-.9-.9-.9h-18.96ZM80.2,38.13h-7.51c-1.24,0-1.88-.96-1.88-1.9s.65-1.9,1.88-1.9h7.51c1.24,0,1.88.96,1.88,1.9s-.65,1.9-1.88,1.9ZM72.69,35.32c-.65,0-.88.49-.88.9s.23.9.88.9h7.51c.65,0,.88-.49.88-.9s-.23-.9-.88-.9h-7.51ZM67.99,38.13h-18.96c-1.05,0-1.9-.85-1.9-1.9s.85-1.9,1.9-1.9h18.96c1.05,0,1.9.85,1.9,1.9s-.85,1.9-1.9,1.9ZM49.02,35.32c-.51,0-.9.4-.9.9s.4.9.9.9h18.96c.51,0,.9-.4.9-.9s-.41-.9-.9-.9h-18.96ZM123.97,28.49h-18.97c-1.05,0-1.9-.85-1.9-1.9s.85-1.9,1.9-1.9h18.97c1.05,0,1.9.85,1.9,1.9s-.85,1.9-1.9,1.9ZM105.01,25.68c-.51,0-.9.4-.9.9s.4.9.9.9h18.97c.51,0,.9-.4.9-.9s-.4-.9-.9-.9h-18.97ZM100.28,28.49h-7.51c-1.05,0-1.9-.85-1.9-1.9s.85-1.9,1.9-1.9h7.51c1.05,0,1.9.85,1.9,1.9s-.85,1.9-1.9,1.9ZM92.77,25.68c-.51,0-.9.4-.9.9s.41.9.9.9h7.51c.51,0,.9-.4.9-.9s-.4-.9-.9-.9h-7.51ZM80.2,28.46h-18.96c-1.23,0-1.87-.96-1.87-1.91s.64-1.9,1.87-1.9h18.96c1.24,0,1.88.96,1.88,1.9s-.65,1.9-1.88,1.9ZM61.23,25.66c-.65,0-.87.48-.87.9,0,.34.18.91.87.91h18.96c.65,0,.88-.49.88-.9s-.23-.9-.88-.9h-18.96ZM56.53,28.46h-7.51c-1.05,0-1.9-.85-1.9-1.9s.85-1.9,1.9-1.9h7.51c1.05,0,1.9.85,1.9,1.9s-.85,1.9-1.9,1.9ZM49.02,25.66c-.51,0-.9.4-.9.9s.4.9.9.9h7.51c.51,0,.9-.4.9-.9s-.4-.9-.9-.9h-7.51Z"/>
  </g>
</svg>