<?xml version="1.0" encoding="UTF-8"?>
<svg id="Layer_2" data-name="Layer 2" xmlns="http://www.w3.org/2000/svg" viewBox="0 0 116.28 116.28">
  <defs>
    <style>
      .cls-1 {
        fill: #ee8362;
        stroke: #ee8362;
        stroke-miterlimit: 10;
      }
    </style>
  </defs>
  <g id="Layer_1-2" data-name="Layer 1">
    <g>
      <path class="cls-1" d="M108.09,52.37h-46.11c-4.24,0-7.69,3.44-7.69,7.69v11.66c-4.21-3.81-9.69-5.91-15.37-5.9v-3.38c7.53-2.95,12.72-9.93,13.38-17.98,3.42-.86,5.83-3.93,5.83-7.46v-15.37c0-6.46-4.6-12.01-10.95-13.22,1.81-1.82,1.8-4.76-.02-6.57-.87-.87-2.05-1.35-3.29-1.35h-18.4c-11.67.01-21.12,9.47-21.13,21.13v15.37c0,3.53,2.41,6.6,5.83,7.46.66,8.06,5.85,15.04,13.38,17.98v3.38c-12.73,0-23.05,10.31-23.06,23.03,0,0,0,.02,0,.02v19.21c0,4.24,3.44,7.69,7.69,7.69h46.11c4.24,0,7.69-3.44,7.69-7.69v-9.61h15.37v13.45c0,2.12,1.72,3.84,3.84,3.84h7.69c2.12,0,3.84-1.72,3.84-3.84v-13.45h15.37c4.24,0,7.69-3.44,7.69-7.69v-30.74c0-4.24-3.44-7.69-7.69-7.69ZM25.48,4.34h18.4c.44,0,.81.35.81.79,0,.22-.08.42-.23.58l-2.48,2.47h-4.97c-1.06,0-1.92.86-1.92,1.92s.86,1.92,1.92,1.92h7.69c5.3,0,9.6,4.3,9.61,9.61v4.2c-1.78-.66-3.78-.38-5.31.75-1.29-1.87-3.3-3.11-5.54-3.42-3.5-.24-6.86-1.45-9.71-3.48-1.42-1.28-3.58-1.28-5.01,0-2.85,2.04-6.21,3.24-9.7,3.48-2.24.32-4.25,1.56-5.54,3.42-1.53-1.13-3.52-1.41-5.3-.75v-4.2c.01-9.55,7.75-17.28,17.29-17.29ZM13.95,42.77c0-1.06-.86-1.92-1.92-1.92-2.12,0-3.84-1.72-3.84-3.84v-5.76c0-1.06.86-1.92,1.92-1.92s1.92.86,1.92,1.92h0c0,1.06.86,1.92,1.92,1.92s1.92-.86,1.92-1.92h0c0-2.14,1.57-3.96,3.69-4.27,4.23-.32,8.28-1.83,11.68-4.37,3.4,2.54,7.45,4.05,11.68,4.37,2.12.31,3.69,2.13,3.69,4.27,0,1.06.86,1.92,1.92,1.92s1.92-.86,1.92-1.92.86-1.92,1.92-1.92,1.92.86,1.92,1.92v5.76c0,2.12-1.72,3.84-3.84,3.84-1.06,0-1.92.86-1.92,1.92,0,9.55-7.74,17.29-17.29,17.29s-17.29-7.74-17.29-17.29ZM31.24,63.9c1.29,0,2.58-.12,3.84-.36v4.2c0,2.12-1.72,3.84-3.84,3.84s-3.84-1.72-3.84-3.84v-4.2c1.27.24,2.55.36,3.84.36ZM58.14,108.09c0,2.12-1.72,3.84-3.84,3.84h-3.84v-19.21c0-1.06-.86-1.92-1.92-1.92s-1.92.86-1.92,1.92v19.21H15.87v-19.21c0-1.06-.86-1.92-1.92-1.92s-1.92.86-1.92,1.92v19.21h-3.84c-2.12,0-3.84-1.72-3.84-3.84v-19.21c0-10.6,8.58-19.21,19.19-19.21,0,0,.02,0,.03,0h.27c1.04,4.09,5.21,6.57,9.3,5.53,2.71-.69,4.83-2.81,5.53-5.53h.27c5.1-.02,9.99,2.01,13.59,5.62.64.65,1.24,1.35,1.78,2.09v13.42c0,2.73,1.47,5.25,3.84,6.62v10.67ZM88.88,111.93h-7.69v-13.45h7.69v13.45ZM111.93,90.8c0,2.12-1.72,3.84-3.84,3.84h-46.11c-2.12,0-3.84-1.72-3.84-3.84v-30.74c0-2.12,1.72-3.84,3.84-3.84h46.11c2.12,0,3.84,1.72,3.84,3.84v30.74Z"/>
      <path class="cls-1" d="M35.73,51.89c.8.7,2.01.63,2.72-.17s.63-2.01-.17-2.72c-1.98-1.62-4.48-2.47-7.04-2.4-2.56-.07-5.06.79-7.04,2.41-.8.7-.87,1.92-.17,2.72.7.8,1.92.87,2.72.17,1.28-.99,2.87-1.5,4.49-1.44,1.62-.06,3.21.45,4.49,1.44Z"/>
      <path class="cls-1" d="M104.25,73.9h-38.43c-1.06,0-1.92.86-1.92,1.92s.86,1.92,1.92,1.92h38.43c1.06,0,1.92-.86,1.92-1.92s-.86-1.92-1.92-1.92Z"/>
    </g>
  </g>
</svg>