<?xml version="1.0" encoding="UTF-8"?>
<svg id="Layer_2" data-name="Layer 2" xmlns="http://www.w3.org/2000/svg" viewBox="0 0 126.95 126.95">
  <defs>
    <style>
      .cls-1 {
        fill: #ee8362;
      }
    </style>
  </defs>
  <g id="Layer_1-2" data-name="Layer 1">
    <g>
      <g id="Layer_3" data-name="Layer 3">
        <g>
          <path class="cls-1" d="M63.47,5.75c31.88,0,57.73,25.84,57.73,57.73s-25.84,57.73-57.73,57.73S5.75,95.35,5.75,63.47c.04-31.87,25.86-57.69,57.73-57.73M63.47.5C28.69.5.5,28.69.5,63.47s28.19,62.97,62.97,62.97,62.97-28.19,62.97-62.97S98.25.5,63.47.5Z"/>
          <path class="cls-1" d="M63.47,126.95C28.47,126.95,0,98.47,0,63.47S28.47,0,63.47,0s63.47,28.47,63.47,63.47-28.47,63.47-63.47,63.47ZM63.47,1C29.03,1,1,29.03,1,63.47s28.03,62.47,62.47,62.47,62.47-28.03,62.47-62.47S97.92,1,63.47,1ZM63.47,121.7c-32.11,0-58.23-26.12-58.23-58.23.04-32.07,26.16-58.19,58.22-58.23h0c32.11,0,58.23,26.12,58.23,58.23s-26.12,58.23-58.23,58.23ZM63.47,6.25c-31.52.04-57.19,25.71-57.23,57.23,0,31.55,25.67,57.22,57.23,57.22s57.23-25.67,57.23-57.23S95.03,6.25,63.47,6.25h0Z"/>
        </g>
      </g>
      <g id="Layer_4" data-name="Layer 4">
        <g>
          <path class="cls-1" d="M53.12,97.58c-.47,0-.95-.04-1.41-.14-8.93-1.78-16.78-7.05-21.83-14.62-5.16-7.79-6.96-17.33-5-26.46,3.95-18.42,22.08-30.14,40.5-26.19,14.84,3.18,25.79,15.79,26.87,30.93h7.97c1.45,0,2.62,1.17,2.62,2.62,0,.28-.04.56-.13.82-3,9.1-8.87,16.99-16.73,22.48-.9.63-2.1.63-3.01,0-7.86-5.49-13.73-13.38-16.73-22.48-.46-1.38.29-2.86,1.66-3.32.27-.09.55-.13.83-.13h7.69c-1.34-10.05-10.57-17.1-20.62-15.76-7.55,1.01-13.69,6.57-15.44,13.98-1.17,4.94-.3,10.15,2.42,14.44,2.65,4.14,6.83,7.05,11.63,8.1,4.32.84,7.14,5.02,6.3,9.34-.36,1.83-1.34,3.47-2.78,4.65-1.35,1.12-3.05,1.74-4.8,1.74ZM58.15,34.63c-2.07,0-4.14.22-6.16.64-11.03,2.44-19.62,11.1-21.97,22.15-1.68,7.76-.15,15.87,4.23,22.49,4.27,6.41,10.91,10.87,18.47,12.38.67.12,1.35-.07,1.87-.51.64-.54,1.02-1.33,1.02-2.17-.04-1.31-1-2.42-2.29-2.64-6.17-1.34-11.55-5.09-14.95-10.4-3.48-5.47-4.6-12.11-3.12-18.42,1.99-8.71,8.76-15.53,17.45-17.58,12.73-3.02,25.49,4.86,28.51,17.59.43,1.82.65,3.69.64,5.56,0,1.45-1.17,2.62-2.62,2.62h-6.68c2.63,6.01,6.73,11.26,11.93,15.27,5.19-4.01,9.3-9.26,11.93-15.27h-6.68c-1.45,0-2.62-1.17-2.62-2.62.02-8.8-3.94-17.15-10.78-22.69-5.14-4.16-11.55-6.42-18.16-6.41h0Z"/>
          <path class="cls-1" d="M53.12,98.08c-.51,0-1.01-.05-1.51-.14-9.13-1.83-16.99-7.09-22.15-14.84-5.2-7.85-7.05-17.64-5.07-26.84,1.94-9.04,7.28-16.78,15.04-21.8,7.76-5.02,17.01-6.72,26.05-4.78,14.81,3.18,25.95,15.85,27.23,30.92h7.51c1.72,0,3.12,1.4,3.12,3.12,0,.34-.05.67-.16.98-3.02,9.14-9.03,17.22-16.92,22.73-1.07.75-2.51.75-3.58,0-7.89-5.52-13.9-13.59-16.92-22.73-.26-.79-.2-1.64.17-2.38s1.02-1.3,1.81-1.56c.32-.11.65-.16.99-.16h7.11c-1.57-9.45-10.4-16.04-19.97-14.77-7.29.97-13.33,6.44-15.02,13.6-1.13,4.78-.27,9.9,2.36,14.05,2.59,4.05,6.61,6.85,11.31,7.88,2.21.43,4.13,1.7,5.39,3.57,1.26,1.88,1.72,4.13,1.29,6.35-.38,1.94-1.43,3.7-2.96,4.94-1.43,1.19-3.25,1.85-5.12,1.86h0ZM58.15,29.9c-6.4,0-12.68,1.84-18.18,5.4-7.54,4.88-12.72,12.39-14.6,21.17-1.92,8.95-.13,18.45,4.92,26.08,5.01,7.52,12.65,12.64,21.51,14.41.43.08.87.13,1.31.13,1.63,0,3.23-.58,4.49-1.63,1.35-1.1,2.28-2.65,2.61-4.36.79-4.04-1.86-7.97-5.9-8.75-4.97-1.09-9.21-4.04-11.95-8.32-2.78-4.38-3.68-9.78-2.49-14.82,1.78-7.56,8.15-13.34,15.86-14.36,10.3-1.37,19.8,5.89,21.18,16.19l.08.57h-8.26c-.23,0-.45.04-.67.11-.54.18-.98.56-1.23,1.06-.25.51-.29,1.08-.12,1.62,2.95,8.94,8.83,16.83,16.54,22.23.73.51,1.71.51,2.44,0,7.72-5.39,13.59-13.29,16.54-22.23.07-.22.11-.44.11-.67,0-1.17-.95-2.12-2.12-2.12h-8.43l-.03-.46c-1.05-14.83-11.94-27.36-26.47-30.47-2.37-.51-4.75-.76-7.11-.76ZM53.1,92.83c-.16,0-.32-.01-.48-.04-7.75-1.55-14.42-6.02-18.8-12.59-4.43-6.7-5.99-15.03-4.3-22.88,2.39-11.21,11.16-20.06,22.35-22.54,1.9-.4,3.84-.62,5.77-.65h0s.5,0,.5,0h.07c6.68,0,13.21,2.31,18.4,6.52,6.99,5.66,10.99,14.08,10.97,23.08,0,1.17.95,2.12,2.12,2.12h7.44l-.31.7c-2.66,6.07-6.83,11.42-12.08,15.47l-.31.24-.31-.24c-5.25-4.05-9.42-9.4-12.08-15.47l-.31-.7h7.45c1.17,0,2.12-.95,2.12-2.12,0-1.83-.2-3.66-.62-5.44-2.95-12.44-15.47-20.16-27.91-17.21-8.45,1.99-15.15,8.74-17.08,17.21-1.45,6.14-.33,12.72,3.05,18.04,3.36,5.24,8.55,8.86,14.64,10.18,1.5.26,2.64,1.57,2.69,3.11,0,1-.44,1.93-1.2,2.57-.51.43-1.15.66-1.8.66ZM58.46,35.12h-.31c-2.03,0-4.07.22-6.06.63-10.81,2.39-19.28,10.94-21.59,21.77-1.64,7.58-.12,15.64,4.15,22.11,4.23,6.35,10.67,10.67,18.15,12.16.5.08,1.04-.06,1.45-.4.53-.44.84-1.1.84-1.79-.03-1.05-.82-1.96-1.88-2.15-6.37-1.39-11.79-5.16-15.29-10.63-3.53-5.55-4.69-12.4-3.18-18.8,2.01-8.83,9.01-15.87,17.82-17.95,12.97-3.08,26.04,4.98,29.11,17.96.44,1.85.66,3.76.65,5.67,0,1.72-1.4,3.12-3.12,3.12h-5.91c2.54,5.51,6.38,10.38,11.15,14.14,4.77-3.76,8.61-8.63,11.15-14.14h-5.91c-1.72,0-3.12-1.4-3.12-3.12.02-8.7-3.84-16.83-10.59-22.3-4.95-4.01-11.17-6.24-17.54-6.29Z"/>
        </g>
      </g>
    </g>
  </g>
</svg>