<?xml version="1.0" encoding="UTF-8"?>
<svg id="Layer_2" data-name="Layer 2" xmlns="http://www.w3.org/2000/svg" viewBox="0 0 136.81 137.83">
  <defs>
    <style>
      .cls-1 {
        fill: #ee8362;
      }
    </style>
  </defs>
  <g id="Layer_1-2" data-name="Layer 1">
    <g>
      <path class="cls-1" d="M63.22,34.66c-1.11,0-2,.9-2,2v.16c0,1.11.9,2,2,2s2-.9,2-2v-.16c0-1.11-.9-2-2-2Z"/>
      <path class="cls-1" d="M62.39,117.84c-1.11,0-2,.9-2,2v.18c0,1.11.9,2,2,2s2-.9,2-2v-.18c0-1.11-.9-2-2-2Z"/>
      <path class="cls-1" d="M78.66,117.84c-1.11,0-2,.9-2,2v.18c0,1.11.9,2,2,2s2-.9,2-2v-.18c0-1.11-.9-2-2-2Z"/>
      <path class="cls-1" d="M18.83,72.04c-1.11,0-2,.9-2,2v.16c0,1.11.9,2,2,2s2-.9,2-2v-.16c0-1.11-.9-2-2-2Z"/>
      <path class="cls-1" d="M32.91,72.04c-1.11,0-2,.9-2,2v.16c0,1.11.9,2,2,2s2-.9,2-2v-.16c0-1.11-.9-2-2-2Z"/>
      <path class="cls-1" d="M105.2,70.64c-1.11,0-2,.9-2,2v.16c0,1.11.9,2,2,2s2-.9,2-2v-.16c0-1.11-.9-2-2-2Z"/>
      <path class="cls-1" d="M119.09,70.64c-1.11,0-2,.9-2,2v.16c0,1.11.9,2,2,2s2-.9,2-2v-.16c0-1.11-.9-2-2-2Z"/>
      <g>
        <path class="cls-1" d="M136.26,60.96c-.87-12.63-11.48-22.53-24.15-22.53-6.05,0-11.84,2.24-16.3,6.31-1.31,1.2-2.48,2.52-3.48,3.95l-3.91-3.91c2.09-3.3,3.31-7.22,3.31-11.41,0-1.49-.16-2.98-.46-4.42.29-1.47,1.06-6.13.2-10.91-.2-1.09-1.24-1.81-2.33-1.62-1.09.2-1.81,1.24-1.62,2.33.66,3.65.18,7.33-.1,8.92-8.42,4.69-15.71,3.61-19.03,2.68l1.34-2.87c.34-.73.21-1.6-.33-2.2-.54-.6-1.39-.81-2.16-.54-7.23,2.57-12.33,2.45-15.34,1.89-1.66-.31-2.85-.78-3.57-1.12.85-12.4,12.46-15.03,12.97-15.13.56-.12,1.04-.46,1.33-.96.29-.49.35-1.08.17-1.62-.33-1.01-.12-2.04.22-2.89,3.4,2.38,6.33,2.83,9.68,3.36,2.28.36,4.87.76,8.15,1.88.6.21,1.17.46,1.69.75.32.68,1.01,1.15,1.81,1.15l3.35,5.44c.86,0,3.47,1.37,3.75.56s-4.68-9.06-5.36-9.58c-1.16-.89-2.48-1.6-3.95-2.11-3.61-1.23-6.38-1.67-8.83-2.05-3.31-.52-5.69-.89-8.62-3.13-.75-.57-1.71-.79-2.63-.6-.93.19-1.73.78-2.19,1.62-.66,1.21-1.32,2.9-1.26,4.8-1.54.53-3.84,1.52-6.14,3.2-3.68,2.69-8.08,7.72-8.21,16.41,0,.63.28,1.23.78,1.62.17.13,1.52,1.13,4.13,1.88-.17,1.08-.25,2.17-.25,3.27,0,3.51.86,6.82,2.36,9.75l-7.12,7.12c-3.54-5.26-8.22-8.39-13.64-9.11-1.1-.14-8.37.9-8.52,2-.15,1.1,6.9,1.83,7.99,1.98,4.9.65,8.94,3.77,12.01,9.28,0,0,0,.01,0,.02,0,0,0,.02.01.02,5.75,10.38,5.86,25.41,3.73,29.6-1.61,3.18-4.49,4.85-7.25,5.71,1.03-1.54,1.75-3.04,2.23-4.19.42-1.02.62-1.71.64-1.78.01-.04.02-.07.03-.11,3.12-13.58-3.5-23.8-9.49-25.95-3.46-1.25-4.28-3.2-4.38-3.46-.22-.95-1.08-1.56-2.06-1.5-.99.06-1.77.87-1.87,1.85-.12,1.2-2.93,3.04-7.75,5.82-9.4,5.42-6.71,19.93-5.66,24.24.06.27.13.53.2.79.44,1.65,1.1,3.21,1.77,4.53-3.32-1.27-3.61-4.07-3.63-4.42-.03-.8-.53-1.5-1.27-1.79s-1.58-.11-2.15.45c-.11.11-.27.24-.48.33.25-2.23.54-6.56.54-14.63,0-15.05,5.55-23.13,16.98-24.72,1.1-.15,6.24-1.26,6.09-2.36s-5.54-1.77-6.64-1.61c-7.53,1.04-13.07,4.59-16.48,10.56-2.63,4.61-3.96,10.71-3.96,18.13,0,10.09-.46,14.04-.66,15.27-.13.79.06,1.58.54,2.23.47.64,1.16,1.06,1.95,1.19.77.12,1.52.1,2.23-.05,1.09,2.51,3.6,5.29,8.61,5.92.13.02.25.02.38.02,1,0,1.93-.5,2.49-1.36.63-.97.65-2.18.05-3.16-.02-.04-.05-.08-.07-.12,2.82,1.35,5.93,2.07,9.13,2.07,2.47,0,4.9-.44,7.19-1.26-.18.7-.09,1.46.28,2.15.61,1.13,1.82,1.72,3.08,1.52,2.4-.38,6.12-1.36,9.22-3.88l4.03,4.03c-2.2,4.58-2.54,9.79-.66,14.14.18.42.39.83.6,1.22-.52,1.88-.79,3.82-.79,5.8,0,11.96,9.73,21.69,21.69,21.69,4.08,0,8.06-1.14,11.5-3.3.94-.59,1.22-1.83.63-2.76-.59-.94-1.83-1.22-2.76-.63-2.81,1.76-6.05,2.69-9.37,2.69-9.75,0-17.68-7.93-17.68-17.68,0-.65.04-1.3.11-1.94,2.58,1.98,6,3.04,10,3.04.33,0,.67,0,1.01-.02,10.75-.47,18.7-2.18,23.78-5.1.3,1.31.46,2.65.46,4.02,0,3.48-1.01,6.85-2.93,9.75-.61.92-.36,2.17.56,2.78.34.23.72.33,1.11.33.65,0,1.29-.32,1.67-.9,2.35-3.55,3.6-7.69,3.6-11.96,0-2.26-.35-4.48-1.03-6.61.67-.67,1.23-1.38,1.69-2.14.42-.69.53-1.52.31-2.3-.23-.78-.77-1.44-1.5-1.8-.82-.41-1.49-.78-2.02-1.1,2.44-1.82,6.06-5.02,7.14-8.61.45-1.49-.35-3.07-1.83-3.58-.29-.1-.68-.23-1.15-.39l4.27-4.27c3.71,3.4,8.66,5.47,14.07,5.47,11.51,0,20.88-9.37,20.88-20.88,0-.4-.01-.81-.04-1.21.6-.21,1.2-.45,1.8-.73.1-.05.2-.1.3-.15.57-.3.95-.86,1.04-1.5.14-1.04.21-2.12.21-3.2,0-.56-.02-1.13-.06-1.69ZM37.54,82.71c-.04.12-.15.47-.34.97-.08.05-.16.11-.24.17-3.09,2.64-7.04,4.09-11.11,4.09-4.32,0-8.44-1.61-11.6-4.53-.07-.07-.15-.12-.23-.18-.78-3.46-2.9-15.41,3.88-19.32,3.78-2.18,6.34-3.76,7.89-5.32,1.04,1.03,2.56,2.1,4.79,2.9,3.68,1.33,9.7,9.15,6.95,21.22ZM53.13,30.85c3.39.34,7.09.01,11.06-.99l-.37.79c-.23.48-.25,1.03-.07,1.53.18.5.55.91,1.04,1.13.27.13,4.07,1.85,9.77,1.85.54,0,1.09-.02,1.66-.05-.45.37-.73.92-.73,1.55v.16c0,1.11.9,2,2,2s2-.9,2-2v-.16c0-.77-.43-1.43-1.06-1.77,2.82-.39,5.94-1.24,9.23-2.83.03.44.05.87.05,1.31,0,9.58-7.8,17.38-17.38,17.38s-17.38-7.8-17.38-17.38c0-.85.06-1.69.18-2.53ZM85.25,99.83c-.9.55-1.22,1.69-.74,2.63.23.46.75,1.47,4.19,3.33-3.4,3.93-12.16,6.38-24.94,6.94-5.47.24-9.41-1.78-11.09-5.68-2.04-4.72-.43-11.16,3.82-15.3,2.53-2.46,6.84-3.44,11.95-3.44,7.37,0,16.39,2.04,24.08,4.62-1.52,2.94-5.64,5.93-7.26,6.92ZM89.45,87.78c-3.48-1-8.08-2.14-12.85-2.84-10.9-1.58-18.61-.26-22.91,3.92-.68.67-1.31,1.38-1.88,2.12l-3.46-3.46c.36-.52.7-1.08,1-1.67,1.51-2.97,2.07-8.48,1.52-14.74-.57-6.34-2.19-12.4-4.62-17.27l7.26-7.26c3.92,4.98,10,8.19,16.82,8.19,6.15,0,11.7-2.61,15.61-6.79l4.3,4.3c-1.18,2.49-1.94,5.18-2.22,7.97-.08.81-.12,1.62-.12,2.4,0,2.23.3,4.43.9,6.55.2.7.76,1.24,1.47,1.41.34.08.68.14,1.02.2.27,4.13,1.74,7.94,4.07,11.07l-5.91,5.91ZM112.12,86.31c-8.78,0-16.01-6.74-16.8-15.32,5.37-.04,12.02-1.06,17.76-4.85,2.55,1.32,8.86,4.05,15.91,3.06,0,.08,0,.16,0,.24,0,9.3-7.57,16.87-16.87,16.87ZM132.25,64.22c-8.84,3.54-18.13-2.09-18.23-2.14-.7-.43-1.59-.4-2.25.09-5.82,4.29-13.14,5-18.46,4.78,0,0-.02,0-.02,0,0,0-.02,0-.02,0-.2,0-.39-.02-.59-.03-.11,0-.21-.01-.32-.02-.3-1.38-.45-2.8-.45-4.24,0-.65.03-1.33.1-2.01,1.02-10.37,9.66-18.19,20.1-18.19s19.43,8.25,20.15,18.79c.03.47.05.94.05,1.42,0,.53-.02,1.05-.06,1.57Z"/>
        <path class="cls-1" d="M70.49,137.83c-12.23,0-22.19-9.95-22.19-22.19,0-1.95.25-3.87.75-5.73-.2-.37-.37-.72-.53-1.09-1.86-4.3-1.67-9.47.52-14.23l-3.47-3.47c-3.07,2.35-6.62,3.32-9.1,3.71-1.48.23-2.88-.46-3.6-1.78-.28-.52-.42-1.08-.43-1.66-4.84,1.55-10.14,1.34-14.8-.58.18.88.02,1.8-.49,2.59-.72,1.12-2,1.73-3.35,1.56-5.48-.69-7.86-3.82-8.84-5.86-.65.1-1.33.09-2.01-.02-.92-.15-1.73-.64-2.27-1.39-.55-.76-.78-1.68-.63-2.6.2-1.22.66-5.13.66-15.19,0-7.51,1.36-13.69,4.03-18.38,3.48-6.1,9.15-9.74,16.84-10.8.6-.09,2.55.06,4.26.42,2.18-.41,4.43-.58,4.76-.53,5.36.71,10.07,3.76,13.65,8.83l6.44-6.44c-1.49-3.02-2.25-6.27-2.25-9.65,0-.96.07-1.94.2-2.92-2.45-.77-3.73-1.73-3.88-1.84-.62-.48-.99-1.23-.98-2.02.12-8.9,4.64-14.05,8.41-16.81,2.2-1.61,4.39-2.59,5.94-3.15.02-1.92.72-3.59,1.32-4.69.53-.96,1.45-1.64,2.52-1.87,1.07-.23,2.17.03,3.04.69,2.82,2.17,5.16,2.53,8.39,3.04,2.47.39,5.26.82,8.92,2.07,1.52.52,2.9,1.26,4.1,2.19.07.05,5.5,8.05,5.55,9.93.85,4.79.1,9.48-.19,10.96.3,1.45.45,2.94.45,4.43,0,4.01-1.1,7.92-3.18,11.33l3.22,3.22c.96-1.29,2.03-2.48,3.21-3.55,4.56-4.15,10.47-6.44,16.64-6.44,12.94,0,23.76,10.1,24.65,22.99h0c.04.57.06,1.15.06,1.72,0,1.1-.07,2.2-.21,3.26-.11.79-.59,1.49-1.3,1.87-.1.06-.21.11-.32.16-.48.23-.99.44-1.5.63.01.29.02.58.02.86,0,11.79-9.59,21.38-21.38,21.38-5.18,0-10.15-1.87-14.05-5.28l-3.36,3.36c.15.05.28.09.39.13,1.73.6,2.67,2.45,2.14,4.2-1.02,3.37-4.09,6.37-6.72,8.41.42.23.87.47,1.35.71.85.43,1.49,1.19,1.75,2.11.26.91.13,1.89-.36,2.7-.42.7-.95,1.38-1.55,2.02.64,2.1.97,4.28.97,6.47,0,4.37-1.27,8.6-3.68,12.24-.74,1.11-2.35,1.44-3.47.7-1.15-.76-1.47-2.32-.71-3.47,1.86-2.81,2.85-6.09,2.85-9.47,0-1.09-.1-2.18-.31-3.25-5.16,2.76-13.03,4.38-23.41,4.83-4.12.17-7.79-.72-10.61-2.6-.02.34-.03.69-.03,1.02,0,9.47,7.71,17.18,17.18,17.18,3.23,0,6.38-.9,9.11-2.62.57-.35,1.24-.47,1.89-.32.65.15,1.21.54,1.56,1.11.73,1.17.38,2.72-.79,3.45-3.53,2.21-7.6,3.38-11.77,3.38ZM45.65,89.79l4.6,4.6-.15.32c-2.2,4.59-2.44,9.59-.65,13.72.17.39.36.78.58,1.18l.1.18-.06.2c-.51,1.83-.77,3.74-.77,5.66,0,11.68,9.5,21.19,21.19,21.19,3.98,0,7.87-1.12,11.24-3.23.7-.44.92-1.37.47-2.07-.21-.34-.55-.58-.94-.67-.39-.09-.79-.02-1.13.19-2.89,1.81-6.22,2.77-9.64,2.77-10.02,0-18.18-8.16-18.18-18.18,0-.65.04-1.32.11-1.99l.1-.88.71.54c2.72,2.08,6.43,3.1,10.68,2.92,10.63-.46,18.55-2.15,23.55-5.03l.58-.34.15.66c.31,1.35.47,2.74.47,4.13,0,3.58-1.04,7.05-3.01,10.02-.46.69-.27,1.63.42,2.08.67.45,1.64.24,2.08-.42,2.3-3.47,3.51-7.51,3.51-11.68,0-2.2-.34-4.37-1.01-6.46l-.09-.29.21-.21c.64-.65,1.19-1.34,1.62-2.05.34-.57.44-1.26.25-1.9-.19-.65-.64-1.19-1.24-1.49-.76-.38-1.45-.75-2.06-1.12l-.64-.38.6-.45c2.14-1.6,5.89-4.81,6.96-8.36.37-1.24-.29-2.54-1.51-2.96-.29-.1-.67-.23-1.15-.39l-.77-.25,5.18-5.18.35.32c3.77,3.44,8.65,5.34,13.74,5.34,11.24,0,20.38-9.14,20.38-20.38,0-.39-.01-.79-.04-1.18l-.02-.37.35-.12c.61-.21,1.2-.46,1.75-.72.09-.04.19-.09.28-.14.42-.23.72-.65.78-1.12.14-1.02.21-2.07.21-3.13,0-.55-.02-1.1-.05-1.65h0c-.85-12.37-11.24-22.06-23.65-22.06-5.92,0-11.59,2.2-15.97,6.18-1.26,1.15-2.41,2.46-3.41,3.87l-.34.48-4.62-4.62.21-.34c2.12-3.34,3.23-7.19,3.23-11.14,0-1.45-.15-2.9-.45-4.32l-.02-.1.02-.1c.25-1.26.98-5.55.31-10.06-.56.03-1.35-.22-2.11-.47-.32-.11-.67-.22-.94-.29-.05.2-.06.41-.02.63.68,3.78.16,7.62-.1,9.1l-.04.23-.21.12c-8.47,4.72-15.8,3.73-19.41,2.72l-.57-.16,1.59-3.4c.26-.55.16-1.2-.25-1.65-.41-.45-1.05-.61-1.62-.41-7.33,2.61-12.53,2.48-15.6,1.91-1.73-.32-2.96-.81-3.7-1.17l-.3-.15.02-.34c.88-12.78,12.85-15.48,13.36-15.59.42-.09.78-.35,1-.72.21-.37.26-.81.13-1.22-.31-.97-.24-2.06.24-3.23l.23-.58.52.36c3.31,2.31,6.17,2.76,9.47,3.27,2.31.36,4.92.77,8.23,1.9.63.22,1.22.48,1.78.79l.14.08.07.14c.25.52.78.86,1.36.86h.28l3.11,5.05c.34-.33.79-.57,1.29-.66.38-.07.76-.05,1.11.05-1.33-2.54-3.83-6.66-4.37-7.13-1.11-.86-2.39-1.54-3.81-2.03-3.57-1.22-6.32-1.65-8.74-2.03-3.38-.53-5.82-.91-8.85-3.23-.63-.49-1.45-.67-2.23-.51-.79.17-1.46.67-1.85,1.37-.58,1.05-1.25,2.7-1.19,4.54v.37s-.34.12-.34.12c-1.49.52-3.75,1.48-6.01,3.13-3.58,2.62-7.88,7.53-8,16.02,0,.47.21.93.59,1.21.14.11,1.42,1.06,3.96,1.8l.42.12-.07.43c-.16,1.06-.25,2.14-.25,3.19,0,3.34.78,6.55,2.3,9.52l.17.32-7.81,7.81-.34-.5c-3.45-5.13-8.05-8.2-13.29-8.9-.42-.05-1.41.03-2.56.2.15.08.29.16.4.24.28.21.44.45.47.72.08.55-.33,1.02-1.31,1.48.63.09,1.34.18,2.14.28l.47.06c5.07.67,9.23,3.88,12.38,9.54,5.85,10.56,5.94,25.84,3.77,30.11-1.44,2.84-3.98,4.84-7.55,5.96l-1.35.42.79-1.18c.84-1.26,1.58-2.64,2.19-4.1.41-1,.61-1.66.63-1.73,3.08-13.38-3.34-23.36-9.15-25.45-3.62-1.3-4.53-3.36-4.68-3.75-.18-.76-.83-1.22-1.56-1.18-.72.04-1.33.65-1.4,1.4-.13,1.28-2.07,2.79-8,6.21-9.1,5.25-6.45,19.46-5.42,23.69.06.27.13.53.2.78.37,1.4.96,2.9,1.73,4.43l.58,1.16-1.21-.46c-3.62-1.39-3.93-4.5-3.95-4.86-.02-.61-.4-1.14-.96-1.35-.55-.22-1.19-.08-1.61.34-.2.2-.4.34-.64.44l-.79.34.1-.85c.25-2.18.54-6.47.54-14.58,0-15.34,5.7-23.59,17.41-25.21.34-.05.75-.12,1.21-.22-.88-.26-1.4-.53-1.64-.83-.18-.23-.19-.45-.17-.6.07-.51.8-.93,1.82-1.28-.69-.07-1.29-.1-1.63-.05-7.37,1.02-12.79,4.49-16.11,10.31-2.59,4.53-3.9,10.55-3.9,17.88,0,10.13-.47,14.11-.67,15.35-.11.66.05,1.32.45,1.85.39.53.97.88,1.62.99.71.11,1.4.1,2.04-.04l.4-.09.16.38c.78,1.81,2.89,4.95,8.21,5.62.95.12,1.87-.31,2.39-1.11.52-.81.54-1.81.04-2.63l-.9-1.54,1.47.71c2.8,1.34,5.8,2.03,8.92,2.03,2.4,0,4.76-.42,7.02-1.23l.88-.32-.23.91c-.15.6-.07,1.23.23,1.79.51.94,1.52,1.44,2.56,1.26,2.46-.39,6.01-1.36,8.98-3.78l.35-.29ZM6.57,83.15c.31,0,.61.06.91.17.93.36,1.55,1.24,1.59,2.23.01.23.2,2.05,2.05,3.32-.5-1.13-.89-2.23-1.17-3.28-.07-.26-.14-.53-.2-.8-1.07-4.4-3.81-19.19,5.9-24.79,2.58-1.49,7.39-4.26,7.5-5.44.12-1.24,1.13-2.24,2.34-2.31,1.2-.08,2.3.72,2.57,1.89.06.14.79,1.92,4.06,3.1,6.16,2.22,12.99,12.68,9.8,26.54l-.03.11c-.03.1-.24.8-.67,1.85-.44,1.06-.94,2.07-1.5,3.04,2.6-1.08,4.48-2.75,5.61-4.97,2.08-4.11,1.95-18.89-3.73-29.14-3.01-5.41-6.93-8.44-11.66-9.07l-.46-.06c-1.6-.19-2.92-.38-3.99-.57-1.29.37-2.65.65-3.23.73-11.14,1.54-16.55,9.46-16.55,24.22,0,6.95-.22,11.13-.44,13.57.39-.23.84-.36,1.29-.36ZM22.6,43.16c.26.17.97.45,2.84.79,1.19-.36,2.21-.77,2.35-1.08-.14-.22-.95-.47-1.94-.68-1.46.29-2.8.65-3.25.98ZM69.09,30.02c3.6.89,10.23,1.52,17.87-2.67.26-1.57.68-5.08.06-8.51-.08-.46-.03-.91.12-1.32l-3.08-4.99c-.79-.09-1.51-.57-1.9-1.27-.46-.25-.96-.47-1.48-.65-3.23-1.1-5.8-1.51-8.06-1.86-3.25-.51-6.08-.95-9.34-3.07-.2.72-.2,1.37-.01,1.96.22.68.14,1.42-.22,2.03-.36.61-.96,1.05-1.66,1.19-.47.1-11.53,2.6-12.54,14.34.7.31,1.74.68,3.14.94,2.95.55,7.96.67,15.08-1.87.95-.34,2.01-.07,2.69.68.68.75.84,1.83.41,2.75l-1.09,2.32ZM88.62,17.17c.21.06.42.13.66.21.44.15,1.2.39,1.59.43-.27-.63-.95-1.01-1.65-.88-.22.04-.42.13-.6.25ZM62.89,113.24c-5.23,0-9-2.11-10.68-6-2.12-4.91-.47-11.58,3.93-15.86,2.44-2.38,6.58-3.58,12.3-3.58,6.6,0,15.44,1.69,24.24,4.65l.55.19-.27.52c-1.53,2.97-5.54,5.95-7.45,7.12h0c-.67.41-.91,1.27-.56,1.97.21.4.69,1.34,3.98,3.11l.55.3-.41.47c-3.53,4.09-12.28,6.55-25.3,7.11-.3.01-.6.02-.89.02ZM68.43,88.79c-5.45,0-9.35,1.11-11.6,3.3-4.11,4.01-5.67,10.21-3.71,14.75,1.6,3.7,5.35,5.61,10.61,5.38,12.05-.52,20.58-2.75,24.16-6.31-3.06-1.73-3.57-2.73-3.83-3.22-.59-1.16-.19-2.6.93-3.28,1.38-.84,5.11-3.51,6.79-6.21-8.51-2.8-16.99-4.4-23.35-4.4ZM51.85,91.74l-4.15-4.16.24-.34c.36-.52.68-1.06.97-1.62,1.47-2.89,2.01-8.3,1.46-14.47-.56-6.22-2.18-12.29-4.56-17.1l-.16-.32,7.92-7.92.35.44c4,5.08,9.99,8,16.42,8,5.74,0,11.3-2.42,15.24-6.63l.35-.38,4.91,4.91-.15.32c-1.17,2.48-1.9,5.1-2.17,7.81-.08.79-.12,1.58-.12,2.35,0,2.19.3,4.34.88,6.41.15.52.57.93,1.1,1.05.32.08.65.14.98.19l.4.06.03.4c.25,3.92,1.62,7.66,3.97,10.81l.26.35-6.42,6.42-.28-.08c-4.53-1.3-8.83-2.25-12.79-2.82-10.75-1.56-18.31-.29-22.49,3.79-.66.64-1.27,1.33-1.83,2.06l-.35.45ZM48.99,87.46l2.77,2.77c.49-.61,1.02-1.18,1.58-1.73,4.41-4.3,12.26-5.67,23.33-4.06,3.92.57,8.17,1.5,12.63,2.77l5.4-5.4c-2.23-3.12-3.56-6.77-3.88-10.59-.23-.04-.45-.09-.67-.14-.88-.21-1.59-.88-1.84-1.76-.61-2.16-.92-4.41-.92-6.68,0-.8.04-1.62.12-2.45.27-2.7.98-5.33,2.11-7.82l-3.69-3.69c-4.11,4.18-9.77,6.57-15.62,6.57-6.56,0-12.67-2.89-16.85-7.94l-6.62,6.62c2.36,4.86,3.95,10.92,4.51,17.13.57,6.35-.02,11.96-1.57,15.01-.24.47-.51.94-.8,1.39ZM25.85,88.44c-4.44,0-8.68-1.66-11.94-4.66-.05-.05-.11-.09-.17-.14l-.16-.11-.04-.19c-.82-3.63-2.94-15.8,4.12-19.87,3.92-2.26,6.32-3.77,7.79-5.24l.35-.35.35.35c1.19,1.17,2.74,2.11,4.61,2.79,3.82,1.38,10.09,9.43,7.27,21.8v.04c-.05.12-.17.49-.37,1l-.06.16-.14.09c-.06.04-.12.08-.17.13-3.18,2.71-7.24,4.21-11.43,4.21ZM14.46,82.94s.08.06.12.1c3.08,2.83,7.08,4.4,11.27,4.4,3.95,0,7.78-1.41,10.79-3.97.05-.04.1-.08.15-.12.14-.38.23-.65.27-.77,2.67-11.76-3.1-19.34-6.64-20.62-1.83-.66-3.38-1.56-4.62-2.68-1.56,1.44-3.94,2.93-7.64,5.06-6.36,3.67-4.49,14.93-3.69,18.6ZM112.12,86.81c-8.89,0-16.49-6.93-17.29-15.78l-.05-.54h.54c6.89-.05,12.77-1.66,17.48-4.77l.25-.16.26.14c2.37,1.23,8.65,3.98,15.61,3.01l.56-.08v.81c.01,9.58-7.78,17.37-17.36,17.37ZM95.88,71.48c1.01,8.08,8.04,14.33,16.24,14.33,8.92,0,16.19-7.17,16.37-16.04-6.77.77-12.81-1.76-15.38-3.05-4.71,3.03-10.5,4.63-17.23,4.76ZM95,67.48c-.59,0-1.16-.01-1.71-.04l-.64-.03c-.11,0-.23-.02-.34-.03l-.36-.03-.08-.36c-.3-1.41-.46-2.88-.46-4.35,0-.67.03-1.36.1-2.06,1.05-10.63,9.91-18.65,20.6-18.65s19.91,8.46,20.65,19.25c.03.48.05.97.05,1.45,0,.54-.02,1.08-.06,1.61l-.02.31-.29.12c-9.01,3.61-18.58-2.12-18.67-2.18-.53-.33-1.19-.3-1.69.06-5.37,3.96-11.97,4.91-17.07,4.91ZM92.77,66.42l.51.02c5.15.21,12.43-.43,18.19-4.68.83-.61,1.93-.66,2.81-.11.09.05,9.01,5.4,17.48,2.22.02-.4.04-.81.04-1.22,0-.46-.02-.93-.04-1.39-.71-10.27-9.34-18.32-19.65-18.32s-18.61,7.63-19.61,17.74c-.06.67-.1,1.32-.1,1.96,0,1.27.12,2.54.36,3.77ZM70.33,51.26c-9.86,0-17.88-8.02-17.88-17.88,0-.86.06-1.74.19-2.6l.07-.47.48.05c3.32.33,6.98,0,10.89-.97l1.02-.26-.82,1.75c-.17.36-.19.77-.05,1.15.14.38.41.68.78.85.17.08,4.65,2.14,11.19,1.75l1.06-.06,1.12-.15c3.08-.42,6.14-1.36,9.08-2.79l.66-.32.05.73c.03.45.06.9.06,1.35,0,9.86-8.02,17.88-17.88,17.88ZM53.56,31.39c-.08.66-.12,1.33-.12,1.98,0,9.31,7.57,16.88,16.88,16.88s16.88-7.57,16.88-16.88c0-.18,0-.36-.01-.54-2.5,1.14-5.07,1.95-7.67,2.4.29.41.45.91.45,1.43v.16c0,1.38-1.12,2.5-2.5,2.5s-2.5-1.12-2.5-2.5v-.16c0-.35.07-.69.21-1.01-6.11.14-10.19-1.68-10.62-1.89-.61-.28-1.07-.79-1.29-1.42-.21-.58-.2-1.2.02-1.77-3.45.78-6.72,1.05-9.74.8ZM77.3,34.87l-.78.64c-.35.29-.55.71-.55,1.16v.16c0,.83.67,1.5,1.5,1.5s1.5-.67,1.5-1.5v-.16c0-.56-.3-1.06-.8-1.33l-.89-.47Z"/>
      </g>
      <path class="cls-1" d="M81.88,68.22l-11.44-11.44c-.78-.78-2.05-.78-2.83,0l-11.44,11.44c-.38.38-.59.89-.59,1.42s.21,1.04.59,1.42l11.44,11.44c.39.39.9.59,1.42.59s1.03-.2,1.42-.59l11.44-11.44c.78-.78.78-2.05,0-2.83ZM69.02,78.24l-8.6-8.6,8.6-8.6,8.6,8.6-8.6,8.6Z"/>
    </g>
  </g>
</svg>