<?xml version="1.0" encoding="UTF-8"?>
<svg id="Layer_2" data-name="Layer 2" xmlns="http://www.w3.org/2000/svg" viewBox="0 0 126.16 110.74">
  <defs>
    <style>
      .cls-1 {
        fill: #ee8362;
      }
    </style>
  </defs>
  <g id="Layer_1-2" data-name="Layer 1">
    <path class="cls-1" d="M71.92,37.1c0-7.52-5.04-13.24-14.24-16.24-.46-11.58-10.02-20.87-21.72-20.87S14.71,9.28,14.24,20.86C5.17,23.75,0,29.61,0,37.1v25.89c0,5.12,4.16,9.28,9.28,9.28h.41c-.07.52-.11,1.05-.11,1.59v25.22c0,6.43,5.23,11.66,11.66,11.66s11.66-5.23,11.66-11.66v-8.22h6.1v8.22c0,6.43,5.23,11.66,11.66,11.66s11.66-5.23,11.66-11.66v-25.22c0-.54-.04-1.07-.11-1.59h.41c5.12,0,9.28-4.16,9.28-9.28v-25.89ZM35.96,4.07c9.74,0,17.67,7.93,17.67,17.67s-7.93,17.67-17.67,17.67-17.67-7.93-17.67-17.67S26.22,4.07,35.96,4.07ZM28.84,99.08c0,4.19-3.41,7.59-7.59,7.59s-7.59-3.41-7.59-7.59v-25.22c0-4.19,3.41-7.59,7.59-7.59s7.59,3.41,7.59,7.59v25.22ZM32.91,86.8v-12.94c0-.85-.09-1.67-.26-2.46,1.3-.61,2.44-1.51,3.32-2.62.88,1.1,2.01,2.01,3.32,2.62-.17.79-.26,1.62-.26,2.46v12.94h-6.1ZM58.27,99.08c0,4.19-3.41,7.59-7.59,7.59s-7.59-3.41-7.59-7.59v-25.22c0-4.19,3.41-7.59,7.59-7.59s7.59,3.41,7.59,7.59v25.22ZM67.85,62.99c0,2.87-2.34,5.21-5.21,5.21h-1.77c-1.99-3.58-5.82-6.01-10.19-6.01-4.14,0-7.78,2.17-9.85,5.43-1.7-.88-2.83-2.65-2.83-4.63,0-2.87,2.34-5.21,5.21-5.21h13.29c1.12,0,2.03-.91,2.03-2.03v-14.69c0-1.12-.91-2.03-2.03-2.03s-2.03.91-2.03,2.03v12.66h-11.25c-2.93,0-5.54,1.37-7.24,3.49-1.7-2.13-4.32-3.49-7.24-3.49h-11.25v-12.69c0-1.12-.91-2.03-2.03-2.03s-2.03.91-2.03,2.03v14.73c0,1.12.91,2.03,2.03,2.03h13.29c2.87,0,5.21,2.34,5.21,5.21,0,1.98-1.13,3.75-2.83,4.63-2.07-3.26-5.71-5.43-9.85-5.43-4.38,0-8.2,2.43-10.19,6.01h-1.77c-2.87,0-5.21-2.34-5.21-5.21v-25.89c0-6.88,5.76-10.35,10.41-12.03,1.61,10.41,10.63,18.41,21.49,18.41s19.87-7.99,21.48-18.39c5.18,1.89,10.41,5.42,10.41,12.02v25.89h0ZM98.76,73.56c13.74,0,24.93-11.18,24.93-24.93s-11.18-24.93-24.93-24.93-24.93,11.18-24.93,24.93,11.18,24.93,24.93,24.93ZM98.76,27.78c11.5,0,20.86,9.36,20.86,20.86s-9.36,20.86-20.86,20.86-20.86-9.36-20.86-20.86,9.36-20.86,20.86-20.86ZM102.02,54.08c.18-.2.37-.52.3-1.11-.07-.54-.22-1.79-3.87-2.39-5.66-.93-6.65-4.13-6.74-5.96-.15-3,1.86-5.52,5.02-6.35v-.7c0-1.12.91-2.03,2.03-2.03s2.03.91,2.03,2.03v.68c2.04.51,3.97,1.85,4.99,4.28.44,1.04-.05,2.23-1.09,2.66-1.03.43-2.23-.05-2.66-1.09-.87-2.07-3.01-2.19-4.15-1.93-.37.08-2.2.58-2.12,2.24.02.44.08,1.6,3.34,2.14,4.42.73,6.86,2.72,7.25,5.92.2,1.61-.24,3.08-1.26,4.26-.99,1.15-2.53,1.96-4.3,2.32v.63c0,1.12-.91,2.03-2.03,2.03s-2.03-.91-2.03-2.03v-.67c-2.77-.64-4.89-2.56-5.55-5.2-.27-1.09.39-2.19,1.48-2.47,1.09-.27,2.19.39,2.47,1.48.45,1.79,2.33,2.38,3.81,2.34,1.3-.03,2.53-.48,3.08-1.11h0ZM98.76,68.15c10.76,0,19.51-8.75,19.51-19.51s-8.75-19.51-19.51-19.51-19.52,8.75-19.52,19.51c0,10.76,8.75,19.51,19.52,19.51ZM98.76,33.19c8.52,0,15.45,6.93,15.45,15.45s-6.93,15.45-15.45,15.45-15.45-6.93-15.45-15.45c0-8.52,6.93-15.45,15.45-15.45ZM124.12,77.6h-50.73c-1.12,0-2.03.91-2.03,2.03,0,15.11,12.29,27.4,27.4,27.4s27.4-12.29,27.4-27.4c0-1.12-.91-2.03-2.03-2.03ZM98.76,102.97c-12.18,0-22.21-9.38-23.24-21.3h46.49c-1.03,11.92-11.06,21.3-23.24,21.3Z"/>
  </g>
</svg>