<?xml version="1.0" encoding="UTF-8"?>
<svg id="Layer_2" data-name="Layer 2" xmlns="http://www.w3.org/2000/svg" viewBox="0 0 113.51 115.46">
  <defs>
    <style>
      .cls-1 {
        fill: #ee8362;
        stroke: #ee8362;
        stroke-miterlimit: 10;
        stroke-width: 1.5px;
      }
    </style>
  </defs>
  <g id="Layer_1-2" data-name="Layer 1">
    <path class="cls-1" d="M103.5,57.24h-14.12V10c0-5.1-4.15-9.25-9.25-9.25H10C4.9.75.75,4.9.75,10v23.38c0,.81.65,1.46,1.46,1.46h14.12v68.67c0,.49.25.96.67,1.23.24.16.52.24.8.24.2,0,.4-.04.59-.13l8.17-3.63,8.19,3.63c.38.17.81.17,1.19,0l8.17-3.63,8.17,3.63c.38.17.81.17,1.19,0l1.82-.81v1.42c0,5.1,4.15,9.25,9.25,9.25h38.96c5.1,0,9.25-4.15,9.25-9.25v-38.96c0-5.1-4.15-9.25-9.25-9.25h0ZM3.67,10c0-3.49,2.84-6.33,6.33-6.33s6.33,2.84,6.33,6.33v21.91H3.67V10ZM52.88,101.91l-8.17-3.63c-.38-.17-.81-.17-1.19,0l-8.17,3.63-8.19-3.63c-.38-.17-.81-.17-1.19,0l-6.71,2.98V10c0-2.45-.98-4.67-2.54-6.33h63.41c3.49,0,6.33,2.84,6.33,6.33v47.24h-21.91c-2.12,0-4.05.74-5.61,1.95h-29.45c-.81,0-1.46.65-1.46,1.46s.65,1.46,1.46,1.46h26.97c-.71,1.31-1.15,2.79-1.15,4.38v4.38h-25.81c-.81,0-1.46.65-1.46,1.46s.65,1.46,1.46,1.46h25.81v8.77h-25.81c-.81,0-1.46.65-1.46,1.46s.65,1.46,1.46,1.46h25.81v15.35l-2.41,1.07h0ZM109.84,105.45c0,3.49-2.84,6.33-6.33,6.33h-38.96c-3.49,0-6.33-2.84-6.33-6.33v-38.96c0-3.49,2.84-6.33,6.33-6.33h38.96c3.49,0,6.33,2.84,6.33,6.33v38.96ZM97.66,78.67h-6.33v-6.33c0-1.88-1.53-3.41-3.41-3.41h-7.79c-1.88,0-3.41,1.53-3.41,3.41v6.33h-6.33c-1.88,0-3.41,1.53-3.41,3.41v7.79c0,1.88,1.53,3.41,3.41,3.41h6.33v6.33c0,1.88,1.53,3.41,3.41,3.41h7.79c1.88,0,3.41-1.53,3.41-3.41v-6.33h6.33c1.88,0,3.41-1.53,3.41-3.41v-7.79c0-1.88-1.53-3.41-3.41-3.41ZM98.15,89.87c0,.27-.22.49-.49.49h-7.79c-.81,0-1.46.65-1.46,1.46v7.79c0,.27-.22.49-.49.49h-7.79c-.27,0-.49-.22-.49-.49v-7.79c0-.81-.65-1.46-1.46-1.46h-7.79c-.27,0-.49-.22-.49-.49v-7.79c0-.27.22-.49.49-.49h7.79c.81,0,1.46-.65,1.46-1.46v-7.79c0-.27.22-.49.49-.49h7.79c.27,0,.49.22.49.49v7.79c0,.81.65,1.46,1.46,1.46h7.79c.27,0,.49.22.49.49v7.79ZM45.74,43.66c1.54,1.06,3.52,1.63,5.85,1.77v3.54c0,.81.65,1.46,1.46,1.46s1.46-.65,1.46-1.46v-3.59c4.96-.55,7.97-3.24,8.14-7.45.23-5.75-5.2-7.22-8.14-7.82v-10.09c1.54.15,2.83.56,3.81,1.24,1.31.9,1.91,1.67,2.44,3.14.28.76,1.11,1.15,1.87.87.76-.27,1.15-1.11.87-1.87-.75-2.06-1.71-3.3-3.54-4.56-1.46-1-3.31-1.57-5.47-1.74v-3.19c0-.81-.65-1.46-1.46-1.46s-1.46.65-1.46,1.46v3.2c-5.29.45-8.46,3.17-8.53,7.51-.09,5.98,5.74,7.31,8.53,7.87v10.03c-1.71-.12-3.13-.53-4.2-1.26-1.31-.9-1.91-1.67-2.44-3.14-.28-.76-1.11-1.15-1.87-.87-.76.28-1.15,1.11-.88,1.87.75,2.06,1.71,3.3,3.54,4.56h0ZM59.73,37.8c-.13,3.23-2.81,4.31-5.22,4.63v-9.34c2.77.64,5.34,1.74,5.22,4.71ZM45.98,24.66c.05-3.3,2.81-4.38,5.61-4.65v9.48c-2.87-.63-5.65-1.69-5.61-4.83Z"/>
  </g>
</svg>