<?xml version="1.0" encoding="UTF-8"?>
<svg id="Layer_2" data-name="Layer 2" xmlns="http://www.w3.org/2000/svg" viewBox="0 0 118.61 120.32">
  <defs>
    <style>
      .cls-1 {
        fill: #ee8362;
      }

      .cls-2 {
        fill: none;
        stroke: #ee8362;
        stroke-linecap: round;
        stroke-miterlimit: 10;
        stroke-width: 4px;
      }
    </style>
  </defs>
  <g id="Layer_1-2" data-name="Layer 1">
    <g id="Layer_1-2" data-name="Layer 1-2">
      <g id="_489282368" data-name=" 489282368">
        <g id="_489297936" data-name=" 489297936">
          <path class="cls-1" d="M51.74,110.02H6.69c-3.69,0-6.68-2.99-6.69-6.69v-24.27c0-2.2,1.07-3.95,2.79-4.58l29.94-10.87c.99-.36,2.08.16,2.44,1.14.07.21.11.42.11.64,0,4.38,2.53,6.59,7.55,6.59s7.55-2.22,7.55-6.59c0-1.05.86-1.9,1.91-1.9.22,0,.44.04.64.11l27.99,10.16c.99.36,1.5,1.45,1.14,2.43-.36.99-1.45,1.5-2.43,1.14l-25.69-9.33c-1.01,4.92-5,7.78-11.1,7.78s-10.09-2.86-11.1-7.78l-27.65,10.03c-.08.03-.28.38-.28,1.01v24.27c0,1.59,1.29,2.88,2.89,2.89h45.05c1.05,0,1.9.85,1.9,1.9s-.85,1.9-1.9,1.9h0Z"/>
        </g>
        <g id="_489296928" data-name=" 489296928">
          <path class="cls-1" d="M33.38,67.01c-1.05,0-1.9-.85-1.9-1.9h0v-4.46c0-1.05.85-1.9,1.9-1.9s1.9.85,1.9,1.9v4.46c0,1.05-.85,1.89-1.9,1.89h0Z"/>
        </g>
        <g id="_489294016" data-name=" 489294016">
          <path class="cls-1" d="M52.29,67.43c-1.05,0-1.9-.85-1.9-1.9v-4.64c0-1.05.85-3.33,1.9-3.33s1.9.79,1.9,1.84v6.13c0,1.05-.85,1.9-1.9,1.9Z"/>
        </g>
        <g id="_489292896" data-name=" 489292896">
          <path class="cls-1" d="M15.09,110.02c-1.05,0-1.9-.85-1.9-1.9h0v-25.33c0-1.05.85-1.9,1.9-1.9s1.9.85,1.9,1.9v25.33c0,1.05-.85,1.9-1.9,1.9h0Z"/>
        </g>
        <g id="_489293344" data-name=" 489293344">
          <path class="cls-1" d="M13.18,85.14l-1.94-12.63c-.16-1.04.55-2.01,1.59-2.17s2.01.55,2.17,1.59h0l1.94,12.63c.16,1.04-.55,2.01-1.59,2.17s-2.01-.55-2.17-1.59Z"/>
        </g>
        <g id="_489291608" data-name=" 489291608">
          <path class="cls-1" d="M42.84,110.02c-1.05,0-1.9-.85-1.9-1.9h0v-34.22c0-1.05.85-1.9,1.9-1.9s1.9.85,1.9,1.9v34.22c0,1.05-.85,1.9-1.89,1.9h0Z"/>
        </g>
        <g id="_489288752" data-name=" 489288752">
          <path class="cls-1" d="M42.84,26c-7.32,0-14.57-1.43-21.35-4.18-.97-.39-1.44-1.5-1.05-2.47.16-.4.45-.73.83-.94.64-.36,1.36-2.25,2-3.92C25.33,9.06,28.8,0,42.84,0s17.51,9.06,19.58,14.48c.64,1.67,1.36,3.55,2,3.92.91.52,1.23,1.68.72,2.59-.21.37-.54.66-.94.83-6.78,2.76-14.04,4.17-21.36,4.18h0ZM25.36,19.22c11.32,3.97,23.65,3.97,34.96,0-.56-1.1-1.04-2.23-1.46-3.38-2.05-5.36-4.61-12.03-16.02-12.03s-13.98,6.67-16.03,12.03c-.41,1.16-.89,2.29-1.45,3.38Z"/>
        </g>
        <g id="_489288416" data-name=" 489288416">
          <path class="cls-1" d="M42.84,39.24c-2.34,0-4.48-.76-6.55-1.47-1.51-.53-2.93-1.03-4.31-1.19s-2.96-.02-4.62.13c-2.24.21-4.56.43-6.72-.12-2.28-.58-4-1.91-5.53-3.08-1.05-.81-2.05-1.58-3.12-2.03-.96-.41-1.41-1.53-1-2.49.11-.26.27-.48.48-.67,6.3-5.63,9.2-9.37,9.23-9.4.66-.81,1.86-.93,2.67-.27.78.63.93,1.76.34,2.58-.11.15-2.53,3.27-7.78,8.17.51.36,1.01.74,1.49,1.11,1.35,1.04,2.63,2.03,4.14,2.41s3.43.21,5.43.03c1.77-.17,3.63-.34,5.42-.13s3.49.81,5.13,1.38c1.85.65,3.59,1.27,5.29,1.27s3.44-.61,5.29-1.27c1.64-.58,3.33-1.17,5.13-1.38s3.64-.04,5.42.13c2,.19,3.9.36,5.43-.03s2.79-1.37,4.14-2.41c.49-.37.98-.76,1.49-1.11-5.26-4.9-7.67-8.02-7.78-8.17-.66-.82-.53-2.01.28-2.67.82-.66,2.01-.53,2.67.28.02.03.04.05.06.08.07.09,2.97,3.8,9.22,9.4.78.7.85,1.9.15,2.68-.19.21-.41.37-.67.48-1.07.46-2.06,1.22-3.12,2.03-1.52,1.17-3.25,2.5-5.53,3.08-2.17.55-4.48.33-6.72.12-1.66-.15-3.23-.3-4.63-.13s-2.81.66-4.31,1.19c-2.1.72-4.23,1.47-6.57,1.47h0Z"/>
        </g>
        <g id="_489286456" data-name=" 489286456">
          <path class="cls-1" d="M87.27,105.33c-.56,0-1.09-.24-1.45-.67-.05-.05-4.93-5.65-10.58-4.6-8.36,1.56-10.3-3.8-10.37-4.03l3.6-1.23s-.01-.03-.02-.05c.04.1,1.09,2.51,6.1,1.57,7.84-1.46,13.92,5.57,14.19,5.87.68.8.58,2-.22,2.68-.34.29-.78.45-1.23.45h-.01Z"/>
        </g>
        <g id="_489285392" data-name=" 489285392">
          <path class="cls-1" d="M66.65,97.32c-.21,0-.42-.03-.61-.1-.99-.34-1.52-1.42-1.19-2.41,0,0,0,0,0,0,.08-.23,2.01-5.59,10.37-4.03,5.69,1.06,10.53-4.54,10.58-4.6.68-.8,1.88-.9,2.68-.22.8.68.9,1.88.22,2.68-.25.3-6.33,7.35-14.19,5.87-5.08-.95-6.07,1.5-6.08,1.52-.26.77-.98,1.28-1.79,1.29h0Z"/>
        </g>
        <g id="_489283824" data-name=" 489283824">
          <path class="cls-1" d="M72.48,120.32c-1.89-.01-3.76-.4-5.5-1.13-.97-.39-1.44-1.5-1.05-2.47.2-.5.61-.89,1.11-1.07.13-.05,3.36-1.38,5.41-6.33-2.5-1.01-4.93-2.17-7.29-3.49-2.14,2.19-7.22,6.56-13.57,6.56-1.04,0-1.89-.84-1.9-1.88,0-.47-.02-10.27,5.3-15.07-5.32-4.81-5.3-14.6-5.3-15.07,0-1.04.86-1.88,1.9-1.88,6.35,0,11.42,4.37,13.57,6.56.64-.35,1.27-.69,1.91-1.01-.91-4.42-2.69-5.81-2.92-5.97-.61-.29-1.01-.91-1.03-1.59-.02-.71.36-1.37.99-1.71,2.28-1.35,4.21-1.14,5.43-.73,2.28.76,4.31,2.92,6,6.42,1.35-.44,2.7-.82,4.04-1.14-1.33-4.88-3.46-6.4-3.69-6.55-.61-.3-1.01-.92-1.03-1.6-.02-.71.36-1.36.98-1.7,2.25-1.33,4.48-1.62,6.64-.88,3.14,1.08,5.87,4.34,8.14,9.69,7.44.4,14.57,3.15,20.35,7.85,2.02,1.62,3.85,3.45,5.48,5.46,2.15,2.71,2.15,3.53,2.15,3.89s0,1.09-1.87,3.52c-.31.4-.76.66-1.27.73l-3.68.45.53.37c.86.6,1.08,1.78.48,2.64-.08.12-.18.24-.29.33-4.86,4.36-12.72,9.21-23.67,9.21-1.11,0-2.26-.05-3.44-.16-3.72,5.14-8.17,7.78-12.93,7.78h0ZM72.23,116.52c3.91.11,7.49-2.24,10.69-7.06.39-.6,1.09-.92,1.8-.83,10.57,1.25,18.34-2.49,23.41-6.43l-2.58-1.79c-.86-.6-1.08-1.78-.48-2.64.31-.45.79-.74,1.33-.8l7.82-.97c.16-.23.29-.42.39-.58-.82-1.28-3.07-4.15-6.61-6.87-5.35-4.15-11.9-6.45-18.67-6.57-.77-.01-1.46-.49-1.74-1.21-1.88-4.81-4.12-7.88-6.32-8.64-.28-.1-.57-.16-.87-.18,1.22,1.67,2.55,4.33,3.35,8.42.2,1.03-.47,2.03-1.5,2.23,0,0-.02,0-.02,0-2.4.46-4.75,1.11-7.04,1.96-.96.35-2.02-.12-2.41-1.06-1.21-2.94-2.59-4.92-3.92-5.68.89,1.54,1.77,3.78,2.23,6.96.12.82-.3,1.62-1.04,1.98-1.41.69-2.85,1.46-4.28,2.3-.81.47-1.85.28-2.44-.45-.04-.05-4.21-5.09-9.71-6.16.36,3.71,1.73,9.54,5.6,11.22.96.42,1.41,1.53.99,2.5-.19.44-.55.8-.99.99-3.88,1.68-5.24,7.51-5.6,11.22,5.49-1.07,9.66-6.11,9.71-6.16.59-.73,1.62-.91,2.43-.44,3.1,1.84,6.37,3.38,9.76,4.62.95.34,1.47,1.38,1.18,2.35-1.14,3.69-2.88,6.16-4.48,7.76h.02Z"/>
        </g>
        <g id="_489281976" data-name=" 489281976">
          <path class="cls-1" d="M101.08,110.33c-.4,0-.79-.13-1.11-.36-8.17-5.91-10-17.33-4.08-25.5,1.02-1.4,2.23-2.65,3.59-3.72.53-.41,1.23-.51,1.85-.27,1.66.64,3.27,1.4,4.81,2.28.91.52,1.23,1.69.7,2.6-.06.11-.13.21-.21.3-4.86,5.56-4.75,13.88.25,19.31.71.77.67,1.97-.1,2.68-.1.09-.21.18-.33.25-1.5.87-3.06,1.64-4.67,2.28-.22.09-.45.15-.69.15ZM100.98,84.44c-3.05,2.73-4.78,6.64-4.77,10.73,0,4.27,1.89,8.32,5.15,11.07.41-.18.81-.37,1.21-.57-4.33-6.16-4.43-14.35-.25-20.62-.44-.22-.89-.42-1.34-.61Z"/>
        </g>
        <g id="_489281472" data-name=" 489281472">
          <path class="cls-1" d="M106.87,94.62h-1.35c-1.05,0-1.9-.85-1.9-1.9s.85-1.9,1.9-1.9h1.35c1.05,0,1.9.85,1.9,1.9s-.85,1.9-1.9,1.9Z"/>
        </g>
      </g>
    </g>
    <circle class="cls-1" cx="35.28" cy="41.54" r="2.3"/>
    <circle class="cls-1" cx="50.39" cy="41.54" r="2.3"/>
    <path class="cls-1" d="M47.09,51.69c-.6.6-1.46.93-2.33.93h-4.46c-.73,0-1.33.6-1.33,1.33s.6,1.33,1.33,1.33h4.46c1.6,0,3.13-.6,4.26-1.73.53-.53.53-1.4,0-1.93s-1.4-.53-1.93,0h0v.07Z"/>
    <path class="cls-1" d="M43.36,49.65h.15c.55,0,1-.45,1-1s-.45-1-1-1h-.15s-.15-.05-.15-.15v-.05l.75-1.5c.35-.75.55-1.55.55-2.4,0-.55-.45-1-1-1s-1,.45-1,1c0,.5-.1,1-.35,1.5l-.75,1.5c-.55,1.1-.1,2.4.95,2.9.3.15.65.25.95.25l.05-.05Z"/>
    <polyline class="cls-2" points="23.64 36.02 28.04 53.47 36.45 63.5 49.26 63.5 55.99 53.68 60.32 35.63"/>
  </g>
</svg>