<?xml version="1.0" encoding="UTF-8"?>
<svg id="Layer_2" data-name="Layer 2" xmlns="http://www.w3.org/2000/svg" viewBox="0 0 124.87 127.71">
  <defs>
    <style>
      .cls-1 {
        fill: #ee8362;
      }
    </style>
  </defs>
  <g id="Layer_1-2" data-name="Layer 1">
    <g>
      <circle class="cls-1" cx="72.94" cy="59.07" r="2.7"/>
      <circle class="cls-1" cx="51.52" cy="59.07" r="2.7"/>
      <path class="cls-1" d="M60.46,72.17h.31c1.14,0,2.08-.94,2.08-2.08s-.94-2.08-2.08-2.08h-.31c-.1,0-.31-.1-.31-.31v-.1l1.56-3.12c.73-1.56,1.14-3.22,1.14-4.99,0-1.14-.94-2.08-2.08-2.08s-2.08.94-2.08,2.08c0,1.04-.21,2.08-.73,3.12l-1.56,3.12c-1.14,2.29-.21,4.99,1.98,6.03.62.31,1.35.52,1.98.52l.1-.1Z"/>
      <path class="cls-1" d="M65.66,72.8c-.94.94-2.29,1.46-3.64,1.46h-6.97c-1.14,0-2.08.94-2.08,2.08s.94,2.08,2.08,2.08h6.97c2.5,0,4.89-.94,6.66-2.7.83-.83.83-2.18,0-3.02s-2.18-.83-3.02,0h0v.1Z"/>
      <path class="cls-1" d="M65.04,80.7h-4.26c-1.14,0-2.08.94-2.08,2.08s.94,2.08,2.08,2.08h4.26c1.14,0,2.08-.94,2.08-2.08s-.94-2.08-2.08-2.08Z"/>
      <path class="cls-1" d="M124.84,39.1c-4.99-7.49-12.69-12.9-21.53-14.87,4.78-6.34,8.01-13.94,9.15-21.84.21-1.14-.62-2.29-1.77-2.39-.42,0-.73,0-1.14.1l-4.68,1.98c-6.97,3.02-13.1,7.59-17.89,13.52l-2.91,3.64c.62-3.12.94-6.34.94-9.57V2.08c0-1.14-.94-2.08-2.08-2.08-.52,0-.94.21-1.35.52l-.83.73c-3.74,3.12-7.07,6.86-9.67,11.02-.73-2.6-1.87-5.1-3.22-7.38l-2.29-3.74c-.62-1.04-1.87-1.35-2.91-.73-.31.21-.52.42-.73.73l-2.29,3.74c-1.35,2.29-2.5,4.78-3.22,7.38-2.6-4.16-5.93-7.8-9.67-11.02l-.83-.62C44.97-.1,43.61,0,42.89.94c-.31.42-.52.83-.52,1.35v7.59c0,3.22.31,6.34.94,9.57l-2.91-3.64c-4.78-5.82-10.92-10.5-17.89-13.52l-4.68-1.98c-1.04-.42-2.29,0-2.81,1.14-.1.31-.21.73-.1,1.14,1.14,7.8,4.16,15.18,8.84,21.42-9.57,1.66-17.99,7.18-23.4,15.29-.62.94-.42,2.29.62,2.91.21.21.52.31.83.31l5.3.94c2.91.52,5.82.62,8.74.31l-1.35,1.25c-6.55,6.03-10.82,13.94-12.27,22.67-.21,1.14.62,2.29,1.77,2.5h.94l5.51-1.56c2.29-.62,4.47-1.46,6.55-2.5-2.7,6.76-4.16,13.94-4.16,21.22,0,1.14.94,2.08,2.08,2.08s.73,0,1.04-.31l1.56-.94c1.87-1.04,3.64-2.18,5.3-3.43,0,.52-.21,1.04-.31,1.56l-1.35,9.15c-.21,1.14.62,2.29,1.77,2.39.42,0,.73,0,1.14-.1,0,0,6.55-2.91,7.7-3.54v8.01c0,1.14.94,2.08,2.08,2.08.31,0,.62,0,.94-.21l8.53-4.26c.73-.31,1.14-1.14,1.14-1.87v-12.17l3.64,5.3s0,.1.1.21c.94,1.04,2.08,1.87,3.43,2.18v.21c0,2.6-2.5,7.18-2.6,7.28,0,0-2.29,2.29-3.85,3.12-8.11,4.06-13.52,12.17-14.14,21.32,0,1.14.83,2.18,1.98,2.29h59.49c1.14,0,2.08-.94,2.08-2.08v-.1c-.62-9.15-5.93-17.26-14.14-21.32-3.95-1.98-6.45-6.03-6.45-10.4v-1.25c.52-.31,1.04-.83,1.46-1.25h0l4.99-6.24v13c0,.83.42,1.56,1.14,1.87l8.53,4.26c1.04.52,2.29,0,2.81-.94.1-.31.21-.62.21-.94v-8.01c1.04.62,7.7,3.54,7.7,3.54,1.04.42,2.29,0,2.81-1.14.1-.31.21-.73.1-1.14l-1.35-9.15c0-.52-.21-1.04-.31-1.56,1.66,1.25,3.54,2.39,5.3,3.43l1.56.94c1.04.62,2.29.21,2.91-.83.21-.31.31-.73.31-1.04,0-7.28-1.46-14.46-4.16-21.22,2.08,1.04,4.26,1.87,6.55,2.5l5.51,1.56c1.14.31,2.29-.31,2.6-1.46,0-.31.1-.62,0-.94-1.46-8.74-5.82-16.74-12.27-22.67l-1.35-1.25c2.91.21,5.82.1,8.74-.31l5.3-.94c1.14-.21,1.98-1.25,1.77-2.5,0-.31-.21-.62-.31-.83h0l.31-.21ZM90.1,18.3c4.37-5.3,9.98-9.57,16.33-12.27l1.04-.42c-1.87,7.7-5.82,14.87-11.44,20.49l-9.78,9.78c-.83-.62-6.34-3.85-7.07-4.16l10.82-13.31.1-.1ZM44.45,37.23l1.35-.83,2.91,3.85h-4.26s0-3.02,0-3.02ZM77,35.26l-2.81,3.74-5.51-6.66c2.91.52,5.72,1.46,8.32,2.81h0v.1ZM58.9,32.03l-5.82,6.97-3.43-4.58c2.91-1.25,6.03-2.08,9.26-2.5v.1ZM63.58,32.97l6.14,7.28h-12.17l6.14-7.28h-.1ZM80.53,37.44v2.81h-2.08l2.08-2.81ZM80.53,6.76v2.91c0,5.93-1.14,11.75-3.54,17.06l-.62,1.56-1.04,1.35s0,.1-.1.21c-1.35-.52-2.7-.94-4.16-1.25.62-2.6,1.04-5.2,1.04-7.8v-1.98c2.18-4.47,5.1-8.42,8.53-11.96h0l-.1-.1ZM63.17,6.86l.42-.73.42.73c3.74,6.24,4.78,13.83,2.91,20.9-1.46-.21-5.82-.21-6.66-.21-1.87-7.07-.83-14.56,2.91-20.7h0ZM50.06,26.83c-2.29-5.41-3.54-11.23-3.54-17.16v-2.91c3.54,3.43,6.45,7.49,8.53,11.96v1.98c0,2.5.31,4.99.94,7.38-1.56.31-3.02.62-4.47,1.14l-.73-.94-.62-1.56-.1.1ZM20.73,6.03c6.34,2.7,11.96,6.97,16.33,12.27l10.3,12.58c-1.25.52-6.86,3.85-7.38,4.06l-8.84-8.84c-5.62-5.62-9.57-12.69-11.44-20.49,0,0,1.04.42,1.04.42ZM7.63,39.1l-1.87-.31c5.1-6.14,12.27-9.98,20.18-11.02.21,0,.52-.1.73-.21.52.52,9.98,10.09,9.98,10.09-.62.62-1.14,1.25-1.56,1.87-4.26-2.08-9.15-2.5-13.62-1.14-4.47,1.25-9.15,1.56-13.73.83l-.1-.1ZM9.09,64.27l-2.08.62c1.77-6.45,5.3-12.38,10.3-16.85l6.34-5.82c3.12-.62,6.45-.31,9.46,1.04-.83,2.08-1.25,4.26-1.25,6.55-2.5,1.25-7.38,5.51-7.38,5.51-4.26,4.26-9.46,7.38-15.29,9.05l-.1-.1ZM16.99,83.2c.52-6.76,2.29-13.31,5.3-19.45l1.04-1.98h0c1.46-1.04,7.07-6.24,8.42-7.18v14.77c-3.95,5.51-8.94,10.19-14.77,13.83h0ZM25.83,92.04l.73-5.41c.31-2.5,1.04-4.89,2.08-7.07,0,0,2.08-2.29,3.02-3.33v12.69c-1.56,1.14-5.82,3.22-5.82,3.22h0v-.1ZM35.92,98.49v-48.67c0-3.74,1.56-7.18,4.26-9.78v56.26l-4.26,2.08v.1ZM69.93,93.39c0,2.7.62,5.3,1.98,7.7l-8.42,6.76-9.67-6.45c1.35-2.39,2.08-5.1,2.08-7.9h14.04v-.1ZM63.58,121.99c-1.35-2.08-2.08-4.47-2.08-6.97,0-.73.42-1.35,1.04-1.66.62-.31,1.46-.31,2.18,0,.62.31,1.04.94,1.04,1.66,0,2.5-.73,4.89-2.08,6.97h-.1ZM47.15,107.64c1.46-.73,2.91-1.77,4.06-2.91l8.32,5.51c-1.46,1.14-2.29,2.91-2.29,4.78,0,2.81.73,5.62,2.08,8.11h-12.79v-6.34c0-1.14-.94-2.08-2.08-2.08s-2.08.94-2.08,2.08v6.34h-6.76c1.14-6.76,5.41-12.48,11.54-15.5ZM78.66,107.64c6.14,3.02,10.4,8.84,11.54,15.5h-7.49v-6.34c0-1.14-.94-2.08-2.08-2.08s-2.08.94-2.08,2.08v6.34h-10.61c1.35-2.5,2.08-5.3,2.08-8.11,0-1.98-.94-3.85-2.5-4.99l6.97-5.62c1.25,1.25,2.7,2.29,4.26,3.12h0l-.1.1ZM72.32,88.19c-.52.62-1.25.94-1.98.94h-16.74c-.73,0-1.46-.31-1.98-.94l-6.45-9.46,3.02-3.02c.83-.83.83-2.18,0-3.02s-2.18-.83-3.02,0l-.62.62v-2.5l3.64-3.64c.83-.83.83-2.18,0-3.02s-2.18-.83-3.02,0l-.62.62v-11.86l9.46,2.08c1.14.21,2.29-.52,2.5-1.66.21-1.14-.52-2.29-1.66-2.5h0l-9.98-2.08h-.42v-4.26h36.09v4.37c-.42-.1-.83-.1-1.14,0l-8.53,2.08c-1.14.31-1.87,1.46-1.56,2.6s1.46,1.87,2.6,1.56h0l8.53-2.08h.1v11.96l-.62-.62c-.83-.83-2.18-.83-3.02,0s-.83,2.18,0,3.02l3.64,3.64v2.5l-.62-.62c-.83-.83-2.18-.83-3.02,0s-.83,2.18,0,3.02l2.91,2.91-7.59,9.57.1-.21ZM84.8,96.3v-56.26c2.7,2.5,4.26,6.03,4.26,9.78v48.67l-4.26-2.08v-.1ZM98.42,86.63l.73,5.41s-4.26-2.08-5.82-3.22v-12.69c.94,1.04,1.87,2.08,2.91,3.02,0,0,1.87,4.89,2.18,7.38v.1ZM101.65,61.77l1.04,2.08c3.02,6.03,4.78,12.69,5.3,19.45-5.72-3.64-10.82-8.32-14.77-13.83v-14.77c1.35.83,6.97,6.03,8.42,7.18h0v-.1ZM118.08,64.89l-2.08-.62c-5.82-1.66-11.02-4.78-15.29-9.05,0,0-4.89-4.26-7.38-5.51,0-2.29-.42-4.47-1.25-6.55,2.91-1.35,6.24-1.77,9.46-1.04l6.34,5.82c4.99,4.58,8.53,10.4,10.3,16.85h0l-.1.1ZM117.35,39.1c-4.58.73-9.26.52-13.73-.73-4.58-1.25-9.36-.83-13.62,1.14-.21-.21-.42-.52-.62-.73-.31-.42,10.4-10.4,10.82-10.82,7.49,1.14,14.25,5.1,19.14,10.82l-1.87.31h-.1Z"/>
    </g>
  </g>
</svg>