<?xml version="1.0" encoding="UTF-8"?>
<svg id="Layer_2" data-name="Layer 2" xmlns="http://www.w3.org/2000/svg" viewBox="0 0 131.67 128.39">
  <defs>
    <style>
      .cls-1 {
        fill: #ee8362;
      }
    </style>
  </defs>
  <g id="Layer_1-2" data-name="Layer 1">
    <g>
      <path class="cls-1" d="M44.51,76.51c0-9.17-7.43-16.6-16.6-16.6s-16.6,7.43-16.6,16.6,7.43,16.6,16.6,16.6c9.17-.01,16.59-7.44,16.6-16.6ZM16.91,82.33c-3.23-6.07-.92-13.61,5.16-16.84,6.07-3.23,13.61-.92,16.84,5.16,1.94,3.65,1.94,8.03,0,11.68-.74-2.37-2.49-4.28-4.79-5.22.69-1.12,1.05-2.41,1.06-3.72,0-4.01-3.25-7.26-7.26-7.26s-7.26,3.25-7.26,7.26c0,1.31.37,2.6,1.06,3.72-2.3.94-4.05,2.85-4.79,5.22ZM31.02,73.39c0,1.69-1.36,3.07-3.05,3.11h-.12c-1.72-.03-3.08-1.46-3.05-3.17.03-1.72,1.46-3.08,3.17-3.05,1.69.03,3.05,1.42,3.05,3.11ZM20.64,84.8c0-2.29,1.86-4.15,4.15-4.15h3.05s.04,0,.06,0,.04,0,.06,0h3.05c2.29,0,4.15,1.86,4.15,4.15v1.8c-4.33,3.14-10.2,3.14-14.53,0v-1.8Z"/>
      <path class="cls-1" d="M0,120.09C0,126.64,18.65,128.39,27.9,128.39s24.9-1.75,24.9-8.3c0-5.32-10.26-7.22-16.39-7.88-.07,0-.15-.01-.22-.02,7.85-10.47,16.61-22.32,16.61-35.97-.15-13.75-11.43-24.78-25.18-24.63C14.09,51.75.15,62.69,0,76.23,0,90.56,11.25,101.61,19.43,112.24c-.71.08-1.41.15-2.18.25-6.5.89-17.25,2.93-17.25,7.6h0ZM7.15,76.23c.15-11.46,9.57-20.63,21.03-20.48,11.25.15,20.33,9.23,20.48,20.48,0,12.41-8.16,23.3-16.05,33.83-1.65,2.21-3.24,4.32-4.74,6.43-1.5-2.04-3.06-4.06-4.58-6.04-8.3-10.79-16.15-20.98-16.15-34.23ZM22.42,116.15c1.29,1.7,2.58,3.42,3.79,5.13.39.55,1.02.88,1.7.88h.02c.68,0,1.32-.35,1.7-.91,1.14-1.69,2.38-3.4,3.65-5.12.92.07,1.86.13,2.71.22,8.73.94,12.37,3.03,12.69,3.66-.57,1.48-8.21,4.24-20.77,4.24s-20.19-2.76-20.77-4.07c.18-.47,2.53-2.45,10.67-3.57,1.7-.23,3.17-.37,4.61-.45h0Z"/>
      <path class="cls-1" d="M96.39,12.45h4.15v4.15h-4.15v-4.15Z"/>
      <path class="cls-1" d="M102.62,20.75h4.15v4.15h-4.15v-4.15Z"/>
      <path class="cls-1" d="M92.24,20.75h4.15v4.15h-4.15v-4.15Z"/>
      <path class="cls-1" d="M86.02,14.53h4.15v4.15h-4.15v-4.15Z"/>
      <path class="cls-1" d="M94.32,29.06h4.15v4.15h-4.15v-4.15Z"/>
      <path class="cls-1" d="M98.47,47.73h4.15v4.15h-4.15v-4.15Z"/>
      <path class="cls-1" d="M106.77,41.51h4.15v4.15h-4.15v-4.15Z"/>
      <path class="cls-1" d="M108.85,51.88h4.15v4.15h-4.15v-4.15Z"/>
      <path class="cls-1" d="M100.54,56.04h4.15v4.15h-4.15v-4.15Z"/>
      <path class="cls-1" d="M67.34,39.43h4.15v4.15h-4.15v-4.15Z"/>
      <path class="cls-1" d="M75.64,35.28h4.15v4.15h-4.15v-4.15Z"/>
      <path class="cls-1" d="M83.94,39.43h4.15v4.15h-4.15v-4.15Z"/>
      <path class="cls-1" d="M77.71,45.66h4.15v4.15h-4.15v-4.15Z"/>
      <path class="cls-1" d="M69.41,47.73h4.15v4.15h-4.15v-4.15Z"/>
      <path class="cls-1" d="M113,33.21h4.15v4.15h-4.15v-4.15Z"/>
      <path class="cls-1" d="M117.15,41.51h4.15v4.15h-4.15v-4.15Z"/>
      <path class="cls-1" d="M117.15,53.96h4.15v4.15h-4.15v-4.15Z"/>
      <path class="cls-1" d="M127.52,0H61.11c-2.29,0-4.15,1.86-4.15,4.15v66.41c0,2.29,1.86,4.15,4.15,4.15h66.41c2.29,0,4.15-1.86,4.15-4.15V4.15c0-2.29-1.86-4.15-4.15-4.15ZM127.52,4.15v13.31c-8.59,4.56-16.69,10-24.16,16.23-2.59,2.17-5.07,4.45-7.5,6.81-3.13-5.14-6.57-10.08-10.29-14.8-6.23-7.84-13.21-15.06-20.84-21.54h62.79ZM61.11,70.56V6.53c7.79,6.51,14.89,13.79,21.2,21.74,3.83,4.86,7.35,9.95,10.53,15.26-7.9,8.17-14.8,17.25-20.57,27.04h-11.16ZM77.13,70.56c12.24-20.28,29.62-36.97,50.39-48.36v48.36s-50.39,0-50.39,0Z"/>
    </g>
  </g>
</svg>