<?xml version="1.0" encoding="UTF-8"?>
<svg id="Layer_2" data-name="Layer 2" xmlns="http://www.w3.org/2000/svg" viewBox="0 0 117.4 125.72">
  <defs>
    <style>
      .cls-1 {
        fill: #ee8362;
        stroke: #ee8362;
        stroke-miterlimit: 10;
      }
    </style>
  </defs>
  <g id="Layer_1-2" data-name="Layer 1">
    <g id="Page-1">
      <g id="_023---Road-Traffic-Cone" data-name="023---Road-Traffic-Cone">
        <path id="Shape" class="cls-1" d="M89.88,17.13c1.15,0,2.08-.93,2.08-2.08v-4.16c0-1.15-.93-2.08-2.08-2.08s-2.08.93-2.08,2.08v4.16c0,1.15.93,2.08,2.08,2.08Z"/>
        <path id="Shape-2" data-name="Shape" class="cls-1" d="M87.8,27.52c0,1.15.93,2.08,2.08,2.08s2.08-.93,2.08-2.08v-4.16c0-1.15-.93-2.08-2.08-2.08s-2.08.93-2.08,2.08v4.16Z"/>
        <path id="Shape-3" data-name="Shape" class="cls-1" d="M87.8,39.99c0,1.15.93,2.08,2.08,2.08s2.08-.93,2.08-2.08v-4.16c0-1.15-.93-2.08-2.08-2.08s-2.08.93-2.08,2.08v4.16Z"/>
        <path id="Shape-4" data-name="Shape" class="cls-1" d="M87.8,52.47c0,1.15.93,2.08,2.08,2.08s2.08-.93,2.08-2.08v-4.16c0-1.15-.93-2.08-2.08-2.08s-2.08.93-2.08,2.08v4.16Z"/>
        <path id="Shape-5" data-name="Shape" class="cls-1" d="M87.8,64.94c0,1.15.93,2.08,2.08,2.08s2.08-.93,2.08-2.08v-4.16c0-1.15-.93-2.08-2.08-2.08s-2.08.93-2.08,2.08v4.16Z"/>
        <path id="Shape-6" data-name="Shape" class="cls-1" d="M87.8,77.41c0,1.15.93,2.08,2.08,2.08s2.08-.93,2.08-2.08v-4.16c0-1.15-.93-2.08-2.08-2.08s-2.08.93-2.08,2.08v4.16Z"/>
        <path id="Shape-7" data-name="Shape" class="cls-1" d="M87.8,89.88c0,1.15.93,2.08,2.08,2.08s2.08-.93,2.08-2.08v-4.16c0-1.15-.93-2.08-2.08-2.08s-2.08.93-2.08,2.08v4.16Z"/>
        <path id="Shape-8" data-name="Shape" class="cls-1" d="M87.07,123.14c0,1.15.93,2.08,2.08,2.08h23.59c2.3,0,4.16-1.86,4.16-4.16V4.66c0-2.3-1.86-4.16-4.16-4.16h-45.73c-2.3,0-4.16,1.86-4.16,4.16v56.12c0,1.15.93,2.08,2.08,2.08s2.08-.93,2.08-2.08V4.66h4.16v83.14c0,1.15.93,2.08,2.08,2.08s2.08-.93,2.08-2.08V4.66h29.1v116.4h-15.28c-1.15,0-2.08.93-2.08,2.08h0ZM108.59,4.66h4.16v116.4h-4.16V4.66Z"/>
        <path id="Shape-9" data-name="Shape" class="cls-1" d="M87.8,114.82c0,1.15.93,2.08,2.08,2.08s2.08-.93,2.08-2.08v-4.16c0-1.15-.93-2.08-2.08-2.08s-2.08.93-2.08,2.08v4.16Z"/>
        <path id="Shape-10" data-name="Shape" class="cls-1" d="M87.8,102.35c0,1.15.93,2.08,2.08,2.08s2.08-.93,2.08-2.08v-4.16c0-1.15-.93-2.08-2.08-2.08s-2.08.93-2.08,2.08v4.16Z"/>
        <path id="Shape-11" data-name="Shape" class="cls-1" d="M4.66,125.22h74.83c2.3,0,4.16-1.86,4.16-4.16v-6.24c.02-1.66-.97-3.16-2.49-3.81l-8.27-3.92-18.33-58.39c-.69-2.17-2.45-3.82-4.66-4.36s-4.54.11-6.15,1.71c-.92.91-2.4.91-3.33,0-1.61-1.61-3.94-2.26-6.16-1.72-2.21.54-3.98,2.2-4.66,4.37l-18.34,58.39-8.15,3.86c-1.58.63-2.62,2.16-2.61,3.86v6.24c0,2.3,1.86,4.16,4.16,4.16h0ZM62.47,87.8H21.68l5.87-18.71h29.05l5.87,18.71ZM33.55,49.95c.25-.78.89-1.38,1.69-1.57s1.64.04,2.23.62c2.55,2.53,6.65,2.53,9.2,0,.58-.58,1.43-.82,2.23-.62s1.44.79,1.69,1.57l4.71,14.99h-26.44l4.7-14.99ZM20.37,91.96h43.41l4.57,14.55H15.8l4.57-14.55ZM4.78,114.77l8.66-4.11h57.27l8.78,4.16v6.24H4.66l.12-6.29Z"/>
      </g>
    </g>
  </g>
</svg>