<?xml version="1.0" encoding="UTF-8"?>
<svg id="Layer_2" data-name="Layer 2" xmlns="http://www.w3.org/2000/svg" viewBox="0 0 114.86 122.99">
  <defs>
    <style>
      .cls-1 {
        fill: #ee8362;
        stroke: #ee8362;
        stroke-miterlimit: 10;
      }
    </style>
  </defs>
  <g id="Layer_1-2" data-name="Layer 1">
    <g id="_20-Price_Down" data-name=" 20-Price Down">
      <path class="cls-1" d="M33.03,94.03H10.67v-4.07h14.23c1.12,0,2.03-.91,2.03-2.03s-.91-2.03-2.03-2.03h-8.13v-43.57L51.33,15.28l34.56,27.04v35.44c0,1.12.91,2.03,2.03,2.03s2.03-.91,2.03-2.03v-32.25l3.2,2.5c.88.69,2.16.54,2.85-.34,0,0,0,0,0,0l5.71-7.28c.69-.88.54-2.16-.34-2.85,0,0,0,0,0,0l-11.42-8.94V2.53c0-1.12-.91-2.03-2.03-2.03h-16.27c-1.12,0-2.03.91-2.03,2.03h0v10.15l-13.41-10.5C53.32,0,49.34,0,46.44,2.19L1.28,37.53c-.88.69-1.04,1.97-.35,2.85,0,0,0,0,0,0l5.71,7.28c.69.88,1.96,1.04,2.85.35,0,0,0,0,0,0l3.2-2.5v40.39h-4.07c-1.12,0-2.03.91-2.03,2.03h0v8.13c0,1.12.91,2.03,2.03,2.03h24.4c1.12,0,2.03-.91,2.03-2.03s-.91-2.03-2.03-2.03ZM73.7,4.57h12.2v20.84l-12.2-9.55V4.57ZM8.59,43.56l-3.2-4.08L48.95,5.39c1.41-1.06,3.35-1.06,4.76,0l43.56,34.09-3.2,4.08L52.58,11.1c-.74-.58-1.77-.58-2.51,0L8.59,43.56ZM114.36,91.99v24.4c0,3.37-2.73,6.1-6.1,6.1h-24.4c-1.12,0-2.03-.91-2.03-2.03h0v-8.13c0-1.12.91-2.03,2.03-2.03h9.33l-17.46-17.46-11.11,11.11c-3.97,3.96-10.4,3.96-14.38,0l-28.81-28.81c-.79-.8-.78-2.09.03-2.87.79-.78,2.06-.78,2.85,0l28.81,28.81c2.39,2.37,6.24,2.37,8.63,0l12.55-12.55c.81-.76,2.07-.76,2.88,0l22.37,22.37c.79.79.79,2.08,0,2.88-.38.38-.9.6-1.44.6h-12.2v4.07h22.37c1.12,0,2.03-.91,2.03-2.03v-22.37h-4.07v12.2c0,1.12-.91,2.03-2.03,2.03-.54,0-1.06-.21-1.44-.6l-22.71-22.71c-2.39-2.37-6.24-2.37-8.63,0l-12.55,12.55c-.81.76-2.07.76-2.88,0l-28.46-28.46c-.79-.8-.78-2.09.02-2.88.79-.78,2.07-.78,2.86,0l27.03,27.03,11.11-11.11c3.97-3.96,10.4-3.96,14.38,0l19.24,19.24v-9.32c0-1.12.91-2.03,2.03-2.03h8.13c1.12,0,2.03.91,2.03,2.03h0ZM45.23,45.23c0,3.37,2.73,6.1,6.1,6.1,5.61,0,10.17,4.55,10.17,10.17,0,4.83-3.4,8.99-8.13,9.96v4.27c0,1.12-.91,2.03-2.03,2.03s-2.03-.91-2.03-2.03v-4.27c-4.73-.97-8.13-5.13-8.13-9.96,0-1.12.91-2.03,2.03-2.03s2.03.91,2.03,2.03c0,3.37,2.73,6.1,6.1,6.1s6.1-2.73,6.1-6.1-2.73-6.1-6.1-6.1c-5.61,0-10.17-4.55-10.17-10.17,0-4.83,3.4-8.99,8.13-9.96v-4.27c0-1.12.91-2.03,2.03-2.03s2.03.91,2.03,2.03v4.27c4.73.97,8.13,5.13,8.13,9.96,0,1.12-.91,2.03-2.03,2.03s-2.03-.91-2.03-2.03c0-3.37-2.73-6.1-6.1-6.1s-6.1,2.73-6.1,6.1Z"/>
    </g>
  </g>
</svg>