<?xml version="1.0" encoding="UTF-8"?>
<svg id="Layer_1" xmlns="http://www.w3.org/2000/svg" version="1.1" viewBox="0 0 1280 720">
  <!-- Generator: Adobe Illustrator 29.0.0, SVG Export Plug-In . SVG Version: 2.1.0 Build 186)  -->
  <defs>
    <style>
      .st0, .st1 {
        fill: none;
      }

      .st2 {
        opacity: .2;
      }

      .st2, .st3 {
        isolation: isolate;
      }

      .st2, .st3, .st4 {
        fill: #f2a690;
      }

      .st3 {
        opacity: .5;
      }

      .st1 {
        stroke: #fff;
        stroke-miterlimit: 10;
        stroke-width: 16px;
      }

      .st5 {
        fill: #009eca;
      }

      .st6 {
        fill: #ceafce;
      }

      .st7 {
        fill: #045162;
      }

      .st8 {
        fill: #fb0;
      }

      .st9 {
        fill: #fff;
      }
    </style>
  </defs>
  <path class="st5" d="M1214.9,746.5c9.2-41.3,14-84.2,14-128.2,0-325.2-263.6-588.9-588.9-588.9S51.1,293.1,51.1,618.3s8.3,134.3,14,128.2h1149.7,0Z"/>
  <path class="st9" d="M1144.2,746.5c10.4-41,15.9-84,15.9-128.2,0-287.3-232.9-520.1-520.1-520.1S119.9,331.1,119.9,618.2s15.9,128.2,15.9,128.2h1008.4Z"/>
  <path class="st2" d="M1156.8,559.6c-29.2-259.6-249.4-461.3-516.8-461.3S119.9,331.2,119.9,618.3s15.9,128.2,15.9,128.2h209.7c-17.2-39.3-26.7-82.6-26.7-128.2,0-177.4,143.8-321.1,321.1-321.1s314.5,137.3,320.8,309l196-46.6h.1Z"/>
  <path class="st5" d="M961.1,612.8v-1.2,1.2Z"/>
  <path class="st6" d="M1080.4,341.5c.6.9,1.3,2,1.9,2.9-.6-.9-1.3-2-1.9-2.9Z"/>
  <path class="st6" d="M1077,336.3c.6.9,1.3,2,1.9,2.9-.6-1-1.3-2-1.9-2.9Z"/>
  <path class="st6" d="M1086.9,352.1c.6.9,1.2,1.9,1.7,2.9-.5-.9-1.2-1.9-1.7-2.9Z"/>
  <path class="st6" d="M1083.6,346.7c.6.9,1.2,2,1.8,2.9-.6-.9-1.2-2-1.8-2.9Z"/>
  <path class="st6" d="M1073.7,331.2c.6,1,1.4,2,2,3-.6-1-1.4-2-2-3Z"/>
  <path class="st6" d="M1055.9,306.1c.8,1,1.6,2.2,2.4,3.2-.8-1-1.6-2.2-2.4-3.2Z"/>
  <path class="st6" d="M1059.6,311c.7,1,1.6,2.1,2.3,3.1-.7-1-1.6-2.1-2.3-3.1Z"/>
  <path class="st6" d="M1063.2,315.9c.7,1,1.5,2.1,2.2,3.1-.7-1-1.5-2.1-2.2-3.1Z"/>
  <path class="st6" d="M1066.8,321c.7,1,1.5,2.1,2.1,3-.7-1-1.5-2.1-2.1-3Z"/>
  <path class="st6" d="M1070.2,326c.7,1,1.4,2,2.1,3-.7-1-1.4-2-2.1-3Z"/>
  <path class="st6" d="M1090,357.4c.5.9,1.2,1.9,1.7,2.8-.5-.9-1.2-1.9-1.7-2.8Z"/>
  <path class="st6" d="M1036.7,281.9c-10.4-12.2-21.2-23.9-32.6-35.1,11.4,11.2,22.3,22.9,32.6,35.1Z"/>
  <path class="st6" d="M1093.1,362.8c.5.9,1,1.9,1.6,2.8-.5-.9-1-1.9-1.6-2.8Z"/>
  <path class="st6" d="M1096.1,368.2c.5.9,1,1.9,1.6,2.8-.5-.9-1-1.9-1.6-2.8Z"/>
  <path class="st6" d="M1102,379.2c.5.9.9,1.8,1.5,2.7-.4-.9-.9-1.9-1.5-2.7Z"/>
  <path class="st6" d="M1099.1,373.7c.5.9,1,1.9,1.5,2.8-.5-.9-.9-1.9-1.5-2.8Z"/>
  <path class="st6" d="M905.3,437.3c-.1-.2-.3-.4-.4-.6.1.2.3.4.4.6Z"/>
  <path class="st6" d="M896.5,425.2c-.2-.2-.3-.4-.5-.6.2.2.3.4.5.6Z"/>
  <path class="st6" d="M901,431.2c-.1-.2-.3-.4-.4-.6.1.2.3.4.4.6Z"/>
  <path class="st6" d="M892,419.3c-.2-.2-.3-.4-.5-.6.2.2.3.4.5.6Z"/>
  <path class="st6" d="M913.4,449.9c0-.2-.2-.3-.3-.5,0,.2.2.3.3.5Z"/>
  <path class="st6" d="M917.2,456.1c0-.1-.1-.2-.2-.4,0,.1.1.2.2.4Z"/>
  <path class="st6" d="M909.4,443.6c-.1-.2-.2-.4-.4-.6.1.2.2.4.4.6Z"/>
  <path class="st6" d="M920.9,462.5s0-.1-.1-.2c0,0,0,.1.1.2Z"/>
  <path class="st6" d="M887.3,413.5c-.1-.2-.3-.3-.4-.5.1.2.3.3.4.5Z"/>
  <path class="st6" d="M882.4,407.7c-.1-.1-.2-.3-.4-.4.1.1.3.3.4.4Z"/>
  <path class="st6" d="M1044.6,291.5c.9,1.2,1.9,2.4,2.8,3.6-.9-1.2-1.9-2.4-2.8-3.6Z"/>
  <path class="st6" d="M1036.8,282c1.2,1.4,2.3,2.7,3.5,4.1-1.2-1.4-2.3-2.7-3.5-4.1Z"/>
  <path class="st6" d="M1048.5,296.3c.9,1.2,1.8,2.3,2.7,3.5-.8-1.2-1.8-2.3-2.7-3.5Z"/>
  <path class="st6" d="M1040.7,286.7c1,1.3,2.1,2.5,3.1,3.8-1-1.3-2.1-2.5-3.1-3.8h0Z"/>
  <path class="st6" d="M877.4,402.2l-.3-.3.3.3Z"/>
  <path class="st6" d="M1052.3,301.2c.8,1.2,1.7,2.2,2.5,3.3-.8-1.2-1.7-2.2-2.5-3.3Z"/>
  <path class="st6" d="M872.3,396.6h-.1q0-.1.1,0Z"/>
  <path class="st2" d="M521.8,319.7h0l-109.5-169.1c12.9-6.3,25.9-12,39.3-17.3C257.5,208.7,119.8,397.5,119.8,618.2s15.9,128.2,15.9,128.2h209.7c-17.2-39.3-26.7-82.6-26.7-128.2,0-135.6,84.1-251.6,203-298.7h.1Z"/>
  <path class="st6" d="M640,297.2h-4.1,4.1Z"/>
  <path class="st6" d="M525.4,318.3c-.2,0-.4.2-.6.2.2,0,.4-.2.6-.2Z"/>
  <path class="st6" d="M532.5,315.7c-.3.1-.7.2-1,.4.3-.1.7-.2,1-.4Z"/>
  <path class="st6" d="M536.2,314.4c-.4.1-.7.3-1.2.4.4-.1.7-.3,1.2-.4Z"/>
  <path class="st6" d="M528.9,316.9c-.3.1-.6.2-.9.3.3-.1.6-.2.9-.3Z"/>
  <path class="st6" d="M539.7,313.2c-.4.1-.8.3-1.3.4.4-.1.8-.3,1.3-.4Z"/>
  <path class="st6" d="M694,301.8c-.2,0-.4,0-.7-.1.2,0,.4,0,.7.1Z"/>
  <path class="st6" d="M658,297.7h-1.4,1.4Z"/>
  <path class="st6" d="M697.9,302.4c-.2,0-.4,0-.6-.1.2,0,.4,0,.6.1Z"/>
  <path class="st6" d="M713.5,305.7h-.3.3Z"/>
  <path class="st6" d="M709.6,304.8h-.4.4Z"/>
  <path class="st6" d="M705.8,304h-.5.5Z"/>
  <path class="st6" d="M701.9,303.1c-.2,0-.4,0-.5-.1.2,0,.4,0,.5.1Z"/>
  <path class="st6" d="M686.1,300.5c-.3,0-.5,0-.8-.1.3,0,.5,0,.8.1Z"/>
  <path class="st6" d="M682.1,300c-.3,0-.6,0-.9-.1.3,0,.6,0,.9.1Z"/>
  <path class="st6" d="M670.1,298.6c-.4,0-.8,0-1.2-.1.4,0,.8,0,1.2.1Z"/>
  <path class="st6" d="M662.1,297.9h-1.3,1.3Z"/>
  <path class="st6" d="M666.1,298.2h-1.3,1.3Z"/>
  <path class="st6" d="M674.2,299.1c-.4,0-.7,0-1.2-.1.4,0,.7,0,1.2.1Z"/>
  <path class="st6" d="M678.2,299.5c-.3,0-.7,0-1-.1.3,0,.7,0,1,.1Z"/>
  <path class="st6" d="M690.1,301c-.2,0-.5,0-.7-.1.2,0,.5,0,.7.1Z"/>
  <path class="st6" d="M751.5,317h0Z"/>
  <path class="st6" d="M747.7,315.8h0Z"/>
  <path class="st6" d="M755.1,318.5h0Z"/>
  <path class="st6" d="M758.9,320h0Z"/>
  <path class="st6" d="M744.1,314.4h0Z"/>
  <path class="st6" d="M762.6,321.4h0Z"/>
  <path class="st6" d="M728.9,309.7h-.1.1Z"/>
  <path class="st6" d="M725,308.6h-.2.2Z"/>
  <path class="st6" d="M717.4,306.6h-.3.3Z"/>
  <path class="st6" d="M721.3,307.5h-.2.2Z"/>
  <path class="st6" d="M740.3,313.2h0Z"/>
  <path class="st6" d="M736.4,311.9h0Z"/>
  <path class="st6" d="M732.7,310.8h-.1.1Z"/>
  <path class="st6" d="M579,303h-.5.5Z"/>
  <path class="st6" d="M543.4,312c-.4.1-.8.3-1.3.4.4-.1.8-.3,1.3-.4Z"/>
  <path class="st6" d="M582.8,302.3c-.5,0-.9.2-1.5.3.5,0,.9-.2,1.5-.3Z"/>
  <path class="st6" d="M571.8,304.5h-.2.2Z"/>
  <path class="st6" d="M594.4,300.4c-.6,0-1.3.2-1.9.3.6,0,1.3-.2,1.9-.3Z"/>
  <path class="st6" d="M569,305.1c-.4,0-.7.2-1.2.2.4,0,.7-.2,1.2-.2Z"/>
  <path class="st6" d="M586.7,301.6c-.5,0-1.2.2-1.7.3.5,0,1.2-.2,1.7-.3Z"/>
  <path class="st6" d="M590.5,300.9c-.6,0-1.3.2-1.8.3.6,0,1.3-.2,1.8-.3Z"/>
  <path class="st6" d="M554.3,308.8c-.4.1-.9.2-1.4.4.4-.1.9-.2,1.4-.4Z"/>
  <path class="st6" d="M565.4,306c-.4,0-.8.2-1.3.3.4,0,.8-.2,1.3-.3Z"/>
  <path class="st6" d="M547,310.9c-.4.1-.8.3-1.4.4.4-.1.8-.3,1.4-.4Z"/>
  <path class="st6" d="M550.7,309.8c-.4.1-.9.2-1.4.4.4-.1.9-.3,1.4-.4Z"/>
  <path class="st6" d="M561.8,306.8c-.4.1-.9.2-1.4.3.4-.1.9-.2,1.4-.3Z"/>
  <path class="st6" d="M558,307.7c-.4.1-.9.2-1.4.3.4-.1.9-.2,1.4-.3Z"/>
  <path class="st6" d="M645.3,297.3h-1.2,1.2Z"/>
  <path class="st6" d="M634.7,297.3h-2.7,2.7Z"/>
  <path class="st6" d="M626.2,297.5h-2.3,2.3Z"/>
  <path class="st6" d="M630.4,297.4h-2.4,2.4Z"/>
  <path class="st3" d="M874.2,398.8l142-139.9c-40.4-43.3-99.7-87.5-151.6-109.9l-98.4,173.9h0"/>
  <path class="st6" d="M649.7,297.4h-1.4,1.4Z"/>
  <path class="st6" d="M653.9,297.5h-1.5,1.5Z"/>
  <path class="st6" d="M606.2,299c-.6,0-1.4.1-2,.2.6,0,1.4-.1,2-.2Z"/>
  <path class="st6" d="M598.4,299.9c-.6,0-1.3.2-1.9.2.6,0,1.3-.2,1.9-.2Z"/>
  <path class="st6" d="M602.2,299.4c-.6,0-1.4.1-2,.2.6,0,1.4-.2,2-.2Z"/>
  <path class="st6" d="M610.2,298.5c-.6,0-1.4.1-2,.2.6,0,1.4-.1,2-.2Z"/>
  <path class="st6" d="M618.1,297.9c-.7,0-1.4,0-2.1.1.7,0,1.4,0,2.1-.1Z"/>
  <path class="st6" d="M622.1,297.7c-.7,0-1.5,0-2.2.1.7,0,1.5,0,2.2-.1Z"/>
  <path class="st6" d="M614.2,298.2c-.7,0-1.4.1-2.1.2.7,0,1.4-.1,2.1-.2Z"/>
  <path class="st2" d="M123.4,557.9c-2.3,19.8-3.5,39.9-3.5,60.3,0,44.2,5.5,87.2,15.9,128.2h209.7c-17.2-39.3-26.7-82.6-26.7-128.2s0-9.2.3-13.7l-195.8-46.6h0Z"/>
  <path class="st3" d="M412.1,150.7c-74,36.2-138.3,89.4-187.4,154.6l151.4,130.1c36-51.9,86.9-92.7,146.5-116.1l-110.5-168.7h0Z"/>
  <path class="st4" d="M521.8,319.7c36.6-14.4,76.4-22.5,118.2-22.5s87.4,9.2,126.1,25.7l98.4-173.9c-68-32.6-144.1-50.8-224.5-50.8s-158.9,18.8-227.6,52.3l109.5,169.1h-.1Z"/>
  <path class="st2" d="M1114.2,404.2l-180,85.1c17.4,39.4,27,83.1,27,128.9s-9.5,88.9-26.7,128.2h209.7c10.4-41,15.9-84,15.9-128.2,0-76.3-16.4-148.8-46-214.1h.1Z"/>
  <path class="st8" d="M934.5,746.5c17.2-39.3,26.7-82.6,26.7-128.2,0-177.4-143.8-321.1-321.1-321.1s-321.1,143.8-321.1,321.1-3.2,128.2,26.7,128.2h588.9-.1Z"/>
  <path class="st9" d="M838.7,746.5c25.3-37.9,40.1-83.3,40.1-132.3,0-131.9-106.9-238.8-238.8-238.8s-238.8,106.9-238.8,238.8,14.7,94.4,40.1,132.3h397.4Z"/>
  <g>
    <path class="st7" d="M173.4,620.9c1.2,0,2.2.2,3.1.6s1.6,1,2.1,1.9.7,1.8.7,2.8-.2,2.1-.7,2.8c-.5.8-1.2,1.5-2.1,1.9s-1.9.6-3.1.6h-4.1v6.9h-2.1v-17.7h6.2ZM173.1,629.6c1.4,0,2.4-.3,3-.8.6-.6.9-1.4.9-2.5s-.3-2-.9-2.5c-.6-.5-1.7-.8-3-.8h-3.8v6.7h3.8Z"/>
    <path class="st7" d="M182.8,638.5v-13.4h1.8l.3,2.2c.4-.8.9-1.5,1.7-1.9s1.6-.6,2.6-.6.5,0,.7,0c.3,0,.5.1.7.2l-.4,2c-.2,0-.4-.1-.6-.2h-.9c-.4,0-1.2.2-1.7.5s-1,.8-1.4,1.5c-.4.6-.5,1.5-.5,2.5v7.2h-2.3Z"/>
    <path class="st7" d="M198.9,624.8c1.3,0,2.4.3,3.3.8s1.8,1.4,2.3,2.4.8,2.3.8,3.8-.3,2.7-.8,3.8-1.4,1.9-2.3,2.4-2.1.8-3.3.8-2.4-.3-3.3-.8-1.8-1.4-2.3-2.4-.8-2.3-.8-3.8.3-2.7.8-3.8,1.4-1.9,2.3-2.4,2.1-.8,3.3-.8ZM198.9,626.7c-.9,0-1.7.2-2.3.6s-1.2.9-1.5,1.8-.5,1.7-.5,2.7.2,2,.5,2.7c.3.7.8,1.4,1.5,1.8s1.5.6,2.3.6,1.7-.2,2.3-.6,1.2-1,1.5-1.8c.3-.7.5-1.7.5-2.7s-.2-2-.5-2.7-.8-1.4-1.5-1.8-1.5-.6-2.3-.6Z"/>
    <path class="st7" d="M214.4,638.7c-1.2,0-2.1-.3-3-.8s-1.7-1.4-2.2-2.4-.8-2.3-.8-3.8.3-2.7.8-3.8c.6-1,1.4-1.8,2.3-2.4.9-.5,2-.8,3.1-.8s2.1.3,2.8.8c.8.5,1.4,1.4,1.6,2.3l-.3.2v-9.2h2.1v19.5h-1.9l-.2-3.2.3-.2c-.1.7-.4,1.5-.9,2s-1,.9-1.8,1.3-1.4.4-2.2.4l.3.2ZM214.6,636.9c.8,0,1.6-.2,2.2-.6.6-.4,1.2-1,1.5-1.9.3-.8.5-1.7.5-2.8s-.2-1.9-.5-2.6-.8-1.3-1.5-1.7c-.6-.4-1.4-.6-2.2-.6-1.4,0-2.4.4-3.1,1.4-.7.9-1.2,2.2-1.2,3.7s.3,2.7,1,3.7,1.8,1.4,3,1.4l.2.2Z"/>
    <path class="st7" d="M230.5,638.7c-.8,0-1.7-.2-2.4-.5s-1.4-.8-1.9-1.6-.7-1.7-.7-2.8v-8.8h2.1v8.2c0,1.4.3,2.3.8,2.8.6.5,1.5.7,2.5.7s.9,0,1.5-.2.9-.4,1.3-.8c.4-.3.7-.8.9-1.4s.3-1.3.3-2v-7.2h2.1v13.4h-1.9v-2c-.6.8-1.3,1.4-2,1.8-.8.3-1.7.5-2.8.5h.2Z"/>
    <path class="st7" d="M247.3,624.8c.9,0,1.8.1,2.4.4.7.3,1.4.7,1.8,1.3.5.5.9,1.2,1.3,1.9l-2,.9c-.3-.8-.7-1.5-1.3-2-.6-.4-1.4-.7-2.3-.7s-1.7.2-2.3.6-1.2.9-1.5,1.8c-.3.7-.5,1.7-.5,2.7s.2,2,.5,2.7c.3.7.8,1.4,1.5,1.8s1.4.6,2.3.6,1.3-.1,1.8-.3.9-.5,1.3-.9.5-.9.7-1.5l2,.7c-.3.8-.7,1.6-1.3,2.1-.5.6-1.2,1-1.9,1.4-.7.3-1.6.4-2.5.4s-2.4-.3-3.3-.8c-.9-.5-1.8-1.4-2.3-2.4s-.8-2.3-.8-3.8.3-2.7.8-3.8,1.4-1.9,2.3-2.4c.9-.5,2.1-.8,3.3-.8h0ZM245.8,638.4l1.2-.6c1,.3,1.8.8,2.2,1.4.4.6.6,1.3.6,2.1s-.3,1.6-.9,2.2-1.4.9-2.3.9-1,0-1.5-.2c-.4-.1-.7-.3-1-.5l.5-1.6c.2.2.5.3.8.4.3.1.6.2,1,.2s.9-.2,1.3-.5c.3-.3.5-.8.5-1.4s-.2-.8-.5-1.2-.9-.7-1.8-1v-.2Z"/>
    <path class="st7" d="M264.2,629.8c0-1-.3-1.8-.8-2.3s-1.3-.8-2.3-.8-1.7.2-2.3.6-1.2,1-1.5,2l-1.8-1c.3-1,1-1.8,2-2.4s2.2-.9,3.6-.9,1.9.2,2.6.5,1.4.8,1.9,1.5c.4.6.7,1.6.7,2.6v6.5c0,.6.3.9,1,.9s.6,0,.9-.1v1.7c-.4.2-.9.3-1.5.3s-.9,0-1.4-.3c-.4-.2-.7-.5-.9-.9-.2-.4-.3-.9-.3-1.5v-.3h.5c-.2.7-.6,1.4-1,1.8-.5.4-1,.7-1.8.9s-1.3.3-1.9.3-1.5-.1-2.2-.4c-.6-.3-1.3-.6-1.6-1.3-.4-.5-.6-1.3-.6-2s.3-1.8,1-2.5c.6-.6,1.6-1,2.8-1.4l5.3-1v1.8l-4.3.8c-.8.2-1.6.4-2,.7s-.6.7-.6,1.4.2,1,.6,1.4,1,.5,1.9.5,1,0,1.5-.2c.5-.1.9-.3,1.3-.6s.6-.6.8-1c.2-.4.3-.9.3-1.5v-3.7h-.1ZM266.2,619.3c0,.7-.2,1.5-.4,2-.2.5-.5.9-.9,1.2-.4.3-.9.4-1.6.4s-.9,0-1.3-.3-.6-.4-.9-.6c-.2-.2-.5-.4-.7-.6s-.5-.3-.8-.3-.7.2-.8.5c-.2.3-.3.7-.4,1.4h-1.7c0-1.2.4-2.1.8-2.7.5-.6,1.3-.9,2.2-.9s.9,0,1.3.3.6.4.9.6.5.4.7.6.5.3.7.3c.4,0,.7-.2.9-.5.2-.3.3-.7.4-1.4h1.7-.1Z"/>
    <path class="st7" d="M276.9,624.8c1.3,0,2.4.3,3.3.8s1.8,1.4,2.3,2.4.8,2.3.8,3.8-.3,2.7-.8,3.8-1.4,1.9-2.3,2.4-2.1.8-3.3.8-2.4-.3-3.3-.8c-.9-.5-1.8-1.4-2.3-2.4s-.8-2.3-.8-3.8.3-2.7.8-3.8,1.4-1.9,2.3-2.4c.9-.5,2.1-.8,3.3-.8ZM276.9,626.7c-.9,0-1.7.2-2.3.6s-1.2.9-1.5,1.8-.5,1.7-.5,2.7.2,2,.5,2.7c.3.7.8,1.4,1.5,1.8s1.5.6,2.3.6,1.7-.2,2.3-.6,1.2-1,1.5-1.8.5-1.7.5-2.7-.2-2-.5-2.7-.8-1.4-1.5-1.8-1.5-.6-2.3-.6Z"/>
    <path class="st7" d="M158.2,670.5h-2.3l-1.9-4.9h-7.9l-1.9,4.9h-2.2l6.9-17.7h2.5l6.8,17.7h0ZM146.8,663.6h6.5l-3.2-8.7-3.2,8.7h0Z"/>
    <path class="st7" d="M168.2,668.9c1.3,0,2.3.3,2.9.8.7.6,1,1.4,1,2.3s-.3,1.7-.8,2.3c-.6.6-1.4,1.2-2.3,1.5-.9.3-2.1.5-3.2.5-2.1,0-3.7-.3-4.7-1s-1.6-1.6-1.6-2.6.2-1.4.7-1.9,1.3-.8,2.4-.9l-.2.4c-.6-.2-1.2-.4-1.6-.8-.4-.4-.6-.9-.6-1.7s.3-1.4.8-1.9,1.4-.8,2.4-.9l1.5.7h-.3c-.8,0-1.5.3-1.9.6-.3.3-.5.7-.5,1.2s.2.8.5,1.2c.3.2.8.3,1.6.3h3.9ZM165.6,656.9c1,0,2,.2,2.8.5.8.4,1.5.9,2,1.6.4.6.7,1.5.7,2.3s-.2,1.7-.7,2.3c-.4.7-1.2,1.3-2,1.6-.8.4-1.8.5-2.8.5-1.8,0-3.1-.4-4.1-1.3s-1.5-1.9-1.5-3.2.2-1.7.7-2.3c.5-.6,1.2-1.3,2-1.6.8-.4,1.8-.5,2.8-.5h0ZM165.8,674.5c1,0,1.9-.1,2.5-.3.6-.2,1.2-.5,1.5-.8.3-.3.5-.7.5-1s-.2-.8-.5-1.2c-.4-.3-1-.4-2.1-.4h-4.1c-.5,0-1,.1-1.5.4-.4.3-.6.7-.6,1.3s.4,1.2,1.2,1.6c.7.4,1.8.6,3.1.6h0ZM165.6,658.6c-.9,0-1.7.2-2.3.7-.6.5-.9,1.2-.9,2s.3,1.5.9,2c.6.5,1.4.7,2.3.7s1.7-.2,2.3-.7c.6-.5.9-1.2.9-2s-.3-1.5-.9-2c-.6-.5-1.4-.7-2.3-.7ZM172.3,654.7l.5,1.9h-.2c-.8,0-1.6.2-2,.5s-.7.9-.7,1.7l-1.4-.6c0-.7.2-1.3.5-1.8s.7-.9,1.4-1.2c.5-.3,1.2-.4,1.8-.4h.1,0Z"/>
    <path class="st7" d="M175,670.5v-13.4h1.8l.3,2.2c.4-.8.9-1.5,1.7-1.9s1.6-.6,2.6-.6.5,0,.7,0c.3,0,.5.1.7.2l-.4,2c-.2,0-.4-.1-.6-.2h-.9c-.4,0-1.2.2-1.7.5s-1,.8-1.4,1.5c-.4.6-.5,1.5-.5,2.5v7.2h-2.3Z"/>
    <path class="st7" d="M187.4,650.4h2.3l-2.6,4.5h-1.8l2-4.5h.1ZM187.8,657.1v13.4h-2.1v-13.4h2.1Z"/>
    <path class="st7" d="M198,656.9c.9,0,1.8.1,2.4.4.7.3,1.4.7,1.8,1.3.5.5.9,1.2,1.3,1.9l-2,.9c-.3-.8-.7-1.5-1.3-2-.6-.4-1.4-.7-2.3-.7s-1.7.2-2.3.6-1.2.9-1.5,1.8c-.3.7-.5,1.7-.5,2.7s.2,2,.5,2.7c.3.7.8,1.4,1.5,1.8s1.4.6,2.3.6,1.3-.1,1.8-.3.9-.5,1.3-.9.5-.9.7-1.5l2,.7c-.3.8-.7,1.6-1.3,2.1-.5.6-1.2,1-1.9,1.4s-1.6.4-2.5.4-2.4-.3-3.3-.8-1.8-1.4-2.3-2.4-.8-2.3-.8-3.8.3-2.7.8-3.8,1.4-1.9,2.3-2.4,2.1-.8,3.3-.8h0Z"/>
    <path class="st7" d="M212.7,656.9c1.3,0,2.4.3,3.3.8s1.8,1.4,2.3,2.4.8,2.3.8,3.8-.3,2.7-.8,3.8-1.4,1.9-2.3,2.4-2.1.8-3.3.8-2.4-.3-3.3-.8-1.8-1.4-2.3-2.4-.8-2.3-.8-3.8.3-2.7.8-3.8,1.4-1.9,2.3-2.4,2.1-.8,3.3-.8ZM212.7,658.7c-.9,0-1.7.2-2.3.6s-1.2.9-1.5,1.8-.5,1.7-.5,2.7.2,2,.5,2.7c.3.7.8,1.4,1.5,1.8s1.5.6,2.3.6,1.7-.2,2.3-.6,1.2-1,1.5-1.8c.3-.7.5-1.7.5-2.7s-.2-2-.5-2.7-.8-1.4-1.5-1.8-1.5-.6-2.3-.6Z"/>
    <path class="st7" d="M224.9,651.1v16.1c0,.6.1,1.2.4,1.4s.6.4,1.2.4h.8c.2,0,.5-.1.9-.3l-.3,1.9c-.3.1-.6.2-.9.3h-1c-1,0-1.9-.3-2.4-.8-.5-.6-.8-1.5-.8-2.7v-16.2h2.2Z"/>
    <path class="st7" d="M238.6,662c0-1-.3-1.8-.8-2.3s-1.3-.8-2.3-.8-1.7.2-2.3.6-1.2,1-1.5,2l-1.8-1c.3-1,1-1.8,2-2.4s2.2-.9,3.6-.9,1.9.2,2.6.5c.7.3,1.4.8,1.9,1.5.4.6.7,1.6.7,2.6v6.5c0,.6.3.9,1,.9s.6,0,.9-.1v1.7c-.4.2-.9.3-1.5.3s-.9,0-1.4-.3c-.4-.2-.7-.5-.9-.9-.2-.4-.3-.9-.3-1.5v-.3h.5c-.2.7-.6,1.4-1,1.8-.5.4-1,.7-1.8.9s-1.3.3-1.9.3-1.5-.1-2.2-.4c-.6-.3-1.3-.6-1.6-1.3-.4-.5-.6-1.3-.6-2s.3-1.8,1-2.5c.6-.6,1.6-1,2.8-1.4l5.3-1v1.8l-4.3.8c-.8.2-1.6.4-2,.7s-.6.7-.6,1.4.2,1,.6,1.4c.4.3,1,.5,1.9.5s1,0,1.5-.2c.5-.1.9-.3,1.3-.6s.6-.6.8-1c.2-.4.3-.9.3-1.5v-3.7h-.1Z"/>
    <path class="st7" d="M260.1,670.8c-1.3,0-2.4-.3-3.3-.8s-1.8-1.4-2.3-2.4-.8-2.3-.8-3.8.3-2.7.8-3.8,1.4-1.9,2.3-2.4c.9-.5,2.1-.8,3.2-.8s2.3.3,3.2.8c.8.5,1.6,1.3,2,2.2.4.9.7,2,.7,3s0,.6,0,.8v.6h-10.8v-1.9h9.8l-1,.2c0-1.3-.3-2.3-1-2.9-.7-.7-1.7-1-2.7-1s-1.7.2-2.3.6c-.6.4-1.2.9-1.5,1.8s-.5,1.7-.5,2.7.2,2,.5,2.7c.3.7.8,1.4,1.5,1.8s1.5.6,2.3.6,1.8-.2,2.4-.5c.6-.4,1.2-.8,1.5-1.6l1.7.9c-.3.6-.7,1.2-1.3,1.6s-1.2.8-1.9,1c-.7.2-1.5.3-2.4.3h-.1Z"/>
    <path class="st7" d="M283.7,670.8c-1.2,0-2.1-.3-3-.8s-1.7-1.4-2.2-2.4-.8-2.3-.8-3.8.3-2.7.8-3.8c.6-1,1.4-1.8,2.3-2.4.9-.5,2-.8,3.1-.8s2.1.3,2.8.8c.8.5,1.4,1.4,1.6,2.3l-.3.2v-9.2h2.1v19.5h-1.9l-.2-3.2.3-.2c-.1.7-.4,1.5-.9,2s-1,.9-1.8,1.3-1.4.4-2.2.4l.3.2ZM283.9,669c.8,0,1.6-.2,2.2-.6.6-.4,1.2-1,1.5-1.9s.5-1.7.5-2.8-.2-1.9-.5-2.6-.8-1.3-1.5-1.7c-.6-.4-1.4-.6-2.2-.6-1.4,0-2.4.4-3.1,1.4-.7.9-1.2,2.2-1.2,3.7s.3,2.7,1,3.7,1.8,1.4,3,1.4l.2.2Z"/>
    <path class="st7" d="M300.5,670.8c-1.3,0-2.4-.3-3.3-.8s-1.8-1.4-2.3-2.4-.8-2.3-.8-3.8.3-2.7.8-3.8,1.4-1.9,2.3-2.4c.9-.5,2.1-.8,3.2-.8s2.3.3,3.2.8c.8.5,1.6,1.3,2,2.2.4.9.7,2,.7,3s0,.6,0,.8v.6h-10.8v-1.9h9.8l-1,.2c0-1.3-.3-2.3-1-2.9-.7-.7-1.7-1-2.7-1s-1.7.2-2.3.6c-.6.4-1.2.9-1.5,1.8s-.5,1.7-.5,2.7.2,2,.5,2.7c.3.7.8,1.4,1.5,1.8s1.5.6,2.3.6,1.8-.2,2.4-.5c.6-.4,1.2-.8,1.5-1.6l1.7.9c-.3.6-.7,1.2-1.3,1.6s-1.2.8-1.9,1c-.7.2-1.5.3-2.4.3h-.1Z"/>
    <path class="st7" d="M181.2,702.5h-2.3l-1.9-4.9h-7.9l-1.9,4.9h-2.2l6.9-17.7h2.5l6.8,17.7h0ZM169.8,695.7h6.5l-3.2-8.7-3.2,8.7h0Z"/>
    <path class="st7" d="M186.1,683.1v16.1c0,.6.1,1.2.4,1.4s.6.4,1.2.4h.8c.2,0,.5-.1.9-.3l-.3,1.9c-.3.1-.6.2-.9.3h-1c-1,0-1.9-.3-2.4-.8-.5-.6-.8-1.5-.8-2.7v-16.2h2.2Z"/>
    <path class="st7" d="M193,686.6c-.5,0-.8-.1-1.2-.4-.3-.3-.4-.7-.4-1.2s.1-.8.4-1.2c.3-.3.7-.4,1.2-.4s.8.1,1.2.4c.3.3.4.7.4,1.2s-.1.8-.4,1.2c-.3.3-.7.4-1.2.4ZM194.2,689.2v13.4h-2.1v-13.4h2.1Z"/>
    <path class="st7" d="M198.9,702.5v-13.4h1.9v2.1c.6-.8,1.3-1.5,2-1.8.7-.4,1.6-.5,2.4-.5s1.9.2,2.7.6c.8.4,1.5,1,1.9,2,.3-.6.7-1.2,1.2-1.5.5-.4,1-.6,1.7-.8s1.2-.3,1.8-.3,1.7.2,2.4.5,1.4.9,1.9,1.7c.5.7.7,1.7.7,2.9v8.6h-2.1v-8.4c0-1.3-.3-2.1-.9-2.6-.6-.5-1.4-.8-2.2-.8s-1.4.2-2,.5-1,.8-1.5,1.5c-.3.6-.5,1.5-.5,2.4v7.3h-2.1v-8.4c0-1.3-.3-2.1-.9-2.6s-1.4-.8-2.2-.8-1.2.1-1.8.4c-.6.3-1.2.8-1.6,1.5-.4.6-.6,1.6-.6,2.7v7.1h-2.1Z"/>
    <path class="st7" d="M229.6,702.8c-1.3,0-2.4-.3-3.3-.8s-1.8-1.4-2.3-2.4-.8-2.3-.8-3.8.3-2.7.8-3.8,1.4-1.9,2.3-2.4,2.1-.8,3.2-.8,2.3.3,3.2.8c.8.5,1.6,1.3,2,2.2.4.9.7,2,.7,3s0,.6,0,.8v.6h-10.8v-1.9h9.8l-1,.2c0-1.3-.3-2.3-1-2.9-.7-.7-1.7-1-2.7-1s-1.7.2-2.3.6c-.6.4-1.2.9-1.5,1.8s-.5,1.7-.5,2.7.2,2,.5,2.7c.3.7.8,1.4,1.5,1.8.6.4,1.5.6,2.3.6s1.8-.2,2.4-.5c.6-.4,1.2-.8,1.5-1.6l1.7.9c-.3.6-.7,1.2-1.3,1.6s-1.2.8-1.9,1-1.5.3-2.4.3h-.1Z"/>
    <path class="st7" d="M239.1,702.5v-13.4h1.9l.2,3-.3-.3c.3-.7.6-1.3,1.2-1.7.5-.4,1-.7,1.7-.9s1.3-.3,2-.3,1.9.2,2.6.5,1.4.9,1.9,1.7c.5.7.7,1.7.7,2.8v8.6h-2.1v-7.8c0-1.5-.3-2.5-.9-3-.6-.6-1.4-.8-2.3-.8s-1.3.1-1.9.4c-.6.3-1.2.8-1.6,1.5-.4.6-.6,1.6-.6,2.7v7.1h-2.4Z"/>
    <path class="st7" d="M263.4,689.2v1.9h-9.6v-1.9h9.6ZM258.6,685.4v13.5c0,.6.2,1.2.5,1.5.4.3.8.5,1.5.5s.9,0,1.4-.3.7-.4,1-.7l.7,1.8c-.4.4-.9.6-1.5.8s-1.3.3-2,.3-1.4-.1-1.9-.3c-.6-.2-1-.6-1.4-1.2s-.5-1.3-.5-2.1v-13.3l2.1-.6h0Z"/>
    <path class="st7" d="M271.9,688.9c1.3,0,2.4.3,3.3.8s1.8,1.4,2.3,2.4.8,2.3.8,3.8-.3,2.7-.8,3.8-1.4,1.9-2.3,2.4-2.1.8-3.3.8-2.4-.3-3.3-.8c-.9-.5-1.8-1.4-2.3-2.4s-.8-2.3-.8-3.8.3-2.7.8-3.8,1.4-1.9,2.3-2.4c.9-.5,2.1-.8,3.3-.8ZM271.9,690.8c-.9,0-1.7.2-2.3.6s-1.2.9-1.5,1.8-.5,1.7-.5,2.7.2,2,.5,2.7c.3.7.8,1.4,1.5,1.8s1.5.6,2.3.6,1.7-.2,2.3-.6,1.2-1,1.5-1.8.5-1.7.5-2.7-.2-2-.5-2.7-.8-1.4-1.5-1.8-1.5-.6-2.3-.6Z"/>
    <path class="st7" d="M286.9,702.8c-1.3,0-2.5-.3-3.6-.8s-2-1.4-2.5-2.3l1.8-1.4c.4.8.9,1.5,1.7,1.9.7.4,1.7.7,2.7.7s1.7-.2,2.2-.5.8-.8.8-1.5-.1-.7-.3-1c-.2-.3-.7-.5-1.4-.7l-3.2-.6c-1.3-.3-2.2-.7-2.8-1.4-.5-.6-.8-1.4-.8-2.3s.2-1.4.6-2c.4-.6,1-1,1.8-1.5.7-.3,1.7-.5,2.7-.5s2.4.2,3.3.7c.9.5,1.6,1.3,2,2.2l-1.8,1.2c-.3-.7-.8-1.4-1.5-1.7s-1.4-.5-2.1-.5-1.2,0-1.7.3c-.4.2-.8.4-1,.7s-.3.6-.3,1,.1.7.4,1,.7.5,1.5.7l3.3.7c1.3.2,2.1.6,2.6,1.3.5.5.7,1.3.7,2.1s-.2,1.6-.6,2.2-1,1.2-1.9,1.5-1.8.5-2.8.5h.1Z"/>
  </g>
  <g>
    <path class="st7" d="M192.7,486.5v-17.7h12.3v2h-10.2v5.6h7.9v2h-7.9v6h10.7v2h-12.8Z"/>
    <path class="st7" d="M214.3,486.7c-1.2,0-2.1-.3-3-.8s-1.7-1.4-2.2-2.4-.8-2.3-.8-3.8.3-2.7.8-3.8c.6-1,1.4-1.8,2.3-2.4.9-.5,2-.8,3.1-.8s2.1.3,2.8.8c.8.5,1.4,1.4,1.6,2.3l-.3.2v-9.2h2.1v19.5h-1.9l-.2-3.2.3-.2c-.1.7-.4,1.5-.9,2s-1,.9-1.8,1.3c-.7.3-1.4.4-2.2.4l.3.2ZM214.5,484.9c.8,0,1.6-.2,2.2-.6s1.2-1,1.5-1.9c.3-.8.5-1.7.5-2.8s-.2-1.9-.5-2.6-.8-1.3-1.5-1.7c-.6-.4-1.4-.6-2.2-.6-1.4,0-2.4.4-3.1,1.4s-1.2,2.2-1.2,3.7.3,2.7,1,3.7,1.8,1.4,3,1.4l.2.2Z"/>
    <path class="st7" d="M230.4,486.7c-.8,0-1.7-.2-2.4-.5s-1.4-.8-1.9-1.6-.7-1.7-.7-2.8v-8.8h2.1v8.2c0,1.4.3,2.3.8,2.8.6.5,1.5.7,2.5.7s.9,0,1.5-.2.9-.4,1.3-.8c.4-.3.7-.8.9-1.4s.3-1.3.3-2v-7.2h2.1v13.4h-1.9v-2c-.6.8-1.3,1.4-2,1.8-.8.3-1.7.5-2.8.5h.2Z"/>
    <path class="st7" d="M247.3,472.9c.9,0,1.8.1,2.4.4.7.3,1.4.7,1.8,1.3.5.5.9,1.2,1.3,1.9l-2,.9c-.3-.8-.7-1.5-1.3-2-.6-.4-1.4-.7-2.3-.7s-1.7.2-2.3.6-1.2.9-1.5,1.8c-.3.7-.5,1.7-.5,2.7s.2,2,.5,2.7.8,1.4,1.5,1.8,1.4.6,2.3.6,1.3-.1,1.8-.3c.5-.2.9-.5,1.3-.9s.5-.9.7-1.5l2,.7c-.3.8-.7,1.6-1.3,2.1-.5.6-1.2,1-1.9,1.4-.7.3-1.6.4-2.5.4s-2.4-.3-3.3-.8c-.9-.5-1.8-1.4-2.3-2.4s-.8-2.3-.8-3.8.3-2.7.8-3.8,1.4-1.9,2.3-2.4c.9-.5,2.1-.8,3.3-.8h0Z"/>
    <path class="st7" d="M264.2,477.8c0-1-.3-1.8-.8-2.3s-1.3-.8-2.3-.8-1.7.2-2.3.6-1.2,1-1.5,2l-1.8-1c.3-1,1-1.8,2-2.4.9-.6,2.2-.9,3.6-.9s1.9.2,2.6.5,1.4.8,1.9,1.5c.4.6.7,1.6.7,2.6v6.5c0,.6.3.9,1,.9s.6,0,.9-.1v1.7c-.4.2-.9.3-1.5.3s-.9,0-1.4-.3c-.4-.2-.7-.5-.9-.9-.2-.4-.3-.9-.3-1.5v-.3h.5c-.2.7-.6,1.4-1,1.8-.5.4-1,.7-1.8.9s-1.3.3-1.9.3-1.5-.1-2.2-.4c-.6-.3-1.3-.6-1.6-1.3-.4-.5-.6-1.3-.6-2s.3-1.8,1-2.5c.6-.6,1.6-1,2.8-1.4l5.3-1v1.8l-4.3.8c-.8.2-1.6.4-2,.7-.4.3-.6.7-.6,1.4s.2,1,.6,1.4,1,.5,1.9.5,1,0,1.5-.2c.5-.1.9-.3,1.3-.6s.6-.6.8-1c.2-.4.3-.9.3-1.5v-3.7h-.1Z"/>
    <path class="st7" d="M276.8,472.9c.9,0,1.8.1,2.4.4.7.3,1.4.7,1.8,1.3.5.5.9,1.2,1.3,1.9l-2,.9c-.3-.8-.7-1.5-1.3-2-.6-.4-1.4-.7-2.3-.7s-1.7.2-2.3.6-1.2.9-1.5,1.8c-.3.7-.5,1.7-.5,2.7s.2,2,.5,2.7.8,1.4,1.5,1.8,1.4.6,2.3.6,1.3-.1,1.8-.3c.5-.2.9-.5,1.3-.9s.5-.9.7-1.5l2,.7c-.3.8-.7,1.6-1.3,2.1-.5.6-1.2,1-1.9,1.4-.7.3-1.6.4-2.5.4s-2.4-.3-3.3-.8c-.9-.5-1.8-1.4-2.3-2.4s-.8-2.3-.8-3.8.3-2.7.8-3.8,1.4-1.9,2.3-2.4c.9-.5,2.1-.8,3.3-.8h0ZM275.3,486.4l1.2-.6c1,.3,1.8.8,2.2,1.4.4.6.6,1.3.6,2.1s-.3,1.6-.9,2.2-1.4.9-2.3.9-1,0-1.5-.2c-.4-.1-.7-.3-1-.5l.5-1.6c.2.2.5.3.8.4s.6.2,1,.2.9-.2,1.3-.5c.3-.3.5-.8.5-1.4s-.2-.8-.5-1.2c-.3-.3-.9-.7-1.8-1v-.2Z"/>
    <path class="st7" d="M293.7,477.8c0-1-.3-1.8-.8-2.3s-1.3-.8-2.3-.8-1.7.2-2.3.6-1.2,1-1.5,2l-1.8-1c.3-1,1-1.8,2-2.4.9-.6,2.2-.9,3.6-.9s1.9.2,2.6.5,1.4.8,1.9,1.5c.4.6.7,1.6.7,2.6v6.5c0,.6.3.9,1,.9s.6,0,.9-.1v1.7c-.4.2-.9.3-1.5.3s-.9,0-1.4-.3c-.4-.2-.7-.5-.9-.9-.2-.4-.3-.9-.3-1.5v-.3h.5c-.2.7-.6,1.4-1,1.8-.5.4-1,.7-1.8.9s-1.3.3-1.9.3-1.5-.1-2.2-.4c-.6-.3-1.3-.6-1.6-1.3-.4-.5-.6-1.3-.6-2s.3-1.8,1-2.5c.6-.6,1.6-1,2.8-1.4l5.3-1v1.8l-4.3.8c-.8.2-1.6.4-2,.7-.4.3-.6.7-.6,1.4s.2,1,.6,1.4,1,.5,1.9.5,1,0,1.5-.2c.5-.1.9-.3,1.3-.6s.6-.6.8-1c.2-.4.3-.9.3-1.5v-3.7h-.1ZM295.6,467.3c0,.7-.2,1.5-.4,2-.2.5-.5.9-.9,1.2-.4.3-.9.4-1.6.4s-.9,0-1.3-.3-.6-.4-.9-.6c-.2-.2-.5-.4-.7-.6s-.5-.3-.8-.3-.7.2-.8.5c-.2.3-.3.7-.4,1.4h-1.7c0-1.2.4-2.1.8-2.7.5-.6,1.3-.9,2.2-.9s.9,0,1.3.3.6.4.9.6.5.4.7.6.5.3.7.3c.4,0,.7-.2.9-.5.2-.3.3-.7.4-1.4h1.7-.1Z"/>
    <path class="st7" d="M306.3,472.9c1.3,0,2.4.3,3.3.8s1.8,1.4,2.3,2.4.8,2.3.8,3.8-.3,2.7-.8,3.8-1.4,1.9-2.3,2.4-2.1.8-3.3.8-2.4-.3-3.3-.8c-.9-.5-1.8-1.4-2.3-2.4s-.8-2.3-.8-3.8.3-2.7.8-3.8,1.4-1.9,2.3-2.4c.9-.5,2.1-.8,3.3-.8ZM306.3,474.6c-.9,0-1.7.2-2.3.6s-1.2.9-1.5,1.8-.5,1.7-.5,2.7.2,2,.5,2.7.8,1.4,1.5,1.8,1.5.6,2.3.6,1.7-.2,2.3-.6,1.2-1,1.5-1.8.5-1.7.5-2.7-.2-2-.5-2.7-.8-1.4-1.5-1.8-1.5-.6-2.3-.6Z"/>
  </g>
  <g>
    <path class="st7" d="M320.7,307.1h-2.3l-1.9-4.9h-7.9l-1.9,4.9h-2.2l6.9-17.7h2.5l6.8,17.7ZM309.3,300.2h6.5l-3.2-8.7-3.2,8.7Z"/>
    <path class="st7" d="M323.6,307.1v-13.4h1.9v2.1c.6-.8,1.3-1.5,2-1.8.7-.4,1.6-.5,2.4-.5s1.9.2,2.7.6c.8.4,1.5,1,1.9,2,.3-.6.7-1.2,1.2-1.5.5-.4,1-.6,1.7-.8.6-.2,1.2-.3,1.8-.3s1.7.2,2.4.5c.7.3,1.4.9,1.9,1.7s.7,1.7.7,2.9v8.6h-2.1v-8.4c0-1.3-.3-2.1-.9-2.6s-1.4-.8-2.2-.8-1.4.2-2,.5-1,.8-1.5,1.5c-.3.6-.5,1.5-.5,2.4v7.3h-2.1v-8.4c0-1.3-.3-2.1-.9-2.6s-1.4-.8-2.2-.8-1.2.1-1.8.4-1.2.8-1.6,1.5-.6,1.6-.6,2.7v7.1h-2.1,0Z"/>
    <path class="st7" d="M355.3,307.4c-.7,0-1.5-.1-2.1-.4s-1.2-.6-1.7-1.2c-.4-.5-.8-1-1-1.7l.3-.4-.2,3.2h-1.9v-19.5h2.1v9.2l-.3-.4c.3-.8.9-1.6,1.8-2.1.8-.5,1.8-.8,2.9-.8s2.1.3,3,.8,1.7,1.4,2.2,2.4.8,2.3.8,3.8-.3,2.7-.8,3.8-1.3,1.9-2.2,2.4-2,.8-3,.8h.1ZM355.1,305.5c1.4,0,2.3-.4,3-1.4s1.2-2.2,1.2-3.7-.3-2.7-1-3.7-1.8-1.4-3-1.4-1.6.2-2.2.6-1.2,1-1.5,1.8-.5,1.7-.5,2.7.2,1.9.5,2.6.8,1.4,1.5,1.8c.6.4,1.4.6,2.2.6h-.1Z"/>
    <path class="st7" d="M366.3,291.2c-.5,0-.8-.1-1.2-.4-.3-.3-.4-.7-.4-1.2s.1-.8.4-1.2.7-.4,1.2-.4.8.1,1.2.4.4.7.4,1.2-.1.8-.4,1.2c-.3.3-.7.4-1.2.4ZM367.5,293.8v13.4h-2.1v-13.4h2.1Z"/>
    <path class="st7" d="M377.7,307.4c-1.3,0-2.4-.3-3.3-.8-.9-.5-1.8-1.4-2.3-2.4s-.8-2.3-.8-3.8.3-2.7.8-3.8,1.4-1.9,2.3-2.4c.9-.5,2.1-.8,3.2-.8s2.3.3,3.2.8c.8.5,1.6,1.3,2,2.2s.7,2,.7,3,0,.6,0,.8v.6h-10.8v-1.9h9.8l-1,.2c0-1.3-.3-2.3-1-2.9s-1.7-1-2.7-1-1.7.2-2.3.6-1.2.9-1.5,1.8c-.3.7-.5,1.7-.5,2.7s.2,2,.5,2.7.8,1.4,1.5,1.8c.6.4,1.5.6,2.3.6s1.8-.2,2.4-.5c.6-.4,1.2-.8,1.5-1.6l1.7.9c-.3.6-.7,1.2-1.3,1.6s-1.2.8-1.9,1c-.7.2-1.5.3-2.4.3h-.1Z"/>
    <path class="st7" d="M387.2,307.1v-13.4h1.9l.2,3-.3-.3c.3-.7.6-1.3,1.2-1.7s1-.7,1.7-.9c.6-.2,1.3-.3,2-.3s1.9.2,2.6.5,1.4.9,1.9,1.7.7,1.7.7,2.8v8.6h-2.1v-7.8c0-1.5-.3-2.5-.9-3-.6-.6-1.4-.8-2.3-.8s-1.3.1-1.9.4c-.6.3-1.2.8-1.6,1.5s-.6,1.6-.6,2.7v7.1h-2.4Z"/>
    <path class="st7" d="M411.5,293.8v1.9h-9.6v-1.9h9.6ZM406.7,290v13.5c0,.6.2,1.2.5,1.5.4.3.8.5,1.5.5s.9,0,1.4-.3c.4-.2.7-.4,1-.7l.7,1.8c-.4.4-.9.6-1.5.8-.5.2-1.3.3-2,.3s-1.4-.1-1.9-.3c-.6-.2-1-.6-1.4-1.2s-.5-1.3-.5-2.1v-13.3l2.1-.6h0Z"/>
    <path class="st7" d="M420.1,307.4c-1.3,0-2.4-.3-3.3-.8-.9-.5-1.8-1.4-2.3-2.4s-.8-2.3-.8-3.8.3-2.7.8-3.8,1.4-1.9,2.3-2.4c.9-.5,2.1-.8,3.2-.8s2.3.3,3.2.8c.8.5,1.6,1.3,2,2.2s.7,2,.7,3,0,.6,0,.8v.6h-10.8v-1.9h9.8l-1,.2c0-1.3-.3-2.3-1-2.9s-1.7-1-2.7-1-1.7.2-2.3.6-1.2.9-1.5,1.8c-.3.7-.5,1.7-.5,2.7s.2,2,.5,2.7.8,1.4,1.5,1.8c.6.4,1.5.6,2.3.6s1.8-.2,2.4-.5c.6-.4,1.2-.8,1.5-1.6l1.7.9c-.3.6-.7,1.2-1.3,1.6s-1.2.8-1.9,1c-.7.2-1.5.3-2.4.3h-.1Z"/>
    <path class="st7" d="M434.4,307.4c-1.3,0-2.5-.3-3.6-.8s-2-1.4-2.5-2.3l1.8-1.4c.4.8.9,1.5,1.7,1.9s1.7.7,2.7.7,1.7-.2,2.2-.5.8-.8.8-1.5-.1-.7-.3-1c-.2-.3-.7-.5-1.4-.7l-3.2-.6c-1.3-.3-2.2-.7-2.8-1.4-.5-.6-.8-1.4-.8-2.3s.2-1.4.6-2,1-1,1.8-1.5c.7-.3,1.7-.5,2.7-.5s2.4.2,3.3.7c.9.5,1.6,1.3,2,2.2l-1.8,1.2c-.3-.7-.8-1.4-1.5-1.7-.6-.3-1.4-.5-2.1-.5s-1.2,0-1.7.3c-.4.2-.8.4-1,.7-.2.3-.3.6-.3,1s.1.7.4,1,.7.5,1.5.7l3.3.7c1.3.2,2.1.6,2.6,1.3.5.5.7,1.3.7,2.1s-.2,1.6-.6,2.2-1,1.2-1.9,1.5-1.8.5-2.8.5h.1Z"/>
    <path class="st7" d="M308,339.4c-1.2,0-2.1-.3-3-.8s-1.7-1.4-2.2-2.4-.8-2.3-.8-3.8.3-2.7.8-3.8c.6-1,1.4-1.8,2.3-2.4.9-.5,2-.8,3.1-.8s2.1.3,2.8.8c.8.5,1.4,1.4,1.6,2.3l-.3.2v-9.2h2.1v19.5h-1.9l-.2-3.2.3-.2c-.1.7-.4,1.5-.9,2s-1,.9-1.8,1.3c-.7.3-1.4.4-2.2.4l.3.2ZM308.2,337.5c.8,0,1.6-.2,2.2-.6s1.2-1,1.5-1.8.5-1.7.5-2.8-.2-1.9-.5-2.6-.8-1.3-1.5-1.7-1.4-.6-2.2-.6c-1.4,0-2.4.4-3.1,1.4s-1.2,2.2-1.2,3.7.3,2.7,1,3.7,1.8,1.4,3,1.4h.2Z"/>
    <path class="st7" d="M324.8,339.4c-1.3,0-2.4-.3-3.3-.8-.9-.5-1.8-1.4-2.3-2.4s-.8-2.3-.8-3.8.3-2.7.8-3.8,1.4-1.9,2.3-2.4c.9-.5,2.1-.8,3.2-.8s2.3.3,3.2.8c.8.5,1.6,1.3,2,2.2s.7,2,.7,3,0,.6,0,.8v.6h-10.8v-1.9h9.8l-1,.2c0-1.3-.3-2.3-1-2.9s-1.7-1-2.7-1-1.7.2-2.3.6-1.2.9-1.5,1.8c-.3.7-.5,1.7-.5,2.7s.2,2,.5,2.7.8,1.4,1.5,1.8c.6.4,1.5.6,2.3.6s1.8-.2,2.4-.5c.6-.4,1.2-.8,1.5-1.6l1.7.9c-.3.6-.7,1.2-1.3,1.6s-1.2.8-1.9,1c-.7.2-1.5.3-2.4.3h-.1Z"/>
    <path class="st7" d="M356,321.5v2h-6.2v15.6h-2.1v-15.6h-6.2v-2h14.4Z"/>
    <path class="st7" d="M359,339.2v-13.4h1.8l.3,2.2c.4-.8.9-1.5,1.7-1.9s1.6-.6,2.6-.6.5,0,.7,0c.3,0,.5.1.7.2l-.4,2c-.2,0-.4-.1-.6-.2h-.9c-.4,0-1.2.2-1.7.5s-1,.8-1.4,1.5c-.4.6-.5,1.5-.5,2.5v7.2h-2.3Z"/>
    <path class="st7" d="M377.5,330.5c0-1-.3-1.8-.8-2.3s-1.3-.8-2.3-.8-1.7.2-2.3.6-1.2,1-1.5,2l-1.8-1c.3-1,1-1.8,2-2.4s2.2-.9,3.6-.9,1.9.2,2.6.5,1.4.8,1.9,1.5c.4.6.7,1.6.7,2.6v6.5c0,.6.3.9,1,.9s.6,0,.9-.1v1.7c-.4.2-.9.3-1.5.3s-.9,0-1.4-.3-.7-.5-.9-.9c-.2-.4-.3-.9-.3-1.5v-.3h.5c-.2.7-.6,1.4-1,1.8-.5.4-1,.7-1.8.9-.6.2-1.3.3-1.9.3s-1.5-.1-2.2-.4c-.6-.3-1.3-.6-1.6-1.3-.4-.5-.6-1.3-.6-2s.3-1.8,1-2.5c.6-.6,1.6-1,2.8-1.4l5.3-1v1.8l-4.3.8c-.8.2-1.6.4-2,.7-.4.3-.6.7-.6,1.4s.2,1,.6,1.4,1,.5,1.9.5,1,0,1.5-.2c.5-.1.9-.3,1.3-.6.4-.3.6-.6.8-1,.2-.4.3-.9.3-1.5v-3.7h-.1Z"/>
    <path class="st7" d="M391.1,339.4c-.7,0-1.5-.1-2.1-.4s-1.2-.6-1.7-1.2c-.4-.5-.8-1-1-1.7l.3-.4-.2,3.2h-1.9v-19.5h2.1v9.2l-.3-.4c.3-.8.9-1.6,1.8-2.1.8-.5,1.8-.8,2.9-.8s2.1.3,3,.8,1.7,1.4,2.2,2.4.8,2.3.8,3.8-.3,2.7-.8,3.8-1.3,1.9-2.2,2.4-2,.8-3,.8h.1ZM390.9,337.5c1.4,0,2.3-.4,3-1.4s1.2-2.2,1.2-3.7-.3-2.7-1-3.7-1.8-1.4-3-1.4-1.6.2-2.2.6-1.2,1-1.5,1.8-.5,1.7-.5,2.7.2,1.9.5,2.6.8,1.4,1.5,1.8c.6.4,1.4.6,2.2.6h-.1Z"/>
    <path class="st7" d="M408.8,330.5c0-1-.3-1.8-.8-2.3s-1.3-.8-2.3-.8-1.7.2-2.3.6-1.2,1-1.5,2l-1.8-1c.3-1,1-1.8,2-2.4s2.2-.9,3.6-.9,1.9.2,2.6.5,1.4.8,1.9,1.5c.4.6.7,1.6.7,2.6v6.5c0,.6.3.9,1,.9s.6,0,.9-.1v1.7c-.4.2-.9.3-1.5.3s-.9,0-1.4-.3-.7-.5-.9-.9c-.2-.4-.3-.9-.3-1.5v-.3h.5c-.2.7-.6,1.4-1,1.8-.5.4-1,.7-1.8.9-.6.2-1.3.3-1.9.3s-1.5-.1-2.2-.4c-.6-.3-1.3-.6-1.6-1.3-.4-.5-.6-1.3-.6-2s.3-1.8,1-2.5c.6-.6,1.6-1,2.8-1.4l5.3-1v1.8l-4.3.8c-.8.2-1.6.4-2,.7-.4.3-.6.7-.6,1.4s.2,1,.6,1.4,1,.5,1.9.5,1,0,1.5-.2c.5-.1.9-.3,1.3-.6.4-.3.6-.6.8-1,.2-.4.3-.9.3-1.5v-3.7h-.1Z"/>
    <path class="st7" d="M417.9,319.7v16.1c0,.6.1,1.2.4,1.4.2.2.6.4,1.2.4h.8c.2,0,.5-.1.9-.3l-.3,1.9c-.3.1-.6.2-.9.3h-1c-1,0-1.9-.3-2.4-.8-.5-.6-.8-1.5-.8-2.7v-16.2h2.2Z"/>
    <path class="st7" d="M423.7,339.2v-19.5h2.1v8.2c.4-.8,1-1.4,1.9-1.8.7-.3,1.6-.5,2.5-.5s1.9.2,2.6.5,1.4.9,1.9,1.7.7,1.7.7,2.8v8.6h-2.1v-7.8c0-1.5-.3-2.5-.9-3-.6-.6-1.4-.8-2.3-.8s-1.3.1-1.9.4c-.6.3-1.2.8-1.6,1.5s-.6,1.6-.6,2.7v7.1h-2.3Z"/>
    <path class="st7" d="M445.6,325.5c1.3,0,2.4.3,3.3.8.9.5,1.8,1.4,2.3,2.4s.8,2.3.8,3.8-.3,2.7-.8,3.8-1.4,1.9-2.3,2.4c-.9.5-2.1.8-3.3.8s-2.4-.3-3.3-.8c-.9-.5-1.8-1.4-2.3-2.4s-.8-2.3-.8-3.8.3-2.7.8-3.8,1.4-1.9,2.3-2.4c.9-.5,2.1-.8,3.3-.8ZM445.6,327.4c-.9,0-1.7.2-2.3.6s-1.2.9-1.5,1.8c-.3.7-.5,1.7-.5,2.7s.2,2,.5,2.7.8,1.4,1.5,1.8,1.5.6,2.3.6,1.7-.2,2.3-.6,1.2-1,1.5-1.8.5-1.7.5-2.7-.2-2-.5-2.7-.8-1.4-1.5-1.8-1.5-.6-2.3-.6Z"/>
  </g>
  <g>
    <path class="st7" d="M808.3,291.2c2.7,0,4.9.7,6.5,2.3s2.4,3.7,2.4,6.5-.8,5-2.4,6.5-3.8,2.3-6.5,2.3h-5.6v-17.7h5.6ZM808.5,306.8c2,0,3.6-.6,4.7-1.8s1.7-2.8,1.7-5-.5-3.8-1.7-5c-1.2-1.2-2.7-1.8-4.7-1.8h-3.8v13.6h3.8Z"/>
    <path class="st7" d="M826.8,309.1c-1.3,0-2.4-.3-3.3-.8s-1.8-1.4-2.3-2.4-.8-2.3-.8-3.8.3-2.7.8-3.8,1.4-1.9,2.3-2.4,2.1-.8,3.2-.8,2.3.3,3.2.8c.8.5,1.6,1.3,2,2.2s.7,2,.7,3,0,.6,0,.8v.6h-10.8v-1.9h9.8l-1,.2c0-1.3-.3-2.3-1-2.9s-1.7-1-2.7-1-1.7.2-2.3.6c-.6.4-1.2.9-1.5,1.8-.3.7-.5,1.7-.5,2.7s.2,2,.5,2.7.8,1.4,1.5,1.8c.6.4,1.5.6,2.3.6s1.8-.2,2.4-.5c.6-.4,1.2-.8,1.5-1.6l1.7.9c-.3.6-.7,1.2-1.3,1.6s-1.2.8-1.9,1-1.5.3-2.4.3h-.1Z"/>
    <path class="st7" d="M841.1,309.1c-1.3,0-2.5-.3-3.6-.8s-2-1.4-2.5-2.3l1.8-1.4c.4.8.9,1.5,1.7,1.9.7.4,1.7.7,2.7.7s1.7-.2,2.2-.5.8-.8.8-1.5-.1-.7-.3-1-.7-.5-1.4-.7l-3.2-.6c-1.3-.3-2.2-.7-2.8-1.4-.5-.6-.8-1.4-.8-2.3s.2-1.4.6-2c.4-.6,1-1,1.8-1.5.7-.3,1.7-.5,2.7-.5s2.4.2,3.3.7,1.6,1.3,2,2.2l-1.8,1.2c-.3-.7-.8-1.4-1.5-1.7s-1.4-.5-2.1-.5-1.2,0-1.7.3c-.4.2-.8.4-1,.7-.2.3-.3.6-.3,1s.1.7.4,1c.3.3.7.5,1.5.7l3.3.7c1.3.2,2.1.6,2.6,1.3s.7,1.3.7,2.1-.2,1.6-.6,2.2c-.4.6-1,1.2-1.9,1.5s-1.8.5-2.8.5h.1Z"/>
    <path class="st7" d="M855.7,309.1c-1.3,0-2.4-.3-3.3-.8s-1.8-1.4-2.3-2.4-.8-2.3-.8-3.8.3-2.7.8-3.8,1.4-1.9,2.3-2.4,2.1-.8,3.2-.8,2.3.3,3.2.8c.8.5,1.6,1.3,2,2.2s.7,2,.7,3,0,.6,0,.8v.6h-10.8v-1.9h9.8l-1,.2c0-1.3-.3-2.3-1-2.9s-1.7-1-2.7-1-1.7.2-2.3.6c-.6.4-1.2.9-1.5,1.8-.3.7-.5,1.7-.5,2.7s.2,2,.5,2.7.8,1.4,1.5,1.8c.6.4,1.5.6,2.3.6s1.8-.2,2.4-.5c.6-.4,1.2-.8,1.5-1.6l1.7.9c-.3.6-.7,1.2-1.3,1.6s-1.2.8-1.9,1-1.5.3-2.4.3h-.1Z"/>
    <path class="st7" d="M865.3,308.8v-13.4h1.9v2.1c.6-.8,1.3-1.5,2-1.8.7-.4,1.6-.5,2.4-.5s1.9.2,2.7.6,1.5,1,1.9,2c.3-.6.7-1.2,1.2-1.5.5-.4,1-.6,1.7-.8.6-.2,1.2-.3,1.8-.3s1.7.2,2.4.5,1.4.9,1.9,1.7.7,1.7.7,2.9v8.6h-2.1v-8.4c0-1.3-.3-2.1-.9-2.6-.6-.5-1.4-.8-2.2-.8s-1.4.2-2,.5c-.6.3-1,.8-1.5,1.5s-.5,1.5-.5,2.4v7.3h-2.1v-8.4c0-1.3-.3-2.1-.9-2.6s-1.4-.8-2.2-.8-1.2.1-1.8.4c-.6.3-1.2.8-1.6,1.5s-.6,1.6-.6,2.7v7.1h-2.1,0Z"/>
    <path class="st7" d="M890.5,314.4v-18.9h1.9l.2,3.2-.3-.4c.2-.6.6-1.2,1-1.7s1-.8,1.7-1.2c.6-.3,1.4-.4,2.1-.4,1,0,2.1.3,3,.8s1.7,1.4,2.2,2.4.8,2.3.8,3.8-.3,2.7-.8,3.8-1.3,1.9-2.2,2.4c-.9.5-2,.8-3,.8s-2.1-.3-2.9-.8-1.5-1.3-1.8-2.1l.3-.4v8.6h-2.2ZM896.7,307.2c1.4,0,2.3-.4,3-1.4s1.2-2.2,1.2-3.7-.3-2.7-1-3.7-1.8-1.4-3-1.4-1.6.2-2.2.6-1.2,1-1.5,1.8c-.3.7-.5,1.7-.5,2.7s.2,1.9.5,2.7c.3.7.8,1.4,1.5,1.8.6.4,1.4.6,2.2.6v-.2Z"/>
    <path class="st7" d="M906.9,308.8v-13.4h1.8l.3,2.2c.4-.8.9-1.5,1.7-1.9.7-.4,1.6-.6,2.6-.6s.5,0,.7,0c.3,0,.5.1.7.2l-.4,2c-.2,0-.4-.1-.6-.2h-.9c-.4,0-1.2.2-1.7.5s-1,.8-1.4,1.5c-.4.6-.5,1.5-.5,2.5v7.2h-2.3Z"/>
    <path class="st7" d="M923.1,309.1c-1.3,0-2.4-.3-3.3-.8s-1.8-1.4-2.3-2.4-.8-2.3-.8-3.8.3-2.7.8-3.8,1.4-1.9,2.3-2.4,2.1-.8,3.2-.8,2.3.3,3.2.8c.8.5,1.6,1.3,2,2.2s.7,2,.7,3,0,.6,0,.8v.6h-10.8v-1.9h9.8l-1,.2c0-1.3-.3-2.3-1-2.9s-1.7-1-2.7-1-1.7.2-2.3.6c-.6.4-1.2.9-1.5,1.8-.3.7-.5,1.7-.5,2.7s.2,2,.5,2.7.8,1.4,1.5,1.8c.6.4,1.5.6,2.3.6s1.8-.2,2.4-.5c.6-.4,1.2-.8,1.5-1.6l1.7.9c-.3.6-.7,1.2-1.3,1.6s-1.2.8-1.9,1-1.5.3-2.4.3h-.1Z"/>
    <path class="st7" d="M939.8,307.1c1.3,0,2.3.3,2.9.8s1,1.4,1,2.3-.3,1.7-.8,2.3c-.6.6-1.4,1.2-2.3,1.5s-2.1.5-3.2.5c-2.1,0-3.7-.3-4.7-1s-1.6-1.6-1.6-2.6.2-1.4.7-1.9,1.3-.8,2.4-.9l-.2.4c-.6-.2-1.2-.4-1.6-.8s-.6-.9-.6-1.7.3-1.4.8-1.9,1.4-.8,2.4-.9l1.5.7h-.3c-.8,0-1.5.3-1.9.6-.3.3-.5.7-.5,1.2s.2.8.5,1.2c.3.2.8.3,1.6.3h3.9,0ZM937.2,295.2c1,0,2,.2,2.8.5.8.4,1.5.9,2,1.6.4.6.7,1.5.7,2.3s-.2,1.7-.7,2.3c-.4.7-1.2,1.3-2,1.6-.8.4-1.8.5-2.8.5-1.8,0-3.1-.4-4.1-1.3s-1.5-1.9-1.5-3.2.2-1.7.7-2.3,1.2-1.3,2-1.6c.8-.4,1.8-.5,2.8-.5h0ZM937.4,312.8c1,0,1.9-.1,2.5-.3.6-.2,1.2-.5,1.5-.8.3-.3.5-.7.5-1s-.2-.8-.5-1.2-1-.4-2.1-.4h-4.1c-.5,0-1,.1-1.5.4s-.6.7-.6,1.3.4,1.2,1.2,1.6c.7.4,1.8.6,3.1.6h0ZM937.2,297c-.9,0-1.7.2-2.3.7-.6.5-.9,1.2-.9,2s.3,1.5.9,2c.6.5,1.4.7,2.3.7s1.7-.2,2.3-.7c.6-.5.9-1.2.9-2s-.3-1.5-.9-2c-.6-.5-1.4-.7-2.3-.7ZM943.9,293l.5,1.9h-.2c-.8,0-1.6.2-2,.5-.5.3-.7.9-.7,1.7l-1.4-.6c0-.7.2-1.3.5-1.8s.7-.9,1.4-1.2c.5-.3,1.2-.4,1.8-.4h.1Z"/>
    <path class="st7" d="M952.2,295.2c1.3,0,2.4.3,3.3.8s1.8,1.4,2.3,2.4.8,2.3.8,3.8-.3,2.7-.8,3.8-1.4,1.9-2.3,2.4-2.1.8-3.3.8-2.4-.3-3.3-.8-1.8-1.4-2.3-2.4-.8-2.3-.8-3.8.3-2.7.8-3.8,1.4-1.9,2.3-2.4,2.1-.8,3.3-.8ZM952.2,297.1c-.9,0-1.7.2-2.3.6-.6.4-1.2.9-1.5,1.8-.3.7-.5,1.7-.5,2.7s.2,2,.5,2.7.8,1.4,1.5,1.8c.6.4,1.5.6,2.3.6s1.7-.2,2.3-.6c.6-.4,1.2-1,1.5-1.8.3-.7.5-1.7.5-2.7s-.2-2-.5-2.7-.8-1.4-1.5-1.8c-.6-.4-1.5-.6-2.3-.6Z"/>
  </g>
  <g>
    <path class="st7" d="M926.3,402.3h-2.3l-1.9-4.9h-7.9l-1.9,4.9h-2.2l6.9-17.7h2.5l6.8,17.7h0ZM915,395.4h6.5l-3.2-8.7-3.2,8.7h0ZM918.9,378.1h2.2l-2.3,4.3h-1.7l1.8-4.3Z"/>
    <path class="st7" d="M936.5,400.5c1.3,0,2.3.3,2.9.8.7.6,1,1.4,1,2.3s-.3,1.7-.8,2.3c-.6.6-1.4,1.2-2.3,1.5s-2.1.5-3.2.5c-2.1,0-3.7-.3-4.7-1s-1.6-1.6-1.6-2.6.2-1.4.7-1.9,1.3-.8,2.4-.9l-.2.4c-.6-.2-1.2-.4-1.6-.8s-.6-.9-.6-1.7.3-1.4.8-1.9,1.4-.8,2.4-.9l1.5.7h-.3c-.8,0-1.5.3-1.9.6-.3.3-.5.7-.5,1.2s.2.8.5,1.2c.3.2.8.3,1.6.3h3.9,0ZM933.9,388.6c1,0,2,.2,2.8.5.8.4,1.5.9,2,1.6.4.6.7,1.5.7,2.3s-.2,1.7-.7,2.3c-.4.7-1.2,1.3-2,1.6-.8.4-1.8.5-2.8.5-1.8,0-3.1-.4-4.1-1.3-.9-.8-1.5-1.9-1.5-3.2s.2-1.7.7-2.3,1.2-1.3,2-1.6,1.8-.5,2.8-.5h0ZM934,406.2c1,0,1.9-.1,2.5-.3.6-.2,1.2-.5,1.5-.8.3-.3.5-.7.5-1s-.2-.8-.5-1.2-1-.4-2.1-.4h-4.1c-.5,0-1,.1-1.5.4s-.6.7-.6,1.3.4,1.2,1.2,1.6c.7.4,1.8.6,3.1.6h0ZM933.9,390.4c-.9,0-1.7.2-2.3.7s-.9,1.2-.9,2,.3,1.5.9,2c.6.5,1.4.7,2.3.7s1.7-.2,2.3-.7c.6-.5.9-1.2.9-2s-.3-1.5-.9-2-1.4-.7-2.3-.7ZM940.6,386.5l.5,1.9h-.2c-.8,0-1.6.2-2,.5-.5.3-.7.9-.7,1.7l-1.4-.6c0-.7.2-1.3.5-1.8s.7-.9,1.4-1.2c.5-.3,1.2-.4,1.8-.4h.1Z"/>
    <path class="st7" d="M948.1,402.5c-.8,0-1.7-.2-2.4-.5s-1.4-.8-1.9-1.6-.7-1.7-.7-2.8v-8.8h2.1v8.2c0,1.4.3,2.3.8,2.8s1.5.7,2.5.7.9,0,1.5-.2.9-.4,1.3-.8c.4-.3.7-.8.9-1.4s.3-1.3.3-2v-7.2h2.1v13.4h-1.9v-2c-.6.8-1.3,1.4-2,1.8-.8.3-1.7.5-2.8.5h.2Z"/>
    <path class="st7" d="M967.2,393.6c0-1-.3-1.8-.8-2.3s-1.3-.8-2.3-.8-1.7.2-2.3.6-1.2,1-1.5,2l-1.8-1c.3-1,1-1.8,2-2.4.9-.6,2.2-.9,3.6-.9s1.9.2,2.6.5,1.4.8,1.9,1.5c.4.6.7,1.6.7,2.6v6.5c0,.6.3.9,1,.9s.6,0,.9-.1v1.7c-.4.2-.9.3-1.5.3s-.9,0-1.4-.3c-.4-.2-.7-.5-.9-.9s-.3-.9-.3-1.5v-.3h.5c-.2.7-.6,1.4-1,1.8-.5.4-1,.7-1.8.9-.6.2-1.3.3-1.9.3s-1.5-.1-2.2-.4c-.6-.3-1.3-.6-1.6-1.3-.4-.5-.6-1.3-.6-2s.3-1.8,1-2.5c.6-.6,1.6-1,2.8-1.4l5.3-1v1.8l-4.3.8c-.8.2-1.6.4-2,.7-.4.3-.6.7-.6,1.4s.2,1,.6,1.4c.4.3,1,.5,1.9.5s1,0,1.5-.2.9-.3,1.3-.6c.4-.3.6-.6.8-1s.3-.9.3-1.5v-3.7h-.1Z"/>
    <path class="st7" d="M988.7,402.5c-1.3,0-2.4-.3-3.3-.8s-1.8-1.4-2.3-2.4-.8-2.3-.8-3.8.3-2.7.8-3.8,1.4-1.9,2.3-2.4,2.1-.8,3.2-.8,2.3.3,3.2.8,1.6,1.3,2,2.2.7,2,.7,3,0,.6,0,.8v.6h-10.8v-1.9h9.8l-1,.2c0-1.3-.3-2.3-1-2.9-.7-.7-1.7-1-2.7-1s-1.7.2-2.3.6-1.2.9-1.5,1.8-.5,1.7-.5,2.7.2,2,.5,2.7.8,1.4,1.5,1.8c.6.4,1.5.6,2.3.6s1.8-.2,2.4-.5c.6-.4,1.2-.8,1.5-1.6l1.7.9c-.3.6-.7,1.2-1.3,1.6s-1.2.8-1.9,1-1.5.3-2.4.3h-.1Z"/>
    <path class="st7" d="M1007.5,402.3v-17.7h12.3v2h-10.2v5.6h7.9v2h-7.9v6h10.7v2h-12.8Z"/>
    <path class="st7" d="M1028.7,402.5c-1.3,0-2.5-.3-3.6-.8s-2-1.4-2.5-2.3l1.8-1.4c.4.8.9,1.5,1.7,1.9.7.4,1.7.7,2.7.7s1.7-.2,2.2-.5.8-.8.8-1.5-.1-.7-.3-1-.7-.5-1.4-.7l-3.2-.6c-1.3-.3-2.2-.7-2.8-1.4-.5-.6-.8-1.4-.8-2.3s.2-1.4.6-2c.4-.6,1-1,1.8-1.5.7-.3,1.7-.5,2.7-.5s2.4.2,3.3.7,1.6,1.3,2,2.2l-1.8,1.2c-.3-.7-.8-1.4-1.5-1.7s-1.4-.5-2.1-.5-1.2,0-1.7.3c-.4.2-.8.4-1,.7-.2.3-.3.6-.3,1s.1.7.4,1c.3.3.7.5,1.5.7l3.3.7c1.3.2,2.1.6,2.6,1.3s.7,1.3.7,2.1-.2,1.6-.6,2.2-1,1.2-1.9,1.5-1.8.5-2.8.5h.1Z"/>
    <path class="st7" d="M1044.8,400.5c1.3,0,2.3.3,2.9.8.7.6,1,1.4,1,2.3s-.3,1.7-.8,2.3c-.6.6-1.4,1.2-2.3,1.5s-2.1.5-3.2.5c-2.1,0-3.7-.3-4.7-1s-1.6-1.6-1.6-2.6.2-1.4.7-1.9,1.3-.8,2.4-.9l-.2.4c-.6-.2-1.2-.4-1.6-.8s-.6-.9-.6-1.7.3-1.4.8-1.9,1.4-.8,2.4-.9l1.5.7h-.3c-.8,0-1.5.3-1.9.6-.3.3-.5.7-.5,1.2s.2.8.5,1.2c.3.2.8.3,1.6.3h3.9ZM1042.2,388.6c1,0,2,.2,2.8.5.8.4,1.5.9,2,1.6.4.6.7,1.5.7,2.3s-.2,1.7-.7,2.3c-.4.7-1.2,1.3-2,1.6-.8.4-1.8.5-2.8.5-1.8,0-3.1-.4-4.1-1.3-.9-.8-1.5-1.9-1.5-3.2s.2-1.7.7-2.3,1.2-1.3,2-1.6,1.8-.5,2.8-.5h0ZM1042.4,406.2c1,0,1.9-.1,2.5-.3.6-.2,1.2-.5,1.5-.8s.5-.7.5-1-.2-.8-.5-1.2-1-.4-2.1-.4h-4.1c-.5,0-1,.1-1.5.4s-.6.7-.6,1.3.4,1.2,1.2,1.6c.7.4,1.8.6,3.1.6h0ZM1042.2,390.4c-.9,0-1.7.2-2.3.7s-.9,1.2-.9,2,.3,1.5.9,2c.6.5,1.4.7,2.3.7s1.7-.2,2.3-.7.9-1.2.9-2-.3-1.5-.9-2-1.4-.7-2.3-.7ZM1048.9,386.5l.5,1.9h-.2c-.8,0-1.6.2-2,.5-.5.3-.7.9-.7,1.7l-1.4-.6c0-.7.2-1.3.5-1.8s.7-.9,1.4-1.2c.5-.3,1.2-.4,1.8-.4h.1Z"/>
    <path class="st7" d="M1057.2,388.6c1.3,0,2.4.3,3.3.8s1.8,1.4,2.3,2.4.8,2.3.8,3.8-.3,2.7-.8,3.8-1.4,1.9-2.3,2.4-2.1.8-3.3.8-2.4-.3-3.3-.8c-.9-.5-1.8-1.4-2.3-2.4s-.8-2.3-.8-3.8.3-2.7.8-3.8,1.4-1.9,2.3-2.4c.9-.5,2.1-.8,3.3-.8ZM1057.2,390.5c-.9,0-1.7.2-2.3.6s-1.2.9-1.5,1.8-.5,1.7-.5,2.7.2,2,.5,2.7.8,1.4,1.5,1.8c.6.4,1.5.6,2.3.6s1.7-.2,2.3-.6,1.2-1,1.5-1.8.5-1.7.5-2.7-.2-2-.5-2.7-.8-1.4-1.5-1.8c-.6-.4-1.5-.6-2.3-.6Z"/>
    <path class="st7" d="M1075.4,388.9v1.9h-9.6v-1.9h9.6ZM1070.6,385.1v13.5c0,.6.2,1.2.5,1.5.4.3.8.5,1.5.5s.9,0,1.4-.3.7-.4,1-.7l.7,1.8c-.4.4-.9.6-1.5.8-.5.2-1.3.3-2,.3s-1.4-.1-1.9-.3c-.6-.2-1-.6-1.4-1.2s-.5-1.3-.5-2.1v-13.3l2.1-.6h0Z"/>
    <path class="st7" d="M1083.8,388.6c1.3,0,2.4.3,3.3.8s1.8,1.4,2.3,2.4.8,2.3.8,3.8-.3,2.7-.8,3.8-1.4,1.9-2.3,2.4-2.1.8-3.3.8-2.4-.3-3.3-.8c-.9-.5-1.8-1.4-2.3-2.4s-.8-2.3-.8-3.8.3-2.7.8-3.8,1.4-1.9,2.3-2.4c.9-.5,2.1-.8,3.3-.8ZM1083.8,390.5c-.9,0-1.7.2-2.3.6s-1.2.9-1.5,1.8-.5,1.7-.5,2.7.2,2,.5,2.7.8,1.4,1.5,1.8c.6.4,1.5.6,2.3.6s1.7-.2,2.3-.6,1.2-1,1.5-1.8.5-1.7.5-2.7-.2-2-.5-2.7-.8-1.4-1.5-1.8c-.6-.4-1.5-.6-2.3-.6Z"/>
  </g>
  <g>
    <path class="st7" d="M1004,475.2c1.6,0,2.9.3,4,.9s2.1,1.6,2.8,2.8l-1.8,1.4c-.6-1.2-1.4-2-2.2-2.4s-1.8-.7-3-.7-1.7.1-2.3.4c-.6.3-1,.6-1.4,1s-.4.9-.4,1.5.2,1.2.6,1.7c.4.5,1.2.8,2.3,1.2l3.9.8c1.7.4,2.8.9,3.6,1.7.6.7,1,1.7,1,2.8s-.3,1.9-.8,2.6-1.4,1.4-2.4,1.8c-1,.4-2.2.6-3.6.6s-2.4-.2-3.3-.5-1.8-.8-2.5-1.4-1.3-1.3-1.7-2l1.9-1.6c.3.6.7,1.3,1.4,1.8.5.5,1.2.9,2,1.2s1.7.4,2.6.4,1.7-.1,2.4-.3c.6-.2,1.2-.5,1.6-.9.3-.4.5-.9.5-1.6s-.2-1-.5-1.6c-.4-.4-1-.8-2.1-1l-4.2-.9c-1-.2-2-.6-2.6-1s-1.2-.9-1.5-1.6c-.3-.6-.4-1.3-.4-2s.3-1.8.8-2.6,1.3-1.5,2.3-1.9c.9-.5,2.2-.7,3.6-.7l-.5.2Z"/>
    <path class="st7" d="M1020.4,493.4c-1.3,0-2.4-.3-3.3-.8s-1.8-1.4-2.3-2.4-.8-2.3-.8-3.8.3-2.7.8-3.8,1.4-1.9,2.3-2.4,2.1-.8,3.2-.8,2.3.3,3.2.8,1.6,1.3,2,2.2.7,2,.7,3,0,.6,0,.8v.6h-10.8v-1.9h9.8l-1,.2c0-1.3-.3-2.3-1-2.9-.7-.7-1.7-1-2.7-1s-1.7.2-2.3.6-1.2.9-1.5,1.8-.5,1.7-.5,2.7.2,2,.5,2.7.8,1.4,1.5,1.8c.6.4,1.5.6,2.3.6s1.8-.2,2.4-.5c.6-.4,1.2-.8,1.5-1.6l1.7.9c-.3.6-.7,1.2-1.3,1.6s-1.2.8-1.9,1-1.5.3-2.4.3h-.1Z"/>
    <path class="st7" d="M1030,493.1v-13.4h1.8l.3,2.2c.4-.8.9-1.5,1.7-1.9s1.6-.6,2.6-.6.5,0,.7,0,.5.1.7.2l-.4,2c-.2,0-.4-.1-.6-.2h-.9c-.4,0-1.2.2-1.7.5s-1,.8-1.4,1.5c-.4.6-.5,1.5-.5,2.5v7.2h-2.3Z"/>
    <path class="st7" d="M1049.4,479.7h2.2l-5.5,13.4h-2.1l-5.5-13.4h2.4l4.2,11.2,4.4-11.2h0Z"/>
    <path class="st7" d="M1055.3,477.2c-.5,0-.8-.1-1.2-.4-.3-.3-.4-.7-.4-1.2s.1-.8.4-1.2c.3-.3.7-.4,1.2-.4s.8.1,1.2.4.4.7.4,1.2-.1.8-.4,1.2c-.3.3-.7.4-1.2.4ZM1056.3,479.7v13.4h-2.1v-13.4h2.1Z"/>
    <path class="st7" d="M1066.6,479.5c.9,0,1.8.1,2.4.4s1.4.7,1.8,1.3c.5.5.9,1.2,1.3,1.9l-2,.9c-.3-.8-.7-1.5-1.3-2-.6-.4-1.4-.7-2.3-.7s-1.7.2-2.3.6-1.2.9-1.5,1.8-.5,1.7-.5,2.7.2,2,.5,2.7.8,1.4,1.5,1.8c.6.4,1.4.6,2.3.6s1.3-.1,1.8-.3c.5-.2.9-.5,1.3-.9s.5-.9.7-1.5l2,.7c-.3.8-.7,1.6-1.3,2.1-.5.6-1.2,1-1.9,1.4-.7.3-1.6.4-2.5.4s-2.4-.3-3.3-.8c-.9-.5-1.8-1.4-2.3-2.4s-.8-2.3-.8-3.8.3-2.7.8-3.8,1.4-1.9,2.3-2.4c.9-.5,2.1-.8,3.3-.8h0ZM1065.1,493l1.2-.6c1,.3,1.8.8,2.2,1.4.4.6.6,1.3.6,2.1s-.3,1.6-.9,2.2-1.4.9-2.3.9-1,0-1.5-.2c-.4-.1-.7-.3-1-.5l.5-1.6c.2.2.5.3.8.4s.6.2,1,.2.9-.2,1.3-.5.5-.8.5-1.4-.2-.8-.5-1.2-.9-.7-1.8-1v-.2Z"/>
    <path class="st7" d="M1081.2,479.5c1.3,0,2.4.3,3.3.8s1.8,1.4,2.3,2.4.8,2.3.8,3.8-.3,2.7-.8,3.8-1.4,1.9-2.3,2.4-2.1.8-3.3.8-2.4-.3-3.3-.8c-.9-.5-1.8-1.4-2.3-2.4s-.8-2.3-.8-3.8.3-2.7.8-3.8,1.4-1.9,2.3-2.4c.9-.5,2.1-.8,3.3-.8ZM1081.2,481.2c-.9,0-1.7.2-2.3.6s-1.2.9-1.5,1.8-.5,1.7-.5,2.7.2,2,.5,2.7.8,1.4,1.5,1.8c.6.4,1.5.6,2.3.6s1.7-.2,2.3-.6,1.2-1,1.5-1.8.5-1.7.5-2.7-.2-2-.5-2.7-.8-1.4-1.5-1.8c-.6-.4-1.5-.6-2.3-.6Z"/>
    <path class="st7" d="M1096.3,493.4c-1.3,0-2.5-.3-3.6-.8s-2-1.4-2.5-2.3l1.8-1.4c.4.8.9,1.5,1.7,1.9s1.7.7,2.7.7,1.7-.2,2.2-.5.8-.8.8-1.5-.1-.7-.3-1c-.2-.3-.7-.5-1.4-.7l-3.2-.6c-1.3-.3-2.2-.7-2.8-1.4-.5-.6-.8-1.4-.8-2.3s.2-1.4.6-2,1-1,1.8-1.5c.7-.3,1.7-.5,2.7-.5s2.4.2,3.3.7c.9.5,1.6,1.3,2,2.2l-1.8,1.2c-.3-.7-.8-1.4-1.5-1.7-.6-.3-1.4-.5-2.1-.5s-1.2,0-1.7.3c-.4.2-.8.4-1,.7-.2.3-.3.6-.3,1s.1.7.4,1,.7.5,1.5.7l3.3.7c1.3.2,2.1.6,2.6,1.3s.7,1.3.7,2.1-.2,1.6-.6,2.2-1,1.2-1.9,1.5-1.8.5-2.8.5h.1Z"/>
    <path class="st7" d="M997,507.2c1.6,0,2.9.3,4,.9s2.1,1.6,2.8,2.8l-1.8,1.4c-.6-1.2-1.4-2-2.2-2.4s-1.8-.7-3-.7-1.7.1-2.3.4c-.6.3-1,.6-1.4,1s-.4.9-.4,1.5.2,1.2.6,1.7c.4.5,1.2.8,2.3,1.2l3.9.8c1.7.4,2.8.9,3.6,1.7.6.7,1,1.7,1,2.8s-.3,1.9-.8,2.6-1.4,1.4-2.4,1.8c-1,.4-2.2.6-3.6.6s-2.4-.2-3.3-.5-1.8-.8-2.5-1.4-1.3-1.3-1.7-2l1.9-1.6c.3.6.7,1.3,1.4,1.8.5.5,1.2.9,2,1.2s1.7.4,2.6.4,1.7-.1,2.4-.3c.6-.2,1.2-.5,1.6-.9.3-.4.5-.9.5-1.6s-.2-1-.5-1.6c-.4-.4-1-.8-2.1-1l-4.2-.9c-1-.2-2-.6-2.6-1s-1.2-.9-1.5-1.6c-.3-.6-.4-1.3-.4-2s.3-1.8.8-2.6,1.3-1.5,2.3-1.9c.9-.5,2.2-.7,3.6-.7l-.5.2Z"/>
    <path class="st7" d="M1013.3,511.5c1.3,0,2.4.3,3.3.8s1.8,1.4,2.3,2.4.8,2.3.8,3.8-.3,2.7-.8,3.8-1.4,1.9-2.3,2.4-2.1.8-3.3.8-2.4-.3-3.3-.8-1.8-1.4-2.3-2.4-.8-2.3-.8-3.8.3-2.7.8-3.8,1.4-1.9,2.3-2.4,2.1-.8,3.3-.8ZM1013.3,513.3c-.9,0-1.7.2-2.3.6-.6.4-1.2.9-1.5,1.8s-.5,1.7-.5,2.7.2,2,.5,2.7.8,1.4,1.5,1.8c.6.4,1.5.6,2.3.6s1.7-.2,2.3-.6c.6-.4,1.2-1,1.5-1.8.3-.7.5-1.7.5-2.7s-.2-2-.5-2.7-.8-1.4-1.5-1.8c-.6-.4-1.5-.6-2.3-.6Z"/>
    <path class="st7" d="M1029.1,511.5c.9,0,1.8.1,2.4.4s1.4.7,1.8,1.3c.5.5.9,1.2,1.3,1.9l-2,.9c-.3-.8-.7-1.5-1.3-2-.6-.4-1.4-.7-2.3-.7s-1.7.2-2.3.6c-.6.4-1.2.9-1.5,1.8s-.5,1.7-.5,2.7.2,2,.5,2.7.8,1.4,1.5,1.8c.6.4,1.4.6,2.3.6s1.3-.1,1.8-.3c.5-.2.9-.5,1.3-.9s.5-.9.7-1.5l2,.7c-.3.8-.7,1.6-1.3,2.1-.5.6-1.2,1-1.9,1.4s-1.6.4-2.5.4-2.4-.3-3.3-.8-1.8-1.4-2.3-2.4-.8-2.3-.8-3.8.3-2.7.8-3.8,1.4-1.9,2.3-2.4,2.1-.8,3.3-.8h0Z"/>
    <path class="st7" d="M1039.4,509.2c-.5,0-.8-.1-1.2-.4s-.4-.7-.4-1.2.1-.8.4-1.2c.3-.3.7-.4,1.2-.4s.8.1,1.2.4.4.7.4,1.2-.1.8-.4,1.2c-.3.3-.7.4-1.2.4ZM1040.4,511.8v13.4h-2.1v-13.4h2.1Z"/>
    <path class="st7" d="M1052.9,516.5c0-1-.3-1.8-.8-2.3s-1.3-.8-2.3-.8-1.7.2-2.3.6-1.2,1-1.5,2l-1.8-1c.3-1,1-1.8,2-2.4.9-.6,2.2-.9,3.6-.9s1.9.2,2.6.5,1.4.8,1.9,1.5c.4.6.7,1.6.7,2.6v6.5c0,.6.3.9,1,.9s.6,0,.9-.1v1.7c-.4.2-.9.3-1.5.3s-.9,0-1.4-.3c-.4-.2-.7-.5-.9-.9-.2-.4-.3-.9-.3-1.5v-.3h.5c-.2.7-.6,1.4-1,1.8-.5.4-1,.7-1.8.9-.6.2-1.3.3-1.9.3s-1.5-.1-2.2-.4c-.6-.3-1.3-.6-1.6-1.3-.4-.5-.6-1.3-.6-2s.3-1.8,1-2.5c.6-.6,1.6-1,2.8-1.4l5.3-1v1.8l-4.3.8c-.8.2-1.6.4-2,.7-.4.3-.6.7-.6,1.4s.2,1,.6,1.4,1,.5,1.9.5,1,0,1.5-.2.9-.3,1.3-.6c.4-.3.6-.6.8-1,.2-.4.3-.9.3-1.5v-3.7h-.1Z"/>
    <path class="st7" d="M1061,509.2c-.5,0-.8-.1-1.2-.4-.3-.3-.4-.7-.4-1.2s.1-.8.4-1.2c.3-.3.7-.4,1.2-.4s.8.1,1.2.4.4.7.4,1.2-.1.8-.4,1.2c-.3.3-.7.4-1.2.4ZM1062.1,511.8v13.4h-2.1v-13.4h2.1Z"/>
    <path class="st7" d="M1071.6,525.4c-1.3,0-2.5-.3-3.6-.8s-2-1.4-2.5-2.3l1.8-1.4c.4.8.9,1.5,1.7,1.9s1.7.7,2.7.7,1.7-.2,2.2-.5.8-.8.8-1.5-.1-.7-.3-1c-.2-.3-.7-.5-1.4-.7l-3.2-.6c-1.3-.3-2.2-.7-2.8-1.4-.5-.6-.8-1.4-.8-2.3s.2-1.4.6-2,1-1,1.8-1.5c.7-.3,1.7-.5,2.7-.5s2.4.2,3.3.7c.9.5,1.6,1.3,2,2.2l-1.8,1.2c-.3-.7-.8-1.4-1.5-1.7-.6-.3-1.4-.5-2.1-.5s-1.2,0-1.7.3c-.4.2-.8.4-1,.7-.2.3-.3.6-.3,1s.1.7.4,1,.7.5,1.5.7l3.3.7c1.3.2,2.1.6,2.6,1.3s.7,1.3.7,2.1-.2,1.6-.6,2.2-1,1.2-1.9,1.5-1.8.5-2.8.5h.1Z"/>
    <path class="st7" d="M1094.7,525.4c-1.2,0-2.1-.3-3-.8s-1.7-1.4-2.2-2.4-.8-2.3-.8-3.8.3-2.7.8-3.8,1.4-1.8,2.3-2.4c.9-.5,2-.8,3.1-.8s2.1.3,2.8.8c.8.5,1.4,1.4,1.6,2.3l-.3.2v-9.2h2.1v19.5h-1.9l-.2-3.2.3-.2c-.1.7-.4,1.5-.9,2s-1,.9-1.8,1.3-1.4.4-2.2.4l.3.2ZM1094.9,523.5c.8,0,1.6-.2,2.2-.6s1.2-1,1.5-1.9.5-1.7.5-2.8-.2-1.9-.5-2.6-.8-1.3-1.5-1.7-1.4-.6-2.2-.6c-1.4,0-2.4.4-3.1,1.4s-1.2,2.2-1.2,3.7.3,2.7,1,3.7,1.8,1.4,3,1.4l.2.2Z"/>
    <path class="st7" d="M1111.5,525.4c-1.3,0-2.4-.3-3.3-.8-.9-.5-1.8-1.4-2.3-2.4s-.8-2.3-.8-3.8.3-2.7.8-3.8,1.4-1.9,2.3-2.4c.9-.5,2.1-.8,3.2-.8s2.3.3,3.2.8,1.6,1.3,2,2.2.7,2,.7,3,0,.6,0,.8v.6h-10.8v-1.9h9.8l-1,.2c0-1.3-.3-2.3-1-2.9-.7-.7-1.7-1-2.7-1s-1.7.2-2.3.6-1.2.9-1.5,1.8-.5,1.7-.5,2.7.2,2,.5,2.7.8,1.4,1.5,1.8c.6.4,1.5.6,2.3.6s1.8-.2,2.4-.5c.6-.4,1.2-.8,1.5-1.6l1.7.9c-.3.6-.7,1.2-1.3,1.6s-1.2.8-1.9,1c-.7.2-1.5.3-2.4.3h-.1Z"/>
    <path class="st7" d="M1017.9,539.3c1.6,0,2.9.3,4,.9s2.1,1.6,2.8,2.8l-1.8,1.4c-.6-1.2-1.4-2-2.2-2.4s-1.8-.7-3-.7-1.7.1-2.3.4c-.6.3-1,.6-1.4,1s-.4.9-.4,1.5.2,1.2.6,1.7c.4.5,1.2.8,2.3,1.2l3.9.8c1.7.4,2.8.9,3.6,1.7.6.7,1,1.7,1,2.8s-.3,1.9-.8,2.6-1.4,1.4-2.4,1.8-2.2.6-3.6.6-2.4-.2-3.3-.5-1.8-.8-2.5-1.4-1.3-1.3-1.7-2l1.9-1.6c.3.6.7,1.3,1.4,1.8.5.5,1.2.9,2,1.2s1.7.4,2.6.4,1.7-.1,2.4-.3c.6-.2,1.2-.5,1.6-.9.3-.4.5-.9.5-1.6s-.2-1-.5-1.6c-.4-.4-1-.8-2.1-1l-4.2-.9c-1-.2-2-.6-2.6-1s-1.2-.9-1.5-1.6c-.3-.6-.4-1.3-.4-2s.3-1.8.8-2.6,1.3-1.5,2.3-1.9c.9-.5,2.2-.7,3.6-.7l-.5.2Z"/>
    <path class="st7" d="M1036.5,548.5c0-1-.3-1.8-.8-2.3s-1.3-.8-2.3-.8-1.7.2-2.3.6-1.2,1-1.5,2l-1.8-1c.3-1,1-1.8,2-2.4s2.2-.9,3.6-.9,1.9.2,2.6.5,1.4.8,1.9,1.5c.4.6.7,1.6.7,2.6v6.5c0,.6.3.9,1,.9s.6,0,.9-.1v1.7c-.4.2-.9.3-1.5.3s-.9,0-1.4-.3c-.4-.2-.7-.5-.9-.9s-.3-.9-.3-1.5v-.3h.5c-.2.7-.6,1.4-1,1.8-.5.4-1,.7-1.8.9-.6.2-1.3.3-1.9.3s-1.5-.1-2.2-.4c-.6-.3-1.3-.6-1.6-1.3-.4-.5-.6-1.3-.6-2s.3-1.8,1-2.5,1.6-1,2.8-1.4l5.3-1v1.8l-4.3.8c-.8.2-1.6.4-2,.7s-.6.7-.6,1.4.2,1,.6,1.4c.4.3,1,.5,1.9.5s1,0,1.5-.2.9-.3,1.3-.6c.4-.3.6-.6.8-1s.3-.9.3-1.5v-3.7h-.1Z"/>
    <path class="st7" d="M1048.4,557.4c-.8,0-1.7-.2-2.4-.5s-1.4-.8-1.9-1.6-.7-1.7-.7-2.8v-8.8h2.1v8.2c0,1.4.3,2.3.8,2.8s1.5.7,2.5.7.9,0,1.5-.2.9-.4,1.3-.8c.4-.3.7-.8.9-1.4.2-.5.3-1.3.3-2v-7.2h2.1v13.4h-1.9v-2c-.6.8-1.3,1.4-2,1.8-.8.3-1.7.5-2.8.5h.2ZM1049.9,537.4h2.3l-2.6,4.5h-1.8l2-4.5h.1Z"/>
    <path class="st7" d="M1065,557.4c-1.2,0-2.1-.3-3-.8s-1.7-1.4-2.2-2.4-.8-2.3-.8-3.8.3-2.7.8-3.8,1.4-1.8,2.3-2.4c.9-.5,2-.8,3.1-.8s2.1.3,2.8.8c.8.5,1.4,1.4,1.6,2.3l-.3.2v-9.2h2.1v19.5h-1.9l-.2-3.2.3-.2c-.1.7-.4,1.5-.9,2s-1,.9-1.8,1.3-1.4.4-2.2.4l.3.2ZM1065.2,555.6c.8,0,1.6-.2,2.2-.6.6-.4,1.2-1,1.5-1.9s.5-1.7.5-2.8-.2-1.9-.5-2.6-.8-1.3-1.5-1.7c-.6-.4-1.4-.6-2.2-.6-1.4,0-2.4.4-3.1,1.4-.7.9-1.2,2.2-1.2,3.7s.3,2.7,1,3.7,1.8,1.4,3,1.4l.2.2Z"/>
    <path class="st7" d="M1081.8,557.4c-1.3,0-2.4-.3-3.3-.8-.9-.5-1.8-1.4-2.3-2.4s-.8-2.3-.8-3.8.3-2.7.8-3.8,1.4-1.9,2.3-2.4c.9-.5,2.1-.8,3.2-.8s2.3.3,3.2.8,1.6,1.3,2,2.2c.4.9.7,2,.7,3s0,.6,0,.8v.6h-10.8v-1.9h9.8l-1,.2c0-1.3-.3-2.3-1-2.9-.7-.7-1.7-1-2.7-1s-1.7.2-2.3.6-1.2.9-1.5,1.8-.5,1.7-.5,2.7.2,2,.5,2.7c.3.7.8,1.4,1.5,1.8s1.5.6,2.3.6,1.8-.2,2.4-.5c.6-.4,1.2-.8,1.5-1.6l1.7.9c-.3.6-.7,1.2-1.3,1.6s-1.2.8-1.9,1c-.7.2-1.5.3-2.4.3h-.1Z"/>
  </g>
  <g>
    <path class="st7" d="M1010.8,658v17.7h-2.1v-17.7h2.1ZM1021.4,665.7v2h-11.6v-2h11.6ZM1022.5,658v17.7h-2.1v-17.7h2.1Z"/>
    <path class="st7" d="M1035.4,667c0-1-.3-1.8-.8-2.3s-1.3-.8-2.3-.8-1.7.2-2.3.6-1.2,1-1.5,2l-1.8-1c.3-1,1-1.8,2-2.4s2.2-.9,3.6-.9,1.9.2,2.6.5,1.4.8,1.9,1.5c.4.6.7,1.6.7,2.6v6.5c0,.6.3.9,1,.9s.6,0,.9-.1v1.7c-.4.2-.9.3-1.5.3s-.9,0-1.4-.3c-.4-.2-.7-.5-.9-.9s-.3-.9-.3-1.5v-.3h.5c-.2.7-.6,1.4-1,1.8-.5.4-1,.7-1.8.9-.6.2-1.3.3-1.9.3s-1.5-.1-2.2-.4c-.6-.3-1.3-.6-1.6-1.3-.4-.5-.6-1.3-.6-2s.3-1.8,1-2.5,1.6-1,2.8-1.4l5.3-1v1.8l-4.3.8c-.8.2-1.6.4-2,.7s-.6.7-.6,1.4.2,1,.6,1.4c.4.3,1,.5,1.9.5s1,0,1.5-.2.9-.3,1.3-.6c.4-.3.6-.6.8-1s.3-.9.3-1.5v-3.7h-.1Z"/>
    <path class="st7" d="M1049,675.9c-.7,0-1.5-.1-2.1-.4-.6-.3-1.2-.6-1.7-1.2s-.8-1-1-1.7l.3-.4-.2,3.2h-1.9v-19.5h2.1v9.2l-.3-.4c.3-.8.9-1.6,1.8-2.1s1.8-.8,2.9-.8,2.1.3,3,.8,1.7,1.4,2.2,2.4.8,2.3.8,3.8-.3,2.7-.8,3.8-1.3,1.9-2.2,2.4-2,.8-3,.8h.1ZM1048.8,674c1.4,0,2.3-.4,3-1.4.7-.9,1.2-2.2,1.2-3.7s-.3-2.7-1-3.7-1.8-1.4-3-1.4-1.6.2-2.2.6c-.6.4-1.2,1-1.5,1.8s-.5,1.7-.5,2.7.2,1.9.5,2.6.8,1.4,1.5,1.8,1.4.6,2.2.6h-.1Z"/>
    <path class="st7" d="M1060,659.8c-.5,0-.8-.1-1.2-.4-.3-.3-.4-.7-.4-1.2s.1-.8.4-1.2.7-.4,1.2-.4.8.1,1.2.4.4.7.4,1.2-.1.8-.4,1.2-.7.4-1.2.4ZM1061.1,662.3v13.4h-2.1v-13.4h2.1Z"/>
    <path class="st7" d="M1073.8,662.3v1.9h-9.6v-1.9h9.6ZM1069,658.5v13.5c0,.6.2,1.2.5,1.5.4.3.8.5,1.5.5s.9,0,1.4-.3.7-.4,1-.7l.7,1.8c-.4.4-.9.6-1.5.8s-1.3.3-2,.3-1.4-.1-1.9-.3c-.6-.2-1-.6-1.4-1.2s-.5-1.3-.5-2.1v-13.3l2.1-.6h0Z"/>
    <path class="st7" d="M1084.6,667c0-1-.3-1.8-.8-2.3s-1.3-.8-2.3-.8-1.7.2-2.3.6-1.2,1-1.5,2l-1.8-1c.3-1,1-1.8,2-2.4s2.2-.9,3.6-.9,1.9.2,2.6.5,1.4.8,1.9,1.5c.4.6.7,1.6.7,2.6v6.5c0,.6.3.9,1,.9s.6,0,.9-.1v1.7c-.4.2-.9.3-1.5.3s-.9,0-1.4-.3c-.4-.2-.7-.5-.9-.9-.2-.4-.3-.9-.3-1.5v-.3h.5c-.2.7-.6,1.4-1,1.8-.5.4-1,.7-1.8.9-.6.2-1.3.3-1.9.3s-1.5-.1-2.2-.4c-.6-.3-1.3-.6-1.6-1.3-.4-.5-.6-1.3-.6-2s.3-1.8,1-2.5c.6-.6,1.6-1,2.8-1.4l5.3-1v1.8l-4.3.8c-.8.2-1.6.4-2,.7s-.6.7-.6,1.4.2,1,.6,1.4,1,.5,1.9.5,1,0,1.5-.2.9-.3,1.3-.6c.4-.3.6-.6.8-1,.2-.4.3-.9.3-1.5v-3.7h-.1Z"/>
    <path class="st7" d="M1097.1,662c.9,0,1.8.1,2.4.4s1.4.7,1.8,1.3c.5.5.9,1.2,1.3,1.9l-2,.9c-.3-.8-.7-1.5-1.3-2-.6-.4-1.4-.7-2.3-.7s-1.7.2-2.3.6c-.6.4-1.2.9-1.5,1.8s-.5,1.7-.5,2.7.2,2,.5,2.7c.3.7.8,1.4,1.5,1.8s1.4.6,2.3.6,1.3-.1,1.8-.3.9-.5,1.3-.9.5-.9.7-1.5l2,.7c-.3.8-.7,1.6-1.3,2.1-.5.6-1.2,1-1.9,1.4-.7.3-1.6.4-2.5.4s-2.4-.3-3.3-.8c-.9-.5-1.8-1.4-2.3-2.4s-.8-2.3-.8-3.8.3-2.7.8-3.8,1.4-1.9,2.3-2.4c.9-.5,2.1-.8,3.3-.8h0ZM1095.7,675.5l1.2-.6c1,.3,1.8.8,2.2,1.4.4.6.6,1.3.6,2.1s-.3,1.6-.9,2.2-1.4.9-2.3.9-1,0-1.5-.2c-.4-.1-.7-.3-1-.5l.5-1.6c.2.2.5.3.8.4.3.1.6.2,1,.2s.9-.2,1.3-.5.5-.8.5-1.4-.2-.8-.5-1.2-.9-.7-1.8-1v-.2Z"/>
    <path class="st7" d="M1114.1,667c0-1-.3-1.8-.8-2.3s-1.3-.8-2.3-.8-1.7.2-2.3.6-1.2,1-1.5,2l-1.8-1c.3-1,1-1.8,2-2.4s2.2-.9,3.6-.9,1.9.2,2.6.5,1.4.8,1.9,1.5c.4.6.7,1.6.7,2.6v6.5c0,.6.3.9,1,.9s.6,0,.9-.1v1.7c-.4.2-.9.3-1.5.3s-.9,0-1.4-.3c-.4-.2-.7-.5-.9-.9-.2-.4-.3-.9-.3-1.5v-.3h.5c-.2.7-.6,1.4-1,1.8-.5.4-1,.7-1.8.9-.6.2-1.3.3-1.9.3s-1.5-.1-2.2-.4c-.6-.3-1.3-.6-1.6-1.3-.4-.5-.6-1.3-.6-2s.3-1.8,1-2.5c.6-.6,1.6-1,2.8-1.4l5.3-1v1.8l-4.3.8c-.8.2-1.6.4-2,.7s-.6.7-.6,1.4.2,1,.6,1.4,1,.5,1.9.5,1,0,1.5-.2.9-.3,1.3-.6c.4-.3.6-.6.8-1,.2-.4.3-.9.3-1.5v-3.7h-.1ZM1115.9,656.5c0,.7-.2,1.5-.4,2-.2.5-.5.9-.9,1.2-.4.3-.9.4-1.6.4s-.9,0-1.3-.3-.6-.4-.9-.6c-.2-.2-.5-.4-.7-.6s-.5-.3-.8-.3-.7.2-.8.5c-.2.3-.3.7-.4,1.4h-1.7c0-1.2.4-2.1.8-2.7.5-.6,1.3-.9,2.2-.9s.9,0,1.3.3.6.4.9.6c.2.2.5.4.7.6.2.2.5.3.7.3.4,0,.7-.2.9-.5.2-.3.3-.7.4-1.4h1.7-.1Z"/>
    <path class="st7" d="M1126.6,662c1.3,0,2.4.3,3.3.8s1.8,1.4,2.3,2.4.8,2.3.8,3.8-.3,2.7-.8,3.8-1.4,1.9-2.3,2.4-2.1.8-3.3.8-2.4-.3-3.3-.8c-.9-.5-1.8-1.4-2.3-2.4s-.8-2.3-.8-3.8.3-2.7.8-3.8,1.4-1.9,2.3-2.4c.9-.5,2.1-.8,3.3-.8ZM1126.6,663.8c-.9,0-1.7.2-2.3.6-.6.4-1.2.9-1.5,1.8s-.5,1.7-.5,2.7.2,2,.5,2.7c.3.7.8,1.4,1.5,1.8s1.5.6,2.3.6,1.7-.2,2.3-.6c.6-.4,1.2-1,1.5-1.8s.5-1.7.5-2.7-.2-2-.5-2.7-.8-1.4-1.5-1.8-1.5-.6-2.3-.6Z"/>
  </g>
  <g>
    <path class="st9" d="M441,404.1c.7-1,2-2.3,3.3-3.5,2-1.8,3.6-2.6,5.2-2.6s2.6.6,3.6,1.7c1.7,1.9,1.7,4.2.6,6.1h0c1.5-.5,3-.1,4.7,1,2.3,1.6,3.9,2.6,4.7,2.9l-1.9,1.7c-.6-.2-2-1.2-4.1-2.6-2.2-1.6-3.7-1.7-5.4-.2l-1.8,1.6,5.6,6.3-1.9,1.7-12.8-14.2v.2ZM448.7,409l1.9-1.7c2-1.8,2.3-4,.8-5.6-1.7-1.9-3.8-1.5-5.8.3-.9.8-1.5,1.5-1.7,1.8l4.7,5.2h0Z"/>
    <path class="st9" d="M467,395.1l-5.9,4.7,4.4,5.4,6.5-5.2,1.4,1.7-8.5,6.8-12.1-15.1,8.2-6.6,1.4,1.7-6.2,5,3.9,4.8,5.9-4.7,1.3,1.6h-.1Z"/>
    <path class="st9" d="M464.4,384.3c1.2-1,2.5-2.3,4.1-3.5,2.9-2.1,5.4-2.9,7.7-2.6,2.3.3,4.4,1.6,6.3,4.1,1.8,2.6,2.5,5.2,2.1,7.7s-2.3,5-5.3,7.2c-1.5,1-2.7,1.8-3.9,2.4l-11-15.5h0ZM476.3,396.8c.6-.3,1.4-.7,2.1-1.4,4.4-3.1,5-7.2,2-11.5-2.6-3.8-6.4-4.6-10.7-1.6-1,.7-1.8,1.4-2.2,1.9l8.9,12.4h-.1Z"/>
    <path class="st9" d="M494.4,376.3l-6.4,4,3.7,6,7.1-4.4,1.2,1.8-9.2,5.8-10.2-16.4,8.9-5.5,1.2,1.8-6.8,4.2,3.2,5.2,6.4-4,1,1.8h0Z"/>
    <path class="st9" d="M500.6,379.7c1.4,0,3-.2,4.5-1,2.2-1.3,2.9-3.1,2-4.8-.8-1.6-2.3-2-5-1.6-3.3.5-5.8,0-7.1-2.3-1.5-2.6-.3-5.8,2.9-7.6,1.8-.9,3.2-1.3,4.2-1.3l.4,2.1c-.7,0-2.1.1-3.7.9-2.3,1.3-2.4,3.1-1.8,4.3.8,1.6,2.3,1.8,5.1,1.4,3.5-.5,5.6,0,7.1,2.6,1.5,2.6.7,6-3.2,8.2-1.7.9-3.7,1.5-4.9,1.4l-.4-2.1h-.1Z"/>
    <path class="st9" d="M517.9,370.5c1.3.1,3,0,4.6-.7,2.3-1,3.1-2.9,2.3-4.7-.7-1.7-2.1-2.2-4.9-2-3.3.3-5.8-.3-6.9-2.8-1.3-2.7,0-5.9,3.5-7.4,1.8-.8,3.2-1,4.3-.9l.2,2.1c-.7,0-2.1,0-3.8.7-2.4,1.2-2.6,2.9-2.1,4.2.7,1.7,2.2,2,5,1.8,3.5-.2,5.6.5,6.9,3.1,1.3,2.7.3,6-3.8,7.8-1.7.7-3.8,1.2-5,.9l-.3-2.2h0Z"/>
    <path class="st9" d="M543.7,352.3c2.4,6.2,0,11-4.7,12.8-4.8,1.9-9.5-.5-11.6-6-2.2-5.8-.1-10.9,4.7-12.8,4.9-1.9,9.6.6,11.6,6ZM529.8,357.9c1.5,3.9,4.9,6.5,8.6,5.1,3.7-1.5,4.5-5.6,2.9-9.7-1.4-3.6-4.7-6.6-8.6-5.1s-4.4,5.8-2.8,9.7h-.1Z"/>
    <path class="st9" d="M562.4,356.1c-.7.7-2.4,1.7-4.6,2.4-5.2,1.7-10.1-.4-12-6.5-1.8-5.8.8-10.9,6.6-12.8,2.3-.7,3.9-.7,4.6-.5v2.1c-1-.1-2.4,0-4,.4-4.3,1.4-6.4,5-4.8,9.8,1.5,4.5,4.9,6.6,9.4,5.2,1.5-.4,2.8-1.3,3.7-2l1,1.8h.1Z"/>
    <path class="st9" d="M562.6,336.7l5,18.7-2.4.6-5-18.7,2.4-.6Z"/>
    <path class="st9" d="M573.2,347.7l-.6,6.4-2.5.5,2.3-20.3,2.9-.6,10.6,17.5-2.6.5-3.3-5.5-6.7,1.5h0ZM578.9,344.4l-3-5c-.7-1.2-1.3-2.2-1.8-3.2h0c0,1.2,0,2.4-.2,3.7l-.6,5.9,5.6-1.3Z"/>
    <path class="st9" d="M587.3,331.4l3.2,19-2.5.4-3.2-19,2.5-.4Z"/>
    <path class="st9" d="M593.7,346.9c1.2.5,2.9.8,4.6.6,2.5-.3,3.9-1.9,3.6-3.8-.2-1.8-1.4-2.7-4.1-3.3-3.2-.7-5.4-2.1-5.8-4.7-.4-3,1.8-5.5,5.5-6.1,2-.3,3.5,0,4.4.4l-.4,2.1c-.6-.2-2-.6-3.8-.4-2.6.3-3.5,2.1-3.2,3.3.2,1.8,1.6,2.5,4.3,3.1,3.5.8,5.2,2.2,5.6,5,.4,2.9-1.5,5.9-6,6.4-1.9.2-4,0-5-.5l.3-2.2h-.1Z"/>
    <path class="st9" d="M623.2,338l-7.5.4.4,7,8.4-.5v2.1c.1,0-10.8.6-10.8.6l-1.2-19.3,10.5-.6v2.1c.1,0-7.8.5-7.8.5l.4,6.1,7.5-.4v2.1h.1Z"/>
    <path class="st9" d="M646.5,346.3c-.9.4-2.7.8-5.1.8-5.4,0-9.5-3.6-9.4-9.9,0-6.1,4.3-10,10.2-10s4,.6,4.6.9l-.6,2c-.9-.5-2.3-.8-3.9-.8-4.5,0-7.6,2.8-7.6,7.8s2.6,7.8,7.3,7.8,3-.3,4.1-.7l.5,2h-.1Z"/>
    <path class="st9" d="M666.4,338.6c-.5,6.6-4.9,9.8-9.8,9.4-5.1-.4-8.4-4.7-7.8-10.5.5-6.2,4.6-9.8,9.8-9.4s8.4,4.7,7.8,10.5ZM651.4,337.7c-.3,4.1,1.6,7.9,5.5,8.3s6.5-3.1,6.8-7.5c.3-3.9-1.4-7.9-5.5-8.4-4.1-.3-6.5,3.3-6.8,7.5h0Z"/>
    <path class="st9" d="M685.6,342.9c.3-2.7.6-6,1-8.3h0c-1,2.1-2.2,4.4-3.6,6.8l-4.8,8.7-1.9-.3-1.7-9.6c-.5-2.8-.8-5.4-1-7.7h0c-.4,2.4-1,5.5-1.8,8.4l-1.8,8.1-2.3-.4,4.4-18.8,3.1.5,1.8,9.7c.4,2.5.7,4.7.9,6.7h0c.8-1.9,1.8-3.9,3-6.1l4.9-8.7,3.1.5-1.9,19.2-2.4-.4.8-8.5v.2Z"/>
    <path class="st9" d="M697.2,334.3l-2.7,11.1c-1,4.2.4,6.5,2.9,7,2.8.6,5-.7,6.1-4.9l2.7-11.1,2.4.6-2.6,11c-1.4,5.8-5,7.4-9.1,6.4-3.9-.9-6.2-3.9-4.8-9.6l2.7-11.1,2.4.6h0Z"/>
    <path class="st9" d="M707.7,356.8l5.9-18.4,2.6.8,2.9,11.2c.7,2.6,1.2,4.9,1.5,7h0c.5-2.5,1.3-4.8,2.1-7.6l2.4-7.7,2.2.7-5.9,18.4-2.4-.7-2.9-11.2c-.6-2.5-1.3-4.9-1.5-7.2h0c-.6,2.4-1.3,4.6-2.2,7.6l-2.5,7.8-2.2-.7Z"/>
    <path class="st9" d="M734.2,345.3l-6.7,18.2-2.3-.8,6.7-18.2,2.3.8Z"/>
    <path class="st9" d="M741.1,350.3l-5.4-2.2.8-2,13.3,5.4-.8,2-5.4-2.3-6.6,15.9-2.3-.9,6.6-15.9h-.1Z"/>
    <path class="st9" d="M749.4,366l-4.5,4.6-2.3-1.2,14.3-14.5,2.7,1.4-2.4,20.3-2.4-1.2.7-6.4-6.2-2.9h0ZM755.9,366.9l.7-5.9c.2-1.4.4-2.5.6-3.7h0c-.7.8-1.6,1.8-2.4,2.7l-4.2,4.2,5.2,2.5h0ZM763.9,353.4l-4.7,1.5-1.9-.9,3.9-1.9,2.7,1.4Z"/>
    <path class="st9" d="M768.4,361c1.3.4,2.9,1.2,4.4,2,2.3,1.3,3.6,2.6,4.1,4.1.4,1.3.3,2.6-.4,4-1.3,2.2-3.5,2.9-5.5,2.5h0c1,1.3,1.2,2.9.6,4.9-.7,2.6-1.3,4.5-1.3,5.3l-2.3-1.3c0-.6.4-2.3,1.2-4.7.8-2.6.4-4-1.6-5.1l-2.1-1.2-4.1,7.3-2.2-1.3,9.3-16.6h-.1ZM766.3,369.9l2.2,1.3c2.3,1.3,4.5.8,5.6-1,1.3-2.2.2-4-2.1-5.3-1-.6-1.9-.9-2.3-1l-3.5,6.2Z"/>
    <path class="st9" d="M784.3,369.9l-10.1,16.5-2.1-1.3,10.1-16.5,2.1,1.3Z"/>
    <path class="st9" d="M783.6,385.1l-5,3.9-2.1-1.5,16.3-12.3,2.5,1.7-5.3,19.8-2.2-1.5,1.7-6.2-5.6-3.9h-.2ZM790,387l1.6-5.6c.3-1.3.7-2.4,1.2-3.5h0c-.8.7-1.8,1.6-2.7,2.3l-4.7,3.6,4.8,3.2h-.1Z"/>
    <path class="st9" d="M793.2,395.4c.5,1.3,1.5,2.7,2.8,3.8,2,1.6,4.1,1.4,5.2-.2,1-1.5.9-2.9-.5-5.2-1.9-2.8-2.4-5.3-.7-7.4,1.8-2.4,5.1-2.6,8.2-.4,1.6,1.2,2.4,2.4,2.8,3.3l-1.8,1.2c-.3-.6-.9-1.9-2.4-2.9-2.1-1.6-3.9-.9-4.7,0-1,1.5-.7,2.8.8,5.3,1.9,3,2.2,5.2.5,7.5-1.8,2.4-5.1,3.1-8.8.3-1.5-1.2-2.8-2.8-3.1-4l1.8-1.3h-.1Z"/>
  </g>
  <g>
    <g>
      <path class="st7" d="M536.2,196.1c-1,.5-3.1,1-5.8,1-6.2,0-10.8-3.9-10.8-11s4.6-11.4,11.4-11.4,4.4.6,5.1.9l-.6,2.3c-1-.5-2.6-.9-4.4-.9-5.1,0-8.5,3.2-8.5,9s3,8.8,8.4,8.8,3.5-.3,4.6-.9l.6,2.2h-.1Z"/>
      <path class="st7" d="M553.4,188.8c0,5.8-4,8.3-7.7,8.3s-7.5-3.1-7.5-8.1,3.5-8.3,7.7-8.3,7.5,3.2,7.5,8.1ZM541,189c0,3.5,2,6,4.7,6s4.7-2.5,4.7-6.1-1.4-6-4.7-6-4.8,3.1-4.8,6.1h.1Z"/>
      <path class="st7" d="M556.7,185.4c0-1.6,0-2.9-.1-4.2h2.5l.2,2.6h0c.7-1.5,2.6-2.9,5.1-2.9s5.5,1.3,5.5,6.7v9.3h-2.8v-9c0-2.5-.9-4.6-3.7-4.6s-3.3,1.4-3.8,2.9c-.1.3-.2.8-.2,1.4v9.4h-2.8v-11.6Z"/>
      <path class="st7" d="M587.7,173.9v18.9c0,1.4,0,2.9.1,4.1h-2.5v-2.7h-.2c-.8,1.8-2.8,3-5.3,3-3.8,0-6.7-3.2-6.7-7.9s3.2-8.4,7-8.4,4,1.2,4.7,2.4h0v-9.3h2.9ZM584.9,187.6c0-.3,0-.8-.1-1.2-.4-1.8-2-3.2-4.1-3.2s-4.7,2.6-4.7,6.1,1.6,5.8,4.6,5.8,3.7-1.3,4.2-3.3c0-.4.1-.7.1-1.3v-2.7h0Z"/>
      <path class="st7" d="M595.2,176.8c0,.9-.6,1.8-1.8,1.8s-1.7-.7-1.7-1.8.7-1.8,1.8-1.8,1.8.7,1.8,1.8h-.1ZM592.1,196.8v-15.6h2.8v15.6h-2.8Z"/>
      <path class="st7" d="M610.5,196.3c-.6.3-2.2.8-4.1.9l-.8,1.3c1.2.2,2.3,1,2.3,2.2,0,1.9-1.6,2.6-3.3,2.6s-1.7-.2-2.2-.5l.5-1.4c.5.3,1.2.5,1.8.5s1.4-.2,1.4-1-1-1.3-2.5-1.4l1.4-2.4c-4-.5-6.6-3.6-6.6-7.9s3.2-8.3,8.4-8.3,3.1.4,4,.8l-.6,2.2c-.6-.4-1.8-.7-3.2-.7-3.6,0-5.5,2.6-5.5,5.9s2.3,5.9,5.4,5.9,2.7-.4,3.5-.7l.5,2.1h-.1Z"/>
      <path class="st7" d="M627.7,188.8c0,5.8-4,8.3-7.7,8.3s-7.5-3.1-7.5-8.1,3.5-8.3,7.7-8.3,7.5,3.2,7.5,8.1ZM615.2,189c0,3.5,2,6,4.7,6s4.7-2.5,4.7-6.1-1.4-6-4.7-6-4.8,3.1-4.8,6.1h.1ZM615.9,178.5c0-2.1.8-3.3,2.2-3.3s1.3.3,2,.7c.5.3.9.5,1.4.5s.8-.3.9-1.4h1.6c0,2.2-.7,3.2-2.2,3.2s-1.3-.3-2-.6c-.6-.4-1-.6-1.4-.6s-.7.5-.8,1.5h-1.7Z"/>
      <path class="st7" d="M632.5,189.6c0,3.9,2.5,5.4,5.3,5.4s3.2-.3,4.3-.8l.5,2c-1,.4-2.7.9-5.2.9-4.8,0-7.6-3.1-7.6-7.8s2.8-8.5,7.3-8.5,6.5,4.5,6.5,7.3,0,1,0,1.4h-11.1ZM640.8,187.5c0-1.8-.7-4.6-4-4.6s-4.2,2.6-4.4,4.6h8.4Z"/>
      <path class="st7" d="M646.4,193.9c.8.5,2.3,1.2,3.8,1.2,2.1,0,3-1,3-2.3s-.8-2.1-2.9-2.8c-2.8-1-4.2-2.5-4.2-4.4s2-4.6,5.4-4.6,2.9.4,3.9.9l-.7,2.1c-.6-.4-1.8-.9-3.2-.9s-2.6.9-2.6,2.1.9,1.9,2.9,2.6c2.7,1,4.1,2.4,4.1,4.7s-2.1,4.7-5.9,4.7-3.2-.4-4.4-1l.7-2.2h.1Z"/>
      <path class="st7" d="M679.2,173.9v18.9c0,1.4,0,2.9.1,4.1h-2.5v-2.7h-.2c-.8,1.8-2.8,3-5.3,3-3.8,0-6.7-3.2-6.7-7.9s3.2-8.4,7-8.4,4,1.2,4.7,2.4h0v-9.3h2.9ZM676.4,187.6c0-.3,0-.8-.1-1.2-.4-1.8-2-3.2-4.1-3.2s-4.7,2.6-4.7,6.1,1.6,5.8,4.6,5.8,3.7-1.3,4.2-3.3c0-.4.1-.7.1-1.3v-2.7h0Z"/>
      <path class="st7" d="M685.2,189.6c0,3.9,2.5,5.4,5.3,5.4s3.2-.3,4.3-.8l.5,2c-1,.4-2.7.9-5.2.9-4.8,0-7.6-3.1-7.6-7.8s2.8-8.5,7.3-8.5,6.5,4.5,6.5,7.3,0,1,0,1.4h-11.1ZM693.5,187.5c0-1.8-.7-4.6-4-4.6s-4.2,2.6-4.4,4.6h8.4Z"/>
      <path class="st7" d="M710.8,196.8l-7.1-21.8h3l3.3,10.7c.9,2.9,1.8,5.5,2.3,8.2h0c.6-2.5,1.6-5.2,2.5-8.1l3.7-10.8h3l-7.7,21.8h-3.1.1Z"/>
      <path class="st7" d="M726.8,176.8c0,.9-.6,1.8-1.8,1.8s-1.7-.7-1.7-1.8.7-1.8,1.8-1.8,1.8.7,1.8,1.8h-.1ZM723.7,196.8v-15.6h2.8v15.6h-2.8Z"/>
      <path class="st7" d="M744.4,173.9v18.9c0,1.4,0,2.9.1,4.1h-2.5v-2.7h-.2c-.8,1.8-2.8,3-5.3,3-3.8,0-6.7-3.2-6.7-7.9s3.2-8.4,7-8.4,4,1.2,4.7,2.4h0v-9.3h2.9ZM741.5,187.6c0-.3,0-.8-.1-1.2-.4-1.8-2-3.2-4.1-3.2s-4.7,2.6-4.7,6.1,1.6,5.8,4.6,5.8,3.7-1.3,4.2-3.3c0-.4.1-.7.1-1.3v-2.7h0Z"/>
      <path class="st7" d="M757.4,196.8l-.2-2h0c-.8,1.3-2.5,2.3-4.8,2.3s-4.8-2.2-4.8-4.5c0-3.8,3.3-5.9,9.4-5.9v-.3c0-1.3-.3-3.7-3.6-3.7s-2.9.4-4.1,1.2l-.6-1.9c1.3-.8,3.1-1.4,5.1-1.4,4.8,0,6,3.2,6,6.4v5.9c0,1.4,0,2.7.2,3.8h-2.6ZM757,188.8c-3.1,0-6.6.5-6.6,3.6s1.3,2.7,2.7,2.7,3.3-1.3,3.8-2.6c0-.3.2-.6.2-.9v-2.7h-.1Z"/>
      <path class="st7" d="M554.3,228.3c0,3.9,2.5,5.4,5.3,5.4s3.2-.3,4.3-.8l.5,2c-1,.4-2.7.9-5.2.9-4.8,0-7.6-3.1-7.6-7.8s2.8-8.5,7.3-8.5,6.5,4.5,6.5,7.3,0,1,0,1.4h-11.1ZM562.6,226.3c0-1.8-.7-4.6-4-4.6s-4.2,2.6-4.4,4.6h8.4Z"/>
      <path class="st7" d="M588.5,212.7v18.9c0,1.4,0,2.9.1,4.1h-2.5v-2.7h-.2c-.8,1.8-2.8,3-5.3,3-3.8,0-6.7-3.2-6.7-7.9s3.2-8.4,7-8.4,4,1.2,4.7,2.4h0v-9.3h2.9ZM585.7,226.3c0-.3,0-.8-.1-1.2-.4-1.8-2-3.2-4.1-3.2s-4.7,2.6-4.7,6.1,1.6,5.8,4.6,5.8,3.7-1.3,4.2-3.3c0-.4.1-.7.1-1.3v-2.7h0Z"/>
      <path class="st7" d="M594.6,228.3c0,3.9,2.5,5.4,5.3,5.4s3.2-.3,4.3-.8l.5,2c-1,.4-2.7.9-5.2.9-4.8,0-7.6-3.1-7.6-7.8s2.8-8.5,7.3-8.5,6.5,4.5,6.5,7.3,0,1,0,1.4h-11.1ZM602.9,226.3c0-1.8-.7-4.6-4-4.6s-4.2,2.6-4.4,4.6h8.4Z"/>
      <path class="st7" d="M619.6,216.2h-6.6v-2.4h16.1v2.4h-6.7v19.3h-2.8v-19.3Z"/>
      <path class="st7" d="M631.1,224.8c0-1.9,0-3.5-.1-4.9h2.5v3h.2c.7-2.1,2.4-3.5,4.3-3.5s.5,0,.8,0v2.7h-.9c-2,0-3.5,1.6-3.8,3.7,0,.4-.1.8-.1,1.4v8.4h-2.8v-10.8h-.1Z"/>
      <path class="st7" d="M649.9,235.6l-.2-2h0c-.8,1.3-2.5,2.3-4.8,2.3s-4.8-2.2-4.8-4.5c0-3.8,3.3-5.9,9.4-5.9v-.3c0-1.3-.3-3.7-3.6-3.7s-2.9.4-4.1,1.2l-.6-1.9c1.3-.8,3.1-1.4,5.1-1.4,4.8,0,6,3.2,6,6.4v5.9c0,1.4,0,2.7.2,3.8h-2.6ZM649.5,227.5c-3.1,0-6.6.5-6.6,3.6s1.3,2.7,2.7,2.7,3.3-1.3,3.8-2.6c0-.3.2-.6.2-.9v-2.7h-.1Z"/>
      <path class="st7" d="M656.4,235.6c0-1,.1-2.6.1-4.1v-18.9h2.8v9.8h0c1-1.8,2.8-2.8,5.3-2.8,3.9,0,6.6,3.2,6.6,7.9s-3.6,8.4-7,8.4-4.1-.8-5.2-2.9h0v2.6h-2.6,0ZM659.3,229.3c0,.3,0,.7.1,1,.5,2,2.2,3.3,4.3,3.3s4.7-2.4,4.7-6-1.6-5.9-4.6-5.9-3.8,1.4-4.3,3.5c0,.3-.2.7-.2,1.2v2.8h0Z"/>
      <path class="st7" d="M683.3,235.6l-.2-2h0c-.8,1.3-2.5,2.3-4.8,2.3s-4.8-2.2-4.8-4.5c0-3.8,3.3-5.9,9.4-5.9v-.3c0-1.3-.3-3.7-3.6-3.7s-2.9.4-4.1,1.2l-.6-1.9c1.3-.8,3.1-1.4,5.1-1.4,4.8,0,6,3.2,6,6.4v5.9c0,1.4,0,2.7.2,3.8h-2.6ZM682.9,227.5c-3.1,0-6.6.5-6.6,3.6s1.3,2.7,2.7,2.7,3.3-1.3,3.8-2.6c0-.3.2-.6.2-.9v-2.7h-.1Z"/>
      <path class="st7" d="M689.9,212.7h2.8v22.9h-2.8v-22.9Z"/>
      <path class="st7" d="M697.1,212.7h2.8v9.7h0c.4-.8,1.2-1.6,2-2,.8-.5,1.9-.8,2.9-.8,2.1,0,5.4,1.3,5.4,6.7v9.3h-2.8v-9c0-2.5-.9-4.6-3.7-4.6s-3.2,1.3-3.8,2.8c-.2.4-.2.8-.2,1.4v9.4h-2.8v-22.9h.1Z"/>
      <path class="st7" d="M728.9,227.6c0,5.8-4,8.3-7.7,8.3s-7.5-3.1-7.5-8.1,3.5-8.3,7.7-8.3,7.5,3.2,7.5,8.1ZM716.4,227.7c0,3.5,2,6,4.7,6s4.7-2.5,4.7-6.1-1.4-6-4.7-6-4.8,3.1-4.8,6.1h.1Z"/>
    </g>
    <g>
      <g>
        <path class="st1" d="M480.8,203.6c-55.2-2.5-82.3,33-93.9,55.5"/>
        <polygon class="st9" points="373.7 217.5 388.9 254.6 426 239.3 416.8 261.6 379.7 276.8 364.4 239.7 373.7 217.5"/>
      </g>
      <g>
        <path class="st1" d="M799.6,203.6c55.2-2.5,82.3,33,93.9,55.5"/>
        <polygon class="st9" points="854.4 239.3 891.5 254.6 906.8 217.5 916 239.7 900.8 276.8 863.7 261.6 854.4 239.3"/>
      </g>
    </g>
  </g>
  <g>
    <path class="st9" d="M217.7,264.6c-.3,1.2-1.3,3-2.9,5-4,4.7-9.9,5.6-15.4,1-5.2-4.4-5.8-10.9-1.4-16.1,1.8-2.1,3.3-3,4.1-3.3l1.4,2c-1,.5-2.4,1.4-3.6,2.7-3.3,3.9-3,8.6,1.4,12.2,4.1,3.5,8.7,3.3,12.1-.7,1.2-1.3,2-2.8,2.3-4.1l2.1,1v.2Z"/>
    <path class="st9" d="M224.5,241.4c5.5,5,5.4,11.1,1.7,15.2-3.9,4.3-9.9,4.2-14.7-.2-5.1-4.7-5.5-10.9-1.7-15.2,4-4.4,9.9-4.2,14.7.2ZM213.4,254.2c3.5,3.1,8.3,4.1,11.2.8,3-3.2,1.7-7.9-2-11.3-3.2-2.9-8.1-4.3-11.2-.8s-1.6,8.1,2,11.3Z"/>
    <path class="st9" d="M235,246.7l-15.5-15.3,2.2-2.2,12.8,2.7c2.9.6,5.4,1.4,7.7,2.2h0c-2.3-1.9-4.2-3.8-6.6-6.1l-6.5-6.4,1.9-1.9,15.5,15.3-2,2-12.8-2.8c-2.8-.6-5.5-1.4-8.1-2.2h0c2.1,1.9,4,3.7,6.6,6.3l6.6,6.5-1.9,1.9h0Z"/>
    <path class="st9" d="M234.9,216.3c1-1.4,2.4-2.9,4.1-4.4,2.9-2.7,5.6-4.1,8.3-4.1s5.2,1,7.6,3.6c2.4,2.6,3.7,5.4,3.6,8.3,0,2.8-1.8,6-4.8,8.9-1.5,1.4-2.7,2.4-3.9,3.3l-14.6-15.6h-.2ZM250.1,228.4c.6-.4,1.4-1,2.2-1.9,4.4-4.1,4.4-8.8.4-13.1-3.5-3.8-7.8-4.2-12.1,0-1,1-1.8,1.9-2.2,2.5l11.8,12.4h-.1Z"/>
    <path class="st9" d="M252.5,199.5l14.5,16.2-2.1,1.9-14.5-16.2,2.1-1.9Z"/>
    <path class="st9" d="M281.5,202.2c-.4,1-1.7,2.8-3.7,4.5l.3,1.5c1-.6,2.4-.6,3.2.4,1.3,1.5.4,3-.8,4.2-.6.5-1.5.9-2.1,1l-.6-1.4c.5-.1,1.2-.4,1.7-.8.5-.5.8-1.2.4-1.6-.5-.6-1.6-.3-2.8.6l-.6-2.7c-4.5,2.9-9.8,2.6-14-2.3-4.4-5.1-4-11.7,1.2-16.1,2.1-1.8,3.8-2.4,4.6-2.6l.9,2.2c-1.2.3-2.5,1-3.9,2.2-3.9,3.3-4.3,7.9-.6,12.3,3.5,4.1,8.1,4.6,12,1.3,1.3-1.2,2.4-2.5,2.9-3.7l1.9,1.4v-.4Z"/>
    <path class="st9" d="M273.6,179.8c-1.3-1.5-1.5-3-.3-4,.5-.4,1.2-.5,1.9-.7.6,0,1.2-.2,1.6-.5s.4-.6,0-1.6l1.2-.9c1.3,1.6,1.5,2.8.2,3.8-.5.4-1.2.6-1.9.7-.7.1-1.3.2-1.6.4-.4.3-.3.9.2,1.7l-1.2.9v.2ZM292,180.6c4.7,5.9,3.6,11.8-.7,15.3-4.5,3.6-10.5,2.6-14.5-2.5-4.3-5.4-3.8-11.6.7-15.3,4.6-3.7,10.5-2.5,14.5,2.5ZM279,191.3c2.9,3.7,7.4,5.3,10.9,2.6,3.5-2.8,2.9-7.5-.2-11.4-2.7-3.3-7.3-5.5-11-2.6s-2.8,7.7.2,11.4h.1Z"/>
    <path class="st9" d="M304.4,172.5l-6.8,5,4.7,6.3,7.5-5.6,1.4,1.9-9.8,7.3-13-17.5,9.4-7,1.4,1.9-7.2,5.3,4.1,5.5,6.8-5,1.4,1.9h.2Z"/>
    <path class="st9" d="M311.5,175.7c1.5,0,3.3-.6,4.9-1.8,2.3-1.7,2.8-3.9,1.6-5.6-1.2-1.7-2.8-2-5.9-1.2-3.7,1-6.5.7-8.3-1.8-2-2.8-1-6.5,2.4-8.9,1.8-1.3,3.5-1.8,4.6-1.9l.7,2.3c-.8,0-2.4.4-4,1.6-2.4,1.7-2.3,3.8-1.5,5,1.2,1.7,2.8,1.7,6,.9,3.9-.9,6.4-.6,8.3,2.1s1.6,6.6-2.6,9.5c-1.7,1.3-4,2-5.3,2.1l-.7-2.3h-.2Z"/>
    <path class="st9" d="M329.7,163.1c1.5,0,3.3-.5,5-1.6,2.4-1.6,3-3.8,1.8-5.5-1.2-1.7-2.7-2.1-5.8-1.5-3.7.8-6.5.5-8.2-2.1-1.9-2.8-.8-6.5,2.7-8.8,1.9-1.3,3.6-1.7,4.6-1.7l.6,2.3c-.8,0-2.4.3-4.1,1.4-2.5,1.6-2.5,3.8-1.7,4.9,1.2,1.7,2.7,1.9,6,1.2,3.9-.8,6.4-.3,8.2,2.4,1.8,2.8,1.3,6.6-3,9.4-1.8,1.2-4,1.9-5.4,1.9l-.7-2.4h0Z"/>
    <path class="st9" d="M355.1,138.3c3.9,6.4,2,12.1-2.8,15.1-4.9,2.9-10.7,1.3-14-4.4-3.6-6-2.2-12,2.8-15,5.1-3,10.8-1.2,14,4.4h0ZM340.9,147.3c2.4,4,6.7,6.3,10.5,4,3.9-2.3,3.9-7.1,1.4-11.3-2.2-3.7-6.5-6.4-10.5-4s-3.8,7.2-1.4,11.4h0Z"/>
    <path class="st9" d="M376.6,138.3c-.6.9-2.2,2.4-4.5,3.7-5.3,2.9-11.3,1.8-14.7-4.4-3.2-6-1.5-12.2,4.4-15.5,2.4-1.4,4.2-1.7,5-1.7l.5,2.3c-1.2,0-2.7.4-4.3,1.4-4.5,2.5-5.9,7-3.1,11.9,2.6,4.7,6.9,6.2,11.5,3.7,1.5-.8,2.8-2,3.6-3l1.6,1.7h.1Z"/>
    <path class="st9" d="M372.2,117l10,19.2-2.5,1.3-10-19.2,2.5-1.3Z"/>
    <path class="st9" d="M398,116c3.3,6.7.9,12.3-4.1,14.7-5.1,2.5-10.8.3-13.6-5.6-3-6.2-1.2-12.1,4.1-14.7,5.3-2.6,10.8-.2,13.6,5.5h0ZM382.9,123.8c2.1,4.2,6.2,6.8,10.1,4.8,4-2,4.5-6.8,2.3-11.2-1.9-3.9-6-6.9-10.1-4.9-4.2,2.1-4.4,6.9-2.3,11.2h0Z"/>
    <path class="st9" d="M411.9,110.8l-7.7,3.5,3.2,7.1,8.6-3.9.9,2.2-11.2,5-8.9-19.9,10.8-4.8.9,2.2-8.2,3.7,2.8,6.3,7.7-3.5s.9,2.1.9,2.1Z"/>
    <path class="st9" d="M433.7,112c-.7.8-2.5,2.1-4.9,3.1-5.6,2.3-11.4.5-14.1-6.1-2.6-6.3,0-12.3,6.2-14.9,2.5-1,4.3-1.2,5.1-1l.2,2.4c-1.2,0-2.7.1-4.4.8-4.7,2-6.6,6.3-4.4,11.5,2,4.9,6.2,6.9,11.1,4.9,1.6-.6,3-1.7,3.9-2.6l1.4,1.9h0Z"/>
    <path class="st9" d="M450.3,94.6c2.6,7-.3,12.3-5.4,14.2-5.4,2-10.8-.7-13-6.9-2.4-6.5,0-12.2,5.5-14.2,5.5-2.1,10.8.8,13,6.9h-.1ZM434.6,100.9c1.6,4.4,5.4,7.4,9.6,5.9s5.1-6.3,3.3-10.9c-1.5-4.1-5.2-7.5-9.6-5.9-4.4,1.6-5,6.5-3.3,11h0Z"/>
    <path class="st9" d="M457.2,104l-6.8-20.7,2.9-.9,10,8.3c2.3,1.9,4.3,3.7,6,5.5h0c-1.2-2.7-2.1-5.2-3.1-8.5l-2.8-8.7,2.5-.8,6.8,20.7-2.7.8-10-8.4c-2.2-1.8-4.4-3.8-6.2-5.6h0c1,2.6,1.9,5.1,3,8.5l2.9,8.8-2.5.8v.2Z"/>
    <path class="st9" d="M491.7,81.9c2.1,7.2-1.3,12.2-6.6,13.8-5.5,1.6-10.7-1.6-12.4-7.9-1.9-6.7.9-12.1,6.6-13.8,5.8-1.7,10.7,1.7,12.4,7.8h0ZM478.8,69.3l4.3,2.6-2.3.6-2.6-1.6h0l-1.4,2.7-2.2.6,2.2-4.5,2.1-.6h-.1ZM475.6,86.9c1.3,4.5,4.8,7.7,9.1,6.6,4.3-1.3,5.5-5.9,4.2-10.6-1.2-4.2-4.6-7.8-9.1-6.6-4.5,1.3-5.5,6.1-4.2,10.7h0Z"/>
    <path class="st9" d="M513.4,78.1c-.8-2.9-1.9-6.4-2.5-9.1h0c-.1,2.7-.3,5.5-.7,8.7l-1.3,11.2-2.1.5-5.9-9.2c-1.7-2.7-3.2-5.2-4.4-7.6h0c.5,2.7,1.3,6.3,1.9,9.5l1.7,9.2-2.6.6-3.7-21.5,3.5-.8,6.1,9.4c1.5,2.4,2.8,4.5,3.9,6.6h0c0-2.3.2-4.8.5-7.6l1.3-11.2,3.5-.8,6.4,20.8-2.7.6-2.8-9.2h.1Z"/>
    <path class="st9" d="M520.9,64.1l4.5,21.3-2.7.6-4.5-21.3,2.7-.6Z"/>
    <path class="st9" d="M544.6,80.9c-.9.7-2.8,1.6-5.4,2.1-6.1,1.2-11.3-1.9-12.5-8.9-1.3-6.7,2.4-12.1,9.1-13.3,2.6-.5,4.5-.2,5.2,0l-.2,2.4c-1.2-.3-2.7-.4-4.5,0-5,.9-7.7,4.8-6.7,10.4.9,5.2,4.6,8.1,9.8,7.1,1.7-.3,3.3-.9,4.4-1.8l.9,2.1h-.1Z"/>
    <path class="st9" d="M550.2,73.8l-1.3,7.1-2.8.4,4.1-22.6,3.3-.5,10.6,20.4-2.9.4-3.3-6.4s-7.6,1.2-7.6,1.2ZM557,70.6l-3-5.9c-.7-1.4-1.3-2.5-1.7-3.8h0c-.1,1.4-.3,2.7-.5,4.1l-1.2,6.6,6.5-.9h-.1Z"/>
    <path class="st9" d="M566.1,74.9c1.4.6,3.2,1,5.1.8,2.8-.3,4.3-2.1,4.1-4.2-.2-2-1.6-3-4.6-3.8-3.7-.8-6.1-2.4-6.5-5.4-.4-3.3,2.1-6.2,6.3-6.7,2.2-.3,3.9,0,4.9.5l-.5,2.4c-.7-.3-2.3-.7-4.2-.5-2.9.3-3.9,2.3-3.7,3.8.2,2,1.7,2.8,4.8,3.7,3.9.9,5.9,2.5,6.3,5.6.4,3.3-1.7,6.5-6.8,7.1-2.1.2-4.4,0-5.6-.7l.4-2.4v-.2Z"/>
    <path class="st9" d="M580.7,80.7c.5-2,1-5.5,1.2-7.8l3.1-.6c-.4,2.8-1.6,6.5-2.3,8.2l-2,.4h0Z"/>
    <path class="st9" d="M610.1,73.6c-1,.6-3,1.3-5.6,1.5-6.2.4-11-3.1-11.5-10.2-.4-6.8,3.9-11.7,10.6-12.1,2.7-.2,4.5.3,5.2.6l-.5,2.3c-1-.4-2.6-.7-4.4-.6-5.1.3-8.3,3.9-7.8,9.5.3,5.3,3.7,8.6,8.9,8.2,1.7-.1,3.5-.6,4.5-1.3l.7,2.2h0Z"/>
    <path class="st9" d="M615.3,52.4l.4,12.9c.2,4.9,2.4,6.9,5.3,6.8,3.2-.1,5.2-2.3,5-7.1l-.4-12.9h2.8l.4,12.5c.2,6.7-3.2,9.5-7.9,9.7-4.5.1-7.8-2.3-8.2-9l-.4-12.8h2.8v-.2Z"/>
    <path class="st9" d="M633.3,51.9h2.8l.3,19.3h9.3c0-.1,0,2.2,0,2.2l-12.1.2-.3-21.8h0Z"/>
    <path class="st9" d="M653,54.3l-6.6-.2v-2.4l16.2.4v2.4l-6.7-.2-.5,19.3h-2.8l.5-19.5h-.1Z"/>
    <path class="st9" d="M668,52.5l-.7,12.9c-.3,4.9,1.8,7,4.7,7.2,3.2.2,5.4-1.8,5.6-6.6l.7-12.9,2.8.2-.7,12.7c-.4,6.7-4.1,9.2-8.8,9-4.5-.2-7.6-3-7.3-9.7l.7-12.8,2.8.2v-.2Z"/>
    <path class="st9" d="M686.2,53.9c1.5-.2,3.5-.1,5.4,0,3,.3,4.9.9,6.1,2.3,1,1,1.5,2.6,1.4,4.3-.2,2.8-2.2,4.6-4.6,5.1h0c1.6.8,2.5,2.5,2.8,4.7.4,3.1.7,5.2,1.2,6.1l-2.9-.2c-.3-.6-.6-2.5-.9-5.3-.4-3-1.5-4.3-4-4.6l-2.6-.2-.8,9.4-2.8-.2,1.9-21.3h0ZM688.2,64.1l2.8.2c3,.3,5-1.2,5.2-3.7.2-2.8-1.7-4.2-4.6-4.5-1.4-.1-2.3,0-2.8,0l-.7,7.9h.1Z"/>
    <path class="st9" d="M705.6,70.6l-3,6.5-2.9-.3,9.9-20.7,3.3.4,4.7,22.5-2.9-.3-1.5-7.1s-7.6-.9-7.6-.9ZM712.9,69.2l-1.4-6.5c-.3-1.5-.5-2.8-.6-4.1h0c-.5,1.3-.9,2.5-1.6,3.8l-2.9,6,6.5.8h0Z"/>
    <path class="st9" d="M726.3,58.2l-3.1,21.5-2.8-.4,3.1-21.5s2.8.4,2.8.4Z"/>
    <path class="st9" d="M727.8,76.9c1.2.9,2.8,1.9,4.7,2.2,2.8.5,4.7-.7,5.1-2.9.3-2-.6-3.3-3.3-4.9-3.2-1.8-5.1-4-4.6-7,.5-3.3,3.8-5.3,7.9-4.7,2.2.4,3.7,1.2,4.6,1.9l-1.2,2.1c-.6-.5-2-1.4-3.9-1.7-2.9-.5-4.3,1-4.6,2.5-.3,2,.8,3.2,3.6,4.8,3.3,2,4.9,4.1,4.4,7.2-.5,3.3-3.5,5.8-8.6,4.9-2.1-.3-4.2-1.4-5.2-2.3l1-2.2h0Z"/>
    <path class="st9" d="M762.4,76.5l-8.3-1.7-1.6,7.6,9.2,1.9-.5,2.3-12-2.5,4.4-21.3,11.5,2.4-.5,2.3-8.8-1.8-1.4,6.7,8.3,1.7-.5,2.3h.2Z"/>
    <path class="st9" d="M775.7,83.1l-3.9,6.1-2.8-.7,12.5-19.2,3.2.8,1.9,22.9-2.9-.7-.5-7.2-7.5-1.9h0ZM783.2,82.8l-.5-6.6c-.1-1.5-.1-2.8-.1-4.1h0c-.6,1.2-1.3,2.3-2,3.6l-3.7,5.5,6.4,1.6h-.1Z"/>
    <path class="st9" d="M809.6,89.7c.7-2.9,1.6-6.5,2.4-9.1h0c-1.5,2.2-3,4.6-5,7.1l-6.7,9-2.1-.6-.4-11c-.1-3.2-.2-6.2,0-8.8h0c-.8,2.6-2,6.1-3.1,9.1l-3.2,8.8-2.6-.7,7.6-20.4,3.5,1,.5,11.2c.1,2.8.1,5.3,0,7.6h0c1.2-1.9,2.6-4,4.3-6.4l6.7-9,3.5,1-4.9,21.2-2.6-.7,2.2-9.3h.1Z"/>
    <path class="st9" d="M820.5,80.7c1.3.1,3.1.6,5,1.3,2.6.9,4.2,2,5.1,3.5.8,1.2,1,2.6.5,4.2-.6,2-2.6,3.2-5,3.3h0c1.8,1.3,3.6,3.7,2.5,6.7-.6,1.8-1.8,2.9-3.1,3.6-1.9.8-4.4.6-7.7-.5-1.9-.6-3.2-1.3-4.1-1.7l6.9-20.3h-.1ZM817.1,99.9c.5.3,1.3.5,2.2.8,2.7.9,5.6.7,6.7-2.2.9-2.8-1-4.8-4-5.8l-2.2-.7-2.6,7.8h-.1ZM820.4,90.1l2.4.8c2.8.9,4.9,0,5.6-2,.8-2.4-.7-4-3.3-4.9-1.3-.4-2-.5-2.4-.6l-2.2,6.6h-.1Z"/>
    <path class="st9" d="M839.9,87.2l-7.4,20.5-2.6-.9,7.4-20.5,2.6.9Z"/>
    <path class="st9" d="M850.8,103.7l-7.8-3-2.8,7.3,8.8,3.5-.8,2.2-11.4-4.4,7.8-20.3,11,4.3-.8,2.2-8.4-3.2-2.5,6.4,7.8,3-.8,2.2h0Z"/>
    <path class="st9" d="M851,114.7l8.5-20,2.8,1.2,2.1,12.9c.5,2.9.7,5.5.8,8.1h0c.9-2.8,1.9-5.2,3.2-8.4l3.6-8.4,2.4,1-8.5,20-2.6-1.2-2.1-12.9c-.4-2.8-.8-5.6-.9-8.3h0c-.9,2.6-1.9,5-3.3,8.4l-3.7,8.6-2.4-1h.1Z"/>
    <path class="st9" d="M882,107.2l-6-2.8,1-2.2,14.6,6.8-1,2.2-6.1-2.8-8.2,17.6-2.6-1.2,8.2-17.6h0Z"/>
    <path class="st9" d="M890.5,125l-5.1,5.1-2.6-1.3,16.4-16.1,3,1.6-3.1,22.8-2.7-1.4,1-7.1-6.9-3.5v-.2ZM897.8,126.2l.9-6.6c.2-1.5.5-2.8.7-4.1h0c-.8.9-1.8,2-2.7,3l-4.7,4.7,5.9,2.9h-.1Z"/>
    <path class="st9" d="M914.2,120.4l-10.2,19.2-2.5-1.4,10.2-19.2s2.5,1.4,2.5,1.4Z"/>
    <path class="st9" d="M909.3,138.6c.7,1.3,2,2.7,3.7,3.7,2.5,1.4,4.7.9,5.8-1,.9-1.8.5-3.3-1.5-5.8-2.5-2.8-3.6-5.5-2-8.2,1.7-2.9,5.3-3.8,9-1.7,2,1,3.1,2.3,3.7,3.2l-1.8,1.7c-.4-.7-1.4-2-3.1-2.9-2.6-1.5-4.5-.4-5.1.8-.9,1.8-.3,3.3,1.8,5.8,2.5,3,3.2,5.5,1.8,8.3-1.7,2.9-5.2,4.3-9.7,1.8-1.9-1-3.6-2.7-4.2-3.9l1.8-1.7h0Z"/>
    <path class="st9" d="M941.6,160.5c-1.4-.3-3.8-.9-6.3-2.5-2.8-1.8-4.7-3.9-5.4-6.7-.6-2.5-.1-5.6,1.7-8.5,3.5-5.5,9.7-7.2,15.9-3.3,2.1,1.4,3.6,2.8,4.1,3.7l-1.8,1.6c-.7-1-1.8-2.2-3.6-3.3-4.5-2.8-9.2-1.8-12,2.8-2.9,4.7-1.8,9.2,2.5,11.9,1.6.9,2.8,1.4,3.5,1.5l3.5-5.5-3.8-2.3,1.2-1.9,6.1,3.8-5.5,8.9h.1Z"/>
    <path class="st9" d="M959.3,161.2l-7-4.7-4.3,6.6,7.8,5.2-1.3,2-10.2-6.8,12-18.1,9.8,6.5-1.3,2-7.4-4.9-3.8,5.8,7,4.7-1.3,2-.2-.2Z"/>
    <path class="st9" d="M969.5,154.4c1.4.6,3,1.7,4.7,2.7,2.4,1.8,3.8,3.3,4.1,5.1.3,1.5,0,3-.9,4.4-1.7,2.3-4.2,2.8-6.6,2.2h0c1,1.6.9,3.3,0,5.5-1.2,2.9-2,4.9-2.1,5.9l-2.4-1.7c0-.7.7-2.5,1.8-5.1,1.2-2.8.9-4.4-1.2-6l-2.2-1.6-5.4,7.7-2.3-1.6,12.3-17.6h.2ZM966.1,164.2l2.3,1.7c2.4,1.8,4.9,1.5,6.4-.5,1.6-2.3.6-4.5-1.8-6.2-1.2-.7-2-1.3-2.4-1.4l-4.6,6.5h.1Z"/>
    <path class="st9" d="M977.8,178.5l-6,4.1-2.3-1.8,19-13,2.7,2.1-7.2,21.9-2.4-1.8,2.3-6.9-6.2-4.6h0ZM984.9,181l2.1-6.3c.4-1.5.9-2.6,1.5-3.9h0c-1,.8-2.1,1.7-3.2,2.4l-5.5,3.8,5.2,4h0Z"/>
    <path class="st9" d="M1001.9,178.3l-13.5,17-2.2-1.8,13.5-17,2.2,1.8Z"/>
    <path class="st9" d="M993.9,195.2c.5,1.4,1.5,3,2.9,4.3,2.2,1.8,4.5,1.8,5.9,0,1.3-1.6,1.2-3.2-.4-6-2-3.2-2.5-6.1-.5-8.4,2.2-2.6,6-2.7,9.2,0,1.7,1.5,2.6,2.8,3,3.9l-2.1,1.3c-.3-.7-1-2.2-2.5-3.5-2.3-1.9-4.3-1.3-5.2,0-1.3,1.6-.9,3.1.6,6,1.9,3.5,2.2,6,.2,8.5-2.1,2.6-5.9,3.2-9.8,0-1.6-1.4-3-3.2-3.3-4.6l2.1-1.4h0Z"/>
  </g>
  <g>
    <path class="st0" d="M856,618.1c0-119.3-96.7-216-216-216s-216,96.7-216,216"/>
    <path class="st7" d="M460.5,544.6l-16.1-7.2,5-11.3,1.8.8-4.2,9.3,5.2,2.3,3.2-7.3,1.8.8-3.2,7.3,5.4,2.4,4.3-9.7,1.9.8-5.2,11.7h.1Z"/>
    <path class="st7" d="M454.9,515.2c.7-1.4,1.7-2.4,2.8-3s2.4-1,3.8-1l.3,2.2c-1.4,0-2.4.3-3.2.7-.8.5-1.5,1.3-2.1,2.3-.4.8-.7,1.6-.8,2.2,0,.6,0,1.3.3,1.7.2.4.6.8,1,1,.5.3,1.2.4,1.7.3.6-.1,1.3-.6,2.1-1.5l2.6-2.9c1.2-1.3,2.2-2.1,3.2-2.3.9-.2,2,0,2.9.5.8.5,1.5,1.2,1.9,2s.5,1.9.4,2.9-.5,2.2-1.2,3.5c-.6,1.2-1.4,2-2.1,2.7-.7.6-1.6,1.2-2.4,1.5s-1.7.5-2.5.5l-.4-2.4c.7,0,1.5,0,2.2-.3.7-.2,1.4-.6,2-1.2s1.2-1.3,1.7-2.1c.4-.8.7-1.6.8-2.2s0-1.3-.1-1.8c-.2-.5-.6-.9-1.2-1.3-.5-.3-1-.3-1.6-.2s-1.3.5-1.9,1.4l-2.8,3.1c-.7.8-1.5,1.5-2.2,1.8-.7.4-1.4.5-2.1.5s-1.3-.2-1.9-.5-1.5-1.2-1.9-2-.6-1.8-.5-2.9c0-1,.4-2.2,1-3.5v.2Z"/>
    <path class="st7" d="M468.9,493.7l1.7,1.2-3.5,5.1,13,8.8-1.2,1.8-13-8.8-3.5,5.1-1.7-1.2,8.1-11.9h0Z"/>
    <path class="st7" d="M473.4,487.9l13.9,10.8-1.4,1.7-13.9-10.8,1.4-1.7Z"/>
    <path class="st7" d="M491.1,491l6.7-7.5,1.5,1.4-8.1,9.2-13.2-11.6,1.5-1.6,11.7,10.4v-.2Z"/>
    <path class="st7" d="M494.9,463.9c1.3-1.2,2.5-1.9,3.9-2.2,1.4-.3,2.8-.2,4.2.3s2.7,1.5,4.1,2.8c1.3,1.4,2.1,2.7,2.6,4.2.4,1.5.4,2.8,0,4.2s-1.2,2.6-2.4,3.8-2.5,1.9-3.9,2.2c-1.4.3-2.8.2-4.2-.3s-2.7-1.5-4.1-2.8c-1.3-1.4-2.1-2.7-2.6-4.2-.4-1.5-.4-2.8,0-4.2s1.2-2.6,2.4-3.8h0ZM496.3,465.3c-.8.8-1.5,1.8-1.7,2.8-.3,1-.2,2.1.2,3.1.4,1.2,1,2.2,2.1,3.2s2.1,1.9,3.1,2.3,2.1.5,3.1.3,2-.7,2.8-1.6c.9-.8,1.5-1.8,1.8-2.8.2-1,.2-2.1-.2-3.1s-1-2.2-2.1-3.2-2.1-1.9-3.1-2.3c-1-.4-2.1-.5-3.1-.4-1,.2-2,.7-2.9,1.6h0Z"/>
    <path class="st7" d="M519.2,444.6c2.3-1.6,4.5-2.2,6.7-1.8,2.2.3,4.1,1.7,5.6,4.1,1.6,2.3,2.2,4.6,1.8,6.7s-1.8,4-4.1,5.5l-4.7,3.2-10-14.5,4.7-3.2h0ZM528.2,457.3c1.7-1.2,2.6-2.5,2.8-4.2s-.2-3.3-1.5-5.1c-1.3-1.8-2.6-2.8-4.3-3.1-1.6-.3-3.2,0-4.9,1.2l-3.1,2.1,7.7,11.2,3.1-2.1h.1Z"/>
    <path class="st7" d="M540.8,451.5l-8.6-15.4,10.8-6.1.9,1.8-8.9,5,2.8,4.9,6.9-3.9.9,1.8-6.9,3.9,2.9,5.1,9.3-5.2.9,1.8-11.2,6.3h0Z"/>
    <path class="st7" d="M571.1,418.1v18.8c.1,0-2.1.8-2.1.8l-12.7-14,2.1-.8,8.6,9.7,2.3,2.8-.2-3.7-.2-13,2.1-.8h.1Z"/>
    <path class="st7" d="M578.1,415.9l5.2,16.8-2.1.6-5.2-16.8,2.1-.6Z"/>
    <path class="st7" d="M590.7,412.5c2.7-.6,5-.4,6.9.7s3.1,3,3.8,5.9c.6,2.7.4,5-.8,6.9-1.2,1.9-3.1,3-5.9,3.7l-5.5,1.3-4-17.2,5.5-1.3h0ZM594.5,427.7c2-.4,3.3-1.4,4.2-2.8.8-1.5,1-3.1.5-5.2s-1.5-3.6-2.8-4.5-3-1.2-5-.7l-3.7.8,3.1,13.3,3.7-.8Z"/>
    <path class="st7" d="M622.1,425l-2.3.3-2.5-4.6-7.9,1-1.3,5.1-2.2.3,4.5-18.4,2.5-.3,9.1,16.5h.1ZM610,419.6l6.4-.8-4.4-8.2-2,9h0Z"/>
    <path class="st7" d="M641.5,406.7c2.7,0,4.9.8,6.5,2.4s2.3,3.8,2.3,6.6-.8,5-2.5,6.5c-1.6,1.5-3.8,2.2-6.6,2.2h-5.6l.3-17.7h5.6ZM641.4,422.4c2,0,3.6-.5,4.7-1.8,1.2-1.2,1.8-2.8,1.8-5s-.5-3.8-1.6-5c-1.2-1.3-2.7-1.9-4.7-1.9h-3.8l-.2,13.6h3.8Z"/>
    <path class="st7" d="M663.9,407.8c1.7.2,3,.7,4.2,1.6s2,2,2.5,3.5.6,3,.4,4.9-.7,3.5-1.6,4.7-1.9,2.2-3.1,2.8-2.8.8-4.4.6c-1.7-.2-3-.7-4.2-1.6s-2-2-2.5-3.5-.6-3-.4-4.9c.2-1.9.7-3.5,1.6-4.7s1.9-2.2,3.1-2.8,2.8-.8,4.4-.6ZM663.7,409.8c-1.3-.1-2.3,0-3.2.5s-1.7,1.2-2.3,2.2-.9,2.2-1.2,3.7,0,2.7.3,3.9.9,2,1.8,2.6,1.9,1,3,1.2c1.3.1,2.3,0,3.2-.5s1.7-1.2,2.3-2.2.9-2.2,1.2-3.7,0-2.7-.3-3.9-.9-2-1.8-2.6-1.8-1-3-1.2Z"/>
    <path class="st7" d="M684.1,411.1c1.5.3,2.7.9,3.8,1.8.9.8,1.7,2,2.2,3.3l-2,.9c-.4-1.3-.9-2.2-1.7-2.8-.7-.6-1.7-1-2.8-1.4-.9-.2-1.7-.2-2.4,0s-1.2.4-1.6.7c-.4.4-.6.8-.7,1.4-.1.6,0,1.2.2,1.8.3.5.9,1,2.1,1.6l3.6,1.7c1.6.7,2.6,1.5,3.1,2.4.5.8.6,1.9.4,2.9-.2.9-.6,1.8-1.4,2.4-.7.6-1.6,1-2.7,1.3-1,.2-2.3.2-3.7-.1-1.3-.3-2.3-.6-3.2-1.3s-1.6-1.2-2.2-1.9c-.5-.7-.9-1.5-1.3-2.3l2.2-1.2c.2.7.5,1.4.9,2s.9,1.2,1.7,1.6c.7.4,1.5.7,2.5.9.8.2,1.7.2,2.4.2s1.3-.3,1.7-.6c.4-.3.7-.8.8-1.5.1-.5,0-1-.2-1.6s-.8-1-1.9-1.5l-3.9-1.8c-1-.4-1.8-.9-2.4-1.6-.5-.5-.9-1.2-1-1.8s-.2-1.3,0-2c.2-.9.6-1.7,1.4-2.4.6-.6,1.6-1.2,2.6-1.4,1-.3,2.3-.2,3.6,0h-.1Z"/>
    <path class="st7" d="M708.8,418.2l-5.6,16.7-2-.7,5.6-16.7,2,.7Z"/>
    <path class="st7" d="M728.6,425.9l-6.9,16.2-2.4-1-2.2-13.7-.4-3.8h0l-.9,2.5-4.8,11.5-1.9-.8,6.9-16.2,2.4,1,2.2,13.7.4,3.9h0l.9-2.5,4.8-11.5,1.9.8h0Z"/>
    <path class="st7" d="M740.5,432.1c2.4,1.4,4,3,4.6,5.1.6,2.1.3,4.4-1,6.9s-3.1,4-5.2,4.6-4.4.2-6.8-1.2l-5-2.7,8.5-15.5,5,2.7ZM733.2,445.9c1.8.9,3.5,1.2,5,.7s2.8-1.7,3.9-3.6,1.4-3.7.9-5.2c-.4-1.6-1.5-2.9-3.2-3.9l-3.3-1.8-6.6,11.9,3.3,1.8h0Z"/>
    <path class="st7" d="M755.4,440.9l-9.5,14.9-1.8-1.2,9.5-14.9,1.8,1.2Z"/>
    <path class="st7" d="M772.4,453.1l-15.9,10.1-2-1.5,5.1-18.1,1.9,1.4-3.7,12.4-1.2,3.5,2.9-2.1,10.9-7.1,1.9,1.4Z"/>
    <path class="st7" d="M777.9,457.9l-11.4,13.4-1.7-1.4,11.4-13.4,1.7,1.4ZM782,452.9l1.7,1.5-4.5,1.8-1.3-1.2,4.1-2.1Z"/>
    <path class="st7" d="M787.6,466.8c2,2,2.9,4,3,6.2,0,2.2-.9,4.3-2.9,6.3s-4.1,3-6.3,3-4.3-1-6.3-2.9l-4.1-4,12.3-12.5,4.1,4h.1ZM776.8,478c1.5,1.4,2.9,2.1,4.6,2,1.7,0,3.2-.8,4.7-2.4s2.3-3.1,2.3-4.7-.6-3.1-2.1-4.6l-2.7-2.6-9.5,9.7,2.7,2.6h0Z"/>
    <path class="st7" d="M807,488.2l-8.5,7.1c-1.8,1.5-3.5,2.1-5.1,1.9-1.7-.2-3.1-1.2-4.6-2.8s-2.1-3.3-2-5c.1-1.7,1-3.2,2.8-4.7l8.5-7.1,1.4,1.7-8.1,6.7c-1.4,1.2-2.2,2.3-2.4,3.5-.2,1.2.2,2.4,1.4,3.7,1,1.3,2.2,1.9,3.3,2,1.2,0,2.4-.5,3.9-1.7l8.1-6.7,1.4,1.7h0Z"/>
    <path class="st7" d="M815.6,500c.9,1.4,1.5,2.8,1.5,4.2s-.3,2.8-1,4.1c-.7,1.4-1.9,2.5-3.5,3.6s-3,1.7-4.6,1.9c-1.5.2-2.9,0-4.2-.6s-2.4-1.6-3.3-2.9-1.5-2.8-1.5-4.2.3-2.8,1-4.1c.7-1.4,1.9-2.5,3.5-3.6s3-1.7,4.6-1.9c1.5-.2,2.9,0,4.2.6s2.4,1.6,3.3,2.9ZM814,501c-.6-1-1.5-1.7-2.5-2.1-.9-.4-2-.5-3.1-.3s-2.3.7-3.6,1.6-2.1,1.8-2.7,2.7-.9,2-.8,3c0,1,.4,2.1,1,3,.7,1,1.5,1.8,2.5,2.2.9.4,2,.5,3.1.3s2.3-.7,3.6-1.6,2.1-1.8,2.7-2.7.9-2,.8-3c0-1-.4-2.1-1-3.1Z"/>
    <path class="st7" d="M826.3,517.4c.7,1.4,1,2.7,1,4s-.4,2.5-1.2,3.8l-2.1-.9c.7-1.2,1-2.2,1-3.1s-.2-2-.8-2.9c-.4-.8-.9-1.5-1.5-1.9s-1-.6-1.6-.7c-.5,0-1,0-1.5.3-.5.3-.9.7-1.2,1.3-.2.5-.2,1.5.1,2.6l1,3.8c.5,1.7.5,2.9.2,3.9s-1,1.7-2,2.2c-.8.5-1.8.6-2.7.5-.9-.1-1.9-.5-2.7-1.3s-1.6-1.7-2.3-2.8c-.6-1.2-1-2.2-1.2-3.2-.2-1-.1-2,0-2.8.2-.9.5-1.7.9-2.4l2.2.9c-.4.6-.7,1.3-.9,2-.2.7-.2,1.5-.1,2.3.1.8.4,1.7.8,2.5.4.8.9,1.5,1.5,1.9s1,.7,1.6.8,1.2,0,1.7-.3.8-.6,1-1.3c.2-.5.2-1.4,0-2.3l-1.2-4.1c-.3-1-.4-2-.3-2.8s.3-1.5.6-2c.4-.5.8-.9,1.5-1.4.8-.4,1.7-.6,2.6-.5.9,0,1.9.4,2.7,1,.9.6,1.7,1.6,2.3,2.7l.2.3Z"/>
  </g>
  <circle class="st5" cx="640" cy="618.3" r="172.2"/>
  <g>
    <path class="st9" d="M564.4,564.7v19.9h-2.6v-19.9h2.6Z"/>
    <path class="st9" d="M568.6,565c1.6-.2,3.5-.4,5.4-.4,3.7,0,6.3.8,8.1,2.5,1.8,1.7,2.8,4,2.8,7.1s-1,5.9-2.8,7.7c-1.9,1.9-4.9,2.8-8.8,2.8s-3.3,0-4.7-.2v-19.6ZM571.2,582.6c.6.1,1.6.1,2.6.1,5.5,0,8.5-3,8.5-8.5s-2.6-7.6-8.1-7.6-2.3.1-3,.3v15.7h0Z"/>
    <path class="st9" d="M591.2,578.3l-2.1,6.3h-2.6l6.8-19.9h3.1l6.8,19.9h-2.7l-2.1-6.3h-7.2ZM597.8,576.3l-2-5.8c-.4-1.3-.7-2.5-1-3.7h0c-.3,1.2-.6,2.4-1,3.6l-2,5.8h6.1Z"/>
    <path class="st9" d="M605.8,565c1.6-.2,3.5-.4,5.4-.4,3.7,0,6.3.8,8.1,2.5,1.8,1.7,2.8,4,2.8,7.1s-1,5.9-2.8,7.7c-1.9,1.9-4.9,2.8-8.8,2.8s-3.3,0-4.7-.2v-19.6ZM608.3,582.6c.6.1,1.6.1,2.6.1,5.5,0,8.5-3,8.5-8.5s-2.6-7.6-8.1-7.6-2.3.1-3,.3v15.7h0Z"/>
    <path class="st9" d="M635.5,575.3h-7.7v7.2h8.6v2.2h-11.2v-19.9h10.8v2.2h-8.2v6.3h7.7v2.1h0Z"/>
    <path class="st9" d="M637.6,588.2c.6-1.8,1.5-4.9,1.8-7l2.9-.3c-.6,2.5-2,5.8-2.8,7.2l-1.9.2h0Z"/>
    <path class="st9" d="M650.9,581.4c1.2.7,2.8,1.3,4.6,1.3,2.6,0,4.2-1.4,4.2-3.3s-1-2.9-3.8-4c-3.2-1.2-5.2-2.8-5.2-5.6s2.6-5.4,6.5-5.4,3.6.5,4.4.9l-.7,2.1c-.6-.3-2-.9-3.8-.9-2.7,0-3.8,1.7-3.8,3s1.3,2.8,4,3.9c3.3,1.3,5.1,2.9,5.1,5.9s-2.3,5.8-7,5.8-4-.5-5.1-1.3l.6-2.2h0Z"/>
    <path class="st9" d="M675.9,575.3h-7.7v7.2h8.6v2.2h-11.2v-19.9h10.8v2.2h-8.2v6.3h7.7v2.1h0Z"/>
    <path class="st9" d="M690.7,584.6l-2.5-4.4c-1-1.7-1.7-2.8-2.3-4h0c-.5,1.2-1.2,2.2-2.2,4l-2.4,4.4h-2.9l6.1-10-5.9-9.8h3l2.6,4.7c.7,1.3,1.3,2.3,1.9,3.3h0c.5-1.2,1-2.1,1.8-3.3l2.7-4.7h2.9l-6.1,9.7,6.2,10.2h-3,.1Z"/>
    <path class="st9" d="M713.4,574.4c0,6.8-4.2,10.5-9.2,10.5s-9-4.1-9-10.1,4-10.5,9.2-10.5,9,4.2,9,10h0ZM697.9,574.7c0,4.3,2.3,8.1,6.4,8.1s6.4-3.8,6.4-8.3-2.1-8.1-6.4-8.1-6.4,4-6.4,8.3Z"/>
    <path class="st9" d="M584.1,610.7h-7.7v7.2h8.6v2.2h-11.2v-19.9h10.8v2.2h-8.2v6.3h7.7v2.1h0Z"/>
    <path class="st9" d="M594,600.1h10.7v2.2h-8.2v6.6h7.5v2.1h-7.5v9h-2.6v-19.9h.1Z"/>
    <path class="st9" d="M611.3,613.7l-2.1,6.3h-2.6l6.8-19.9h3.1l6.8,19.9h-2.7l-2.1-6.3h-7.2ZM617.8,611.8l-2-5.8c-.4-1.3-.7-2.5-1-3.7h0c-.3,1.2-.6,2.4-1,3.6l-2,5.8h6.1Z"/>
    <path class="st9" d="M629.6,602.3h-6.1v-2.2h14.7v2.2h-6.1v17.7h-2.6v-17.7Z"/>
    <path class="st9" d="M657.3,609.9c0,6.8-4.2,10.5-9.2,10.5s-9-4.1-9-10.1,4-10.5,9.2-10.5,9,4.2,9,10h0ZM641.9,610.2c0,4.3,2.3,8.1,6.4,8.1s6.4-3.8,6.4-8.3-2.1-8.1-6.4-8.1-6.4,4-6.4,8.3Z"/>
    <path class="st9" d="M660.4,600.4c1.3-.3,3.1-.4,4.9-.4,2.7,0,4.5.5,5.8,1.7,1,.8,1.6,2.2,1.6,3.8,0,2.6-1.7,4.4-3.8,5.1h0c1.6.6,2.4,2,2.9,4.1.6,2.8,1.2,4.7,1.6,5.4h-2.6c-.3-.5-.7-2.3-1.4-4.7-.6-2.7-1.7-3.8-4-3.9h-2.4v8.6h-2.6v-19.7h0ZM662.9,609.5h2.6c2.7,0,4.5-1.5,4.5-3.8s-1.9-3.7-4.6-3.8c-1.3,0-2.1.1-2.5.2v7.2h0Z"/>
    <path class="st9" d="M686.2,610.7h-7.7v7.2h8.6v2.2h-11.2v-19.9h10.8v2.2h-8.2v6.3h7.7v2.1h0Z"/>
    <path class="st9" d="M689.9,616.9c1.2.7,2.8,1.3,4.6,1.3,2.6,0,4.2-1.4,4.2-3.3s-1-2.9-3.8-4c-3.2-1.2-5.2-2.8-5.2-5.6s2.6-5.4,6.5-5.4,3.6.5,4.4.9l-.7,2.1c-.6-.3-2-.9-3.8-.9-2.7,0-3.8,1.7-3.8,3s1.3,2.8,4,3.9c3.3,1.3,5.1,2.9,5.1,5.9s-2.3,5.8-7,5.8-4-.5-5.1-1.3l.6-2.2h0Z"/>
    <path class="st9" d="M555.5,635.5v8.4h9.6v-8.4h2.6v19.9h-2.6v-9.3h-9.6v9.3h-2.6v-19.9h2.6Z"/>
    <path class="st9" d="M582.3,646.1h-7.7v7.2h8.6v2.2h-11.2v-19.9h10.8v2.2h-8.2v6.3h7.7v2.1h0Z"/>
    <path class="st9" d="M586.2,635.8c1.3-.3,3.1-.4,4.9-.4,2.7,0,4.5.5,5.8,1.7,1,.8,1.6,2.2,1.6,3.8,0,2.6-1.7,4.4-3.8,5.1h0c1.6.6,2.4,2,2.9,4.1.6,2.8,1.2,4.7,1.6,5.4h-2.6c-.3-.5-.7-2.3-1.4-4.7-.6-2.7-1.7-3.8-4-3.9h-2.4v8.6h-2.6v-19.7h0ZM588.8,644.9h2.6c2.7,0,4.5-1.5,4.5-3.8s-1.9-3.7-4.6-3.8c-1.3,0-2.1.1-2.5.2v7.2h0Z"/>
    <path class="st9" d="M612.2,646.1h-7.7v7.2h8.6v2.2h-11.2v-19.9h10.8v2.2h-8.2v6.3h7.7v2.1h0Z"/>
    <path class="st9" d="M616.1,635.8c1.6-.2,3.5-.4,5.4-.4,3.7,0,6.3.8,8.1,2.5,1.8,1.7,2.8,4,2.8,7.1s-1,5.9-2.8,7.7c-1.9,1.9-4.9,2.8-8.8,2.8s-3.3,0-4.7-.2v-19.6ZM618.7,653.4c.6.1,1.6.1,2.6.1,5.5,0,8.5-3,8.5-8.5s-2.6-7.6-8.1-7.6-2.3.1-3,.3v15.7h0Z"/>
    <path class="st9" d="M638,635.5v19.9h-2.6v-19.9h2.6Z"/>
    <path class="st9" d="M646.1,637.7h-6.1v-2.2h14.7v2.2h-6.1v17.7h-2.6v-17.7Z"/>
    <path class="st9" d="M659.9,649.2l-2.1,6.3h-2.6l6.8-19.9h3.1l6.8,19.9h-2.7l-2.1-6.3h-7.2ZM666.5,647.2l-2-5.8c-.4-1.3-.7-2.5-1-3.7h0c-.3,1.2-.6,2.4-1,3.6l-2,5.8h6.1ZM667.8,631l-3.8,3.5h-2.1l2.7-3.5h3.1Z"/>
    <path class="st9" d="M674.5,635.8c1.3-.3,3.1-.4,4.9-.4,2.7,0,4.5.5,5.8,1.7,1,.8,1.6,2.2,1.6,3.8,0,2.6-1.7,4.4-3.8,5.1h0c1.6.6,2.4,2,2.9,4.1.6,2.8,1.2,4.7,1.6,5.4h-2.6c-.3-.5-.7-2.3-1.4-4.7-.6-2.7-1.7-3.8-4-3.9h-2.4v8.6h-2.6v-19.7h0ZM677,644.9h2.6c2.7,0,4.5-1.5,4.5-3.8s-1.9-3.7-4.6-3.8c-1.3,0-2.1.1-2.5.2v7.2h0Z"/>
    <path class="st9" d="M692.7,635.5v19.9h-2.6v-19.9h2.6Z"/>
    <path class="st9" d="M713.8,645.3c0,6.8-4.2,10.5-9.2,10.5s-9-4.1-9-10.1,4-10.5,9.2-10.5,9,4.2,9,10h0ZM698.5,645.6c0,4.3,2.3,8.1,6.4,8.1s6.4-3.8,6.4-8.3-2.1-8.1-6.4-8.1-6.4,4-6.4,8.3Z"/>
    <path class="st9" d="M716.6,652.3c1.2.7,2.8,1.3,4.6,1.3,2.6,0,4.2-1.4,4.2-3.3s-1-2.9-3.8-4c-3.2-1.2-5.2-2.8-5.2-5.6s2.6-5.4,6.5-5.4,3.6.5,4.4.9l-.7,2.1c-.6-.3-2-.9-3.8-.9-2.7,0-3.8,1.7-3.8,3s1.3,2.8,4,3.9c3.3,1.3,5.1,2.9,5.1,5.9s-2.3,5.8-7,5.8-4-.5-5.1-1.3l.6-2.2h0Z"/>
  </g>
</svg>