<?xml version="1.0" encoding="UTF-8"?>
<svg id="Layer_1" xmlns="http://www.w3.org/2000/svg" version="1.1" viewBox="0 0 1280 720">
  <!-- Generator: Adobe Illustrator 29.0.0, SVG Export Plug-In . SVG Version: 2.1.0 Build 186)  -->
  <defs>
    <style>
      .st0, .st1 {
        fill: none;
      }

      .st2 {
        opacity: .2;
      }

      .st2, .st3 {
        isolation: isolate;
      }

      .st2, .st3, .st4 {
        fill: #f2a690;
      }

      .st3 {
        opacity: .5;
      }

      .st1 {
        stroke: #fff;
        stroke-miterlimit: 10;
        stroke-width: 16px;
      }

      .st5 {
        fill: #009eca;
      }

      .st6 {
        fill: #ceafce;
      }

      .st7 {
        fill: #045162;
      }

      .st8 {
        fill: #fb0;
      }

      .st9 {
        fill: #fff;
      }
    </style>
  </defs>
  <path class="st5" d="M652.8,25.4c-345.9,0-571,255.6-571,571s3.7,127.3,13.6,124.3h1114.8c8.9-40,13.6-81.6,13.6-124.3,0-315.3-255.6-571-571-571"/>
  <path class="st9" d="M1141.6,720.6c10.1-39.8,15.4-81.4,15.4-124.3,0-278.5-225.8-504.3-504.3-504.3s-504.3,225.8-504.3,504.3,15.4,124.3,15.4,124.3h977.8Z"/>
  <path class="st2" d="M1153.9,539.4c-28.3-251.7-241.8-447.3-501.1-447.3s-490.3,226.2-504.3,504.3c-9.3,185.9,15.4,124.3,15.4,124.3h203.3c-16.6-38.1-25.8-80.1-25.8-124.3,0-171.9,139.4-311.3,311.3-311.3s304.9,133.1,311.1,299.6l190-45.2h0Z"/>
  <path class="st5" d="M964.1,591v-1.2,1.2Z"/>
  <path class="st6" d="M1079.8,328c.6,1,1.2,1.9,1.8,2.9-.6-1-1.2-1.9-1.8-2.9Z"/>
  <path class="st6" d="M1076.6,322.9c.6,1,1.2,1.9,1.9,2.9-.6-1-1.2-1.9-1.9-2.9Z"/>
  <path class="st6" d="M1086.1,338.2c.6.9,1.1,1.9,1.7,2.8-.6-.9-1.1-1.9-1.7-2.8Z"/>
  <path class="st6" d="M1083,333.1c.6.9,1.2,1.9,1.7,2.8-.6-.9-1.1-1.9-1.7-2.8Z"/>
  <path class="st6" d="M1073.3,317.9c.6,1,1.3,1.9,1.9,2.9-.6-1-1.3-1.9-1.9-2.9Z"/>
  <path class="st6" d="M1056.1,293.5c.8,1,1.6,2.1,2.3,3.1-.8-1.1-1.6-2.1-2.3-3.1Z"/>
  <path class="st6" d="M1059.7,298.3c.8,1,1.5,2.1,2.2,3.1-.7-1-1.5-2.1-2.2-3.1Z"/>
  <path class="st6" d="M1063.2,303.2c.7,1,1.4,2,2.1,3-.7-1-1.4-2-2.1-3Z"/>
  <path class="st6" d="M1066.6,308c.7,1,1.4,2,2.1,3-.7-1-1.4-2-2.1-3Z"/>
  <path class="st6" d="M1070,313c.7,1,1.3,2,2,2.9-.7-1-1.3-2-2-2.9Z"/>
  <path class="st6" d="M1089.1,343.4c.5.9,1.1,1.9,1.6,2.8-.5-.9-1.1-1.9-1.6-2.8Z"/>
  <path class="st6" d="M1037.4,270.2c-10-11.8-20.6-23.2-31.7-34,11.1,10.8,21.6,22.2,31.7,34Z"/>
  <path class="st6" d="M1092.1,348.6c.5.9,1,1.8,1.6,2.8-.5-.9-1-1.8-1.6-2.8Z"/>
  <path class="st6" d="M1095.1,353.8c.5.9,1,1.8,1.5,2.7-.5-.9-1-1.8-1.5-2.7Z"/>
  <path class="st6" d="M1100.7,364.5c.5.9.9,1.8,1.4,2.7-.5-.9-.9-1.8-1.4-2.7Z"/>
  <path class="st6" d="M1097.9,359.1c.5.9,1,1.8,1.4,2.7-.5-.9-1-1.8-1.4-2.7Z"/>
  <path class="st6" d="M910,420.9c0-.2-.3-.4-.4-.6,0,.2.3.4.4.6Z"/>
  <path class="st6" d="M901.6,409.1c-.2-.2-.3-.4-.5-.6.2.2.3.4.5.6Z"/>
  <path class="st6" d="M905.9,415c-.2-.2-.3-.4-.5-.6.2.2.3.4.5.6Z"/>
  <path class="st6" d="M897.2,403.4c-.2-.2-.3-.4-.5-.6.2.2.3.4.5.6Z"/>
  <path class="st6" d="M917.9,433c0-.2-.2-.3-.3-.5,0,.2.2.3.3.5Z"/>
  <path class="st6" d="M921.6,439.1c0-.1,0-.2-.2-.4,0,.1,0,.2.2.4Z"/>
  <path class="st6" d="M914,426.9c0-.2-.2-.4-.4-.6,0,.2.2.4.4.6Z"/>
  <path class="st6" d="M925.1,445.3s0-.1,0-.2c0,0,0,.1,0,.2Z"/>
  <path class="st6" d="M892.6,397.7c0-.2-.3-.4-.4-.5,0,.2.3.4.4.5Z"/>
  <path class="st6" d="M887.9,392.2c0-.1-.3-.3-.4-.4,0,.1.3.3.4.4Z"/>
  <path class="st6" d="M1045.1,279.5c.9,1.1,1.8,2.3,2.8,3.5-.9-1.2-1.8-2.3-2.8-3.5Z"/>
  <path class="st6" d="M1037.5,270.3c1.1,1.3,2.2,2.6,3.3,3.9-1.1-1.3-2.2-2.6-3.3-3.9Z"/>
  <path class="st6" d="M1048.8,284.1c.9,1.1,1.7,2.2,2.6,3.3-.9-1.1-1.7-2.2-2.6-3.3Z"/>
  <path class="st6" d="M1041.4,274.9c1,1.2,2,2.4,3,3.7-1-1.2-2-2.4-3-3.7Z"/>
  <path class="st6" d="M883,386.7l-.3-.3.3.3Z"/>
  <path class="st6" d="M1052.5,288.8c.8,1.1,1.6,2.1,2.5,3.2-.8-1.1-1.6-2.2-2.5-3.2Z"/>
  <path class="st6" d="M878.1,381.4h0q0-.1,0,0Z"/>
  <path class="st2" d="M538.3,306.7h0l-106.1-164c12.4-6.1,25.2-11.6,38.2-16.7-188.3,73.1-321.7,256.1-321.7,470.2s62.2,62.9,15.4,124.3h203.3c-16.6-38.1-25.8-80.1-25.8-124.3,0-131.5,81.5-243.9,196.8-289.6h0Z"/>
  <path class="st6" d="M652.8,285h-3.9,3.9Z"/>
  <path class="st6" d="M541.7,305.4c-.2,0-.4.2-.6.2.2,0,.4-.2.6-.2Z"/>
  <path class="st6" d="M548.6,302.9c-.3.1-.7.3-1,.4.3-.1.7-.3,1-.4Z"/>
  <path class="st6" d="M552.1,301.7c-.4.1-.8.3-1.1.4.4-.1.8-.3,1.1-.4Z"/>
  <path class="st6" d="M545.1,304.1c-.3.1-.6.2-.9.3.3-.1.6-.2.9-.3Z"/>
  <path class="st6" d="M555.6,300.5c-.4.1-.8.3-1.2.4.4-.1.8-.3,1.2-.4Z"/>
  <path class="st6" d="M705.2,289.4c-.2,0-.4,0-.7-.1.2,0,.4,0,.7.1Z"/>
  <path class="st6" d="M670.3,285.5h-1.3,1.3Z"/>
  <path class="st6" d="M709,290.1c-.2,0-.4,0-.6-.1.2,0,.4,0,.6.1Z"/>
  <path class="st6" d="M724.1,293.2h-.3.3Z"/>
  <path class="st6" d="M720.3,292.3h-.4.4Z"/>
  <path class="st6" d="M716.6,291.5c-.2,0-.3,0-.5-.1.2,0,.3,0,.5.1Z"/>
  <path class="st6" d="M712.8,290.8c-.2,0-.4,0-.5-.1.2,0,.4,0,.5.1Z"/>
  <path class="st6" d="M697.5,288.2c-.3,0-.6,0-.8-.1.3,0,.6,0,.8.1Z"/>
  <path class="st6" d="M693.7,287.7c-.3,0-.6,0-.9-.1.3,0,.6,0,.9.1Z"/>
  <path class="st6" d="M682.1,286.4c-.4,0-.8,0-1.2-.1.4,0,.8,0,1.2.1Z"/>
  <path class="st6" d="M674.2,285.7h-1.3,1.3Z"/>
  <path class="st6" d="M678.2,286c-.4,0-.8,0-1.2-.1.4,0,.8,0,1.2.1Z"/>
  <path class="st6" d="M686,286.7c-.4,0-.7,0-1.1-.1.4,0,.7,0,1.1.1Z"/>
  <path class="st6" d="M689.8,287.2c-.3,0-.7,0-1-.1.3,0,.7,0,1,.1Z"/>
  <path class="st6" d="M701.4,288.8c-.2,0-.5,0-.7-.1.2,0,.5,0,.7.1Z"/>
  <path class="st6" d="M760.9,304.3h0Z"/>
  <path class="st6" d="M757.3,303h0Z"/>
  <path class="st6" d="M764.5,305.6h0Z"/>
  <path class="st6" d="M768.1,307h0Z"/>
  <path class="st6" d="M753.7,301.7h0Z"/>
  <path class="st6" d="M771.7,308.5h0Z"/>
  <path class="st6" d="M739,297.1h-.2.2Z"/>
  <path class="st6" d="M735.3,296h-.2.2Z"/>
  <path class="st6" d="M727.9,294.1h-.3.3Z"/>
  <path class="st6" d="M731.6,295h-.2.2Z"/>
  <path class="st6" d="M750,300.5h0Z"/>
  <path class="st6" d="M746.4,299.3h0Z"/>
  <path class="st6" d="M742.7,298.2h0,0Z"/>
  <path class="st6" d="M593.7,290.6h-.5.5Z"/>
  <path class="st6" d="M559.1,299.3c-.4.1-.8.3-1.3.4.4-.1.8-.3,1.3-.4Z"/>
  <path class="st6" d="M597.4,289.9c-.5,0-1,.2-1.4.3.5,0,1-.2,1.4-.3Z"/>
  <path class="st6" d="M586.7,292h-.2.2Z"/>
  <path class="st6" d="M608.7,288.1c-.6,0-1.2.2-1.8.3.6,0,1.2-.2,1.8-.3Z"/>
  <path class="st6" d="M583.9,292.6c-.4,0-.7.2-1.1.2.4,0,.7-.2,1.1-.2Z"/>
  <path class="st6" d="M601.1,289.3c-.5,0-1.1.2-1.6.3.5,0,1.1-.2,1.6-.3Z"/>
  <path class="st6" d="M604.9,288.7c-.6,0-1.2.2-1.8.3.6,0,1.2-.2,1.8-.3Z"/>
  <path class="st6" d="M569.8,296.2c-.4.1-.9.2-1.3.4.4-.1.9-.2,1.3-.4Z"/>
  <path class="st6" d="M580.5,293.4c-.4,0-.8.2-1.2.3.4-.1.8-.2,1.2-.3Z"/>
  <path class="st6" d="M562.7,298.3c-.4.1-.9.3-1.3.4.4-.1.9-.3,1.3-.4Z"/>
  <path class="st6" d="M566.2,297.2c-.4.1-.9.3-1.3.4.4-.1.9-.3,1.3-.4Z"/>
  <path class="st6" d="M576.9,294.3c-.4.1-.9.2-1.3.3.4-.1.9-.2,1.3-.3Z"/>
  <path class="st6" d="M573.3,295.2c-.4.1-.9.2-1.3.3.4-.1.9-.2,1.3-.3Z"/>
  <path class="st6" d="M658,285h-1.1,1.1Z"/>
  <path class="st6" d="M647.6,285h-2.6,2.6Z"/>
  <path class="st6" d="M639.5,285.3h-2.2,2.2Z"/>
  <path class="st6" d="M643.4,285.1h-2.3,2.3Z"/>
  <path class="st3" d="M879.8,383.5l137.7-135.6c-39.1-41.9-96.6-84.9-147-106.5l-95.4,168.6h0"/>
  <path class="st6" d="M662.2,285.1h-1.3,1.3Z"/>
  <path class="st6" d="M666.3,285.3h-1.4,1.4Z"/>
  <path class="st6" d="M620.1,286.7c-.6,0-1.3.1-1.9.2.6,0,1.3-.1,1.9-.2Z"/>
  <path class="st6" d="M612.4,287.6c-.6,0-1.2.2-1.9.2.6,0,1.2-.2,1.9-.2Z"/>
  <path class="st6" d="M616.2,287.1c-.6,0-1.3.2-1.9.2.6,0,1.3-.2,1.9-.2Z"/>
  <path class="st6" d="M623.9,286.3c-.7,0-1.3.1-2,.2.7,0,1.3-.1,2-.2Z"/>
  <path class="st6" d="M631.6,285.7c-.7,0-1.4,0-2.1.1.7,0,1.4,0,2.1-.1Z"/>
  <path class="st6" d="M635.5,285.5c-.7,0-1.4,0-2.1.1.7,0,1.4,0,2.1-.1Z"/>
  <path class="st6" d="M627.7,286c-.7,0-1.3.1-2,.2.7,0,1.3-.1,2-.2Z"/>
  <path class="st2" d="M151.9,537.8c-2.2,19.2-3.4,38.7-3.4,58.5,0,42.9-8.3,83.9,1.7,123.7l217,.6c-16.6-38.1-25.8-80.1-25.8-124.3s0-8.9.3-13.3l-189.9-45.2h0Z"/>
  <path class="st3" d="M431.8,142.9c-71.8,35.1-134,86.7-181.7,149.9l146.8,126.2c34.9-50.3,84.3-89.8,142.1-112.5l-107.2-163.5h0Z"/>
  <path class="st4" d="M538.3,306.7c35.5-14,74.1-21.8,114.6-21.8s84.8,8.9,122.3,25l95.4-168.6c-65.9-31.6-139.7-49.3-217.7-49.3s-154,18.2-220.7,50.7l106.1,164h0Z"/>
  <path class="st2" d="M1112.5,388.7l-174.5,82.5c16.8,38.3,26.1,80.6,26.1,125.1s-9.2,86.2-25.8,124.3h203.3c10.1-39.8,15.4-81.4,15.4-124.3,0-74-15.9-144.3-44.6-207.6h0Z"/>
  <path class="st8" d="M652.1,902.2c-171.5,0-310.7-139.1-310.7-310.7s139.1-310.7,310.7-310.7,310.7,139.1,310.7,310.7-139.1,310.7-310.7,310.7"/>
  <path class="st9" d="M845.5,720.6c24.5-36.7,38.8-80.8,38.8-128.3,0-127.8-103.6-231.5-231.5-231.5s-227.9,99.2-239.4,226.6c-8.2,91,33.8,134.2,52.7,142.9l379.3-9.7h.1Z"/>
  <path class="st9" d="M648.5,833.3c-133.2,0-241.2-108-241.2-241.2s108-241.2,241.2-241.2,241.2,108,241.2,241.2-108,241.2-241.2,241.2"/>
  <g>
    <path class="st7" d="M200.4,598.8c1.2,0,2.2.2,3,.6.9.4,1.5,1,2,1.8s.7,1.7.7,2.8-.2,2-.7,2.8-1.2,1.4-2,1.8-1.9.6-3,.6h-4v6.7h-2.1v-17.1h6.1ZM200.1,607.3c1.3,0,2.3-.3,3-.8.6-.6.9-1.4.9-2.4s-.3-1.9-.9-2.4c-.6-.6-1.6-.8-3-.8h-3.7v6.5h3.7Z"/>
    <path class="st7" d="M209.5,615.9v-12.9h1.7l.3,2.1c.4-.8.9-1.4,1.6-1.8s1.5-.6,2.6-.6.5,0,.7,0c.3,0,.5,0,.7.2l-.4,1.9c-.2,0-.4,0-.6-.2h-1c-.5,0-1.1.2-1.6.5s-1,.8-1.4,1.4c-.4.6-.5,1.4-.5,2.4v7h-2.1Z"/>
    <path class="st7" d="M225.1,602.7c1.2,0,2.3.3,3.2.8s1.7,1.3,2.2,2.3.8,2.2.8,3.6-.3,2.6-.8,3.6-1.3,1.8-2.2,2.3-2,.8-3.2.8-2.3-.3-3.2-.8-1.7-1.3-2.2-2.3-.8-2.2-.8-3.6.3-2.6.8-3.6,1.3-1.8,2.2-2.3,2-.8,3.2-.8ZM225.1,604.5c-.9,0-1.6.2-2.3.6-.6.4-1.1,1-1.4,1.7-.3.7-.5,1.6-.5,2.7s.2,1.9.5,2.6c.3.7.8,1.3,1.4,1.7s1.4.6,2.3.6,1.6-.2,2.3-.6c.6-.4,1.1-1,1.4-1.7.3-.7.5-1.6.5-2.6s-.2-1.9-.5-2.7c-.3-.7-.8-1.3-1.4-1.7-.6-.4-1.4-.6-2.3-.6Z"/>
    <path class="st7" d="M240.1,616.1c-1.1,0-2.1-.3-3-.8s-1.6-1.3-2.1-2.3-.8-2.2-.8-3.6.3-2.7.9-3.7c.6-1,1.3-1.8,2.3-2.3s1.9-.8,3-.8,2,.3,2.8.8c.8.6,1.3,1.3,1.6,2.2l-.3.2v-8.9h2.1v18.9h-1.8l-.2-3.1.3-.2c-.1.8-.4,1.4-.9,1.9s-1,.9-1.7,1.2-1.4.4-2.1.4h-.1ZM240.3,614.3c.8,0,1.5-.2,2.2-.6.6-.4,1.1-1,1.4-1.8.3-.8.5-1.7.5-2.7s-.2-1.8-.5-2.5-.8-1.3-1.4-1.6c-.6-.4-1.3-.6-2.1-.6-1.3,0-2.3.4-3.1,1.3s-1.1,2.1-1.1,3.6.4,2.7,1.1,3.6c.7.9,1.7,1.3,3,1.3h0Z"/>
    <path class="st7" d="M255.7,616.1c-.8,0-1.6-.2-2.3-.5s-1.3-.8-1.8-1.5-.7-1.6-.7-2.7v-8.5h2.1v7.9c0,1.3.3,2.2.9,2.7.6.5,1.4.7,2.4.7s1,0,1.4-.2c.5-.2.9-.4,1.3-.8s.7-.8.9-1.4.3-1.2.3-2v-7h2.1v12.9h-1.8v-2c-.6.8-1.2,1.3-2,1.7s-1.7.5-2.7.5v.2Z"/>
    <path class="st7" d="M272.1,602.7c.9,0,1.7,0,2.4.4.7.3,1.3.7,1.8,1.2s.9,1.1,1.2,1.8l-2,.9c-.3-.8-.7-1.5-1.3-1.9-.6-.4-1.3-.7-2.2-.7s-1.6.2-2.2.6c-.6.4-1.1,1-1.4,1.7s-.5,1.6-.5,2.7.2,1.9.5,2.6c.3.7.8,1.3,1.4,1.7s1.4.6,2.2.6,1.3,0,1.7-.3c.5-.2.9-.5,1.2-.9.3-.4.5-.9.7-1.5l1.9.7c-.3.8-.7,1.5-1.2,2-.5.6-1.1,1-1.8,1.3s-1.5.5-2.4.5-2.3-.3-3.2-.8c-.9-.5-1.7-1.3-2.2-2.3s-.8-2.2-.8-3.6.3-2.6.8-3.6,1.3-1.8,2.2-2.3c.9-.5,2-.8,3.2-.8h0ZM270.7,615.8l1.1-.6c1,.3,1.7.8,2.2,1.3.4.6.6,1.2.6,2s-.3,1.5-.9,2.1-1.3.9-2.3.9-1,0-1.4-.2c-.4,0-.8-.3-1-.5l.5-1.5c.2.2.5.3.8.4.3,0,.6.2,1,.2s.9-.2,1.2-.5c.3-.3.5-.8.5-1.3s-.2-.8-.5-1.2c-.3-.3-.9-.7-1.7-1h-.1Z"/>
    <path class="st7" d="M288.5,607.5c0-1-.3-1.7-.8-2.2s-1.3-.8-2.2-.8-1.7.2-2.3.6c-.6.4-1.1,1-1.4,1.9l-1.7-1c.3-1,1-1.7,1.9-2.3s2.1-.9,3.5-.9,1.8.2,2.5.5c.8.3,1.4.8,1.8,1.5.4.6.7,1.5.7,2.5v6.3c0,.6.3.9,1,.9s.6,0,1,0v1.6c-.4.2-.9.3-1.5.3s-.9,0-1.3-.3c-.4-.2-.7-.5-.9-.9-.2-.4-.3-.9-.3-1.5v-.3h.5c-.2.8-.6,1.3-1.1,1.7s-1.1.7-1.7.9-1.2.3-1.8.3-1.5,0-2.1-.4c-.7-.3-1.2-.7-1.6-1.2s-.6-1.2-.6-2,.3-1.8,1-2.4c.6-.6,1.5-1.1,2.7-1.3l5.1-1v1.7l-4.2.9c-.8.2-1.5.4-1.9.7s-.6.7-.6,1.3.2,1,.6,1.3,1,.5,1.8.5,1,0,1.4-.2c.5,0,.9-.3,1.2-.6.4-.3.6-.6.9-1,.2-.4.3-.9.3-1.4v-3.6h.1ZM290.4,597.3c0,.8-.2,1.4-.4,1.9-.2.5-.6.9-1,1.2s-.9.4-1.5.4-.9,0-1.2-.3c-.3-.2-.6-.4-.9-.6s-.5-.4-.7-.6-.5-.3-.8-.3-.7.2-.9.5c-.2.3-.3.8-.4,1.3h-1.6c0-1.1.4-2,.8-2.6.5-.6,1.2-.9,2.1-.9s.9,0,1.2.3c.3.2.6.4.9.6s.5.4.7.6c.2.2.5.3.7.3.4,0,.7-.2.9-.5s.3-.8.4-1.3h1.7Z"/>
    <path class="st7" d="M300.7,602.7c1.2,0,2.3.3,3.2.8s1.7,1.3,2.2,2.3.8,2.2.8,3.6-.3,2.6-.8,3.6-1.3,1.8-2.2,2.3c-.9.5-2,.8-3.2.8s-2.3-.3-3.2-.8c-.9-.5-1.7-1.3-2.2-2.3s-.8-2.2-.8-3.6.3-2.6.8-3.6,1.3-1.8,2.2-2.3c.9-.5,2-.8,3.2-.8ZM300.7,604.5c-.9,0-1.6.2-2.3.6-.6.4-1.1,1-1.4,1.7s-.5,1.6-.5,2.7.2,1.9.5,2.6c.3.7.8,1.3,1.4,1.7s1.4.6,2.3.6,1.6-.2,2.3-.6c.6-.4,1.1-1,1.4-1.7s.5-1.6.5-2.6-.2-1.9-.5-2.7c-.3-.7-.8-1.3-1.4-1.7s-1.4-.6-2.3-.6Z"/>
    <path class="st7" d="M185.6,647h-2.2l-1.8-4.7h-7.7l-1.8,4.7h-2.2l6.7-17.1h2.5l6.6,17.1h-.1ZM174.6,640.3h6.2l-3.1-8.4-3.1,8.4h0Z"/>
    <path class="st7" d="M195.4,645.3c1.2,0,2.2.3,2.9.8s1,1.3,1,2.2-.3,1.6-.8,2.2c-.6.6-1.3,1.1-2.3,1.4-.9.3-2,.5-3.2.5-2,0-3.6-.3-4.6-1s-1.5-1.5-1.5-2.5.2-1.3.7-1.9c.5-.5,1.2-.9,2.3-.9l-.2.4c-.6-.2-1.1-.4-1.5-.8-.4-.4-.6-.9-.6-1.6s.3-1.3.8-1.8,1.3-.8,2.3-.9l1.4.7h-.3c-.8,0-1.4.3-1.8.6-.4.3-.5.7-.5,1.1s.2.8.5,1.1c.4.2.9.3,1.5.3h3.9ZM192.9,633.7c1,0,2,.2,2.8.6s1.4.9,1.9,1.5c.4.7.7,1.4.7,2.3s-.2,1.6-.7,2.3c-.4.7-1.1,1.2-1.9,1.6s-1.7.6-2.8.6c-1.7,0-3-.4-3.9-1.2s-1.4-1.9-1.4-3.1.2-1.6.7-2.3,1.1-1.2,1.9-1.5,1.7-.6,2.7-.6v-.2ZM193,650.8c1,0,1.8,0,2.5-.3.6-.2,1.1-.5,1.4-.8.3-.3.5-.7.5-1.1s-.2-.8-.6-1.1c-.4-.3-1-.4-2-.4h-4c-.6,0-1,0-1.4.4-.4.3-.6.7-.6,1.2s.4,1.1,1.1,1.5c.7.4,1.7.6,3,.6h.1ZM192.9,635.4c-.9,0-1.6.2-2.3.7-.6.5-.9,1.1-.9,2s.3,1.4.9,1.9c.6.5,1.4.8,2.3.8s1.6-.2,2.3-.8c.6-.5.9-1.1.9-1.9s-.3-1.5-.9-2c-.6-.5-1.4-.7-2.3-.7ZM199.4,631.6l.5,1.8h-.2c-.8,0-1.5.2-2,.5s-.7.9-.7,1.6l-1.3-.6c0-.7.2-1.3.5-1.8s.7-.9,1.3-1.2,1.1-.4,1.8-.4h.1,0Z"/>
    <path class="st7" d="M202,647v-12.9h1.7l.3,2.1c.4-.8.9-1.4,1.6-1.8s1.5-.6,2.6-.6.5,0,.7,0c.3,0,.5,0,.7.2l-.4,1.9c-.2,0-.4,0-.6-.2h-1c-.5,0-1.1.2-1.6.5s-1,.8-1.4,1.4c-.4.6-.5,1.4-.5,2.4v7h-2.1Z"/>
    <path class="st7" d="M214,627.5h2.3l-2.5,4.3h-1.7l2-4.3h-.1ZM214.4,634v12.9h-2.1v-12.9h2.1Z"/>
    <path class="st7" d="M224.3,633.7c.9,0,1.7,0,2.4.4.7.3,1.3.7,1.8,1.2s.9,1.1,1.2,1.8l-2,.9c-.3-.8-.7-1.5-1.3-1.9s-1.3-.7-2.2-.7-1.6.2-2.2.6c-.6.4-1.1,1-1.4,1.7-.3.7-.5,1.6-.5,2.7s.2,1.9.5,2.6c.3.7.8,1.3,1.4,1.7.6.4,1.4.6,2.2.6s1.3,0,1.7-.3c.5-.2.9-.5,1.2-.9s.5-.9.7-1.5l1.9.7c-.3.8-.7,1.5-1.2,2-.5.6-1.1,1-1.8,1.3s-1.5.5-2.4.5-2.3-.3-3.2-.8-1.7-1.3-2.2-2.3-.8-2.2-.8-3.6.3-2.6.8-3.6,1.3-1.8,2.2-2.3,2-.8,3.2-.8h0Z"/>
    <path class="st7" d="M238.5,633.7c1.2,0,2.3.3,3.2.8s1.7,1.3,2.2,2.3.8,2.2.8,3.6-.3,2.6-.8,3.6-1.3,1.8-2.2,2.3-2,.8-3.2.8-2.3-.3-3.2-.8-1.7-1.3-2.2-2.3-.8-2.2-.8-3.6.3-2.6.8-3.6,1.3-1.8,2.2-2.3,2-.8,3.2-.8ZM238.5,635.5c-.9,0-1.6.2-2.3.6-.6.4-1.1,1-1.4,1.7-.3.7-.5,1.6-.5,2.7s.2,1.9.5,2.6c.3.7.8,1.3,1.4,1.7s1.4.6,2.3.6,1.6-.2,2.3-.6c.6-.4,1.1-1,1.4-1.7.3-.7.5-1.6.5-2.6s-.2-1.9-.5-2.7c-.3-.7-.8-1.3-1.4-1.7-.6-.4-1.4-.6-2.3-.6Z"/>
    <path class="st7" d="M250.4,628.1v15.6c0,.7.1,1.1.4,1.4s.6.4,1.2.4h.9c.2,0,.5,0,.9-.3l-.3,1.8c-.3,0-.6.2-.9.3h-1c-1.1,0-1.8-.3-2.3-.9-.5-.6-.8-1.4-.8-2.6v-15.7h2.1-.2Z"/>
    <path class="st7" d="M263.7,638.6c0-1-.3-1.7-.8-2.2s-1.3-.8-2.2-.8-1.7.2-2.3.6c-.6.4-1.1,1-1.4,1.9l-1.7-1c.3-1,1-1.7,1.9-2.3s2.1-.9,3.5-.9,1.8.2,2.5.5c.8.3,1.4.8,1.8,1.5.4.6.7,1.5.7,2.5v6.3c0,.6.3.9,1,.9s.6,0,1,0v1.6c-.4.2-.9.3-1.5.3s-.9,0-1.3-.3c-.4-.2-.7-.5-.9-.9-.2-.4-.3-.9-.3-1.5v-.3h.5c-.2.8-.6,1.3-1.1,1.7s-1.1.7-1.7.9-1.2.3-1.8.3-1.5,0-2.1-.4c-.7-.3-1.2-.7-1.6-1.2s-.6-1.2-.6-2,.3-1.8,1-2.4c.6-.6,1.5-1.1,2.7-1.3l5.1-1v1.7l-4.2.9c-.8.2-1.5.4-1.9.7s-.6.7-.6,1.3.2,1,.6,1.3,1,.5,1.8.5,1,0,1.4-.2c.5,0,.9-.3,1.2-.6.4-.3.6-.6.9-1,.2-.4.3-.9.3-1.4v-3.6h0Z"/>
    <path class="st7" d="M284.5,647.2c-1.2,0-2.3-.3-3.3-.8s-1.7-1.3-2.2-2.3-.8-2.2-.8-3.6.3-2.6.8-3.6,1.3-1.8,2.2-2.3,2-.8,3.2-.8,2.2.3,3.1.8,1.5,1.2,2,2.1c.4.9.7,1.9.7,3s0,.6,0,.8v.6h-10.5v-1.8h9.6l-1.1.2c0-1.2-.3-2.2-1-2.9s-1.6-1-2.7-1-1.6.2-2.2.6c-.6.4-1.1,1-1.4,1.7s-.5,1.6-.5,2.7.2,1.9.5,2.6.8,1.3,1.5,1.7c.6.4,1.4.6,2.3.6s1.7-.2,2.3-.5c.6-.4,1.1-.9,1.4-1.5l1.6,1c-.3.6-.7,1.1-1.3,1.5-.5.4-1.1.8-1.8,1-.7.2-1.4.3-2.3.3h-.1Z"/>
    <path class="st7" d="M307.4,647.2c-1.1,0-2.1-.3-3-.8s-1.6-1.3-2.1-2.3-.8-2.2-.8-3.6.3-2.7.9-3.7,1.3-1.8,2.3-2.3,1.9-.8,3-.8,2,.3,2.8.8c.8.6,1.3,1.3,1.6,2.2l-.3.2v-8.9h2.1v18.9h-1.8l-.2-3.1.3-.2c-.1.8-.4,1.4-.9,1.9s-1,.9-1.7,1.2-1.4.4-2.1.4h0ZM307.6,645.4c.8,0,1.5-.2,2.2-.6.6-.4,1.1-1,1.4-1.8s.5-1.7.5-2.7-.2-1.8-.5-2.5-.8-1.3-1.4-1.6c-.6-.4-1.3-.6-2.1-.6-1.3,0-2.3.4-3.1,1.3s-1.1,2.1-1.1,3.6.4,2.7,1.1,3.6c.7.9,1.7,1.3,3,1.3Z"/>
    <path class="st7" d="M323.7,647.2c-1.2,0-2.3-.3-3.3-.8s-1.7-1.3-2.2-2.3-.8-2.2-.8-3.6.3-2.6.8-3.6,1.3-1.8,2.2-2.3,2-.8,3.2-.8,2.2.3,3.1.8,1.5,1.2,2,2.1c.4.9.7,1.9.7,3s0,.6,0,.8v.6h-10.5v-1.8h9.6l-1.1.2c0-1.2-.3-2.2-1-2.9s-1.6-1-2.7-1-1.6.2-2.2.6c-.6.4-1.1,1-1.4,1.7s-.5,1.6-.5,2.7.2,1.9.5,2.6.8,1.3,1.5,1.7c.6.4,1.4.6,2.3.6s1.7-.2,2.3-.5c.6-.4,1.1-.9,1.4-1.5l1.6,1c-.3.6-.7,1.1-1.3,1.5-.5.4-1.1.8-1.8,1-.7.2-1.4.3-2.3.3h-.1Z"/>
    <path class="st7" d="M208,678h-2.2l-1.8-4.7h-7.7l-1.8,4.7h-2.2l6.7-17.1h2.5l6.6,17.1h-.1ZM197,671.3h6.2l-3.1-8.4-3.1,8.4h0Z"/>
    <path class="st7" d="M212.8,659.1v15.6c0,.7.1,1.1.4,1.4s.6.4,1.2.4h.9c.2,0,.5,0,.9-.3l-.3,1.8c-.3,0-.6.2-.9.3h-1c-1.1,0-1.8-.3-2.3-.9-.5-.6-.8-1.4-.8-2.6v-15.7h2.1-.2Z"/>
    <path class="st7" d="M219.5,662.6c-.5,0-.8,0-1.1-.4-.3-.3-.4-.7-.4-1.1s.1-.8.4-1.1c.3-.3.7-.4,1.1-.4s.8,0,1.1.4c.3.3.4.7.4,1.1s-.1.8-.4,1.1c-.3.3-.7.4-1.1.4ZM220.5,665.1v12.9h-2.1v-12.9h2.1Z"/>
    <path class="st7" d="M225.1,678v-12.9h1.8v2c.6-.8,1.2-1.4,2-1.7s1.5-.5,2.3-.5,1.8.2,2.6.6c.8.4,1.4,1.1,1.9,1.9.3-.6.7-1.1,1.2-1.4.5-.4,1-.6,1.6-.8s1.2-.3,1.7-.3c.8,0,1.6.2,2.4.5.8.3,1.4.9,1.9,1.6.5.7.7,1.7.7,2.8v8.3h-2.1v-8.1c0-1.2-.3-2-.9-2.5-.6-.5-1.3-.8-2.2-.8s-1.3.2-1.9.5-1.1.8-1.4,1.4c-.4.6-.5,1.4-.5,2.4v7.1h-2.1v-8.1c0-1.2-.3-2-.9-2.5-.6-.5-1.3-.8-2.2-.8s-1.2.2-1.7.5c-.6.3-1.1.8-1.5,1.4-.4.7-.6,1.5-.6,2.6v6.9h-2.1Z"/>
    <path class="st7" d="M254.9,678.3c-1.2,0-2.3-.3-3.3-.8s-1.7-1.3-2.2-2.3-.8-2.2-.8-3.6.3-2.6.8-3.6,1.3-1.8,2.2-2.3,2-.8,3.2-.8,2.2.3,3.1.8,1.5,1.2,2,2.1c.4.9.7,1.9.7,3s0,.6,0,.8v.6h-10.5v-1.8h9.6l-1.1.2c0-1.2-.3-2.2-1-2.9s-1.6-1-2.7-1-1.6.2-2.2.6c-.6.4-1.1,1-1.4,1.7-.3.7-.5,1.6-.5,2.7s.2,1.9.5,2.6.8,1.3,1.5,1.7c.6.4,1.4.6,2.3.6s1.7-.2,2.3-.5c.6-.4,1.1-.9,1.4-1.5l1.6,1c-.3.6-.7,1.1-1.3,1.5-.5.4-1.1.8-1.8,1-.7.2-1.4.3-2.3.3h-.1Z"/>
    <path class="st7" d="M264.2,678v-12.9h1.8l.2,2.9-.3-.3c.3-.7.6-1.2,1.1-1.7.5-.4,1-.7,1.6-.9s1.2-.3,1.9-.3,1.8.2,2.5.5c.8.4,1.4.9,1.8,1.6.5.7.7,1.6.7,2.8v8.3h-2.1v-7.6c0-1.4-.3-2.4-.9-3s-1.4-.8-2.3-.8-1.2,0-1.9.4c-.6.3-1.1.8-1.5,1.4-.4.7-.6,1.5-.6,2.6v6.9h-2.1,0Z"/>
    <path class="st7" d="M287.7,665.1v1.8h-9.4v-1.8h9.4ZM283,661.4v13c0,.6.2,1.1.5,1.4.4.3.8.5,1.4.5s.9,0,1.3-.3c.4-.2.7-.4,1-.7l.7,1.7c-.4.4-.9.6-1.4.9-.5.2-1.2.3-1.9.3s-1.3,0-1.8-.3c-.6-.2-1-.6-1.4-1.1-.3-.5-.5-1.2-.5-2v-12.8l2.1-.6h0Z"/>
    <path class="st7" d="M295.9,664.8c1.2,0,2.3.3,3.2.8s1.7,1.3,2.2,2.3.8,2.2.8,3.6-.3,2.6-.8,3.6-1.3,1.8-2.2,2.3c-.9.5-2,.8-3.2.8s-2.3-.3-3.2-.8c-.9-.5-1.7-1.3-2.2-2.3s-.8-2.2-.8-3.6.3-2.6.8-3.6,1.3-1.8,2.2-2.3c.9-.5,2-.8,3.2-.8ZM295.9,666.6c-.9,0-1.6.2-2.3.6-.6.4-1.1,1-1.4,1.7s-.5,1.6-.5,2.7.2,1.9.5,2.6c.3.7.8,1.3,1.4,1.7s1.4.6,2.3.6,1.6-.2,2.3-.6c.6-.4,1.1-1,1.4-1.7s.5-1.6.5-2.6-.2-1.9-.5-2.7c-.3-.7-.8-1.3-1.4-1.7s-1.4-.6-2.3-.6Z"/>
    <path class="st7" d="M310.5,678.3c-1.3,0-2.4-.3-3.5-.8s-1.9-1.3-2.4-2.3l1.8-1.3c.4.8.9,1.4,1.7,1.9s1.6.7,2.7.7,1.6-.2,2.1-.5.8-.8.8-1.4-.1-.7-.3-1c-.2-.3-.7-.5-1.3-.7l-3.1-.6c-1.3-.3-2.2-.7-2.7-1.3s-.8-1.4-.8-2.3.2-1.4.6-1.9c.4-.6,1-1.1,1.7-1.4.8-.4,1.6-.5,2.7-.5s2.4.2,3.2.8,1.5,1.2,2,2.1l-1.7,1.1c-.3-.8-.8-1.3-1.4-1.7-.7-.4-1.3-.5-2-.5s-1.2,0-1.6.3c-.4.2-.8.4-1,.7s-.3.6-.3,1,.1.7.4,1,.7.5,1.4.7l3.2.7c1.2.2,2.1.6,2.5,1.2s.7,1.2.7,2-.2,1.5-.6,2.1-1,1.1-1.8,1.4c-.8.3-1.7.5-2.7.5h-.3Z"/>
  </g>
  <g>
    <path class="st7" d="M219.1,468.5v-17.1h12v1.9h-9.9v5.5h7.7v1.9h-7.7v5.7h10.3v1.9h-12.4v.2Z"/>
    <path class="st7" d="M240,468.7c-1.1,0-2.1-.3-3-.8s-1.6-1.3-2.1-2.3-.8-2.2-.8-3.6.3-2.7.9-3.7c.6-1,1.3-1.8,2.3-2.3s1.9-.8,3-.8,2,.3,2.8.8c.8.6,1.3,1.3,1.6,2.2l-.3.2v-8.9h2.1v18.9h-1.8l-.2-3.1.3-.2c-.1.8-.4,1.4-.9,1.9s-1,.9-1.7,1.2c-.7.3-1.4.4-2.1.4h-.1ZM240.2,466.9c.8,0,1.5-.2,2.2-.6.6-.4,1.1-1,1.4-1.8.3-.8.5-1.7.5-2.7s-.2-1.8-.5-2.5-.8-1.3-1.4-1.6c-.6-.4-1.3-.6-2.1-.6-1.3,0-2.3.4-3.1,1.3s-1.1,2.1-1.1,3.6.4,2.7,1.1,3.6c.7.9,1.7,1.3,3,1.3h0Z"/>
    <path class="st7" d="M255.6,468.7c-.8,0-1.6-.2-2.3-.5s-1.3-.8-1.8-1.5-.7-1.6-.7-2.7v-8.5h2.1v7.9c0,1.3.3,2.2.9,2.7.6.5,1.4.7,2.4.7s1,0,1.4-.2c.5-.2.9-.4,1.3-.8s.7-.8.9-1.4.3-1.2.3-2v-7h2.1v12.9h-1.8v-2c-.6.8-1.2,1.3-2,1.7s-1.7.5-2.7.5v.2Z"/>
    <path class="st7" d="M272,455.3c.9,0,1.7.1,2.4.4.7.3,1.3.7,1.8,1.2s.9,1.1,1.2,1.8l-2,.9c-.3-.8-.7-1.5-1.3-1.9-.6-.4-1.3-.7-2.2-.7s-1.6.2-2.2.6-1.1,1-1.4,1.7-.5,1.6-.5,2.7.2,1.9.5,2.6.8,1.3,1.4,1.7c.6.4,1.4.6,2.2.6s1.3-.1,1.7-.3c.5-.2.9-.5,1.2-.9.3-.4.5-.9.7-1.5l1.9.7c-.3.8-.7,1.5-1.2,2-.5.6-1.1,1-1.8,1.3s-1.5.5-2.4.5-2.3-.3-3.2-.8c-.9-.5-1.7-1.3-2.2-2.3s-.8-2.2-.8-3.6.3-2.6.8-3.6,1.3-1.8,2.2-2.3c.9-.5,2-.8,3.2-.8h0Z"/>
    <path class="st7" d="M288.5,460.1c0-1-.3-1.7-.8-2.2s-1.3-.8-2.2-.8-1.7.2-2.3.6c-.6.4-1.1,1-1.4,1.9l-1.7-1c.3-1,1-1.7,1.9-2.3s2.1-.9,3.5-.9,1.8.2,2.5.5c.8.3,1.4.8,1.8,1.5.4.6.7,1.5.7,2.5v6.3c0,.6.3.9,1,.9s.6,0,1-.1v1.6c-.4.2-.9.3-1.5.3s-.9,0-1.3-.3c-.4-.2-.7-.5-.9-.9-.2-.4-.3-.9-.3-1.5v-.3h.5c-.2.8-.6,1.3-1.1,1.7-.5.4-1.1.7-1.7.9-.6.2-1.2.3-1.8.3s-1.5-.1-2.1-.4c-.7-.3-1.2-.7-1.6-1.2s-.6-1.2-.6-2,.3-1.8,1-2.4c.6-.6,1.5-1.1,2.7-1.3l5.1-1v1.7l-4.2.9c-.8.2-1.5.4-1.9.7-.4.3-.6.7-.6,1.3s.2,1,.6,1.3,1,.5,1.8.5,1,0,1.4-.2c.5-.1.9-.3,1.2-.6.4-.3.6-.6.9-1,.2-.4.3-.9.3-1.4v-3.6h.1Z"/>
    <path class="st7" d="M300.7,455.3c.9,0,1.7.1,2.4.4.7.3,1.3.7,1.8,1.2s.9,1.1,1.2,1.8l-2,.9c-.3-.8-.7-1.5-1.3-1.9-.6-.4-1.3-.7-2.2-.7s-1.6.2-2.2.6-1.1,1-1.4,1.7-.5,1.6-.5,2.7.2,1.9.5,2.6.8,1.3,1.4,1.7c.6.4,1.4.6,2.2.6s1.3-.1,1.7-.3c.5-.2.9-.5,1.2-.9.3-.4.5-.9.7-1.5l1.9.7c-.3.8-.7,1.5-1.2,2-.5.6-1.1,1-1.8,1.3s-1.5.5-2.4.5-2.3-.3-3.2-.8c-.9-.5-1.7-1.3-2.2-2.3s-.8-2.2-.8-3.6.3-2.6.8-3.6,1.3-1.8,2.2-2.3c.9-.5,2-.8,3.2-.8h0ZM299.2,468.4l1.1-.6c1,.3,1.7.8,2.2,1.3.4.6.6,1.2.6,2s-.3,1.5-.9,2.1-1.3.9-2.3.9-1,0-1.4-.2c-.4-.1-.8-.3-1-.5l.5-1.5c.2.2.5.3.8.4s.6.2,1,.2.9-.2,1.2-.5c.3-.3.5-.8.5-1.3s-.2-.8-.5-1.2c-.3-.3-.9-.7-1.7-1h-.1Z"/>
    <path class="st7" d="M317.1,460.1c0-1-.3-1.7-.8-2.2s-1.3-.8-2.2-.8-1.7.2-2.3.6c-.6.4-1.1,1-1.4,1.9l-1.7-1c.3-1,1-1.7,1.9-2.3s2.1-.9,3.5-.9,1.8.2,2.5.5c.8.3,1.4.8,1.8,1.5.4.6.7,1.5.7,2.5v6.3c0,.6.3.9,1,.9s.6,0,1-.1v1.6c-.4.2-.9.3-1.5.3s-.9,0-1.3-.3c-.4-.2-.7-.5-.9-.9-.2-.4-.3-.9-.3-1.5v-.3h.5c-.2.8-.6,1.3-1.1,1.7-.5.4-1.1.7-1.7.9-.6.2-1.2.3-1.8.3s-1.5-.1-2.1-.4c-.7-.3-1.2-.7-1.6-1.2s-.6-1.2-.6-2,.3-1.8,1-2.4c.6-.6,1.5-1.1,2.7-1.3l5.1-1v1.7l-4.2.9c-.8.2-1.5.4-1.9.7-.4.3-.6.7-.6,1.3s.2,1,.6,1.3,1,.5,1.8.5,1,0,1.4-.2c.5-.1.9-.3,1.2-.6.4-.3.6-.6.9-1,.2-.4.3-.9.3-1.4v-3.6h.1ZM318.9,449.9c0,.8-.2,1.4-.4,1.9-.2.5-.6.9-1,1.2-.4.3-.9.4-1.5.4s-.9,0-1.2-.3c-.3-.2-.6-.4-.9-.6s-.5-.4-.7-.6-.5-.3-.8-.3-.7.2-.9.5c-.2.3-.3.8-.4,1.3h-1.6c0-1.1.4-2,.8-2.6.5-.6,1.2-.9,2.1-.9s.9,0,1.2.3c.3.2.6.4.9.6s.5.4.7.6.5.3.7.3c.4,0,.7-.2.9-.5s.3-.8.4-1.3h1.7Z"/>
    <path class="st7" d="M329.3,455.3c1.2,0,2.3.3,3.2.8s1.7,1.3,2.2,2.3.8,2.2.8,3.6-.3,2.6-.8,3.6-1.3,1.8-2.2,2.3c-.9.5-2,.8-3.2.8s-2.3-.3-3.2-.8c-.9-.5-1.7-1.3-2.2-2.3s-.8-2.2-.8-3.6.3-2.6.8-3.6,1.3-1.8,2.2-2.3c.9-.5,2-.8,3.2-.8ZM329.3,457.1c-.9,0-1.6.2-2.3.6-.6.4-1.1,1-1.4,1.7s-.5,1.6-.5,2.7.2,1.9.5,2.6.8,1.3,1.4,1.7,1.4.6,2.3.6,1.6-.2,2.3-.6c.6-.4,1.1-1,1.4-1.7s.5-1.6.5-2.6-.2-1.9-.5-2.7c-.3-.7-.8-1.3-1.4-1.7-.6-.4-1.4-.6-2.3-.6Z"/>
  </g>
  <g>
    <path class="st7" d="M343.2,294.6h-2.2l-1.8-4.7h-7.7l-1.8,4.7h-2.2l6.7-17.1h2.5l6.6,17.1h-.1ZM332.2,287.9h6.2l-3.1-8.4-3.1,8.4Z"/>
    <path class="st7" d="M346.1,294.6v-12.9h1.8v2c.6-.8,1.2-1.4,2-1.7s1.5-.5,2.3-.5,1.8.2,2.6.6c.8.4,1.4,1.1,1.9,1.9.3-.6.7-1.1,1.2-1.4.5-.4,1-.6,1.6-.8.6-.2,1.2-.3,1.7-.3.8,0,1.6.2,2.4.5s1.4.9,1.9,1.6.7,1.7.7,2.8v8.3h-2.1v-8.1c0-1.2-.3-2-.9-2.5s-1.3-.8-2.2-.8-1.3.2-1.9.5-1.1.8-1.4,1.4c-.4.6-.5,1.4-.5,2.4v7.1h-2.1v-8.1c0-1.2-.3-2-.9-2.5s-1.3-.8-2.2-.8-1.2.2-1.7.5c-.6.3-1.1.8-1.5,1.4-.4.7-.6,1.5-.6,2.6v6.9h-2.1,0Z"/>
    <path class="st7" d="M376.8,294.9c-.7,0-1.4-.1-2-.4s-1.2-.6-1.6-1.1-.8-1-1-1.6l.3-.4-.2,3.2h-1.8v-18.9h2.1v8.9l-.3-.4c.3-.8.9-1.5,1.7-2,.8-.5,1.8-.8,2.8-.8s2.1.3,3,.8,1.6,1.3,2.1,2.3.8,2.2.8,3.6-.3,2.6-.8,3.6-1.3,1.8-2.2,2.3c-.9.5-1.9.8-3,.8h.1ZM376.6,293.1c1.3,0,2.3-.4,3-1.3s1.1-2.1,1.1-3.6-.4-2.7-1.1-3.6-1.7-1.3-3-1.3-1.5.2-2.1.6-1.1,1-1.4,1.7-.5,1.6-.5,2.6.2,1.8.5,2.6c.3.7.8,1.3,1.4,1.7.6.4,1.3.6,2.1.6h0Z"/>
    <path class="st7" d="M387.5,279.2c-.5,0-.8-.1-1.1-.4-.3-.3-.4-.7-.4-1.1s.1-.8.4-1.1c.3-.3.7-.4,1.1-.4s.8.1,1.1.4c.3.3.4.7.4,1.1s-.1.8-.4,1.1c-.3.3-.7.4-1.1.4ZM388.5,281.7v12.9h-2.1v-12.9h2.1Z"/>
    <path class="st7" d="M398.5,294.9c-1.2,0-2.3-.3-3.3-.8s-1.7-1.3-2.2-2.3-.8-2.2-.8-3.6.3-2.6.8-3.6,1.3-1.8,2.2-2.3,2-.8,3.2-.8,2.2.3,3.1.8,1.5,1.2,2,2.1c.4.9.7,1.9.7,3s0,.6,0,.8v.6h-10.5v-1.8h9.6l-1.1.2c0-1.2-.3-2.2-1-2.9s-1.6-1-2.7-1-1.6.2-2.2.6-1.1,1-1.4,1.7-.5,1.6-.5,2.7.2,1.9.5,2.6.8,1.3,1.5,1.7c.6.4,1.4.6,2.3.6s1.7-.2,2.3-.5c.6-.4,1.1-.9,1.4-1.5l1.6,1c-.3.6-.7,1.1-1.3,1.5-.5.4-1.1.8-1.8,1-.7.2-1.4.3-2.3.3h-.1Z"/>
    <path class="st7" d="M407.8,294.6v-12.9h1.8l.2,2.9-.3-.3c.3-.7.6-1.2,1.1-1.7s1-.7,1.6-.9c.6-.2,1.2-.3,1.9-.3s1.8.2,2.5.5c.8.4,1.4.9,1.8,1.6.5.7.7,1.6.7,2.8v8.3h-2.1v-7.6c0-1.4-.3-2.4-.9-3s-1.4-.8-2.3-.8-1.2.1-1.9.4c-.6.3-1.1.8-1.5,1.4-.4.7-.6,1.5-.6,2.6v6.9h-2.1,0Z"/>
    <path class="st7" d="M431.3,281.7v1.8h-9.4v-1.8h9.4ZM426.6,278v13c0,.6.2,1.1.5,1.4.4.3.8.5,1.4.5s.9,0,1.3-.3c.4-.2.7-.4,1-.7l.7,1.7c-.4.4-.9.6-1.4.9-.5.2-1.2.3-1.9.3s-1.3-.1-1.8-.3c-.6-.2-1-.6-1.4-1.1-.3-.5-.5-1.2-.5-2v-12.8l2.1-.6h0Z"/>
    <path class="st7" d="M439.5,294.9c-1.2,0-2.3-.3-3.3-.8s-1.7-1.3-2.2-2.3-.8-2.2-.8-3.6.3-2.6.8-3.6,1.3-1.8,2.2-2.3c.9-.5,2-.8,3.2-.8s2.2.3,3.1.8,1.5,1.2,2,2.1c.4.9.7,1.9.7,3s0,.6,0,.8v.6h-10.5v-1.8h9.6l-1.1.2c0-1.2-.3-2.2-1-2.9-.7-.7-1.6-1-2.7-1s-1.6.2-2.2.6-1.1,1-1.4,1.7-.5,1.6-.5,2.7.2,1.9.5,2.6.8,1.3,1.5,1.7c.6.4,1.4.6,2.3.6s1.7-.2,2.3-.5c.6-.4,1.1-.9,1.4-1.5l1.6,1c-.3.6-.7,1.1-1.3,1.5-.5.4-1.1.8-1.8,1-.7.2-1.4.3-2.3.3h-.1Z"/>
    <path class="st7" d="M453.5,294.9c-1.3,0-2.4-.3-3.5-.8s-1.9-1.3-2.4-2.3l1.8-1.3c.4.8.9,1.4,1.7,1.9.7.4,1.6.7,2.7.7s1.6-.2,2.1-.5.8-.8.8-1.4-.1-.7-.3-1c-.2-.3-.7-.5-1.3-.7l-3.1-.6c-1.3-.3-2.2-.7-2.7-1.3-.5-.6-.8-1.4-.8-2.3s.2-1.4.6-1.9c.4-.6,1-1.1,1.7-1.4.8-.4,1.6-.5,2.7-.5s2.4.2,3.2.8c.9.5,1.5,1.2,2,2.1l-1.7,1.1c-.3-.8-.8-1.3-1.4-1.7-.7-.4-1.3-.5-2-.5s-1.2,0-1.6.3c-.4.2-.8.4-1,.7-.2.3-.3.6-.3,1s.1.7.4,1,.7.5,1.5.7l3.2.7c1.2.2,2.1.6,2.5,1.2s.7,1.2.7,2-.2,1.5-.6,2.1-1,1.1-1.8,1.4-1.7.5-2.7.5h-.4Z"/>
    <path class="st7" d="M330.9,325.9c-1.1,0-2.1-.3-3-.8s-1.6-1.3-2.1-2.3-.8-2.2-.8-3.6.3-2.7.9-3.7,1.3-1.8,2.3-2.3,1.9-.8,3-.8,2,.3,2.8.8c.8.6,1.3,1.3,1.6,2.2l-.3.2v-8.9h2.1v18.9h-1.8l-.2-3.1.3-.2c-.1.8-.4,1.4-.9,1.9s-1,.9-1.7,1.2c-.7.3-1.4.4-2.1.4h0ZM331.1,324.1c.8,0,1.5-.2,2.2-.6.6-.4,1.1-1,1.4-1.8s.5-1.7.5-2.7-.2-1.8-.5-2.5-.8-1.3-1.4-1.6c-.6-.4-1.3-.6-2.1-.6-1.3,0-2.3.4-3.1,1.3s-1.1,2.1-1.1,3.6.4,2.7,1.1,3.6,1.7,1.3,3,1.3h0Z"/>
    <path class="st7" d="M347.2,325.9c-1.2,0-2.3-.3-3.3-.8s-1.7-1.3-2.2-2.3-.8-2.2-.8-3.6.3-2.6.8-3.6,1.3-1.8,2.2-2.3,2-.8,3.2-.8,2.2.3,3.1.8,1.5,1.2,2,2.1c.4.9.7,1.9.7,3s0,.6,0,.8v.6h-10.5v-1.8h9.6l-1.1.2c0-1.2-.3-2.2-1-2.9-.7-.7-1.6-1-2.7-1s-1.6.2-2.2.6-1.1,1-1.4,1.7-.5,1.6-.5,2.7.2,1.9.5,2.6.8,1.3,1.5,1.7c.6.4,1.4.6,2.3.6s1.7-.2,2.3-.5c.6-.4,1.1-.9,1.4-1.5l1.6,1c-.3.6-.7,1.1-1.3,1.5-.5.4-1.1.8-1.8,1-.7.2-1.4.3-2.3.3h-.1Z"/>
    <path class="st7" d="M377.4,308.6v1.9h-6v15.1h-2.1v-15.1h-6v-1.9h14.1Z"/>
    <path class="st7" d="M380.4,325.7v-12.9h1.7l.3,2.1c.4-.8.9-1.4,1.6-1.8s1.5-.6,2.6-.6.5,0,.7,0c.3,0,.5.1.7.2l-.4,1.9c-.2,0-.4-.1-.6-.2h-1c-.5,0-1.1.2-1.6.5s-1,.8-1.4,1.4-.5,1.4-.5,2.4v7h-2.1Z"/>
    <path class="st7" d="M398.3,317.3c0-1-.3-1.7-.8-2.2s-1.3-.8-2.2-.8-1.7.2-2.3.6c-.6.4-1.1,1-1.4,1.9l-1.7-1c.3-1,1-1.7,1.9-2.3s2.1-.9,3.5-.9,1.8.2,2.5.5c.8.3,1.4.8,1.8,1.5s.7,1.5.7,2.5v6.3c0,.6.3.9,1,.9s.6,0,1-.1v1.6c-.4.2-.9.3-1.4.3s-.9,0-1.3-.3c-.4-.2-.7-.5-.9-.9-.2-.4-.3-.9-.3-1.5v-.3h.5c-.2.8-.6,1.3-1.1,1.7-.5.4-1.1.7-1.7.9-.6.2-1.2.3-1.8.3s-1.5-.1-2.1-.4c-.7-.3-1.2-.7-1.6-1.2s-.6-1.2-.6-2,.3-1.8,1-2.4c.6-.6,1.5-1.1,2.7-1.3l5.1-1v1.7l-4.2.9c-.8.2-1.5.4-1.9.7-.4.3-.6.7-.6,1.3s.2,1,.6,1.3,1,.5,1.8.5,1,0,1.4-.2c.5-.1.9-.3,1.2-.6.4-.3.6-.6.9-1,.2-.4.3-.9.3-1.4v-3.6Z"/>
    <path class="st7" d="M411.5,325.9c-.7,0-1.4-.1-2-.4s-1.2-.6-1.6-1.1-.8-1-1-1.6l.3-.4-.2,3.2h-1.8v-18.9h2.1v8.9l-.3-.4c.3-.8.9-1.5,1.7-2,.8-.5,1.8-.8,2.8-.8s2.1.3,3,.8,1.6,1.3,2.1,2.3.8,2.2.8,3.6-.3,2.6-.8,3.6-1.3,1.8-2.2,2.3c-.9.5-1.9.8-3,.8h.1ZM411.3,324.1c1.3,0,2.3-.4,3-1.3s1.1-2.1,1.1-3.6-.4-2.7-1.1-3.6-1.7-1.3-3-1.3-1.5.2-2.1.6-1.1,1-1.4,1.7-.5,1.6-.5,2.6.2,1.8.5,2.6.8,1.3,1.4,1.7c.6.4,1.3.6,2.1.6h0Z"/>
    <path class="st7" d="M428.7,317.3c0-1-.3-1.7-.8-2.2s-1.3-.8-2.2-.8-1.7.2-2.3.6c-.6.4-1.1,1-1.4,1.9l-1.7-1c.3-1,1-1.7,1.9-2.3.9-.6,2.1-.9,3.5-.9s1.8.2,2.5.5c.8.3,1.4.8,1.8,1.5s.7,1.5.7,2.5v6.3c0,.6.3.9,1,.9s.6,0,1-.1v1.6c-.4.2-.9.3-1.4.3s-1,0-1.3-.3c-.4-.2-.7-.5-.9-.9-.2-.4-.3-.9-.3-1.5v-.3h.5c-.2.8-.6,1.3-1.1,1.7-.5.4-1.1.7-1.7.9-.6.2-1.2.3-1.8.3s-1.5-.1-2.1-.4c-.7-.3-1.2-.7-1.6-1.2s-.6-1.2-.6-2,.3-1.8,1-2.4c.6-.6,1.5-1.1,2.7-1.3l5.1-1v1.7l-4.2.9c-.8.2-1.5.4-1.9.7-.4.3-.6.7-.6,1.3s.2,1,.6,1.3,1,.5,1.8.5,1,0,1.4-.2c.5-.1.9-.3,1.2-.6.4-.3.6-.6.9-1,.2-.4.3-.9.3-1.4v-3.6Z"/>
    <path class="st7" d="M437.5,306.8v15.6c0,.7.1,1.1.4,1.4s.6.4,1.2.4h.9c.3,0,.5-.1.9-.3l-.3,1.8c-.3.1-.6.2-.9.3s-.7,0-1,0c-1.1,0-1.8-.3-2.3-.9s-.8-1.4-.8-2.6v-15.7h2.1-.2Z"/>
    <path class="st7" d="M443.2,325.7v-18.9h2.1v7.9c.4-.8,1-1.3,1.8-1.7.7-.3,1.6-.5,2.4-.5s1.8.2,2.5.5c.8.4,1.4.9,1.8,1.6.5.7.7,1.6.7,2.8v8.3h-2.1v-7.6c0-1.4-.3-2.4-.9-3s-1.4-.8-2.3-.8-1.2.1-1.9.4c-.6.3-1.1.8-1.5,1.4-.4.7-.6,1.5-.6,2.7v6.9h-2.1.1Z"/>
    <path class="st7" d="M464.3,312.5c1.2,0,2.3.3,3.2.8.9.5,1.7,1.3,2.2,2.3s.8,2.2.8,3.6-.3,2.6-.8,3.6-1.3,1.8-2.2,2.3c-.9.5-2,.8-3.2.8s-2.3-.3-3.2-.8c-.9-.5-1.7-1.3-2.2-2.3s-.8-2.2-.8-3.6.3-2.6.8-3.6,1.3-1.8,2.2-2.3,2-.8,3.2-.8ZM464.3,314.3c-.9,0-1.6.2-2.3.6-.6.4-1.1,1-1.4,1.7s-.5,1.6-.5,2.7.2,1.9.5,2.6.8,1.3,1.4,1.7c.6.4,1.4.6,2.3.6s1.6-.2,2.3-.6,1.1-1,1.4-1.7.5-1.6.5-2.6-.2-1.9-.5-2.7c-.3-.7-.8-1.3-1.4-1.7-.6-.4-1.4-.6-2.3-.6Z"/>
  </g>
  <g>
    <path class="st7" d="M816,279.2c2.7,0,4.8.7,6.3,2.2s2.3,3.6,2.3,6.3-.8,4.9-2.3,6.3-3.6,2.2-6.3,2.2h-5.5v-17.1h5.5ZM816.2,294.3c2,0,3.5-.6,4.6-1.7,1.1-1.2,1.6-2.8,1.6-4.9s-.5-3.7-1.6-4.9c-1.1-1.2-2.6-1.7-4.6-1.7h-3.7v13.2h3.7Z"/>
    <path class="st7" d="M833.9,296.5c-1.2,0-2.3-.3-3.3-.8s-1.7-1.3-2.2-2.3-.8-2.2-.8-3.6.3-2.6.8-3.6,1.3-1.8,2.2-2.3,2-.8,3.2-.8,2.2.3,3.1.8c.9.5,1.5,1.2,2,2.1.4.9.7,1.9.7,3s0,.6,0,.8v.6h-10.5v-1.8h9.6l-1.1.2c0-1.2-.3-2.2-1-2.9-.7-.7-1.6-1-2.7-1s-1.6.2-2.2.6c-.6.4-1.1,1-1.4,1.7s-.5,1.6-.5,2.7.2,1.9.5,2.6.8,1.3,1.5,1.7c.6.4,1.4.6,2.3.6s1.7-.2,2.3-.5c.6-.4,1.1-.9,1.4-1.5l1.6,1c-.3.6-.7,1.1-1.3,1.5-.5.4-1.1.8-1.8,1s-1.4.3-2.3.3h0Z"/>
    <path class="st7" d="M847.8,296.5c-1.3,0-2.4-.3-3.5-.8s-1.9-1.3-2.4-2.3l1.8-1.3c.4.8.9,1.4,1.7,1.9.7.4,1.6.7,2.7.7s1.6-.2,2.1-.5.8-.8.8-1.4,0-.7-.3-1-.7-.5-1.3-.7l-3.1-.6c-1.3-.3-2.2-.7-2.7-1.3-.5-.6-.8-1.4-.8-2.3s.2-1.4.6-1.9c.4-.6,1-1.1,1.7-1.4.8-.4,1.6-.5,2.7-.5s2.4.2,3.2.8c.9.5,1.5,1.2,2,2.1l-1.7,1.1c-.3-.8-.8-1.3-1.4-1.7-.7-.4-1.3-.5-2-.5s-1.2,0-1.6.3c-.4.2-.8.4-1,.7-.2.3-.3.6-.3,1s0,.7.4,1c.3.3.7.5,1.5.7l3.2.7c1.2.2,2.1.6,2.5,1.2s.7,1.2.7,2-.2,1.5-.6,2.1c-.4.6-1,1.1-1.8,1.4s-1.7.5-2.7.5h-.4Z"/>
    <path class="st7" d="M862,296.5c-1.2,0-2.3-.3-3.3-.8s-1.7-1.3-2.2-2.3-.8-2.2-.8-3.6.3-2.6.8-3.6,1.3-1.8,2.2-2.3,2-.8,3.2-.8,2.2.3,3.1.8c.9.5,1.5,1.2,2,2.1.4.9.7,1.9.7,3s0,.6,0,.8v.6h-10.5v-1.8h9.6l-1.1.2c0-1.2-.3-2.2-1-2.9-.7-.7-1.6-1-2.7-1s-1.6.2-2.2.6c-.6.4-1.1,1-1.4,1.7s-.5,1.6-.5,2.7.2,1.9.5,2.6.8,1.3,1.5,1.7c.6.4,1.4.6,2.3.6s1.7-.2,2.3-.5c.6-.4,1.1-.9,1.4-1.5l1.6,1c-.3.6-.7,1.1-1.3,1.5-.5.4-1.1.8-1.8,1s-1.4.3-2.3.3h0Z"/>
    <path class="st7" d="M871.2,296.2v-12.9h1.8v2c.6-.8,1.2-1.4,2-1.7.8-.4,1.5-.5,2.3-.5s1.8.2,2.6.6,1.4,1.1,1.9,1.9c.3-.6.7-1.1,1.2-1.4.5-.4,1-.6,1.6-.8.6-.2,1.2-.3,1.7-.3.8,0,1.6.2,2.4.5.8.3,1.4.9,1.9,1.6s.7,1.7.7,2.8v8.3h-2.1v-8.1c0-1.2-.3-2-.9-2.5-.6-.5-1.3-.8-2.2-.8s-1.3.2-1.9.5-1.1.8-1.4,1.4c-.4.6-.5,1.4-.5,2.4v7.1h-2.1v-8.1c0-1.2-.3-2-.9-2.5-.6-.5-1.3-.8-2.2-.8s-1.2.2-1.7.5-1.1.8-1.5,1.4c-.4.7-.6,1.5-.6,2.6v6.9h-2.1Z"/>
    <path class="st7" d="M895.6,301.7v-18.4h1.8l.2,3.2-.3-.4c.2-.6.6-1.1,1-1.6s1-.8,1.6-1.1,1.3-.4,2.1-.4,2,.3,2.9.8,1.6,1.3,2.1,2.3.8,2.2.8,3.6-.3,2.6-.8,3.6-1.3,1.8-2.2,2.3-1.9.8-3,.8-2-.3-2.8-.8-1.4-1.2-1.7-2l.3-.4v8.4h-2.1.1ZM901.8,294.7c1.3,0,2.3-.4,3-1.3s1.1-2.1,1.1-3.6-.3-2.7-1-3.6-1.7-1.3-2.9-1.3-1.6.2-2.2.6c-.6.4-1.1,1-1.5,1.7s-.5,1.6-.5,2.6.2,1.8.5,2.6.8,1.3,1.4,1.7c.6.4,1.3.6,2.1.6h0Z"/>
    <path class="st7" d="M911.6,296.2v-12.9h1.7l.3,2.1c.4-.8.9-1.4,1.6-1.8.7-.4,1.5-.6,2.6-.6s.5,0,.7,0c.3,0,.5.1.7.2l-.4,1.9c-.2,0-.4-.1-.6-.2h-1c-.5,0-1.1.2-1.6.5s-1,.8-1.4,1.4-.5,1.4-.5,2.4v7h-2.1Z"/>
    <path class="st7" d="M927.3,296.5c-1.2,0-2.3-.3-3.3-.8s-1.7-1.3-2.2-2.3-.8-2.2-.8-3.6.3-2.6.8-3.6,1.3-1.8,2.2-2.3,2-.8,3.2-.8,2.2.3,3.1.8c.9.5,1.5,1.2,2,2.1.4.9.7,1.9.7,3s0,.6,0,.8v.6h-10.5v-1.8h9.6l-1.1.2c0-1.2-.3-2.2-1-2.9-.7-.7-1.6-1-2.7-1s-1.6.2-2.2.6c-.6.4-1.1,1-1.4,1.7s-.5,1.6-.5,2.7.2,1.9.5,2.6.8,1.3,1.5,1.7c.6.4,1.4.6,2.3.6s1.7-.2,2.3-.5c.6-.4,1.1-.9,1.4-1.5l1.6,1c-.3.6-.7,1.1-1.3,1.5-.5.4-1.1.8-1.8,1s-1.4.3-2.3.3h0Z"/>
    <path class="st7" d="M943.6,294.6c1.2,0,2.2.3,2.9.8s1,1.3,1,2.2-.3,1.6-.8,2.2c-.6.6-1.3,1.1-2.3,1.4-.9.3-2,.5-3.2.5-2,0-3.6-.3-4.6-1s-1.5-1.5-1.5-2.5.2-1.3.7-1.9,1.2-.9,2.3-.9l-.2.4c-.6-.2-1.1-.4-1.5-.8s-.6-.9-.6-1.6.3-1.3.8-1.8,1.3-.8,2.3-.9l1.4.7h-.3c-.8,0-1.4.3-1.8.6-.4.3-.5.7-.5,1.1s.2.8.5,1.1c.4.2.9.3,1.5.3h3.9ZM941,283c1,0,2,.2,2.8.6s1.4.9,1.9,1.5.7,1.4.7,2.3-.2,1.6-.7,2.3-1.1,1.2-1.9,1.6-1.7.6-2.8.6c-1.7,0-3-.4-3.9-1.2-.9-.8-1.4-1.9-1.4-3.1s.2-1.6.7-2.3c.5-.7,1.1-1.2,1.9-1.5.8-.4,1.7-.6,2.7-.6v-.2ZM941.2,300.1c1,0,1.8-.1,2.5-.3s1.1-.5,1.4-.8.5-.7.5-1.1-.2-.8-.6-1.1c-.4-.3-1-.4-2-.4h-4c-.6,0-1,.1-1.4.4s-.6.7-.6,1.2.4,1.1,1.1,1.5c.7.4,1.7.6,3,.6h0ZM941,284.7c-.9,0-1.6.2-2.3.7s-.9,1.1-.9,2,.3,1.4.9,1.9c.6.5,1.4.8,2.3.8s1.6-.2,2.3-.8c.6-.5.9-1.1.9-1.9s-.3-1.5-.9-2c-.6-.5-1.4-.7-2.3-.7ZM947.5,280.9l.5,1.8h-.2c-.8,0-1.5.2-2,.5s-.7.9-.7,1.6l-1.3-.6c0-.7.2-1.3.5-1.8s.7-.9,1.3-1.2c.5-.3,1.1-.4,1.8-.4h.1Z"/>
    <path class="st7" d="M955.5,283c1.2,0,2.3.3,3.2.8s1.7,1.3,2.2,2.3.8,2.2.8,3.6-.3,2.6-.8,3.6-1.3,1.8-2.2,2.3-2,.8-3.2.8-2.3-.3-3.2-.8-1.7-1.3-2.2-2.3-.8-2.2-.8-3.6.3-2.6.8-3.6,1.3-1.8,2.2-2.3,2-.8,3.2-.8ZM955.5,284.8c-.9,0-1.6.2-2.3.6-.6.4-1.1,1-1.4,1.7s-.5,1.6-.5,2.7.2,1.9.5,2.6.8,1.3,1.4,1.7c.6.4,1.4.6,2.3.6s1.6-.2,2.3-.6,1.1-1,1.4-1.7c.3-.7.5-1.6.5-2.6s-.2-1.9-.5-2.7c-.3-.7-.8-1.3-1.4-1.7-.6-.4-1.4-.6-2.3-.6Z"/>
  </g>
  <g>
    <path class="st7" d="M930.5,386.8h-2.2l-1.8-4.7h-7.7l-1.8,4.7h-2.2l6.7-17.1h2.5l6.6,17.1h0ZM919.5,380.2h6.2l-3.1-8.4-3.1,8.4h0ZM923.2,363.5h2.2l-2.2,4.1h-1.7l1.7-4.1Z"/>
    <path class="st7" d="M940.3,385.2c1.2,0,2.2.3,2.9.8s1,1.3,1,2.2-.3,1.6-.8,2.2c-.6.6-1.3,1.1-2.3,1.4-.9.3-2,.5-3.2.5-2,0-3.6-.3-4.6-1s-1.5-1.5-1.5-2.5.2-1.3.7-1.9,1.2-.9,2.3-.9l-.2.4c-.6-.2-1.1-.4-1.5-.8s-.6-.9-.6-1.6.3-1.3.8-1.8,1.3-.8,2.3-.9l1.4.7h-.3c-.8,0-1.4.3-1.8.6-.4.3-.5.7-.5,1.1s.2.8.5,1.1c.4.2.9.3,1.5.3h3.9ZM937.7,373.6c1,0,2,.2,2.8.6s1.4.9,1.9,1.5.7,1.4.7,2.3-.2,1.6-.7,2.3-1.1,1.2-1.9,1.6-1.7.6-2.8.6c-1.7,0-3-.4-3.9-1.2-.9-.8-1.4-1.9-1.4-3.1s.2-1.6.7-2.3c.5-.7,1.1-1.2,1.9-1.5.8-.4,1.7-.6,2.7-.6v-.2ZM937.9,390.7c1,0,1.8-.1,2.5-.3s1.1-.5,1.4-.8.5-.7.5-1.1-.2-.8-.6-1.1c-.4-.3-1-.4-2-.4h-4c-.6,0-1,.1-1.4.4s-.6.7-.6,1.2.4,1.1,1.1,1.5c.7.4,1.7.6,3,.6h0ZM937.7,375.3c-.9,0-1.6.2-2.3.7s-.9,1.1-.9,2,.3,1.4.9,1.9c.6.5,1.4.8,2.3.8s1.6-.2,2.3-.8c.6-.5.9-1.1.9-1.9s-.3-1.5-.9-2c-.6-.5-1.4-.7-2.3-.7ZM944.2,371.5l.5,1.8h-.2c-.8,0-1.5.2-2,.5s-.7.9-.7,1.6l-1.3-.6c0-.7.2-1.3.5-1.8s.7-.9,1.3-1.2c.5-.3,1.1-.4,1.8-.4h.1Z"/>
    <path class="st7" d="M951.5,387.1c-.8,0-1.6-.2-2.3-.5s-1.3-.8-1.8-1.5-.7-1.6-.7-2.7v-8.5h2.1v7.9c0,1.3.3,2.2.9,2.7.6.5,1.4.7,2.4.7s1,0,1.4-.2c.5-.2.9-.4,1.3-.8s.7-.8.9-1.4.3-1.2.3-2v-7h2.1v12.9h-1.8v-2c-.6.8-1.2,1.3-2,1.7-.8.4-1.7.5-2.7.5v.2Z"/>
    <path class="st7" d="M970.1,378.5c0-1-.3-1.7-.8-2.2s-1.3-.8-2.2-.8-1.7.2-2.3.6-1.1,1-1.4,1.9l-1.7-1c.3-1,1-1.7,1.9-2.3.9-.6,2.1-.9,3.5-.9s1.8.2,2.5.5c.8.3,1.4.8,1.8,1.5s.7,1.5.7,2.5v6.3c0,.6.3.9,1,.9s.6,0,1-.1v1.6c-.4.2-.9.3-1.4.3s-1,0-1.3-.3c-.4-.2-.7-.5-.9-.9s-.3-.9-.3-1.5v-.3h.5c-.2.8-.6,1.3-1.1,1.7-.5.4-1.1.7-1.7.9-.6.2-1.2.3-1.8.3s-1.5-.1-2.1-.4c-.7-.3-1.2-.7-1.6-1.2s-.6-1.2-.6-2,.3-1.8,1-2.4c.6-.6,1.5-1.1,2.7-1.3l5.1-1v1.7l-4.2.9c-.8.2-1.5.4-1.9.7-.4.3-.6.7-.6,1.3s.2,1,.6,1.3,1,.5,1.8.5,1,0,1.4-.2c.5-.1.9-.3,1.2-.6.4-.3.6-.6.9-1,.2-.4.3-.9.3-1.4v-3.6h0Z"/>
    <path class="st7" d="M990.9,387.1c-1.2,0-2.3-.3-3.3-.8s-1.7-1.3-2.2-2.3-.8-2.2-.8-3.6.3-2.6.8-3.6,1.3-1.8,2.2-2.3,2-.8,3.2-.8,2.2.3,3.1.8c.9.5,1.5,1.2,2,2.1.4.9.7,1.9.7,3s0,.6,0,.8v.6h-10.5v-1.8h9.6l-1.1.2c0-1.2-.3-2.2-1-2.9-.7-.7-1.6-1-2.7-1s-1.6.2-2.2.6c-.6.4-1.1,1-1.4,1.7s-.5,1.6-.5,2.7.2,1.9.5,2.6.8,1.3,1.5,1.7c.6.4,1.4.6,2.3.6s1.7-.2,2.3-.5c.6-.4,1.1-.9,1.4-1.5l1.6,1c-.3.6-.7,1.1-1.3,1.5-.5.4-1.1.8-1.8,1s-1.4.3-2.3.3h0Z"/>
    <path class="st7" d="M1009.1,386.8v-17.1h12v1.9h-9.9v5.5h7.7v1.9h-7.7v5.7h10.3v1.9h-12.4v.2Z"/>
    <path class="st7" d="M1029.7,387.1c-1.3,0-2.4-.3-3.5-.8s-1.9-1.3-2.4-2.3l1.8-1.3c.4.8.9,1.4,1.7,1.9.7.4,1.6.7,2.7.7s1.6-.2,2.1-.5.8-.8.8-1.4,0-.7-.3-1c-.2-.3-.7-.5-1.3-.7l-3.1-.6c-1.3-.3-2.2-.7-2.7-1.3-.5-.6-.8-1.4-.8-2.3s.2-1.4.6-1.9c.4-.6,1-1.1,1.7-1.4.8-.4,1.6-.5,2.7-.5s2.4.2,3.2.8c.9.5,1.5,1.2,2,2.1l-1.7,1.1c-.3-.8-.8-1.3-1.4-1.7-.7-.4-1.3-.5-2-.5s-1.2,0-1.6.3c-.4.2-.8.4-1,.7-.2.3-.3.6-.3,1s0,.7.4,1,.7.5,1.5.7l3.2.7c1.2.2,2.1.6,2.5,1.2s.7,1.2.7,2-.2,1.5-.6,2.1-1,1.1-1.8,1.4-1.7.5-2.7.5h-.4Z"/>
    <path class="st7" d="M1045.4,385.2c1.2,0,2.2.3,2.9.8s1,1.3,1,2.2-.3,1.6-.8,2.2c-.6.6-1.3,1.1-2.3,1.4-.9.3-2,.5-3.2.5-2,0-3.6-.3-4.6-1s-1.5-1.5-1.5-2.5.2-1.3.7-1.9,1.2-.9,2.3-.9l-.2.4c-.6-.2-1.1-.4-1.5-.8s-.6-.9-.6-1.6.3-1.3.8-1.8,1.3-.8,2.3-.9l1.4.7h-.3c-.8,0-1.4.3-1.8.6-.4.3-.5.7-.5,1.1s.2.8.5,1.1c.4.2.9.3,1.5.3h3.9ZM1042.8,373.6c1,0,2,.2,2.8.6s1.4.9,1.9,1.5.7,1.4.7,2.3-.2,1.6-.7,2.3-1.1,1.2-1.9,1.6-1.7.6-2.8.6c-1.7,0-3-.4-3.9-1.2-.9-.8-1.4-1.9-1.4-3.1s.2-1.6.7-2.3c.5-.7,1.1-1.2,1.9-1.5.8-.4,1.7-.6,2.7-.6v-.2ZM1043,390.7c1,0,1.8-.1,2.5-.3s1.1-.5,1.4-.8.5-.7.5-1.1-.2-.8-.6-1.1c-.4-.3-1-.4-2-.4h-4c-.6,0-1,.1-1.4.4s-.6.7-.6,1.2.4,1.1,1.1,1.5,1.7.6,3,.6h0ZM1042.8,375.3c-.9,0-1.6.2-2.3.7s-.9,1.1-.9,2,.3,1.4.9,1.9,1.4.8,2.3.8,1.6-.2,2.3-.8c.6-.5.9-1.1.9-1.9s-.3-1.5-.9-2-1.4-.7-2.3-.7ZM1049.3,371.5l.5,1.8h-.2c-.8,0-1.5.2-2,.5s-.7.9-.7,1.6l-1.3-.6c0-.7.2-1.3.5-1.8s.7-.9,1.3-1.2c.5-.3,1.1-.4,1.8-.4h0,0Z"/>
    <path class="st7" d="M1057.3,373.6c1.2,0,2.3.3,3.2.8.9.5,1.7,1.3,2.2,2.3s.8,2.2.8,3.6-.3,2.6-.8,3.6-1.3,1.8-2.2,2.3c-.9.5-2,.8-3.2.8s-2.3-.3-3.2-.8c-.9-.5-1.7-1.3-2.2-2.3s-.8-2.2-.8-3.6.3-2.6.8-3.6,1.3-1.8,2.2-2.3,2-.8,3.2-.8ZM1057.3,375.4c-.9,0-1.6.2-2.3.6-.6.4-1.1,1-1.4,1.7s-.5,1.6-.5,2.7.2,1.9.5,2.6.8,1.3,1.4,1.7c.6.4,1.4.6,2.3.6s1.6-.2,2.3-.6,1.1-1,1.4-1.7.5-1.6.5-2.6-.2-1.9-.5-2.7c-.3-.7-.8-1.3-1.4-1.7-.6-.4-1.4-.6-2.3-.6Z"/>
    <path class="st7" d="M1075,373.9v1.8h-9.4v-1.8h9.4ZM1070.3,370.2v13c0,.6.2,1.1.5,1.4.4.3.8.5,1.4.5s.9,0,1.3-.3c.4-.2.7-.4,1-.7l.7,1.7c-.4.4-.9.6-1.4.9-.5.2-1.2.3-1.9.3s-1.3-.1-1.8-.3c-.6-.2-1-.6-1.4-1.1-.3-.5-.5-1.2-.5-2v-12.8l2.1-.6h0Z"/>
    <path class="st7" d="M1083.1,373.6c1.2,0,2.3.3,3.2.8.9.5,1.7,1.3,2.2,2.3s.8,2.2.8,3.6-.3,2.6-.8,3.6-1.3,1.8-2.2,2.3c-.9.5-2,.8-3.2.8s-2.3-.3-3.2-.8c-.9-.5-1.7-1.3-2.2-2.3s-.8-2.2-.8-3.6.3-2.6.8-3.6,1.3-1.8,2.2-2.3,2-.8,3.2-.8ZM1083.1,375.4c-.9,0-1.6.2-2.3.6-.6.4-1.1,1-1.4,1.7s-.5,1.6-.5,2.7.2,1.9.5,2.6.8,1.3,1.4,1.7c.6.4,1.4.6,2.3.6s1.6-.2,2.3-.6,1.1-1,1.4-1.7.5-1.6.5-2.6-.2-1.9-.5-2.7c-.3-.7-.8-1.3-1.4-1.7-.6-.4-1.4-.6-2.3-.6Z"/>
  </g>
  <g>
    <path class="st7" d="M1005.8,457.5c1.5,0,2.8.3,3.9.9,1.1.6,2,1.5,2.7,2.7l-1.7,1.3c-.6-1.1-1.4-1.9-2.2-2.3s-1.8-.7-2.9-.7-1.7.1-2.3.4-1,.6-1.3,1-.4.9-.4,1.4.2,1.1.6,1.6c.4.5,1.1.8,2.3,1.1l3.7.8c1.6.4,2.8.9,3.4,1.6s1,1.6,1,2.7-.3,1.8-.8,2.6c-.5.8-1.3,1.3-2.3,1.7-1,.4-2.1.6-3.5.6s-2.3-.2-3.3-.5c-.9-.3-1.7-.8-2.4-1.4s-1.2-1.2-1.7-1.9l1.8-1.5c.3.7.8,1.2,1.3,1.7s1.1.9,1.9,1.2c.7.3,1.6.4,2.5.4s1.6-.1,2.3-.3,1.1-.5,1.5-1c.3-.4.5-.9.5-1.5s-.2-1-.5-1.5-1-.8-2-1l-4-.9c-1.1-.2-1.9-.6-2.6-1s-1.1-.9-1.4-1.5c-.3-.6-.4-1.2-.4-1.9s.3-1.8.8-2.5c.5-.8,1.2-1.4,2.2-1.9s2.1-.7,3.4-.7v.3Z"/>
    <path class="st7" d="M1021.6,475.1c-1.2,0-2.3-.3-3.3-.8s-1.7-1.3-2.2-2.3-.8-2.2-.8-3.6.3-2.6.8-3.6,1.3-1.8,2.2-2.3,2-.8,3.2-.8,2.2.3,3.1.8c.9.5,1.5,1.2,2,2.1.4.9.7,1.9.7,3s0,.6,0,.8v.6h-10.5v-1.8h9.6l-1.1.2c0-1.2-.3-2.2-1-2.9-.7-.7-1.6-1-2.7-1s-1.6.2-2.2.6c-.6.4-1.1,1-1.4,1.7s-.5,1.6-.5,2.7.2,1.9.5,2.6.8,1.3,1.5,1.7c.6.4,1.4.6,2.3.6s1.7-.2,2.3-.5c.6-.4,1.1-.9,1.4-1.5l1.6,1c-.3.6-.7,1.1-1.3,1.5-.5.4-1.1.8-1.8,1s-1.4.3-2.3.3h0Z"/>
    <path class="st7" d="M1030.9,474.9v-12.9h1.7l.3,2.1c.4-.8.9-1.4,1.6-1.8s1.5-.6,2.6-.6.5,0,.7,0c.3,0,.5.1.7.2l-.4,1.9c-.2,0-.4-.1-.6-.2h-1c-.5,0-1.1.2-1.6.5s-1,.8-1.4,1.4-.5,1.4-.5,2.4v7h-2.1,0Z"/>
    <path class="st7" d="M1049.8,461.9h2.2l-5.4,12.9h-2.1l-5.4-12.9h2.4l4.1,10.8,4.2-10.8h0Z"/>
    <path class="st7" d="M1055.5,459.5c-.5,0-.8-.1-1.1-.4-.3-.3-.4-.7-.4-1.1s0-.8.4-1.1c.3-.3.7-.4,1.1-.4s.8.1,1.1.4.4.7.4,1.1,0,.8-.4,1.1-.7.4-1.1.4ZM1056.5,461.9v12.9h-2.1v-12.9h2.1Z"/>
    <path class="st7" d="M1066.4,461.7c.9,0,1.7.1,2.4.4.7.3,1.3.7,1.8,1.2s.9,1.1,1.2,1.8l-2,.9c-.3-.8-.7-1.5-1.3-1.9-.6-.4-1.3-.7-2.2-.7s-1.6.2-2.2.6-1.1,1-1.4,1.7-.5,1.6-.5,2.7.2,1.9.5,2.6.8,1.3,1.4,1.7c.6.4,1.4.6,2.2.6s1.3-.1,1.7-.3.9-.5,1.2-.9c.3-.4.5-.9.7-1.5l1.9.7c-.3.8-.7,1.5-1.2,2-.5.6-1.1,1-1.8,1.3-.7.3-1.5.5-2.4.5s-2.3-.3-3.2-.8c-.9-.5-1.7-1.3-2.2-2.3s-.8-2.2-.8-3.6.3-2.6.8-3.6,1.3-1.8,2.2-2.3,2-.8,3.2-.8h0ZM1065,474.8l1.1-.6c1,.3,1.7.8,2.2,1.3.4.6.6,1.2.6,2s-.3,1.5-.9,2.1-1.3.9-2.3.9-1,0-1.4-.2c-.4-.1-.8-.3-1-.5l.5-1.5c.2.2.5.3.8.4s.6.2,1,.2.9-.2,1.2-.5.5-.8.5-1.3-.2-.8-.5-1.2c-.3-.3-.9-.7-1.7-1h0Z"/>
    <path class="st7" d="M1080.6,461.7c1.2,0,2.3.3,3.2.8.9.5,1.7,1.3,2.2,2.3s.8,2.2.8,3.6-.3,2.6-.8,3.6-1.3,1.8-2.2,2.3c-.9.5-2,.8-3.2.8s-2.3-.3-3.2-.8c-.9-.5-1.7-1.3-2.2-2.3s-.8-2.2-.8-3.6.3-2.6.8-3.6,1.3-1.8,2.2-2.3,2-.8,3.2-.8ZM1080.6,463.5c-.9,0-1.6.2-2.3.6-.6.4-1.1,1-1.4,1.7s-.5,1.6-.5,2.7.2,1.9.5,2.6.8,1.3,1.4,1.7c.6.4,1.4.6,2.3.6s1.6-.2,2.3-.6,1.1-1,1.4-1.7.5-1.6.5-2.6-.2-1.9-.5-2.7c-.3-.7-.8-1.3-1.4-1.7-.6-.4-1.4-.6-2.3-.6Z"/>
    <path class="st7" d="M1095.2,475.1c-1.3,0-2.4-.3-3.5-.8s-1.9-1.3-2.4-2.3l1.8-1.3c.4.8.9,1.4,1.7,1.9.7.4,1.6.7,2.7.7s1.6-.2,2.1-.5.8-.8.8-1.4,0-.7-.3-1c-.2-.3-.7-.5-1.3-.7l-3.1-.6c-1.3-.3-2.2-.7-2.7-1.3-.5-.6-.8-1.4-.8-2.3s.2-1.4.6-1.9c.4-.6,1-1.1,1.7-1.4.8-.4,1.6-.5,2.7-.5s2.4.2,3.2.8c.9.5,1.5,1.2,2,2.1l-1.7,1.1c-.3-.8-.8-1.3-1.4-1.7-.7-.4-1.3-.5-2-.5s-1.2,0-1.6.3c-.4.2-.8.4-1,.7-.2.3-.3.6-.3,1s0,.7.4,1,.7.5,1.5.7l3.2.7c1.2.2,2.1.6,2.5,1.2s.7,1.2.7,2-.2,1.5-.6,2.1-1,1.1-1.8,1.4-1.7.5-2.7.5h-.4Z"/>
    <path class="st7" d="M999,488.6c1.5,0,2.8.3,3.9.9,1.1.6,2,1.5,2.7,2.7l-1.7,1.3c-.6-1.1-1.4-1.9-2.2-2.3s-1.8-.7-2.9-.7-1.7.1-2.3.4-1,.6-1.3,1-.4.9-.4,1.4.2,1.1.6,1.6c.4.5,1.1.8,2.3,1.1l3.7.8c1.6.4,2.8.9,3.4,1.6s1,1.6,1,2.7-.3,1.8-.8,2.6c-.5.8-1.3,1.3-2.3,1.7-1,.4-2.1.6-3.5.6s-2.3-.2-3.3-.5c-.9-.3-1.7-.8-2.4-1.4s-1.2-1.2-1.7-1.9l1.8-1.5c.3.7.8,1.2,1.3,1.7s1.1.9,1.9,1.2c.7.3,1.6.4,2.5.4s1.6-.1,2.3-.3,1.1-.5,1.5-1c.3-.4.5-.9.5-1.5s-.2-1-.5-1.5-1-.8-2-1l-4-.9c-1.1-.2-1.9-.6-2.6-1s-1.1-.9-1.4-1.5c-.3-.6-.4-1.2-.4-1.9s.3-1.8.8-2.5c.5-.8,1.2-1.4,2.2-1.9s2.1-.7,3.4-.7v.3Z"/>
    <path class="st7" d="M1014.8,492.8c1.2,0,2.3.3,3.2.8s1.7,1.3,2.2,2.3.8,2.2.8,3.6-.3,2.6-.8,3.6-1.3,1.8-2.2,2.3-2,.8-3.2.8-2.3-.3-3.2-.8-1.7-1.3-2.2-2.3-.8-2.2-.8-3.6.3-2.6.8-3.6,1.3-1.8,2.2-2.3,2-.8,3.2-.8ZM1014.8,494.5c-.9,0-1.6.2-2.3.6-.6.4-1.1,1-1.4,1.7s-.5,1.6-.5,2.7.2,1.9.5,2.6.8,1.3,1.4,1.7c.6.4,1.4.6,2.3.6s1.6-.2,2.3-.6,1.1-1,1.4-1.7c.3-.7.5-1.6.5-2.6s-.2-1.9-.5-2.7c-.3-.7-.8-1.3-1.4-1.7-.6-.4-1.4-.6-2.3-.6Z"/>
    <path class="st7" d="M1030.1,492.8c.9,0,1.7.1,2.4.4.7.3,1.3.7,1.8,1.2s.9,1.1,1.2,1.8l-2,.9c-.3-.8-.7-1.5-1.3-1.9-.6-.4-1.3-.7-2.2-.7s-1.6.2-2.2.6-1.1,1-1.4,1.7-.5,1.6-.5,2.7.2,1.9.5,2.6.8,1.3,1.4,1.7c.6.4,1.4.6,2.2.6s1.3-.1,1.7-.3.9-.5,1.2-.9c.3-.4.5-.9.7-1.5l1.9.7c-.3.8-.7,1.5-1.2,2-.5.6-1.1,1-1.8,1.3-.7.3-1.5.5-2.4.5s-2.3-.3-3.2-.8c-.9-.5-1.7-1.3-2.2-2.3s-.8-2.2-.8-3.6.3-2.6.8-3.6,1.3-1.8,2.2-2.3,2-.8,3.2-.8h0Z"/>
    <path class="st7" d="M1040,490.5c-.5,0-.8-.1-1.1-.4-.3-.3-.4-.7-.4-1.1s0-.8.4-1.1c.3-.3.7-.4,1.1-.4s.8.1,1.1.4.4.7.4,1.1,0,.8-.4,1.1-.7.4-1.1.4ZM1041.1,493v12.9h-2.1v-12.9h2.1Z"/>
    <path class="st7" d="M1053.2,497.6c0-1-.3-1.7-.8-2.2s-1.3-.8-2.2-.8-1.7.2-2.3.6c-.6.4-1.1,1-1.4,1.9l-1.7-1c.3-1,1-1.7,1.9-2.3.9-.6,2.1-.9,3.5-.9s1.8.2,2.5.5c.8.3,1.4.8,1.8,1.5s.7,1.5.7,2.5v6.3c0,.6.3.9,1,.9s.6,0,1-.1v1.6c-.4.2-.9.3-1.4.3s-1,0-1.3-.3c-.4-.2-.7-.5-.9-.9-.2-.4-.3-.9-.3-1.5v-.3h.5c-.2.8-.6,1.3-1.1,1.7-.5.4-1.1.7-1.7.9-.6.2-1.2.3-1.8.3s-1.5-.1-2.1-.4c-.7-.3-1.2-.7-1.6-1.2s-.6-1.2-.6-2,.3-1.8,1-2.4c.6-.6,1.5-1.1,2.7-1.3l5.1-1v1.7l-4.2.9c-.8.2-1.5.4-1.9.7-.4.3-.6.7-.6,1.3s.2,1,.6,1.3,1,.5,1.8.5,1,0,1.4-.2c.5-.1.9-.3,1.2-.6.4-.3.6-.6.9-1,.2-.4.3-.9.3-1.4v-3.6Z"/>
    <path class="st7" d="M1061.1,490.5c-.5,0-.8-.1-1.1-.4-.3-.3-.4-.7-.4-1.1s0-.8.4-1.1c.3-.3.7-.4,1.1-.4s.8.1,1.1.4.4.7.4,1.1,0,.8-.4,1.1-.7.4-1.1.4ZM1062.1,493v12.9h-2.1v-12.9h2.1Z"/>
    <path class="st7" d="M1071.3,506.2c-1.3,0-2.4-.3-3.5-.8s-1.9-1.3-2.4-2.3l1.8-1.3c.4.8.9,1.4,1.7,1.9.7.4,1.6.7,2.7.7s1.6-.2,2.1-.5.8-.8.8-1.4,0-.7-.3-1c-.2-.3-.7-.5-1.3-.7l-3.1-.6c-1.3-.3-2.2-.7-2.7-1.3-.5-.6-.8-1.4-.8-2.3s.2-1.4.6-1.9c.4-.6,1-1.1,1.7-1.4.8-.4,1.6-.5,2.7-.5s2.4.2,3.2.8c.9.5,1.5,1.2,2,2.1l-1.7,1.1c-.3-.8-.8-1.3-1.4-1.7-.7-.4-1.3-.5-2-.5s-1.2,0-1.6.3c-.4.2-.8.4-1,.7-.2.3-.3.6-.3,1s0,.7.4,1,.7.5,1.5.7l3.2.7c1.2.2,2.1.6,2.5,1.2s.7,1.2.7,2-.2,1.5-.6,2.1-1,1.1-1.8,1.4-1.7.5-2.7.5h-.4Z"/>
    <path class="st7" d="M1093.7,506.2c-1.1,0-2.1-.3-3-.8s-1.6-1.3-2.1-2.3-.8-2.2-.8-3.6.3-2.7.9-3.7,1.3-1.8,2.3-2.3c.9-.5,1.9-.8,3-.8s2,.3,2.8.8c.8.6,1.3,1.3,1.6,2.2l-.3.2v-8.9h2.1v18.9h-1.8l-.2-3.1.3-.2c0,.8-.4,1.4-.9,1.9s-1,.9-1.7,1.2c-.7.3-1.4.4-2.1.4h-.1ZM1093.9,504.4c.8,0,1.5-.2,2.2-.6.6-.4,1.1-1,1.4-1.8s.5-1.7.5-2.7-.2-1.8-.5-2.5-.8-1.3-1.4-1.6c-.6-.4-1.3-.6-2.1-.6-1.3,0-2.3.4-3.1,1.3-.7.9-1.1,2.1-1.1,3.6s.4,2.7,1.1,3.6,1.7,1.3,3,1.3h0Z"/>
    <path class="st7" d="M1110,506.2c-1.2,0-2.3-.3-3.3-.8s-1.7-1.3-2.2-2.3-.8-2.2-.8-3.6.3-2.6.8-3.6,1.3-1.8,2.2-2.3c.9-.5,2-.8,3.2-.8s2.2.3,3.1.8,1.5,1.2,2,2.1c.4.9.7,1.9.7,3s0,.6,0,.8v.6h-10.5v-1.8h9.6l-1.1.2c0-1.2-.3-2.2-1-2.9-.7-.7-1.6-1-2.7-1s-1.6.2-2.2.6-1.1,1-1.4,1.7-.5,1.6-.5,2.7.2,1.9.5,2.6.8,1.3,1.5,1.7c.6.4,1.4.6,2.3.6s1.7-.2,2.3-.5c.6-.4,1.1-.9,1.4-1.5l1.6,1c-.3.6-.7,1.1-1.3,1.5-.5.4-1.1.8-1.8,1-.7.2-1.4.3-2.3.3h0Z"/>
    <path class="st7" d="M1019.2,519.7c1.5,0,2.8.3,3.9.9,1.1.6,2,1.5,2.7,2.7l-1.7,1.3c-.6-1.1-1.4-1.9-2.2-2.3s-1.8-.7-2.9-.7-1.7,0-2.3.4c-.6.3-1,.6-1.3,1s-.4.9-.4,1.4.2,1.1.6,1.6c.4.5,1.1.8,2.3,1.1l3.7.8c1.6.4,2.8.9,3.4,1.6s1,1.6,1,2.7-.3,1.8-.8,2.6-1.3,1.3-2.3,1.7-2.1.6-3.5.6-2.3-.2-3.3-.5c-.9-.3-1.7-.8-2.4-1.4s-1.2-1.2-1.7-1.9l1.8-1.5c.3.7.8,1.2,1.3,1.7s1.1.9,1.9,1.2c.7.3,1.6.4,2.5.4s1.6,0,2.3-.3,1.1-.5,1.5-1c.3-.4.5-.9.5-1.5s-.2-1-.5-1.5-1-.8-2-1l-4-.9c-1.1-.2-1.9-.6-2.6-1s-1.1-.9-1.4-1.5c-.3-.6-.4-1.2-.4-1.9s.3-1.8.8-2.5c.5-.8,1.2-1.4,2.2-1.9s2.1-.7,3.4-.7v.3Z"/>
    <path class="st7" d="M1037.3,528.7c0-1-.3-1.7-.8-2.2s-1.3-.8-2.2-.8-1.7.2-2.3.6c-.6.4-1.1,1-1.4,1.9l-1.7-1c.3-1,1-1.7,1.9-2.3s2.1-.9,3.5-.9,1.8.2,2.5.5c.8.3,1.4.8,1.8,1.5s.7,1.5.7,2.5v6.3c0,.6.3.9,1,.9s.6,0,1,0v1.6c-.4.2-.9.3-1.4.3s-1,0-1.3-.3c-.4-.2-.7-.5-.9-.9-.2-.4-.3-.9-.3-1.5v-.3h.5c-.2.8-.6,1.3-1.1,1.7s-1.1.7-1.7.9-1.2.3-1.8.3-1.5,0-2.1-.4c-.7-.3-1.2-.7-1.6-1.2s-.6-1.2-.6-2,.3-1.8,1-2.4c.6-.6,1.5-1.1,2.7-1.3l5.1-1v1.7l-4.2.9c-.8.2-1.5.4-1.9.7s-.6.7-.6,1.3.2,1,.6,1.3,1,.5,1.8.5,1,0,1.4-.2c.5,0,.9-.3,1.2-.6.4-.3.6-.6.9-1,.2-.4.3-.9.3-1.4v-3.6Z"/>
    <path class="st7" d="M1048.8,537.3c-.8,0-1.6-.2-2.3-.5s-1.3-.8-1.8-1.5-.7-1.6-.7-2.7v-8.5h2.1v7.9c0,1.3.3,2.2.9,2.7s1.4.7,2.4.7,1,0,1.4-.2c.5-.2.9-.4,1.3-.8s.7-.8.9-1.4c.2-.6.3-1.2.3-2v-7h2.1v12.9h-1.8v-2c-.6.8-1.2,1.3-2,1.7s-1.7.5-2.7.5v.2ZM1050.3,517.9h2.3l-2.5,4.3h-1.7l2-4.3h-.1Z"/>
    <path class="st7" d="M1064.9,537.3c-1.1,0-2.1-.3-3-.8s-1.6-1.3-2.1-2.3-.8-2.2-.8-3.6.3-2.7.9-3.7,1.3-1.8,2.3-2.3c.9-.5,1.9-.8,3-.8s2,.3,2.8.8c.8.6,1.3,1.3,1.6,2.2l-.3.2v-8.9h2.1v18.9h-1.8l-.2-3.1.3-.2c0,.8-.4,1.4-.9,1.9s-1,.9-1.7,1.2-1.4.4-2.1.4h-.1ZM1065.1,535.5c.8,0,1.5-.2,2.2-.6.6-.4,1.1-1,1.4-1.8s.5-1.7.5-2.7-.2-1.8-.5-2.5-.8-1.3-1.4-1.6c-.6-.4-1.3-.6-2.1-.6-1.3,0-2.3.4-3.1,1.3-.7.9-1.1,2.1-1.1,3.6s.4,2.7,1.1,3.6c.7.9,1.7,1.3,3,1.3Z"/>
    <path class="st7" d="M1081.2,537.3c-1.2,0-2.3-.3-3.3-.8s-1.7-1.3-2.2-2.3-.8-2.2-.8-3.6.3-2.6.8-3.6,1.3-1.8,2.2-2.3c.9-.5,2-.8,3.2-.8s2.2.3,3.1.8,1.5,1.2,2,2.1c.4.9.7,1.9.7,3s0,.6,0,.8v.6h-10.5v-1.8h9.6l-1.1.2c0-1.2-.3-2.2-1-2.9s-1.6-1-2.7-1-1.6.2-2.2.6c-.6.4-1.1,1-1.4,1.7s-.5,1.6-.5,2.7.2,1.9.5,2.6.8,1.3,1.5,1.7c.6.4,1.4.6,2.3.6s1.7-.2,2.3-.5c.6-.4,1.1-.9,1.4-1.5l1.6,1c-.3.6-.7,1.1-1.3,1.5-.5.4-1.1.8-1.8,1-.7.2-1.4.3-2.3.3h0Z"/>
  </g>
  <g>
    <path class="st7" d="M1012.4,634.8v17.1h-2.1v-17.1h2.1ZM1022.6,642.3v1.9h-11.2v-1.9h11.2ZM1023.7,634.8v17.1h-2.1v-17.1h2.1Z"/>
    <path class="st7" d="M1036.2,643.5c0-1-.3-1.7-.8-2.2s-1.3-.8-2.2-.8-1.7.2-2.3.6c-.6.4-1.1,1-1.4,1.9l-1.7-1c.3-1,1-1.7,1.9-2.3s2.1-.9,3.5-.9,1.8.2,2.5.5c.8.3,1.4.8,1.8,1.5s.7,1.5.7,2.5v6.3c0,.6.3.9,1,.9s.6,0,1,0v1.6c-.4.2-.9.3-1.4.3s-1,0-1.3-.3c-.4-.2-.7-.5-.9-.9-.2-.4-.3-.9-.3-1.5v-.3h.5c-.2.8-.6,1.3-1.1,1.7s-1.1.7-1.7.9-1.2.3-1.8.3-1.5,0-2.1-.4c-.7-.3-1.2-.7-1.6-1.2s-.6-1.2-.6-2,.3-1.8,1-2.4c.6-.6,1.5-1.1,2.7-1.3l5.1-1v1.7l-4.2.9c-.8.2-1.5.4-1.9.7s-.6.7-.6,1.3.2,1,.6,1.3,1,.5,1.8.5,1,0,1.4-.2c.5,0,.9-.3,1.2-.6.4-.3.6-.6.9-1,.2-.4.3-.9.3-1.4v-3.6Z"/>
    <path class="st7" d="M1049.4,652.1c-.7,0-1.4,0-2-.4-.6-.3-1.2-.6-1.6-1.1s-.8-1-1-1.6l.3-.4-.2,3.2h-1.8v-18.9h2.1v8.9l-.3-.4c.3-.8.9-1.5,1.7-2,.8-.5,1.8-.8,2.8-.8s2.1.3,3,.8,1.6,1.3,2.1,2.3.8,2.2.8,3.6-.3,2.6-.8,3.6-1.3,1.8-2.2,2.3c-.9.5-1.9.8-3,.8h0ZM1049.2,650.3c1.3,0,2.3-.4,3-1.3.7-.9,1.1-2.1,1.1-3.6s-.4-2.7-1.1-3.6-1.7-1.3-3-1.3-1.5.2-2.1.6c-.6.4-1.1,1-1.4,1.7s-.5,1.6-.5,2.6.2,1.8.5,2.6.8,1.3,1.4,1.7,1.3.6,2.1.6Z"/>
    <path class="st7" d="M1060.1,636.5c-.5,0-.8,0-1.1-.4-.3-.3-.4-.7-.4-1.1s0-.8.4-1.1.7-.4,1.1-.4.8,0,1.1.4.4.7.4,1.1,0,.8-.4,1.1-.7.4-1.1.4ZM1061.1,638.9v12.9h-2.1v-12.9h2.1Z"/>
    <path class="st7" d="M1073.4,638.9v1.8h-9.4v-1.8h9.4ZM1068.7,635.3v13c0,.6.2,1.1.5,1.4.4.3.8.5,1.4.5s.9,0,1.3-.3c.4-.2.7-.4,1-.7l.7,1.7c-.4.4-.9.6-1.4.9-.5.2-1.2.3-1.9.3s-1.3,0-1.8-.3c-.6-.2-1-.6-1.4-1.1-.3-.5-.5-1.2-.5-2v-12.8l2.1-.6h0Z"/>
    <path class="st7" d="M1083.8,643.5c0-1-.3-1.7-.8-2.2s-1.3-.8-2.2-.8-1.7.2-2.3.6c-.6.4-1.1,1-1.4,1.9l-1.7-1c.3-1,1-1.7,1.9-2.3s2.1-.9,3.5-.9,1.8.2,2.5.5c.8.3,1.4.8,1.8,1.5s.7,1.5.7,2.5v6.3c0,.6.3.9,1,.9s.6,0,1,0v1.6c-.4.2-.9.3-1.4.3s-1,0-1.3-.3c-.4-.2-.7-.5-.9-.9-.2-.4-.3-.9-.3-1.5v-.3h.5c-.2.8-.6,1.3-1.1,1.7s-1.1.7-1.7.9-1.2.3-1.8.3-1.5,0-2.1-.4c-.7-.3-1.2-.7-1.6-1.2s-.6-1.2-.6-2,.3-1.8,1-2.4c.6-.6,1.5-1.1,2.7-1.3l5.1-1v1.7l-4.2.9c-.8.2-1.5.4-1.9.7s-.6.7-.6,1.3.2,1,.6,1.3,1,.5,1.8.5,1,0,1.4-.2c.5,0,.9-.3,1.2-.6.4-.3.6-.6.9-1,.2-.4.3-.9.3-1.4v-3.6Z"/>
    <path class="st7" d="M1096,638.7c.9,0,1.7,0,2.4.4.7.3,1.3.7,1.8,1.2s.9,1.1,1.2,1.8l-2,.9c-.3-.8-.7-1.5-1.3-1.9-.6-.4-1.3-.7-2.2-.7s-1.6.2-2.2.6c-.6.4-1.1,1-1.4,1.7s-.5,1.6-.5,2.7.2,1.9.5,2.6c.3.7.8,1.3,1.4,1.7s1.4.6,2.2.6,1.3,0,1.7-.3.9-.5,1.2-.9c.3-.4.5-.9.7-1.5l1.9.7c-.3.8-.7,1.5-1.2,2-.5.6-1.1,1-1.8,1.3-.7.3-1.5.5-2.4.5s-2.3-.3-3.2-.8c-.9-.5-1.7-1.3-2.2-2.3s-.8-2.2-.8-3.6.3-2.6.8-3.6,1.3-1.8,2.2-2.3,2-.8,3.2-.8h0ZM1094.6,651.8l1.1-.6c1,.3,1.7.8,2.2,1.3.4.6.6,1.2.6,2s-.3,1.5-.9,2.1-1.3.9-2.3.9-1,0-1.4-.2c-.4,0-.8-.3-1-.5l.5-1.5c.2.2.5.3.8.4.3,0,.6.2,1,.2s.9-.2,1.2-.5.5-.8.5-1.3-.2-.8-.5-1.2c-.3-.3-.9-.7-1.7-1h0Z"/>
    <path class="st7" d="M1112.5,643.5c0-1-.3-1.7-.8-2.2s-1.3-.8-2.2-.8-1.7.2-2.3.6c-.6.4-1.1,1-1.4,1.9l-1.7-1c.3-1,1-1.7,1.9-2.3s2.1-.9,3.5-.9,1.8.2,2.5.5c.8.3,1.4.8,1.8,1.5s.7,1.5.7,2.5v6.3c0,.6.3.9,1,.9s.6,0,1,0v1.6c-.4.2-.9.3-1.4.3s-1,0-1.3-.3c-.4-.2-.7-.5-.9-.9-.2-.4-.3-.9-.3-1.5v-.3h.5c-.2.8-.6,1.3-1.1,1.7s-1.1.7-1.7.9-1.2.3-1.8.3-1.5,0-2.1-.4c-.7-.3-1.2-.7-1.6-1.2s-.6-1.2-.6-2,.3-1.8,1-2.4c.6-.6,1.5-1.1,2.7-1.3l5.1-1v1.7l-4.2.9c-.8.2-1.5.4-1.9.7s-.6.7-.6,1.3.2,1,.6,1.3,1,.5,1.8.5,1,0,1.4-.2c.5,0,.9-.3,1.2-.6.4-.3.6-.6.9-1,.2-.4.3-.9.3-1.4v-3.6ZM1114.3,633.3c0,.8-.2,1.4-.4,1.9-.2.5-.6.9-1,1.2s-.9.4-1.5.4-.9,0-1.2-.3c-.3-.2-.6-.4-.9-.6-.2-.2-.5-.4-.7-.6s-.5-.3-.8-.3-.7.2-.9.5c-.2.3-.3.8-.4,1.3h-1.6c0-1.1.4-2,.8-2.6s1.2-.9,2.1-.9.9,0,1.2.3c.3.2.6.4.9.6.2.2.5.4.7.6.2.2.5.3.7.3.4,0,.7-.2.9-.5.2-.3.3-.8.4-1.3h1.7Z"/>
    <path class="st7" d="M1124.7,638.7c1.2,0,2.3.3,3.2.8.9.5,1.7,1.3,2.2,2.3s.8,2.2.8,3.6-.3,2.6-.8,3.6-1.3,1.8-2.2,2.3c-.9.5-2,.8-3.2.8s-2.3-.3-3.2-.8c-.9-.5-1.7-1.3-2.2-2.3s-.8-2.2-.8-3.6.3-2.6.8-3.6,1.3-1.8,2.2-2.3,2-.8,3.2-.8ZM1124.7,640.5c-.9,0-1.6.2-2.3.6-.6.4-1.1,1-1.4,1.7s-.5,1.6-.5,2.7.2,1.9.5,2.6.8,1.3,1.4,1.7,1.4.6,2.3.6,1.6-.2,2.3-.6,1.1-1,1.4-1.7.5-1.6.5-2.6-.2-1.9-.5-2.7c-.3-.7-.8-1.3-1.4-1.7s-1.4-.6-2.3-.6Z"/>
  </g>
  <g>
    <path class="st9" d="M454.7,411.3l-1.2,1.3,4.5,4.1-4.3,4.6-13.5-12.5,6.8-7.3c3.3-3.6,6.6-4,9.6-1.3,2,1.8,2.5,3.9,1.7,6.1l7.9,1.4-4.8,5.2-6.7-1.8v.2ZM450.4,409.7l1.6-1.7c1.1-1.2,1.2-2,.3-2.8-.9-.8-1.7-.7-2.8.5l-1.6,1.7,2.5,2.3Z"/>
    <path class="st9" d="M474.8,393.4l3.3,3.5-11.4,10.7-12.6-13.4,11.1-10.4,3.3,3.5-6.4,6,1.6,1.7,5.2-4.8,3,3.2-5.2,4.8,1.5,1.6,6.6-6.2v-.2Z"/>
    <path class="st9" d="M487,377.7c3.7,4.5,3.5,9-1,12.6l-7,5.7-11.6-14.2,7-5.7c4.5-3.6,8.9-2.9,12.5,1.6h.1ZM481.8,381.9c-2-2.4-3.4-3.2-5.2-1.6l-1.3,1,5.8,7.1,1.3-1c1.9-1.5,1.4-3-.6-5.4h0Z"/>
    <path class="st9" d="M504.1,371.1l2.7,3.9-12.7,9-10.6-15,12.5-8.8,2.7,3.9-7.2,5,1.3,1.9,5.8-4.1,2.5,3.6-5.8,4.1,1.2,1.8,7.4-5.2h.2Z"/>
    <path class="st9" d="M513.8,352.3l-.3,4.9c-2.3-.5-4-.1-5.8.9-1.1.7-1.6,1.5-1.3,2,.2.4,1.2,0,2.6-.5,5.1-2,7.9-1.6,9.7,1.4,2,3.3,0,7-3.9,9.3-4,2.4-6.3,2.7-9,2.5v-5.2c2.2.5,4.1.2,6.2-1.1,1.3-.8,1.5-1.4,1.3-1.8-.3-.5-1.4-.1-2.9.4-2.8,1.1-7,2.7-9.3-1.2-2-3.2-.7-7,4.1-9.9,3-1.8,5.4-2.5,8.7-1.9v.2Z"/>
    <path class="st9" d="M536.6,340.8l-.8,4.9c-2.2-.7-4-.5-5.8.4s-1.7,1.3-1.5,1.9c.2.4,1.2.1,2.6-.3,5.3-1.5,8-.8,9.6,2.3,1.7,3.5-.7,7-4.8,8.9-4.2,2-6.5,2.1-9.2,1.6l.6-5.2c2.1.7,4,.5,6.2-.5,1.4-.7,1.7-1.2,1.5-1.6-.3-.6-1.4-.3-3,.2-2.9.8-7.2,2-9.2-2.1-1.6-3.4,0-7,5-9.4,3.2-1.5,5.6-2,8.9-1.1h0Z"/>
    <path class="st9" d="M557.7,339.3c2.2,5.6.3,10.1-5.1,12.2-5.4,2.2-10,.3-12.2-5.3s-.2-10.1,5.2-12.3c5.4-2.2,9.9-.3,12.2,5.3h-.1ZM546.5,343.8c1.2,3,2.5,4,4.2,3.2,1.8-.7,2-2.3.8-5.3s-2.5-4-4.2-3.3c-1.8.7-2,2.3-.8,5.3h0Z"/>
    <path class="st9" d="M571.1,345c-5.5,1.8-10-.5-11.8-6.2s.5-10.1,6.1-11.8c3.8-1.2,7.7-.7,9.6,2.8l-4.7,3.7c-1-2.2-1.9-2.4-3.4-1.9-1.8.6-2.3,2.2-1.4,5.2.9,3,2.2,4.1,4.1,3.5,1.7-.5,2.1-1.4,1.8-3.2l5.9-.3c.3,4.4-2.3,6.9-6.3,8.2h.1Z"/>
    <path class="st9" d="M586.5,340.4l-6.3,1.6-4.6-17.8,6.3-1.6,4.6,17.8Z"/>
    <path class="st9" d="M598.4,334.2l-4.9,1-.2,3.6-6.3,1.3,2.2-19.2,7.6-1.5,9.5,16.8-6.5,1.3-1.5-3.3h.1ZM596.7,330.5l-2.7-5.7h0v6.3c0,0,2.8-.6,2.8-.6h0Z"/>
    <path class="st9" d="M613.4,335.3l-6.4.9-2.7-18.2,6.4-.9,2.7,18.2Z"/>
    <path class="st9" d="M630.6,317.7l-2.4,4.3c-1.8-1.4-3.5-1.9-5.6-1.7-1.3.1-2.1.6-2,1.3,0,.5,1.1.5,2.6.6,5.5.5,7.8,2.1,8.1,5.5.4,3.9-3.1,6.2-7.6,6.7-4.6.4-6.8-.3-9.2-1.7l2.4-4.6c1.7,1.4,3.6,1.9,5.9,1.7,1.6-.1,2-.6,1.9-1,0-.6-1.2-.7-2.8-.9-3-.2-7.4-.6-7.9-5.2-.4-3.7,2.5-6.6,8-7.1,3.5-.3,5.9.1,8.7,2.1h-.1Z"/>
    <path class="st9" d="M655.2,328.2v4.8l-15.5.3-.3-18.4,15.2-.3v4.8h-8.7v2.4h7.1c0-.1,0,4.3,0,4.3h-7v2.3l9.1-.2h.1Z"/>
    <path class="st9" d="M671.8,334.4c-5.8-.5-9-4.3-8.5-10.3s4.4-9.1,10.2-8.6c4,.4,7.4,2.3,7.8,6.3l-5.7,1.7c0-2.4-.8-3-2.3-3.1-1.9-.2-3,1.2-3.3,4.3-.3,3.1.5,4.7,2.4,4.8,1.8.2,2.5-.5,2.9-2.3l5.6,2c-1.4,4.2-4.8,5.5-9,5.1h-.1Z"/>
    <path class="st9" d="M700.6,329c-1,5.9-5,8.8-10.7,7.8-5.7-.9-8.7-4.9-7.7-10.9s5-8.8,10.8-7.8c5.8.9,8.6,4.9,7.7,10.8h0ZM688.7,327c-.5,3.2,0,4.7,1.9,5s2.9-.9,3.4-4.1,0-4.7-1.9-5-2.9.9-3.4,4.1Z"/>
    <path class="st9" d="M723.5,344.1l-5.5-1.4,1.6-6.2,1.6-6h0l-6.6,11.2-5-1.3-.3-13h0l-1.5,6-1.6,6.2-5.5-1.4,4.6-17.8,8.8,2.3v11.9h0l1.6-3.1,4.1-7.4,8.4,2.2-4.6,17.8h0Z"/>
    <path class="st9" d="M744.5,343.2c-1.8,5.2-5.5,6.7-11.1,4.8-5.6-2-7.5-5.5-5.6-10.7l3.5-9.9,6.1,2.2-3.7,10.3c-.6,1.8-.2,2.9,1.3,3.4s2.6,0,3.2-1.9l3.7-10.3,6.1,2.2-3.5,9.9Z"/>
    <path class="st9" d="M759.9,358.6l-6.4-2.8-.6-9.4v-2.5h0l-1.4,3.5-2.8,6.2-5.1-2.3,7.4-16.8,6.4,2.8.6,9.4v2.4h0l1.4-3.5,2.8-6.2,5.1,2.3-7.4,16.8h0Z"/>
    <path class="st9" d="M767.7,362.7l-5.8-3,8.4-16.3,5.8,3-8.4,16.3Z"/>
    <path class="st9" d="M791.4,360.5l-5-2.9-6.8,11.8-5.6-3.3,6.8-11.8-5-2.9,2.4-4.1,15.5,9-2.4,4.1h0Z"/>
    <path class="st9" d="M796.5,376.1l-4.1-2.8-2.7,2.4-5.3-3.6,15.3-11.8,6.4,4.4-5.4,18.5-5.5-3.7,1.3-3.4ZM798,372.2l2.2-5.9h0l-2.4,2.1-2.3,2.1,2.5,1.7h0ZM805.3,362.5l-3.7-2.6,4-2.9,4.5,3.1-4.7,2.4h0Z"/>
    <path class="st9" d="M811.2,383.8l-1.4-1.1-3.8,4.8-5-3.9,11.4-14.4,7.8,6.2c3.8,3,4.5,6.2,2,9.4-1.7,2.1-3.7,2.8-6,2.2l-.8,8-5.5-4.4,1.2-6.8h0ZM812.5,379.4l1.8,1.4c1.3,1,2,1.1,2.8,0,.8-1,.6-1.7-.7-2.7l-1.8-1.4-2.1,2.7Z"/>
    <path class="st9" d="M820.7,399.9l-4.8-4.3,12.2-13.7,4.8,4.3-12.2,13.7Z"/>
    <path class="st9" d="M832.5,406.3l-3.5-3.5-3.1,1.9-4.6-4.5,17.1-8.9,5.5,5.5-8.6,17.3-4.7-4.7,1.9-3.1h0ZM834.7,402.8l3.2-5.4h0l-2.7,1.7-2.6,1.6,2.2,2.1h-.1Z"/>
    <path class="st9" d="M858.3,416.5l-4.9.5c0-2.3-.6-4-1.9-5.5-.9-1-1.8-1.3-2.2-.9-.4.3.2,1.2,1,2.5,2.8,4.7,2.9,7.5.3,9.8-2.9,2.6-6.9,1.1-9.9-2.2-3.1-3.5-3.8-5.7-4-8.5l5.1-.8c0,2.2.6,4,2.1,5.8,1,1.2,1.6,1.3,2,1,.5-.4,0-1.4-.9-2.8-1.6-2.6-3.9-6.4-.5-9.4,2.8-2.5,6.8-1.9,10.4,2.3,2.3,2.6,3.4,4.8,3.4,8.3h0Z"/>
  </g>
  <g>
    <g>
      <path class="st7" d="M525.1,188c-6.5,0-10.5-3.9-10.5-10.6s4-10.6,10.5-10.6,8.5,1.8,9.4,6.3l-6.3,2.4c-.3-2.7-1.2-3.2-2.9-3.2s-3.3,1.6-3.3,5.2,1,5.2,3.2,5.2,2.7-.8,3-2.8l6.4,1.7c-1.2,4.9-4.8,6.6-9.5,6.6v-.2Z"/>
      <path class="st7" d="M552.7,179.8c0,5.2-3.2,8.1-8.7,8.1s-8.7-3-8.7-8.1,3.2-8.1,8.7-8.1,8.7,3,8.7,8.1ZM542.4,179.8c0,2.6.3,3.3,1.5,3.3s1.5-.7,1.5-3.3-.3-3.3-1.5-3.3-1.5.7-1.5,3.3Z"/>
      <path class="st7" d="M571.2,176.9v10.7h-7.2v-8.8c0-1.4-.3-1.8-1.1-1.8s-1.5.8-1.5,2.4v8.2h-7.2v-15.6h6.5l.2,3.4c.9-2.4,2.8-3.7,5.4-3.7s4.9,1.9,4.9,5.3h0Z"/>
      <path class="st7" d="M590.5,165.7v21.9h-6.5l-.2-3.1c-.9,2.1-2.6,3.4-4.9,3.4-3.8,0-6-2.9-6-8s2.2-8.2,6-8.2,3.6,1.2,4.4,2.9v-8.9h7.2ZM583.3,180v-.3c0-2-.5-2.9-1.5-2.9s-1.6.6-1.6,3.1.6,3.1,1.6,3.1,1.5-.8,1.5-3h0Z"/>
      <path class="st7" d="M592.3,168c0-2.2,1.1-3,3.9-3s3.9.8,3.9,3-1.1,3-3.9,3-3.9-.8-3.9-3ZM599.8,187.6h-7.2v-15.6h7.2v15.6Z"/>
      <path class="st7" d="M611.8,181l6.4,2c0,2-1.7,3.8-4.8,4.6,1.1.7,1.6,1.7,1.6,2.8,0,2.9-2.3,3.9-5,3.9s-3.4-.7-4.2-1.4l1.4-3c.5.5,1.3.9,2.3.9s1.7-.5,1.7-1.4-.4-1.2-1.7-1.6c-5.4-.3-8.2-3.2-8.2-8.1s3.2-8.1,8.7-8.1,8.2,2.8,8.3,5.3l-6.6,1.9c0-1.7-.4-2.4-1.3-2.4-1.3,0-1.8.8-1.8,3.4s.8,3.2,1.8,3.2,1.3-.7,1.4-2.1h0Z"/>
      <path class="st7" d="M636.5,179.8c0,5.2-3.2,8.1-8.7,8.1s-8.7-3-8.7-8.1,3.2-8.1,8.7-8.1,8.7,3,8.7,8.1ZM629.8,170.7c-2.5,0-2.8-1.6-3.9-1.6s-.8.4-.9,1.5h-3.7c0-3.8,1.7-5.5,4.6-5.5s2.8,1.6,3.9,1.6.8-.4.9-1.5h3.7c0,3.8-1.7,5.5-4.6,5.5ZM626.3,179.8c0,2.6.3,3.3,1.5,3.3s1.5-.7,1.5-3.3-.3-3.3-1.5-3.3-1.5.7-1.5,3.3Z"/>
      <path class="st7" d="M654.3,181.2h-10c.2,1.6.9,2,2.2,2s1.7-.5,1.9-1.3l5.8,1.6c-.7,3.1-3.8,4.6-7.7,4.6-6,0-9-2.9-9-8.1s3.2-8.1,8.7-8.1,8.3,3.1,8.3,7.6,0,1.5-.2,1.9v-.2ZM644.3,178.5h3.4c0-1.4-.5-2.1-1.6-2.1s-1.6.5-1.8,2.1h0Z"/>
      <path class="st7" d="M655,185.6l3.2-3.8c1.1,1,2.8,1.8,4.6,1.8s1.4-.1,1.4-.5-.6-.7-2.3-1c-4.6-.9-6.5-2.5-6.5-5s2.5-5.4,8.5-5.4,6.4,1.2,7.5,2.3l-2.9,3.5c-1.2-1.2-2.8-1.4-4.3-1.4s-1.6.3-1.6.6.5.4,1.9.6c4.8.7,6.9,2.3,6.9,5.1s-2.3,5.6-8.1,5.6-6.4-.7-8.3-2.3h0Z"/>
      <path class="st7" d="M697.2,165.7v21.9h-6.5l-.2-3.1c-.9,2.1-2.6,3.4-4.9,3.4-3.8,0-6-2.9-6-8s2.2-8.2,6-8.2,3.6,1.2,4.4,2.9v-8.9h7.2ZM690,180v-.3c0-2-.5-2.9-1.5-2.9s-1.6.6-1.6,3.1.6,3.1,1.6,3.1,1.5-.8,1.5-3h0Z"/>
      <path class="st7" d="M715.5,181.2h-10c.2,1.6.9,2,2.2,2s1.7-.5,1.9-1.3l5.8,1.6c-.7,3.1-3.8,4.6-7.7,4.6-6,0-9-2.9-9-8.1s3.2-8.1,8.7-8.1,8.3,3.1,8.3,7.6,0,1.5-.2,1.9v-.2ZM705.6,178.5h3.4c0-1.4-.5-2.1-1.6-2.1s-1.6.5-1.8,2.1h0Z"/>
      <path class="st7" d="M738.9,187.6h-8.7l-7-20.7h7.6l2.8,11.3,1,4,.9-4,2.9-11.4h7.3l-7,20.7h.2Z"/>
      <path class="st7" d="M746.3,168c0-2.2,1.1-3,3.9-3s3.9.8,3.9,3-1.1,3-3.9,3-3.9-.8-3.9-3ZM753.8,187.6h-7.2v-15.6h7.2v15.6Z"/>
      <path class="st7" d="M773.1,165.7v21.9h-6.5l-.2-3.1c-.9,2.1-2.6,3.4-4.9,3.4-3.8,0-6-2.9-6-8s2.2-8.2,6-8.2,3.6,1.2,4.4,2.9v-8.9h7.2ZM765.9,180v-.3c0-2-.5-2.9-1.5-2.9s-1.6.6-1.6,3.1.6,3.1,1.6,3.1,1.5-.8,1.5-3h0Z"/>
      <path class="st7" d="M792.7,183.7l-.6,3.7c-.8.4-1.5.6-2.3.6-2.5,0-4.3-.9-4.9-2.6-.9,1.5-2.7,2.6-5.6,2.6s-4.8-1.3-4.8-3.7,1.7-4.1,6.1-5l3.1-.7v-.6c0-1-.5-1.5-1.4-1.5s-1.6.4-1.7,1.9l-5.9-.9c.3-3.5,2.9-5.7,8-5.7s8.1,2.2,8.1,6.4v4.4c0,.9.4,1.3,1.1,1.3s.6,0,.8-.1h0ZM783.7,182.5v-1.5l-1,.3c-.9.3-1.4.8-1.4,1.6s.5,1.1,1.1,1.1,1.3-.5,1.3-1.5h0Z"/>
      <path class="st7" d="M566.2,218.8h-10c.2,1.6.9,2,2.2,2s1.7-.5,1.9-1.3l5.8,1.6c-.7,3.1-3.8,4.6-7.7,4.6-6,0-9-2.9-9-8.1s3.2-8.1,8.7-8.1,8.3,3.1,8.3,7.6,0,1.5-.2,1.9v-.2ZM556.2,216.1h3.4c0-1.4-.5-2.1-1.6-2.1s-1.6.5-1.8,2.1h0Z"/>
      <path class="st7" d="M592.6,203.3v21.9h-6.5l-.2-3.1c-.9,2.1-2.6,3.4-4.9,3.4-3.8,0-6-2.9-6-8s2.2-8.2,6-8.2,3.6,1.2,4.4,2.9v-8.9h7.2ZM585.4,217.5v-.3c0-2-.5-2.9-1.5-2.9s-1.6.6-1.6,3.1.6,3.1,1.6,3.1,1.5-.8,1.5-3h0Z"/>
      <path class="st7" d="M611,218.8h-10c.2,1.6.9,2,2.2,2s1.7-.5,1.9-1.3l5.8,1.6c-.7,3.1-3.8,4.6-7.7,4.6-6,0-9-2.9-9-8.1s3.2-8.1,8.7-8.1,8.3,3.1,8.3,7.6,0,1.5-.2,1.9v-.2ZM601,216.1h3.4c0-1.4-.5-2.1-1.6-2.1s-1.6.5-1.8,2.1h0Z"/>
      <path class="st7" d="M639.8,209.9h-6.4v15.3h-7.3v-15.3h-6.5v-5.4h20.2v5.4Z"/>
      <path class="st7" d="M654.2,209.6l-.6,5.9c-.4-.3-1.1-.5-2-.5-1.9,0-3.1.9-3.1,2.7v7.5h-7.2v-15.6h6.5l.2,3.9c.7-2.6,2.1-4.2,4.6-4.2s1.4.2,1.6.4h0Z"/>
      <path class="st7" d="M672.4,221.2l-.6,3.7c-.8.4-1.5.6-2.3.6-2.5,0-4.3-.9-4.9-2.6-.9,1.5-2.7,2.6-5.6,2.6s-4.8-1.3-4.8-3.7,1.7-4.1,6.1-5l3.1-.7v-.6c0-1-.5-1.5-1.4-1.5s-1.6.4-1.7,1.9l-5.9-.9c.3-3.5,2.9-5.7,8-5.7s8.1,2.2,8.1,6.4v4.4c0,.9.4,1.3,1.1,1.3s.6,0,.8-.1h0ZM663.4,220.1v-1.5l-1,.3c-.9.3-1.4.8-1.4,1.6s.5,1.1,1.1,1.1,1.3-.5,1.3-1.5h0Z"/>
      <path class="st7" d="M690.6,217.5c0,5.1-2.1,8-6,8s-4.3-1.6-5.1-4l-.2,3.7h-6.3v-21.9h7.2v8.9c.8-1.8,2.2-2.9,4.4-2.9,3.8,0,6,3,6,8.2h0ZM683.4,217.4c0-2.5-.6-3.1-1.6-3.1s-1.5.9-1.5,2.9v.3c0,2.2.6,3,1.5,3s1.6-.6,1.6-3.1h0Z"/>
      <path class="st7" d="M709.8,221.2l-.6,3.7c-.8.4-1.5.6-2.3.6-2.5,0-4.3-.9-4.9-2.6-.9,1.5-2.7,2.6-5.6,2.6s-4.8-1.3-4.8-3.7,1.7-4.1,6.1-5l3.1-.7v-.6c0-1-.5-1.5-1.4-1.5s-1.6.4-1.7,1.9l-5.9-.9c.3-3.5,2.9-5.7,8-5.7s8.1,2.2,8.1,6.4v4.4c0,.9.4,1.3,1.1,1.3s.6,0,.8-.1h0ZM700.8,220.1v-1.5l-1,.3c-.9.3-1.4.8-1.4,1.6s.5,1.1,1.1,1.1,1.3-.5,1.3-1.5h0Z"/>
      <path class="st7" d="M717.6,219c0,1.3.3,1.8,1.3,1.8s.8,0,1.1-.2l-.3,3.9c-.8.6-2.5,1-3.9,1-3.9,0-5.4-1.5-5.4-5.4v-16.8h7.2v15.7h0Z"/>
      <path class="st7" d="M737.8,214.5v10.7h-7.2v-8.8c0-1.4-.3-1.8-1.1-1.8s-1.5.8-1.5,2.5v8.2h-7.2v-21.9h7.2v9.5c.8-2.3,2.5-3.5,4.9-3.5s4.9,1.9,4.9,5.3v-.2Z"/>
      <path class="st7" d="M756.7,217.4c0,5.2-3.2,8.1-8.7,8.1s-8.7-3-8.7-8.1,3.2-8.1,8.7-8.1,8.7,3,8.7,8.1ZM746.5,217.4c0,2.6.3,3.3,1.5,3.3s1.5-.7,1.5-3.3-.3-3.3-1.5-3.3-1.5.7-1.5,3.3Z"/>
    </g>
    <g>
      <g>
        <path class="st1" d="M498.5,194.3c-53.8-2.4-80,32.3-91.1,54"/>
        <polygon class="st9" points="394.6 208.5 409.3 244 444.7 229.3 435.9 250.6 400.4 265.2 385.8 229.7 394.6 208.5"/>
      </g>
      <g>
        <path class="st1" d="M807.6,194.3c53.8-2.4,80,32.3,91.1,54"/>
        <polygon class="st9" points="861.4 229.3 896.8 244 911.4 208.5 920.3 229.7 905.7 265.2 870.2 250.6 861.4 229.3"/>
      </g>
    </g>
  </g>
  <g>
    <path class="st9" d="M202.6,307.9c-3.7,5.4-9.1,6.6-14.7,2.8-5.6-3.8-6.6-9.2-3-14.7,2.5-3.8,6.3-6,10.4-4.3l-1.5,6.6c-2.4-1.2-3.4-.8-4.3.6-1.2,1.8-.5,3.6,2.5,5.6,2.9,2,4.8,2.1,6.1.2,1.1-1.7.8-2.7-.7-4l5-4.4c3.4,3.7,2.8,7.7.2,11.6h0Z"/>
    <path class="st9" d="M212.1,276.3c5.5,4,6.3,9.4,2.4,14.7-3.9,5.3-9.3,6.2-14.8,2.2s-6.2-9.5-2.4-14.8c3.9-5.3,9.3-6.2,14.8-2.2h0ZM204.1,287.2c2.9,2.1,4.7,2.3,6,.6,1.3-1.7.5-3.4-2.4-5.5s-4.7-2.3-6-.6c-1.3,1.7-.5,3.4,2.4,5.5Z"/>
    <path class="st9" d="M234.3,265l-4.9,6.2-10.4-2-2.7-.7h0l3.4,2.6,6,4.8-3.9,4.9-16.2-12.9,4.9-6.2,10.5,2,2.7.7h0l-3.4-2.6-6-4.8,3.9-4.9,16.2,12.9h-.1Z"/>
    <path class="st9" d="M241.2,241.1c5,4.3,5.6,9.3,1.4,14.2l-6.6,7.7-15.6-13.5,6.6-7.7c4.2-4.9,9.3-4.9,14.2-.6h0ZM236.3,246.8c-2.7-2.3-4.3-2.8-6.1-.8l-1.2,1.4,7.8,6.7,1.2-1.4c1.8-2,1-3.6-1.7-5.9Z"/>
    <path class="st9" d="M255.4,241.1l-4.9,5.4-15.2-14,4.9-5.4,15.2,14Z"/>
    <path class="st9" d="M266.1,229.9c1.2-.2,2.3.1,3,.9,2.1,2.1,1.2,4.4-.7,6.3-1.6,1.6-2.9,2-3.9,2l-1.1-3.1c.7,0,1.5-.3,2.2-1s.8-1.5.2-2.2c-.5-.5-1.2-.6-2.4.1-4.4,3.9-9.6,3.8-14.2-.7-4.8-4.7-4.9-10.3-.3-15,3.2-3.3,7.3-4.8,11-2.4l-2.6,6.2c-2.2-1.6-3.2-1.4-4.4-.1-1.5,1.5-1.1,3.4,1.4,5.9s4.4,2.9,5.9,1.3c1.4-1.4,1.3-2.5,0-4.1l5.7-3.5c2.1,3.3,1.8,6.4,0,9.1l.2.3Z"/>
    <path class="st9" d="M265.1,200.1c-1.8,1.7-3.1.8-3.9,1.6-.4.4-.3.9.4,1.7l-2.7,2.5c-2.5-2.8-2.5-5.2-.5-7.1,1.8-1.7,3.1-.8,3.9-1.6.4-.4.3-.9-.4-1.7l2.7-2.5c2.5,2.8,2.5,5.2.5,7.1ZM279.3,202.8c4.7,4.9,4.5,10.4-.3,14.9-4.7,4.5-10.3,4.4-15-.5s-4.4-10.5.3-15c4.8-4.5,10.3-4.4,14.9.5h.1ZM269.4,212.1c2.5,2.6,4.2,3.1,5.8,1.6,1.5-1.5,1.1-3.2-1.4-5.8s-4.2-3.1-5.8-1.7-1.1,3.2,1.3,5.9h.1Z"/>
    <path class="st9" d="M297.5,193.3l3.5,4-13.2,11.6-13.6-15.5,12.9-11.3,3.5,4-7.4,6.5,1.7,1.9,6-5.3,3.3,3.7-6,5.3,1.6,1.8,7.7-6.8h0Z"/>
    <path class="st9" d="M305.4,170.9l.4,5.5c-2.6-.1-4.5.5-6.3,2-1.1.9-1.5,1.9-1.1,2.4.3.4,1.4-.2,2.8-1,5.4-3,8.6-3,11.1,0,2.8,3.4,1,7.8-2.9,11-4,3.3-6.6,4-9.7,4.2l-.7-5.8c2.4.2,4.5-.5,6.6-2.2,1.4-1.1,1.5-1.8,1.2-2.2-.5-.6-1.6,0-3.2,1-3,1.7-7.3,4.1-10.6.1-2.7-3.3-1.8-7.7,3-11.6,3.1-2.5,5.6-3.6,9.4-3.5h0Z"/>
    <path class="st9" d="M327.9,154v5.5c-2.4-.3-4.4.2-6.2,1.6-1.2.9-1.6,1.8-1.2,2.4.3.4,1.4-.1,2.9-.9,5.5-2.7,8.7-2.5,11.1.6,2.6,3.5.6,7.8-3.5,10.8-4.2,3.1-6.8,3.7-9.9,3.7l-.4-5.8c2.4.3,4.5-.2,6.7-1.8,1.4-1,1.6-1.7,1.3-2.1-.4-.6-1.6,0-3.2.8-3,1.5-7.5,3.7-10.6-.4-2.5-3.4-1.5-7.8,3.6-11.5,3.2-2.3,5.8-3.3,9.6-3h-.2Z"/>
    <path class="st9" d="M350.4,147.6c3.8,5.6,2.8,11-2.7,14.7-5.4,3.7-10.9,2.7-14.7-2.9-3.8-5.6-2.7-11,2.7-14.7,5.4-3.7,10.9-2.7,14.7,2.9ZM339.2,155.2c2,3,3.7,3.7,5.4,2.5s1.6-3-.4-6-3.7-3.8-5.4-2.6-1.7,3,.4,6h0Z"/>
    <path class="st9" d="M366.4,150.1c-5.5,3.5-11,2.3-14.6-3.5-3.6-5.7-2.3-11.1,3.3-14.6,3.8-2.4,8.2-2.9,11.3.3l-4,5.4c-1.7-2.1-2.7-2.1-4.2-1.2-1.8,1.1-1.9,3.1,0,6.1s3.6,3.9,5.4,2.7c1.7-1.1,1.9-2.2,1-4l6.3-2c1.6,4.7-.6,8.2-4.6,10.7h.1Z"/>
    <path class="st9" d="M381.8,140.5l-6.3,3.7-10.4-17.8,6.3-3.7,10.4,17.8Z"/>
    <path class="st9" d="M397.1,120.2c3.2,5.9,1.7,11.2-4.1,14.4-5.7,3.1-11.1,1.6-14.3-4.3s-1.6-11.2,4.1-14.4c5.8-3.1,11.1-1.6,14.3,4.3ZM385.2,126.7c1.7,3.2,3.3,4.1,5.2,3.1,1.9-1,1.9-2.8.2-6-1.7-3.2-3.3-4.1-5.1-3.1s-1.9,2.8-.2,6h-.1Z"/>
    <path class="st9" d="M417.1,115.8l2.4,4.8-15.7,7.8-9.2-18.5,15.4-7.6,2.4,4.8-8.8,4.4,1.1,2.3,7.1-3.5,2.2,4.4-7.1,3.5,1.1,2.2,9.2-4.6h-.1Z"/>
    <path class="st9" d="M430.1,116.1c-6,2.7-11.2.8-14-5.4s-.8-11.3,5.2-14c4.1-1.9,8.5-1.8,11.1,1.8l-4.7,4.8c-1.4-2.3-2.4-2.4-4-1.7-2,.9-2.3,2.8-.8,6s3,4.3,5,3.4c1.8-.8,2.1-1.9,1.5-3.8l6.6-1.1c.9,4.9-1.7,8-6,10h0Z"/>
    <path class="st9" d="M454.8,94.2c2.5,6.3.4,11.3-5.7,13.8s-11.2.4-13.7-5.9-.3-11.4,5.8-13.8c6.1-2.5,11.2-.3,13.7,5.9h0ZM442.2,99.3c1.4,3.3,2.8,4.4,4.8,3.6s2.2-2.6.9-5.9c-1.4-3.3-2.8-4.4-4.8-3.6s-2.3,2.6-.9,5.9Z"/>
    <path class="st9" d="M479.6,96.3l-7.4,2.7-7.8-7.2-1.9-2h0l1.5,4,2.6,7.2-6,2.1-6.9-19.5,7.4-2.7,7.8,7.2,1.9,2h0l-1.5-4-2.6-7.2,6-2.1,6.9,19.5Z"/>
    <path class="st9" d="M498.4,79.6c2,6.5-.6,11.3-6.9,13.3-6.2,1.9-11.2-.6-13.2-7s.6-11.3,6.9-13.3c6.3-1.9,11.2.6,13.2,7.1h0ZM486.5,70.8l-2.4-1.9-.9,3-4.4,1.4,1.3-5.9,6.5-2,4.4,4.1-4.4,1.4h-.1ZM485.5,83.6c1.1,3.4,2.4,4.7,4.5,4,2-.6,2.4-2.4,1.4-5.8-1.1-3.4-2.4-4.7-4.4-4-2,.6-2.5,2.4-1.4,5.8h-.1Z"/>
    <path class="st9" d="M529,82.2l-6.2,1.6-1.8-6.9-1.7-6.8h0l-.3,14.7-5.6,1.5-7.4-12.7h-.1l1.8,6.7,1.8,6.9-6.2,1.6-5.2-20,9.9-2.6,4.6,8.3,1.8,3.5h0v-13.5l9.4-2.4,5.2,20h0Z"/>
    <path class="st9" d="M538.8,80.2l-7.1,1.6-4.5-20.2,7.1-1.6,4.5,20.2Z"/>
    <path class="st9" d="M551.2,78c-6.4,1.2-11.1-1.8-12.3-8.5-1.3-6.6,1.9-11.2,8.3-12.4,4.5-.9,8.7.2,10.4,4.4l-5.7,3.6c-.8-2.6-1.8-2.9-3.5-2.6-2.1.4-2.9,2.2-2.2,5.7s2,4.9,4.1,4.5c2-.4,2.5-1.3,2.4-3.3l6.6.4c-.2,5-3.5,7.4-8.1,8.3h0Z"/>
    <path class="st9" d="M573,70l-5.5.8-.4,4-7.2,1.1,3.5-21.4,8.7-1.3,9.7,19.4-7.4,1.1-1.5-3.8h.1ZM571.3,65.7l-2.7-6.6h0l-.3,3.6-.3,3.5,3.4-.5h-.1Z"/>
    <path class="st9" d="M599,53l-2.7,4.9c-2.1-1.5-4-2-6.3-1.8-1.5.2-2.3.8-2.3,1.5s1.3.6,2.9.7c6.2.4,8.8,2.2,9.3,6.1.5,4.4-3.4,7.1-8.4,7.7-5.2.6-7.7-.2-10.4-1.8l2.6-5.3c1.9,1.5,4,2.1,6.7,1.8,1.7-.2,2.2-.7,2.2-1.2s-1.4-.8-3.2-.9c-3.4-.2-8.4-.6-9-5.6-.5-4.2,2.6-7.4,8.8-8.1,3.9-.4,6.6,0,9.8,2.2v-.2Z"/>
    <path class="st9" d="M609.3,68.1c.3,3-1.2,5.8-4.4,7.4l-3.2-1.7c2-1,3.6-2.1,4.1-3.8h-.2c-.3.2-.6.4-1,.4-1.6,0-3.3-.7-3.4-2.8-.2-2.4,1.2-3.6,3.5-3.8,2.8-.2,4.2,1.8,4.5,4.3h.1Z"/>
    <path class="st9" d="M628.8,69c-6.5.3-10.7-3.4-11-10.2s3.5-10.8,10-11.1c4.5-.2,8.6,1.5,9.7,5.8l-6.1,2.7c-.5-2.7-1.4-3.2-3.1-3.1-2.2,0-3.2,1.7-3,5.3.2,3.5,1.2,5.1,3.4,5,2,0,2.7-1,2.8-2.9l6.5,1.4c-.9,4.9-4.5,6.8-9.2,7.1h0Z"/>
    <path class="st9" d="M659,59.2c0,6.2-3.2,9.3-9.8,9.4s-10-2.9-10.1-9l-.2-11.8h7.3c0,0,.2,12.2.2,12.2,0,2.1,1,3.1,2.7,3.1s2.7-1.1,2.6-3.2l-.2-12.3h7.3c0,0,.2,11.6.2,11.6Z"/>
    <path class="st9" d="M678.1,63.4l-.2,5.4-16.6-.5.6-20.7,7.3.2-.5,15.3,9.4.3Z"/>
    <path class="st9" d="M700,54.8l-6.4-.4-1,15.3-7.3-.5,1-15.3-6.5-.4.4-5.3,20.2,1.3s-.4,5.3-.4,5.3Z"/>
    <path class="st9" d="M721,63.4c-.6,6.1-4.3,8.8-10.9,8.1-6.6-.7-9.6-4.1-9-10.2l1.2-11.7,7.3.8-1.3,12.3c-.2,2.1.6,3.2,2.3,3.4,1.7.2,2.8-.8,3-2.9l1.3-12.3,7.3.8-1.2,11.7h0Z"/>
    <path class="st9" d="M732.3,67.1l-2-.3-1,6.8-7.1-1,3-20.4,11.1,1.6c5.5.8,7.9,3.5,7.3,8s-2,4.8-4.6,5.5l3.7,8.3-7.8-1.1-2.6-7.3h0ZM731,62l2.6.4c1.8.3,2.6,0,2.8-1.5s-.4-2-2.2-2.3l-2.6-.4-.5,3.8h0Z"/>
    <path class="st9" d="M756.1,74l-5.5-1-1.7,3.7-7.1-1.3,10.4-19.1,8.6,1.6,2.8,21.5-7.3-1.4s-.2-4-.2-4ZM755.8,69.3l-.4-7.1h0l-1.4,3.3-1.4,3.2,3.4.6h-.2Z"/>
    <path class="st9" d="M771.5,81.2l-7.1-1.5,4.4-20.2,7.1,1.5-4.4,20.2Z"/>
    <path class="st9" d="M796.3,69l-4.2,3.6c-1.4-2.2-3.1-3.3-5.3-3.9-1.4-.3-2.5,0-2.6.6,0,.5,1,1,2.5,1.6,5.6,2.5,7.5,5.1,6.6,8.9-1,4.3-5.6,5.5-10.6,4.3-5.1-1.2-7.1-2.8-9.2-5.2l4.2-4.1c1.3,2.1,3.1,3.3,5.7,4,1.7.4,2.3,0,2.4-.4.2-.7-1-1.3-2.7-2-3.1-1.4-7.7-3.4-6.5-8.4,1-4.1,5-6.1,11.1-4.6,3.8.9,6.2,2.3,8.5,5.5h0Z"/>
    <path class="st9" d="M818.8,88.4l-1.5,5.1-16.8-5,5.9-19.8,16.4,4.9-1.5,5.1-9.5-2.8-.7,2.5,7.6,2.3-1.4,4.7-7.6-2.3-.7,2.3,9.8,2.9h0Z"/>
    <path class="st9" d="M838.5,96.6l-5.2-1.9-2.2,3.4-6.8-2.4,13.2-17.2,8.3,2.9-.6,21.7-7-2.5.4-4h-.1ZM839,92l.7-7h0l-1.9,3-1.9,2.9,3.2,1.1h0Z"/>
    <path class="st9" d="M870.4,113.4l-5.9-2.4,2.7-6.6,2.7-6.4h0l-9,11.5-5.4-2.2,1.7-14.6h0l-2.5,6.4-2.7,6.6-5.9-2.4,7.8-19.1,9.4,3.9-1.3,9.4-.6,3.9h0l2.3-3.2,5.7-7.6,9,3.7-7.8,19.1h-.1Z"/>
    <path class="st9" d="M881.4,95.8l10.7,5c4.7,2.2,6.2,4.9,4.7,8.3-1,2.2-3.2,3.3-6.2,2.3h0c3.1,1.9,3.8,4.3,2.6,6.7-1.5,3.3-4.5,3.9-9,1.8l-11.5-5.3,8.7-18.7h0ZM884.4,114.7c1.2.6,2,.4,2.4-.6.4-.9,0-1.6-1.1-2.2l-3.4-1.6-1.3,2.7,3.4,1.6h0ZM887.2,107.3c1.2.6,2,.4,2.4-.5s0-1.6-1.1-2.2l-2.9-1.3-1.3,2.7,2.9,1.3h0Z"/>
    <path class="st9" d="M898.8,127l-6.5-3.3,9.2-18.5,6.5,3.3-9.2,18.5Z"/>
    <path class="st9" d="M919.2,131.7l-2.5,4.7-15.5-8.3,9.7-18.2,15.1,8.1-2.5,4.7-8.7-4.7-1.2,2.3,7,3.8-2.3,4.4-7-3.8-1.2,2.2,9,4.8h.1Z"/>
    <path class="st9" d="M935.5,147.4l-6.8-4,.5-10.6.3-2.8h0l-2,3.7-3.9,6.6-5.5-3.2,10.4-17.8,6.8,4-.5,10.6-.3,2.7h0l2-3.7,3.9-6.6,5.5,3.2-10.4,17.8h0Z"/>
    <path class="st9" d="M962.2,146.3l-5.4-3.5-8.3,12.9-6.1-3.9,8.3-12.9-5.5-3.5,2.9-4.5,17,10.9-2.9,4.5Z"/>
    <path class="st9" d="M967.4,163.8l-4.6-3.2-3.1,2.7-6-4.2,17.3-13.1,7.2,5-6.3,20.8-6.1-4.3,1.5-3.8h0ZM969.1,159.5l2.6-6.6h0l-2.7,2.4-2.6,2.3,2.8,2h0Z"/>
    <path class="st9" d="M978.5,176.7l-5.9-4.3,12.3-16.6,5.9,4.3-12.3,16.6Z"/>
    <path class="st9" d="M1006.2,175.8l-5.3,1.6c-.4-2.6-1.4-4.3-3.3-5.7-1.2-.9-2.2-1.1-2.6-.6-.3.4.5,1.3,1.6,2.5,4.1,4.6,4.8,7.7,2.3,10.8-2.7,3.4-7.4,2.7-11.4-.4-4.1-3.2-5.3-5.5-6.2-8.6l5.5-2c.3,2.4,1.4,4.3,3.6,6,1.4,1.1,2,1.1,2.4.7.4-.6-.4-1.6-1.6-2.9-2.3-2.5-5.6-6.3-2.4-10.3,2.6-3.3,7.1-3.5,12,.4,3.1,2.4,4.7,4.7,5.5,8.5h0Z"/>
    <path class="st9" d="M1017.2,193.1l7.2,6.3-7.7,8.8-3.6-3.2,1.4-1.9c-1.9.6-3.9.1-6-1.7-4-3.5-4.9-9-.3-14.3,4.4-5.1,10-5.5,15.1-1,3.8,3.4,4.9,6.4,3.5,10.6l-6.7-2.6c1-1.6.8-2.8-.2-3.7-1.8-1.6-3.7-1.1-6,1.6-2.6,3-2.6,4.8-.7,6.5,1.3,1.2,2.7,1.4,3.7.3h0l-2.6-2.3,2.9-3.4h0Z"/>
    <path class="st9" d="M1035,218l-3.7,3.9-12.8-12,14.1-15.1,12.5,11.7-3.7,3.9-7.2-6.8-1.8,1.9,5.8,5.4-3.4,3.6-5.8-5.4-1.7,1.8,7.5,7h.2Z"/>
    <path class="st9" d="M1043.8,224.7l-1.4-1.4-4.9,4.8-5-5.1,14.7-14.5,7.9,8c3.9,3.9,4.2,7.6.9,10.8-2.2,2.1-4.5,2.7-7,1.6l-2,8.8-5.6-5.6,2.3-7.4h0ZM1045.8,219.9l1.8,1.8c1.3,1.3,2.1,1.5,3.1.5s.9-1.8-.4-3.1l-1.8-1.8-2.7,2.7h0Z"/>
    <path class="st9" d="M1058.6,244.5l-3.8-4.1-3.6,1.9-4.9-5.4,19.8-9,5.9,6.5-10.7,18.9-5-5.5,2.3-3.4h0ZM1061.2,240.7l4-5.9h0l-3.1,1.7-3.1,1.7,2.3,2.5h-.1Z"/>
    <path class="st9" d="M1066.6,259.6l-4.8-5.5,15.7-13.5,4.8,5.5-15.7,13.5Z"/>
    <path class="st9" d="M1093.8,264.8l-5.5.4c.2-2.6-.5-4.5-1.9-6.3-.9-1.1-1.9-1.6-2.4-1.1-.4.3.2,1.4,1,2.8,3,5.4,3,8.6,0,11.1-3.4,2.8-7.8,1-11-2.9-3.3-4.1-4-6.6-4.2-9.7l5.8-.7c-.2,2.4.5,4.5,2.2,6.6,1.1,1.4,1.8,1.5,2.2,1.2.6-.5,0-1.6-.9-3.2-1.7-3-4.1-7.4,0-10.6,3.3-2.7,7.7-1.8,11.6,3,2.5,3.1,3.6,5.6,3.5,9.5h-.2Z"/>
  </g>
  <g>
    <path class="st0" d="M862.2,596.2c0-115.6-93.8-209.4-209.4-209.4s-209.4,93.8-209.4,209.4"/>
    <path class="st7" d="M478.9,524.5l-15.6-7,4.9-10.9,1.8.8-4,9.1,5,2.3,3.1-7,1.8.8-3.1,7,5.2,2.3,4.2-9.4,1.8.8-5.1,11.3h0Z"/>
    <path class="st7" d="M473.6,496.1c.7-1.3,1.6-2.3,2.7-2.9s2.3-1,3.7-1.1l.3,2.2c-1.3,0-2.3.3-3.1.7-.8.5-1.5,1.2-2,2.2s-.7,1.5-.8,2.2c0,.6,0,1.2.3,1.6.2.4.6.8,1.1,1.1.5.3,1.1.4,1.7.3s1.3-.6,2.1-1.5l2.5-2.8c1.1-1.3,2.2-2,3.1-2.2,1-.2,1.9,0,2.9.5.8.5,1.5,1.1,1.9,2s.5,1.8.4,2.9-.5,2.2-1.2,3.3c-.6,1.1-1.3,2-2,2.6-.8.7-1.5,1.1-2.4,1.4-.8.3-1.7.5-2.5.5l-.4-2.3c.7,0,1.4,0,2.1-.3.7-.2,1.3-.6,1.9-1.1s1.1-1.2,1.6-2c.4-.8.7-1.5.8-2.2.1-.7,0-1.3-.1-1.8-.2-.5-.6-.9-1.1-1.2-.5-.3-1-.4-1.6-.3s-1.2.5-1.9,1.3l-2.8,3.1c-.7.8-1.4,1.4-2.1,1.7-.7.4-1.3.5-2,.5s-1.3-.2-1.8-.5c-.8-.4-1.4-1.1-1.8-1.9s-.6-1.8-.5-2.8c0-1.1.4-2.2,1.1-3.3h-.1Z"/>
    <path class="st7" d="M487.1,475.3l1.6,1.1-3.3,4.9,12.5,8.5-1.2,1.7-12.5-8.5-3.3,4.9-1.6-1.1,7.9-11.6h-.1Z"/>
    <path class="st7" d="M491.5,469.6l13.5,10.5-1.3,1.6-13.5-10.5,1.3-1.6Z"/>
    <path class="st7" d="M508.6,472.6l6.5-7.3,1.5,1.3-7.9,8.9-12.8-11.3,1.4-1.6,11.3,10h0Z"/>
    <path class="st7" d="M512.4,446.5c1.2-1.1,2.5-1.8,3.8-2.1s2.7-.2,4.1.3c1.4.5,2.7,1.4,3.9,2.8,1.2,1.3,2.1,2.7,2.5,4.1s.5,2.8,0,4.1c-.4,1.3-1.1,2.6-2.3,3.7s-2.5,1.8-3.8,2.1c-1.4.3-2.7.2-4.1-.3-1.4-.5-2.7-1.4-3.9-2.8-1.2-1.3-2.1-2.7-2.5-4.1s-.5-2.8,0-4.1c.4-1.3,1.1-2.6,2.3-3.7ZM513.7,447.9c-.9.8-1.4,1.7-1.7,2.7s-.2,2,.2,3.1,1,2.1,2,3.2c1,1,2,1.8,3,2.2,1,.4,2.1.5,3.1.4,1-.2,1.9-.7,2.8-1.5.9-.8,1.4-1.7,1.7-2.7s.2-2-.2-3.1-1-2.1-2-3.2c-1-1-2-1.8-3-2.2-1-.4-2.1-.6-3.1-.4s-1.9.7-2.8,1.5Z"/>
    <path class="st7" d="M535.9,427.8c2.2-1.5,4.4-2.1,6.4-1.8,2.1.3,3.9,1.7,5.5,3.9s2.1,4.4,1.7,6.5-1.7,3.9-3.9,5.4l-4.5,3.1-9.7-14.1,4.5-3.1h0ZM544.6,440.1c1.6-1.1,2.5-2.5,2.8-4,.2-1.6-.2-3.2-1.4-4.9s-2.5-2.7-4.1-3.1-3.1,0-4.8,1.2l-3,2.1,7.5,10.9,3-2.1h0Z"/>
    <path class="st7" d="M556.7,434.6l-8.3-14.9,10.5-5.8.9,1.7-8.7,4.8,2.7,4.8,6.7-3.8.9,1.7-6.7,3.8,2.8,5,9-5,.9,1.7-10.8,6h0Z"/>
    <path class="st7" d="M586.1,402.1v18.3c0,0-2.1.8-2.1.8l-12.2-13.6,2.1-.8,8.3,9.4,2.2,2.8-.2-3.5-.2-12.6,2.1-.8h0Z"/>
    <path class="st7" d="M592.9,400l5.1,16.3-2,.6-5.1-16.3,2-.6Z"/>
    <path class="st7" d="M605.2,396.7c2.6-.6,4.8-.4,6.6.7s3,3,3.7,5.6.4,4.9-.8,6.7c-1.2,1.8-3,3-5.6,3.6l-5.4,1.3-3.9-16.6,5.4-1.2h0ZM608.8,411.4c1.9-.4,3.3-1.4,4.1-2.7.8-1.4,1-3.1.5-5.1s-1.4-3.5-2.7-4.4-2.9-1.1-4.8-.7l-3.6.8,3,12.9,3.6-.8h0Z"/>
    <path class="st7" d="M635.6,408.9l-2.2.3-2.4-4.5-7.7,1-1.2,4.9-2.2.3,4.3-17.8,2.4-.3,8.8,16.1h.2ZM623.8,403.7l6.2-.8-4.2-7.9-2,8.8h0Z"/>
    <path class="st7" d="M654.2,391.2c2.7,0,4.8.8,6.3,2.3s2.2,3.6,2.2,6.4-.8,4.8-2.4,6.3c-1.6,1.5-3.7,2.2-6.3,2.1h-5.5l.3-17.2h5.5,0ZM654.1,406.3c2,0,3.5-.5,4.6-1.7,1.1-1.1,1.7-2.8,1.7-4.8s-.5-3.7-1.6-4.9-2.6-1.8-4.5-1.8h-3.7l-.2,13.1h3.7Z"/>
    <path class="st7" d="M675.9,392.2c1.6.2,3,.7,4.1,1.5s1.9,2,2.4,3.3c.5,1.4.6,3,.4,4.8-.2,1.8-.7,3.3-1.5,4.5s-1.8,2.1-3.1,2.7-2.7.8-4.3.6c-1.6-.2-3-.7-4.1-1.5s-1.9-2-2.4-3.3c-.5-1.4-.6-3-.4-4.8.2-1.8.7-3.3,1.5-4.5s1.8-2.1,3.1-2.7,2.7-.8,4.3-.6ZM675.7,394.1c-1.2-.1-2.2,0-3.1.5s-1.7,1.2-2.2,2.1-.9,2.2-1.1,3.6,0,2.7.3,3.7c.3,1.1.9,1.9,1.7,2.6.8.6,1.8,1,2.9,1.2,1.2.1,2.2,0,3.1-.5.9-.4,1.7-1.2,2.2-2.1.6-1,.9-2.2,1.1-3.6.2-1.4,0-2.7-.3-3.7-.3-1.1-.9-1.9-1.7-2.6-.8-.6-1.8-1-3-1.2h0Z"/>
    <path class="st7" d="M695.5,395.3c1.5.3,2.7.9,3.6,1.7s1.6,1.9,2.1,3.2l-2,1c-.4-1.2-.9-2.1-1.6-2.7-.7-.6-1.6-1-2.7-1.3-.9-.2-1.7-.2-2.3,0-.6.1-1.1.4-1.5.7-.4.4-.6.8-.7,1.3,0,.6,0,1.2.2,1.7.3.5.9,1,2,1.5l3.5,1.6c1.5.7,2.5,1.5,3,2.3.5.9.6,1.8.4,2.9-.2.9-.6,1.7-1.3,2.4s-1.6,1-2.6,1.2-2.2.2-3.5-.1c-1.2-.3-2.2-.6-3.1-1.2-.9-.5-1.5-1.1-2.1-1.8-.5-.7-1-1.4-1.2-2.2l2.1-1.1c.2.7.5,1.4.9,2s.9,1.1,1.6,1.5,1.5.7,2.4.9c.9.2,1.6.2,2.3.2s1.2-.3,1.7-.6c.4-.3.7-.8.8-1.4,0-.5,0-1.1-.2-1.6s-.9-1-1.8-1.4l-3.7-1.7c-1-.5-1.7-1-2.3-1.5s-.9-1.1-1.1-1.8c-.2-.6-.2-1.3,0-1.9.2-.9.6-1.7,1.3-2.3.7-.6,1.5-1.1,2.5-1.4s2.2-.3,3.5,0h-.2Z"/>
    <path class="st7" d="M719.3,402.2l-5.5,16.2-2-.7,5.5-16.2,2,.7Z"/>
    <path class="st7" d="M738.5,409.7l-6.6,15.8-2.4-1-2.1-13.3-.4-3.7h0l-.9,2.4-4.7,11.1-1.8-.8,6.6-15.8,2.4,1,2.1,13.3.4,3.7h0l.9-2.4,4.7-11.1,1.8.8Z"/>
    <path class="st7" d="M750,415.6c2.3,1.3,3.8,2.9,4.5,5,.6,2,.3,4.2-1,6.7-1.3,2.4-3,3.9-5,4.5s-4.2.2-6.6-1.1l-4.8-2.6,8.2-15,4.8,2.6h-.1ZM742.9,429c1.7.9,3.3,1.2,4.8.7s2.8-1.7,3.8-3.5,1.3-3.5.9-5-1.5-2.8-3.2-3.7l-3.2-1.7-6.3,11.6,3.2,1.7h0Z"/>
    <path class="st7" d="M764.4,424.2l-9.2,14.4-1.7-1.1,9.2-14.4,1.7,1.1Z"/>
    <path class="st7" d="M781,436l-15.4,9.9-1.9-1.4,5-17.6,1.8,1.3-3.5,12.1-1.1,3.4,2.9-2.1,10.5-6.9,1.8,1.3h0Z"/>
    <path class="st7" d="M786.4,440.6l-11.1,13-1.6-1.3,11.1-13,1.6,1.3ZM790.3,435.7l1.7,1.4-4.4,1.7-1.3-1.1,4-2Z"/>
    <path class="st7" d="M795.7,449.2c1.9,1.9,2.9,3.9,2.9,6s-.9,4.2-2.8,6.1c-1.9,2-3.9,2.9-6.1,2.9s-4.1-1-6-2.8l-3.9-3.9,12-12.2,3.9,3.9h0ZM785.2,460.1c1.4,1.4,2.9,2,4.5,2s3.1-.8,4.6-2.3,2.2-3,2.2-4.6-.6-3.1-2-4.4l-2.6-2.6-9.3,9.4,2.6,2.6h0Z"/>
    <path class="st7" d="M814.5,470l-8.2,6.9c-1.7,1.4-3.3,2-4.9,1.8-1.6-.2-3.1-1.1-4.5-2.7s-2-3.3-1.9-4.9,1-3.1,2.7-4.5l8.2-6.9,1.3,1.6-7.8,6.5c-1.4,1.1-2.1,2.3-2.3,3.4s.3,2.3,1.3,3.5,2.1,1.8,3.2,1.9c1.1,0,2.4-.5,3.7-1.7l7.8-6.5,1.3,1.6h.1Z"/>
    <path class="st7" d="M822.9,481.2c.9,1.3,1.4,2.7,1.5,4.1,0,1.4-.3,2.7-1,4s-1.8,2.4-3.3,3.4-3,1.6-4.4,1.8-2.8,0-4.1-.6-2.3-1.5-3.2-2.9c-.9-1.3-1.4-2.7-1.5-4.1,0-1.4.3-2.7,1-4s1.8-2.4,3.3-3.4,3-1.6,4.4-1.8,2.8,0,4.1.6,2.3,1.5,3.2,2.9ZM821.3,482.3c-.7-1-1.5-1.7-2.4-2.1s-2-.5-3.1-.3-2.3.7-3.4,1.5c-1.2.8-2.1,1.7-2.7,2.6s-.9,2-.8,3c0,1,.4,2,1,3,.7,1,1.5,1.7,2.4,2.1s1.9.5,3.1.3c1.1-.2,2.3-.7,3.4-1.5,1.2-.8,2.1-1.7,2.7-2.6.6-1,.9-1.9.8-3,0-1-.4-2-1-3Z"/>
    <path class="st7" d="M833.2,498.1c.7,1.3,1.1,2.6,1,3.9,0,1.2-.4,2.5-1.1,3.7l-2-.9c.7-1.1,1-2.1,1-3s-.2-1.9-.8-2.9c-.4-.8-.9-1.4-1.4-1.8s-1-.6-1.5-.7c-.5,0-1,0-1.5.3s-.9.7-1.1,1.3c-.2.6-.2,1.4,0,2.5l1,3.6c.5,1.6.5,2.9.2,3.8s-1,1.6-1.9,2.2c-.8.5-1.7.6-2.7.5-.9-.1-1.8-.5-2.6-1.2s-1.6-1.6-2.2-2.8c-.6-1.1-1-2.1-1.1-3.1s0-1.9,0-2.8c.2-.9.5-1.7.9-2.4l2.2.9c-.4.6-.7,1.2-.9,1.9-.2.7-.2,1.4,0,2.2s.4,1.6.8,2.4c.4.8.9,1.4,1.4,1.9s1,.7,1.6.8c.5.1,1.1,0,1.6-.3s.8-.7,1-1.2.2-1.3,0-2.3l-1.1-4c-.3-1-.4-1.9-.3-2.7,0-.8.3-1.4.7-1.9s.9-1,1.4-1.3c.8-.4,1.7-.6,2.6-.5.9,0,1.8.4,2.7,1s1.6,1.5,2.2,2.7v.2Z"/>
  </g>
  <path class="st5" d="M652.8,763.3c-92.2,0-167-74.8-167-167s74.8-167,167-167,167,74.8,167,167-74.8,167-167,167"/>
  <g>
    <path class="st9" d="M568,563.6h-6.7v-18.9h6.7v18.9Z"/>
    <path class="st9" d="M588.9,554.2c0,6-3,9.4-9,9.4h-9.3v-18.9h9.3c5.9,0,9,3.4,9,9.4h0ZM582,554.2c0-3.2-.6-4.7-3.1-4.7h-1.7v9.4h1.7c2.5,0,3.1-1.5,3.1-4.7Z"/>
    <path class="st9" d="M601.8,560h-5.1l-.9,3.6h-6.6l6.1-18.9h8l6.2,18.9h-6.8l-.9-3.6ZM600.8,555.9l-1.5-6.3h0l-.7,3.2-.8,3.1h3.1,0Z"/>
    <path class="st9" d="M628.6,554.2c0,6-3,9.4-9,9.4h-9.3v-18.9h9.3c5.9,0,9,3.4,9,9.4h0ZM621.7,554.2c0-3.2-.6-4.7-3.1-4.7h-1.7v9.4h1.7c2.5,0,3.1-1.5,3.1-4.7Z"/>
    <path class="st9" d="M646.6,558.7v4.9h-16v-18.9h15.7v4.9h-9v2.3h7.3v4.5h-7.3v2.2h9.4-.1Z"/>
    <path class="st9" d="M654.7,562c0,2.8-1.6,5.2-4.6,6.4l-2.8-1.8c1.9-.8,3.4-1.7,4.1-3.1h0c-.3.2-.5.3-.9.3-1.4,0-2.9-.9-2.9-2.8s1.4-3.2,3.5-3.2,3.7,1.9,3.7,4.3h0Z"/>
    <path class="st9" d="M680.5,547.5l-2.9,4.2c-1.7-1.6-3.4-2.3-5.6-2.3s-2.2.5-2.2,1.1,1.1.7,2.6.9c5.6,1,7.8,2.9,7.8,6.5s-3.8,6.1-8.4,6.1-7-1-9.3-2.7l2.9-4.5c1.6,1.6,3.5,2.3,5.9,2.3s2.1-.4,2.1-.9-1.2-.9-2.8-1.2c-3.1-.5-7.6-1.4-7.6-6s3.1-6.5,8.8-6.5,6,.7,8.7,3h0Z"/>
    <path class="st9" d="M697.9,558.7v4.9h-16v-18.9h15.7v4.9h-9v2.3h7.3v4.5h-7.3v2.2h9.4-.1Z"/>
    <path class="st9" d="M710.4,563.6l-2.5-4.9-2.3,4.9h-7.5l6.3-9.4-6-9.5h7.9l2.2,4.7,2.2-4.7h7.3l-6,9.3,6.6,9.6h-8.2Z"/>
    <path class="st9" d="M738,554.2c0,6.2-3.6,9.7-9.6,9.7s-9.6-3.5-9.6-9.7,3.6-9.7,9.6-9.7,9.6,3.5,9.6,9.7ZM725.6,554.2c0,3.3.9,4.7,2.8,4.7s2.8-1.4,2.8-4.7-.8-4.7-2.8-4.7-2.8,1.4-2.8,4.7Z"/>
    <path class="st9" d="M588.1,593.1v4.9h-16v-18.9h15.7v4.9h-9v2.3h7.3v4.5h-7.3v2.2h9.4-.1Z"/>
    <path class="st9" d="M603.3,584v2.6h7.3v4.9h-7.3v6.5h-6.7v-18.9h15.7v4.9h-9Z"/>
    <path class="st9" d="M624.9,594.4h-5.1l-.9,3.6h-6.6l6.1-18.9h8l6.2,18.9h-6.8l-.9-3.6ZM623.9,590.2l-1.5-6.3h0l-.7,3.2-.8,3.1h3.1,0Z"/>
    <path class="st9" d="M651.1,584h-5.9v14h-6.7v-14h-5.9v-4.9h18.5v4.9h0Z"/>
    <path class="st9" d="M671.4,588.5c0,6.2-3.6,9.7-9.6,9.7s-9.6-3.5-9.6-9.7,3.6-9.7,9.6-9.7,9.6,3.5,9.6,9.7ZM659,588.5c0,3.3.9,4.7,2.8,4.7s2.8-1.4,2.8-4.7-.8-4.7-2.8-4.7-2.8,1.4-2.8,4.7Z"/>
    <path class="st9" d="M681.8,591.7h-1.8v6.3h-6.5v-18.9h10.2c5,0,7.6,2.1,7.6,6.3s-1.1,4.6-3.4,5.6l4.5,7h-7.2l-3.3-6.3h0ZM680,587.3h2.4c1.7,0,2.3-.5,2.3-1.7s-.6-1.7-2.3-1.7h-2.4v3.5h0Z"/>
    <path class="st9" d="M709.4,593.1v4.9h-16v-18.9h15.7v4.9h-9v2.3h7.3v4.5h-7.3v2.2h9.4-.1Z"/>
    <path class="st9" d="M727.9,581.8l-2.9,4.2c-1.7-1.6-3.4-2.3-5.6-2.3s-2.2.5-2.2,1.1,1.1.7,2.6.9c5.6,1,7.8,2.9,7.8,6.5s-3.8,6.1-8.4,6.1-7-1-9.3-2.7l2.9-4.5c1.6,1.6,3.5,2.3,5.9,2.3s2.1-.4,2.1-.9-1.2-.9-2.8-1.2c-3.1-.5-7.6-1.4-7.6-6s3.1-6.5,8.8-6.5,6,.7,8.7,3h0Z"/>
    <path class="st9" d="M566.3,613.4v18.9h-6.7v-7h-5.2v7h-6.7v-18.9h6.7v7h5.2v-7h6.7Z"/>
    <path class="st9" d="M584.9,627.4v4.9h-16v-18.9h15.7v4.9h-9v2.3h7.3v4.5h-7.3v2.2h9.4-.1Z"/>
    <path class="st9" d="M594.9,626h-1.8v6.3h-6.5v-18.9h10.2c5,0,7.6,2.1,7.6,6.3s-1.1,4.6-3.4,5.6l4.5,7h-7.2l-3.3-6.3h0ZM593.1,621.7h2.4c1.7,0,2.3-.5,2.3-1.7s-.6-1.7-2.3-1.7h-2.4v3.5h0Z"/>
    <path class="st9" d="M622.5,627.4v4.9h-16v-18.9h15.7v4.9h-9v2.3h7.3v4.5h-7.3v2.2h9.4-.1Z"/>
    <path class="st9" d="M642.3,622.9c0,6-3,9.4-9,9.4h-9.3v-18.9h9.3c5.9,0,9,3.4,9,9.4h0ZM635.5,622.9c0-3.2-.6-4.7-3.1-4.7h-1.7v9.4h1.7c2.5,0,3.1-1.5,3.1-4.7Z"/>
    <path class="st9" d="M651,632.3h-6.7v-18.9h6.7v18.9Z"/>
    <path class="st9" d="M671.3,618.3h-5.9v14h-6.7v-14h-5.9v-4.9h18.5v4.9h0Z"/>
    <path class="st9" d="M683.9,628.7h-5.1l-.9,3.6h-6.6l6.1-18.9h8l6.2,18.9h-6.8l-.9-3.6ZM683.5,612h-4.7l1.7-4.8h5.6l-2.6,4.8ZM682.9,624.6l-1.5-6.3h0l-.7,3.2-.8,3.1h3.1,0Z"/>
    <path class="st9" d="M700.8,626h-1.8v6.3h-6.5v-18.9h10.2c5,0,7.6,2.1,7.6,6.3s-1.1,4.6-3.4,5.6l4.5,7h-7.2l-3.3-6.3h0ZM699,621.7h2.4c1.7,0,2.3-.5,2.3-1.7s-.6-1.7-2.3-1.7h-2.4v3.5h0Z"/>
    <path class="st9" d="M719,632.3h-6.7v-18.9h6.7v18.9Z"/>
    <path class="st9" d="M740.3,622.9c0,6.2-3.6,9.7-9.6,9.7s-9.6-3.5-9.6-9.7,3.6-9.7,9.6-9.7,9.6,3.5,9.6,9.7ZM727.9,622.9c0,3.3.9,4.7,2.8,4.7s2.8-1.4,2.8-4.7-.8-4.7-2.8-4.7-2.8,1.4-2.8,4.7Z"/>
    <path class="st9" d="M759.2,616.1l-2.9,4.2c-1.7-1.6-3.4-2.3-5.6-2.3s-2.2.5-2.2,1.1,1.1.7,2.6.9c5.6,1,7.8,2.9,7.8,6.5s-3.8,6.1-8.4,6.1-7-1-9.3-2.7l2.9-4.5c1.6,1.6,3.5,2.3,5.9,2.3s2.1-.4,2.1-.9-1.2-.9-2.8-1.2c-3.1-.5-7.6-1.4-7.6-6s3.1-6.5,8.8-6.5,6,.7,8.7,3h0Z"/>
  </g>
</svg>