<?xml version="1.0" encoding="UTF-8"?>
<svg id="Layer_2" data-name="Layer 2" xmlns="http://www.w3.org/2000/svg" viewBox="0 0 113.26 113.24">
  <defs>
    <style>
      .cls-1 {
        fill: #ee8362;
      }
    </style>
  </defs>
  <g id="Layer_1-2" data-name="Layer 1">
    <g>
      <path class="cls-1" d="M112.55,27.1c-.39-1.44-1.33-2.66-2.62-3.4-1.29-.75-2.83-.95-4.26-.56-1.44.39-2.66,1.33-3.41,2.62l-.94,1.63c-.89-.51-2.02-.21-2.54.67l-4.75,8.1-1.63-.94c-.43-.25-.94-.32-1.42-.19-.48.13-.89.45-1.14.88-.51.89-.2,2.03.69,2.54l1.63.94-15.9,27.55-3.93,10.5-1.87,3.5c-1.1,1.91-.98,4.27.3,6.06l-4.21,5.16-1.18-2.95c-.53-1.32-1.76-2.22-3.18-2.33-1.42-.11-2.77.59-3.5,1.81l-.67,1.14-.64-7.48c-.15-1.77-1.52-3.19-3.28-3.41-1.76-.21-3.43.84-4,2.53l-4.6,13.81c-.32.98.2,2.03,1.18,2.36.18.08.38.14.58.15.8,0,1.52-.51,1.78-1.27l4.58-13.81.65,7.59c.14,1.62,1.3,2.97,2.88,3.33s3.22-.33,4.06-1.73l.69-1.14,1.16,2.94c.49,1.24,1.61,2.12,2.92,2.32s2.64-.32,3.47-1.36l4.36-5.52c.48.13.98.19,1.48.19,2,.02,3.87-1.04,4.88-2.77l1.87-3.12,7.13-8.66,16.07-27.89,1.63.94c.43.25.75.66.88,1.14.13.48.06.99-.19,1.42l-7.48,12.96c-.28.43-.38.95-.26,1.45.11.5.42.93.86,1.19.43.25.94.32,1.42.19.48-.13.89-.45,1.14-.88l7.48-12.96c.75-1.29.95-2.83.56-4.26-.39-1.44-1.33-2.66-2.62-3.41l-1.63-.94,4.68-8.1c.51-.89.21-2.02-.67-2.54l.94-1.63c.77-1.31.97-2.88.56-4.34ZM105.5,27.62c.25-.43.66-.75,1.14-.88.48-.12.99-.05,1.42.19.43.25.75.66.88,1.14.12.48.05.99-.19,1.42l-.94,1.63-3.26-1.87.94-1.63ZM80,79.85l-.94-.54-2.77-1.61,2.66-7.11,5.89,3.4-4.84,5.86ZM74.39,85.26c-.79-.55-1.03-1.61-.56-2.45l.94-1.63,3.25,1.87-.94,1.61c-.26.45-.7.78-1.21.89-.51.11-1.05,0-1.48-.29ZM86.98,70.93l-6.47-3.74,14.97-25.93,6.47,3.74-14.97,25.93ZM103.82,41.77l-6.47-3.74,3.74-6.47,6.47,3.74-3.74,6.47Z"/>
      <path class="cls-1" d="M47.27,98.27h0c-.3-.02-.55-.08-.79-.2-1.18-.4-1.85-1.74-1.44-2.97l4.6-13.81c.64-1.9,2.55-3.11,4.53-2.87,1.99.24,3.55,1.87,3.72,3.86l.5,5.93c.86-1.27,2.3-1.99,3.85-1.86,1.62.13,3,1.14,3.6,2.64l.86,2.17,3.44-4.22c-1.18-1.9-1.24-4.32-.11-6.28l1.86-3.48,3.9-10.44,15.69-27.19-1.19-.69c-1.12-.65-1.52-2.09-.88-3.22.32-.55.83-.95,1.44-1.12.61-.16,1.26-.08,1.81.24l1.2.69,4.5-7.67c.57-.97,1.74-1.38,2.76-1.06l.71-1.24c.81-1.41,2.13-2.43,3.71-2.85,1.58-.42,3.23-.21,4.64.61,1.42.81,2.43,2.13,2.85,3.71.44,1.58.22,3.3-.61,4.72l-.71,1.24c.8.73,1.01,1.95.45,2.93l-4.43,7.67,1.19.69c1.39.8,2.43,2.16,2.85,3.71.42,1.56.2,3.25-.61,4.65l-7.48,12.96c-.32.55-.83.95-1.44,1.11-.6.17-1.26.08-1.81-.24-.56-.33-.96-.88-1.1-1.51-.14-.63-.02-1.3.34-1.83l7.47-12.94c.18-.31.23-.69.14-1.04-.1-.36-.32-.65-.64-.84l-1.2-.69-15.82,27.46-7.18,8.73-1.83,3.06c-1.1,1.87-3.13,3-5.31,3.01-.43,0-.86-.04-1.28-.13l-4.16,5.27c-.94,1.18-2.46,1.77-3.94,1.55-1.49-.22-2.76-1.23-3.32-2.63l-.79-2-.17.28c-.95,1.58-2.79,2.37-4.6,1.95-1.8-.42-3.11-1.94-3.27-3.78l-.45-5.18-3.82,11.5c-.33.97-1.23,1.61-2.25,1.61ZM53.66,79.41c-1.38,0-2.63.88-3.08,2.21l-4.6,13.8c-.23.71.15,1.49.86,1.73.18.08.31.11.45.12h0c.56,0,1.08-.37,1.27-.93l5.35-16.11.86,10.01c.12,1.41,1.12,2.57,2.5,2.89,1.38.32,2.79-.28,3.51-1.5l1.22-2.01,1.53,3.88c.42,1.07,1.4,1.84,2.53,2.01,1.14.17,2.29-.28,3.01-1.18l4.56-5.77.32.08c.44.12.87.17,1.35.17h.04c1.81,0,3.5-.96,4.41-2.52l1.87-3.13,7.17-8.72,16.27-28.26,2.06,1.18c.55.32.95.83,1.11,1.45.16.6.08,1.26-.24,1.8l-7.48,12.96c-.22.34-.29.72-.21,1.08.08.36.31.68.63.87.31.18.69.23,1.04.14.36-.1.65-.33.84-.65l7.48-12.96c.67-1.17.86-2.58.51-3.88-.35-1.3-1.22-2.43-2.39-3.1l-2.06-1.18,4.93-8.53c.37-.65.15-1.48-.5-1.86l-.43-.25,1.18-2.06c.7-1.19.88-2.63.51-3.96h0c-.35-1.32-1.2-2.42-2.38-3.11-1.19-.69-2.57-.87-3.89-.51s-2.42,1.2-3.1,2.39l-1.18,2.06-.43-.25c-.65-.37-1.48-.15-1.86.49l-5,8.53-2.06-1.18c-.32-.18-.7-.23-1.04-.14-.36.1-.65.33-.84.65-.37.65-.14,1.49.51,1.86l2.06,1.18-16.15,27.99-3.89,10.42-1.9,3.56c-1,1.74-.9,3.91.26,5.53l.22.31-4.99,6.12-1.49-3.74c-.46-1.15-1.52-1.92-2.75-2.02-1.24-.1-2.4.5-3.03,1.56l-1.47,2.49-.77-9.04c-.13-1.53-1.32-2.77-2.84-2.95-.13-.02-.26-.02-.38-.02ZM75.47,86.1c-.48,0-.96-.15-1.36-.43h0c-1-.7-1.31-2.04-.71-3.11l1.19-2.07,4.12,2.37-1.19,2.04c-.33.57-.89.99-1.54,1.13-.17.04-.34.06-.51.06ZM74.95,81.86l-.69,1.19c-.34.61-.17,1.39.41,1.79h0c.31.22.71.3,1.09.22.37-.08.7-.32.89-.65l.68-1.18-2.39-1.37ZM80.12,80.5l-4.44-2.58,3.01-8.06,6.92,4-5.49,6.64ZM76.92,77.48l2.97,1.73,4.2-5.07-4.87-2.81-2.3,6.16ZM87.16,71.61l-7.34-4.24,15.47-26.79,7.34,4.24-15.46,26.79ZM81.19,67.01l5.61,3.24,14.46-25.06-5.61-3.24-14.47,25.06ZM104,42.45l-7.34-4.24,4.24-7.34,7.34,4.24-4.24,7.34ZM98.03,37.84l5.61,3.24,3.24-5.61-5.61-3.24-3.24,5.61ZM108,31.81l-4.12-2.37,1.18-2.06c.31-.55.84-.95,1.45-1.11.61-.15,1.25-.07,1.79.23.56.32.95.83,1.12,1.45.15.61.07,1.25-.23,1.79l-1.19,2.07ZM105.25,29.07l2.39,1.37.69-1.19c.17-.32.22-.69.14-1.05-.09-.35-.32-.64-.64-.83-.32-.18-.69-.22-1.05-.14-.34.09-.65.33-.83.64h0s-.69,1.2-.69,1.2Z"/>
    </g>
    <g>
      <path class="cls-1" d="M30.02,84.32l-6.62,6.6-3.97-3.97c-.73-.73-1.91-.73-2.64,0-.35.35-.55.83-.55,1.33s.2.98.55,1.33l3.97,3.97c.7.7,1.65,1.09,2.64,1.09.99,0,1.95-.38,2.66-1.09l6.6-6.62c.64-.74.59-1.85-.1-2.54s-1.8-.73-2.54-.1Z"/>
      <path class="cls-1" d="M23.42,95.17s-.02,0-.03,0c-1.12,0-2.18-.44-2.98-1.23l-3.97-3.97c-.44-.44-.7-1.05-.7-1.68s.25-1.23.7-1.68c.92-.92,2.42-.91,3.34,0l3.61,3.61,6.3-6.28c.94-.8,2.35-.74,3.22.12.87.87.92,2.28.12,3.22l-6.63,6.65c-.79.79-1.88,1.23-2.99,1.23ZM23.4,94.17c.86.01,1.69-.33,2.3-.94l6.6-6.62c.44-.51.41-1.33-.1-1.83s-1.31-.53-1.85-.08l-6.96,6.94-4.32-4.32c-.53-.53-1.4-.53-1.93,0-.26.26-.41.61-.41.97s.15.72.41.97l3.97,3.97c.61.6,1.42.94,2.28.94h0Z"/>
    </g>
    <g>
      <path class="cls-1" d="M7.98,89.36c0,8.78,7.12,15.9,15.9,15.9s15.9-7.12,15.9-15.9c0-1.03-.84-1.87-1.87-1.87s-1.87.84-1.87,1.87c0,6.72-5.44,12.16-12.16,12.16s-12.16-5.44-12.16-12.16,5.44-12.16,12.16-12.16c2.63,0,5.19.85,7.3,2.43.83.62,2,.45,2.62-.37.62-.83.45-2-.37-2.62-4.82-3.61-11.27-4.19-16.65-1.5-5.39,2.69-8.79,8.2-8.79,14.22Z"/>
      <path class="cls-1" d="M23.88,105.76c-9.04,0-16.4-7.36-16.4-16.4,0-6.25,3.47-11.87,9.07-14.67,5.59-2.8,12.17-2.2,17.17,1.55.51.38.84.93.92,1.56.09.63-.07,1.25-.45,1.76s-.93.83-1.56.92c-.63.09-1.25-.07-1.76-.45-2-1.51-4.47-2.33-6.96-2.33h-.03c-6.43,0-11.66,5.23-11.66,11.66s5.23,11.66,11.66,11.66,11.66-5.23,11.66-11.66c0-1.31,1.06-2.37,2.37-2.37s2.37,1.06,2.37,2.37c0,9.04-7.36,16.4-16.4,16.4ZM23.9,73.94c-2.35,0-4.71.54-6.9,1.64-5.25,2.63-8.51,7.9-8.51,13.77,0,8.49,6.91,15.4,15.4,15.4s15.4-6.91,15.4-15.4c0-.76-.62-1.37-1.37-1.37s-1.37.62-1.37,1.37c0,6.98-5.68,12.66-12.66,12.66s-12.66-5.68-12.66-12.66,5.68-12.66,12.66-12.66h.03c2.71,0,5.4.9,7.56,2.53.29.22.66.31,1.02.26.36-.05.68-.24.9-.53.22-.29.31-.65.26-1.02s-.24-.68-.53-.9c-2.73-2.05-5.96-3.09-9.22-3.09Z"/>
    </g>
    <g>
      <path class="cls-1" d="M67.84,15.47c1.03,0,1.87-.84,1.87-1.87s-.84-1.87-1.87-1.87H19.21c-1.03,0-1.87.84-1.87,1.87v7.48c0,1.03.84,1.87,1.87,1.87h48.64c1.03,0,1.87-.84,1.87-1.87s-.84-1.87-1.87-1.87H21.08v-3.74h46.77Z"/>
      <path class="cls-1" d="M67.84,23.45H19.21c-1.31,0-2.37-1.06-2.37-2.37v-7.48c0-1.31,1.06-2.37,2.37-2.37h48.64c1.31,0,2.37,1.06,2.37,2.37s-1.06,2.37-2.37,2.37H21.58v2.74h46.27c1.31,0,2.37,1.06,2.37,2.37s-1.06,2.37-2.37,2.37ZM19.21,12.22c-.76,0-1.37.61-1.37,1.37v7.48c0,.76.62,1.37,1.37,1.37h48.64c.76,0,1.37-.61,1.37-1.37s-.62-1.37-1.37-1.37H20.58v-4.74h47.27c.76,0,1.37-.61,1.37-1.37s-.62-1.37-1.37-1.37H19.21Z"/>
    </g>
    <g>
      <path class="cls-1" d="M24.82,26.69c-1.03,0-1.87.84-1.87,1.87s.84,1.87,1.87,1.87h37.41c1.03,0,1.87-.84,1.87-1.87s-.84-1.87-1.87-1.87H24.82Z"/>
      <path class="cls-1" d="M62.23,30.93H24.82c-1.31,0-2.37-1.06-2.37-2.37s1.06-2.37,2.37-2.37h37.41c1.31,0,2.37,1.06,2.37,2.37s-1.06,2.37-2.37,2.37ZM24.82,27.19c-.76,0-1.37.61-1.37,1.37s.61,1.37,1.37,1.37h37.41c.76,0,1.37-.62,1.37-1.37s-.62-1.37-1.37-1.37H24.82Z"/>
    </g>
    <g>
      <path class="cls-1" d="M73.46,39.78h-41.15c-1.03,0-1.87.84-1.87,1.87s.84,1.87,1.87,1.87h41.15c1.03,0,1.87-.84,1.87-1.87s-.84-1.87-1.87-1.87Z"/>
      <path class="cls-1" d="M73.46,44.02h-41.15c-1.31,0-2.37-1.06-2.37-2.37s1.06-2.37,2.37-2.37h41.15c1.31,0,2.37,1.06,2.37,2.37s-1.06,2.37-2.37,2.37ZM32.3,40.28c-.76,0-1.37.61-1.37,1.37s.62,1.37,1.37,1.37h41.15c.76,0,1.37-.61,1.37-1.37s-.61-1.37-1.37-1.37h-41.15Z"/>
    </g>
    <g>
      <path class="cls-1" d="M54.75,52.88c0-1.03-.84-1.87-1.87-1.87H15.47c-1.03,0-1.87.84-1.87,1.87s.84,1.87,1.87,1.87h37.41c1.03,0,1.87-.84,1.87-1.87Z"/>
      <path class="cls-1" d="M52.88,55.25H15.47c-1.31,0-2.37-1.06-2.37-2.37s1.06-2.37,2.37-2.37h37.41c1.31,0,2.37,1.06,2.37,2.37s-1.06,2.37-2.37,2.37ZM15.47,51.51c-.76,0-1.37.61-1.37,1.37s.62,1.37,1.37,1.37h37.41c.76,0,1.37-.61,1.37-1.37s-.61-1.37-1.37-1.37H15.47Z"/>
    </g>
    <g>
      <path class="cls-1" d="M73.46,51.01h-13.09c-1.03,0-1.87.84-1.87,1.87s.84,1.87,1.87,1.87h13.09c1.03,0,1.87-.84,1.87-1.87s-.84-1.87-1.87-1.87Z"/>
      <path class="cls-1" d="M73.46,55.25h-13.09c-1.31,0-2.37-1.06-2.37-2.37s1.06-2.37,2.37-2.37h13.09c1.31,0,2.37,1.06,2.37,2.37s-1.06,2.37-2.37,2.37ZM60.36,51.51c-.76,0-1.37.61-1.37,1.37s.62,1.37,1.37,1.37h13.09c.76,0,1.37-.61,1.37-1.37s-.61-1.37-1.37-1.37h-13.09Z"/>
    </g>
    <g>
      <path class="cls-1" d="M34.17,64.1c1.03,0,1.87-.84,1.87-1.87s-.84-1.87-1.87-1.87H15.47c-1.03,0-1.87.84-1.87,1.87s.84,1.87,1.87,1.87h18.71Z"/>
      <path class="cls-1" d="M34.17,64.6H15.47c-1.31,0-2.37-1.06-2.37-2.37s1.06-2.37,2.37-2.37h18.71c1.31,0,2.37,1.06,2.37,2.37s-1.06,2.37-2.37,2.37ZM15.47,60.86c-.76,0-1.37.61-1.37,1.37s.62,1.37,1.37,1.37h18.71c.76,0,1.37-.62,1.37-1.37s-.62-1.37-1.37-1.37H15.47Z"/>
    </g>
    <g>
      <path class="cls-1" d="M41.65,64.1h13.09c1.03,0,1.87-.84,1.87-1.87s-.84-1.87-1.87-1.87h-13.09c-1.03,0-1.87.84-1.87,1.87s.84,1.87,1.87,1.87Z"/>
      <path class="cls-1" d="M54.75,64.6h-13.09c-1.31,0-2.37-1.06-2.37-2.37s1.06-2.37,2.37-2.37h13.09c1.31,0,2.37,1.06,2.37,2.37s-1.06,2.37-2.37,2.37ZM41.65,60.86c-.76,0-1.37.61-1.37,1.37s.61,1.37,1.37,1.37h13.09c.76,0,1.37-.62,1.37-1.37s-.62-1.37-1.37-1.37h-13.09Z"/>
    </g>
    <g>
      <path class="cls-1" d="M84.68,86.55c-1.03,0-1.87.84-1.87,1.87v18.71c0,1.03-.84,1.87-1.87,1.87H6.11c-1.03,0-1.87-.84-1.87-1.87V6.11c0-1.03.84-1.87,1.87-1.87h74.83c1.03,0,1.87.84,1.87,1.87v35.13c0,1.03.84,1.87,1.87,1.87s1.87-.84,1.87-1.87V6.11c0-3.1-2.51-5.61-5.61-5.61H6.11C3.01.5.5,3.01.5,6.11v101.02c0,3.1,2.51,5.61,5.61,5.61h74.83c3.1,0,5.61-2.51,5.61-5.61v-18.71c0-1.03-.84-1.87-1.87-1.87Z"/>
      <path class="cls-1" d="M80.94,113.24H6.11c-3.37,0-6.11-2.74-6.11-6.11V6.11C0,2.74,2.74,0,6.11,0h74.83c3.37,0,6.11,2.74,6.11,6.11v35.13c0,1.31-1.06,2.37-2.37,2.37s-2.37-1.06-2.37-2.37V6.11c0-.76-.61-1.37-1.37-1.37H6.11c-.76,0-1.37.61-1.37,1.37v101.02c0,.76.62,1.37,1.37,1.37h74.83c.76,0,1.37-.62,1.37-1.37v-18.71c0-1.31,1.06-2.37,2.37-2.37s2.37,1.06,2.37,2.37v18.71c0,3.37-2.74,6.11-6.11,6.11ZM6.11,1C3.29,1,1,3.29,1,6.11v101.02c0,2.82,2.29,5.11,5.11,5.11h74.83c2.82,0,5.11-2.29,5.11-5.11v-18.71c0-.76-.62-1.37-1.37-1.37s-1.37.62-1.37,1.37v18.71c0,1.31-1.06,2.37-2.37,2.37H6.11c-1.31,0-2.37-1.06-2.37-2.37V6.11c0-1.31,1.06-2.37,2.37-2.37h74.83c1.31,0,2.37,1.06,2.37,2.37v35.13c0,.76.62,1.37,1.37,1.37s1.37-.61,1.37-1.37V6.11c0-2.82-2.29-5.11-5.11-5.11H6.11Z"/>
    </g>
  </g>
</svg>