<?xml version="1.0" encoding="UTF-8"?>
<svg id="Layer_2" data-name="Layer 2" xmlns="http://www.w3.org/2000/svg" viewBox="0 0 118.18 118.18">
  <defs>
    <style>
      .cls-1 {
        fill: #ee8362;
        stroke: #ee8362;
        stroke-miterlimit: 10;
      }
    </style>
  </defs>
  <g id="Layer_1-2" data-name="Layer 1">
    <g id="g805">
      <g id="g811">
        <g id="path813">
          <path class="cls-1" d="M36.82,66.39h-6.36C13.94,66.39.5,52.95.5,36.43S13.94,6.48,30.45,6.48h6.36c.95,0,1.72.77,1.72,1.72s-.77,1.72-1.72,1.72h-6.36c-14.62,0-26.52,11.9-26.52,26.52s11.9,26.52,26.52,26.52h6.36c.95,0,1.72.77,1.72,1.72s-.77,1.72-1.72,1.72Z"/>
        </g>
      </g>
      <g id="g815">
        <g id="path817">
          <path class="cls-1" d="M47.72,80.08c-6.02,0-9.07-1.23-12.01-2.41-2.77-1.11-5.38-2.16-10.74-2.16s-7.97,1.05-10.73,2.16c-2.95,1.19-6,2.41-12.02,2.41-.95,0-1.72-.77-1.72-1.72s.77-1.72,1.72-1.72c5.35,0,7.97-1.05,10.73-2.16,2.95-1.19,6-2.41,12.02-2.41s9.07,1.23,12.02,2.41c2.77,1.11,5.38,2.16,10.73,2.16,2.66,0,4.85-.26,6.89-.81.91-.25,1.86.3,2.1,1.21.25.92-.3,1.86-1.21,2.1-2.34.63-4.81.92-7.79.92Z"/>
        </g>
      </g>
      <g id="g819">
        <g id="path821">
          <path class="cls-1" d="M105.83,77.3c-.69,0-1.34-.42-1.6-1.1-.34-.88.1-1.88.98-2.22,2.4-.93,5.4-1.91,10.75-1.91.95,0,1.72.77,1.72,1.72s-.77,1.72-1.72,1.72c-4.76,0-7.31.83-9.51,1.68-.2.08-.41.12-.62.12Z"/>
        </g>
      </g>
      <g id="g823">
        <g id="path825">
          <path class="cls-1" d="M54.15,68.71c-.26,0-.52-.06-.77-.18-5.85-2.95-10.78-7.45-14.27-13.01-3.59-5.71-5.48-12.31-5.48-19.09C33.62,16.62,49.74.5,69.55.5c4.51,0,9.83,1.14,14.6,3.12,3.97,1.65,9.43,4.68,12.93,9.73.54.78.35,1.85-.43,2.39-.78.54-1.85.35-2.39-.43-3.02-4.37-7.88-7.04-11.43-8.52-4.36-1.82-9.2-2.86-13.28-2.86-17.92,0-32.5,14.58-32.5,32.5,0,6.13,1.71,12.1,4.96,17.26,3.16,5.03,7.62,9.1,12.91,11.77.85.43,1.19,1.46.76,2.31-.3.6-.91.94-1.53.94Z"/>
        </g>
      </g>
      <g id="g827">
        <g id="path829">
          <path class="cls-1" d="M96.27,59.52c-.38,0-.76-.12-1.07-.38-.74-.59-.86-1.67-.27-2.41,4.66-5.82,7.12-12.84,7.12-20.3s-2.73-15.14-7.69-21c-.61-.72-.52-1.81.2-2.42.72-.61,1.81-.52,2.42.2,5.48,6.48,8.5,14.72,8.5,23.21s-2.8,16.11-7.87,22.45c-.34.42-.84.64-1.34.64Z"/>
        </g>
      </g>
      <g id="g831">
        <g id="path833">
          <path class="cls-1" d="M54.52,72.33s-.05,0-.08,0c-9.23-.43-17.85-4.36-24.25-11.06-6.43-6.72-9.97-15.54-9.97-24.84C20.22,16.62,36.34.5,56.15.5h13.4c.95,0,1.72.77,1.72,1.72s-.77,1.72-1.72,1.72h-13.4c-17.92,0-32.5,14.58-32.5,32.5,0,8.41,3.2,16.39,9.01,22.47,5.79,6.06,13.58,9.61,21.93,10,.95.04,1.68.85,1.63,1.79-.04.92-.8,1.64-1.71,1.64Z"/>
        </g>
      </g>
      <g id="g835">
        <g id="path837">
          <path class="cls-1" d="M107.3,98.69c-.95,0-1.72-.77-1.72-1.72v-8.24c0-12.76-3.7-22.93-11.01-30.21-14.15-14.12-37.91-14.05-46.86-14.03-.34,0-.65,0-.94,0-.95,0-1.72-.77-1.72-1.72s.77-1.72,1.72-1.72c.29,0,.6,0,.93,0,4.54-.01,12.98-.03,22.22,1.81,11.45,2.28,20.56,6.73,27.07,13.22,7.97,7.95,12.01,18.93,12.01,32.64v8.24c0,.95-.77,1.72-1.72,1.72Z"/>
        </g>
      </g>
      <g id="g839">
        <g id="path841">
          <path class="cls-1" d="M55.93,100.88c-.93,0-1.69-.74-1.72-1.68-.06-2.61-.12-4.97-.19-7.2-.03-.95.71-1.74,1.66-1.77.95-.04,1.74.71,1.77,1.66.07,2.24.14,4.61.2,7.24.02.95-.73,1.73-1.68,1.75-.01,0-.03,0-.04,0Z"/>
        </g>
      </g>
      <g id="g843">
        <g id="path845">
          <path class="cls-1" d="M55.47,86.84c-.91,0-1.67-.72-1.71-1.64-.92-20.19-2.79-31.77-5.73-35.39-.6-.74-.48-1.82.25-2.41s1.82-.48,2.41.25c2.36,2.92,5.24,9.8,6.49,37.4.04.95-.69,1.75-1.64,1.79-.03,0-.05,0-.08,0Z"/>
        </g>
      </g>
      <g id="g847">
        <g id="path849">
          <path class="cls-1" d="M87.95,52.99c-.38,0-.76-.12-1.08-.38-.74-.6-.85-1.68-.26-2.41,3.13-3.88,4.86-8.76,4.86-13.76,0-12.09-9.83-21.92-21.92-21.92s-21.92,9.83-21.92,21.92c0,2.01.27,3.99.8,5.89.53,1.91,1.32,3.74,2.35,5.44.02.03.03.05.05.08.26.43.54.85.83,1.27h0c.2.28.32.63.32,1,0,.95-.77,1.72-1.72,1.72-.6,0-1.13-.31-1.43-.77-.31-.44-.61-.9-.89-1.35-.02-.03-.03-.05-.05-.08-1.22-1.99-2.15-4.14-2.77-6.38-.61-2.2-.93-4.49-.93-6.81,0-13.98,11.37-25.35,25.35-25.35s25.35,11.37,25.35,25.35c0,5.78-2,11.43-5.62,15.92-.34.42-.84.64-1.34.64Z"/>
        </g>
      </g>
      <g id="g851">
        <g id="path853">
          <path class="cls-1" d="M93.21,102.01c-6.02,0-9.07-1.23-12.02-2.41-2.77-1.11-5.38-2.16-10.73-2.16-2.15,0-4.01.17-5.7.52-1.97.41-3.46,1.01-5.04,1.64-1.02.41-2.08.84-3.29,1.21-2.65.83-5.34,1.2-8.73,1.2-6.02,0-9.07-1.23-12.01-2.41-2.77-1.11-5.38-2.16-10.74-2.16s-7.97,1.05-10.73,2.16c-2.95,1.19-6,2.41-12.02,2.41-.95,0-1.72-.77-1.72-1.72s.77-1.72,1.72-1.72c5.35,0,7.97-1.05,10.73-2.16,2.95-1.19,6-2.41,12.02-2.41s9.07,1.23,12.02,2.41c2.77,1.11,5.38,2.16,10.73,2.16,3.02,0,5.4-.32,7.7-1.04,1.07-.34,2.02-.72,3.03-1.12,1.65-.66,3.35-1.35,5.62-1.82,1.92-.4,4.01-.59,6.39-.59,6.02,0,9.07,1.23,12.01,2.41,2.77,1.11,5.38,2.16,10.73,2.16s7.97-1.05,10.73-2.16c.89-.36,1.8-.73,2.82-1.06,2.8-.94,5.64-1.35,9.2-1.35.95,0,1.72.77,1.72,1.72s-.77,1.72-1.72,1.72c-4.07,0-6.47.63-8.12,1.18-.91.3-1.74.64-2.62.99-2.95,1.19-5.99,2.41-12.01,2.41Z"/>
        </g>
      </g>
      <g id="g855">
        <g id="path857">
          <path class="cls-1" d="M84.4,36.93h-11.32c-.95,0-1.72-.77-1.72-1.72s.77-1.72,1.72-1.72h11.32c.95,0,1.72.77,1.72,1.72s-.77,1.72-1.72,1.72Z"/>
        </g>
      </g>
      <g id="g859">
        <g id="path861">
          <path class="cls-1" d="M72.11,29.06h-11.32c-.95,0-1.72-.77-1.72-1.72s.77-1.72,1.72-1.72h11.32c.95,0,1.72.77,1.72,1.72s-.77,1.72-1.72,1.72Z"/>
        </g>
      </g>
      <g id="g863">
        <g id="path865">
          <path class="cls-1" d="M92.97,83.34c-2.75,0-4.98-2.24-4.98-4.98s2.24-4.98,4.98-4.98,4.98,2.24,4.98,4.98-2.24,4.98-4.98,4.98ZM92.97,76.81c-.85,0-1.55.7-1.55,1.55s.7,1.55,1.55,1.55,1.55-.7,1.55-1.55-.7-1.55-1.55-1.55Z"/>
        </g>
      </g>
      <g id="g867">
        <g id="path869">
          <path class="cls-1" d="M25.2,108.44c-2.75,0-4.98-2.24-4.98-4.98s2.24-4.98,4.98-4.98,4.98,2.24,4.98,4.98-2.24,4.98-4.98,4.98ZM25.2,101.9c-.85,0-1.55.7-1.55,1.55s.7,1.55,1.55,1.55,1.55-.7,1.55-1.55-.7-1.55-1.55-1.55Z"/>
        </g>
      </g>
      <g id="g871">
        <g id="path873">
          <path class="cls-1" d="M80.31,117.68c-2.75,0-4.98-2.24-4.98-4.98s2.24-4.98,4.98-4.98,4.98,2.24,4.98,4.98-2.24,4.98-4.98,4.98ZM80.31,111.14c-.85,0-1.55.7-1.55,1.55s.7,1.55,1.55,1.55,1.55-.7,1.55-1.55-.7-1.55-1.55-1.55Z"/>
        </g>
      </g>
      <g id="g875">
        <g id="path877">
          <path class="cls-1" d="M70.46,74.05c-2.75,0-4.98-2.24-4.98-4.98s2.24-4.98,4.98-4.98,4.98,2.24,4.98,4.98-2.24,4.98-4.98,4.98ZM70.46,67.52c-.85,0-1.55.7-1.55,1.55s.7,1.55,1.55,1.55,1.55-.7,1.55-1.55-.7-1.55-1.55-1.55Z"/>
        </g>
      </g>
    </g>
  </g>
</svg>