<?xml version="1.0" encoding="UTF-8"?>
<svg id="Camada_4" xmlns="http://www.w3.org/2000/svg" version="1.1" viewBox="0 0 1920 1080">
  <!-- Generator: Adobe Illustrator 29.3.1, SVG Export Plug-In . SVG Version: 2.1.0 Build 151)  -->
  <defs>
    <style>
      .st0 {
        fill: #eebb2b;
      }

      .st1 {
        fill: #045162;
      }

      .st2, .st3, .st4 {
        fill: #e0a591;
      }

      .st5 {
        fill: #2f5261;
      }

      .st6 {
        fill: #599ec8;
      }

      .st7 {
        fill: #fff;
      }

      .st8 {
        fill: #c5aecd;
      }

      .st3 {
        opacity: .5;
      }

      .st3, .st4 {
        isolation: isolate;
      }

      .st4 {
        opacity: .2;
      }
    </style>
  </defs>
  <path class="st6" d="M1761,1010.6c12.8-57.5,19.5-117.3,19.5-178.7,0-453.3-367.5-820.8-820.8-820.8S134.9,378.6,138.9,831.9c4.9,90.3,12.5,156,19.5,178.7h1602.6Z"/>
  <path class="st7" d="M1662.4,1010.6c14.5-57.2,22.2-117,22.2-178.7,0-400.4-324.6-724.9-724.9-724.9S220.7,431.7,234.8,831.9c4.8,136.8,19,167.7,22.2,178.7h1405.5,0Z"/>
  <path class="st4" d="M1680,750c-40.7-361.8-347.7-643-720.3-643S217.4,431.9,234.8,831.9c6.5,148.6,14.6,151.9,22.2,178.7h292.3c-23.9-54.7-37.1-115.2-37.1-178.7,0-247.2,200.4-447.6,447.6-447.6s438.4,191.3,447.2,430.7l273.1-65h0Z"/>
  <path class="st6" d="M1407.2,824.3v-1.7,1.7Z"/>
  <path class="st8" d="M1573.5,446.1c.9,1.4,1.7,2.7,2.6,4.1-.9-1.4-1.7-2.7-2.6-4.1Z"/>
  <path class="st8" d="M1568.9,438.9c.9,1.4,1.8,2.8,2.7,4.1-.9-1.4-1.8-2.8-2.7-4.1Z"/>
  <path class="st8" d="M1582.5,460.8c.8,1.3,1.6,2.7,2.4,4-.8-1.3-1.6-2.7-2.4-4Z"/>
  <path class="st8" d="M1578.1,453.4c.8,1.4,1.7,2.7,2.5,4.1-.8-1.4-1.6-2.7-2.5-4.1Z"/>
  <path class="st8" d="M1564.2,431.7c.9,1.4,1.8,2.8,2.8,4.2-.9-1.4-1.8-2.8-2.8-4.2Z"/>
  <path class="st8" d="M1539.4,396.6c1.1,1.5,2.2,3,3.4,4.5-1.1-1.5-2.2-3-3.4-4.5Z"/>
  <path class="st8" d="M1544.5,403.5c1.1,1.5,2.2,2.9,3.2,4.4-1.1-1.5-2.1-3-3.2-4.4Z"/>
  <path class="st8" d="M1549.6,410.5c1,1.4,2.1,2.9,3.1,4.4-1-1.5-2.1-2.9-3.1-4.4Z"/>
  <path class="st8" d="M1554.5,417.5c1,1.4,2,2.9,3,4.3-1-1.4-2-2.9-3-4.3Z"/>
  <path class="st8" d="M1559.4,424.5c1,1.4,1.9,2.8,2.9,4.2-.9-1.4-1.9-2.8-2.9-4.2Z"/>
  <path class="st8" d="M1586.9,468.2c.8,1.3,1.5,2.7,2.3,4-.8-1.3-1.5-2.7-2.3-4Z"/>
  <path class="st8" d="M1512.6,363.1c-14.4-17-29.6-33.3-45.5-48.9,15.9,15.6,31.1,31.9,45.5,48.9Z"/>
  <path class="st8" d="M1591.2,475.8c.7,1.3,1.5,2.6,2.2,4-.7-1.3-1.5-2.6-2.2-4Z"/>
  <path class="st8" d="M1595.4,483.3c.7,1.3,1.4,2.6,2.2,3.9-.7-1.3-1.4-2.6-2.2-3.9Z"/>
  <path class="st8" d="M1603.6,498.6c.7,1.3,1.3,2.5,2,3.8-.7-1.3-1.3-2.6-2-3.8Z"/>
  <path class="st8" d="M1599.6,490.9c.7,1.3,1.4,2.6,2.1,3.9-.7-1.3-1.4-2.6-2.1-3.9Z"/>
  <path class="st8" d="M1329.4,579.7c-.2-.3-.4-.6-.6-.9.2.3.4.6.6.9Z"/>
  <path class="st8" d="M1317.3,562.8c-.2-.3-.5-.6-.7-.9.2.3.5.6.7.9Z"/>
  <path class="st8" d="M1323.5,571.2c-.2-.3-.4-.6-.7-.9.2.3.4.6.7.9Z"/>
  <path class="st8" d="M1310.9,554.5c-.2-.3-.4-.6-.7-.8.2.3.4.6.7.8Z"/>
  <path class="st8" d="M1340.7,597.1c0-.2-.3-.5-.4-.7,0,.2.3.5.4.7Z"/>
  <path class="st8" d="M1346.1,605.9c0-.2-.2-.3-.3-.5,0,.2.2.3.3.5Z"/>
  <path class="st8" d="M1335.2,588.3c-.2-.3-.3-.5-.5-.8.2.3.3.5.5.8Z"/>
  <path class="st8" d="M1351.2,614.8s0-.2-.2-.3c0,0,0,.2.2.3Z"/>
  <path class="st8" d="M1304.4,546.4c-.2-.3-.4-.5-.6-.8.2.3.4.5.6.8Z"/>
  <path class="st8" d="M1297.6,538.4c-.2-.2-.4-.4-.5-.6.2.2.4.4.5.6Z"/>
  <path class="st8" d="M1523.6,376.4c1.3,1.6,2.7,3.3,4,5-1.3-1.7-2.6-3.3-4-5Z"/>
  <path class="st8" d="M1512.7,363.2c1.6,1.9,3.2,3.8,4.8,5.7-1.6-1.9-3.2-3.8-4.8-5.7Z"/>
  <path class="st8" d="M1529,383.1c1.3,1.6,2.5,3.2,3.7,4.8-1.2-1.6-2.5-3.2-3.7-4.8Z"/>
  <path class="st8" d="M1518.2,369.8c1.4,1.7,2.9,3.5,4.3,5.3-1.4-1.8-2.9-3.5-4.3-5.3Z"/>
  <path class="st8" d="M1290.6,530.6s-.3-.3-.4-.4c0,0,.3.3.4.4Z"/>
  <path class="st8" d="M1534.3,389.8c1.2,1.5,2.4,3.1,3.5,4.6-1.2-1.5-2.3-3.1-3.5-4.6Z"/>
  <path class="st8" d="M1283.5,523l-.2-.2.2.2Z"/>
  <path class="st4" d="M795,415.6h0l-152.6-235.7c17.9-8.7,36.2-16.7,54.9-24-270.7,105.1-484.1,368.9-462.5,676,11,156.8,7.7,121.5,22.2,178.7h292.3c-23.9-54.7-37.1-115.2-37.1-178.7,0-189,117.2-350.7,282.9-416.3h-.1Z"/>
  <path class="st8" d="M959.7,384.3h-5.6,5.6Z"/>
  <path class="st8" d="M799.9,413.7c-.3.1-.6.2-.9.4.3-.1.6-.2.9-.4Z"/>
  <path class="st8" d="M809.9,410c-.5.2-1,.4-1.5.5.5-.2,1-.4,1.5-.5Z"/>
  <path class="st8" d="M814.9,408.3c-.5.2-1.1.4-1.6.6.5-.2,1.1-.4,1.6-.6Z"/>
  <path class="st8" d="M804.9,411.8c-.4.2-.9.3-1.3.5.4-.2.9-.3,1.3-.5Z"/>
  <path class="st8" d="M819.9,406.6c-.6.2-1.2.4-1.7.6.6-.2,1.2-.4,1.7-.6Z"/>
  <path class="st8" d="M1035,390.7c-.3,0-.6-.1-1-.2.3,0,.6.1,1,.2Z"/>
  <path class="st8" d="M984.8,385c-.6,0-1.3,0-1.9-.1.6,0,1.3,0,1.9.1Z"/>
  <path class="st8" d="M1040.5,391.6c-.3,0-.6-.1-.9-.2.3,0,.6.1.9.2Z"/>
  <path class="st8" d="M1062.2,396.1c-.2,0-.3,0-.5-.1.2,0,.3,0,.5.1Z"/>
  <path class="st8" d="M1056.7,394.9c-.2,0-.4,0-.6-.1.2,0,.4,0,.6.1Z"/>
  <path class="st8" d="M1051.3,393.7c-.2,0-.5,0-.7-.1.2,0,.5,0,.7.1Z"/>
  <path class="st8" d="M1045.9,392.6c-.3,0-.5-.1-.8-.2.3,0,.5.1.8.2Z"/>
  <path class="st8" d="M1024,388.9c-.4,0-.8-.1-1.2-.2.4,0,.8.1,1.2.2Z"/>
  <path class="st8" d="M1018.4,388.2c-.4,0-.9-.1-1.3-.2.4,0,.9.1,1.3.2Z"/>
  <path class="st8" d="M1001.7,386.3c-.6,0-1.1-.1-1.7-.2.6,0,1.1.1,1.7.2Z"/>
  <path class="st8" d="M990.4,385.4c-.6,0-1.2,0-1.8-.1.6,0,1.2,0,1.8.1Z"/>
  <path class="st8" d="M996.1,385.8c-.6,0-1.2-.1-1.8-.1.6,0,1.2,0,1.8.1Z"/>
  <path class="st8" d="M1007.3,386.9c-.5,0-1-.1-1.6-.2.5,0,1,.1,1.6.2Z"/>
  <path class="st8" d="M1012.9,387.5c-.5,0-1-.1-1.4-.2.5,0,1,.1,1.4.2Z"/>
  <path class="st8" d="M1029.5,389.8c-.4,0-.7-.1-1.1-.2.4,0,.7.1,1.1.2Z"/>
  <path class="st8" d="M1115.1,412.1h0Z"/>
  <path class="st8" d="M1109.9,410.2h0Z"/>
  <path class="st8" d="M1120.2,414h0Z"/>
  <path class="st8" d="M1125.4,416h0Z"/>
  <path class="st8" d="M1104.7,408.4h0Z"/>
  <path class="st8" d="M1130.5,418.1h0Z"/>
  <path class="st8" d="M1083.6,401.7h-.2.2Z"/>
  <path class="st8" d="M1078.2,400.2h-.3.3Z"/>
  <path class="st8" d="M1067.5,397.4s-.3,0-.4-.1c0,0,.3,0,.4.1Z"/>
  <path class="st8" d="M1072.9,398.8h-.3.3Z"/>
  <path class="st8" d="M1099.4,406.6h0Z"/>
  <path class="st8" d="M1094.2,404.9h0Z"/>
  <path class="st8" d="M1088.9,403.3h-.2.2Z"/>
  <path class="st8" d="M874.7,392.4c-.2,0-.4,0-.7.1.2,0,.4,0,.7-.1Z"/>
  <path class="st8" d="M825,405c-.6.2-1.2.4-1.8.6.6-.2,1.2-.4,1.8-.6Z"/>
  <path class="st8" d="M880,391.4c-.7.1-1.4.3-2.1.4.7-.1,1.4-.3,2.1-.4Z"/>
  <path class="st8" d="M864.6,394.5h-.2.2Z"/>
  <path class="st8" d="M896.2,388.8c-.9.1-1.7.3-2.6.4.9-.1,1.7-.3,2.6-.4Z"/>
  <path class="st8" d="M860.7,395.3c-.5.1-1,.2-1.5.3.5-.1,1-.2,1.5-.3Z"/>
  <path class="st8" d="M885.4,390.5c-.8.1-1.6.3-2.4.4.8-.1,1.6-.3,2.4-.4Z"/>
  <path class="st8" d="M890.8,389.6c-.8.1-1.7.3-2.5.4.8-.1,1.7-.3,2.5-.4Z"/>
  <path class="st8" d="M840.3,400.5c-.6.2-1.3.3-1.9.5.6-.2,1.3-.3,1.9-.5Z"/>
  <path class="st8" d="M855.7,396.5c-.6.1-1.2.3-1.8.4.6-.1,1.2-.3,1.8-.4Z"/>
  <path class="st8" d="M830.1,403.4c-.6.2-1.2.4-1.8.6.6-.2,1.2-.4,1.8-.6Z"/>
  <path class="st8" d="M835.2,401.9c-.6.2-1.3.4-1.9.5.6-.2,1.3-.4,1.9-.5Z"/>
  <path class="st8" d="M850.6,397.7c-.6.2-1.3.3-1.9.5.6-.2,1.3-.3,1.9-.5Z"/>
  <path class="st8" d="M845.4,399.1c-.6.2-1.3.3-1.9.5.6-.2,1.3-.3,1.9-.5Z"/>
  <path class="st8" d="M967.1,384.4h-1.6,1.6Z"/>
  <path class="st8" d="M952.2,384.4h-3.7,3.7Z"/>
  <path class="st8" d="M940.5,384.8c-1.1,0-2.1,0-3.1.1,1,0,2.1,0,3.1-.1Z"/>
  <path class="st8" d="M946.2,384.5c-1.1,0-2.2,0-3.3.1,1.1,0,2.2,0,3.3-.1Z"/>
  <path class="st3" d="M1286,526l198-195c-56.2-60.3-138.9-122-211.4-153.2l-137.1,242.4h0"/>
  <path class="st8" d="M973.2,384.5h-1.9,1.9Z"/>
  <path class="st8" d="M979.1,384.8h-2,2Z"/>
  <path class="st8" d="M912.6,386.8c-.9,0-1.9.2-2.8.3.9-.1,1.9-.2,2.8-.3Z"/>
  <path class="st8" d="M901.6,388.1c-.9.1-1.8.2-2.7.4.9-.1,1.8-.2,2.7-.4Z"/>
  <path class="st8" d="M907.1,387.4c-.9.1-1.8.2-2.7.3.9-.1,1.8-.2,2.7-.3Z"/>
  <path class="st8" d="M918.1,386.3c-.9,0-1.9.2-2.8.3.9,0,1.9-.2,2.8-.3Z"/>
  <path class="st8" d="M929.2,385.4c-1,0-2,.1-2.9.2,1,0,2-.1,2.9-.2Z"/>
  <path class="st8" d="M934.8,385c-1,0-2,.1-3,.2,1,0,2-.1,3-.2Z"/>
  <path class="st8" d="M923.6,385.8c-1,0-1.9.2-2.9.2,1,0,1.9-.2,2.9-.2Z"/>
  <path class="st4" d="M239.6,747.7c-3.2,27.6-4.8,55.7-4.8,84.2,0,61.7,7.7,121.5,22.2,178.7h292.3c-23.9-54.7-37.1-115.2-37.1-178.7s0-12.8.4-19.1l-272.9-65h-.1Z"/>
  <path class="st3" d="M642,180.1c-103.2,50.4-192.7,124.6-261.3,215.5l211.1,181.4c50.2-72.3,121.2-129.1,204.3-161.8l-154.1-235.1Z"/>
  <path class="st2" d="M795,415.6c51-20.2,106.5-31.3,164.7-31.3s121.9,12.8,175.9,35.9l137.1-242.4c-94.7-45.4-200.9-70.9-313-70.9s-221.4,26.2-317.3,72.9l152.6,235.7h0Z"/>
  <path class="st4" d="M1620.5,533.5l-250.9,118.6c24.2,55,37.6,115.8,37.6,179.8s-13.3,123.9-37.1,178.7h292.3c14.5-57.2,22.2-117,22.2-178.7,0-106.4-22.9-207.4-64.1-298.4h0Z"/>
  <path class="st0" d="M1370.1,1010.6c23.9-54.7,37.1-115.2,37.1-178.7,0-247.2-200.4-447.6-447.6-447.6s-450.8,200.4-447.6,447.6c2.2,172,37.1,178.7,37.1,178.7h821Z"/>
  <path class="st7" d="M1236.6,1010.6c35.2-52.8,55.8-116.2,55.8-184.5,0-183.8-149-332.7-332.7-332.7s-347.8,149.6-332.7,332.7,52,182.7,55.8,184.5h553.9,0Z"/>
  <g>
    <path class="st5" d="M309.2,835.5c1.7,0,3.1.3,4.3.9,1.2.6,2.2,1.5,2.9,2.6.7,1.1,1,2.4,1,4s-.3,2.9-1,4-1.7,2-2.9,2.6c-1.2.6-2.7.9-4.3.9h-5.7v9.6h-3v-24.6h8.7ZM308.8,847.6c1.9,0,3.4-.4,4.2-1.2.9-.8,1.3-2,1.3-3.5s-.4-2.7-1.3-3.5-2.3-1.2-4.2-1.2h-5.2v9.4h5.2Z"/>
    <path class="st5" d="M322.3,860v-18.6h2.4l.4,3.1c1-2.3,3-3.4,6-3.4s.7,0,1.1,0,.7,0,1,.3l-.5,2.7c-.3,0-.6-.2-.9-.2h-1.4c-.6,0-1.5.2-2.3.7-.8.4-1.4,1.1-2,2-.5.9-.8,2.1-.8,3.4v10h-3Z"/>
    <path class="st5" d="M344.9,841c1.8,0,3.3.4,4.7,1.2,1.4.8,2.4,1.9,3.2,3.3.8,1.5,1.2,3.2,1.2,5.2s-.4,3.7-1.2,5.2c-.8,1.5-1.8,2.6-3.2,3.3-1.4.8-2.9,1.2-4.7,1.2s-3.3-.4-4.7-1.2c-1.4-.8-2.4-1.9-3.2-3.3-.8-1.5-1.2-3.2-1.2-5.2s.4-3.7,1.2-5.2c.8-1.5,1.8-2.6,3.2-3.3,1.4-.8,2.9-1.2,4.7-1.2ZM344.9,843.6c-1.9,0-3.4.6-4.4,1.9-1.1,1.3-1.6,3-1.6,5.2s.5,3.9,1.6,5.2,2.5,1.9,4.4,1.9,3.4-.6,4.4-1.9c1.1-1.3,1.6-3,1.6-5.2s-.5-3.9-1.6-5.2-2.5-1.9-4.4-1.9Z"/>
    <path class="st5" d="M366.4,860.4c-1.5,0-3-.4-4.2-1.2-1.3-.8-2.3-1.9-3.1-3.3-.8-1.5-1.2-3.2-1.2-5.2s.4-3.8,1.2-5.2c.8-1.4,1.9-2.5,3.2-3.3,1.3-.8,2.8-1.1,4.3-1.1s2.5.3,3.6.9c1,.6,1.8,1.4,2.3,2.5v-11.6h3v27.2h-2.6l-.2-3.5c-.5,1.3-1.4,2.2-2.5,2.9-1.2.7-2.4,1-3.8,1h0ZM366.7,857.8c1.8,0,3.2-.7,4.3-2s1.6-3.1,1.6-5.4-.5-3.8-1.6-5-2.4-1.8-4.1-1.8-3.3.6-4.4,1.9c-1,1.3-1.6,3-1.6,5.1s.5,3.8,1.5,5.1,2.4,1.9,4.3,1.9v.2h0Z"/>
    <path class="st5" d="M388.8,860.4c-1.2,0-2.3-.2-3.4-.7-1.1-.4-1.9-1.2-2.6-2.2s-1-2.3-1-3.9v-12.2h3v11.4c0,1.9.4,3.2,1.2,3.9.8.7,2,1.1,3.5,1.1s1.8-.2,2.7-.7c.8-.4,1.5-1.1,2.1-2,.5-.9.8-2.1.8-3.6v-10.1h3v18.6h-2.6l-.2-2.8c-.6,1.1-1.5,1.9-2.6,2.4s-2.4.8-3.9.8Z"/>
    <path class="st5" d="M412.4,841c1.9,0,3.5.4,4.8,1.3s2.2,2.1,2.9,3.6l-2.8,1.3c-.4-1.2-1-2.1-1.8-2.7-.8-.6-1.9-.9-3.1-.9-1.9,0-3.3.6-4.4,1.9-1.1,1.3-1.6,3-1.6,5.2s.5,3.9,1.6,5.2,2.5,1.9,4.4,1.9,2.6-.3,3.5-1,1.4-1.6,1.7-2.8l2.8,1c-.6,1.7-1.6,3.1-2.9,4s-3,1.5-5,1.5-3.3-.4-4.7-1.2c-1.4-.8-2.4-1.9-3.2-3.3-.8-1.5-1.2-3.2-1.2-5.2s.4-3.7,1.2-5.2c.8-1.5,1.8-2.6,3.2-3.3,1.4-.8,2.9-1.2,4.7-1.2h-.1ZM410.3,859.9l1.6-.9c1.5.5,2.5,1.1,3.1,1.9.6.8.9,1.8.9,2.8s-.4,2.2-1.3,3.1c-.8.8-1.9,1.3-3.2,1.3s-1.4,0-2-.3c-.6-.2-1.1-.5-1.5-.8l.7-2.2c.3.2.7.4,1.1.6.4.2.8.3,1.4.3s1.3-.2,1.7-.7c.4-.4.7-1.1.7-1.9s-.2-1.2-.7-1.7-1.3-1-2.5-1.5h0Z"/>
    <path class="st5" d="M436,848c0-1.4-.4-2.5-1.1-3.2-.7-.8-1.8-1.1-3.2-1.1s-2.4.3-3.3.8c-.9.6-1.6,1.5-2,2.7l-2.4-1.5c.5-1.4,1.4-2.5,2.8-3.4s3-1.3,5-1.3,2.6.2,3.6.7c1.1.5,2,1.2,2.6,2.1.6.9.9,2.1.9,3.6v9c0,.9.5,1.3,1.4,1.3s.9,0,1.4-.2v2.3c-.6.2-1.3.4-2.1.4s-1.7-.2-2.4-.7c-.7-.4-1.1-1.1-1.3-2-.6,1-1.5,1.7-2.6,2.1s-2.2.7-3.3.7-2.1-.2-3.1-.6c-.9-.4-1.7-.9-2.3-1.7-.6-.8-.8-1.7-.8-2.8s.5-2.5,1.4-3.4,2.2-1.5,3.9-1.8l6.8-1.3v-.7h.1ZM438.7,833.3c-.3,3.3-1.7,5-4.2,5s-1.3,0-1.8-.4-.9-.6-1.2-.9c-.3-.3-.7-.6-1-.9-.3-.3-.7-.4-1.1-.4s-1,.2-1.2.7c-.3.5-.5,1.1-.6,1.9h-2.3c.1-1.6.5-2.9,1.2-3.7s1.7-1.3,3-1.3,1.2,0,1.7.4.9.6,1.3.9c.4.3.7.6,1,.9.3.3.7.4,1,.4.6,0,1-.2,1.3-.7s.5-1.1.6-1.9h2.3ZM427,855.2c0,.8.3,1.4.9,1.9s1.5.7,2.6.7,1.9-.2,2.7-.5c.8-.3,1.5-.8,2-1.5s.8-1.6.8-2.6v-2l-5.4,1.1c-1.2.2-2.1.6-2.7,1s-.9,1.1-.9,1.9h0Z"/>
    <path class="st5" d="M453.5,841c1.8,0,3.3.4,4.7,1.2,1.4.8,2.4,1.9,3.2,3.3.8,1.5,1.2,3.2,1.2,5.2s-.4,3.7-1.2,5.2c-.8,1.5-1.8,2.6-3.2,3.3-1.4.8-2.9,1.2-4.7,1.2s-3.3-.4-4.7-1.2c-1.4-.8-2.4-1.9-3.2-3.3-.8-1.5-1.2-3.2-1.2-5.2s.4-3.7,1.2-5.2c.8-1.5,1.8-2.6,3.2-3.3,1.4-.8,2.9-1.2,4.7-1.2ZM453.5,843.6c-1.9,0-3.4.6-4.4,1.9-1.1,1.3-1.6,3-1.6,5.2s.5,3.9,1.6,5.2,2.5,1.9,4.4,1.9,3.4-.6,4.4-1.9c1.1-1.3,1.6-3,1.6-5.2s-.5-3.9-1.6-5.2-2.5-1.9-4.4-1.9Z"/>
    <path class="st5" d="M288.1,904.7h-3.2l-2.6-6.8h-11.1l-2.6,6.8h-3.1l9.6-24.6h3.5l9.5,24.6h0ZM272.3,895.1h9l-4.5-12.1-4.5,12.1Z"/>
    <path class="st5" d="M302.1,902.3c1.8,0,3.1.4,4.1,1.2s1.5,1.9,1.5,3.2-.4,2.3-1.2,3.2c-.8.9-1.9,1.6-3.2,2.1-1.4.5-2.9.7-4.6.7-2.9,0-5.1-.5-6.6-1.5s-2.2-2.2-2.2-3.6.2-1.6.7-2.3,1.3-1.2,2.3-1.5c-.6-.3-1.1-.7-1.5-1.1-.4-.5-.6-1.1-.6-2s.2-1.5.7-2.1,1.1-1.1,2-1.5c-.9-.5-1.7-1.3-2.2-2.2s-.7-1.9-.7-3,.3-2.3,1-3.3c.7-.9,1.6-1.7,2.7-2.2s2.5-.8,3.9-.8,3,.3,4.2.9c.2-1.2.7-2.2,1.7-2.9.9-.7,2-1.1,3.3-1.1h.2l.7,2.6h-.3c-1.1,0-2,.2-2.7.6-.6.4-1,1.1-1.1,2,1.1,1.1,1.6,2.5,1.6,4.1s-.3,2.3-1,3.3c-.6,1-1.5,1.7-2.7,2.2s-2.5.8-4,.8-1.8,0-2.6-.3c-.7.2-1.3.5-1.6.9-.3.4-.5.8-.5,1.3,0,1.4,1,2,2.9,2h5.4l.4.3h0ZM298.7,910.2c2.2,0,3.7-.3,4.8-.9,1-.6,1.5-1.4,1.5-2.2s-.3-1.2-.8-1.6c-.5-.4-1.5-.6-2.9-.6h-5.7c-.8,0-1.5.2-2,.6-.5.4-.8,1-.8,1.7s.5,1.6,1.6,2.2c1.1.5,2.5.8,4.4.8h-.1ZM298.5,888.1c-1.3,0-2.4.4-3.2,1.1-.9.7-1.3,1.6-1.3,2.8s.4,2.1,1.3,2.8,1.9,1.1,3.2,1.1,2.4-.4,3.2-1.1c.9-.7,1.3-1.6,1.3-2.8s-.4-2.1-1.3-2.8-1.9-1.1-3.2-1.1Z"/>
    <path class="st5" d="M311.6,904.7v-18.6h2.4l.4,3.1c1-2.3,3-3.4,6-3.4s.7,0,1.1,0,.7,0,1,.3l-.5,2.7c-.3,0-.6-.2-.9-.2h-1.4c-.6,0-1.5.2-2.3.7-.8.4-1.4,1.1-2,2-.5.9-.8,2.1-.8,3.4v10h-3Z"/>
    <path class="st5" d="M328.9,876.8h3.2l-3.6,6.2h-2.4l2.8-6.2ZM329.4,886.1v18.6h-3v-18.6h3Z"/>
    <path class="st5" d="M343.6,885.7c1.9,0,3.5.4,4.8,1.3s2.2,2.1,2.9,3.6l-2.8,1.3c-.4-1.2-1-2.1-1.8-2.7-.8-.6-1.9-.9-3.1-.9-1.9,0-3.3.6-4.4,1.9-1.1,1.3-1.6,3-1.6,5.2s.5,3.9,1.6,5.2,2.5,1.9,4.4,1.9,2.6-.3,3.5-1,1.4-1.6,1.7-2.8l2.8,1c-.6,1.7-1.6,3.1-2.9,4s-3,1.5-5,1.5-3.3-.4-4.7-1.2c-1.4-.8-2.4-1.9-3.2-3.3-.8-1.5-1.2-3.2-1.2-5.2s.4-3.7,1.2-5.2c.8-1.5,1.8-2.6,3.2-3.3,1.4-.8,2.9-1.2,4.7-1.2h-.1Z"/>
    <path class="st5" d="M364.1,885.7c1.8,0,3.3.4,4.7,1.2,1.4.8,2.4,1.9,3.2,3.3.8,1.5,1.2,3.2,1.2,5.2s-.4,3.7-1.2,5.2c-.8,1.5-1.8,2.6-3.2,3.3-1.4.8-2.9,1.2-4.7,1.2s-3.3-.4-4.7-1.2c-1.4-.8-2.4-1.9-3.2-3.3-.8-1.5-1.2-3.2-1.2-5.2s.4-3.7,1.2-5.2c.8-1.5,1.8-2.6,3.2-3.3,1.4-.8,2.9-1.2,4.7-1.2ZM364.1,888.3c-1.9,0-3.4.6-4.4,1.9-1.1,1.3-1.6,3-1.6,5.2s.5,3.9,1.6,5.2,2.5,1.9,4.4,1.9,3.4-.6,4.4-1.9c1.1-1.3,1.6-3,1.6-5.2s-.5-3.9-1.6-5.2-2.5-1.9-4.4-1.9Z"/>
    <path class="st5" d="M381.2,877.5v22.4c0,.9.2,1.6.5,2s.9.5,1.7.5h1.2c.3,0,.8-.2,1.3-.4l-.5,2.6c-.8.3-1.7.5-2.8.5-3,0-4.5-1.7-4.5-5v-22.6h3.1,0Z"/>
    <path class="st5" d="M400.2,892.7c0-1.4-.4-2.5-1.1-3.2-.7-.8-1.8-1.1-3.2-1.1s-2.4.3-3.3.8c-.9.6-1.6,1.5-2,2.7l-2.4-1.5c.5-1.4,1.4-2.5,2.8-3.4s3-1.3,5-1.3,2.6.2,3.6.7c1.1.5,2,1.2,2.6,2.1.6.9.9,2.1.9,3.6v9c0,.9.5,1.3,1.4,1.3s.9,0,1.4-.2v2.3c-.6.2-1.3.4-2.1.4s-1.7-.2-2.4-.7c-.7-.4-1.1-1.1-1.3-2-.6,1-1.5,1.7-2.6,2.1s-2.2.7-3.3.7-2.1-.2-3.1-.6c-.9-.4-1.7-.9-2.3-1.7-.6-.8-.8-1.7-.8-2.8s.5-2.5,1.4-3.4,2.2-1.5,3.9-1.8l6.8-1.3v-.7h.1ZM391.2,899.8c0,.8.3,1.4.9,1.9s1.5.7,2.6.7,1.9-.2,2.7-.5c.8-.3,1.5-.8,2-1.5s.8-1.6.8-2.6v-2l-5.4,1.1c-1.2.2-2.1.6-2.7,1s-.9,1.1-.9,1.9h0Z"/>
    <path class="st5" d="M430.1,905.1c-1.8,0-3.3-.4-4.7-1.2-1.4-.8-2.5-1.9-3.2-3.3-.8-1.5-1.2-3.2-1.2-5.2s.4-3.7,1.2-5.2c.8-1.5,1.8-2.6,3.2-3.3,1.3-.8,2.9-1.2,4.6-1.2s3.2.4,4.4,1.1c1.2.7,2.2,1.8,2.8,3,.6,1.3,1,2.7,1,4.3s0,.8,0,1.2,0,.7-.1.9h-14c.1,2,.8,3.5,1.8,4.6,1.1,1.1,2.5,1.6,4.2,1.6s2.5-.3,3.3-.8c.9-.5,1.5-1.2,2.1-2.1l2.3,1.4c-.7,1.3-1.7,2.3-3,3s-2.9,1.1-4.7,1.1h0ZM429.9,888.3c-1.6,0-2.8.5-3.9,1.4-1,.9-1.6,2.2-1.9,3.9h11.1c0-1.7-.6-3-1.6-3.9s-2.2-1.4-3.8-1.4h0Z"/>
    <path class="st5" d="M463.1,905.1c-1.5,0-3-.4-4.2-1.2-1.3-.8-2.3-1.9-3.1-3.3-.8-1.5-1.2-3.2-1.2-5.2s.4-3.8,1.2-5.2c.8-1.4,1.9-2.5,3.2-3.3,1.3-.8,2.8-1.1,4.3-1.1s2.5.3,3.6.9c1,.6,1.8,1.4,2.3,2.5v-11.6h3v27.2h-2.6l-.2-3.5c-.5,1.3-1.4,2.2-2.5,2.9-1.2.7-2.4,1-3.8,1h0ZM463.4,902.5c1.8,0,3.2-.7,4.3-2s1.6-3.1,1.6-5.4-.5-3.8-1.6-5-2.4-1.8-4.1-1.8-3.3.6-4.4,1.9c-1,1.3-1.6,3-1.6,5.1s.5,3.8,1.5,5.1,2.4,1.9,4.3,1.9v.2h0Z"/>
    <path class="st5" d="M486.5,905.1c-1.8,0-3.3-.4-4.7-1.2-1.4-.8-2.5-1.9-3.2-3.3-.8-1.5-1.2-3.2-1.2-5.2s.4-3.7,1.2-5.2c.8-1.5,1.8-2.6,3.2-3.3,1.3-.8,2.9-1.2,4.6-1.2s3.2.4,4.4,1.1c1.2.7,2.2,1.8,2.8,3,.6,1.3,1,2.7,1,4.3s0,.8,0,1.2,0,.7-.1.9h-14c.1,2,.8,3.5,1.8,4.6,1.1,1.1,2.5,1.6,4.2,1.6s2.5-.3,3.3-.8c.9-.5,1.5-1.2,2.1-2.1l2.3,1.4c-.7,1.3-1.7,2.3-3,3s-2.9,1.1-4.7,1.1h0ZM486.3,888.3c-1.6,0-2.8.5-3.9,1.4-1,.9-1.6,2.2-1.9,3.9h11.1c0-1.7-.6-3-1.6-3.9s-2.2-1.4-3.8-1.4h0Z"/>
    <path class="st5" d="M320.2,949.4h-3.2l-2.6-6.8h-11.1l-2.6,6.8h-3.1l9.6-24.6h3.5l9.5,24.6h0ZM304.4,939.8h9l-4.5-12.1-4.5,12.1Z"/>
    <path class="st5" d="M327.1,922.2v22.4c0,.9.2,1.6.5,2s.9.5,1.7.5h1.2c.3,0,.8-.2,1.3-.4l-.5,2.6c-.8.3-1.7.5-2.8.5-3,0-4.5-1.7-4.5-5v-22.6h3.1,0Z"/>
    <path class="st5" d="M336.7,927.2c-.7,0-1.2-.2-1.6-.6-.4-.4-.6-.9-.6-1.6s.2-1.2.6-1.6c.4-.4.9-.6,1.6-.6s1.2.2,1.6.6c.4.4.6.9.6,1.6s-.2,1.2-.6,1.6c-.4.4-.9.6-1.6.6ZM338.2,930.7v18.6h-3v-18.6h3Z"/>
    <path class="st5" d="M344.8,949.4v-18.6h2.6l.2,2.9c.7-1.1,1.5-2,2.6-2.5s2.2-.8,3.3-.8,2.6.3,3.7.9c1.2.6,2.1,1.5,2.7,2.8.4-.8,1-1.5,1.7-2.1.7-.5,1.5-.9,2.4-1.2s1.7-.4,2.4-.4c1.2,0,2.3.2,3.4.7s2,1.3,2.7,2.3,1,2.4,1,4v11.9h-3v-11.6c0-1.7-.4-2.9-1.3-3.6-.8-.7-1.9-1.1-3.1-1.1s-1.9.2-2.7.7c-.8.5-1.5,1.2-2,2.1-.5.9-.8,2-.8,3.4v10.2h-3v-11.6c0-1.7-.4-2.9-1.3-3.6-.8-.7-1.9-1.1-3.1-1.1s-1.7.2-2.5.7c-.9.4-1.6,1.1-2.1,2.1-.6.9-.9,2.2-.9,3.7v9.9h-3,0Z"/>
    <path class="st5" d="M387.7,949.7c-1.8,0-3.3-.4-4.7-1.2-1.4-.8-2.5-1.9-3.2-3.3-.8-1.5-1.2-3.2-1.2-5.2s.4-3.7,1.2-5.2c.8-1.5,1.8-2.6,3.2-3.3,1.3-.8,2.9-1.2,4.6-1.2s3.2.4,4.4,1.1c1.2.7,2.2,1.8,2.8,3,.6,1.3,1,2.7,1,4.3s0,.8,0,1.2,0,.7-.1.9h-14c.1,2,.8,3.5,1.8,4.6,1.1,1.1,2.5,1.6,4.2,1.6s2.5-.3,3.3-.8c.9-.5,1.5-1.2,2.1-2.1l2.3,1.4c-.7,1.3-1.7,2.3-3,3s-2.9,1.1-4.7,1.1h0ZM387.4,933c-1.6,0-2.8.5-3.9,1.4-1,.9-1.6,2.2-1.9,3.9h11.1c0-1.7-.6-3-1.6-3.9s-2.2-1.4-3.8-1.4h0Z"/>
    <path class="st5" d="M401,949.4v-18.6h2.6l.2,2.9c.6-1.2,1.5-2,2.6-2.5s2.3-.8,3.6-.8,2.6.3,3.6.8c1.1.5,2,1.3,2.6,2.3.7,1,1,2.4,1,4v11.9h-3v-10.9c0-2.1-.4-3.5-1.3-4.3s-2-1.2-3.3-1.2-1.8.2-2.7.6c-.9.4-1.6,1.1-2.2,2s-.9,2.2-.9,3.8v9.9h-3,.2,0Z"/>
    <path class="st5" d="M434.8,930.7v2.6h-6.8v10.9c0,.9.3,1.6.8,2s1.2.7,2,.7,1.3,0,1.9-.4c.5-.2,1-.6,1.4-1l1,2.5c-.6.5-1.2.9-2,1.2s-1.7.4-2.7.4-1.8-.2-2.6-.5-1.5-.9-2-1.6c-.5-.7-.7-1.7-.8-2.9v-11.4h-3.7v-2.6h3.7v-4.5l3-.8v5.3h6.8Z"/>
    <path class="st5" d="M446.6,930.4c1.8,0,3.3.4,4.7,1.2,1.4.8,2.4,1.9,3.2,3.3.8,1.5,1.2,3.2,1.2,5.2s-.4,3.7-1.2,5.2c-.8,1.5-1.8,2.6-3.2,3.3-1.4.8-2.9,1.2-4.7,1.2s-3.3-.4-4.7-1.2c-1.4-.8-2.4-1.9-3.2-3.3-.8-1.5-1.2-3.2-1.2-5.2s.4-3.7,1.2-5.2c.8-1.5,1.8-2.6,3.2-3.3,1.4-.8,2.9-1.2,4.7-1.2ZM446.6,932.9c-1.9,0-3.4.6-4.4,1.9-1.1,1.3-1.6,3-1.6,5.2s.5,3.9,1.6,5.2,2.5,1.9,4.4,1.9,3.4-.6,4.4-1.9c1.1-1.3,1.6-3,1.6-5.2s-.5-3.9-1.6-5.2-2.5-1.9-4.4-1.9Z"/>
    <path class="st5" d="M467.5,949.7c-1.8,0-3.5-.4-5-1.2s-2.7-1.9-3.5-3.3l2.5-1.8c.5,1.1,1.3,2,2.4,2.7,1.1.6,2.3,1,3.8,1s2.3-.3,3.1-.8c.7-.5,1.1-1.2,1.1-2s-.2-1-.5-1.4-1-.8-1.9-.9l-4.5-.9c-1.8-.4-3.1-1-3.9-1.9s-1.2-1.9-1.2-3.2.3-1.9.9-2.8c.6-.8,1.4-1.5,2.5-2s2.4-.8,3.8-.8,3.4.4,4.7,1.1c1.3.7,2.2,1.7,2.8,3.1l-2.5,1.6c-.4-1.1-1.1-1.9-2-2.4s-1.9-.8-2.9-.8-2.4.3-3.1.8-1.1,1.2-1.1,2,.2,1,.6,1.5,1.1.8,2.1,1l4.7,1c1.7.3,3,.9,3.6,1.7.7.8,1,1.8,1,2.9,0,1.8-.7,3.2-2,4.2-1.4,1.1-3.2,1.6-5.4,1.6h-.1Z"/>
  </g>
  <g>
    <path class="st5" d="M336.2,648.1v-24.6h17.2v2.8h-14.3v7.9h11.1v2.8h-11.1v8.3h14.8v2.8h-17.8,0Z"/>
    <path class="st5" d="M366.2,648.5c-1.5,0-3-.4-4.2-1.2-1.3-.8-2.3-1.9-3.1-3.3-.8-1.5-1.2-3.2-1.2-5.2s.4-3.8,1.2-5.2c.8-1.4,1.9-2.5,3.2-3.3,1.3-.8,2.8-1.1,4.3-1.1s2.5.3,3.6.9c1,.6,1.8,1.4,2.3,2.5v-11.6h3v27.2h-2.6l-.2-3.5c-.5,1.3-1.4,2.2-2.5,2.9-1.2.7-2.4,1-3.8,1h0ZM366.5,645.9c1.8,0,3.2-.7,4.3-2s1.6-3.1,1.6-5.4-.5-3.8-1.6-5-2.4-1.8-4.1-1.8-3.3.6-4.4,1.9c-1,1.3-1.6,3-1.6,5.1s.5,3.8,1.5,5.1,2.4,1.9,4.3,1.9v.2h0Z"/>
    <path class="st5" d="M388.7,648.5c-1.2,0-2.3-.2-3.4-.7-1.1-.4-1.9-1.2-2.6-2.2s-1-2.3-1-3.9v-12.2h3v11.4c0,1.9.4,3.2,1.2,3.9.8.7,2,1.1,3.5,1.1s1.8-.2,2.7-.7c.8-.4,1.5-1.1,2.1-2,.5-.9.8-2.1.8-3.6v-10.1h3v18.6h-2.6l-.2-2.8c-.6,1.1-1.5,1.9-2.6,2.4s-2.4.8-3.9.8Z"/>
    <path class="st5" d="M412.3,629.1c1.9,0,3.5.4,4.8,1.3s2.2,2.1,2.9,3.6l-2.8,1.3c-.4-1.2-1-2.1-1.8-2.7-.8-.6-1.9-.9-3.1-.9-1.9,0-3.3.6-4.4,1.9-1.1,1.3-1.6,3-1.6,5.2s.5,3.9,1.6,5.2,2.5,1.9,4.4,1.9,2.6-.3,3.5-1,1.4-1.6,1.7-2.8l2.8,1c-.6,1.7-1.6,3.1-2.9,4s-3,1.5-5,1.5-3.3-.4-4.7-1.2c-1.4-.8-2.4-1.9-3.2-3.3-.8-1.5-1.2-3.2-1.2-5.2s.4-3.7,1.2-5.2c.8-1.5,1.8-2.6,3.2-3.3,1.4-.8,2.9-1.2,4.7-1.2h-.1Z"/>
    <path class="st5" d="M435.9,636.1c0-1.4-.4-2.5-1.1-3.2-.7-.8-1.8-1.1-3.2-1.1s-2.4.3-3.3.8c-.9.6-1.6,1.5-2,2.7l-2.4-1.5c.5-1.4,1.4-2.5,2.8-3.4s3-1.3,5-1.3,2.6.2,3.6.7c1.1.5,2,1.2,2.6,2.1.6.9.9,2.1.9,3.6v9c0,.9.5,1.3,1.4,1.3s.9,0,1.4-.2v2.3c-.6.2-1.3.4-2.1.4s-1.7-.2-2.4-.7c-.7-.4-1.1-1.1-1.3-2-.6,1-1.5,1.7-2.6,2.1s-2.2.7-3.3.7-2.1-.2-3.1-.6c-.9-.4-1.7-.9-2.3-1.7-.6-.8-.8-1.7-.8-2.8s.5-2.5,1.4-3.4,2.2-1.5,3.9-1.8l6.8-1.3v-.7h.1ZM426.9,643.3c0,.8.3,1.4.9,1.9s1.5.7,2.6.7,1.9-.2,2.7-.5c.8-.3,1.5-.8,2-1.5s.8-1.6.8-2.6v-2l-5.4,1.1c-1.2.2-2.1.6-2.7,1s-.9,1.1-.9,1.9h0Z"/>
    <path class="st5" d="M453.4,629.1c1.9,0,3.5.4,4.8,1.3s2.2,2.1,2.9,3.6l-2.8,1.3c-.4-1.2-1-2.1-1.8-2.7-.8-.6-1.9-.9-3.1-.9-1.9,0-3.3.6-4.4,1.9-1.1,1.3-1.6,3-1.6,5.2s.5,3.9,1.6,5.2,2.5,1.9,4.4,1.9,2.6-.3,3.5-1,1.4-1.6,1.7-2.8l2.8,1c-.6,1.7-1.6,3.1-2.9,4s-3,1.5-5,1.5-3.3-.4-4.7-1.2c-1.4-.8-2.4-1.9-3.2-3.3-.8-1.5-1.2-3.2-1.2-5.2s.4-3.7,1.2-5.2c.8-1.5,1.8-2.6,3.2-3.3,1.4-.8,2.9-1.2,4.7-1.2h-.1ZM451.3,648l1.6-.9c1.5.5,2.5,1.1,3.1,1.9.6.8.9,1.8.9,2.8s-.4,2.2-1.3,3.1c-.8.8-1.9,1.3-3.2,1.3s-1.4,0-2-.3c-.6-.2-1.1-.5-1.5-.8l.7-2.2c.3.2.7.4,1.1.6.4.2.8.3,1.4.3s1.3-.2,1.7-.7c.4-.4.7-1.1.7-1.9s-.2-1.2-.7-1.7-1.3-1-2.5-1.5h0Z"/>
    <path class="st5" d="M477.1,636.1c0-1.4-.4-2.5-1.1-3.2-.7-.8-1.8-1.1-3.2-1.1s-2.4.3-3.3.8c-.9.6-1.6,1.5-2,2.7l-2.4-1.5c.5-1.4,1.4-2.5,2.8-3.4s3-1.3,5-1.3,2.6.2,3.6.7c1.1.5,2,1.2,2.6,2.1.6.9.9,2.1.9,3.6v9c0,.9.5,1.3,1.4,1.3s.9,0,1.4-.2v2.3c-.6.2-1.3.4-2.1.4s-1.7-.2-2.4-.7c-.7-.4-1.1-1.1-1.3-2-.6,1-1.5,1.7-2.6,2.1s-2.2.7-3.3.7-2.1-.2-3.1-.6c-.9-.4-1.7-.9-2.3-1.7-.6-.8-.8-1.7-.8-2.8s.5-2.5,1.4-3.4,2.2-1.5,3.9-1.8l6.8-1.3v-.7h.1ZM479.7,621.4c-.3,3.3-1.7,5-4.2,5s-1.3,0-1.8-.4-.9-.6-1.2-.9c-.3-.3-.7-.6-1-.9-.3-.3-.7-.4-1.1-.4s-1,.2-1.2.7c-.3.5-.5,1.1-.6,1.9h-2.3c.1-1.6.5-2.9,1.2-3.7s1.7-1.3,3-1.3,1.2,0,1.7.4.9.6,1.3.9c.4.3.7.6,1,.9.3.3.7.4,1,.4.6,0,1-.2,1.3-.7s.5-1.1.6-1.9h2.3ZM468.1,643.3c0,.8.3,1.4.9,1.9s1.5.7,2.6.7,1.9-.2,2.7-.5c.8-.3,1.5-.8,2-1.5s.8-1.6.8-2.6v-2l-5.4,1.1c-1.2.2-2.1.6-2.7,1s-.9,1.1-.9,1.9h0Z"/>
    <path class="st5" d="M494.6,629.1c1.8,0,3.3.4,4.7,1.2,1.4.8,2.4,1.9,3.2,3.3.8,1.5,1.2,3.2,1.2,5.2s-.4,3.7-1.2,5.2c-.8,1.5-1.8,2.6-3.2,3.3-1.4.8-2.9,1.2-4.7,1.2s-3.3-.4-4.7-1.2c-1.4-.8-2.4-1.9-3.2-3.3-.8-1.5-1.2-3.2-1.2-5.2s.4-3.7,1.2-5.2c.8-1.5,1.8-2.6,3.2-3.3,1.4-.8,2.9-1.2,4.7-1.2ZM494.6,631.7c-1.9,0-3.4.6-4.4,1.9-1.1,1.3-1.6,3-1.6,5.2s.5,3.9,1.6,5.2,2.5,1.9,4.4,1.9,3.4-.6,4.4-1.9c1.1-1.3,1.6-3,1.6-5.2s-.5-3.9-1.6-5.2-2.5-1.9-4.4-1.9Z"/>
  </g>
  <g>
    <path class="st5" d="M514.6,398.2h-3.2l-2.6-6.8h-11.1l-2.6,6.8h-3.1l9.6-24.6h3.5l9.5,24.6ZM498.8,388.6h9l-4.5-12.1-4.5,12.1Z"/>
    <path class="st5" d="M518.7,398.2v-18.6h2.6l.2,2.9c.7-1.1,1.5-2,2.6-2.5s2.2-.8,3.3-.8,2.6.3,3.7.9c1.2.6,2.1,1.5,2.7,2.8.4-.8,1-1.5,1.7-2.1s1.5-.9,2.4-1.2c.9-.3,1.7-.4,2.4-.4,1.2,0,2.3.2,3.4.7,1.1.5,2,1.3,2.7,2.3s1,2.4,1,4v11.9h-3v-11.6c0-1.7-.4-2.9-1.3-3.6-.8-.7-1.9-1.1-3.1-1.1s-1.9.2-2.7.7-1.5,1.2-2,2.1-.8,2-.8,3.4v10.2h-3v-11.6c0-1.7-.4-2.9-1.3-3.6-.8-.7-1.9-1.1-3.1-1.1s-1.7.2-2.5.7c-.9.4-1.6,1.1-2.1,2.1-.6.9-.9,2.2-.9,3.7v9.9h-3,0Z"/>
    <path class="st5" d="M562.9,398.5c-1.4,0-2.7-.3-3.8-1s-2-1.6-2.5-2.6l-.2,3.3h-2.6v-27.2h3v11.5c.6-1,1.4-1.8,2.5-2.4s2.3-.9,3.7-.9,3,.4,4.2,1.2c1.3.8,2.3,1.9,3.1,3.3s1.2,3.2,1.2,5.2-.4,3.7-1.2,5.2-1.8,2.6-3.1,3.3c-1.3.8-2.7,1.2-4.2,1.2h-.1ZM562.6,395.9c1.8,0,3.3-.6,4.3-1.9s1.5-3,1.5-5.1-.5-3.8-1.5-5.1c-1-1.3-2.4-1.9-4.3-1.9s-3.2.7-4.2,2c-1.1,1.3-1.6,3-1.6,5.2s.5,3.8,1.6,5.1,2.5,1.9,4.2,1.9v-.2Z"/>
    <path class="st5" d="M578.3,376c-.7,0-1.2-.2-1.6-.6-.4-.4-.6-.9-.6-1.6s.2-1.2.6-1.6c.4-.4.9-.6,1.6-.6s1.2.2,1.6.6c.4.4.6.9.6,1.6s-.2,1.2-.6,1.6-.9.6-1.6.6ZM579.7,379.6v18.6h-3v-18.6h3Z"/>
    <path class="st5" d="M594.1,398.5c-1.8,0-3.3-.4-4.7-1.2-1.4-.8-2.5-1.9-3.2-3.3-.8-1.5-1.2-3.2-1.2-5.2s.4-3.7,1.2-5.2,1.8-2.6,3.2-3.3c1.3-.8,2.9-1.2,4.6-1.2s3.2.4,4.4,1.1,2.2,1.8,2.8,3c.6,1.3,1,2.7,1,4.3s0,.8,0,1.2v.9h-14c0,2,.8,3.5,1.8,4.6,1.1,1.1,2.5,1.6,4.2,1.6s2.5-.3,3.3-.8c.9-.5,1.5-1.2,2.1-2.1l2.3,1.4c-.7,1.3-1.7,2.3-3,3s-2.9,1.1-4.7,1.1h0ZM593.8,381.8c-1.6,0-2.8.5-3.9,1.4-1,.9-1.6,2.2-1.9,3.9h11.1c0-1.7-.6-3-1.6-3.9s-2.2-1.4-3.8-1.4h.1Z"/>
    <path class="st5" d="M607.4,398.2v-18.6h2.6l.2,2.9c.6-1.2,1.5-2,2.6-2.5s2.3-.8,3.6-.8,2.6.3,3.6.8c1.1.5,2,1.3,2.6,2.3.7,1,1,2.4,1,4v11.9h-3v-10.9c0-2.1-.4-3.5-1.3-4.3-.9-.8-2-1.2-3.3-1.2s-1.8.2-2.7.6-1.6,1.1-2.2,2c-.6.9-.9,2.2-.9,3.8v9.9h-3,.2Z"/>
    <path class="st5" d="M641.2,379.6v2.6h-6.8v10.9c0,.9.3,1.6.8,2s1.2.7,2,.7,1.3-.1,1.9-.4,1-.6,1.4-1l1,2.5c-.6.5-1.2.9-2,1.2-.8.3-1.7.4-2.7.4s-1.8-.2-2.6-.5-1.5-.9-2-1.6-.7-1.7-.8-2.9v-11.4h-3.7v-2.6h3.7v-4.5l3-.8v5.3h6.8,0Z"/>
    <path class="st5" d="M653.1,398.5c-1.8,0-3.3-.4-4.7-1.2-1.4-.8-2.5-1.9-3.2-3.3-.8-1.5-1.2-3.2-1.2-5.2s.4-3.7,1.2-5.2,1.8-2.6,3.2-3.3c1.3-.8,2.9-1.2,4.6-1.2s3.2.4,4.4,1.1,2.2,1.8,2.8,3c.6,1.3,1,2.7,1,4.3s0,.8,0,1.2v.9h-14c0,2,.8,3.5,1.8,4.6,1.1,1.1,2.5,1.6,4.2,1.6s2.5-.3,3.3-.8c.9-.5,1.5-1.2,2.1-2.1l2.3,1.4c-.7,1.3-1.7,2.3-3,3s-2.9,1.1-4.7,1.1h0ZM652.8,381.8c-1.6,0-2.8.5-3.9,1.4-1,.9-1.6,2.2-1.9,3.9h11.1c0-1.7-.6-3-1.6-3.9s-2.2-1.4-3.8-1.4h.1Z"/>
    <path class="st5" d="M673.1,398.5c-1.8,0-3.5-.4-5-1.2-1.5-.8-2.7-1.9-3.5-3.3l2.5-1.8c.5,1.1,1.3,2,2.4,2.7,1.1.6,2.3,1,3.8,1s2.3-.3,3.1-.8c.7-.5,1.1-1.2,1.1-2s-.2-1-.5-1.4-1-.8-1.9-.9l-4.5-.9c-1.8-.4-3.1-1-3.9-1.9s-1.2-1.9-1.2-3.2.3-1.9.9-2.8c.6-.8,1.4-1.5,2.5-2s2.4-.8,3.8-.8,3.4.4,4.7,1.1,2.2,1.7,2.8,3.1l-2.5,1.6c-.4-1.1-1.1-1.9-2-2.4s-1.9-.8-2.9-.8-2.4.3-3.1.8c-.7.5-1.1,1.2-1.1,2s.2,1,.6,1.5c.4.5,1.1.8,2.1,1l4.7,1c1.7.3,3,.9,3.6,1.7.7.8,1,1.8,1,2.9,0,1.8-.7,3.2-2,4.2-1.4,1.1-3.2,1.6-5.4,1.6h0Z"/>
    <path class="st5" d="M496.8,443.2c-1.5,0-3-.4-4.2-1.2-1.3-.8-2.3-1.9-3.1-3.3-.8-1.5-1.2-3.2-1.2-5.2s.4-3.8,1.2-5.2c.8-1.4,1.9-2.5,3.2-3.3,1.3-.8,2.8-1.1,4.3-1.1s2.5.3,3.6.9c1,.6,1.8,1.4,2.3,2.5v-11.6h3v27.2h-2.6l-.2-3.5c-.5,1.3-1.4,2.2-2.5,2.9-1.2.7-2.4,1-3.8,1h0ZM497.1,440.6c1.8,0,3.2-.7,4.3-2,1.1-1.3,1.6-3.1,1.6-5.4s-.5-3.8-1.6-5-2.4-1.8-4.1-1.8-3.3.6-4.4,1.9c-1,1.3-1.6,3-1.6,5.1s.5,3.8,1.5,5.1c1,1.3,2.4,1.9,4.3,1.9v.2h0Z"/>
    <path class="st5" d="M520.3,443.2c-1.8,0-3.3-.4-4.7-1.2-1.4-.8-2.5-1.9-3.2-3.3-.8-1.5-1.2-3.2-1.2-5.2s.4-3.7,1.2-5.2c.8-1.5,1.8-2.6,3.2-3.3,1.3-.8,2.9-1.2,4.6-1.2s3.2.4,4.4,1.1,2.2,1.8,2.8,3c.6,1.3,1,2.7,1,4.3s0,.8,0,1.2v.9h-14c0,2,.8,3.5,1.8,4.6,1.1,1.1,2.5,1.6,4.2,1.6s2.5-.3,3.3-.8c.9-.5,1.5-1.2,2.1-2.1l2.3,1.4c-.7,1.3-1.7,2.3-3,3s-2.9,1.1-4.7,1.1h0ZM520.1,426.5c-1.6,0-2.8.5-3.9,1.4-1,.9-1.6,2.2-1.9,3.9h11.1c0-1.7-.6-3-1.6-3.9s-2.2-1.4-3.8-1.4h.1Z"/>
    <path class="st5" d="M563.8,418.3v2.8h-8.6v21.8h-3v-21.8h-8.6v-2.8h20.2,0Z"/>
    <path class="st5" d="M568.1,442.8v-18.6h2.4l.4,3.1c1-2.3,3-3.4,6-3.4s.7,0,1.1,0,.7.1,1,.3l-.5,2.7c-.3,0-.6-.2-.9-.2h-1.4c-.6,0-1.5.2-2.3.7-.8.4-1.4,1.1-2,2-.5.9-.8,2.1-.8,3.4v10.1h-3Z"/>
    <path class="st5" d="M593.8,430.8c0-1.4-.4-2.5-1.1-3.2-.7-.8-1.8-1.1-3.2-1.1s-2.4.3-3.3.8c-.9.6-1.6,1.5-2,2.7l-2.4-1.5c.5-1.4,1.4-2.5,2.8-3.4s3-1.3,5-1.3,2.6.2,3.6.7c1.1.5,2,1.2,2.6,2.1s.9,2.1.9,3.6v9c0,.9.5,1.3,1.4,1.3s.9,0,1.4-.2v2.3c-.6.2-1.3.4-2.1.4s-1.7-.2-2.4-.7c-.7-.4-1.1-1.1-1.3-2-.6,1-1.5,1.7-2.6,2.1s-2.2.7-3.3.7-2.1-.2-3.1-.6c-.9-.4-1.7-.9-2.3-1.7-.6-.8-.8-1.7-.8-2.8s.5-2.5,1.4-3.4,2.2-1.5,3.9-1.8l6.8-1.3v-.7h0ZM584.8,438c0,.8.3,1.4.9,1.9.6.5,1.5.7,2.6.7s1.9-.2,2.7-.5,1.5-.8,2-1.5.8-1.6.8-2.6v-2l-5.4,1.1c-1.2.2-2.1.6-2.7,1-.6.4-.9,1.1-.9,1.9h0Z"/>
    <path class="st5" d="M612.7,443.2c-1.4,0-2.7-.3-3.8-1s-2-1.6-2.5-2.6l-.2,3.3h-2.6v-27.2h3v11.5c.6-1,1.4-1.8,2.5-2.4s2.3-.9,3.7-.9,3,.4,4.2,1.2c1.3.8,2.3,1.9,3.1,3.3s1.2,3.2,1.2,5.2-.4,3.7-1.2,5.2-1.8,2.6-3.1,3.3c-1.3.8-2.7,1.2-4.2,1.2h-.1ZM612.4,440.6c1.8,0,3.3-.6,4.3-1.9s1.5-3,1.5-5.1-.5-3.8-1.5-5.1c-1-1.3-2.4-1.9-4.3-1.9s-3.2.7-4.2,2c-1.1,1.3-1.6,3-1.6,5.2s.5,3.8,1.6,5.1,2.5,1.9,4.2,1.9v-.2Z"/>
    <path class="st5" d="M637.4,430.8c0-1.4-.4-2.5-1.1-3.2-.7-.8-1.8-1.1-3.2-1.1s-2.4.3-3.3.8c-.9.6-1.6,1.5-2,2.7l-2.4-1.5c.5-1.4,1.4-2.5,2.8-3.4s3-1.3,5-1.3,2.6.2,3.6.7c1.1.5,2,1.2,2.6,2.1s.9,2.1.9,3.6v9c0,.9.5,1.3,1.4,1.3s.9,0,1.4-.2v2.3c-.6.2-1.3.4-2.1.4s-1.7-.2-2.4-.7c-.7-.4-1.1-1.1-1.3-2-.6,1-1.5,1.7-2.6,2.1s-2.2.7-3.3.7-2.1-.2-3.1-.6c-.9-.4-1.7-.9-2.3-1.7-.6-.8-.8-1.7-.8-2.8s.5-2.5,1.4-3.4,2.2-1.5,3.9-1.8l6.8-1.3v-.7h0ZM628.4,438c0,.8.3,1.4.9,1.9.6.5,1.5.7,2.6.7s1.9-.2,2.7-.5,1.5-.8,2-1.5.8-1.6.8-2.6v-2l-5.4,1.1c-1.2.2-2.1.6-2.7,1-.6.4-.9,1.1-.9,1.9h0Z"/>
    <path class="st5" d="M650.1,415.7v22.4c0,.9.2,1.6.5,2s.9.5,1.7.5.9,0,1.2-.1c.3,0,.8-.2,1.3-.4l-.5,2.6c-.8.3-1.7.5-2.8.5-3,0-4.5-1.7-4.5-5v-22.6h3.1Z"/>
    <path class="st5" d="M658.3,442.8v-27.2h3v11.4c.6-1.1,1.5-1.9,2.6-2.4s2.2-.7,3.5-.7,2.6.3,3.6.8c1.1.5,2,1.3,2.6,2.3.7,1,1,2.4,1,4v11.9h-3v-10.9c0-2.1-.4-3.5-1.3-4.3-.9-.8-2-1.2-3.3-1.2s-1.8.2-2.7.6-1.6,1.1-2.2,2.1c-.6,1-.9,2.2-.9,3.8v9.9h-3,.1Z"/>
    <path class="st5" d="M688.6,423.9c1.8,0,3.3.4,4.7,1.2,1.4.8,2.4,1.9,3.2,3.3s1.2,3.2,1.2,5.2-.4,3.7-1.2,5.2-1.8,2.6-3.2,3.3c-1.4.8-2.9,1.2-4.7,1.2s-3.3-.4-4.7-1.2c-1.4-.8-2.4-1.9-3.2-3.3-.8-1.5-1.2-3.2-1.2-5.2s.4-3.7,1.2-5.2,1.8-2.6,3.2-3.3c1.4-.8,2.9-1.2,4.7-1.2ZM688.6,426.4c-1.9,0-3.4.6-4.4,1.9-1.1,1.3-1.6,3-1.6,5.2s.5,3.9,1.6,5.2c1.1,1.3,2.5,1.9,4.4,1.9s3.4-.6,4.4-1.9c1.1-1.3,1.6-3,1.6-5.2s-.5-3.9-1.6-5.2c-1.1-1.3-2.5-1.9-4.4-1.9Z"/>
  </g>
  <g>
    <path class="st5" d="M1194.2,376c3.8,0,6.9,1.1,9.1,3.2s3.3,5.2,3.3,9.1-1.1,7-3.3,9.1c-2.2,2.1-5.2,3.2-9.1,3.2h-7.9v-24.6h7.9ZM1194.5,397.7c2.8,0,5-.8,6.6-2.5s2.4-4,2.4-7-.8-5.3-2.4-7-3.8-2.5-6.6-2.5h-5.2v19h5.2Z"/>
    <path class="st5" d="M1220,400.9c-1.8,0-3.3-.4-4.7-1.2-1.4-.8-2.5-1.9-3.2-3.3s-1.2-3.2-1.2-5.2.4-3.7,1.2-5.2,1.8-2.6,3.2-3.3c1.3-.8,2.9-1.2,4.6-1.2s3.2.4,4.4,1.1c1.2.7,2.2,1.8,2.8,3,.6,1.3,1,2.7,1,4.3s0,.8,0,1.2v.9h-14c0,2,.8,3.5,1.8,4.6,1.1,1.1,2.5,1.6,4.2,1.6s2.5-.3,3.3-.8,1.5-1.2,2.1-2.1l2.3,1.4c-.7,1.3-1.7,2.3-3,3s-2.9,1.1-4.7,1.1h-.1ZM1219.7,384.1c-1.6,0-2.8.5-3.9,1.4s-1.6,2.2-1.9,3.9h11.1c0-1.7-.6-3-1.6-3.9s-2.2-1.4-3.8-1.4h.1Z"/>
    <path class="st5" d="M1240,400.9c-1.8,0-3.5-.4-5-1.2-1.5-.8-2.7-1.9-3.5-3.3l2.5-1.8c.5,1.1,1.3,2,2.4,2.7,1.1.6,2.3,1,3.8,1s2.3-.3,3.1-.8c.7-.5,1.1-1.2,1.1-2s-.2-1-.5-1.4-1-.8-1.9-.9l-4.5-.9c-1.8-.4-3.1-1-3.9-1.9s-1.2-1.9-1.2-3.2.3-1.9.9-2.8c.6-.8,1.4-1.5,2.5-2s2.4-.8,3.8-.8,3.4.4,4.7,1.1,2.2,1.7,2.8,3.1l-2.5,1.6c-.4-1.1-1.1-1.9-2-2.4s-1.9-.8-2.9-.8-2.4.3-3.1.8-1.1,1.2-1.1,2,.2,1,.6,1.5,1.1.8,2.1,1l4.7,1c1.7.3,3,.9,3.6,1.7.7.8,1,1.8,1,2.9,0,1.8-.7,3.2-2,4.2-1.4,1.1-3.2,1.6-5.4,1.6h0Z"/>
    <path class="st5" d="M1260.3,400.9c-1.8,0-3.3-.4-4.7-1.2-1.4-.8-2.5-1.9-3.2-3.3s-1.2-3.2-1.2-5.2.4-3.7,1.2-5.2,1.8-2.6,3.2-3.3c1.3-.8,2.9-1.2,4.6-1.2s3.2.4,4.4,1.1c1.2.7,2.2,1.8,2.8,3,.6,1.3,1,2.7,1,4.3s0,.8,0,1.2v.9h-14c0,2,.8,3.5,1.8,4.6,1.1,1.1,2.5,1.6,4.2,1.6s2.5-.3,3.3-.8,1.5-1.2,2.1-2.1l2.3,1.4c-.7,1.3-1.7,2.3-3,3s-2.9,1.1-4.7,1.1h-.1ZM1260.1,384.1c-1.6,0-2.8.5-3.9,1.4s-1.6,2.2-1.9,3.9h11.1c0-1.7-.6-3-1.6-3.9s-2.2-1.4-3.8-1.4h.1Z"/>
    <path class="st5" d="M1273.7,400.5v-18.6h2.6l.2,2.9c.7-1.1,1.5-2,2.6-2.5s2.2-.8,3.3-.8,2.6.3,3.7.9c1.2.6,2.1,1.5,2.7,2.8.4-.8,1-1.5,1.7-2.1s1.5-.9,2.4-1.2c.9-.3,1.7-.4,2.4-.4,1.2,0,2.3.2,3.4.7s2,1.3,2.7,2.3,1,2.4,1,4v11.9h-3v-11.6c0-1.7-.4-2.9-1.3-3.6s-1.9-1.1-3.1-1.1-1.9.2-2.7.7c-.8.5-1.5,1.2-2,2.1s-.8,2-.8,3.4v10.2h-3v-11.6c0-1.7-.4-2.9-1.3-3.6-.8-.7-1.9-1.1-3.1-1.1s-1.7.2-2.5.7c-.9.4-1.6,1.1-2.1,2.1-.6.9-.9,2.2-.9,3.7v9.9h-3,.1Z"/>
    <path class="st5" d="M1308.8,408.3v-26.4h2.6l.2,3.3c.6-1.1,1.4-2,2.5-2.6s2.4-1,3.9-1,2.9.4,4.2,1.2c1.3.8,2.3,1.9,3.1,3.3.8,1.4,1.2,3.2,1.2,5.2s-.4,3.7-1.2,5.2-1.8,2.6-3.1,3.3c-1.3.8-2.7,1.2-4.2,1.2s-2.6-.3-3.7-.9-1.9-1.4-2.5-2.4v10.7h-3ZM1317.6,398.3c1.8,0,3.3-.6,4.3-1.9s1.5-3,1.5-5.1-.5-3.8-1.5-5.1c-1-1.3-2.4-1.9-4.2-1.9s-3.2.6-4.3,1.9c-1.1,1.3-1.6,3-1.6,5.1s.5,3.8,1.6,5.1c1.1,1.3,2.5,1.9,4.2,1.9Z"/>
    <path class="st5" d="M1331.7,400.5v-18.6h2.4l.4,3.1c1-2.3,3-3.4,6-3.4s.7,0,1.1,0,.7.1,1,.3l-.5,2.7c-.3,0-.6-.2-.9-.2h-1.4c-.6,0-1.5.2-2.3.7-.8.4-1.4,1.1-2,2-.5.9-.8,2.1-.8,3.4v10.1h-3,0Z"/>
    <path class="st5" d="M1354.3,400.9c-1.8,0-3.3-.4-4.7-1.2-1.4-.8-2.5-1.9-3.2-3.3s-1.2-3.2-1.2-5.2.4-3.7,1.2-5.2,1.8-2.6,3.2-3.3c1.3-.8,2.9-1.2,4.6-1.2s3.2.4,4.4,1.1c1.2.7,2.2,1.8,2.8,3,.6,1.3,1,2.7,1,4.3s0,.8,0,1.2v.9h-14c0,2,.8,3.5,1.8,4.6,1.1,1.1,2.5,1.6,4.2,1.6s2.5-.3,3.3-.8,1.5-1.2,2.1-2.1l2.3,1.4c-.7,1.3-1.7,2.3-3,3s-2.9,1.1-4.7,1.1h-.1ZM1354.1,384.1c-1.6,0-2.8.5-3.9,1.4s-1.6,2.2-1.9,3.9h11.1c0-1.7-.6-3-1.6-3.9s-2.2-1.4-3.8-1.4h.1Z"/>
    <path class="st5" d="M1377.7,398.1c1.8,0,3.1.4,4.1,1.2,1,.8,1.5,1.9,1.5,3.2s-.4,2.3-1.2,3.2c-.8.9-1.9,1.6-3.2,2.1-1.4.5-2.9.7-4.6.7-2.9,0-5.1-.5-6.6-1.5s-2.2-2.2-2.2-3.6.2-1.6.7-2.3,1.3-1.2,2.3-1.5c-.6-.3-1.1-.7-1.5-1.1s-.6-1.1-.6-2,.2-1.5.7-2.1c.4-.6,1.1-1.1,2-1.5-.9-.5-1.7-1.3-2.2-2.2-.5-.9-.7-1.9-.7-3s.3-2.3,1-3.3c.7-.9,1.6-1.7,2.7-2.2s2.5-.8,3.9-.8,3,.3,4.2.9c.2-1.2.7-2.2,1.7-2.9.9-.7,2-1.1,3.3-1.1h.2l.7,2.6h-.3c-1.1,0-2,.2-2.7.6-.6.4-1,1.1-1.1,2,1.1,1.1,1.6,2.5,1.6,4.1s-.3,2.3-1,3.3c-.6,1-1.5,1.7-2.7,2.2s-2.5.8-4,.8-1.8,0-2.6-.3c-.7.2-1.3.5-1.6.9-.3.4-.5.8-.5,1.3,0,1.4,1,2,2.9,2h5.4l.4.3h0ZM1374.2,406c2.2,0,3.7-.3,4.8-.9s1.5-1.4,1.5-2.2-.3-1.2-.8-1.6-1.5-.6-2.9-.6h-5.7c-.8,0-1.5.2-2,.6s-.8,1-.8,1.7.5,1.6,1.6,2.2c1.1.5,2.5.8,4.4.8h0ZM1374,384c-1.3,0-2.4.4-3.2,1.1-.9.7-1.3,1.6-1.3,2.8s.4,2.1,1.3,2.8c.9.7,1.9,1.1,3.2,1.1s2.4-.4,3.2-1.1c.9-.7,1.3-1.6,1.3-2.8s-.4-2.1-1.3-2.8c-.9-.7-1.9-1.1-3.2-1.1Z"/>
    <path class="st5" d="M1394.8,381.5c1.8,0,3.3.4,4.7,1.2,1.4.8,2.4,1.9,3.2,3.3s1.2,3.2,1.2,5.2-.4,3.7-1.2,5.2-1.8,2.6-3.2,3.3c-1.4.8-2.9,1.2-4.7,1.2s-3.3-.4-4.7-1.2c-1.4-.8-2.4-1.9-3.2-3.3s-1.2-3.2-1.2-5.2.4-3.7,1.2-5.2,1.8-2.6,3.2-3.3c1.4-.8,2.9-1.2,4.7-1.2ZM1394.8,384.1c-1.9,0-3.4.6-4.4,1.9-1.1,1.3-1.6,3-1.6,5.2s.5,3.9,1.6,5.2c1.1,1.3,2.5,1.9,4.4,1.9s3.4-.6,4.4-1.9c1.1-1.3,1.6-3,1.6-5.2s-.5-3.9-1.6-5.2c-1.1-1.3-2.5-1.9-4.4-1.9Z"/>
  </g>
  <g>
    <path class="st5" d="M1361.7,505.8c2.2,0,4,.4,5.6,1.3s2.9,2.2,3.9,3.9l-2.5,1.9c-.9-1.6-2-2.7-3.1-3.4-1.2-.7-2.5-1-4.2-1s-3.4.4-4.4,1.2c-.9.8-1.4,1.8-1.4,2.9s.3,1.6.8,2.3,1.6,1.2,3.3,1.5l5.3,1.2c2.4.5,4,1.3,4.9,2.4s1.4,2.4,1.4,3.9-.4,2.6-1.2,3.7c-.8,1.1-1.9,1.9-3.3,2.5s-3.1.9-5,.9-4.9-.5-6.6-1.6-3.1-2.3-4-3.9l2.6-2.1c.7,1.4,1.7,2.6,3.1,3.4,1.3.9,3,1.3,5.1,1.3s3.4-.3,4.5-1,1.7-1.7,1.7-3-.3-1.5-.8-2.1-1.5-1.1-2.9-1.4l-5.8-1.3c-2.3-.5-3.9-1.3-4.9-2.4-1-1.1-1.4-2.4-1.4-3.9s.4-2.5,1.1-3.6,1.8-2,3.2-2.7,3-1,4.9-1h.1Z"/>
    <path class="st5" d="M1387.6,518.7c0-1.4-.4-2.5-1.1-3.2-.7-.8-1.8-1.1-3.2-1.1s-2.4.3-3.3.8c-.9.6-1.6,1.5-2,2.7l-2.4-1.5c.5-1.4,1.4-2.5,2.8-3.4s3-1.3,5-1.3,2.6.2,3.6.7c1.1.5,2,1.2,2.6,2.1s.9,2.1.9,3.6v9c0,.9.5,1.3,1.4,1.3s.9,0,1.4-.2v2.3c-.6.2-1.3.4-2.1.4s-1.7-.2-2.4-.7c-.7-.4-1.1-1.1-1.3-2-.6,1-1.5,1.7-2.6,2.1-1.1.5-2.2.7-3.3.7s-2.1-.2-3.1-.6c-.9-.4-1.7-.9-2.3-1.7-.6-.8-.8-1.7-.8-2.8s.5-2.5,1.4-3.4,2.2-1.5,3.9-1.8l6.8-1.3v-.7h0ZM1378.6,525.9c0,.8.3,1.4.9,1.9s1.5.7,2.6.7,1.9-.2,2.7-.5c.8-.3,1.5-.8,2-1.5s.8-1.6.8-2.6v-2l-5.4,1.1c-1.2.2-2.1.6-2.7,1s-.9,1.1-.9,1.9h0Z"/>
    <path class="st5" d="M1397.5,530.7v-18.6h2.6l.2,2.9c.6-1.2,1.5-2,2.6-2.5s2.3-.8,3.6-.8,2.6.3,3.6.8c1.1.5,2,1.3,2.6,2.3.7,1,1,2.4,1,4v11.9h-3v-10.9c0-2.1-.4-3.5-1.3-4.3s-2-1.2-3.3-1.2-1.8.2-2.7.6c-.9.4-1.6,1.1-2.2,2s-.9,2.2-.9,3.8v9.9h-3,.2Z"/>
    <path class="st5" d="M1427.9,531.1c-1.8,0-3.3-.4-4.7-1.2-1.4-.8-2.5-1.9-3.2-3.3-.8-1.5-1.2-3.2-1.2-5.2s.4-3.7,1.2-5.2,1.8-2.6,3.2-3.3c1.3-.8,2.9-1.2,4.6-1.2s3.2.4,4.4,1.1c1.2.7,2.2,1.8,2.8,3,.6,1.3,1,2.7,1,4.3s0,.8,0,1.2v.9h-14c0,2,.8,3.5,1.8,4.6,1.1,1.1,2.5,1.6,4.2,1.6s2.5-.3,3.3-.8c.9-.5,1.5-1.2,2.1-2.1l2.3,1.4c-.7,1.3-1.7,2.3-3,3s-2.9,1.1-4.7,1.1h-.1ZM1427.7,514.4c-1.6,0-2.8.5-3.9,1.4s-1.6,2.2-1.9,3.9h11.1c0-1.7-.6-3-1.6-3.9s-2.2-1.4-3.8-1.4h.1Z"/>
    <path class="st5" d="M1452.1,518.7c0-1.4-.4-2.5-1.1-3.2-.7-.8-1.8-1.1-3.2-1.1s-2.4.3-3.3.8c-.9.6-1.6,1.5-2,2.7l-2.4-1.5c.5-1.4,1.4-2.5,2.8-3.4s3-1.3,5-1.3,2.6.2,3.6.7c1.1.5,2,1.2,2.6,2.1s.9,2.1.9,3.6v9c0,.9.5,1.3,1.4,1.3s.9,0,1.4-.2v2.3c-.6.2-1.3.4-2.1.4s-1.7-.2-2.4-.7c-.7-.4-1.1-1.1-1.3-2-.6,1-1.5,1.7-2.6,2.1-1.1.5-2.2.7-3.3.7s-2.1-.2-3.1-.6c-.9-.4-1.7-.9-2.3-1.7-.6-.8-.8-1.7-.8-2.8s.5-2.5,1.4-3.4,2.2-1.5,3.9-1.8l6.8-1.3v-.7h0ZM1443.1,525.9c0,.8.3,1.4.9,1.9s1.5.7,2.6.7,1.9-.2,2.7-.5c.8-.3,1.5-.8,2-1.5s.8-1.6.8-2.6v-2l-5.4,1.1c-1.2.2-2.1.6-2.7,1s-.9,1.1-.9,1.9h0Z"/>
    <path class="st5" d="M1461.9,530.7v-18.6h2.6l.2,2.9c.7-1.1,1.5-2,2.6-2.5s2.2-.8,3.3-.8,2.6.3,3.7.9c1.2.6,2.1,1.5,2.7,2.8.4-.8,1-1.5,1.7-2.1s1.5-.9,2.4-1.2,1.7-.4,2.4-.4c1.2,0,2.3.2,3.4.7,1.1.5,2,1.3,2.7,2.3s1,2.4,1,4v11.9h-3v-11.6c0-1.7-.4-2.9-1.3-3.6s-1.9-1.1-3.1-1.1-1.9.2-2.7.7c-.8.5-1.5,1.2-2,2.1-.5.9-.8,2-.8,3.4v10.2h-3v-11.6c0-1.7-.4-2.9-1.3-3.6-.8-.7-1.9-1.1-3.1-1.1s-1.7.2-2.5.7c-.9.4-1.6,1.1-2.1,2.1-.6.9-.9,2.2-.9,3.7v9.9h-3,.1Z"/>
    <path class="st5" d="M1504.8,531.1c-1.8,0-3.3-.4-4.7-1.2-1.4-.8-2.5-1.9-3.2-3.3-.8-1.5-1.2-3.2-1.2-5.2s.4-3.7,1.2-5.2,1.8-2.6,3.2-3.3c1.3-.8,2.9-1.2,4.6-1.2s3.2.4,4.4,1.1c1.2.7,2.2,1.8,2.8,3,.6,1.3,1,2.7,1,4.3s0,.8,0,1.2v.9h-14c0,2,.8,3.5,1.8,4.6,1.1,1.1,2.5,1.6,4.2,1.6s2.5-.3,3.3-.8c.9-.5,1.5-1.2,2.1-2.1l2.3,1.4c-.7,1.3-1.7,2.3-3,3s-2.9,1.1-4.7,1.1h-.1ZM1504.6,514.4c-1.6,0-2.8.5-3.9,1.4s-1.6,2.2-1.9,3.9h11.1c0-1.7-.6-3-1.6-3.9s-2.2-1.4-3.8-1.4h.1Z"/>
    <path class="st5" d="M1518.1,530.7v-18.6h2.6l.2,2.9c.6-1.2,1.5-2,2.6-2.5s2.3-.8,3.6-.8,2.6.3,3.6.8c1.1.5,2,1.3,2.6,2.3.7,1,1,2.4,1,4v11.9h-3v-10.9c0-2.1-.4-3.5-1.3-4.3s-2-1.2-3.3-1.2-1.8.2-2.7.6c-.9.4-1.6,1.1-2.2,2s-.9,2.2-.9,3.8v9.9h-3,.2Z"/>
    <path class="st5" d="M1552,512.1v2.6h-6.8v10.9c0,.9.3,1.6.8,2s1.2.7,2,.7,1.3,0,1.9-.4c.5-.2,1-.6,1.4-1l1,2.5c-.6.5-1.2.9-2,1.2s-1.7.4-2.7.4-1.8-.2-2.6-.5c-.8-.3-1.5-.9-2-1.6-.5-.7-.7-1.7-.8-2.9v-11.4h-3.7v-2.6h3.7v-4.5l3-.8v5.3h6.8,0Z"/>
    <path class="st5" d="M1563.7,511.8c1.8,0,3.3.4,4.7,1.2,1.4.8,2.4,1.9,3.2,3.3s1.2,3.2,1.2,5.2-.4,3.7-1.2,5.2c-.8,1.5-1.8,2.6-3.2,3.3-1.4.8-2.9,1.2-4.7,1.2s-3.3-.4-4.7-1.2c-1.4-.8-2.4-1.9-3.2-3.3-.8-1.5-1.2-3.2-1.2-5.2s.4-3.7,1.2-5.2,1.8-2.6,3.2-3.3c1.4-.8,2.9-1.2,4.7-1.2ZM1563.7,514.3c-1.9,0-3.4.6-4.4,1.9-1.1,1.3-1.6,3-1.6,5.2s.5,3.9,1.6,5.2,2.5,1.9,4.4,1.9,3.4-.6,4.4-1.9c1.1-1.3,1.6-3,1.6-5.2s-.5-3.9-1.6-5.2-2.5-1.9-4.4-1.9Z"/>
  </g>
  <g>
    <path class="st5" d="M1467.1,632.4c2.2,0,4,.4,5.6,1.3,1.6.9,2.9,2.2,3.9,3.9l-2.5,1.9c-.9-1.6-2-2.7-3.1-3.4-1.2-.7-2.5-1-4.2-1s-3.4.4-4.4,1.2c-.9.8-1.4,1.8-1.4,2.9s.3,1.6.8,2.3,1.6,1.2,3.3,1.5l5.3,1.2c2.4.5,4,1.3,4.9,2.4s1.4,2.4,1.4,3.9-.4,2.6-1.2,3.7c-.8,1.1-1.9,1.9-3.3,2.5s-3.1.9-5,.9-4.9-.5-6.6-1.6-3.1-2.3-4-3.9l2.6-2.1c.7,1.4,1.7,2.6,3.1,3.4,1.3.9,3,1.3,5.1,1.3s3.4-.3,4.5-1,1.7-1.7,1.7-3-.3-1.5-.8-2.1-1.5-1.1-2.9-1.4l-5.8-1.3c-2.3-.5-3.9-1.3-4.9-2.4-1-1.1-1.4-2.4-1.4-3.9s.4-2.5,1.1-3.6,1.8-2,3.2-2.7c1.4-.7,3-1,4.9-1h.1Z"/>
    <path class="st5" d="M1489.9,657.7c-1.8,0-3.3-.4-4.7-1.2-1.4-.8-2.5-1.9-3.2-3.3-.8-1.5-1.2-3.2-1.2-5.2s.4-3.7,1.2-5.2c.8-1.5,1.8-2.6,3.2-3.3,1.3-.8,2.9-1.2,4.6-1.2s3.2.4,4.4,1.1c1.2.7,2.2,1.8,2.8,3,.6,1.3,1,2.7,1,4.3s0,.8,0,1.2v.9h-14c0,2,.8,3.5,1.8,4.6,1.1,1.1,2.5,1.6,4.2,1.6s2.5-.3,3.3-.8c.9-.5,1.5-1.2,2.1-2.1l2.3,1.4c-.7,1.3-1.7,2.3-3,3s-2.9,1.1-4.7,1.1h-.1ZM1489.6,641c-1.6,0-2.8.5-3.9,1.4s-1.6,2.2-1.9,3.9h11.1c0-1.7-.6-3-1.6-3.9s-2.2-1.4-3.8-1.4h.1Z"/>
    <path class="st5" d="M1503.2,657.3v-18.6h2.4l.4,3.1c1-2.3,3-3.4,6-3.4s.7,0,1.1,0,.7,0,1,.3l-.5,2.7c-.3,0-.6-.2-.9-.2h-1.4c-.6,0-1.5.2-2.3.7-.8.4-1.4,1.1-2,2-.5.9-.8,2.1-.8,3.4v10h-3,0Z"/>
    <path class="st5" d="M1530.3,638.7h3.1l-7.7,18.6h-3l-7.7-18.6h3.4l5.9,15.6,6.1-15.6h-.1Z"/>
    <path class="st5" d="M1538.5,635.1c-.7,0-1.2-.2-1.6-.6-.4-.4-.6-.9-.6-1.6s.2-1.2.6-1.6c.4-.4.9-.6,1.6-.6s1.2.2,1.6.6c.4.4.6.9.6,1.6s-.2,1.2-.6,1.6c-.4.4-.9.6-1.6.6ZM1540,638.7v18.6h-3v-18.6h3Z"/>
    <path class="st5" d="M1554.2,638.3c1.9,0,3.5.4,4.8,1.3s2.2,2.1,2.9,3.6l-2.8,1.3c-.4-1.2-1-2.1-1.8-2.7s-1.9-.9-3.1-.9c-1.9,0-3.3.6-4.4,1.9s-1.6,3-1.6,5.2.5,3.9,1.6,5.2,2.5,1.9,4.4,1.9,2.6-.3,3.5-1,1.4-1.6,1.7-2.8l2.8,1c-.6,1.7-1.6,3.1-2.9,4s-3,1.5-5,1.5-3.3-.4-4.7-1.2c-1.4-.8-2.4-1.9-3.2-3.3-.8-1.5-1.2-3.2-1.2-5.2s.4-3.7,1.2-5.2c.8-1.5,1.8-2.6,3.2-3.3,1.4-.8,2.9-1.2,4.7-1.2h0ZM1552.2,657.2l1.6-.9c1.5.5,2.5,1.1,3.1,1.9.6.8.9,1.8.9,2.8s-.4,2.2-1.3,3.1c-.8.8-1.9,1.3-3.2,1.3s-1.4,0-2-.3c-.6-.2-1.1-.5-1.5-.8l.7-2.2c.3.2.7.4,1.1.6.4.2.8.3,1.4.3s1.3-.2,1.7-.7c.4-.4.7-1.1.7-1.9s-.2-1.2-.7-1.7-1.3-1-2.5-1.5h0Z"/>
    <path class="st5" d="M1574.7,638.3c1.8,0,3.3.4,4.7,1.2,1.4.8,2.4,1.9,3.2,3.3.8,1.5,1.2,3.2,1.2,5.2s-.4,3.7-1.2,5.2c-.8,1.5-1.8,2.6-3.2,3.3-1.4.8-2.9,1.2-4.7,1.2s-3.3-.4-4.7-1.2c-1.4-.8-2.4-1.9-3.2-3.3-.8-1.5-1.2-3.2-1.2-5.2s.4-3.7,1.2-5.2c.8-1.5,1.8-2.6,3.2-3.3,1.4-.8,2.9-1.2,4.7-1.2ZM1574.7,640.9c-1.9,0-3.4.6-4.4,1.9-1.1,1.3-1.6,3-1.6,5.2s.5,3.9,1.6,5.2,2.5,1.9,4.4,1.9,3.4-.6,4.4-1.9c1.1-1.3,1.6-3,1.6-5.2s-.5-3.9-1.6-5.2-2.5-1.9-4.4-1.9Z"/>
    <path class="st5" d="M1595.7,657.7c-1.8,0-3.5-.4-5-1.2s-2.7-1.9-3.5-3.3l2.5-1.8c.5,1.1,1.3,2,2.4,2.7,1.1.6,2.3,1,3.8,1s2.3-.3,3.1-.8,1.1-1.2,1.1-2-.2-1-.5-1.4-1-.8-1.9-.9l-4.5-.9c-1.8-.4-3.1-1-3.9-1.9s-1.2-1.9-1.2-3.2.3-1.9.9-2.8,1.4-1.5,2.5-2,2.4-.8,3.8-.8,3.4.4,4.7,1.1c1.3.7,2.2,1.7,2.8,3.1l-2.5,1.6c-.4-1.1-1.1-1.9-2-2.4s-1.9-.8-2.9-.8-2.4.3-3.1.8-1.1,1.2-1.1,2,.2,1,.6,1.5,1.1.8,2.1,1l4.7,1c1.7.3,3,.9,3.6,1.7.7.8,1,1.8,1,2.9,0,1.8-.7,3.2-2,4.2-1.4,1.1-3.2,1.6-5.4,1.6h0Z"/>
    <path class="st5" d="M1457.4,677.1c2.2,0,4,.4,5.6,1.3,1.6.9,2.9,2.2,3.9,3.9l-2.5,1.9c-.9-1.6-2-2.7-3.1-3.4-1.2-.7-2.5-1-4.2-1s-3.4.4-4.4,1.2c-.9.8-1.4,1.8-1.4,2.9s.3,1.6.8,2.3,1.6,1.2,3.3,1.5l5.3,1.2c2.4.5,4,1.3,4.9,2.4s1.4,2.4,1.4,3.9-.4,2.6-1.2,3.7c-.8,1.1-1.9,1.9-3.3,2.5s-3.1.9-5,.9-4.9-.5-6.6-1.6-3.1-2.3-4-3.9l2.6-2.1c.7,1.4,1.7,2.6,3.1,3.4,1.3.9,3,1.3,5.1,1.3s3.4-.3,4.5-1,1.7-1.7,1.7-3-.3-1.5-.8-2.1-1.5-1.1-2.9-1.4l-5.8-1.3c-2.3-.5-3.9-1.3-4.9-2.4-1-1.1-1.4-2.4-1.4-3.9s.4-2.5,1.1-3.6,1.8-2,3.2-2.7c1.4-.7,3-1,4.9-1h.1Z"/>
    <path class="st5" d="M1480.1,683c1.8,0,3.3.4,4.7,1.2,1.4.8,2.4,1.9,3.2,3.3.8,1.5,1.2,3.2,1.2,5.2s-.4,3.7-1.2,5.2c-.8,1.5-1.8,2.6-3.2,3.3-1.4.8-2.9,1.2-4.7,1.2s-3.3-.4-4.7-1.2c-1.4-.8-2.4-1.9-3.2-3.3-.8-1.5-1.2-3.2-1.2-5.2s.4-3.7,1.2-5.2c.8-1.5,1.8-2.6,3.2-3.3,1.4-.8,2.9-1.2,4.7-1.2ZM1480.1,685.6c-1.9,0-3.4.6-4.4,1.9-1.1,1.3-1.6,3-1.6,5.2s.5,3.9,1.6,5.2,2.5,1.9,4.4,1.9,3.4-.6,4.4-1.9c1.1-1.3,1.6-3,1.6-5.2s-.5-3.9-1.6-5.2-2.5-1.9-4.4-1.9Z"/>
    <path class="st5" d="M1502.1,683c1.9,0,3.5.4,4.8,1.3s2.2,2.1,2.9,3.6l-2.8,1.3c-.4-1.2-1-2.1-1.8-2.7s-1.9-.9-3.1-.9c-1.9,0-3.3.6-4.4,1.9s-1.6,3-1.6,5.2.5,3.9,1.6,5.2,2.5,1.9,4.4,1.9,2.6-.3,3.5-1,1.4-1.6,1.7-2.8l2.8,1c-.6,1.7-1.6,3.1-2.9,4s-3,1.5-5,1.5-3.3-.4-4.7-1.2c-1.4-.8-2.4-1.9-3.2-3.3-.8-1.5-1.2-3.2-1.2-5.2s.4-3.7,1.2-5.2c.8-1.5,1.8-2.6,3.2-3.3,1.4-.8,2.9-1.2,4.7-1.2h0Z"/>
    <path class="st5" d="M1516.3,679.8c-.7,0-1.2-.2-1.6-.6-.4-.4-.6-.9-.6-1.6s.2-1.2.6-1.6c.4-.4.9-.6,1.6-.6s1.2.2,1.6.6c.4.4.6.9.6,1.6s-.2,1.2-.6,1.6c-.4.4-.9.6-1.6.6ZM1517.8,683.4v18.6h-3v-18.6h3Z"/>
    <path class="st5" d="M1535.2,690c0-1.4-.4-2.5-1.1-3.2s-1.8-1.1-3.2-1.1-2.4.3-3.3.8c-.9.6-1.6,1.5-2,2.7l-2.4-1.5c.5-1.4,1.4-2.5,2.8-3.4s3-1.3,5-1.3,2.6.2,3.6.7c1.1.5,2,1.2,2.6,2.1.6.9.9,2.1.9,3.6v9c0,.9.5,1.3,1.4,1.3s.9,0,1.4-.2v2.3c-.6.2-1.3.4-2.1.4s-1.7-.2-2.4-.7c-.7-.4-1.1-1.1-1.3-2-.6,1-1.5,1.7-2.6,2.1-1.1.5-2.2.7-3.3.7s-2.1-.2-3.1-.6c-.9-.4-1.7-.9-2.3-1.7-.6-.8-.8-1.7-.8-2.8s.5-2.5,1.4-3.4,2.2-1.5,3.9-1.8l6.8-1.3v-.7h0ZM1526.2,697.2c0,.8.3,1.4.9,1.9s1.5.7,2.6.7,1.9-.2,2.7-.5c.8-.3,1.5-.8,2-1.5s.8-1.6.8-2.6v-2l-5.4,1.1c-1.2.2-2.1.6-2.7,1s-.9,1.1-.9,1.9h0Z"/>
    <path class="st5" d="M1546.6,679.8c-.7,0-1.2-.2-1.6-.6-.4-.4-.6-.9-.6-1.6s.2-1.2.6-1.6c.4-.4.9-.6,1.6-.6s1.2.2,1.6.6c.4.4.6.9.6,1.6s-.2,1.2-.6,1.6c-.4.4-.9.6-1.6.6ZM1548,683.4v18.6h-3v-18.6h3Z"/>
    <path class="st5" d="M1561.3,702.4c-1.8,0-3.5-.4-5-1.2s-2.7-1.9-3.5-3.3l2.5-1.8c.5,1.1,1.3,2,2.4,2.7,1.1.6,2.3,1,3.8,1s2.3-.3,3.1-.8,1.1-1.2,1.1-2-.2-1-.5-1.4-1-.8-1.9-.9l-4.5-.9c-1.8-.4-3.1-1-3.9-1.9s-1.2-1.9-1.2-3.2.3-1.9.9-2.8,1.4-1.5,2.5-2,2.4-.8,3.8-.8,3.4.4,4.7,1.1c1.3.7,2.2,1.7,2.8,3.1l-2.5,1.6c-.4-1.1-1.1-1.9-2-2.4s-1.9-.8-2.9-.8-2.4.3-3.1.8-1.1,1.2-1.1,2,.2,1,.6,1.5,1.1.8,2.1,1l4.7,1c1.7.3,3,.9,3.6,1.7.7.8,1,1.8,1,2.9,0,1.8-.7,3.2-2,4.2-1.4,1.1-3.2,1.6-5.4,1.6h0Z"/>
    <path class="st5" d="M1593.4,702.4c-1.5,0-3-.4-4.2-1.2-1.3-.8-2.3-1.9-3.1-3.3-.8-1.5-1.2-3.2-1.2-5.2s.4-3.8,1.2-5.2c.8-1.4,1.9-2.5,3.2-3.3,1.3-.8,2.8-1.1,4.3-1.1s2.5.3,3.6.9c1,.6,1.8,1.4,2.3,2.5v-11.6h3v27.2h-2.6l-.2-3.5c-.5,1.3-1.4,2.2-2.5,2.9s-2.4,1-3.8,1h0ZM1593.7,699.8c1.8,0,3.2-.7,4.3-2,1.1-1.3,1.6-3.1,1.6-5.4s-.5-3.8-1.6-5-2.4-1.8-4.1-1.8-3.4.6-4.4,1.9c-1,1.3-1.6,3-1.6,5.1s.5,3.8,1.5,5.1,2.4,1.9,4.3,1.9v.2h0Z"/>
    <path class="st5" d="M1616.9,702.4c-1.8,0-3.3-.4-4.7-1.2-1.4-.8-2.5-1.9-3.2-3.3-.8-1.5-1.2-3.2-1.2-5.2s.4-3.7,1.2-5.2c.8-1.5,1.8-2.6,3.2-3.3,1.3-.8,2.9-1.2,4.6-1.2s3.2.4,4.4,1.1c1.2.7,2.2,1.8,2.8,3,.6,1.3,1,2.7,1,4.3s0,.8,0,1.2v.9h-14c0,2,.8,3.5,1.8,4.6,1.1,1.1,2.5,1.6,4.2,1.6s2.5-.3,3.3-.8c.9-.5,1.5-1.2,2.1-2.1l2.3,1.4c-.7,1.3-1.7,2.3-3,3s-2.9,1.1-4.7,1.1h-.1ZM1616.6,685.6c-1.6,0-2.8.5-3.9,1.4s-1.6,2.2-1.9,3.9h11.1c0-1.7-.6-3-1.6-3.9s-2.2-1.4-3.8-1.4h.1Z"/>
    <path class="st5" d="M1486.4,721.7c2.2,0,4,.4,5.6,1.3,1.6.9,2.9,2.2,3.9,3.9l-2.5,1.9c-.9-1.6-2-2.7-3.1-3.4-1.2-.7-2.5-1-4.2-1s-3.4.4-4.4,1.2c-.9.8-1.4,1.8-1.4,2.9s.3,1.6.8,2.3,1.6,1.2,3.3,1.5l5.3,1.2c2.4.5,4,1.3,4.9,2.4s1.4,2.4,1.4,3.9-.4,2.6-1.2,3.7c-.8,1.1-1.9,1.9-3.3,2.5s-3.1.9-5,.9-4.9-.5-6.6-1.6-3.1-2.3-4-3.9l2.6-2.1c.7,1.4,1.7,2.6,3.1,3.4,1.3.9,3,1.3,5.1,1.3s3.4-.3,4.5-1,1.7-1.7,1.7-3-.3-1.5-.8-2.1-1.5-1.1-2.9-1.4l-5.8-1.3c-2.3-.5-3.9-1.3-4.9-2.4-1-1.1-1.4-2.4-1.4-3.9s.4-2.5,1.1-3.6,1.8-2,3.2-2.7c1.4-.7,3-1,4.9-1h.1Z"/>
    <path class="st5" d="M1512.3,734.6c0-1.4-.4-2.5-1.1-3.2s-1.8-1.1-3.2-1.1-2.4.3-3.3.8c-.9.6-1.6,1.5-2,2.7l-2.4-1.5c.5-1.4,1.4-2.5,2.8-3.4s3-1.3,5-1.3,2.6.2,3.6.7c1.1.5,2,1.2,2.6,2.1.6.9.9,2.1.9,3.6v9c0,.9.5,1.3,1.4,1.3s.9,0,1.4-.2v2.3c-.6.2-1.3.4-2.1.4s-1.7-.2-2.4-.7c-.7-.4-1.1-1.1-1.3-2-.6,1-1.5,1.7-2.6,2.1-1.1.5-2.2.7-3.3.7s-2.1-.2-3.1-.6c-.9-.4-1.7-.9-2.3-1.7-.6-.8-.8-1.7-.8-2.8s.5-2.5,1.4-3.4,2.2-1.5,3.9-1.8l6.8-1.3v-.7h0ZM1503.3,741.8c0,.8.3,1.4.9,1.9s1.5.7,2.6.7,1.9-.2,2.7-.5c.8-.3,1.5-.8,2-1.5s.8-1.6.8-2.6v-2l-5.4,1.1c-1.2.2-2.1.6-2.7,1s-.9,1.1-.9,1.9h0Z"/>
    <path class="st5" d="M1528.9,747c-1.2,0-2.3-.2-3.4-.7s-1.9-1.2-2.6-2.2-1-2.3-1-3.9v-12.2h3v11.4c0,1.9.4,3.2,1.2,3.9.8.7,2,1.1,3.5,1.1s1.8-.2,2.7-.7c.8-.4,1.5-1.1,2.1-2s.8-2.1.8-3.6v-10.1h3v18.6h-2.6l-.2-2.8c-.6,1.1-1.5,1.9-2.6,2.4s-2.4.8-3.9.8ZM1531.1,719.1h3.2l-3.6,6.2h-2.4l2.8-6.2Z"/>
    <path class="st5" d="M1552,747c-1.5,0-3-.4-4.2-1.2-1.3-.8-2.3-1.9-3.1-3.3-.8-1.5-1.2-3.2-1.2-5.2s.4-3.8,1.2-5.2c.8-1.4,1.9-2.5,3.2-3.3,1.3-.8,2.8-1.1,4.3-1.1s2.5.3,3.6.9c1,.6,1.8,1.4,2.3,2.5v-11.6h3v27.2h-2.6l-.2-3.5c-.5,1.3-1.4,2.2-2.5,2.9s-2.4,1-3.8,1h0ZM1552.3,744.4c1.8,0,3.2-.7,4.3-2,1.1-1.3,1.6-3.1,1.6-5.4s-.5-3.8-1.6-5-2.4-1.8-4.1-1.8-3.4.6-4.4,1.9c-1,1.3-1.6,3-1.6,5.1s.5,3.8,1.5,5.1,2.4,1.9,4.3,1.9v.2h0Z"/>
    <path class="st5" d="M1575.5,747c-1.8,0-3.3-.4-4.7-1.2-1.4-.8-2.5-1.9-3.2-3.3-.8-1.5-1.2-3.2-1.2-5.2s.4-3.7,1.2-5.2c.8-1.5,1.8-2.6,3.2-3.3,1.3-.8,2.9-1.2,4.6-1.2s3.2.4,4.4,1.1c1.2.7,2.2,1.8,2.8,3,.6,1.3,1,2.7,1,4.3s0,.8,0,1.2v.9h-14c0,2,.8,3.5,1.8,4.6,1.1,1.1,2.5,1.6,4.2,1.6s2.5-.3,3.3-.8c.9-.5,1.5-1.2,2.1-2.1l2.3,1.4c-.7,1.3-1.7,2.3-3,3s-2.9,1.1-4.7,1.1h-.1ZM1575.3,730.3c-1.6,0-2.8.5-3.9,1.4s-1.6,2.2-1.9,3.9h11.1c0-1.7-.6-3-1.6-3.9s-2.2-1.4-3.8-1.4h.1Z"/>
  </g>
  <g>
    <path class="st5" d="M1476.6,887.2v10.7h13.3v-10.7h3v24.6h-3v-11.1h-13.3v11.1h-3v-24.6h3Z"/>
    <path class="st5" d="M1510.9,899.8c0-1.4-.4-2.5-1.1-3.2s-1.8-1.1-3.2-1.1-2.4.3-3.3.8c-.9.6-1.6,1.5-2,2.7l-2.4-1.5c.5-1.4,1.4-2.5,2.8-3.4s3-1.3,5-1.3,2.6.2,3.6.7c1.1.5,2,1.2,2.6,2.1.6.9.9,2.1.9,3.6v9c0,.9.5,1.3,1.4,1.3s.9,0,1.4-.2v2.3c-.6.2-1.3.4-2.1.4s-1.7-.2-2.4-.7c-.7-.4-1.1-1.1-1.3-2-.6,1-1.5,1.7-2.6,2.1-1.1.5-2.2.7-3.3.7s-2.1-.2-3.1-.6c-.9-.4-1.7-.9-2.3-1.7-.6-.8-.8-1.7-.8-2.8s.5-2.5,1.4-3.4,2.2-1.5,3.9-1.8l6.8-1.3v-.7h0ZM1501.9,907c0,.8.3,1.4.9,1.9s1.5.7,2.6.7,1.9-.2,2.7-.5c.8-.3,1.5-.8,2-1.5s.8-1.6.8-2.6v-2l-5.4,1.1c-1.2.2-2.1.6-2.7,1s-.9,1.1-.9,1.9h0Z"/>
    <path class="st5" d="M1529.8,912.2c-1.4,0-2.7-.3-3.8-1-1.1-.7-2-1.6-2.5-2.6l-.2,3.3h-2.6v-27.2h3v11.5c.6-1,1.4-1.8,2.5-2.4,1.1-.6,2.3-.9,3.7-.9s3,.4,4.2,1.2c1.3.8,2.3,1.9,3.1,3.3.8,1.4,1.2,3.2,1.2,5.2s-.4,3.7-1.2,5.2c-.8,1.5-1.8,2.6-3.1,3.3-1.3.8-2.7,1.2-4.2,1.2h0ZM1529.5,909.6c1.8,0,3.3-.6,4.3-1.9,1-1.3,1.5-3,1.5-5.1s-.5-3.8-1.5-5.1-2.4-1.9-4.3-1.9-3.2.7-4.2,2c-1.1,1.3-1.6,3-1.6,5.2s.5,3.8,1.6,5.1,2.5,1.9,4.2,1.9v-.2Z"/>
    <path class="st5" d="M1545.2,889.6c-.7,0-1.2-.2-1.6-.6-.4-.4-.6-.9-.6-1.6s.2-1.2.6-1.6c.4-.4.9-.6,1.6-.6s1.2.2,1.6.6c.4.4.6.9.6,1.6s-.2,1.2-.6,1.6c-.4.4-.9.6-1.6.6ZM1546.6,893.2v18.6h-3v-18.6h3Z"/>
    <path class="st5" d="M1564.4,893.2v2.6h-6.8v10.9c0,.9.3,1.6.8,2s1.2.7,2,.7,1.3,0,1.9-.4c.5-.2,1-.6,1.4-1l1,2.5c-.6.5-1.2.9-2,1.2s-1.7.4-2.7.4-1.8-.2-2.6-.5c-.8-.3-1.5-.9-2-1.6-.5-.7-.7-1.7-.8-2.9v-11.4h-3.7v-2.6h3.7v-4.5l3-.8v5.3h6.8,0Z"/>
    <path class="st5" d="M1579.3,899.8c0-1.4-.4-2.5-1.1-3.2s-1.8-1.1-3.2-1.1-2.4.3-3.3.8c-.9.6-1.6,1.5-2,2.7l-2.4-1.5c.5-1.4,1.4-2.5,2.8-3.4s3-1.3,5-1.3,2.6.2,3.6.7c1.1.5,2,1.2,2.6,2.1.6.9.9,2.1.9,3.6v9c0,.9.5,1.3,1.4,1.3s.9,0,1.4-.2v2.3c-.6.2-1.3.4-2.1.4s-1.7-.2-2.4-.7c-.7-.4-1.1-1.1-1.3-2-.6,1-1.5,1.7-2.6,2.1-1.1.5-2.2.7-3.3.7s-2.1-.2-3.1-.6c-.9-.4-1.7-.9-2.3-1.7-.6-.8-.8-1.7-.8-2.8s.5-2.5,1.4-3.4,2.2-1.5,3.9-1.8l6.8-1.3v-.7h0ZM1570.3,907c0,.8.3,1.4.9,1.9s1.5.7,2.6.7,1.9-.2,2.7-.5c.8-.3,1.5-.8,2-1.5s.8-1.6.8-2.6v-2l-5.4,1.1c-1.2.2-2.1.6-2.7,1s-.9,1.1-.9,1.9h0Z"/>
    <path class="st5" d="M1596.8,892.8c1.9,0,3.5.4,4.8,1.3s2.2,2.1,2.9,3.6l-2.8,1.3c-.4-1.2-1-2.1-1.8-2.7s-1.9-.9-3.1-.9c-1.9,0-3.3.6-4.4,1.9s-1.6,3-1.6,5.2.5,3.9,1.6,5.2,2.5,1.9,4.4,1.9,2.6-.3,3.5-1,1.4-1.6,1.7-2.8l2.8,1c-.6,1.7-1.6,3.1-2.9,4s-3,1.5-5,1.5-3.3-.4-4.7-1.2c-1.4-.8-2.4-1.9-3.2-3.3-.8-1.5-1.2-3.2-1.2-5.2s.4-3.7,1.2-5.2c.8-1.5,1.8-2.6,3.2-3.3,1.4-.8,2.9-1.2,4.7-1.2h0ZM1594.7,911.6l1.6-.9c1.5.5,2.5,1.1,3.1,1.9.6.8.9,1.8.9,2.8s-.4,2.2-1.3,3.1c-.8.8-1.9,1.3-3.2,1.3s-1.4,0-2-.3c-.6-.2-1.1-.5-1.5-.8l.7-2.2c.3.2.7.4,1.1.6.4.2.8.3,1.4.3s1.3-.2,1.7-.7c.4-.4.7-1.1.7-1.9s-.2-1.2-.7-1.7-1.3-1-2.5-1.5h0Z"/>
    <path class="st5" d="M1620.5,899.8c0-1.4-.4-2.5-1.1-3.2s-1.8-1.1-3.2-1.1-2.4.3-3.3.8c-.9.6-1.6,1.5-2,2.7l-2.4-1.5c.5-1.4,1.4-2.5,2.8-3.4s3-1.3,5-1.3,2.6.2,3.6.7c1.1.5,2,1.2,2.6,2.1.6.9.9,2.1.9,3.6v9c0,.9.5,1.3,1.4,1.3s.9,0,1.4-.2v2.3c-.6.2-1.3.4-2.1.4s-1.7-.2-2.4-.7c-.7-.4-1.1-1.1-1.3-2-.6,1-1.5,1.7-2.6,2.1-1.1.5-2.2.7-3.3.7s-2.1-.2-3.1-.6c-.9-.4-1.7-.9-2.3-1.7-.6-.8-.8-1.7-.8-2.8s.5-2.5,1.4-3.4,2.2-1.5,3.9-1.8l6.8-1.3v-.7h0ZM1623.1,885.1c-.3,3.3-1.7,5-4.2,5s-1.3,0-1.8-.4c-.5-.3-.9-.6-1.2-.9s-.7-.6-1-.9-.7-.4-1.1-.4-1,.2-1.2.7c-.3.5-.5,1.1-.6,1.9h-2.3c0-1.6.5-2.9,1.2-3.7s1.7-1.3,3-1.3,1.2,0,1.7.4c.5.3.9.6,1.3.9.4.3.7.6,1,.9s.7.4,1,.4c.6,0,1-.2,1.3-.7s.5-1.1.6-1.9h2.3,0ZM1611.4,907c0,.8.3,1.4.9,1.9s1.5.7,2.6.7,1.9-.2,2.7-.5c.8-.3,1.5-.8,2-1.5s.8-1.6.8-2.6v-2l-5.4,1.1c-1.2.2-2.1.6-2.7,1s-.9,1.1-.9,1.9h0Z"/>
    <path class="st5" d="M1638,892.8c1.8,0,3.3.4,4.7,1.2,1.4.8,2.4,1.9,3.2,3.3.8,1.5,1.2,3.2,1.2,5.2s-.4,3.7-1.2,5.2c-.8,1.5-1.8,2.6-3.2,3.3-1.4.8-2.9,1.2-4.7,1.2s-3.3-.4-4.7-1.2c-1.4-.8-2.4-1.9-3.2-3.3-.8-1.5-1.2-3.2-1.2-5.2s.4-3.7,1.2-5.2c.8-1.5,1.8-2.6,3.2-3.3,1.4-.8,2.9-1.2,4.7-1.2ZM1638,895.4c-1.9,0-3.4.6-4.4,1.9-1.1,1.3-1.6,3-1.6,5.2s.5,3.9,1.6,5.2,2.5,1.9,4.4,1.9,3.4-.6,4.4-1.9c1.1-1.3,1.6-3,1.6-5.2s-.5-3.9-1.6-5.2-2.5-1.9-4.4-1.9Z"/>
  </g>
  <g>
    <path class="st7" d="M663.6,552.2c2.3-2.5,4.7-3.9,7.1-4.2,2.4-.3,4.5.4,6.3,2.1,2.9,2.7,3.7,5.7,2.4,9l11.8,2.2-6.9,7.4-9.6-2.5-1.7,1.9,6.4,6-6.2,6.7-19.4-18,9.7-10.5h.1ZM671,561.2c.7-.7,1-1.4,1.1-2s-.2-1.2-.9-1.8c-.6-.6-1.3-.8-1.9-.7-.6,0-1.2.5-1.9,1.2l-2.4,2.6,3.6,3.3,2.4-2.6h0Z"/>
    <path class="st7" d="M692,560.7l-18.1-19.2,16-15,4.7,5-9.2,8.6,2.2,2.4,7.4-7,4.3,4.6-7.4,7,2.1,2.3,9.5-9,4.7,5-16.3,15.3h0Z"/>
    <path class="st7" d="M703,515.5c3.2-2.6,6.3-3.7,9.4-3.2,3.1.4,6,2.3,8.6,5.6,2.6,3.2,3.9,6.4,3.7,9.5s-1.9,6-5.1,8.6l-10,8.2-16.7-20.5,10-8.2h0ZM714.5,531.6c1.3-1.1,1.9-2.2,1.7-3.4s-1-2.6-2.5-4.4c-1.4-1.8-2.7-2.9-3.8-3.3-1.1-.5-2.3,0-3.7,1l-1.8,1.5,8.3,10.2,1.8-1.5h0Z"/>
    <path class="st7" d="M731.3,526.7l-15.2-21.6,17.9-12.6,3.9,5.6-10.3,7.3,1.9,2.7,8.3-5.9,3.6,5.2-8.3,5.9,1.8,2.6,10.7-7.5,3.9,5.6-18.3,12.9v-.2h0Z"/>
    <path class="st7" d="M747.2,483.9c4.3-2.6,8.4-3.6,12.3-3.1v7.1c-1.6,0-3.1,0-4.6.2-1.5.3-2.9.8-4.2,1.6-.9.5-1.4,1-1.7,1.4-.2.4-.3.8,0,1.1.2.3.5.3,1,.2.5-.1,1.1-.3,1.9-.5l3.5-1.2c2.6-.9,4.8-1.2,6.6-.8,1.8.3,3.2,1.4,4.4,3.2s1.6,3.6,1.4,5.3c-.2,1.7-.8,3.3-2,4.8s-2.7,2.8-4.6,4c-1.4.9-2.9,1.6-4.5,2.2s-3.2,1-4.7,1.3-3,.3-4.3,0v-7.1c.9.1,2,.1,3.2,0s2.4-.4,3.5-.8c1.2-.4,2.2-.8,3-1.3s1.3-.9,1.5-1.3.2-.7,0-1-.5-.5-.8-.5-.9.1-1.7.4l-3.9,1.3c-1.4.5-2.7.8-4.1,1s-2.7,0-3.9-.4c-1.2-.5-2.3-1.4-3.2-2.9s-1.4-3.2-1.2-4.8c0-1.7.8-3.3,2-4.9s2.9-3.1,5.2-4.5h-.1Z"/>
    <path class="st7" d="M779.7,466.2c4.5-2.2,8.7-2.8,12.6-1.9l-.8,7c-1.5-.2-3-.3-4.5-.2-1.5.1-2.9.5-4.4,1.2-.9.5-1.5.9-1.8,1.3s-.3.7-.2,1.1c0,.3.5.4,1,.3s1.1-.2,1.9-.3l3.6-.8c2.7-.6,4.9-.7,6.7-.2s3.1,1.7,4,3.6,1.2,3.7.9,5.4c-.3,1.7-1.2,3.2-2.5,4.6s-3,2.6-5,3.5c-1.5.7-3.1,1.3-4.7,1.8-1.6.5-3.2.7-4.8.8-1.6,0-3,0-4.3-.3l.6-7.1c1,.2,2,.3,3.2.3s2.4-.2,3.6-.4c1.2-.2,2.2-.6,3.1-1,.9-.4,1.4-.8,1.6-1.2.2-.4.3-.7,0-1s-.4-.5-.8-.6c-.4,0-.9,0-1.7.2l-4,1c-1.4.3-2.8.5-4.2.6-1.4,0-2.7-.2-3.8-.7-1.2-.6-2.1-1.7-2.9-3.2-.8-1.6-1.1-3.3-.8-4.9s1.1-3.2,2.4-4.7c1.3-1.5,3.2-2.8,5.6-4l.3-.2h.1Z"/>
    <path class="st7" d="M805.4,454.8c3.9-1.6,7.4-1.7,10.5-.4,3.1,1.3,5.4,4,7,8s1.8,7.6.4,10.6c-1.3,3.1-3.9,5.4-7.8,7-2.6,1-5,1.4-7.3,1.2-2.3-.2-4.3-1.1-6-2.6-1.8-1.5-3.2-3.6-4.2-6.2-1.1-2.7-1.5-5.2-1.2-7.4.3-2.3,1.1-4.3,2.6-6s3.5-3.1,6.1-4.2h0ZM808,461.3c-1.3.5-2,1.4-2.2,2.6s0,2.9,1,5,1.8,3.6,2.7,4.3c1,.7,2.1.9,3.4.4,1.3-.5,2-1.4,2.2-2.6s-.2-2.9-1-5c-.9-2.1-1.8-3.6-2.7-4.3-1-.8-2.1-.9-3.3-.4h-.1Z"/>
    <path class="st7" d="M851.2,458.9c.2,2.1,0,3.9-.9,5.5-.7,1.5-1.8,2.8-3.2,3.8s-3.1,1.8-5,2.4c-2.6.8-5.1,1-7.3.6s-4.2-1.4-5.8-3-2.9-3.8-3.8-6.5-1.1-5.2-.7-7.5c.4-2.3,1.4-4.2,3-5.8,1.6-1.6,3.7-2.9,6.4-3.7,1.9-.6,3.7-.9,5.4-.9s3.4.4,4.8,1.2c1.5.8,2.7,2,3.6,3.7l-6.7,5.4c-.7-1.6-1.5-2.5-2.3-2.8s-1.6-.3-2.6,0c-1.3.4-2.2,1.2-2.5,2.4-.3,1.2-.2,2.9.5,5.1s1.5,3.7,2.4,4.5,2.2,1,3.7.5c.9-.3,1.6-.8,2-1.5s.5-1.7.3-3l8.5-.5h.2,0Z"/>
    <path class="st7" d="M857.6,438.5l6.6,25.6-9,2.3-6.6-25.6,9-2.3Z"/>
    <path class="st7" d="M892.8,458l-9.3,1.9-2.2-4.7-7,1.4-.2,5.2-9.1,1.8,3.2-27.6,11-2.2,13.7,24.2h-.1ZM874.6,450.6l4.3-.9-3.9-8.6-.3,9.4h0Z"/>
    <path class="st7" d="M899.2,430.6l3.8,26.1-9.2,1.4-3.8-26.1,9.2-1.4Z"/>
    <path class="st7" d="M915.2,428.4c5-.5,9.1.4,12.5,2.6l-3.2,6.3c-1.3-.8-2.7-1.3-4.1-1.7-1.4-.4-2.9-.5-4.5-.4-1,0-1.7.3-2.1.5-.4.3-.6.6-.5,1,0,.3.3.5.8.6s1.1.2,1.9.3l3.7.5c2.7.4,4.8,1.1,6.3,2.1,1.5,1.1,2.3,2.7,2.5,4.8.2,2.1-.2,3.9-1.1,5.4-.9,1.5-2.2,2.6-3.9,3.4s-3.7,1.4-5.9,1.6c-1.7.2-3.4.2-5.1,0-1.7-.1-3.3-.5-4.8-.9s-2.8-1.1-3.9-1.8l3.1-6.4c.8.5,1.8,1,2.9,1.4,1.1.4,2.3.7,3.5.9,1.2.2,2.3.2,3.3.1,1,0,1.6-.3,1.9-.5.3-.3.5-.6.5-.9s-.2-.6-.5-.8c-.3-.2-.9-.3-1.7-.4l-4.1-.5c-1.4-.2-2.8-.5-4.1-.9s-2.4-1.1-3.3-2c-.9-.9-1.4-2.3-1.6-4-.2-1.8.2-3.4,1-4.9.8-1.4,2.1-2.6,3.9-3.6s4-1.5,6.6-1.8h0Z"/>
    <path class="st7" d="M940.8,453.6l-.4-26.4,21.9-.4v6.8l-12.5.2v3.3l10.2-.2v6.3l-10.1.2v3.1l13.1-.2v6.8l-22.3.4h0Z"/>
    <path class="st7" d="M999.9,448.1c-.7,2-1.6,3.6-2.9,4.7-1.3,1.1-2.7,1.9-4.4,2.3s-3.6.5-5.6.3c-2.8-.2-5.1-1-7-2.2s-3.3-2.9-4.2-5-1.2-4.6-1-7.5c.3-2.9,1-5.3,2.3-7.2,1.3-1.9,2.9-3.3,5-4.2,2.1-.9,4.5-1.2,7.3-1,1.9.2,3.7.6,5.3,1.3,1.6.7,3,1.7,4,3s1.7,2.9,1.9,4.8l-8.2,2.4c0-1.7-.4-2.9-1-3.5s-1.4-.9-2.4-1c-1.4-.1-2.5.3-3.2,1.3-.8,1-1.3,2.6-1.5,4.9s0,3.9.5,5.1c.6,1.1,1.6,1.8,3.2,1.9,1,0,1.8-.1,2.4-.6.7-.5,1.1-1.4,1.4-2.6l8,2.8h.1Z"/>
    <path class="st7" d="M1017.4,431.9c4.2.7,7.2,2.4,9.2,5.1s2.6,6.2,1.9,10.5-2.4,7.4-5.1,9.3c-2.7,2-6.2,2.6-10.3,1.9-2.7-.5-5-1.4-6.8-2.7-1.8-1.4-3.1-3.2-3.8-5.3s-.9-4.7-.4-7.5,1.4-5.2,2.8-7c1.4-1.8,3.2-3.1,5.3-3.8,2.2-.7,4.6-.9,7.3-.4h0ZM1016.2,438.9c-1.3-.2-2.4.1-3.2,1.1-.8.9-1.4,2.5-1.7,4.8-.4,2.3-.3,4,0,5.1.4,1.1,1.3,1.8,2.7,2s2.4-.1,3.2-1.1c.8-.9,1.4-2.5,1.7-4.8.4-2.3.3-4,0-5.1-.4-1.1-1.3-1.8-2.7-2h0Z"/>
    <path class="st7" d="M1067.9,443.8l-6.6,25.6-7.9-2,2.3-8.9,2.3-8.6h0l-9.5,16.2-7.2-1.9-.4-18.7h-.2l-2.1,8.6-2.3,8.9-7.9-2,6.6-25.6,12.6,3.3v17.2h0l2.4-4.5,5.9-10.6,12,3.1h0Z"/>
    <path class="st7" d="M1096.6,453.9l-5,14.2c-2.6,7.4-7.9,9.7-16,6.8s-10.7-8-8.1-15.3l5-14.2,8.8,3.1-5.3,14.9c-.9,2.5-.3,4.2,1.9,4.9,2.2.8,3.7-.1,4.6-2.7l5.3-14.9,8.8,3.1h0Z"/>
    <path class="st7" d="M1124.5,466.1l-10.7,24.1-9.2-4.1-.9-13.5v-3.5h0l-2.1,5-4,9-7.4-3.3,10.7-24.1,9.2,4.1.9,13.6v3.5h0l2.1-5,4-9,7.4,3.3h0Z"/>
    <path class="st7" d="M1137,472.6l-12,23.5-8.3-4.3,12-23.5,8.3,4.3Z"/>
    <path class="st7" d="M1162.5,487.1l-3.4,5.9-7.1-4.1-9.8,16.9-8.1-4.7,9.8-16.9-7.2-4.2,3.4-5.9,22.3,13h0Z"/>
    <path class="st7" d="M1172.3,525.6l-7.9-5.4,1.9-4.8-5.9-4-3.9,3.5-7.7-5.2,22-17,9.2,6.3-7.8,26.7h.1ZM1164.9,507.4l3.6,2.5,3.4-8.8-7,6.3ZM1179.3,487.9l6.5,4.4-6.8,3.5-5.4-3.7,5.7-4.2h0Z"/>
    <path class="st7" d="M1200.6,514.4c2.7,2.1,4.3,4.4,4.8,6.7s0,4.5-1.6,6.5c-2.5,3.1-5.4,4.1-8.8,3.1l-1.3,11.9-7.9-6.3,1.8-9.8-2-1.6-5.5,6.9-7.1-5.7,16.4-20.7,11.2,8.9h0ZM1192.1,522.4c.8.6,1.5.9,2.1,1s1.2-.3,1.8-1c.5-.7.7-1.3.6-1.9-.2-.6-.6-1.2-1.4-1.8l-2.8-2.2-3,3.8,2.8,2.2h0Z"/>
    <path class="st7" d="M1218.7,529.9l-17.5,19.7-7-6.2,17.5-19.7,7,6.2Z"/>
    <path class="st7" d="M1222.2,570l-6.8-6.7,2.7-4.4-5.1-5-4.4,2.7-6.6-6.5,24.6-12.8,8,7.9-12.4,24.8h0ZM1218.1,550.8l3.1,3.1,4.9-8-8,5h0Z"/>
    <path class="st7" d="M1250.4,561.6c3.3,3.7,5,7.6,5.2,11.6l-7,1.1c-.2-1.5-.5-3-1-4.4s-1.3-2.7-2.3-3.9c-.7-.8-1.3-1.3-1.7-1.4-.4-.2-.8,0-1.1,0-.2.2-.3.6,0,1,.2.5.5,1.1.8,1.7l1.8,3.3c1.3,2.4,2,4.6,2,6.4s-.8,3.4-2.4,4.9c-1.6,1.4-3.3,2.2-5,2.3s-3.4-.3-5.1-1.1c-1.7-.9-3.2-2.2-4.7-3.9-1.1-1.3-2.1-2.6-3-4.1s-1.6-2.9-2.1-4.4-.8-2.9-.8-4.2l7-1.3c0,1,.3,2.1.6,3.2.4,1.1.8,2.3,1.4,3.3.6,1.1,1.2,2,1.8,2.8.6.7,1.2,1.1,1.6,1.3.4,0,.7,0,1-.2s.4-.5.3-.9c0-.4-.3-.9-.7-1.6l-2-3.6c-.7-1.3-1.3-2.6-1.7-3.9-.4-1.3-.5-2.6-.3-3.9.2-1.3,1-2.5,2.3-3.7,1.4-1.2,2.9-1.9,4.5-2,1.7-.2,3.4.2,5.2,1.1s3.6,2.3,5.3,4.3h0v.2h0Z"/>
  </g>
  <g>
    <g>
      <path class="st5" d="M790,235.3c-.5,2.3-1.5,4.2-2.8,5.6-1.3,1.4-2.9,2.4-4.7,3-1.9.6-3.9.9-6.2.9s-5.8-.6-8.1-1.8-4-2.9-5.2-5.2-1.8-5-1.8-8.3.6-6,1.8-8.3,3-4,5.2-5.2c2.3-1.2,5-1.8,8.1-1.8s4.2.3,6.1.9c1.9.6,3.5,1.6,4.8,2.9,1.3,1.3,2.2,3,2.6,5.2l-9,3.5c-.2-1.9-.7-3.2-1.5-3.8-.7-.6-1.7-.9-2.8-.9s-2.7.6-3.5,1.8-1.2,3.1-1.2,5.6.4,4.4,1.1,5.6c.7,1.2,2,1.8,3.8,1.8s2-.3,2.7-1c.7-.6,1.1-1.7,1.3-3.1l9.3,2.4v.2h0Z"/>
      <path class="st5" d="M803.4,221.5c2.5,0,4.7.5,6.6,1.4,1.9.9,3.3,2.2,4.4,4,1,1.7,1.6,3.9,1.6,6.3s-.5,4.6-1.6,6.3c-1.1,1.8-2.5,3.1-4.4,4s-4.1,1.4-6.6,1.4-4.7-.5-6.6-1.4c-1.9-.9-3.4-2.2-4.4-4-1.1-1.8-1.6-3.9-1.6-6.3s.5-4.6,1.6-6.3c1-1.7,2.5-3.1,4.4-4s4.1-1.4,6.6-1.4ZM803.4,228.4c-.7,0-1.2.3-1.6.9-.4.6-.6,1.9-.6,3.8s.2,3.1.6,3.8c.4.6.9.9,1.6.9s1.2-.3,1.6-.9c.4-.6.6-1.9.6-3.8s-.2-3.1-.6-3.8c-.4-.6-.9-.9-1.6-.9Z"/>
      <path class="st5" d="M818.1,244.4v-22.5h9.3l.2,4.9c.7-1.7,1.6-3,3-4,1.3-.9,2.9-1.4,4.9-1.4s4,.7,5.2,2,1.9,3.2,1.9,5.6v15.4h-10.4v-12.8c0-1,0-1.6-.4-2-.3-.3-.7-.5-1.2-.5s-1.3.3-1.6.8-.5,1.4-.5,2.6v11.9h-10.4Z"/>
      <path class="st5" d="M853.5,244.9c-2.8,0-4.9-1-6.4-3s-2.2-4.9-2.2-8.5.8-6.7,2.3-8.7c1.5-2.1,3.6-3.1,6.4-3.1s2.9.4,3.9,1.1c1,.8,1.9,1.8,2.4,3v-12.7h10.3v31.5h-9.3l-.3-4.5c-.6,1.5-1.5,2.7-2.7,3.6-1.2.9-2.7,1.4-4.4,1.4h0ZM857.7,237.6c.7,0,1.2-.4,1.6-1.1.4-.7.6-1.8.6-3.4,0-2.9-.7-4.4-2.2-4.4s-1.3.3-1.7.9c-.4.6-.6,1.8-.6,3.5s.2,3,.6,3.6c.4.6,1,.9,1.7.9h0Z"/>
      <path class="st5" d="M878.5,220.5c-2,0-3.5-.3-4.3-1-.9-.7-1.3-1.8-1.3-3.3s.4-2.7,1.3-3.4c.9-.6,2.3-1,4.3-1s3.5.3,4.3,1c.9.6,1.3,1.8,1.3,3.4s-.4,2.7-1.3,3.3c-.9.7-2.3,1-4.3,1ZM883.7,221.9v22.5h-10.4v-22.5h10.4Z"/>
      <path class="st5" d="M898.4,221.5c2.8,0,5,.4,6.8,1.1,1.7.8,3,1.7,3.8,2.9s1.3,2.4,1.3,3.6l-9.5,2.8c0-1.2,0-2.1-.4-2.6-.3-.6-.8-.8-1.5-.8s-1.5.3-1.9,1-.6,2-.6,3.8,0,2.3.3,2.9c.2.7.5,1.1.9,1.3s.8.3,1.3.3c1.2,0,1.9-1,2-3l9.3,2.9c0,1.3-.5,2.4-1.4,3.5s-2.2,1.9-3.9,2.6-3.6,1-5.9,1c-4.1,0-7.3-1-9.6-3.1-2.3-2-3.4-4.9-3.4-8.6s.5-4.6,1.6-6.3c1-1.7,2.5-3.1,4.4-4s4.1-1.4,6.5-1.4h0ZM894.3,243.8l1.8-1.3c5.5.4,8.2,2.2,8.2,5.7s-.6,3.3-1.8,4.3-2.9,1.6-5.1,1.6-2.3-.1-3-.4c-.7-.3-1.3-.6-1.8-.9l1.5-4.4c.3.2.7.4,1.1.5.4.1.9.2,1.4.2s1.3-.2,1.7-.6c.4-.4.7-.9.7-1.6s-.3-1.2-1-1.7-1.9-1-3.6-1.4h-.1Z"/>
      <path class="st5" d="M923.7,221.5c2.5,0,4.7.5,6.6,1.4,1.9.9,3.3,2.2,4.4,4,1,1.7,1.6,3.9,1.6,6.3s-.5,4.6-1.6,6.3c-1,1.8-2.5,3.1-4.4,4s-4.1,1.4-6.6,1.4-4.7-.5-6.6-1.4c-1.9-.9-3.4-2.2-4.4-4s-1.6-3.9-1.6-6.3.5-4.6,1.6-6.3c1-1.7,2.5-3.1,4.4-4s4.1-1.4,6.6-1.4ZM933.1,212c0,1.8-.3,3.3-.9,4.5-.6,1.2-1.3,2-2.2,2.6s-1.8.9-2.8.9-2-.2-2.8-.6c-.8-.4-1.4-.7-1.9-1.1-.5-.4-1.1-.6-1.6-.6-.8,0-1.3.7-1.4,2.2h-5.3c0-2.7.7-4.7,1.9-6s2.7-1.9,4.5-1.9,2,.2,2.6.6c.6.4,1.2.8,1.7,1.1.5.4,1,.6,1.5.6.8,0,1.2-.7,1.3-2.2h5.4ZM923.7,228.4c-.7,0-1.2.3-1.6.9-.4.6-.6,1.9-.6,3.8s.2,3.1.6,3.8c.4.6.9.9,1.6.9s1.2-.3,1.6-.9c.4-.6.6-1.9.6-3.8s-.2-3.1-.6-3.8c-.4-.6-.9-.9-1.6-.9Z"/>
      <path class="st5" d="M950.5,244.9c-4.1,0-7.2-1-9.5-3.1-2.2-2-3.4-4.9-3.4-8.6s.5-4.6,1.6-6.3c1-1.7,2.5-3.1,4.4-4s4.1-1.4,6.5-1.4,4.7.5,6.5,1.4,3.1,2.2,4.1,3.8c.9,1.7,1.4,3.6,1.4,5.8s0,1,0,1.5,0,.9-.2,1.2h-14.3c.2,1.2.5,1.9,1,2.3.5.4,1.2.5,2.1.5,1.5,0,2.4-.6,2.7-1.9l8.3,2.2c-.3,1.5-1.1,2.7-2.2,3.7-1.1,1-2.5,1.7-4.1,2.2s-3.2.7-4.9.7h0ZM950.1,228.3c-.8,0-1.4.2-1.8.7-.4.4-.7,1.2-.8,2.4h4.9c0-1-.3-1.7-.6-2.2s-.9-.8-1.6-.8h-.1Z"/>
      <path class="st5" d="M974.4,244.9c-2.2,0-4.3-.3-6.3-.9-2-.6-3.8-1.5-5.3-2.7l3.7-5.4c.8.7,1.9,1.4,3.2,1.9s2.6.8,4,.8,1,0,1.4-.2c.4-.1.6-.3.6-.6s0-.4-.3-.5-.7-.2-1.5-.4l-1.6-.3c-3.3-.6-5.6-1.5-6.9-2.7-1.3-1.2-2-2.7-2-4.7s.4-2.4,1.2-3.6c.8-1.2,2.1-2.2,3.8-2.9,1.7-.8,4-1.2,6.9-1.2s4.4.3,6.3.9c1.9.6,3.4,1.4,4.5,2.4l-3.6,5.1c-.8-.7-1.9-1.2-3.2-1.6-1.3-.4-2.5-.6-3.6-.6s-1.3,0-1.6.2c-.3.1-.5.3-.5.5s0,.4.5.6c.3.2.9.3,1.8.5l3.2.5c2.4.4,4.2,1.2,5.3,2.3s1.7,2.6,1.7,4.3-.4,2.8-1.2,4.1c-.8,1.2-2,2.2-3.7,3s-3.9,1.1-6.7,1.1h-.1Z"/>
      <path class="st5" d="M1006.6,244.9c-2.8,0-4.9-1-6.4-3s-2.2-4.9-2.2-8.5.8-6.7,2.3-8.7c1.5-2.1,3.6-3.1,6.4-3.1s2.9.4,3.9,1.1c1,.8,1.9,1.8,2.4,3v-12.7h10.3v31.5h-9.3l-.3-4.5c-.6,1.5-1.5,2.7-2.7,3.6-1.2.9-2.7,1.4-4.4,1.4h0ZM1010.8,237.6c.7,0,1.2-.4,1.6-1.1.4-.7.6-1.8.6-3.4,0-2.9-.7-4.4-2.2-4.4s-1.3.3-1.7.9c-.4.6-.6,1.8-.6,3.5s.2,3,.6,3.6c.4.6,1,.9,1.7.9h0Z"/>
      <path class="st5" d="M1038.4,244.9c-4.1,0-7.2-1-9.5-3.1-2.2-2-3.4-4.9-3.4-8.6s.5-4.6,1.6-6.3c1-1.7,2.5-3.1,4.4-4s4.1-1.4,6.5-1.4,4.7.5,6.5,1.4,3.1,2.2,4.1,3.8c.9,1.7,1.4,3.6,1.4,5.8s0,1,0,1.5,0,.9-.2,1.2h-14.3c.2,1.2.5,1.9,1,2.3.5.4,1.2.5,2.1.5,1.5,0,2.4-.6,2.7-1.9l8.3,2.2c-.3,1.5-1.1,2.7-2.2,3.7s-2.5,1.7-4.1,2.2-3.2.7-4.9.7h0ZM1038.1,228.3c-.8,0-1.4.2-1.8.7-.4.4-.7,1.2-.8,2.4h4.9c0-1-.3-1.7-.6-2.2-.3-.5-.9-.8-1.6-.8h0Z"/>
      <path class="st5" d="M1093.3,214.7l-10,29.7h-12.5l-10-29.7h10.9l4.1,16.2,1.4,5.8,1.3-5.7,4.2-16.3h10.6Z"/>
      <path class="st5" d="M1099.4,220.5c-2,0-3.5-.3-4.3-1-.9-.7-1.3-1.8-1.3-3.3s.4-2.7,1.3-3.4c.9-.6,2.3-1,4.3-1s3.5.3,4.3,1c.9.6,1.3,1.8,1.3,3.4s-.4,2.7-1.3,3.3c-.9.7-2.3,1-4.3,1ZM1104.6,221.9v22.5h-10.4v-22.5h10.4Z"/>
      <path class="st5" d="M1115.6,244.9c-2.8,0-4.9-1-6.4-3s-2.2-4.9-2.2-8.5.8-6.7,2.3-8.7c1.5-2.1,3.6-3.1,6.4-3.1s2.9.4,3.9,1.1c1,.8,1.9,1.8,2.4,3v-12.7h10.3v31.5h-9.3l-.3-4.5c-.6,1.5-1.5,2.7-2.7,3.6-1.2.9-2.7,1.4-4.4,1.4h0ZM1119.8,237.6c.7,0,1.2-.4,1.6-1.1.4-.7.6-1.8.6-3.4,0-2.9-.7-4.4-2.2-4.4s-1.3.3-1.7.9c-.4.6-.6,1.8-.6,3.5s.2,3,.6,3.6,1,.9,1.7.9Z"/>
      <path class="st5" d="M1147.6,230.4c0-1.5-.6-2.2-1.9-2.2s-1.2.2-1.6.5c-.4.4-.7,1.1-.7,2.2l-8.7-1.3c.2-2.5,1.3-4.5,3.2-5.9,1.9-1.5,4.8-2.2,8.5-2.2s6.8.8,8.7,2.4c1.9,1.6,2.8,3.7,2.8,6.2v7c0,1.2.6,1.8,1.8,1.8s.6,0,.8-.1l-.5,5.3c-1.1.5-2.4.8-4,.8s-3.2-.3-4.5-.9c-1.2-.6-2.1-1.5-2.5-2.7-.6,1.1-1.5,2-2.8,2.6s-2.8,1-4.4,1c-2.4,0-4.2-.5-5.5-1.6s-1.9-2.5-1.9-4.4.5-3,1.6-4c1-1,2.6-1.7,4.5-2.1l7.1-1.5v-.9h0ZM1144.1,237.3c0,.5,0,.9.4,1.2s.7.5,1.3.5.9-.2,1.3-.5c.3-.4.5-.9.5-1.5v-2l-1.8.4c-1.2.3-1.8,1-1.8,2h0Z"/>
      <path class="st5" d="M823.9,298.9c-4.1,0-7.2-1-9.5-3.1-2.2-2-3.4-4.9-3.4-8.6s.5-4.6,1.6-6.3c1-1.7,2.5-3.1,4.4-4s4.1-1.4,6.5-1.4,4.7.5,6.5,1.4,3.1,2.2,4.1,3.8c.9,1.7,1.4,3.6,1.4,5.8s0,1,0,1.5,0,.9-.2,1.2h-14.3c0,1.2.5,1.9,1,2.3s1.2.5,2.1.5c1.5,0,2.4-.6,2.7-1.9l8.3,2.2c-.3,1.5-1.1,2.7-2.2,3.7-1.1,1-2.5,1.7-4.1,2.2s-3.2.7-4.9.7h0ZM823.6,282.3c-.8,0-1.4.2-1.8.7-.4.4-.7,1.2-.8,2.4h4.9c0-1-.3-1.7-.6-2.2s-.9-.8-1.6-.8h-.1Z"/>
      <path class="st5" d="M856.3,298.9c-2.8,0-4.9-1-6.4-3s-2.2-4.9-2.2-8.5.8-6.7,2.3-8.7c1.5-2.1,3.6-3.1,6.4-3.1s2.9.4,3.9,1.1c1,.8,1.9,1.8,2.4,3v-12.7h10.3v31.5h-9.3l-.3-4.5c-.6,1.5-1.5,2.7-2.7,3.6s-2.7,1.4-4.4,1.4h0ZM860.5,291.6c.7,0,1.2-.4,1.6-1.1.4-.7.6-1.8.6-3.4,0-2.9-.7-4.4-2.2-4.4s-1.3.3-1.7.9-.6,1.8-.6,3.5.2,3,.6,3.6c.4.6,1,.9,1.7.9h0Z"/>
      <path class="st5" d="M888.2,298.9c-4.1,0-7.2-1-9.5-3.1-2.2-2-3.4-4.9-3.4-8.6s.5-4.6,1.6-6.3c1-1.7,2.5-3.1,4.4-4s4.1-1.4,6.5-1.4,4.7.5,6.5,1.4,3.1,2.2,4.1,3.8c.9,1.7,1.4,3.6,1.4,5.8s0,1,0,1.5,0,.9-.2,1.2h-14.3c.2,1.2.5,1.9,1,2.3s1.2.5,2.1.5c1.5,0,2.4-.6,2.7-1.9l8.3,2.2c-.3,1.5-1.1,2.7-2.2,3.7-1.1,1-2.5,1.7-4.1,2.2s-3.2.7-4.9.7h0ZM887.8,282.3c-.8,0-1.4.2-1.8.7-.4.4-.7,1.2-.8,2.4h4.9c0-1-.3-1.7-.6-2.2s-.9-.8-1.6-.8h-.1Z"/>
      <path class="st5" d="M940.8,268.7v7.7h-9.3v22h-10.5v-22h-9.3v-7.7h29.1Z"/>
      <path class="st5" d="M943,298.4v-22.5h9.3l.2,5.6c.5-1.9,1.3-3.3,2.4-4.4,1.1-1.1,2.5-1.6,4.3-1.6s1.2,0,1.6.2c.4.1.6.2.8.4l-.9,8.3c-.3-.1-.7-.2-1.2-.3-.5,0-1.1-.1-1.7-.1-1.3,0-2.4.3-3.2.9s-1.2,1.6-1.2,2.8v10.8h-10.4,0Z"/>
      <path class="st5" d="M974.7,284.4c0-1.5-.6-2.2-1.9-2.2s-1.2.2-1.6.5c-.4.4-.7,1.1-.7,2.2l-8.7-1.3c.2-2.5,1.3-4.5,3.2-5.9,1.9-1.5,4.8-2.2,8.5-2.2s6.8.8,8.7,2.4,2.8,3.7,2.8,6.2v7c0,1.2.6,1.8,1.8,1.8s.6,0,.8-.1l-.5,5.3c-1.1.5-2.4.8-4,.8s-3.2-.3-4.5-.9c-1.2-.6-2.1-1.5-2.5-2.7-.6,1.1-1.5,2-2.8,2.6s-2.8,1-4.4,1c-2.4,0-4.2-.5-5.5-1.6s-1.9-2.5-1.9-4.4.5-3,1.6-4c1-1,2.6-1.7,4.5-2.1l7.1-1.5v-.9h0ZM971.2,291.3c0,.5,0,.9.4,1.2.3.3.7.5,1.3.5s.9-.2,1.3-.5c.3-.4.5-.9.5-1.5v-2l-1.8.4c-1.2.3-1.8,1-1.8,2h0Z"/>
      <path class="st5" d="M1005.3,298.9c-1.8,0-3.4-.5-4.6-1.6-1.3-1-2.2-2.4-2.7-4.1l-.3,5.3h-9.1v-31.5h10.4v12.8c.6-1.3,1.4-2.3,2.5-3.1,1.1-.8,2.5-1.1,4.3-1.1s4.5,1,6,3.1,2.2,5,2.2,8.7-.7,6.5-2.2,8.5-3.6,3-6.4,3h-.1ZM1001.1,291.6c.7,0,1.3-.3,1.7-.9s.6-1.8.6-3.6-.2-2.9-.6-3.5c-.4-.6-1-.9-1.7-.9-1.5,0-2.2,1.5-2.2,4.4s.2,2.7.6,3.4c.4.7.9,1.1,1.6,1.1h0Z"/>
      <path class="st5" d="M1028.5,284.4c0-1.5-.6-2.2-1.9-2.2s-1.2.2-1.6.5c-.4.4-.7,1.1-.7,2.2l-8.7-1.3c.2-2.5,1.3-4.5,3.2-5.9,1.9-1.5,4.8-2.2,8.5-2.2s6.8.8,8.7,2.4c1.9,1.6,2.8,3.7,2.8,6.2v7c0,1.2.6,1.8,1.8,1.8s.6,0,.8-.1l-.5,5.3c-1.1.5-2.4.8-4,.8s-3.2-.3-4.5-.9c-1.2-.6-2.1-1.5-2.5-2.7-.6,1.1-1.5,2-2.8,2.6s-2.8,1-4.4,1c-2.4,0-4.2-.5-5.5-1.6s-1.9-2.5-1.9-4.4.5-3,1.6-4c1-1,2.6-1.7,4.5-2.1l7.1-1.5v-.9h0ZM1025,291.3c0,.5,0,.9.4,1.2.3.3.7.5,1.3.5s.9-.2,1.3-.5c.3-.4.5-.9.5-1.5v-2l-1.8.4c-1.2.3-1.8,1-1.8,2h0Z"/>
      <path class="st5" d="M1052.7,266.9v22.5c0,.9,0,1.6.4,2s.8.6,1.4.6h.9c.3,0,.5,0,.7-.2l-.5,5.6c-.6.4-1.4.8-2.5,1-1.1.3-2.1.4-3.1.4-2.8,0-4.8-.6-6-1.8-1.2-1.2-1.8-3.2-1.8-6v-24.1h10.5Z"/>
      <path class="st5" d="M1057.2,298.4v-31.5h10.4v13.6c.6-1.6,1.5-2.9,2.7-3.7,1.2-.9,2.6-1.3,4.3-1.3s4,.7,5.2,2,1.9,3.2,1.9,5.6v15.4h-10.4v-12.7c0-1,0-1.7-.4-2.1s-.7-.6-1.2-.6c-1.4,0-2.2,1.2-2.2,3.6v11.8h-10.4,0Z"/>
      <path class="st5" d="M1096.4,275.5c2.5,0,4.7.5,6.6,1.4s3.3,2.2,4.4,4c1,1.7,1.6,3.9,1.6,6.3s-.5,4.6-1.6,6.3c-1,1.8-2.5,3.1-4.4,4s-4.1,1.4-6.6,1.4-4.7-.5-6.6-1.4-3.4-2.2-4.4-4-1.6-3.9-1.6-6.3.5-4.6,1.6-6.3c1-1.7,2.5-3.1,4.4-4s4.1-1.4,6.6-1.4ZM1096.4,282.4c-.7,0-1.2.3-1.6.9s-.6,1.9-.6,3.8.2,3.1.6,3.8c.4.6.9.9,1.6.9s1.2-.3,1.6-.9.6-1.9.6-3.8-.2-3.1-.6-3.8c-.4-.6-.9-.9-1.6-.9Z"/>
    </g>
    <g>
      <g>
        <path class="st7" d="M610.6,342.1l-14.6-6.6c7.3-16.1,20.7-39.1,43.2-57.9,27.2-22.7,60.5-33.4,99-31.7l-.7,16c-34.4-1.5-64,7.9-88,27.9-20.2,16.9-32.3,37.7-38.8,52.3h-.1Z"/>
        <polygon class="st7" points="589.5 299.4 605.1 334.4 640.2 318.8 631.9 340.3 596.8 355.9 581.3 320.8 589.5 299.4"/>
      </g>
      <g>
        <path class="st7" d="M1309.4,342.1c-6.6-14.5-18.7-35.4-38.8-52.3-24-20.1-53.6-29.5-88-27.9l-.7-16c38.5-1.7,71.8,8.9,99,31.7,22.5,18.8,35.9,41.9,43.2,57.9l-14.6,6.6h0Z"/>
        <polygon class="st7" points="1279.8 318.8 1314.9 334.4 1330.5 299.4 1338.7 320.8 1323.2 355.9 1288.1 340.3 1279.8 318.8"/>
      </g>
    </g>
  </g>
  <g>
    <path class="st7" d="M311.9,401c1.6,1.7,2.6,3.5,3.1,5.4.4,1.9.4,3.7-.1,5.6s-1.4,3.8-2.7,5.7c-1.7,2.6-3.7,4.5-6,5.7s-4.7,1.7-7.2,1.4c-2.6-.3-5.2-1.3-7.9-3.1-2.7-1.8-4.6-3.9-5.9-6.1-1.2-2.3-1.7-4.7-1.4-7.2.3-2.5,1.3-5.1,3-7.7,1.2-1.8,2.6-3.3,4.2-4.6,1.6-1.2,3.3-2,5.1-2.4,1.8-.3,3.7-.1,5.7.7l-2.1,9.4c-1.8-.9-3.1-1.2-4-.9-.9.3-1.6.9-2.3,1.8-.9,1.3-1,2.6-.5,3.9s1.9,2.7,4,4.1,3.9,2.2,5.3,2.2,2.6-.7,3.6-2.2c.6-.9.8-1.8.7-2.7-.2-.9-.8-1.9-1.8-2.8l7.1-6.4v.2h0Z"/>
    <path class="st7" d="M304.6,375.3c2.8-3.8,6.1-6,9.8-6.6,3.7-.6,7.5.6,11.5,3.4,3.9,2.9,6.2,6.2,6.8,9.9.6,3.7-.5,7.5-3.3,11.3-1.8,2.5-3.9,4.3-6.2,5.5-2.3,1.1-4.7,1.5-7.3,1.1-2.6-.4-5.1-1.5-7.8-3.4s-4.5-4-5.6-6.4c-1.1-2.3-1.5-4.8-1.1-7.3s1.5-5.1,3.3-7.6h0ZM310.9,380c-.9,1.2-1.1,2.5-.5,3.8.5,1.3,1.9,2.7,3.9,4.2,2.1,1.5,3.8,2.3,5.2,2.5,1.4.1,2.5-.4,3.4-1.7.9-1.2,1.1-2.5.5-3.7-.5-1.3-1.9-2.6-3.9-4.2-2.1-1.5-3.8-2.4-5.2-2.5-1.4-.1-2.5.4-3.4,1.6h0Z"/>
    <path class="st7" d="M334.4,337.5l23.2,18.5-7.1,8.9-15-2.8-3.9-1h0l4.9,3.7,8.6,6.9-5.7,7.1-23.2-18.5,7.1-8.9,15,2.9,3.8,1h0l-4.9-3.7-8.6-6.9,5.7-7.1h.1Z"/>
    <path class="st7" d="M347.2,322.6c3-3.5,6.3-5.3,9.8-5.4s7,1.4,10.6,4.5,5.5,6.4,6,9.9c.4,3.5-.9,7-4,10.5l-9.5,11-22.5-19.4,9.5-11h.1ZM363,338.3c1.3-1.5,1.7-2.8,1.2-4.1-.5-1.3-1.7-2.7-3.6-4.4s-3.6-2.6-4.9-2.9-2.6.3-3.9,1.8l-1.7,2,11.2,9.7,1.7-2h0Z"/>
    <path class="st7" d="M366.1,301.5l21.9,20.1-7.1,7.7-21.9-20.1,7.1-7.7Z"/>
    <path class="st7" d="M403.5,292.3c1.3,2,2,4,2.1,5.9s-.3,3.8-1.1,5.5-2.1,3.5-3.7,5.1-4.5,3.8-6.9,4.5c-2.4.8-4.9.8-7.4.1-2.5-.7-4.9-2.2-7.2-4.5s-3.9-4.6-4.7-7.1c-.8-2.5-.8-4.9-.1-7.4.7-2.5,2.2-4.8,4.3-7,1.5-1.6,3.2-2.8,4.9-3.7,1.8-.9,3.6-1.4,5.4-1.4s3.7.6,5.5,1.8l-3.8,8.9c-1.6-1.2-2.8-1.7-3.7-1.6-.9.1-1.8.6-2.5,1.4-1.1,1.1-1.5,2.4-1.2,3.8s1.4,3,3.2,4.8c1.8,1.8,3.4,2.8,4.8,3.1,1.4.3,2.7-.2,3.9-1.5.8-.8,1.1-1.6,1.2-2.6,0-.9-.4-2-1.3-3.1l8.2-5h.1ZM396.7,311.4l.4-2.2c4.1-3.7,7.3-4.3,9.8-1.9,1.3,1.3,2,2.7,1.9,4.3,0,1.6-.9,3.2-2.5,4.8-.9.9-1.7,1.5-2.4,1.8-.7.3-1.3.5-1.9.7l-2.1-4.1c.4,0,.7-.2,1.1-.4.4-.2.7-.5,1.1-.9s.8-1.1.8-1.7-.2-1.1-.7-1.6c-.5-.4-1.1-.6-1.9-.5s-2,.7-3.6,1.6h0Z"/>
    <path class="st7" d="M401.2,252.4c1.2,1.3,2,2.6,2.4,3.8.4,1.2.5,2.4.2,3.4-.2,1-.7,1.9-1.4,2.6-.8.8-1.6,1.3-2.4,1.5s-1.5.4-2.2.5c-.6,0-1.2.3-1.5.7-.6.6-.4,1.4.5,2.5l-3.8,3.7c-1.8-2-2.7-3.9-2.7-5.7s.6-3.3,1.9-4.5c.8-.8,1.6-1.2,2.3-1.4.7-.2,1.4-.3,2-.3s1.1-.3,1.5-.6c.6-.5.4-1.4-.5-2.5l3.8-3.7h0ZM400.9,265.7c3.4-3.3,7-4.8,10.8-4.7,3.8.1,7.3,1.9,10.7,5.4,3.3,3.5,5,7.2,4.9,10.9,0,3.8-1.8,7.3-5.3,10.5-2.3,2.2-4.6,3.6-7.1,4.3-2.5.7-4.9.6-7.4-.2-2.5-.8-4.8-2.4-7-4.7s-3.7-4.8-4.4-7.3c-.7-2.5-.6-4.9.2-7.4.8-2.4,2.4-4.7,4.6-6.9h0ZM406.3,271.4c-1.1,1.1-1.5,2.3-1.2,3.6.3,1.3,1.3,3,3.1,4.8,1.8,1.9,3.3,3,4.7,3.4,1.3.4,2.5,0,3.7-1,1.1-1.1,1.5-2.2,1.2-3.6-.3-1.3-1.4-2.9-3.1-4.8-1.8-1.9-3.3-3-4.6-3.4-1.3-.4-2.5,0-3.6,1h-.2Z"/>
    <path class="st7" d="M434.7,275.3l-19.6-22.3,18.5-16.3,5.1,5.8-10.6,9.4,2.4,2.8,8.6-7.6,4.7,5.3-8.6,7.6,2.3,2.6,11-9.7,5.1,5.8-18.9,16.7h0Z"/>
    <path class="st7" d="M446.3,225.6c4.3-3.6,8.8-5.4,13.3-5.4l1,7.9c-1.7.1-3.4.5-4.9,1-1.6.5-3.1,1.3-4.5,2.5-.9.7-1.5,1.4-1.7,1.9s-.2.9.1,1.2c.2.3.6.3,1.2,0,.5-.2,1.2-.5,2-.9l3.8-1.9c2.8-1.4,5.2-2,7.2-2s3.8,1,5.4,2.9c1.5,1.9,2.3,3.8,2.4,5.7,0,1.9-.4,3.8-1.5,5.7-1.1,1.8-2.6,3.6-4.5,5.2-1.5,1.2-3,2.3-4.7,3.2s-3.4,1.6-5,2.2c-1.7.5-3.3.8-4.8.8l-1.2-7.9c1.1,0,2.3-.2,3.6-.6,1.3-.4,2.6-.8,3.8-1.4s2.3-1.2,3.2-2c.8-.7,1.3-1.3,1.5-1.7.2-.5.1-.8-.1-1.1-.3-.3-.6-.5-1-.4-.4,0-1,.3-1.8.7l-4.1,2.1c-1.5.7-2.9,1.3-4.4,1.8-1.5.4-3,.5-4.4.2s-2.8-1.2-4-2.8c-1.3-1.6-2-3.3-2.1-5.2s.4-3.8,1.4-5.8c1.1-2,2.8-3.9,5.1-5.8h-.3Z"/>
    <path class="st7" d="M478.5,200.6c4.5-3.3,9-4.9,13.5-4.7l.6,7.9c-1.7,0-3.4.3-5,.7s-3.1,1.2-4.6,2.3c-.9.7-1.5,1.3-1.7,1.8s-.2.9,0,1.2.6.3,1.2.2c.6-.2,1.2-.4,2-.8l3.9-1.7c2.8-1.2,5.3-1.8,7.3-1.6s3.8,1.2,5.2,3.1c1.4,1.9,2.1,3.9,2.1,5.8s-.6,3.8-1.8,5.6c-1.2,1.8-2.8,3.4-4.8,4.9-1.5,1.1-3.1,2.1-4.9,3s-3.4,1.5-5.1,1.9-3.3.6-4.8.5l-.8-8c1.1,0,2.3,0,3.6-.4,1.3-.3,2.6-.7,3.9-1.2s2.3-1.1,3.3-1.8c.9-.6,1.4-1.2,1.6-1.6.2-.4.1-.8,0-1.1-.2-.3-.6-.5-1-.5s-1,.2-1.9.6l-4.2,1.9c-1.5.7-3,1.2-4.5,1.5-1.5.4-3,.4-4.4,0s-2.7-1.4-3.9-3c-1.2-1.6-1.8-3.4-1.9-5.3,0-1.9.5-3.8,1.7-5.7s2.9-3.8,5.3-5.5h0Z"/>
    <path class="st7" d="M503.6,182.8c3.9-2.7,7.7-3.6,11.4-2.9,3.7.7,6.9,3.1,9.6,7.1,2.7,4,3.8,7.9,3.1,11.6-.7,3.7-3,6.9-6.9,9.6-2.6,1.8-5.1,2.8-7.7,3.1-2.5.3-5-.2-7.3-1.4s-4.3-3.1-6.2-5.8c-1.8-2.7-2.9-5.3-3.2-7.9-.3-2.6.2-5,1.4-7.3,1.2-2.3,3.1-4.3,5.7-6h.1ZM508.1,189.3c-1.3.9-1.9,2-1.8,3.4,0,1.4.9,3.1,2.3,5.3,1.5,2.1,2.8,3.5,4.1,4.1,1.2.6,2.5.4,3.8-.4,1.3-.9,1.8-2,1.8-3.3s-.9-3.1-2.3-5.2c-1.5-2.1-2.8-3.5-4-4.1s-2.5-.5-3.8.4v-.2h-.1Z"/>
    <path class="st7" d="M554.3,175.2c.8,2.2,1,4.3.6,6.2s-1.2,3.6-2.4,5.1c-1.3,1.5-2.8,2.9-4.8,4.1-2.6,1.7-5.2,2.6-7.8,2.8s-5-.4-7.2-1.7-4.2-3.3-5.9-6.1c-1.7-2.7-2.7-5.4-2.8-8-.2-2.6.4-5,1.7-7.2s3.2-4.2,5.9-5.8c1.9-1.2,3.8-2,5.7-2.5s3.8-.5,5.6,0c1.8.4,3.5,1.4,4.9,3l-5.8,7.7c-1.2-1.5-2.3-2.3-3.2-2.4-.9,0-1.9.2-2.8.7-1.3.8-2,1.9-2,3.4s.6,3.2,2,5.4,2.7,3.6,3.9,4.2c1.3.6,2.7.5,4.2-.5.9-.6,1.5-1.3,1.7-2.2s0-2-.5-3.3l9.1-2.9h-.1Z"/>
    <path class="st7" d="M554.9,151.1l15,25.6-9,5.3-15-25.6,9-5.3Z"/>
    <path class="st7" d="M571.2,141.4c4.2-2.3,8-2.9,11.7-1.8,3.6,1.1,6.6,3.7,8.9,8,2.3,4.3,3,8.2,1.9,11.8-1,3.6-3.7,6.6-7.8,8.8-2.7,1.5-5.4,2.3-8,2.3s-4.9-.7-7.1-2.1c-2.2-1.4-4-3.5-5.6-6.4-1.6-2.8-2.3-5.6-2.4-8.1,0-2.6.7-4.9,2.1-7.1,1.4-2.1,3.5-4,6.2-5.5h0ZM575,148.3c-1.3.7-2,1.8-2.1,3.2,0,1.4.5,3.2,1.8,5.5,1.2,2.3,2.4,3.7,3.6,4.4,1.2.7,2.5.7,3.8,0s2-1.8,2.1-3.2c0-1.4-.6-3.2-1.8-5.5s-2.4-3.7-3.6-4.5c-1.2-.7-2.4-.7-3.8,0h0Z"/>
    <path class="st7" d="M601.5,159.4l-13.2-26.6,22.1-11,3.4,6.9-12.7,6.3,1.6,3.3,10.2-5.1,3.2,6.4-10.2,5.1,1.6,3.1,13.2-6.6,3.4,6.9-22.6,11.2h0Z"/>
    <path class="st7" d="M647.8,127.4c.5,2.3.4,4.4-.2,6.2-.6,1.8-1.6,3.4-3.1,4.7-1.4,1.3-3.2,2.5-5.3,3.4-2.8,1.3-5.5,1.9-8.1,1.7s-4.9-1-6.9-2.6-3.7-3.8-5.1-6.8c-1.3-3-1.9-5.7-1.8-8.3.2-2.6,1-4.9,2.6-6.9s3.8-3.7,6.6-5c2-.9,4-1.5,6-1.7s3.8,0,5.6.7c1.7.7,3.2,1.9,4.5,3.6l-6.8,6.9c-1-1.7-2-2.6-2.9-2.8-.9-.2-1.9,0-2.9.4-1.4.6-2.2,1.7-2.5,3.1-.2,1.4.2,3.3,1.3,5.6,1.1,2.3,2.2,3.9,3.3,4.7,1.2.8,2.6.8,4.2,0,1-.4,1.7-1.1,2-2,.4-.9.3-2,0-3.3l9.4-1.7h.1Z"/>
    <path class="st7" d="M655,101.7c4.4-1.8,8.3-1.9,11.8-.5,3.5,1.5,6.1,4.5,7.9,9s2,8.5.6,12c-1.5,3.5-4.4,6.1-8.8,7.9-2.9,1.2-5.6,1.6-8.2,1.4-2.6-.3-4.8-1.2-6.8-2.9s-3.6-4-4.8-7-1.7-5.8-1.4-8.4,1.2-4.8,2.9-6.8c1.6-2,3.9-3.5,6.8-4.7ZM658,109c-1.4.6-2.2,1.5-2.4,2.9s.2,3.2,1.1,5.6c1,2.4,2,4,3.1,4.8s2.4,1,3.8.4c1.4-.6,2.2-1.5,2.4-2.9s-.2-3.2-1.2-5.6-2-4-3.1-4.8-2.3-1-3.8-.4h.1Z"/>
    <path class="st7" d="M700.4,85.2l10,28-10.7,3.8-11.2-10.3-2.8-2.9h0l2.2,5.7,3.7,10.4-8.6,3.1-10-28,10.7-3.8,11.3,10.4,2.7,2.8h0l-2.2-5.7-3.7-10.4,8.6-3.1Z"/>
    <path class="st7" d="M718.5,79c4.5-1.4,8.5-1.2,11.8.5,3.3,1.8,5.7,5,7.2,9.6,1.4,4.6,1.3,8.6-.4,12-1.7,3.3-4.9,5.7-9.4,7.1-3,.9-5.7,1.2-8.2.7s-4.7-1.6-6.5-3.4-3.2-4.3-4.2-7.4-1.2-5.9-.7-8.4,1.6-4.7,3.4-6.5c1.8-1.8,4.2-3.2,7.2-4.1h-.2,0ZM726.7,74.6l-6.4,2-3.5-2.8-1.3,4.3-6.4,2,1.8-8.4,9.4-2.9,6.3,5.9h.1ZM720.9,86.5c-1.5.5-2.4,1.4-2.7,2.7-.3,1.3,0,3.2.7,5.7.8,2.5,1.7,4.2,2.7,5.1s2.3,1.2,3.7.7c1.5-.5,2.3-1.3,2.7-2.7.3-1.3,0-3.2-.7-5.7-.8-2.5-1.7-4.2-2.7-5.1s-2.2-1.2-3.7-.7Z"/>
    <path class="st7" d="M774,64.1l7.5,28.7-8.8,2.3-2.6-10-2.4-9.7h0l-.5,21.1-8.1,2.1-10.6-18.2h-.2l2.6,9.7,2.6,10-8.9,2.3-7.5-28.7,14.2-3.7,6.6,11.9,2.7,5h0v-19.3l13.5-3.5h0Z"/>
    <path class="st7" d="M789.1,60.9l6.4,29-10.2,2.3-6.4-29s10.2-2.3,10.2-2.3Z"/>
    <path class="st7" d="M825,74.9c0,2.4-.7,4.4-1.7,6s-2.4,2.9-4.1,3.9c-1.7,1-3.7,1.6-5.9,2.1-3.1.6-5.8.5-8.3-.3s-4.5-2.1-6.1-4.1-2.7-4.6-3.3-7.8c-.6-3.2-.5-6,.2-8.5.8-2.5,2.1-4.5,4.1-6.1s4.5-2.7,7.6-3.3c2.2-.4,4.2-.5,6.2-.2,2,.2,3.7.9,5.3,2,1.5,1.1,2.7,2.6,3.5,4.6l-8.2,5.1c-.6-1.9-1.3-3-2.1-3.4s-1.8-.5-2.9-.3c-1.5.3-2.6,1.1-3.1,2.4s-.6,3.2,0,5.8c.5,2.5,1.2,4.3,2.1,5.3.9,1,2.3,1.4,4.1,1.1,1.1-.2,1.9-.7,2.4-1.4.6-.8.8-1.9.7-3.3l9.6.6v-.2h0Z"/>
    <path class="st7" d="M857.4,79.1l-10.6,1.6-2.2-5.4-7.9,1.2-.5,5.8-10.3,1.6,5.1-30.8,12.5-1.9,14,27.9h0ZM837.3,69.8l4.8-.7-3.9-9.8-.9,10.6h0Z"/>
    <path class="st7" d="M868.1,47.6c5.6-.6,10.3.3,14.1,2.7l-3.4,7.2c-1.5-.8-3.1-1.4-4.7-1.9-1.6-.4-3.3-.5-5.1-.3-1.2,0-2,.4-2.4.7s-.6.7-.6,1.1.3.6.9.7c.6,0,1.3.2,2.1.3l4.2.5c3.1.3,5.5,1.1,7.2,2.3s2.7,2.9,2.9,5.3c.3,2.4,0,4.4-1.1,6.1-1,1.7-2.4,3-4.3,4-1.9,1-4.1,1.6-6.6,1.9-1.9.2-3.8.3-5.7,0s-3.7-.4-5.4-.9-3.2-1.1-4.4-2l3.3-7.3c.9.6,2.1,1.1,3.3,1.5,1.3.4,2.6.7,4,.9,1.3.2,2.6.2,3.7,0,1.1,0,1.8-.3,2.2-.6.4-.3.5-.6.5-1s-.3-.7-.6-.9c-.4-.2-1-.3-1.9-.4l-4.6-.5c-1.6-.2-3.2-.5-4.7-.9s-2.8-1.2-3.8-2.2c-1-1-1.6-2.6-1.9-4.5-.2-2,0-3.9,1-5.5s2.4-3,4.3-4.1c2-1.1,4.4-1.8,7.4-2.1v-.2h0Z"/>
    <path class="st7" d="M890.6,66.4c1.4,0,2.5,0,3.4.6.9.5,1.6,1.2,2.1,2.1s.8,1.9.9,3c0,1.6,0,3.2-.7,4.6-.6,1.5-1.4,2.8-2.4,3.9s-2,2-3.1,2.5l-4.1-2.3c1.2-.7,2.3-1.5,3.3-2.5,1-.9,1.8-1.9,2.2-2.9l-.2-.2c-.2,0-.4.3-.7.4-.3,0-.6.2-1,.2-.7,0-1.3,0-2-.3s-1.3-.7-1.8-1.3c-.5-.6-.8-1.4-.9-2.3,0-1.2,0-2.2.5-3s1.1-1.4,1.9-1.8,1.7-.7,2.6-.8h0Z"/>
    <path class="st7" d="M938.2,63.7c-.4,2.3-1.3,4.2-2.5,5.7s-2.8,2.6-4.6,3.2c-1.8.7-3.9,1.1-6.2,1.2-3.1,0-5.8-.3-8.2-1.4-2.3-1.1-4.1-2.8-5.5-5-1.3-2.2-2-5-2.2-8.2,0-3.2.3-6,1.4-8.4,1.1-2.3,2.8-4.1,5-5.4,2.2-1.3,4.9-2,8-2.2,2.2,0,4.2,0,6.2.6,1.9.5,3.6,1.4,4.9,2.7,1.4,1.3,2.3,2.9,2.8,5.1l-8.8,3.9c-.3-1.9-.9-3.2-1.6-3.7-.8-.5-1.7-.8-2.8-.7-1.6,0-2.7.7-3.4,1.9s-1,3.1-.9,5.7c0,2.5.6,4.4,1.4,5.6.8,1.2,2.1,1.7,3.9,1.6,1.1,0,1.9-.4,2.6-1.1.7-.7,1-1.7,1.2-3.1l9.4,2h-.1Z"/>
    <path class="st7" d="M968.2,42.8l.3,16.9c0,8.8-4.6,13.3-14.1,13.5-9.6.2-14.4-4.2-14.6-13l-.3-16.9,10.5-.2.3,17.7c0,3,1.3,4.5,3.9,4.5s3.8-1.6,3.8-4.6l-.3-17.7,10.5-.2h0Z"/>
    <path class="st7" d="M982.6,65.3l13.4.4-.2,7.7-23.9-.7.9-29.7,10.5.3-.7,22Z"/>
    <path class="st7" d="M1028.1,45.7l-.5,7.7-9.2-.6-1.4,22-10.5-.7,1.4-22-9.3-.6.5-7.7s29,1.9,29,1.9Z"/>
    <path class="st7" d="M1059.6,49l-1.8,16.8c-.9,8.8-6.1,12.7-15.7,11.7-9.5-1-13.8-5.9-12.9-14.7l1.8-16.8,10.5,1.1-1.9,17.6c-.3,3,.8,4.7,3.3,4.9,2.6.3,4-1.1,4.3-4.1l1.9-17.6,10.4,1.1h0Z"/>
    <path class="st7" d="M1079.9,51.9c3.8.6,6.6,1.8,8.4,3.8s2.5,4.4,2.1,7.2c-.6,4.4-2.9,7.1-6.8,8l5.5,12.3-11.3-1.6-3.8-10.5-2.8-.4-1.4,9.8-10.2-1.5,4.3-29.4,15.9,2.3h.1ZM1076.3,64.4c1.1.2,2,0,2.6-.2.6-.3,1-1,1.1-2s0-1.7-.5-2.2-1.3-.8-2.4-1l-4-.6-.8,5.4,4,.6h0Z"/>
    <path class="st7" d="M1119.1,88.8l-10.5-2-.3-5.8-7.9-1.5-2.4,5.3-10.3-1.9,14.9-27.4,12.4,2.3,4.1,31h0ZM1103.2,73.5l4.8.9-.5-10.6-4.3,9.7Z"/>
    <path class="st7" d="M1136.8,62.4l-6.3,29-10.2-2.2,6.3-29s10.2,2.2,10.2,2.2Z"/>
    <path class="st7" d="M1154.1,66c5.4,1.3,9.5,3.8,12.3,7.4l-5.7,5.5c-1.1-1.3-2.4-2.4-3.7-3.4-1.4-1-2.9-1.6-4.7-2.1-1.1-.3-2-.3-2.5-.2s-.8.4-.9.8c0,.3,0,.7.6,1s1.1.7,1.9,1.1l3.8,1.9c2.8,1.4,4.8,2.9,5.9,4.6s1.5,3.7.9,6-1.6,4.1-3.1,5.3c-1.5,1.2-3.3,2-5.4,2.2-2.1.3-4.4,0-6.8-.5-1.8-.5-3.6-1.1-5.4-1.9s-3.3-1.7-4.7-2.7c-1.4-1-2.6-2.2-3.5-3.4l5.7-5.7c.7.9,1.6,1.7,2.6,2.6,1.1.8,2.2,1.6,3.4,2.2,1.2.6,2.4,1.1,3.5,1.4,1,.3,1.8.3,2.3.2.5-.2.7-.4.8-.8,0-.4,0-.8-.3-1-.3-.3-.8-.6-1.7-1.1l-4.1-2c-1.5-.7-2.8-1.6-4.1-2.5-1.3-.9-2.2-2.1-2.8-3.4-.6-1.3-.7-3-.2-4.9.5-2,1.4-3.6,2.9-4.8,1.4-1.2,3.3-2,5.5-2.3s4.8,0,7.7.6h-.2Z"/>
    <path class="st7" d="M1172.3,101.9l8.5-28.5,23.6,7.1-2.2,7.4-13.6-4.1-1.1,3.5,11,3.3-2,6.8-11-3.3-1,3.4,14.1,4.2-2.2,7.4-24.1-7.2h0Z"/>
    <path class="st7" d="M1236.4,123l-10.1-3.6.6-5.8-7.5-2.7-3.2,4.9-9.8-3.5,19-24.8,11.9,4.2-.8,31.2h0ZM1223,105.3l4.6,1.6,1.2-10.5-5.8,8.9h0Z"/>
    <path class="st7" d="M1283.9,110.3l-11.2,27.5-8.5-3.5,3.9-9.5,3.9-9.2h0l-13,16.5-7.7-3.2,2.4-20.9h-.2l-3.7,9.2-3.9,9.5-8.5-3.5,11.2-27.5,13.6,5.6-1.8,13.5-.9,5.6h0l3.3-4.6,8.2-10.9,12.9,5.3h0Z"/>
    <path class="st7" d="M1276.1,139.4l12.5-26.9,15.4,7.2c3.4,1.6,5.6,3.4,6.7,5.3,1.1,2,1.1,4.1,0,6.5-.7,1.6-1.9,2.7-3.4,3.4s-3.4.7-5.6,0h0c2.2,1.4,3.6,2.9,4.2,4.5s.4,3.3-.4,5.1c-1.1,2.4-2.7,3.8-4.9,4.2-2.1.4-4.9-.1-8.2-1.6l-16.5-7.7h.2ZM1288.1,137.4l4.9,2.3c1.7.8,2.8.5,3.5-.8.6-1.3,0-2.3-1.6-3.1l-4.9-2.3-1.8,3.9h0ZM1292.9,127.2l4.2,2c1.6.8,2.8.5,3.4-.8s0-2.3-1.5-3.1l-4.2-2-1.8,3.9h0Z"/>
    <path class="st7" d="M1326.9,130.8l-13.3,26.6-9.4-4.7,13.3-26.6,9.4,4.7h0Z"/>
    <path class="st7" d="M1317,159.1l14-26.2,21.7,11.6-3.6,6.8-12.5-6.7-1.7,3.3,10.1,5.4-3.4,6.3-10.1-5.4-1.7,3.1,13,6.9-3.6,6.8-22.2-11.9h0Z"/>
    <path class="st7" d="M1381.4,161.2l-15,25.6-9.8-5.7.7-15.2.4-4h0l-2.9,5.3-5.6,9.5-7.8-4.6,15-25.6,9.8,5.7-.7,15.3-.4,3.9h0l2.9-5.3,5.6-9.5,7.8,4.6Z"/>
    <path class="st7" d="M1408.9,178.8l-4.2,6.5-7.8-5-11.9,18.5-8.8-5.7,11.9-18.5-7.8-5,4.2-6.5,24.5,15.7h0Z"/>
    <path class="st7" d="M1418.9,221.8l-8.8-6.1,2.1-5.4-6.6-4.6-4.4,3.9-8.6-6,24.9-18.8,10.3,7.2-9.1,29.9h.2ZM1410.7,201.3l4,2.8,3.9-9.8-7.9,7Z"/>
    <path class="st7" d="M1445.9,205.1l-17.7,23.9-8.4-6.2,17.7-23.9,8.4,6.2Z"/>
    <path class="st7" d="M1460.1,215.5c4.4,3.5,7.1,7.4,8.2,11.8l-7.5,2.7c-.5-1.6-1.2-3.2-2-4.6-.8-1.4-2-2.7-3.4-3.8-.9-.7-1.6-1.1-2.2-1.2-.5,0-.9,0-1.2.4-.2.3-.2.7.2,1.2.3.5.8,1.1,1.3,1.8l2.6,3.3c2,2.4,3.1,4.6,3.5,6.6s-.2,4-1.6,5.9c-1.5,1.9-3.2,3.1-5,3.6-1.9.5-3.8.4-5.9-.2s-4-1.7-6-3.3c-1.5-1.2-2.9-2.5-4.1-3.9-1.3-1.4-2.3-2.9-3.2-4.5-.9-1.5-1.5-3-1.8-4.5l7.5-2.9c.3,1.1.7,2.2,1.3,3.4.6,1.2,1.4,2.3,2.2,3.4.8,1.1,1.7,2,2.6,2.7.8.7,1.5,1,2,1.1.5,0,.8,0,1.1-.4.3-.3.3-.7.2-1.1,0-.4-.5-.9-1.1-1.6l-2.9-3.6c-1-1.3-1.9-2.6-2.7-3.9-.8-1.4-1.1-2.8-1.1-4.2s.6-3,1.8-4.5c1.3-1.6,2.8-2.7,4.6-3.2,1.8-.5,3.8-.5,6,.1s4.4,1.8,6.8,3.7l-.2-.3h0Z"/>
    <path class="st7" d="M1471.1,264.2c-1.9-1.7-3.3-3.6-4.1-5.8-.8-2.2-.9-4.5-.3-7s2-5,4.2-7.5c3.2-3.7,6.7-5.6,10.5-5.9,3.8-.2,7.6,1.2,11.2,4.4,2.8,2.4,4.5,4.8,5.4,7.2.8,2.4.7,5.1-.3,8l-9.7-3.8c.8-1.2,1.1-2.2.9-3.1-.2-.9-.6-1.7-1.4-2.4-1.3-1.1-2.6-1.5-4-1s-2.9,1.6-4.5,3.5c-1.9,2.1-2.8,3.9-2.9,5.4,0,1.5.6,2.8,2,4.1.9.8,1.8,1.2,2.7,1.4.9.1,1.7-.2,2.4-1h0l-3.8-3.3,4.2-4.8,10.4,9.1-11,12.6-5.2-4.6,2-2.8c-3,.9-5.9,0-8.9-2.6h.2Z"/>
    <path class="st7" d="M1485.8,276.7l20.4-21.6,18,16.9-5.3,5.6-10.3-9.7-2.5,2.7,8.3,7.8-4.9,5.2-8.3-7.8-2.4,2.6,10.7,10.1-5.3,5.6-18.3-17.3h0Z"/>
    <path class="st7" d="M1538.3,286.1c2.7,2.8,4.2,5.5,4.4,8.2.2,2.7-.7,5-2.7,7-3.2,3.1-6.6,3.9-10.2,2.3l-3,13.2-8-8.1,3.3-10.7-2-2.1-7,6.9-7.2-7.3,21.1-20.9,11.3,11.5h0ZM1527.8,294c.8.8,1.5,1.2,2.2,1.4.7.1,1.4-.2,2.1-.9.7-.7,1-1.4.9-2.1,0-.7-.5-1.4-1.3-2.2l-2.8-2.9-3.9,3.9,2.8,2.9h0Z"/>
    <path class="st7" d="M1547.3,339.3l-7.2-7.9,3.3-4.8-5.4-5.9-5.1,2.8-7-7.7,28.4-12.9,8.5,9.3-15.4,27.2h-.1ZM1543.8,317.4l3.3,3.6,6-8.7-9.3,5.1Z"/>
    <path class="st7" d="M1577.3,328.8l-22.5,19.4-6.8-7.9,22.5-19.4,6.8,7.9Z"/>
    <path class="st7" d="M1588.9,342.2c3.5,4.3,5.3,8.8,5.4,13.3l-7.9,1c0-1.7-.4-3.4-1-4.9-.5-1.6-1.3-3.1-2.5-4.5-.7-.9-1.4-1.5-1.8-1.7-.5-.2-.9-.2-1.2,0-.3.2-.3.6,0,1.2.2.5.5,1.2.9,2l1.9,3.8c1.4,2.8,2,5.2,2,7.3s-1,3.8-2.9,5.3-3.8,2.3-5.7,2.4c-1.9,0-3.8-.4-5.7-1.5-1.8-1.1-3.6-2.6-5.1-4.5-1.2-1.5-2.3-3-3.2-4.7-.9-1.7-1.6-3.4-2.1-5-.5-1.7-.7-3.3-.7-4.8l8-1.1c0,1.1.2,2.3.5,3.6.3,1.3.8,2.6,1.4,3.8.6,1.2,1.2,2.3,1.9,3.2.7.8,1.2,1.3,1.7,1.5s.8.1,1.1-.1c.3-.3.5-.6.4-1,0-.4-.3-1-.7-1.8l-2.1-4.1c-.7-1.5-1.3-2.9-1.8-4.4-.4-1.5-.5-3-.2-4.4s1.3-2.8,2.8-4c1.6-1.3,3.3-2,5.2-2.1,1.9-.1,3.8.4,5.8,1.4,2,1.1,3.9,2.8,5.8,5.1v-.3h-.2Z"/>
  </g>
  <g>
    <path class="st5" d="M709.7,728.7l-22.4-10,7-15.7,2.5,1.1-5.8,13,7.2,3.2,4.5-10.1,2.5,1.1-4.5,10.1,7.5,3.4,6-13.5,2.5,1.1-7.3,16.2h.3Z"/>
    <path class="st5" d="M702,687.8c1.1-1.9,2.3-3.3,3.9-4.2,1.5-.9,3.3-1.4,5.3-1.5l.5,3.1c-1.8,0-3.3.4-4.5,1.1-1.1.7-2.1,1.7-2.9,3.2-1,1.7-1.3,3.2-1.1,4.4s.9,2.1,1.9,2.6c.8.4,1.6.6,2.4.4s1.8-.9,2.9-2.1l3.6-4.1c1.6-1.8,3.1-2.9,4.5-3.1,1.4-.3,2.7,0,4.1.7,1.2.7,2.1,1.6,2.7,2.8.6,1.2.8,2.6.6,4.1s-.7,3.1-1.7,4.8c-1.3,2.3-2.8,4-4.6,5s-3.5,1.5-5.3,1.6l-.6-3.3c1.6,0,3.1-.3,4.5-1s2.6-2,3.6-3.8c.9-1.7,1.4-3.2,1.3-4.5s-.7-2.3-1.8-2.9c-.7-.4-1.4-.5-2.2-.4s-1.7.8-2.7,1.9l-4,4.4c-1.5,1.8-3,2.8-4.5,3.1-1.4.3-2.8,0-4.1-.6-1.1-.6-2-1.6-2.6-2.7-.6-1.2-.9-2.5-.8-4.1s.6-3.1,1.5-4.8h0Z"/>
    <path class="st5" d="M721.5,657.9l2.3,1.6-4.8,7.1,18,12.2-1.7,2.5-18-12.2-4.8,7.1-2.3-1.6,11.3-16.6h0Z"/>
    <path class="st5" d="M727.8,649.7l19.4,15.1-1.8,2.4-19.4-15.1,1.8-2.4Z"/>
    <path class="st5" d="M752.4,654l9.3-10.5,2.1,1.8-11.3,12.8-18.4-16.3,2-2.2,16.3,14.4h0Z"/>
    <path class="st5" d="M757.8,616.4c1.7-1.6,3.5-2.6,5.5-3,1.9-.4,3.9-.2,5.9.5s3.8,2.1,5.6,4,3,3.9,3.6,5.9.6,4,0,5.9-1.7,3.7-3.4,5.3-3.5,2.6-5.5,3c-1.9.4-3.9.2-5.9-.5s-3.8-2.1-5.6-4-3-3.9-3.6-5.9-.6-4,0-5.9,1.7-3.7,3.4-5.3ZM759.7,618.5c-1.9,1.7-2.7,3.8-2.6,6,0,2.3,1.2,4.5,3.4,6.8,2.1,2.2,4.3,3.5,6.6,3.8s4.3-.5,6.2-2.2,2.7-3.8,2.6-6.1c0-2.3-1.2-4.6-3.3-6.8-2.1-2.3-4.3-3.5-6.6-3.8s-4.3.5-6.2,2.2h-.1Z"/>
    <path class="st5" d="M791.6,589.6c3.2-2.2,6.3-3,9.3-2.5s5.6,2.4,7.9,5.6c2.2,3.2,3.1,6.4,2.4,9.4-.6,3-2.5,5.6-5.7,7.8l-6.5,4.5-13.9-20.2,6.5-4.5h0ZM804.1,607.4c2.3-1.6,3.6-3.5,4-5.8.3-2.3-.3-4.6-2-7.1s-3.7-3.9-5.9-4.4-4.5,0-6.8,1.7l-4.3,3,10.8,15.6,4.3-3h0Z"/>
    <path class="st5" d="M821.5,599.3l-12-21.5,15.1-8.4,1.4,2.4-12.5,6.9,3.9,6.9,9.7-5.4,1.4,2.4-9.7,5.4,4,7.2,12.9-7.2,1.4,2.4-15.5,8.7v.2h-.1Z"/>
    <path class="st5" d="M863.8,552.7l.2,26.3-3.2,1.2-17.6-19.5,3-1.2,11.9,13.6,3.2,4-.3-5.1-.3-18.1,3-1.2h0Z"/>
    <path class="st5" d="M873.6,549.7l7.3,23.5-2.8.9-7.3-23.5,2.8-.9Z"/>
    <path class="st5" d="M891.2,545c3.7-.9,6.9-.5,9.5,1,2.6,1.6,4.4,4.3,5.3,8.1s.5,7-1.1,9.6c-1.7,2.6-4.4,4.3-8.1,5.2l-7.7,1.8-5.6-23.9,7.7-1.8h0ZM896.4,566.1c2.7-.6,4.7-1.9,5.8-3.9,1.2-2,1.4-4.4.7-7.3-.7-2.9-2-5-3.9-6.3s-4.2-1.6-7-1l-5.1,1.2,4.3,18.5,5.1-1.2h.1Z"/>
    <path class="st5" d="M934.9,562.4l-3.1.4-3.5-6.4-11,1.5-1.7,7.1-3.1.4,6.2-25.6,3.5-.5,12.7,23.1h0ZM917.9,555l8.9-1.2-6.1-11.4-2.8,12.6h0Z"/>
    <path class="st5" d="M961.6,537c3.8,0,6.8,1.2,9,3.3,2.2,2.2,3.2,5.2,3.1,9.2,0,3.9-1.2,7-3.4,9-2.2,2.1-5.3,3.1-9.1,3h-7.9l.4-24.7h7.9v.2ZM961.5,558.7c2.8,0,5-.8,6.6-2.4,1.6-1.6,2.4-4,2.5-6.9s-.7-5.3-2.2-7-3.7-2.6-6.5-2.6h-5.2l-.3,18.9h5.2,0Z"/>
    <path class="st5" d="M992.8,538.4c2.3.3,4.3,1,5.8,2.2,1.6,1.2,2.7,2.8,3.4,4.8s.9,4.3.6,6.9c-.3,2.6-1,4.8-2.1,6.5s-2.6,3.1-4.4,3.9c-1.8.8-3.9,1.1-6.2.9-2.3-.3-4.3-1-5.8-2.2-1.6-1.2-2.7-2.8-3.4-4.8s-.9-4.3-.6-6.9c.3-2.6,1-4.8,2.1-6.5,1.1-1.8,2.6-3.1,4.4-3.9s3.9-1.1,6.2-.9ZM992.5,541.2c-2.5-.3-4.6.4-6.3,1.9-1.7,1.6-2.7,3.9-3,7s0,5.5,1.4,7.4c1.3,1.9,3.2,3,5.7,3.3s4.6-.4,6.3-1.9c1.7-1.6,2.7-3.9,3-6.9.3-3.1,0-5.6-1.4-7.5-1.3-1.9-3.2-3-5.7-3.3Z"/>
    <path class="st5" d="M1021,543c2.1.4,3.8,1.3,5.2,2.4,1.3,1.2,2.4,2.7,3,4.6l-2.8,1.4c-.6-1.7-1.4-3.1-2.3-3.9-1-.9-2.3-1.5-3.9-1.8-1.9-.4-3.4-.3-4.5.3s-1.7,1.4-1.9,2.6c-.2.9,0,1.7.3,2.4s1.4,1.5,2.9,2.2l5,2.3c2.2,1,3.6,2.1,4.3,3.3s.9,2.6.6,4.1c-.3,1.4-.9,2.5-1.9,3.4s-2.2,1.5-3.7,1.8-3.2.2-5.1-.2c-2.6-.5-4.6-1.5-6.1-2.9s-2.5-2.9-3.1-4.6l3-1.5c.4,1.5,1.2,2.9,2.3,4s2.7,1.9,4.7,2.3c1.9.4,3.4.4,4.6,0,1.2-.5,2-1.3,2.2-2.6.2-.8,0-1.5-.3-2.3-.4-.7-1.2-1.4-2.6-2l-5.4-2.5c-2.1-1-3.5-2.1-4.3-3.4s-.9-2.7-.6-4.1c.3-1.3.9-2.4,1.8-3.3s2.2-1.6,3.6-2c1.5-.4,3.2-.4,5,0h0Z"/>
    <path class="st5" d="M1055.2,552.8l-7.8,23.3-2.8-1,7.8-23.3,2.8,1Z"/>
    <path class="st5" d="M1082.8,563.6l-9.5,22.6-3.4-1.4-3.1-19.1-.6-5.3h0l-1.3,3.5-6.7,16-2.6-1.1,9.5-22.6,3.4,1.4,3.1,19.1.6,5.4h0l1.3-3.5,6.7-16,2.6,1.1h0Z"/>
    <path class="st5" d="M1099.4,572.1c3.4,1.8,5.5,4.2,6.4,7.1.9,2.9.4,6.1-1.5,9.6s-4.3,5.6-7.3,6.4c-2.9.8-6.1.3-9.5-1.5l-7-3.8,11.8-21.6,7,3.8h0ZM1089.2,591.4c2.5,1.3,4.8,1.7,7,.9,2.2-.7,4-2.4,5.4-5s1.8-5,1.3-7.3-2.1-4-4.6-5.4l-4.6-2.5-9.1,16.7,4.6,2.5h0Z"/>
    <path class="st5" d="M1120.1,584.4l-13.3,20.7-2.5-1.6,13.3-20.7,2.5,1.6Z"/>
    <path class="st5" d="M1143.9,601.4l-22.1,14.2-2.7-2,7.1-25.3,2.6,1.9-5.1,17.4-1.6,4.8,4.1-3,15.2-9.9,2.6,1.9h0Z"/>
    <path class="st5" d="M1151.6,608l-15.9,18.7-2.3-1.9,15.9-18.7,2.3,1.9ZM1157.3,601l2.4,2-6.3,2.4-1.8-1.5,5.7-2.9h0Z"/>
    <path class="st5" d="M1165.1,620.3c2.7,2.7,4.2,5.6,4.2,8.6s-1.3,6-4,8.8c-2.8,2.8-5.7,4.2-8.7,4.2s-6-1.4-8.7-4.1l-5.7-5.6,17.2-17.5,5.7,5.6ZM1150,636.1c2,2,4.2,2.9,6.4,2.8,2.3,0,4.5-1.2,6.6-3.3s3.2-4.3,3.2-6.6-.9-4.4-2.9-6.4l-3.7-3.7-13.3,13.5,3.7,3.7h0Z"/>
    <path class="st5" d="M1192.1,650.2l-11.8,9.9c-2.4,2-4.8,2.9-7.1,2.7-2.3-.2-4.4-1.6-6.4-3.9-2-2.4-2.9-4.7-2.7-7s1.4-4.5,3.9-6.5l11.8-9.9,1.9,2.3-11.3,9.4c-2,1.6-3.1,3.3-3.3,4.9-.2,1.6.4,3.3,1.8,5,1.5,1.8,3,2.7,4.6,2.7s3.4-.7,5.4-2.4l11.3-9.4,1.9,2.3h0Z"/>
    <path class="st5" d="M1204.1,666.4c1.3,1.9,2,3.9,2.1,5.9s-.4,3.9-1.4,5.7-2.6,3.5-4.8,4.9c-2.2,1.5-4.3,2.3-6.4,2.6s-4,0-5.8-.8-3.4-2.2-4.7-4.1c-1.3-1.9-2-3.9-2.1-5.9s.4-3.9,1.4-5.7,2.6-3.5,4.8-4.9c2.2-1.5,4.3-2.3,6.4-2.6s4,0,5.8.8,3.4,2.2,4.7,4.1ZM1201.8,667.9c-1.4-2.1-3.3-3.3-5.5-3.5-2.3-.2-4.7.5-7.3,2.2-2.5,1.7-4.1,3.7-4.8,5.9-.6,2.2-.2,4.4,1.2,6.5s3.3,3.3,5.6,3.5c2.3.2,4.7-.5,7.2-2.2,2.6-1.7,4.2-3.7,4.8-5.9.6-2.2.2-4.4-1.2-6.5h0Z"/>
    <path class="st5" d="M1219,690.7c1,1.9,1.5,3.7,1.5,5.5s-.5,3.6-1.5,5.3l-2.9-1.3c1-1.6,1.4-3,1.5-4.3,0-1.3-.4-2.7-1.1-4.1-1-1.7-2-2.8-3.1-3.3-1.1-.4-2.2-.4-3.2.2-.8.4-1.3,1-1.6,1.8s-.2,2,.2,3.6l1.5,5.2c.7,2.3.8,4.1.3,5.5-.5,1.3-1.4,2.4-2.8,3.1-1.2.7-2.5.9-3.8.7s-2.6-.7-3.8-1.7c-1.2-1-2.3-2.3-3.2-4-1.3-2.3-1.9-4.5-1.8-6.5,0-2,.6-3.8,1.5-5.3l3.1,1.3c-.9,1.3-1.4,2.8-1.6,4.3,0,1.6.3,3.3,1.3,5.1.9,1.7,1.9,2.8,3.1,3.5,1.1.6,2.3.6,3.4,0,.7-.4,1.2-.9,1.5-1.7s.3-1.8,0-3.3l-1.6-5.7c-.7-2.2-.7-4-.2-5.4s1.4-2.4,2.7-3.1c1.2-.6,2.4-.9,3.7-.8,1.3,0,2.6.6,3.9,1.5,1.2.9,2.3,2.2,3.2,3.8h-.2Z"/>
  </g>
  <circle class="st6" cx="959.7" cy="831.9" r="240.1"/>
  <g>
    <path class="st7" d="M837.7,757.8v27.2h-9.6v-27.2h9.6Z"/>
    <path class="st7" d="M854.8,757.8c4.3,0,7.5,1.2,9.6,3.5,2.2,2.4,3.2,5.7,3.2,10s-1.1,7.6-3.2,10c-2.2,2.4-5.4,3.6-9.6,3.6h-13.3v-27.2h13.3ZM853.5,778.1c1.8,0,3-.5,3.6-1.6s.9-2.8.9-5.1-.3-4-.9-5.1c-.6-1.1-1.8-1.6-3.6-1.6h-2.4v13.5h2.4Z"/>
    <path class="st7" d="M897.3,784.9h-9.8l-1.2-5.2h-7.3l-1.3,5.2h-9.5l8.8-27.2h11.5l8.8,27.2ZM880.4,773.8h4.5l-2.2-9.4-2.3,9.4Z"/>
    <path class="st7" d="M911.9,757.8c4.3,0,7.5,1.2,9.6,3.5,2.2,2.4,3.2,5.7,3.2,10s-1.1,7.6-3.2,10c-2.2,2.4-5.4,3.6-9.6,3.6h-13.3v-27.2h13.3ZM910.5,778.1c1.8,0,3-.5,3.6-1.6s.9-2.8.9-5.1-.3-4-.9-5.1c-.6-1.1-1.8-1.6-3.6-1.6h-2.4v13.5h2.4Z"/>
    <path class="st7" d="M927.6,784.9v-27.2h22.5v7h-13v3.4h10.5v6.5h-10.5v3.2h13.5v7h-23Z"/>
    <path class="st7" d="M957,776.4c1.3,0,2.3.3,3.1.8s1.4,1.3,1.7,2.1c.4.9.6,1.8.6,2.8,0,1.5-.3,2.9-1,4.2s-1.5,2.4-2.5,3.4-2,1.6-3,2l-3.6-2.4c1.1-.5,2.2-1.2,3.2-2s1.8-1.6,2.3-2.4l-.2-.2c-.2,0-.4.2-.7.3s-.6,0-.9,0c-.6,0-1.2,0-1.8-.4s-1.1-.7-1.5-1.3-.6-1.3-.6-2.2.2-2,.7-2.7,1.1-1.2,1.9-1.5c.8-.3,1.6-.5,2.4-.5h-.1Z"/>
    <path class="st7" d="M987,757.3c5.1,0,9.3,1.3,12.5,3.9l-3.9,6.2c-1.3-.9-2.6-1.6-4.1-2.2-1.4-.5-2.9-.8-4.6-.8s-1.8,0-2.2.3-.6.5-.6.9.3.6.8.7c.5.2,1.1.3,1.9.5l3.7.9c2.8.6,4.9,1.6,6.3,2.8,1.4,1.2,2.1,2.9,2.1,5.1s-.5,4-1.6,5.4-2.5,2.5-4.3,3.1-3.9,1-6.2,1-3.5-.2-5.2-.5-3.3-.8-4.8-1.4-2.8-1.4-3.8-2.2l3.8-6.3c.8.6,1.8,1.2,2.9,1.7,1.1.5,2.3.9,3.5,1.2s2.3.5,3.4.5,1.7,0,2-.3c.4-.2.6-.5.6-.9s-.2-.7-.5-.9-.9-.4-1.7-.6l-4.1-.9c-1.5-.3-2.8-.8-4.2-1.3-1.3-.5-2.4-1.4-3.2-2.4-.8-1.1-1.2-2.5-1.2-4.3s.5-3.5,1.5-4.9,2.5-2.5,4.4-3.3,4.2-1.2,6.9-1.2v.2h-.1Z"/>
    <path class="st7" d="M1001.4,784.9v-27.2h22.5v7h-13v3.4h10.5v6.5h-10.5v3.2h13.5v7h-23Z"/>
    <path class="st7" d="M1054.1,784.9h-11.6l-3.6-7-3.3,7h-10.8l9-13.5-8.7-13.6h11.3l3.2,6.8,3.2-6.8h10.5l-8.6,13.4,9.4,13.8h0Z"/>
    <path class="st7" d="M1068.4,757.3c4.3,0,7.7,1.2,10.1,3.7s3.6,5.9,3.6,10.3-1.2,7.9-3.6,10.3-5.8,3.7-10.1,3.7-5.3-.5-7.4-1.6-3.7-2.7-4.8-4.8c-1.1-2.1-1.7-4.6-1.7-7.6s.6-5.5,1.7-7.6,2.7-3.7,4.8-4.8,4.5-1.6,7.4-1.6h0ZM1068.4,764.5c-1.4,0-2.4.5-3.1,1.6-.6,1.1-1,2.8-1,5.2s.3,4.1,1,5.2c.6,1.1,1.7,1.6,3.1,1.6s2.4-.5,3-1.6.9-2.8.9-5.2-.3-4.1-.9-5.2c-.6-1.1-1.6-1.6-3-1.6Z"/>
    <path class="st7" d="M843.6,834.3v-27.2h22.5v7h-13v3.4h10.5v6.5h-10.5v3.2h13.5v7h-23Z"/>
    <path class="st7" d="M901.4,814.2h-12.9v3.8h10.5v7h-10.5v9.3h-9.6v-27.2h22.5v7h0Z"/>
    <path class="st7" d="M930.5,834.3h-9.8l-1.2-5.2h-7.3l-1.3,5.2h-9.5l8.8-27.2h11.5l8.8,27.2ZM913.6,823.1h4.5l-2.2-9.4-2.3,9.4Z"/>
    <path class="st7" d="M957.1,807.1v7h-8.5v20.1h-9.6v-20.1h-8.5v-7h26.6Z"/>
    <path class="st7" d="M972.6,806.7c4.3,0,7.7,1.2,10.1,3.7s3.6,5.9,3.6,10.3-1.2,7.9-3.6,10.3-5.8,3.7-10.1,3.7-5.3-.5-7.4-1.6c-2.1-1.1-3.7-2.7-4.8-4.8s-1.7-4.6-1.7-7.6.6-5.5,1.7-7.6c1.1-2.1,2.7-3.7,4.8-4.8s4.5-1.6,7.4-1.6h0ZM972.6,813.9c-1.4,0-2.4.5-3.1,1.6-.6,1.1-1,2.8-1,5.2s.3,4.1,1,5.2c.6,1.1,1.7,1.6,3.1,1.6s2.4-.5,3-1.6.9-2.8.9-5.2-.3-4.1-.9-5.2c-.6-1.1-1.6-1.6-3-1.6Z"/>
    <path class="st7" d="M1004,807.1c3.5,0,6.3.8,8.1,2.4,1.9,1.6,2.8,3.7,2.8,6.3,0,4.1-1.7,6.8-5.1,8.1l6.6,10.4h-10.4l-4.8-9h-2.6v9h-9.4v-27.2h14.8ZM1002.3,819c1,0,1.8-.2,2.3-.6.5-.4.8-1,.8-2s-.3-1.5-.8-1.9-1.3-.6-2.3-.6h-3.7v5h3.7Z"/>
    <path class="st7" d="M1017.9,834.3v-27.2h22.5v7h-13v3.4h10.5v6.5h-10.5v3.2h13.5v7h-23Z"/>
    <path class="st7" d="M1055.2,806.7c5.1,0,9.3,1.3,12.5,3.9l-3.9,6.2c-1.3-.9-2.6-1.6-4.1-2.2-1.4-.5-2.9-.8-4.6-.8s-1.8,0-2.2.3c-.4.2-.6.5-.6.9s.3.6.8.7c.5.2,1.1.3,1.9.5l3.7.9c2.8.6,4.9,1.6,6.3,2.8s2.1,2.9,2.1,5.1-.5,4-1.6,5.4-2.5,2.5-4.3,3.1-3.9,1-6.2,1-3.5-.2-5.2-.5-3.3-.8-4.8-1.4-2.8-1.4-3.8-2.2l3.8-6.3c.8.6,1.8,1.2,2.9,1.7s2.3.9,3.5,1.2,2.3.5,3.4.5,1.7,0,2-.3c.4-.2.6-.5.6-.9s-.2-.7-.5-.9-.9-.4-1.7-.6l-4.1-.9c-1.5-.3-2.8-.8-4.2-1.3-1.3-.5-2.4-1.4-3.2-2.4-.8-1.1-1.2-2.5-1.2-4.3s.5-3.5,1.5-4.9,2.5-2.5,4.4-3.3,4.2-1.2,6.9-1.2v.2h-.1Z"/>
    <path class="st7" d="M818.2,856.5v10h7.4v-10h9.6v27.2h-9.6v-10.1h-7.4v10.1h-9.6v-27.2h9.6Z"/>
    <path class="st7" d="M839,883.7v-27.2h22.5v7h-13v3.4h10.5v6.5h-10.5v3.2h13.5v7h-23Z"/>
    <path class="st7" d="M879.1,856.5c3.5,0,6.3.8,8.1,2.4,1.9,1.6,2.8,3.7,2.8,6.3,0,4.1-1.7,6.8-5.1,8.1l6.6,10.4h-10.4l-4.8-9h-2.6v9h-9.4v-27.2h14.8ZM877.4,868.3c1,0,1.8-.2,2.3-.6.5-.4.8-1,.8-2s-.3-1.5-.8-1.9-1.3-.6-2.3-.6h-3.7v5h3.7Z"/>
    <path class="st7" d="M893,883.7v-27.2h22.5v7h-13v3.4h10.5v6.5h-10.5v3.2h13.5v7h-23Z"/>
    <path class="st7" d="M931.7,856.5c4.3,0,7.5,1.2,9.6,3.5,2.2,2.4,3.2,5.7,3.2,10s-1.1,7.6-3.2,10c-2.2,2.4-5.4,3.6-9.6,3.6h-13.3v-27.2h13.3ZM930.3,876.8c1.8,0,3-.5,3.6-1.6s.9-2.8.9-5.1-.3-4-.9-5.1c-.6-1.1-1.8-1.6-3.6-1.6h-2.4v13.5h2.4Z"/>
    <path class="st7" d="M957,856.5v27.2h-9.6v-27.2h9.6Z"/>
    <path class="st7" d="M986.1,856.5v7h-8.5v20.1h-9.6v-20.1h-8.5v-7h26.6Z"/>
    <path class="st7" d="M1015.3,883.7h-9.8l-1.2-5.2h-7.3l-1.3,5.2h-9.5l8.8-27.2h11.5l8.8,27.2ZM999.4,847.6h8.1l-3.7,6.9h-6.7l2.4-6.9h0ZM998.4,872.5h4.5l-2.2-9.4-2.3,9.4Z"/>
    <path class="st7" d="M1031.4,856.5c3.5,0,6.3.8,8.1,2.4,1.9,1.6,2.8,3.7,2.8,6.3,0,4.1-1.7,6.8-5.1,8.1l6.6,10.4h-10.4l-4.8-9h-2.6v9h-9.4v-27.2h14.8ZM1029.7,868.3c1,0,1.8-.2,2.3-.6.5-.4.8-1,.8-2s-.3-1.5-.8-1.9-1.3-.6-2.3-.6h-3.7v5h3.7Z"/>
    <path class="st7" d="M1054.8,856.5v27.2h-9.6v-27.2h9.6Z"/>
    <path class="st7" d="M1071.5,856.1c4.3,0,7.7,1.2,10.1,3.7s3.6,5.9,3.6,10.3-1.2,7.9-3.6,10.3-5.8,3.7-10.1,3.7-5.3-.5-7.4-1.6-3.7-2.7-4.8-4.8c-1.1-2.1-1.7-4.6-1.7-7.6s.6-5.5,1.7-7.6,2.7-3.7,4.8-4.8,4.5-1.6,7.4-1.6h0ZM1071.5,863.3c-1.4,0-2.4.5-3.1,1.6-.6,1.1-1,2.8-1,5.2s.3,4.1,1,5.2c.6,1.1,1.7,1.6,3.1,1.6s2.4-.5,3-1.6.9-2.8.9-5.2-.3-4.1-.9-5.2c-.6-1.1-1.6-1.6-3-1.6Z"/>
    <path class="st7" d="M1100.1,856.1c5.1,0,9.3,1.3,12.5,3.9l-3.9,6.2c-1.3-.9-2.6-1.6-4.1-2.2-1.4-.5-2.9-.8-4.6-.8s-1.8,0-2.2.3c-.4.2-.6.5-.6.9s.3.6.8.7c.5.2,1.1.3,1.9.5l3.7.9c2.8.6,4.9,1.6,6.3,2.8s2.1,2.9,2.1,5.1-.5,4-1.6,5.4-2.5,2.5-4.3,3.1-3.9,1-6.2,1-3.5-.2-5.2-.5-3.3-.8-4.8-1.4-2.8-1.4-3.8-2.2l3.8-6.3c.8.6,1.8,1.2,2.9,1.7s2.3.9,3.5,1.2,2.3.5,3.4.5,1.7,0,2-.3c.4-.2.6-.5.6-.9s-.2-.7-.5-.9-.9-.4-1.7-.6l-4.1-.9c-1.5-.3-2.8-.8-4.2-1.3-1.3-.5-2.4-1.4-3.2-2.4-.8-1.1-1.2-2.5-1.2-4.3s.5-3.5,1.5-4.9,2.5-2.5,4.4-3.3,4.2-1.2,6.9-1.2v.2h-.1Z"/>
  </g>
  <g>
    <path class="st1" d="M1356.1,571.2v-24.6h8.7c2.9,0,5,.6,6.4,1.8,1.3,1.2,2,2.9,2,5s-.4,2.4-1.1,3.4-1.7,1.6-3.1,1.9h0c1.5.3,2.6,1,3.5,2,.9,1.1,1.3,2.3,1.3,3.6,0,2.1-.8,3.8-2.3,5-1.6,1.3-3.8,1.9-6.7,1.9h-8.7ZM1359.1,557.4h5.8c3.5,0,5.2-1.3,5.2-4s-1.7-4-5.2-4h-5.8v8ZM1359.1,568.4h6.4c1.8,0,3.1-.4,3.9-1.1s1.3-1.7,1.3-3-.4-2.3-1.3-3-2.2-1.1-3.9-1.1h-6.4v8.2Z"/>
    <path class="st1" d="M1390.4,559.2c0-1.4-.4-2.5-1.1-3.2-.7-.8-1.8-1.1-3.2-1.1s-2.4.3-3.3.8c-.9.6-1.6,1.5-2,2.7l-2.4-1.5c.5-1.4,1.4-2.5,2.8-3.4,1.3-.9,3-1.3,5-1.3s2.6.2,3.6.7c1.1.5,2,1.2,2.6,2.1s.9,2.1.9,3.6v9c0,.9.5,1.3,1.4,1.3s.9,0,1.4-.2v2.3c-.6.2-1.3.4-2.1.4s-1.4-.1-1.9-.4c-.6-.3-1-.7-1.3-1.2-.3-.6-.5-1.3-.5-2.1v-.4h.7c-.3,1.1-.8,1.9-1.5,2.5s-1.5,1.1-2.4,1.3c-.9.3-1.8.4-2.6.4s-2.1-.2-3.1-.6c-.9-.4-1.7-.9-2.3-1.7-.6-.8-.8-1.7-.8-2.8s.5-2.5,1.4-3.4c.9-.9,2.2-1.5,3.9-1.8l7.4-1.5v2.5l-6,1.2c-1.2.2-2.1.6-2.7,1-.6.4-.9,1.1-.9,1.9s.3,1.4.9,1.9c.6.5,1.5.7,2.6.7s1.4,0,2.1-.3c.7-.2,1.2-.5,1.8-.9.5-.4.9-.9,1.2-1.5s.4-1.3.4-2.1v-5.1ZM1387.3,543.3h3.2l-3.6,6.2h-2.4l2.8-6.2Z"/>
    <path class="st1" d="M1406.9,571.6c-1.8,0-3.5-.4-5-1.2-1.5-.8-2.7-1.9-3.5-3.3l2.5-1.8c.5,1.1,1.3,2,2.4,2.7,1.1.6,2.3,1,3.8,1s2.3-.3,3.1-.8,1.1-1.2,1.1-2-.2-1-.5-1.4c-.3-.4-1-.8-1.9-.9l-4.5-.9c-1.8-.4-3.1-1-3.9-1.9-.8-.9-1.2-1.9-1.2-3.2s.3-1.9.9-2.8c.6-.8,1.4-1.5,2.5-2,1.1-.5,2.4-.8,3.8-.8s3.4.4,4.7,1.1,2.2,1.7,2.8,3.1l-2.5,1.6c-.4-1.1-1.1-1.9-2-2.4-.9-.5-1.9-.8-2.9-.8s-1.7.1-2.3.4-1.1.6-1.5,1c-.3.4-.5.9-.5,1.5s.2,1,.6,1.5,1.1.8,2.1,1l4.7,1c1.7.3,3,.9,3.6,1.7.7.8,1,1.8,1,2.9s-.3,2.2-.9,3.1c-.6.9-1.5,1.6-2.6,2-1.1.5-2.4.7-3.9.7Z"/>
    <path class="st1" d="M1420.9,549c-.7,0-1.2-.2-1.6-.6-.4-.4-.6-.9-.6-1.6s.2-1.2.6-1.6.9-.6,1.6-.6,1.2.2,1.6.6c.4.4.6.9.6,1.6s-.2,1.2-.6,1.6c-.4.4-.9.6-1.6.6ZM1422.4,552.6v18.6h-3v-18.6h3Z"/>
    <path class="st1" d="M1436.7,552.2c1.3,0,2.4.2,3.4.6,1,.4,1.8,1,2.5,1.7s1.3,1.6,1.8,2.6l-2.8,1.3c-.4-1.2-1-2.1-1.8-2.7s-1.9-.9-3.1-.9-2.3.3-3.2.8c-.9.6-1.6,1.4-2,2.4s-.7,2.3-.7,3.8.2,2.7.7,3.8c.5,1.1,1.2,1.9,2,2.4.9.6,2,.8,3.2.8s1.8-.1,2.5-.4c.7-.3,1.3-.7,1.8-1.3.5-.6.8-1.3.9-2.1l2.8,1c-.4,1.1-1,2.1-1.7,2.9-.7.8-1.6,1.4-2.6,1.9-1,.4-2.2.7-3.5.7s-3.3-.4-4.7-1.2c-1.4-.8-2.4-1.9-3.2-3.3-.8-1.5-1.2-3.2-1.2-5.2s.4-3.7,1.2-5.2c.8-1.5,1.8-2.6,3.2-3.3,1.4-.8,2.9-1.2,4.7-1.2Z"/>
    <path class="st1" d="M1457.1,552.2c1.8,0,3.3.4,4.7,1.2,1.4.8,2.4,1.9,3.2,3.3.8,1.5,1.2,3.2,1.2,5.2s-.4,3.7-1.2,5.2c-.8,1.5-1.8,2.6-3.2,3.3-1.4.8-2.9,1.2-4.7,1.2s-3.3-.4-4.7-1.2c-1.4-.8-2.4-1.9-3.2-3.3-.8-1.5-1.2-3.2-1.2-5.2s.4-3.7,1.2-5.2c.8-1.5,1.8-2.6,3.2-3.3,1.4-.8,2.9-1.2,4.7-1.2ZM1457.1,554.8c-1.3,0-2.3.3-3.2.9-.9.6-1.6,1.4-2.1,2.4-.5,1.1-.7,2.3-.7,3.8s.2,2.7.7,3.8c.5,1.1,1.2,1.9,2.1,2.5.9.6,2,.9,3.2.9s2.3-.3,3.2-.9c.9-.6,1.6-1.4,2.1-2.5.5-1.1.7-2.3.7-3.8s-.2-2.8-.7-3.8c-.5-1.1-1.2-1.9-2.1-2.4-.9-.6-2-.9-3.2-.9Z"/>
  </g>
</svg>