<?xml version="1.0" encoding="UTF-8"?>
<svg id="Layer_2" data-name="Layer 2" xmlns="http://www.w3.org/2000/svg" viewBox="0 0 116.02 123.26">
  <defs>
    <style>
      .cls-1 {
        fill: #ee8362;
        stroke: #ee8362;
        stroke-miterlimit: 10;
        stroke-width: 1.5px;
      }
    </style>
  </defs>
  <g id="Layer_1-2" data-name="Layer 1">
    <g id="g2719">
      <g id="g2725">
        <g id="path2727">
          <path class="cls-1" d="M45.55,65.72c-.99,0-1.78-.8-1.78-1.78v-28.5c0-4.73,3.86-8.59,8.6-8.59,1.88,0,3.62.6,5.04,1.63v-10.44c0-4.73,3.86-8.59,8.61-8.59,1.88,0,3.62.6,5.04,1.63v-1.74c0-4.73,3.86-8.59,8.61-8.59s8.61,3.85,8.61,8.59v1.74c1.42-1.02,3.16-1.63,5.04-1.63,4.75,0,8.61,3.85,8.61,8.59v39.68c0,.99-.8,1.78-1.78,1.78s-1.78-.8-1.78-1.78V18.04c0-2.77-2.26-5.02-5.04-5.02s-5.04,2.25-5.04,5.02c0,.99-.8,1.78-1.78,1.78s-1.78-.8-1.78-1.78v-8.7c0-2.77-2.26-5.02-5.04-5.02s-5.04,2.25-5.04,5.02v8.7c0,.99-.8,1.78-1.78,1.78s-1.78-.8-1.78-1.78c0-2.77-2.26-5.02-5.04-5.02s-5.04,2.25-5.04,5.02v17.4c0,.99-.8,1.78-1.78,1.78s-1.78-.8-1.78-1.78c0-2.77-2.26-5.02-5.04-5.02s-5.04,2.25-5.04,5.02v28.5c0,.99-.8,1.78-1.78,1.78Z"/>
        </g>
      </g>
      <g id="g2729">
        <g id="path2731">
          <path class="cls-1" d="M86.48,55.04c-.99,0-1.78-.8-1.78-1.78V18.04c0-.99.8-1.78,1.78-1.78s1.78.8,1.78,1.78v35.22c0,.99-.8,1.78-1.78,1.78Z"/>
        </g>
      </g>
      <g id="g2733">
        <g id="path2735">
          <path class="cls-1" d="M72.83,55.04c-.99,0-1.78-.8-1.78-1.78V18.04c0-.99.8-1.78,1.78-1.78s1.78.8,1.78,1.78v35.22c0,.99-.8,1.78-1.78,1.78Z"/>
        </g>
      </g>
      <g id="g2737">
        <g id="path2739">
          <path class="cls-1" d="M59.19,62.8c-.99,0-1.78-.8-1.78-1.78v-25.58c0-.99.8-1.78,1.78-1.78s1.78.8,1.78,1.78v25.58c0,.99-.8,1.78-1.78,1.78Z"/>
        </g>
      </g>
      <g id="g2741">
        <g id="path2743">
          <path class="cls-1" d="M79.52,122.51c-9.73,0-18.82-3.83-25.61-10.8-.69-.71-.67-1.83.03-2.52.71-.69,1.83-.67,2.52.03,6.11,6.27,14.3,9.72,23.05,9.72,2.46,0,8.86-.31,15.21-3.14,5.93-2.65,9.99-6.65,12.08-11.91.36-.92,1.4-1.36,2.32-1,.92.36,1.36,1.4,1,2.32-2.44,6.15-7.13,10.82-13.94,13.85-4.91,2.19-10.99,3.45-16.67,3.45Z"/>
        </g>
      </g>
      <g id="g2745">
        <g id="path2747">
          <path class="cls-1" d="M108.46,106.34c-.26,0-.52-.06-.78-.18-.89-.43-1.26-1.5-.83-2.38,3.14-6.49,4.84-11.12,4.84-16.98v-.5s0-36.31,0-36.31c0-2.69-2.2-4.88-4.9-4.88s-4.9,2.19-4.9,4.88v24.98c0,.99-.8,1.78-1.78,1.78-7.53,0-13.65,6.12-13.65,13.64,0,.99-.8,1.78-1.78,1.78s-1.78-.8-1.78-1.78c0-8.88,6.77-16.22,15.43-17.11v-23.29c0-4.66,3.8-8.45,8.47-8.45s8.47,3.79,8.47,8.45v36.83c0,7.18-2.46,12.85-5.2,18.51-.31.64-.94,1.01-1.61,1.01Z"/>
        </g>
      </g>
      <g id="g2749">
        <g id="path2751">
          <path class="cls-1" d="M31.95,122.51c-17.2,0-31.2-14-31.2-31.2,0-7.05,2.3-13.7,6.66-19.24.71-1.05,7.76-10.8,24.42-11.95,7.72-.54,15.22,2.2,21.13,7.71,6.48,6.05,10.2,14.61,10.2,23.48,0,17.2-14,31.2-31.2,31.2ZM33.72,63.62c-.55,0-1.1.02-1.65.06-8.04.56-13.51,3.36-16.69,5.61-3.45,2.44-5.02,4.79-5.04,4.81-.03.04-.06.09-.09.13-3.88,4.92-5.93,10.83-5.93,17.09,0,15.24,12.4,27.63,27.63,27.63s27.63-12.4,27.63-27.63c0-7.89-3.3-15.5-9.06-20.88-4.75-4.43-10.66-6.82-16.8-6.82ZM31.95,115.56c-5.18,0-10.12-1.61-14.29-4.66-.42-.31-.69-.78-.73-1.3-.04-.52.15-1.03.52-1.4l31.39-31.39c.37-.37.88-.56,1.4-.52.52.04,1,.31,1.3.73,3.05,4.17,4.66,9.11,4.66,14.29,0,13.37-10.88,24.25-24.25,24.25ZM21.52,109.18c3.15,1.85,6.72,2.82,10.43,2.82,11.4,0,20.68-9.28,20.68-20.68,0-3.71-.97-7.27-2.82-10.43l-28.29,28.29ZM13.8,106.34s-.09,0-.14,0c-.52-.04-1-.31-1.3-.73-3.05-4.17-4.66-9.11-4.66-14.29,0-13.37,10.88-24.25,24.25-24.25,5.18,0,10.12,1.61,14.29,4.66.42.31.69.78.73,1.3.04.52-.15,1.03-.52,1.4l-31.39,31.39c-.34.34-.79.52-1.26.52ZM31.95,70.63c-11.4,0-20.68,9.28-20.68,20.68,0,3.71.97,7.27,2.82,10.43l28.29-28.29c-3.15-1.85-6.72-2.82-10.43-2.82Z"/>
        </g>
      </g>
    </g>
  </g>
</svg>