<?xml version="1.0" encoding="UTF-8"?>
<svg id="Camada_1" xmlns="http://www.w3.org/2000/svg" version="1.1" viewBox="0 0 1920 914">
  <!-- Generator: Adobe Illustrator 29.0.0, SVG Export Plug-In . SVG Version: 2.1.0 Build 186)  -->
  <defs>
    <style>
      .st0 {
        fill: #f0c54a;
      }

      .st1 {
        fill: #e0a591;
      }

      .st2 {
        isolation: isolate;
      }

      .st3 {
        fill: #67b7a8;
      }

      .st4 {
        fill: #325162;
      }

      .st5 {
        fill: #518da4;
      }

      .st6 {
        opacity: .3;
      }

      .st7 {
        fill: #325665;
      }
    </style>
  </defs>
  <g class="st6">
    <path class="st3" d="M318.6,690.1c2.5,0,4.6,2,4.6,4.6s-2,4.6-4.6,4.6-4.6-2-4.6-4.6,2-4.6,4.6-4.6Z"/>
    <path class="st3" d="M318.6,639.9c2.5,0,4.6,2,4.6,4.6s-2,4.6-4.6,4.6-4.6-2-4.6-4.6,2-4.6,4.6-4.6Z"/>
    <path class="st3" d="M318.6,591c2.5,0,4.6,2,4.6,4.6s-2,4.6-4.6,4.6-4.6-2-4.6-4.6,2-4.6,4.6-4.6Z"/>
    <path class="st3" d="M318.6,541.5c2.5,0,4.6,2,4.6,4.6s-2,4.6-4.6,4.6-4.6-2-4.6-4.6,2-4.6,4.6-4.6Z"/>
    <path class="st3" d="M318.6,492.9c2.5,0,4.6,2,4.6,4.6s-2,4.6-4.6,4.6-4.6-2-4.6-4.6,2-4.6,4.6-4.6Z"/>
    <path class="st3" d="M318.6,442.7c2.5,0,4.6,2,4.6,4.6s-2,4.6-4.6,4.6-4.6-2-4.6-4.6,2-4.6,4.6-4.6Z"/>
    <path class="st3" d="M318.6,393.8c2.5,0,4.6,2,4.6,4.6s-2,4.6-4.6,4.6-4.6-2-4.6-4.6,2-4.6,4.6-4.6Z"/>
    <path class="st3" d="M318.6,344.3c2.5,0,4.6,2,4.6,4.6s-2,4.6-4.6,4.6-4.6-2-4.6-4.6,2-4.6,4.6-4.6Z"/>
    <path class="st3" d="M318.6,295.6c2.5,0,4.6,2,4.6,4.6s-2,4.6-4.6,4.6-4.6-2-4.6-4.6,2-4.6,4.6-4.6Z"/>
    <path class="st3" d="M318.6,245.5c2.5,0,4.6,2,4.6,4.6s-2,4.6-4.6,4.6-4.6-2-4.6-4.6,2-4.6,4.6-4.6Z"/>
    <path class="st3" d="M269.1,690.1c2.5,0,4.6,2,4.6,4.6s-2,4.6-4.6,4.6-4.6-2-4.6-4.6,2-4.6,4.6-4.6Z"/>
    <path class="st3" d="M269.1,639.9c2.5,0,4.6,2,4.6,4.6s-2,4.6-4.6,4.6-4.6-2-4.6-4.6,2-4.6,4.6-4.6Z"/>
    <path class="st3" d="M269.1,591c2.5,0,4.6,2,4.6,4.6s-2,4.6-4.6,4.6-4.6-2-4.6-4.6,2-4.6,4.6-4.6Z"/>
    <path class="st3" d="M269.1,541.5c2.5,0,4.6,2,4.6,4.6s-2,4.6-4.6,4.6-4.6-2-4.6-4.6,2-4.6,4.6-4.6Z"/>
    <path class="st3" d="M269.1,492.9c2.5,0,4.6,2,4.6,4.6s-2,4.6-4.6,4.6-4.6-2-4.6-4.6,2-4.6,4.6-4.6Z"/>
    <path class="st3" d="M269.1,442.7c2.5,0,4.6,2,4.6,4.6s-2,4.6-4.6,4.6-4.6-2-4.6-4.6,2-4.6,4.6-4.6Z"/>
    <path class="st3" d="M269.1,393.8c2.5,0,4.6,2,4.6,4.6s-2,4.6-4.6,4.6-4.6-2-4.6-4.6,2-4.6,4.6-4.6Z"/>
    <path class="st3" d="M269.1,344.3c2.5,0,4.6,2,4.6,4.6s-2,4.6-4.6,4.6-4.6-2-4.6-4.6,2-4.6,4.6-4.6Z"/>
    <path class="st3" d="M269.1,295.6c2.5,0,4.6,2,4.6,4.6s-2,4.6-4.6,4.6-4.6-2-4.6-4.6,2-4.6,4.6-4.6Z"/>
    <path class="st3" d="M269.1,245.5c2.5,0,4.6,2,4.6,4.6s-2,4.6-4.6,4.6-4.6-2-4.6-4.6,2-4.6,4.6-4.6Z"/>
    <path class="st3" d="M367.6,690.1c2.5,0,4.6,2,4.6,4.6s-2,4.6-4.6,4.6-4.6-2-4.6-4.6,2-4.6,4.6-4.6Z"/>
    <path class="st3" d="M367.6,639.9c2.5,0,4.6,2,4.6,4.6s-2,4.6-4.6,4.6-4.6-2-4.6-4.6,2-4.6,4.6-4.6Z"/>
    <path class="st3" d="M367.6,591c2.5,0,4.6,2,4.6,4.6s-2,4.6-4.6,4.6-4.6-2-4.6-4.6,2-4.6,4.6-4.6Z"/>
    <path class="st3" d="M367.6,541.5c2.5,0,4.6,2,4.6,4.6s-2,4.6-4.6,4.6-4.6-2-4.6-4.6,2-4.6,4.6-4.6Z"/>
    <path class="st3" d="M367.6,492.9c2.5,0,4.6,2,4.6,4.6s-2,4.6-4.6,4.6-4.6-2-4.6-4.6,2-4.6,4.6-4.6Z"/>
    <path class="st3" d="M367.6,442.7c2.5,0,4.6,2,4.6,4.6s-2,4.6-4.6,4.6-4.6-2-4.6-4.6,2-4.6,4.6-4.6Z"/>
    <path class="st3" d="M367.6,393.8c2.5,0,4.6,2,4.6,4.6s-2,4.6-4.6,4.6-4.6-2-4.6-4.6,2-4.6,4.6-4.6Z"/>
    <path class="st3" d="M367.6,344.3c2.5,0,4.6,2,4.6,4.6s-2,4.6-4.6,4.6-4.6-2-4.6-4.6,2-4.6,4.6-4.6Z"/>
    <path class="st3" d="M367.6,295.6c2.5,0,4.6,2,4.6,4.6s-2,4.6-4.6,4.6-4.6-2-4.6-4.6,2-4.6,4.6-4.6Z"/>
    <path class="st3" d="M367.6,245.5c2.5,0,4.6,2,4.6,4.6s-2,4.6-4.6,4.6-4.6-2-4.6-4.6,2-4.6,4.6-4.6Z"/>
    <path class="st3" d="M417,690.1c2.5,0,4.6,2,4.6,4.6s-2,4.6-4.6,4.6-4.6-2-4.6-4.6,2-4.6,4.6-4.6Z"/>
    <path class="st3" d="M417,639.9c2.5,0,4.6,2,4.6,4.6s-2,4.6-4.6,4.6-4.6-2-4.6-4.6,2-4.6,4.6-4.6Z"/>
    <path class="st3" d="M417,591c2.5,0,4.6,2,4.6,4.6s-2,4.6-4.6,4.6-4.6-2-4.6-4.6,2-4.6,4.6-4.6Z"/>
    <path class="st3" d="M417,541.5c2.5,0,4.6,2,4.6,4.6s-2,4.6-4.6,4.6-4.6-2-4.6-4.6,2-4.6,4.6-4.6Z"/>
    <path class="st3" d="M417,492.9c2.5,0,4.6,2,4.6,4.6s-2,4.6-4.6,4.6-4.6-2-4.6-4.6,2-4.6,4.6-4.6Z"/>
    <path class="st3" d="M417,442.7c2.5,0,4.6,2,4.6,4.6s-2,4.6-4.6,4.6-4.6-2-4.6-4.6,2-4.6,4.6-4.6Z"/>
    <path class="st3" d="M417,393.8c2.5,0,4.6,2,4.6,4.6s-2,4.6-4.6,4.6-4.6-2-4.6-4.6,2-4.6,4.6-4.6Z"/>
    <path class="st3" d="M417,344.3c2.5,0,4.6,2,4.6,4.6s-2,4.6-4.6,4.6-4.6-2-4.6-4.6,2-4.6,4.6-4.6Z"/>
    <path class="st3" d="M417,295.6c2.5,0,4.6,2,4.6,4.6s-2,4.6-4.6,4.6-4.6-2-4.6-4.6,2-4.6,4.6-4.6Z"/>
    <path class="st3" d="M417,245.5c2.5,0,4.6,2,4.6,4.6s-2,4.6-4.6,4.6-4.6-2-4.6-4.6,2-4.6,4.6-4.6Z"/>
    <path class="st3" d="M465.6,690.1c2.5,0,4.6,2,4.6,4.6s-2,4.6-4.6,4.6-4.6-2-4.6-4.6,2-4.6,4.6-4.6Z"/>
    <path class="st3" d="M465.6,639.9c2.5,0,4.6,2,4.6,4.6s-2,4.6-4.6,4.6-4.6-2-4.6-4.6,2-4.6,4.6-4.6Z"/>
    <path class="st3" d="M465.6,591c2.5,0,4.6,2,4.6,4.6s-2,4.6-4.6,4.6-4.6-2-4.6-4.6,2-4.6,4.6-4.6Z"/>
    <path class="st3" d="M465.6,541.5c2.5,0,4.6,2,4.6,4.6s-2,4.6-4.6,4.6-4.6-2-4.6-4.6,2-4.6,4.6-4.6Z"/>
    <path class="st3" d="M465.6,492.9c2.5,0,4.6,2,4.6,4.6s-2,4.6-4.6,4.6-4.6-2-4.6-4.6,2-4.6,4.6-4.6Z"/>
    <path class="st3" d="M465.6,442.7c2.5,0,4.6,2,4.6,4.6s-2,4.6-4.6,4.6-4.6-2-4.6-4.6,2-4.6,4.6-4.6Z"/>
    <path class="st3" d="M465.6,393.8c2.5,0,4.6,2,4.6,4.6s-2,4.6-4.6,4.6-4.6-2-4.6-4.6,2-4.6,4.6-4.6Z"/>
    <path class="st3" d="M465.6,344.3c2.5,0,4.6,2,4.6,4.6s-2,4.6-4.6,4.6-4.6-2-4.6-4.6,2-4.6,4.6-4.6Z"/>
    <path class="st3" d="M465.6,295.6c2.5,0,4.6,2,4.6,4.6s-2,4.6-4.6,4.6-4.6-2-4.6-4.6,2-4.6,4.6-4.6Z"/>
    <path class="st3" d="M465.6,245.5c2.5,0,4.6,2,4.6,4.6s-2,4.6-4.6,4.6-4.6-2-4.6-4.6,2-4.6,4.6-4.6Z"/>
    <path class="st3" d="M515,690.1c2.5,0,4.6,2,4.6,4.6s-2,4.6-4.6,4.6-4.6-2-4.6-4.6,2-4.6,4.6-4.6Z"/>
    <path class="st3" d="M515,639.9c2.5,0,4.6,2,4.6,4.6s-2,4.6-4.6,4.6-4.6-2-4.6-4.6,2-4.6,4.6-4.6Z"/>
    <path class="st3" d="M515,591c2.5,0,4.6,2,4.6,4.6s-2,4.6-4.6,4.6-4.6-2-4.6-4.6,2-4.6,4.6-4.6Z"/>
    <path class="st3" d="M515,541.5c2.5,0,4.6,2,4.6,4.6s-2,4.6-4.6,4.6-4.6-2-4.6-4.6,2-4.6,4.6-4.6Z"/>
    <path class="st3" d="M515,492.9c2.5,0,4.6,2,4.6,4.6s-2,4.6-4.6,4.6-4.6-2-4.6-4.6,2-4.6,4.6-4.6Z"/>
    <path class="st3" d="M515,442.7c2.5,0,4.6,2,4.6,4.6s-2,4.6-4.6,4.6-4.6-2-4.6-4.6,2-4.6,4.6-4.6Z"/>
    <path class="st3" d="M515,393.8c2.5,0,4.6,2,4.6,4.6s-2,4.6-4.6,4.6-4.6-2-4.6-4.6,2-4.6,4.6-4.6Z"/>
    <path class="st3" d="M515,344.3c2.5,0,4.6,2,4.6,4.6s-2,4.6-4.6,4.6-4.6-2-4.6-4.6,2-4.6,4.6-4.6Z"/>
    <path class="st3" d="M515,295.6c2.5,0,4.6,2,4.6,4.6s-2,4.6-4.6,4.6-4.6-2-4.6-4.6,2-4.6,4.6-4.6Z"/>
    <path class="st3" d="M515,245.5c2.5,0,4.6,2,4.6,4.6s-2,4.6-4.6,4.6-4.6-2-4.6-4.6,2-4.6,4.6-4.6Z"/>
    <path class="st3" d="M564.3,690.1c2.5,0,4.6,2,4.6,4.6s-2,4.6-4.6,4.6-4.6-2-4.6-4.6,2-4.6,4.6-4.6Z"/>
    <path class="st3" d="M564.3,639.9c2.5,0,4.6,2,4.6,4.6s-2,4.6-4.6,4.6-4.6-2-4.6-4.6,2-4.6,4.6-4.6Z"/>
    <path class="st3" d="M564.3,591c2.5,0,4.6,2,4.6,4.6s-2,4.6-4.6,4.6-4.6-2-4.6-4.6,2-4.6,4.6-4.6Z"/>
    <path class="st3" d="M564.3,541.5c2.5,0,4.6,2,4.6,4.6s-2,4.6-4.6,4.6-4.6-2-4.6-4.6,2-4.6,4.6-4.6Z"/>
    <path class="st3" d="M564.3,492.9c2.5,0,4.6,2,4.6,4.6s-2,4.6-4.6,4.6-4.6-2-4.6-4.6,2-4.6,4.6-4.6Z"/>
    <path class="st3" d="M564.3,442.7c2.5,0,4.6,2,4.6,4.6s-2,4.6-4.6,4.6-4.6-2-4.6-4.6,2-4.6,4.6-4.6Z"/>
    <path class="st3" d="M564.3,393.8c2.5,0,4.6,2,4.6,4.6s-2,4.6-4.6,4.6-4.6-2-4.6-4.6,2-4.6,4.6-4.6Z"/>
    <path class="st3" d="M564.3,344.3c2.5,0,4.6,2,4.6,4.6s-2,4.6-4.6,4.6-4.6-2-4.6-4.6,2-4.6,4.6-4.6Z"/>
    <path class="st3" d="M564.3,295.6c2.5,0,4.6,2,4.6,4.6s-2,4.6-4.6,4.6-4.6-2-4.6-4.6,2-4.6,4.6-4.6Z"/>
    <path class="st3" d="M564.3,245.5c2.5,0,4.6,2,4.6,4.6s-2,4.6-4.6,4.6-4.6-2-4.6-4.6,2-4.6,4.6-4.6Z"/>
    <path class="st3" d="M613.9,690.1c2.5,0,4.6,2,4.6,4.6s-2,4.6-4.6,4.6-4.6-2-4.6-4.6,2-4.6,4.6-4.6Z"/>
    <path class="st3" d="M613.9,639.9c2.5,0,4.6,2,4.6,4.6s-2,4.6-4.6,4.6-4.6-2-4.6-4.6,2-4.6,4.6-4.6Z"/>
    <path class="st3" d="M613.9,591c2.5,0,4.6,2,4.6,4.6s-2,4.6-4.6,4.6-4.6-2-4.6-4.6,2-4.6,4.6-4.6Z"/>
    <path class="st3" d="M613.9,541.5c2.5,0,4.6,2,4.6,4.6s-2,4.6-4.6,4.6-4.6-2-4.6-4.6,2-4.6,4.6-4.6Z"/>
    <path class="st3" d="M613.9,492.9c2.5,0,4.6,2,4.6,4.6s-2,4.6-4.6,4.6-4.6-2-4.6-4.6,2-4.6,4.6-4.6Z"/>
    <path class="st3" d="M613.9,442.7c2.5,0,4.6,2,4.6,4.6s-2,4.6-4.6,4.6-4.6-2-4.6-4.6,2-4.6,4.6-4.6Z"/>
    <path class="st3" d="M613.9,393.8c2.5,0,4.6,2,4.6,4.6s-2,4.6-4.6,4.6-4.6-2-4.6-4.6,2-4.6,4.6-4.6Z"/>
    <path class="st3" d="M613.9,344.3c2.5,0,4.6,2,4.6,4.6s-2,4.6-4.6,4.6-4.6-2-4.6-4.6,2-4.6,4.6-4.6Z"/>
    <path class="st3" d="M613.9,295.6c2.5,0,4.6,2,4.6,4.6s-2,4.6-4.6,4.6-4.6-2-4.6-4.6,2-4.6,4.6-4.6Z"/>
    <path class="st3" d="M613.9,245.5c2.5,0,4.6,2,4.6,4.6s-2,4.6-4.6,4.6-4.6-2-4.6-4.6,2-4.6,4.6-4.6Z"/>
    <path class="st3" d="M663.2,690.1c2.5,0,4.6,2,4.6,4.6s-2,4.6-4.6,4.6-4.6-2-4.6-4.6,2-4.6,4.6-4.6Z"/>
    <path class="st3" d="M663.2,639.9c2.5,0,4.6,2,4.6,4.6s-2,4.6-4.6,4.6-4.6-2-4.6-4.6,2-4.6,4.6-4.6Z"/>
    <path class="st3" d="M663.2,591c2.5,0,4.6,2,4.6,4.6s-2,4.6-4.6,4.6-4.6-2-4.6-4.6,2-4.6,4.6-4.6Z"/>
    <path class="st3" d="M663.2,541.5c2.5,0,4.6,2,4.6,4.6s-2,4.6-4.6,4.6-4.6-2-4.6-4.6,2-4.6,4.6-4.6Z"/>
    <path class="st3" d="M663.2,492.9c2.5,0,4.6,2,4.6,4.6s-2,4.6-4.6,4.6-4.6-2-4.6-4.6,2-4.6,4.6-4.6Z"/>
    <path class="st3" d="M663.2,442.7c2.5,0,4.6,2,4.6,4.6s-2,4.6-4.6,4.6-4.6-2-4.6-4.6,2-4.6,4.6-4.6Z"/>
    <path class="st3" d="M663.2,393.8c2.5,0,4.6,2,4.6,4.6s-2,4.6-4.6,4.6-4.6-2-4.6-4.6,2-4.6,4.6-4.6Z"/>
    <path class="st3" d="M663.2,344.3c2.5,0,4.6,2,4.6,4.6s-2,4.6-4.6,4.6-4.6-2-4.6-4.6,2-4.6,4.6-4.6Z"/>
    <path class="st3" d="M663.2,295.6c2.5,0,4.6,2,4.6,4.6s-2,4.6-4.6,4.6-4.6-2-4.6-4.6,2-4.6,4.6-4.6Z"/>
    <path class="st3" d="M663.2,245.5c2.5,0,4.6,2,4.6,4.6s-2,4.6-4.6,4.6-4.6-2-4.6-4.6,2-4.6,4.6-4.6Z"/>
    <path class="st3" d="M712.4,690.1c2.5,0,4.6,2,4.6,4.6s-2,4.6-4.6,4.6-4.6-2-4.6-4.6,2-4.6,4.6-4.6Z"/>
    <path class="st3" d="M712.4,639.9c2.5,0,4.6,2,4.6,4.6s-2,4.6-4.6,4.6-4.6-2-4.6-4.6,2-4.6,4.6-4.6Z"/>
    <path class="st3" d="M712.4,591c2.5,0,4.6,2,4.6,4.6s-2,4.6-4.6,4.6-4.6-2-4.6-4.6,2-4.6,4.6-4.6Z"/>
    <path class="st3" d="M712.4,541.5c2.5,0,4.6,2,4.6,4.6s-2,4.6-4.6,4.6-4.6-2-4.6-4.6,2-4.6,4.6-4.6Z"/>
    <path class="st3" d="M712.4,492.9c2.5,0,4.6,2,4.6,4.6s-2,4.6-4.6,4.6-4.6-2-4.6-4.6,2-4.6,4.6-4.6Z"/>
    <path class="st3" d="M712.4,442.7c2.5,0,4.6,2,4.6,4.6s-2,4.6-4.6,4.6-4.6-2-4.6-4.6,2-4.6,4.6-4.6Z"/>
    <path class="st3" d="M712.4,393.8c2.5,0,4.6,2,4.6,4.6s-2,4.6-4.6,4.6-4.6-2-4.6-4.6,2-4.6,4.6-4.6Z"/>
    <path class="st3" d="M712.4,344.3c2.5,0,4.6,2,4.6,4.6s-2,4.6-4.6,4.6-4.6-2-4.6-4.6,2-4.6,4.6-4.6Z"/>
    <path class="st3" d="M712.4,295.6c2.5,0,4.6,2,4.6,4.6s-2,4.6-4.6,4.6-4.6-2-4.6-4.6,2-4.6,4.6-4.6Z"/>
    <path class="st3" d="M712.4,245.5c2.5,0,4.6,2,4.6,4.6s-2,4.6-4.6,4.6-4.6-2-4.6-4.6,2-4.6,4.6-4.6Z"/>
    <path class="st3" d="M761.5,690.1c2.5,0,4.6,2,4.6,4.6s-2,4.6-4.6,4.6-4.6-2-4.6-4.6,2-4.6,4.6-4.6Z"/>
    <path class="st3" d="M761.5,639.9c2.5,0,4.6,2,4.6,4.6s-2,4.6-4.6,4.6-4.6-2-4.6-4.6,2-4.6,4.6-4.6Z"/>
    <path class="st3" d="M761.5,591c2.5,0,4.6,2,4.6,4.6s-2,4.6-4.6,4.6-4.6-2-4.6-4.6,2-4.6,4.6-4.6Z"/>
    <path class="st3" d="M761.5,541.5c2.5,0,4.6,2,4.6,4.6s-2,4.6-4.6,4.6-4.6-2-4.6-4.6,2-4.6,4.6-4.6Z"/>
    <path class="st3" d="M761.5,492.9c2.5,0,4.6,2,4.6,4.6s-2,4.6-4.6,4.6-4.6-2-4.6-4.6,2-4.6,4.6-4.6Z"/>
    <path class="st3" d="M761.5,442.7c2.5,0,4.6,2,4.6,4.6s-2,4.6-4.6,4.6-4.6-2-4.6-4.6,2-4.6,4.6-4.6Z"/>
    <path class="st3" d="M761.5,393.8c2.5,0,4.6,2,4.6,4.6s-2,4.6-4.6,4.6-4.6-2-4.6-4.6,2-4.6,4.6-4.6Z"/>
    <path class="st3" d="M761.5,344.3c2.5,0,4.6,2,4.6,4.6s-2,4.6-4.6,4.6-4.6-2-4.6-4.6,2-4.6,4.6-4.6Z"/>
    <path class="st3" d="M761.5,295.6c2.5,0,4.6,2,4.6,4.6s-2,4.6-4.6,4.6-4.6-2-4.6-4.6,2-4.6,4.6-4.6Z"/>
    <path class="st3" d="M761.5,245.5c2.5,0,4.6,2,4.6,4.6s-2,4.6-4.6,4.6-4.6-2-4.6-4.6,2-4.6,4.6-4.6Z"/>
    <path class="st3" d="M810.5,690.1c2.5,0,4.6,2,4.6,4.6s-2,4.6-4.6,4.6-4.6-2-4.6-4.6,2-4.6,4.6-4.6Z"/>
    <path class="st3" d="M810.5,639.9c2.5,0,4.6,2,4.6,4.6s-2,4.6-4.6,4.6-4.6-2-4.6-4.6,2-4.6,4.6-4.6Z"/>
    <path class="st3" d="M810.5,591c2.5,0,4.6,2,4.6,4.6s-2,4.6-4.6,4.6-4.6-2-4.6-4.6,2-4.6,4.6-4.6Z"/>
    <path class="st3" d="M810.5,541.5c2.5,0,4.6,2,4.6,4.6s-2,4.6-4.6,4.6-4.6-2-4.6-4.6,2-4.6,4.6-4.6Z"/>
    <path class="st3" d="M810.5,492.9c2.5,0,4.6,2,4.6,4.6s-2,4.6-4.6,4.6-4.6-2-4.6-4.6,2-4.6,4.6-4.6Z"/>
    <path class="st3" d="M810.5,442.7c2.5,0,4.6,2,4.6,4.6s-2,4.6-4.6,4.6-4.6-2-4.6-4.6,2-4.6,4.6-4.6Z"/>
    <path class="st3" d="M810.5,393.8c2.5,0,4.6,2,4.6,4.6s-2,4.6-4.6,4.6-4.6-2-4.6-4.6,2-4.6,4.6-4.6Z"/>
    <path class="st3" d="M810.5,344.3c2.5,0,4.6,2,4.6,4.6s-2,4.6-4.6,4.6-4.6-2-4.6-4.6,2-4.6,4.6-4.6Z"/>
    <path class="st3" d="M810.5,295.6c2.5,0,4.6,2,4.6,4.6s-2,4.6-4.6,4.6-4.6-2-4.6-4.6,2-4.6,4.6-4.6Z"/>
    <path class="st3" d="M810.5,245.5c2.5,0,4.6,2,4.6,4.6s-2,4.6-4.6,4.6-4.6-2-4.6-4.6,2-4.6,4.6-4.6Z"/>
    <path class="st3" d="M859.9,690.1c2.5,0,4.6,2,4.6,4.6s-2,4.6-4.6,4.6-4.6-2-4.6-4.6,2-4.6,4.6-4.6Z"/>
    <path class="st3" d="M859.9,639.9c2.5,0,4.6,2,4.6,4.6s-2,4.6-4.6,4.6-4.6-2-4.6-4.6,2-4.6,4.6-4.6Z"/>
    <path class="st3" d="M859.9,591c2.5,0,4.6,2,4.6,4.6s-2,4.6-4.6,4.6-4.6-2-4.6-4.6,2-4.6,4.6-4.6Z"/>
    <path class="st3" d="M859.9,541.5c2.5,0,4.6,2,4.6,4.6s-2,4.6-4.6,4.6-4.6-2-4.6-4.6,2-4.6,4.6-4.6Z"/>
    <path class="st3" d="M859.9,492.9c2.5,0,4.6,2,4.6,4.6s-2,4.6-4.6,4.6-4.6-2-4.6-4.6,2-4.6,4.6-4.6Z"/>
    <path class="st3" d="M859.9,442.7c2.5,0,4.6,2,4.6,4.6s-2,4.6-4.6,4.6-4.6-2-4.6-4.6,2-4.6,4.6-4.6Z"/>
    <path class="st3" d="M859.9,393.8c2.5,0,4.6,2,4.6,4.6s-2,4.6-4.6,4.6-4.6-2-4.6-4.6,2-4.6,4.6-4.6Z"/>
    <path class="st3" d="M859.9,344.3c2.5,0,4.6,2,4.6,4.6s-2,4.6-4.6,4.6-4.6-2-4.6-4.6,2-4.6,4.6-4.6Z"/>
    <path class="st3" d="M859.9,295.6c2.5,0,4.6,2,4.6,4.6s-2,4.6-4.6,4.6-4.6-2-4.6-4.6,2-4.6,4.6-4.6Z"/>
    <path class="st3" d="M859.9,245.5c2.5,0,4.6,2,4.6,4.6s-2,4.6-4.6,4.6-4.6-2-4.6-4.6,2-4.6,4.6-4.6Z"/>
    <path class="st3" d="M908.5,690.1c2.5,0,4.6,2,4.6,4.6s-2,4.6-4.6,4.6-4.6-2-4.6-4.6,2-4.6,4.6-4.6Z"/>
    <path class="st3" d="M908.5,639.9c2.5,0,4.6,2,4.6,4.6s-2,4.6-4.6,4.6-4.6-2-4.6-4.6,2-4.6,4.6-4.6Z"/>
    <path class="st3" d="M908.5,591c2.5,0,4.6,2,4.6,4.6s-2,4.6-4.6,4.6-4.6-2-4.6-4.6,2-4.6,4.6-4.6Z"/>
    <path class="st3" d="M908.5,541.5c2.5,0,4.6,2,4.6,4.6s-2,4.6-4.6,4.6-4.6-2-4.6-4.6,2-4.6,4.6-4.6Z"/>
    <path class="st3" d="M908.5,492.9c2.5,0,4.6,2,4.6,4.6s-2,4.6-4.6,4.6-4.6-2-4.6-4.6,2-4.6,4.6-4.6Z"/>
    <path class="st3" d="M908.5,442.7c2.5,0,4.6,2,4.6,4.6s-2,4.6-4.6,4.6-4.6-2-4.6-4.6,2-4.6,4.6-4.6Z"/>
    <path class="st3" d="M908.5,393.8c2.5,0,4.6,2,4.6,4.6s-2,4.6-4.6,4.6-4.6-2-4.6-4.6,2-4.6,4.6-4.6Z"/>
    <path class="st3" d="M908.5,344.3c2.5,0,4.6,2,4.6,4.6s-2,4.6-4.6,4.6-4.6-2-4.6-4.6,2-4.6,4.6-4.6Z"/>
    <path class="st3" d="M908.5,295.6c2.5,0,4.6,2,4.6,4.6s-2,4.6-4.6,4.6-4.6-2-4.6-4.6,2-4.6,4.6-4.6Z"/>
    <path class="st3" d="M908.5,245.5c2.5,0,4.6,2,4.6,4.6s-2,4.6-4.6,4.6-4.6-2-4.6-4.6,2-4.6,4.6-4.6Z"/>
    <path class="st3" d="M957.9,690.1c2.5,0,4.6,2,4.6,4.6s-2,4.6-4.6,4.6-4.6-2-4.6-4.6,2-4.6,4.6-4.6Z"/>
    <path class="st3" d="M957.9,639.9c2.5,0,4.6,2,4.6,4.6s-2,4.6-4.6,4.6-4.6-2-4.6-4.6,2-4.6,4.6-4.6Z"/>
    <path class="st3" d="M957.9,591c2.5,0,4.6,2,4.6,4.6s-2,4.6-4.6,4.6-4.6-2-4.6-4.6,2-4.6,4.6-4.6Z"/>
    <path class="st3" d="M957.9,541.5c2.5,0,4.6,2,4.6,4.6s-2,4.6-4.6,4.6-4.6-2-4.6-4.6,2-4.6,4.6-4.6Z"/>
    <path class="st3" d="M957.9,492.9c2.5,0,4.6,2,4.6,4.6s-2,4.6-4.6,4.6-4.6-2-4.6-4.6,2-4.6,4.6-4.6Z"/>
    <path class="st3" d="M957.9,442.7c2.5,0,4.6,2,4.6,4.6s-2,4.6-4.6,4.6-4.6-2-4.6-4.6,2-4.6,4.6-4.6Z"/>
    <path class="st3" d="M957.9,393.8c2.5,0,4.6,2,4.6,4.6s-2,4.6-4.6,4.6-4.6-2-4.6-4.6,2-4.6,4.6-4.6Z"/>
    <path class="st3" d="M957.9,344.3c2.5,0,4.6,2,4.6,4.6s-2,4.6-4.6,4.6-4.6-2-4.6-4.6,2-4.6,4.6-4.6Z"/>
    <path class="st3" d="M957.9,295.6c2.5,0,4.6,2,4.6,4.6s-2,4.6-4.6,4.6-4.6-2-4.6-4.6,2-4.6,4.6-4.6Z"/>
    <path class="st3" d="M957.9,245.5c2.5,0,4.6,2,4.6,4.6s-2,4.6-4.6,4.6-4.6-2-4.6-4.6,2-4.6,4.6-4.6Z"/>
    <path class="st3" d="M1007.2,690.1c2.5,0,4.6,2,4.6,4.6s-2,4.6-4.6,4.6-4.6-2-4.6-4.6,2-4.6,4.6-4.6Z"/>
    <path class="st3" d="M1007.2,639.9c2.5,0,4.6,2,4.6,4.6s-2,4.6-4.6,4.6-4.6-2-4.6-4.6,2-4.6,4.6-4.6Z"/>
    <path class="st3" d="M1007.2,591c2.5,0,4.6,2,4.6,4.6s-2,4.6-4.6,4.6-4.6-2-4.6-4.6,2-4.6,4.6-4.6Z"/>
    <path class="st3" d="M1007.2,541.5c2.5,0,4.6,2,4.6,4.6s-2,4.6-4.6,4.6-4.6-2-4.6-4.6,2-4.6,4.6-4.6Z"/>
    <path class="st3" d="M1007.2,492.9c2.5,0,4.6,2,4.6,4.6s-2,4.6-4.6,4.6-4.6-2-4.6-4.6,2-4.6,4.6-4.6Z"/>
    <path class="st3" d="M1007.2,442.7c2.5,0,4.6,2,4.6,4.6s-2,4.6-4.6,4.6-4.6-2-4.6-4.6,2-4.6,4.6-4.6Z"/>
    <path class="st3" d="M1007.2,393.8c2.5,0,4.6,2,4.6,4.6s-2,4.6-4.6,4.6-4.6-2-4.6-4.6,2-4.6,4.6-4.6Z"/>
    <path class="st3" d="M1007.2,344.3c2.5,0,4.6,2,4.6,4.6s-2,4.6-4.6,4.6-4.6-2-4.6-4.6,2-4.6,4.6-4.6Z"/>
    <path class="st3" d="M1007.2,295.6c2.5,0,4.6,2,4.6,4.6s-2,4.6-4.6,4.6-4.6-2-4.6-4.6,2-4.6,4.6-4.6Z"/>
    <path class="st3" d="M1007.2,245.5c2.5,0,4.6,2,4.6,4.6s-2,4.6-4.6,4.6-4.6-2-4.6-4.6,2-4.6,4.6-4.6Z"/>
    <path class="st3" d="M1056.8,690.1c2.5,0,4.6,2,4.6,4.6s-2,4.6-4.6,4.6-4.6-2-4.6-4.6,2-4.6,4.6-4.6Z"/>
    <path class="st3" d="M1056.8,639.9c2.5,0,4.6,2,4.6,4.6s-2,4.6-4.6,4.6-4.6-2-4.6-4.6,2-4.6,4.6-4.6Z"/>
    <path class="st3" d="M1056.8,591c2.5,0,4.6,2,4.6,4.6s-2,4.6-4.6,4.6-4.6-2-4.6-4.6,2-4.6,4.6-4.6Z"/>
    <path class="st3" d="M1056.8,541.5c2.5,0,4.6,2,4.6,4.6s-2,4.6-4.6,4.6-4.6-2-4.6-4.6,2-4.6,4.6-4.6Z"/>
    <path class="st3" d="M1056.8,492.9c2.5,0,4.6,2,4.6,4.6s-2,4.6-4.6,4.6-4.6-2-4.6-4.6,2-4.6,4.6-4.6Z"/>
    <path class="st3" d="M1056.8,442.7c2.5,0,4.6,2,4.6,4.6s-2,4.6-4.6,4.6-4.6-2-4.6-4.6,2-4.6,4.6-4.6Z"/>
    <path class="st3" d="M1056.8,393.8c2.5,0,4.6,2,4.6,4.6s-2,4.6-4.6,4.6-4.6-2-4.6-4.6,2-4.6,4.6-4.6Z"/>
    <path class="st3" d="M1056.8,344.3c2.5,0,4.6,2,4.6,4.6s-2,4.6-4.6,4.6-4.6-2-4.6-4.6,2-4.6,4.6-4.6Z"/>
    <path class="st3" d="M1056.8,295.6c2.5,0,4.6,2,4.6,4.6s-2,4.6-4.6,4.6-4.6-2-4.6-4.6,2-4.6,4.6-4.6Z"/>
    <path class="st3" d="M1056.8,245.5c2.5,0,4.6,2,4.6,4.6s-2,4.6-4.6,4.6-4.6-2-4.6-4.6,2-4.6,4.6-4.6Z"/>
    <path class="st3" d="M1106.1,690.1c2.5,0,4.6,2,4.6,4.6s-2,4.6-4.6,4.6-4.6-2-4.6-4.6,2-4.6,4.6-4.6Z"/>
    <path class="st3" d="M1106.1,639.9c2.5,0,4.6,2,4.6,4.6s-2,4.6-4.6,4.6-4.6-2-4.6-4.6,2-4.6,4.6-4.6Z"/>
    <path class="st3" d="M1106.1,591c2.5,0,4.6,2,4.6,4.6s-2,4.6-4.6,4.6-4.6-2-4.6-4.6,2-4.6,4.6-4.6Z"/>
    <path class="st3" d="M1106.1,541.5c2.5,0,4.6,2,4.6,4.6s-2,4.6-4.6,4.6-4.6-2-4.6-4.6,2-4.6,4.6-4.6Z"/>
    <path class="st3" d="M1106.1,492.9c2.5,0,4.6,2,4.6,4.6s-2,4.6-4.6,4.6-4.6-2-4.6-4.6,2-4.6,4.6-4.6Z"/>
    <path class="st3" d="M1106.1,442.7c2.5,0,4.6,2,4.6,4.6s-2,4.6-4.6,4.6-4.6-2-4.6-4.6,2-4.6,4.6-4.6Z"/>
    <path class="st3" d="M1106.1,393.8c2.5,0,4.6,2,4.6,4.6s-2,4.6-4.6,4.6-4.6-2-4.6-4.6,2-4.6,4.6-4.6Z"/>
    <path class="st3" d="M1106.1,344.3c2.5,0,4.6,2,4.6,4.6s-2,4.6-4.6,4.6-4.6-2-4.6-4.6,2-4.6,4.6-4.6Z"/>
    <path class="st3" d="M1106.1,295.6c2.5,0,4.6,2,4.6,4.6s-2,4.6-4.6,4.6-4.6-2-4.6-4.6,2-4.6,4.6-4.6Z"/>
    <path class="st3" d="M1106.1,245.5c2.5,0,4.6,2,4.6,4.6s-2,4.6-4.6,4.6-4.6-2-4.6-4.6,2-4.6,4.6-4.6Z"/>
    <path class="st3" d="M1155.3,690.1c2.5,0,4.6,2,4.6,4.6s-2,4.6-4.6,4.6-4.6-2-4.6-4.6,2-4.6,4.6-4.6Z"/>
    <path class="st3" d="M1155.3,639.9c2.5,0,4.6,2,4.6,4.6s-2,4.6-4.6,4.6-4.6-2-4.6-4.6,2-4.6,4.6-4.6Z"/>
    <path class="st3" d="M1155.3,591c2.5,0,4.6,2,4.6,4.6s-2,4.6-4.6,4.6-4.6-2-4.6-4.6,2-4.6,4.6-4.6Z"/>
    <path class="st3" d="M1155.3,541.5c2.5,0,4.6,2,4.6,4.6s-2,4.6-4.6,4.6-4.6-2-4.6-4.6,2-4.6,4.6-4.6Z"/>
    <path class="st3" d="M1155.3,492.9c2.5,0,4.6,2,4.6,4.6s-2,4.6-4.6,4.6-4.6-2-4.6-4.6,2-4.6,4.6-4.6Z"/>
    <path class="st3" d="M1155.3,442.7c2.5,0,4.6,2,4.6,4.6s-2,4.6-4.6,4.6-4.6-2-4.6-4.6,2-4.6,4.6-4.6Z"/>
    <path class="st3" d="M1155.3,393.8c2.5,0,4.6,2,4.6,4.6s-2,4.6-4.6,4.6-4.6-2-4.6-4.6,2-4.6,4.6-4.6Z"/>
    <path class="st3" d="M1155.3,344.3c2.5,0,4.6,2,4.6,4.6s-2,4.6-4.6,4.6-4.6-2-4.6-4.6,2-4.6,4.6-4.6Z"/>
    <path class="st3" d="M1155.3,295.6c2.5,0,4.6,2,4.6,4.6s-2,4.6-4.6,4.6-4.6-2-4.6-4.6,2-4.6,4.6-4.6Z"/>
    <path class="st3" d="M1155.3,245.5c2.5,0,4.6,2,4.6,4.6s-2,4.6-4.6,4.6-4.6-2-4.6-4.6,2-4.6,4.6-4.6Z"/>
    <path class="st3" d="M1205.1,690.1c2.5,0,4.6,2,4.6,4.6s-2,4.6-4.6,4.6-4.6-2-4.6-4.6,2-4.6,4.6-4.6Z"/>
    <path class="st3" d="M1205.1,639.9c2.5,0,4.6,2,4.6,4.6s-2,4.6-4.6,4.6-4.6-2-4.6-4.6,2-4.6,4.6-4.6Z"/>
    <path class="st3" d="M1205.1,591c2.5,0,4.6,2,4.6,4.6s-2,4.6-4.6,4.6-4.6-2-4.6-4.6,2-4.6,4.6-4.6Z"/>
    <path class="st3" d="M1205.1,541.5c2.5,0,4.6,2,4.6,4.6s-2,4.6-4.6,4.6-4.6-2-4.6-4.6,2-4.6,4.6-4.6Z"/>
    <path class="st3" d="M1205.1,492.9c2.5,0,4.6,2,4.6,4.6s-2,4.6-4.6,4.6-4.6-2-4.6-4.6,2-4.6,4.6-4.6Z"/>
    <path class="st3" d="M1205.1,442.7c2.5,0,4.6,2,4.6,4.6s-2,4.6-4.6,4.6-4.6-2-4.6-4.6,2-4.6,4.6-4.6Z"/>
    <path class="st3" d="M1205.1,393.8c2.5,0,4.6,2,4.6,4.6s-2,4.6-4.6,4.6-4.6-2-4.6-4.6,2-4.6,4.6-4.6Z"/>
    <path class="st3" d="M1205.1,344.3c2.5,0,4.6,2,4.6,4.6s-2,4.6-4.6,4.6-4.6-2-4.6-4.6,2-4.6,4.6-4.6Z"/>
    <path class="st3" d="M1205.1,295.6c2.5,0,4.6,2,4.6,4.6s-2,4.6-4.6,4.6-4.6-2-4.6-4.6,2-4.6,4.6-4.6Z"/>
    <path class="st3" d="M1205.1,245.5c2.5,0,4.6,2,4.6,4.6s-2,4.6-4.6,4.6-4.6-2-4.6-4.6,2-4.6,4.6-4.6Z"/>
    <path class="st3" d="M1254.4,690.1c2.5,0,4.6,2,4.6,4.6s-2,4.6-4.6,4.6-4.6-2-4.6-4.6,2-4.6,4.6-4.6Z"/>
    <path class="st3" d="M1254.4,639.9c2.5,0,4.6,2,4.6,4.6s-2,4.6-4.6,4.6-4.6-2-4.6-4.6,2-4.6,4.6-4.6Z"/>
    <path class="st3" d="M1254.4,591c2.5,0,4.6,2,4.6,4.6s-2,4.6-4.6,4.6-4.6-2-4.6-4.6,2-4.6,4.6-4.6Z"/>
    <path class="st3" d="M1254.4,541.5c2.5,0,4.6,2,4.6,4.6s-2,4.6-4.6,4.6-4.6-2-4.6-4.6,2-4.6,4.6-4.6Z"/>
    <path class="st3" d="M1254.4,492.9c2.5,0,4.6,2,4.6,4.6s-2,4.6-4.6,4.6-4.6-2-4.6-4.6,2-4.6,4.6-4.6Z"/>
    <path class="st3" d="M1254.4,442.7c2.5,0,4.6,2,4.6,4.6s-2,4.6-4.6,4.6-4.6-2-4.6-4.6,2-4.6,4.6-4.6Z"/>
    <path class="st3" d="M1254.4,393.8c2.5,0,4.6,2,4.6,4.6s-2,4.6-4.6,4.6-4.6-2-4.6-4.6,2-4.6,4.6-4.6Z"/>
    <path class="st3" d="M1254.4,344.3c2.5,0,4.6,2,4.6,4.6s-2,4.6-4.6,4.6-4.6-2-4.6-4.6,2-4.6,4.6-4.6Z"/>
    <path class="st3" d="M1254.4,295.6c2.5,0,4.6,2,4.6,4.6s-2,4.6-4.6,4.6-4.6-2-4.6-4.6,2-4.6,4.6-4.6Z"/>
    <path class="st3" d="M1254.4,245.5c2.5,0,4.6,2,4.6,4.6s-2,4.6-4.6,4.6-4.6-2-4.6-4.6,2-4.6,4.6-4.6Z"/>
    <path class="st3" d="M1301.9,690.1c2.5,0,4.6,2,4.6,4.6s-2,4.6-4.6,4.6-4.6-2-4.6-4.6,2-4.6,4.6-4.6Z"/>
    <path class="st3" d="M1301.9,639.9c2.5,0,4.6,2,4.6,4.6s-2,4.6-4.6,4.6-4.6-2-4.6-4.6,2-4.6,4.6-4.6Z"/>
    <path class="st3" d="M1301.9,591c2.5,0,4.6,2,4.6,4.6s-2,4.6-4.6,4.6-4.6-2-4.6-4.6,2-4.6,4.6-4.6Z"/>
    <path class="st3" d="M1301.9,541.5c2.5,0,4.6,2,4.6,4.6s-2,4.6-4.6,4.6-4.6-2-4.6-4.6,2-4.6,4.6-4.6Z"/>
    <path class="st3" d="M1301.9,492.9c2.5,0,4.6,2,4.6,4.6s-2,4.6-4.6,4.6-4.6-2-4.6-4.6,2-4.6,4.6-4.6Z"/>
    <path class="st3" d="M1301.9,442.7c2.5,0,4.6,2,4.6,4.6s-2,4.6-4.6,4.6-4.6-2-4.6-4.6,2-4.6,4.6-4.6Z"/>
    <path class="st3" d="M1301.9,393.8c2.5,0,4.6,2,4.6,4.6s-2,4.6-4.6,4.6-4.6-2-4.6-4.6,2-4.6,4.6-4.6Z"/>
    <path class="st3" d="M1301.9,344.3c2.5,0,4.6,2,4.6,4.6s-2,4.6-4.6,4.6-4.6-2-4.6-4.6,2-4.6,4.6-4.6Z"/>
    <path class="st3" d="M1301.9,295.6c2.5,0,4.6,2,4.6,4.6s-2,4.6-4.6,4.6-4.6-2-4.6-4.6,2-4.6,4.6-4.6Z"/>
    <path class="st3" d="M1301.9,245.5c2.5,0,4.6,2,4.6,4.6s-2,4.6-4.6,4.6-4.6-2-4.6-4.6,2-4.6,4.6-4.6Z"/>
    <path class="st3" d="M1351.3,690.1c2.5,0,4.6,2,4.6,4.6s-2,4.6-4.6,4.6-4.6-2-4.6-4.6,2-4.6,4.6-4.6Z"/>
    <path class="st3" d="M1351.3,639.9c2.5,0,4.6,2,4.6,4.6s-2,4.6-4.6,4.6-4.6-2-4.6-4.6,2-4.6,4.6-4.6Z"/>
    <path class="st3" d="M1351.3,591c2.5,0,4.6,2,4.6,4.6s-2,4.6-4.6,4.6-4.6-2-4.6-4.6,2-4.6,4.6-4.6Z"/>
    <path class="st3" d="M1351.3,541.5c2.5,0,4.6,2,4.6,4.6s-2,4.6-4.6,4.6-4.6-2-4.6-4.6,2-4.6,4.6-4.6Z"/>
    <path class="st3" d="M1351.3,492.9c2.5,0,4.6,2,4.6,4.6s-2,4.6-4.6,4.6-4.6-2-4.6-4.6,2-4.6,4.6-4.6Z"/>
    <path class="st3" d="M1351.3,442.7c2.5,0,4.6,2,4.6,4.6s-2,4.6-4.6,4.6-4.6-2-4.6-4.6,2-4.6,4.6-4.6Z"/>
    <path class="st3" d="M1351.3,393.8c2.5,0,4.6,2,4.6,4.6s-2,4.6-4.6,4.6-4.6-2-4.6-4.6,2-4.6,4.6-4.6Z"/>
    <path class="st3" d="M1351.3,344.3c2.5,0,4.6,2,4.6,4.6s-2,4.6-4.6,4.6-4.6-2-4.6-4.6,2-4.6,4.6-4.6Z"/>
    <path class="st3" d="M1351.3,295.6c2.5,0,4.6,2,4.6,4.6s-2,4.6-4.6,4.6-4.6-2-4.6-4.6,2-4.6,4.6-4.6Z"/>
    <path class="st3" d="M1351.3,245.5c2.5,0,4.6,2,4.6,4.6s-2,4.6-4.6,4.6-4.6-2-4.6-4.6,2-4.6,4.6-4.6Z"/>
    <path class="st3" d="M1399.9,690.1c2.5,0,4.6,2,4.6,4.6s-2,4.6-4.6,4.6-4.6-2-4.6-4.6,2-4.6,4.6-4.6Z"/>
    <path class="st3" d="M1399.9,639.9c2.5,0,4.6,2,4.6,4.6s-2,4.6-4.6,4.6-4.6-2-4.6-4.6,2-4.6,4.6-4.6Z"/>
    <path class="st3" d="M1399.9,591c2.5,0,4.6,2,4.6,4.6s-2,4.6-4.6,4.6-4.6-2-4.6-4.6,2-4.6,4.6-4.6Z"/>
    <path class="st3" d="M1399.9,541.5c2.5,0,4.6,2,4.6,4.6s-2,4.6-4.6,4.6-4.6-2-4.6-4.6,2-4.6,4.6-4.6Z"/>
    <path class="st3" d="M1399.9,492.9c2.5,0,4.6,2,4.6,4.6s-2,4.6-4.6,4.6-4.6-2-4.6-4.6,2-4.6,4.6-4.6Z"/>
    <path class="st3" d="M1399.9,442.7c2.5,0,4.6,2,4.6,4.6s-2,4.6-4.6,4.6-4.6-2-4.6-4.6,2-4.6,4.6-4.6Z"/>
    <path class="st3" d="M1399.9,393.8c2.5,0,4.6,2,4.6,4.6s-2,4.6-4.6,4.6-4.6-2-4.6-4.6,2-4.6,4.6-4.6Z"/>
    <path class="st3" d="M1399.9,344.3c2.5,0,4.6,2,4.6,4.6s-2,4.6-4.6,4.6-4.6-2-4.6-4.6,2-4.6,4.6-4.6Z"/>
    <path class="st3" d="M1399.9,295.6c2.5,0,4.6,2,4.6,4.6s-2,4.6-4.6,4.6-4.6-2-4.6-4.6,2-4.6,4.6-4.6Z"/>
    <path class="st3" d="M1399.9,245.5c2.5,0,4.6,2,4.6,4.6s-2,4.6-4.6,4.6-4.6-2-4.6-4.6,2-4.6,4.6-4.6Z"/>
    <path class="st3" d="M1449.3,690.1c2.5,0,4.6,2,4.6,4.6s-2,4.6-4.6,4.6-4.6-2-4.6-4.6,2-4.6,4.6-4.6Z"/>
    <path class="st3" d="M1449.3,639.9c2.5,0,4.6,2,4.6,4.6s-2,4.6-4.6,4.6-4.6-2-4.6-4.6,2-4.6,4.6-4.6Z"/>
    <path class="st3" d="M1449.3,591c2.5,0,4.6,2,4.6,4.6s-2,4.6-4.6,4.6-4.6-2-4.6-4.6,2-4.6,4.6-4.6Z"/>
    <path class="st3" d="M1449.3,541.5c2.5,0,4.6,2,4.6,4.6s-2,4.6-4.6,4.6-4.6-2-4.6-4.6,2-4.6,4.6-4.6Z"/>
    <path class="st3" d="M1449.3,492.9c2.5,0,4.6,2,4.6,4.6s-2,4.6-4.6,4.6-4.6-2-4.6-4.6,2-4.6,4.6-4.6Z"/>
    <path class="st3" d="M1449.3,442.7c2.5,0,4.6,2,4.6,4.6s-2,4.6-4.6,4.6-4.6-2-4.6-4.6,2-4.6,4.6-4.6Z"/>
    <path class="st3" d="M1449.3,393.8c2.5,0,4.6,2,4.6,4.6s-2,4.6-4.6,4.6-4.6-2-4.6-4.6,2-4.6,4.6-4.6Z"/>
    <path class="st3" d="M1449.3,344.3c2.5,0,4.6,2,4.6,4.6s-2,4.6-4.6,4.6-4.6-2-4.6-4.6,2-4.6,4.6-4.6Z"/>
    <path class="st3" d="M1449.3,295.6c2.5,0,4.6,2,4.6,4.6s-2,4.6-4.6,4.6-4.6-2-4.6-4.6,2-4.6,4.6-4.6Z"/>
    <path class="st3" d="M1449.3,245.5c2.5,0,4.6,2,4.6,4.6s-2,4.6-4.6,4.6-4.6-2-4.6-4.6,2-4.6,4.6-4.6Z"/>
    <path class="st3" d="M1498.6,690.1c2.5,0,4.6,2,4.6,4.6s-2,4.6-4.6,4.6-4.6-2-4.6-4.6,2-4.6,4.6-4.6Z"/>
    <path class="st3" d="M1498.6,639.9c2.5,0,4.6,2,4.6,4.6s-2,4.6-4.6,4.6-4.6-2-4.6-4.6,2-4.6,4.6-4.6Z"/>
    <path class="st3" d="M1498.6,591c2.5,0,4.6,2,4.6,4.6s-2,4.6-4.6,4.6-4.6-2-4.6-4.6,2-4.6,4.6-4.6Z"/>
    <path class="st3" d="M1498.6,541.5c2.5,0,4.6,2,4.6,4.6s-2,4.6-4.6,4.6-4.6-2-4.6-4.6,2-4.6,4.6-4.6Z"/>
    <path class="st3" d="M1498.6,492.9c2.5,0,4.6,2,4.6,4.6s-2,4.6-4.6,4.6-4.6-2-4.6-4.6,2-4.6,4.6-4.6Z"/>
    <path class="st3" d="M1498.6,442.7c2.5,0,4.6,2,4.6,4.6s-2,4.6-4.6,4.6-4.6-2-4.6-4.6,2-4.6,4.6-4.6Z"/>
    <path class="st3" d="M1498.6,393.8c2.5,0,4.6,2,4.6,4.6s-2,4.6-4.6,4.6-4.6-2-4.6-4.6,2-4.6,4.6-4.6Z"/>
    <path class="st3" d="M1498.6,344.3c2.5,0,4.6,2,4.6,4.6s-2,4.6-4.6,4.6-4.6-2-4.6-4.6,2-4.6,4.6-4.6Z"/>
    <path class="st3" d="M1498.6,295.6c2.5,0,4.6,2,4.6,4.6s-2,4.6-4.6,4.6-4.6-2-4.6-4.6,2-4.6,4.6-4.6Z"/>
    <path class="st3" d="M1498.6,245.5c2.5,0,4.6,2,4.6,4.6s-2,4.6-4.6,4.6-4.6-2-4.6-4.6,2-4.6,4.6-4.6Z"/>
    <path class="st3" d="M1548.2,690.1c2.5,0,4.6,2,4.6,4.6s-2,4.6-4.6,4.6-4.6-2-4.6-4.6,2-4.6,4.6-4.6Z"/>
    <path class="st3" d="M1548.2,639.9c2.5,0,4.6,2,4.6,4.6s-2,4.6-4.6,4.6-4.6-2-4.6-4.6,2-4.6,4.6-4.6Z"/>
    <path class="st3" d="M1548.2,591c2.5,0,4.6,2,4.6,4.6s-2,4.6-4.6,4.6-4.6-2-4.6-4.6,2-4.6,4.6-4.6Z"/>
    <path class="st3" d="M1548.2,541.5c2.5,0,4.6,2,4.6,4.6s-2,4.6-4.6,4.6-4.6-2-4.6-4.6,2-4.6,4.6-4.6Z"/>
    <path class="st3" d="M1548.2,492.9c2.5,0,4.6,2,4.6,4.6s-2,4.6-4.6,4.6-4.6-2-4.6-4.6,2-4.6,4.6-4.6Z"/>
    <path class="st3" d="M1548.2,442.7c2.5,0,4.6,2,4.6,4.6s-2,4.6-4.6,4.6-4.6-2-4.6-4.6,2-4.6,4.6-4.6Z"/>
    <path class="st3" d="M1548.2,393.8c2.5,0,4.6,2,4.6,4.6s-2,4.6-4.6,4.6-4.6-2-4.6-4.6,2-4.6,4.6-4.6Z"/>
    <path class="st3" d="M1548.2,344.3c2.5,0,4.6,2,4.6,4.6s-2,4.6-4.6,4.6-4.6-2-4.6-4.6,2-4.6,4.6-4.6Z"/>
    <path class="st3" d="M1548.2,295.6c2.5,0,4.6,2,4.6,4.6s-2,4.6-4.6,4.6-4.6-2-4.6-4.6,2-4.6,4.6-4.6Z"/>
    <path class="st3" d="M1548.2,245.5c2.5,0,4.6,2,4.6,4.6s-2,4.6-4.6,4.6-4.6-2-4.6-4.6,2-4.6,4.6-4.6Z"/>
    <path class="st3" d="M1597.5,690.1c2.5,0,4.6,2,4.6,4.6s-2,4.6-4.6,4.6-4.6-2-4.6-4.6,2-4.6,4.6-4.6Z"/>
    <path class="st3" d="M1597.5,639.9c2.5,0,4.6,2,4.6,4.6s-2,4.6-4.6,4.6-4.6-2-4.6-4.6,2-4.6,4.6-4.6Z"/>
    <path class="st3" d="M1597.5,591c2.5,0,4.6,2,4.6,4.6s-2,4.6-4.6,4.6-4.6-2-4.6-4.6,2-4.6,4.6-4.6Z"/>
    <path class="st3" d="M1597.5,541.5c2.5,0,4.6,2,4.6,4.6s-2,4.6-4.6,4.6-4.6-2-4.6-4.6,2-4.6,4.6-4.6Z"/>
    <path class="st3" d="M1597.5,492.9c2.5,0,4.6,2,4.6,4.6s-2,4.6-4.6,4.6-4.6-2-4.6-4.6,2-4.6,4.6-4.6Z"/>
    <path class="st3" d="M1597.5,442.7c2.5,0,4.6,2,4.6,4.6s-2,4.6-4.6,4.6-4.6-2-4.6-4.6,2-4.6,4.6-4.6Z"/>
    <path class="st3" d="M1597.5,393.8c2.5,0,4.6,2,4.6,4.6s-2,4.6-4.6,4.6-4.6-2-4.6-4.6,2-4.6,4.6-4.6Z"/>
    <path class="st3" d="M1597.5,344.3c2.5,0,4.6,2,4.6,4.6s-2,4.6-4.6,4.6-4.6-2-4.6-4.6,2-4.6,4.6-4.6Z"/>
    <path class="st3" d="M1597.5,295.6c2.5,0,4.6,2,4.6,4.6s-2,4.6-4.6,4.6-4.6-2-4.6-4.6,2-4.6,4.6-4.6Z"/>
    <path class="st3" d="M1597.5,245.5c2.5,0,4.6,2,4.6,4.6s-2,4.6-4.6,4.6-4.6-2-4.6-4.6,2-4.6,4.6-4.6Z"/>
    <path class="st3" d="M1646.7,690.1c2.5,0,4.6,2,4.6,4.6s-2,4.6-4.6,4.6-4.6-2-4.6-4.6,2-4.6,4.6-4.6Z"/>
    <path class="st3" d="M1646.7,639.9c2.5,0,4.6,2,4.6,4.6s-2,4.6-4.6,4.6-4.6-2-4.6-4.6,2-4.6,4.6-4.6Z"/>
    <path class="st3" d="M1646.7,591c2.5,0,4.6,2,4.6,4.6s-2,4.6-4.6,4.6-4.6-2-4.6-4.6,2-4.6,4.6-4.6Z"/>
    <path class="st3" d="M1646.7,541.5c2.5,0,4.6,2,4.6,4.6s-2,4.6-4.6,4.6-4.6-2-4.6-4.6,2-4.6,4.6-4.6Z"/>
    <path class="st3" d="M1646.7,492.9c2.5,0,4.6,2,4.6,4.6s-2,4.6-4.6,4.6-4.6-2-4.6-4.6,2-4.6,4.6-4.6Z"/>
    <path class="st3" d="M1646.7,442.7c2.5,0,4.6,2,4.6,4.6s-2,4.6-4.6,4.6-4.6-2-4.6-4.6,2-4.6,4.6-4.6Z"/>
    <path class="st3" d="M1646.7,393.8c2.5,0,4.6,2,4.6,4.6s-2,4.6-4.6,4.6-4.6-2-4.6-4.6,2-4.6,4.6-4.6Z"/>
    <path class="st3" d="M1646.7,344.3c2.5,0,4.6,2,4.6,4.6s-2,4.6-4.6,4.6-4.6-2-4.6-4.6,2-4.6,4.6-4.6Z"/>
    <path class="st3" d="M1646.7,295.6c2.5,0,4.6,2,4.6,4.6s-2,4.6-4.6,4.6-4.6-2-4.6-4.6,2-4.6,4.6-4.6Z"/>
    <path class="st3" d="M1646.7,245.5c2.5,0,4.6,2,4.6,4.6s-2,4.6-4.6,4.6-4.6-2-4.6-4.6,2-4.6,4.6-4.6Z"/>
  </g>
  <rect class="st5" x="221.9" y="380.3" width="1427.9" height="40" transform="translate(-35.7 96.6) rotate(-5.8)"/>
  <g>
    <circle class="st0" cx="244.8" cy="471.5" r="30.5" transform="translate(-259.8 637.6) rotate(-80.8)"/>
    <path class="st5" d="M244.8,522c-27.8,0-50.5-22.7-50.5-50.5s22.7-50.5,50.5-50.5,50.5,22.7,50.5,50.5-22.7,50.5-50.5,50.5ZM244.8,461c-5.8,0-10.5,4.7-10.5,10.5s4.7,10.5,10.5,10.5,10.5-4.7,10.5-10.5-4.7-10.5-10.5-10.5Z"/>
  </g>
  <g>
    <g class="st2">
      <g class="st2">
        <path class="st3" d="M250.3,589.7h-9.7l-2.5-8.2h-12.4l-2.6,8.2h-9.5l12.8-36.3h11.3l12.7,36.3ZM227.4,575.1h8.9l-4.5-14.7-4.5,14.7Z"/>
        <path class="st3" d="M287.3,553.4v36.3h-10.5l-11.3-19.6-2.8-5.4h0l.2,6.7v18.3h-8.4v-36.3h10.5l11.3,19.6,2.8,5.4h0l-.2-6.7v-18.3h8.4Z"/>
        <path class="st3" d="M325.8,553.4v7.3h-11.8v29h-9.5v-29h-11.9v-7.3h33.2Z"/>
        <path class="st3" d="M331.2,589.7v-36.3h28.3v7.3h-18.8v7.4h15v6.9h-15v7.4h19.5v7.3h-29Z"/>
        <path class="st3" d="M380.1,552.9c3.4,0,6.4.5,8.9,1.6s4.8,2.6,6.7,4.6l-4.6,6.1c-1.6-1.7-3.3-2.9-5.1-3.7-1.8-.8-3.9-1.2-6.2-1.2s-3.5.3-4.3,1c-.9.7-1.3,1.5-1.3,2.4s.4,1.4,1.1,2c.7.5,1.9,1,3.5,1.3l6.1,1.4c3.6.8,6.3,2.1,8,3.7,1.7,1.6,2.5,3.8,2.5,6.4s-.7,4.7-2,6.5c-1.3,1.8-3.1,3.1-5.4,4-2.3.9-5,1.3-7.9,1.3s-7-.6-10.1-1.8c-3-1.2-5.5-2.8-7.3-4.7l4.6-6.3c1.4,1.6,3.2,2.9,5.5,3.9,2.3,1,4.7,1.6,7.2,1.6,3.8,0,5.7-1.1,5.7-3.4s-.3-1.4-.9-2c-.6-.5-1.6-1-3.1-1.3l-6.7-1.5c-2.1-.4-3.9-1.1-5.5-1.9-1.6-.8-2.9-1.9-3.8-3.2-.9-1.3-1.4-3-1.4-5s.6-4.3,1.9-6.1c1.2-1.8,3-3.2,5.4-4.2,2.3-1,5.2-1.5,8.4-1.5Z"/>
      </g>
      <g class="st2">
        <path class="st4" d="M216.6,655.7v-6c4.1-2.6,7.5-5,10-7.1,2.5-2.1,4.4-4.2,5.6-6,1.2-1.9,1.8-3.6,1.8-5.3s-.4-2.6-1.2-3.5c-.8-.9-2-1.4-3.7-1.4s-3.1.6-4,1.9c-1,1.3-1.5,3.1-1.5,5.5l-8.1-2.5c0-2.7.7-4.9,2-6.8,1.2-1.9,2.9-3.2,5-4.2,2.1-.9,4.5-1.4,7.3-1.4s5.8.6,7.8,1.7c2,1.2,3.5,2.6,4.5,4.4,1,1.8,1.4,3.6,1.4,5.5,0,3.5-1.3,6.7-4,9.6-2.7,2.9-6.5,5.7-11.4,8.6h0c.9,0,2.1,0,3.5-.1,1.4,0,2.7,0,3.8,0h8.5v7.2h-27.2Z"/>
        <path class="st4" d="M262.2,618.9c5,0,8.8,1.6,11.3,4.8,2.6,3.2,3.9,7.8,3.9,13.8s-.7,7.9-2,10.7c-1.3,2.8-3.1,4.8-5.4,6.1-2.3,1.3-4.9,2-7.9,2s-5.9-.6-8.2-1.9c-2.3-1.3-4.1-3.3-5.2-6l8.5-3.4c.3,1.3.9,2.3,1.7,3,.8.7,2,1.1,3.4,1.1,2.3,0,4-.9,5-2.7,1-1.8,1.6-4.3,1.6-7.6v-.9h-.2c-.6,1.6-1.8,2.9-3.4,3.6-1.7.8-3.4,1.2-5.3,1.2s-4.3-.5-6.1-1.4c-1.8-.9-3.1-2.2-4.1-3.9-1-1.7-1.5-3.7-1.5-6s.6-4.8,1.7-6.7c1.2-1.9,2.8-3.3,4.8-4.3,2.1-1,4.5-1.5,7.3-1.5ZM262.2,626.1c-1.6,0-2.9.4-3.8,1.3-.9.9-1.4,2.1-1.4,3.7s.5,2.6,1.4,3.4c1,.8,2.2,1.2,3.7,1.2s2.7-.4,3.7-1.3c1-.9,1.5-2.1,1.5-3.5s-.5-2.7-1.5-3.6c-1-.9-2.2-1.3-3.7-1.3Z"/>
        <path class="st4" d="M287.4,646.2c2,0,3.5.7,4.5,2,1,1.4,1.5,2.9,1.5,4.7s-.4,3.2-1.1,4.8c-.7,1.5-1.7,2.9-2.8,4-1.2,1.2-2.4,2-3.8,2.6l-3.8-2.8c1.5-.6,2.9-1.5,4-2.5,1.2-1,2-2.2,2.5-3.3l-.3-.2c-.2.1-.5.3-.7.3s-.7.1-1.1.1c-1,0-2-.4-2.9-1.1-1-.7-1.5-1.9-1.5-3.4s.6-3,1.7-3.9c1.1-.9,2.4-1.3,3.8-1.3Z"/>
        <path class="st4" d="M311.3,656.3c-3.2,0-5.9-.6-8.2-1.8-2.3-1.2-4.3-3.2-5.9-6l8.3-4.1c.4,1.5,1.1,2.6,2,3.5.9.9,2.2,1.3,4,1.3s3-.4,4-1.3c1-.9,1.5-2.2,1.5-3.9,0-3.3-1.8-5-5.5-5s-4.5.7-5.8,2.1l-7.1-1.3,2.3-20.2h22.9v7.3h-16l-.9,7.3-.2.9h0c.7-.8,1.8-1.5,3.1-1.9,1.3-.4,2.8-.7,4.4-.7,2.4,0,4.4.5,6.1,1.4,1.7,1,3,2.3,3.9,3.9.9,1.6,1.3,3.5,1.3,5.7s-.7,5.4-2,7.3c-1.3,1.9-3.1,3.3-5.2,4.3-2.2.9-4.5,1.4-7,1.4Z"/>
        <path class="st4" d="M347.7,655.7v-8h-17.7v-5.9c.3-.5.8-1.3,1.3-2.1.5-.9,1.2-1.8,1.9-2.9l11.8-17.3h11.1v21.8h5.6v6.5h-5.6v8h-8.4ZM337.6,641.2h10.2v-11c0-.7,0-1.5,0-2.3,0-.8,0-1.6.1-2.4h-.1c-.4.8-.8,1.6-1.3,2.4-.5.8-1,1.6-1.4,2.2l-6.4,9.4c-.4.6-.8,1.2-1.2,1.7Z"/>
        <path class="st4" d="M382.3,655.7v-27.5h8.4l.3,5.3c.9-1.9,2.1-3.4,3.7-4.4,1.6-1,3.4-1.5,5.5-1.5s3.8.5,5.3,1.4c1.5.9,2.6,2.3,3.4,4.1.8-1.8,2.1-3.2,3.8-4.1,1.7-.9,3.5-1.4,5.5-1.4s5,.8,6.7,2.4c1.8,1.6,2.7,4.1,2.7,7.3v18.3h-9.4v-16.2c0-1.8-.3-3-1-3.7-.7-.7-1.6-1-2.7-1s-2.5.5-3.5,1.6c-.9,1-1.4,2.6-1.4,4.6v14.7h-9.3v-16.2c0-1.8-.3-3-1-3.7-.7-.7-1.6-1-2.7-1s-2.4.5-3.4,1.5c-1,1-1.5,2.6-1.5,4.9v14.5h-9.4Z"/>
        <path class="st4" d="M438.7,625c-1.9,0-3.3-.4-4.2-1.1-.9-.7-1.3-1.8-1.3-3.4s.4-2.7,1.3-3.4c.9-.7,2.2-1.1,4.2-1.1s3.2.4,4.1,1.1c.9.7,1.3,1.9,1.3,3.4s-.4,2.7-1.3,3.4c-.9.7-2.3,1.1-4.1,1.1ZM443.4,628.2v27.5h-9.4v-27.5h9.4Z"/>
        <path class="st4" d="M459.3,616.5v29.8c0,1.2.2,2.1.6,2.6.4.5,1.1.8,2,.8s1,0,1.4-.1c.4,0,.8-.2,1.3-.3l-.6,5.6c-.7.4-1.5.7-2.6,1-1.1.3-2.1.4-3.1.4-2.9,0-5.1-.7-6.4-2-1.3-1.4-2-3.6-2-6.7v-31h9.4Z"/>
        <path class="st4" d="M468,655.7v-39.2h9.4v16.7c.8-1.8,2-3.2,3.5-4.2,1.5-.9,3.2-1.4,5.2-1.4,2.8,0,5.1.8,6.9,2.5,1.8,1.7,2.6,4.1,2.6,7.3v18.3h-9.4v-15.7c0-2-.4-3.3-1.1-4.1-.7-.8-1.7-1.1-2.8-1.1s-2.5.5-3.5,1.5c-1,1-1.5,2.7-1.5,5v14.5h-9.4Z"/>
        <path class="st4" d="M515.2,627.7c2.9,0,5.4.6,7.6,1.7,2.2,1.1,3.9,2.8,5.1,4.9,1.2,2.1,1.8,4.7,1.8,7.7s-.6,5.6-1.8,7.7c-1.2,2.1-2.9,3.8-5.1,4.9-2.2,1.1-4.7,1.7-7.6,1.7s-5.4-.6-7.6-1.7c-2.2-1.1-3.9-2.8-5.1-4.9-1.2-2.1-1.8-4.7-1.8-7.7s.6-5.6,1.8-7.7c1.2-2.1,2.9-3.8,5.1-4.9,2.2-1.1,4.7-1.7,7.6-1.7ZM526.1,616.2c-.1,2.9-.8,5.1-2.1,6.6-1.3,1.4-2.8,2.2-4.7,2.2s-2-.2-2.7-.5c-.7-.3-1.4-.7-1.9-1.1-.6-.4-1.1-.8-1.5-1.1-.5-.3-1-.5-1.5-.5s-1.1.3-1.4.8c-.3.5-.5,1.3-.7,2.3h-5.3c.1-2.9.9-5.1,2.2-6.6,1.3-1.4,3-2.2,5-2.2s1.8.2,2.5.5c.7.3,1.3.7,1.8,1.1.5.4,1,.8,1.5,1.1.5.3.9.5,1.5.5,1.1,0,1.8-1,2.1-3.1h5.3ZM515.2,634.3c-1.6,0-2.9.6-3.8,1.8-.9,1.2-1.3,3.1-1.3,5.9s.4,4.6,1.3,5.8c.9,1.2,2.2,1.8,3.8,1.8s2.9-.6,3.8-1.8c.9-1.2,1.3-3.2,1.3-5.8s-.4-4.7-1.3-5.9c-.9-1.2-2.2-1.8-3.8-1.8Z"/>
        <path class="st4" d="M548.5,656.3c-4.6,0-8.2-1.2-10.9-3.7-2.7-2.5-4-6-4-10.6s.6-5.6,1.8-7.7c1.2-2.1,2.9-3.8,5.1-4.9s4.6-1.7,7.5-1.7,5.4.6,7.4,1.7,3.6,2.7,4.6,4.6c1.1,2,1.6,4.2,1.6,6.7s0,1.4,0,2c0,.6-.1,1.2-.1,1.6h-18.8c.3,1.9.9,3.3,1.9,4.1,1,.8,2.3,1.2,3.9,1.2s2.5-.3,3.3-.8,1.4-1.3,1.8-2.3l7.5,2.5c-.5,1.6-1.4,2.9-2.7,4-1.3,1.1-2.8,1.9-4.5,2.4-1.7.6-3.6.8-5.5.8ZM548,634.2c-3,0-4.7,1.7-5.3,5.1h10.1c-.4-3.4-2-5.1-4.8-5.1Z"/>
        <path class="st4" d="M578.4,656.3c-2.8,0-5.3-.4-7.6-1.3-2.3-.9-4.3-2.2-5.9-3.9l4.4-5.2c.9,1.2,2.1,2.2,3.7,2.9,1.5.8,3.2,1.2,5.1,1.2s2.1-.2,2.8-.5c.7-.3,1.1-.8,1.1-1.5s-.2-.9-.5-1.2c-.4-.3-1.1-.6-2.2-.8l-3.8-.8c-3.4-.7-5.9-1.7-7.3-3.1-1.4-1.4-2.2-3.2-2.2-5.4s.5-2.9,1.4-4.3c.9-1.4,2.3-2.5,4.2-3.4,1.9-.9,4.3-1.3,7.3-1.3,5.7,0,9.8,1.6,12.4,4.7l-4.5,5.1c-.9-1.1-2-2-3.4-2.6-1.4-.6-2.8-.9-4.2-.9-2.7,0-4,.7-4,2s.2.9.7,1.3c.5.4,1.3.7,2.6.9l5,1c2.8.6,4.9,1.5,6.1,2.8,1.2,1.3,1.9,3,1.9,4.9s-1.1,4.9-3.2,6.7c-2.1,1.8-5.4,2.7-9.7,2.7Z"/>
      </g>
      <g class="st2">
        <path class="st7" d="M226.3,710.2c-1.9,0-3.6-.5-5.1-1.4-1.6-.9-2.8-2.3-3.7-4-.9-1.8-1.4-3.8-1.4-6.3s.5-4.6,1.5-6.3c1-1.7,2.3-3.1,3.9-4s3.4-1.4,5.2-1.4,3.1.4,4.3,1.1c1.3.7,2.2,1.7,2.8,3v-14h3.6v32.8h-3.1l-.2-4.2c-.6,1.5-1.6,2.7-3.1,3.5-1.4.8-3,1.2-4.6,1.2ZM226.6,707c2.1,0,3.8-.8,5.2-2.4,1.3-1.6,2-3.8,2-6.5s-.6-4.6-1.9-6.1c-1.3-1.5-3-2.2-5-2.2s-4,.8-5.3,2.3c-1.3,1.6-1.9,3.6-1.9,6.2s.6,4.7,1.8,6.2c1.2,1.6,3,2.3,5.2,2.3Z"/>
        <path class="st7" d="M255.1,710.2c-2.1,0-4-.5-5.7-1.4-1.7-.9-3-2.3-3.9-4-.9-1.8-1.4-3.8-1.4-6.3s.5-4.5,1.4-6.3c.9-1.8,2.2-3.1,3.8-4s3.5-1.4,5.5-1.4,3.9.5,5.4,1.4c1.5.9,2.6,2.1,3.4,3.7.8,1.5,1.2,3.3,1.2,5.2s0,1,0,1.4c0,.4,0,.8-.1,1.1h-17c.2,2.4.9,4.2,2.2,5.5,1.3,1.3,3,2,5.1,2s3-.3,4-.9c1-.6,1.9-1.5,2.5-2.6l2.8,1.7c-.8,1.5-2,2.7-3.6,3.6-1.6.9-3.5,1.4-5.6,1.4ZM254.8,689.9c-1.9,0-3.4.6-4.7,1.7-1.2,1.1-2,2.7-2.3,4.7h13.4c0-2-.7-3.6-1.9-4.7-1.2-1.1-2.7-1.7-4.5-1.7Z"/>
        <path class="st7" d="M287,709.7v-32.8h3.6v13.7c.8-1.3,1.8-2.3,3.1-2.9,1.3-.6,2.7-.9,4.2-.9s3.1.3,4.4.9c1.3.6,2.4,1.6,3.2,2.8.8,1.3,1.2,2.9,1.2,4.8v14.4h-3.6v-13.1c0-2.5-.5-4.2-1.6-5.2-1.1-1-2.4-1.5-3.9-1.5s-2.2.3-3.2.8c-1.1.5-2,1.3-2.7,2.5-.7,1.2-1.1,2.7-1.1,4.6v11.9h-3.6Z"/>
        <path class="st7" d="M328,695.2c0-1.7-.5-3-1.4-3.9-.9-.9-2.2-1.4-3.8-1.4s-2.9.3-4,1c-1.1.7-1.9,1.8-2.4,3.3l-2.9-1.8c.6-1.7,1.7-3,3.3-4.1s3.6-1.6,6-1.6,3.1.3,4.4.8c1.3.6,2.4,1.4,3.1,2.5.8,1.1,1.1,2.6,1.1,4.3v10.9c0,1.1.6,1.6,1.7,1.6s1.1,0,1.7-.2l-.2,2.8c-.6.3-1.4.5-2.3.5s-2.1-.3-2.9-.8c-.8-.5-1.3-1.4-1.6-2.5-.8,1.2-1.8,2-3.2,2.6-1.3.6-2.7.8-4,.8s-2.6-.2-3.7-.7c-1.1-.5-2-1.1-2.7-2-.7-.9-1-2-1-3.4s.6-3.1,1.7-4.2c1.1-1.1,2.7-1.8,4.7-2.2l8.2-1.6v-.9ZM317.1,703.9c0,.9.4,1.7,1.1,2.3.7.6,1.8.9,3.1.9s2.3-.2,3.3-.6c1-.4,1.8-1,2.5-1.8s.9-1.9.9-3.2v-2.4l-6.5,1.3c-1.5.3-2.6.7-3.3,1.3-.7.5-1.1,1.3-1.1,2.2Z"/>
        <path class="st7" d="M351.4,710.2c-1.7,0-3.2-.4-4.6-1.2-1.4-.8-2.4-1.9-3.1-3.2l-.2,4h-3.1v-32.8h3.6v13.9c.7-1.2,1.7-2.1,3-2.9,1.3-.7,2.8-1.1,4.4-1.1s3.6.5,5.1,1.4c1.6.9,2.8,2.3,3.7,4,.9,1.7,1.4,3.8,1.4,6.3s-.5,4.5-1.4,6.3c-.9,1.8-2.2,3.1-3.8,4-1.6.9-3.3,1.4-5.1,1.4ZM351,707c2.2,0,4-.8,5.2-2.3,1.2-1.6,1.9-3.6,1.9-6.2s-.6-4.6-1.8-6.2c-1.2-1.6-3-2.3-5.2-2.3s-3.8.8-5.1,2.4c-1.3,1.6-2,3.7-2,6.3s.7,4.6,2,6.2c1.3,1.5,3,2.3,5.1,2.3Z"/>
        <path class="st7" d="M370.3,682.9c-.8,0-1.5-.2-2-.7-.5-.5-.7-1.1-.7-2s.2-1.5.7-2c.5-.5,1.1-.7,2-.7s1.5.2,2,.7.7,1.1.7,2-.2,1.5-.7,2-1.1.7-2,.7ZM372.1,687.2v22.5h-3.6v-22.5h3.6Z"/>
        <path class="st7" d="M394,687.2v3.1h-8.2v13.2c0,1.1.3,1.9.9,2.5s1.4.8,2.4.8,1.6-.2,2.2-.5,1.2-.7,1.7-1.2l1.3,3c-.7.6-1.5,1.1-2.5,1.5-.9.4-2,.5-3.3.5s-2.2-.2-3.2-.6c-1-.4-1.8-1-2.4-1.9-.6-.9-.9-2-.9-3.5v-13.8h-4.5v-3.1h4.5v-5.4l3.6-1v6.4h8.2Z"/>
        <path class="st7" d="M412.5,695.2c0-1.7-.5-3-1.4-3.9-.9-.9-2.2-1.4-3.8-1.4s-2.9.3-4,1c-1.1.7-1.9,1.8-2.4,3.3l-2.9-1.8c.6-1.7,1.7-3,3.3-4.1s3.6-1.6,6-1.6,3.1.3,4.4.8c1.3.6,2.4,1.4,3.1,2.5.8,1.1,1.1,2.6,1.1,4.3v10.9c0,1.1.6,1.6,1.7,1.6s1.1,0,1.7-.2l-.2,2.8c-.6.3-1.4.5-2.3.5s-2.1-.3-2.9-.8c-.8-.5-1.3-1.4-1.6-2.5-.8,1.2-1.8,2-3.2,2.6-1.3.6-2.7.8-4,.8s-2.6-.2-3.7-.7c-1.1-.5-2-1.1-2.7-2-.7-.9-1-2-1-3.4s.6-3.1,1.7-4.2c1.1-1.1,2.7-1.8,4.7-2.2l8.2-1.6v-.9ZM401.6,703.9c0,.9.4,1.7,1.1,2.3.7.6,1.8.9,3.1.9s2.3-.2,3.3-.6c1-.4,1.8-1,2.5-1.8s.9-1.9.9-3.2v-2.4l-6.5,1.3c-1.5.3-2.6.7-3.3,1.3-.7.5-1.1,1.3-1.1,2.2Z"/>
        <path class="st7" d="M424.8,709.7v-22.5h3.1l.2,3.5c.8-1.4,1.8-2.4,3.2-3,1.4-.6,2.8-.9,4.4-.9s3.1.3,4.4.9c1.3.6,2.4,1.6,3.2,2.8.8,1.3,1.2,2.9,1.2,4.8v14.4h-3.6v-13.1c0-2.5-.5-4.2-1.6-5.2-1.1-1-2.4-1.5-3.9-1.5s-2.2.3-3.2.8c-1.1.5-2,1.3-2.7,2.5-.7,1.1-1.1,2.7-1.1,4.6v12h-3.6Z"/>
        <path class="st7" d="M465.9,687.2v3.1h-8.2v13.2c0,1.1.3,1.9.9,2.5s1.4.8,2.4.8,1.6-.2,2.2-.5,1.2-.7,1.7-1.2l1.3,3c-.7.6-1.5,1.1-2.5,1.5-.9.4-2,.5-3.3.5s-2.2-.2-3.2-.6c-1-.4-1.8-1-2.4-1.9-.6-.9-.9-2-.9-3.5v-13.8h-4.5v-3.1h4.5v-5.4l3.6-1v6.4h8.2Z"/>
        <path class="st7" d="M480.6,710.2c-2.1,0-4-.5-5.7-1.4-1.7-.9-3-2.3-3.9-4-.9-1.8-1.4-3.8-1.4-6.3s.5-4.5,1.4-6.3c.9-1.8,2.2-3.1,3.8-4s3.5-1.4,5.5-1.4,3.9.5,5.4,1.4c1.5.9,2.6,2.1,3.4,3.7.8,1.5,1.2,3.3,1.2,5.2s0,1,0,1.4c0,.4,0,.8-.1,1.1h-17c.2,2.4.9,4.2,2.2,5.5,1.3,1.3,3,2,5.1,2s3-.3,4-.9c1-.6,1.9-1.5,2.5-2.6l2.8,1.7c-.8,1.5-2,2.7-3.6,3.6-1.6.9-3.5,1.4-5.6,1.4ZM480.3,689.9c-1.9,0-3.4.6-4.7,1.7-1.2,1.1-2,2.7-2.3,4.7h13.4c0-2-.7-3.6-1.9-4.7-1.2-1.1-2.7-1.7-4.5-1.7Z"/>
        <path class="st7" d="M505.3,710.2c-2.2,0-4.2-.5-6.1-1.4-1.8-.9-3.3-2.2-4.3-4l3.1-2.2c.7,1.4,1.6,2.5,2.9,3.2,1.3.8,2.8,1.2,4.6,1.2s2.8-.3,3.7-.9,1.4-1.4,1.4-2.4-.2-1.2-.6-1.7c-.4-.5-1.2-.9-2.3-1.1l-5.4-1.1c-2.2-.5-3.8-1.2-4.7-2.2-.9-1-1.4-2.4-1.4-3.9s.4-2.4,1.1-3.4c.7-1,1.7-1.8,3-2.5,1.3-.6,2.8-.9,4.6-.9s4.1.4,5.6,1.3c1.5.9,2.7,2.1,3.4,3.7l-3,2c-.5-1.3-1.3-2.3-2.5-2.9-1.1-.6-2.3-.9-3.6-.9s-2.9.3-3.8,1-1.4,1.5-1.4,2.5.2,1.3.7,1.8c.5.6,1.3,1,2.5,1.2l5.6,1.2c2.1.4,3.6,1.1,4.4,2.1.8,1,1.3,2.1,1.3,3.5,0,2.1-.8,3.8-2.5,5.1-1.7,1.3-3.8,1.9-6.5,1.9Z"/>
      </g>
    </g>
    <g class="st2">
      <g class="st2">
        <path class="st3" d="M1537.2,409.2c5.7,0,10,1.6,13.1,4.7,3,3.2,4.5,7.6,4.5,13.4s-1.5,10.3-4.5,13.4c-3,3.2-7.4,4.7-13.1,4.7h-15.4v-36.3h15.4ZM1536.3,438.3c3.1,0,5.3-.9,6.7-2.8,1.4-1.9,2.1-4.6,2.1-8.2s-.7-6.4-2.1-8.2c-1.4-1.9-3.7-2.8-6.7-2.8h-5v22h5Z"/>
        <path class="st3" d="M1561.3,445.5v-36.3h28.3v7.3h-18.8v7.4h15v6.9h-15v7.4h19.5v7.3h-29Z"/>
        <path class="st3" d="M1612.7,409.2c4.4,0,7.8,1.1,10.3,3.2,2.5,2.1,3.7,5.1,3.7,8.9s-1.2,6.8-3.7,8.9c-2.5,2.1-5.9,3.2-10.3,3.2h-7.2v12.1h-9.5v-36.3h16.7ZM1611.2,426.3c4,0,6-1.7,6-5s-2-5-6-5h-5.7v10h5.7Z"/>
        <path class="st3" d="M1649,408.7c3.7,0,6.8.7,9.5,2.2,2.7,1.5,4.7,3.6,6.1,6.4,1.4,2.8,2.1,6.1,2.1,10.1s-.7,7.3-2.1,10.1c-1.4,2.8-3.5,4.9-6.1,6.4-2.7,1.5-5.8,2.2-9.5,2.2s-6.9-.7-9.5-2.2c-2.7-1.5-4.7-3.6-6.1-6.4-1.4-2.8-2.1-6.1-2.1-10.1s.7-7.3,2.1-10.1c1.4-2.8,3.5-4.9,6.1-6.4,2.7-1.5,5.8-2.2,9.5-2.2ZM1649,416.1c-2.6,0-4.7.9-6,2.8-1.4,1.9-2.1,4.7-2.1,8.4s.7,6.6,2.1,8.4c1.4,1.9,3.4,2.8,6,2.8s4.6-.9,6-2.8c1.4-1.9,2.1-4.7,2.1-8.4s-.7-6.6-2.1-8.4c-1.4-1.9-3.4-2.8-6-2.8Z"/>
        <path class="st3" d="M1682.7,409.2v36.3h-9.5v-36.3h9.5Z"/>
        <path class="st3" d="M1705,408.7c3.4,0,6.4.5,8.9,1.6s4.8,2.6,6.7,4.6l-4.6,6.1c-1.6-1.7-3.3-2.9-5.1-3.7-1.8-.8-3.9-1.2-6.2-1.2s-3.5.3-4.3,1c-.9.7-1.3,1.5-1.3,2.4s.4,1.4,1.1,2c.7.5,1.9,1,3.5,1.3l6.1,1.4c3.6.8,6.3,2.1,8,3.7s2.5,3.8,2.5,6.4-.7,4.7-2,6.5c-1.3,1.8-3.1,3.1-5.4,4-2.3.9-5,1.3-7.9,1.3s-7-.6-10.1-1.8c-3-1.2-5.5-2.8-7.3-4.7l4.6-6.3c1.4,1.6,3.2,2.9,5.5,3.9,2.3,1,4.7,1.6,7.2,1.6,3.8,0,5.7-1.1,5.7-3.4s-.3-1.4-.9-2-1.6-1-3.1-1.3l-6.7-1.5c-2.1-.4-3.9-1.1-5.5-1.9-1.6-.8-2.9-1.9-3.8-3.2-.9-1.3-1.4-3-1.4-5s.6-4.3,1.9-6.1c1.2-1.8,3-3.2,5.4-4.2,2.3-1,5.2-1.5,8.4-1.5Z"/>
      </g>
      <g class="st2">
        <path class="st4" d="M1377.3,512c-3.9,0-7.1-.8-9.7-2.3-2.6-1.5-4.4-3.7-5.4-6.7l8.7-3.7c.2,2,.9,3.4,1.9,4.2s2.4,1.2,4.1,1.2,2.7-.4,3.6-1.2c.9-.8,1.3-1.9,1.3-3.2s-.4-2.4-1.3-3c-.8-.6-2-.9-3.6-.9s-1.8,0-2.7.2v-6.2c.3,0,.6,0,.9,0,.3,0,.6,0,1,0,1.7,0,2.9-.4,3.7-1.1.8-.7,1.2-1.8,1.2-3.4s-.4-2.3-1.1-3c-.8-.7-1.8-1-3.2-1s-2.6.4-3.5,1.2c-.9.8-1.5,2-1.7,3.8l-8.3-2.9c.4-2,1.3-3.7,2.6-5.1s3-2.5,5-3.2c2-.7,4.2-1.1,6.6-1.1,4.1,0,7.3.9,9.5,2.7,2.2,1.8,3.3,4.2,3.3,7.3s-.2,2.9-.7,4-1.1,1.9-1.9,2.6c-.8.7-1.5,1.1-2.3,1.5-.8.3-1.4.5-1.9.6v.2c.7,0,1.4.1,2.3.4.8.3,1.7.7,2.5,1.3.8.6,1.5,1.4,2,2.3.5,1,.8,2.2.8,3.7,0,2.3-.6,4.2-1.8,5.9-1.2,1.7-2.8,2.9-4.9,3.8-2.1.9-4.4,1.3-7,1.3Z"/>
        <path class="st4" d="M1409.4,474.7c5,0,8.8,1.6,11.3,4.8,2.6,3.2,3.9,7.8,3.9,13.8s-.7,7.9-2,10.7c-1.3,2.8-3.1,4.8-5.4,6.1-2.3,1.3-4.9,2-7.9,2s-5.9-.6-8.2-1.9c-2.3-1.3-4.1-3.3-5.2-6l8.5-3.4c.3,1.3.9,2.3,1.7,3,.8.7,2,1.1,3.4,1.1,2.3,0,4-.9,5-2.7,1-1.8,1.6-4.3,1.6-7.6v-.9h-.2c-.6,1.6-1.8,2.9-3.4,3.6-1.7.8-3.4,1.2-5.3,1.2s-4.3-.5-6.1-1.4c-1.8-.9-3.1-2.2-4.1-3.9-1-1.7-1.5-3.7-1.5-6s.6-4.8,1.7-6.7c1.2-1.9,2.8-3.3,4.8-4.3,2.1-1,4.5-1.5,7.3-1.5ZM1409.4,481.9c-1.6,0-2.9.4-3.8,1.3-.9.9-1.4,2.1-1.4,3.7s.5,2.6,1.4,3.4c1,.8,2.2,1.2,3.7,1.2s2.7-.4,3.7-1.3,1.5-2.1,1.5-3.5-.5-2.7-1.5-3.6c-1-.9-2.2-1.3-3.7-1.3Z"/>
        <path class="st4" d="M1434.7,502c2,0,3.5.7,4.5,2,1,1.4,1.5,2.9,1.5,4.7s-.4,3.2-1.1,4.8-1.7,2.9-2.8,4-2.4,2-3.8,2.6l-3.8-2.8c1.5-.6,2.9-1.5,4-2.5s2-2.2,2.5-3.3l-.3-.2c-.2.1-.5.3-.7.3-.3,0-.7.1-1.1.1-1,0-2-.4-2.9-1.1s-1.5-1.9-1.5-3.4.6-3,1.7-3.9,2.4-1.3,3.8-1.3Z"/>
        <path class="st4" d="M1438.4,475.2h29.9v6.7c-3,2.9-5.4,6-7.1,9.1-1.7,3.1-3,6.4-3.7,9.8s-1.1,7-1.1,10.7h-9.3c0-5.5,1-10.6,2.9-15.3,1.9-4.7,5-9.3,9.1-13.6h-20.6v-7.4Z"/>
        <path class="st4" d="M1486.6,512c-3.9,0-7.1-.8-9.7-2.3-2.6-1.5-4.4-3.7-5.4-6.7l8.7-3.7c.2,2,.9,3.4,1.9,4.2s2.4,1.2,4.1,1.2,2.7-.4,3.6-1.2c.9-.8,1.3-1.9,1.3-3.2s-.4-2.4-1.3-3c-.8-.6-2-.9-3.6-.9s-1.8,0-2.7.2v-6.2c.3,0,.6,0,.9,0,.3,0,.6,0,1,0,1.7,0,2.9-.4,3.7-1.1.8-.7,1.2-1.8,1.2-3.4s-.4-2.3-1.1-3c-.8-.7-1.8-1-3.2-1s-2.6.4-3.5,1.2c-.9.8-1.5,2-1.7,3.8l-8.3-2.9c.4-2,1.3-3.7,2.6-5.1s3-2.5,5-3.2c2-.7,4.2-1.1,6.6-1.1,4.1,0,7.3.9,9.5,2.7,2.2,1.8,3.3,4.2,3.3,7.3s-.2,2.9-.7,4-1.1,1.9-1.9,2.6c-.8.7-1.5,1.1-2.3,1.5-.8.3-1.4.5-1.9.6v.2c.7,0,1.4.1,2.3.4.8.3,1.7.7,2.5,1.3.8.6,1.5,1.4,2,2.3.5,1,.8,2.2.8,3.7,0,2.3-.6,4.2-1.8,5.9-1.2,1.7-2.8,2.9-4.9,3.8-2.1.9-4.4,1.3-7,1.3Z"/>
        <path class="st4" d="M1521.7,511.5v-27.5h8.4l.3,5.3c.9-1.9,2.1-3.4,3.7-4.4,1.6-1,3.4-1.5,5.5-1.5s3.8.5,5.3,1.4c1.5.9,2.6,2.3,3.4,4.1.8-1.8,2.1-3.2,3.8-4.1,1.7-.9,3.5-1.4,5.5-1.4s5,.8,6.7,2.4c1.8,1.6,2.7,4.1,2.7,7.3v18.3h-9.3v-16.2c0-1.8-.3-3-1-3.7-.7-.7-1.6-1-2.7-1s-2.5.5-3.5,1.6c-.9,1-1.4,2.6-1.4,4.6v14.7h-9.3v-16.2c0-1.8-.3-3-1-3.7-.7-.7-1.6-1-2.7-1s-2.4.5-3.4,1.5-1.5,2.6-1.5,4.9v14.5h-9.4Z"/>
        <path class="st4" d="M1578.2,480.8c-1.9,0-3.3-.4-4.2-1.1s-1.3-1.8-1.3-3.4.4-2.7,1.3-3.4c.9-.7,2.2-1.1,4.2-1.1s3.2.4,4.1,1.1c.9.7,1.3,1.9,1.3,3.4s-.4,2.7-1.3,3.4c-.9.7-2.3,1.1-4.1,1.1ZM1582.8,484v27.5h-9.4v-27.5h9.4Z"/>
        <path class="st4" d="M1598.7,472.3v29.8c0,1.2.2,2.1.6,2.6.4.5,1.1.8,2,.8s1,0,1.4-.1c.4,0,.8-.2,1.3-.3l-.6,5.6c-.7.4-1.5.7-2.6,1-1.1.3-2.1.4-3.1.4-2.9,0-5.1-.7-6.4-2-1.3-1.4-2-3.6-2-6.7v-31h9.3Z"/>
        <path class="st4" d="M1607.5,511.5v-39.2h9.3v16.7c.8-1.8,2-3.2,3.5-4.2,1.5-.9,3.2-1.4,5.2-1.4,2.8,0,5.1.8,6.9,2.5,1.8,1.7,2.6,4.1,2.6,7.3v18.3h-9.3v-15.7c0-2-.4-3.3-1.1-4.1-.7-.8-1.7-1.1-2.8-1.1s-2.5.5-3.5,1.5c-1,1-1.5,2.7-1.5,5v14.5h-9.3Z"/>
        <path class="st4" d="M1654.7,483.5c2.9,0,5.4.6,7.6,1.7s3.9,2.8,5.1,4.9c1.2,2.1,1.8,4.7,1.8,7.7s-.6,5.6-1.8,7.7c-1.2,2.1-2.9,3.8-5.1,4.9-2.2,1.1-4.7,1.7-7.6,1.7s-5.4-.6-7.6-1.7c-2.2-1.1-3.9-2.8-5.1-4.9-1.2-2.1-1.8-4.7-1.8-7.7s.6-5.6,1.8-7.7c1.2-2.1,2.9-3.8,5.1-4.9,2.2-1.1,4.7-1.7,7.6-1.7ZM1665.6,472c-.1,2.9-.8,5.1-2.1,6.6-1.3,1.4-2.8,2.2-4.7,2.2s-2-.2-2.7-.5c-.7-.3-1.4-.7-1.9-1.1-.5-.4-1.1-.8-1.5-1.1s-1-.5-1.5-.5-1.1.3-1.4.8c-.3.5-.5,1.3-.7,2.3h-5.3c.1-2.9.9-5.1,2.2-6.6,1.3-1.4,3-2.2,5-2.2s1.8.2,2.5.5c.7.3,1.3.7,1.8,1.1.5.4,1,.8,1.5,1.1.5.3.9.5,1.5.5,1.1,0,1.8-1,2.1-3.1h5.3ZM1654.7,490.1c-1.6,0-2.9.6-3.8,1.8s-1.3,3.1-1.3,5.9.4,4.6,1.3,5.8,2.2,1.8,3.8,1.8,2.9-.6,3.8-1.8,1.3-3.2,1.3-5.8-.4-4.7-1.3-5.9-2.2-1.8-3.8-1.8Z"/>
        <path class="st4" d="M1687.9,512c-4.6,0-8.2-1.2-10.9-3.7-2.7-2.5-4-6-4-10.6s.6-5.6,1.8-7.7c1.2-2.1,2.9-3.8,5.1-4.9,2.1-1.1,4.6-1.7,7.5-1.7s5.4.6,7.4,1.7,3.6,2.7,4.6,4.6c1.1,2,1.6,4.2,1.6,6.7s0,1.4,0,2c0,.6-.1,1.2-.1,1.6h-18.8c.3,1.9.9,3.3,1.9,4.1,1,.8,2.3,1.2,3.9,1.2s2.5-.3,3.3-.8,1.4-1.3,1.8-2.3l7.5,2.5c-.5,1.6-1.4,2.9-2.7,4-1.3,1.1-2.8,1.9-4.5,2.4-1.7.6-3.6.8-5.5.8ZM1687.5,490c-3,0-4.7,1.7-5.3,5.1h10.1c-.4-3.4-2-5.1-4.8-5.1Z"/>
        <path class="st4" d="M1717.9,512c-2.8,0-5.3-.4-7.6-1.3-2.3-.9-4.3-2.2-5.9-3.9l4.4-5.2c.9,1.2,2.1,2.2,3.7,2.9,1.5.8,3.2,1.2,5.1,1.2s2.1-.2,2.8-.5,1.1-.8,1.1-1.5-.2-.9-.5-1.2c-.4-.3-1.1-.6-2.2-.8l-3.8-.8c-3.4-.7-5.9-1.7-7.3-3.1s-2.2-3.2-2.2-5.4.5-2.9,1.4-4.3c.9-1.4,2.3-2.5,4.2-3.4,1.9-.9,4.3-1.3,7.3-1.3,5.7,0,9.8,1.6,12.4,4.7l-4.5,5.1c-.9-1.1-2-2-3.4-2.6-1.4-.6-2.8-.9-4.2-.9-2.7,0-4,.7-4,2s.2.9.7,1.3c.5.4,1.3.7,2.6.9l5,1c2.8.6,4.9,1.5,6.1,2.8,1.2,1.3,1.9,3,1.9,4.9s-1.1,4.9-3.2,6.7c-2.1,1.8-5.4,2.7-9.7,2.7Z"/>
      </g>
      <g class="st2">
        <path class="st7" d="M1452.9,566c-1.9,0-3.6-.5-5.1-1.4-1.6-.9-2.8-2.3-3.7-4-.9-1.8-1.4-3.8-1.4-6.3s.5-4.6,1.5-6.3,2.3-3.1,3.9-4,3.4-1.4,5.2-1.4,3.1.4,4.3,1.1c1.3.7,2.2,1.7,2.8,3v-14h3.6v32.8h-3.1l-.2-4.2c-.6,1.5-1.6,2.7-3.1,3.5-1.4.8-3,1.2-4.6,1.2ZM1453.2,562.8c2.1,0,3.8-.8,5.2-2.4,1.3-1.6,2-3.8,2-6.5s-.6-4.6-1.9-6.1c-1.3-1.5-3-2.2-5-2.2s-4,.8-5.3,2.3c-1.3,1.6-1.9,3.6-1.9,6.2s.6,4.7,1.8,6.2c1.2,1.6,3,2.3,5.2,2.3Z"/>
        <path class="st7" d="M1481.7,566c-2.1,0-4-.5-5.7-1.4-1.7-.9-3-2.3-3.9-4-.9-1.8-1.4-3.8-1.4-6.3s.5-4.5,1.4-6.3c.9-1.8,2.2-3.1,3.8-4s3.5-1.4,5.5-1.4,3.9.5,5.4,1.4c1.5.9,2.6,2.1,3.4,3.7.8,1.5,1.2,3.3,1.2,5.2s0,1,0,1.4c0,.4,0,.8-.1,1.1h-17c.2,2.4.9,4.2,2.2,5.5,1.3,1.3,3,2,5.1,2s3-.3,4-.9c1-.6,1.9-1.5,2.5-2.6l2.8,1.7c-.8,1.5-2,2.7-3.6,3.6-1.6.9-3.5,1.4-5.6,1.4ZM1481.4,545.7c-1.9,0-3.4.6-4.7,1.7s-2,2.7-2.3,4.7h13.4c0-2-.7-3.6-1.9-4.7-1.2-1.1-2.7-1.7-4.5-1.7Z"/>
        <path class="st7" d="M1513.6,565.5v-32.8h3.6v13.7c.8-1.3,1.8-2.3,3.1-2.9,1.3-.6,2.7-.9,4.2-.9s3.1.3,4.4.9c1.3.6,2.4,1.6,3.2,2.8s1.2,2.9,1.2,4.8v14.4h-3.6v-13.1c0-2.5-.5-4.2-1.6-5.2-1.1-1-2.4-1.5-3.9-1.5s-2.2.3-3.2.8c-1.1.5-2,1.3-2.7,2.5s-1.1,2.7-1.1,4.6v11.9h-3.6Z"/>
        <path class="st7" d="M1554.6,551c0-1.7-.5-3-1.4-3.9-.9-.9-2.2-1.4-3.8-1.4s-2.9.3-4,1c-1.1.7-1.9,1.8-2.4,3.3l-2.9-1.8c.6-1.7,1.7-3,3.3-4.1s3.6-1.6,6-1.6,3.1.3,4.4.8,2.4,1.4,3.1,2.5,1.1,2.6,1.1,4.3v10.9c0,1.1.6,1.6,1.7,1.6s1.1,0,1.7-.2l-.2,2.8c-.6.3-1.4.5-2.3.5s-2.1-.3-2.9-.8-1.3-1.4-1.6-2.5c-.8,1.2-1.8,2-3.2,2.6s-2.7.8-4,.8-2.6-.2-3.7-.7c-1.1-.5-2-1.1-2.7-2-.7-.9-1-2-1-3.4s.6-3.1,1.7-4.2c1.1-1.1,2.7-1.8,4.7-2.2l8.2-1.6v-.9ZM1543.7,559.7c0,.9.4,1.7,1.1,2.3s1.8.9,3.1.9,2.3-.2,3.3-.6c1-.4,1.8-1,2.5-1.8s.9-1.9.9-3.2v-2.4l-6.5,1.3c-1.5.3-2.6.7-3.3,1.3s-1.1,1.3-1.1,2.2Z"/>
        <path class="st7" d="M1578,566c-1.7,0-3.2-.4-4.6-1.2-1.4-.8-2.4-1.9-3.1-3.2l-.2,4h-3.2v-32.8h3.6v13.9c.7-1.2,1.7-2.1,3-2.9,1.3-.7,2.8-1.1,4.4-1.1s3.6.5,5.1,1.4c1.6.9,2.8,2.3,3.7,4,.9,1.7,1.4,3.8,1.4,6.3s-.5,4.5-1.4,6.3c-.9,1.8-2.2,3.1-3.8,4-1.6.9-3.3,1.4-5.1,1.4ZM1577.6,562.8c2.2,0,4-.8,5.2-2.3,1.2-1.6,1.9-3.6,1.9-6.2s-.6-4.6-1.8-6.2c-1.2-1.6-3-2.3-5.2-2.3s-3.8.8-5.1,2.4c-1.3,1.6-2,3.7-2,6.3s.7,4.6,2,6.2,3,2.3,5.1,2.3Z"/>
        <path class="st7" d="M1596.9,538.7c-.8,0-1.5-.2-2-.7s-.7-1.1-.7-2,.2-1.5.7-2,1.1-.7,2-.7,1.5.2,2,.7.7,1.1.7,2-.2,1.5-.7,2-1.1.7-2,.7ZM1598.7,543v22.5h-3.6v-22.5h3.6Z"/>
        <path class="st7" d="M1620.6,543v3.1h-8.2v13.2c0,1.1.3,1.9.9,2.5s1.4.8,2.4.8,1.6-.2,2.2-.5,1.2-.7,1.7-1.2l1.3,3c-.7.6-1.5,1.1-2.5,1.5-.9.4-2,.5-3.3.5s-2.2-.2-3.2-.6c-1-.4-1.8-1-2.4-1.9-.6-.9-.9-2-.9-3.5v-13.8h-4.5v-3.1h4.5v-5.4l3.6-1v6.4h8.2Z"/>
        <path class="st7" d="M1639.1,551c0-1.7-.5-3-1.4-3.9-.9-.9-2.2-1.4-3.8-1.4s-2.9.3-4,1c-1.1.7-1.9,1.8-2.4,3.3l-2.9-1.8c.6-1.7,1.7-3,3.3-4.1s3.6-1.6,6-1.6,3.1.3,4.4.8,2.4,1.4,3.1,2.5,1.1,2.6,1.1,4.3v10.9c0,1.1.6,1.6,1.7,1.6s1.1,0,1.7-.2l-.2,2.8c-.6.3-1.4.5-2.3.5s-2.1-.3-2.9-.8-1.3-1.4-1.6-2.5c-.8,1.2-1.8,2-3.2,2.6s-2.7.8-4,.8-2.6-.2-3.7-.7c-1.1-.5-2-1.1-2.7-2-.7-.9-1-2-1-3.4s.6-3.1,1.7-4.2c1.1-1.1,2.7-1.8,4.7-2.2l8.2-1.6v-.9ZM1628.2,559.7c0,.9.4,1.7,1.1,2.3s1.8.9,3.1.9,2.3-.2,3.3-.6c1-.4,1.8-1,2.5-1.8s.9-1.9.9-3.2v-2.4l-6.5,1.3c-1.5.3-2.6.7-3.3,1.3s-1.1,1.3-1.1,2.2Z"/>
        <path class="st7" d="M1651.4,565.5v-22.5h3.2l.2,3.5c.8-1.4,1.8-2.4,3.2-3,1.3-.6,2.8-.9,4.4-.9s3.1.3,4.4.9c1.3.6,2.4,1.6,3.2,2.8s1.2,2.9,1.2,4.8v14.4h-3.6v-13.1c0-2.5-.5-4.2-1.6-5.2-1.1-1-2.4-1.5-3.9-1.5s-2.2.3-3.2.8c-1.1.5-2,1.3-2.7,2.5-.7,1.1-1.1,2.7-1.1,4.6v12h-3.6Z"/>
        <path class="st7" d="M1692.5,543v3.1h-8.2v13.2c0,1.1.3,1.9.9,2.5s1.4.8,2.4.8,1.6-.2,2.2-.5,1.2-.7,1.7-1.2l1.3,3c-.7.6-1.5,1.1-2.5,1.5-.9.4-2,.5-3.3.5s-2.2-.2-3.2-.6c-1-.4-1.8-1-2.4-1.9-.6-.9-.9-2-.9-3.5v-13.8h-4.5v-3.1h4.5v-5.4l3.6-1v6.4h8.2Z"/>
        <path class="st7" d="M1707.2,566c-2.1,0-4-.5-5.7-1.4-1.7-.9-3-2.3-3.9-4-.9-1.8-1.4-3.8-1.4-6.3s.5-4.5,1.4-6.3c.9-1.8,2.2-3.1,3.8-4s3.5-1.4,5.5-1.4,3.9.5,5.4,1.4c1.5.9,2.6,2.1,3.4,3.7.8,1.5,1.2,3.3,1.2,5.2s0,1,0,1.4c0,.4,0,.8-.1,1.1h-17c.2,2.4.9,4.2,2.2,5.5,1.3,1.3,3,2,5.1,2s3-.3,4-.9c1-.6,1.9-1.5,2.5-2.6l2.8,1.7c-.8,1.5-2,2.7-3.6,3.6-1.6.9-3.5,1.4-5.6,1.4ZM1706.9,545.7c-1.9,0-3.4.6-4.7,1.7s-2,2.7-2.3,4.7h13.4c0-2-.7-3.6-1.9-4.7-1.2-1.1-2.7-1.7-4.5-1.7Z"/>
        <path class="st7" d="M1731.9,566c-2.2,0-4.2-.5-6.1-1.4-1.8-.9-3.3-2.2-4.3-4l3.1-2.2c.7,1.4,1.6,2.5,2.9,3.2,1.3.8,2.8,1.2,4.6,1.2s2.8-.3,3.7-.9c.9-.6,1.3-1.4,1.3-2.4s-.2-1.2-.6-1.7c-.4-.5-1.2-.9-2.3-1.1l-5.4-1.1c-2.2-.5-3.8-1.2-4.7-2.2-.9-1-1.4-2.4-1.4-3.9s.4-2.4,1.1-3.4c.7-1,1.7-1.8,3-2.5,1.3-.6,2.8-.9,4.6-.9s4.1.4,5.6,1.3,2.7,2.1,3.4,3.7l-3,2c-.5-1.3-1.3-2.3-2.5-2.9-1.1-.6-2.3-.9-3.6-.9s-2.9.3-3.8,1c-.9.7-1.3,1.5-1.3,2.5s.2,1.3.7,1.8c.5.6,1.3,1,2.5,1.2l5.6,1.2c2.1.4,3.6,1.1,4.4,2.1.8,1,1.3,2.1,1.3,3.5,0,2.1-.8,3.8-2.5,5.1-1.7,1.3-3.8,1.9-6.5,1.9Z"/>
      </g>
    </g>
  </g>
  <g class="st2">
    <g class="st2">
      <path class="st5" d="M184.7,362.8v-25.8c0-1.2,0-2.4,0-3.6,0-1.2,0-2.5,0-3.8-1.5,1.4-3.2,2.6-5,3.6-1.8,1-3.7,1.7-5.7,2l-1.1-9.6c1.5-.2,3.2-.7,5.1-1.4,1.8-.8,3.5-1.7,5.1-2.8,1.6-1.1,2.7-2.2,3.5-3.3h9.3v44.7h-11.3Z"/>
      <path class="st5" d="M220.4,363.5c-3.9,0-7.3-.8-10.1-2.3-2.9-1.5-5.3-4-7.2-7.4l10.2-5.1c.5,1.8,1.3,3.3,2.4,4.3,1.1,1.1,2.8,1.6,5,1.6s3.7-.6,4.9-1.7c1.2-1.1,1.8-2.7,1.8-4.8,0-4.1-2.3-6.2-6.8-6.2s-5.5.9-7.2,2.6l-8.8-1.6,2.8-25h28.2v9h-19.7l-1.2,8.9-.2,1.1h0c.9-1,2.2-1.8,3.8-2.4,1.6-.5,3.4-.8,5.4-.8,2.9,0,5.5.6,7.6,1.8,2.1,1.2,3.7,2.8,4.8,4.8,1.1,2,1.7,4.4,1.7,7s-.8,6.7-2.4,9.1c-1.6,2.4-3.8,4.1-6.4,5.3-2.7,1.1-5.6,1.7-8.7,1.7Z"/>
      <path class="st5" d="M250.2,351.1c2.5,0,4.3.8,5.5,2.5,1.2,1.7,1.8,3.6,1.8,5.8s-.4,4-1.3,5.9c-.9,1.9-2,3.5-3.5,4.9s-3,2.5-4.6,3.2l-4.7-3.5c1.9-.8,3.5-1.8,5-3.1,1.5-1.3,2.5-2.7,3.1-4.1l-.3-.2c-.3.2-.6.3-.9.4-.3,0-.8.1-1.4.1-1.2,0-2.4-.5-3.6-1.4-1.2-.9-1.8-2.3-1.8-4.2s.7-3.7,2.1-4.8c1.4-1.1,2.9-1.7,4.7-1.7Z"/>
      <path class="st5" d="M283,317.4c3.6,0,6.7.7,9.5,2.2,2.8,1.5,4.8,4,6,7.7l-9.5,4.5c-.5-1.6-1.2-2.8-2.3-3.8-1.1-.9-2.6-1.4-4.4-1.4-2.6,0-4.7,1.2-6.2,3.5-1.5,2.3-2.3,5.5-2.3,9.7v1.5c.6-1.4,1.5-2.5,2.6-3.5,1.2-.9,2.5-1.7,4-2.1s3-.7,4.5-.7c2.8,0,5.2.5,7.4,1.6,2.2,1.1,3.9,2.6,5.1,4.7,1.2,2,1.9,4.5,1.9,7.3s-.7,5.7-2.1,8c-1.4,2.2-3.4,4-5.9,5.2-2.5,1.2-5.5,1.8-8.8,1.8s-7.2-.8-10.1-2.5c-2.9-1.7-5.2-4.2-6.8-7.6-1.6-3.4-2.4-7.5-2.4-12.5s.9-9.7,2.6-13.2c1.8-3.5,4.1-6.1,7.2-7.8,3-1.7,6.4-2.5,10.1-2.5ZM282.2,342.8c-1.8,0-3.3.5-4.5,1.6-1.2,1.1-1.8,2.5-1.8,4.4s.6,3.2,1.9,4.3c1.2,1.1,2.7,1.7,4.5,1.7s3.6-.5,4.7-1.6c1.1-1,1.7-2.5,1.7-4.4s-.6-3.4-1.7-4.4c-1.1-1-2.7-1.6-4.7-1.6Z"/>
      <path class="st5" d="M316.2,317.4c3.8,0,6.8,1.2,9.2,3.5,2.3,2.3,3.5,5.4,3.5,9.3s-1.2,6.9-3.5,9.3c-2.3,2.3-5.4,3.5-9.2,3.5s-6.8-1.2-9.2-3.5c-2.3-2.3-3.5-5.4-3.5-9.3s1.2-6.9,3.5-9.3c2.3-2.3,5.4-3.5,9.2-3.5ZM316.2,325.1c-1.3,0-2.2.4-2.9,1.3-.7.9-1.1,2.1-1.1,3.7s.3,2.8,1.1,3.7c.7.9,1.7,1.3,2.9,1.3s2.3-.4,3-1.3c.7-.9,1.1-2.1,1.1-3.7s-.4-2.8-1.1-3.7c-.7-.9-1.7-1.3-3-1.3ZM313.4,362.8l31.1-44.8h8.8l-31.1,44.8h-8.8ZM350.5,338c3.8,0,6.8,1.2,9.2,3.5,2.3,2.3,3.5,5.4,3.5,9.3s-1.2,6.9-3.5,9.3-5.4,3.5-9.2,3.5-6.8-1.2-9.2-3.5-3.5-5.4-3.5-9.3,1.2-6.9,3.5-9.3c2.3-2.3,5.4-3.5,9.2-3.5ZM350.5,345.7c-1.3,0-2.3.4-3,1.3-.7.9-1.1,2.1-1.1,3.7s.3,2.8,1.1,3.7c.7.9,1.7,1.3,3,1.3s2.3-.4,3-1.3c.7-.9,1.1-2.1,1.1-3.7s-.4-2.8-1.1-3.7c-.7-.9-1.7-1.3-3-1.3Z"/>
    </g>
  </g>
  <g class="st2">
    <g class="st2">
      <path class="st5" d="M1614.2,223.7v-7.5c5.1-3.2,9.2-6.1,12.4-8.8,3.1-2.6,5.4-5.1,6.9-7.4,1.4-2.3,2.2-4.5,2.2-6.6s-.5-3.2-1.5-4.3c-1-1.2-2.5-1.7-4.5-1.7s-3.8.8-5,2.3c-1.2,1.6-1.8,3.8-1.9,6.8l-10-3.1c0-3.3.9-6.1,2.4-8.4,1.5-2.3,3.6-4,6.2-5.2,2.6-1.2,5.6-1.7,9-1.7s7.1.7,9.6,2.1c2.5,1.4,4.3,3.2,5.5,5.4,1.2,2.2,1.8,4.5,1.8,6.8,0,4.3-1.7,8.3-4.9,11.8-3.3,3.5-8,7.1-14,10.5h0c1.1,0,2.6,0,4.3-.1,1.7,0,3.3,0,4.7,0h10.5v8.9h-33.6Z"/>
      <path class="st5" d="M1663.5,223.7v-25.8c0-1.2,0-2.4,0-3.6,0-1.2,0-2.5,0-3.8-1.5,1.4-3.2,2.6-5,3.6-1.8,1-3.7,1.7-5.7,2l-1.1-9.6c1.5-.2,3.2-.7,5.1-1.4,1.8-.8,3.5-1.7,5.1-2.8,1.6-1.1,2.7-2.2,3.5-3.3h9.3v44.7h-11.3Z"/>
      <path class="st5" d="M1694.4,178.3c3.8,0,6.8,1.2,9.2,3.5,2.3,2.3,3.5,5.4,3.5,9.3s-1.2,6.9-3.5,9.3c-2.3,2.3-5.4,3.5-9.2,3.5s-6.8-1.2-9.2-3.5c-2.3-2.3-3.5-5.4-3.5-9.3s1.2-6.9,3.5-9.3c2.3-2.3,5.4-3.5,9.2-3.5ZM1694.4,186c-1.3,0-2.2.4-3,1.3-.7.9-1.1,2.1-1.1,3.7s.3,2.8,1.1,3.7c.7.9,1.7,1.3,3,1.3s2.3-.4,3-1.3c.7-.9,1.1-2.1,1.1-3.7s-.4-2.8-1.1-3.7c-.7-.9-1.7-1.3-3-1.3ZM1691.6,223.7l31.1-44.8h8.8l-31.1,44.8h-8.8ZM1728.6,198.9c3.8,0,6.8,1.2,9.2,3.5,2.3,2.3,3.5,5.4,3.5,9.3s-1.2,6.9-3.5,9.3c-2.3,2.3-5.4,3.5-9.2,3.5s-6.8-1.2-9.2-3.5c-2.3-2.3-3.5-5.4-3.5-9.3s1.2-6.9,3.5-9.3c2.3-2.3,5.4-3.5,9.2-3.5ZM1728.6,206.6c-1.3,0-2.3.4-3,1.3-.7.9-1.1,2.1-1.1,3.7s.3,2.8,1.1,3.7c.7.9,1.7,1.3,3,1.3s2.3-.4,3-1.3c.7-.9,1.1-2.1,1.1-3.7s-.4-2.8-1.1-3.7c-.7-.9-1.7-1.3-3-1.3Z"/>
    </g>
  </g>
  <g>
    <circle class="st1" cx="244.8" cy="471.5" r="30.5" transform="translate(-259.8 637.6) rotate(-80.8)"/>
    <path class="st5" d="M244.8,502.5c-17.1,0-31-13.9-31-31s13.9-31,31-31,31,13.9,31,31-13.9,31-31,31ZM244.8,441.5c-16.5,0-30,13.5-30,30s13.5,30,30,30,30-13.5,30-30-13.5-30-30-30Z"/>
  </g>
  <g>
    <g>
      <circle class="st0" cx="1659.6" cy="321.9" r="30.5"/>
      <path class="st5" d="M1659.6,372.4c-27.8,0-50.5-22.7-50.5-50.5s22.7-50.5,50.5-50.5,50.5,22.7,50.5,50.5-22.7,50.5-50.5,50.5ZM1659.6,311.4c-5.8,0-10.5,4.7-10.5,10.5s4.7,10.5,10.5,10.5,10.5-4.7,10.5-10.5-4.7-10.5-10.5-10.5Z"/>
    </g>
    <g>
      <circle class="st1" cx="1659.6" cy="321.9" r="30.5"/>
      <path class="st5" d="M1659.6,352.9c-17.1,0-31-13.9-31-31s13.9-31,31-31,31,13.9,31,31-13.9,31-31,31ZM1659.6,291.9c-16.5,0-30,13.5-30,30s13.5,30,30,30,30-13.5,30-30-13.5-30-30-30Z"/>
    </g>
  </g>
</svg>