<?xml version="1.0" encoding="UTF-8"?>
<svg id="Layer_2" data-name="Layer 2" xmlns="http://www.w3.org/2000/svg" viewBox="0 0 100.94 115.89">
  <defs>
    <style>
      .cls-1 {
        fill: #ee8362;
      }
    </style>
  </defs>
  <g id="Layer_1-2" data-name="Layer 1">
    <g>
      <circle class="cls-1" cx="35.52" cy="35.51" r="1.87"/>
      <circle class="cls-1" cx="50.47" cy="35.51" r="1.87"/>
      <path class="cls-1" d="M93.46,37.38c-4.12,0-7.48,3.35-7.48,7.48v.34c-2.17.77-3.74,2.83-3.74,5.26v4.38c0,2.5.97,4.84,2.74,6.61l.85.85-3.08,16.45-7.88-6.3c-5.63-4.5-12.29-7.8-19.28-9.55l-3.58-.89-.76-3.02c4.42-1.64,7.72-5.59,8.41-10.39h.15c4.12,0,7.48-3.35,7.48-7.48,0-.06-.02-.12-.02-.18,7.23-2.78,11.23-6.65,11.23-11.03,0-5.37-6.06-9.9-15.6-12.52l-2.05-9.51c-.84-3.92-4.1-6.87-8.11-7.33-6.32-.73-13.2-.73-19.51,0-4.01.46-7.26,3.41-8.11,7.33l-2.05,9.51c-9.54,2.62-15.6,7.16-15.6,12.52,0,4.38,4,8.26,11.23,11.03,0,.06-.02.12-.02.18,0,4.12,3.35,7.48,7.48,7.48h.15c.69,4.8,3.99,8.75,8.41,10.39l-.74,2.96c-3.69.68-7.18,1.97-10.41,3.85l-11.59-11.59h-.77c-3.85,0-6.99,2.93-7.39,6.67-2.43,2.67-3.82,6.21-3.82,9.83v15.27c0,2.06,1.68,3.74,3.74,3.74h4.02c-.16,1.32-.28,2.66-.28,4.01v1.6c0,5.15,4.19,9.35,9.35,9.35h1.87v11.21h54.98l-6.38-6.38v-14.77l15.46,8.43c1.8.98,3.84,1.5,5.89,1.5,6.78,0,12.29-5.52,12.29-12.29v-47.51c0-4.12-3.35-7.48-7.48-7.48h0ZM39.11,67.43l-4.54,2.73-1.68-4.19c.77-.19,1.56-.34,2.36-.47l3.86,1.93ZM50.69,65.53l2.35.59-1.62,4.04-4.54-2.73,3.81-1.91h0ZM45.86,44.86c2.77,0,5.16,2.07,5.55,4.81l.67,4.7c-1.52,1.06-3.35,1.7-5.34,1.7h-7.48c-1.99,0-3.83-.64-5.34-1.7l.67-4.7c.39-2.75,2.78-4.81,5.55-4.81,0,0,5.72,0,5.72,0ZM59.82,44.86v-7.48c2.06,0,3.74,1.68,3.74,3.74s-1.68,3.74-3.74,3.74ZM33.66,4.26c6.03-.69,12.63-.69,18.66,0,2.41.28,4.37,2.05,4.88,4.4v.04c-8.93-1.56-19.5-1.56-28.43,0v-.04c.52-2.35,2.48-4.12,4.89-4.4h0ZM27.92,12.66c9.29-1.86,20.86-1.86,30.15,0l.81,3.78c-4.74-.95-10.1-1.49-15.89-1.49s-11.15.54-15.89,1.49c0,0,.82-3.78.82-3.78ZM22.43,41.12c0-2.06,1.67-3.74,3.71-3.74v7.48c-2.04,0-3.71-1.68-3.71-3.74ZM26.17,33.37v.27c-2.74,0-5.12,1.5-6.42,3.7-5.36-2.11-8.53-4.83-8.53-7.44,0-5.3,13.05-11.21,31.77-11.21s31.77,5.91,31.77,11.21c0,2.61-3.17,5.33-8.53,7.44-1.3-2.2-3.68-3.7-6.42-3.7v-.27c0-6.03-4.91-10.94-10.94-10.94-1.69,0-3.38.4-4.89,1.16l-.99.49-.99-.49c-1.51-.76-3.21-1.16-4.89-1.16-6.03,0-10.94,4.91-10.94,10.94h0ZM29.91,46.73v-13.36c0-3.97,3.23-7.2,7.2-7.2,1.11,0,2.22.26,3.22.76l2.66,1.33,2.66-1.33c1-.5,2.11-.76,3.22-.76,3.97,0,7.2,3.23,7.2,7.2v13.36c0,1.33-.29,2.58-.78,3.72l-.19-1.31c-.65-4.57-4.63-8.02-9.25-8.02h-.99v-3.74h-3.74v3.74h-.99c-4.62,0-8.6,3.45-9.25,8.02l-.19,1.31c-.5-1.14-.78-2.4-.78-3.72h0ZM39.26,59.81h7.48c.29,0,.58-.02.87-.04l.7,2.78-5.3,2.65-5.3-2.65.7-2.78c.29.02.57.04.87.04h-.02ZM29.33,67.12l2.94,7.35-5.95-5.95c.98-.53,1.98-1,3.01-1.41h0ZM34.97,87.62l-.39.39-19.55-19.55c.29-1.5,1.47-2.68,2.96-2.96l20.53,20.53c-1.34.1-2.59.64-3.55,1.6h0ZM10.51,58.01l4.62,4.62c-1.25.69-2.28,1.71-2.96,2.96l-4.62-4.62c.29-1.5,1.47-2.68,2.96-2.96ZM8.45,85.98H3.74v-15.27c0-2.24.72-4.44,1.99-6.26l8.96,8.96c-3,3.71-5.12,7.99-6.25,12.57h0ZM11.22,95.32v-1.6c0-6.44,2.18-12.63,6.13-17.66l13.66,13.65h-8.57v-3.74h-3.74v3.74h-3.74v3.74h19.46l3.19-3.19c.35-.35.83-.55,1.32-.55h4.06c1.03,0,1.87.84,1.87,1.87v7.48c0,1.03-.84,1.87-1.87,1.87h-26.17c-3.09,0-5.61-2.52-5.61-5.61h.01ZM22.43,104.67h20.56c.86,0,1.67-.21,2.4-.56l8.04,8.04h-31v-7.48ZM58.72,112.14l-10.68-10.68c.35-.73.56-1.54.56-2.4v-2.96l16.05,16.05h-5.93,0ZM63.55,85.98v19.79l-15.04-15.04c-.37-2.4-2.26-4.29-4.66-4.66l-10.7-10.7,9.84-5.9,10.26,6.16,3.42-8.54c5.74,1.72,11.19,4.55,15.86,8.29l5.15,4.12-7.1,12.78-3.3-1.8v-4.5h-3.74,0ZM97.2,92.37c0,4.72-3.84,8.56-8.56,8.56-1.43,0-2.84-.36-4.1-1.04l-10.67-5.82,6.78-12.2,1.32,1.06-1.56,8.32,3.67.69,5.79-30.87-2.24-2.24c-1.06-1.06-1.64-2.46-1.64-3.96v-4.38c0-1.03.84-1.87,1.87-1.87s1.87.84,1.87,1.87v1.87h3.74v-1.87c0-2.43-1.57-4.49-3.74-5.26v-.34c0-2.06,1.68-3.74,3.74-3.74s3.74,1.68,3.74,3.74v47.51-.03Z"/>
      <path class="cls-1" d="M41.12,74.76h3.74v3.74h-3.74v-3.74Z"/>
    </g>
  </g>
</svg>